<?xml version="1.0" encoding="utf-8" standalone="no"?>
<!DOCTYPE svg PUBLIC "-//W3C//DTD SVG 1.1//EN"
  "http://www.w3.org/Graphics/SVG/1.1/DTD/svg11.dtd">
<!-- Created with matplotlib (http://matplotlib.org/) -->
<svg height="432pt" version="1.1" viewBox="0 0 576 432" width="576pt" xmlns="http://www.w3.org/2000/svg" xmlns:xlink="http://www.w3.org/1999/xlink">
 <defs>
  <style type="text/css">
*{stroke-linecap:butt;stroke-linejoin:round;stroke-miterlimit:100000;}
  </style>
 </defs>
 <g id="figure_1">
  <g id="patch_1">
   <path d="M 0 432 
L 576 432 
L 576 0 
L 0 0 
z
" style="fill:#ffffff;"/>
  </g>
  <g id="axes_1">
   <g id="patch_2">
    <path d="M 54.525 384.9 
L 503.88 384.9 
L 503.88 7.678218 
L 54.525 7.678218 
z
" style="fill:#ffffff;"/>
   </g>
   <g id="line2d_1">
    <defs>
     <path d="M 0 1.5 
C 0.397805 1.5 0.77937 1.341951 1.06066 1.06066 
C 1.341951 0.77937 1.5 0.397805 1.5 0 
C 1.5 -0.397805 1.341951 -0.77937 1.06066 -1.06066 
C 0.77937 -1.341951 0.397805 -1.5 0 -1.5 
C -0.397805 -1.5 -0.77937 -1.341951 -1.06066 -1.06066 
C -1.341951 -0.77937 -1.5 -0.397805 -1.5 0 
C -1.5 0.397805 -1.341951 0.77937 -1.06066 1.06066 
C -0.77937 1.341951 -0.397805 1.5 0 1.5 
z
" id="me0ed4da3ab" style="stroke:#000080;stroke-width:0.5;"/>
    </defs>
    <g>
     <use style="fill:#000080;stroke:#000080;stroke-width:0.5;" x="260.136583761" xlink:href="#me0ed4da3ab" y="11.4130869523"/>
     <use style="fill:#000080;stroke:#000080;stroke-width:0.5;" x="260.136583761" xlink:href="#me0ed4da3ab" y="11.4130869523"/>
    </g>
   </g>
   <g id="line2d_2">
    <path d="M 33.92404 384.9 
L 33.92404 361.465527 
L 123.608349 361.465527 
L 123.608349 360.7332 
L 127.074118 360.7332 
L 127.074118 360.000872 
L 128.120027 360.000872 
L 128.120027 359.268545 
L 128.458123 359.268545 
L 128.458123 357.803891 
L 129.119436 357.803891 
L 129.119436 355.606909 
L 129.442937 355.606909 
L 129.442937 354.874582 
L 129.761851 354.874582 
L 129.761851 351.212945 
L 130.692314 351.212945 
L 130.692314 347.551309 
L 130.994104 347.551309 
L 130.994104 346.086654 
L 131.585796 346.086654 
L 131.585796 344.622 
L 131.875903 344.622 
L 131.875903 343.889672 
L 141.932821 343.889672 
L 141.932821 343.157345 
L 145.660328 343.157345 
L 145.660328 342.425018 
L 146.42774 342.425018 
L 146.42774 341.69269 
L 147.603589 341.69269 
L 147.603589 340.228036 
L 148.856836 340.228036 
L 148.856836 338.763381 
L 151.892856 338.763381 
L 151.892856 337.298727 
L 152.128282 337.298727 
L 152.128282 336.566399 
L 153.158218 336.566399 
L 153.158218 335.834072 
L 153.380824 335.834072 
L 153.380824 334.369418 
L 155.392409 334.369418 
L 155.392409 333.63709 
L 158.419899 333.63709 
L 158.419899 332.904763 
L 158.858178 332.904763 
L 158.858178 332.172436 
L 159.95926 332.172436 
L 159.95926 330.707781 
L 160.368798 330.707781 
L 160.368798 329.975454 
L 161.322283 329.975454 
L 161.322283 329.243127 
L 162.087085 329.243127 
L 162.087085 328.510799 
L 162.826723 328.510799 
L 162.826723 327.046145 
L 164.030825 327.046145 
L 164.030825 326.313818 
L 166.632916 326.313818 
L 166.632916 325.58149 
L 169.993131 325.58149 
L 169.993131 324.849163 
L 171.32813 324.849163 
L 171.32813 324.116836 
L 171.772375 324.116836 
L 171.772375 323.384508 
L 172.11193 323.384508 
L 172.160022 321.919854 
L 172.255899 321.919854 
L 172.351368 319.722872 
L 172.541099 319.722872 
L 172.541099 318.258217 
L 173.146895 318.258217 
L 173.146895 317.52589 
L 173.959622 317.52589 
L 173.959622 316.061236 
L 174.658179 316.061236 
L 174.658179 315.328908 
L 176.275165 315.328908 
L 176.275165 314.596581 
L 176.394861 314.596581 
L 176.434619 312.399599 
L 176.906308 312.399599 
L 176.906308 311.667272 
L 177.330164 311.667272 
L 177.330164 310.202617 
L 177.820996 310.202617 
L 177.820996 308.737963 
L 178.735809 308.737963 
L 178.735809 308.005636 
L 179.871997 308.005636 
L 179.871997 307.273308 
L 180.394293 307.273308 
L 180.394293 306.540981 
L 182.703078 306.540981 
L 182.703078 305.808654 
L 184.186011 305.808654 
L 184.186011 305.076326 
L 184.465654 305.076326 
L 184.465654 304.343999 
L 184.631785 304.343999 
L 184.631785 303.611672 
L 184.769296 303.611672 
L 184.769296 302.147017 
L 185.068892 302.147017 
L 185.082416 299.217708 
L 185.471103 299.217708 
L 185.471103 298.485381 
L 185.60359 298.485381 
L 185.656367 297.020726 
L 185.735301 297.020726 
L 185.78777 293.35909 
L 186.022378 293.35909 
L 186.074182 290.429781 
L 186.254562 290.429781 
L 186.331427 287.500472 
L 186.484373 287.500472 
L 186.484373 285.30349 
L 186.636286 285.30349 
L 186.736994 279.444872 
L 186.81223 279.444872 
L 186.862248 277.24789 
L 186.937066 277.24789 
L 187.011637 273.586253 
L 187.110681 273.586253 
L 187.209291 269.924617 
L 187.246158 269.924617 
L 187.356399 267.727635 
L 187.380824 267.727635 
L 187.45394 261.869017 
L 187.526818 261.869017 
L 187.599461 259.672035 
L 187.64776 259.672035 
L 187.695955 256.010399 
L 187.768054 256.010399 
L 187.863829 250.15178 
L 187.935393 250.15178 
L 187.982976 247.954799 
L 188.125124 247.954799 
L 188.172307 244.293162 
L 188.242898 244.293162 
L 188.313267 242.09618 
L 188.406751 242.09618 
L 188.476611 234.772908 
L 188.546253 234.772908 
L 188.592562 232.575926 
L 188.684895 232.575926 
L 188.73092 228.181962 
L 188.79978 228.181962 
L 188.79978 226.717307 
L 188.914082 226.717307 
L 189.005106 221.591016 
L 189.05048 221.591016 
L 189.118371 217.92938 
L 189.163517 217.92938 
L 189.208573 214.267744 
L 190.668031 214.267744 
L 190.720696 211.338435 
L 191.209816 211.338435 
L 191.281761 209.141453 
L 191.919117 209.141453 
L 191.919117 208.409125 
L 192.294997 208.409125 
L 192.294997 207.676798 
L 192.78019 207.676798 
L 192.78019 206.944471 
L 193.056878 206.944471 
L 193.056878 206.212144 
L 193.535358 206.212144 
L 193.535358 205.479816 
L 193.646476 205.479816 
L 193.646476 204.747489 
L 193.775425 204.747489 
L 193.876225 202.550507 
L 193.894504 202.550507 
L 193.949251 200.353525 
L 194.058348 200.353525 
L 194.058348 199.621198 
L 194.193979 199.621198 
L 194.193979 198.888871 
L 194.319834 198.888871 
L 194.319834 198.156543 
L 194.79878 198.156543 
L 194.79878 197.424216 
L 194.956187 197.424216 
L 194.956187 196.691889 
L 195.172997 196.691889 
L 195.216109 194.494907 
L 195.387736 194.494907 
L 195.413367 192.297925 
L 195.532596 192.297925 
L 195.532596 190.833271 
L 195.853064 190.833271 
L 195.853064 188.636289 
L 196.036532 188.636289 
L 196.111157 184.974652 
L 196.259669 184.974652 
L 196.325361 182.777671 
L 196.439862 182.777671 
L 196.529419 181.313016 
L 196.553782 181.313016 
L 196.650971 179.116034 
L 196.715531 179.116034 
L 196.771869 177.65138 
L 196.828067 177.65138 
L 196.828067 176.919052 
L 197.035579 176.919052 
L 197.146528 173.257416 
L 197.186021 173.257416 
L 197.186021 172.525089 
L 197.382449 172.525089 
L 197.483917 168.863452 
L 197.639133 168.863452 
L 197.731751 165.934143 
L 197.754846 165.934143 
L 197.854651 163.004834 
L 198.113605 163.004834 
L 198.143875 161.540179 
L 198.264549 161.540179 
L 198.332144 157.146216 
L 198.770307 157.146216 
L 198.770307 156.413888 
L 199.15676 156.413888 
L 199.15676 155.681561 
L 199.272132 155.681561 
L 199.272132 154.949234 
L 199.415519 154.949234 
L 199.458357 153.484579 
L 199.600565 153.484579 
L 199.706634 152.019925 
L 200.112122 152.019925 
L 200.112122 151.287598 
L 200.414927 151.287598 
L 200.414927 150.55527 
L 200.564815 150.55527 
L 200.564815 149.822943 
L 200.928538 149.822943 
L 200.928538 149.090616 
L 201.220615 149.090616 
L 201.220615 148.358288 
L 201.411067 148.358288 
L 201.495921 146.893634 
L 201.599918 146.893634 
L 201.599918 146.161307 
L 201.864238 146.161307 
L 201.909056 144.696652 
L 202.004797 144.696652 
L 202.100131 141.767343 
L 202.226618 141.767343 
L 202.308455 140.302688 
L 202.358668 140.302688 
L 202.421277 138.105706 
L 202.514866 138.105706 
L 202.601865 135.176397 
L 202.645238 135.176397 
L 202.744065 132.979416 
L 203.129026 132.979416 
L 203.141139 131.514761 
L 203.316058 131.514761 
L 203.382052 130.050106 
L 203.471733 130.050106 
L 203.537273 127.853125 
L 203.608553 127.853125 
L 203.715052 125.656143 
L 203.815173 125.656143 
L 203.815173 124.923815 
L 204.066447 124.923815 
L 204.147655 121.262179 
L 204.193928 121.262179 
L 204.217029 119.797524 
L 204.498106 119.797524 
L 204.498106 119.065197 
L 204.64017 119.065197 
L 204.708044 117.600543 
L 204.753179 117.600543 
L 204.764449 116.135888 
L 205.375739 116.135888 
L 205.375739 115.403561 
L 205.938791 115.403561 
L 205.938791 114.671234 
L 206.209834 114.671234 
L 206.209834 113.938906 
L 206.488086 113.938906 
L 206.571414 111.741924 
L 206.680316 111.741924 
L 206.680316 111.009597 
L 207.136085 111.009597 
L 207.136085 110.27727 
L 207.543005 110.27727 
L 207.543005 109.544943 
L 207.716582 109.544943 
L 207.716582 108.812615 
L 207.89373 108.812615 
L 207.962246 106.615633 
L 208.122927 106.615633 
L 208.219753 104.418652 
L 208.412163 104.418652 
L 208.450448 102.953997 
L 208.607689 102.953997 
L 208.683534 101.489342 
L 208.923593 101.489342 
L 209.012376 100.024688 
L 209.165748 100.024688 
L 209.258195 98.560033 
L 209.295068 98.560033 
L 209.382398 97.095379 
L 209.409906 97.095379 
L 209.451105 95.630724 
L 209.578797 95.630724 
L 209.578797 94.898397 
L 210.193333 94.898397 
L 210.193333 94.16607 
L 210.91184 94.16607 
L 211.010197 92.701415 
L 211.040046 92.701415 
L 211.040046 91.969088 
L 211.336381 91.969088 
L 211.336381 91.236761 
L 212.166197 91.236761 
L 212.178353 89.772106 
L 212.327743 89.772106 
L 212.327743 89.039779 
L 212.476146 89.039779 
L 212.516087 87.575124 
L 212.919487 87.575124 
L 212.919487 86.842797 
L 213.052361 86.842797 
L 213.052361 86.11047 
L 213.207684 86.11047 
L 213.292657 84.645815 
L 213.469296 84.645815 
L 213.503694 83.18116 
L 213.640763 83.18116 
L 213.712769 80.251851 
L 213.803396 80.251851 
L 213.803396 79.519524 
L 214.346976 79.519524 
L 214.346976 78.787197 
L 214.61028 78.787197 
L 214.61028 78.054869 
L 215.173955 78.054869 
L 215.241222 75.857888 
L 215.287131 75.857888 
L 215.287131 75.12556 
L 215.5432 75.12556 
L 215.5432 74.393233 
L 215.658007 74.393233 
L 215.658007 73.660906 
L 215.892747 73.660906 
L 215.978435 72.196251 
L 216.230177 72.196251 
L 216.314591 69.266942 
L 216.758426 69.266942 
L 216.758426 68.534615 
L 217.112496 68.534615 
L 217.112496 67.802288 
L 217.374437 67.802288 
L 217.374437 67.06996 
L 217.665121 67.06996 
L 217.665121 66.337633 
L 217.867331 66.337633 
L 217.867331 65.605306 
L 218.201389 65.605306 
L 218.201389 64.872978 
L 218.444884 64.872978 
L 218.451015 63.408324 
L 218.594598 63.408324 
L 218.594598 62.675997 
L 218.706991 62.675997 
L 218.706991 61.943669 
L 219.076632 61.943669 
L 219.168843 60.479015 
L 219.901842 60.479015 
L 219.901842 59.746687 
L 220.161797 59.746687 
L 220.170316 58.282033 
L 220.469267 58.282033 
L 220.469267 57.549706 
L 220.915862 57.549706 
L 220.915862 56.817378 
L 221.299824 56.817378 
L 221.299824 56.085051 
L 221.867694 56.085051 
L 221.875591 54.620397 
L 222.035557 54.620397 
L 222.035557 53.888069 
L 222.398444 53.888069 
L 222.470324 52.423415 
L 222.631219 52.423415 
L 222.631219 51.691087 
L 222.904387 51.691087 
L 222.904387 50.95876 
L 223.124541 50.95876 
L 223.169308 49.494106 
L 223.704525 49.494106 
L 223.77961 48.029451 
L 223.931433 48.029451 
L 223.950639 46.564796 
L 224.73819 46.564796 
L 224.73819 45.832469 
L 225.503565 45.832469 
L 225.503565 45.100142 
L 225.814938 45.100142 
L 225.839222 42.90316 
L 225.997522 42.90316 
L 225.997522 42.170833 
L 226.560059 42.170833 
L 226.660263 39.973851 
L 226.787538 39.973851 
L 226.821356 38.509196 
L 227.108864 38.509196 
L 227.108864 37.776869 
L 227.889623 37.776869 
L 227.889623 37.044542 
L 228.042174 37.044542 
L 228.128029 34.84756 
L 228.424982 34.84756 
L 228.424982 34.115233 
L 228.648072 34.115233 
L 228.725827 32.650578 
L 229.241863 32.650578 
L 229.277867 31.185924 
L 229.496443 31.185924 
L 229.548886 28.988942 
L 229.63105 28.988942 
L 229.692476 27.524287 
L 230.483293 27.524287 
L 230.483293 26.79196 
L 231.109778 26.79196 
L 231.109778 26.059633 
L 231.454438 26.059633 
L 231.454438 25.327305 
L 232.261347 25.327305 
L 232.261347 24.594978 
L 233.355217 24.594978 
L 233.355217 23.862651 
L 234.828435 23.862651 
L 234.828435 23.130323 
L 235.269336 23.130323 
L 235.269336 22.397996 
L 235.788385 22.397996 
L 235.788385 21.665669 
L 237.335582 21.665669 
L 237.335582 20.933342 
L 237.835428 20.933342 
L 237.867756 19.468687 
L 240.512569 19.468687 
L 240.512569 18.73636 
L 240.822889 18.73636 
L 240.822889 18.004032 
L 241.465128 18.004032 
L 241.465128 17.271705 
L 242.529649 17.271705 
L 242.529649 16.539378 
L 245.254184 16.539378 
L 245.254184 15.807051 
L 245.992717 15.807051 
L 245.992717 15.074723 
L 247.293959 15.074723 
L 247.293959 14.342396 
L 249.897754 14.342396 
L 249.897754 13.610069 
L 253.068628 13.610069 
L 253.068628 12.877742 
L 256.934896 12.877742 
L 256.934896 12.145414 
L 260.136584 12.145414 
L 260.136584 11.413087 
L 416.908065 11.413087 
L 416.908065 11.413087 
" style="fill:none;stroke:#000080;stroke-linecap:square;stroke-width:1.5;"/>
   </g>
   <g id="line2d_3">
    <defs>
     <path d="M 0 6 
C 1.591219 6 3.117479 5.367802 4.242641 4.242641 
C 5.367802 3.117479 6 1.591219 6 0 
C 6 -1.591219 5.367802 -3.117479 4.242641 -4.242641 
C 3.117479 -5.367802 1.591219 -6 0 -6 
C -1.591219 -6 -3.117479 -5.367802 -4.242641 -4.242641 
C -5.367802 -3.117479 -6 -1.591219 -6 0 
C -6 1.591219 -5.367802 3.117479 -4.242641 4.242641 
C -3.117479 5.367802 -1.591219 6 0 6 
z
" id="m8d1e0ebd4b" style="stroke:#000080;stroke-width:1.5;"/>
    </defs>
    <g>
     <use style="fill:none;stroke:#000080;stroke-width:1.5;" x="128.120026792" xlink:href="#m8d1e0ebd4b" y="359.268545183"/>
     <use style="fill:none;stroke:#000080;stroke-width:1.5;" x="186.636286072" xlink:href="#m8d1e0ebd4b" y="284.571162573"/>
     <use style="fill:none;stroke:#000080;stroke-width:1.5;" x="204.64017038" xlink:href="#m8d1e0ebd4b" y="118.332869903"/>
     <use style="fill:none;stroke:#000080;stroke-width:1.5;" x="260.136583761" xlink:href="#m8d1e0ebd4b" y="12.1454142327"/>
     <use style="fill:none;stroke:#000080;stroke-width:1.5;" x="260.136583761" xlink:href="#m8d1e0ebd4b" y="11.4130869523"/>
     <use style="fill:none;stroke:#000080;stroke-width:1.5;" x="416.908064516" xlink:href="#m8d1e0ebd4b" y="11.4130869523"/>
    </g>
   </g>
   <g id="line2d_4">
    <path d="M -15527.946774 758.386913 
" style="fill:none;stroke:#000080;stroke-linecap:square;stroke-width:1.5;"/>
    <g>
     <use style="fill:none;stroke:#000080;stroke-width:1.5;" x="-15527.9467742" xlink:href="#m8d1e0ebd4b" y="758.386913048"/>
    </g>
   </g>
   <g id="line2d_5">
    <path clip-path="url(#p94b70fa151)" d="M 173.647043 317.52589 
" style="fill:none;stroke:#000080;stroke-linecap:square;"/>
    <defs>
     <path d="M -12 12 
L 12 -12 
M -12 -12 
L 12 12 
" id="ma7cbf1c1af" style="stroke:#000080;stroke-width:3.0;"/>
    </defs>
    <g clip-path="url(#p94b70fa151)">
     <use style="fill:#000080;stroke:#000080;stroke-width:3.0;" x="173.647043053" xlink:href="#ma7cbf1c1af" y="317.525890195"/>
    </g>
   </g>
   <g id="line2d_6">
    <defs>
     <path d="M 0 1.5 
C 0.397805 1.5 0.77937 1.341951 1.06066 1.06066 
C 1.341951 0.77937 1.5 0.397805 1.5 0 
C 1.5 -0.397805 1.341951 -0.77937 1.06066 -1.06066 
C 0.77937 -1.341951 0.397805 -1.5 0 -1.5 
C -0.397805 -1.5 -0.77937 -1.341951 -1.06066 -1.06066 
C -1.341951 -0.77937 -1.5 -0.397805 -1.5 0 
C -1.5 0.397805 -1.341951 0.77937 -1.06066 1.06066 
C -0.77937 1.341951 -0.397805 1.5 0 1.5 
z
" id="m2cb212c406" style="stroke:#ff00ff;stroke-width:0.5;"/>
    </defs>
    <g>
     <use style="fill:#ff00ff;stroke:#ff00ff;stroke-width:0.5;" x="253.475673985" xlink:href="#m2cb212c406" y="348.283635976"/>
     <use style="fill:#ff00ff;stroke:#ff00ff;stroke-width:0.5;" x="253.475673985" xlink:href="#m2cb212c406" y="348.283635976"/>
    </g>
   </g>
   <g id="line2d_7">
    <path d="M 164.976195 384.9 
L 164.976195 384.167673 
L 166.571403 384.167673 
L 166.571403 383.435345 
L 175.952822 383.435345 
L 175.952822 381.970691 
L 181.48331 381.970691 
L 181.48331 381.238364 
L 188.430062 381.238364 
L 188.430062 379.773709 
L 188.95964 379.773709 
L 188.95964 379.041382 
L 190.069589 379.041382 
L 190.069589 378.309054 
L 193.646476 378.309054 
L 193.646476 377.576727 
L 193.775425 377.576727 
L 193.775425 376.8444 
L 193.793786 376.8444 
L 193.793786 376.112073 
L 195.043162 376.112073 
L 195.043162 375.379745 
L 195.5071 375.379745 
L 195.5071 374.647418 
L 195.575025 374.647418 
L 195.575025 373.915091 
L 196.011601 373.915091 
L 196.011601 373.182764 
L 198.799706 373.182764 
L 198.799706 372.450436 
L 198.829067 372.450436 
L 198.829067 371.718109 
L 199.401221 371.718109 
L 199.401221 370.985782 
L 199.565097 370.985782 
L 199.565097 370.253454 
L 200.360174 370.253454 
L 200.360174 369.521127 
L 201.748578 369.521127 
L 201.748578 368.7888 
L 205.205142 368.7888 
L 205.205142 368.056473 
L 205.320849 368.056473 
L 205.320849 367.324145 
L 206.225676 367.324145 
L 206.225676 366.591818 
L 206.680316 366.591818 
L 206.680316 365.859491 
L 207.9378 365.859491 
L 207.9378 365.127163 
L 209.235119 365.127163 
L 209.235119 364.394836 
L 212.117506 364.394836 
L 212.117506 363.662509 
L 213.595166 363.662509 
L 213.595166 362.930182 
L 215.099373 362.930182 
L 215.099373 362.197854 
L 217.008167 362.197854 
L 217.008167 361.465527 
L 217.040822 361.465527 
L 217.040822 360.7332 
L 217.303594 360.7332 
L 217.303594 360.000872 
L 217.59519 360.000872 
L 217.59519 359.268545 
L 218.117561 359.268545 
L 218.117561 358.536218 
L 218.743322 358.536218 
L 218.743322 357.803891 
L 218.818824 357.803891 
L 218.818824 357.071563 
L 218.842931 357.071563 
L 218.842931 356.339236 
L 222.896844 356.339236 
L 222.896844 355.606909 
L 223.711803 355.606909 
L 223.711803 354.874582 
L 224.512299 354.874582 
L 224.512299 354.142254 
L 224.724283 354.142254 
L 224.724283 353.409927 
L 225.33948 353.409927 
L 225.33948 352.6776 
L 227.008549 352.6776 
L 227.008549 351.945272 
L 228.920972 351.945272 
L 228.920972 351.212945 
L 229.872067 351.212945 
L 229.872067 350.480618 
L 234.310702 350.480618 
L 234.310702 349.748291 
L 234.906699 349.748291 
L 234.906699 349.015963 
L 253.475674 349.015963 
L 253.475674 348.283636 
L 416.908065 348.283636 
" style="fill:none;stroke:#ff00ff;stroke-linecap:square;stroke-width:1.5;"/>
   </g>
   <g id="line2d_8">
    <defs>
     <path d="M -0 8.485281 
L 5.091169 0 
L 0 -8.485281 
L -5.091169 -0 
z
" id="mecefd0c9cf" style="stroke:#ff00ff;stroke-linejoin:miter;stroke-width:1.5;"/>
    </defs>
    <g>
     <use style="fill:none;stroke:#ff00ff;stroke-linejoin:miter;stroke-width:1.5;" x="199.56509726" xlink:href="#mecefd0c9cf" y="370.985781671"/>
     <use style="fill:none;stroke:#ff00ff;stroke-linejoin:miter;stroke-width:1.5;" x="253.475673985" xlink:href="#mecefd0c9cf" y="349.015963256"/>
     <use style="fill:none;stroke:#ff00ff;stroke-linejoin:miter;stroke-width:1.5;" x="253.475673985" xlink:href="#mecefd0c9cf" y="348.283635976"/>
     <use style="fill:none;stroke:#ff00ff;stroke-linejoin:miter;stroke-width:1.5;" x="253.475673985" xlink:href="#mecefd0c9cf" y="348.283635976"/>
     <use style="fill:none;stroke:#ff00ff;stroke-linejoin:miter;stroke-width:1.5;" x="416.908064516" xlink:href="#mecefd0c9cf" y="348.283635976"/>
    </g>
   </g>
   <g id="line2d_9">
    <path d="M -15527.946774 758.386913 
" style="fill:none;stroke:#ff00ff;stroke-linecap:square;stroke-width:1.5;"/>
    <g>
     <use style="fill:none;stroke:#ff00ff;stroke-linejoin:miter;stroke-width:1.5;" x="-15527.9467742" xlink:href="#mecefd0c9cf" y="758.386913048"/>
    </g>
   </g>
   <g id="line2d_10">
    <path clip-path="url(#p94b70fa151)" d="M 165.075167 384.167673 
" style="fill:none;stroke:#ff00ff;stroke-linecap:square;"/>
    <defs>
     <path d="M -12 12 
L 12 -12 
M -12 -12 
L 12 12 
" id="m307096362f" style="stroke:#ff00ff;stroke-width:3.0;"/>
    </defs>
    <g clip-path="url(#p94b70fa151)">
     <use style="fill:#ff00ff;stroke:#ff00ff;stroke-width:3.0;" x="165.075166936" xlink:href="#m307096362f" y="384.16767272"/>
    </g>
   </g>
   <g id="line2d_11">
    <defs>
     <path d="M 0 1.5 
C 0.397805 1.5 0.77937 1.341951 1.06066 1.06066 
C 1.341951 0.77937 1.5 0.397805 1.5 0 
C 1.5 -0.397805 1.341951 -0.77937 1.06066 -1.06066 
C 0.77937 -1.341951 0.397805 -1.5 0 -1.5 
C -0.397805 -1.5 -0.77937 -1.341951 -1.06066 -1.06066 
C -1.341951 -0.77937 -1.5 -0.397805 -1.5 0 
C -1.5 0.397805 -1.341951 0.77937 -1.06066 1.06066 
C -0.77937 1.341951 -0.397805 1.5 0 1.5 
z
" id="m445b0a5740" style="stroke:#ffa500;stroke-width:0.5;"/>
    </defs>
    <g>
     <use style="fill:#ffa500;stroke:#ffa500;stroke-width:0.5;" x="225.364281822" xlink:href="#m445b0a5740" y="370.25345439"/>
     <use style="fill:#ffa500;stroke:#ffa500;stroke-width:0.5;" x="225.364281822" xlink:href="#m445b0a5740" y="370.25345439"/>
    </g>
   </g>
   <g id="line2d_12">
    <path d="M 33.92404 384.9 
L 33.92404 382.703018 
L 162.459945 382.703018 
L 162.459945 381.970691 
L 170.56764 381.970691 
L 170.56764 381.238364 
L 175.293933 381.238364 
L 175.293933 380.506036 
L 182.912502 380.506036 
L 182.912502 379.773709 
L 182.957126 379.773709 
L 182.957126 379.041382 
L 185.996431 379.041382 
L 185.996431 378.309054 
L 186.03534 378.309054 
L 186.03534 377.576727 
L 186.547795 377.576727 
L 186.547795 376.8444 
L 188.430062 376.8444 
L 188.430062 376.112073 
L 194.649098 376.112073 
L 194.649098 375.379745 
L 196.642888 375.379745 
L 196.642888 374.647418 
L 197.241194 374.647418 
L 197.241194 373.915091 
L 199.896305 373.915091 
L 199.896305 373.182764 
L 208.970364 373.182764 
L 208.970364 372.450436 
L 213.469296 372.450436 
L 213.469296 371.718109 
L 216.916479 371.718109 
L 216.916479 370.985782 
L 225.364282 370.985782 
L 225.364282 370.253454 
L 416.908065 370.253454 
" style="fill:none;stroke:#ffa500;stroke-linecap:square;stroke-width:1.5;"/>
   </g>
   <g id="line2d_13">
    <defs>
     <path d="M 0 -6 
L -1.347084 -1.854102 
L -5.706339 -1.854102 
L -2.179628 0.708204 
L -3.526712 4.854102 
L -0 2.291796 
L 3.526712 4.854102 
L 2.179628 0.708204 
L 5.706339 -1.854102 
L 1.347084 -1.854102 
z
" id="m3197b28f38" style="stroke:#ffa500;stroke-linejoin:bevel;stroke-width:1.5;"/>
    </defs>
    <g>
     <use style="fill:none;stroke:#ffa500;stroke-linejoin:bevel;stroke-width:1.5;" x="216.916479371" xlink:href="#m3197b28f38" y="370.985781671"/>
     <use style="fill:none;stroke:#ffa500;stroke-linejoin:bevel;stroke-width:1.5;" x="225.364281822" xlink:href="#m3197b28f38" y="370.25345439"/>
     <use style="fill:none;stroke:#ffa500;stroke-linejoin:bevel;stroke-width:1.5;" x="225.364281822" xlink:href="#m3197b28f38" y="370.25345439"/>
     <use style="fill:none;stroke:#ffa500;stroke-linejoin:bevel;stroke-width:1.5;" x="225.364281822" xlink:href="#m3197b28f38" y="370.25345439"/>
     <use style="fill:none;stroke:#ffa500;stroke-linejoin:bevel;stroke-width:1.5;" x="416.908064516" xlink:href="#m3197b28f38" y="370.25345439"/>
    </g>
   </g>
   <g id="line2d_14">
    <path d="M -15527.946774 758.386913 
" style="fill:none;stroke:#ffa500;stroke-linecap:square;stroke-width:1.5;"/>
    <g>
     <use style="fill:none;stroke:#ffa500;stroke-linejoin:bevel;stroke-width:1.5;" x="-15527.9467742" xlink:href="#m3197b28f38" y="758.386913048"/>
    </g>
   </g>
   <g id="line2d_15">
    <path clip-path="url(#p94b70fa151)" d="M 162.087085 382.703018 
" style="fill:none;stroke:#ffa500;stroke-linecap:square;"/>
    <defs>
     <path d="M -12 12 
L 12 -12 
M -12 -12 
L 12 12 
" id="md072f1d3ec" style="stroke:#ffa500;stroke-width:3.0;"/>
    </defs>
    <g clip-path="url(#p94b70fa151)">
     <use style="fill:#ffa500;stroke:#ffa500;stroke-width:3.0;" x="162.087084589" xlink:href="#md072f1d3ec" y="382.703018159"/>
    </g>
   </g>
   <g id="line2d_16">
    <defs>
     <path d="M 0 1.5 
C 0.397805 1.5 0.77937 1.341951 1.06066 1.06066 
C 1.341951 0.77937 1.5 0.397805 1.5 0 
C 1.5 -0.397805 1.341951 -0.77937 1.06066 -1.06066 
C 0.77937 -1.341951 0.397805 -1.5 0 -1.5 
C -0.397805 -1.5 -0.77937 -1.341951 -1.06066 -1.06066 
C -1.341951 -0.77937 -1.5 -0.397805 -1.5 0 
C -1.5 0.397805 -1.341951 0.77937 -1.06066 1.06066 
C -0.77937 1.341951 -0.397805 1.5 0 1.5 
z
" id="m2c081df15c" style="stroke:#6495ed;stroke-width:0.5;"/>
    </defs>
    <g>
     <use style="fill:#6495ed;stroke:#6495ed;stroke-width:0.5;" x="234.392293796" xlink:href="#m2c081df15c" y="370.25345439"/>
     <use style="fill:#6495ed;stroke:#6495ed;stroke-width:0.5;" x="234.392293796" xlink:href="#m2c081df15c" y="370.25345439"/>
    </g>
   </g>
   <g id="line2d_17">
    <path d="M 127.776768 384.9 
L 127.776768 384.167673 
L 138.126629 384.167673 
L 138.126629 383.435345 
L 158.331208 383.435345 
L 158.331208 382.703018 
L 169.484868 382.703018 
L 169.484868 381.970691 
L 169.887079 381.970691 
L 169.887079 381.238364 
L 177.368303 381.238364 
L 177.368303 380.506036 
L 180.757729 380.506036 
L 180.757729 379.773709 
L 184.382126 379.773709 
L 184.382126 379.041382 
L 184.946812 379.041382 
L 184.946812 378.309054 
L 185.270897 378.309054 
L 185.270897 377.576727 
L 195.844689 377.576727 
L 195.844689 376.8444 
L 197.099046 376.8444 
L 197.099046 376.112073 
L 197.460542 376.112073 
L 197.460542 375.379745 
L 206.508947 375.379745 
L 206.508947 374.647418 
L 208.093798 374.647418 
L 208.093798 373.915091 
L 214.14003 373.915091 
L 214.14003 373.182764 
L 215.188133 373.182764 
L 215.188133 372.450436 
L 221.04731 372.450436 
L 221.04731 371.718109 
L 230.281392 371.718109 
L 230.281392 370.985782 
L 234.392294 370.985782 
L 234.392294 370.253454 
L 416.908065 370.253454 
" style="fill:none;stroke:#6495ed;stroke-linecap:square;stroke-width:1.5;"/>
   </g>
   <g id="line2d_18">
    <defs>
     <path d="M -0 6 
L 6 -6 
L -6 -6 
z
" id="me090baba93" style="stroke:#6495ed;stroke-linejoin:miter;stroke-width:1.5;"/>
    </defs>
    <g>
     <use style="fill:none;stroke:#6495ed;stroke-linejoin:miter;stroke-width:1.5;" x="234.392293796" xlink:href="#me090baba93" y="370.985781671"/>
     <use style="fill:none;stroke:#6495ed;stroke-linejoin:miter;stroke-width:1.5;" x="234.392293796" xlink:href="#me090baba93" y="370.25345439"/>
     <use style="fill:none;stroke:#6495ed;stroke-linejoin:miter;stroke-width:1.5;" x="234.392293796" xlink:href="#me090baba93" y="370.25345439"/>
     <use style="fill:none;stroke:#6495ed;stroke-linejoin:miter;stroke-width:1.5;" x="234.392293796" xlink:href="#me090baba93" y="370.25345439"/>
     <use style="fill:none;stroke:#6495ed;stroke-linejoin:miter;stroke-width:1.5;" x="416.908064516" xlink:href="#me090baba93" y="370.25345439"/>
    </g>
   </g>
   <g id="line2d_19">
    <path d="M -15527.946774 758.386913 
" style="fill:none;stroke:#6495ed;stroke-linecap:square;stroke-width:1.5;"/>
    <g>
     <use style="fill:none;stroke:#6495ed;stroke-linejoin:miter;stroke-width:1.5;" x="-15527.9467742" xlink:href="#me090baba93" y="758.386913048"/>
    </g>
   </g>
   <g id="line2d_20">
    <path clip-path="url(#p94b70fa151)" d="M 160.69114 382.703018 
" style="fill:none;stroke:#6495ed;stroke-linecap:square;"/>
    <defs>
     <path d="M -12 12 
L 12 -12 
M -12 -12 
L 12 12 
" id="m280d9a1b0f" style="stroke:#6495ed;stroke-width:3.0;"/>
    </defs>
    <g clip-path="url(#p94b70fa151)">
     <use style="fill:#6495ed;stroke:#6495ed;stroke-width:3.0;" x="160.691140067" xlink:href="#m280d9a1b0f" y="382.703018159"/>
    </g>
   </g>
   <g id="line2d_21">
    <defs>
     <path d="M 0 1.5 
C 0.397805 1.5 0.77937 1.341951 1.06066 1.06066 
C 1.341951 0.77937 1.5 0.397805 1.5 0 
C 1.5 -0.397805 1.341951 -0.77937 1.06066 -1.06066 
C 0.77937 -1.341951 0.397805 -1.5 0 -1.5 
C -0.397805 -1.5 -0.77937 -1.341951 -1.06066 -1.06066 
C -1.341951 -0.77937 -1.5 -0.397805 -1.5 0 
C -1.5 0.397805 -1.341951 0.77937 -1.06066 1.06066 
C -0.77937 1.341951 -0.397805 1.5 0 1.5 
z
" id="m9792ba147d" style="stroke:#ff0000;stroke-width:0.5;"/>
    </defs>
    <g>
     <use style="fill:#ff0000;stroke:#ff0000;stroke-width:0.5;" x="211.57482944" xlink:href="#m9792ba147d" y="11.4130869523"/>
     <use style="fill:#ff0000;stroke:#ff0000;stroke-width:0.5;" x="211.57482944" xlink:href="#m9792ba147d" y="11.4130869523"/>
    </g>
   </g>
   <g id="line2d_22">
    <path d="M 125.977168 384.9 
L 125.977168 383.435345 
L 127.074118 383.435345 
L 127.074118 379.041382 
L 127.428188 379.041382 
L 127.428188 377.576727 
L 130.994104 377.576727 
L 130.994104 376.112073 
L 131.291896 376.112073 
L 131.291896 373.915091 
L 131.585796 373.915091 
L 131.585796 372.450436 
L 131.875903 372.450436 
L 131.875903 370.253454 
L 132.162314 370.253454 
L 132.162314 368.7888 
L 132.445123 368.7888 
L 132.445123 367.324145 
L 132.724419 367.324145 
L 132.724419 363.662509 
L 133.000287 363.662509 
L 133.000287 362.930182 
L 133.272811 362.930182 
L 133.272811 357.803891 
L 133.808146 357.803891 
L 133.808146 356.339236 
L 134.071108 356.339236 
L 134.071108 355.606909 
L 134.33103 355.606909 
L 134.33103 354.142254 
L 134.587981 354.142254 
L 134.587981 353.409927 
L 135.830452 353.409927 
L 135.830452 351.945272 
L 136.070914 351.945272 
L 136.070914 351.212945 
L 137.007841 351.212945 
L 137.007841 349.015963 
L 137.462058 349.015963 
L 137.462058 308.737963 
L 137.685772 308.737963 
L 137.685772 306.540981 
L 138.126629 306.540981 
L 138.126629 305.808654 
L 138.343858 305.808654 
L 138.343858 305.076326 
L 138.559007 305.076326 
L 138.559007 288.965126 
L 138.772118 288.965126 
L 138.772118 286.768144 
L 138.983228 286.768144 
L 138.983228 248.687126 
L 151.293274 248.687126 
L 151.293274 247.954799 
L 151.535029 247.954799 
L 151.535029 247.222471 
L 151.654939 247.222471 
L 151.654939 245.757817 
L 152.361269 245.757817 
L 152.361269 222.323344 
L 154.672068 222.323344 
L 154.672068 221.591016 
L 156.28589 221.591016 
L 156.28589 220.858689 
L 156.479711 220.858689 
L 156.479711 219.394035 
L 157.145218 219.394035 
L 157.145218 215.732398 
L 157.972906 215.732398 
L 157.972906 214.267744 
L 162.607375 214.267744 
L 162.607375 212.070762 
L 162.971776 212.070762 
L 162.971776 211.338435 
L 163.753254 211.338435 
L 163.753254 210.606107 
L 164.065282 210.606107 
L 164.168336 208.409125 
L 164.27092 208.409125 
L 164.373039 204.015162 
L 164.508479 204.015162 
L 164.609526 199.621198 
L 164.643108 199.621198 
L 164.743553 151.287598 
L 165.819812 151.287598 
L 165.819812 149.822943 
L 165.946835 149.822943 
L 165.946835 133.711743 
L 167.268841 133.711743 
L 167.268841 132.979416 
L 167.506444 132.979416 
L 167.506444 132.247088 
L 167.653681 132.247088 
L 167.653681 131.514761 
L 168.147195 131.514761 
L 168.147195 130.782434 
L 168.261758 130.782434 
L 168.261758 127.853125 
L 168.545638 127.853125 
L 168.545638 126.38847 
L 168.658194 126.38847 
L 168.658194 125.656143 
L 169.913639 125.656143 
L 169.913639 122.726834 
L 170.976433 122.726834 
L 171.077481 120.529852 
L 171.32813 120.529852 
L 171.427612 118.33287 
L 172.208012 118.33287 
L 172.231968 113.206579 
L 173.077823 113.206579 
L 173.100871 110.27727 
L 174.808138 110.27727 
L 174.808138 108.812615 
L 175.252104 108.812615 
L 175.252104 107.347961 
L 175.377358 107.347961 
L 175.377358 105.883306 
L 175.789901 105.883306 
L 175.789901 102.22167 
L 175.912203 102.22167 
L 175.993369 99.292361 
L 176.074243 99.292361 
L 176.094416 97.827706 
L 176.414749 97.827706 
L 176.434619 93.433742 
L 176.945172 93.433742 
L 176.945172 92.701415 
L 177.157733 92.701415 
L 177.157733 91.969088 
L 177.633481 91.969088 
L 177.633481 91.236761 
L 177.746178 91.236761 
L 177.746178 89.039779 
L 177.93276 89.039779 
L 178.006961 83.18116 
L 178.319613 83.18116 
L 178.319613 81.716506 
L 178.501515 81.716506 
L 178.519625 80.251851 
L 178.825276 80.251851 
L 178.825276 77.322542 
L 179.337278 77.322542 
L 179.337278 76.590215 
L 179.493834 76.590215 
L 179.493834 75.12556 
L 179.61485 75.12556 
L 179.61485 74.393233 
L 180.109376 74.393233 
L 180.109376 73.660906 
L 180.460811 73.660906 
L 180.460811 72.928579 
L 180.626249 72.928579 
L 180.659192 69.266942 
L 180.823182 69.266942 
L 180.823182 67.802288 
L 180.953519 67.802288 
L 181.018405 63.408324 
L 181.751438 63.408324 
L 181.751438 62.675997 
L 182.461323 62.675997 
L 182.461323 61.943669 
L 182.657947 61.943669 
L 182.657947 61.211342 
L 183.134741 61.211342 
L 183.134741 60.479015 
L 183.340201 60.479015 
L 183.442231 58.282033 
L 183.774249 58.282033 
L 183.831494 54.620397 
L 183.988171 54.620397 
L 183.988171 53.888069 
L 184.354214 53.888069 
L 184.354214 51.691087 
L 185.136429 51.691087 
L 185.203764 50.226433 
L 185.404566 50.226433 
L 185.404566 49.494106 
L 185.590377 49.494106 
L 185.590377 48.761778 
L 185.709021 48.761778 
L 185.709021 47.297124 
L 186.305835 47.297124 
L 186.305835 46.564796 
L 186.699281 46.564796 
L 186.762101 44.367815 
L 187.172363 44.367815 
L 187.172363 43.635487 
L 187.356399 43.635487 
L 187.429594 42.170833 
L 187.982976 42.170833 
L 187.982976 41.438505 
L 188.148728 41.438505 
L 188.148728 40.706178 
L 189.005106 40.706178 
L 189.05048 39.241524 
L 189.465908 39.241524 
L 189.576881 37.776869 
L 189.67629 37.776869 
L 189.67629 37.044542 
L 190.477406 37.044542 
L 190.477406 36.312214 
L 190.636372 36.312214 
L 190.657483 34.84756 
L 190.815185 34.84756 
L 190.815185 34.115233 
L 191.054867 34.115233 
L 191.054867 33.382905 
L 191.758953 33.382905 
L 191.758953 32.650578 
L 191.968936 32.650578 
L 192.018644 31.185924 
L 192.255725 31.185924 
L 192.255725 30.453596 
L 192.818557 30.453596 
L 192.875985 28.256614 
L 192.990402 28.256614 
L 192.990402 27.524287 
L 193.34893 27.524287 
L 193.34893 26.79196 
L 193.994773 26.79196 
L 193.994773 26.059633 
L 194.337756 26.059633 
L 194.355663 24.594978 
L 194.886364 24.594978 
L 194.886364 23.862651 
L 195.634291 23.862651 
L 195.634291 23.130323 
L 197.162334 23.130323 
L 197.162334 22.397996 
L 197.437142 22.397996 
L 197.437142 21.665669 
L 198.57827 21.665669 
L 198.57827 20.933342 
L 198.748232 20.933342 
L 198.748232 20.201014 
L 199.635977 20.201014 
L 199.635977 19.468687 
L 200.070512 19.468687 
L 200.125974 18.004032 
L 200.21581 18.004032 
L 200.21581 17.271705 
L 200.727196 17.271705 
L 200.727196 16.539378 
L 201.260152 16.539378 
L 201.260152 15.807051 
L 201.560976 15.807051 
L 201.560976 15.074723 
L 202.589457 15.074723 
L 202.589457 14.342396 
L 203.068359 14.342396 
L 203.068359 13.610069 
L 205.111036 13.610069 
L 205.149833 12.145414 
L 211.574829 12.145414 
L 211.574829 11.413087 
L 416.908065 11.413087 
L 416.908065 11.413087 
" style="fill:none;stroke:#ff0000;stroke-linecap:square;stroke-width:1.5;"/>
   </g>
   <g id="line2d_23">
    <defs>
     <path d="M 0 -6 
L -5.196152 -3 
L -5.196152 3 
L -0 6 
L 5.196152 3 
L 5.196152 -3 
z
" id="me5b90cd632" style="stroke:#ff0000;stroke-linejoin:miter;stroke-width:1.5;"/>
    </defs>
    <g>
     <use style="fill:none;stroke:#ff0000;stroke-linejoin:miter;stroke-width:1.5;" x="172.208011537" xlink:href="#me5b90cd632" y="118.332869903"/>
     <use style="fill:none;stroke:#ff0000;stroke-linejoin:miter;stroke-width:1.5;" x="211.57482944" xlink:href="#me5b90cd632" y="12.1454142327"/>
     <use style="fill:none;stroke:#ff0000;stroke-linejoin:miter;stroke-width:1.5;" x="211.57482944" xlink:href="#me5b90cd632" y="11.4130869523"/>
     <use style="fill:none;stroke:#ff0000;stroke-linejoin:miter;stroke-width:1.5;" x="211.57482944" xlink:href="#me5b90cd632" y="11.4130869523"/>
     <use style="fill:none;stroke:#ff0000;stroke-linejoin:miter;stroke-width:1.5;" x="416.908064516" xlink:href="#me5b90cd632" y="11.4130869523"/>
    </g>
   </g>
   <g id="line2d_24">
    <path d="M -15527.946774 758.386913 
" style="fill:none;stroke:#ff0000;stroke-linecap:square;stroke-width:1.5;"/>
    <g>
     <use style="fill:none;stroke:#ff0000;stroke-linejoin:miter;stroke-width:1.5;" x="-15527.9467742" xlink:href="#me5b90cd632" y="758.386913048"/>
    </g>
   </g>
   <g id="line2d_25">
    <path clip-path="url(#p94b70fa151)" d="M 161.669667 214.267744 
" style="fill:none;stroke:#ff0000;stroke-linecap:square;"/>
    <defs>
     <path d="M -12 12 
L 12 -12 
M -12 -12 
L 12 12 
" id="m903a017cc6" style="stroke:#ff0000;stroke-width:3.0;"/>
    </defs>
    <g clip-path="url(#p94b70fa151)">
     <use style="fill:#ff0000;stroke:#ff0000;stroke-width:3.0;" x="161.669666784" xlink:href="#m903a017cc6" y="214.267743647"/>
    </g>
   </g>
   <g id="line2d_26">
    <path d="M 416.908065 370.253454 
L 456.770202 377.430262 
" style="fill:none;stroke:#6495ed;stroke-linecap:square;stroke-width:1.5;"/>
    <g>
     <use style="fill:none;stroke:#6495ed;stroke-linejoin:miter;stroke-width:1.5;" x="416.908064516" xlink:href="#me090baba93" y="370.25345439"/>
     <use style="fill:none;stroke:#6495ed;stroke-linejoin:miter;stroke-width:1.5;" x="456.770201613" xlink:href="#me090baba93" y="377.430261739"/>
    </g>
   </g>
   <g id="line2d_27">
    <path d="M 416.908065 370.253454 
L 456.770202 287.793403 
" style="fill:none;stroke:#ffa500;stroke-linecap:square;stroke-width:1.5;"/>
    <g>
     <use style="fill:none;stroke:#ffa500;stroke-linejoin:bevel;stroke-width:1.5;" x="416.908064516" xlink:href="#m3197b28f38" y="370.25345439"/>
     <use style="fill:none;stroke:#ffa500;stroke-linejoin:bevel;stroke-width:1.5;" x="456.770201613" xlink:href="#m3197b28f38" y="287.793402608"/>
    </g>
   </g>
   <g id="line2d_28">
    <path d="M 416.908065 348.283636 
L 456.770202 198.156543 
" style="fill:none;stroke:#ff00ff;stroke-linecap:square;stroke-width:1.5;"/>
    <g>
     <use style="fill:none;stroke:#ff00ff;stroke-linejoin:miter;stroke-width:1.5;" x="416.908064516" xlink:href="#mecefd0c9cf" y="348.283635976"/>
     <use style="fill:none;stroke:#ff00ff;stroke-linejoin:miter;stroke-width:1.5;" x="456.770201613" xlink:href="#mecefd0c9cf" y="198.156543476"/>
    </g>
   </g>
   <g id="line2d_29">
    <path d="M 416.908065 11.413087 
L 456.770202 108.519684 
" style="fill:none;stroke:#000080;stroke-linecap:square;stroke-width:1.5;"/>
    <g>
     <use style="fill:none;stroke:#000080;stroke-width:1.5;" x="416.908064516" xlink:href="#m8d1e0ebd4b" y="11.4130869523"/>
     <use style="fill:none;stroke:#000080;stroke-width:1.5;" x="456.770201613" xlink:href="#m8d1e0ebd4b" y="108.519684345"/>
    </g>
   </g>
   <g id="line2d_30">
    <path d="M 416.908065 11.413087 
L 456.770202 18.882825 
" style="fill:none;stroke:#ff0000;stroke-linecap:square;stroke-width:1.5;"/>
    <g>
     <use style="fill:none;stroke:#ff0000;stroke-linejoin:miter;stroke-width:1.5;" x="416.908064516" xlink:href="#me5b90cd632" y="11.4130869523"/>
     <use style="fill:none;stroke:#ff0000;stroke-linejoin:miter;stroke-width:1.5;" x="456.770201613" xlink:href="#me5b90cd632" y="18.8828252132"/>
    </g>
   </g>
   <g id="line2d_31">
    <path d="M 416.908065 384.9 
L 416.908065 11.413087 
" style="fill:none;stroke:#000000;stroke-linecap:square;"/>
   </g>
   <g id="patch_3">
    <path d="M 54.525 7.678218 
L 503.88 7.678218 
" style="fill:none;stroke:#000000;stroke-linecap:square;stroke-linejoin:miter;"/>
   </g>
   <g id="patch_4">
    <path d="M 503.88 384.9 
L 503.88 7.678218 
" style="fill:none;stroke:#000000;stroke-linecap:square;stroke-linejoin:miter;"/>
   </g>
   <g id="patch_5">
    <path d="M 54.525 384.9 
L 503.88 384.9 
" style="fill:none;stroke:#000000;stroke-linecap:square;stroke-linejoin:miter;"/>
   </g>
   <g id="patch_6">
    <path d="M 54.525 384.9 
L 54.525 7.678218 
" style="fill:none;stroke:#000000;stroke-linecap:square;stroke-linejoin:miter;"/>
   </g>
   <g id="matplotlib.axis_1">
    <g id="xtick_1">
     <g id="line2d_32">
      <path clip-path="url(#p94b70fa151)" d="M 54.525 384.9 
L 54.525 7.678218 
" style="fill:none;stroke:#000000;stroke-dasharray:1.000000,3.000000;stroke-dashoffset:0.0;stroke-width:0.5;"/>
     </g>
     <g id="line2d_33">
      <defs>
       <path d="M 0 0 
L 0 -4 
" id="m555d18076a" style="stroke:#000000;stroke-width:0.5;"/>
      </defs>
      <g>
       <use style="stroke:#000000;stroke-width:0.5;" x="54.525" xlink:href="#m555d18076a" y="384.9"/>
      </g>
     </g>
     <g id="line2d_34">
      <defs>
       <path d="M 0 0 
L 0 4 
" id="m388d000708" style="stroke:#000000;stroke-width:0.5;"/>
      </defs>
      <g>
       <use style="stroke:#000000;stroke-width:0.5;" x="54.525" xlink:href="#m388d000708" y="7.67821782178"/>
      </g>
     </g>
     <g id="text_1">
      <!-- 0 -->
      <defs>
       <path d="M 31.78125 66.40625 
Q 24.171875 66.40625 20.328125 58.90625 
Q 16.5 51.421875 16.5 36.375 
Q 16.5 21.390625 20.328125 13.890625 
Q 24.171875 6.390625 31.78125 6.390625 
Q 39.453125 6.390625 43.28125 13.890625 
Q 47.125 21.390625 47.125 36.375 
Q 47.125 51.421875 43.28125 58.90625 
Q 39.453125 66.40625 31.78125 66.40625 
M 31.78125 74.21875 
Q 44.046875 74.21875 50.515625 64.515625 
Q 56.984375 54.828125 56.984375 36.375 
Q 56.984375 17.96875 50.515625 8.265625 
Q 44.046875 -1.421875 31.78125 -1.421875 
Q 19.53125 -1.421875 13.0625 8.265625 
Q 6.59375 17.96875 6.59375 36.375 
Q 6.59375 54.828125 13.0625 64.515625 
Q 19.53125 74.21875 31.78125 74.21875 
" id="BitstreamVeraSans-Roman-30"/>
      </defs>
      <g transform="translate(48.1625 404.096875)scale(0.2 -0.2)">
       <use xlink:href="#BitstreamVeraSans-Roman-30"/>
      </g>
     </g>
    </g>
    <g id="xtick_2">
     <g id="line2d_35">
      <path clip-path="url(#p94b70fa151)" d="M 106.294009 384.9 
L 106.294009 7.678218 
" style="fill:none;stroke:#000000;stroke-dasharray:1.000000,3.000000;stroke-dashoffset:0.0;stroke-width:0.5;"/>
     </g>
     <g id="line2d_36">
      <g>
       <use style="stroke:#000000;stroke-width:0.5;" x="106.294009217" xlink:href="#m555d18076a" y="384.9"/>
      </g>
     </g>
     <g id="line2d_37">
      <g>
       <use style="stroke:#000000;stroke-width:0.5;" x="106.294009217" xlink:href="#m388d000708" y="7.67821782178"/>
      </g>
     </g>
     <g id="text_2">
      <!-- 1 -->
      <defs>
       <path d="M 12.40625 8.296875 
L 28.515625 8.296875 
L 28.515625 63.921875 
L 10.984375 60.40625 
L 10.984375 69.390625 
L 28.421875 72.90625 
L 38.28125 72.90625 
L 38.28125 8.296875 
L 54.390625 8.296875 
L 54.390625 0 
L 12.40625 0 
z
" id="BitstreamVeraSans-Roman-31"/>
      </defs>
      <g transform="translate(99.9315092166 404.096875)scale(0.2 -0.2)">
       <use xlink:href="#BitstreamVeraSans-Roman-31"/>
      </g>
     </g>
    </g>
    <g id="xtick_3">
     <g id="line2d_38">
      <path clip-path="url(#p94b70fa151)" d="M 158.063018 384.9 
L 158.063018 7.678218 
" style="fill:none;stroke:#000000;stroke-dasharray:1.000000,3.000000;stroke-dashoffset:0.0;stroke-width:0.5;"/>
     </g>
     <g id="line2d_39">
      <g>
       <use style="stroke:#000000;stroke-width:0.5;" x="158.063018433" xlink:href="#m555d18076a" y="384.9"/>
      </g>
     </g>
     <g id="line2d_40">
      <g>
       <use style="stroke:#000000;stroke-width:0.5;" x="158.063018433" xlink:href="#m388d000708" y="7.67821782178"/>
      </g>
     </g>
     <g id="text_3">
      <!-- 2 -->
      <defs>
       <path d="M 19.1875 8.296875 
L 53.609375 8.296875 
L 53.609375 0 
L 7.328125 0 
L 7.328125 8.296875 
Q 12.9375 14.109375 22.625 23.890625 
Q 32.328125 33.6875 34.8125 36.53125 
Q 39.546875 41.84375 41.421875 45.53125 
Q 43.3125 49.21875 43.3125 52.78125 
Q 43.3125 58.59375 39.234375 62.25 
Q 35.15625 65.921875 28.609375 65.921875 
Q 23.96875 65.921875 18.8125 64.3125 
Q 13.671875 62.703125 7.8125 59.421875 
L 7.8125 69.390625 
Q 13.765625 71.78125 18.9375 73 
Q 24.125 74.21875 28.421875 74.21875 
Q 39.75 74.21875 46.484375 68.546875 
Q 53.21875 62.890625 53.21875 53.421875 
Q 53.21875 48.921875 51.53125 44.890625 
Q 49.859375 40.875 45.40625 35.40625 
Q 44.1875 33.984375 37.640625 27.21875 
Q 31.109375 20.453125 19.1875 8.296875 
" id="BitstreamVeraSans-Roman-32"/>
      </defs>
      <g transform="translate(151.700518433 404.096875)scale(0.2 -0.2)">
       <use xlink:href="#BitstreamVeraSans-Roman-32"/>
      </g>
     </g>
    </g>
    <g id="xtick_4">
     <g id="line2d_41">
      <path clip-path="url(#p94b70fa151)" d="M 209.832028 384.9 
L 209.832028 7.678218 
" style="fill:none;stroke:#000000;stroke-dasharray:1.000000,3.000000;stroke-dashoffset:0.0;stroke-width:0.5;"/>
     </g>
     <g id="line2d_42">
      <g>
       <use style="stroke:#000000;stroke-width:0.5;" x="209.83202765" xlink:href="#m555d18076a" y="384.9"/>
      </g>
     </g>
     <g id="line2d_43">
      <g>
       <use style="stroke:#000000;stroke-width:0.5;" x="209.83202765" xlink:href="#m388d000708" y="7.67821782178"/>
      </g>
     </g>
     <g id="text_4">
      <!-- 3 -->
      <defs>
       <path d="M 40.578125 39.3125 
Q 47.65625 37.796875 51.625 33 
Q 55.609375 28.21875 55.609375 21.1875 
Q 55.609375 10.40625 48.1875 4.484375 
Q 40.765625 -1.421875 27.09375 -1.421875 
Q 22.515625 -1.421875 17.65625 -0.515625 
Q 12.796875 0.390625 7.625 2.203125 
L 7.625 11.71875 
Q 11.71875 9.328125 16.59375 8.109375 
Q 21.484375 6.890625 26.8125 6.890625 
Q 36.078125 6.890625 40.9375 10.546875 
Q 45.796875 14.203125 45.796875 21.1875 
Q 45.796875 27.640625 41.28125 31.265625 
Q 36.765625 34.90625 28.71875 34.90625 
L 20.21875 34.90625 
L 20.21875 43.015625 
L 29.109375 43.015625 
Q 36.375 43.015625 40.234375 45.921875 
Q 44.09375 48.828125 44.09375 54.296875 
Q 44.09375 59.90625 40.109375 62.90625 
Q 36.140625 65.921875 28.71875 65.921875 
Q 24.65625 65.921875 20.015625 65.03125 
Q 15.375 64.15625 9.8125 62.3125 
L 9.8125 71.09375 
Q 15.4375 72.65625 20.34375 73.4375 
Q 25.25 74.21875 29.59375 74.21875 
Q 40.828125 74.21875 47.359375 69.109375 
Q 53.90625 64.015625 53.90625 55.328125 
Q 53.90625 49.265625 50.4375 45.09375 
Q 46.96875 40.921875 40.578125 39.3125 
" id="BitstreamVeraSans-Roman-33"/>
      </defs>
      <g transform="translate(203.46952765 404.096875)scale(0.2 -0.2)">
       <use xlink:href="#BitstreamVeraSans-Roman-33"/>
      </g>
     </g>
    </g>
    <g id="xtick_5">
     <g id="line2d_44">
      <path clip-path="url(#p94b70fa151)" d="M 261.601037 384.9 
L 261.601037 7.678218 
" style="fill:none;stroke:#000000;stroke-dasharray:1.000000,3.000000;stroke-dashoffset:0.0;stroke-width:0.5;"/>
     </g>
     <g id="line2d_45">
      <g>
       <use style="stroke:#000000;stroke-width:0.5;" x="261.601036866" xlink:href="#m555d18076a" y="384.9"/>
      </g>
     </g>
     <g id="line2d_46">
      <g>
       <use style="stroke:#000000;stroke-width:0.5;" x="261.601036866" xlink:href="#m388d000708" y="7.67821782178"/>
      </g>
     </g>
     <g id="text_5">
      <!-- 4 -->
      <defs>
       <path d="M 37.796875 64.3125 
L 12.890625 25.390625 
L 37.796875 25.390625 
z
M 35.203125 72.90625 
L 47.609375 72.90625 
L 47.609375 25.390625 
L 58.015625 25.390625 
L 58.015625 17.1875 
L 47.609375 17.1875 
L 47.609375 0 
L 37.796875 0 
L 37.796875 17.1875 
L 4.890625 17.1875 
L 4.890625 26.703125 
z
" id="BitstreamVeraSans-Roman-34"/>
      </defs>
      <g transform="translate(255.238536866 404.096875)scale(0.2 -0.2)">
       <use xlink:href="#BitstreamVeraSans-Roman-34"/>
      </g>
     </g>
    </g>
    <g id="xtick_6">
     <g id="line2d_47">
      <path clip-path="url(#p94b70fa151)" d="M 313.370046 384.9 
L 313.370046 7.678218 
" style="fill:none;stroke:#000000;stroke-dasharray:1.000000,3.000000;stroke-dashoffset:0.0;stroke-width:0.5;"/>
     </g>
     <g id="line2d_48">
      <g>
       <use style="stroke:#000000;stroke-width:0.5;" x="313.370046083" xlink:href="#m555d18076a" y="384.9"/>
      </g>
     </g>
     <g id="line2d_49">
      <g>
       <use style="stroke:#000000;stroke-width:0.5;" x="313.370046083" xlink:href="#m388d000708" y="7.67821782178"/>
      </g>
     </g>
     <g id="text_6">
      <!-- 5 -->
      <defs>
       <path d="M 10.796875 72.90625 
L 49.515625 72.90625 
L 49.515625 64.59375 
L 19.828125 64.59375 
L 19.828125 46.734375 
Q 21.96875 47.46875 24.109375 47.828125 
Q 26.265625 48.1875 28.421875 48.1875 
Q 40.625 48.1875 47.75 41.5 
Q 54.890625 34.8125 54.890625 23.390625 
Q 54.890625 11.625 47.5625 5.09375 
Q 40.234375 -1.421875 26.90625 -1.421875 
Q 22.3125 -1.421875 17.546875 -0.640625 
Q 12.796875 0.140625 7.71875 1.703125 
L 7.71875 11.625 
Q 12.109375 9.234375 16.796875 8.0625 
Q 21.484375 6.890625 26.703125 6.890625 
Q 35.15625 6.890625 40.078125 11.328125 
Q 45.015625 15.765625 45.015625 23.390625 
Q 45.015625 31 40.078125 35.4375 
Q 35.15625 39.890625 26.703125 39.890625 
Q 22.75 39.890625 18.8125 39.015625 
Q 14.890625 38.140625 10.796875 36.28125 
z
" id="BitstreamVeraSans-Roman-35"/>
      </defs>
      <g transform="translate(307.007546083 404.096875)scale(0.2 -0.2)">
       <use xlink:href="#BitstreamVeraSans-Roman-35"/>
      </g>
     </g>
    </g>
    <g id="xtick_7">
     <g id="line2d_50">
      <path clip-path="url(#p94b70fa151)" d="M 365.139055 384.9 
L 365.139055 7.678218 
" style="fill:none;stroke:#000000;stroke-dasharray:1.000000,3.000000;stroke-dashoffset:0.0;stroke-width:0.5;"/>
     </g>
     <g id="line2d_51">
      <g>
       <use style="stroke:#000000;stroke-width:0.5;" x="365.1390553" xlink:href="#m555d18076a" y="384.9"/>
      </g>
     </g>
     <g id="line2d_52">
      <g>
       <use style="stroke:#000000;stroke-width:0.5;" x="365.1390553" xlink:href="#m388d000708" y="7.67821782178"/>
      </g>
     </g>
     <g id="text_7">
      <!-- 6 -->
      <defs>
       <path d="M 33.015625 40.375 
Q 26.375 40.375 22.484375 35.828125 
Q 18.609375 31.296875 18.609375 23.390625 
Q 18.609375 15.53125 22.484375 10.953125 
Q 26.375 6.390625 33.015625 6.390625 
Q 39.65625 6.390625 43.53125 10.953125 
Q 47.40625 15.53125 47.40625 23.390625 
Q 47.40625 31.296875 43.53125 35.828125 
Q 39.65625 40.375 33.015625 40.375 
M 52.59375 71.296875 
L 52.59375 62.3125 
Q 48.875 64.0625 45.09375 64.984375 
Q 41.3125 65.921875 37.59375 65.921875 
Q 27.828125 65.921875 22.671875 59.328125 
Q 17.53125 52.734375 16.796875 39.40625 
Q 19.671875 43.65625 24.015625 45.921875 
Q 28.375 48.1875 33.59375 48.1875 
Q 44.578125 48.1875 50.953125 41.515625 
Q 57.328125 34.859375 57.328125 23.390625 
Q 57.328125 12.15625 50.6875 5.359375 
Q 44.046875 -1.421875 33.015625 -1.421875 
Q 20.359375 -1.421875 13.671875 8.265625 
Q 6.984375 17.96875 6.984375 36.375 
Q 6.984375 53.65625 15.1875 63.9375 
Q 23.390625 74.21875 37.203125 74.21875 
Q 40.921875 74.21875 44.703125 73.484375 
Q 48.484375 72.75 52.59375 71.296875 
" id="BitstreamVeraSans-Roman-36"/>
      </defs>
      <g transform="translate(358.7765553 404.096875)scale(0.2 -0.2)">
       <use xlink:href="#BitstreamVeraSans-Roman-36"/>
      </g>
     </g>
    </g>
    <g id="xtick_8">
     <g id="line2d_53">
      <path clip-path="url(#p94b70fa151)" d="M 416.908065 384.9 
L 416.908065 7.678218 
" style="fill:none;stroke:#000000;stroke-dasharray:1.000000,3.000000;stroke-dashoffset:0.0;stroke-width:0.5;"/>
     </g>
     <g id="line2d_54">
      <g>
       <use style="stroke:#000000;stroke-width:0.5;" x="416.908064516" xlink:href="#m555d18076a" y="384.9"/>
      </g>
     </g>
     <g id="line2d_55">
      <g>
       <use style="stroke:#000000;stroke-width:0.5;" x="416.908064516" xlink:href="#m388d000708" y="7.67821782178"/>
      </g>
     </g>
     <g id="text_8">
      <!-- 7 -->
      <defs>
       <path d="M 8.203125 72.90625 
L 55.078125 72.90625 
L 55.078125 68.703125 
L 28.609375 0 
L 18.3125 0 
L 43.21875 64.59375 
L 8.203125 64.59375 
z
" id="BitstreamVeraSans-Roman-37"/>
      </defs>
      <g transform="translate(410.545564516 404.096875)scale(0.2 -0.2)">
       <use xlink:href="#BitstreamVeraSans-Roman-37"/>
      </g>
     </g>
    </g>
    <g id="xtick_9">
     <g id="line2d_56">
      <path clip-path="url(#p94b70fa151)" d="M 468.677074 384.9 
L 468.677074 7.678218 
" style="fill:none;stroke:#000000;stroke-dasharray:1.000000,3.000000;stroke-dashoffset:0.0;stroke-width:0.5;"/>
     </g>
     <g id="line2d_57">
      <g>
       <use style="stroke:#000000;stroke-width:0.5;" x="468.677073733" xlink:href="#m555d18076a" y="384.9"/>
      </g>
     </g>
     <g id="line2d_58">
      <g>
       <use style="stroke:#000000;stroke-width:0.5;" x="468.677073733" xlink:href="#m388d000708" y="7.67821782178"/>
      </g>
     </g>
     <g id="text_9">
      <!-- 8 -->
      <defs>
       <path d="M 31.78125 34.625 
Q 24.75 34.625 20.71875 30.859375 
Q 16.703125 27.09375 16.703125 20.515625 
Q 16.703125 13.921875 20.71875 10.15625 
Q 24.75 6.390625 31.78125 6.390625 
Q 38.8125 6.390625 42.859375 10.171875 
Q 46.921875 13.96875 46.921875 20.515625 
Q 46.921875 27.09375 42.890625 30.859375 
Q 38.875 34.625 31.78125 34.625 
M 21.921875 38.8125 
Q 15.578125 40.375 12.03125 44.71875 
Q 8.5 49.078125 8.5 55.328125 
Q 8.5 64.0625 14.71875 69.140625 
Q 20.953125 74.21875 31.78125 74.21875 
Q 42.671875 74.21875 48.875 69.140625 
Q 55.078125 64.0625 55.078125 55.328125 
Q 55.078125 49.078125 51.53125 44.71875 
Q 48 40.375 41.703125 38.8125 
Q 48.828125 37.15625 52.796875 32.3125 
Q 56.78125 27.484375 56.78125 20.515625 
Q 56.78125 9.90625 50.3125 4.234375 
Q 43.84375 -1.421875 31.78125 -1.421875 
Q 19.734375 -1.421875 13.25 4.234375 
Q 6.78125 9.90625 6.78125 20.515625 
Q 6.78125 27.484375 10.78125 32.3125 
Q 14.796875 37.15625 21.921875 38.8125 
M 18.3125 54.390625 
Q 18.3125 48.734375 21.84375 45.5625 
Q 25.390625 42.390625 31.78125 42.390625 
Q 38.140625 42.390625 41.71875 45.5625 
Q 45.3125 48.734375 45.3125 54.390625 
Q 45.3125 60.0625 41.71875 63.234375 
Q 38.140625 66.40625 31.78125 66.40625 
Q 25.390625 66.40625 21.84375 63.234375 
Q 18.3125 60.0625 18.3125 54.390625 
" id="BitstreamVeraSans-Roman-38"/>
      </defs>
      <g transform="translate(462.314573733 404.096875)scale(0.2 -0.2)">
       <use xlink:href="#BitstreamVeraSans-Roman-38"/>
      </g>
     </g>
    </g>
    <g id="xtick_10">
     <g id="line2d_59">
      <defs>
       <path d="M 0 0 
L 0 -2 
" id="m813624693d" style="stroke:#000000;stroke-width:0.5;"/>
      </defs>
      <g>
       <use style="stroke:#000000;stroke-width:0.5;" x="70.10902462" xlink:href="#m813624693d" y="384.9"/>
      </g>
     </g>
     <g id="line2d_60">
      <defs>
       <path d="M 0 0 
L 0 2 
" id="m8cf3b7fe33" style="stroke:#000000;stroke-width:0.5;"/>
      </defs>
      <g>
       <use style="stroke:#000000;stroke-width:0.5;" x="70.10902462" xlink:href="#m8cf3b7fe33" y="7.67821782178"/>
      </g>
     </g>
    </g>
    <g id="xtick_11">
     <g id="line2d_61">
      <g>
       <use style="stroke:#000000;stroke-width:0.5;" x="85.69304924" xlink:href="#m813624693d" y="384.9"/>
      </g>
     </g>
     <g id="line2d_62">
      <g>
       <use style="stroke:#000000;stroke-width:0.5;" x="85.69304924" xlink:href="#m8cf3b7fe33" y="7.67821782178"/>
      </g>
     </g>
    </g>
    <g id="xtick_12">
     <g id="line2d_63">
      <g>
       <use style="stroke:#000000;stroke-width:0.5;" x="94.809119253" xlink:href="#m813624693d" y="384.9"/>
      </g>
     </g>
     <g id="line2d_64">
      <g>
       <use style="stroke:#000000;stroke-width:0.5;" x="94.809119253" xlink:href="#m8cf3b7fe33" y="7.67821782178"/>
      </g>
     </g>
    </g>
    <g id="xtick_13">
     <g id="line2d_65">
      <g>
       <use style="stroke:#000000;stroke-width:0.5;" x="101.27707386" xlink:href="#m813624693d" y="384.9"/>
      </g>
     </g>
     <g id="line2d_66">
      <g>
       <use style="stroke:#000000;stroke-width:0.5;" x="101.27707386" xlink:href="#m8cf3b7fe33" y="7.67821782178"/>
      </g>
     </g>
    </g>
    <g id="xtick_14">
     <g id="line2d_67">
      <g>
       <use style="stroke:#000000;stroke-width:0.5;" x="121.878033837" xlink:href="#m813624693d" y="384.9"/>
      </g>
     </g>
     <g id="line2d_68">
      <g>
       <use style="stroke:#000000;stroke-width:0.5;" x="121.878033837" xlink:href="#m8cf3b7fe33" y="7.67821782178"/>
      </g>
     </g>
    </g>
    <g id="xtick_15">
     <g id="line2d_69">
      <g>
       <use style="stroke:#000000;stroke-width:0.5;" x="137.462058457" xlink:href="#m813624693d" y="384.9"/>
      </g>
     </g>
     <g id="line2d_70">
      <g>
       <use style="stroke:#000000;stroke-width:0.5;" x="137.462058457" xlink:href="#m8cf3b7fe33" y="7.67821782178"/>
      </g>
     </g>
    </g>
    <g id="xtick_16">
     <g id="line2d_71">
      <g>
       <use style="stroke:#000000;stroke-width:0.5;" x="146.57812847" xlink:href="#m813624693d" y="384.9"/>
      </g>
     </g>
     <g id="line2d_72">
      <g>
       <use style="stroke:#000000;stroke-width:0.5;" x="146.57812847" xlink:href="#m8cf3b7fe33" y="7.67821782178"/>
      </g>
     </g>
    </g>
    <g id="xtick_17">
     <g id="line2d_73">
      <g>
       <use style="stroke:#000000;stroke-width:0.5;" x="153.046083077" xlink:href="#m813624693d" y="384.9"/>
      </g>
     </g>
     <g id="line2d_74">
      <g>
       <use style="stroke:#000000;stroke-width:0.5;" x="153.046083077" xlink:href="#m8cf3b7fe33" y="7.67821782178"/>
      </g>
     </g>
    </g>
    <g id="xtick_18">
     <g id="line2d_75">
      <g>
       <use style="stroke:#000000;stroke-width:0.5;" x="173.647043053" xlink:href="#m813624693d" y="384.9"/>
      </g>
     </g>
     <g id="line2d_76">
      <g>
       <use style="stroke:#000000;stroke-width:0.5;" x="173.647043053" xlink:href="#m8cf3b7fe33" y="7.67821782178"/>
      </g>
     </g>
    </g>
    <g id="xtick_19">
     <g id="line2d_77">
      <g>
       <use style="stroke:#000000;stroke-width:0.5;" x="189.231067673" xlink:href="#m813624693d" y="384.9"/>
      </g>
     </g>
     <g id="line2d_78">
      <g>
       <use style="stroke:#000000;stroke-width:0.5;" x="189.231067673" xlink:href="#m8cf3b7fe33" y="7.67821782178"/>
      </g>
     </g>
    </g>
    <g id="xtick_20">
     <g id="line2d_79">
      <g>
       <use style="stroke:#000000;stroke-width:0.5;" x="198.347137686" xlink:href="#m813624693d" y="384.9"/>
      </g>
     </g>
     <g id="line2d_80">
      <g>
       <use style="stroke:#000000;stroke-width:0.5;" x="198.347137686" xlink:href="#m8cf3b7fe33" y="7.67821782178"/>
      </g>
     </g>
    </g>
    <g id="xtick_21">
     <g id="line2d_81">
      <g>
       <use style="stroke:#000000;stroke-width:0.5;" x="204.815092293" xlink:href="#m813624693d" y="384.9"/>
      </g>
     </g>
     <g id="line2d_82">
      <g>
       <use style="stroke:#000000;stroke-width:0.5;" x="204.815092293" xlink:href="#m8cf3b7fe33" y="7.67821782178"/>
      </g>
     </g>
    </g>
    <g id="xtick_22">
     <g id="line2d_83">
      <g>
       <use style="stroke:#000000;stroke-width:0.5;" x="225.41605227" xlink:href="#m813624693d" y="384.9"/>
      </g>
     </g>
     <g id="line2d_84">
      <g>
       <use style="stroke:#000000;stroke-width:0.5;" x="225.41605227" xlink:href="#m8cf3b7fe33" y="7.67821782178"/>
      </g>
     </g>
    </g>
    <g id="xtick_23">
     <g id="line2d_85">
      <g>
       <use style="stroke:#000000;stroke-width:0.5;" x="241.00007689" xlink:href="#m813624693d" y="384.9"/>
      </g>
     </g>
     <g id="line2d_86">
      <g>
       <use style="stroke:#000000;stroke-width:0.5;" x="241.00007689" xlink:href="#m8cf3b7fe33" y="7.67821782178"/>
      </g>
     </g>
    </g>
    <g id="xtick_24">
     <g id="line2d_87">
      <g>
       <use style="stroke:#000000;stroke-width:0.5;" x="250.116146903" xlink:href="#m813624693d" y="384.9"/>
      </g>
     </g>
     <g id="line2d_88">
      <g>
       <use style="stroke:#000000;stroke-width:0.5;" x="250.116146903" xlink:href="#m8cf3b7fe33" y="7.67821782178"/>
      </g>
     </g>
    </g>
    <g id="xtick_25">
     <g id="line2d_89">
      <g>
       <use style="stroke:#000000;stroke-width:0.5;" x="256.58410151" xlink:href="#m813624693d" y="384.9"/>
      </g>
     </g>
     <g id="line2d_90">
      <g>
       <use style="stroke:#000000;stroke-width:0.5;" x="256.58410151" xlink:href="#m8cf3b7fe33" y="7.67821782178"/>
      </g>
     </g>
    </g>
    <g id="xtick_26">
     <g id="line2d_91">
      <g>
       <use style="stroke:#000000;stroke-width:0.5;" x="277.185061486" xlink:href="#m813624693d" y="384.9"/>
      </g>
     </g>
     <g id="line2d_92">
      <g>
       <use style="stroke:#000000;stroke-width:0.5;" x="277.185061486" xlink:href="#m8cf3b7fe33" y="7.67821782178"/>
      </g>
     </g>
    </g>
    <g id="xtick_27">
     <g id="line2d_93">
      <g>
       <use style="stroke:#000000;stroke-width:0.5;" x="292.769086106" xlink:href="#m813624693d" y="384.9"/>
      </g>
     </g>
     <g id="line2d_94">
      <g>
       <use style="stroke:#000000;stroke-width:0.5;" x="292.769086106" xlink:href="#m8cf3b7fe33" y="7.67821782178"/>
      </g>
     </g>
    </g>
    <g id="xtick_28">
     <g id="line2d_95">
      <g>
       <use style="stroke:#000000;stroke-width:0.5;" x="301.885156119" xlink:href="#m813624693d" y="384.9"/>
      </g>
     </g>
     <g id="line2d_96">
      <g>
       <use style="stroke:#000000;stroke-width:0.5;" x="301.885156119" xlink:href="#m8cf3b7fe33" y="7.67821782178"/>
      </g>
     </g>
    </g>
    <g id="xtick_29">
     <g id="line2d_97">
      <g>
       <use style="stroke:#000000;stroke-width:0.5;" x="308.353110726" xlink:href="#m813624693d" y="384.9"/>
      </g>
     </g>
     <g id="line2d_98">
      <g>
       <use style="stroke:#000000;stroke-width:0.5;" x="308.353110726" xlink:href="#m8cf3b7fe33" y="7.67821782178"/>
      </g>
     </g>
    </g>
    <g id="xtick_30">
     <g id="line2d_99">
      <g>
       <use style="stroke:#000000;stroke-width:0.5;" x="328.954070703" xlink:href="#m813624693d" y="384.9"/>
      </g>
     </g>
     <g id="line2d_100">
      <g>
       <use style="stroke:#000000;stroke-width:0.5;" x="328.954070703" xlink:href="#m8cf3b7fe33" y="7.67821782178"/>
      </g>
     </g>
    </g>
    <g id="xtick_31">
     <g id="line2d_101">
      <g>
       <use style="stroke:#000000;stroke-width:0.5;" x="344.538095323" xlink:href="#m813624693d" y="384.9"/>
      </g>
     </g>
     <g id="line2d_102">
      <g>
       <use style="stroke:#000000;stroke-width:0.5;" x="344.538095323" xlink:href="#m8cf3b7fe33" y="7.67821782178"/>
      </g>
     </g>
    </g>
    <g id="xtick_32">
     <g id="line2d_103">
      <g>
       <use style="stroke:#000000;stroke-width:0.5;" x="353.654165336" xlink:href="#m813624693d" y="384.9"/>
      </g>
     </g>
     <g id="line2d_104">
      <g>
       <use style="stroke:#000000;stroke-width:0.5;" x="353.654165336" xlink:href="#m8cf3b7fe33" y="7.67821782178"/>
      </g>
     </g>
    </g>
    <g id="xtick_33">
     <g id="line2d_105">
      <g>
       <use style="stroke:#000000;stroke-width:0.5;" x="360.122119943" xlink:href="#m813624693d" y="384.9"/>
      </g>
     </g>
     <g id="line2d_106">
      <g>
       <use style="stroke:#000000;stroke-width:0.5;" x="360.122119943" xlink:href="#m8cf3b7fe33" y="7.67821782178"/>
      </g>
     </g>
    </g>
    <g id="xtick_34">
     <g id="line2d_107">
      <g>
       <use style="stroke:#000000;stroke-width:0.5;" x="380.72307992" xlink:href="#m813624693d" y="384.9"/>
      </g>
     </g>
     <g id="line2d_108">
      <g>
       <use style="stroke:#000000;stroke-width:0.5;" x="380.72307992" xlink:href="#m8cf3b7fe33" y="7.67821782178"/>
      </g>
     </g>
    </g>
    <g id="xtick_35">
     <g id="line2d_109">
      <g>
       <use style="stroke:#000000;stroke-width:0.5;" x="396.30710454" xlink:href="#m813624693d" y="384.9"/>
      </g>
     </g>
     <g id="line2d_110">
      <g>
       <use style="stroke:#000000;stroke-width:0.5;" x="396.30710454" xlink:href="#m8cf3b7fe33" y="7.67821782178"/>
      </g>
     </g>
    </g>
    <g id="xtick_36">
     <g id="line2d_111">
      <g>
       <use style="stroke:#000000;stroke-width:0.5;" x="405.423174553" xlink:href="#m813624693d" y="384.9"/>
      </g>
     </g>
     <g id="line2d_112">
      <g>
       <use style="stroke:#000000;stroke-width:0.5;" x="405.423174553" xlink:href="#m8cf3b7fe33" y="7.67821782178"/>
      </g>
     </g>
    </g>
    <g id="xtick_37">
     <g id="line2d_113">
      <g>
       <use style="stroke:#000000;stroke-width:0.5;" x="411.89112916" xlink:href="#m813624693d" y="384.9"/>
      </g>
     </g>
     <g id="line2d_114">
      <g>
       <use style="stroke:#000000;stroke-width:0.5;" x="411.89112916" xlink:href="#m8cf3b7fe33" y="7.67821782178"/>
      </g>
     </g>
    </g>
    <g id="xtick_38">
     <g id="line2d_115">
      <g>
       <use style="stroke:#000000;stroke-width:0.5;" x="432.492089136" xlink:href="#m813624693d" y="384.9"/>
      </g>
     </g>
     <g id="line2d_116">
      <g>
       <use style="stroke:#000000;stroke-width:0.5;" x="432.492089136" xlink:href="#m8cf3b7fe33" y="7.67821782178"/>
      </g>
     </g>
    </g>
    <g id="xtick_39">
     <g id="line2d_117">
      <g>
       <use style="stroke:#000000;stroke-width:0.5;" x="448.076113756" xlink:href="#m813624693d" y="384.9"/>
      </g>
     </g>
     <g id="line2d_118">
      <g>
       <use style="stroke:#000000;stroke-width:0.5;" x="448.076113756" xlink:href="#m8cf3b7fe33" y="7.67821782178"/>
      </g>
     </g>
    </g>
    <g id="xtick_40">
     <g id="line2d_119">
      <g>
       <use style="stroke:#000000;stroke-width:0.5;" x="457.192183769" xlink:href="#m813624693d" y="384.9"/>
      </g>
     </g>
     <g id="line2d_120">
      <g>
       <use style="stroke:#000000;stroke-width:0.5;" x="457.192183769" xlink:href="#m8cf3b7fe33" y="7.67821782178"/>
      </g>
     </g>
    </g>
    <g id="xtick_41">
     <g id="line2d_121">
      <g>
       <use style="stroke:#000000;stroke-width:0.5;" x="463.660138376" xlink:href="#m813624693d" y="384.9"/>
      </g>
     </g>
     <g id="line2d_122">
      <g>
       <use style="stroke:#000000;stroke-width:0.5;" x="463.660138376" xlink:href="#m8cf3b7fe33" y="7.67821782178"/>
      </g>
     </g>
    </g>
    <g id="xtick_42">
     <g id="line2d_123">
      <g>
       <use style="stroke:#000000;stroke-width:0.5;" x="484.261098353" xlink:href="#m813624693d" y="384.9"/>
      </g>
     </g>
     <g id="line2d_124">
      <g>
       <use style="stroke:#000000;stroke-width:0.5;" x="484.261098353" xlink:href="#m8cf3b7fe33" y="7.67821782178"/>
      </g>
     </g>
    </g>
    <g id="xtick_43">
     <g id="line2d_125">
      <g>
       <use style="stroke:#000000;stroke-width:0.5;" x="499.845122973" xlink:href="#m813624693d" y="384.9"/>
      </g>
     </g>
     <g id="line2d_126">
      <g>
       <use style="stroke:#000000;stroke-width:0.5;" x="499.845122973" xlink:href="#m8cf3b7fe33" y="7.67821782178"/>
      </g>
     </g>
    </g>
    <g id="text_10">
     <!-- log10(# f-evals / dimension) -->
     <defs>
      <path id="BitstreamVeraSans-Roman-20"/>
      <path d="M 51.125 44 
L 36.921875 44 
L 32.8125 27.6875 
L 47.125 27.6875 
z
M 43.796875 71.78125 
L 38.71875 51.515625 
L 52.984375 51.515625 
L 58.109375 71.78125 
L 65.921875 71.78125 
L 60.890625 51.515625 
L 76.125 51.515625 
L 76.125 44 
L 58.984375 44 
L 54.984375 27.6875 
L 70.515625 27.6875 
L 70.515625 20.21875 
L 53.078125 20.21875 
L 48 0 
L 40.1875 0 
L 45.21875 20.21875 
L 30.90625 20.21875 
L 25.875 0 
L 18.015625 0 
L 23.09375 20.21875 
L 7.71875 20.21875 
L 7.71875 27.6875 
L 24.90625 27.6875 
L 29 44 
L 13.28125 44 
L 13.28125 51.515625 
L 30.90625 51.515625 
L 35.890625 71.78125 
z
" id="BitstreamVeraSans-Roman-23"/>
      <path d="M 52 44.1875 
Q 55.375 50.25 60.0625 53.125 
Q 64.75 56 71.09375 56 
Q 79.640625 56 84.28125 50.015625 
Q 88.921875 44.046875 88.921875 33.015625 
L 88.921875 0 
L 79.890625 0 
L 79.890625 32.71875 
Q 79.890625 40.578125 77.09375 44.375 
Q 74.3125 48.1875 68.609375 48.1875 
Q 61.625 48.1875 57.5625 43.546875 
Q 53.515625 38.921875 53.515625 30.90625 
L 53.515625 0 
L 44.484375 0 
L 44.484375 32.71875 
Q 44.484375 40.625 41.703125 44.40625 
Q 38.921875 48.1875 33.109375 48.1875 
Q 26.21875 48.1875 22.15625 43.53125 
Q 18.109375 38.875 18.109375 30.90625 
L 18.109375 0 
L 9.078125 0 
L 9.078125 54.6875 
L 18.109375 54.6875 
L 18.109375 46.1875 
Q 21.1875 51.21875 25.484375 53.609375 
Q 29.78125 56 35.6875 56 
Q 41.65625 56 45.828125 52.96875 
Q 50 49.953125 52 44.1875 
" id="BitstreamVeraSans-Roman-6d"/>
      <path d="M 54.890625 33.015625 
L 54.890625 0 
L 45.90625 0 
L 45.90625 32.71875 
Q 45.90625 40.484375 42.875 44.328125 
Q 39.84375 48.1875 33.796875 48.1875 
Q 26.515625 48.1875 22.3125 43.546875 
Q 18.109375 38.921875 18.109375 30.90625 
L 18.109375 0 
L 9.078125 0 
L 9.078125 54.6875 
L 18.109375 54.6875 
L 18.109375 46.1875 
Q 21.34375 51.125 25.703125 53.5625 
Q 30.078125 56 35.796875 56 
Q 45.21875 56 50.046875 50.171875 
Q 54.890625 44.34375 54.890625 33.015625 
" id="BitstreamVeraSans-Roman-6e"/>
      <path d="M 31 75.875 
Q 24.46875 64.65625 21.28125 53.65625 
Q 18.109375 42.671875 18.109375 31.390625 
Q 18.109375 20.125 21.3125 9.0625 
Q 24.515625 -2 31 -13.1875 
L 23.1875 -13.1875 
Q 15.875 -1.703125 12.234375 9.375 
Q 8.59375 20.453125 8.59375 31.390625 
Q 8.59375 42.28125 12.203125 53.3125 
Q 15.828125 64.359375 23.1875 75.875 
z
" id="BitstreamVeraSans-Roman-28"/>
      <path d="M 30.609375 48.390625 
Q 23.390625 48.390625 19.1875 42.75 
Q 14.984375 37.109375 14.984375 27.296875 
Q 14.984375 17.484375 19.15625 11.84375 
Q 23.34375 6.203125 30.609375 6.203125 
Q 37.796875 6.203125 41.984375 11.859375 
Q 46.1875 17.53125 46.1875 27.296875 
Q 46.1875 37.015625 41.984375 42.703125 
Q 37.796875 48.390625 30.609375 48.390625 
M 30.609375 56 
Q 42.328125 56 49.015625 48.375 
Q 55.71875 40.765625 55.71875 27.296875 
Q 55.71875 13.875 49.015625 6.21875 
Q 42.328125 -1.421875 30.609375 -1.421875 
Q 18.84375 -1.421875 12.171875 6.21875 
Q 5.515625 13.875 5.515625 27.296875 
Q 5.515625 40.765625 12.171875 48.375 
Q 18.84375 56 30.609375 56 
" id="BitstreamVeraSans-Roman-6f"/>
      <path d="M 9.421875 75.984375 
L 18.40625 75.984375 
L 18.40625 0 
L 9.421875 0 
z
" id="BitstreamVeraSans-Roman-6c"/>
      <path d="M 2.984375 54.6875 
L 12.5 54.6875 
L 29.59375 8.796875 
L 46.6875 54.6875 
L 56.203125 54.6875 
L 35.6875 0 
L 23.484375 0 
z
" id="BitstreamVeraSans-Roman-76"/>
      <path d="M 9.421875 54.6875 
L 18.40625 54.6875 
L 18.40625 0 
L 9.421875 0 
z
M 9.421875 75.984375 
L 18.40625 75.984375 
L 18.40625 64.59375 
L 9.421875 64.59375 
z
" id="BitstreamVeraSans-Roman-69"/>
      <path d="M 4.890625 31.390625 
L 31.203125 31.390625 
L 31.203125 23.390625 
L 4.890625 23.390625 
z
" id="BitstreamVeraSans-Roman-2d"/>
      <path d="M 25.390625 72.90625 
L 33.6875 72.90625 
L 8.296875 -9.28125 
L 0 -9.28125 
z
" id="BitstreamVeraSans-Roman-2f"/>
      <path d="M 56.203125 29.59375 
L 56.203125 25.203125 
L 14.890625 25.203125 
Q 15.484375 15.921875 20.484375 11.0625 
Q 25.484375 6.203125 34.421875 6.203125 
Q 39.59375 6.203125 44.453125 7.46875 
Q 49.3125 8.734375 54.109375 11.28125 
L 54.109375 2.78125 
Q 49.265625 0.734375 44.1875 -0.34375 
Q 39.109375 -1.421875 33.890625 -1.421875 
Q 20.796875 -1.421875 13.15625 6.1875 
Q 5.515625 13.8125 5.515625 26.8125 
Q 5.515625 40.234375 12.765625 48.109375 
Q 20.015625 56 32.328125 56 
Q 43.359375 56 49.78125 48.890625 
Q 56.203125 41.796875 56.203125 29.59375 
M 47.21875 32.234375 
Q 47.125 39.59375 43.09375 43.984375 
Q 39.0625 48.390625 32.421875 48.390625 
Q 24.90625 48.390625 20.390625 44.140625 
Q 15.875 39.890625 15.1875 32.171875 
z
" id="BitstreamVeraSans-Roman-65"/>
      <path d="M 45.40625 46.390625 
L 45.40625 75.984375 
L 54.390625 75.984375 
L 54.390625 0 
L 45.40625 0 
L 45.40625 8.203125 
Q 42.578125 3.328125 38.25 0.953125 
Q 33.9375 -1.421875 27.875 -1.421875 
Q 17.96875 -1.421875 11.734375 6.484375 
Q 5.515625 14.40625 5.515625 27.296875 
Q 5.515625 40.1875 11.734375 48.09375 
Q 17.96875 56 27.875 56 
Q 33.9375 56 38.25 53.625 
Q 42.578125 51.265625 45.40625 46.390625 
M 14.796875 27.296875 
Q 14.796875 17.390625 18.875 11.75 
Q 22.953125 6.109375 30.078125 6.109375 
Q 37.203125 6.109375 41.296875 11.75 
Q 45.40625 17.390625 45.40625 27.296875 
Q 45.40625 37.203125 41.296875 42.84375 
Q 37.203125 48.484375 30.078125 48.484375 
Q 22.953125 48.484375 18.875 42.84375 
Q 14.796875 37.203125 14.796875 27.296875 
" id="BitstreamVeraSans-Roman-64"/>
      <path d="M 45.40625 27.984375 
Q 45.40625 37.75 41.375 43.109375 
Q 37.359375 48.484375 30.078125 48.484375 
Q 22.859375 48.484375 18.828125 43.109375 
Q 14.796875 37.75 14.796875 27.984375 
Q 14.796875 18.265625 18.828125 12.890625 
Q 22.859375 7.515625 30.078125 7.515625 
Q 37.359375 7.515625 41.375 12.890625 
Q 45.40625 18.265625 45.40625 27.984375 
M 54.390625 6.78125 
Q 54.390625 -7.171875 48.1875 -13.984375 
Q 42 -20.796875 29.203125 -20.796875 
Q 24.46875 -20.796875 20.265625 -20.09375 
Q 16.0625 -19.390625 12.109375 -17.921875 
L 12.109375 -9.1875 
Q 16.0625 -11.328125 19.921875 -12.34375 
Q 23.78125 -13.375 27.78125 -13.375 
Q 36.625 -13.375 41.015625 -8.765625 
Q 45.40625 -4.15625 45.40625 5.171875 
L 45.40625 9.625 
Q 42.625 4.78125 38.28125 2.390625 
Q 33.9375 0 27.875 0 
Q 17.828125 0 11.671875 7.65625 
Q 5.515625 15.328125 5.515625 27.984375 
Q 5.515625 40.671875 11.671875 48.328125 
Q 17.828125 56 27.875 56 
Q 33.9375 56 38.28125 53.609375 
Q 42.625 51.21875 45.40625 46.390625 
L 45.40625 54.6875 
L 54.390625 54.6875 
z
" id="BitstreamVeraSans-Roman-67"/>
      <path d="M 37.109375 75.984375 
L 37.109375 68.5 
L 28.515625 68.5 
Q 23.6875 68.5 21.796875 66.546875 
Q 19.921875 64.59375 19.921875 59.515625 
L 19.921875 54.6875 
L 34.71875 54.6875 
L 34.71875 47.703125 
L 19.921875 47.703125 
L 19.921875 0 
L 10.890625 0 
L 10.890625 47.703125 
L 2.296875 47.703125 
L 2.296875 54.6875 
L 10.890625 54.6875 
L 10.890625 58.5 
Q 10.890625 67.625 15.140625 71.796875 
Q 19.390625 75.984375 28.609375 75.984375 
z
" id="BitstreamVeraSans-Roman-66"/>
      <path d="M 34.28125 27.484375 
Q 23.390625 27.484375 19.1875 25 
Q 14.984375 22.515625 14.984375 16.5 
Q 14.984375 11.71875 18.140625 8.90625 
Q 21.296875 6.109375 26.703125 6.109375 
Q 34.1875 6.109375 38.703125 11.40625 
Q 43.21875 16.703125 43.21875 25.484375 
L 43.21875 27.484375 
z
M 52.203125 31.203125 
L 52.203125 0 
L 43.21875 0 
L 43.21875 8.296875 
Q 40.140625 3.328125 35.546875 0.953125 
Q 30.953125 -1.421875 24.3125 -1.421875 
Q 15.921875 -1.421875 10.953125 3.296875 
Q 6 8.015625 6 15.921875 
Q 6 25.140625 12.171875 29.828125 
Q 18.359375 34.515625 30.609375 34.515625 
L 43.21875 34.515625 
L 43.21875 35.40625 
Q 43.21875 41.609375 39.140625 45 
Q 35.0625 48.390625 27.6875 48.390625 
Q 23 48.390625 18.546875 47.265625 
Q 14.109375 46.140625 10.015625 43.890625 
L 10.015625 52.203125 
Q 14.9375 54.109375 19.578125 55.046875 
Q 24.21875 56 28.609375 56 
Q 40.484375 56 46.34375 49.84375 
Q 52.203125 43.703125 52.203125 31.203125 
" id="BitstreamVeraSans-Roman-61"/>
      <path d="M 44.28125 53.078125 
L 44.28125 44.578125 
Q 40.484375 46.53125 36.375 47.5 
Q 32.28125 48.484375 27.875 48.484375 
Q 21.1875 48.484375 17.84375 46.4375 
Q 14.5 44.390625 14.5 40.28125 
Q 14.5 37.15625 16.890625 35.375 
Q 19.28125 33.59375 26.515625 31.984375 
L 29.59375 31.296875 
Q 39.15625 29.25 43.1875 25.515625 
Q 47.21875 21.78125 47.21875 15.09375 
Q 47.21875 7.46875 41.1875 3.015625 
Q 35.15625 -1.421875 24.609375 -1.421875 
Q 20.21875 -1.421875 15.453125 -0.5625 
Q 10.6875 0.296875 5.421875 2 
L 5.421875 11.28125 
Q 10.40625 8.6875 15.234375 7.390625 
Q 20.0625 6.109375 24.8125 6.109375 
Q 31.15625 6.109375 34.5625 8.28125 
Q 37.984375 10.453125 37.984375 14.40625 
Q 37.984375 18.0625 35.515625 20.015625 
Q 33.0625 21.96875 24.703125 23.78125 
L 21.578125 24.515625 
Q 13.234375 26.265625 9.515625 29.90625 
Q 5.8125 33.546875 5.8125 39.890625 
Q 5.8125 47.609375 11.28125 51.796875 
Q 16.75 56 26.8125 56 
Q 31.78125 56 36.171875 55.265625 
Q 40.578125 54.546875 44.28125 53.078125 
" id="BitstreamVeraSans-Roman-73"/>
      <path d="M 8.015625 75.875 
L 15.828125 75.875 
Q 23.140625 64.359375 26.78125 53.3125 
Q 30.421875 42.28125 30.421875 31.390625 
Q 30.421875 20.453125 26.78125 9.375 
Q 23.140625 -1.703125 15.828125 -13.1875 
L 8.015625 -13.1875 
Q 14.5 -2 17.703125 9.0625 
Q 20.90625 20.125 20.90625 31.390625 
Q 20.90625 42.671875 17.703125 53.65625 
Q 14.5 64.65625 8.015625 75.875 
" id="BitstreamVeraSans-Roman-29"/>
     </defs>
     <g transform="translate(158.36171875 426.17359375)scale(0.17 -0.17)">
      <use xlink:href="#BitstreamVeraSans-Roman-6c"/>
      <use x="27.783203125" xlink:href="#BitstreamVeraSans-Roman-6f"/>
      <use x="88.96484375" xlink:href="#BitstreamVeraSans-Roman-67"/>
      <use x="152.44140625" xlink:href="#BitstreamVeraSans-Roman-31"/>
      <use x="216.064453125" xlink:href="#BitstreamVeraSans-Roman-30"/>
      <use x="279.6875" xlink:href="#BitstreamVeraSans-Roman-28"/>
      <use x="318.701171875" xlink:href="#BitstreamVeraSans-Roman-23"/>
      <use x="402.490234375" xlink:href="#BitstreamVeraSans-Roman-20"/>
      <use x="434.27734375" xlink:href="#BitstreamVeraSans-Roman-66"/>
      <use x="469.404296875" xlink:href="#BitstreamVeraSans-Roman-2d"/>
      <use x="505.48828125" xlink:href="#BitstreamVeraSans-Roman-65"/>
      <use x="567.01171875" xlink:href="#BitstreamVeraSans-Roman-76"/>
      <use x="626.19140625" xlink:href="#BitstreamVeraSans-Roman-61"/>
      <use x="687.470703125" xlink:href="#BitstreamVeraSans-Roman-6c"/>
      <use x="715.25390625" xlink:href="#BitstreamVeraSans-Roman-73"/>
      <use x="767.353515625" xlink:href="#BitstreamVeraSans-Roman-20"/>
      <use x="799.140625" xlink:href="#BitstreamVeraSans-Roman-2f"/>
      <use x="832.83203125" xlink:href="#BitstreamVeraSans-Roman-20"/>
      <use x="864.619140625" xlink:href="#BitstreamVeraSans-Roman-64"/>
      <use x="928.095703125" xlink:href="#BitstreamVeraSans-Roman-69"/>
      <use x="955.87890625" xlink:href="#BitstreamVeraSans-Roman-6d"/>
      <use x="1053.29101562" xlink:href="#BitstreamVeraSans-Roman-65"/>
      <use x="1114.81445312" xlink:href="#BitstreamVeraSans-Roman-6e"/>
      <use x="1178.19335938" xlink:href="#BitstreamVeraSans-Roman-73"/>
      <use x="1230.29296875" xlink:href="#BitstreamVeraSans-Roman-69"/>
      <use x="1258.07617188" xlink:href="#BitstreamVeraSans-Roman-6f"/>
      <use x="1319.2578125" xlink:href="#BitstreamVeraSans-Roman-6e"/>
      <use x="1382.63671875" xlink:href="#BitstreamVeraSans-Roman-29"/>
     </g>
    </g>
   </g>
   <g id="matplotlib.axis_2">
    <g id="ytick_1">
     <g id="line2d_127">
      <path clip-path="url(#p94b70fa151)" d="M 54.525 384.9 
L 503.88 384.9 
" style="fill:none;stroke:#000000;stroke-dasharray:1.000000,3.000000;stroke-dashoffset:0.0;stroke-width:0.5;"/>
     </g>
     <g id="line2d_128">
      <defs>
       <path d="M 0 0 
L 4 0 
" id="mece91fbdb6" style="stroke:#000000;stroke-width:0.5;"/>
      </defs>
      <g>
       <use style="stroke:#000000;stroke-width:0.5;" x="54.525" xlink:href="#mece91fbdb6" y="384.9"/>
      </g>
     </g>
     <g id="line2d_129">
      <defs>
       <path d="M 0 0 
L -4 0 
" id="mfc9a652a53" style="stroke:#000000;stroke-width:0.5;"/>
      </defs>
      <g>
       <use style="stroke:#000000;stroke-width:0.5;" x="503.88" xlink:href="#mfc9a652a53" y="384.9"/>
      </g>
     </g>
     <g id="text_11">
      <!-- 0.0 -->
      <defs>
       <path d="M 10.6875 12.40625 
L 21 12.40625 
L 21 0 
L 10.6875 0 
z
" id="BitstreamVeraSans-Roman-2e"/>
      </defs>
      <g transform="translate(25.08 389.315)scale(0.16 -0.16)">
       <use xlink:href="#BitstreamVeraSans-Roman-30"/>
       <use x="63.623046875" xlink:href="#BitstreamVeraSans-Roman-2e"/>
       <use x="95.41015625" xlink:href="#BitstreamVeraSans-Roman-30"/>
      </g>
     </g>
    </g>
    <g id="ytick_2">
     <g id="line2d_130">
      <path clip-path="url(#p94b70fa151)" d="M 54.525 310.202617 
L 503.88 310.202617 
" style="fill:none;stroke:#000000;stroke-dasharray:1.000000,3.000000;stroke-dashoffset:0.0;stroke-width:0.5;"/>
     </g>
     <g id="line2d_131">
      <g>
       <use style="stroke:#000000;stroke-width:0.5;" x="54.525" xlink:href="#mece91fbdb6" y="310.20261739"/>
      </g>
     </g>
     <g id="line2d_132">
      <g>
       <use style="stroke:#000000;stroke-width:0.5;" x="503.88" xlink:href="#mfc9a652a53" y="310.20261739"/>
      </g>
     </g>
     <g id="text_12">
      <!-- 0.2 -->
      <g transform="translate(25.08 314.61761739)scale(0.16 -0.16)">
       <use xlink:href="#BitstreamVeraSans-Roman-30"/>
       <use x="63.623046875" xlink:href="#BitstreamVeraSans-Roman-2e"/>
       <use x="95.41015625" xlink:href="#BitstreamVeraSans-Roman-32"/>
      </g>
     </g>
    </g>
    <g id="ytick_3">
     <g id="line2d_133">
      <path clip-path="url(#p94b70fa151)" d="M 54.525 235.505235 
L 503.88 235.505235 
" style="fill:none;stroke:#000000;stroke-dasharray:1.000000,3.000000;stroke-dashoffset:0.0;stroke-width:0.5;"/>
     </g>
     <g id="line2d_134">
      <g>
       <use style="stroke:#000000;stroke-width:0.5;" x="54.525" xlink:href="#mece91fbdb6" y="235.505234781"/>
      </g>
     </g>
     <g id="line2d_135">
      <g>
       <use style="stroke:#000000;stroke-width:0.5;" x="503.88" xlink:href="#mfc9a652a53" y="235.505234781"/>
      </g>
     </g>
     <g id="text_13">
      <!-- 0.4 -->
      <g transform="translate(25.08 239.920234781)scale(0.16 -0.16)">
       <use xlink:href="#BitstreamVeraSans-Roman-30"/>
       <use x="63.623046875" xlink:href="#BitstreamVeraSans-Roman-2e"/>
       <use x="95.41015625" xlink:href="#BitstreamVeraSans-Roman-34"/>
      </g>
     </g>
    </g>
    <g id="ytick_4">
     <g id="line2d_136">
      <path clip-path="url(#p94b70fa151)" d="M 54.525 160.807852 
L 503.88 160.807852 
" style="fill:none;stroke:#000000;stroke-dasharray:1.000000,3.000000;stroke-dashoffset:0.0;stroke-width:0.5;"/>
     </g>
     <g id="line2d_137">
      <g>
       <use style="stroke:#000000;stroke-width:0.5;" x="54.525" xlink:href="#mece91fbdb6" y="160.807852171"/>
      </g>
     </g>
     <g id="line2d_138">
      <g>
       <use style="stroke:#000000;stroke-width:0.5;" x="503.88" xlink:href="#mfc9a652a53" y="160.807852171"/>
      </g>
     </g>
     <g id="text_14">
      <!-- 0.6 -->
      <g transform="translate(25.08 165.222852171)scale(0.16 -0.16)">
       <use xlink:href="#BitstreamVeraSans-Roman-30"/>
       <use x="63.623046875" xlink:href="#BitstreamVeraSans-Roman-2e"/>
       <use x="95.41015625" xlink:href="#BitstreamVeraSans-Roman-36"/>
      </g>
     </g>
    </g>
    <g id="ytick_5">
     <g id="line2d_139">
      <path clip-path="url(#p94b70fa151)" d="M 54.525 86.11047 
L 503.88 86.11047 
" style="fill:none;stroke:#000000;stroke-dasharray:1.000000,3.000000;stroke-dashoffset:0.0;stroke-width:0.5;"/>
     </g>
     <g id="line2d_140">
      <g>
       <use style="stroke:#000000;stroke-width:0.5;" x="54.525" xlink:href="#mece91fbdb6" y="86.1104695618"/>
      </g>
     </g>
     <g id="line2d_141">
      <g>
       <use style="stroke:#000000;stroke-width:0.5;" x="503.88" xlink:href="#mfc9a652a53" y="86.1104695618"/>
      </g>
     </g>
     <g id="text_15">
      <!-- 0.8 -->
      <g transform="translate(25.08 90.5254695618)scale(0.16 -0.16)">
       <use xlink:href="#BitstreamVeraSans-Roman-30"/>
       <use x="63.623046875" xlink:href="#BitstreamVeraSans-Roman-2e"/>
       <use x="95.41015625" xlink:href="#BitstreamVeraSans-Roman-38"/>
      </g>
     </g>
    </g>
    <g id="ytick_6">
     <g id="line2d_142">
      <path clip-path="url(#p94b70fa151)" d="M 54.525 11.413087 
L 503.88 11.413087 
" style="fill:none;stroke:#000000;stroke-dasharray:1.000000,3.000000;stroke-dashoffset:0.0;stroke-width:0.5;"/>
     </g>
     <g id="line2d_143">
      <g>
       <use style="stroke:#000000;stroke-width:0.5;" x="54.525" xlink:href="#mece91fbdb6" y="11.4130869523"/>
      </g>
     </g>
     <g id="line2d_144">
      <g>
       <use style="stroke:#000000;stroke-width:0.5;" x="503.88" xlink:href="#mfc9a652a53" y="11.4130869523"/>
      </g>
     </g>
     <g id="text_16">
      <!-- 1.0 -->
      <g transform="translate(25.08 15.8280869523)scale(0.16 -0.16)">
       <use xlink:href="#BitstreamVeraSans-Roman-31"/>
       <use x="63.623046875" xlink:href="#BitstreamVeraSans-Roman-2e"/>
       <use x="95.41015625" xlink:href="#BitstreamVeraSans-Roman-30"/>
      </g>
     </g>
    </g>
    <g id="text_17">
     <!-- Fraction of function,target pairs -->
     <defs>
      <path d="M 9.8125 72.90625 
L 51.703125 72.90625 
L 51.703125 64.59375 
L 19.671875 64.59375 
L 19.671875 43.109375 
L 48.578125 43.109375 
L 48.578125 34.8125 
L 19.671875 34.8125 
L 19.671875 0 
L 9.8125 0 
z
" id="BitstreamVeraSans-Roman-46"/>
      <path d="M 11.71875 12.40625 
L 22.015625 12.40625 
L 22.015625 4 
L 14.015625 -11.625 
L 7.71875 -11.625 
L 11.71875 4 
z
" id="BitstreamVeraSans-Roman-2c"/>
      <path d="M 18.109375 8.203125 
L 18.109375 -20.796875 
L 9.078125 -20.796875 
L 9.078125 54.6875 
L 18.109375 54.6875 
L 18.109375 46.390625 
Q 20.953125 51.265625 25.265625 53.625 
Q 29.59375 56 35.59375 56 
Q 45.5625 56 51.78125 48.09375 
Q 58.015625 40.1875 58.015625 27.296875 
Q 58.015625 14.40625 51.78125 6.484375 
Q 45.5625 -1.421875 35.59375 -1.421875 
Q 29.59375 -1.421875 25.265625 0.953125 
Q 20.953125 3.328125 18.109375 8.203125 
M 48.6875 27.296875 
Q 48.6875 37.203125 44.609375 42.84375 
Q 40.53125 48.484375 33.40625 48.484375 
Q 26.265625 48.484375 22.1875 42.84375 
Q 18.109375 37.203125 18.109375 27.296875 
Q 18.109375 17.390625 22.1875 11.75 
Q 26.265625 6.109375 33.40625 6.109375 
Q 40.53125 6.109375 44.609375 11.75 
Q 48.6875 17.390625 48.6875 27.296875 
" id="BitstreamVeraSans-Roman-70"/>
      <path d="M 18.3125 70.21875 
L 18.3125 54.6875 
L 36.8125 54.6875 
L 36.8125 47.703125 
L 18.3125 47.703125 
L 18.3125 18.015625 
Q 18.3125 11.328125 20.140625 9.421875 
Q 21.96875 7.515625 27.59375 7.515625 
L 36.8125 7.515625 
L 36.8125 0 
L 27.59375 0 
Q 17.1875 0 13.234375 3.875 
Q 9.28125 7.765625 9.28125 18.015625 
L 9.28125 47.703125 
L 2.6875 47.703125 
L 2.6875 54.6875 
L 9.28125 54.6875 
L 9.28125 70.21875 
z
" id="BitstreamVeraSans-Roman-74"/>
      <path d="M 8.5 21.578125 
L 8.5 54.6875 
L 17.484375 54.6875 
L 17.484375 21.921875 
Q 17.484375 14.15625 20.5 10.265625 
Q 23.53125 6.390625 29.59375 6.390625 
Q 36.859375 6.390625 41.078125 11.03125 
Q 45.3125 15.671875 45.3125 23.6875 
L 45.3125 54.6875 
L 54.296875 54.6875 
L 54.296875 0 
L 45.3125 0 
L 45.3125 8.40625 
Q 42.046875 3.421875 37.71875 1 
Q 33.40625 -1.421875 27.6875 -1.421875 
Q 18.265625 -1.421875 13.375 4.4375 
Q 8.5 10.296875 8.5 21.578125 
" id="BitstreamVeraSans-Roman-75"/>
      <path d="M 41.109375 46.296875 
Q 39.59375 47.171875 37.8125 47.578125 
Q 36.03125 48 33.890625 48 
Q 26.265625 48 22.1875 43.046875 
Q 18.109375 38.09375 18.109375 28.8125 
L 18.109375 0 
L 9.078125 0 
L 9.078125 54.6875 
L 18.109375 54.6875 
L 18.109375 46.1875 
Q 20.953125 51.171875 25.484375 53.578125 
Q 30.03125 56 36.53125 56 
Q 37.453125 56 38.578125 55.875 
Q 39.703125 55.765625 41.0625 55.515625 
z
" id="BitstreamVeraSans-Roman-72"/>
      <path d="M 48.78125 52.59375 
L 48.78125 44.1875 
Q 44.96875 46.296875 41.140625 47.34375 
Q 37.3125 48.390625 33.40625 48.390625 
Q 24.65625 48.390625 19.8125 42.84375 
Q 14.984375 37.3125 14.984375 27.296875 
Q 14.984375 17.28125 19.8125 11.734375 
Q 24.65625 6.203125 33.40625 6.203125 
Q 37.3125 6.203125 41.140625 7.25 
Q 44.96875 8.296875 48.78125 10.40625 
L 48.78125 2.09375 
Q 45.015625 0.34375 40.984375 -0.53125 
Q 36.96875 -1.421875 32.421875 -1.421875 
Q 20.0625 -1.421875 12.78125 6.34375 
Q 5.515625 14.109375 5.515625 27.296875 
Q 5.515625 40.671875 12.859375 48.328125 
Q 20.21875 56 33.015625 56 
Q 37.15625 56 41.109375 55.140625 
Q 45.0625 54.296875 48.78125 52.59375 
" id="BitstreamVeraSans-Roman-63"/>
     </defs>
     <g transform="translate(16.54453125 331.428483911)rotate(-90.0)scale(0.17 -0.17)">
      <use xlink:href="#BitstreamVeraSans-Roman-46"/>
      <use x="57.41015625" xlink:href="#BitstreamVeraSans-Roman-72"/>
      <use x="98.5234375" xlink:href="#BitstreamVeraSans-Roman-61"/>
      <use x="159.802734375" xlink:href="#BitstreamVeraSans-Roman-63"/>
      <use x="214.783203125" xlink:href="#BitstreamVeraSans-Roman-74"/>
      <use x="253.9921875" xlink:href="#BitstreamVeraSans-Roman-69"/>
      <use x="281.775390625" xlink:href="#BitstreamVeraSans-Roman-6f"/>
      <use x="342.95703125" xlink:href="#BitstreamVeraSans-Roman-6e"/>
      <use x="406.3359375" xlink:href="#BitstreamVeraSans-Roman-20"/>
      <use x="438.123046875" xlink:href="#BitstreamVeraSans-Roman-6f"/>
      <use x="499.3046875" xlink:href="#BitstreamVeraSans-Roman-66"/>
      <use x="534.509765625" xlink:href="#BitstreamVeraSans-Roman-20"/>
      <use x="566.296875" xlink:href="#BitstreamVeraSans-Roman-66"/>
      <use x="601.501953125" xlink:href="#BitstreamVeraSans-Roman-75"/>
      <use x="664.880859375" xlink:href="#BitstreamVeraSans-Roman-6e"/>
      <use x="728.259765625" xlink:href="#BitstreamVeraSans-Roman-63"/>
      <use x="783.240234375" xlink:href="#BitstreamVeraSans-Roman-74"/>
      <use x="822.44921875" xlink:href="#BitstreamVeraSans-Roman-69"/>
      <use x="850.232421875" xlink:href="#BitstreamVeraSans-Roman-6f"/>
      <use x="911.4140625" xlink:href="#BitstreamVeraSans-Roman-6e"/>
      <use x="974.79296875" xlink:href="#BitstreamVeraSans-Roman-2c"/>
      <use x="1006.58007812" xlink:href="#BitstreamVeraSans-Roman-74"/>
      <use x="1045.7890625" xlink:href="#BitstreamVeraSans-Roman-61"/>
      <use x="1107.06835938" xlink:href="#BitstreamVeraSans-Roman-72"/>
      <use x="1148.16601562" xlink:href="#BitstreamVeraSans-Roman-67"/>
      <use x="1211.64257812" xlink:href="#BitstreamVeraSans-Roman-65"/>
      <use x="1273.16601562" xlink:href="#BitstreamVeraSans-Roman-74"/>
      <use x="1312.375" xlink:href="#BitstreamVeraSans-Roman-20"/>
      <use x="1344.16210938" xlink:href="#BitstreamVeraSans-Roman-70"/>
      <use x="1407.63867188" xlink:href="#BitstreamVeraSans-Roman-61"/>
      <use x="1468.91796875" xlink:href="#BitstreamVeraSans-Roman-69"/>
      <use x="1496.70117188" xlink:href="#BitstreamVeraSans-Roman-72"/>
      <use x="1537.81445312" xlink:href="#BitstreamVeraSans-Roman-73"/>
     </g>
    </g>
   </g>
   <g id="text_18">
    <!-- f4 -->
    <g transform="translate(464.017862903 382.121199239)scale(0.17 -0.17)">
     <use xlink:href="#BitstreamVeraSans-Roman-66"/>
     <use x="35.205078125" xlink:href="#BitstreamVeraSans-Roman-34"/>
    </g>
   </g>
   <g id="text_19">
    <!-- f3 -->
    <g transform="translate(464.017862903 292.484340108)scale(0.17 -0.17)">
     <use xlink:href="#BitstreamVeraSans-Roman-66"/>
     <use x="35.205078125" xlink:href="#BitstreamVeraSans-Roman-33"/>
    </g>
   </g>
   <g id="text_20">
    <!-- f2 -->
    <g transform="translate(464.017862903 202.847480976)scale(0.17 -0.17)">
     <use xlink:href="#BitstreamVeraSans-Roman-66"/>
     <use x="35.205078125" xlink:href="#BitstreamVeraSans-Roman-32"/>
    </g>
   </g>
   <g id="text_21">
    <!-- f1 -->
    <g transform="translate(464.017862903 113.210621845)scale(0.17 -0.17)">
     <use xlink:href="#BitstreamVeraSans-Roman-66"/>
     <use x="35.205078125" xlink:href="#BitstreamVeraSans-Roman-31"/>
    </g>
   </g>
   <g id="text_22">
    <!-- f5 -->
    <g transform="translate(464.017862903 23.5737627132)scale(0.17 -0.17)">
     <use xlink:href="#BitstreamVeraSans-Roman-66"/>
     <use x="35.205078125" xlink:href="#BitstreamVeraSans-Roman-35"/>
    </g>
   </g>
   <g id="text_23">
    <!-- bbob -->
    <defs>
     <path d="M 48.6875 27.296875 
Q 48.6875 37.203125 44.609375 42.84375 
Q 40.53125 48.484375 33.40625 48.484375 
Q 26.265625 48.484375 22.1875 42.84375 
Q 18.109375 37.203125 18.109375 27.296875 
Q 18.109375 17.390625 22.1875 11.75 
Q 26.265625 6.109375 33.40625 6.109375 
Q 40.53125 6.109375 44.609375 11.75 
Q 48.6875 17.390625 48.6875 27.296875 
M 18.109375 46.390625 
Q 20.953125 51.265625 25.265625 53.625 
Q 29.59375 56 35.59375 56 
Q 45.5625 56 51.78125 48.09375 
Q 58.015625 40.1875 58.015625 27.296875 
Q 58.015625 14.40625 51.78125 6.484375 
Q 45.5625 -1.421875 35.59375 -1.421875 
Q 29.59375 -1.421875 25.265625 0.953125 
Q 20.953125 3.328125 18.109375 8.203125 
L 18.109375 0 
L 9.078125 0 
L 9.078125 75.984375 
L 18.109375 75.984375 
z
" id="BitstreamVeraSans-Roman-62"/>
    </defs>
    <g transform="translate(59.01855 19.2008418936)scale(0.102 -0.102)">
     <use xlink:href="#BitstreamVeraSans-Roman-62"/>
     <use x="63.4765625" xlink:href="#BitstreamVeraSans-Roman-62"/>
     <use x="126.953125" xlink:href="#BitstreamVeraSans-Roman-6f"/>
     <use x="188.134765625" xlink:href="#BitstreamVeraSans-Roman-62"/>
    </g>
    <!-- Separable functions, 5-D -->
    <defs>
     <path d="M 19.671875 64.796875 
L 19.671875 8.109375 
L 31.59375 8.109375 
Q 46.6875 8.109375 53.6875 14.9375 
Q 60.6875 21.78125 60.6875 36.53125 
Q 60.6875 51.171875 53.6875 57.984375 
Q 46.6875 64.796875 31.59375 64.796875 
z
M 9.8125 72.90625 
L 30.078125 72.90625 
Q 51.265625 72.90625 61.171875 64.09375 
Q 71.09375 55.28125 71.09375 36.53125 
Q 71.09375 17.671875 61.125 8.828125 
Q 51.171875 0 30.078125 0 
L 9.8125 0 
z
" id="BitstreamVeraSans-Roman-44"/>
     <path d="M 53.515625 70.515625 
L 53.515625 60.890625 
Q 47.90625 63.578125 42.921875 64.890625 
Q 37.9375 66.21875 33.296875 66.21875 
Q 25.25 66.21875 20.875 63.09375 
Q 16.5 59.96875 16.5 54.203125 
Q 16.5 49.359375 19.40625 46.890625 
Q 22.3125 44.4375 30.421875 42.921875 
L 36.375 41.703125 
Q 47.40625 39.59375 52.65625 34.296875 
Q 57.90625 29 57.90625 20.125 
Q 57.90625 9.515625 50.796875 4.046875 
Q 43.703125 -1.421875 29.984375 -1.421875 
Q 24.8125 -1.421875 18.96875 -0.25 
Q 13.140625 0.921875 6.890625 3.21875 
L 6.890625 13.375 
Q 12.890625 10.015625 18.65625 8.296875 
Q 24.421875 6.59375 29.984375 6.59375 
Q 38.421875 6.59375 43.015625 9.90625 
Q 47.609375 13.234375 47.609375 19.390625 
Q 47.609375 24.75 44.3125 27.78125 
Q 41.015625 30.8125 33.5 32.328125 
L 27.484375 33.5 
Q 16.453125 35.6875 11.515625 40.375 
Q 6.59375 45.0625 6.59375 53.421875 
Q 6.59375 63.09375 13.40625 68.65625 
Q 20.21875 74.21875 32.171875 74.21875 
Q 37.3125 74.21875 42.625 73.28125 
Q 47.953125 72.359375 53.515625 70.515625 
" id="BitstreamVeraSans-Roman-53"/>
    </defs>
    <g transform="translate(59.01855 30.6226106436)scale(0.102 -0.102)">
     <use xlink:href="#BitstreamVeraSans-Roman-53"/>
     <use x="63.4765625" xlink:href="#BitstreamVeraSans-Roman-65"/>
     <use x="125.0" xlink:href="#BitstreamVeraSans-Roman-70"/>
     <use x="188.4765625" xlink:href="#BitstreamVeraSans-Roman-61"/>
     <use x="249.755859375" xlink:href="#BitstreamVeraSans-Roman-72"/>
     <use x="290.869140625" xlink:href="#BitstreamVeraSans-Roman-61"/>
     <use x="352.1484375" xlink:href="#BitstreamVeraSans-Roman-62"/>
     <use x="415.625" xlink:href="#BitstreamVeraSans-Roman-6c"/>
     <use x="443.408203125" xlink:href="#BitstreamVeraSans-Roman-65"/>
     <use x="504.931640625" xlink:href="#BitstreamVeraSans-Roman-20"/>
     <use x="536.71875" xlink:href="#BitstreamVeraSans-Roman-66"/>
     <use x="571.923828125" xlink:href="#BitstreamVeraSans-Roman-75"/>
     <use x="635.302734375" xlink:href="#BitstreamVeraSans-Roman-6e"/>
     <use x="698.681640625" xlink:href="#BitstreamVeraSans-Roman-63"/>
     <use x="753.662109375" xlink:href="#BitstreamVeraSans-Roman-74"/>
     <use x="792.87109375" xlink:href="#BitstreamVeraSans-Roman-69"/>
     <use x="820.654296875" xlink:href="#BitstreamVeraSans-Roman-6f"/>
     <use x="881.8359375" xlink:href="#BitstreamVeraSans-Roman-6e"/>
     <use x="945.21484375" xlink:href="#BitstreamVeraSans-Roman-73"/>
     <use x="997.314453125" xlink:href="#BitstreamVeraSans-Roman-2c"/>
     <use x="1029.1015625" xlink:href="#BitstreamVeraSans-Roman-20"/>
     <use x="1060.88867188" xlink:href="#BitstreamVeraSans-Roman-35"/>
     <use x="1124.51171875" xlink:href="#BitstreamVeraSans-Roman-2d"/>
     <use x="1160.59570312" xlink:href="#BitstreamVeraSans-Roman-44"/>
    </g>
    <!-- 51 targets: 100..1e-08 -->
    <defs>
     <path d="M 11.71875 12.40625 
L 22.015625 12.40625 
L 22.015625 0 
L 11.71875 0 
z
M 11.71875 51.703125 
L 22.015625 51.703125 
L 22.015625 39.3125 
L 11.71875 39.3125 
z
" id="BitstreamVeraSans-Roman-3a"/>
    </defs>
    <g transform="translate(59.01855 42.0443793936)scale(0.102 -0.102)">
     <use xlink:href="#BitstreamVeraSans-Roman-35"/>
     <use x="63.623046875" xlink:href="#BitstreamVeraSans-Roman-31"/>
     <use x="127.24609375" xlink:href="#BitstreamVeraSans-Roman-20"/>
     <use x="159.033203125" xlink:href="#BitstreamVeraSans-Roman-74"/>
     <use x="198.2421875" xlink:href="#BitstreamVeraSans-Roman-61"/>
     <use x="259.521484375" xlink:href="#BitstreamVeraSans-Roman-72"/>
     <use x="300.619140625" xlink:href="#BitstreamVeraSans-Roman-67"/>
     <use x="364.095703125" xlink:href="#BitstreamVeraSans-Roman-65"/>
     <use x="425.619140625" xlink:href="#BitstreamVeraSans-Roman-74"/>
     <use x="464.828125" xlink:href="#BitstreamVeraSans-Roman-73"/>
     <use x="516.927734375" xlink:href="#BitstreamVeraSans-Roman-3a"/>
     <use x="550.619140625" xlink:href="#BitstreamVeraSans-Roman-20"/>
     <use x="582.40625" xlink:href="#BitstreamVeraSans-Roman-31"/>
     <use x="646.029296875" xlink:href="#BitstreamVeraSans-Roman-30"/>
     <use x="709.65234375" xlink:href="#BitstreamVeraSans-Roman-30"/>
     <use x="773.275390625" xlink:href="#BitstreamVeraSans-Roman-2e"/>
     <use x="805.0625" xlink:href="#BitstreamVeraSans-Roman-2e"/>
     <use x="836.849609375" xlink:href="#BitstreamVeraSans-Roman-31"/>
     <use x="900.47265625" xlink:href="#BitstreamVeraSans-Roman-65"/>
     <use x="961.99609375" xlink:href="#BitstreamVeraSans-Roman-2d"/>
     <use x="998.080078125" xlink:href="#BitstreamVeraSans-Roman-30"/>
     <use x="1061.703125" xlink:href="#BitstreamVeraSans-Roman-38"/>
    </g>
    <!-- 15 instances -->
    <g transform="translate(59.01855 53.4661481436)scale(0.102 -0.102)">
     <use xlink:href="#BitstreamVeraSans-Roman-31"/>
     <use x="63.623046875" xlink:href="#BitstreamVeraSans-Roman-35"/>
     <use x="127.24609375" xlink:href="#BitstreamVeraSans-Roman-20"/>
     <use x="159.033203125" xlink:href="#BitstreamVeraSans-Roman-69"/>
     <use x="186.81640625" xlink:href="#BitstreamVeraSans-Roman-6e"/>
     <use x="250.1953125" xlink:href="#BitstreamVeraSans-Roman-73"/>
     <use x="302.294921875" xlink:href="#BitstreamVeraSans-Roman-74"/>
     <use x="341.50390625" xlink:href="#BitstreamVeraSans-Roman-61"/>
     <use x="402.783203125" xlink:href="#BitstreamVeraSans-Roman-6e"/>
     <use x="466.162109375" xlink:href="#BitstreamVeraSans-Roman-63"/>
     <use x="521.142578125" xlink:href="#BitstreamVeraSans-Roman-65"/>
     <use x="582.666015625" xlink:href="#BitstreamVeraSans-Roman-73"/>
    </g>
   </g>
   <g id="text_24">
    <!-- v2.2.1.10 -->
    <g style="fill:#808080;" transform="translate(255.5696875 379.048094678)scale(0.1 -0.1)">
     <use xlink:href="#BitstreamVeraSans-Roman-76"/>
     <use x="59.1796875" xlink:href="#BitstreamVeraSans-Roman-32"/>
     <use x="122.802734375" xlink:href="#BitstreamVeraSans-Roman-2e"/>
     <use x="154.58984375" xlink:href="#BitstreamVeraSans-Roman-32"/>
     <use x="218.212890625" xlink:href="#BitstreamVeraSans-Roman-2e"/>
     <use x="250.0" xlink:href="#BitstreamVeraSans-Roman-31"/>
     <use x="313.623046875" xlink:href="#BitstreamVeraSans-Roman-2e"/>
     <use x="345.41015625" xlink:href="#BitstreamVeraSans-Roman-31"/>
     <use x="409.033203125" xlink:href="#BitstreamVeraSans-Roman-30"/>
    </g>
   </g>
  </g>
 </g>
 <defs>
  <clipPath id="p94b70fa151">
   <rect height="377.221782178" width="449.355" x="54.525" y="7.67821782178"/>
  </clipPath>
 </defs>
</svg>
