<?xml version="1.0" encoding="utf-8" standalone="no"?>
<!DOCTYPE svg PUBLIC "-//W3C//DTD SVG 1.1//EN"
  "http://www.w3.org/Graphics/SVG/1.1/DTD/svg11.dtd">
<!-- Created with matplotlib (http://matplotlib.org/) -->
<svg height="432pt" version="1.1" viewBox="0 0 576 432" width="576pt" xmlns="http://www.w3.org/2000/svg" xmlns:xlink="http://www.w3.org/1999/xlink">
 <defs>
  <style type="text/css">
*{stroke-linecap:butt;stroke-linejoin:round;stroke-miterlimit:100000;}
  </style>
 </defs>
 <g id="figure_1">
  <g id="patch_1">
   <path d="M 0 432 
L 576 432 
L 576 0 
L 0 0 
z
" style="fill:#ffffff;"/>
  </g>
  <g id="axes_1">
   <g id="patch_2">
    <path d="M 54.525 384.9 
L 503.88 384.9 
L 503.88 22.4 
L 54.525 22.4 
z
" style="fill:#ffffff;"/>
   </g>
   <g id="line2d_1">
    <defs>
     <path d="M 0 1.5 
C 0.397805 1.5 0.77937 1.341951 1.06066 1.06066 
C 1.341951 0.77937 1.5 0.397805 1.5 0 
C 1.5 -0.397805 1.341951 -0.77937 1.06066 -1.06066 
C 0.77937 -1.341951 0.397805 -1.5 0 -1.5 
C -0.397805 -1.5 -0.77937 -1.341951 -1.06066 -1.06066 
C -1.341951 -0.77937 -1.5 -0.397805 -1.5 0 
C -1.5 0.397805 -1.341951 0.77937 -1.06066 1.06066 
C -0.77937 1.341951 -0.397805 1.5 0 1.5 
z
" id="m53716d6b16" style="stroke:#00bfbf;stroke-width:0.5;"/>
    </defs>
    <g>
     <use style="fill:#00bfbf;stroke:#00bfbf;stroke-width:0.5;" x="187.172362916" xlink:href="#m53716d6b16" y="25.9891089109"/>
     <use style="fill:#00bfbf;stroke:#00bfbf;stroke-width:0.5;" x="187.172362916" xlink:href="#m53716d6b16" y="25.9891089109"/>
    </g>
   </g>
   <g id="line2d_2">
    <path d="M 54.525 384.9 
L 54.525 370.825063 
L 134.459873 370.825063 
L 134.459873 363.787595 
L 135.70925 363.787595 
L 135.70925 358.861367 
L 136.308832 358.861367 
L 136.308832 353.935139 
L 136.892838 353.935139 
L 136.892838 331.41524 
L 137.462058 331.41524 
L 137.462058 185.739643 
L 138.017222 185.739643 
L 138.017222 184.332149 
L 139.604917 184.332149 
L 139.604917 183.628402 
L 140.110174 183.628402 
L 140.110174 181.517162 
L 140.604326 181.517162 
L 140.604326 175.18344 
L 141.087849 175.18344 
L 141.087849 123.80992 
L 158.944818 123.80992 
L 158.944818 120.994933 
L 159.159967 120.994933 
L 159.159967 78.066375 
L 159.373078 78.066375 
L 159.373078 76.658882 
L 160.000551 76.658882 
L 160.000551 75.955135 
L 160.409344 75.955135 
L 160.409344 73.843894 
L 160.610987 73.843894 
L 160.610987 56.95397 
L 169.860487 56.95397 
L 169.860487 56.250223 
L 169.993131 56.250223 
L 169.993131 44.286527 
L 170.516015 44.286527 
L 170.516015 43.58278 
L 170.772966 43.58278 
L 170.772966 42.879033 
L 170.900349 42.879033 
L 170.900349 36.545312 
L 177.176958 36.545312 
L 177.176958 35.841565 
L 177.272834 35.841565 
L 177.272834 30.915337 
L 177.93276 30.915337 
L 177.93276 29.507843 
L 182.763113 29.507843 
L 182.763113 27.396603 
L 183.281689 27.396603 
L 183.281689 26.692856 
L 187.172363 26.692856 
L 187.172363 25.989109 
L 416.908065 25.989109 
" style="fill:none;stroke:#00bfbf;stroke-linecap:square;stroke-width:1.5;"/>
   </g>
   <g id="line2d_3">
    <defs>
     <path d="M -6 0 
L 6 0 
M 0 6 
L 0 -6 
" id="m8524c8c908" style="stroke:#00bfbf;stroke-width:1.5;"/>
    </defs>
    <g>
     <use style="fill:none;stroke:#00bfbf;stroke-width:1.5;" x="136.308831573" xlink:href="#m8524c8c908" y="353.935138808"/>
     <use style="fill:none;stroke:#00bfbf;stroke-width:1.5;" x="140.604325513" xlink:href="#m8524c8c908" y="175.183440109"/>
     <use style="fill:none;stroke:#00bfbf;stroke-width:1.5;" x="187.172362916" xlink:href="#m8524c8c908" y="26.6928557562"/>
     <use style="fill:none;stroke:#00bfbf;stroke-width:1.5;" x="187.172362916" xlink:href="#m8524c8c908" y="25.9891089109"/>
     <use style="fill:none;stroke:#00bfbf;stroke-width:1.5;" x="416.908064516" xlink:href="#m8524c8c908" y="25.9891089109"/>
    </g>
   </g>
   <g id="line2d_4">
    <path d="M -15527.946774 743.810891 
" style="fill:none;stroke:#00bfbf;stroke-linecap:square;stroke-width:1.5;"/>
    <g>
     <use style="fill:none;stroke:#00bfbf;stroke-width:1.5;" x="-15527.9467742" xlink:href="#m8524c8c908" y="743.810891089"/>
    </g>
   </g>
   <g id="line2d_5">
    <path clip-path="url(#p02d8c5e96a)" d="M 148.377728 123.80992 
" style="fill:none;stroke:#00bfbf;stroke-linecap:square;"/>
    <defs>
     <path d="M -12 12 
L 12 -12 
M -12 -12 
L 12 12 
" id="m0ea2fe6393" style="stroke:#00bfbf;stroke-width:3.0;"/>
    </defs>
    <g clip-path="url(#p02d8c5e96a)">
     <use style="fill:#00bfbf;stroke:#00bfbf;stroke-width:3.0;" x="148.377728269" xlink:href="#m0ea2fe6393" y="123.809920404"/>
    </g>
   </g>
   <g id="line2d_6">
    <defs>
     <path d="M 0 1.5 
C 0.397805 1.5 0.77937 1.341951 1.06066 1.06066 
C 1.341951 0.77937 1.5 0.397805 1.5 0 
C 1.5 -0.397805 1.341951 -0.77937 1.06066 -1.06066 
C 0.77937 -1.341951 0.397805 -1.5 0 -1.5 
C -0.397805 -1.5 -0.77937 -1.341951 -1.06066 -1.06066 
C -1.341951 -0.77937 -1.5 -0.397805 -1.5 0 
C -1.5 0.397805 -1.341951 0.77937 -1.06066 1.06066 
C -0.77937 1.341951 -0.397805 1.5 0 1.5 
z
" id="mf1a5d700a8" style="stroke:#008000;stroke-width:0.5;"/>
    </defs>
    <g>
     <use style="fill:#008000;stroke:#008000;stroke-width:0.5;" x="221.598433502" xlink:href="#mf1a5d700a8" y="25.9891089109"/>
     <use style="fill:#008000;stroke:#008000;stroke-width:0.5;" x="221.598433502" xlink:href="#mf1a5d700a8" y="25.9891089109"/>
    </g>
   </g>
   <g id="line2d_7">
    <path d="M 45.40893 384.9 
L 45.40893 377.862532 
L 128.345988 377.862532 
L 128.345988 377.158785 
L 128.901152 377.158785 
L 128.901152 376.455038 
L 129.442937 376.455038 
L 129.442937 370.825063 
L 132.445123 370.825063 
L 132.445123 366.602582 
L 132.908706 366.602582 
L 132.908706 363.787595 
L 133.362924 363.787595 
L 133.362924 359.565114 
L 133.808146 359.565114 
L 133.808146 358.861367 
L 134.244723 358.861367 
L 134.244723 358.15762 
L 134.672983 358.15762 
L 134.672983 356.750126 
L 135.093239 356.750126 
L 135.093239 356.046379 
L 135.505782 356.046379 
L 135.505782 351.120151 
L 135.910892 351.120151 
L 135.910892 335.637721 
L 136.308832 335.637721 
L 136.308832 334.933974 
L 137.084184 334.933974 
L 137.084184 332.822733 
L 137.833687 332.822733 
L 137.833687 288.486682 
L 151.494917 288.486682 
L 151.494917 287.079189 
L 153.783297 287.079189 
L 153.783297 284.967948 
L 159.231229 284.967948 
L 159.231229 282.152961 
L 159.514038 282.152961 
L 159.514038 280.745467 
L 159.654119 280.745467 
L 159.654119 278.634226 
L 160.610987 278.634226 
L 160.610987 272.300505 
L 160.744417 272.300505 
L 160.744417 223.741972 
L 163.019919 223.741972 
L 163.019919 222.334479 
L 163.259102 222.334479 
L 163.318502 220.223238 
L 163.436834 220.223238 
L 163.436834 218.111998 
L 163.671646 218.111998 
L 163.671646 216.000757 
L 163.788138 216.000757 
L 163.788138 211.074529 
L 164.248164 211.074529 
L 164.248164 207.555795 
L 164.361715 207.555795 
L 164.361715 194.184605 
L 165.466753 194.184605 
L 165.466753 189.962124 
L 165.787944 189.962124 
L 165.787944 189.258377 
L 165.99955 189.258377 
L 165.99955 181.517162 
L 173.833625 181.517162 
L 173.833625 180.813415 
L 173.981784 180.813415 
L 174.055498 170.257212 
L 174.128972 170.257212 
L 174.128972 147.737313 
L 175.133165 147.737313 
L 175.203205 134.366123 
L 175.721668 134.366123 
L 175.789901 131.551136 
L 176.060784 131.551136 
L 176.127998 125.921161 
L 176.195011 125.921161 
L 176.195011 124.513667 
L 176.592951 124.513667 
L 176.592951 123.80992 
L 176.78931 123.80992 
L 176.854384 122.402427 
L 177.112812 122.402427 
L 177.176958 112.549971 
L 177.808544 112.549971 
L 177.808544 111.846224 
L 182.257856 111.846224 
L 182.257856 110.43873 
L 182.410629 110.43873 
L 182.461323 102.697515 
L 183.060905 102.697515 
L 183.159299 99.178781 
L 183.208335 99.178781 
L 183.208335 94.9563 
L 183.572736 94.9563 
L 183.572736 94.252553 
L 183.740789 94.252553 
L 183.812429 92.845059 
L 183.860062 92.845059 
L 183.931324 88.622578 
L 184.377476 88.622578 
L 184.377476 86.511338 
L 184.516547 86.511338 
L 184.608785 80.881363 
L 184.973999 80.881363 
L 185.064383 78.770122 
L 185.288766 78.770122 
L 185.288766 75.955135 
L 185.948784 75.955135 
L 185.948784 75.251388 
L 188.488233 75.251388 
L 188.488233 73.843894 
L 188.986173 73.843894 
L 189.06181 68.917666 
L 189.099533 68.917666 
L 189.099533 66.806426 
L 189.41765 66.806426 
L 189.41765 66.102679 
L 189.602696 66.102679 
L 189.657914 62.583945 
L 190.148868 62.583945 
L 190.184812 60.472704 
L 190.505749 60.472704 
L 190.505749 59.768957 
L 193.204949 59.768957 
L 193.298954 55.546476 
L 193.732524 55.546476 
L 193.732524 54.84273 
L 194.157891 54.84273 
L 194.218006 53.435236 
L 194.560582 53.435236 
L 194.663817 50.620248 
L 194.88345 50.620248 
L 194.88345 49.916502 
L 195.057626 49.916502 
L 195.057626 49.212755 
L 195.373484 49.212755 
L 195.373484 48.509008 
L 197.207055 48.509008 
L 197.23332 47.101514 
L 197.546132 47.101514 
L 197.62366 44.286527 
L 197.867415 44.286527 
L 197.956557 42.175286 
L 197.981962 42.175286 
L 197.981962 41.47154 
L 198.196749 41.47154 
L 198.196749 40.767793 
L 198.322143 40.767793 
L 198.334644 39.360299 
L 198.694181 39.360299 
L 198.718766 37.952805 
L 198.93883 37.952805 
L 198.93883 37.249058 
L 199.060163 37.249058 
L 199.108513 35.137818 
L 200.53537 35.137818 
L 200.53537 34.434071 
L 200.828093 34.434071 
L 200.828093 33.730324 
L 201.183211 33.730324 
L 201.183211 33.026577 
L 201.554479 33.026577 
L 201.554479 30.915337 
L 203.770075 30.915337 
L 203.770075 29.507843 
L 204.062573 29.507843 
L 204.062573 28.804096 
L 204.532284 28.804096 
L 204.532284 28.100349 
L 206.336261 28.100349 
L 206.336261 27.396603 
L 208.999936 27.396603 
L 208.999936 26.692856 
L 221.598434 26.692856 
L 221.598434 25.989109 
L 416.908065 25.989109 
L 416.908065 25.989109 
" style="fill:none;stroke:#008000;stroke-linecap:square;stroke-width:1.5;"/>
   </g>
   <g id="line2d_8">
    <defs>
     <path d="M -0 6 
L 6 -6 
L -6 -6 
z
" id="m2304df9442" style="stroke:#008000;stroke-linejoin:miter;stroke-width:1.5;"/>
    </defs>
    <g>
     <use style="fill:none;stroke:#008000;stroke-linejoin:miter;stroke-width:1.5;" x="160.610986702" xlink:href="#m2304df9442" y="278.634226364"/>
     <use style="fill:none;stroke:#008000;stroke-linejoin:miter;stroke-width:1.5;" x="189.099532851" xlink:href="#m2304df9442" y="66.8064259367"/>
     <use style="fill:none;stroke:#008000;stroke-linejoin:miter;stroke-width:1.5;" x="221.598433502" xlink:href="#m2304df9442" y="26.6928557562"/>
     <use style="fill:none;stroke:#008000;stroke-linejoin:miter;stroke-width:1.5;" x="221.598433502" xlink:href="#m2304df9442" y="25.9891089109"/>
     <use style="fill:none;stroke:#008000;stroke-linejoin:miter;stroke-width:1.5;" x="221.598433502" xlink:href="#m2304df9442" y="25.9891089109"/>
     <use style="fill:none;stroke:#008000;stroke-linejoin:miter;stroke-width:1.5;" x="416.908064516" xlink:href="#m2304df9442" y="25.9891089109"/>
    </g>
   </g>
   <g id="line2d_9">
    <path d="M -15527.946774 743.810891 
" style="fill:none;stroke:#008000;stroke-linecap:square;stroke-width:1.5;"/>
    <g>
     <use style="fill:none;stroke:#008000;stroke-linejoin:miter;stroke-width:1.5;" x="-15527.9467742" xlink:href="#m2304df9442" y="743.810891089"/>
    </g>
   </g>
   <g id="line2d_10">
    <path clip-path="url(#p02d8c5e96a)" d="M 156.106742 284.967948 
" style="fill:none;stroke:#008000;stroke-linecap:square;"/>
    <defs>
     <path d="M -12 12 
L 12 -12 
M -12 -12 
L 12 12 
" id="m43ffbb6a32" style="stroke:#008000;stroke-width:3.0;"/>
    </defs>
    <g clip-path="url(#p02d8c5e96a)">
     <use style="fill:#008000;stroke:#008000;stroke-width:3.0;" x="156.106742076" xlink:href="#m43ffbb6a32" y="284.967947971"/>
    </g>
   </g>
   <g id="line2d_11">
    <defs>
     <path d="M 0 1.5 
C 0.397805 1.5 0.77937 1.341951 1.06066 1.06066 
C 1.341951 0.77937 1.5 0.397805 1.5 0 
C 1.5 -0.397805 1.341951 -0.77937 1.06066 -1.06066 
C 0.77937 -1.341951 0.397805 -1.5 0 -1.5 
C -0.397805 -1.5 -0.77937 -1.341951 -1.06066 -1.06066 
C -1.341951 -0.77937 -1.5 -0.397805 -1.5 0 
C -1.5 0.397805 -1.341951 0.77937 -1.06066 1.06066 
C -0.77937 1.341951 -0.397805 1.5 0 1.5 
z
" id="m0d32d15ee9" style="stroke:#0000ff;stroke-width:0.5;"/>
    </defs>
    <g>
     <use style="fill:#0000ff;stroke:#0000ff;stroke-width:0.5;" x="205.702295309" xlink:href="#m0d32d15ee9" y="25.9891089109"/>
     <use style="fill:#0000ff;stroke:#0000ff;stroke-width:0.5;" x="205.702295309" xlink:href="#m0d32d15ee9" y="25.9891089109"/>
    </g>
   </g>
   <g id="line2d_12">
    <path d="M 125.977168 384.9 
L 125.977168 383.492506 
L 126.714382 383.492506 
L 126.714382 382.788759 
L 127.074118 382.788759 
L 127.074118 379.270025 
L 127.428188 379.270025 
L 127.428188 377.862532 
L 130.692314 377.862532 
L 130.692314 377.158785 
L 130.994104 377.158785 
L 130.994104 375.751291 
L 131.291896 375.751291 
L 131.291896 374.343797 
L 131.585796 374.343797 
L 131.585796 371.52881 
L 131.875903 371.52881 
L 131.875903 369.417569 
L 132.162314 369.417569 
L 132.162314 366.602582 
L 132.445123 366.602582 
L 132.445123 365.195088 
L 132.724419 365.195088 
L 132.724419 363.787595 
L 133.000287 363.787595 
L 133.000287 361.676354 
L 133.272811 361.676354 
L 133.272811 358.15762 
L 133.542072 358.15762 
L 133.542072 357.453873 
L 133.808146 357.453873 
L 133.808146 356.750126 
L 134.071108 356.750126 
L 134.071108 356.046379 
L 134.33103 356.046379 
L 134.33103 353.231392 
L 134.587981 353.231392 
L 134.587981 352.527645 
L 134.842029 352.527645 
L 134.842029 351.120151 
L 135.830452 351.120151 
L 135.830452 350.416405 
L 136.070914 350.416405 
L 136.070914 349.712658 
L 136.777244 349.712658 
L 136.777244 348.305164 
L 137.007841 348.305164 
L 137.007841 343.378936 
L 137.462058 343.378936 
L 137.462058 307.487847 
L 137.685772 307.487847 
L 137.685772 306.080353 
L 138.126629 306.080353 
L 138.126629 304.67286 
L 138.559007 304.67286 
L 138.559007 289.894176 
L 138.772118 289.894176 
L 138.772118 289.190429 
L 138.983228 289.190429 
L 138.983228 251.188099 
L 151.293274 251.188099 
L 151.293274 250.484353 
L 151.654939 250.484353 
L 151.654939 247.669365 
L 152.128282 247.669365 
L 152.128282 246.261871 
L 152.361269 246.261871 
L 152.361269 226.55696 
L 154.672068 226.55696 
L 154.672068 225.853213 
L 155.188941 225.853213 
L 155.188941 225.149466 
L 156.28589 225.149466 
L 156.28589 223.741972 
L 156.479711 223.741972 
L 156.479711 220.223238 
L 157.051343 220.223238 
L 157.145218 216.000757 
L 157.972906 216.000757 
L 157.972906 215.29701 
L 158.944818 215.29701 
L 158.944818 214.593263 
L 162.607375 214.593263 
L 162.607375 213.18577 
L 162.971776 213.18577 
L 162.971776 212.482023 
L 163.507536 212.482023 
L 163.507536 211.778276 
L 163.753254 211.778276 
L 163.753254 210.370782 
L 164.099686 210.370782 
L 164.099686 209.667036 
L 164.27092 209.667036 
L 164.373039 202.629567 
L 164.474695 202.629567 
L 164.508479 200.518327 
L 164.609526 200.518327 
L 164.710121 162.515997 
L 164.743553 162.515997 
L 164.743553 160.404756 
L 165.30442 160.404756 
L 165.30442 159.70101 
L 165.819812 159.70101 
L 165.819812 158.293516 
L 165.946835 158.293516 
L 165.946835 133.662376 
L 167.268841 133.662376 
L 167.268841 132.958629 
L 167.387957 132.958629 
L 167.387957 132.254883 
L 167.565455 132.254883 
L 167.565455 131.551136 
L 168.032045 131.551136 
L 168.032045 130.847389 
L 168.261758 130.847389 
L 168.261758 129.439895 
L 168.545638 129.439895 
L 168.545638 127.328655 
L 168.658194 127.328655 
L 168.658194 125.921161 
L 169.913639 125.921161 
L 169.913639 123.80992 
L 171.077481 123.80992 
L 171.077481 121.69868 
L 171.32813 121.69868 
L 171.427612 117.476199 
L 171.967034 117.476199 
L 171.967034 116.772452 
L 172.208012 116.772452 
L 172.231968 113.253718 
L 172.799392 113.253718 
L 172.799392 112.549971 
L 173.077823 112.549971 
L 173.077823 111.846224 
L 174.026042 111.846224 
L 174.026042 111.142477 
L 174.808138 111.142477 
L 174.808138 110.43873 
L 175.252104 110.43873 
L 175.252104 109.734983 
L 175.377358 109.734983 
L 175.377358 105.512502 
L 175.789901 105.512502 
L 175.789901 103.401262 
L 175.993369 103.401262 
L 176.074243 99.178781 
L 176.374956 99.178781 
L 176.414749 94.9563 
L 177.746178 94.9563 
L 177.746178 92.141312 
L 177.93276 92.141312 
L 178.006961 90.030072 
L 178.501515 90.030072 
L 178.591917 88.622578 
L 178.771639 88.622578 
L 178.825276 85.103844 
L 179.267347 85.103844 
L 179.337278 82.288857 
L 179.493834 82.288857 
L 179.493834 81.58511 
L 180.041809 81.58511 
L 180.041809 80.881363 
L 180.410941 80.881363 
L 180.427577 78.066375 
L 180.593259 78.066375 
L 180.642727 73.843894 
L 180.790479 73.843894 
L 180.888445 72.436401 
L 181.018405 72.436401 
L 181.018405 70.32516 
L 181.244042 70.32516 
L 181.244042 69.621413 
L 182.461323 69.621413 
L 182.461323 68.917666 
L 183.149479 68.917666 
L 183.149479 68.21392 
L 183.442231 68.21392 
L 183.442231 67.510173 
L 183.630495 67.510173 
L 183.673718 65.398932 
L 183.817196 65.398932 
L 183.817196 61.880198 
L 184.01654 61.880198 
L 184.01654 61.176451 
L 184.354214 61.176451 
L 184.354214 59.065211 
L 184.604182 59.065211 
L 184.604182 58.361464 
L 184.769296 58.361464 
L 184.769296 57.657717 
L 185.041821 57.657717 
L 185.041821 56.95397 
L 185.203764 56.95397 
L 185.203764 54.138983 
L 185.404566 54.138983 
L 185.404566 53.435236 
L 185.709021 53.435236 
L 185.813959 51.323995 
L 186.190307 51.323995 
L 186.190307 50.620248 
L 186.874735 50.620248 
L 186.937066 47.805261 
L 188.523063 47.805261 
L 188.523063 47.101514 
L 188.673374 47.101514 
L 188.673374 46.397767 
L 188.936872 46.397767 
L 188.948259 44.990274 
L 189.05048 44.990274 
L 189.05048 43.58278 
L 189.576881 43.58278 
L 189.576881 42.879033 
L 189.851939 42.879033 
L 189.873799 41.47154 
L 190.477406 41.47154 
L 190.477406 40.767793 
L 190.950971 40.767793 
L 190.961382 38.656552 
L 191.250956 38.656552 
L 191.250956 37.952805 
L 192.567994 37.952805 
L 192.567994 37.249058 
L 192.990402 37.249058 
L 192.990402 36.545312 
L 194.587173 36.545312 
L 194.587173 35.841565 
L 195.216109 35.841565 
L 195.216109 35.137818 
L 196.844098 35.137818 
L 196.844098 34.434071 
L 198.02255 34.434071 
L 198.02255 33.730324 
L 198.770307 33.730324 
L 198.770307 33.026577 
L 199.098852 33.026577 
L 199.098852 32.322831 
L 199.847285 32.322831 
L 199.847285 31.619084 
L 201.114844 31.619084 
L 201.114844 30.915337 
L 202.017531 30.915337 
L 202.017531 30.21159 
L 202.452517 30.21159 
L 202.452517 29.507843 
L 202.909856 29.507843 
L 202.909856 28.804096 
L 203.122966 28.804096 
L 203.122966 28.100349 
L 203.885579 28.100349 
L 203.885579 27.396603 
L 204.245872 27.396603 
L 204.245872 26.692856 
L 205.702295 26.692856 
L 205.702295 25.989109 
L 416.908065 25.989109 
L 416.908065 25.989109 
" style="fill:none;stroke:#0000ff;stroke-linecap:square;stroke-width:1.5;"/>
   </g>
   <g id="line2d_13">
    <defs>
     <path d="M 0 -6 
L -1.347084 -1.854102 
L -5.706339 -1.854102 
L -2.179628 0.708204 
L -3.526712 4.854102 
L -0 2.291796 
L 3.526712 4.854102 
L 2.179628 0.708204 
L 5.706339 -1.854102 
L 1.347084 -1.854102 
z
" id="m034c813683" style="stroke:#0000ff;stroke-linejoin:bevel;stroke-width:1.5;"/>
    </defs>
    <g>
     <use style="fill:none;stroke:#0000ff;stroke-linejoin:bevel;stroke-width:1.5;" x="138.983227514" xlink:href="#m034c813683" y="289.190429043"/>
     <use style="fill:none;stroke:#0000ff;stroke-linejoin:bevel;stroke-width:1.5;" x="185.203763733" xlink:href="#m034c813683" y="56.9539701029"/>
     <use style="fill:none;stroke:#0000ff;stroke-linejoin:bevel;stroke-width:1.5;" x="205.702295309" xlink:href="#m034c813683" y="26.6928557562"/>
     <use style="fill:none;stroke:#0000ff;stroke-linejoin:bevel;stroke-width:1.5;" x="205.702295309" xlink:href="#m034c813683" y="25.9891089109"/>
     <use style="fill:none;stroke:#0000ff;stroke-linejoin:bevel;stroke-width:1.5;" x="416.908064516" xlink:href="#m034c813683" y="25.9891089109"/>
    </g>
   </g>
   <g id="line2d_14">
    <path d="M -15527.946774 743.810891 
" style="fill:none;stroke:#0000ff;stroke-linecap:square;stroke-width:1.5;"/>
    <g>
     <use style="fill:none;stroke:#0000ff;stroke-linejoin:bevel;stroke-width:1.5;" x="-15527.9467742" xlink:href="#m034c813683" y="743.810891089"/>
    </g>
   </g>
   <g id="line2d_15">
    <path clip-path="url(#p02d8c5e96a)" d="M 161.669667 214.593263 
" style="fill:none;stroke:#0000ff;stroke-linecap:square;"/>
    <defs>
     <path d="M -12 12 
L 12 -12 
M -12 -12 
L 12 12 
" id="mb279b15d9d" style="stroke:#0000ff;stroke-width:3.0;"/>
    </defs>
    <g clip-path="url(#p02d8c5e96a)">
     <use style="fill:#0000ff;stroke:#0000ff;stroke-width:3.0;" x="161.669666784" xlink:href="#mb279b15d9d" y="214.593263444"/>
    </g>
   </g>
   <g id="line2d_16">
    <defs>
     <path d="M 0 1.5 
C 0.397805 1.5 0.77937 1.341951 1.06066 1.06066 
C 1.341951 0.77937 1.5 0.397805 1.5 0 
C 1.5 -0.397805 1.341951 -0.77937 1.06066 -1.06066 
C 0.77937 -1.341951 0.397805 -1.5 0 -1.5 
C -0.397805 -1.5 -0.77937 -1.341951 -1.06066 -1.06066 
C -1.341951 -0.77937 -1.5 -0.397805 -1.5 0 
C -1.5 0.397805 -1.341951 0.77937 -1.06066 1.06066 
C -0.77937 1.341951 -0.397805 1.5 0 1.5 
z
" id="m51a3afca8c" style="stroke:#000000;stroke-width:0.5;"/>
    </defs>
    <g>
     <use style="stroke:#000000;stroke-width:0.5;" x="238.124083587" xlink:href="#m51a3afca8c" y="342.675189284"/>
     <use style="stroke:#000000;stroke-width:0.5;" x="238.124083587" xlink:href="#m51a3afca8c" y="342.675189284"/>
    </g>
   </g>
   <g id="line2d_17">
    <path d="M 135.830452 384.9 
L 135.830452 383.492506 
L 136.661053 383.492506 
L 136.661053 382.788759 
L 136.777244 382.788759 
L 136.777244 380.677519 
L 138.45169 380.677519 
L 138.45169 378.566278 
L 138.559007 378.566278 
L 138.559007 377.158785 
L 138.772118 377.158785 
L 138.772118 375.751291 
L 138.983228 375.751291 
L 138.983228 375.047544 
L 140.010027 375.047544 
L 140.010027 374.343797 
L 154.461945 374.343797 
L 154.461945 373.64005 
L 156.041242 373.64005 
L 156.041242 372.936304 
L 156.334502 372.936304 
L 156.334502 372.232557 
L 156.623987 372.232557 
L 156.623987 371.52881 
L 157.004258 371.52881 
L 157.004258 370.825063 
L 162.199594 370.825063 
L 162.199594 369.417569 
L 164.760251 369.417569 
L 164.760251 368.713823 
L 165.058702 368.713823 
L 165.058702 368.010076 
L 165.787944 368.010076 
L 165.787944 367.306329 
L 166.968262 367.306329 
L 166.968262 366.602582 
L 169.820541 366.602582 
L 169.820541 365.898835 
L 169.887079 365.898835 
L 169.887079 364.491341 
L 169.940167 364.491341 
L 169.940167 363.787595 
L 171.576015 363.787595 
L 171.576015 363.083848 
L 174.267915 363.083848 
L 174.267915 361.676354 
L 176.454472 361.676354 
L 176.454472 360.972607 
L 177.979164 360.972607 
L 177.979164 360.26886 
L 178.483391 360.26886 
L 178.483391 358.861367 
L 182.673001 358.861367 
L 182.673001 358.15762 
L 183.795733 358.15762 
L 183.795733 357.453873 
L 186.093578 357.453873 
L 186.093578 356.750126 
L 186.912155 356.750126 
L 186.912155 356.046379 
L 186.980596 356.046379 
L 186.980596 355.342632 
L 187.575273 355.342632 
L 187.575273 354.638886 
L 191.343246 354.638886 
L 191.343246 353.935139 
L 193.664943 353.935139 
L 193.664943 353.231392 
L 195.155729 353.231392 
L 195.155729 352.527645 
L 195.519851 352.527645 
L 195.519851 351.823898 
L 195.903249 351.823898 
L 195.903249 351.120151 
L 196.513163 351.120151 
L 196.513163 350.416405 
L 197.708632 350.416405 
L 197.708632 349.712658 
L 199.026255 349.712658 
L 199.026255 349.008911 
L 199.561547 349.008911 
L 199.561547 348.305164 
L 200.346465 348.305164 
L 200.346465 347.601417 
L 200.955248 347.601417 
L 200.955248 346.89767 
L 202.411897 346.89767 
L 202.411897 346.193924 
L 204.955174 346.193924 
L 204.955174 345.490177 
L 205.476934 345.490177 
L 205.476934 344.78643 
L 214.766073 344.78643 
L 214.766073 344.082683 
L 221.664059 344.082683 
L 221.664059 343.378936 
L 238.124084 343.378936 
L 238.124084 342.675189 
L 416.908065 342.675189 
" style="fill:none;stroke:#000000;stroke-linecap:square;stroke-width:1.5;"/>
   </g>
   <g id="line2d_18">
    <defs>
     <path d="M 0 6 
C 1.591219 6 3.117479 5.367802 4.242641 4.242641 
C 5.367802 3.117479 6 1.591219 6 0 
C 6 -1.591219 5.367802 -3.117479 4.242641 -4.242641 
C 3.117479 -5.367802 1.591219 -6 0 -6 
C -1.591219 -6 -3.117479 -5.367802 -4.242641 -4.242641 
C -5.367802 -3.117479 -6 -1.591219 -6 0 
C -6 1.591219 -5.367802 3.117479 -4.242641 4.242641 
C -3.117479 5.367802 -1.591219 6 0 6 
z
" id="m34223053b3" style="stroke:#000000;stroke-width:1.5;"/>
    </defs>
    <g>
     <use style="fill:none;stroke:#000000;stroke-width:1.5;" x="221.664059205" xlink:href="#m34223053b3" y="343.378936129"/>
     <use style="fill:none;stroke:#000000;stroke-width:1.5;" x="238.124083587" xlink:href="#m34223053b3" y="343.378936129"/>
     <use style="fill:none;stroke:#000000;stroke-width:1.5;" x="238.124083587" xlink:href="#m34223053b3" y="342.675189284"/>
     <use style="fill:none;stroke:#000000;stroke-width:1.5;" x="238.124083587" xlink:href="#m34223053b3" y="342.675189284"/>
     <use style="fill:none;stroke:#000000;stroke-width:1.5;" x="416.908064516" xlink:href="#m34223053b3" y="342.675189284"/>
    </g>
   </g>
   <g id="line2d_19">
    <path d="M -15527.946774 743.810891 
" style="fill:none;stroke:#000000;stroke-linecap:square;stroke-width:1.5;"/>
    <g>
     <use style="fill:none;stroke:#000000;stroke-width:1.5;" x="-15527.9467742" xlink:href="#m34223053b3" y="743.810891089"/>
    </g>
   </g>
   <g id="line2d_20">
    <path clip-path="url(#p02d8c5e96a)" d="M 167.476881 366.602582 
" style="fill:none;stroke:#000000;stroke-linecap:square;"/>
    <defs>
     <path d="M -12 12 
L 12 -12 
M -12 -12 
L 12 12 
" id="md5e20b8582" style="stroke:#000000;stroke-width:3.0;"/>
    </defs>
    <g clip-path="url(#p02d8c5e96a)">
     <use style="stroke:#000000;stroke-width:3.0;" x="167.476880813" xlink:href="#md5e20b8582" y="366.602582023"/>
    </g>
   </g>
   <g id="line2d_21">
    <path clip-path="url(#p02d8c5e96a)" d="M 54.525 384.9 
L 54.525 384.9 
L 54.525 384.9 
L 54.525 384.9 
L 503.88 384.9 
" style="fill:none;stroke:#ff0000;stroke-linecap:square;stroke-width:1.5;"/>
   </g>
   <g id="line2d_22">
    <defs>
     <path d="M -6 6 
L 6 6 
L 6 -6 
L -6 -6 
z
" id="mf61e465da7" style="stroke:#ff0000;stroke-linejoin:miter;stroke-width:1.5;"/>
    </defs>
    <g clip-path="url(#p02d8c5e96a)">
     <use style="fill:none;stroke:#ff0000;stroke-linejoin:miter;stroke-width:1.5;" x="54.525" xlink:href="#mf61e465da7" y="384.9"/>
    </g>
   </g>
   <g id="line2d_23">
    <path clip-path="url(#p02d8c5e96a)" d="M -15527.946774 743.810891 
" style="fill:none;stroke:#ff0000;stroke-linecap:square;stroke-width:1.5;"/>
    <g clip-path="url(#p02d8c5e96a)">
     <use style="fill:none;stroke:#ff0000;stroke-linejoin:miter;stroke-width:1.5;" x="-15527.9467742" xlink:href="#mf61e465da7" y="743.810891089"/>
     <use style="fill:none;stroke:#ff0000;stroke-linejoin:miter;stroke-width:1.5;" x="-1.0" xlink:href="#mf61e465da7" y="743.810891089"/>
     <use style="fill:none;stroke:#ff0000;stroke-linejoin:miter;stroke-width:1.5;" x="503.88" xlink:href="#mf61e465da7" y="743.810891089"/>
    </g>
   </g>
   <g id="line2d_24">
    <path clip-path="url(#p02d8c5e96a)" d="M 54.525 384.9 
L 54.525 384.9 
L 54.525 384.9 
L 54.525 384.9 
L 503.88 384.9 
" style="fill:none;stroke:#bf00bf;stroke-linecap:square;stroke-width:1.5;"/>
   </g>
   <g id="line2d_25">
    <defs>
     <path d="M -0 8.485281 
L 8.485281 0 
L 0 -8.485281 
L -8.485281 -0 
z
" id="m4995a21f4d" style="stroke:#bf00bf;stroke-linejoin:miter;stroke-width:1.5;"/>
    </defs>
    <g clip-path="url(#p02d8c5e96a)">
     <use style="fill:none;stroke:#bf00bf;stroke-linejoin:miter;stroke-width:1.5;" x="54.525" xlink:href="#m4995a21f4d" y="384.9"/>
    </g>
   </g>
   <g id="line2d_26">
    <path clip-path="url(#p02d8c5e96a)" d="M -15527.946774 743.810891 
" style="fill:none;stroke:#bf00bf;stroke-linecap:square;stroke-width:1.5;"/>
    <g clip-path="url(#p02d8c5e96a)">
     <use style="fill:none;stroke:#bf00bf;stroke-linejoin:miter;stroke-width:1.5;" x="-15527.9467742" xlink:href="#m4995a21f4d" y="743.810891089"/>
     <use style="fill:none;stroke:#bf00bf;stroke-linejoin:miter;stroke-width:1.5;" x="-1.0" xlink:href="#m4995a21f4d" y="743.810891089"/>
     <use style="fill:none;stroke:#bf00bf;stroke-linejoin:miter;stroke-width:1.5;" x="503.88" xlink:href="#m4995a21f4d" y="743.810891089"/>
    </g>
   </g>
   <g id="line2d_27">
    <path d="M 416.908065 384.9 
L 456.770202 377.721782 
" style="fill:none;stroke:#bf00bf;stroke-linecap:square;stroke-width:1.5;"/>
    <g>
     <use style="fill:none;stroke:#bf00bf;stroke-linejoin:miter;stroke-width:1.5;" x="416.908064516" xlink:href="#m4995a21f4d" y="384.9"/>
     <use style="fill:none;stroke:#bf00bf;stroke-linejoin:miter;stroke-width:1.5;" x="456.770201613" xlink:href="#m4995a21f4d" y="377.721782178"/>
    </g>
   </g>
   <g id="line2d_28">
    <path d="M 416.908065 384.9 
L 456.770202 308.810891 
" style="fill:none;stroke:#ff0000;stroke-linecap:square;stroke-width:1.5;"/>
    <g>
     <use style="fill:none;stroke:#ff0000;stroke-linejoin:miter;stroke-width:1.5;" x="416.908064516" xlink:href="#mf61e465da7" y="384.9"/>
     <use style="fill:none;stroke:#ff0000;stroke-linejoin:miter;stroke-width:1.5;" x="456.770201613" xlink:href="#mf61e465da7" y="308.810891089"/>
    </g>
   </g>
   <g id="line2d_29">
    <path d="M 416.908065 342.675189 
L 456.770202 239.9 
" style="fill:none;stroke:#000000;stroke-linecap:square;stroke-width:1.5;"/>
    <g>
     <use style="fill:none;stroke:#000000;stroke-width:1.5;" x="416.908064516" xlink:href="#m34223053b3" y="342.675189284"/>
     <use style="fill:none;stroke:#000000;stroke-width:1.5;" x="456.770201613" xlink:href="#m34223053b3" y="239.9"/>
    </g>
   </g>
   <g id="line2d_30">
    <path d="M 416.908065 25.989109 
L 456.770202 170.989109 
" style="fill:none;stroke:#008000;stroke-linecap:square;stroke-width:1.5;"/>
    <g>
     <use style="fill:none;stroke:#008000;stroke-linejoin:miter;stroke-width:1.5;" x="416.908064516" xlink:href="#m2304df9442" y="25.9891089109"/>
     <use style="fill:none;stroke:#008000;stroke-linejoin:miter;stroke-width:1.5;" x="456.770201613" xlink:href="#m2304df9442" y="170.989108911"/>
    </g>
   </g>
   <g id="line2d_31">
    <path d="M 416.908065 25.989109 
L 456.770202 102.078218 
" style="fill:none;stroke:#0000ff;stroke-linecap:square;stroke-width:1.5;"/>
    <g>
     <use style="fill:none;stroke:#0000ff;stroke-linejoin:bevel;stroke-width:1.5;" x="416.908064516" xlink:href="#m034c813683" y="25.9891089109"/>
     <use style="fill:none;stroke:#0000ff;stroke-linejoin:bevel;stroke-width:1.5;" x="456.770201613" xlink:href="#m034c813683" y="102.078217822"/>
    </g>
   </g>
   <g id="line2d_32">
    <path d="M 416.908065 25.989109 
L 456.770202 33.167327 
" style="fill:none;stroke:#00bfbf;stroke-linecap:square;stroke-width:1.5;"/>
    <g>
     <use style="fill:none;stroke:#00bfbf;stroke-width:1.5;" x="416.908064516" xlink:href="#m8524c8c908" y="25.9891089109"/>
     <use style="fill:none;stroke:#00bfbf;stroke-width:1.5;" x="456.770201613" xlink:href="#m8524c8c908" y="33.1673267327"/>
    </g>
   </g>
   <g id="line2d_33">
    <path d="M 416.908065 384.9 
L 416.908065 25.989109 
" style="fill:none;stroke:#000000;stroke-linecap:square;"/>
   </g>
   <g id="patch_3">
    <path d="M 54.525 22.4 
L 503.88 22.4 
" style="fill:none;stroke:#000000;stroke-linecap:square;stroke-linejoin:miter;"/>
   </g>
   <g id="patch_4">
    <path d="M 503.88 384.9 
L 503.88 22.4 
" style="fill:none;stroke:#000000;stroke-linecap:square;stroke-linejoin:miter;"/>
   </g>
   <g id="patch_5">
    <path d="M 54.525 384.9 
L 503.88 384.9 
" style="fill:none;stroke:#000000;stroke-linecap:square;stroke-linejoin:miter;"/>
   </g>
   <g id="patch_6">
    <path d="M 54.525 384.9 
L 54.525 22.4 
" style="fill:none;stroke:#000000;stroke-linecap:square;stroke-linejoin:miter;"/>
   </g>
   <g id="matplotlib.axis_1">
    <g id="xtick_1">
     <g id="line2d_34">
      <path clip-path="url(#p02d8c5e96a)" d="M 54.525 384.9 
L 54.525 22.4 
" style="fill:none;stroke:#000000;stroke-dasharray:1.000000,3.000000;stroke-dashoffset:0.0;stroke-width:0.5;"/>
     </g>
     <g id="line2d_35">
      <defs>
       <path d="M 0 0 
L 0 -4 
" id="m0db1a1c9e2" style="stroke:#000000;stroke-width:0.5;"/>
      </defs>
      <g>
       <use style="stroke:#000000;stroke-width:0.5;" x="54.525" xlink:href="#m0db1a1c9e2" y="384.9"/>
      </g>
     </g>
     <g id="line2d_36">
      <defs>
       <path d="M 0 0 
L 0 4 
" id="mf723049d7b" style="stroke:#000000;stroke-width:0.5;"/>
      </defs>
      <g>
       <use style="stroke:#000000;stroke-width:0.5;" x="54.525" xlink:href="#mf723049d7b" y="22.4"/>
      </g>
     </g>
     <g id="text_1">
      <!-- 0 -->
      <defs>
       <path d="M 31.78125 66.40625 
Q 24.171875 66.40625 20.328125 58.90625 
Q 16.5 51.421875 16.5 36.375 
Q 16.5 21.390625 20.328125 13.890625 
Q 24.171875 6.390625 31.78125 6.390625 
Q 39.453125 6.390625 43.28125 13.890625 
Q 47.125 21.390625 47.125 36.375 
Q 47.125 51.421875 43.28125 58.90625 
Q 39.453125 66.40625 31.78125 66.40625 
M 31.78125 74.21875 
Q 44.046875 74.21875 50.515625 64.515625 
Q 56.984375 54.828125 56.984375 36.375 
Q 56.984375 17.96875 50.515625 8.265625 
Q 44.046875 -1.421875 31.78125 -1.421875 
Q 19.53125 -1.421875 13.0625 8.265625 
Q 6.59375 17.96875 6.59375 36.375 
Q 6.59375 54.828125 13.0625 64.515625 
Q 19.53125 74.21875 31.78125 74.21875 
" id="BitstreamVeraSans-Roman-30"/>
      </defs>
      <g transform="translate(48.1625 404.096875)scale(0.2 -0.2)">
       <use xlink:href="#BitstreamVeraSans-Roman-30"/>
      </g>
     </g>
    </g>
    <g id="xtick_2">
     <g id="line2d_37">
      <path clip-path="url(#p02d8c5e96a)" d="M 106.294009 384.9 
L 106.294009 22.4 
" style="fill:none;stroke:#000000;stroke-dasharray:1.000000,3.000000;stroke-dashoffset:0.0;stroke-width:0.5;"/>
     </g>
     <g id="line2d_38">
      <g>
       <use style="stroke:#000000;stroke-width:0.5;" x="106.294009217" xlink:href="#m0db1a1c9e2" y="384.9"/>
      </g>
     </g>
     <g id="line2d_39">
      <g>
       <use style="stroke:#000000;stroke-width:0.5;" x="106.294009217" xlink:href="#mf723049d7b" y="22.4"/>
      </g>
     </g>
     <g id="text_2">
      <!-- 1 -->
      <defs>
       <path d="M 12.40625 8.296875 
L 28.515625 8.296875 
L 28.515625 63.921875 
L 10.984375 60.40625 
L 10.984375 69.390625 
L 28.421875 72.90625 
L 38.28125 72.90625 
L 38.28125 8.296875 
L 54.390625 8.296875 
L 54.390625 0 
L 12.40625 0 
z
" id="BitstreamVeraSans-Roman-31"/>
      </defs>
      <g transform="translate(99.9315092166 404.096875)scale(0.2 -0.2)">
       <use xlink:href="#BitstreamVeraSans-Roman-31"/>
      </g>
     </g>
    </g>
    <g id="xtick_3">
     <g id="line2d_40">
      <path clip-path="url(#p02d8c5e96a)" d="M 158.063018 384.9 
L 158.063018 22.4 
" style="fill:none;stroke:#000000;stroke-dasharray:1.000000,3.000000;stroke-dashoffset:0.0;stroke-width:0.5;"/>
     </g>
     <g id="line2d_41">
      <g>
       <use style="stroke:#000000;stroke-width:0.5;" x="158.063018433" xlink:href="#m0db1a1c9e2" y="384.9"/>
      </g>
     </g>
     <g id="line2d_42">
      <g>
       <use style="stroke:#000000;stroke-width:0.5;" x="158.063018433" xlink:href="#mf723049d7b" y="22.4"/>
      </g>
     </g>
     <g id="text_3">
      <!-- 2 -->
      <defs>
       <path d="M 19.1875 8.296875 
L 53.609375 8.296875 
L 53.609375 0 
L 7.328125 0 
L 7.328125 8.296875 
Q 12.9375 14.109375 22.625 23.890625 
Q 32.328125 33.6875 34.8125 36.53125 
Q 39.546875 41.84375 41.421875 45.53125 
Q 43.3125 49.21875 43.3125 52.78125 
Q 43.3125 58.59375 39.234375 62.25 
Q 35.15625 65.921875 28.609375 65.921875 
Q 23.96875 65.921875 18.8125 64.3125 
Q 13.671875 62.703125 7.8125 59.421875 
L 7.8125 69.390625 
Q 13.765625 71.78125 18.9375 73 
Q 24.125 74.21875 28.421875 74.21875 
Q 39.75 74.21875 46.484375 68.546875 
Q 53.21875 62.890625 53.21875 53.421875 
Q 53.21875 48.921875 51.53125 44.890625 
Q 49.859375 40.875 45.40625 35.40625 
Q 44.1875 33.984375 37.640625 27.21875 
Q 31.109375 20.453125 19.1875 8.296875 
" id="BitstreamVeraSans-Roman-32"/>
      </defs>
      <g transform="translate(151.700518433 404.096875)scale(0.2 -0.2)">
       <use xlink:href="#BitstreamVeraSans-Roman-32"/>
      </g>
     </g>
    </g>
    <g id="xtick_4">
     <g id="line2d_43">
      <path clip-path="url(#p02d8c5e96a)" d="M 209.832028 384.9 
L 209.832028 22.4 
" style="fill:none;stroke:#000000;stroke-dasharray:1.000000,3.000000;stroke-dashoffset:0.0;stroke-width:0.5;"/>
     </g>
     <g id="line2d_44">
      <g>
       <use style="stroke:#000000;stroke-width:0.5;" x="209.83202765" xlink:href="#m0db1a1c9e2" y="384.9"/>
      </g>
     </g>
     <g id="line2d_45">
      <g>
       <use style="stroke:#000000;stroke-width:0.5;" x="209.83202765" xlink:href="#mf723049d7b" y="22.4"/>
      </g>
     </g>
     <g id="text_4">
      <!-- 3 -->
      <defs>
       <path d="M 40.578125 39.3125 
Q 47.65625 37.796875 51.625 33 
Q 55.609375 28.21875 55.609375 21.1875 
Q 55.609375 10.40625 48.1875 4.484375 
Q 40.765625 -1.421875 27.09375 -1.421875 
Q 22.515625 -1.421875 17.65625 -0.515625 
Q 12.796875 0.390625 7.625 2.203125 
L 7.625 11.71875 
Q 11.71875 9.328125 16.59375 8.109375 
Q 21.484375 6.890625 26.8125 6.890625 
Q 36.078125 6.890625 40.9375 10.546875 
Q 45.796875 14.203125 45.796875 21.1875 
Q 45.796875 27.640625 41.28125 31.265625 
Q 36.765625 34.90625 28.71875 34.90625 
L 20.21875 34.90625 
L 20.21875 43.015625 
L 29.109375 43.015625 
Q 36.375 43.015625 40.234375 45.921875 
Q 44.09375 48.828125 44.09375 54.296875 
Q 44.09375 59.90625 40.109375 62.90625 
Q 36.140625 65.921875 28.71875 65.921875 
Q 24.65625 65.921875 20.015625 65.03125 
Q 15.375 64.15625 9.8125 62.3125 
L 9.8125 71.09375 
Q 15.4375 72.65625 20.34375 73.4375 
Q 25.25 74.21875 29.59375 74.21875 
Q 40.828125 74.21875 47.359375 69.109375 
Q 53.90625 64.015625 53.90625 55.328125 
Q 53.90625 49.265625 50.4375 45.09375 
Q 46.96875 40.921875 40.578125 39.3125 
" id="BitstreamVeraSans-Roman-33"/>
      </defs>
      <g transform="translate(203.46952765 404.096875)scale(0.2 -0.2)">
       <use xlink:href="#BitstreamVeraSans-Roman-33"/>
      </g>
     </g>
    </g>
    <g id="xtick_5">
     <g id="line2d_46">
      <path clip-path="url(#p02d8c5e96a)" d="M 261.601037 384.9 
L 261.601037 22.4 
" style="fill:none;stroke:#000000;stroke-dasharray:1.000000,3.000000;stroke-dashoffset:0.0;stroke-width:0.5;"/>
     </g>
     <g id="line2d_47">
      <g>
       <use style="stroke:#000000;stroke-width:0.5;" x="261.601036866" xlink:href="#m0db1a1c9e2" y="384.9"/>
      </g>
     </g>
     <g id="line2d_48">
      <g>
       <use style="stroke:#000000;stroke-width:0.5;" x="261.601036866" xlink:href="#mf723049d7b" y="22.4"/>
      </g>
     </g>
     <g id="text_5">
      <!-- 4 -->
      <defs>
       <path d="M 37.796875 64.3125 
L 12.890625 25.390625 
L 37.796875 25.390625 
z
M 35.203125 72.90625 
L 47.609375 72.90625 
L 47.609375 25.390625 
L 58.015625 25.390625 
L 58.015625 17.1875 
L 47.609375 17.1875 
L 47.609375 0 
L 37.796875 0 
L 37.796875 17.1875 
L 4.890625 17.1875 
L 4.890625 26.703125 
z
" id="BitstreamVeraSans-Roman-34"/>
      </defs>
      <g transform="translate(255.238536866 404.096875)scale(0.2 -0.2)">
       <use xlink:href="#BitstreamVeraSans-Roman-34"/>
      </g>
     </g>
    </g>
    <g id="xtick_6">
     <g id="line2d_49">
      <path clip-path="url(#p02d8c5e96a)" d="M 313.370046 384.9 
L 313.370046 22.4 
" style="fill:none;stroke:#000000;stroke-dasharray:1.000000,3.000000;stroke-dashoffset:0.0;stroke-width:0.5;"/>
     </g>
     <g id="line2d_50">
      <g>
       <use style="stroke:#000000;stroke-width:0.5;" x="313.370046083" xlink:href="#m0db1a1c9e2" y="384.9"/>
      </g>
     </g>
     <g id="line2d_51">
      <g>
       <use style="stroke:#000000;stroke-width:0.5;" x="313.370046083" xlink:href="#mf723049d7b" y="22.4"/>
      </g>
     </g>
     <g id="text_6">
      <!-- 5 -->
      <defs>
       <path d="M 10.796875 72.90625 
L 49.515625 72.90625 
L 49.515625 64.59375 
L 19.828125 64.59375 
L 19.828125 46.734375 
Q 21.96875 47.46875 24.109375 47.828125 
Q 26.265625 48.1875 28.421875 48.1875 
Q 40.625 48.1875 47.75 41.5 
Q 54.890625 34.8125 54.890625 23.390625 
Q 54.890625 11.625 47.5625 5.09375 
Q 40.234375 -1.421875 26.90625 -1.421875 
Q 22.3125 -1.421875 17.546875 -0.640625 
Q 12.796875 0.140625 7.71875 1.703125 
L 7.71875 11.625 
Q 12.109375 9.234375 16.796875 8.0625 
Q 21.484375 6.890625 26.703125 6.890625 
Q 35.15625 6.890625 40.078125 11.328125 
Q 45.015625 15.765625 45.015625 23.390625 
Q 45.015625 31 40.078125 35.4375 
Q 35.15625 39.890625 26.703125 39.890625 
Q 22.75 39.890625 18.8125 39.015625 
Q 14.890625 38.140625 10.796875 36.28125 
z
" id="BitstreamVeraSans-Roman-35"/>
      </defs>
      <g transform="translate(307.007546083 404.096875)scale(0.2 -0.2)">
       <use xlink:href="#BitstreamVeraSans-Roman-35"/>
      </g>
     </g>
    </g>
    <g id="xtick_7">
     <g id="line2d_52">
      <path clip-path="url(#p02d8c5e96a)" d="M 365.139055 384.9 
L 365.139055 22.4 
" style="fill:none;stroke:#000000;stroke-dasharray:1.000000,3.000000;stroke-dashoffset:0.0;stroke-width:0.5;"/>
     </g>
     <g id="line2d_53">
      <g>
       <use style="stroke:#000000;stroke-width:0.5;" x="365.1390553" xlink:href="#m0db1a1c9e2" y="384.9"/>
      </g>
     </g>
     <g id="line2d_54">
      <g>
       <use style="stroke:#000000;stroke-width:0.5;" x="365.1390553" xlink:href="#mf723049d7b" y="22.4"/>
      </g>
     </g>
     <g id="text_7">
      <!-- 6 -->
      <defs>
       <path d="M 33.015625 40.375 
Q 26.375 40.375 22.484375 35.828125 
Q 18.609375 31.296875 18.609375 23.390625 
Q 18.609375 15.53125 22.484375 10.953125 
Q 26.375 6.390625 33.015625 6.390625 
Q 39.65625 6.390625 43.53125 10.953125 
Q 47.40625 15.53125 47.40625 23.390625 
Q 47.40625 31.296875 43.53125 35.828125 
Q 39.65625 40.375 33.015625 40.375 
M 52.59375 71.296875 
L 52.59375 62.3125 
Q 48.875 64.0625 45.09375 64.984375 
Q 41.3125 65.921875 37.59375 65.921875 
Q 27.828125 65.921875 22.671875 59.328125 
Q 17.53125 52.734375 16.796875 39.40625 
Q 19.671875 43.65625 24.015625 45.921875 
Q 28.375 48.1875 33.59375 48.1875 
Q 44.578125 48.1875 50.953125 41.515625 
Q 57.328125 34.859375 57.328125 23.390625 
Q 57.328125 12.15625 50.6875 5.359375 
Q 44.046875 -1.421875 33.015625 -1.421875 
Q 20.359375 -1.421875 13.671875 8.265625 
Q 6.984375 17.96875 6.984375 36.375 
Q 6.984375 53.65625 15.1875 63.9375 
Q 23.390625 74.21875 37.203125 74.21875 
Q 40.921875 74.21875 44.703125 73.484375 
Q 48.484375 72.75 52.59375 71.296875 
" id="BitstreamVeraSans-Roman-36"/>
      </defs>
      <g transform="translate(358.7765553 404.096875)scale(0.2 -0.2)">
       <use xlink:href="#BitstreamVeraSans-Roman-36"/>
      </g>
     </g>
    </g>
    <g id="xtick_8">
     <g id="line2d_55">
      <path clip-path="url(#p02d8c5e96a)" d="M 416.908065 384.9 
L 416.908065 22.4 
" style="fill:none;stroke:#000000;stroke-dasharray:1.000000,3.000000;stroke-dashoffset:0.0;stroke-width:0.5;"/>
     </g>
     <g id="line2d_56">
      <g>
       <use style="stroke:#000000;stroke-width:0.5;" x="416.908064516" xlink:href="#m0db1a1c9e2" y="384.9"/>
      </g>
     </g>
     <g id="line2d_57">
      <g>
       <use style="stroke:#000000;stroke-width:0.5;" x="416.908064516" xlink:href="#mf723049d7b" y="22.4"/>
      </g>
     </g>
     <g id="text_8">
      <!-- 7 -->
      <defs>
       <path d="M 8.203125 72.90625 
L 55.078125 72.90625 
L 55.078125 68.703125 
L 28.609375 0 
L 18.3125 0 
L 43.21875 64.59375 
L 8.203125 64.59375 
z
" id="BitstreamVeraSans-Roman-37"/>
      </defs>
      <g transform="translate(410.545564516 404.096875)scale(0.2 -0.2)">
       <use xlink:href="#BitstreamVeraSans-Roman-37"/>
      </g>
     </g>
    </g>
    <g id="xtick_9">
     <g id="line2d_58">
      <path clip-path="url(#p02d8c5e96a)" d="M 468.677074 384.9 
L 468.677074 22.4 
" style="fill:none;stroke:#000000;stroke-dasharray:1.000000,3.000000;stroke-dashoffset:0.0;stroke-width:0.5;"/>
     </g>
     <g id="line2d_59">
      <g>
       <use style="stroke:#000000;stroke-width:0.5;" x="468.677073733" xlink:href="#m0db1a1c9e2" y="384.9"/>
      </g>
     </g>
     <g id="line2d_60">
      <g>
       <use style="stroke:#000000;stroke-width:0.5;" x="468.677073733" xlink:href="#mf723049d7b" y="22.4"/>
      </g>
     </g>
     <g id="text_9">
      <!-- 8 -->
      <defs>
       <path d="M 31.78125 34.625 
Q 24.75 34.625 20.71875 30.859375 
Q 16.703125 27.09375 16.703125 20.515625 
Q 16.703125 13.921875 20.71875 10.15625 
Q 24.75 6.390625 31.78125 6.390625 
Q 38.8125 6.390625 42.859375 10.171875 
Q 46.921875 13.96875 46.921875 20.515625 
Q 46.921875 27.09375 42.890625 30.859375 
Q 38.875 34.625 31.78125 34.625 
M 21.921875 38.8125 
Q 15.578125 40.375 12.03125 44.71875 
Q 8.5 49.078125 8.5 55.328125 
Q 8.5 64.0625 14.71875 69.140625 
Q 20.953125 74.21875 31.78125 74.21875 
Q 42.671875 74.21875 48.875 69.140625 
Q 55.078125 64.0625 55.078125 55.328125 
Q 55.078125 49.078125 51.53125 44.71875 
Q 48 40.375 41.703125 38.8125 
Q 48.828125 37.15625 52.796875 32.3125 
Q 56.78125 27.484375 56.78125 20.515625 
Q 56.78125 9.90625 50.3125 4.234375 
Q 43.84375 -1.421875 31.78125 -1.421875 
Q 19.734375 -1.421875 13.25 4.234375 
Q 6.78125 9.90625 6.78125 20.515625 
Q 6.78125 27.484375 10.78125 32.3125 
Q 14.796875 37.15625 21.921875 38.8125 
M 18.3125 54.390625 
Q 18.3125 48.734375 21.84375 45.5625 
Q 25.390625 42.390625 31.78125 42.390625 
Q 38.140625 42.390625 41.71875 45.5625 
Q 45.3125 48.734375 45.3125 54.390625 
Q 45.3125 60.0625 41.71875 63.234375 
Q 38.140625 66.40625 31.78125 66.40625 
Q 25.390625 66.40625 21.84375 63.234375 
Q 18.3125 60.0625 18.3125 54.390625 
" id="BitstreamVeraSans-Roman-38"/>
      </defs>
      <g transform="translate(462.314573733 404.096875)scale(0.2 -0.2)">
       <use xlink:href="#BitstreamVeraSans-Roman-38"/>
      </g>
     </g>
    </g>
    <g id="xtick_10">
     <g id="line2d_61">
      <defs>
       <path d="M 0 0 
L 0 -2 
" id="m044c1f5550" style="stroke:#000000;stroke-width:0.5;"/>
      </defs>
      <g>
       <use style="stroke:#000000;stroke-width:0.5;" x="70.10902462" xlink:href="#m044c1f5550" y="384.9"/>
      </g>
     </g>
     <g id="line2d_62">
      <defs>
       <path d="M 0 0 
L 0 2 
" id="maae4bf603c" style="stroke:#000000;stroke-width:0.5;"/>
      </defs>
      <g>
       <use style="stroke:#000000;stroke-width:0.5;" x="70.10902462" xlink:href="#maae4bf603c" y="22.4"/>
      </g>
     </g>
    </g>
    <g id="xtick_11">
     <g id="line2d_63">
      <g>
       <use style="stroke:#000000;stroke-width:0.5;" x="85.69304924" xlink:href="#m044c1f5550" y="384.9"/>
      </g>
     </g>
     <g id="line2d_64">
      <g>
       <use style="stroke:#000000;stroke-width:0.5;" x="85.69304924" xlink:href="#maae4bf603c" y="22.4"/>
      </g>
     </g>
    </g>
    <g id="xtick_12">
     <g id="line2d_65">
      <g>
       <use style="stroke:#000000;stroke-width:0.5;" x="94.809119253" xlink:href="#m044c1f5550" y="384.9"/>
      </g>
     </g>
     <g id="line2d_66">
      <g>
       <use style="stroke:#000000;stroke-width:0.5;" x="94.809119253" xlink:href="#maae4bf603c" y="22.4"/>
      </g>
     </g>
    </g>
    <g id="xtick_13">
     <g id="line2d_67">
      <g>
       <use style="stroke:#000000;stroke-width:0.5;" x="101.27707386" xlink:href="#m044c1f5550" y="384.9"/>
      </g>
     </g>
     <g id="line2d_68">
      <g>
       <use style="stroke:#000000;stroke-width:0.5;" x="101.27707386" xlink:href="#maae4bf603c" y="22.4"/>
      </g>
     </g>
    </g>
    <g id="xtick_14">
     <g id="line2d_69">
      <g>
       <use style="stroke:#000000;stroke-width:0.5;" x="121.878033837" xlink:href="#m044c1f5550" y="384.9"/>
      </g>
     </g>
     <g id="line2d_70">
      <g>
       <use style="stroke:#000000;stroke-width:0.5;" x="121.878033837" xlink:href="#maae4bf603c" y="22.4"/>
      </g>
     </g>
    </g>
    <g id="xtick_15">
     <g id="line2d_71">
      <g>
       <use style="stroke:#000000;stroke-width:0.5;" x="137.462058457" xlink:href="#m044c1f5550" y="384.9"/>
      </g>
     </g>
     <g id="line2d_72">
      <g>
       <use style="stroke:#000000;stroke-width:0.5;" x="137.462058457" xlink:href="#maae4bf603c" y="22.4"/>
      </g>
     </g>
    </g>
    <g id="xtick_16">
     <g id="line2d_73">
      <g>
       <use style="stroke:#000000;stroke-width:0.5;" x="146.57812847" xlink:href="#m044c1f5550" y="384.9"/>
      </g>
     </g>
     <g id="line2d_74">
      <g>
       <use style="stroke:#000000;stroke-width:0.5;" x="146.57812847" xlink:href="#maae4bf603c" y="22.4"/>
      </g>
     </g>
    </g>
    <g id="xtick_17">
     <g id="line2d_75">
      <g>
       <use style="stroke:#000000;stroke-width:0.5;" x="153.046083077" xlink:href="#m044c1f5550" y="384.9"/>
      </g>
     </g>
     <g id="line2d_76">
      <g>
       <use style="stroke:#000000;stroke-width:0.5;" x="153.046083077" xlink:href="#maae4bf603c" y="22.4"/>
      </g>
     </g>
    </g>
    <g id="xtick_18">
     <g id="line2d_77">
      <g>
       <use style="stroke:#000000;stroke-width:0.5;" x="173.647043053" xlink:href="#m044c1f5550" y="384.9"/>
      </g>
     </g>
     <g id="line2d_78">
      <g>
       <use style="stroke:#000000;stroke-width:0.5;" x="173.647043053" xlink:href="#maae4bf603c" y="22.4"/>
      </g>
     </g>
    </g>
    <g id="xtick_19">
     <g id="line2d_79">
      <g>
       <use style="stroke:#000000;stroke-width:0.5;" x="189.231067673" xlink:href="#m044c1f5550" y="384.9"/>
      </g>
     </g>
     <g id="line2d_80">
      <g>
       <use style="stroke:#000000;stroke-width:0.5;" x="189.231067673" xlink:href="#maae4bf603c" y="22.4"/>
      </g>
     </g>
    </g>
    <g id="xtick_20">
     <g id="line2d_81">
      <g>
       <use style="stroke:#000000;stroke-width:0.5;" x="198.347137686" xlink:href="#m044c1f5550" y="384.9"/>
      </g>
     </g>
     <g id="line2d_82">
      <g>
       <use style="stroke:#000000;stroke-width:0.5;" x="198.347137686" xlink:href="#maae4bf603c" y="22.4"/>
      </g>
     </g>
    </g>
    <g id="xtick_21">
     <g id="line2d_83">
      <g>
       <use style="stroke:#000000;stroke-width:0.5;" x="204.815092293" xlink:href="#m044c1f5550" y="384.9"/>
      </g>
     </g>
     <g id="line2d_84">
      <g>
       <use style="stroke:#000000;stroke-width:0.5;" x="204.815092293" xlink:href="#maae4bf603c" y="22.4"/>
      </g>
     </g>
    </g>
    <g id="xtick_22">
     <g id="line2d_85">
      <g>
       <use style="stroke:#000000;stroke-width:0.5;" x="225.41605227" xlink:href="#m044c1f5550" y="384.9"/>
      </g>
     </g>
     <g id="line2d_86">
      <g>
       <use style="stroke:#000000;stroke-width:0.5;" x="225.41605227" xlink:href="#maae4bf603c" y="22.4"/>
      </g>
     </g>
    </g>
    <g id="xtick_23">
     <g id="line2d_87">
      <g>
       <use style="stroke:#000000;stroke-width:0.5;" x="241.00007689" xlink:href="#m044c1f5550" y="384.9"/>
      </g>
     </g>
     <g id="line2d_88">
      <g>
       <use style="stroke:#000000;stroke-width:0.5;" x="241.00007689" xlink:href="#maae4bf603c" y="22.4"/>
      </g>
     </g>
    </g>
    <g id="xtick_24">
     <g id="line2d_89">
      <g>
       <use style="stroke:#000000;stroke-width:0.5;" x="250.116146903" xlink:href="#m044c1f5550" y="384.9"/>
      </g>
     </g>
     <g id="line2d_90">
      <g>
       <use style="stroke:#000000;stroke-width:0.5;" x="250.116146903" xlink:href="#maae4bf603c" y="22.4"/>
      </g>
     </g>
    </g>
    <g id="xtick_25">
     <g id="line2d_91">
      <g>
       <use style="stroke:#000000;stroke-width:0.5;" x="256.58410151" xlink:href="#m044c1f5550" y="384.9"/>
      </g>
     </g>
     <g id="line2d_92">
      <g>
       <use style="stroke:#000000;stroke-width:0.5;" x="256.58410151" xlink:href="#maae4bf603c" y="22.4"/>
      </g>
     </g>
    </g>
    <g id="xtick_26">
     <g id="line2d_93">
      <g>
       <use style="stroke:#000000;stroke-width:0.5;" x="277.185061486" xlink:href="#m044c1f5550" y="384.9"/>
      </g>
     </g>
     <g id="line2d_94">
      <g>
       <use style="stroke:#000000;stroke-width:0.5;" x="277.185061486" xlink:href="#maae4bf603c" y="22.4"/>
      </g>
     </g>
    </g>
    <g id="xtick_27">
     <g id="line2d_95">
      <g>
       <use style="stroke:#000000;stroke-width:0.5;" x="292.769086106" xlink:href="#m044c1f5550" y="384.9"/>
      </g>
     </g>
     <g id="line2d_96">
      <g>
       <use style="stroke:#000000;stroke-width:0.5;" x="292.769086106" xlink:href="#maae4bf603c" y="22.4"/>
      </g>
     </g>
    </g>
    <g id="xtick_28">
     <g id="line2d_97">
      <g>
       <use style="stroke:#000000;stroke-width:0.5;" x="301.885156119" xlink:href="#m044c1f5550" y="384.9"/>
      </g>
     </g>
     <g id="line2d_98">
      <g>
       <use style="stroke:#000000;stroke-width:0.5;" x="301.885156119" xlink:href="#maae4bf603c" y="22.4"/>
      </g>
     </g>
    </g>
    <g id="xtick_29">
     <g id="line2d_99">
      <g>
       <use style="stroke:#000000;stroke-width:0.5;" x="308.353110726" xlink:href="#m044c1f5550" y="384.9"/>
      </g>
     </g>
     <g id="line2d_100">
      <g>
       <use style="stroke:#000000;stroke-width:0.5;" x="308.353110726" xlink:href="#maae4bf603c" y="22.4"/>
      </g>
     </g>
    </g>
    <g id="xtick_30">
     <g id="line2d_101">
      <g>
       <use style="stroke:#000000;stroke-width:0.5;" x="328.954070703" xlink:href="#m044c1f5550" y="384.9"/>
      </g>
     </g>
     <g id="line2d_102">
      <g>
       <use style="stroke:#000000;stroke-width:0.5;" x="328.954070703" xlink:href="#maae4bf603c" y="22.4"/>
      </g>
     </g>
    </g>
    <g id="xtick_31">
     <g id="line2d_103">
      <g>
       <use style="stroke:#000000;stroke-width:0.5;" x="344.538095323" xlink:href="#m044c1f5550" y="384.9"/>
      </g>
     </g>
     <g id="line2d_104">
      <g>
       <use style="stroke:#000000;stroke-width:0.5;" x="344.538095323" xlink:href="#maae4bf603c" y="22.4"/>
      </g>
     </g>
    </g>
    <g id="xtick_32">
     <g id="line2d_105">
      <g>
       <use style="stroke:#000000;stroke-width:0.5;" x="353.654165336" xlink:href="#m044c1f5550" y="384.9"/>
      </g>
     </g>
     <g id="line2d_106">
      <g>
       <use style="stroke:#000000;stroke-width:0.5;" x="353.654165336" xlink:href="#maae4bf603c" y="22.4"/>
      </g>
     </g>
    </g>
    <g id="xtick_33">
     <g id="line2d_107">
      <g>
       <use style="stroke:#000000;stroke-width:0.5;" x="360.122119943" xlink:href="#m044c1f5550" y="384.9"/>
      </g>
     </g>
     <g id="line2d_108">
      <g>
       <use style="stroke:#000000;stroke-width:0.5;" x="360.122119943" xlink:href="#maae4bf603c" y="22.4"/>
      </g>
     </g>
    </g>
    <g id="xtick_34">
     <g id="line2d_109">
      <g>
       <use style="stroke:#000000;stroke-width:0.5;" x="380.72307992" xlink:href="#m044c1f5550" y="384.9"/>
      </g>
     </g>
     <g id="line2d_110">
      <g>
       <use style="stroke:#000000;stroke-width:0.5;" x="380.72307992" xlink:href="#maae4bf603c" y="22.4"/>
      </g>
     </g>
    </g>
    <g id="xtick_35">
     <g id="line2d_111">
      <g>
       <use style="stroke:#000000;stroke-width:0.5;" x="396.30710454" xlink:href="#m044c1f5550" y="384.9"/>
      </g>
     </g>
     <g id="line2d_112">
      <g>
       <use style="stroke:#000000;stroke-width:0.5;" x="396.30710454" xlink:href="#maae4bf603c" y="22.4"/>
      </g>
     </g>
    </g>
    <g id="xtick_36">
     <g id="line2d_113">
      <g>
       <use style="stroke:#000000;stroke-width:0.5;" x="405.423174553" xlink:href="#m044c1f5550" y="384.9"/>
      </g>
     </g>
     <g id="line2d_114">
      <g>
       <use style="stroke:#000000;stroke-width:0.5;" x="405.423174553" xlink:href="#maae4bf603c" y="22.4"/>
      </g>
     </g>
    </g>
    <g id="xtick_37">
     <g id="line2d_115">
      <g>
       <use style="stroke:#000000;stroke-width:0.5;" x="411.89112916" xlink:href="#m044c1f5550" y="384.9"/>
      </g>
     </g>
     <g id="line2d_116">
      <g>
       <use style="stroke:#000000;stroke-width:0.5;" x="411.89112916" xlink:href="#maae4bf603c" y="22.4"/>
      </g>
     </g>
    </g>
    <g id="xtick_38">
     <g id="line2d_117">
      <g>
       <use style="stroke:#000000;stroke-width:0.5;" x="432.492089136" xlink:href="#m044c1f5550" y="384.9"/>
      </g>
     </g>
     <g id="line2d_118">
      <g>
       <use style="stroke:#000000;stroke-width:0.5;" x="432.492089136" xlink:href="#maae4bf603c" y="22.4"/>
      </g>
     </g>
    </g>
    <g id="xtick_39">
     <g id="line2d_119">
      <g>
       <use style="stroke:#000000;stroke-width:0.5;" x="448.076113756" xlink:href="#m044c1f5550" y="384.9"/>
      </g>
     </g>
     <g id="line2d_120">
      <g>
       <use style="stroke:#000000;stroke-width:0.5;" x="448.076113756" xlink:href="#maae4bf603c" y="22.4"/>
      </g>
     </g>
    </g>
    <g id="xtick_40">
     <g id="line2d_121">
      <g>
       <use style="stroke:#000000;stroke-width:0.5;" x="457.192183769" xlink:href="#m044c1f5550" y="384.9"/>
      </g>
     </g>
     <g id="line2d_122">
      <g>
       <use style="stroke:#000000;stroke-width:0.5;" x="457.192183769" xlink:href="#maae4bf603c" y="22.4"/>
      </g>
     </g>
    </g>
    <g id="xtick_41">
     <g id="line2d_123">
      <g>
       <use style="stroke:#000000;stroke-width:0.5;" x="463.660138376" xlink:href="#m044c1f5550" y="384.9"/>
      </g>
     </g>
     <g id="line2d_124">
      <g>
       <use style="stroke:#000000;stroke-width:0.5;" x="463.660138376" xlink:href="#maae4bf603c" y="22.4"/>
      </g>
     </g>
    </g>
    <g id="xtick_42">
     <g id="line2d_125">
      <g>
       <use style="stroke:#000000;stroke-width:0.5;" x="484.261098353" xlink:href="#m044c1f5550" y="384.9"/>
      </g>
     </g>
     <g id="line2d_126">
      <g>
       <use style="stroke:#000000;stroke-width:0.5;" x="484.261098353" xlink:href="#maae4bf603c" y="22.4"/>
      </g>
     </g>
    </g>
    <g id="xtick_43">
     <g id="line2d_127">
      <g>
       <use style="stroke:#000000;stroke-width:0.5;" x="499.845122973" xlink:href="#m044c1f5550" y="384.9"/>
      </g>
     </g>
     <g id="line2d_128">
      <g>
       <use style="stroke:#000000;stroke-width:0.5;" x="499.845122973" xlink:href="#maae4bf603c" y="22.4"/>
      </g>
     </g>
    </g>
    <g id="text_10">
     <!-- log10(# f-evals / dimension) -->
     <defs>
      <path id="BitstreamVeraSans-Roman-20"/>
      <path d="M 51.125 44 
L 36.921875 44 
L 32.8125 27.6875 
L 47.125 27.6875 
z
M 43.796875 71.78125 
L 38.71875 51.515625 
L 52.984375 51.515625 
L 58.109375 71.78125 
L 65.921875 71.78125 
L 60.890625 51.515625 
L 76.125 51.515625 
L 76.125 44 
L 58.984375 44 
L 54.984375 27.6875 
L 70.515625 27.6875 
L 70.515625 20.21875 
L 53.078125 20.21875 
L 48 0 
L 40.1875 0 
L 45.21875 20.21875 
L 30.90625 20.21875 
L 25.875 0 
L 18.015625 0 
L 23.09375 20.21875 
L 7.71875 20.21875 
L 7.71875 27.6875 
L 24.90625 27.6875 
L 29 44 
L 13.28125 44 
L 13.28125 51.515625 
L 30.90625 51.515625 
L 35.890625 71.78125 
z
" id="BitstreamVeraSans-Roman-23"/>
      <path d="M 52 44.1875 
Q 55.375 50.25 60.0625 53.125 
Q 64.75 56 71.09375 56 
Q 79.640625 56 84.28125 50.015625 
Q 88.921875 44.046875 88.921875 33.015625 
L 88.921875 0 
L 79.890625 0 
L 79.890625 32.71875 
Q 79.890625 40.578125 77.09375 44.375 
Q 74.3125 48.1875 68.609375 48.1875 
Q 61.625 48.1875 57.5625 43.546875 
Q 53.515625 38.921875 53.515625 30.90625 
L 53.515625 0 
L 44.484375 0 
L 44.484375 32.71875 
Q 44.484375 40.625 41.703125 44.40625 
Q 38.921875 48.1875 33.109375 48.1875 
Q 26.21875 48.1875 22.15625 43.53125 
Q 18.109375 38.875 18.109375 30.90625 
L 18.109375 0 
L 9.078125 0 
L 9.078125 54.6875 
L 18.109375 54.6875 
L 18.109375 46.1875 
Q 21.1875 51.21875 25.484375 53.609375 
Q 29.78125 56 35.6875 56 
Q 41.65625 56 45.828125 52.96875 
Q 50 49.953125 52 44.1875 
" id="BitstreamVeraSans-Roman-6d"/>
      <path d="M 54.890625 33.015625 
L 54.890625 0 
L 45.90625 0 
L 45.90625 32.71875 
Q 45.90625 40.484375 42.875 44.328125 
Q 39.84375 48.1875 33.796875 48.1875 
Q 26.515625 48.1875 22.3125 43.546875 
Q 18.109375 38.921875 18.109375 30.90625 
L 18.109375 0 
L 9.078125 0 
L 9.078125 54.6875 
L 18.109375 54.6875 
L 18.109375 46.1875 
Q 21.34375 51.125 25.703125 53.5625 
Q 30.078125 56 35.796875 56 
Q 45.21875 56 50.046875 50.171875 
Q 54.890625 44.34375 54.890625 33.015625 
" id="BitstreamVeraSans-Roman-6e"/>
      <path d="M 31 75.875 
Q 24.46875 64.65625 21.28125 53.65625 
Q 18.109375 42.671875 18.109375 31.390625 
Q 18.109375 20.125 21.3125 9.0625 
Q 24.515625 -2 31 -13.1875 
L 23.1875 -13.1875 
Q 15.875 -1.703125 12.234375 9.375 
Q 8.59375 20.453125 8.59375 31.390625 
Q 8.59375 42.28125 12.203125 53.3125 
Q 15.828125 64.359375 23.1875 75.875 
z
" id="BitstreamVeraSans-Roman-28"/>
      <path d="M 30.609375 48.390625 
Q 23.390625 48.390625 19.1875 42.75 
Q 14.984375 37.109375 14.984375 27.296875 
Q 14.984375 17.484375 19.15625 11.84375 
Q 23.34375 6.203125 30.609375 6.203125 
Q 37.796875 6.203125 41.984375 11.859375 
Q 46.1875 17.53125 46.1875 27.296875 
Q 46.1875 37.015625 41.984375 42.703125 
Q 37.796875 48.390625 30.609375 48.390625 
M 30.609375 56 
Q 42.328125 56 49.015625 48.375 
Q 55.71875 40.765625 55.71875 27.296875 
Q 55.71875 13.875 49.015625 6.21875 
Q 42.328125 -1.421875 30.609375 -1.421875 
Q 18.84375 -1.421875 12.171875 6.21875 
Q 5.515625 13.875 5.515625 27.296875 
Q 5.515625 40.765625 12.171875 48.375 
Q 18.84375 56 30.609375 56 
" id="BitstreamVeraSans-Roman-6f"/>
      <path d="M 9.421875 75.984375 
L 18.40625 75.984375 
L 18.40625 0 
L 9.421875 0 
z
" id="BitstreamVeraSans-Roman-6c"/>
      <path d="M 2.984375 54.6875 
L 12.5 54.6875 
L 29.59375 8.796875 
L 46.6875 54.6875 
L 56.203125 54.6875 
L 35.6875 0 
L 23.484375 0 
z
" id="BitstreamVeraSans-Roman-76"/>
      <path d="M 9.421875 54.6875 
L 18.40625 54.6875 
L 18.40625 0 
L 9.421875 0 
z
M 9.421875 75.984375 
L 18.40625 75.984375 
L 18.40625 64.59375 
L 9.421875 64.59375 
z
" id="BitstreamVeraSans-Roman-69"/>
      <path d="M 4.890625 31.390625 
L 31.203125 31.390625 
L 31.203125 23.390625 
L 4.890625 23.390625 
z
" id="BitstreamVeraSans-Roman-2d"/>
      <path d="M 25.390625 72.90625 
L 33.6875 72.90625 
L 8.296875 -9.28125 
L 0 -9.28125 
z
" id="BitstreamVeraSans-Roman-2f"/>
      <path d="M 56.203125 29.59375 
L 56.203125 25.203125 
L 14.890625 25.203125 
Q 15.484375 15.921875 20.484375 11.0625 
Q 25.484375 6.203125 34.421875 6.203125 
Q 39.59375 6.203125 44.453125 7.46875 
Q 49.3125 8.734375 54.109375 11.28125 
L 54.109375 2.78125 
Q 49.265625 0.734375 44.1875 -0.34375 
Q 39.109375 -1.421875 33.890625 -1.421875 
Q 20.796875 -1.421875 13.15625 6.1875 
Q 5.515625 13.8125 5.515625 26.8125 
Q 5.515625 40.234375 12.765625 48.109375 
Q 20.015625 56 32.328125 56 
Q 43.359375 56 49.78125 48.890625 
Q 56.203125 41.796875 56.203125 29.59375 
M 47.21875 32.234375 
Q 47.125 39.59375 43.09375 43.984375 
Q 39.0625 48.390625 32.421875 48.390625 
Q 24.90625 48.390625 20.390625 44.140625 
Q 15.875 39.890625 15.1875 32.171875 
z
" id="BitstreamVeraSans-Roman-65"/>
      <path d="M 45.40625 46.390625 
L 45.40625 75.984375 
L 54.390625 75.984375 
L 54.390625 0 
L 45.40625 0 
L 45.40625 8.203125 
Q 42.578125 3.328125 38.25 0.953125 
Q 33.9375 -1.421875 27.875 -1.421875 
Q 17.96875 -1.421875 11.734375 6.484375 
Q 5.515625 14.40625 5.515625 27.296875 
Q 5.515625 40.1875 11.734375 48.09375 
Q 17.96875 56 27.875 56 
Q 33.9375 56 38.25 53.625 
Q 42.578125 51.265625 45.40625 46.390625 
M 14.796875 27.296875 
Q 14.796875 17.390625 18.875 11.75 
Q 22.953125 6.109375 30.078125 6.109375 
Q 37.203125 6.109375 41.296875 11.75 
Q 45.40625 17.390625 45.40625 27.296875 
Q 45.40625 37.203125 41.296875 42.84375 
Q 37.203125 48.484375 30.078125 48.484375 
Q 22.953125 48.484375 18.875 42.84375 
Q 14.796875 37.203125 14.796875 27.296875 
" id="BitstreamVeraSans-Roman-64"/>
      <path d="M 45.40625 27.984375 
Q 45.40625 37.75 41.375 43.109375 
Q 37.359375 48.484375 30.078125 48.484375 
Q 22.859375 48.484375 18.828125 43.109375 
Q 14.796875 37.75 14.796875 27.984375 
Q 14.796875 18.265625 18.828125 12.890625 
Q 22.859375 7.515625 30.078125 7.515625 
Q 37.359375 7.515625 41.375 12.890625 
Q 45.40625 18.265625 45.40625 27.984375 
M 54.390625 6.78125 
Q 54.390625 -7.171875 48.1875 -13.984375 
Q 42 -20.796875 29.203125 -20.796875 
Q 24.46875 -20.796875 20.265625 -20.09375 
Q 16.0625 -19.390625 12.109375 -17.921875 
L 12.109375 -9.1875 
Q 16.0625 -11.328125 19.921875 -12.34375 
Q 23.78125 -13.375 27.78125 -13.375 
Q 36.625 -13.375 41.015625 -8.765625 
Q 45.40625 -4.15625 45.40625 5.171875 
L 45.40625 9.625 
Q 42.625 4.78125 38.28125 2.390625 
Q 33.9375 0 27.875 0 
Q 17.828125 0 11.671875 7.65625 
Q 5.515625 15.328125 5.515625 27.984375 
Q 5.515625 40.671875 11.671875 48.328125 
Q 17.828125 56 27.875 56 
Q 33.9375 56 38.28125 53.609375 
Q 42.625 51.21875 45.40625 46.390625 
L 45.40625 54.6875 
L 54.390625 54.6875 
z
" id="BitstreamVeraSans-Roman-67"/>
      <path d="M 37.109375 75.984375 
L 37.109375 68.5 
L 28.515625 68.5 
Q 23.6875 68.5 21.796875 66.546875 
Q 19.921875 64.59375 19.921875 59.515625 
L 19.921875 54.6875 
L 34.71875 54.6875 
L 34.71875 47.703125 
L 19.921875 47.703125 
L 19.921875 0 
L 10.890625 0 
L 10.890625 47.703125 
L 2.296875 47.703125 
L 2.296875 54.6875 
L 10.890625 54.6875 
L 10.890625 58.5 
Q 10.890625 67.625 15.140625 71.796875 
Q 19.390625 75.984375 28.609375 75.984375 
z
" id="BitstreamVeraSans-Roman-66"/>
      <path d="M 34.28125 27.484375 
Q 23.390625 27.484375 19.1875 25 
Q 14.984375 22.515625 14.984375 16.5 
Q 14.984375 11.71875 18.140625 8.90625 
Q 21.296875 6.109375 26.703125 6.109375 
Q 34.1875 6.109375 38.703125 11.40625 
Q 43.21875 16.703125 43.21875 25.484375 
L 43.21875 27.484375 
z
M 52.203125 31.203125 
L 52.203125 0 
L 43.21875 0 
L 43.21875 8.296875 
Q 40.140625 3.328125 35.546875 0.953125 
Q 30.953125 -1.421875 24.3125 -1.421875 
Q 15.921875 -1.421875 10.953125 3.296875 
Q 6 8.015625 6 15.921875 
Q 6 25.140625 12.171875 29.828125 
Q 18.359375 34.515625 30.609375 34.515625 
L 43.21875 34.515625 
L 43.21875 35.40625 
Q 43.21875 41.609375 39.140625 45 
Q 35.0625 48.390625 27.6875 48.390625 
Q 23 48.390625 18.546875 47.265625 
Q 14.109375 46.140625 10.015625 43.890625 
L 10.015625 52.203125 
Q 14.9375 54.109375 19.578125 55.046875 
Q 24.21875 56 28.609375 56 
Q 40.484375 56 46.34375 49.84375 
Q 52.203125 43.703125 52.203125 31.203125 
" id="BitstreamVeraSans-Roman-61"/>
      <path d="M 44.28125 53.078125 
L 44.28125 44.578125 
Q 40.484375 46.53125 36.375 47.5 
Q 32.28125 48.484375 27.875 48.484375 
Q 21.1875 48.484375 17.84375 46.4375 
Q 14.5 44.390625 14.5 40.28125 
Q 14.5 37.15625 16.890625 35.375 
Q 19.28125 33.59375 26.515625 31.984375 
L 29.59375 31.296875 
Q 39.15625 29.25 43.1875 25.515625 
Q 47.21875 21.78125 47.21875 15.09375 
Q 47.21875 7.46875 41.1875 3.015625 
Q 35.15625 -1.421875 24.609375 -1.421875 
Q 20.21875 -1.421875 15.453125 -0.5625 
Q 10.6875 0.296875 5.421875 2 
L 5.421875 11.28125 
Q 10.40625 8.6875 15.234375 7.390625 
Q 20.0625 6.109375 24.8125 6.109375 
Q 31.15625 6.109375 34.5625 8.28125 
Q 37.984375 10.453125 37.984375 14.40625 
Q 37.984375 18.0625 35.515625 20.015625 
Q 33.0625 21.96875 24.703125 23.78125 
L 21.578125 24.515625 
Q 13.234375 26.265625 9.515625 29.90625 
Q 5.8125 33.546875 5.8125 39.890625 
Q 5.8125 47.609375 11.28125 51.796875 
Q 16.75 56 26.8125 56 
Q 31.78125 56 36.171875 55.265625 
Q 40.578125 54.546875 44.28125 53.078125 
" id="BitstreamVeraSans-Roman-73"/>
      <path d="M 8.015625 75.875 
L 15.828125 75.875 
Q 23.140625 64.359375 26.78125 53.3125 
Q 30.421875 42.28125 30.421875 31.390625 
Q 30.421875 20.453125 26.78125 9.375 
Q 23.140625 -1.703125 15.828125 -13.1875 
L 8.015625 -13.1875 
Q 14.5 -2 17.703125 9.0625 
Q 20.90625 20.125 20.90625 31.390625 
Q 20.90625 42.671875 17.703125 53.65625 
Q 14.5 64.65625 8.015625 75.875 
" id="BitstreamVeraSans-Roman-29"/>
     </defs>
     <g transform="translate(158.36171875 426.17359375)scale(0.17 -0.17)">
      <use xlink:href="#BitstreamVeraSans-Roman-6c"/>
      <use x="27.783203125" xlink:href="#BitstreamVeraSans-Roman-6f"/>
      <use x="88.96484375" xlink:href="#BitstreamVeraSans-Roman-67"/>
      <use x="152.44140625" xlink:href="#BitstreamVeraSans-Roman-31"/>
      <use x="216.064453125" xlink:href="#BitstreamVeraSans-Roman-30"/>
      <use x="279.6875" xlink:href="#BitstreamVeraSans-Roman-28"/>
      <use x="318.701171875" xlink:href="#BitstreamVeraSans-Roman-23"/>
      <use x="402.490234375" xlink:href="#BitstreamVeraSans-Roman-20"/>
      <use x="434.27734375" xlink:href="#BitstreamVeraSans-Roman-66"/>
      <use x="469.404296875" xlink:href="#BitstreamVeraSans-Roman-2d"/>
      <use x="505.48828125" xlink:href="#BitstreamVeraSans-Roman-65"/>
      <use x="567.01171875" xlink:href="#BitstreamVeraSans-Roman-76"/>
      <use x="626.19140625" xlink:href="#BitstreamVeraSans-Roman-61"/>
      <use x="687.470703125" xlink:href="#BitstreamVeraSans-Roman-6c"/>
      <use x="715.25390625" xlink:href="#BitstreamVeraSans-Roman-73"/>
      <use x="767.353515625" xlink:href="#BitstreamVeraSans-Roman-20"/>
      <use x="799.140625" xlink:href="#BitstreamVeraSans-Roman-2f"/>
      <use x="832.83203125" xlink:href="#BitstreamVeraSans-Roman-20"/>
      <use x="864.619140625" xlink:href="#BitstreamVeraSans-Roman-64"/>
      <use x="928.095703125" xlink:href="#BitstreamVeraSans-Roman-69"/>
      <use x="955.87890625" xlink:href="#BitstreamVeraSans-Roman-6d"/>
      <use x="1053.29101562" xlink:href="#BitstreamVeraSans-Roman-65"/>
      <use x="1114.81445312" xlink:href="#BitstreamVeraSans-Roman-6e"/>
      <use x="1178.19335938" xlink:href="#BitstreamVeraSans-Roman-73"/>
      <use x="1230.29296875" xlink:href="#BitstreamVeraSans-Roman-69"/>
      <use x="1258.07617188" xlink:href="#BitstreamVeraSans-Roman-6f"/>
      <use x="1319.2578125" xlink:href="#BitstreamVeraSans-Roman-6e"/>
      <use x="1382.63671875" xlink:href="#BitstreamVeraSans-Roman-29"/>
     </g>
    </g>
   </g>
   <g id="matplotlib.axis_2">
    <g id="ytick_1">
     <g id="line2d_129">
      <path clip-path="url(#p02d8c5e96a)" d="M 54.525 384.9 
L 503.88 384.9 
" style="fill:none;stroke:#000000;stroke-dasharray:1.000000,3.000000;stroke-dashoffset:0.0;stroke-width:0.5;"/>
     </g>
     <g id="line2d_130">
      <defs>
       <path d="M 0 0 
L 4 0 
" id="m1019efb16e" style="stroke:#000000;stroke-width:0.5;"/>
      </defs>
      <g>
       <use style="stroke:#000000;stroke-width:0.5;" x="54.525" xlink:href="#m1019efb16e" y="384.9"/>
      </g>
     </g>
     <g id="line2d_131">
      <defs>
       <path d="M 0 0 
L -4 0 
" id="m1b90134e80" style="stroke:#000000;stroke-width:0.5;"/>
      </defs>
      <g>
       <use style="stroke:#000000;stroke-width:0.5;" x="503.88" xlink:href="#m1b90134e80" y="384.9"/>
      </g>
     </g>
     <g id="text_11">
      <!-- 0.0 -->
      <defs>
       <path d="M 10.6875 12.40625 
L 21 12.40625 
L 21 0 
L 10.6875 0 
z
" id="BitstreamVeraSans-Roman-2e"/>
      </defs>
      <g transform="translate(25.08 389.315)scale(0.16 -0.16)">
       <use xlink:href="#BitstreamVeraSans-Roman-30"/>
       <use x="63.623046875" xlink:href="#BitstreamVeraSans-Roman-2e"/>
       <use x="95.41015625" xlink:href="#BitstreamVeraSans-Roman-30"/>
      </g>
     </g>
    </g>
    <g id="ytick_2">
     <g id="line2d_132">
      <path clip-path="url(#p02d8c5e96a)" d="M 54.525 313.117822 
L 503.88 313.117822 
" style="fill:none;stroke:#000000;stroke-dasharray:1.000000,3.000000;stroke-dashoffset:0.0;stroke-width:0.5;"/>
     </g>
     <g id="line2d_133">
      <g>
       <use style="stroke:#000000;stroke-width:0.5;" x="54.525" xlink:href="#m1019efb16e" y="313.117821782"/>
      </g>
     </g>
     <g id="line2d_134">
      <g>
       <use style="stroke:#000000;stroke-width:0.5;" x="503.88" xlink:href="#m1b90134e80" y="313.117821782"/>
      </g>
     </g>
     <g id="text_12">
      <!-- 0.2 -->
      <g transform="translate(25.08 317.532821782)scale(0.16 -0.16)">
       <use xlink:href="#BitstreamVeraSans-Roman-30"/>
       <use x="63.623046875" xlink:href="#BitstreamVeraSans-Roman-2e"/>
       <use x="95.41015625" xlink:href="#BitstreamVeraSans-Roman-32"/>
      </g>
     </g>
    </g>
    <g id="ytick_3">
     <g id="line2d_135">
      <path clip-path="url(#p02d8c5e96a)" d="M 54.525 241.335644 
L 503.88 241.335644 
" style="fill:none;stroke:#000000;stroke-dasharray:1.000000,3.000000;stroke-dashoffset:0.0;stroke-width:0.5;"/>
     </g>
     <g id="line2d_136">
      <g>
       <use style="stroke:#000000;stroke-width:0.5;" x="54.525" xlink:href="#m1019efb16e" y="241.335643564"/>
      </g>
     </g>
     <g id="line2d_137">
      <g>
       <use style="stroke:#000000;stroke-width:0.5;" x="503.88" xlink:href="#m1b90134e80" y="241.335643564"/>
      </g>
     </g>
     <g id="text_13">
      <!-- 0.4 -->
      <g transform="translate(25.08 245.750643564)scale(0.16 -0.16)">
       <use xlink:href="#BitstreamVeraSans-Roman-30"/>
       <use x="63.623046875" xlink:href="#BitstreamVeraSans-Roman-2e"/>
       <use x="95.41015625" xlink:href="#BitstreamVeraSans-Roman-34"/>
      </g>
     </g>
    </g>
    <g id="ytick_4">
     <g id="line2d_138">
      <path clip-path="url(#p02d8c5e96a)" d="M 54.525 169.553465 
L 503.88 169.553465 
" style="fill:none;stroke:#000000;stroke-dasharray:1.000000,3.000000;stroke-dashoffset:0.0;stroke-width:0.5;"/>
     </g>
     <g id="line2d_139">
      <g>
       <use style="stroke:#000000;stroke-width:0.5;" x="54.525" xlink:href="#m1019efb16e" y="169.553465347"/>
      </g>
     </g>
     <g id="line2d_140">
      <g>
       <use style="stroke:#000000;stroke-width:0.5;" x="503.88" xlink:href="#m1b90134e80" y="169.553465347"/>
      </g>
     </g>
     <g id="text_14">
      <!-- 0.6 -->
      <g transform="translate(25.08 173.968465347)scale(0.16 -0.16)">
       <use xlink:href="#BitstreamVeraSans-Roman-30"/>
       <use x="63.623046875" xlink:href="#BitstreamVeraSans-Roman-2e"/>
       <use x="95.41015625" xlink:href="#BitstreamVeraSans-Roman-36"/>
      </g>
     </g>
    </g>
    <g id="ytick_5">
     <g id="line2d_141">
      <path clip-path="url(#p02d8c5e96a)" d="M 54.525 97.771287 
L 503.88 97.771287 
" style="fill:none;stroke:#000000;stroke-dasharray:1.000000,3.000000;stroke-dashoffset:0.0;stroke-width:0.5;"/>
     </g>
     <g id="line2d_142">
      <g>
       <use style="stroke:#000000;stroke-width:0.5;" x="54.525" xlink:href="#m1019efb16e" y="97.7712871287"/>
      </g>
     </g>
     <g id="line2d_143">
      <g>
       <use style="stroke:#000000;stroke-width:0.5;" x="503.88" xlink:href="#m1b90134e80" y="97.7712871287"/>
      </g>
     </g>
     <g id="text_15">
      <!-- 0.8 -->
      <g transform="translate(25.08 102.186287129)scale(0.16 -0.16)">
       <use xlink:href="#BitstreamVeraSans-Roman-30"/>
       <use x="63.623046875" xlink:href="#BitstreamVeraSans-Roman-2e"/>
       <use x="95.41015625" xlink:href="#BitstreamVeraSans-Roman-38"/>
      </g>
     </g>
    </g>
    <g id="ytick_6">
     <g id="line2d_144">
      <path clip-path="url(#p02d8c5e96a)" d="M 54.525 25.989109 
L 503.88 25.989109 
" style="fill:none;stroke:#000000;stroke-dasharray:1.000000,3.000000;stroke-dashoffset:0.0;stroke-width:0.5;"/>
     </g>
     <g id="line2d_145">
      <g>
       <use style="stroke:#000000;stroke-width:0.5;" x="54.525" xlink:href="#m1019efb16e" y="25.9891089109"/>
      </g>
     </g>
     <g id="line2d_146">
      <g>
       <use style="stroke:#000000;stroke-width:0.5;" x="503.88" xlink:href="#m1b90134e80" y="25.9891089109"/>
      </g>
     </g>
     <g id="text_16">
      <!-- 1.0 -->
      <g transform="translate(25.08 30.4041089109)scale(0.16 -0.16)">
       <use xlink:href="#BitstreamVeraSans-Roman-31"/>
       <use x="63.623046875" xlink:href="#BitstreamVeraSans-Roman-2e"/>
       <use x="95.41015625" xlink:href="#BitstreamVeraSans-Roman-30"/>
      </g>
     </g>
    </g>
    <g id="text_17">
     <!-- Fraction of function,target pairs -->
     <defs>
      <path d="M 9.8125 72.90625 
L 51.703125 72.90625 
L 51.703125 64.59375 
L 19.671875 64.59375 
L 19.671875 43.109375 
L 48.578125 43.109375 
L 48.578125 34.8125 
L 19.671875 34.8125 
L 19.671875 0 
L 9.8125 0 
z
" id="BitstreamVeraSans-Roman-46"/>
      <path d="M 11.71875 12.40625 
L 22.015625 12.40625 
L 22.015625 4 
L 14.015625 -11.625 
L 7.71875 -11.625 
L 11.71875 4 
z
" id="BitstreamVeraSans-Roman-2c"/>
      <path d="M 18.109375 8.203125 
L 18.109375 -20.796875 
L 9.078125 -20.796875 
L 9.078125 54.6875 
L 18.109375 54.6875 
L 18.109375 46.390625 
Q 20.953125 51.265625 25.265625 53.625 
Q 29.59375 56 35.59375 56 
Q 45.5625 56 51.78125 48.09375 
Q 58.015625 40.1875 58.015625 27.296875 
Q 58.015625 14.40625 51.78125 6.484375 
Q 45.5625 -1.421875 35.59375 -1.421875 
Q 29.59375 -1.421875 25.265625 0.953125 
Q 20.953125 3.328125 18.109375 8.203125 
M 48.6875 27.296875 
Q 48.6875 37.203125 44.609375 42.84375 
Q 40.53125 48.484375 33.40625 48.484375 
Q 26.265625 48.484375 22.1875 42.84375 
Q 18.109375 37.203125 18.109375 27.296875 
Q 18.109375 17.390625 22.1875 11.75 
Q 26.265625 6.109375 33.40625 6.109375 
Q 40.53125 6.109375 44.609375 11.75 
Q 48.6875 17.390625 48.6875 27.296875 
" id="BitstreamVeraSans-Roman-70"/>
      <path d="M 18.3125 70.21875 
L 18.3125 54.6875 
L 36.8125 54.6875 
L 36.8125 47.703125 
L 18.3125 47.703125 
L 18.3125 18.015625 
Q 18.3125 11.328125 20.140625 9.421875 
Q 21.96875 7.515625 27.59375 7.515625 
L 36.8125 7.515625 
L 36.8125 0 
L 27.59375 0 
Q 17.1875 0 13.234375 3.875 
Q 9.28125 7.765625 9.28125 18.015625 
L 9.28125 47.703125 
L 2.6875 47.703125 
L 2.6875 54.6875 
L 9.28125 54.6875 
L 9.28125 70.21875 
z
" id="BitstreamVeraSans-Roman-74"/>
      <path d="M 8.5 21.578125 
L 8.5 54.6875 
L 17.484375 54.6875 
L 17.484375 21.921875 
Q 17.484375 14.15625 20.5 10.265625 
Q 23.53125 6.390625 29.59375 6.390625 
Q 36.859375 6.390625 41.078125 11.03125 
Q 45.3125 15.671875 45.3125 23.6875 
L 45.3125 54.6875 
L 54.296875 54.6875 
L 54.296875 0 
L 45.3125 0 
L 45.3125 8.40625 
Q 42.046875 3.421875 37.71875 1 
Q 33.40625 -1.421875 27.6875 -1.421875 
Q 18.265625 -1.421875 13.375 4.4375 
Q 8.5 10.296875 8.5 21.578125 
" id="BitstreamVeraSans-Roman-75"/>
      <path d="M 41.109375 46.296875 
Q 39.59375 47.171875 37.8125 47.578125 
Q 36.03125 48 33.890625 48 
Q 26.265625 48 22.1875 43.046875 
Q 18.109375 38.09375 18.109375 28.8125 
L 18.109375 0 
L 9.078125 0 
L 9.078125 54.6875 
L 18.109375 54.6875 
L 18.109375 46.1875 
Q 20.953125 51.171875 25.484375 53.578125 
Q 30.03125 56 36.53125 56 
Q 37.453125 56 38.578125 55.875 
Q 39.703125 55.765625 41.0625 55.515625 
z
" id="BitstreamVeraSans-Roman-72"/>
      <path d="M 48.78125 52.59375 
L 48.78125 44.1875 
Q 44.96875 46.296875 41.140625 47.34375 
Q 37.3125 48.390625 33.40625 48.390625 
Q 24.65625 48.390625 19.8125 42.84375 
Q 14.984375 37.3125 14.984375 27.296875 
Q 14.984375 17.28125 19.8125 11.734375 
Q 24.65625 6.203125 33.40625 6.203125 
Q 37.3125 6.203125 41.140625 7.25 
Q 44.96875 8.296875 48.78125 10.40625 
L 48.78125 2.09375 
Q 45.015625 0.34375 40.984375 -0.53125 
Q 36.96875 -1.421875 32.421875 -1.421875 
Q 20.0625 -1.421875 12.78125 6.34375 
Q 5.515625 14.109375 5.515625 27.296875 
Q 5.515625 40.671875 12.859375 48.328125 
Q 20.21875 56 33.015625 56 
Q 37.15625 56 41.109375 55.140625 
Q 45.0625 54.296875 48.78125 52.59375 
" id="BitstreamVeraSans-Roman-63"/>
     </defs>
     <g transform="translate(16.54453125 338.789375)rotate(-90.0)scale(0.17 -0.17)">
      <use xlink:href="#BitstreamVeraSans-Roman-46"/>
      <use x="57.41015625" xlink:href="#BitstreamVeraSans-Roman-72"/>
      <use x="98.5234375" xlink:href="#BitstreamVeraSans-Roman-61"/>
      <use x="159.802734375" xlink:href="#BitstreamVeraSans-Roman-63"/>
      <use x="214.783203125" xlink:href="#BitstreamVeraSans-Roman-74"/>
      <use x="253.9921875" xlink:href="#BitstreamVeraSans-Roman-69"/>
      <use x="281.775390625" xlink:href="#BitstreamVeraSans-Roman-6f"/>
      <use x="342.95703125" xlink:href="#BitstreamVeraSans-Roman-6e"/>
      <use x="406.3359375" xlink:href="#BitstreamVeraSans-Roman-20"/>
      <use x="438.123046875" xlink:href="#BitstreamVeraSans-Roman-6f"/>
      <use x="499.3046875" xlink:href="#BitstreamVeraSans-Roman-66"/>
      <use x="534.509765625" xlink:href="#BitstreamVeraSans-Roman-20"/>
      <use x="566.296875" xlink:href="#BitstreamVeraSans-Roman-66"/>
      <use x="601.501953125" xlink:href="#BitstreamVeraSans-Roman-75"/>
      <use x="664.880859375" xlink:href="#BitstreamVeraSans-Roman-6e"/>
      <use x="728.259765625" xlink:href="#BitstreamVeraSans-Roman-63"/>
      <use x="783.240234375" xlink:href="#BitstreamVeraSans-Roman-74"/>
      <use x="822.44921875" xlink:href="#BitstreamVeraSans-Roman-69"/>
      <use x="850.232421875" xlink:href="#BitstreamVeraSans-Roman-6f"/>
      <use x="911.4140625" xlink:href="#BitstreamVeraSans-Roman-6e"/>
      <use x="974.79296875" xlink:href="#BitstreamVeraSans-Roman-2c"/>
      <use x="1006.58007812" xlink:href="#BitstreamVeraSans-Roman-74"/>
      <use x="1045.7890625" xlink:href="#BitstreamVeraSans-Roman-61"/>
      <use x="1107.06835938" xlink:href="#BitstreamVeraSans-Roman-72"/>
      <use x="1148.16601562" xlink:href="#BitstreamVeraSans-Roman-67"/>
      <use x="1211.64257812" xlink:href="#BitstreamVeraSans-Roman-65"/>
      <use x="1273.16601562" xlink:href="#BitstreamVeraSans-Roman-74"/>
      <use x="1312.375" xlink:href="#BitstreamVeraSans-Roman-20"/>
      <use x="1344.16210938" xlink:href="#BitstreamVeraSans-Roman-70"/>
      <use x="1407.63867188" xlink:href="#BitstreamVeraSans-Roman-61"/>
      <use x="1468.91796875" xlink:href="#BitstreamVeraSans-Roman-69"/>
      <use x="1496.70117188" xlink:href="#BitstreamVeraSans-Roman-72"/>
      <use x="1537.81445312" xlink:href="#BitstreamVeraSans-Roman-73"/>
     </g>
    </g>
   </g>
   <g id="text_18">
    <!-- 40-D -->
    <defs>
     <path d="M 19.671875 64.796875 
L 19.671875 8.109375 
L 31.59375 8.109375 
Q 46.6875 8.109375 53.6875 14.9375 
Q 60.6875 21.78125 60.6875 36.53125 
Q 60.6875 51.171875 53.6875 57.984375 
Q 46.6875 64.796875 31.59375 64.796875 
z
M 9.8125 72.90625 
L 30.078125 72.90625 
Q 51.265625 72.90625 61.171875 64.09375 
Q 71.09375 55.28125 71.09375 36.53125 
Q 71.09375 17.671875 61.125 8.828125 
Q 51.171875 0 30.078125 0 
L 9.8125 0 
z
" id="BitstreamVeraSans-Roman-44"/>
    </defs>
    <g transform="translate(464.017862903 382.412719678)scale(0.17 -0.17)">
     <use xlink:href="#BitstreamVeraSans-Roman-34"/>
     <use x="63.623046875" xlink:href="#BitstreamVeraSans-Roman-30"/>
     <use x="127.24609375" xlink:href="#BitstreamVeraSans-Roman-2d"/>
     <use x="163.330078125" xlink:href="#BitstreamVeraSans-Roman-44"/>
    </g>
   </g>
   <g id="text_19">
    <!-- 20-D -->
    <g transform="translate(464.017862903 313.501828589)scale(0.17 -0.17)">
     <use xlink:href="#BitstreamVeraSans-Roman-32"/>
     <use x="63.623046875" xlink:href="#BitstreamVeraSans-Roman-30"/>
     <use x="127.24609375" xlink:href="#BitstreamVeraSans-Roman-2d"/>
     <use x="163.330078125" xlink:href="#BitstreamVeraSans-Roman-44"/>
    </g>
   </g>
   <g id="text_20">
    <!-- 10-D -->
    <g transform="translate(464.017862903 244.5909375)scale(0.17 -0.17)">
     <use xlink:href="#BitstreamVeraSans-Roman-31"/>
     <use x="63.623046875" xlink:href="#BitstreamVeraSans-Roman-30"/>
     <use x="127.24609375" xlink:href="#BitstreamVeraSans-Roman-2d"/>
     <use x="163.330078125" xlink:href="#BitstreamVeraSans-Roman-44"/>
    </g>
   </g>
   <g id="text_21">
    <!-- 3-D -->
    <g transform="translate(464.017862903 175.680046411)scale(0.17 -0.17)">
     <use xlink:href="#BitstreamVeraSans-Roman-33"/>
     <use x="63.623046875" xlink:href="#BitstreamVeraSans-Roman-2d"/>
     <use x="99.70703125" xlink:href="#BitstreamVeraSans-Roman-44"/>
    </g>
   </g>
   <g id="text_22">
    <!-- 5-D -->
    <g transform="translate(464.017862903 106.769155322)scale(0.17 -0.17)">
     <use xlink:href="#BitstreamVeraSans-Roman-35"/>
     <use x="63.623046875" xlink:href="#BitstreamVeraSans-Roman-2d"/>
     <use x="99.70703125" xlink:href="#BitstreamVeraSans-Roman-44"/>
    </g>
   </g>
   <g id="text_23">
    <!-- 2-D -->
    <g transform="translate(464.017862903 37.8582642327)scale(0.17 -0.17)">
     <use xlink:href="#BitstreamVeraSans-Roman-32"/>
     <use x="63.623046875" xlink:href="#BitstreamVeraSans-Roman-2d"/>
     <use x="99.70703125" xlink:href="#BitstreamVeraSans-Roman-44"/>
    </g>
   </g>
   <g id="text_24">
    <!-- bbob f5 -->
    <defs>
     <path d="M 48.6875 27.296875 
Q 48.6875 37.203125 44.609375 42.84375 
Q 40.53125 48.484375 33.40625 48.484375 
Q 26.265625 48.484375 22.1875 42.84375 
Q 18.109375 37.203125 18.109375 27.296875 
Q 18.109375 17.390625 22.1875 11.75 
Q 26.265625 6.109375 33.40625 6.109375 
Q 40.53125 6.109375 44.609375 11.75 
Q 48.6875 17.390625 48.6875 27.296875 
M 18.109375 46.390625 
Q 20.953125 51.265625 25.265625 53.625 
Q 29.59375 56 35.59375 56 
Q 45.5625 56 51.78125 48.09375 
Q 58.015625 40.1875 58.015625 27.296875 
Q 58.015625 14.40625 51.78125 6.484375 
Q 45.5625 -1.421875 35.59375 -1.421875 
Q 29.59375 -1.421875 25.265625 0.953125 
Q 20.953125 3.328125 18.109375 8.203125 
L 18.109375 0 
L 9.078125 0 
L 9.078125 75.984375 
L 18.109375 75.984375 
z
" id="BitstreamVeraSans-Roman-62"/>
    </defs>
    <g transform="translate(59.01855 33.77540625)scale(0.102 -0.102)">
     <use xlink:href="#BitstreamVeraSans-Roman-62"/>
     <use x="63.4765625" xlink:href="#BitstreamVeraSans-Roman-62"/>
     <use x="126.953125" xlink:href="#BitstreamVeraSans-Roman-6f"/>
     <use x="188.134765625" xlink:href="#BitstreamVeraSans-Roman-62"/>
     <use x="251.611328125" xlink:href="#BitstreamVeraSans-Roman-20"/>
     <use x="283.3984375" xlink:href="#BitstreamVeraSans-Roman-66"/>
     <use x="318.603515625" xlink:href="#BitstreamVeraSans-Roman-35"/>
    </g>
    <!-- 51 targets: 100..1e-08 -->
    <defs>
     <path d="M 11.71875 12.40625 
L 22.015625 12.40625 
L 22.015625 0 
L 11.71875 0 
z
M 11.71875 51.703125 
L 22.015625 51.703125 
L 22.015625 39.3125 
L 11.71875 39.3125 
z
" id="BitstreamVeraSans-Roman-3a"/>
    </defs>
    <g transform="translate(59.01855 45.197175)scale(0.102 -0.102)">
     <use xlink:href="#BitstreamVeraSans-Roman-35"/>
     <use x="63.623046875" xlink:href="#BitstreamVeraSans-Roman-31"/>
     <use x="127.24609375" xlink:href="#BitstreamVeraSans-Roman-20"/>
     <use x="159.033203125" xlink:href="#BitstreamVeraSans-Roman-74"/>
     <use x="198.2421875" xlink:href="#BitstreamVeraSans-Roman-61"/>
     <use x="259.521484375" xlink:href="#BitstreamVeraSans-Roman-72"/>
     <use x="300.619140625" xlink:href="#BitstreamVeraSans-Roman-67"/>
     <use x="364.095703125" xlink:href="#BitstreamVeraSans-Roman-65"/>
     <use x="425.619140625" xlink:href="#BitstreamVeraSans-Roman-74"/>
     <use x="464.828125" xlink:href="#BitstreamVeraSans-Roman-73"/>
     <use x="516.927734375" xlink:href="#BitstreamVeraSans-Roman-3a"/>
     <use x="550.619140625" xlink:href="#BitstreamVeraSans-Roman-20"/>
     <use x="582.40625" xlink:href="#BitstreamVeraSans-Roman-31"/>
     <use x="646.029296875" xlink:href="#BitstreamVeraSans-Roman-30"/>
     <use x="709.65234375" xlink:href="#BitstreamVeraSans-Roman-30"/>
     <use x="773.275390625" xlink:href="#BitstreamVeraSans-Roman-2e"/>
     <use x="805.0625" xlink:href="#BitstreamVeraSans-Roman-2e"/>
     <use x="836.849609375" xlink:href="#BitstreamVeraSans-Roman-31"/>
     <use x="900.47265625" xlink:href="#BitstreamVeraSans-Roman-65"/>
     <use x="961.99609375" xlink:href="#BitstreamVeraSans-Roman-2d"/>
     <use x="998.080078125" xlink:href="#BitstreamVeraSans-Roman-30"/>
     <use x="1061.703125" xlink:href="#BitstreamVeraSans-Roman-38"/>
    </g>
    <!-- 15 instances -->
    <g transform="translate(59.01855 56.61894375)scale(0.102 -0.102)">
     <use xlink:href="#BitstreamVeraSans-Roman-31"/>
     <use x="63.623046875" xlink:href="#BitstreamVeraSans-Roman-35"/>
     <use x="127.24609375" xlink:href="#BitstreamVeraSans-Roman-20"/>
     <use x="159.033203125" xlink:href="#BitstreamVeraSans-Roman-69"/>
     <use x="186.81640625" xlink:href="#BitstreamVeraSans-Roman-6e"/>
     <use x="250.1953125" xlink:href="#BitstreamVeraSans-Roman-73"/>
     <use x="302.294921875" xlink:href="#BitstreamVeraSans-Roman-74"/>
     <use x="341.50390625" xlink:href="#BitstreamVeraSans-Roman-61"/>
     <use x="402.783203125" xlink:href="#BitstreamVeraSans-Roman-6e"/>
     <use x="466.162109375" xlink:href="#BitstreamVeraSans-Roman-63"/>
     <use x="521.142578125" xlink:href="#BitstreamVeraSans-Roman-65"/>
     <use x="582.666015625" xlink:href="#BitstreamVeraSans-Roman-73"/>
    </g>
   </g>
   <g id="text_25">
    <!-- v2.2.1.10 -->
    <g style="fill:#808080;" transform="translate(255.5696875 379.1953125)scale(0.1 -0.1)">
     <use xlink:href="#BitstreamVeraSans-Roman-76"/>
     <use x="59.1796875" xlink:href="#BitstreamVeraSans-Roman-32"/>
     <use x="122.802734375" xlink:href="#BitstreamVeraSans-Roman-2e"/>
     <use x="154.58984375" xlink:href="#BitstreamVeraSans-Roman-32"/>
     <use x="218.212890625" xlink:href="#BitstreamVeraSans-Roman-2e"/>
     <use x="250.0" xlink:href="#BitstreamVeraSans-Roman-31"/>
     <use x="313.623046875" xlink:href="#BitstreamVeraSans-Roman-2e"/>
     <use x="345.41015625" xlink:href="#BitstreamVeraSans-Roman-31"/>
     <use x="409.033203125" xlink:href="#BitstreamVeraSans-Roman-30"/>
    </g>
   </g>
   <g id="text_26">
    <!-- 5 Linear slope -->
    <defs>
     <path d="M 9.8125 72.90625 
L 19.671875 72.90625 
L 19.671875 8.296875 
L 55.171875 8.296875 
L 55.171875 0 
L 9.8125 0 
z
" id="BitstreamVeraSans-Roman-4c"/>
    </defs>
    <g transform="translate(208.79625 17.4)scale(0.2 -0.2)">
     <use xlink:href="#BitstreamVeraSans-Roman-35"/>
     <use x="63.623046875" xlink:href="#BitstreamVeraSans-Roman-20"/>
     <use x="95.41015625" xlink:href="#BitstreamVeraSans-Roman-4c"/>
     <use x="151.123046875" xlink:href="#BitstreamVeraSans-Roman-69"/>
     <use x="178.90625" xlink:href="#BitstreamVeraSans-Roman-6e"/>
     <use x="242.28515625" xlink:href="#BitstreamVeraSans-Roman-65"/>
     <use x="303.80859375" xlink:href="#BitstreamVeraSans-Roman-61"/>
     <use x="365.087890625" xlink:href="#BitstreamVeraSans-Roman-72"/>
     <use x="406.201171875" xlink:href="#BitstreamVeraSans-Roman-20"/>
     <use x="437.98828125" xlink:href="#BitstreamVeraSans-Roman-73"/>
     <use x="490.087890625" xlink:href="#BitstreamVeraSans-Roman-6c"/>
     <use x="517.87109375" xlink:href="#BitstreamVeraSans-Roman-6f"/>
     <use x="579.052734375" xlink:href="#BitstreamVeraSans-Roman-70"/>
     <use x="642.529296875" xlink:href="#BitstreamVeraSans-Roman-65"/>
    </g>
   </g>
  </g>
 </g>
 <defs>
  <clipPath id="p02d8c5e96a">
   <rect height="362.5" width="449.355" x="54.525" y="22.4"/>
  </clipPath>
 </defs>
</svg>
