<?xml version="1.0" encoding="utf-8" standalone="no"?>
<!DOCTYPE svg PUBLIC "-//W3C//DTD SVG 1.1//EN"
  "http://www.w3.org/Graphics/SVG/1.1/DTD/svg11.dtd">
<!-- Created with matplotlib (http://matplotlib.org/) -->
<svg height="432pt" version="1.1" viewBox="0 0 576 432" width="576pt" xmlns="http://www.w3.org/2000/svg" xmlns:xlink="http://www.w3.org/1999/xlink">
 <defs>
  <style type="text/css">
*{stroke-linecap:butt;stroke-linejoin:round;stroke-miterlimit:100000;}
  </style>
 </defs>
 <g id="figure_1">
  <g id="patch_1">
   <path d="M 0 432 
L 576 432 
L 576 0 
L 0 0 
z
" style="fill:#ffffff;"/>
  </g>
  <g id="axes_1">
   <g id="patch_2">
    <path d="M 22.9 401 
L 566.64 401 
L 566.64 26.6 
L 22.9 26.6 
z
" style="fill:#ffffff;"/>
   </g>
   <g id="line2d_1">
    <path clip-path="url(#p8d5456c3db)" d="M 40.697744 77.860118 
L 109.189854 49.82581 
L 195.479708 17.655354 
L 263.607813 -1 
" style="fill:none;stroke:#f5deb3;stroke-linecap:square;stroke-width:10.0;"/>
    <defs>
     <path d="M -0 17.67767 
L 10.606602 0 
L 0 -17.67767 
L -10.606602 -0 
z
" id="mc777879269" style="stroke:#000000;stroke-linejoin:miter;stroke-width:0.5;"/>
    </defs>
    <g clip-path="url(#p8d5456c3db)">
     <use style="fill:#f5deb3;stroke:#000000;stroke-linejoin:miter;stroke-width:0.5;" x="40.6977436536" xlink:href="#mc777879269" y="77.8601176831"/>
     <use style="fill:#f5deb3;stroke:#000000;stroke-linejoin:miter;stroke-width:0.5;" x="109.189853905" xlink:href="#mc777879269" y="49.8258101056"/>
     <use style="fill:#f5deb3;stroke:#000000;stroke-linejoin:miter;stroke-width:0.5;" x="195.47970781" xlink:href="#mc777879269" y="17.6553544178"/>
     <use style="fill:#f5deb3;stroke:#000000;stroke-linejoin:miter;stroke-width:0.5;" x="263.607813159" xlink:href="#mc777879269" y="-1.0"/>
    </g>
   </g>
   <g id="line2d_2">
    <defs>
     <path d="M -15 0 
L 15 0 
M 0 15 
L 0 -15 
" id="m4e0c9e6401" style="stroke:#0000ff;stroke-width:5.0;"/>
    </defs>
    <g clip-path="url(#p8d5456c3db)">
     <use style="fill:#0000ff;stroke:#0000ff;stroke-width:5.0;" x="40.6977436536" xlink:href="#m4e0c9e6401" y="373.029661443"/>
    </g>
   </g>
   <g id="line2d_3">
    <g clip-path="url(#p8d5456c3db)">
     <use style="fill:#0000ff;stroke:#0000ff;stroke-width:5.0;" x="109.189853905" xlink:href="#m4e0c9e6401" y="397.656322107"/>
    </g>
   </g>
   <g id="line2d_4">
    <path clip-path="url(#p8d5456c3db)" d="M 36.672739 373.029661 
L 39.490242 259.342352 
L 36.672739 222.104337 
L 44.722748 222.104337 
L 41.905245 259.342352 
L 44.722748 373.029661 
L 36.672739 373.029661 
" style="fill:none;stroke:#000000;stroke-linecap:square;"/>
    <defs>
     <path d="M 0 0 
C 0 0 0 0 0 0 
C 0 0 0 0 0 0 
C 0 0 0 0 0 0 
C 0 0 0 0 0 0 
C 0 0 0 0 0 0 
C 0 0 0 0 0 0 
C 0 0 0 0 0 0 
C 0 0 0 0 0 0 
z
" id="m77b26188bd" style="stroke:#000000;stroke-width:2.0;"/>
    </defs>
    <g clip-path="url(#p8d5456c3db)">
     <use style="stroke:#000000;stroke-width:2.0;" x="36.6727392742" xlink:href="#m77b26188bd" y="373.029661443"/>
     <use style="stroke:#000000;stroke-width:2.0;" x="39.4902423398" xlink:href="#m77b26188bd" y="259.342352429"/>
     <use style="stroke:#000000;stroke-width:2.0;" x="36.6727392742" xlink:href="#m77b26188bd" y="222.104337361"/>
     <use style="stroke:#000000;stroke-width:2.0;" x="44.722748033" xlink:href="#m77b26188bd" y="222.104337361"/>
     <use style="stroke:#000000;stroke-width:2.0;" x="41.9052449674" xlink:href="#m77b26188bd" y="259.342352429"/>
     <use style="stroke:#000000;stroke-width:2.0;" x="44.722748033" xlink:href="#m77b26188bd" y="373.029661443"/>
     <use style="stroke:#000000;stroke-width:2.0;" x="36.6727392742" xlink:href="#m77b26188bd" y="373.029661443"/>
    </g>
   </g>
   <g id="line2d_5">
    <path clip-path="url(#p8d5456c3db)" d="M 36.672739 373.029661 
L 44.722748 373.029661 
L 44.722748 222.104337 
L 36.672739 222.104337 
L 36.672739 373.029661 
" style="fill:none;"/>
    <defs>
     <path d="M 0 3 
C 0.795609 3 1.55874 2.683901 2.12132 2.12132 
C 2.683901 1.55874 3 0.795609 3 0 
C 3 -0.795609 2.683901 -1.55874 2.12132 -2.12132 
C 1.55874 -2.683901 0.795609 -3 0 -3 
C -0.795609 -3 -1.55874 -2.683901 -2.12132 -2.12132 
C -2.683901 -1.55874 -3 -0.795609 -3 0 
C -3 0.795609 -2.683901 1.55874 -2.12132 2.12132 
C -1.55874 2.683901 -0.795609 3 0 3 
z
" id="me7b70a8da0" style="stroke:#000000;stroke-width:2.0;"/>
    </defs>
    <g clip-path="url(#p8d5456c3db)">
     <use style="stroke:#000000;stroke-width:2.0;" x="36.6727392742" xlink:href="#me7b70a8da0" y="373.029661443"/>
     <use style="stroke:#000000;stroke-width:2.0;" x="44.722748033" xlink:href="#me7b70a8da0" y="373.029661443"/>
     <use style="stroke:#000000;stroke-width:2.0;" x="44.722748033" xlink:href="#me7b70a8da0" y="222.104337361"/>
     <use style="stroke:#000000;stroke-width:2.0;" x="36.6727392742" xlink:href="#me7b70a8da0" y="222.104337361"/>
     <use style="stroke:#000000;stroke-width:2.0;" x="36.6727392742" xlink:href="#me7b70a8da0" y="373.029661443"/>
    </g>
   </g>
   <g id="line2d_6">
    <path clip-path="url(#p8d5456c3db)" d="M 36.672739 259.342352 
L 44.722748 259.342352 
" style="fill:none;stroke:#000000;stroke-linecap:square;stroke-width:2.0;"/>
    <g clip-path="url(#p8d5456c3db)">
     <use style="stroke:#000000;stroke-width:2.0;" x="36.6727392742" xlink:href="#m77b26188bd" y="259.342352429"/>
     <use style="stroke:#000000;stroke-width:2.0;" x="44.722748033" xlink:href="#m77b26188bd" y="259.342352429"/>
    </g>
   </g>
   <g id="line2d_7">
    <path clip-path="url(#p8d5456c3db)" d="M 105.16485 152.094251 
L 107.982353 114.413868 
L 105.16485 68.699615 
L 113.214858 68.699615 
L 110.397355 114.413868 
L 113.214858 152.094251 
L 105.16485 152.094251 
" style="fill:none;stroke:#000000;stroke-linecap:square;"/>
    <g clip-path="url(#p8d5456c3db)">
     <use style="stroke:#000000;stroke-width:2.0;" x="105.164849526" xlink:href="#m77b26188bd" y="152.094251222"/>
     <use style="stroke:#000000;stroke-width:2.0;" x="107.982352591" xlink:href="#m77b26188bd" y="114.413868442"/>
     <use style="stroke:#000000;stroke-width:2.0;" x="105.164849526" xlink:href="#m77b26188bd" y="68.6996152095"/>
     <use style="stroke:#000000;stroke-width:2.0;" x="113.214858284" xlink:href="#m77b26188bd" y="68.6996152095"/>
     <use style="stroke:#000000;stroke-width:2.0;" x="110.397355219" xlink:href="#m77b26188bd" y="114.413868442"/>
     <use style="stroke:#000000;stroke-width:2.0;" x="113.214858284" xlink:href="#m77b26188bd" y="152.094251222"/>
     <use style="stroke:#000000;stroke-width:2.0;" x="105.164849526" xlink:href="#m77b26188bd" y="152.094251222"/>
    </g>
   </g>
   <g id="line2d_8">
    <path clip-path="url(#p8d5456c3db)" d="M 105.16485 152.094251 
L 113.214858 152.094251 
L 113.214858 68.699615 
L 105.16485 68.699615 
L 105.16485 152.094251 
" style="fill:none;"/>
    <g clip-path="url(#p8d5456c3db)">
     <use style="stroke:#000000;stroke-width:2.0;" x="105.164849526" xlink:href="#me7b70a8da0" y="152.094251222"/>
     <use style="stroke:#000000;stroke-width:2.0;" x="113.214858284" xlink:href="#me7b70a8da0" y="152.094251222"/>
     <use style="stroke:#000000;stroke-width:2.0;" x="113.214858284" xlink:href="#me7b70a8da0" y="68.6996152095"/>
     <use style="stroke:#000000;stroke-width:2.0;" x="105.164849526" xlink:href="#me7b70a8da0" y="68.6996152095"/>
     <use style="stroke:#000000;stroke-width:2.0;" x="105.164849526" xlink:href="#me7b70a8da0" y="152.094251222"/>
    </g>
   </g>
   <g id="line2d_9">
    <path clip-path="url(#p8d5456c3db)" d="M 105.16485 114.413868 
L 113.214858 114.413868 
" style="fill:none;stroke:#000000;stroke-linecap:square;stroke-width:2.0;"/>
    <g clip-path="url(#p8d5456c3db)">
     <use style="stroke:#000000;stroke-width:2.0;" x="105.164849526" xlink:href="#m77b26188bd" y="114.413868442"/>
     <use style="stroke:#000000;stroke-width:2.0;" x="113.214858284" xlink:href="#m77b26188bd" y="114.413868442"/>
    </g>
   </g>
   <g id="line2d_10">
    <path clip-path="url(#p8d5456c3db)" d="M 40.697744 222.104337 
L 109.189854 118.563362 
" style="fill:none;stroke:#000000;stroke-linecap:square;stroke-width:4.0;"/>
    <g clip-path="url(#p8d5456c3db)">
     <use style="stroke:#000000;stroke-width:2.0;" x="40.6977436536" xlink:href="#m77b26188bd" y="222.104337361"/>
     <use style="stroke:#000000;stroke-width:2.0;" x="109.189853905" xlink:href="#m77b26188bd" y="118.563361961"/>
    </g>
   </g>
   <g id="line2d_11">
    <path clip-path="url(#p8d5456c3db)" d="M 40.697744 222.104337 
L 109.189854 118.563362 
" style="fill:none;"/>
    <defs>
     <path d="M 0 10 
C 2.652031 10 5.195799 8.946337 7.071068 7.071068 
C 8.946337 5.195799 10 2.652031 10 0 
C 10 -2.652031 8.946337 -5.195799 7.071068 -7.071068 
C 5.195799 -8.946337 2.652031 -10 0 -10 
C -2.652031 -10 -5.195799 -8.946337 -7.071068 -7.071068 
C -8.946337 -5.195799 -10 -2.652031 -10 0 
C -10 2.652031 -8.946337 5.195799 -7.071068 7.071068 
C -5.195799 8.946337 -2.652031 10 0 10 
z
" id="m3033558958" style="stroke:#000000;stroke-width:2.0;"/>
    </defs>
    <g clip-path="url(#p8d5456c3db)">
     <use style="stroke:#000000;stroke-width:2.0;" x="40.6977436536" xlink:href="#m3033558958" y="222.104337361"/>
     <use style="stroke:#000000;stroke-width:2.0;" x="109.189853905" xlink:href="#m3033558958" y="118.563361961"/>
    </g>
   </g>
   <g id="line2d_12">
    <path clip-path="url(#p8d5456c3db)" d="M 35.331071 158.849742 
L 39.087742 117.650009 
L 35.331071 81.248707 
L 46.064416 81.248707 
L 42.307745 117.650009 
L 46.064416 158.849742 
L 35.331071 158.849742 
" style="fill:none;stroke:#0000ff;stroke-linecap:square;"/>
    <defs>
     <path d="M 0 0 
C 0 0 0 0 0 0 
C 0 0 0 0 0 0 
C 0 0 0 0 0 0 
C 0 0 0 0 0 0 
C 0 0 0 0 0 0 
C 0 0 0 0 0 0 
C 0 0 0 0 0 0 
C 0 0 0 0 0 0 
z
" id="m5000f4ae33" style="stroke:#0000ff;stroke-width:0.5;"/>
    </defs>
    <g clip-path="url(#p8d5456c3db)">
     <use style="fill:#0000ff;stroke:#0000ff;stroke-width:0.5;" x="35.3310711478" xlink:href="#m5000f4ae33" y="158.84974243"/>
     <use style="fill:#0000ff;stroke:#0000ff;stroke-width:0.5;" x="39.0877419019" xlink:href="#m5000f4ae33" y="117.650009133"/>
     <use style="fill:#0000ff;stroke:#0000ff;stroke-width:0.5;" x="35.3310711478" xlink:href="#m5000f4ae33" y="81.2487073645"/>
     <use style="fill:#0000ff;stroke:#0000ff;stroke-width:0.5;" x="46.0644161594" xlink:href="#m5000f4ae33" y="81.2487073645"/>
     <use style="fill:#0000ff;stroke:#0000ff;stroke-width:0.5;" x="42.3077454053" xlink:href="#m5000f4ae33" y="117.650009133"/>
     <use style="fill:#0000ff;stroke:#0000ff;stroke-width:0.5;" x="46.0644161594" xlink:href="#m5000f4ae33" y="158.84974243"/>
     <use style="fill:#0000ff;stroke:#0000ff;stroke-width:0.5;" x="35.3310711478" xlink:href="#m5000f4ae33" y="158.84974243"/>
    </g>
   </g>
   <g id="line2d_13">
    <path clip-path="url(#p8d5456c3db)" d="M 35.331071 158.849742 
L 46.064416 158.849742 
L 46.064416 81.248707 
L 35.331071 81.248707 
L 35.331071 158.849742 
" style="fill:none;"/>
    <defs>
     <path d="M 0 1.5 
C 0.397805 1.5 0.77937 1.341951 1.06066 1.06066 
C 1.341951 0.77937 1.5 0.397805 1.5 0 
C 1.5 -0.397805 1.341951 -0.77937 1.06066 -1.06066 
C 0.77937 -1.341951 0.397805 -1.5 0 -1.5 
C -0.397805 -1.5 -0.77937 -1.341951 -1.06066 -1.06066 
C -1.341951 -0.77937 -1.5 -0.397805 -1.5 0 
C -1.5 0.397805 -1.341951 0.77937 -1.06066 1.06066 
C -0.77937 1.341951 -0.397805 1.5 0 1.5 
z
" id="mccd35502ff" style="stroke:#0000ff;stroke-width:0.5;"/>
    </defs>
    <g clip-path="url(#p8d5456c3db)">
     <use style="fill:#0000ff;stroke:#0000ff;stroke-width:0.5;" x="35.3310711478" xlink:href="#mccd35502ff" y="158.84974243"/>
     <use style="fill:#0000ff;stroke:#0000ff;stroke-width:0.5;" x="46.0644161594" xlink:href="#mccd35502ff" y="158.84974243"/>
     <use style="fill:#0000ff;stroke:#0000ff;stroke-width:0.5;" x="46.0644161594" xlink:href="#mccd35502ff" y="81.2487073645"/>
     <use style="fill:#0000ff;stroke:#0000ff;stroke-width:0.5;" x="35.3310711478" xlink:href="#mccd35502ff" y="81.2487073645"/>
     <use style="fill:#0000ff;stroke:#0000ff;stroke-width:0.5;" x="35.3310711478" xlink:href="#mccd35502ff" y="158.84974243"/>
    </g>
   </g>
   <g id="line2d_14">
    <path clip-path="url(#p8d5456c3db)" d="M 35.331071 117.650009 
L 46.064416 117.650009 
" style="fill:none;stroke:#0000ff;stroke-linecap:square;stroke-width:2.0;"/>
    <g clip-path="url(#p8d5456c3db)">
     <use style="fill:#0000ff;stroke:#0000ff;stroke-width:0.5;" x="35.3310711478" xlink:href="#m5000f4ae33" y="117.650009133"/>
     <use style="fill:#0000ff;stroke:#0000ff;stroke-width:0.5;" x="46.0644161594" xlink:href="#m5000f4ae33" y="117.650009133"/>
    </g>
   </g>
   <g id="line2d_15">
    <path clip-path="url(#p8d5456c3db)" d="M 103.823181 160.052491 
L 107.579852 120.749499 
L 103.823181 103.43581 
L 114.556526 103.43581 
L 110.799856 120.749499 
L 114.556526 160.052491 
L 103.823181 160.052491 
" style="fill:none;stroke:#0000ff;stroke-linecap:square;"/>
    <g clip-path="url(#p8d5456c3db)">
     <use style="fill:#0000ff;stroke:#0000ff;stroke-width:0.5;" x="103.823181399" xlink:href="#m5000f4ae33" y="160.052491009"/>
     <use style="fill:#0000ff;stroke:#0000ff;stroke-width:0.5;" x="107.579852153" xlink:href="#m5000f4ae33" y="120.749498871"/>
     <use style="fill:#0000ff;stroke:#0000ff;stroke-width:0.5;" x="103.823181399" xlink:href="#m5000f4ae33" y="103.435810444"/>
     <use style="fill:#0000ff;stroke:#0000ff;stroke-width:0.5;" x="114.556526411" xlink:href="#m5000f4ae33" y="103.435810444"/>
     <use style="fill:#0000ff;stroke:#0000ff;stroke-width:0.5;" x="110.799855657" xlink:href="#m5000f4ae33" y="120.749498871"/>
     <use style="fill:#0000ff;stroke:#0000ff;stroke-width:0.5;" x="114.556526411" xlink:href="#m5000f4ae33" y="160.052491009"/>
     <use style="fill:#0000ff;stroke:#0000ff;stroke-width:0.5;" x="103.823181399" xlink:href="#m5000f4ae33" y="160.052491009"/>
    </g>
   </g>
   <g id="line2d_16">
    <path clip-path="url(#p8d5456c3db)" d="M 103.823181 160.052491 
L 114.556526 160.052491 
L 114.556526 103.43581 
L 103.823181 103.43581 
L 103.823181 160.052491 
" style="fill:none;"/>
    <g clip-path="url(#p8d5456c3db)">
     <use style="fill:#0000ff;stroke:#0000ff;stroke-width:0.5;" x="103.823181399" xlink:href="#mccd35502ff" y="160.052491009"/>
     <use style="fill:#0000ff;stroke:#0000ff;stroke-width:0.5;" x="114.556526411" xlink:href="#mccd35502ff" y="160.052491009"/>
     <use style="fill:#0000ff;stroke:#0000ff;stroke-width:0.5;" x="114.556526411" xlink:href="#mccd35502ff" y="103.435810444"/>
     <use style="fill:#0000ff;stroke:#0000ff;stroke-width:0.5;" x="103.823181399" xlink:href="#mccd35502ff" y="103.435810444"/>
     <use style="fill:#0000ff;stroke:#0000ff;stroke-width:0.5;" x="103.823181399" xlink:href="#mccd35502ff" y="160.052491009"/>
    </g>
   </g>
   <g id="line2d_17">
    <path clip-path="url(#p8d5456c3db)" d="M 103.823181 120.749499 
L 114.556526 120.749499 
" style="fill:none;stroke:#0000ff;stroke-linecap:square;stroke-width:2.0;"/>
    <g clip-path="url(#p8d5456c3db)">
     <use style="fill:#0000ff;stroke:#0000ff;stroke-width:0.5;" x="103.823181399" xlink:href="#m5000f4ae33" y="120.749498871"/>
     <use style="fill:#0000ff;stroke:#0000ff;stroke-width:0.5;" x="114.556526411" xlink:href="#m5000f4ae33" y="120.749498871"/>
    </g>
   </g>
   <g id="line2d_18">
    <path clip-path="url(#p8d5456c3db)" d="M 40.697744 108.417028 
L 109.189854 118.563362 
" style="fill:none;stroke:#0000ff;stroke-linecap:square;stroke-width:4.0;"/>
    <g clip-path="url(#p8d5456c3db)">
     <use style="fill:#0000ff;stroke:#0000ff;stroke-width:0.5;" x="40.6977436536" xlink:href="#m5000f4ae33" y="108.417028347"/>
     <use style="fill:#0000ff;stroke:#0000ff;stroke-width:0.5;" x="109.189853905" xlink:href="#m5000f4ae33" y="118.563361961"/>
    </g>
   </g>
   <g id="line2d_19">
    <path clip-path="url(#p8d5456c3db)" d="M 40.697744 108.417028 
L 109.189854 118.563362 
" style="fill:none;"/>
    <defs>
     <path d="M 0 5 
C 1.326016 5 2.597899 4.473168 3.535534 3.535534 
C 4.473168 2.597899 5 1.326016 5 0 
C 5 -1.326016 4.473168 -2.597899 3.535534 -3.535534 
C 2.597899 -4.473168 1.326016 -5 0 -5 
C -1.326016 -5 -2.597899 -4.473168 -3.535534 -3.535534 
C -4.473168 -2.597899 -5 -1.326016 -5 0 
C -5 1.326016 -4.473168 2.597899 -3.535534 3.535534 
C -2.597899 4.473168 -1.326016 5 0 5 
z
" id="m7d86f7c8f5" style="stroke:#0000ff;stroke-width:0.5;"/>
    </defs>
    <g clip-path="url(#p8d5456c3db)">
     <use style="fill:#0000ff;stroke:#0000ff;stroke-width:0.5;" x="40.6977436536" xlink:href="#m7d86f7c8f5" y="108.417028347"/>
     <use style="fill:#0000ff;stroke:#0000ff;stroke-width:0.5;" x="109.189853905" xlink:href="#m7d86f7c8f5" y="118.563361961"/>
    </g>
   </g>
   <g id="line2d_20"/>
   <g id="line2d_21"/>
   <g id="line2d_22"/>
   <g id="line2d_23"/>
   <g id="line2d_24"/>
   <g id="line2d_25"/>
   <g id="line2d_26"/>
   <g id="line2d_27">
    <defs>
     <path d="M -10 10 
L 10 -10 
M -10 -10 
L 10 10 
" id="m33b7e6138c" style="stroke:#ff0000;stroke-width:0.5;"/>
    </defs>
    <g clip-path="url(#p8d5456c3db)">
     <use style="fill:#ff0000;stroke:#ff0000;stroke-width:0.5;" x="40.6977436536" xlink:href="#m33b7e6138c" y="269.488686042"/>
     <use style="fill:#ff0000;stroke:#ff0000;stroke-width:0.5;" x="109.189853905" xlink:href="#m33b7e6138c" y="279.467930641"/>
     <use style="fill:#ff0000;stroke:#ff0000;stroke-width:0.5;" x="195.47970781" xlink:href="#m33b7e6138c" y="283.041715409"/>
     <use style="fill:#ff0000;stroke:#ff0000;stroke-width:0.5;" x="312.567743654" xlink:href="#m33b7e6138c" y="296.94082445"/>
     <use style="fill:#ff0000;stroke:#ff0000;stroke-width:0.5;" x="429.655779497" xlink:href="#m33b7e6138c" y="291.151987362"/>
     <use style="fill:#ff0000;stroke:#ff0000;stroke-width:0.5;" x="546.74381534" xlink:href="#m33b7e6138c" y="303.824048236"/>
    </g>
   </g>
   <g id="line2d_28">
    <path clip-path="url(#p8d5456c3db)" d="M -348.260292 652.733047 
M 262.865198 433 
L 577 320.051353 
" style="fill:none;stroke:#000000;stroke-dasharray:1.000000,3.000000;stroke-dashoffset:0.0;stroke-width:0.5;"/>
   </g>
   <g id="line2d_29">
    <path clip-path="url(#p8d5456c3db)" d="M -348.260292 512.881354 
M -1 388.022281 
L 577 180.199661 
" style="fill:none;stroke:#000000;stroke-dasharray:1.000000,3.000000;stroke-dashoffset:0.0;stroke-width:0.5;"/>
   </g>
   <g id="line2d_30">
    <path clip-path="url(#p8d5456c3db)" d="M -348.260292 373.029661 
M -1 248.170589 
L 577 40.347968 
" style="fill:none;stroke:#000000;stroke-dasharray:1.000000,3.000000;stroke-dashoffset:0.0;stroke-width:0.5;"/>
   </g>
   <g id="line2d_31">
    <path clip-path="url(#p8d5456c3db)" d="M -348.260292 233.177969 
M -1 108.318896 
L 303.039674 -1 
" style="fill:none;stroke:#000000;stroke-dasharray:1.000000,3.000000;stroke-dashoffset:0.0;stroke-width:0.5;"/>
   </g>
   <g id="line2d_32">
    <path clip-path="url(#p8d5456c3db)" d="M -348.260292 93.326276 
" style="fill:none;stroke:#000000;stroke-dasharray:1.000000,3.000000;stroke-dashoffset:0.0;stroke-width:0.5;"/>
   </g>
   <g id="line2d_33">
    <path clip-path="url(#p8d5456c3db)" d="M -348.260292 -46.525417 
" style="fill:none;stroke:#000000;stroke-dasharray:1.000000,3.000000;stroke-dashoffset:0.0;stroke-width:0.5;"/>
   </g>
   <g id="line2d_34">
    <path clip-path="url(#p8d5456c3db)" d="M -348.260292 -186.37711 
" style="fill:none;stroke:#000000;stroke-dasharray:1.000000,3.000000;stroke-dashoffset:0.0;stroke-width:0.5;"/>
   </g>
   <g id="line2d_35">
    <path clip-path="url(#p8d5456c3db)" d="M -348.260292 -326.228802 
" style="fill:none;stroke:#000000;stroke-dasharray:1.000000,3.000000;stroke-dashoffset:0.0;stroke-width:0.5;"/>
   </g>
   <g id="line2d_36">
    <path clip-path="url(#p8d5456c3db)" d="M -348.260292 -466.080495 
" style="fill:none;stroke:#000000;stroke-dasharray:1.000000,3.000000;stroke-dashoffset:0.0;stroke-width:0.5;"/>
   </g>
   <g id="patch_3">
    <path d="M 22.9 26.6 
L 566.64 26.6 
" style="fill:none;stroke:#000000;stroke-linecap:square;stroke-linejoin:miter;"/>
   </g>
   <g id="patch_4">
    <path d="M 566.64 401 
L 566.64 26.6 
" style="fill:none;stroke:#000000;stroke-linecap:square;stroke-linejoin:miter;"/>
   </g>
   <g id="patch_5">
    <path d="M 22.9 401 
L 566.64 401 
" style="fill:none;stroke:#000000;stroke-linecap:square;stroke-linejoin:miter;"/>
   </g>
   <g id="patch_6">
    <path d="M 22.9 401 
L 22.9 26.6 
" style="fill:none;stroke:#000000;stroke-linecap:square;stroke-linejoin:miter;"/>
   </g>
   <g id="matplotlib.axis_1">
    <g id="xtick_1">
     <g id="line2d_37">
      <defs>
       <path d="M 0 0 
L 0 -4 
" id="m398b503327" style="stroke:#000000;stroke-width:0.5;"/>
      </defs>
      <g>
       <use style="stroke:#000000;stroke-width:0.5;" x="40.6977436536" xlink:href="#m398b503327" y="401.0"/>
      </g>
     </g>
     <g id="line2d_38">
      <defs>
       <path d="M 0 0 
L 0 4 
" id="mc6d7a80c84" style="stroke:#000000;stroke-width:0.5;"/>
      </defs>
      <g>
       <use style="stroke:#000000;stroke-width:0.5;" x="40.6977436536" xlink:href="#mc6d7a80c84" y="26.6"/>
      </g>
     </g>
     <g id="text_1">
      <!-- 2 -->
      <defs>
       <path d="M 19.1875 8.296875 
L 53.609375 8.296875 
L 53.609375 0 
L 7.328125 0 
L 7.328125 8.296875 
Q 12.9375 14.109375 22.625 23.890625 
Q 32.328125 33.6875 34.8125 36.53125 
Q 39.546875 41.84375 41.421875 45.53125 
Q 43.3125 49.21875 43.3125 52.78125 
Q 43.3125 58.59375 39.234375 62.25 
Q 35.15625 65.921875 28.609375 65.921875 
Q 23.96875 65.921875 18.8125 64.3125 
Q 13.671875 62.703125 7.8125 59.421875 
L 7.8125 69.390625 
Q 13.765625 71.78125 18.9375 73 
Q 24.125 74.21875 28.421875 74.21875 
Q 39.75 74.21875 46.484375 68.546875 
Q 53.21875 62.890625 53.21875 53.421875 
Q 53.21875 48.921875 51.53125 44.890625 
Q 49.859375 40.875 45.40625 35.40625 
Q 44.1875 33.984375 37.640625 27.21875 
Q 31.109375 20.453125 19.1875 8.296875 
" id="BitstreamVeraSans-Roman-32"/>
      </defs>
      <g transform="translate(33.0627436536 423.23625)scale(0.24 -0.24)">
       <use xlink:href="#BitstreamVeraSans-Roman-32"/>
      </g>
     </g>
    </g>
    <g id="xtick_2">
     <g id="line2d_39">
      <g>
       <use style="stroke:#000000;stroke-width:0.5;" x="109.189853905" xlink:href="#m398b503327" y="401.0"/>
      </g>
     </g>
     <g id="line2d_40">
      <g>
       <use style="stroke:#000000;stroke-width:0.5;" x="109.189853905" xlink:href="#mc6d7a80c84" y="26.6"/>
      </g>
     </g>
     <g id="text_2">
      <!-- 3 -->
      <defs>
       <path d="M 40.578125 39.3125 
Q 47.65625 37.796875 51.625 33 
Q 55.609375 28.21875 55.609375 21.1875 
Q 55.609375 10.40625 48.1875 4.484375 
Q 40.765625 -1.421875 27.09375 -1.421875 
Q 22.515625 -1.421875 17.65625 -0.515625 
Q 12.796875 0.390625 7.625 2.203125 
L 7.625 11.71875 
Q 11.71875 9.328125 16.59375 8.109375 
Q 21.484375 6.890625 26.8125 6.890625 
Q 36.078125 6.890625 40.9375 10.546875 
Q 45.796875 14.203125 45.796875 21.1875 
Q 45.796875 27.640625 41.28125 31.265625 
Q 36.765625 34.90625 28.71875 34.90625 
L 20.21875 34.90625 
L 20.21875 43.015625 
L 29.109375 43.015625 
Q 36.375 43.015625 40.234375 45.921875 
Q 44.09375 48.828125 44.09375 54.296875 
Q 44.09375 59.90625 40.109375 62.90625 
Q 36.140625 65.921875 28.71875 65.921875 
Q 24.65625 65.921875 20.015625 65.03125 
Q 15.375 64.15625 9.8125 62.3125 
L 9.8125 71.09375 
Q 15.4375 72.65625 20.34375 73.4375 
Q 25.25 74.21875 29.59375 74.21875 
Q 40.828125 74.21875 47.359375 69.109375 
Q 53.90625 64.015625 53.90625 55.328125 
Q 53.90625 49.265625 50.4375 45.09375 
Q 46.96875 40.921875 40.578125 39.3125 
" id="BitstreamVeraSans-Roman-33"/>
      </defs>
      <g transform="translate(101.554853905 423.23625)scale(0.24 -0.24)">
       <use xlink:href="#BitstreamVeraSans-Roman-33"/>
      </g>
     </g>
    </g>
    <g id="xtick_3">
     <g id="line2d_41">
      <g>
       <use style="stroke:#000000;stroke-width:0.5;" x="195.47970781" xlink:href="#m398b503327" y="401.0"/>
      </g>
     </g>
     <g id="line2d_42">
      <g>
       <use style="stroke:#000000;stroke-width:0.5;" x="195.47970781" xlink:href="#mc6d7a80c84" y="26.6"/>
      </g>
     </g>
     <g id="text_3">
      <!-- 5 -->
      <defs>
       <path d="M 10.796875 72.90625 
L 49.515625 72.90625 
L 49.515625 64.59375 
L 19.828125 64.59375 
L 19.828125 46.734375 
Q 21.96875 47.46875 24.109375 47.828125 
Q 26.265625 48.1875 28.421875 48.1875 
Q 40.625 48.1875 47.75 41.5 
Q 54.890625 34.8125 54.890625 23.390625 
Q 54.890625 11.625 47.5625 5.09375 
Q 40.234375 -1.421875 26.90625 -1.421875 
Q 22.3125 -1.421875 17.546875 -0.640625 
Q 12.796875 0.140625 7.71875 1.703125 
L 7.71875 11.625 
Q 12.109375 9.234375 16.796875 8.0625 
Q 21.484375 6.890625 26.703125 6.890625 
Q 35.15625 6.890625 40.078125 11.328125 
Q 45.015625 15.765625 45.015625 23.390625 
Q 45.015625 31 40.078125 35.4375 
Q 35.15625 39.890625 26.703125 39.890625 
Q 22.75 39.890625 18.8125 39.015625 
Q 14.890625 38.140625 10.796875 36.28125 
z
" id="BitstreamVeraSans-Roman-35"/>
      </defs>
      <g transform="translate(187.84470781 423.23625)scale(0.24 -0.24)">
       <use xlink:href="#BitstreamVeraSans-Roman-35"/>
      </g>
     </g>
    </g>
    <g id="xtick_4">
     <g id="line2d_43">
      <g>
       <use style="stroke:#000000;stroke-width:0.5;" x="312.567743654" xlink:href="#m398b503327" y="401.0"/>
      </g>
     </g>
     <g id="line2d_44">
      <g>
       <use style="stroke:#000000;stroke-width:0.5;" x="312.567743654" xlink:href="#mc6d7a80c84" y="26.6"/>
      </g>
     </g>
     <g id="text_4">
      <!-- 10 -->
      <defs>
       <path d="M 31.78125 66.40625 
Q 24.171875 66.40625 20.328125 58.90625 
Q 16.5 51.421875 16.5 36.375 
Q 16.5 21.390625 20.328125 13.890625 
Q 24.171875 6.390625 31.78125 6.390625 
Q 39.453125 6.390625 43.28125 13.890625 
Q 47.125 21.390625 47.125 36.375 
Q 47.125 51.421875 43.28125 58.90625 
Q 39.453125 66.40625 31.78125 66.40625 
M 31.78125 74.21875 
Q 44.046875 74.21875 50.515625 64.515625 
Q 56.984375 54.828125 56.984375 36.375 
Q 56.984375 17.96875 50.515625 8.265625 
Q 44.046875 -1.421875 31.78125 -1.421875 
Q 19.53125 -1.421875 13.0625 8.265625 
Q 6.59375 17.96875 6.59375 36.375 
Q 6.59375 54.828125 13.0625 64.515625 
Q 19.53125 74.21875 31.78125 74.21875 
" id="BitstreamVeraSans-Roman-30"/>
       <path d="M 12.40625 8.296875 
L 28.515625 8.296875 
L 28.515625 63.921875 
L 10.984375 60.40625 
L 10.984375 69.390625 
L 28.421875 72.90625 
L 38.28125 72.90625 
L 38.28125 8.296875 
L 54.390625 8.296875 
L 54.390625 0 
L 12.40625 0 
z
" id="BitstreamVeraSans-Roman-31"/>
      </defs>
      <g transform="translate(297.297743654 423.23625)scale(0.24 -0.24)">
       <use xlink:href="#BitstreamVeraSans-Roman-31"/>
       <use x="63.623046875" xlink:href="#BitstreamVeraSans-Roman-30"/>
      </g>
     </g>
    </g>
    <g id="xtick_5">
     <g id="line2d_45">
      <g>
       <use style="stroke:#000000;stroke-width:0.5;" x="429.655779497" xlink:href="#m398b503327" y="401.0"/>
      </g>
     </g>
     <g id="line2d_46">
      <g>
       <use style="stroke:#000000;stroke-width:0.5;" x="429.655779497" xlink:href="#mc6d7a80c84" y="26.6"/>
      </g>
     </g>
     <g id="text_5">
      <!-- 20 -->
      <g transform="translate(414.385779497 423.23625)scale(0.24 -0.24)">
       <use xlink:href="#BitstreamVeraSans-Roman-32"/>
       <use x="63.623046875" xlink:href="#BitstreamVeraSans-Roman-30"/>
      </g>
     </g>
    </g>
    <g id="xtick_6">
     <g id="line2d_47">
      <g>
       <use style="stroke:#000000;stroke-width:0.5;" x="546.74381534" xlink:href="#m398b503327" y="401.0"/>
      </g>
     </g>
     <g id="line2d_48">
      <g>
       <use style="stroke:#000000;stroke-width:0.5;" x="546.74381534" xlink:href="#mc6d7a80c84" y="26.6"/>
      </g>
     </g>
     <g id="text_6">
      <!-- 40 -->
      <defs>
       <path d="M 37.796875 64.3125 
L 12.890625 25.390625 
L 37.796875 25.390625 
z
M 35.203125 72.90625 
L 47.609375 72.90625 
L 47.609375 25.390625 
L 58.015625 25.390625 
L 58.015625 17.1875 
L 47.609375 17.1875 
L 47.609375 0 
L 37.796875 0 
L 37.796875 17.1875 
L 4.890625 17.1875 
L 4.890625 26.703125 
z
" id="BitstreamVeraSans-Roman-34"/>
      </defs>
      <g transform="translate(531.47381534 423.23625)scale(0.24 -0.24)">
       <use xlink:href="#BitstreamVeraSans-Roman-34"/>
       <use x="63.623046875" xlink:href="#BitstreamVeraSans-Roman-30"/>
      </g>
     </g>
    </g>
    <g id="xtick_7">
     <g id="line2d_49">
      <defs>
       <path d="M 0 0 
L 0 -2 
" id="meaa019c25c" style="stroke:#000000;stroke-width:0.5;"/>
      </defs>
      <g>
       <use style="stroke:#000000;stroke-width:0.5;" x="40.6977436536" xlink:href="#meaa019c25c" y="401.0"/>
      </g>
     </g>
     <g id="line2d_50">
      <defs>
       <path d="M 0 0 
L 0 2 
" id="mdc2e55a5b4" style="stroke:#000000;stroke-width:0.5;"/>
      </defs>
      <g>
       <use style="stroke:#000000;stroke-width:0.5;" x="40.6977436536" xlink:href="#mdc2e55a5b4" y="26.6"/>
      </g>
     </g>
    </g>
    <g id="xtick_8">
     <g id="line2d_51">
      <g>
       <use style="stroke:#000000;stroke-width:0.5;" x="109.189853905" xlink:href="#meaa019c25c" y="401.0"/>
      </g>
     </g>
     <g id="line2d_52">
      <g>
       <use style="stroke:#000000;stroke-width:0.5;" x="109.189853905" xlink:href="#mdc2e55a5b4" y="26.6"/>
      </g>
     </g>
    </g>
    <g id="xtick_9">
     <g id="line2d_53">
      <g>
       <use style="stroke:#000000;stroke-width:0.5;" x="157.785779497" xlink:href="#meaa019c25c" y="401.0"/>
      </g>
     </g>
     <g id="line2d_54">
      <g>
       <use style="stroke:#000000;stroke-width:0.5;" x="157.785779497" xlink:href="#mdc2e55a5b4" y="26.6"/>
      </g>
     </g>
    </g>
    <g id="xtick_10">
     <g id="line2d_55">
      <g>
       <use style="stroke:#000000;stroke-width:0.5;" x="195.47970781" xlink:href="#meaa019c25c" y="401.0"/>
      </g>
     </g>
     <g id="line2d_56">
      <g>
       <use style="stroke:#000000;stroke-width:0.5;" x="195.47970781" xlink:href="#mdc2e55a5b4" y="26.6"/>
      </g>
     </g>
    </g>
    <g id="xtick_11">
     <g id="line2d_57">
      <g>
       <use style="stroke:#000000;stroke-width:0.5;" x="226.277889749" xlink:href="#meaa019c25c" y="401.0"/>
      </g>
     </g>
     <g id="line2d_58">
      <g>
       <use style="stroke:#000000;stroke-width:0.5;" x="226.277889749" xlink:href="#mdc2e55a5b4" y="26.6"/>
      </g>
     </g>
    </g>
    <g id="xtick_12">
     <g id="line2d_59">
      <g>
       <use style="stroke:#000000;stroke-width:0.5;" x="252.317381549" xlink:href="#meaa019c25c" y="401.0"/>
      </g>
     </g>
     <g id="line2d_60">
      <g>
       <use style="stroke:#000000;stroke-width:0.5;" x="252.317381549" xlink:href="#mdc2e55a5b4" y="26.6"/>
      </g>
     </g>
    </g>
    <g id="xtick_13">
     <g id="line2d_61">
      <g>
       <use style="stroke:#000000;stroke-width:0.5;" x="274.87381534" xlink:href="#meaa019c25c" y="401.0"/>
      </g>
     </g>
     <g id="line2d_62">
      <g>
       <use style="stroke:#000000;stroke-width:0.5;" x="274.87381534" xlink:href="#mdc2e55a5b4" y="26.6"/>
      </g>
     </g>
    </g>
    <g id="xtick_14">
     <g id="line2d_63">
      <g>
       <use style="stroke:#000000;stroke-width:0.5;" x="294.77" xlink:href="#meaa019c25c" y="401.0"/>
      </g>
     </g>
     <g id="line2d_64">
      <g>
       <use style="stroke:#000000;stroke-width:0.5;" x="294.77" xlink:href="#mdc2e55a5b4" y="26.6"/>
      </g>
     </g>
    </g>
    <g id="xtick_15">
     <g id="line2d_65">
      <g>
       <use style="stroke:#000000;stroke-width:0.5;" x="429.655779497" xlink:href="#meaa019c25c" y="401.0"/>
      </g>
     </g>
     <g id="line2d_66">
      <g>
       <use style="stroke:#000000;stroke-width:0.5;" x="429.655779497" xlink:href="#mdc2e55a5b4" y="26.6"/>
      </g>
     </g>
    </g>
    <g id="xtick_16">
     <g id="line2d_67">
      <g>
       <use style="stroke:#000000;stroke-width:0.5;" x="498.147889749" xlink:href="#meaa019c25c" y="401.0"/>
      </g>
     </g>
     <g id="line2d_68">
      <g>
       <use style="stroke:#000000;stroke-width:0.5;" x="498.147889749" xlink:href="#mdc2e55a5b4" y="26.6"/>
      </g>
     </g>
    </g>
    <g id="xtick_17">
     <g id="line2d_69">
      <g>
       <use style="stroke:#000000;stroke-width:0.5;" x="546.74381534" xlink:href="#meaa019c25c" y="401.0"/>
      </g>
     </g>
     <g id="line2d_70">
      <g>
       <use style="stroke:#000000;stroke-width:0.5;" x="546.74381534" xlink:href="#mdc2e55a5b4" y="26.6"/>
      </g>
     </g>
    </g>
   </g>
   <g id="matplotlib.axis_2">
    <g id="ytick_1">
     <g id="line2d_71">
      <path clip-path="url(#p8d5456c3db)" d="M 22.9 373.029661 
L 566.64 373.029661 
" style="fill:none;stroke:#000000;stroke-dasharray:1.000000,3.000000;stroke-dashoffset:0.0;stroke-width:0.5;"/>
     </g>
     <g id="line2d_72">
      <defs>
       <path d="M 0 0 
L 4 0 
" id="m7fb86dfd82" style="stroke:#000000;stroke-width:0.5;"/>
      </defs>
      <g>
       <use style="stroke:#000000;stroke-width:0.5;" x="22.9" xlink:href="#m7fb86dfd82" y="373.029661443"/>
      </g>
     </g>
     <g id="line2d_73">
      <defs>
       <path d="M 0 0 
L -4 0 
" id="m32b2a43d0a" style="stroke:#000000;stroke-width:0.5;"/>
      </defs>
      <g>
       <use style="stroke:#000000;stroke-width:0.5;" x="566.64" xlink:href="#m32b2a43d0a" y="373.029661443"/>
      </g>
     </g>
     <g id="text_7">
      <!-- 0 -->
      <g transform="translate(3.63 379.652161443)scale(0.24 -0.24)">
       <use xlink:href="#BitstreamVeraSans-Roman-30"/>
      </g>
     </g>
    </g>
    <g id="ytick_2">
     <g id="line2d_74">
      <path clip-path="url(#p8d5456c3db)" d="M 22.9 233.177969 
L 566.64 233.177969 
" style="fill:none;stroke:#000000;stroke-dasharray:1.000000,3.000000;stroke-dashoffset:0.0;stroke-width:0.5;"/>
     </g>
     <g id="line2d_75">
      <g>
       <use style="stroke:#000000;stroke-width:0.5;" x="22.9" xlink:href="#m7fb86dfd82" y="233.177968658"/>
      </g>
     </g>
     <g id="line2d_76">
      <g>
       <use style="stroke:#000000;stroke-width:0.5;" x="566.64" xlink:href="#m32b2a43d0a" y="233.177968658"/>
      </g>
     </g>
     <g id="text_8">
      <!-- 1 -->
      <g transform="translate(3.63 239.800468658)scale(0.24 -0.24)">
       <use xlink:href="#BitstreamVeraSans-Roman-31"/>
      </g>
     </g>
    </g>
    <g id="ytick_3">
     <g id="line2d_77">
      <path clip-path="url(#p8d5456c3db)" d="M 22.9 93.326276 
L 566.64 93.326276 
" style="fill:none;stroke:#000000;stroke-dasharray:1.000000,3.000000;stroke-dashoffset:0.0;stroke-width:0.5;"/>
     </g>
     <g id="line2d_78">
      <g>
       <use style="stroke:#000000;stroke-width:0.5;" x="22.9" xlink:href="#m7fb86dfd82" y="93.326275873"/>
      </g>
     </g>
     <g id="line2d_79">
      <g>
       <use style="stroke:#000000;stroke-width:0.5;" x="566.64" xlink:href="#m32b2a43d0a" y="93.326275873"/>
      </g>
     </g>
     <g id="text_9">
      <!-- 2 -->
      <g transform="translate(3.63 99.948775873)scale(0.24 -0.24)">
       <use xlink:href="#BitstreamVeraSans-Roman-32"/>
      </g>
     </g>
    </g>
    <g id="ytick_4">
     <g id="line2d_80">
      <defs>
       <path d="M 0 0 
L 2 0 
" id="mfec6dea6d3" style="stroke:#000000;stroke-width:0.5;"/>
      </defs>
      <g>
       <use style="stroke:#000000;stroke-width:0.5;" x="22.9" xlink:href="#mfec6dea6d3" y="394.692962763"/>
      </g>
     </g>
     <g id="line2d_81">
      <defs>
       <path d="M 0 0 
L -2 0 
" id="m86d2b2665e" style="stroke:#000000;stroke-width:0.5;"/>
      </defs>
      <g>
       <use style="stroke:#000000;stroke-width:0.5;" x="566.64" xlink:href="#m86d2b2665e" y="394.692962763"/>
      </g>
     </g>
    </g>
    <g id="ytick_5">
     <g id="line2d_82">
      <g>
       <use style="stroke:#000000;stroke-width:0.5;" x="22.9" xlink:href="#mfec6dea6d3" y="386.58269081"/>
      </g>
     </g>
     <g id="line2d_83">
      <g>
       <use style="stroke:#000000;stroke-width:0.5;" x="566.64" xlink:href="#m86d2b2665e" y="386.58269081"/>
      </g>
     </g>
    </g>
    <g id="ytick_6">
     <g id="line2d_84">
      <g>
       <use style="stroke:#000000;stroke-width:0.5;" x="22.9" xlink:href="#mfec6dea6d3" y="379.428923956"/>
      </g>
     </g>
     <g id="line2d_85">
      <g>
       <use style="stroke:#000000;stroke-width:0.5;" x="566.64" xlink:href="#m86d2b2665e" y="379.428923956"/>
      </g>
     </g>
    </g>
    <g id="ytick_7">
     <g id="line2d_86">
      <g>
       <use style="stroke:#000000;stroke-width:0.5;" x="22.9" xlink:href="#mfec6dea6d3" y="330.93010697"/>
      </g>
     </g>
     <g id="line2d_87">
      <g>
       <use style="stroke:#000000;stroke-width:0.5;" x="566.64" xlink:href="#m86d2b2665e" y="330.93010697"/>
      </g>
     </g>
    </g>
    <g id="ytick_8">
     <g id="line2d_88">
      <g>
       <use style="stroke:#000000;stroke-width:0.5;" x="22.9" xlink:href="#mfec6dea6d3" y="306.303446307"/>
      </g>
     </g>
     <g id="line2d_89">
      <g>
       <use style="stroke:#000000;stroke-width:0.5;" x="566.64" xlink:href="#m86d2b2665e" y="306.303446307"/>
      </g>
     </g>
    </g>
    <g id="ytick_9">
     <g id="line2d_90">
      <g>
       <use style="stroke:#000000;stroke-width:0.5;" x="22.9" xlink:href="#mfec6dea6d3" y="288.830552498"/>
      </g>
     </g>
     <g id="line2d_91">
      <g>
       <use style="stroke:#000000;stroke-width:0.5;" x="566.64" xlink:href="#m86d2b2665e" y="288.830552498"/>
      </g>
     </g>
    </g>
    <g id="ytick_10">
     <g id="line2d_92">
      <g>
       <use style="stroke:#000000;stroke-width:0.5;" x="22.9" xlink:href="#mfec6dea6d3" y="275.277523131"/>
      </g>
     </g>
     <g id="line2d_93">
      <g>
       <use style="stroke:#000000;stroke-width:0.5;" x="566.64" xlink:href="#m86d2b2665e" y="275.277523131"/>
      </g>
     </g>
    </g>
    <g id="ytick_11">
     <g id="line2d_94">
      <g>
       <use style="stroke:#000000;stroke-width:0.5;" x="22.9" xlink:href="#mfec6dea6d3" y="264.203891834"/>
      </g>
     </g>
     <g id="line2d_95">
      <g>
       <use style="stroke:#000000;stroke-width:0.5;" x="566.64" xlink:href="#m86d2b2665e" y="264.203891834"/>
      </g>
     </g>
    </g>
    <g id="ytick_12">
     <g id="line2d_96">
      <g>
       <use style="stroke:#000000;stroke-width:0.5;" x="22.9" xlink:href="#mfec6dea6d3" y="254.841269978"/>
      </g>
     </g>
     <g id="line2d_97">
      <g>
       <use style="stroke:#000000;stroke-width:0.5;" x="566.64" xlink:href="#m86d2b2665e" y="254.841269978"/>
      </g>
     </g>
    </g>
    <g id="ytick_13">
     <g id="line2d_98">
      <g>
       <use style="stroke:#000000;stroke-width:0.5;" x="22.9" xlink:href="#mfec6dea6d3" y="246.730998025"/>
      </g>
     </g>
     <g id="line2d_99">
      <g>
       <use style="stroke:#000000;stroke-width:0.5;" x="566.64" xlink:href="#m86d2b2665e" y="246.730998025"/>
      </g>
     </g>
    </g>
    <g id="ytick_14">
     <g id="line2d_100">
      <g>
       <use style="stroke:#000000;stroke-width:0.5;" x="22.9" xlink:href="#mfec6dea6d3" y="239.577231171"/>
      </g>
     </g>
     <g id="line2d_101">
      <g>
       <use style="stroke:#000000;stroke-width:0.5;" x="566.64" xlink:href="#m86d2b2665e" y="239.577231171"/>
      </g>
     </g>
    </g>
    <g id="ytick_15">
     <g id="line2d_102">
      <g>
       <use style="stroke:#000000;stroke-width:0.5;" x="22.9" xlink:href="#mfec6dea6d3" y="191.078414185"/>
      </g>
     </g>
     <g id="line2d_103">
      <g>
       <use style="stroke:#000000;stroke-width:0.5;" x="566.64" xlink:href="#m86d2b2665e" y="191.078414185"/>
      </g>
     </g>
    </g>
    <g id="ytick_16">
     <g id="line2d_104">
      <g>
       <use style="stroke:#000000;stroke-width:0.5;" x="22.9" xlink:href="#mfec6dea6d3" y="166.451753522"/>
      </g>
     </g>
     <g id="line2d_105">
      <g>
       <use style="stroke:#000000;stroke-width:0.5;" x="566.64" xlink:href="#m86d2b2665e" y="166.451753522"/>
      </g>
     </g>
    </g>
    <g id="ytick_17">
     <g id="line2d_106">
      <g>
       <use style="stroke:#000000;stroke-width:0.5;" x="22.9" xlink:href="#mfec6dea6d3" y="148.978859713"/>
      </g>
     </g>
     <g id="line2d_107">
      <g>
       <use style="stroke:#000000;stroke-width:0.5;" x="566.64" xlink:href="#m86d2b2665e" y="148.978859713"/>
      </g>
     </g>
    </g>
    <g id="ytick_18">
     <g id="line2d_108">
      <g>
       <use style="stroke:#000000;stroke-width:0.5;" x="22.9" xlink:href="#mfec6dea6d3" y="135.425830346"/>
      </g>
     </g>
     <g id="line2d_109">
      <g>
       <use style="stroke:#000000;stroke-width:0.5;" x="566.64" xlink:href="#m86d2b2665e" y="135.425830346"/>
      </g>
     </g>
    </g>
    <g id="ytick_19">
     <g id="line2d_110">
      <g>
       <use style="stroke:#000000;stroke-width:0.5;" x="22.9" xlink:href="#mfec6dea6d3" y="124.352199049"/>
      </g>
     </g>
     <g id="line2d_111">
      <g>
       <use style="stroke:#000000;stroke-width:0.5;" x="566.64" xlink:href="#m86d2b2665e" y="124.352199049"/>
      </g>
     </g>
    </g>
    <g id="ytick_20">
     <g id="line2d_112">
      <g>
       <use style="stroke:#000000;stroke-width:0.5;" x="22.9" xlink:href="#mfec6dea6d3" y="114.989577193"/>
      </g>
     </g>
     <g id="line2d_113">
      <g>
       <use style="stroke:#000000;stroke-width:0.5;" x="566.64" xlink:href="#m86d2b2665e" y="114.989577193"/>
      </g>
     </g>
    </g>
    <g id="ytick_21">
     <g id="line2d_114">
      <g>
       <use style="stroke:#000000;stroke-width:0.5;" x="22.9" xlink:href="#mfec6dea6d3" y="106.87930524"/>
      </g>
     </g>
     <g id="line2d_115">
      <g>
       <use style="stroke:#000000;stroke-width:0.5;" x="566.64" xlink:href="#m86d2b2665e" y="106.87930524"/>
      </g>
     </g>
    </g>
    <g id="ytick_22">
     <g id="line2d_116">
      <g>
       <use style="stroke:#000000;stroke-width:0.5;" x="22.9" xlink:href="#mfec6dea6d3" y="99.7255383855"/>
      </g>
     </g>
     <g id="line2d_117">
      <g>
       <use style="stroke:#000000;stroke-width:0.5;" x="566.64" xlink:href="#m86d2b2665e" y="99.7255383855"/>
      </g>
     </g>
    </g>
    <g id="ytick_23">
     <g id="line2d_118">
      <g>
       <use style="stroke:#000000;stroke-width:0.5;" x="22.9" xlink:href="#mfec6dea6d3" y="51.2267214004"/>
      </g>
     </g>
     <g id="line2d_119">
      <g>
       <use style="stroke:#000000;stroke-width:0.5;" x="566.64" xlink:href="#m86d2b2665e" y="51.2267214004"/>
      </g>
     </g>
    </g>
    <g id="ytick_24">
     <g id="line2d_120">
      <g>
       <use style="stroke:#000000;stroke-width:0.5;" x="22.9" xlink:href="#mfec6dea6d3" y="26.6000607368"/>
      </g>
     </g>
     <g id="line2d_121">
      <g>
       <use style="stroke:#000000;stroke-width:0.5;" x="566.64" xlink:href="#m86d2b2665e" y="26.6000607368"/>
      </g>
     </g>
    </g>
   </g>
   <g id="text_10">
    <!-- 1 -->
    <g transform="translate(34.2079936536 79.5478051838)scale(0.204 -0.204)">
     <use xlink:href="#BitstreamVeraSans-Roman-31"/>
    </g>
   </g>
   <g id="text_11">
    <!-- 1 -->
    <g transform="translate(102.700103905 89.6941387972)scale(0.204 -0.204)">
     <use xlink:href="#BitstreamVeraSans-Roman-31"/>
    </g>
   </g>
   <g id="text_12">
    <!-- 15 instances -->
    <defs>
     <path id="BitstreamVeraSans-Roman-20"/>
     <path d="M 54.890625 33.015625 
L 54.890625 0 
L 45.90625 0 
L 45.90625 32.71875 
Q 45.90625 40.484375 42.875 44.328125 
Q 39.84375 48.1875 33.796875 48.1875 
Q 26.515625 48.1875 22.3125 43.546875 
Q 18.109375 38.921875 18.109375 30.90625 
L 18.109375 0 
L 9.078125 0 
L 9.078125 54.6875 
L 18.109375 54.6875 
L 18.109375 46.1875 
Q 21.34375 51.125 25.703125 53.5625 
Q 30.078125 56 35.796875 56 
Q 45.21875 56 50.046875 50.171875 
Q 54.890625 44.34375 54.890625 33.015625 
" id="BitstreamVeraSans-Roman-6e"/>
     <path d="M 9.421875 54.6875 
L 18.40625 54.6875 
L 18.40625 0 
L 9.421875 0 
z
M 9.421875 75.984375 
L 18.40625 75.984375 
L 18.40625 64.59375 
L 9.421875 64.59375 
z
" id="BitstreamVeraSans-Roman-69"/>
     <path d="M 56.203125 29.59375 
L 56.203125 25.203125 
L 14.890625 25.203125 
Q 15.484375 15.921875 20.484375 11.0625 
Q 25.484375 6.203125 34.421875 6.203125 
Q 39.59375 6.203125 44.453125 7.46875 
Q 49.3125 8.734375 54.109375 11.28125 
L 54.109375 2.78125 
Q 49.265625 0.734375 44.1875 -0.34375 
Q 39.109375 -1.421875 33.890625 -1.421875 
Q 20.796875 -1.421875 13.15625 6.1875 
Q 5.515625 13.8125 5.515625 26.8125 
Q 5.515625 40.234375 12.765625 48.109375 
Q 20.015625 56 32.328125 56 
Q 43.359375 56 49.78125 48.890625 
Q 56.203125 41.796875 56.203125 29.59375 
M 47.21875 32.234375 
Q 47.125 39.59375 43.09375 43.984375 
Q 39.0625 48.390625 32.421875 48.390625 
Q 24.90625 48.390625 20.390625 44.140625 
Q 15.875 39.890625 15.1875 32.171875 
z
" id="BitstreamVeraSans-Roman-65"/>
     <path d="M 18.3125 70.21875 
L 18.3125 54.6875 
L 36.8125 54.6875 
L 36.8125 47.703125 
L 18.3125 47.703125 
L 18.3125 18.015625 
Q 18.3125 11.328125 20.140625 9.421875 
Q 21.96875 7.515625 27.59375 7.515625 
L 36.8125 7.515625 
L 36.8125 0 
L 27.59375 0 
Q 17.1875 0 13.234375 3.875 
Q 9.28125 7.765625 9.28125 18.015625 
L 9.28125 47.703125 
L 2.6875 47.703125 
L 2.6875 54.6875 
L 9.28125 54.6875 
L 9.28125 70.21875 
z
" id="BitstreamVeraSans-Roman-74"/>
     <path d="M 34.28125 27.484375 
Q 23.390625 27.484375 19.1875 25 
Q 14.984375 22.515625 14.984375 16.5 
Q 14.984375 11.71875 18.140625 8.90625 
Q 21.296875 6.109375 26.703125 6.109375 
Q 34.1875 6.109375 38.703125 11.40625 
Q 43.21875 16.703125 43.21875 25.484375 
L 43.21875 27.484375 
z
M 52.203125 31.203125 
L 52.203125 0 
L 43.21875 0 
L 43.21875 8.296875 
Q 40.140625 3.328125 35.546875 0.953125 
Q 30.953125 -1.421875 24.3125 -1.421875 
Q 15.921875 -1.421875 10.953125 3.296875 
Q 6 8.015625 6 15.921875 
Q 6 25.140625 12.171875 29.828125 
Q 18.359375 34.515625 30.609375 34.515625 
L 43.21875 34.515625 
L 43.21875 35.40625 
Q 43.21875 41.609375 39.140625 45 
Q 35.0625 48.390625 27.6875 48.390625 
Q 23 48.390625 18.546875 47.265625 
Q 14.109375 46.140625 10.015625 43.890625 
L 10.015625 52.203125 
Q 14.9375 54.109375 19.578125 55.046875 
Q 24.21875 56 28.609375 56 
Q 40.484375 56 46.34375 49.84375 
Q 52.203125 43.703125 52.203125 31.203125 
" id="BitstreamVeraSans-Roman-61"/>
     <path d="M 44.28125 53.078125 
L 44.28125 44.578125 
Q 40.484375 46.53125 36.375 47.5 
Q 32.28125 48.484375 27.875 48.484375 
Q 21.1875 48.484375 17.84375 46.4375 
Q 14.5 44.390625 14.5 40.28125 
Q 14.5 37.15625 16.890625 35.375 
Q 19.28125 33.59375 26.515625 31.984375 
L 29.59375 31.296875 
Q 39.15625 29.25 43.1875 25.515625 
Q 47.21875 21.78125 47.21875 15.09375 
Q 47.21875 7.46875 41.1875 3.015625 
Q 35.15625 -1.421875 24.609375 -1.421875 
Q 20.21875 -1.421875 15.453125 -0.5625 
Q 10.6875 0.296875 5.421875 2 
L 5.421875 11.28125 
Q 10.40625 8.6875 15.234375 7.390625 
Q 20.0625 6.109375 24.8125 6.109375 
Q 31.15625 6.109375 34.5625 8.28125 
Q 37.984375 10.453125 37.984375 14.40625 
Q 37.984375 18.0625 35.515625 20.015625 
Q 33.0625 21.96875 24.703125 23.78125 
L 21.578125 24.515625 
Q 13.234375 26.265625 9.515625 29.90625 
Q 5.8125 33.546875 5.8125 39.890625 
Q 5.8125 47.609375 11.28125 51.796875 
Q 16.75 56 26.8125 56 
Q 31.78125 56 36.171875 55.265625 
Q 40.578125 54.546875 44.28125 53.078125 
" id="BitstreamVeraSans-Roman-73"/>
     <path d="M 48.78125 52.59375 
L 48.78125 44.1875 
Q 44.96875 46.296875 41.140625 47.34375 
Q 37.3125 48.390625 33.40625 48.390625 
Q 24.65625 48.390625 19.8125 42.84375 
Q 14.984375 37.3125 14.984375 27.296875 
Q 14.984375 17.28125 19.8125 11.734375 
Q 24.65625 6.203125 33.40625 6.203125 
Q 37.3125 6.203125 41.140625 7.25 
Q 44.96875 8.296875 48.78125 10.40625 
L 48.78125 2.09375 
Q 45.015625 0.34375 40.984375 -0.53125 
Q 36.96875 -1.421875 32.421875 -1.421875 
Q 20.0625 -1.421875 12.78125 6.34375 
Q 5.515625 14.109375 5.515625 27.296875 
Q 5.515625 40.671875 12.859375 48.328125 
Q 20.21875 56 33.015625 56 
Q 37.15625 56 41.109375 55.140625 
Q 45.0625 54.296875 48.78125 52.59375 
" id="BitstreamVeraSans-Roman-63"/>
    </defs>
    <g transform="translate(22.9 382.4115)scale(0.14 -0.14)">
     <use xlink:href="#BitstreamVeraSans-Roman-31"/>
     <use x="63.623046875" xlink:href="#BitstreamVeraSans-Roman-35"/>
     <use x="127.24609375" xlink:href="#BitstreamVeraSans-Roman-20"/>
     <use x="159.033203125" xlink:href="#BitstreamVeraSans-Roman-69"/>
     <use x="186.81640625" xlink:href="#BitstreamVeraSans-Roman-6e"/>
     <use x="250.1953125" xlink:href="#BitstreamVeraSans-Roman-73"/>
     <use x="302.294921875" xlink:href="#BitstreamVeraSans-Roman-74"/>
     <use x="341.50390625" xlink:href="#BitstreamVeraSans-Roman-61"/>
     <use x="402.783203125" xlink:href="#BitstreamVeraSans-Roman-6e"/>
     <use x="466.162109375" xlink:href="#BitstreamVeraSans-Roman-63"/>
     <use x="521.142578125" xlink:href="#BitstreamVeraSans-Roman-65"/>
     <use x="582.666015625" xlink:href="#BitstreamVeraSans-Roman-73"/>
    </g>
    <!-- absolute targets -->
    <defs>
     <path d="M 30.609375 48.390625 
Q 23.390625 48.390625 19.1875 42.75 
Q 14.984375 37.109375 14.984375 27.296875 
Q 14.984375 17.484375 19.15625 11.84375 
Q 23.34375 6.203125 30.609375 6.203125 
Q 37.796875 6.203125 41.984375 11.859375 
Q 46.1875 17.53125 46.1875 27.296875 
Q 46.1875 37.015625 41.984375 42.703125 
Q 37.796875 48.390625 30.609375 48.390625 
M 30.609375 56 
Q 42.328125 56 49.015625 48.375 
Q 55.71875 40.765625 55.71875 27.296875 
Q 55.71875 13.875 49.015625 6.21875 
Q 42.328125 -1.421875 30.609375 -1.421875 
Q 18.84375 -1.421875 12.171875 6.21875 
Q 5.515625 13.875 5.515625 27.296875 
Q 5.515625 40.765625 12.171875 48.375 
Q 18.84375 56 30.609375 56 
" id="BitstreamVeraSans-Roman-6f"/>
     <path d="M 9.421875 75.984375 
L 18.40625 75.984375 
L 18.40625 0 
L 9.421875 0 
z
" id="BitstreamVeraSans-Roman-6c"/>
     <path d="M 45.40625 27.984375 
Q 45.40625 37.75 41.375 43.109375 
Q 37.359375 48.484375 30.078125 48.484375 
Q 22.859375 48.484375 18.828125 43.109375 
Q 14.796875 37.75 14.796875 27.984375 
Q 14.796875 18.265625 18.828125 12.890625 
Q 22.859375 7.515625 30.078125 7.515625 
Q 37.359375 7.515625 41.375 12.890625 
Q 45.40625 18.265625 45.40625 27.984375 
M 54.390625 6.78125 
Q 54.390625 -7.171875 48.1875 -13.984375 
Q 42 -20.796875 29.203125 -20.796875 
Q 24.46875 -20.796875 20.265625 -20.09375 
Q 16.0625 -19.390625 12.109375 -17.921875 
L 12.109375 -9.1875 
Q 16.0625 -11.328125 19.921875 -12.34375 
Q 23.78125 -13.375 27.78125 -13.375 
Q 36.625 -13.375 41.015625 -8.765625 
Q 45.40625 -4.15625 45.40625 5.171875 
L 45.40625 9.625 
Q 42.625 4.78125 38.28125 2.390625 
Q 33.9375 0 27.875 0 
Q 17.828125 0 11.671875 7.65625 
Q 5.515625 15.328125 5.515625 27.984375 
Q 5.515625 40.671875 11.671875 48.328125 
Q 17.828125 56 27.875 56 
Q 33.9375 56 38.28125 53.609375 
Q 42.625 51.21875 45.40625 46.390625 
L 45.40625 54.6875 
L 54.390625 54.6875 
z
" id="BitstreamVeraSans-Roman-67"/>
     <path d="M 8.5 21.578125 
L 8.5 54.6875 
L 17.484375 54.6875 
L 17.484375 21.921875 
Q 17.484375 14.15625 20.5 10.265625 
Q 23.53125 6.390625 29.59375 6.390625 
Q 36.859375 6.390625 41.078125 11.03125 
Q 45.3125 15.671875 45.3125 23.6875 
L 45.3125 54.6875 
L 54.296875 54.6875 
L 54.296875 0 
L 45.3125 0 
L 45.3125 8.40625 
Q 42.046875 3.421875 37.71875 1 
Q 33.40625 -1.421875 27.6875 -1.421875 
Q 18.265625 -1.421875 13.375 4.4375 
Q 8.5 10.296875 8.5 21.578125 
" id="BitstreamVeraSans-Roman-75"/>
     <path d="M 41.109375 46.296875 
Q 39.59375 47.171875 37.8125 47.578125 
Q 36.03125 48 33.890625 48 
Q 26.265625 48 22.1875 43.046875 
Q 18.109375 38.09375 18.109375 28.8125 
L 18.109375 0 
L 9.078125 0 
L 9.078125 54.6875 
L 18.109375 54.6875 
L 18.109375 46.1875 
Q 20.953125 51.171875 25.484375 53.578125 
Q 30.03125 56 36.53125 56 
Q 37.453125 56 38.578125 55.875 
Q 39.703125 55.765625 41.0625 55.515625 
z
" id="BitstreamVeraSans-Roman-72"/>
     <path d="M 48.6875 27.296875 
Q 48.6875 37.203125 44.609375 42.84375 
Q 40.53125 48.484375 33.40625 48.484375 
Q 26.265625 48.484375 22.1875 42.84375 
Q 18.109375 37.203125 18.109375 27.296875 
Q 18.109375 17.390625 22.1875 11.75 
Q 26.265625 6.109375 33.40625 6.109375 
Q 40.53125 6.109375 44.609375 11.75 
Q 48.6875 17.390625 48.6875 27.296875 
M 18.109375 46.390625 
Q 20.953125 51.265625 25.265625 53.625 
Q 29.59375 56 35.59375 56 
Q 45.5625 56 51.78125 48.09375 
Q 58.015625 40.1875 58.015625 27.296875 
Q 58.015625 14.40625 51.78125 6.484375 
Q 45.5625 -1.421875 35.59375 -1.421875 
Q 29.59375 -1.421875 25.265625 0.953125 
Q 20.953125 3.328125 18.109375 8.203125 
L 18.109375 0 
L 9.078125 0 
L 9.078125 75.984375 
L 18.109375 75.984375 
z
" id="BitstreamVeraSans-Roman-62"/>
    </defs>
    <g transform="translate(22.9 398.0884375)scale(0.14 -0.14)">
     <use xlink:href="#BitstreamVeraSans-Roman-61"/>
     <use x="61.279296875" xlink:href="#BitstreamVeraSans-Roman-62"/>
     <use x="124.755859375" xlink:href="#BitstreamVeraSans-Roman-73"/>
     <use x="176.85546875" xlink:href="#BitstreamVeraSans-Roman-6f"/>
     <use x="238.037109375" xlink:href="#BitstreamVeraSans-Roman-6c"/>
     <use x="265.8203125" xlink:href="#BitstreamVeraSans-Roman-75"/>
     <use x="329.19921875" xlink:href="#BitstreamVeraSans-Roman-74"/>
     <use x="368.408203125" xlink:href="#BitstreamVeraSans-Roman-65"/>
     <use x="429.931640625" xlink:href="#BitstreamVeraSans-Roman-20"/>
     <use x="461.71875" xlink:href="#BitstreamVeraSans-Roman-74"/>
     <use x="500.927734375" xlink:href="#BitstreamVeraSans-Roman-61"/>
     <use x="562.20703125" xlink:href="#BitstreamVeraSans-Roman-72"/>
     <use x="603.3046875" xlink:href="#BitstreamVeraSans-Roman-67"/>
     <use x="666.78125" xlink:href="#BitstreamVeraSans-Roman-65"/>
     <use x="728.3046875" xlink:href="#BitstreamVeraSans-Roman-74"/>
     <use x="767.513671875" xlink:href="#BitstreamVeraSans-Roman-73"/>
    </g>
   </g>
   <g id="text_13">
    <!-- v2.2.1.10 -->
    <defs>
     <path d="M 2.984375 54.6875 
L 12.5 54.6875 
L 29.59375 8.796875 
L 46.6875 54.6875 
L 56.203125 54.6875 
L 35.6875 0 
L 23.484375 0 
z
" id="BitstreamVeraSans-Roman-76"/>
     <path d="M 10.6875 12.40625 
L 21 12.40625 
L 21 0 
L 10.6875 0 
z
" id="BitstreamVeraSans-Roman-2e"/>
    </defs>
    <g style="fill:#808080;" transform="translate(271.1371875 395.1763125)scale(0.1 -0.1)">
     <use xlink:href="#BitstreamVeraSans-Roman-76"/>
     <use x="59.1796875" xlink:href="#BitstreamVeraSans-Roman-32"/>
     <use x="122.802734375" xlink:href="#BitstreamVeraSans-Roman-2e"/>
     <use x="154.58984375" xlink:href="#BitstreamVeraSans-Roman-32"/>
     <use x="218.212890625" xlink:href="#BitstreamVeraSans-Roman-2e"/>
     <use x="250.0" xlink:href="#BitstreamVeraSans-Roman-31"/>
     <use x="313.623046875" xlink:href="#BitstreamVeraSans-Roman-2e"/>
     <use x="345.41015625" xlink:href="#BitstreamVeraSans-Roman-31"/>
     <use x="409.033203125" xlink:href="#BitstreamVeraSans-Roman-30"/>
    </g>
   </g>
   <g id="text_14">
    <!-- 7 Step-ellipsoid -->
    <defs>
     <path d="M 45.40625 46.390625 
L 45.40625 75.984375 
L 54.390625 75.984375 
L 54.390625 0 
L 45.40625 0 
L 45.40625 8.203125 
Q 42.578125 3.328125 38.25 0.953125 
Q 33.9375 -1.421875 27.875 -1.421875 
Q 17.96875 -1.421875 11.734375 6.484375 
Q 5.515625 14.40625 5.515625 27.296875 
Q 5.515625 40.1875 11.734375 48.09375 
Q 17.96875 56 27.875 56 
Q 33.9375 56 38.25 53.625 
Q 42.578125 51.265625 45.40625 46.390625 
M 14.796875 27.296875 
Q 14.796875 17.390625 18.875 11.75 
Q 22.953125 6.109375 30.078125 6.109375 
Q 37.203125 6.109375 41.296875 11.75 
Q 45.40625 17.390625 45.40625 27.296875 
Q 45.40625 37.203125 41.296875 42.84375 
Q 37.203125 48.484375 30.078125 48.484375 
Q 22.953125 48.484375 18.875 42.84375 
Q 14.796875 37.203125 14.796875 27.296875 
" id="BitstreamVeraSans-Roman-64"/>
     <path d="M 53.515625 70.515625 
L 53.515625 60.890625 
Q 47.90625 63.578125 42.921875 64.890625 
Q 37.9375 66.21875 33.296875 66.21875 
Q 25.25 66.21875 20.875 63.09375 
Q 16.5 59.96875 16.5 54.203125 
Q 16.5 49.359375 19.40625 46.890625 
Q 22.3125 44.4375 30.421875 42.921875 
L 36.375 41.703125 
Q 47.40625 39.59375 52.65625 34.296875 
Q 57.90625 29 57.90625 20.125 
Q 57.90625 9.515625 50.796875 4.046875 
Q 43.703125 -1.421875 29.984375 -1.421875 
Q 24.8125 -1.421875 18.96875 -0.25 
Q 13.140625 0.921875 6.890625 3.21875 
L 6.890625 13.375 
Q 12.890625 10.015625 18.65625 8.296875 
Q 24.421875 6.59375 29.984375 6.59375 
Q 38.421875 6.59375 43.015625 9.90625 
Q 47.609375 13.234375 47.609375 19.390625 
Q 47.609375 24.75 44.3125 27.78125 
Q 41.015625 30.8125 33.5 32.328125 
L 27.484375 33.5 
Q 16.453125 35.6875 11.515625 40.375 
Q 6.59375 45.0625 6.59375 53.421875 
Q 6.59375 63.09375 13.40625 68.65625 
Q 20.21875 74.21875 32.171875 74.21875 
Q 37.3125 74.21875 42.625 73.28125 
Q 47.953125 72.359375 53.515625 70.515625 
" id="BitstreamVeraSans-Roman-53"/>
     <path d="M 8.203125 72.90625 
L 55.078125 72.90625 
L 55.078125 68.703125 
L 28.609375 0 
L 18.3125 0 
L 43.21875 64.59375 
L 8.203125 64.59375 
z
" id="BitstreamVeraSans-Roman-37"/>
     <path d="M 18.109375 8.203125 
L 18.109375 -20.796875 
L 9.078125 -20.796875 
L 9.078125 54.6875 
L 18.109375 54.6875 
L 18.109375 46.390625 
Q 20.953125 51.265625 25.265625 53.625 
Q 29.59375 56 35.59375 56 
Q 45.5625 56 51.78125 48.09375 
Q 58.015625 40.1875 58.015625 27.296875 
Q 58.015625 14.40625 51.78125 6.484375 
Q 45.5625 -1.421875 35.59375 -1.421875 
Q 29.59375 -1.421875 25.265625 0.953125 
Q 20.953125 3.328125 18.109375 8.203125 
M 48.6875 27.296875 
Q 48.6875 37.203125 44.609375 42.84375 
Q 40.53125 48.484375 33.40625 48.484375 
Q 26.265625 48.484375 22.1875 42.84375 
Q 18.109375 37.203125 18.109375 27.296875 
Q 18.109375 17.390625 22.1875 11.75 
Q 26.265625 6.109375 33.40625 6.109375 
Q 40.53125 6.109375 44.609375 11.75 
Q 48.6875 17.390625 48.6875 27.296875 
" id="BitstreamVeraSans-Roman-70"/>
     <path d="M 4.890625 31.390625 
L 31.203125 31.390625 
L 31.203125 23.390625 
L 4.890625 23.390625 
z
" id="BitstreamVeraSans-Roman-2d"/>
    </defs>
    <g transform="translate(202.11875 21.6)scale(0.24 -0.24)">
     <use xlink:href="#BitstreamVeraSans-Roman-37"/>
     <use x="63.623046875" xlink:href="#BitstreamVeraSans-Roman-20"/>
     <use x="95.41015625" xlink:href="#BitstreamVeraSans-Roman-53"/>
     <use x="158.88671875" xlink:href="#BitstreamVeraSans-Roman-74"/>
     <use x="198.095703125" xlink:href="#BitstreamVeraSans-Roman-65"/>
     <use x="259.619140625" xlink:href="#BitstreamVeraSans-Roman-70"/>
     <use x="323.095703125" xlink:href="#BitstreamVeraSans-Roman-2d"/>
     <use x="359.1796875" xlink:href="#BitstreamVeraSans-Roman-65"/>
     <use x="420.703125" xlink:href="#BitstreamVeraSans-Roman-6c"/>
     <use x="448.486328125" xlink:href="#BitstreamVeraSans-Roman-6c"/>
     <use x="476.26953125" xlink:href="#BitstreamVeraSans-Roman-69"/>
     <use x="504.052734375" xlink:href="#BitstreamVeraSans-Roman-70"/>
     <use x="567.529296875" xlink:href="#BitstreamVeraSans-Roman-73"/>
     <use x="619.62890625" xlink:href="#BitstreamVeraSans-Roman-6f"/>
     <use x="680.810546875" xlink:href="#BitstreamVeraSans-Roman-69"/>
     <use x="708.59375" xlink:href="#BitstreamVeraSans-Roman-64"/>
    </g>
   </g>
  </g>
 </g>
 <defs>
  <clipPath id="p8d5456c3db">
   <rect height="374.4" width="543.74" x="22.9" y="26.6"/>
  </clipPath>
 </defs>
</svg>
