<?xml version="1.0" encoding="utf-8" standalone="no"?>
<!DOCTYPE svg PUBLIC "-//W3C//DTD SVG 1.1//EN"
  "http://www.w3.org/Graphics/SVG/1.1/DTD/svg11.dtd">
<!-- Created with matplotlib (http://matplotlib.org/) -->
<svg height="432pt" version="1.1" viewBox="0 0 576 432" width="576pt" xmlns="http://www.w3.org/2000/svg" xmlns:xlink="http://www.w3.org/1999/xlink">
 <defs>
  <style type="text/css">
*{stroke-linecap:butt;stroke-linejoin:round;stroke-miterlimit:100000;}
  </style>
 </defs>
 <g id="figure_1">
  <g id="patch_1">
   <path d="M 0 432 
L 576 432 
L 576 0 
L 0 0 
z
" style="fill:#ffffff;"/>
  </g>
  <g id="axes_1">
   <g id="patch_2">
    <path d="M 3 384 
L 567.24 384 
L 567.24 3 
L 3 3 
z
" style="fill:#ffffff;"/>
   </g>
   <g id="line2d_1">
    <path clip-path="url(#p3a7bf6b43c)" d="M 298.024986 384 
L 298.024986 378.970297 
L 300.454466 378.970297 
L 300.454466 373.940594 
L 301.289238 373.940594 
L 301.289238 368.910891 
L 303.653285 368.910891 
L 303.653285 363.881188 
L 304.412408 363.881188 
L 304.412408 358.851485 
L 304.682843 358.851485 
L 304.682843 353.821782 
L 305.528962 353.821782 
L 305.528962 348.792079 
L 305.667493 348.792079 
L 305.667493 343.762376 
L 306.690278 343.762376 
L 306.690278 338.732673 
L 307.15165 338.732673 
L 307.15165 333.70297 
L 307.589424 333.70297 
L 307.589424 328.673267 
L 309.237302 328.673267 
L 309.237302 323.643564 
L 312.789594 323.643564 
L 312.789594 318.613861 
L 315.026768 318.613861 
L 315.026768 313.584158 
L 315.45897 313.584158 
L 315.45897 308.554455 
L 332.068017 308.554455 
L 332.068017 303.524752 
L 333.398158 303.524752 
L 333.398158 298.49505 
L 335.762984 298.49505 
L 335.762984 293.465347 
L 336.191688 293.465347 
L 336.191688 288.435644 
L 336.512457 288.435644 
L 336.512457 283.405941 
L 336.719351 283.405941 
L 336.719351 278.376238 
L 337.294098 278.376238 
L 337.294098 273.346535 
L 337.493257 273.346535 
L 337.493257 268.316832 
L 337.745725 268.316832 
L 337.745725 263.287129 
L 338.211906 263.287129 
L 338.211906 258.257426 
L 338.714987 258.257426 
L 338.714987 253.227723 
L 339.174955 253.227723 
L 339.174955 248.19802 
L 339.588044 248.19802 
L 339.588044 243.168317 
L 340.273713 243.168317 
L 340.273713 238.138614 
L 340.667591 238.138614 
L 340.667591 233.108911 
L 365.447942 233.108911 
L 365.447942 228.079208 
L 366.542951 228.079208 
L 366.542951 223.049505 
L 368.714732 223.049505 
L 368.714732 218.019802 
L 370.839265 218.019802 
L 370.839265 212.990099 
L 371.38189 212.990099 
L 371.38189 207.960396 
L 371.61126 207.960396 
L 371.705367 192.871287 
L 372.098883 192.871287 
L 372.098883 187.841584 
L 372.435167 187.841584 
L 372.491805 177.782178 
L 374.630155 177.782178 
L 374.630155 172.752475 
L 374.839983 172.752475 
L 374.839983 167.722772 
L 375.266109 167.722772 
L 375.266109 162.693069 
L 376.522156 162.693069 
L 376.522156 157.663366 
L 428.096275 157.663366 
L 428.096275 152.633663 
L 430.807919 152.633663 
L 430.807919 147.60396 
L 436.24395 147.60396 
L 436.24395 142.574257 
L 436.766037 142.574257 
L 436.766037 137.544554 
L 440.817911 137.544554 
L 440.817911 132.514851 
L 447.322393 132.514851 
L 447.322393 127.485149 
L 448.451341 127.485149 
L 448.451341 122.455446 
L 450.540274 122.455446 
L 450.540274 117.425743 
L 451.627927 117.425743 
L 451.627927 112.39604 
L 452.024737 112.39604 
L 452.024737 107.366337 
L 456.182033 107.366337 
L 456.182033 102.336634 
L 460.86831 102.336634 
L 460.86831 97.306931 
L 462.727113 97.306931 
L 462.727113 92.277228 
L 467.545702 92.277228 
L 467.545702 87.247525 
L 468.536986 87.247525 
L 468.536986 82.217822 
L 507.942983 82.217822 
L 507.942983 77.188119 
L 511.294958 77.188119 
L 511.294958 72.158416 
L 519.778148 72.158416 
L 519.778148 67.128713 
L 523.19888 67.128713 
L 523.19888 62.09901 
L 523.76067 62.09901 
L 523.76067 57.069307 
L 525.087888 57.069307 
L 525.087888 52.039604 
L 525.937234 52.039604 
L 525.937234 47.009901 
L 526.205391 47.009901 
L 526.205391 41.980198 
L 527.59393 41.980198 
L 527.59393 36.950495 
L 528.376354 36.950495 
L 528.376354 31.920792 
L 529.885282 31.920792 
L 529.885282 26.891089 
L 530.589824 26.891089 
L 530.589824 21.861386 
L 534.062108 21.861386 
L 534.062108 16.831683 
L 534.178925 16.831683 
L 534.178925 11.80198 
L 535.99569 11.80198 
L 535.99569 6.772277 
L 535.99569 6.772277 
L 567.24 6.772277 
L 567.24 6.772277 
" style="fill:none;stroke:#ff0000;stroke-linecap:square;stroke-width:3.0;"/>
   </g>
   <g id="line2d_2">
    <path clip-path="url(#p3a7bf6b43c)" d="M 309.227981 384 
L 309.227981 378.970297 
L 314.394449 378.970297 
L 314.394449 373.940594 
L 319.07408 373.940594 
L 319.07408 368.910891 
L 320.019586 368.910891 
L 320.019586 363.881188 
L 320.434076 363.881188 
L 320.434076 358.851485 
L 321.370435 358.851485 
L 321.370435 353.821782 
L 324.21799 353.821782 
L 324.21799 348.792079 
L 325.08201 348.792079 
L 325.08201 343.762376 
L 325.286902 343.762376 
L 325.286902 338.732673 
L 325.411004 338.732673 
L 325.411004 333.70297 
L 325.631004 333.70297 
L 325.631004 328.673267 
L 326.085078 328.673267 
L 326.085078 323.643564 
L 329.939554 323.643564 
L 329.939554 318.613861 
L 332.886217 318.613861 
L 332.886217 313.584158 
L 340.695252 313.584158 
L 340.695252 308.554455 
L 373.634914 308.554455 
L 373.634914 303.524752 
L 376.127361 303.524752 
L 376.127361 298.49505 
L 376.310464 298.49505 
L 376.310464 293.465347 
L 377.498208 293.465347 
L 377.498208 288.435644 
L 378.173495 288.435644 
L 378.173495 283.405941 
L 378.292428 283.405941 
L 378.292428 278.376238 
L 378.52204 278.376238 
L 378.52204 273.346535 
L 379.418161 273.346535 
L 379.470681 258.257426 
L 379.974192 258.257426 
L 379.974192 253.227723 
L 380.667284 253.227723 
L 380.667284 248.19802 
L 380.963576 248.19802 
L 381.014461 238.138614 
L 382.149461 238.138614 
L 382.149461 233.108911 
L 417.32579 233.108911 
L 417.32579 228.079208 
L 444.33806 228.079208 
L 444.33806 223.049505 
L 449.346844 223.049505 
L 449.346844 218.019802 
L 458.012267 218.019802 
L 458.012267 212.990099 
L 462.44108 212.990099 
L 462.44108 207.960396 
L 473.267065 207.960396 
L 473.267065 202.930693 
L 476.697443 202.930693 
L 476.697443 197.90099 
L 477.520746 197.90099 
L 477.520746 192.871287 
L 479.714225 192.871287 
L 479.714225 187.841584 
L 480.970538 187.841584 
L 480.970538 182.811881 
L 481.312584 182.811881 
L 481.312584 177.782178 
L 481.457479 177.782178 
L 481.457479 172.752475 
L 484.659351 172.752475 
L 484.659351 167.722772 
L 485.598257 167.722772 
L 485.598257 162.693069 
L 486.854819 162.693069 
L 486.854819 157.663366 
L 489.02076 157.663366 
L 489.02076 152.633663 
L 490.732176 152.633663 
L 490.807362 142.574257 
L 493.531777 142.574257 
L 493.531777 137.544554 
L 496.067942 137.544554 
L 496.067942 132.514851 
L 496.28769 132.514851 
L 496.28769 127.485149 
L 496.520812 127.485149 
L 496.520812 122.455446 
L 498.742311 122.455446 
L 498.742311 117.425743 
L 499.276807 117.425743 
L 499.276807 112.39604 
L 499.836006 112.39604 
L 499.836006 107.366337 
L 500.74604 107.366337 
L 500.74604 102.336634 
L 502.322007 102.336634 
L 502.322007 97.306931 
L 503.205644 97.306931 
L 503.205644 92.277228 
L 504.894139 92.277228 
L 504.894139 87.247525 
L 516.792754 87.247525 
L 516.792754 82.217822 
L 532.684565 82.217822 
L 532.684565 77.188119 
L 533.404104 77.188119 
L 533.404104 72.158416 
L 541.077592 72.158416 
L 541.077592 67.128713 
L 541.371496 67.128713 
L 541.371496 62.09901 
L 542.327984 62.09901 
L 542.327984 57.069307 
L 542.563431 57.069307 
L 542.563431 52.039604 
L 544.336904 52.039604 
L 544.336904 47.009901 
L 549.187249 47.009901 
L 549.187249 41.980198 
L 551.691506 41.980198 
L 551.691506 36.950495 
L 555.031843 36.950495 
L 555.031843 31.920792 
L 556.750537 31.920792 
L 556.750537 26.891089 
L 558.735548 26.891089 
L 558.735548 21.861386 
L 558.94969 21.861386 
L 558.94969 16.831683 
L 559.607689 16.831683 
L 559.607689 11.80198 
L 560.109009 11.80198 
L 560.109009 6.772277 
L 560.109009 6.772277 
L 567.24 6.772277 
L 567.24 6.772277 
" style="fill:none;stroke:#00bfbf;stroke-linecap:square;"/>
   </g>
   <g id="line2d_3">
    <path clip-path="url(#p3a7bf6b43c)" d="M 309.227296 384 
L 309.227296 378.970297 
L 314.394038 378.970297 
L 314.394038 373.940594 
L 319.073527 373.940594 
L 319.073527 368.910891 
L 320.019527 368.910891 
L 320.019527 363.881188 
L 320.433809 363.881188 
L 320.433809 358.851485 
L 321.370435 358.851485 
L 321.370435 353.821782 
L 324.217626 353.821782 
L 324.217626 348.792079 
L 325.08201 348.792079 
L 325.08201 343.762376 
L 325.286786 343.762376 
L 325.286786 338.732673 
L 325.41088 338.732673 
L 325.41088 333.70297 
L 325.630552 333.70297 
L 325.630552 328.673267 
L 326.08471 328.673267 
L 326.08471 323.643564 
L 329.939398 323.643564 
L 329.939398 318.613861 
L 332.886217 318.613861 
L 332.886217 313.584158 
L 340.694808 313.584158 
L 340.694808 308.554455 
L 373.634744 308.554455 
L 373.634744 303.524752 
L 376.127347 303.524752 
L 376.127347 298.49505 
L 376.31036 298.49505 
L 376.31036 293.465347 
L 377.498104 293.465347 
L 377.498104 288.435644 
L 378.173475 288.435644 
L 378.173475 283.405941 
L 378.292308 283.405941 
L 378.292308 278.376238 
L 378.521996 278.376238 
L 378.521996 273.346535 
L 379.418161 273.346535 
L 379.470574 258.257426 
L 379.974061 258.257426 
L 379.974061 253.227723 
L 380.667284 253.227723 
L 380.667284 248.19802 
L 380.96353 248.19802 
L 381.014451 238.138614 
L 382.149446 238.138614 
L 382.149446 233.108911 
L 417.318396 233.108911 
L 417.318396 228.079208 
L 444.336435 228.079208 
L 444.336435 223.049505 
L 449.343935 223.049505 
L 449.343935 218.019802 
L 458.006691 218.019802 
L 458.006691 212.990099 
L 462.4389 212.990099 
L 462.4389 207.960396 
L 473.266158 207.960396 
L 473.266158 202.930693 
L 476.697443 202.930693 
L 476.697443 197.90099 
L 477.51988 197.90099 
L 477.51988 192.871287 
L 479.713791 192.871287 
L 479.713791 187.841584 
L 480.970362 187.841584 
L 480.970362 182.811881 
L 481.311536 182.811881 
L 481.311536 177.782178 
L 481.456216 177.782178 
L 481.456216 172.752475 
L 484.658096 172.752475 
L 484.658096 167.722772 
L 485.597308 167.722772 
L 485.597308 162.693069 
L 486.854819 162.693069 
L 486.854819 157.663366 
L 489.019686 157.663366 
L 489.019686 152.633663 
L 490.731843 152.633663 
L 490.807054 142.574257 
L 493.530401 142.574257 
L 493.530401 137.544554 
L 496.067363 137.544554 
L 496.067363 132.514851 
L 496.287274 132.514851 
L 496.287274 127.485149 
L 496.520678 127.485149 
L 496.520678 122.455446 
L 498.742311 122.455446 
L 498.742311 117.425743 
L 499.276805 117.425743 
L 499.276805 112.39604 
L 499.83591 112.39604 
L 499.83591 107.366337 
L 500.74604 107.366337 
L 500.74604 102.336634 
L 502.322007 102.336634 
L 502.322007 97.306931 
L 503.205527 97.306931 
L 503.205527 92.277228 
L 504.893723 92.277228 
L 504.893723 87.247525 
L 516.792754 87.247525 
L 516.792754 82.217822 
L 532.684353 82.217822 
L 532.684353 77.188119 
L 533.403693 77.188119 
L 533.403693 72.158416 
L 541.077189 72.158416 
L 541.077189 67.128713 
L 541.371084 67.128713 
L 541.371084 62.09901 
L 542.327664 62.09901 
L 542.327664 57.069307 
L 542.562549 57.069307 
L 542.562549 52.039604 
L 544.336422 52.039604 
L 544.336422 47.009901 
L 549.186436 47.009901 
L 549.186436 41.980198 
L 551.691419 41.980198 
L 551.691419 36.950495 
L 555.031764 36.950495 
L 555.031764 31.920792 
L 556.74995 31.920792 
L 556.74995 26.891089 
L 558.735548 26.891089 
L 558.735548 21.861386 
L 558.949485 21.861386 
L 558.949485 16.831683 
L 559.607263 16.831683 
L 559.607263 11.80198 
L 560.109009 11.80198 
L 560.109009 6.772277 
L 560.109009 6.772277 
L 567.24 6.772277 
L 567.24 6.772277 
" style="fill:none;stroke:#bf00bf;stroke-linecap:square;"/>
   </g>
   <g id="line2d_4">
    <path clip-path="url(#p3a7bf6b43c)" d="M 309.224162 384 
L 309.224162 378.970297 
L 314.390312 378.970297 
L 314.390312 373.940594 
L 319.070574 373.940594 
L 319.070574 368.910891 
L 320.017045 368.910891 
L 320.017045 363.881188 
L 320.430052 363.881188 
L 320.430052 358.851485 
L 321.367652 358.851485 
L 321.367652 353.821782 
L 324.215118 353.821782 
L 324.215118 348.792079 
L 325.079888 348.792079 
L 325.079888 343.762376 
L 325.284339 343.762376 
L 325.284339 338.732673 
L 325.408233 338.732673 
L 325.408233 333.70297 
L 325.626767 333.70297 
L 325.626767 328.673267 
L 326.082456 328.673267 
L 326.082456 323.643564 
L 329.935973 323.643564 
L 329.935973 318.613861 
L 332.883161 318.613861 
L 332.883161 313.584158 
L 340.692137 313.584158 
L 340.692137 308.554455 
L 373.633597 308.554455 
L 373.633597 303.524752 
L 376.126209 303.524752 
L 376.126209 298.49505 
L 376.3095 298.49505 
L 376.3095 293.465347 
L 377.497188 293.465347 
L 377.497188 288.435644 
L 378.172718 288.435644 
L 378.172718 283.405941 
L 378.291611 283.405941 
L 378.291611 278.376238 
L 378.521118 278.376238 
L 378.521118 273.346535 
L 379.417329 273.346535 
L 379.469671 258.257426 
L 379.973344 258.257426 
L 379.973344 253.227723 
L 380.666595 253.227723 
L 380.666595 248.19802 
L 380.962873 248.19802 
L 381.013687 238.138614 
L 382.148732 238.138614 
L 382.148732 233.108911 
L 417.267105 233.108911 
L 417.267105 228.079208 
L 444.308574 228.079208 
L 444.308574 223.049505 
L 449.330983 223.049505 
L 449.330983 218.019802 
L 457.985618 218.019802 
L 457.985618 212.990099 
L 462.415503 212.990099 
L 462.415503 207.960396 
L 473.259955 207.960396 
L 473.259955 202.930693 
L 476.684719 202.930693 
L 476.684719 197.90099 
L 477.511786 197.90099 
L 477.511786 192.871287 
L 479.710463 192.871287 
L 479.710463 187.841584 
L 480.960819 187.841584 
L 480.960819 182.811881 
L 481.302981 182.811881 
L 481.302981 177.782178 
L 481.444258 177.782178 
L 481.444258 172.752475 
L 484.652882 172.752475 
L 484.652882 167.722772 
L 485.584438 167.722772 
L 485.584438 162.693069 
L 486.84808 162.693069 
L 486.84808 157.663366 
L 489.015428 157.663366 
L 489.015428 152.633663 
L 490.729632 152.633663 
L 490.801055 142.574257 
L 493.523891 142.574257 
L 493.523891 137.544554 
L 496.062062 137.544554 
L 496.062062 132.514851 
L 496.283438 132.514851 
L 496.283438 127.485149 
L 496.517977 127.485149 
L 496.517977 122.455446 
L 498.739523 122.455446 
L 498.739523 117.425743 
L 499.271205 117.425743 
L 499.271205 112.39604 
L 499.834038 112.39604 
L 499.834038 107.366337 
L 500.742946 107.366337 
L 500.742946 102.336634 
L 502.319079 102.336634 
L 502.319079 97.306931 
L 503.202123 97.306931 
L 503.202123 92.277228 
L 504.889471 92.277228 
L 504.889471 87.247525 
L 516.790571 87.247525 
L 516.790571 82.217822 
L 532.681268 82.217822 
L 532.681268 77.188119 
L 533.400388 77.188119 
L 533.400388 72.158416 
L 541.073577 72.158416 
L 541.073577 67.128713 
L 541.366693 67.128713 
L 541.366693 62.09901 
L 542.325642 62.09901 
L 542.325642 57.069307 
L 542.559301 57.069307 
L 542.559301 52.039604 
L 544.334186 52.039604 
L 544.334186 47.009901 
L 549.182986 47.009901 
L 549.182986 41.980198 
L 551.687335 41.980198 
L 551.687335 36.950495 
L 555.025912 36.950495 
L 555.025912 31.920792 
L 556.743518 31.920792 
L 556.743518 26.891089 
L 558.732424 26.891089 
L 558.732424 21.861386 
L 558.945262 21.861386 
L 558.945262 16.831683 
L 559.601709 16.831683 
L 559.601709 11.80198 
L 560.104715 11.80198 
L 560.104715 6.772277 
L 560.104715 6.772277 
L 567.24 6.772277 
L 567.24 6.772277 
" style="fill:none;stroke:#000000;stroke-linecap:square;"/>
   </g>
   <g id="line2d_5">
    <path clip-path="url(#p3a7bf6b43c)" d="M 309.132118 384 
L 309.132118 378.970297 
L 314.3131 378.970297 
L 314.3131 373.940594 
L 318.988212 373.940594 
L 318.988212 368.910891 
L 319.965681 368.910891 
L 319.965681 363.881188 
L 320.354614 363.881188 
L 320.354614 358.851485 
L 321.287503 358.851485 
L 321.287503 353.821782 
L 324.143206 353.821782 
L 324.143206 348.792079 
L 325.014672 348.792079 
L 325.014672 343.762376 
L 325.235749 343.762376 
L 325.235749 338.732673 
L 325.356192 338.732673 
L 325.356192 333.70297 
L 325.523597 333.70297 
L 325.523597 328.673267 
L 326.017802 328.673267 
L 326.017802 323.643564 
L 329.866441 323.643564 
L 329.866441 318.613861 
L 332.821429 318.613861 
L 332.821429 313.584158 
L 340.629216 313.584158 
L 340.629216 308.554455 
L 373.609925 308.554455 
L 373.609925 303.524752 
L 376.10303 303.524752 
L 376.10303 298.49505 
L 376.292774 298.49505 
L 376.292774 293.465347 
L 377.479433 293.465347 
L 377.479433 288.435644 
L 378.156907 288.435644 
L 378.156907 283.405941 
L 378.272076 283.405941 
L 378.272076 278.376238 
L 378.499428 278.376238 
L 378.499428 273.346535 
L 379.399427 273.346535 
L 379.453679 258.257426 
L 379.952672 258.257426 
L 379.952672 253.227723 
L 380.65228 253.227723 
L 380.65228 248.19802 
L 380.948325 248.19802 
L 380.995666 238.138614 
L 382.134334 238.138614 
L 382.134334 233.108911 
L 415.597883 233.108911 
L 415.597883 228.079208 
L 443.657088 228.079208 
L 443.657088 223.049505 
L 448.945218 223.049505 
L 448.945218 218.019802 
L 457.473926 218.019802 
L 457.473926 212.990099 
L 461.946848 212.990099 
L 461.946848 207.960396 
L 473.074972 207.960396 
L 473.074972 202.930693 
L 476.411746 202.930693 
L 476.411746 197.90099 
L 477.341025 197.90099 
L 477.341025 192.871287 
L 479.637133 192.871287 
L 479.637133 187.841584 
L 480.754251 187.841584 
L 480.754251 182.811881 
L 481.064027 182.811881 
L 481.064027 177.782178 
L 481.210842 177.782178 
L 481.210842 172.752475 
L 484.508973 172.752475 
L 484.508973 167.722772 
L 485.336523 167.722772 
L 485.336523 162.693069 
L 486.702487 162.693069 
L 486.702487 157.663366 
L 488.899592 157.663366 
L 488.899592 152.633663 
L 490.681255 152.633663 
L 490.685489 142.574257 
L 493.338826 142.574257 
L 493.338826 137.544554 
L 495.951419 137.544554 
L 495.951419 132.514851 
L 496.204119 132.514851 
L 496.204119 127.485149 
L 496.464084 127.485149 
L 496.464084 122.455446 
L 498.658723 122.455446 
L 498.658723 117.425743 
L 499.160842 117.425743 
L 499.160842 112.39604 
L 499.796204 112.39604 
L 499.796204 107.366337 
L 500.680721 107.366337 
L 500.680721 102.336634 
L 502.25691 102.336634 
L 502.25691 97.306931 
L 503.134022 97.306931 
L 503.134022 92.277228 
L 504.7984 92.277228 
L 504.7984 87.247525 
L 516.749098 87.247525 
L 516.749098 82.217822 
L 532.589228 82.217822 
L 532.589228 77.188119 
L 533.315278 77.188119 
L 533.315278 72.158416 
L 540.995892 72.158416 
L 540.995892 67.128713 
L 541.247309 67.128713 
L 541.247309 62.09901 
L 542.267952 62.09901 
L 542.267952 57.069307 
L 542.465641 57.069307 
L 542.465641 52.039604 
L 544.269106 52.039604 
L 544.269106 47.009901 
L 549.087387 47.009901 
L 549.087387 41.980198 
L 551.609302 41.980198 
L 551.609302 36.950495 
L 554.908715 36.950495 
L 554.908715 31.920792 
L 556.612841 31.920792 
L 556.612841 26.891089 
L 558.653939 26.891089 
L 558.653939 21.861386 
L 558.859078 21.861386 
L 558.859078 16.831683 
L 559.490876 16.831683 
L 559.490876 11.80198 
L 560.017641 11.80198 
L 560.017641 6.772277 
L 560.017641 6.772277 
L 567.24 6.772277 
L 567.24 6.772277 
" style="fill:none;stroke:#00bfbf;stroke-linecap:square;"/>
   </g>
   <g id="line2d_6">
    <path clip-path="url(#p3a7bf6b43c)" d="M 302.12313 384 
L 302.12313 378.970297 
L 304.287536 378.970297 
L 304.287536 373.940594 
L 304.546222 373.940594 
L 304.546222 368.910891 
L 306.705973 368.910891 
L 306.705973 363.881188 
L 309.1131 363.881188 
L 309.1131 358.851485 
L 309.452034 358.851485 
L 309.529633 348.792079 
L 310.98006 348.792079 
L 310.98006 343.762376 
L 311.485891 343.762376 
L 311.524613 333.70297 
L 313.389766 333.70297 
L 313.389766 328.673267 
L 314.689714 328.673267 
L 314.771606 318.613861 
L 317.239704 318.613861 
L 317.239704 313.584158 
L 322.642082 313.584158 
L 322.642082 308.554455 
L 332.068017 308.554455 
L 332.068017 303.524752 
L 333.398158 303.524752 
L 333.398158 298.49505 
L 335.762984 298.49505 
L 335.762984 293.465347 
L 336.191688 293.465347 
L 336.191688 288.435644 
L 336.512457 288.435644 
L 336.512457 283.405941 
L 336.719351 283.405941 
L 336.719351 278.376238 
L 337.294098 278.376238 
L 337.294098 273.346535 
L 337.493257 273.346535 
L 337.493257 268.316832 
L 337.745725 268.316832 
L 337.745725 263.287129 
L 338.211906 263.287129 
L 338.211906 258.257426 
L 338.714987 258.257426 
L 338.714987 253.227723 
L 339.174955 253.227723 
L 339.174955 248.19802 
L 339.588044 248.19802 
L 339.588044 243.168317 
L 340.273713 243.168317 
L 340.273713 238.138614 
L 340.667591 238.138614 
L 340.667591 233.108911 
L 366.643194 233.108911 
L 366.643194 228.079208 
L 368.187657 228.079208 
L 368.187657 223.049505 
L 370.685523 223.049505 
L 370.685523 218.019802 
L 372.296552 218.019802 
L 372.296552 212.990099 
L 372.962144 212.990099 
L 372.998471 202.930693 
L 373.114517 202.930693 
L 373.158594 192.871287 
L 373.263849 192.871287 
L 373.272509 182.811881 
L 374.069515 182.811881 
L 374.069515 177.782178 
L 374.947295 177.782178 
L 374.947295 172.752475 
L 375.544498 172.752475 
L 375.544498 167.722772 
L 378.153454 167.722772 
L 378.153454 162.693069 
L 378.546244 162.693069 
L 378.546244 157.663366 
L 438.91892 157.663366 
L 438.91892 152.633663 
L 440.949386 152.633663 
L 440.949386 147.60396 
L 446.062403 147.60396 
L 446.062403 142.574257 
L 450.739792 142.574257 
L 450.739792 137.544554 
L 451.982271 137.544554 
L 451.982271 132.514851 
L 454.992046 132.514851 
L 454.992046 127.485149 
L 455.849567 127.485149 
L 455.849567 122.455446 
L 458.328331 122.455446 
L 458.328331 117.425743 
L 462.110346 117.425743 
L 462.110346 112.39604 
L 465.940721 112.39604 
L 465.940721 107.366337 
L 466.326509 107.366337 
L 466.326509 102.336634 
L 468.265352 102.336634 
L 468.364041 92.277228 
L 476.641551 92.277228 
L 476.641551 87.247525 
L 476.879279 87.247525 
L 476.879279 82.217822 
L 511.890596 82.217822 
L 511.890596 77.188119 
L 515.012734 77.188119 
L 515.012734 72.158416 
L 521.936114 72.158416 
L 521.936114 67.128713 
L 525.81749 67.128713 
L 525.81749 62.09901 
L 527.955443 62.09901 
L 527.955443 57.069307 
L 528.700137 57.069307 
L 528.700137 52.039604 
L 529.673077 52.039604 
L 529.673077 47.009901 
L 531.232123 47.009901 
L 531.232123 41.980198 
L 532.342073 41.980198 
L 532.342073 36.950495 
L 533.554221 36.950495 
L 533.554221 31.920792 
L 534.796293 31.920792 
L 534.796293 26.891089 
L 535.783934 26.891089 
L 535.783934 21.861386 
L 537.765343 21.861386 
L 537.765343 16.831683 
L 539.463656 16.831683 
L 539.463656 11.80198 
L 540.224771 11.80198 
L 540.224771 6.772277 
L 540.224771 6.772277 
L 567.24 6.772277 
L 567.24 6.772277 
" style="fill:none;stroke:#bf00bf;stroke-linecap:square;"/>
   </g>
   <g id="patch_3">
    <path d="M 3 3 
L 567.24 3 
" style="fill:none;stroke:#000000;stroke-linecap:square;stroke-linejoin:miter;"/>
   </g>
   <g id="patch_4">
    <path d="M 567.24 384 
L 567.24 3 
" style="fill:none;stroke:#000000;stroke-linecap:square;stroke-linejoin:miter;"/>
   </g>
   <g id="patch_5">
    <path d="M 3 384 
L 567.24 384 
" style="fill:none;stroke:#000000;stroke-linecap:square;stroke-linejoin:miter;"/>
   </g>
   <g id="patch_6">
    <path d="M 3 384 
L 3 3 
" style="fill:none;stroke:#000000;stroke-linecap:square;stroke-linejoin:miter;"/>
   </g>
   <g id="matplotlib.axis_1">
    <g id="xtick_1"/>
    <g id="xtick_2">
     <g id="line2d_7">
      <path clip-path="url(#p3a7bf6b43c)" d="M 69.254589 384 
L 69.254589 3 
" style="fill:none;stroke:#000000;stroke-dasharray:1.000000,3.000000;stroke-dashoffset:0.0;stroke-width:0.5;"/>
     </g>
     <g id="line2d_8">
      <defs>
       <path d="M 0 0 
L 0 -4 
" id="m53cf28620a" style="stroke:#000000;stroke-width:0.5;"/>
      </defs>
      <g>
       <use style="stroke:#000000;stroke-width:0.5;" x="69.2545893472" xlink:href="#m53cf28620a" y="384.0"/>
      </g>
     </g>
     <g id="line2d_9">
      <defs>
       <path d="M 0 0 
L 0 4 
" id="m89cfc0b5be" style="stroke:#000000;stroke-width:0.5;"/>
      </defs>
      <g>
       <use style="stroke:#000000;stroke-width:0.5;" x="69.2545893472" xlink:href="#m89cfc0b5be" y="3.0"/>
      </g>
     </g>
     <g id="text_1">
      <!-- -6 -->
      <defs>
       <path d="M 33.015625 40.375 
Q 26.375 40.375 22.484375 35.828125 
Q 18.609375 31.296875 18.609375 23.390625 
Q 18.609375 15.53125 22.484375 10.953125 
Q 26.375 6.390625 33.015625 6.390625 
Q 39.65625 6.390625 43.53125 10.953125 
Q 47.40625 15.53125 47.40625 23.390625 
Q 47.40625 31.296875 43.53125 35.828125 
Q 39.65625 40.375 33.015625 40.375 
M 52.59375 71.296875 
L 52.59375 62.3125 
Q 48.875 64.0625 45.09375 64.984375 
Q 41.3125 65.921875 37.59375 65.921875 
Q 27.828125 65.921875 22.671875 59.328125 
Q 17.53125 52.734375 16.796875 39.40625 
Q 19.671875 43.65625 24.015625 45.921875 
Q 28.375 48.1875 33.59375 48.1875 
Q 44.578125 48.1875 50.953125 41.515625 
Q 57.328125 34.859375 57.328125 23.390625 
Q 57.328125 12.15625 50.6875 5.359375 
Q 44.046875 -1.421875 33.015625 -1.421875 
Q 20.359375 -1.421875 13.671875 8.265625 
Q 6.984375 17.96875 6.984375 36.375 
Q 6.984375 53.65625 15.1875 63.9375 
Q 23.390625 74.21875 37.203125 74.21875 
Q 40.921875 74.21875 44.703125 73.484375 
Q 48.484375 72.75 52.59375 71.296875 
" id="BitstreamVeraSans-Roman-36"/>
       <path d="M 4.890625 31.390625 
L 31.203125 31.390625 
L 31.203125 23.390625 
L 4.890625 23.390625 
z
" id="BitstreamVeraSans-Roman-2d"/>
      </defs>
      <g transform="translate(59.2842768472 403.196875)scale(0.2 -0.2)">
       <use xlink:href="#BitstreamVeraSans-Roman-2d"/>
       <use x="36.083984375" xlink:href="#BitstreamVeraSans-Roman-36"/>
      </g>
     </g>
    </g>
    <g id="xtick_3">
     <g id="line2d_10">
      <path clip-path="url(#p3a7bf6b43c)" d="M 135.652644 384 
L 135.652644 3 
" style="fill:none;stroke:#000000;stroke-dasharray:1.000000,3.000000;stroke-dashoffset:0.0;stroke-width:0.5;"/>
     </g>
     <g id="line2d_11">
      <g>
       <use style="stroke:#000000;stroke-width:0.5;" x="135.652644101" xlink:href="#m53cf28620a" y="384.0"/>
      </g>
     </g>
     <g id="line2d_12">
      <g>
       <use style="stroke:#000000;stroke-width:0.5;" x="135.652644101" xlink:href="#m89cfc0b5be" y="3.0"/>
      </g>
     </g>
     <g id="text_2">
      <!-- -4 -->
      <defs>
       <path d="M 37.796875 64.3125 
L 12.890625 25.390625 
L 37.796875 25.390625 
z
M 35.203125 72.90625 
L 47.609375 72.90625 
L 47.609375 25.390625 
L 58.015625 25.390625 
L 58.015625 17.1875 
L 47.609375 17.1875 
L 47.609375 0 
L 37.796875 0 
L 37.796875 17.1875 
L 4.890625 17.1875 
L 4.890625 26.703125 
z
" id="BitstreamVeraSans-Roman-34"/>
      </defs>
      <g transform="translate(125.682331601 403.196875)scale(0.2 -0.2)">
       <use xlink:href="#BitstreamVeraSans-Roman-2d"/>
       <use x="36.083984375" xlink:href="#BitstreamVeraSans-Roman-34"/>
      </g>
     </g>
    </g>
    <g id="xtick_4">
     <g id="line2d_13">
      <path clip-path="url(#p3a7bf6b43c)" d="M 202.050699 384 
L 202.050699 3 
" style="fill:none;stroke:#000000;stroke-dasharray:1.000000,3.000000;stroke-dashoffset:0.0;stroke-width:0.5;"/>
     </g>
     <g id="line2d_14">
      <g>
       <use style="stroke:#000000;stroke-width:0.5;" x="202.050698855" xlink:href="#m53cf28620a" y="384.0"/>
      </g>
     </g>
     <g id="line2d_15">
      <g>
       <use style="stroke:#000000;stroke-width:0.5;" x="202.050698855" xlink:href="#m89cfc0b5be" y="3.0"/>
      </g>
     </g>
     <g id="text_3">
      <!-- -2 -->
      <defs>
       <path d="M 19.1875 8.296875 
L 53.609375 8.296875 
L 53.609375 0 
L 7.328125 0 
L 7.328125 8.296875 
Q 12.9375 14.109375 22.625 23.890625 
Q 32.328125 33.6875 34.8125 36.53125 
Q 39.546875 41.84375 41.421875 45.53125 
Q 43.3125 49.21875 43.3125 52.78125 
Q 43.3125 58.59375 39.234375 62.25 
Q 35.15625 65.921875 28.609375 65.921875 
Q 23.96875 65.921875 18.8125 64.3125 
Q 13.671875 62.703125 7.8125 59.421875 
L 7.8125 69.390625 
Q 13.765625 71.78125 18.9375 73 
Q 24.125 74.21875 28.421875 74.21875 
Q 39.75 74.21875 46.484375 68.546875 
Q 53.21875 62.890625 53.21875 53.421875 
Q 53.21875 48.921875 51.53125 44.890625 
Q 49.859375 40.875 45.40625 35.40625 
Q 44.1875 33.984375 37.640625 27.21875 
Q 31.109375 20.453125 19.1875 8.296875 
" id="BitstreamVeraSans-Roman-32"/>
      </defs>
      <g transform="translate(192.080386355 403.196875)scale(0.2 -0.2)">
       <use xlink:href="#BitstreamVeraSans-Roman-2d"/>
       <use x="36.083984375" xlink:href="#BitstreamVeraSans-Roman-32"/>
      </g>
     </g>
    </g>
    <g id="xtick_5">
     <g id="line2d_16">
      <path clip-path="url(#p3a7bf6b43c)" d="M 268.448754 384 
L 268.448754 3 
" style="fill:none;stroke:#000000;stroke-dasharray:1.000000,3.000000;stroke-dashoffset:0.0;stroke-width:0.5;"/>
     </g>
     <g id="line2d_17">
      <g>
       <use style="stroke:#000000;stroke-width:0.5;" x="268.448753608" xlink:href="#m53cf28620a" y="384.0"/>
      </g>
     </g>
     <g id="line2d_18">
      <g>
       <use style="stroke:#000000;stroke-width:0.5;" x="268.448753608" xlink:href="#m89cfc0b5be" y="3.0"/>
      </g>
     </g>
     <g id="text_4">
      <!-- 0 -->
      <defs>
       <path d="M 31.78125 66.40625 
Q 24.171875 66.40625 20.328125 58.90625 
Q 16.5 51.421875 16.5 36.375 
Q 16.5 21.390625 20.328125 13.890625 
Q 24.171875 6.390625 31.78125 6.390625 
Q 39.453125 6.390625 43.28125 13.890625 
Q 47.125 21.390625 47.125 36.375 
Q 47.125 51.421875 43.28125 58.90625 
Q 39.453125 66.40625 31.78125 66.40625 
M 31.78125 74.21875 
Q 44.046875 74.21875 50.515625 64.515625 
Q 56.984375 54.828125 56.984375 36.375 
Q 56.984375 17.96875 50.515625 8.265625 
Q 44.046875 -1.421875 31.78125 -1.421875 
Q 19.53125 -1.421875 13.0625 8.265625 
Q 6.59375 17.96875 6.59375 36.375 
Q 6.59375 54.828125 13.0625 64.515625 
Q 19.53125 74.21875 31.78125 74.21875 
" id="BitstreamVeraSans-Roman-30"/>
      </defs>
      <g transform="translate(262.086253608 403.196875)scale(0.2 -0.2)">
       <use xlink:href="#BitstreamVeraSans-Roman-30"/>
      </g>
     </g>
    </g>
    <g id="xtick_6">
     <g id="line2d_19">
      <path clip-path="url(#p3a7bf6b43c)" d="M 334.846808 384 
L 334.846808 3 
" style="fill:none;stroke:#000000;stroke-dasharray:1.000000,3.000000;stroke-dashoffset:0.0;stroke-width:0.5;"/>
     </g>
     <g id="line2d_20">
      <g>
       <use style="stroke:#000000;stroke-width:0.5;" x="334.846808362" xlink:href="#m53cf28620a" y="384.0"/>
      </g>
     </g>
     <g id="line2d_21">
      <g>
       <use style="stroke:#000000;stroke-width:0.5;" x="334.846808362" xlink:href="#m89cfc0b5be" y="3.0"/>
      </g>
     </g>
     <g id="text_5">
      <!-- 2 -->
      <g transform="translate(328.484308362 403.196875)scale(0.2 -0.2)">
       <use xlink:href="#BitstreamVeraSans-Roman-32"/>
      </g>
     </g>
    </g>
    <g id="xtick_7">
     <g id="line2d_22">
      <path clip-path="url(#p3a7bf6b43c)" d="M 401.244863 384 
L 401.244863 3 
" style="fill:none;stroke:#000000;stroke-dasharray:1.000000,3.000000;stroke-dashoffset:0.0;stroke-width:0.5;"/>
     </g>
     <g id="line2d_23">
      <g>
       <use style="stroke:#000000;stroke-width:0.5;" x="401.244863116" xlink:href="#m53cf28620a" y="384.0"/>
      </g>
     </g>
     <g id="line2d_24">
      <g>
       <use style="stroke:#000000;stroke-width:0.5;" x="401.244863116" xlink:href="#m89cfc0b5be" y="3.0"/>
      </g>
     </g>
     <g id="text_6">
      <!-- 4 -->
      <g transform="translate(394.882363116 403.196875)scale(0.2 -0.2)">
       <use xlink:href="#BitstreamVeraSans-Roman-34"/>
      </g>
     </g>
    </g>
    <g id="xtick_8">
     <g id="line2d_25">
      <path clip-path="url(#p3a7bf6b43c)" d="M 467.642918 384 
L 467.642918 3 
" style="fill:none;stroke:#000000;stroke-dasharray:1.000000,3.000000;stroke-dashoffset:0.0;stroke-width:0.5;"/>
     </g>
     <g id="line2d_26">
      <g>
       <use style="stroke:#000000;stroke-width:0.5;" x="467.642917869" xlink:href="#m53cf28620a" y="384.0"/>
      </g>
     </g>
     <g id="line2d_27">
      <g>
       <use style="stroke:#000000;stroke-width:0.5;" x="467.642917869" xlink:href="#m89cfc0b5be" y="3.0"/>
      </g>
     </g>
     <g id="text_7">
      <!-- 6 -->
      <g transform="translate(461.280417869 403.196875)scale(0.2 -0.2)">
       <use xlink:href="#BitstreamVeraSans-Roman-36"/>
      </g>
     </g>
    </g>
    <g id="xtick_9">
     <g id="line2d_28">
      <path clip-path="url(#p3a7bf6b43c)" d="M 534.040973 384 
L 534.040973 3 
" style="fill:none;stroke:#000000;stroke-dasharray:1.000000,3.000000;stroke-dashoffset:0.0;stroke-width:0.5;"/>
     </g>
     <g id="line2d_29">
      <g>
       <use style="stroke:#000000;stroke-width:0.5;" x="534.040972623" xlink:href="#m53cf28620a" y="384.0"/>
      </g>
     </g>
     <g id="line2d_30">
      <g>
       <use style="stroke:#000000;stroke-width:0.5;" x="534.040972623" xlink:href="#m89cfc0b5be" y="3.0"/>
      </g>
     </g>
     <g id="text_8">
      <!-- 8 -->
      <defs>
       <path d="M 31.78125 34.625 
Q 24.75 34.625 20.71875 30.859375 
Q 16.703125 27.09375 16.703125 20.515625 
Q 16.703125 13.921875 20.71875 10.15625 
Q 24.75 6.390625 31.78125 6.390625 
Q 38.8125 6.390625 42.859375 10.171875 
Q 46.921875 13.96875 46.921875 20.515625 
Q 46.921875 27.09375 42.890625 30.859375 
Q 38.875 34.625 31.78125 34.625 
M 21.921875 38.8125 
Q 15.578125 40.375 12.03125 44.71875 
Q 8.5 49.078125 8.5 55.328125 
Q 8.5 64.0625 14.71875 69.140625 
Q 20.953125 74.21875 31.78125 74.21875 
Q 42.671875 74.21875 48.875 69.140625 
Q 55.078125 64.0625 55.078125 55.328125 
Q 55.078125 49.078125 51.53125 44.71875 
Q 48 40.375 41.703125 38.8125 
Q 48.828125 37.15625 52.796875 32.3125 
Q 56.78125 27.484375 56.78125 20.515625 
Q 56.78125 9.90625 50.3125 4.234375 
Q 43.84375 -1.421875 31.78125 -1.421875 
Q 19.734375 -1.421875 13.25 4.234375 
Q 6.78125 9.90625 6.78125 20.515625 
Q 6.78125 27.484375 10.78125 32.3125 
Q 14.796875 37.15625 21.921875 38.8125 
M 18.3125 54.390625 
Q 18.3125 48.734375 21.84375 45.5625 
Q 25.390625 42.390625 31.78125 42.390625 
Q 38.140625 42.390625 41.71875 45.5625 
Q 45.3125 48.734375 45.3125 54.390625 
Q 45.3125 60.0625 41.71875 63.234375 
Q 38.140625 66.40625 31.78125 66.40625 
Q 25.390625 66.40625 21.84375 63.234375 
Q 18.3125 60.0625 18.3125 54.390625 
" id="BitstreamVeraSans-Roman-38"/>
      </defs>
      <g transform="translate(527.678472623 403.196875)scale(0.2 -0.2)">
       <use xlink:href="#BitstreamVeraSans-Roman-38"/>
      </g>
     </g>
    </g>
    <g id="xtick_10"/>
    <g id="xtick_11">
     <g id="line2d_31">
      <defs>
       <path d="M 0 0 
L 0 -2 
" id="mf7ec53a1d0" style="stroke:#000000;stroke-width:0.5;"/>
      </defs>
      <g>
       <use style="stroke:#000000;stroke-width:0.5;" x="69.2545893472" xlink:href="#mf7ec53a1d0" y="384.0"/>
      </g>
     </g>
     <g id="line2d_32">
      <defs>
       <path d="M 0 0 
L 0 2 
" id="mf3ccfef5f8" style="stroke:#000000;stroke-width:0.5;"/>
      </defs>
      <g>
       <use style="stroke:#000000;stroke-width:0.5;" x="69.2545893472" xlink:href="#mf3ccfef5f8" y="3.0"/>
      </g>
     </g>
    </g>
    <g id="xtick_12">
     <g id="line2d_33">
      <g>
       <use style="stroke:#000000;stroke-width:0.5;" x="135.652644101" xlink:href="#mf7ec53a1d0" y="384.0"/>
      </g>
     </g>
     <g id="line2d_34">
      <g>
       <use style="stroke:#000000;stroke-width:0.5;" x="135.652644101" xlink:href="#mf3ccfef5f8" y="3.0"/>
      </g>
     </g>
    </g>
    <g id="xtick_13">
     <g id="line2d_35">
      <g>
       <use style="stroke:#000000;stroke-width:0.5;" x="202.050698855" xlink:href="#mf7ec53a1d0" y="384.0"/>
      </g>
     </g>
     <g id="line2d_36">
      <g>
       <use style="stroke:#000000;stroke-width:0.5;" x="202.050698855" xlink:href="#mf3ccfef5f8" y="3.0"/>
      </g>
     </g>
    </g>
    <g id="xtick_14">
     <g id="line2d_37">
      <g>
       <use style="stroke:#000000;stroke-width:0.5;" x="268.448753608" xlink:href="#mf7ec53a1d0" y="384.0"/>
      </g>
     </g>
     <g id="line2d_38">
      <g>
       <use style="stroke:#000000;stroke-width:0.5;" x="268.448753608" xlink:href="#mf3ccfef5f8" y="3.0"/>
      </g>
     </g>
    </g>
    <g id="xtick_15">
     <g id="line2d_39">
      <g>
       <use style="stroke:#000000;stroke-width:0.5;" x="334.846808362" xlink:href="#mf7ec53a1d0" y="384.0"/>
      </g>
     </g>
     <g id="line2d_40">
      <g>
       <use style="stroke:#000000;stroke-width:0.5;" x="334.846808362" xlink:href="#mf3ccfef5f8" y="3.0"/>
      </g>
     </g>
    </g>
    <g id="xtick_16">
     <g id="line2d_41">
      <g>
       <use style="stroke:#000000;stroke-width:0.5;" x="401.244863116" xlink:href="#mf7ec53a1d0" y="384.0"/>
      </g>
     </g>
     <g id="line2d_42">
      <g>
       <use style="stroke:#000000;stroke-width:0.5;" x="401.244863116" xlink:href="#mf3ccfef5f8" y="3.0"/>
      </g>
     </g>
    </g>
    <g id="xtick_17">
     <g id="line2d_43">
      <g>
       <use style="stroke:#000000;stroke-width:0.5;" x="467.642917869" xlink:href="#mf7ec53a1d0" y="384.0"/>
      </g>
     </g>
     <g id="line2d_44">
      <g>
       <use style="stroke:#000000;stroke-width:0.5;" x="467.642917869" xlink:href="#mf3ccfef5f8" y="3.0"/>
      </g>
     </g>
    </g>
    <g id="xtick_18">
     <g id="line2d_45">
      <g>
       <use style="stroke:#000000;stroke-width:0.5;" x="534.040972623" xlink:href="#mf7ec53a1d0" y="384.0"/>
      </g>
     </g>
     <g id="line2d_46">
      <g>
       <use style="stroke:#000000;stroke-width:0.5;" x="534.040972623" xlink:href="#mf3ccfef5f8" y="3.0"/>
      </g>
     </g>
    </g>
    <g id="text_9">
     <!-- log10 of Df -->
     <defs>
      <path id="BitstreamVeraSans-Roman-20"/>
      <path d="M 12.40625 8.296875 
L 28.515625 8.296875 
L 28.515625 63.921875 
L 10.984375 60.40625 
L 10.984375 69.390625 
L 28.421875 72.90625 
L 38.28125 72.90625 
L 38.28125 8.296875 
L 54.390625 8.296875 
L 54.390625 0 
L 12.40625 0 
z
" id="BitstreamVeraSans-Roman-31"/>
      <path d="M 30.609375 48.390625 
Q 23.390625 48.390625 19.1875 42.75 
Q 14.984375 37.109375 14.984375 27.296875 
Q 14.984375 17.484375 19.15625 11.84375 
Q 23.34375 6.203125 30.609375 6.203125 
Q 37.796875 6.203125 41.984375 11.859375 
Q 46.1875 17.53125 46.1875 27.296875 
Q 46.1875 37.015625 41.984375 42.703125 
Q 37.796875 48.390625 30.609375 48.390625 
M 30.609375 56 
Q 42.328125 56 49.015625 48.375 
Q 55.71875 40.765625 55.71875 27.296875 
Q 55.71875 13.875 49.015625 6.21875 
Q 42.328125 -1.421875 30.609375 -1.421875 
Q 18.84375 -1.421875 12.171875 6.21875 
Q 5.515625 13.875 5.515625 27.296875 
Q 5.515625 40.765625 12.171875 48.375 
Q 18.84375 56 30.609375 56 
" id="BitstreamVeraSans-Roman-6f"/>
      <path d="M 9.421875 75.984375 
L 18.40625 75.984375 
L 18.40625 0 
L 9.421875 0 
z
" id="BitstreamVeraSans-Roman-6c"/>
      <path d="M 19.671875 64.796875 
L 19.671875 8.109375 
L 31.59375 8.109375 
Q 46.6875 8.109375 53.6875 14.9375 
Q 60.6875 21.78125 60.6875 36.53125 
Q 60.6875 51.171875 53.6875 57.984375 
Q 46.6875 64.796875 31.59375 64.796875 
z
M 9.8125 72.90625 
L 30.078125 72.90625 
Q 51.265625 72.90625 61.171875 64.09375 
Q 71.09375 55.28125 71.09375 36.53125 
Q 71.09375 17.671875 61.125 8.828125 
Q 51.171875 0 30.078125 0 
L 9.8125 0 
z
" id="BitstreamVeraSans-Roman-44"/>
      <path d="M 45.40625 27.984375 
Q 45.40625 37.75 41.375 43.109375 
Q 37.359375 48.484375 30.078125 48.484375 
Q 22.859375 48.484375 18.828125 43.109375 
Q 14.796875 37.75 14.796875 27.984375 
Q 14.796875 18.265625 18.828125 12.890625 
Q 22.859375 7.515625 30.078125 7.515625 
Q 37.359375 7.515625 41.375 12.890625 
Q 45.40625 18.265625 45.40625 27.984375 
M 54.390625 6.78125 
Q 54.390625 -7.171875 48.1875 -13.984375 
Q 42 -20.796875 29.203125 -20.796875 
Q 24.46875 -20.796875 20.265625 -20.09375 
Q 16.0625 -19.390625 12.109375 -17.921875 
L 12.109375 -9.1875 
Q 16.0625 -11.328125 19.921875 -12.34375 
Q 23.78125 -13.375 27.78125 -13.375 
Q 36.625 -13.375 41.015625 -8.765625 
Q 45.40625 -4.15625 45.40625 5.171875 
L 45.40625 9.625 
Q 42.625 4.78125 38.28125 2.390625 
Q 33.9375 0 27.875 0 
Q 17.828125 0 11.671875 7.65625 
Q 5.515625 15.328125 5.515625 27.984375 
Q 5.515625 40.671875 11.671875 48.328125 
Q 17.828125 56 27.875 56 
Q 33.9375 56 38.28125 53.609375 
Q 42.625 51.21875 45.40625 46.390625 
L 45.40625 54.6875 
L 54.390625 54.6875 
z
" id="BitstreamVeraSans-Roman-67"/>
      <path d="M 37.109375 75.984375 
L 37.109375 68.5 
L 28.515625 68.5 
Q 23.6875 68.5 21.796875 66.546875 
Q 19.921875 64.59375 19.921875 59.515625 
L 19.921875 54.6875 
L 34.71875 54.6875 
L 34.71875 47.703125 
L 19.921875 47.703125 
L 19.921875 0 
L 10.890625 0 
L 10.890625 47.703125 
L 2.296875 47.703125 
L 2.296875 54.6875 
L 10.890625 54.6875 
L 10.890625 58.5 
Q 10.890625 67.625 15.140625 71.796875 
Q 19.390625 75.984375 28.609375 75.984375 
z
" id="BitstreamVeraSans-Roman-66"/>
     </defs>
     <g transform="translate(229.9340625 427.553125)scale(0.2 -0.2)">
      <use xlink:href="#BitstreamVeraSans-Roman-6c"/>
      <use x="27.783203125" xlink:href="#BitstreamVeraSans-Roman-6f"/>
      <use x="88.96484375" xlink:href="#BitstreamVeraSans-Roman-67"/>
      <use x="152.44140625" xlink:href="#BitstreamVeraSans-Roman-31"/>
      <use x="216.064453125" xlink:href="#BitstreamVeraSans-Roman-30"/>
      <use x="279.6875" xlink:href="#BitstreamVeraSans-Roman-20"/>
      <use x="311.474609375" xlink:href="#BitstreamVeraSans-Roman-6f"/>
      <use x="372.65625" xlink:href="#BitstreamVeraSans-Roman-66"/>
      <use x="407.861328125" xlink:href="#BitstreamVeraSans-Roman-20"/>
      <use x="439.6484375" xlink:href="#BitstreamVeraSans-Roman-44"/>
      <use x="516.650390625" xlink:href="#BitstreamVeraSans-Roman-66"/>
     </g>
    </g>
   </g>
   <g id="matplotlib.axis_2">
    <g id="ytick_1">
     <g id="line2d_47">
      <path clip-path="url(#p3a7bf6b43c)" d="M 3 384 
L 567.24 384 
" style="fill:none;stroke:#000000;stroke-dasharray:1.000000,3.000000;stroke-dashoffset:0.0;stroke-width:0.5;"/>
     </g>
     <g id="line2d_48">
      <defs>
       <path d="M 0 0 
L 4 0 
" id="m4987f7d994" style="stroke:#000000;stroke-width:0.5;"/>
      </defs>
      <g>
       <use style="stroke:#000000;stroke-width:0.5;" x="3.0" xlink:href="#m4987f7d994" y="384.0"/>
      </g>
     </g>
     <g id="line2d_49">
      <defs>
       <path d="M 0 0 
L -4 0 
" id="m7b50b77a14" style="stroke:#000000;stroke-width:0.5;"/>
      </defs>
      <g>
       <use style="stroke:#000000;stroke-width:0.5;" x="567.24" xlink:href="#m7b50b77a14" y="384.0"/>
      </g>
     </g>
    </g>
    <g id="ytick_2">
     <g id="line2d_50">
      <path clip-path="url(#p3a7bf6b43c)" d="M 3 308.554455 
L 567.24 308.554455 
" style="fill:none;stroke:#000000;stroke-dasharray:1.000000,3.000000;stroke-dashoffset:0.0;stroke-width:0.5;"/>
     </g>
     <g id="line2d_51">
      <g>
       <use style="stroke:#000000;stroke-width:0.5;" x="3.0" xlink:href="#m4987f7d994" y="308.554455446"/>
      </g>
     </g>
     <g id="line2d_52">
      <g>
       <use style="stroke:#000000;stroke-width:0.5;" x="567.24" xlink:href="#m7b50b77a14" y="308.554455446"/>
      </g>
     </g>
    </g>
    <g id="ytick_3">
     <g id="line2d_53">
      <path clip-path="url(#p3a7bf6b43c)" d="M 3 233.108911 
L 567.24 233.108911 
" style="fill:none;stroke:#000000;stroke-dasharray:1.000000,3.000000;stroke-dashoffset:0.0;stroke-width:0.5;"/>
     </g>
     <g id="line2d_54">
      <g>
       <use style="stroke:#000000;stroke-width:0.5;" x="3.0" xlink:href="#m4987f7d994" y="233.108910891"/>
      </g>
     </g>
     <g id="line2d_55">
      <g>
       <use style="stroke:#000000;stroke-width:0.5;" x="567.24" xlink:href="#m7b50b77a14" y="233.108910891"/>
      </g>
     </g>
    </g>
    <g id="ytick_4">
     <g id="line2d_56">
      <path clip-path="url(#p3a7bf6b43c)" d="M 3 157.663366 
L 567.24 157.663366 
" style="fill:none;stroke:#000000;stroke-dasharray:1.000000,3.000000;stroke-dashoffset:0.0;stroke-width:0.5;"/>
     </g>
     <g id="line2d_57">
      <g>
       <use style="stroke:#000000;stroke-width:0.5;" x="3.0" xlink:href="#m4987f7d994" y="157.663366337"/>
      </g>
     </g>
     <g id="line2d_58">
      <g>
       <use style="stroke:#000000;stroke-width:0.5;" x="567.24" xlink:href="#m7b50b77a14" y="157.663366337"/>
      </g>
     </g>
    </g>
    <g id="ytick_5">
     <g id="line2d_59">
      <path clip-path="url(#p3a7bf6b43c)" d="M 3 82.217822 
L 567.24 82.217822 
" style="fill:none;stroke:#000000;stroke-dasharray:1.000000,3.000000;stroke-dashoffset:0.0;stroke-width:0.5;"/>
     </g>
     <g id="line2d_60">
      <g>
       <use style="stroke:#000000;stroke-width:0.5;" x="3.0" xlink:href="#m4987f7d994" y="82.2178217822"/>
      </g>
     </g>
     <g id="line2d_61">
      <g>
       <use style="stroke:#000000;stroke-width:0.5;" x="567.24" xlink:href="#m7b50b77a14" y="82.2178217822"/>
      </g>
     </g>
    </g>
    <g id="ytick_6">
     <g id="line2d_62">
      <path clip-path="url(#p3a7bf6b43c)" d="M 3 6.772277 
L 567.24 6.772277 
" style="fill:none;stroke:#000000;stroke-dasharray:1.000000,3.000000;stroke-dashoffset:0.0;stroke-width:0.5;"/>
     </g>
     <g id="line2d_63">
      <g>
       <use style="stroke:#000000;stroke-width:0.5;" x="3.0" xlink:href="#m4987f7d994" y="6.77227722772"/>
      </g>
     </g>
     <g id="line2d_64">
      <g>
       <use style="stroke:#000000;stroke-width:0.5;" x="567.24" xlink:href="#m7b50b77a14" y="6.77227722772"/>
      </g>
     </g>
    </g>
   </g>
   <g id="text_10">
    <!-- {f10-f14}, 20-D -->
    <defs>
     <path d="M 12.5 -9.28125 
L 15.921875 -9.28125 
Q 22.75 -9.28125 24.828125 -7.171875 
Q 26.90625 -5.078125 26.90625 1.90625 
L 26.90625 14.015625 
Q 26.90625 21.625 29.09375 25.09375 
Q 31.296875 28.5625 36.71875 29.890625 
Q 31.296875 31.109375 29.09375 34.5625 
Q 26.90625 38.03125 26.90625 45.703125 
L 26.90625 57.8125 
Q 26.90625 64.75 24.828125 66.875 
Q 22.75 69 15.921875 69 
L 12.5 69 
L 12.5 75.984375 
L 15.578125 75.984375 
Q 27.734375 75.984375 31.8125 72.390625 
Q 35.890625 68.796875 35.890625 58.015625 
L 35.890625 46.296875 
Q 35.890625 39.015625 38.515625 36.203125 
Q 41.15625 33.40625 48.09375 33.40625 
L 51.125 33.40625 
L 51.125 26.421875 
L 48.09375 26.421875 
Q 41.15625 26.421875 38.515625 23.578125 
Q 35.890625 20.75 35.890625 13.375 
L 35.890625 1.703125 
Q 35.890625 -9.078125 31.8125 -12.6875 
Q 27.734375 -16.3125 15.578125 -16.3125 
L 12.5 -16.3125 
z
" id="BitstreamVeraSans-Roman-7d"/>
     <path d="M 51.125 -9.28125 
L 51.125 -16.3125 
L 48.09375 -16.3125 
Q 35.9375 -16.3125 31.8125 -12.6875 
Q 27.6875 -9.078125 27.6875 1.703125 
L 27.6875 13.375 
Q 27.6875 20.75 25.046875 23.578125 
Q 22.40625 26.421875 15.484375 26.421875 
L 12.5 26.421875 
L 12.5 33.40625 
L 15.484375 33.40625 
Q 22.46875 33.40625 25.078125 36.203125 
Q 27.6875 39.015625 27.6875 46.296875 
L 27.6875 58.015625 
Q 27.6875 68.796875 31.8125 72.390625 
Q 35.9375 75.984375 48.09375 75.984375 
L 51.125 75.984375 
L 51.125 69 
L 47.796875 69 
Q 40.921875 69 38.8125 66.84375 
Q 36.71875 64.703125 36.71875 57.8125 
L 36.71875 45.703125 
Q 36.71875 38.03125 34.5 34.5625 
Q 32.28125 31.109375 26.90625 29.890625 
Q 32.328125 28.5625 34.515625 25.09375 
Q 36.71875 21.625 36.71875 14.015625 
L 36.71875 1.90625 
Q 36.71875 -4.984375 38.8125 -7.125 
Q 40.921875 -9.28125 47.796875 -9.28125 
z
" id="BitstreamVeraSans-Roman-7b"/>
     <path d="M 11.71875 12.40625 
L 22.015625 12.40625 
L 22.015625 4 
L 14.015625 -11.625 
L 7.71875 -11.625 
L 11.71875 4 
z
" id="BitstreamVeraSans-Roman-2c"/>
    </defs>
    <g transform="translate(397.5302 376.38)scale(0.2 -0.2)">
     <use xlink:href="#BitstreamVeraSans-Roman-7b"/>
     <use x="63.623046875" xlink:href="#BitstreamVeraSans-Roman-66"/>
     <use x="98.828125" xlink:href="#BitstreamVeraSans-Roman-31"/>
     <use x="162.451171875" xlink:href="#BitstreamVeraSans-Roman-30"/>
     <use x="226.07421875" xlink:href="#BitstreamVeraSans-Roman-2d"/>
     <use x="262.158203125" xlink:href="#BitstreamVeraSans-Roman-66"/>
     <use x="297.36328125" xlink:href="#BitstreamVeraSans-Roman-31"/>
     <use x="360.986328125" xlink:href="#BitstreamVeraSans-Roman-34"/>
     <use x="424.609375" xlink:href="#BitstreamVeraSans-Roman-7d"/>
     <use x="488.232421875" xlink:href="#BitstreamVeraSans-Roman-2c"/>
     <use x="520.01953125" xlink:href="#BitstreamVeraSans-Roman-20"/>
     <use x="551.806640625" xlink:href="#BitstreamVeraSans-Roman-32"/>
     <use x="615.4296875" xlink:href="#BitstreamVeraSans-Roman-30"/>
     <use x="679.052734375" xlink:href="#BitstreamVeraSans-Roman-2d"/>
     <use x="715.13671875" xlink:href="#BitstreamVeraSans-Roman-44"/>
    </g>
   </g>
   <g id="text_11">
    <!-- v2.2.1.10 -->
    <defs>
     <path d="M 2.984375 54.6875 
L 12.5 54.6875 
L 29.59375 8.796875 
L 46.6875 54.6875 
L 56.203125 54.6875 
L 35.6875 0 
L 23.484375 0 
z
" id="BitstreamVeraSans-Roman-76"/>
     <path d="M 10.6875 12.40625 
L 21 12.40625 
L 21 0 
L 10.6875 0 
z
" id="BitstreamVeraSans-Roman-2e"/>
    </defs>
    <g style="fill:#808080;" transform="translate(261.4871875 378.1103125)scale(0.1 -0.1)">
     <use xlink:href="#BitstreamVeraSans-Roman-76"/>
     <use x="59.1796875" xlink:href="#BitstreamVeraSans-Roman-32"/>
     <use x="122.802734375" xlink:href="#BitstreamVeraSans-Roman-2e"/>
     <use x="154.58984375" xlink:href="#BitstreamVeraSans-Roman-32"/>
     <use x="218.212890625" xlink:href="#BitstreamVeraSans-Roman-2e"/>
     <use x="250.0" xlink:href="#BitstreamVeraSans-Roman-31"/>
     <use x="313.623046875" xlink:href="#BitstreamVeraSans-Roman-2e"/>
     <use x="345.41015625" xlink:href="#BitstreamVeraSans-Roman-31"/>
     <use x="409.033203125" xlink:href="#BitstreamVeraSans-Roman-30"/>
    </g>
   </g>
  </g>
 </g>
 <defs>
  <clipPath id="p3a7bf6b43c">
   <rect height="381.0" width="564.24" x="3.0" y="3.0"/>
  </clipPath>
 </defs>
</svg>
