<?xml version="1.0" encoding="utf-8" standalone="no"?>
<!DOCTYPE svg PUBLIC "-//W3C//DTD SVG 1.1//EN"
  "http://www.w3.org/Graphics/SVG/1.1/DTD/svg11.dtd">
<!-- Created with matplotlib (http://matplotlib.org/) -->
<svg height="432pt" version="1.1" viewBox="0 0 576 432" width="576pt" xmlns="http://www.w3.org/2000/svg" xmlns:xlink="http://www.w3.org/1999/xlink">
 <defs>
  <style type="text/css">
*{stroke-linecap:butt;stroke-linejoin:round;stroke-miterlimit:100000;}
  </style>
 </defs>
 <g id="figure_1">
  <g id="patch_1">
   <path d="M 0 432 
L 576 432 
L 576 0 
L 0 0 
z
" style="fill:#ffffff;"/>
  </g>
  <g id="axes_1">
   <g id="patch_2">
    <path d="M 3 384 
L 567.24 384 
L 567.24 3 
L 3 3 
z
" style="fill:#ffffff;"/>
   </g>
   <g id="line2d_1">
    <path clip-path="url(#pbbb973d08c)" d="M 208.563837 384 
L 208.563837 378.970297 
L 208.563837 378.970297 
L 208.563837 378.970297 
L 208.563851 378.970297 
L 208.586574 308.554455 
L 284.178443 308.554455 
L 284.178443 303.524752 
L 286.917154 303.524752 
L 286.917154 298.49505 
L 287.611979 298.49505 
L 287.611979 293.465347 
L 289.210203 293.465347 
L 289.210203 288.435644 
L 289.993723 288.435644 
L 289.993723 283.405941 
L 295.238463 283.405941 
L 295.238463 278.376238 
L 296.889271 278.376238 
L 296.889271 273.346535 
L 298.295378 273.346535 
L 298.295378 268.316832 
L 299.138424 268.316832 
L 299.138424 263.287129 
L 299.48693 263.287129 
L 299.564715 253.227723 
L 303.35719 253.227723 
L 303.35719 248.19802 
L 305.386585 248.19802 
L 305.386585 243.168317 
L 306.259602 243.168317 
L 306.277062 233.108911 
L 306.655985 233.108911 
L 306.655985 228.079208 
L 309.80174 228.079208 
L 309.80174 223.049505 
L 310.592241 223.049505 
L 310.592241 218.019802 
L 312.031593 218.019802 
L 312.031593 212.990099 
L 312.347306 212.990099 
L 312.347306 207.960396 
L 316.09633 207.960396 
L 316.09633 202.930693 
L 319.7592 202.930693 
L 319.7592 197.90099 
L 320.473158 197.90099 
L 320.549987 187.841584 
L 321.20764 187.841584 
L 321.311245 177.782178 
L 321.681278 177.782178 
L 321.681278 172.752475 
L 321.832654 172.752475 
L 321.832654 167.722772 
L 322.934753 167.722772 
L 322.934753 162.693069 
L 323.088506 162.693069 
L 323.088506 157.663366 
L 323.310001 157.663366 
L 323.310001 152.633663 
L 324.408963 152.633663 
L 324.408963 147.60396 
L 326.513922 147.60396 
L 326.513922 142.574257 
L 326.919824 142.574257 
L 326.919824 137.544554 
L 327.180889 137.544554 
L 327.180889 132.514851 
L 331.190132 132.514851 
L 331.190132 127.485149 
L 332.599201 127.485149 
L 332.678191 112.39604 
L 334.226501 112.39604 
L 334.226501 107.366337 
L 334.690336 107.366337 
L 334.780692 92.277228 
L 335.199967 92.277228 
L 335.199967 87.247525 
L 335.317187 87.247525 
L 335.317187 82.217822 
L 336.016262 82.217822 
L 336.016262 77.188119 
L 337.044421 77.188119 
L 337.044421 72.158416 
L 337.245522 72.158416 
L 337.245522 67.128713 
L 338.354214 67.128713 
L 338.354214 62.09901 
L 339.100748 62.09901 
L 339.100748 57.069307 
L 339.347982 57.069307 
L 339.441461 41.980198 
L 339.625008 41.980198 
L 339.625008 36.950495 
L 340.328394 36.950495 
L 340.328394 31.920792 
L 341.578886 31.920792 
L 341.578886 26.891089 
L 344.528977 26.891089 
L 344.528977 21.861386 
L 347.197193 21.861386 
L 347.197193 16.831683 
L 347.930679 16.831683 
L 347.930679 11.80198 
L 353.753141 11.80198 
L 353.753141 6.772277 
L 353.753141 6.772277 
L 567.24 6.772277 
L 567.24 6.772277 
" style="fill:none;stroke:#ff0000;stroke-linecap:square;stroke-width:3.0;"/>
   </g>
   <g id="line2d_2">
    <path clip-path="url(#pbbb973d08c)" d="M 248.092835 384 
L 248.092835 378.970297 
L 248.092835 378.970297 
L 248.092835 378.970297 
L 248.16152 378.970297 
L 248.253824 358.851485 
L 248.330552 358.851485 
L 248.393127 348.792079 
L 248.482486 348.792079 
L 248.482486 308.554455 
L 297.603537 308.554455 
L 297.603537 303.524752 
L 298.722232 303.524752 
L 298.722232 298.49505 
L 301.176842 298.49505 
L 301.176842 293.465347 
L 304.056646 293.465347 
L 304.056646 288.435644 
L 304.925783 288.435644 
L 304.925783 283.405941 
L 308.70294 283.405941 
L 308.70294 278.376238 
L 308.825125 278.376238 
L 308.825125 273.346535 
L 309.204036 273.346535 
L 309.204036 268.316832 
L 310.76935 268.316832 
L 310.77599 258.257426 
L 314.846933 258.257426 
L 314.846933 253.227723 
L 315.288056 253.227723 
L 315.288056 248.19802 
L 315.800595 248.19802 
L 315.800595 243.168317 
L 318.14125 243.168317 
L 318.14125 238.138614 
L 318.278748 238.138614 
L 318.278748 233.108911 
L 319.45922 233.108911 
L 319.45922 228.079208 
L 320.213981 228.079208 
L 320.213981 223.049505 
L 321.51847 223.049505 
L 321.51847 218.019802 
L 321.674104 218.019802 
L 321.674104 212.990099 
L 322.566506 212.990099 
L 322.566506 207.960396 
L 323.061707 207.960396 
L 323.061707 202.930693 
L 323.404833 202.930693 
L 323.404833 197.90099 
L 326.61849 197.90099 
L 326.61849 192.871287 
L 329.494157 192.871287 
L 329.494157 187.841584 
L 329.938816 187.841584 
L 329.938816 182.811881 
L 331.075358 182.811881 
L 331.075358 177.782178 
L 331.578853 177.782178 
L 331.578853 172.752475 
L 332.838735 172.752475 
L 332.838735 167.722772 
L 333.082776 167.722772 
L 333.082776 162.693069 
L 334.061839 162.693069 
L 334.092165 152.633663 
L 334.311623 152.633663 
L 334.311623 147.60396 
L 334.857672 147.60396 
L 334.923725 137.544554 
L 335.28855 137.544554 
L 335.28855 132.514851 
L 335.592097 132.514851 
L 335.592097 127.485149 
L 336.197094 127.485149 
L 336.197094 122.455446 
L 337.208076 122.455446 
L 337.208076 117.425743 
L 337.543572 117.425743 
L 337.543572 112.39604 
L 338.698854 112.39604 
L 338.698854 107.366337 
L 338.857478 107.366337 
L 338.857478 102.336634 
L 339.005237 102.336634 
L 339.005237 97.306931 
L 339.495909 97.306931 
L 339.495909 92.277228 
L 339.875768 92.277228 
L 339.917051 82.217822 
L 340.047577 82.217822 
L 340.047577 77.188119 
L 340.268645 77.188119 
L 340.268645 72.158416 
L 340.708536 72.158416 
L 340.79543 62.09901 
L 340.885292 62.09901 
L 340.885292 57.069307 
L 341.390747 57.069307 
L 341.390747 52.039604 
L 341.802173 52.039604 
L 341.802173 47.009901 
L 342.370647 47.009901 
L 342.370647 41.980198 
L 342.593765 41.980198 
L 342.593765 36.950495 
L 342.939423 36.950495 
L 342.939423 31.920792 
L 344.148763 31.920792 
L 344.148763 26.891089 
L 344.682166 26.891089 
L 344.682166 21.861386 
L 348.145488 21.861386 
L 348.145488 16.831683 
L 354.22085 16.831683 
L 354.22085 11.80198 
L 355.614854 11.80198 
L 355.614854 6.772277 
L 355.614854 6.772277 
L 567.24 6.772277 
L 567.24 6.772277 
" style="fill:none;stroke:#00bfbf;stroke-linecap:square;"/>
   </g>
   <g id="line2d_3">
    <path clip-path="url(#pbbb973d08c)" d="M 248.060864 384 
L 248.060864 378.970297 
L 248.060864 378.970297 
L 248.060864 378.970297 
L 248.062581 378.970297 
L 248.165277 338.732673 
L 248.238347 338.732673 
L 248.276636 323.643564 
L 248.362612 323.643564 
L 248.463079 308.554455 
L 297.599258 308.554455 
L 297.599258 303.524752 
L 298.715817 303.524752 
L 298.715817 298.49505 
L 301.176842 298.49505 
L 301.176842 293.465347 
L 304.056059 293.465347 
L 304.056059 288.435644 
L 304.925783 288.435644 
L 304.925783 283.405941 
L 308.69618 283.405941 
L 308.69618 278.376238 
L 308.823354 278.376238 
L 308.823354 273.346535 
L 309.195337 273.346535 
L 309.195337 268.316832 
L 310.765569 268.316832 
L 310.77599 258.257426 
L 314.846915 258.257426 
L 314.846915 253.227723 
L 315.288056 253.227723 
L 315.288056 248.19802 
L 315.79738 248.19802 
L 315.79738 243.168317 
L 318.121688 243.168317 
L 318.121688 238.138614 
L 318.278748 238.138614 
L 318.278748 233.108911 
L 319.45922 233.108911 
L 319.45922 228.079208 
L 320.20003 228.079208 
L 320.20003 223.049505 
L 321.45676 223.049505 
L 321.45676 218.019802 
L 321.674104 218.019802 
L 321.674104 212.990099 
L 322.487745 212.990099 
L 322.487745 207.960396 
L 323.061707 207.960396 
L 323.061707 202.930693 
L 323.393587 202.930693 
L 323.393587 197.90099 
L 326.615836 197.90099 
L 326.615836 192.871287 
L 329.491509 192.871287 
L 329.491509 187.841584 
L 329.938816 187.841584 
L 329.938816 182.811881 
L 331.069485 182.811881 
L 331.069485 177.782178 
L 331.544929 177.782178 
L 331.544929 172.752475 
L 332.82857 172.752475 
L 332.82857 167.722772 
L 333.074269 167.722772 
L 333.074269 162.693069 
L 334.057457 162.693069 
L 334.080698 152.633663 
L 334.275829 152.633663 
L 334.275829 147.60396 
L 334.852556 147.60396 
L 334.901051 137.544554 
L 335.279786 137.544554 
L 335.279786 132.514851 
L 335.461085 132.514851 
L 335.461085 127.485149 
L 336.193179 127.485149 
L 336.193179 122.455446 
L 337.206144 122.455446 
L 337.206144 117.425743 
L 337.399203 117.425743 
L 337.399203 112.39604 
L 338.698854 112.39604 
L 338.698854 107.366337 
L 338.856302 107.366337 
L 338.856302 102.336634 
L 338.995685 102.336634 
L 338.995685 97.306931 
L 339.468847 97.306931 
L 339.468847 92.277228 
L 339.84823 92.277228 
L 339.916705 82.217822 
L 340.045066 82.217822 
L 340.045066 77.188119 
L 340.265913 77.188119 
L 340.265913 72.158416 
L 340.707437 72.158416 
L 340.79543 62.09901 
L 340.885292 62.09901 
L 340.885292 57.069307 
L 341.389231 57.069307 
L 341.389231 52.039604 
L 341.753438 52.039604 
L 341.753438 47.009901 
L 342.368343 47.009901 
L 342.368343 41.980198 
L 342.593765 41.980198 
L 342.593765 36.950495 
L 342.938279 36.950495 
L 342.938279 31.920792 
L 344.14673 31.920792 
L 344.14673 26.891089 
L 344.682166 26.891089 
L 344.682166 21.861386 
L 348.040416 21.861386 
L 348.040416 16.831683 
L 354.21783 16.831683 
L 354.21783 11.80198 
L 355.614854 11.80198 
L 355.614854 6.772277 
L 355.614854 6.772277 
L 567.24 6.772277 
L 567.24 6.772277 
" style="fill:none;stroke:#bf00bf;stroke-linecap:square;"/>
   </g>
   <g id="line2d_4">
    <path clip-path="url(#pbbb973d08c)" d="M 245.809747 384 
L 245.809747 378.970297 
L 245.809747 378.970297 
L 245.809747 378.970297 
L 245.842393 378.970297 
L 245.893678 363.881188 
L 246.102921 363.881188 
L 246.176224 353.821782 
L 246.289866 353.821782 
L 246.400816 333.70297 
L 246.437579 333.70297 
L 246.455316 323.643564 
L 246.665447 323.643564 
L 246.769955 313.584158 
L 246.902443 313.584158 
L 246.902443 308.554455 
L 297.524461 308.554455 
L 297.524461 303.524752 
L 298.644036 303.524752 
L 298.644036 298.49505 
L 301.102794 298.49505 
L 301.102794 293.465347 
L 304.026344 293.465347 
L 304.026344 288.435644 
L 304.886687 288.435644 
L 304.886687 283.405941 
L 308.565833 283.405941 
L 308.565833 278.376238 
L 308.80279 278.376238 
L 308.80279 273.346535 
L 309.166793 273.346535 
L 309.166793 268.316832 
L 310.699254 268.316832 
L 310.743833 258.257426 
L 314.815103 258.257426 
L 314.815103 253.227723 
L 315.205404 253.227723 
L 315.205404 248.19802 
L 315.702049 248.19802 
L 315.702049 243.168317 
L 318.06849 243.168317 
L 318.173594 233.108911 
L 319.417981 233.108911 
L 319.417981 228.079208 
L 320.105776 228.079208 
L 320.105776 223.049505 
L 321.40226 223.049505 
L 321.469743 212.990099 
L 321.803365 212.990099 
L 321.803365 207.960396 
L 323.017407 207.960396 
L 323.017407 202.930693 
L 323.327455 202.930693 
L 323.327455 197.90099 
L 326.533978 197.90099 
L 326.533978 192.871287 
L 329.434821 192.871287 
L 329.434821 187.841584 
L 329.731082 187.841584 
L 329.731082 182.811881 
L 331.042887 182.811881 
L 331.042887 177.782178 
L 331.256238 177.782178 
L 331.256238 172.752475 
L 332.784279 172.752475 
L 332.784279 167.722772 
L 333.037288 167.722772 
L 333.037288 162.693069 
L 334.011664 162.693069 
L 334.034651 152.633663 
L 334.275829 152.633663 
L 334.275829 147.60396 
L 334.758723 147.60396 
L 334.810608 137.544554 
L 335.235113 137.544554 
L 335.235113 132.514851 
L 335.425029 132.514851 
L 335.425029 127.485149 
L 336.090152 127.485149 
L 336.090152 122.455446 
L 337.163122 122.455446 
L 337.163122 117.425743 
L 337.320655 117.425743 
L 337.320655 112.39604 
L 338.573973 112.39604 
L 338.573973 107.366337 
L 338.826467 107.366337 
L 338.901475 97.306931 
L 339.408965 97.306931 
L 339.408965 92.277228 
L 339.679806 92.277228 
L 339.679806 87.247525 
L 339.899682 87.247525 
L 339.983418 77.188119 
L 340.228221 77.188119 
L 340.228221 72.158416 
L 340.696787 72.158416 
L 340.763181 62.09901 
L 340.85387 62.09901 
L 340.85387 57.069307 
L 341.351226 57.069307 
L 341.351226 52.039604 
L 341.631474 52.039604 
L 341.631474 47.009901 
L 342.355033 47.009901 
L 342.355033 41.980198 
L 342.573218 41.980198 
L 342.573218 36.950495 
L 342.928382 36.950495 
L 342.928382 31.920792 
L 344.137501 31.920792 
L 344.137501 26.891089 
L 344.665313 26.891089 
L 344.665313 21.861386 
L 347.944682 21.861386 
L 347.944682 16.831683 
L 354.208673 16.831683 
L 354.208673 11.80198 
L 355.610375 11.80198 
L 355.610375 6.772277 
L 355.610375 6.772277 
L 567.24 6.772277 
L 567.24 6.772277 
" style="fill:none;stroke:#000000;stroke-linecap:square;"/>
   </g>
   <g id="line2d_5">
    <path clip-path="url(#pbbb973d08c)" d="M 216.459537 384 
L 216.459537 378.970297 
L 218.69397 378.970297 
L 218.69397 373.940594 
L 219.799129 373.940594 
L 219.799129 368.910891 
L 222.007248 368.910891 
L 222.007248 363.881188 
L 230.181961 363.881188 
L 230.181961 358.851485 
L 230.295533 358.851485 
L 230.295533 353.821782 
L 233.345853 353.821782 
L 233.345853 348.792079 
L 233.49385 348.792079 
L 233.49385 343.762376 
L 234.851712 343.762376 
L 234.851712 338.732673 
L 235.19624 338.732673 
L 235.19624 333.70297 
L 235.446401 333.70297 
L 235.446401 328.673267 
L 237.269874 328.673267 
L 237.269874 323.643564 
L 237.899026 323.643564 
L 237.899026 318.613861 
L 238.575266 318.613861 
L 238.575266 313.584158 
L 239.901531 313.584158 
L 239.901531 308.554455 
L 290.261097 308.554455 
L 290.261097 303.524752 
L 295.700287 303.524752 
L 295.700287 298.49505 
L 298.372723 298.49505 
L 298.372723 293.465347 
L 301.757436 293.465347 
L 301.757436 288.435644 
L 304.081878 288.435644 
L 304.081878 283.405941 
L 304.271769 283.405941 
L 304.288821 273.346535 
L 305.503098 273.346535 
L 305.503098 268.316832 
L 305.729003 268.316832 
L 305.729003 263.287129 
L 306.217844 263.287129 
L 306.217844 258.257426 
L 306.876699 258.257426 
L 306.876699 253.227723 
L 311.556144 253.227723 
L 311.556144 248.19802 
L 312.375529 248.19802 
L 312.375529 243.168317 
L 313.276734 243.168317 
L 313.276734 238.138614 
L 313.82302 238.138614 
L 313.82302 233.108911 
L 314.888136 233.108911 
L 314.888136 228.079208 
L 316.008527 228.079208 
L 316.008527 223.049505 
L 317.436222 223.049505 
L 317.436222 218.019802 
L 319.964842 218.019802 
L 319.964842 212.990099 
L 321.209674 212.990099 
L 321.209674 207.960396 
L 321.346933 207.960396 
L 321.346933 202.930693 
L 321.711195 202.930693 
L 321.711195 197.90099 
L 321.983258 197.90099 
L 321.983258 192.871287 
L 324.552427 192.871287 
L 324.552427 187.841584 
L 325.158203 187.841584 
L 325.158203 182.811881 
L 325.620618 182.811881 
L 325.620618 177.782178 
L 326.632082 177.782178 
L 326.632082 172.752475 
L 326.883605 172.752475 
L 326.883605 167.722772 
L 327.52026 167.722772 
L 327.52026 162.693069 
L 328.004863 162.693069 
L 328.004863 157.663366 
L 328.161405 157.663366 
L 328.161405 152.633663 
L 330.921625 152.633663 
L 330.921625 147.60396 
L 331.223895 147.60396 
L 331.223895 142.574257 
L 331.420615 142.574257 
L 331.420615 137.544554 
L 331.793892 137.544554 
L 331.793892 132.514851 
L 333.409385 132.514851 
L 333.409385 127.485149 
L 334.23887 127.485149 
L 334.23887 122.455446 
L 334.704028 122.455446 
L 334.738496 112.39604 
L 335.337496 112.39604 
L 335.337496 107.366337 
L 335.857977 107.366337 
L 335.857977 102.336634 
L 336.18933 102.336634 
L 336.18933 97.306931 
L 336.859611 97.306931 
L 336.859611 92.277228 
L 337.289008 92.277228 
L 337.289008 87.247525 
L 337.622276 87.247525 
L 337.622276 82.217822 
L 338.397257 82.217822 
L 338.397257 77.188119 
L 338.561621 77.188119 
L 338.561621 72.158416 
L 338.949887 72.158416 
L 338.949887 67.128713 
L 339.357357 67.128713 
L 339.428422 52.039604 
L 340.187569 52.039604 
L 340.187569 47.009901 
L 341.193638 47.009901 
L 341.193638 41.980198 
L 341.604174 41.980198 
L 341.604174 36.950495 
L 342.813145 36.950495 
L 342.813145 31.920792 
L 342.934571 31.920792 
L 342.934571 26.891089 
L 344.554837 26.891089 
L 344.554837 21.861386 
L 347.936475 21.861386 
L 347.936475 16.831683 
L 352.838985 16.831683 
L 352.838985 11.80198 
L 355.461696 11.80198 
L 355.461696 6.772277 
L 355.461696 6.772277 
L 567.24 6.772277 
L 567.24 6.772277 
" style="fill:none;stroke:#00bfbf;stroke-linecap:square;"/>
   </g>
   <g id="line2d_6">
    <path clip-path="url(#pbbb973d08c)" d="M 208.563837 384 
L 208.563837 378.970297 
L 208.563837 378.970297 
L 208.563837 378.970297 
L 208.563851 378.970297 
L 208.586574 308.554455 
L 284.178443 308.554455 
L 284.178443 303.524752 
L 287.202586 303.524752 
L 287.202586 298.49505 
L 287.685343 298.49505 
L 287.685343 293.465347 
L 289.210296 293.465347 
L 289.210296 288.435644 
L 290.520506 288.435644 
L 290.520506 283.405941 
L 295.485467 283.405941 
L 295.485467 278.376238 
L 296.889272 278.376238 
L 296.889272 273.346535 
L 298.295384 273.346535 
L 298.295384 268.316832 
L 299.49599 268.316832 
L 299.567472 253.227723 
L 303.35719 253.227723 
L 303.35719 248.19802 
L 306.259616 248.19802 
L 306.277062 238.138614 
L 306.656663 238.138614 
L 306.656663 233.108911 
L 307.564199 233.108911 
L 307.564199 228.079208 
L 309.80174 228.079208 
L 309.80174 223.049505 
L 310.653577 223.049505 
L 310.653577 218.019802 
L 312.347307 218.019802 
L 312.347307 212.990099 
L 314.042193 212.990099 
L 314.042193 207.960396 
L 316.096334 207.960396 
L 316.096334 202.930693 
L 319.75941 202.930693 
L 319.75941 197.90099 
L 320.550088 197.90099 
L 320.636195 187.841584 
L 321.20764 187.841584 
L 321.311245 177.782178 
L 321.681278 177.782178 
L 321.681278 172.752475 
L 321.832656 172.752475 
L 321.832656 167.722772 
L 322.93477 167.722772 
L 322.93477 162.693069 
L 323.088527 162.693069 
L 323.088527 157.663366 
L 323.310001 157.663366 
L 323.310001 152.633663 
L 324.408963 152.633663 
L 324.408963 147.60396 
L 326.513923 147.60396 
L 326.513923 142.574257 
L 326.921081 142.574257 
L 326.921081 137.544554 
L 327.180889 137.544554 
L 327.180889 132.514851 
L 331.190132 132.514851 
L 331.190132 127.485149 
L 332.679256 127.485149 
L 332.733699 117.425743 
L 333.209905 117.425743 
L 333.209905 112.39604 
L 334.226501 112.39604 
L 334.226501 107.366337 
L 334.690336 107.366337 
L 334.780692 92.277228 
L 335.218289 92.277228 
L 335.317187 82.217822 
L 336.069789 82.217822 
L 336.069789 77.188119 
L 337.044438 77.188119 
L 337.044438 72.158416 
L 337.245522 72.158416 
L 337.245522 67.128713 
L 338.354214 67.128713 
L 338.354214 62.09901 
L 339.100748 62.09901 
L 339.100748 57.069307 
L 339.347982 57.069307 
L 339.441461 41.980198 
L 340.291946 41.980198 
L 340.328426 31.920792 
L 341.578886 31.920792 
L 341.578886 26.891089 
L 344.528977 26.891089 
L 344.528977 21.861386 
L 347.221967 21.861386 
L 347.221967 16.831683 
L 347.930679 16.831683 
L 347.930679 11.80198 
L 354.165708 11.80198 
L 354.165708 6.772277 
L 354.165708 6.772277 
L 567.24 6.772277 
L 567.24 6.772277 
" style="fill:none;stroke:#bf00bf;stroke-linecap:square;"/>
   </g>
   <g id="patch_3">
    <path d="M 3 3 
L 567.24 3 
" style="fill:none;stroke:#000000;stroke-linecap:square;stroke-linejoin:miter;"/>
   </g>
   <g id="patch_4">
    <path d="M 567.24 384 
L 567.24 3 
" style="fill:none;stroke:#000000;stroke-linecap:square;stroke-linejoin:miter;"/>
   </g>
   <g id="patch_5">
    <path d="M 3 384 
L 567.24 384 
" style="fill:none;stroke:#000000;stroke-linecap:square;stroke-linejoin:miter;"/>
   </g>
   <g id="patch_6">
    <path d="M 3 384 
L 3 3 
" style="fill:none;stroke:#000000;stroke-linecap:square;stroke-linejoin:miter;"/>
   </g>
   <g id="matplotlib.axis_1">
    <g id="xtick_1"/>
    <g id="xtick_2">
     <g id="line2d_7">
      <path clip-path="url(#pbbb973d08c)" d="M 69.254589 384 
L 69.254589 3 
" style="fill:none;stroke:#000000;stroke-dasharray:1.000000,3.000000;stroke-dashoffset:0.0;stroke-width:0.5;"/>
     </g>
     <g id="line2d_8">
      <defs>
       <path d="M 0 0 
L 0 -4 
" id="mf66963b655" style="stroke:#000000;stroke-width:0.5;"/>
      </defs>
      <g>
       <use style="stroke:#000000;stroke-width:0.5;" x="69.2545893472" xlink:href="#mf66963b655" y="384.0"/>
      </g>
     </g>
     <g id="line2d_9">
      <defs>
       <path d="M 0 0 
L 0 4 
" id="ma97b222f82" style="stroke:#000000;stroke-width:0.5;"/>
      </defs>
      <g>
       <use style="stroke:#000000;stroke-width:0.5;" x="69.2545893472" xlink:href="#ma97b222f82" y="3.0"/>
      </g>
     </g>
     <g id="text_1">
      <!-- -6 -->
      <defs>
       <path d="M 33.015625 40.375 
Q 26.375 40.375 22.484375 35.828125 
Q 18.609375 31.296875 18.609375 23.390625 
Q 18.609375 15.53125 22.484375 10.953125 
Q 26.375 6.390625 33.015625 6.390625 
Q 39.65625 6.390625 43.53125 10.953125 
Q 47.40625 15.53125 47.40625 23.390625 
Q 47.40625 31.296875 43.53125 35.828125 
Q 39.65625 40.375 33.015625 40.375 
M 52.59375 71.296875 
L 52.59375 62.3125 
Q 48.875 64.0625 45.09375 64.984375 
Q 41.3125 65.921875 37.59375 65.921875 
Q 27.828125 65.921875 22.671875 59.328125 
Q 17.53125 52.734375 16.796875 39.40625 
Q 19.671875 43.65625 24.015625 45.921875 
Q 28.375 48.1875 33.59375 48.1875 
Q 44.578125 48.1875 50.953125 41.515625 
Q 57.328125 34.859375 57.328125 23.390625 
Q 57.328125 12.15625 50.6875 5.359375 
Q 44.046875 -1.421875 33.015625 -1.421875 
Q 20.359375 -1.421875 13.671875 8.265625 
Q 6.984375 17.96875 6.984375 36.375 
Q 6.984375 53.65625 15.1875 63.9375 
Q 23.390625 74.21875 37.203125 74.21875 
Q 40.921875 74.21875 44.703125 73.484375 
Q 48.484375 72.75 52.59375 71.296875 
" id="BitstreamVeraSans-Roman-36"/>
       <path d="M 4.890625 31.390625 
L 31.203125 31.390625 
L 31.203125 23.390625 
L 4.890625 23.390625 
z
" id="BitstreamVeraSans-Roman-2d"/>
      </defs>
      <g transform="translate(59.2842768472 403.196875)scale(0.2 -0.2)">
       <use xlink:href="#BitstreamVeraSans-Roman-2d"/>
       <use x="36.083984375" xlink:href="#BitstreamVeraSans-Roman-36"/>
      </g>
     </g>
    </g>
    <g id="xtick_3">
     <g id="line2d_10">
      <path clip-path="url(#pbbb973d08c)" d="M 135.652644 384 
L 135.652644 3 
" style="fill:none;stroke:#000000;stroke-dasharray:1.000000,3.000000;stroke-dashoffset:0.0;stroke-width:0.5;"/>
     </g>
     <g id="line2d_11">
      <g>
       <use style="stroke:#000000;stroke-width:0.5;" x="135.652644101" xlink:href="#mf66963b655" y="384.0"/>
      </g>
     </g>
     <g id="line2d_12">
      <g>
       <use style="stroke:#000000;stroke-width:0.5;" x="135.652644101" xlink:href="#ma97b222f82" y="3.0"/>
      </g>
     </g>
     <g id="text_2">
      <!-- -4 -->
      <defs>
       <path d="M 37.796875 64.3125 
L 12.890625 25.390625 
L 37.796875 25.390625 
z
M 35.203125 72.90625 
L 47.609375 72.90625 
L 47.609375 25.390625 
L 58.015625 25.390625 
L 58.015625 17.1875 
L 47.609375 17.1875 
L 47.609375 0 
L 37.796875 0 
L 37.796875 17.1875 
L 4.890625 17.1875 
L 4.890625 26.703125 
z
" id="BitstreamVeraSans-Roman-34"/>
      </defs>
      <g transform="translate(125.682331601 403.196875)scale(0.2 -0.2)">
       <use xlink:href="#BitstreamVeraSans-Roman-2d"/>
       <use x="36.083984375" xlink:href="#BitstreamVeraSans-Roman-34"/>
      </g>
     </g>
    </g>
    <g id="xtick_4">
     <g id="line2d_13">
      <path clip-path="url(#pbbb973d08c)" d="M 202.050699 384 
L 202.050699 3 
" style="fill:none;stroke:#000000;stroke-dasharray:1.000000,3.000000;stroke-dashoffset:0.0;stroke-width:0.5;"/>
     </g>
     <g id="line2d_14">
      <g>
       <use style="stroke:#000000;stroke-width:0.5;" x="202.050698855" xlink:href="#mf66963b655" y="384.0"/>
      </g>
     </g>
     <g id="line2d_15">
      <g>
       <use style="stroke:#000000;stroke-width:0.5;" x="202.050698855" xlink:href="#ma97b222f82" y="3.0"/>
      </g>
     </g>
     <g id="text_3">
      <!-- -2 -->
      <defs>
       <path d="M 19.1875 8.296875 
L 53.609375 8.296875 
L 53.609375 0 
L 7.328125 0 
L 7.328125 8.296875 
Q 12.9375 14.109375 22.625 23.890625 
Q 32.328125 33.6875 34.8125 36.53125 
Q 39.546875 41.84375 41.421875 45.53125 
Q 43.3125 49.21875 43.3125 52.78125 
Q 43.3125 58.59375 39.234375 62.25 
Q 35.15625 65.921875 28.609375 65.921875 
Q 23.96875 65.921875 18.8125 64.3125 
Q 13.671875 62.703125 7.8125 59.421875 
L 7.8125 69.390625 
Q 13.765625 71.78125 18.9375 73 
Q 24.125 74.21875 28.421875 74.21875 
Q 39.75 74.21875 46.484375 68.546875 
Q 53.21875 62.890625 53.21875 53.421875 
Q 53.21875 48.921875 51.53125 44.890625 
Q 49.859375 40.875 45.40625 35.40625 
Q 44.1875 33.984375 37.640625 27.21875 
Q 31.109375 20.453125 19.1875 8.296875 
" id="BitstreamVeraSans-Roman-32"/>
      </defs>
      <g transform="translate(192.080386355 403.196875)scale(0.2 -0.2)">
       <use xlink:href="#BitstreamVeraSans-Roman-2d"/>
       <use x="36.083984375" xlink:href="#BitstreamVeraSans-Roman-32"/>
      </g>
     </g>
    </g>
    <g id="xtick_5">
     <g id="line2d_16">
      <path clip-path="url(#pbbb973d08c)" d="M 268.448754 384 
L 268.448754 3 
" style="fill:none;stroke:#000000;stroke-dasharray:1.000000,3.000000;stroke-dashoffset:0.0;stroke-width:0.5;"/>
     </g>
     <g id="line2d_17">
      <g>
       <use style="stroke:#000000;stroke-width:0.5;" x="268.448753608" xlink:href="#mf66963b655" y="384.0"/>
      </g>
     </g>
     <g id="line2d_18">
      <g>
       <use style="stroke:#000000;stroke-width:0.5;" x="268.448753608" xlink:href="#ma97b222f82" y="3.0"/>
      </g>
     </g>
     <g id="text_4">
      <!-- 0 -->
      <defs>
       <path d="M 31.78125 66.40625 
Q 24.171875 66.40625 20.328125 58.90625 
Q 16.5 51.421875 16.5 36.375 
Q 16.5 21.390625 20.328125 13.890625 
Q 24.171875 6.390625 31.78125 6.390625 
Q 39.453125 6.390625 43.28125 13.890625 
Q 47.125 21.390625 47.125 36.375 
Q 47.125 51.421875 43.28125 58.90625 
Q 39.453125 66.40625 31.78125 66.40625 
M 31.78125 74.21875 
Q 44.046875 74.21875 50.515625 64.515625 
Q 56.984375 54.828125 56.984375 36.375 
Q 56.984375 17.96875 50.515625 8.265625 
Q 44.046875 -1.421875 31.78125 -1.421875 
Q 19.53125 -1.421875 13.0625 8.265625 
Q 6.59375 17.96875 6.59375 36.375 
Q 6.59375 54.828125 13.0625 64.515625 
Q 19.53125 74.21875 31.78125 74.21875 
" id="BitstreamVeraSans-Roman-30"/>
      </defs>
      <g transform="translate(262.086253608 403.196875)scale(0.2 -0.2)">
       <use xlink:href="#BitstreamVeraSans-Roman-30"/>
      </g>
     </g>
    </g>
    <g id="xtick_6">
     <g id="line2d_19">
      <path clip-path="url(#pbbb973d08c)" d="M 334.846808 384 
L 334.846808 3 
" style="fill:none;stroke:#000000;stroke-dasharray:1.000000,3.000000;stroke-dashoffset:0.0;stroke-width:0.5;"/>
     </g>
     <g id="line2d_20">
      <g>
       <use style="stroke:#000000;stroke-width:0.5;" x="334.846808362" xlink:href="#mf66963b655" y="384.0"/>
      </g>
     </g>
     <g id="line2d_21">
      <g>
       <use style="stroke:#000000;stroke-width:0.5;" x="334.846808362" xlink:href="#ma97b222f82" y="3.0"/>
      </g>
     </g>
     <g id="text_5">
      <!-- 2 -->
      <g transform="translate(328.484308362 403.196875)scale(0.2 -0.2)">
       <use xlink:href="#BitstreamVeraSans-Roman-32"/>
      </g>
     </g>
    </g>
    <g id="xtick_7">
     <g id="line2d_22">
      <path clip-path="url(#pbbb973d08c)" d="M 401.244863 384 
L 401.244863 3 
" style="fill:none;stroke:#000000;stroke-dasharray:1.000000,3.000000;stroke-dashoffset:0.0;stroke-width:0.5;"/>
     </g>
     <g id="line2d_23">
      <g>
       <use style="stroke:#000000;stroke-width:0.5;" x="401.244863116" xlink:href="#mf66963b655" y="384.0"/>
      </g>
     </g>
     <g id="line2d_24">
      <g>
       <use style="stroke:#000000;stroke-width:0.5;" x="401.244863116" xlink:href="#ma97b222f82" y="3.0"/>
      </g>
     </g>
     <g id="text_6">
      <!-- 4 -->
      <g transform="translate(394.882363116 403.196875)scale(0.2 -0.2)">
       <use xlink:href="#BitstreamVeraSans-Roman-34"/>
      </g>
     </g>
    </g>
    <g id="xtick_8">
     <g id="line2d_25">
      <path clip-path="url(#pbbb973d08c)" d="M 467.642918 384 
L 467.642918 3 
" style="fill:none;stroke:#000000;stroke-dasharray:1.000000,3.000000;stroke-dashoffset:0.0;stroke-width:0.5;"/>
     </g>
     <g id="line2d_26">
      <g>
       <use style="stroke:#000000;stroke-width:0.5;" x="467.642917869" xlink:href="#mf66963b655" y="384.0"/>
      </g>
     </g>
     <g id="line2d_27">
      <g>
       <use style="stroke:#000000;stroke-width:0.5;" x="467.642917869" xlink:href="#ma97b222f82" y="3.0"/>
      </g>
     </g>
     <g id="text_7">
      <!-- 6 -->
      <g transform="translate(461.280417869 403.196875)scale(0.2 -0.2)">
       <use xlink:href="#BitstreamVeraSans-Roman-36"/>
      </g>
     </g>
    </g>
    <g id="xtick_9">
     <g id="line2d_28">
      <path clip-path="url(#pbbb973d08c)" d="M 534.040973 384 
L 534.040973 3 
" style="fill:none;stroke:#000000;stroke-dasharray:1.000000,3.000000;stroke-dashoffset:0.0;stroke-width:0.5;"/>
     </g>
     <g id="line2d_29">
      <g>
       <use style="stroke:#000000;stroke-width:0.5;" x="534.040972623" xlink:href="#mf66963b655" y="384.0"/>
      </g>
     </g>
     <g id="line2d_30">
      <g>
       <use style="stroke:#000000;stroke-width:0.5;" x="534.040972623" xlink:href="#ma97b222f82" y="3.0"/>
      </g>
     </g>
     <g id="text_8">
      <!-- 8 -->
      <defs>
       <path d="M 31.78125 34.625 
Q 24.75 34.625 20.71875 30.859375 
Q 16.703125 27.09375 16.703125 20.515625 
Q 16.703125 13.921875 20.71875 10.15625 
Q 24.75 6.390625 31.78125 6.390625 
Q 38.8125 6.390625 42.859375 10.171875 
Q 46.921875 13.96875 46.921875 20.515625 
Q 46.921875 27.09375 42.890625 30.859375 
Q 38.875 34.625 31.78125 34.625 
M 21.921875 38.8125 
Q 15.578125 40.375 12.03125 44.71875 
Q 8.5 49.078125 8.5 55.328125 
Q 8.5 64.0625 14.71875 69.140625 
Q 20.953125 74.21875 31.78125 74.21875 
Q 42.671875 74.21875 48.875 69.140625 
Q 55.078125 64.0625 55.078125 55.328125 
Q 55.078125 49.078125 51.53125 44.71875 
Q 48 40.375 41.703125 38.8125 
Q 48.828125 37.15625 52.796875 32.3125 
Q 56.78125 27.484375 56.78125 20.515625 
Q 56.78125 9.90625 50.3125 4.234375 
Q 43.84375 -1.421875 31.78125 -1.421875 
Q 19.734375 -1.421875 13.25 4.234375 
Q 6.78125 9.90625 6.78125 20.515625 
Q 6.78125 27.484375 10.78125 32.3125 
Q 14.796875 37.15625 21.921875 38.8125 
M 18.3125 54.390625 
Q 18.3125 48.734375 21.84375 45.5625 
Q 25.390625 42.390625 31.78125 42.390625 
Q 38.140625 42.390625 41.71875 45.5625 
Q 45.3125 48.734375 45.3125 54.390625 
Q 45.3125 60.0625 41.71875 63.234375 
Q 38.140625 66.40625 31.78125 66.40625 
Q 25.390625 66.40625 21.84375 63.234375 
Q 18.3125 60.0625 18.3125 54.390625 
" id="BitstreamVeraSans-Roman-38"/>
      </defs>
      <g transform="translate(527.678472623 403.196875)scale(0.2 -0.2)">
       <use xlink:href="#BitstreamVeraSans-Roman-38"/>
      </g>
     </g>
    </g>
    <g id="xtick_10"/>
    <g id="xtick_11">
     <g id="line2d_31">
      <defs>
       <path d="M 0 0 
L 0 -2 
" id="maa0fcfe54b" style="stroke:#000000;stroke-width:0.5;"/>
      </defs>
      <g>
       <use style="stroke:#000000;stroke-width:0.5;" x="69.2545893472" xlink:href="#maa0fcfe54b" y="384.0"/>
      </g>
     </g>
     <g id="line2d_32">
      <defs>
       <path d="M 0 0 
L 0 2 
" id="mf309cd42dc" style="stroke:#000000;stroke-width:0.5;"/>
      </defs>
      <g>
       <use style="stroke:#000000;stroke-width:0.5;" x="69.2545893472" xlink:href="#mf309cd42dc" y="3.0"/>
      </g>
     </g>
    </g>
    <g id="xtick_12">
     <g id="line2d_33">
      <g>
       <use style="stroke:#000000;stroke-width:0.5;" x="135.652644101" xlink:href="#maa0fcfe54b" y="384.0"/>
      </g>
     </g>
     <g id="line2d_34">
      <g>
       <use style="stroke:#000000;stroke-width:0.5;" x="135.652644101" xlink:href="#mf309cd42dc" y="3.0"/>
      </g>
     </g>
    </g>
    <g id="xtick_13">
     <g id="line2d_35">
      <g>
       <use style="stroke:#000000;stroke-width:0.5;" x="202.050698855" xlink:href="#maa0fcfe54b" y="384.0"/>
      </g>
     </g>
     <g id="line2d_36">
      <g>
       <use style="stroke:#000000;stroke-width:0.5;" x="202.050698855" xlink:href="#mf309cd42dc" y="3.0"/>
      </g>
     </g>
    </g>
    <g id="xtick_14">
     <g id="line2d_37">
      <g>
       <use style="stroke:#000000;stroke-width:0.5;" x="268.448753608" xlink:href="#maa0fcfe54b" y="384.0"/>
      </g>
     </g>
     <g id="line2d_38">
      <g>
       <use style="stroke:#000000;stroke-width:0.5;" x="268.448753608" xlink:href="#mf309cd42dc" y="3.0"/>
      </g>
     </g>
    </g>
    <g id="xtick_15">
     <g id="line2d_39">
      <g>
       <use style="stroke:#000000;stroke-width:0.5;" x="334.846808362" xlink:href="#maa0fcfe54b" y="384.0"/>
      </g>
     </g>
     <g id="line2d_40">
      <g>
       <use style="stroke:#000000;stroke-width:0.5;" x="334.846808362" xlink:href="#mf309cd42dc" y="3.0"/>
      </g>
     </g>
    </g>
    <g id="xtick_16">
     <g id="line2d_41">
      <g>
       <use style="stroke:#000000;stroke-width:0.5;" x="401.244863116" xlink:href="#maa0fcfe54b" y="384.0"/>
      </g>
     </g>
     <g id="line2d_42">
      <g>
       <use style="stroke:#000000;stroke-width:0.5;" x="401.244863116" xlink:href="#mf309cd42dc" y="3.0"/>
      </g>
     </g>
    </g>
    <g id="xtick_17">
     <g id="line2d_43">
      <g>
       <use style="stroke:#000000;stroke-width:0.5;" x="467.642917869" xlink:href="#maa0fcfe54b" y="384.0"/>
      </g>
     </g>
     <g id="line2d_44">
      <g>
       <use style="stroke:#000000;stroke-width:0.5;" x="467.642917869" xlink:href="#mf309cd42dc" y="3.0"/>
      </g>
     </g>
    </g>
    <g id="xtick_18">
     <g id="line2d_45">
      <g>
       <use style="stroke:#000000;stroke-width:0.5;" x="534.040972623" xlink:href="#maa0fcfe54b" y="384.0"/>
      </g>
     </g>
     <g id="line2d_46">
      <g>
       <use style="stroke:#000000;stroke-width:0.5;" x="534.040972623" xlink:href="#mf309cd42dc" y="3.0"/>
      </g>
     </g>
    </g>
    <g id="text_9">
     <!-- log10 of Df -->
     <defs>
      <path id="BitstreamVeraSans-Roman-20"/>
      <path d="M 12.40625 8.296875 
L 28.515625 8.296875 
L 28.515625 63.921875 
L 10.984375 60.40625 
L 10.984375 69.390625 
L 28.421875 72.90625 
L 38.28125 72.90625 
L 38.28125 8.296875 
L 54.390625 8.296875 
L 54.390625 0 
L 12.40625 0 
z
" id="BitstreamVeraSans-Roman-31"/>
      <path d="M 30.609375 48.390625 
Q 23.390625 48.390625 19.1875 42.75 
Q 14.984375 37.109375 14.984375 27.296875 
Q 14.984375 17.484375 19.15625 11.84375 
Q 23.34375 6.203125 30.609375 6.203125 
Q 37.796875 6.203125 41.984375 11.859375 
Q 46.1875 17.53125 46.1875 27.296875 
Q 46.1875 37.015625 41.984375 42.703125 
Q 37.796875 48.390625 30.609375 48.390625 
M 30.609375 56 
Q 42.328125 56 49.015625 48.375 
Q 55.71875 40.765625 55.71875 27.296875 
Q 55.71875 13.875 49.015625 6.21875 
Q 42.328125 -1.421875 30.609375 -1.421875 
Q 18.84375 -1.421875 12.171875 6.21875 
Q 5.515625 13.875 5.515625 27.296875 
Q 5.515625 40.765625 12.171875 48.375 
Q 18.84375 56 30.609375 56 
" id="BitstreamVeraSans-Roman-6f"/>
      <path d="M 9.421875 75.984375 
L 18.40625 75.984375 
L 18.40625 0 
L 9.421875 0 
z
" id="BitstreamVeraSans-Roman-6c"/>
      <path d="M 19.671875 64.796875 
L 19.671875 8.109375 
L 31.59375 8.109375 
Q 46.6875 8.109375 53.6875 14.9375 
Q 60.6875 21.78125 60.6875 36.53125 
Q 60.6875 51.171875 53.6875 57.984375 
Q 46.6875 64.796875 31.59375 64.796875 
z
M 9.8125 72.90625 
L 30.078125 72.90625 
Q 51.265625 72.90625 61.171875 64.09375 
Q 71.09375 55.28125 71.09375 36.53125 
Q 71.09375 17.671875 61.125 8.828125 
Q 51.171875 0 30.078125 0 
L 9.8125 0 
z
" id="BitstreamVeraSans-Roman-44"/>
      <path d="M 45.40625 27.984375 
Q 45.40625 37.75 41.375 43.109375 
Q 37.359375 48.484375 30.078125 48.484375 
Q 22.859375 48.484375 18.828125 43.109375 
Q 14.796875 37.75 14.796875 27.984375 
Q 14.796875 18.265625 18.828125 12.890625 
Q 22.859375 7.515625 30.078125 7.515625 
Q 37.359375 7.515625 41.375 12.890625 
Q 45.40625 18.265625 45.40625 27.984375 
M 54.390625 6.78125 
Q 54.390625 -7.171875 48.1875 -13.984375 
Q 42 -20.796875 29.203125 -20.796875 
Q 24.46875 -20.796875 20.265625 -20.09375 
Q 16.0625 -19.390625 12.109375 -17.921875 
L 12.109375 -9.1875 
Q 16.0625 -11.328125 19.921875 -12.34375 
Q 23.78125 -13.375 27.78125 -13.375 
Q 36.625 -13.375 41.015625 -8.765625 
Q 45.40625 -4.15625 45.40625 5.171875 
L 45.40625 9.625 
Q 42.625 4.78125 38.28125 2.390625 
Q 33.9375 0 27.875 0 
Q 17.828125 0 11.671875 7.65625 
Q 5.515625 15.328125 5.515625 27.984375 
Q 5.515625 40.671875 11.671875 48.328125 
Q 17.828125 56 27.875 56 
Q 33.9375 56 38.28125 53.609375 
Q 42.625 51.21875 45.40625 46.390625 
L 45.40625 54.6875 
L 54.390625 54.6875 
z
" id="BitstreamVeraSans-Roman-67"/>
      <path d="M 37.109375 75.984375 
L 37.109375 68.5 
L 28.515625 68.5 
Q 23.6875 68.5 21.796875 66.546875 
Q 19.921875 64.59375 19.921875 59.515625 
L 19.921875 54.6875 
L 34.71875 54.6875 
L 34.71875 47.703125 
L 19.921875 47.703125 
L 19.921875 0 
L 10.890625 0 
L 10.890625 47.703125 
L 2.296875 47.703125 
L 2.296875 54.6875 
L 10.890625 54.6875 
L 10.890625 58.5 
Q 10.890625 67.625 15.140625 71.796875 
Q 19.390625 75.984375 28.609375 75.984375 
z
" id="BitstreamVeraSans-Roman-66"/>
     </defs>
     <g transform="translate(229.9340625 427.553125)scale(0.2 -0.2)">
      <use xlink:href="#BitstreamVeraSans-Roman-6c"/>
      <use x="27.783203125" xlink:href="#BitstreamVeraSans-Roman-6f"/>
      <use x="88.96484375" xlink:href="#BitstreamVeraSans-Roman-67"/>
      <use x="152.44140625" xlink:href="#BitstreamVeraSans-Roman-31"/>
      <use x="216.064453125" xlink:href="#BitstreamVeraSans-Roman-30"/>
      <use x="279.6875" xlink:href="#BitstreamVeraSans-Roman-20"/>
      <use x="311.474609375" xlink:href="#BitstreamVeraSans-Roman-6f"/>
      <use x="372.65625" xlink:href="#BitstreamVeraSans-Roman-66"/>
      <use x="407.861328125" xlink:href="#BitstreamVeraSans-Roman-20"/>
      <use x="439.6484375" xlink:href="#BitstreamVeraSans-Roman-44"/>
      <use x="516.650390625" xlink:href="#BitstreamVeraSans-Roman-66"/>
     </g>
    </g>
   </g>
   <g id="matplotlib.axis_2">
    <g id="ytick_1">
     <g id="line2d_47">
      <path clip-path="url(#pbbb973d08c)" d="M 3 384 
L 567.24 384 
" style="fill:none;stroke:#000000;stroke-dasharray:1.000000,3.000000;stroke-dashoffset:0.0;stroke-width:0.5;"/>
     </g>
     <g id="line2d_48">
      <defs>
       <path d="M 0 0 
L 4 0 
" id="m79ddc85d83" style="stroke:#000000;stroke-width:0.5;"/>
      </defs>
      <g>
       <use style="stroke:#000000;stroke-width:0.5;" x="3.0" xlink:href="#m79ddc85d83" y="384.0"/>
      </g>
     </g>
     <g id="line2d_49">
      <defs>
       <path d="M 0 0 
L -4 0 
" id="mef6e36041a" style="stroke:#000000;stroke-width:0.5;"/>
      </defs>
      <g>
       <use style="stroke:#000000;stroke-width:0.5;" x="567.24" xlink:href="#mef6e36041a" y="384.0"/>
      </g>
     </g>
    </g>
    <g id="ytick_2">
     <g id="line2d_50">
      <path clip-path="url(#pbbb973d08c)" d="M 3 308.554455 
L 567.24 308.554455 
" style="fill:none;stroke:#000000;stroke-dasharray:1.000000,3.000000;stroke-dashoffset:0.0;stroke-width:0.5;"/>
     </g>
     <g id="line2d_51">
      <g>
       <use style="stroke:#000000;stroke-width:0.5;" x="3.0" xlink:href="#m79ddc85d83" y="308.554455446"/>
      </g>
     </g>
     <g id="line2d_52">
      <g>
       <use style="stroke:#000000;stroke-width:0.5;" x="567.24" xlink:href="#mef6e36041a" y="308.554455446"/>
      </g>
     </g>
    </g>
    <g id="ytick_3">
     <g id="line2d_53">
      <path clip-path="url(#pbbb973d08c)" d="M 3 233.108911 
L 567.24 233.108911 
" style="fill:none;stroke:#000000;stroke-dasharray:1.000000,3.000000;stroke-dashoffset:0.0;stroke-width:0.5;"/>
     </g>
     <g id="line2d_54">
      <g>
       <use style="stroke:#000000;stroke-width:0.5;" x="3.0" xlink:href="#m79ddc85d83" y="233.108910891"/>
      </g>
     </g>
     <g id="line2d_55">
      <g>
       <use style="stroke:#000000;stroke-width:0.5;" x="567.24" xlink:href="#mef6e36041a" y="233.108910891"/>
      </g>
     </g>
    </g>
    <g id="ytick_4">
     <g id="line2d_56">
      <path clip-path="url(#pbbb973d08c)" d="M 3 157.663366 
L 567.24 157.663366 
" style="fill:none;stroke:#000000;stroke-dasharray:1.000000,3.000000;stroke-dashoffset:0.0;stroke-width:0.5;"/>
     </g>
     <g id="line2d_57">
      <g>
       <use style="stroke:#000000;stroke-width:0.5;" x="3.0" xlink:href="#m79ddc85d83" y="157.663366337"/>
      </g>
     </g>
     <g id="line2d_58">
      <g>
       <use style="stroke:#000000;stroke-width:0.5;" x="567.24" xlink:href="#mef6e36041a" y="157.663366337"/>
      </g>
     </g>
    </g>
    <g id="ytick_5">
     <g id="line2d_59">
      <path clip-path="url(#pbbb973d08c)" d="M 3 82.217822 
L 567.24 82.217822 
" style="fill:none;stroke:#000000;stroke-dasharray:1.000000,3.000000;stroke-dashoffset:0.0;stroke-width:0.5;"/>
     </g>
     <g id="line2d_60">
      <g>
       <use style="stroke:#000000;stroke-width:0.5;" x="3.0" xlink:href="#m79ddc85d83" y="82.2178217822"/>
      </g>
     </g>
     <g id="line2d_61">
      <g>
       <use style="stroke:#000000;stroke-width:0.5;" x="567.24" xlink:href="#mef6e36041a" y="82.2178217822"/>
      </g>
     </g>
    </g>
    <g id="ytick_6">
     <g id="line2d_62">
      <path clip-path="url(#pbbb973d08c)" d="M 3 6.772277 
L 567.24 6.772277 
" style="fill:none;stroke:#000000;stroke-dasharray:1.000000,3.000000;stroke-dashoffset:0.0;stroke-width:0.5;"/>
     </g>
     <g id="line2d_63">
      <g>
       <use style="stroke:#000000;stroke-width:0.5;" x="3.0" xlink:href="#m79ddc85d83" y="6.77227722772"/>
      </g>
     </g>
     <g id="line2d_64">
      <g>
       <use style="stroke:#000000;stroke-width:0.5;" x="567.24" xlink:href="#mef6e36041a" y="6.77227722772"/>
      </g>
     </g>
    </g>
   </g>
   <g id="text_10">
    <!-- {f15-f19}, 5-D -->
    <defs>
     <path d="M 12.5 -9.28125 
L 15.921875 -9.28125 
Q 22.75 -9.28125 24.828125 -7.171875 
Q 26.90625 -5.078125 26.90625 1.90625 
L 26.90625 14.015625 
Q 26.90625 21.625 29.09375 25.09375 
Q 31.296875 28.5625 36.71875 29.890625 
Q 31.296875 31.109375 29.09375 34.5625 
Q 26.90625 38.03125 26.90625 45.703125 
L 26.90625 57.8125 
Q 26.90625 64.75 24.828125 66.875 
Q 22.75 69 15.921875 69 
L 12.5 69 
L 12.5 75.984375 
L 15.578125 75.984375 
Q 27.734375 75.984375 31.8125 72.390625 
Q 35.890625 68.796875 35.890625 58.015625 
L 35.890625 46.296875 
Q 35.890625 39.015625 38.515625 36.203125 
Q 41.15625 33.40625 48.09375 33.40625 
L 51.125 33.40625 
L 51.125 26.421875 
L 48.09375 26.421875 
Q 41.15625 26.421875 38.515625 23.578125 
Q 35.890625 20.75 35.890625 13.375 
L 35.890625 1.703125 
Q 35.890625 -9.078125 31.8125 -12.6875 
Q 27.734375 -16.3125 15.578125 -16.3125 
L 12.5 -16.3125 
z
" id="BitstreamVeraSans-Roman-7d"/>
     <path d="M 10.984375 1.515625 
L 10.984375 10.5 
Q 14.703125 8.734375 18.5 7.8125 
Q 22.3125 6.890625 25.984375 6.890625 
Q 35.75 6.890625 40.890625 13.453125 
Q 46.046875 20.015625 46.78125 33.40625 
Q 43.953125 29.203125 39.59375 26.953125 
Q 35.25 24.703125 29.984375 24.703125 
Q 19.046875 24.703125 12.671875 31.3125 
Q 6.296875 37.9375 6.296875 49.421875 
Q 6.296875 60.640625 12.9375 67.421875 
Q 19.578125 74.21875 30.609375 74.21875 
Q 43.265625 74.21875 49.921875 64.515625 
Q 56.59375 54.828125 56.59375 36.375 
Q 56.59375 19.140625 48.40625 8.859375 
Q 40.234375 -1.421875 26.421875 -1.421875 
Q 22.703125 -1.421875 18.890625 -0.6875 
Q 15.09375 0.046875 10.984375 1.515625 
M 30.609375 32.421875 
Q 37.25 32.421875 41.125 36.953125 
Q 45.015625 41.5 45.015625 49.421875 
Q 45.015625 57.28125 41.125 61.84375 
Q 37.25 66.40625 30.609375 66.40625 
Q 23.96875 66.40625 20.09375 61.84375 
Q 16.21875 57.28125 16.21875 49.421875 
Q 16.21875 41.5 20.09375 36.953125 
Q 23.96875 32.421875 30.609375 32.421875 
" id="BitstreamVeraSans-Roman-39"/>
     <path d="M 51.125 -9.28125 
L 51.125 -16.3125 
L 48.09375 -16.3125 
Q 35.9375 -16.3125 31.8125 -12.6875 
Q 27.6875 -9.078125 27.6875 1.703125 
L 27.6875 13.375 
Q 27.6875 20.75 25.046875 23.578125 
Q 22.40625 26.421875 15.484375 26.421875 
L 12.5 26.421875 
L 12.5 33.40625 
L 15.484375 33.40625 
Q 22.46875 33.40625 25.078125 36.203125 
Q 27.6875 39.015625 27.6875 46.296875 
L 27.6875 58.015625 
Q 27.6875 68.796875 31.8125 72.390625 
Q 35.9375 75.984375 48.09375 75.984375 
L 51.125 75.984375 
L 51.125 69 
L 47.796875 69 
Q 40.921875 69 38.8125 66.84375 
Q 36.71875 64.703125 36.71875 57.8125 
L 36.71875 45.703125 
Q 36.71875 38.03125 34.5 34.5625 
Q 32.28125 31.109375 26.90625 29.890625 
Q 32.328125 28.5625 34.515625 25.09375 
Q 36.71875 21.625 36.71875 14.015625 
L 36.71875 1.90625 
Q 36.71875 -4.984375 38.8125 -7.125 
Q 40.921875 -9.28125 47.796875 -9.28125 
z
" id="BitstreamVeraSans-Roman-7b"/>
     <path d="M 11.71875 12.40625 
L 22.015625 12.40625 
L 22.015625 4 
L 14.015625 -11.625 
L 7.71875 -11.625 
L 11.71875 4 
z
" id="BitstreamVeraSans-Roman-2c"/>
     <path d="M 10.796875 72.90625 
L 49.515625 72.90625 
L 49.515625 64.59375 
L 19.828125 64.59375 
L 19.828125 46.734375 
Q 21.96875 47.46875 24.109375 47.828125 
Q 26.265625 48.1875 28.421875 48.1875 
Q 40.625 48.1875 47.75 41.5 
Q 54.890625 34.8125 54.890625 23.390625 
Q 54.890625 11.625 47.5625 5.09375 
Q 40.234375 -1.421875 26.90625 -1.421875 
Q 22.3125 -1.421875 17.546875 -0.640625 
Q 12.796875 0.140625 7.71875 1.703125 
L 7.71875 11.625 
Q 12.109375 9.234375 16.796875 8.0625 
Q 21.484375 6.890625 26.703125 6.890625 
Q 35.15625 6.890625 40.078125 11.328125 
Q 45.015625 15.765625 45.015625 23.390625 
Q 45.015625 31 40.078125 35.4375 
Q 35.15625 39.890625 26.703125 39.890625 
Q 22.75 39.890625 18.8125 39.015625 
Q 14.890625 38.140625 10.796875 36.28125 
z
" id="BitstreamVeraSans-Roman-35"/>
    </defs>
    <g transform="translate(410.2552 376.38)scale(0.2 -0.2)">
     <use xlink:href="#BitstreamVeraSans-Roman-7b"/>
     <use x="63.623046875" xlink:href="#BitstreamVeraSans-Roman-66"/>
     <use x="98.828125" xlink:href="#BitstreamVeraSans-Roman-31"/>
     <use x="162.451171875" xlink:href="#BitstreamVeraSans-Roman-35"/>
     <use x="226.07421875" xlink:href="#BitstreamVeraSans-Roman-2d"/>
     <use x="262.158203125" xlink:href="#BitstreamVeraSans-Roman-66"/>
     <use x="297.36328125" xlink:href="#BitstreamVeraSans-Roman-31"/>
     <use x="360.986328125" xlink:href="#BitstreamVeraSans-Roman-39"/>
     <use x="424.609375" xlink:href="#BitstreamVeraSans-Roman-7d"/>
     <use x="488.232421875" xlink:href="#BitstreamVeraSans-Roman-2c"/>
     <use x="520.01953125" xlink:href="#BitstreamVeraSans-Roman-20"/>
     <use x="551.806640625" xlink:href="#BitstreamVeraSans-Roman-35"/>
     <use x="615.4296875" xlink:href="#BitstreamVeraSans-Roman-2d"/>
     <use x="651.513671875" xlink:href="#BitstreamVeraSans-Roman-44"/>
    </g>
   </g>
   <g id="text_11">
    <!-- v2.2.1.10 -->
    <defs>
     <path d="M 2.984375 54.6875 
L 12.5 54.6875 
L 29.59375 8.796875 
L 46.6875 54.6875 
L 56.203125 54.6875 
L 35.6875 0 
L 23.484375 0 
z
" id="BitstreamVeraSans-Roman-76"/>
     <path d="M 10.6875 12.40625 
L 21 12.40625 
L 21 0 
L 10.6875 0 
z
" id="BitstreamVeraSans-Roman-2e"/>
    </defs>
    <g style="fill:#808080;" transform="translate(261.4871875 378.1103125)scale(0.1 -0.1)">
     <use xlink:href="#BitstreamVeraSans-Roman-76"/>
     <use x="59.1796875" xlink:href="#BitstreamVeraSans-Roman-32"/>
     <use x="122.802734375" xlink:href="#BitstreamVeraSans-Roman-2e"/>
     <use x="154.58984375" xlink:href="#BitstreamVeraSans-Roman-32"/>
     <use x="218.212890625" xlink:href="#BitstreamVeraSans-Roman-2e"/>
     <use x="250.0" xlink:href="#BitstreamVeraSans-Roman-31"/>
     <use x="313.623046875" xlink:href="#BitstreamVeraSans-Roman-2e"/>
     <use x="345.41015625" xlink:href="#BitstreamVeraSans-Roman-31"/>
     <use x="409.033203125" xlink:href="#BitstreamVeraSans-Roman-30"/>
    </g>
   </g>
  </g>
 </g>
 <defs>
  <clipPath id="pbbb973d08c">
   <rect height="381.0" width="564.24" x="3.0" y="3.0"/>
  </clipPath>
 </defs>
</svg>
