<?xml version="1.0" encoding="utf-8" standalone="no"?>
<!DOCTYPE svg PUBLIC "-//W3C//DTD SVG 1.1//EN"
  "http://www.w3.org/Graphics/SVG/1.1/DTD/svg11.dtd">
<!-- Created with matplotlib (http://matplotlib.org/) -->
<svg height="432pt" version="1.1" viewBox="0 0 576 432" width="576pt" xmlns="http://www.w3.org/2000/svg" xmlns:xlink="http://www.w3.org/1999/xlink">
 <defs>
  <style type="text/css">
*{stroke-linecap:butt;stroke-linejoin:round;stroke-miterlimit:100000;}
  </style>
 </defs>
 <g id="figure_1">
  <g id="patch_1">
   <path d="M 0 432 
L 576 432 
L 576 0 
L 0 0 
z
" style="fill:#ffffff;"/>
  </g>
  <g id="axes_1">
   <g id="patch_2">
    <path d="M 3 384 
L 567.24 384 
L 567.24 3 
L 3 3 
z
" style="fill:#ffffff;"/>
   </g>
   <g id="line2d_1">
    <path clip-path="url(#p77d8b2369d)" d="M 208.572165 384 
L 208.572165 378.970297 
L 208.572165 378.970297 
L 208.572165 378.970297 
L 208.624705 378.970297 
L 208.624705 373.940594 
L 208.800284 373.940594 
L 208.85766 353.821782 
L 209.140749 353.821782 
L 209.228998 343.762376 
L 209.572097 343.762376 
L 209.572097 338.732673 
L 210.343121 338.732673 
L 210.343121 333.70297 
L 210.516488 333.70297 
L 210.516488 328.673267 
L 210.833022 328.673267 
L 210.833022 323.643564 
L 212.492799 323.643564 
L 212.492799 318.613861 
L 213.606409 318.613861 
L 213.606409 313.584158 
L 223.021392 313.584158 
L 223.021392 308.554455 
L 296.665967 308.554455 
L 296.770764 298.49505 
L 296.975771 298.49505 
L 296.975771 293.465347 
L 297.51911 293.465347 
L 297.51911 288.435644 
L 298.089365 288.435644 
L 298.089365 283.405941 
L 298.367719 283.405941 
L 298.367719 278.376238 
L 298.701697 278.376238 
L 298.701697 273.346535 
L 301.364519 273.346535 
L 301.450542 258.257426 
L 303.124047 258.257426 
L 303.124047 253.227723 
L 308.12992 253.227723 
L 308.12992 248.19802 
L 313.513853 248.19802 
L 313.513853 243.168317 
L 314.314569 243.168317 
L 314.314569 238.138614 
L 315.619675 238.138614 
L 315.619675 233.108911 
L 315.749153 233.108911 
L 315.749153 228.079208 
L 315.922513 228.079208 
L 315.922513 223.049505 
L 316.381812 223.049505 
L 316.409951 212.990099 
L 317.561308 212.990099 
L 317.561308 207.960396 
L 318.45466 207.960396 
L 318.45466 202.930693 
L 318.799334 202.930693 
L 318.799334 197.90099 
L 319.358287 197.90099 
L 319.358287 192.871287 
L 320.148656 192.871287 
L 320.148656 187.841584 
L 321.224542 187.841584 
L 321.224542 182.811881 
L 321.397045 182.811881 
L 321.397045 177.782178 
L 323.005956 177.782178 
L 323.005956 172.752475 
L 324.021161 172.752475 
L 324.021161 167.722772 
L 325.784948 167.722772 
L 325.784948 162.693069 
L 326.235255 162.693069 
L 326.235255 157.663366 
L 327.561961 157.663366 
L 327.561961 152.633663 
L 327.921649 152.633663 
L 327.921649 147.60396 
L 328.270398 147.60396 
L 328.318064 137.544554 
L 329.518725 137.544554 
L 329.518725 132.514851 
L 330.058544 132.514851 
L 330.148647 122.455446 
L 331.53693 122.455446 
L 331.53693 117.425743 
L 332.143161 117.425743 
L 332.143161 112.39604 
L 333.66435 112.39604 
L 333.66435 107.366337 
L 335.413478 107.366337 
L 335.413478 102.336634 
L 336.071138 102.336634 
L 336.160004 92.277228 
L 336.909435 92.277228 
L 336.909435 87.247525 
L 337.524842 87.247525 
L 337.524842 82.217822 
L 353.9858 82.217822 
L 353.9858 77.188119 
L 356.17571 77.188119 
L 356.17571 72.158416 
L 357.022107 72.158416 
L 357.022107 67.128713 
L 357.304158 67.128713 
L 357.304158 62.09901 
L 358.088349 62.09901 
L 358.088349 57.069307 
L 358.720942 57.069307 
L 358.791043 47.009901 
L 358.894982 47.009901 
L 358.9248 36.950495 
L 359.927583 36.950495 
L 359.927583 31.920792 
L 360.434852 31.920792 
L 360.434852 26.891089 
L 364.358218 26.891089 
L 364.358218 21.861386 
L 364.825067 21.861386 
L 364.825067 16.831683 
L 368.445331 16.831683 
L 368.445331 11.80198 
L 371.197092 11.80198 
L 371.197092 6.772277 
L 371.197092 6.772277 
L 567.24 6.772277 
L 567.24 6.772277 
" style="fill:none;stroke:#ff0000;stroke-linecap:square;stroke-width:3.0;"/>
   </g>
   <g id="line2d_2">
    <path clip-path="url(#p77d8b2369d)" d="M 248.424348 384 
L 248.424348 378.970297 
L 248.424348 378.970297 
L 248.424348 378.970297 
L 248.428551 378.970297 
L 248.480852 308.554455 
L 304.712642 308.554455 
L 304.810787 298.49505 
L 306.907854 298.49505 
L 306.963519 283.405941 
L 307.51866 283.405941 
L 307.51866 278.376238 
L 307.916691 278.376238 
L 307.916691 273.346535 
L 308.194389 273.346535 
L 308.194389 268.316832 
L 308.391015 268.316832 
L 308.444806 258.257426 
L 308.902235 258.257426 
L 308.902235 253.227723 
L 311.516566 253.227723 
L 311.516566 248.19802 
L 319.99703 248.19802 
L 319.99703 243.168317 
L 320.538399 243.168317 
L 320.538399 238.138614 
L 321.458069 238.138614 
L 321.458069 233.108911 
L 322.176556 233.108911 
L 322.176556 228.079208 
L 323.290403 228.079208 
L 323.311551 218.019802 
L 324.335232 218.019802 
L 324.335232 212.990099 
L 324.587417 212.990099 
L 324.587417 207.960396 
L 326.223199 207.960396 
L 326.223199 202.930693 
L 326.343136 202.930693 
L 326.387776 192.871287 
L 326.723574 192.871287 
L 326.723574 187.841584 
L 327.330876 187.841584 
L 327.330876 182.811881 
L 327.655477 182.811881 
L 327.655477 177.782178 
L 328.011562 177.782178 
L 328.011562 172.752475 
L 328.551033 172.752475 
L 328.62322 162.693069 
L 329.228558 162.693069 
L 329.228558 157.663366 
L 329.639238 157.663366 
L 329.6439 147.60396 
L 330.141156 147.60396 
L 330.193806 137.544554 
L 330.39327 137.544554 
L 330.39327 132.514851 
L 331.764998 132.514851 
L 331.764998 127.485149 
L 331.886953 127.485149 
L 331.886953 122.455446 
L 332.335493 122.455446 
L 332.335493 117.425743 
L 333.797365 117.425743 
L 333.797365 112.39604 
L 336.189178 112.39604 
L 336.189178 107.366337 
L 336.38718 107.366337 
L 336.38718 102.336634 
L 337.609843 102.336634 
L 337.609843 97.306931 
L 341.390476 97.306931 
L 341.456071 87.247525 
L 346.063887 87.247525 
L 346.063887 82.217822 
L 359.275524 82.217822 
L 359.275524 77.188119 
L 360.285966 77.188119 
L 360.285966 72.158416 
L 360.941147 72.158416 
L 360.941147 67.128713 
L 361.1977 67.128713 
L 361.1977 62.09901 
L 361.663687 62.09901 
L 361.663687 57.069307 
L 361.830935 57.069307 
L 361.830935 52.039604 
L 362.346663 52.039604 
L 362.346663 47.009901 
L 362.986019 47.009901 
L 362.986019 41.980198 
L 363.519398 41.980198 
L 363.519398 36.950495 
L 363.745168 36.950495 
L 363.745168 31.920792 
L 364.19496 31.920792 
L 364.19496 26.891089 
L 366.74723 26.891089 
L 366.74723 21.861386 
L 367.561423 21.861386 
L 367.561423 16.831683 
L 371.006379 16.831683 
L 371.006379 11.80198 
L 379.334312 11.80198 
L 379.334312 6.772277 
L 379.334312 6.772277 
L 567.24 6.772277 
L 567.24 6.772277 
" style="fill:none;stroke:#00bfbf;stroke-linecap:square;"/>
   </g>
   <g id="line2d_3">
    <path clip-path="url(#p77d8b2369d)" d="M 248.407631 384 
L 248.407631 378.970297 
L 248.407631 378.970297 
L 248.407631 378.970297 
L 248.411073 378.970297 
L 248.452104 308.554455 
L 304.711541 308.554455 
L 304.80968 298.49505 
L 306.905162 298.49505 
L 306.962371 283.405941 
L 307.517999 283.405941 
L 307.517999 278.376238 
L 307.915725 278.376238 
L 307.915725 273.346535 
L 308.193458 273.346535 
L 308.193458 268.316832 
L 308.388481 268.316832 
L 308.443404 258.257426 
L 308.901634 258.257426 
L 308.901634 253.227723 
L 311.515232 253.227723 
L 311.515232 248.19802 
L 319.993414 248.19802 
L 319.993414 243.168317 
L 320.538323 243.168317 
L 320.538323 238.138614 
L 321.458069 238.138614 
L 321.458069 233.108911 
L 322.172568 233.108911 
L 322.172568 228.079208 
L 323.249725 228.079208 
L 323.310141 218.019802 
L 324.334958 218.019802 
L 324.334958 212.990099 
L 324.586579 212.990099 
L 324.586579 207.960396 
L 326.219817 207.960396 
L 326.219817 202.930693 
L 326.343106 202.930693 
L 326.385798 192.871287 
L 326.698869 192.871287 
L 326.698869 187.841584 
L 327.328736 187.841584 
L 327.328736 182.811881 
L 327.644926 182.811881 
L 327.644926 177.782178 
L 327.996794 177.782178 
L 327.996794 172.752475 
L 328.534336 172.752475 
L 328.613298 162.693069 
L 329.224432 162.693069 
L 329.224432 157.663366 
L 329.632731 157.663366 
L 329.638562 147.60396 
L 330.141156 147.60396 
L 330.193806 137.544554 
L 330.364806 137.544554 
L 330.364806 132.514851 
L 331.734216 132.514851 
L 331.734216 127.485149 
L 331.882246 127.485149 
L 331.882246 122.455446 
L 332.321822 122.455446 
L 332.321822 117.425743 
L 333.797365 117.425743 
L 333.797365 112.39604 
L 336.167415 112.39604 
L 336.167415 107.366337 
L 336.38643 107.366337 
L 336.38643 102.336634 
L 337.594901 102.336634 
L 337.594901 97.306931 
L 341.389891 97.306931 
L 341.454241 87.247525 
L 346.06216 87.247525 
L 346.06216 82.217822 
L 359.274993 82.217822 
L 359.274993 77.188119 
L 360.285239 77.188119 
L 360.285239 72.158416 
L 360.941112 72.158416 
L 360.941112 67.128713 
L 361.197004 67.128713 
L 361.197004 62.09901 
L 361.663524 62.09901 
L 361.663524 57.069307 
L 361.830732 57.069307 
L 361.830732 52.039604 
L 362.346069 52.039604 
L 362.346069 47.009901 
L 362.985617 47.009901 
L 362.985617 41.980198 
L 363.51937 41.980198 
L 363.51937 36.950495 
L 363.744262 36.950495 
L 363.744262 31.920792 
L 364.194538 31.920792 
L 364.194538 26.891089 
L 366.746461 26.891089 
L 366.746461 21.861386 
L 367.560501 21.861386 
L 367.560501 16.831683 
L 371.005904 16.831683 
L 371.005904 11.80198 
L 379.333834 11.80198 
L 379.333834 6.772277 
L 379.333834 6.772277 
L 567.24 6.772277 
L 567.24 6.772277 
" style="fill:none;stroke:#bf00bf;stroke-linecap:square;"/>
   </g>
   <g id="line2d_4">
    <path clip-path="url(#p77d8b2369d)" d="M 248.138873 384 
L 248.138873 378.970297 
L 248.138873 378.970297 
L 248.138873 378.970297 
L 248.178718 378.970297 
L 248.287541 313.584158 
L 248.295203 313.584158 
L 248.295203 308.554455 
L 304.698876 308.554455 
L 304.800166 298.49505 
L 306.872655 298.49505 
L 306.952309 283.405941 
L 307.504889 283.405941 
L 307.504889 278.376238 
L 307.909877 278.376238 
L 307.909877 273.346535 
L 308.18597 273.346535 
L 308.18597 268.316832 
L 308.378627 268.316832 
L 308.433282 258.257426 
L 308.89313 258.257426 
L 308.89313 253.227723 
L 311.503792 253.227723 
L 311.503792 248.19802 
L 319.952396 248.19802 
L 319.952396 243.168317 
L 320.532904 243.168317 
L 320.532904 238.138614 
L 321.370798 238.138614 
L 321.370798 233.108911 
L 322.14077 233.108911 
L 322.14077 228.079208 
L 323.214477 228.079208 
L 323.296167 218.019802 
L 324.317149 218.019802 
L 324.317149 212.990099 
L 324.572238 212.990099 
L 324.572238 207.960396 
L 326.200894 207.960396 
L 326.200894 202.930693 
L 326.332897 202.930693 
L 326.375056 192.871287 
L 326.646632 192.871287 
L 326.646632 187.841584 
L 327.31031 187.841584 
L 327.31031 182.811881 
L 327.617674 182.811881 
L 327.617674 177.782178 
L 327.978774 177.782178 
L 327.978774 172.752475 
L 328.495108 172.752475 
L 328.568707 162.693069 
L 329.199829 162.693069 
L 329.199829 157.663366 
L 329.561569 157.663366 
L 329.63502 147.60396 
L 330.133517 147.60396 
L 330.167493 137.544554 
L 330.250252 137.544554 
L 330.250252 132.514851 
L 331.674324 132.514851 
L 331.674324 127.485149 
L 331.838628 127.485149 
L 331.838628 122.455446 
L 332.224652 122.455446 
L 332.224652 117.425743 
L 333.762302 117.425743 
L 333.762302 112.39604 
L 336.135918 112.39604 
L 336.135918 107.366337 
L 336.370613 107.366337 
L 336.370613 102.336634 
L 337.570284 102.336634 
L 337.570284 97.306931 
L 341.382125 97.306931 
L 341.443503 87.247525 
L 346.018626 87.247525 
L 346.018626 82.217822 
L 359.26913 82.217822 
L 359.26913 77.188119 
L 360.280511 77.188119 
L 360.280511 72.158416 
L 360.936198 72.158416 
L 360.936198 67.128713 
L 361.190145 67.128713 
L 361.190145 62.09901 
L 361.657474 62.09901 
L 361.657474 57.069307 
L 361.826935 57.069307 
L 361.826935 52.039604 
L 362.340855 52.039604 
L 362.340855 47.009901 
L 362.980013 47.009901 
L 362.980013 41.980198 
L 363.514247 41.980198 
L 363.514247 36.950495 
L 363.738548 36.950495 
L 363.738548 31.920792 
L 364.189807 31.920792 
L 364.189807 26.891089 
L 366.742352 26.891089 
L 366.742352 21.861386 
L 367.554404 21.861386 
L 367.554404 16.831683 
L 370.999586 16.831683 
L 370.999586 11.80198 
L 379.331773 11.80198 
L 379.331773 6.772277 
L 379.331773 6.772277 
L 567.24 6.772277 
L 567.24 6.772277 
" style="fill:none;stroke:#000000;stroke-linecap:square;"/>
   </g>
   <g id="line2d_5">
    <path clip-path="url(#p77d8b2369d)" d="M 245.883857 384 
L 245.883857 378.970297 
L 246.410837 378.970297 
L 246.410837 373.940594 
L 246.528124 373.940594 
L 246.599138 358.851485 
L 246.667328 358.851485 
L 246.766067 343.762376 
L 246.811244 343.762376 
L 246.909189 318.613861 
L 247.22991 318.613861 
L 247.323031 308.554455 
L 304.45925 308.554455 
L 304.45925 303.524752 
L 304.596802 303.524752 
L 304.596802 298.49505 
L 306.372805 298.49505 
L 306.372805 293.465347 
L 306.72841 293.465347 
L 306.770703 283.405941 
L 307.207573 283.405941 
L 307.207573 278.376238 
L 307.734584 278.376238 
L 307.734584 273.346535 
L 307.978442 273.346535 
L 307.978442 268.316832 
L 308.148919 268.316832 
L 308.179882 258.257426 
L 308.707962 258.257426 
L 308.707962 253.227723 
L 311.301592 253.227723 
L 311.301592 248.19802 
L 319.17196 248.19802 
L 319.17196 243.168317 
L 320.399802 243.168317 
L 320.399802 238.138614 
L 321.260269 238.138614 
L 321.260269 233.108911 
L 321.49999 233.108911 
L 321.49999 228.079208 
L 322.959966 228.079208 
L 323.046869 218.019802 
L 323.960826 218.019802 
L 323.960826 212.990099 
L 324.253866 212.990099 
L 324.253866 207.960396 
L 325.640338 207.960396 
L 325.640338 202.930693 
L 326.040079 202.930693 
L 326.122891 192.871287 
L 326.349966 192.871287 
L 326.349966 187.841584 
L 326.871304 187.841584 
L 326.871304 182.811881 
L 327.582427 182.811881 
L 327.582427 177.782178 
L 327.945627 177.782178 
L 327.945627 172.752475 
L 328.313654 172.752475 
L 328.352694 162.693069 
L 328.486961 162.693069 
L 328.486961 157.663366 
L 329.536994 157.663366 
L 329.552781 147.60396 
L 329.715336 147.60396 
L 329.715336 142.574257 
L 330.087729 142.574257 
L 330.175145 132.514851 
L 330.541175 132.514851 
L 330.541175 127.485149 
L 331.604071 127.485149 
L 331.604071 122.455446 
L 332.160294 122.455446 
L 332.160294 117.425743 
L 333.695462 117.425743 
L 333.695462 112.39604 
L 336.087172 112.39604 
L 336.089263 102.336634 
L 337.543037 102.336634 
L 337.543037 97.306931 
L 341.256475 97.306931 
L 341.265909 87.247525 
L 345.150968 87.247525 
L 345.150968 82.217822 
L 359.146105 82.217822 
L 359.146105 77.188119 
L 360.183714 77.188119 
L 360.183714 72.158416 
L 360.838681 72.158416 
L 360.838681 67.128713 
L 361.047243 67.128713 
L 361.047243 62.09901 
L 361.540189 62.09901 
L 361.540189 57.069307 
L 361.748709 57.069307 
L 361.748709 52.039604 
L 362.24393 52.039604 
L 362.24393 47.009901 
L 362.845058 47.009901 
L 362.845058 41.980198 
L 363.394315 41.980198 
L 363.394315 36.950495 
L 363.622745 36.950495 
L 363.622745 31.920792 
L 364.083784 31.920792 
L 364.083784 26.891089 
L 366.640398 26.891089 
L 366.640398 21.861386 
L 367.422079 21.861386 
L 367.422079 16.831683 
L 370.872123 16.831683 
L 370.872123 11.80198 
L 379.265894 11.80198 
L 379.265894 6.772277 
L 379.265894 6.772277 
L 567.24 6.772277 
L 567.24 6.772277 
" style="fill:none;stroke:#00bfbf;stroke-linecap:square;"/>
   </g>
   <g id="line2d_6">
    <path clip-path="url(#p77d8b2369d)" d="M 213.896644 384 
L 213.896644 378.970297 
L 214.311714 378.970297 
L 214.311714 373.940594 
L 215.285487 373.940594 
L 215.285487 368.910891 
L 216.925173 368.910891 
L 216.925173 363.881188 
L 217.255662 363.881188 
L 217.255662 358.851485 
L 220.045652 358.851485 
L 220.045652 353.821782 
L 220.942964 353.821782 
L 220.942964 348.792079 
L 221.516411 348.792079 
L 221.516411 343.762376 
L 221.68972 343.762376 
L 221.68972 338.732673 
L 221.982239 338.732673 
L 221.982239 333.70297 
L 222.44554 333.70297 
L 222.44554 328.673267 
L 227.78081 328.673267 
L 227.8867 318.613861 
L 230.788027 318.613861 
L 230.788027 313.584158 
L 233.552112 313.584158 
L 233.552112 308.554455 
L 297.341478 308.554455 
L 297.341478 303.524752 
L 297.670896 303.524752 
L 297.670896 298.49505 
L 298.28827 298.49505 
L 298.28827 293.465347 
L 298.56678 293.465347 
L 298.56678 288.435644 
L 299.297006 288.435644 
L 299.381337 278.376238 
L 299.411147 278.376238 
L 299.411147 273.346535 
L 301.621149 273.346535 
L 301.621149 268.316832 
L 301.966487 268.316832 
L 301.966487 263.287129 
L 302.56267 263.287129 
L 302.56267 258.257426 
L 304.770852 258.257426 
L 304.770852 253.227723 
L 308.734605 253.227723 
L 308.734605 248.19802 
L 314.850186 248.19802 
L 314.850186 243.168317 
L 316.372863 243.168317 
L 316.372863 238.138614 
L 316.878647 238.138614 
L 316.878647 233.108911 
L 317.841425 233.108911 
L 317.866482 223.049505 
L 318.047836 223.049505 
L 318.047836 218.019802 
L 318.641307 218.019802 
L 318.641307 212.990099 
L 319.693183 212.990099 
L 319.693183 207.960396 
L 320.037992 207.960396 
L 320.037992 202.930693 
L 320.306375 202.930693 
L 320.306375 197.90099 
L 320.430857 197.90099 
L 320.430857 192.871287 
L 320.642749 192.871287 
L 320.642749 187.841584 
L 321.224542 187.841584 
L 321.224542 182.811881 
L 322.339747 182.811881 
L 322.339747 177.782178 
L 323.005956 177.782178 
L 323.005956 172.752475 
L 325.4934 172.752475 
L 325.4934 167.722772 
L 326.235422 167.722772 
L 326.235422 162.693069 
L 327.302873 162.693069 
L 327.302873 157.663366 
L 327.561961 157.663366 
L 327.561961 152.633663 
L 327.921649 152.633663 
L 327.921649 147.60396 
L 328.270398 147.60396 
L 328.318064 137.544554 
L 329.518725 137.544554 
L 329.518725 132.514851 
L 330.058544 132.514851 
L 330.148647 122.455446 
L 331.537159 122.455446 
L 331.537159 117.425743 
L 332.143161 117.425743 
L 332.143161 112.39604 
L 333.66435 112.39604 
L 333.66435 107.366337 
L 336.071138 107.366337 
L 336.071138 102.336634 
L 337.325121 102.336634 
L 337.372398 92.277228 
L 337.524842 92.277228 
L 337.524842 87.247525 
L 337.967123 87.247525 
L 337.967123 82.217822 
L 354.282293 82.217822 
L 354.282293 77.188119 
L 357.167573 77.188119 
L 357.167573 72.158416 
L 357.490483 72.158416 
L 357.490483 67.128713 
L 357.859352 67.128713 
L 357.859352 62.09901 
L 358.293201 62.09901 
L 358.293201 57.069307 
L 359.064543 57.069307 
L 359.064543 52.039604 
L 359.26598 52.039604 
L 359.26598 47.009901 
L 359.498646 47.009901 
L 359.498646 41.980198 
L 360.272286 41.980198 
L 360.372119 31.920792 
L 360.689297 31.920792 
L 360.689297 26.891089 
L 364.755978 26.891089 
L 364.755978 21.861386 
L 364.968066 21.861386 
L 364.968066 16.831683 
L 368.674852 16.831683 
L 368.674852 11.80198 
L 372.203923 11.80198 
L 372.203923 6.772277 
L 372.203923 6.772277 
L 567.24 6.772277 
L 567.24 6.772277 
" style="fill:none;stroke:#bf00bf;stroke-linecap:square;"/>
   </g>
   <g id="patch_3">
    <path d="M 3 3 
L 567.24 3 
" style="fill:none;stroke:#000000;stroke-linecap:square;stroke-linejoin:miter;"/>
   </g>
   <g id="patch_4">
    <path d="M 567.24 384 
L 567.24 3 
" style="fill:none;stroke:#000000;stroke-linecap:square;stroke-linejoin:miter;"/>
   </g>
   <g id="patch_5">
    <path d="M 3 384 
L 567.24 384 
" style="fill:none;stroke:#000000;stroke-linecap:square;stroke-linejoin:miter;"/>
   </g>
   <g id="patch_6">
    <path d="M 3 384 
L 3 3 
" style="fill:none;stroke:#000000;stroke-linecap:square;stroke-linejoin:miter;"/>
   </g>
   <g id="matplotlib.axis_1">
    <g id="xtick_1"/>
    <g id="xtick_2">
     <g id="line2d_7">
      <path clip-path="url(#p77d8b2369d)" d="M 69.254589 384 
L 69.254589 3 
" style="fill:none;stroke:#000000;stroke-dasharray:1.000000,3.000000;stroke-dashoffset:0.0;stroke-width:0.5;"/>
     </g>
     <g id="line2d_8">
      <defs>
       <path d="M 0 0 
L 0 -4 
" id="md74f3e1892" style="stroke:#000000;stroke-width:0.5;"/>
      </defs>
      <g>
       <use style="stroke:#000000;stroke-width:0.5;" x="69.2545893472" xlink:href="#md74f3e1892" y="384.0"/>
      </g>
     </g>
     <g id="line2d_9">
      <defs>
       <path d="M 0 0 
L 0 4 
" id="mba4586d6f4" style="stroke:#000000;stroke-width:0.5;"/>
      </defs>
      <g>
       <use style="stroke:#000000;stroke-width:0.5;" x="69.2545893472" xlink:href="#mba4586d6f4" y="3.0"/>
      </g>
     </g>
     <g id="text_1">
      <!-- -6 -->
      <defs>
       <path d="M 33.015625 40.375 
Q 26.375 40.375 22.484375 35.828125 
Q 18.609375 31.296875 18.609375 23.390625 
Q 18.609375 15.53125 22.484375 10.953125 
Q 26.375 6.390625 33.015625 6.390625 
Q 39.65625 6.390625 43.53125 10.953125 
Q 47.40625 15.53125 47.40625 23.390625 
Q 47.40625 31.296875 43.53125 35.828125 
Q 39.65625 40.375 33.015625 40.375 
M 52.59375 71.296875 
L 52.59375 62.3125 
Q 48.875 64.0625 45.09375 64.984375 
Q 41.3125 65.921875 37.59375 65.921875 
Q 27.828125 65.921875 22.671875 59.328125 
Q 17.53125 52.734375 16.796875 39.40625 
Q 19.671875 43.65625 24.015625 45.921875 
Q 28.375 48.1875 33.59375 48.1875 
Q 44.578125 48.1875 50.953125 41.515625 
Q 57.328125 34.859375 57.328125 23.390625 
Q 57.328125 12.15625 50.6875 5.359375 
Q 44.046875 -1.421875 33.015625 -1.421875 
Q 20.359375 -1.421875 13.671875 8.265625 
Q 6.984375 17.96875 6.984375 36.375 
Q 6.984375 53.65625 15.1875 63.9375 
Q 23.390625 74.21875 37.203125 74.21875 
Q 40.921875 74.21875 44.703125 73.484375 
Q 48.484375 72.75 52.59375 71.296875 
" id="BitstreamVeraSans-Roman-36"/>
       <path d="M 4.890625 31.390625 
L 31.203125 31.390625 
L 31.203125 23.390625 
L 4.890625 23.390625 
z
" id="BitstreamVeraSans-Roman-2d"/>
      </defs>
      <g transform="translate(59.2842768472 403.196875)scale(0.2 -0.2)">
       <use xlink:href="#BitstreamVeraSans-Roman-2d"/>
       <use x="36.083984375" xlink:href="#BitstreamVeraSans-Roman-36"/>
      </g>
     </g>
    </g>
    <g id="xtick_3">
     <g id="line2d_10">
      <path clip-path="url(#p77d8b2369d)" d="M 135.652644 384 
L 135.652644 3 
" style="fill:none;stroke:#000000;stroke-dasharray:1.000000,3.000000;stroke-dashoffset:0.0;stroke-width:0.5;"/>
     </g>
     <g id="line2d_11">
      <g>
       <use style="stroke:#000000;stroke-width:0.5;" x="135.652644101" xlink:href="#md74f3e1892" y="384.0"/>
      </g>
     </g>
     <g id="line2d_12">
      <g>
       <use style="stroke:#000000;stroke-width:0.5;" x="135.652644101" xlink:href="#mba4586d6f4" y="3.0"/>
      </g>
     </g>
     <g id="text_2">
      <!-- -4 -->
      <defs>
       <path d="M 37.796875 64.3125 
L 12.890625 25.390625 
L 37.796875 25.390625 
z
M 35.203125 72.90625 
L 47.609375 72.90625 
L 47.609375 25.390625 
L 58.015625 25.390625 
L 58.015625 17.1875 
L 47.609375 17.1875 
L 47.609375 0 
L 37.796875 0 
L 37.796875 17.1875 
L 4.890625 17.1875 
L 4.890625 26.703125 
z
" id="BitstreamVeraSans-Roman-34"/>
      </defs>
      <g transform="translate(125.682331601 403.196875)scale(0.2 -0.2)">
       <use xlink:href="#BitstreamVeraSans-Roman-2d"/>
       <use x="36.083984375" xlink:href="#BitstreamVeraSans-Roman-34"/>
      </g>
     </g>
    </g>
    <g id="xtick_4">
     <g id="line2d_13">
      <path clip-path="url(#p77d8b2369d)" d="M 202.050699 384 
L 202.050699 3 
" style="fill:none;stroke:#000000;stroke-dasharray:1.000000,3.000000;stroke-dashoffset:0.0;stroke-width:0.5;"/>
     </g>
     <g id="line2d_14">
      <g>
       <use style="stroke:#000000;stroke-width:0.5;" x="202.050698855" xlink:href="#md74f3e1892" y="384.0"/>
      </g>
     </g>
     <g id="line2d_15">
      <g>
       <use style="stroke:#000000;stroke-width:0.5;" x="202.050698855" xlink:href="#mba4586d6f4" y="3.0"/>
      </g>
     </g>
     <g id="text_3">
      <!-- -2 -->
      <defs>
       <path d="M 19.1875 8.296875 
L 53.609375 8.296875 
L 53.609375 0 
L 7.328125 0 
L 7.328125 8.296875 
Q 12.9375 14.109375 22.625 23.890625 
Q 32.328125 33.6875 34.8125 36.53125 
Q 39.546875 41.84375 41.421875 45.53125 
Q 43.3125 49.21875 43.3125 52.78125 
Q 43.3125 58.59375 39.234375 62.25 
Q 35.15625 65.921875 28.609375 65.921875 
Q 23.96875 65.921875 18.8125 64.3125 
Q 13.671875 62.703125 7.8125 59.421875 
L 7.8125 69.390625 
Q 13.765625 71.78125 18.9375 73 
Q 24.125 74.21875 28.421875 74.21875 
Q 39.75 74.21875 46.484375 68.546875 
Q 53.21875 62.890625 53.21875 53.421875 
Q 53.21875 48.921875 51.53125 44.890625 
Q 49.859375 40.875 45.40625 35.40625 
Q 44.1875 33.984375 37.640625 27.21875 
Q 31.109375 20.453125 19.1875 8.296875 
" id="BitstreamVeraSans-Roman-32"/>
      </defs>
      <g transform="translate(192.080386355 403.196875)scale(0.2 -0.2)">
       <use xlink:href="#BitstreamVeraSans-Roman-2d"/>
       <use x="36.083984375" xlink:href="#BitstreamVeraSans-Roman-32"/>
      </g>
     </g>
    </g>
    <g id="xtick_5">
     <g id="line2d_16">
      <path clip-path="url(#p77d8b2369d)" d="M 268.448754 384 
L 268.448754 3 
" style="fill:none;stroke:#000000;stroke-dasharray:1.000000,3.000000;stroke-dashoffset:0.0;stroke-width:0.5;"/>
     </g>
     <g id="line2d_17">
      <g>
       <use style="stroke:#000000;stroke-width:0.5;" x="268.448753608" xlink:href="#md74f3e1892" y="384.0"/>
      </g>
     </g>
     <g id="line2d_18">
      <g>
       <use style="stroke:#000000;stroke-width:0.5;" x="268.448753608" xlink:href="#mba4586d6f4" y="3.0"/>
      </g>
     </g>
     <g id="text_4">
      <!-- 0 -->
      <defs>
       <path d="M 31.78125 66.40625 
Q 24.171875 66.40625 20.328125 58.90625 
Q 16.5 51.421875 16.5 36.375 
Q 16.5 21.390625 20.328125 13.890625 
Q 24.171875 6.390625 31.78125 6.390625 
Q 39.453125 6.390625 43.28125 13.890625 
Q 47.125 21.390625 47.125 36.375 
Q 47.125 51.421875 43.28125 58.90625 
Q 39.453125 66.40625 31.78125 66.40625 
M 31.78125 74.21875 
Q 44.046875 74.21875 50.515625 64.515625 
Q 56.984375 54.828125 56.984375 36.375 
Q 56.984375 17.96875 50.515625 8.265625 
Q 44.046875 -1.421875 31.78125 -1.421875 
Q 19.53125 -1.421875 13.0625 8.265625 
Q 6.59375 17.96875 6.59375 36.375 
Q 6.59375 54.828125 13.0625 64.515625 
Q 19.53125 74.21875 31.78125 74.21875 
" id="BitstreamVeraSans-Roman-30"/>
      </defs>
      <g transform="translate(262.086253608 403.196875)scale(0.2 -0.2)">
       <use xlink:href="#BitstreamVeraSans-Roman-30"/>
      </g>
     </g>
    </g>
    <g id="xtick_6">
     <g id="line2d_19">
      <path clip-path="url(#p77d8b2369d)" d="M 334.846808 384 
L 334.846808 3 
" style="fill:none;stroke:#000000;stroke-dasharray:1.000000,3.000000;stroke-dashoffset:0.0;stroke-width:0.5;"/>
     </g>
     <g id="line2d_20">
      <g>
       <use style="stroke:#000000;stroke-width:0.5;" x="334.846808362" xlink:href="#md74f3e1892" y="384.0"/>
      </g>
     </g>
     <g id="line2d_21">
      <g>
       <use style="stroke:#000000;stroke-width:0.5;" x="334.846808362" xlink:href="#mba4586d6f4" y="3.0"/>
      </g>
     </g>
     <g id="text_5">
      <!-- 2 -->
      <g transform="translate(328.484308362 403.196875)scale(0.2 -0.2)">
       <use xlink:href="#BitstreamVeraSans-Roman-32"/>
      </g>
     </g>
    </g>
    <g id="xtick_7">
     <g id="line2d_22">
      <path clip-path="url(#p77d8b2369d)" d="M 401.244863 384 
L 401.244863 3 
" style="fill:none;stroke:#000000;stroke-dasharray:1.000000,3.000000;stroke-dashoffset:0.0;stroke-width:0.5;"/>
     </g>
     <g id="line2d_23">
      <g>
       <use style="stroke:#000000;stroke-width:0.5;" x="401.244863116" xlink:href="#md74f3e1892" y="384.0"/>
      </g>
     </g>
     <g id="line2d_24">
      <g>
       <use style="stroke:#000000;stroke-width:0.5;" x="401.244863116" xlink:href="#mba4586d6f4" y="3.0"/>
      </g>
     </g>
     <g id="text_6">
      <!-- 4 -->
      <g transform="translate(394.882363116 403.196875)scale(0.2 -0.2)">
       <use xlink:href="#BitstreamVeraSans-Roman-34"/>
      </g>
     </g>
    </g>
    <g id="xtick_8">
     <g id="line2d_25">
      <path clip-path="url(#p77d8b2369d)" d="M 467.642918 384 
L 467.642918 3 
" style="fill:none;stroke:#000000;stroke-dasharray:1.000000,3.000000;stroke-dashoffset:0.0;stroke-width:0.5;"/>
     </g>
     <g id="line2d_26">
      <g>
       <use style="stroke:#000000;stroke-width:0.5;" x="467.642917869" xlink:href="#md74f3e1892" y="384.0"/>
      </g>
     </g>
     <g id="line2d_27">
      <g>
       <use style="stroke:#000000;stroke-width:0.5;" x="467.642917869" xlink:href="#mba4586d6f4" y="3.0"/>
      </g>
     </g>
     <g id="text_7">
      <!-- 6 -->
      <g transform="translate(461.280417869 403.196875)scale(0.2 -0.2)">
       <use xlink:href="#BitstreamVeraSans-Roman-36"/>
      </g>
     </g>
    </g>
    <g id="xtick_9">
     <g id="line2d_28">
      <path clip-path="url(#p77d8b2369d)" d="M 534.040973 384 
L 534.040973 3 
" style="fill:none;stroke:#000000;stroke-dasharray:1.000000,3.000000;stroke-dashoffset:0.0;stroke-width:0.5;"/>
     </g>
     <g id="line2d_29">
      <g>
       <use style="stroke:#000000;stroke-width:0.5;" x="534.040972623" xlink:href="#md74f3e1892" y="384.0"/>
      </g>
     </g>
     <g id="line2d_30">
      <g>
       <use style="stroke:#000000;stroke-width:0.5;" x="534.040972623" xlink:href="#mba4586d6f4" y="3.0"/>
      </g>
     </g>
     <g id="text_8">
      <!-- 8 -->
      <defs>
       <path d="M 31.78125 34.625 
Q 24.75 34.625 20.71875 30.859375 
Q 16.703125 27.09375 16.703125 20.515625 
Q 16.703125 13.921875 20.71875 10.15625 
Q 24.75 6.390625 31.78125 6.390625 
Q 38.8125 6.390625 42.859375 10.171875 
Q 46.921875 13.96875 46.921875 20.515625 
Q 46.921875 27.09375 42.890625 30.859375 
Q 38.875 34.625 31.78125 34.625 
M 21.921875 38.8125 
Q 15.578125 40.375 12.03125 44.71875 
Q 8.5 49.078125 8.5 55.328125 
Q 8.5 64.0625 14.71875 69.140625 
Q 20.953125 74.21875 31.78125 74.21875 
Q 42.671875 74.21875 48.875 69.140625 
Q 55.078125 64.0625 55.078125 55.328125 
Q 55.078125 49.078125 51.53125 44.71875 
Q 48 40.375 41.703125 38.8125 
Q 48.828125 37.15625 52.796875 32.3125 
Q 56.78125 27.484375 56.78125 20.515625 
Q 56.78125 9.90625 50.3125 4.234375 
Q 43.84375 -1.421875 31.78125 -1.421875 
Q 19.734375 -1.421875 13.25 4.234375 
Q 6.78125 9.90625 6.78125 20.515625 
Q 6.78125 27.484375 10.78125 32.3125 
Q 14.796875 37.15625 21.921875 38.8125 
M 18.3125 54.390625 
Q 18.3125 48.734375 21.84375 45.5625 
Q 25.390625 42.390625 31.78125 42.390625 
Q 38.140625 42.390625 41.71875 45.5625 
Q 45.3125 48.734375 45.3125 54.390625 
Q 45.3125 60.0625 41.71875 63.234375 
Q 38.140625 66.40625 31.78125 66.40625 
Q 25.390625 66.40625 21.84375 63.234375 
Q 18.3125 60.0625 18.3125 54.390625 
" id="BitstreamVeraSans-Roman-38"/>
      </defs>
      <g transform="translate(527.678472623 403.196875)scale(0.2 -0.2)">
       <use xlink:href="#BitstreamVeraSans-Roman-38"/>
      </g>
     </g>
    </g>
    <g id="xtick_10"/>
    <g id="xtick_11">
     <g id="line2d_31">
      <defs>
       <path d="M 0 0 
L 0 -2 
" id="mfedd6996b7" style="stroke:#000000;stroke-width:0.5;"/>
      </defs>
      <g>
       <use style="stroke:#000000;stroke-width:0.5;" x="69.2545893472" xlink:href="#mfedd6996b7" y="384.0"/>
      </g>
     </g>
     <g id="line2d_32">
      <defs>
       <path d="M 0 0 
L 0 2 
" id="m9632f6ec47" style="stroke:#000000;stroke-width:0.5;"/>
      </defs>
      <g>
       <use style="stroke:#000000;stroke-width:0.5;" x="69.2545893472" xlink:href="#m9632f6ec47" y="3.0"/>
      </g>
     </g>
    </g>
    <g id="xtick_12">
     <g id="line2d_33">
      <g>
       <use style="stroke:#000000;stroke-width:0.5;" x="135.652644101" xlink:href="#mfedd6996b7" y="384.0"/>
      </g>
     </g>
     <g id="line2d_34">
      <g>
       <use style="stroke:#000000;stroke-width:0.5;" x="135.652644101" xlink:href="#m9632f6ec47" y="3.0"/>
      </g>
     </g>
    </g>
    <g id="xtick_13">
     <g id="line2d_35">
      <g>
       <use style="stroke:#000000;stroke-width:0.5;" x="202.050698855" xlink:href="#mfedd6996b7" y="384.0"/>
      </g>
     </g>
     <g id="line2d_36">
      <g>
       <use style="stroke:#000000;stroke-width:0.5;" x="202.050698855" xlink:href="#m9632f6ec47" y="3.0"/>
      </g>
     </g>
    </g>
    <g id="xtick_14">
     <g id="line2d_37">
      <g>
       <use style="stroke:#000000;stroke-width:0.5;" x="268.448753608" xlink:href="#mfedd6996b7" y="384.0"/>
      </g>
     </g>
     <g id="line2d_38">
      <g>
       <use style="stroke:#000000;stroke-width:0.5;" x="268.448753608" xlink:href="#m9632f6ec47" y="3.0"/>
      </g>
     </g>
    </g>
    <g id="xtick_15">
     <g id="line2d_39">
      <g>
       <use style="stroke:#000000;stroke-width:0.5;" x="334.846808362" xlink:href="#mfedd6996b7" y="384.0"/>
      </g>
     </g>
     <g id="line2d_40">
      <g>
       <use style="stroke:#000000;stroke-width:0.5;" x="334.846808362" xlink:href="#m9632f6ec47" y="3.0"/>
      </g>
     </g>
    </g>
    <g id="xtick_16">
     <g id="line2d_41">
      <g>
       <use style="stroke:#000000;stroke-width:0.5;" x="401.244863116" xlink:href="#mfedd6996b7" y="384.0"/>
      </g>
     </g>
     <g id="line2d_42">
      <g>
       <use style="stroke:#000000;stroke-width:0.5;" x="401.244863116" xlink:href="#m9632f6ec47" y="3.0"/>
      </g>
     </g>
    </g>
    <g id="xtick_17">
     <g id="line2d_43">
      <g>
       <use style="stroke:#000000;stroke-width:0.5;" x="467.642917869" xlink:href="#mfedd6996b7" y="384.0"/>
      </g>
     </g>
     <g id="line2d_44">
      <g>
       <use style="stroke:#000000;stroke-width:0.5;" x="467.642917869" xlink:href="#m9632f6ec47" y="3.0"/>
      </g>
     </g>
    </g>
    <g id="xtick_18">
     <g id="line2d_45">
      <g>
       <use style="stroke:#000000;stroke-width:0.5;" x="534.040972623" xlink:href="#mfedd6996b7" y="384.0"/>
      </g>
     </g>
     <g id="line2d_46">
      <g>
       <use style="stroke:#000000;stroke-width:0.5;" x="534.040972623" xlink:href="#m9632f6ec47" y="3.0"/>
      </g>
     </g>
    </g>
    <g id="text_9">
     <!-- log10 of Df -->
     <defs>
      <path id="BitstreamVeraSans-Roman-20"/>
      <path d="M 12.40625 8.296875 
L 28.515625 8.296875 
L 28.515625 63.921875 
L 10.984375 60.40625 
L 10.984375 69.390625 
L 28.421875 72.90625 
L 38.28125 72.90625 
L 38.28125 8.296875 
L 54.390625 8.296875 
L 54.390625 0 
L 12.40625 0 
z
" id="BitstreamVeraSans-Roman-31"/>
      <path d="M 30.609375 48.390625 
Q 23.390625 48.390625 19.1875 42.75 
Q 14.984375 37.109375 14.984375 27.296875 
Q 14.984375 17.484375 19.15625 11.84375 
Q 23.34375 6.203125 30.609375 6.203125 
Q 37.796875 6.203125 41.984375 11.859375 
Q 46.1875 17.53125 46.1875 27.296875 
Q 46.1875 37.015625 41.984375 42.703125 
Q 37.796875 48.390625 30.609375 48.390625 
M 30.609375 56 
Q 42.328125 56 49.015625 48.375 
Q 55.71875 40.765625 55.71875 27.296875 
Q 55.71875 13.875 49.015625 6.21875 
Q 42.328125 -1.421875 30.609375 -1.421875 
Q 18.84375 -1.421875 12.171875 6.21875 
Q 5.515625 13.875 5.515625 27.296875 
Q 5.515625 40.765625 12.171875 48.375 
Q 18.84375 56 30.609375 56 
" id="BitstreamVeraSans-Roman-6f"/>
      <path d="M 9.421875 75.984375 
L 18.40625 75.984375 
L 18.40625 0 
L 9.421875 0 
z
" id="BitstreamVeraSans-Roman-6c"/>
      <path d="M 19.671875 64.796875 
L 19.671875 8.109375 
L 31.59375 8.109375 
Q 46.6875 8.109375 53.6875 14.9375 
Q 60.6875 21.78125 60.6875 36.53125 
Q 60.6875 51.171875 53.6875 57.984375 
Q 46.6875 64.796875 31.59375 64.796875 
z
M 9.8125 72.90625 
L 30.078125 72.90625 
Q 51.265625 72.90625 61.171875 64.09375 
Q 71.09375 55.28125 71.09375 36.53125 
Q 71.09375 17.671875 61.125 8.828125 
Q 51.171875 0 30.078125 0 
L 9.8125 0 
z
" id="BitstreamVeraSans-Roman-44"/>
      <path d="M 45.40625 27.984375 
Q 45.40625 37.75 41.375 43.109375 
Q 37.359375 48.484375 30.078125 48.484375 
Q 22.859375 48.484375 18.828125 43.109375 
Q 14.796875 37.75 14.796875 27.984375 
Q 14.796875 18.265625 18.828125 12.890625 
Q 22.859375 7.515625 30.078125 7.515625 
Q 37.359375 7.515625 41.375 12.890625 
Q 45.40625 18.265625 45.40625 27.984375 
M 54.390625 6.78125 
Q 54.390625 -7.171875 48.1875 -13.984375 
Q 42 -20.796875 29.203125 -20.796875 
Q 24.46875 -20.796875 20.265625 -20.09375 
Q 16.0625 -19.390625 12.109375 -17.921875 
L 12.109375 -9.1875 
Q 16.0625 -11.328125 19.921875 -12.34375 
Q 23.78125 -13.375 27.78125 -13.375 
Q 36.625 -13.375 41.015625 -8.765625 
Q 45.40625 -4.15625 45.40625 5.171875 
L 45.40625 9.625 
Q 42.625 4.78125 38.28125 2.390625 
Q 33.9375 0 27.875 0 
Q 17.828125 0 11.671875 7.65625 
Q 5.515625 15.328125 5.515625 27.984375 
Q 5.515625 40.671875 11.671875 48.328125 
Q 17.828125 56 27.875 56 
Q 33.9375 56 38.28125 53.609375 
Q 42.625 51.21875 45.40625 46.390625 
L 45.40625 54.6875 
L 54.390625 54.6875 
z
" id="BitstreamVeraSans-Roman-67"/>
      <path d="M 37.109375 75.984375 
L 37.109375 68.5 
L 28.515625 68.5 
Q 23.6875 68.5 21.796875 66.546875 
Q 19.921875 64.59375 19.921875 59.515625 
L 19.921875 54.6875 
L 34.71875 54.6875 
L 34.71875 47.703125 
L 19.921875 47.703125 
L 19.921875 0 
L 10.890625 0 
L 10.890625 47.703125 
L 2.296875 47.703125 
L 2.296875 54.6875 
L 10.890625 54.6875 
L 10.890625 58.5 
Q 10.890625 67.625 15.140625 71.796875 
Q 19.390625 75.984375 28.609375 75.984375 
z
" id="BitstreamVeraSans-Roman-66"/>
     </defs>
     <g transform="translate(229.9340625 427.553125)scale(0.2 -0.2)">
      <use xlink:href="#BitstreamVeraSans-Roman-6c"/>
      <use x="27.783203125" xlink:href="#BitstreamVeraSans-Roman-6f"/>
      <use x="88.96484375" xlink:href="#BitstreamVeraSans-Roman-67"/>
      <use x="152.44140625" xlink:href="#BitstreamVeraSans-Roman-31"/>
      <use x="216.064453125" xlink:href="#BitstreamVeraSans-Roman-30"/>
      <use x="279.6875" xlink:href="#BitstreamVeraSans-Roman-20"/>
      <use x="311.474609375" xlink:href="#BitstreamVeraSans-Roman-6f"/>
      <use x="372.65625" xlink:href="#BitstreamVeraSans-Roman-66"/>
      <use x="407.861328125" xlink:href="#BitstreamVeraSans-Roman-20"/>
      <use x="439.6484375" xlink:href="#BitstreamVeraSans-Roman-44"/>
      <use x="516.650390625" xlink:href="#BitstreamVeraSans-Roman-66"/>
     </g>
    </g>
   </g>
   <g id="matplotlib.axis_2">
    <g id="ytick_1">
     <g id="line2d_47">
      <path clip-path="url(#p77d8b2369d)" d="M 3 384 
L 567.24 384 
" style="fill:none;stroke:#000000;stroke-dasharray:1.000000,3.000000;stroke-dashoffset:0.0;stroke-width:0.5;"/>
     </g>
     <g id="line2d_48">
      <defs>
       <path d="M 0 0 
L 4 0 
" id="m93652b3922" style="stroke:#000000;stroke-width:0.5;"/>
      </defs>
      <g>
       <use style="stroke:#000000;stroke-width:0.5;" x="3.0" xlink:href="#m93652b3922" y="384.0"/>
      </g>
     </g>
     <g id="line2d_49">
      <defs>
       <path d="M 0 0 
L -4 0 
" id="mf6c5f887f4" style="stroke:#000000;stroke-width:0.5;"/>
      </defs>
      <g>
       <use style="stroke:#000000;stroke-width:0.5;" x="567.24" xlink:href="#mf6c5f887f4" y="384.0"/>
      </g>
     </g>
    </g>
    <g id="ytick_2">
     <g id="line2d_50">
      <path clip-path="url(#p77d8b2369d)" d="M 3 308.554455 
L 567.24 308.554455 
" style="fill:none;stroke:#000000;stroke-dasharray:1.000000,3.000000;stroke-dashoffset:0.0;stroke-width:0.5;"/>
     </g>
     <g id="line2d_51">
      <g>
       <use style="stroke:#000000;stroke-width:0.5;" x="3.0" xlink:href="#m93652b3922" y="308.554455446"/>
      </g>
     </g>
     <g id="line2d_52">
      <g>
       <use style="stroke:#000000;stroke-width:0.5;" x="567.24" xlink:href="#mf6c5f887f4" y="308.554455446"/>
      </g>
     </g>
    </g>
    <g id="ytick_3">
     <g id="line2d_53">
      <path clip-path="url(#p77d8b2369d)" d="M 3 233.108911 
L 567.24 233.108911 
" style="fill:none;stroke:#000000;stroke-dasharray:1.000000,3.000000;stroke-dashoffset:0.0;stroke-width:0.5;"/>
     </g>
     <g id="line2d_54">
      <g>
       <use style="stroke:#000000;stroke-width:0.5;" x="3.0" xlink:href="#m93652b3922" y="233.108910891"/>
      </g>
     </g>
     <g id="line2d_55">
      <g>
       <use style="stroke:#000000;stroke-width:0.5;" x="567.24" xlink:href="#mf6c5f887f4" y="233.108910891"/>
      </g>
     </g>
    </g>
    <g id="ytick_4">
     <g id="line2d_56">
      <path clip-path="url(#p77d8b2369d)" d="M 3 157.663366 
L 567.24 157.663366 
" style="fill:none;stroke:#000000;stroke-dasharray:1.000000,3.000000;stroke-dashoffset:0.0;stroke-width:0.5;"/>
     </g>
     <g id="line2d_57">
      <g>
       <use style="stroke:#000000;stroke-width:0.5;" x="3.0" xlink:href="#m93652b3922" y="157.663366337"/>
      </g>
     </g>
     <g id="line2d_58">
      <g>
       <use style="stroke:#000000;stroke-width:0.5;" x="567.24" xlink:href="#mf6c5f887f4" y="157.663366337"/>
      </g>
     </g>
    </g>
    <g id="ytick_5">
     <g id="line2d_59">
      <path clip-path="url(#p77d8b2369d)" d="M 3 82.217822 
L 567.24 82.217822 
" style="fill:none;stroke:#000000;stroke-dasharray:1.000000,3.000000;stroke-dashoffset:0.0;stroke-width:0.5;"/>
     </g>
     <g id="line2d_60">
      <g>
       <use style="stroke:#000000;stroke-width:0.5;" x="3.0" xlink:href="#m93652b3922" y="82.2178217822"/>
      </g>
     </g>
     <g id="line2d_61">
      <g>
       <use style="stroke:#000000;stroke-width:0.5;" x="567.24" xlink:href="#mf6c5f887f4" y="82.2178217822"/>
      </g>
     </g>
    </g>
    <g id="ytick_6">
     <g id="line2d_62">
      <path clip-path="url(#p77d8b2369d)" d="M 3 6.772277 
L 567.24 6.772277 
" style="fill:none;stroke:#000000;stroke-dasharray:1.000000,3.000000;stroke-dashoffset:0.0;stroke-width:0.5;"/>
     </g>
     <g id="line2d_63">
      <g>
       <use style="stroke:#000000;stroke-width:0.5;" x="3.0" xlink:href="#m93652b3922" y="6.77227722772"/>
      </g>
     </g>
     <g id="line2d_64">
      <g>
       <use style="stroke:#000000;stroke-width:0.5;" x="567.24" xlink:href="#mf6c5f887f4" y="6.77227722772"/>
      </g>
     </g>
    </g>
   </g>
   <g id="text_10">
    <!-- {f15-f19}, 20-D -->
    <defs>
     <path d="M 12.5 -9.28125 
L 15.921875 -9.28125 
Q 22.75 -9.28125 24.828125 -7.171875 
Q 26.90625 -5.078125 26.90625 1.90625 
L 26.90625 14.015625 
Q 26.90625 21.625 29.09375 25.09375 
Q 31.296875 28.5625 36.71875 29.890625 
Q 31.296875 31.109375 29.09375 34.5625 
Q 26.90625 38.03125 26.90625 45.703125 
L 26.90625 57.8125 
Q 26.90625 64.75 24.828125 66.875 
Q 22.75 69 15.921875 69 
L 12.5 69 
L 12.5 75.984375 
L 15.578125 75.984375 
Q 27.734375 75.984375 31.8125 72.390625 
Q 35.890625 68.796875 35.890625 58.015625 
L 35.890625 46.296875 
Q 35.890625 39.015625 38.515625 36.203125 
Q 41.15625 33.40625 48.09375 33.40625 
L 51.125 33.40625 
L 51.125 26.421875 
L 48.09375 26.421875 
Q 41.15625 26.421875 38.515625 23.578125 
Q 35.890625 20.75 35.890625 13.375 
L 35.890625 1.703125 
Q 35.890625 -9.078125 31.8125 -12.6875 
Q 27.734375 -16.3125 15.578125 -16.3125 
L 12.5 -16.3125 
z
" id="BitstreamVeraSans-Roman-7d"/>
     <path d="M 10.984375 1.515625 
L 10.984375 10.5 
Q 14.703125 8.734375 18.5 7.8125 
Q 22.3125 6.890625 25.984375 6.890625 
Q 35.75 6.890625 40.890625 13.453125 
Q 46.046875 20.015625 46.78125 33.40625 
Q 43.953125 29.203125 39.59375 26.953125 
Q 35.25 24.703125 29.984375 24.703125 
Q 19.046875 24.703125 12.671875 31.3125 
Q 6.296875 37.9375 6.296875 49.421875 
Q 6.296875 60.640625 12.9375 67.421875 
Q 19.578125 74.21875 30.609375 74.21875 
Q 43.265625 74.21875 49.921875 64.515625 
Q 56.59375 54.828125 56.59375 36.375 
Q 56.59375 19.140625 48.40625 8.859375 
Q 40.234375 -1.421875 26.421875 -1.421875 
Q 22.703125 -1.421875 18.890625 -0.6875 
Q 15.09375 0.046875 10.984375 1.515625 
M 30.609375 32.421875 
Q 37.25 32.421875 41.125 36.953125 
Q 45.015625 41.5 45.015625 49.421875 
Q 45.015625 57.28125 41.125 61.84375 
Q 37.25 66.40625 30.609375 66.40625 
Q 23.96875 66.40625 20.09375 61.84375 
Q 16.21875 57.28125 16.21875 49.421875 
Q 16.21875 41.5 20.09375 36.953125 
Q 23.96875 32.421875 30.609375 32.421875 
" id="BitstreamVeraSans-Roman-39"/>
     <path d="M 51.125 -9.28125 
L 51.125 -16.3125 
L 48.09375 -16.3125 
Q 35.9375 -16.3125 31.8125 -12.6875 
Q 27.6875 -9.078125 27.6875 1.703125 
L 27.6875 13.375 
Q 27.6875 20.75 25.046875 23.578125 
Q 22.40625 26.421875 15.484375 26.421875 
L 12.5 26.421875 
L 12.5 33.40625 
L 15.484375 33.40625 
Q 22.46875 33.40625 25.078125 36.203125 
Q 27.6875 39.015625 27.6875 46.296875 
L 27.6875 58.015625 
Q 27.6875 68.796875 31.8125 72.390625 
Q 35.9375 75.984375 48.09375 75.984375 
L 51.125 75.984375 
L 51.125 69 
L 47.796875 69 
Q 40.921875 69 38.8125 66.84375 
Q 36.71875 64.703125 36.71875 57.8125 
L 36.71875 45.703125 
Q 36.71875 38.03125 34.5 34.5625 
Q 32.28125 31.109375 26.90625 29.890625 
Q 32.328125 28.5625 34.515625 25.09375 
Q 36.71875 21.625 36.71875 14.015625 
L 36.71875 1.90625 
Q 36.71875 -4.984375 38.8125 -7.125 
Q 40.921875 -9.28125 47.796875 -9.28125 
z
" id="BitstreamVeraSans-Roman-7b"/>
     <path d="M 11.71875 12.40625 
L 22.015625 12.40625 
L 22.015625 4 
L 14.015625 -11.625 
L 7.71875 -11.625 
L 11.71875 4 
z
" id="BitstreamVeraSans-Roman-2c"/>
     <path d="M 10.796875 72.90625 
L 49.515625 72.90625 
L 49.515625 64.59375 
L 19.828125 64.59375 
L 19.828125 46.734375 
Q 21.96875 47.46875 24.109375 47.828125 
Q 26.265625 48.1875 28.421875 48.1875 
Q 40.625 48.1875 47.75 41.5 
Q 54.890625 34.8125 54.890625 23.390625 
Q 54.890625 11.625 47.5625 5.09375 
Q 40.234375 -1.421875 26.90625 -1.421875 
Q 22.3125 -1.421875 17.546875 -0.640625 
Q 12.796875 0.140625 7.71875 1.703125 
L 7.71875 11.625 
Q 12.109375 9.234375 16.796875 8.0625 
Q 21.484375 6.890625 26.703125 6.890625 
Q 35.15625 6.890625 40.078125 11.328125 
Q 45.015625 15.765625 45.015625 23.390625 
Q 45.015625 31 40.078125 35.4375 
Q 35.15625 39.890625 26.703125 39.890625 
Q 22.75 39.890625 18.8125 39.015625 
Q 14.890625 38.140625 10.796875 36.28125 
z
" id="BitstreamVeraSans-Roman-35"/>
    </defs>
    <g transform="translate(397.5302 376.38)scale(0.2 -0.2)">
     <use xlink:href="#BitstreamVeraSans-Roman-7b"/>
     <use x="63.623046875" xlink:href="#BitstreamVeraSans-Roman-66"/>
     <use x="98.828125" xlink:href="#BitstreamVeraSans-Roman-31"/>
     <use x="162.451171875" xlink:href="#BitstreamVeraSans-Roman-35"/>
     <use x="226.07421875" xlink:href="#BitstreamVeraSans-Roman-2d"/>
     <use x="262.158203125" xlink:href="#BitstreamVeraSans-Roman-66"/>
     <use x="297.36328125" xlink:href="#BitstreamVeraSans-Roman-31"/>
     <use x="360.986328125" xlink:href="#BitstreamVeraSans-Roman-39"/>
     <use x="424.609375" xlink:href="#BitstreamVeraSans-Roman-7d"/>
     <use x="488.232421875" xlink:href="#BitstreamVeraSans-Roman-2c"/>
     <use x="520.01953125" xlink:href="#BitstreamVeraSans-Roman-20"/>
     <use x="551.806640625" xlink:href="#BitstreamVeraSans-Roman-32"/>
     <use x="615.4296875" xlink:href="#BitstreamVeraSans-Roman-30"/>
     <use x="679.052734375" xlink:href="#BitstreamVeraSans-Roman-2d"/>
     <use x="715.13671875" xlink:href="#BitstreamVeraSans-Roman-44"/>
    </g>
   </g>
   <g id="text_11">
    <!-- v2.2.1.10 -->
    <defs>
     <path d="M 2.984375 54.6875 
L 12.5 54.6875 
L 29.59375 8.796875 
L 46.6875 54.6875 
L 56.203125 54.6875 
L 35.6875 0 
L 23.484375 0 
z
" id="BitstreamVeraSans-Roman-76"/>
     <path d="M 10.6875 12.40625 
L 21 12.40625 
L 21 0 
L 10.6875 0 
z
" id="BitstreamVeraSans-Roman-2e"/>
    </defs>
    <g style="fill:#808080;" transform="translate(261.4871875 378.1103125)scale(0.1 -0.1)">
     <use xlink:href="#BitstreamVeraSans-Roman-76"/>
     <use x="59.1796875" xlink:href="#BitstreamVeraSans-Roman-32"/>
     <use x="122.802734375" xlink:href="#BitstreamVeraSans-Roman-2e"/>
     <use x="154.58984375" xlink:href="#BitstreamVeraSans-Roman-32"/>
     <use x="218.212890625" xlink:href="#BitstreamVeraSans-Roman-2e"/>
     <use x="250.0" xlink:href="#BitstreamVeraSans-Roman-31"/>
     <use x="313.623046875" xlink:href="#BitstreamVeraSans-Roman-2e"/>
     <use x="345.41015625" xlink:href="#BitstreamVeraSans-Roman-31"/>
     <use x="409.033203125" xlink:href="#BitstreamVeraSans-Roman-30"/>
    </g>
   </g>
  </g>
 </g>
 <defs>
  <clipPath id="p77d8b2369d">
   <rect height="381.0" width="564.24" x="3.0" y="3.0"/>
  </clipPath>
 </defs>
</svg>
