<?xml version="1.0" encoding="utf-8" standalone="no"?>
<!DOCTYPE svg PUBLIC "-//W3C//DTD SVG 1.1//EN"
  "http://www.w3.org/Graphics/SVG/1.1/DTD/svg11.dtd">
<!-- Created with matplotlib (http://matplotlib.org/) -->
<svg height="432pt" version="1.1" viewBox="0 0 576 432" width="576pt" xmlns="http://www.w3.org/2000/svg" xmlns:xlink="http://www.w3.org/1999/xlink">
 <defs>
  <style type="text/css">
*{stroke-linecap:butt;stroke-linejoin:round;stroke-miterlimit:100000;}
  </style>
 </defs>
 <g id="figure_1">
  <g id="patch_1">
   <path d="M 0 432 
L 576 432 
L 576 0 
L 0 0 
z
" style="fill:#ffffff;"/>
  </g>
  <g id="axes_1">
   <g id="patch_2">
    <path d="M 3 384 
L 567.24 384 
L 567.24 3 
L 3 3 
z
" style="fill:#ffffff;"/>
   </g>
   <g id="line2d_1">
    <path clip-path="url(#pd6b0509a87)" d="M 285.517552 384 
L 285.517552 378.970297 
L 285.517552 378.970297 
L 285.517552 378.970297 
L 285.538026 378.970297 
L 285.538026 373.940594 
L 286.132391 373.940594 
L 286.132391 368.910891 
L 288.441743 368.910891 
L 288.441743 363.881188 
L 288.703025 363.881188 
L 288.703025 358.851485 
L 291.058142 358.851485 
L 291.058142 353.821782 
L 291.268814 353.821782 
L 291.268814 348.792079 
L 292.657259 348.792079 
L 292.657259 343.762376 
L 296.184725 343.762376 
L 296.184725 338.732673 
L 296.824823 338.732673 
L 296.824823 333.70297 
L 300.111837 333.70297 
L 300.111837 328.673267 
L 301.558099 328.673267 
L 301.558099 323.643564 
L 302.408721 323.643564 
L 302.408721 318.613861 
L 303.34671 318.613861 
L 303.34671 313.584158 
L 305.416114 313.584158 
L 305.416114 308.554455 
L 307.757645 308.554455 
L 307.757645 303.524752 
L 308.072027 303.524752 
L 308.072027 298.49505 
L 309.295041 298.49505 
L 309.295041 293.465347 
L 310.49462 293.465347 
L 310.49462 288.435644 
L 313.495249 288.435644 
L 313.495249 283.405941 
L 314.395112 283.405941 
L 314.395112 278.376238 
L 315.011215 278.376238 
L 315.011215 273.346535 
L 317.121242 273.346535 
L 317.121242 268.316832 
L 317.574745 268.316832 
L 317.574745 263.287129 
L 323.148893 263.287129 
L 323.148893 258.257426 
L 325.163615 258.257426 
L 325.163615 253.227723 
L 325.31176 253.227723 
L 325.31176 248.19802 
L 325.457066 248.19802 
L 325.457066 243.168317 
L 326.003268 243.168317 
L 326.003268 238.138614 
L 326.395665 238.138614 
L 326.395665 233.108911 
L 326.636845 233.108911 
L 326.636845 228.079208 
L 327.293138 228.079208 
L 327.384564 212.990099 
L 327.759427 212.990099 
L 327.759427 207.960396 
L 328.085843 207.960396 
L 328.085843 202.930693 
L 328.48188 202.930693 
L 328.553518 187.841584 
L 329.096491 187.841584 
L 329.096491 182.811881 
L 329.325423 182.811881 
L 329.366763 167.722772 
L 329.462731 167.722772 
L 329.542308 157.663366 
L 329.576238 157.663366 
L 329.65185 147.60396 
L 329.903933 147.60396 
L 329.985663 137.544554 
L 330.132909 137.544554 
L 330.132909 132.514851 
L 331.914573 132.514851 
L 331.914573 127.485149 
L 332.988452 127.485149 
L 332.988452 122.455446 
L 339.899694 122.455446 
L 339.970038 112.39604 
L 340.048462 112.39604 
L 340.048462 107.366337 
L 340.686513 107.366337 
L 340.697385 92.277228 
L 340.919127 92.277228 
L 340.987432 82.217822 
L 341.205065 82.217822 
L 341.205065 77.188119 
L 341.625228 77.188119 
L 341.631267 67.128713 
L 342.122347 67.128713 
L 342.122347 62.09901 
L 342.702373 62.09901 
L 342.786483 52.039604 
L 342.946575 52.039604 
L 342.946575 47.009901 
L 349.485362 47.009901 
L 349.485362 41.980198 
L 351.477204 41.980198 
L 351.477204 36.950495 
L 355.669178 36.950495 
L 355.775085 26.891089 
L 363.647706 26.891089 
L 363.647706 21.861386 
L 368.028432 21.861386 
L 368.028432 16.831683 
L 376.17938 16.831683 
L 376.263569 6.772277 
L 376.263569 6.772277 
L 567.24 6.772277 
L 567.24 6.772277 
" style="fill:none;stroke:#ff0000;stroke-linecap:square;stroke-width:3.0;"/>
   </g>
   <g id="line2d_2">
    <path clip-path="url(#pd6b0509a87)" d="M 300.656841 384 
L 300.656841 378.970297 
L 301.187283 378.970297 
L 301.187283 373.940594 
L 302.589182 373.940594 
L 302.589182 368.910891 
L 303.562492 368.910891 
L 303.562492 363.881188 
L 304.429 363.881188 
L 304.429 358.851485 
L 306.583675 358.851485 
L 306.583675 353.821782 
L 306.805731 353.821782 
L 306.805731 348.792079 
L 307.435948 348.792079 
L 307.435948 343.762376 
L 308.131444 343.762376 
L 308.131444 338.732673 
L 309.872543 338.732673 
L 309.872543 333.70297 
L 310.192529 333.70297 
L 310.192529 328.673267 
L 311.622122 328.673267 
L 311.622122 323.643564 
L 313.00896 323.643564 
L 313.00896 318.613861 
L 315.767738 318.613861 
L 315.767738 313.584158 
L 316.588179 313.584158 
L 316.588179 308.554455 
L 329.404189 308.554455 
L 329.495283 298.49505 
L 330.30702 298.49505 
L 330.404795 283.405941 
L 330.795244 283.405941 
L 330.795244 278.376238 
L 330.974832 278.376238 
L 330.993409 268.316832 
L 331.106363 268.316832 
L 331.180227 258.257426 
L 331.390475 258.257426 
L 331.390475 253.227723 
L 331.536641 253.227723 
L 331.645968 238.138614 
L 331.667479 238.138614 
L 331.755059 207.960396 
L 331.840308 207.960396 
L 331.946402 187.841584 
L 332.122125 187.841584 
L 332.138707 172.752475 
L 332.277808 172.752475 
L 332.349521 162.693069 
L 332.482032 162.693069 
L 332.482032 157.663366 
L 348.946033 157.663366 
L 349.055949 147.60396 
L 350.491936 147.60396 
L 350.491936 142.574257 
L 351.064497 142.574257 
L 351.064497 137.544554 
L 351.298626 137.544554 
L 351.298626 132.514851 
L 351.508471 132.514851 
L 351.508471 127.485149 
L 351.924643 127.485149 
L 351.924643 122.455446 
L 352.333855 122.455446 
L 352.404373 112.39604 
L 352.582772 112.39604 
L 352.665068 102.336634 
L 352.839819 102.336634 
L 352.839819 97.306931 
L 353.013551 97.306931 
L 353.013551 92.277228 
L 354.136943 92.277228 
L 354.136943 87.247525 
L 354.741142 87.247525 
L 354.741142 82.217822 
L 409.973432 82.217822 
L 409.973432 6.772277 
L 409.973432 6.772277 
L 567.24 6.772277 
L 567.24 6.772277 
" style="fill:none;stroke:#00bfbf;stroke-linecap:square;"/>
   </g>
   <g id="line2d_3">
    <path clip-path="url(#pd6b0509a87)" d="M 300.656841 384 
L 300.656841 378.970297 
L 301.077425 378.970297 
L 301.077425 373.940594 
L 302.589182 373.940594 
L 302.589182 368.910891 
L 303.506698 368.910891 
L 303.506698 363.881188 
L 304.411399 363.881188 
L 304.411399 358.851485 
L 306.519615 358.851485 
L 306.519615 353.821782 
L 306.805731 353.821782 
L 306.805731 348.792079 
L 307.40734 348.792079 
L 307.40734 343.762376 
L 308.108608 343.762376 
L 308.108608 338.732673 
L 309.696277 338.732673 
L 309.696277 333.70297 
L 310.185068 333.70297 
L 310.185068 328.673267 
L 311.581631 328.673267 
L 311.581631 323.643564 
L 312.967523 323.643564 
L 312.967523 318.613861 
L 315.767738 318.613861 
L 315.767738 313.584158 
L 316.554045 313.584158 
L 316.554045 308.554455 
L 329.404092 308.554455 
L 329.495235 298.49505 
L 330.306989 298.49505 
L 330.404742 283.405941 
L 330.795231 283.405941 
L 330.795231 278.376238 
L 330.974801 278.376238 
L 330.993386 268.316832 
L 331.106318 268.316832 
L 331.180213 258.257426 
L 331.390475 258.257426 
L 331.390475 253.227723 
L 331.536625 253.227723 
L 331.645949 238.138614 
L 331.667479 238.138614 
L 331.755026 207.960396 
L 331.840308 207.960396 
L 331.946384 187.841584 
L 332.122106 187.841584 
L 332.138688 172.752475 
L 332.277751 172.752475 
L 332.349507 162.693069 
L 332.482027 162.693069 
L 332.482027 157.663366 
L 348.943025 157.663366 
L 349.053807 147.60396 
L 350.491936 147.60396 
L 350.491936 142.574257 
L 351.064497 142.574257 
L 351.064497 137.544554 
L 351.295757 137.544554 
L 351.295757 132.514851 
L 351.506948 132.514851 
L 351.506948 127.485149 
L 351.922581 127.485149 
L 351.922581 122.455446 
L 352.329895 122.455446 
L 352.391664 112.39604 
L 352.575777 112.39604 
L 352.665068 102.336634 
L 352.834148 102.336634 
L 352.834148 97.306931 
L 353.009872 97.306931 
L 353.009872 92.277228 
L 354.13491 92.277228 
L 354.13491 87.247525 
L 354.739511 87.247525 
L 354.739511 82.217822 
L 409.970839 82.217822 
L 409.971879 6.772277 
L 409.971879 6.772277 
L 567.24 6.772277 
L 567.24 6.772277 
" style="fill:none;stroke:#bf00bf;stroke-linecap:square;"/>
   </g>
   <g id="line2d_4">
    <path clip-path="url(#pd6b0509a87)" d="M 300.255956 384 
L 300.255956 378.970297 
L 300.550387 378.970297 
L 300.550387 373.940594 
L 301.874641 373.940594 
L 301.874641 368.910891 
L 303.124972 368.910891 
L 303.124972 363.881188 
L 303.986572 363.881188 
L 303.986572 358.851485 
L 306.040288 358.851485 
L 306.040288 353.821782 
L 306.551105 353.821782 
L 306.551105 348.792079 
L 306.88802 348.792079 
L 306.88802 343.762376 
L 307.402252 343.762376 
L 307.402252 338.732673 
L 308.777406 338.732673 
L 308.777406 333.70297 
L 309.845551 333.70297 
L 309.845551 328.673267 
L 311.250212 328.673267 
L 311.250212 323.643564 
L 312.567365 323.643564 
L 312.567365 318.613861 
L 315.563507 318.613861 
L 315.563507 313.584158 
L 316.336275 313.584158 
L 316.336275 308.554455 
L 329.403129 308.554455 
L 329.494409 298.49505 
L 330.306519 298.49505 
L 330.404284 283.405941 
L 330.79482 283.405941 
L 330.79482 278.376238 
L 330.974227 278.376238 
L 330.992588 268.316832 
L 331.105967 268.316832 
L 331.179835 258.257426 
L 331.390137 258.257426 
L 331.390137 253.227723 
L 331.536217 253.227723 
L 331.645651 238.138614 
L 331.667175 238.138614 
L 331.754681 207.960396 
L 331.839915 207.960396 
L 331.946256 187.841584 
L 332.121945 187.841584 
L 332.138497 172.752475 
L 332.277631 172.752475 
L 332.349427 162.693069 
L 332.481942 162.693069 
L 332.481942 157.663366 
L 348.912184 157.663366 
L 348.998432 147.60396 
L 350.463329 147.60396 
L 350.463329 142.574257 
L 351.007786 142.574257 
L 351.007786 137.544554 
L 351.264377 137.544554 
L 351.264377 132.514851 
L 351.467287 132.514851 
L 351.467287 127.485149 
L 351.873734 127.485149 
L 351.873734 122.455446 
L 352.290509 122.455446 
L 352.35909 112.39604 
L 352.543658 112.39604 
L 352.621272 102.336634 
L 352.79758 102.336634 
L 352.79758 97.306931 
L 352.947815 97.306931 
L 352.947815 92.277228 
L 354.104125 92.277228 
L 354.104125 87.247525 
L 354.708299 87.247525 
L 354.708299 82.217822 
L 409.963978 82.217822 
L 409.967318 6.772277 
L 409.967318 6.772277 
L 567.24 6.772277 
L 567.24 6.772277 
" style="fill:none;stroke:#000000;stroke-linecap:square;"/>
   </g>
   <g id="line2d_5">
    <path clip-path="url(#pd6b0509a87)" d="M 294.043428 384 
L 294.043428 378.970297 
L 295.084603 378.970297 
L 295.084603 373.940594 
L 299.978631 373.940594 
L 299.978631 368.910891 
L 301.020643 368.910891 
L 301.020643 363.881188 
L 301.9757 363.881188 
L 301.9757 358.851485 
L 302.651703 358.851485 
L 302.651703 353.821782 
L 303.141499 353.821782 
L 303.141499 348.792079 
L 303.717254 348.792079 
L 303.717254 343.762376 
L 303.978204 343.762376 
L 303.978204 338.732673 
L 305.068994 338.732673 
L 305.068994 333.70297 
L 308.231771 333.70297 
L 308.231771 328.673267 
L 308.771955 328.673267 
L 308.771955 323.643564 
L 309.718517 323.643564 
L 309.718517 318.613861 
L 311.030769 318.613861 
L 311.030769 313.584158 
L 315.08129 313.584158 
L 315.08129 308.554455 
L 329.384894 308.554455 
L 329.478394 298.49505 
L 330.296171 298.49505 
L 330.395281 283.405941 
L 330.786653 283.405941 
L 330.786653 278.376238 
L 330.961804 278.376238 
L 330.977085 268.316832 
L 331.097496 268.316832 
L 331.17214 258.257426 
L 331.38307 258.257426 
L 331.38307 253.227723 
L 331.528033 253.227723 
L 331.590609 243.168317 
L 331.639374 243.168317 
L 331.747889 207.960396 
L 331.830536 207.960396 
L 331.912465 192.871287 
L 331.942254 192.871287 
L 331.942254 187.841584 
L 332.118532 187.841584 
L 332.134557 172.752475 
L 332.272674 172.752475 
L 332.347773 162.693069 
L 332.48003 162.693069 
L 332.48003 157.663366 
L 347.849942 157.663366 
L 347.849942 152.633663 
L 348.199977 152.633663 
L 348.199977 147.60396 
L 349.633751 147.60396 
L 349.633751 142.574257 
L 349.856485 142.574257 
L 349.856485 137.544554 
L 350.656829 137.544554 
L 350.692516 127.485149 
L 350.829566 127.485149 
L 350.829566 122.455446 
L 351.404979 122.455446 
L 351.488721 112.39604 
L 351.640083 112.39604 
L 351.720474 97.306931 
L 351.758552 97.306931 
L 351.758552 92.277228 
L 353.531726 92.277228 
L 353.531726 87.247525 
L 353.926195 87.247525 
L 353.926195 82.217822 
L 409.776704 82.217822 
L 409.840339 6.772277 
L 409.840339 6.772277 
L 567.24 6.772277 
L 567.24 6.772277 
" style="fill:none;stroke:#00bfbf;stroke-linecap:square;"/>
   </g>
   <g id="line2d_6">
    <path clip-path="url(#pd6b0509a87)" d="M 286.052678 384 
L 286.052678 378.970297 
L 288.441743 378.970297 
L 288.441743 373.940594 
L 291.058142 373.940594 
L 291.058142 368.910891 
L 291.268814 368.910891 
L 291.268814 363.881188 
L 292.657259 363.881188 
L 292.657259 358.851485 
L 296.184725 358.851485 
L 296.184725 353.821782 
L 296.824823 353.821782 
L 296.824823 348.792079 
L 300.111837 348.792079 
L 300.111837 343.762376 
L 301.558099 343.762376 
L 301.642987 333.70297 
L 302.408721 333.70297 
L 302.408721 328.673267 
L 303.34671 328.673267 
L 303.34671 323.643564 
L 305.416114 323.643564 
L 305.416114 318.613861 
L 307.757645 318.613861 
L 307.757645 313.584158 
L 308.072027 313.584158 
L 308.072027 308.554455 
L 309.295041 308.554455 
L 309.295041 303.524752 
L 313.953591 303.524752 
L 313.953591 298.49505 
L 315.011215 298.49505 
L 315.011215 293.465347 
L 319.099637 293.465347 
L 319.099637 288.435644 
L 319.479208 288.435644 
L 319.479208 283.405941 
L 326.187536 283.405941 
L 326.187536 278.376238 
L 326.699526 278.376238 
L 326.699526 273.346535 
L 327.508875 273.346535 
L 327.508875 268.316832 
L 327.952371 268.316832 
L 327.952371 263.287129 
L 328.130747 263.287129 
L 328.130747 258.257426 
L 328.452129 258.257426 
L 328.540525 243.168317 
L 328.585515 243.168317 
L 328.585515 238.138614 
L 328.71632 238.138614 
L 328.71632 233.108911 
L 328.857373 233.108911 
L 328.857373 228.079208 
L 329.122261 228.079208 
L 329.122261 223.049505 
L 329.34512 223.049505 
L 329.445611 212.990099 
L 329.460046 212.990099 
L 329.460046 207.960396 
L 329.710709 207.960396 
L 329.710709 202.930693 
L 329.840427 202.930693 
L 329.922494 182.811881 
L 330.153037 182.811881 
L 330.24523 167.722772 
L 330.331139 167.722772 
L 330.362996 157.663366 
L 330.489544 157.663366 
L 330.489544 152.633663 
L 331.965494 152.633663 
L 331.965494 147.60396 
L 339.07381 147.60396 
L 339.07381 142.574257 
L 340.790541 142.574257 
L 340.790541 137.544554 
L 340.912688 137.544554 
L 340.912688 132.514851 
L 341.901951 132.514851 
L 341.901951 127.485149 
L 342.241031 127.485149 
L 342.29818 112.39604 
L 342.436659 112.39604 
L 342.436659 107.366337 
L 342.57854 107.366337 
L 342.612901 97.306931 
L 342.748634 97.306931 
L 342.826858 87.247525 
L 343.015679 87.247525 
L 343.015679 82.217822 
L 343.236007 82.217822 
L 343.236007 77.188119 
L 344.005617 77.188119 
L 344.005617 72.158416 
L 344.739102 72.158416 
L 344.739102 67.128713 
L 354.106001 67.128713 
L 354.106001 62.09901 
L 356.598691 62.09901 
L 356.598691 57.069307 
L 360.780033 57.069307 
L 360.780033 52.039604 
L 367.423623 52.039604 
L 367.423623 47.009901 
L 369.807735 47.009901 
L 369.807735 41.980198 
L 370.208136 41.980198 
L 370.208136 36.950495 
L 373.343457 36.950495 
L 373.343457 31.920792 
L 376.377369 31.920792 
L 376.377369 26.891089 
L 377.901564 26.891089 
L 377.901564 21.861386 
L 381.816308 21.861386 
L 381.816308 16.831683 
L 384.276129 16.831683 
L 384.276129 11.80198 
L 388.387171 11.80198 
L 388.387171 6.772277 
L 388.387171 6.772277 
L 567.24 6.772277 
L 567.24 6.772277 
" style="fill:none;stroke:#bf00bf;stroke-linecap:square;"/>
   </g>
   <g id="patch_3">
    <path d="M 3 3 
L 567.24 3 
" style="fill:none;stroke:#000000;stroke-linecap:square;stroke-linejoin:miter;"/>
   </g>
   <g id="patch_4">
    <path d="M 567.24 384 
L 567.24 3 
" style="fill:none;stroke:#000000;stroke-linecap:square;stroke-linejoin:miter;"/>
   </g>
   <g id="patch_5">
    <path d="M 3 384 
L 567.24 384 
" style="fill:none;stroke:#000000;stroke-linecap:square;stroke-linejoin:miter;"/>
   </g>
   <g id="patch_6">
    <path d="M 3 384 
L 3 3 
" style="fill:none;stroke:#000000;stroke-linecap:square;stroke-linejoin:miter;"/>
   </g>
   <g id="matplotlib.axis_1">
    <g id="xtick_1"/>
    <g id="xtick_2">
     <g id="line2d_7">
      <path clip-path="url(#pd6b0509a87)" d="M 69.254589 384 
L 69.254589 3 
" style="fill:none;stroke:#000000;stroke-dasharray:1.000000,3.000000;stroke-dashoffset:0.0;stroke-width:0.5;"/>
     </g>
     <g id="line2d_8">
      <defs>
       <path d="M 0 0 
L 0 -4 
" id="m1f60ef5042" style="stroke:#000000;stroke-width:0.5;"/>
      </defs>
      <g>
       <use style="stroke:#000000;stroke-width:0.5;" x="69.2545893472" xlink:href="#m1f60ef5042" y="384.0"/>
      </g>
     </g>
     <g id="line2d_9">
      <defs>
       <path d="M 0 0 
L 0 4 
" id="m2fdb162991" style="stroke:#000000;stroke-width:0.5;"/>
      </defs>
      <g>
       <use style="stroke:#000000;stroke-width:0.5;" x="69.2545893472" xlink:href="#m2fdb162991" y="3.0"/>
      </g>
     </g>
     <g id="text_1">
      <!-- -6 -->
      <defs>
       <path d="M 33.015625 40.375 
Q 26.375 40.375 22.484375 35.828125 
Q 18.609375 31.296875 18.609375 23.390625 
Q 18.609375 15.53125 22.484375 10.953125 
Q 26.375 6.390625 33.015625 6.390625 
Q 39.65625 6.390625 43.53125 10.953125 
Q 47.40625 15.53125 47.40625 23.390625 
Q 47.40625 31.296875 43.53125 35.828125 
Q 39.65625 40.375 33.015625 40.375 
M 52.59375 71.296875 
L 52.59375 62.3125 
Q 48.875 64.0625 45.09375 64.984375 
Q 41.3125 65.921875 37.59375 65.921875 
Q 27.828125 65.921875 22.671875 59.328125 
Q 17.53125 52.734375 16.796875 39.40625 
Q 19.671875 43.65625 24.015625 45.921875 
Q 28.375 48.1875 33.59375 48.1875 
Q 44.578125 48.1875 50.953125 41.515625 
Q 57.328125 34.859375 57.328125 23.390625 
Q 57.328125 12.15625 50.6875 5.359375 
Q 44.046875 -1.421875 33.015625 -1.421875 
Q 20.359375 -1.421875 13.671875 8.265625 
Q 6.984375 17.96875 6.984375 36.375 
Q 6.984375 53.65625 15.1875 63.9375 
Q 23.390625 74.21875 37.203125 74.21875 
Q 40.921875 74.21875 44.703125 73.484375 
Q 48.484375 72.75 52.59375 71.296875 
" id="BitstreamVeraSans-Roman-36"/>
       <path d="M 4.890625 31.390625 
L 31.203125 31.390625 
L 31.203125 23.390625 
L 4.890625 23.390625 
z
" id="BitstreamVeraSans-Roman-2d"/>
      </defs>
      <g transform="translate(59.2842768472 403.196875)scale(0.2 -0.2)">
       <use xlink:href="#BitstreamVeraSans-Roman-2d"/>
       <use x="36.083984375" xlink:href="#BitstreamVeraSans-Roman-36"/>
      </g>
     </g>
    </g>
    <g id="xtick_3">
     <g id="line2d_10">
      <path clip-path="url(#pd6b0509a87)" d="M 135.652644 384 
L 135.652644 3 
" style="fill:none;stroke:#000000;stroke-dasharray:1.000000,3.000000;stroke-dashoffset:0.0;stroke-width:0.5;"/>
     </g>
     <g id="line2d_11">
      <g>
       <use style="stroke:#000000;stroke-width:0.5;" x="135.652644101" xlink:href="#m1f60ef5042" y="384.0"/>
      </g>
     </g>
     <g id="line2d_12">
      <g>
       <use style="stroke:#000000;stroke-width:0.5;" x="135.652644101" xlink:href="#m2fdb162991" y="3.0"/>
      </g>
     </g>
     <g id="text_2">
      <!-- -4 -->
      <defs>
       <path d="M 37.796875 64.3125 
L 12.890625 25.390625 
L 37.796875 25.390625 
z
M 35.203125 72.90625 
L 47.609375 72.90625 
L 47.609375 25.390625 
L 58.015625 25.390625 
L 58.015625 17.1875 
L 47.609375 17.1875 
L 47.609375 0 
L 37.796875 0 
L 37.796875 17.1875 
L 4.890625 17.1875 
L 4.890625 26.703125 
z
" id="BitstreamVeraSans-Roman-34"/>
      </defs>
      <g transform="translate(125.682331601 403.196875)scale(0.2 -0.2)">
       <use xlink:href="#BitstreamVeraSans-Roman-2d"/>
       <use x="36.083984375" xlink:href="#BitstreamVeraSans-Roman-34"/>
      </g>
     </g>
    </g>
    <g id="xtick_4">
     <g id="line2d_13">
      <path clip-path="url(#pd6b0509a87)" d="M 202.050699 384 
L 202.050699 3 
" style="fill:none;stroke:#000000;stroke-dasharray:1.000000,3.000000;stroke-dashoffset:0.0;stroke-width:0.5;"/>
     </g>
     <g id="line2d_14">
      <g>
       <use style="stroke:#000000;stroke-width:0.5;" x="202.050698855" xlink:href="#m1f60ef5042" y="384.0"/>
      </g>
     </g>
     <g id="line2d_15">
      <g>
       <use style="stroke:#000000;stroke-width:0.5;" x="202.050698855" xlink:href="#m2fdb162991" y="3.0"/>
      </g>
     </g>
     <g id="text_3">
      <!-- -2 -->
      <defs>
       <path d="M 19.1875 8.296875 
L 53.609375 8.296875 
L 53.609375 0 
L 7.328125 0 
L 7.328125 8.296875 
Q 12.9375 14.109375 22.625 23.890625 
Q 32.328125 33.6875 34.8125 36.53125 
Q 39.546875 41.84375 41.421875 45.53125 
Q 43.3125 49.21875 43.3125 52.78125 
Q 43.3125 58.59375 39.234375 62.25 
Q 35.15625 65.921875 28.609375 65.921875 
Q 23.96875 65.921875 18.8125 64.3125 
Q 13.671875 62.703125 7.8125 59.421875 
L 7.8125 69.390625 
Q 13.765625 71.78125 18.9375 73 
Q 24.125 74.21875 28.421875 74.21875 
Q 39.75 74.21875 46.484375 68.546875 
Q 53.21875 62.890625 53.21875 53.421875 
Q 53.21875 48.921875 51.53125 44.890625 
Q 49.859375 40.875 45.40625 35.40625 
Q 44.1875 33.984375 37.640625 27.21875 
Q 31.109375 20.453125 19.1875 8.296875 
" id="BitstreamVeraSans-Roman-32"/>
      </defs>
      <g transform="translate(192.080386355 403.196875)scale(0.2 -0.2)">
       <use xlink:href="#BitstreamVeraSans-Roman-2d"/>
       <use x="36.083984375" xlink:href="#BitstreamVeraSans-Roman-32"/>
      </g>
     </g>
    </g>
    <g id="xtick_5">
     <g id="line2d_16">
      <path clip-path="url(#pd6b0509a87)" d="M 268.448754 384 
L 268.448754 3 
" style="fill:none;stroke:#000000;stroke-dasharray:1.000000,3.000000;stroke-dashoffset:0.0;stroke-width:0.5;"/>
     </g>
     <g id="line2d_17">
      <g>
       <use style="stroke:#000000;stroke-width:0.5;" x="268.448753608" xlink:href="#m1f60ef5042" y="384.0"/>
      </g>
     </g>
     <g id="line2d_18">
      <g>
       <use style="stroke:#000000;stroke-width:0.5;" x="268.448753608" xlink:href="#m2fdb162991" y="3.0"/>
      </g>
     </g>
     <g id="text_4">
      <!-- 0 -->
      <defs>
       <path d="M 31.78125 66.40625 
Q 24.171875 66.40625 20.328125 58.90625 
Q 16.5 51.421875 16.5 36.375 
Q 16.5 21.390625 20.328125 13.890625 
Q 24.171875 6.390625 31.78125 6.390625 
Q 39.453125 6.390625 43.28125 13.890625 
Q 47.125 21.390625 47.125 36.375 
Q 47.125 51.421875 43.28125 58.90625 
Q 39.453125 66.40625 31.78125 66.40625 
M 31.78125 74.21875 
Q 44.046875 74.21875 50.515625 64.515625 
Q 56.984375 54.828125 56.984375 36.375 
Q 56.984375 17.96875 50.515625 8.265625 
Q 44.046875 -1.421875 31.78125 -1.421875 
Q 19.53125 -1.421875 13.0625 8.265625 
Q 6.59375 17.96875 6.59375 36.375 
Q 6.59375 54.828125 13.0625 64.515625 
Q 19.53125 74.21875 31.78125 74.21875 
" id="BitstreamVeraSans-Roman-30"/>
      </defs>
      <g transform="translate(262.086253608 403.196875)scale(0.2 -0.2)">
       <use xlink:href="#BitstreamVeraSans-Roman-30"/>
      </g>
     </g>
    </g>
    <g id="xtick_6">
     <g id="line2d_19">
      <path clip-path="url(#pd6b0509a87)" d="M 334.846808 384 
L 334.846808 3 
" style="fill:none;stroke:#000000;stroke-dasharray:1.000000,3.000000;stroke-dashoffset:0.0;stroke-width:0.5;"/>
     </g>
     <g id="line2d_20">
      <g>
       <use style="stroke:#000000;stroke-width:0.5;" x="334.846808362" xlink:href="#m1f60ef5042" y="384.0"/>
      </g>
     </g>
     <g id="line2d_21">
      <g>
       <use style="stroke:#000000;stroke-width:0.5;" x="334.846808362" xlink:href="#m2fdb162991" y="3.0"/>
      </g>
     </g>
     <g id="text_5">
      <!-- 2 -->
      <g transform="translate(328.484308362 403.196875)scale(0.2 -0.2)">
       <use xlink:href="#BitstreamVeraSans-Roman-32"/>
      </g>
     </g>
    </g>
    <g id="xtick_7">
     <g id="line2d_22">
      <path clip-path="url(#pd6b0509a87)" d="M 401.244863 384 
L 401.244863 3 
" style="fill:none;stroke:#000000;stroke-dasharray:1.000000,3.000000;stroke-dashoffset:0.0;stroke-width:0.5;"/>
     </g>
     <g id="line2d_23">
      <g>
       <use style="stroke:#000000;stroke-width:0.5;" x="401.244863116" xlink:href="#m1f60ef5042" y="384.0"/>
      </g>
     </g>
     <g id="line2d_24">
      <g>
       <use style="stroke:#000000;stroke-width:0.5;" x="401.244863116" xlink:href="#m2fdb162991" y="3.0"/>
      </g>
     </g>
     <g id="text_6">
      <!-- 4 -->
      <g transform="translate(394.882363116 403.196875)scale(0.2 -0.2)">
       <use xlink:href="#BitstreamVeraSans-Roman-34"/>
      </g>
     </g>
    </g>
    <g id="xtick_8">
     <g id="line2d_25">
      <path clip-path="url(#pd6b0509a87)" d="M 467.642918 384 
L 467.642918 3 
" style="fill:none;stroke:#000000;stroke-dasharray:1.000000,3.000000;stroke-dashoffset:0.0;stroke-width:0.5;"/>
     </g>
     <g id="line2d_26">
      <g>
       <use style="stroke:#000000;stroke-width:0.5;" x="467.642917869" xlink:href="#m1f60ef5042" y="384.0"/>
      </g>
     </g>
     <g id="line2d_27">
      <g>
       <use style="stroke:#000000;stroke-width:0.5;" x="467.642917869" xlink:href="#m2fdb162991" y="3.0"/>
      </g>
     </g>
     <g id="text_7">
      <!-- 6 -->
      <g transform="translate(461.280417869 403.196875)scale(0.2 -0.2)">
       <use xlink:href="#BitstreamVeraSans-Roman-36"/>
      </g>
     </g>
    </g>
    <g id="xtick_9">
     <g id="line2d_28">
      <path clip-path="url(#pd6b0509a87)" d="M 534.040973 384 
L 534.040973 3 
" style="fill:none;stroke:#000000;stroke-dasharray:1.000000,3.000000;stroke-dashoffset:0.0;stroke-width:0.5;"/>
     </g>
     <g id="line2d_29">
      <g>
       <use style="stroke:#000000;stroke-width:0.5;" x="534.040972623" xlink:href="#m1f60ef5042" y="384.0"/>
      </g>
     </g>
     <g id="line2d_30">
      <g>
       <use style="stroke:#000000;stroke-width:0.5;" x="534.040972623" xlink:href="#m2fdb162991" y="3.0"/>
      </g>
     </g>
     <g id="text_8">
      <!-- 8 -->
      <defs>
       <path d="M 31.78125 34.625 
Q 24.75 34.625 20.71875 30.859375 
Q 16.703125 27.09375 16.703125 20.515625 
Q 16.703125 13.921875 20.71875 10.15625 
Q 24.75 6.390625 31.78125 6.390625 
Q 38.8125 6.390625 42.859375 10.171875 
Q 46.921875 13.96875 46.921875 20.515625 
Q 46.921875 27.09375 42.890625 30.859375 
Q 38.875 34.625 31.78125 34.625 
M 21.921875 38.8125 
Q 15.578125 40.375 12.03125 44.71875 
Q 8.5 49.078125 8.5 55.328125 
Q 8.5 64.0625 14.71875 69.140625 
Q 20.953125 74.21875 31.78125 74.21875 
Q 42.671875 74.21875 48.875 69.140625 
Q 55.078125 64.0625 55.078125 55.328125 
Q 55.078125 49.078125 51.53125 44.71875 
Q 48 40.375 41.703125 38.8125 
Q 48.828125 37.15625 52.796875 32.3125 
Q 56.78125 27.484375 56.78125 20.515625 
Q 56.78125 9.90625 50.3125 4.234375 
Q 43.84375 -1.421875 31.78125 -1.421875 
Q 19.734375 -1.421875 13.25 4.234375 
Q 6.78125 9.90625 6.78125 20.515625 
Q 6.78125 27.484375 10.78125 32.3125 
Q 14.796875 37.15625 21.921875 38.8125 
M 18.3125 54.390625 
Q 18.3125 48.734375 21.84375 45.5625 
Q 25.390625 42.390625 31.78125 42.390625 
Q 38.140625 42.390625 41.71875 45.5625 
Q 45.3125 48.734375 45.3125 54.390625 
Q 45.3125 60.0625 41.71875 63.234375 
Q 38.140625 66.40625 31.78125 66.40625 
Q 25.390625 66.40625 21.84375 63.234375 
Q 18.3125 60.0625 18.3125 54.390625 
" id="BitstreamVeraSans-Roman-38"/>
      </defs>
      <g transform="translate(527.678472623 403.196875)scale(0.2 -0.2)">
       <use xlink:href="#BitstreamVeraSans-Roman-38"/>
      </g>
     </g>
    </g>
    <g id="xtick_10"/>
    <g id="xtick_11">
     <g id="line2d_31">
      <defs>
       <path d="M 0 0 
L 0 -2 
" id="m94c1305c41" style="stroke:#000000;stroke-width:0.5;"/>
      </defs>
      <g>
       <use style="stroke:#000000;stroke-width:0.5;" x="69.2545893472" xlink:href="#m94c1305c41" y="384.0"/>
      </g>
     </g>
     <g id="line2d_32">
      <defs>
       <path d="M 0 0 
L 0 2 
" id="m09433d34d2" style="stroke:#000000;stroke-width:0.5;"/>
      </defs>
      <g>
       <use style="stroke:#000000;stroke-width:0.5;" x="69.2545893472" xlink:href="#m09433d34d2" y="3.0"/>
      </g>
     </g>
    </g>
    <g id="xtick_12">
     <g id="line2d_33">
      <g>
       <use style="stroke:#000000;stroke-width:0.5;" x="135.652644101" xlink:href="#m94c1305c41" y="384.0"/>
      </g>
     </g>
     <g id="line2d_34">
      <g>
       <use style="stroke:#000000;stroke-width:0.5;" x="135.652644101" xlink:href="#m09433d34d2" y="3.0"/>
      </g>
     </g>
    </g>
    <g id="xtick_13">
     <g id="line2d_35">
      <g>
       <use style="stroke:#000000;stroke-width:0.5;" x="202.050698855" xlink:href="#m94c1305c41" y="384.0"/>
      </g>
     </g>
     <g id="line2d_36">
      <g>
       <use style="stroke:#000000;stroke-width:0.5;" x="202.050698855" xlink:href="#m09433d34d2" y="3.0"/>
      </g>
     </g>
    </g>
    <g id="xtick_14">
     <g id="line2d_37">
      <g>
       <use style="stroke:#000000;stroke-width:0.5;" x="268.448753608" xlink:href="#m94c1305c41" y="384.0"/>
      </g>
     </g>
     <g id="line2d_38">
      <g>
       <use style="stroke:#000000;stroke-width:0.5;" x="268.448753608" xlink:href="#m09433d34d2" y="3.0"/>
      </g>
     </g>
    </g>
    <g id="xtick_15">
     <g id="line2d_39">
      <g>
       <use style="stroke:#000000;stroke-width:0.5;" x="334.846808362" xlink:href="#m94c1305c41" y="384.0"/>
      </g>
     </g>
     <g id="line2d_40">
      <g>
       <use style="stroke:#000000;stroke-width:0.5;" x="334.846808362" xlink:href="#m09433d34d2" y="3.0"/>
      </g>
     </g>
    </g>
    <g id="xtick_16">
     <g id="line2d_41">
      <g>
       <use style="stroke:#000000;stroke-width:0.5;" x="401.244863116" xlink:href="#m94c1305c41" y="384.0"/>
      </g>
     </g>
     <g id="line2d_42">
      <g>
       <use style="stroke:#000000;stroke-width:0.5;" x="401.244863116" xlink:href="#m09433d34d2" y="3.0"/>
      </g>
     </g>
    </g>
    <g id="xtick_17">
     <g id="line2d_43">
      <g>
       <use style="stroke:#000000;stroke-width:0.5;" x="467.642917869" xlink:href="#m94c1305c41" y="384.0"/>
      </g>
     </g>
     <g id="line2d_44">
      <g>
       <use style="stroke:#000000;stroke-width:0.5;" x="467.642917869" xlink:href="#m09433d34d2" y="3.0"/>
      </g>
     </g>
    </g>
    <g id="xtick_18">
     <g id="line2d_45">
      <g>
       <use style="stroke:#000000;stroke-width:0.5;" x="534.040972623" xlink:href="#m94c1305c41" y="384.0"/>
      </g>
     </g>
     <g id="line2d_46">
      <g>
       <use style="stroke:#000000;stroke-width:0.5;" x="534.040972623" xlink:href="#m09433d34d2" y="3.0"/>
      </g>
     </g>
    </g>
    <g id="text_9">
     <!-- log10 of Df -->
     <defs>
      <path id="BitstreamVeraSans-Roman-20"/>
      <path d="M 12.40625 8.296875 
L 28.515625 8.296875 
L 28.515625 63.921875 
L 10.984375 60.40625 
L 10.984375 69.390625 
L 28.421875 72.90625 
L 38.28125 72.90625 
L 38.28125 8.296875 
L 54.390625 8.296875 
L 54.390625 0 
L 12.40625 0 
z
" id="BitstreamVeraSans-Roman-31"/>
      <path d="M 30.609375 48.390625 
Q 23.390625 48.390625 19.1875 42.75 
Q 14.984375 37.109375 14.984375 27.296875 
Q 14.984375 17.484375 19.15625 11.84375 
Q 23.34375 6.203125 30.609375 6.203125 
Q 37.796875 6.203125 41.984375 11.859375 
Q 46.1875 17.53125 46.1875 27.296875 
Q 46.1875 37.015625 41.984375 42.703125 
Q 37.796875 48.390625 30.609375 48.390625 
M 30.609375 56 
Q 42.328125 56 49.015625 48.375 
Q 55.71875 40.765625 55.71875 27.296875 
Q 55.71875 13.875 49.015625 6.21875 
Q 42.328125 -1.421875 30.609375 -1.421875 
Q 18.84375 -1.421875 12.171875 6.21875 
Q 5.515625 13.875 5.515625 27.296875 
Q 5.515625 40.765625 12.171875 48.375 
Q 18.84375 56 30.609375 56 
" id="BitstreamVeraSans-Roman-6f"/>
      <path d="M 9.421875 75.984375 
L 18.40625 75.984375 
L 18.40625 0 
L 9.421875 0 
z
" id="BitstreamVeraSans-Roman-6c"/>
      <path d="M 19.671875 64.796875 
L 19.671875 8.109375 
L 31.59375 8.109375 
Q 46.6875 8.109375 53.6875 14.9375 
Q 60.6875 21.78125 60.6875 36.53125 
Q 60.6875 51.171875 53.6875 57.984375 
Q 46.6875 64.796875 31.59375 64.796875 
z
M 9.8125 72.90625 
L 30.078125 72.90625 
Q 51.265625 72.90625 61.171875 64.09375 
Q 71.09375 55.28125 71.09375 36.53125 
Q 71.09375 17.671875 61.125 8.828125 
Q 51.171875 0 30.078125 0 
L 9.8125 0 
z
" id="BitstreamVeraSans-Roman-44"/>
      <path d="M 45.40625 27.984375 
Q 45.40625 37.75 41.375 43.109375 
Q 37.359375 48.484375 30.078125 48.484375 
Q 22.859375 48.484375 18.828125 43.109375 
Q 14.796875 37.75 14.796875 27.984375 
Q 14.796875 18.265625 18.828125 12.890625 
Q 22.859375 7.515625 30.078125 7.515625 
Q 37.359375 7.515625 41.375 12.890625 
Q 45.40625 18.265625 45.40625 27.984375 
M 54.390625 6.78125 
Q 54.390625 -7.171875 48.1875 -13.984375 
Q 42 -20.796875 29.203125 -20.796875 
Q 24.46875 -20.796875 20.265625 -20.09375 
Q 16.0625 -19.390625 12.109375 -17.921875 
L 12.109375 -9.1875 
Q 16.0625 -11.328125 19.921875 -12.34375 
Q 23.78125 -13.375 27.78125 -13.375 
Q 36.625 -13.375 41.015625 -8.765625 
Q 45.40625 -4.15625 45.40625 5.171875 
L 45.40625 9.625 
Q 42.625 4.78125 38.28125 2.390625 
Q 33.9375 0 27.875 0 
Q 17.828125 0 11.671875 7.65625 
Q 5.515625 15.328125 5.515625 27.984375 
Q 5.515625 40.671875 11.671875 48.328125 
Q 17.828125 56 27.875 56 
Q 33.9375 56 38.28125 53.609375 
Q 42.625 51.21875 45.40625 46.390625 
L 45.40625 54.6875 
L 54.390625 54.6875 
z
" id="BitstreamVeraSans-Roman-67"/>
      <path d="M 37.109375 75.984375 
L 37.109375 68.5 
L 28.515625 68.5 
Q 23.6875 68.5 21.796875 66.546875 
Q 19.921875 64.59375 19.921875 59.515625 
L 19.921875 54.6875 
L 34.71875 54.6875 
L 34.71875 47.703125 
L 19.921875 47.703125 
L 19.921875 0 
L 10.890625 0 
L 10.890625 47.703125 
L 2.296875 47.703125 
L 2.296875 54.6875 
L 10.890625 54.6875 
L 10.890625 58.5 
Q 10.890625 67.625 15.140625 71.796875 
Q 19.390625 75.984375 28.609375 75.984375 
z
" id="BitstreamVeraSans-Roman-66"/>
     </defs>
     <g transform="translate(229.9340625 427.553125)scale(0.2 -0.2)">
      <use xlink:href="#BitstreamVeraSans-Roman-6c"/>
      <use x="27.783203125" xlink:href="#BitstreamVeraSans-Roman-6f"/>
      <use x="88.96484375" xlink:href="#BitstreamVeraSans-Roman-67"/>
      <use x="152.44140625" xlink:href="#BitstreamVeraSans-Roman-31"/>
      <use x="216.064453125" xlink:href="#BitstreamVeraSans-Roman-30"/>
      <use x="279.6875" xlink:href="#BitstreamVeraSans-Roman-20"/>
      <use x="311.474609375" xlink:href="#BitstreamVeraSans-Roman-6f"/>
      <use x="372.65625" xlink:href="#BitstreamVeraSans-Roman-66"/>
      <use x="407.861328125" xlink:href="#BitstreamVeraSans-Roman-20"/>
      <use x="439.6484375" xlink:href="#BitstreamVeraSans-Roman-44"/>
      <use x="516.650390625" xlink:href="#BitstreamVeraSans-Roman-66"/>
     </g>
    </g>
   </g>
   <g id="matplotlib.axis_2">
    <g id="ytick_1">
     <g id="line2d_47">
      <path clip-path="url(#pd6b0509a87)" d="M 3 384 
L 567.24 384 
" style="fill:none;stroke:#000000;stroke-dasharray:1.000000,3.000000;stroke-dashoffset:0.0;stroke-width:0.5;"/>
     </g>
     <g id="line2d_48">
      <defs>
       <path d="M 0 0 
L 4 0 
" id="ma9069c1909" style="stroke:#000000;stroke-width:0.5;"/>
      </defs>
      <g>
       <use style="stroke:#000000;stroke-width:0.5;" x="3.0" xlink:href="#ma9069c1909" y="384.0"/>
      </g>
     </g>
     <g id="line2d_49">
      <defs>
       <path d="M 0 0 
L -4 0 
" id="mae98f4f187" style="stroke:#000000;stroke-width:0.5;"/>
      </defs>
      <g>
       <use style="stroke:#000000;stroke-width:0.5;" x="567.24" xlink:href="#mae98f4f187" y="384.0"/>
      </g>
     </g>
    </g>
    <g id="ytick_2">
     <g id="line2d_50">
      <path clip-path="url(#pd6b0509a87)" d="M 3 308.554455 
L 567.24 308.554455 
" style="fill:none;stroke:#000000;stroke-dasharray:1.000000,3.000000;stroke-dashoffset:0.0;stroke-width:0.5;"/>
     </g>
     <g id="line2d_51">
      <g>
       <use style="stroke:#000000;stroke-width:0.5;" x="3.0" xlink:href="#ma9069c1909" y="308.554455446"/>
      </g>
     </g>
     <g id="line2d_52">
      <g>
       <use style="stroke:#000000;stroke-width:0.5;" x="567.24" xlink:href="#mae98f4f187" y="308.554455446"/>
      </g>
     </g>
    </g>
    <g id="ytick_3">
     <g id="line2d_53">
      <path clip-path="url(#pd6b0509a87)" d="M 3 233.108911 
L 567.24 233.108911 
" style="fill:none;stroke:#000000;stroke-dasharray:1.000000,3.000000;stroke-dashoffset:0.0;stroke-width:0.5;"/>
     </g>
     <g id="line2d_54">
      <g>
       <use style="stroke:#000000;stroke-width:0.5;" x="3.0" xlink:href="#ma9069c1909" y="233.108910891"/>
      </g>
     </g>
     <g id="line2d_55">
      <g>
       <use style="stroke:#000000;stroke-width:0.5;" x="567.24" xlink:href="#mae98f4f187" y="233.108910891"/>
      </g>
     </g>
    </g>
    <g id="ytick_4">
     <g id="line2d_56">
      <path clip-path="url(#pd6b0509a87)" d="M 3 157.663366 
L 567.24 157.663366 
" style="fill:none;stroke:#000000;stroke-dasharray:1.000000,3.000000;stroke-dashoffset:0.0;stroke-width:0.5;"/>
     </g>
     <g id="line2d_57">
      <g>
       <use style="stroke:#000000;stroke-width:0.5;" x="3.0" xlink:href="#ma9069c1909" y="157.663366337"/>
      </g>
     </g>
     <g id="line2d_58">
      <g>
       <use style="stroke:#000000;stroke-width:0.5;" x="567.24" xlink:href="#mae98f4f187" y="157.663366337"/>
      </g>
     </g>
    </g>
    <g id="ytick_5">
     <g id="line2d_59">
      <path clip-path="url(#pd6b0509a87)" d="M 3 82.217822 
L 567.24 82.217822 
" style="fill:none;stroke:#000000;stroke-dasharray:1.000000,3.000000;stroke-dashoffset:0.0;stroke-width:0.5;"/>
     </g>
     <g id="line2d_60">
      <g>
       <use style="stroke:#000000;stroke-width:0.5;" x="3.0" xlink:href="#ma9069c1909" y="82.2178217822"/>
      </g>
     </g>
     <g id="line2d_61">
      <g>
       <use style="stroke:#000000;stroke-width:0.5;" x="567.24" xlink:href="#mae98f4f187" y="82.2178217822"/>
      </g>
     </g>
    </g>
    <g id="ytick_6">
     <g id="line2d_62">
      <path clip-path="url(#pd6b0509a87)" d="M 3 6.772277 
L 567.24 6.772277 
" style="fill:none;stroke:#000000;stroke-dasharray:1.000000,3.000000;stroke-dashoffset:0.0;stroke-width:0.5;"/>
     </g>
     <g id="line2d_63">
      <g>
       <use style="stroke:#000000;stroke-width:0.5;" x="3.0" xlink:href="#ma9069c1909" y="6.77227722772"/>
      </g>
     </g>
     <g id="line2d_64">
      <g>
       <use style="stroke:#000000;stroke-width:0.5;" x="567.24" xlink:href="#mae98f4f187" y="6.77227722772"/>
      </g>
     </g>
    </g>
   </g>
   <g id="text_10">
    <!-- {f20-f24}, 20-D -->
    <defs>
     <path d="M 12.5 -9.28125 
L 15.921875 -9.28125 
Q 22.75 -9.28125 24.828125 -7.171875 
Q 26.90625 -5.078125 26.90625 1.90625 
L 26.90625 14.015625 
Q 26.90625 21.625 29.09375 25.09375 
Q 31.296875 28.5625 36.71875 29.890625 
Q 31.296875 31.109375 29.09375 34.5625 
Q 26.90625 38.03125 26.90625 45.703125 
L 26.90625 57.8125 
Q 26.90625 64.75 24.828125 66.875 
Q 22.75 69 15.921875 69 
L 12.5 69 
L 12.5 75.984375 
L 15.578125 75.984375 
Q 27.734375 75.984375 31.8125 72.390625 
Q 35.890625 68.796875 35.890625 58.015625 
L 35.890625 46.296875 
Q 35.890625 39.015625 38.515625 36.203125 
Q 41.15625 33.40625 48.09375 33.40625 
L 51.125 33.40625 
L 51.125 26.421875 
L 48.09375 26.421875 
Q 41.15625 26.421875 38.515625 23.578125 
Q 35.890625 20.75 35.890625 13.375 
L 35.890625 1.703125 
Q 35.890625 -9.078125 31.8125 -12.6875 
Q 27.734375 -16.3125 15.578125 -16.3125 
L 12.5 -16.3125 
z
" id="BitstreamVeraSans-Roman-7d"/>
     <path d="M 51.125 -9.28125 
L 51.125 -16.3125 
L 48.09375 -16.3125 
Q 35.9375 -16.3125 31.8125 -12.6875 
Q 27.6875 -9.078125 27.6875 1.703125 
L 27.6875 13.375 
Q 27.6875 20.75 25.046875 23.578125 
Q 22.40625 26.421875 15.484375 26.421875 
L 12.5 26.421875 
L 12.5 33.40625 
L 15.484375 33.40625 
Q 22.46875 33.40625 25.078125 36.203125 
Q 27.6875 39.015625 27.6875 46.296875 
L 27.6875 58.015625 
Q 27.6875 68.796875 31.8125 72.390625 
Q 35.9375 75.984375 48.09375 75.984375 
L 51.125 75.984375 
L 51.125 69 
L 47.796875 69 
Q 40.921875 69 38.8125 66.84375 
Q 36.71875 64.703125 36.71875 57.8125 
L 36.71875 45.703125 
Q 36.71875 38.03125 34.5 34.5625 
Q 32.28125 31.109375 26.90625 29.890625 
Q 32.328125 28.5625 34.515625 25.09375 
Q 36.71875 21.625 36.71875 14.015625 
L 36.71875 1.90625 
Q 36.71875 -4.984375 38.8125 -7.125 
Q 40.921875 -9.28125 47.796875 -9.28125 
z
" id="BitstreamVeraSans-Roman-7b"/>
     <path d="M 11.71875 12.40625 
L 22.015625 12.40625 
L 22.015625 4 
L 14.015625 -11.625 
L 7.71875 -11.625 
L 11.71875 4 
z
" id="BitstreamVeraSans-Roman-2c"/>
    </defs>
    <g transform="translate(397.5302 376.38)scale(0.2 -0.2)">
     <use xlink:href="#BitstreamVeraSans-Roman-7b"/>
     <use x="63.623046875" xlink:href="#BitstreamVeraSans-Roman-66"/>
     <use x="98.828125" xlink:href="#BitstreamVeraSans-Roman-32"/>
     <use x="162.451171875" xlink:href="#BitstreamVeraSans-Roman-30"/>
     <use x="226.07421875" xlink:href="#BitstreamVeraSans-Roman-2d"/>
     <use x="262.158203125" xlink:href="#BitstreamVeraSans-Roman-66"/>
     <use x="297.36328125" xlink:href="#BitstreamVeraSans-Roman-32"/>
     <use x="360.986328125" xlink:href="#BitstreamVeraSans-Roman-34"/>
     <use x="424.609375" xlink:href="#BitstreamVeraSans-Roman-7d"/>
     <use x="488.232421875" xlink:href="#BitstreamVeraSans-Roman-2c"/>
     <use x="520.01953125" xlink:href="#BitstreamVeraSans-Roman-20"/>
     <use x="551.806640625" xlink:href="#BitstreamVeraSans-Roman-32"/>
     <use x="615.4296875" xlink:href="#BitstreamVeraSans-Roman-30"/>
     <use x="679.052734375" xlink:href="#BitstreamVeraSans-Roman-2d"/>
     <use x="715.13671875" xlink:href="#BitstreamVeraSans-Roman-44"/>
    </g>
   </g>
   <g id="text_11">
    <!-- v2.2.1.10 -->
    <defs>
     <path d="M 2.984375 54.6875 
L 12.5 54.6875 
L 29.59375 8.796875 
L 46.6875 54.6875 
L 56.203125 54.6875 
L 35.6875 0 
L 23.484375 0 
z
" id="BitstreamVeraSans-Roman-76"/>
     <path d="M 10.6875 12.40625 
L 21 12.40625 
L 21 0 
L 10.6875 0 
z
" id="BitstreamVeraSans-Roman-2e"/>
    </defs>
    <g style="fill:#808080;" transform="translate(261.4871875 378.1103125)scale(0.1 -0.1)">
     <use xlink:href="#BitstreamVeraSans-Roman-76"/>
     <use x="59.1796875" xlink:href="#BitstreamVeraSans-Roman-32"/>
     <use x="122.802734375" xlink:href="#BitstreamVeraSans-Roman-2e"/>
     <use x="154.58984375" xlink:href="#BitstreamVeraSans-Roman-32"/>
     <use x="218.212890625" xlink:href="#BitstreamVeraSans-Roman-2e"/>
     <use x="250.0" xlink:href="#BitstreamVeraSans-Roman-31"/>
     <use x="313.623046875" xlink:href="#BitstreamVeraSans-Roman-2e"/>
     <use x="345.41015625" xlink:href="#BitstreamVeraSans-Roman-31"/>
     <use x="409.033203125" xlink:href="#BitstreamVeraSans-Roman-30"/>
    </g>
   </g>
  </g>
 </g>
 <defs>
  <clipPath id="pd6b0509a87">
   <rect height="381.0" width="564.24" x="3.0" y="3.0"/>
  </clipPath>
 </defs>
</svg>
