<?xml version="1.0" encoding="utf-8" standalone="no"?>
<!DOCTYPE svg PUBLIC "-//W3C//DTD SVG 1.1//EN"
  "http://www.w3.org/Graphics/SVG/1.1/DTD/svg11.dtd">
<!-- Created with matplotlib (http://matplotlib.org/) -->
<svg height="432pt" version="1.1" viewBox="0 0 576 432" width="576pt" xmlns="http://www.w3.org/2000/svg" xmlns:xlink="http://www.w3.org/1999/xlink">
 <defs>
  <style type="text/css">
*{stroke-linecap:butt;stroke-linejoin:round;stroke-miterlimit:100000;}
  </style>
 </defs>
 <g id="figure_1">
  <g id="patch_1">
   <path d="M 0 432 
L 576 432 
L 576 0 
L 0 0 
z
" style="fill:#ffffff;"/>
  </g>
  <g id="axes_1">
   <g id="patch_2">
    <path d="M 3 384 
L 567.24 384 
L 567.24 3 
L 3 3 
z
" style="fill:#ffffff;"/>
   </g>
   <g id="line2d_1">
    <path clip-path="url(#pcd1a9e66b5)" d="M 208.572165 384 
L 208.572165 382.952145 
L 208.572165 382.952145 
L 208.572165 382.952145 
L 208.624705 382.952145 
L 208.624705 381.90429 
L 208.800284 381.90429 
L 208.85766 377.712871 
L 209.140749 377.712871 
L 209.228998 375.617162 
L 209.572097 375.617162 
L 209.572097 374.569307 
L 210.343121 374.569307 
L 210.343121 373.521452 
L 210.516488 373.521452 
L 210.516488 372.473597 
L 210.833022 372.473597 
L 210.833022 371.425743 
L 212.492799 371.425743 
L 212.492799 370.377888 
L 213.606409 370.377888 
L 213.606409 369.330033 
L 223.021392 369.330033 
L 223.021392 368.282178 
L 285.517552 368.282178 
L 285.538026 366.186469 
L 286.132391 366.186469 
L 286.132391 365.138614 
L 288.441743 365.138614 
L 288.441743 364.090759 
L 288.703025 364.090759 
L 288.703025 363.042904 
L 291.058142 363.042904 
L 291.058142 361.99505 
L 291.268814 361.99505 
L 291.268814 360.947195 
L 292.657259 360.947195 
L 292.657259 359.89934 
L 296.184725 359.89934 
L 296.184725 358.851485 
L 296.665967 358.851485 
L 296.770764 356.755776 
L 296.824823 356.755776 
L 296.824823 355.707921 
L 296.975771 355.707921 
L 296.975771 354.660066 
L 297.51911 354.660066 
L 297.51911 353.612211 
L 298.024986 353.612211 
L 298.089365 351.516502 
L 298.367719 351.516502 
L 298.367719 350.468647 
L 298.701697 350.468647 
L 298.701697 349.420792 
L 300.111837 349.420792 
L 300.111837 348.372937 
L 300.454466 348.372937 
L 300.454466 347.325083 
L 301.289238 347.325083 
L 301.392442 344.181518 
L 301.450542 344.181518 
L 301.558099 342.085809 
L 302.408721 342.085809 
L 302.408721 341.037954 
L 303.124047 341.037954 
L 303.124047 339.990099 
L 303.34671 339.990099 
L 303.34671 338.942244 
L 303.653285 338.942244 
L 303.653285 337.894389 
L 304.412408 337.894389 
L 304.412408 336.846535 
L 304.682843 336.846535 
L 304.682843 335.79868 
L 305.416114 335.79868 
L 305.416114 334.750825 
L 305.528962 334.750825 
L 305.528962 333.70297 
L 305.667493 333.70297 
L 305.667493 332.655116 
L 306.690278 332.655116 
L 306.690278 331.607261 
L 307.15165 331.607261 
L 307.15165 330.559406 
L 307.589424 330.559406 
L 307.589424 329.511551 
L 307.757645 329.511551 
L 307.757645 328.463696 
L 308.072027 328.463696 
L 308.12992 326.367987 
L 309.237302 326.367987 
L 309.295041 324.272277 
L 310.49462 324.272277 
L 310.49462 323.224422 
L 312.789594 323.224422 
L 312.789594 322.176568 
L 313.495249 322.176568 
L 313.513853 320.080858 
L 314.314569 320.080858 
L 314.395112 317.985149 
L 315.011215 317.985149 
L 315.026768 315.889439 
L 315.45897 315.889439 
L 315.45897 314.841584 
L 315.619675 314.841584 
L 315.619675 313.793729 
L 315.749153 313.793729 
L 315.749153 312.745875 
L 315.922513 312.745875 
L 315.922513 311.69802 
L 316.381812 311.69802 
L 316.409951 309.60231 
L 317.121242 309.60231 
L 317.121242 308.554455 
L 317.561308 308.554455 
L 317.574745 306.458746 
L 318.45466 306.458746 
L 318.45466 305.410891 
L 318.799334 305.410891 
L 318.799334 304.363036 
L 319.358287 304.363036 
L 319.358287 303.315182 
L 320.148656 303.315182 
L 320.148656 302.267327 
L 321.224542 302.267327 
L 321.224542 301.219472 
L 321.369222 301.219472 
L 321.397045 299.123762 
L 322.156438 299.123762 
L 322.156438 298.075908 
L 322.401277 298.075908 
L 322.401277 297.028053 
L 322.87746 297.028053 
L 322.979189 294.932343 
L 323.005956 294.932343 
L 323.005956 293.884488 
L 323.148893 293.884488 
L 323.148893 292.836634 
L 323.388865 292.836634 
L 323.388865 291.788779 
L 324.021161 291.788779 
L 324.021161 290.740924 
L 324.71732 290.740924 
L 324.71732 289.693069 
L 325.163615 289.693069 
L 325.163615 288.645215 
L 325.31176 288.645215 
L 325.31176 287.59736 
L 325.457066 287.59736 
L 325.470727 285.50165 
L 325.784948 285.50165 
L 325.887395 283.405941 
L 326.003268 283.405941 
L 326.003268 282.358086 
L 326.235255 282.358086 
L 326.235255 281.310231 
L 326.395665 281.310231 
L 326.395665 280.262376 
L 326.636845 280.262376 
L 326.706756 278.166667 
L 327.293138 278.166667 
L 327.384564 275.023102 
L 327.561961 275.023102 
L 327.561961 273.975248 
L 327.74255 273.975248 
L 327.759427 270.831683 
L 327.921649 270.831683 
L 327.921649 269.783828 
L 328.085843 269.783828 
L 328.085843 268.735974 
L 328.270398 268.735974 
L 328.318064 265.592409 
L 328.48188 265.592409 
L 328.553518 262.448845 
L 328.714834 262.448845 
L 328.714834 261.40099 
L 329.096491 261.40099 
L 329.096491 260.353135 
L 329.325423 260.353135 
L 329.366763 257.209571 
L 329.462731 257.209571 
L 329.542308 254.066007 
L 329.576238 254.066007 
L 329.65185 250.922442 
L 329.903933 250.922442 
L 329.985663 247.778878 
L 330.058544 247.778878 
L 330.148647 244.635314 
L 330.573826 244.635314 
L 330.573826 243.587459 
L 330.766875 243.587459 
L 330.766875 242.539604 
L 331.237127 242.539604 
L 331.237127 241.491749 
L 331.53693 241.491749 
L 331.53693 240.443894 
L 331.914573 240.443894 
L 331.914573 239.39604 
L 332.068017 239.39604 
L 332.143161 237.30033 
L 332.507313 237.30033 
L 332.507313 236.252475 
L 332.717995 236.252475 
L 332.783121 234.156766 
L 332.988452 234.156766 
L 332.988452 233.108911 
L 333.398158 233.108911 
L 333.398158 232.061056 
L 333.560757 232.061056 
L 333.66435 229.965347 
L 333.779163 229.965347 
L 333.779163 228.917492 
L 333.94853 228.917492 
L 333.94853 227.869637 
L 334.061616 227.869637 
L 334.061616 226.821782 
L 334.52109 226.821782 
L 334.52109 225.773927 
L 334.790834 225.773927 
L 334.84424 222.630363 
L 335.413478 222.630363 
L 335.413478 221.582508 
L 335.762984 221.582508 
L 335.867954 219.486799 
L 336.071138 219.486799 
L 336.160004 217.391089 
L 336.191688 217.391089 
L 336.191688 216.343234 
L 336.512457 216.343234 
L 336.512457 215.29538 
L 336.719351 215.29538 
L 336.719351 214.247525 
L 336.909435 214.247525 
L 336.909435 213.19967 
L 337.067354 213.19967 
L 337.137712 211.10396 
L 337.294098 211.10396 
L 337.294098 210.056106 
L 337.493257 210.056106 
L 337.524842 207.960396 
L 337.745725 207.960396 
L 337.745725 206.912541 
L 338.211906 206.912541 
L 338.211906 205.864686 
L 338.714987 205.864686 
L 338.714987 204.816832 
L 339.174955 204.816832 
L 339.174955 203.768977 
L 339.519286 203.768977 
L 339.588044 201.673267 
L 339.78666 201.673267 
L 339.78666 200.625413 
L 339.899694 200.625413 
L 339.970038 198.529703 
L 340.048462 198.529703 
L 340.048462 197.481848 
L 340.273713 197.481848 
L 340.273713 196.433993 
L 340.498774 196.433993 
L 340.498774 195.386139 
L 340.667591 195.386139 
L 340.697385 191.194719 
L 340.919127 191.194719 
L 340.987432 189.09901 
L 341.205065 189.09901 
L 341.205065 188.051155 
L 341.625228 188.051155 
L 341.707526 183.859736 
L 341.740443 183.859736 
L 341.740443 182.811881 
L 342.122347 182.811881 
L 342.122347 181.764026 
L 342.702373 181.764026 
L 342.786483 179.668317 
L 342.946575 179.668317 
L 342.946575 178.620462 
L 343.463233 178.620462 
L 343.463233 177.572607 
L 344.341401 177.572607 
L 344.413788 175.476898 
L 345.156939 175.476898 
L 345.156939 174.429043 
L 346.743948 174.429043 
L 346.743948 173.381188 
L 348.044131 173.381188 
L 348.044131 172.333333 
L 349.485362 172.333333 
L 349.485362 171.285479 
L 351.477204 171.285479 
L 351.477204 170.237624 
L 352.832872 170.237624 
L 352.832872 169.189769 
L 353.490609 169.189769 
L 353.490609 168.141914 
L 353.77568 168.141914 
L 353.77568 167.094059 
L 353.9858 167.094059 
L 353.9858 166.046205 
L 355.259157 166.046205 
L 355.259157 164.99835 
L 355.669178 164.99835 
L 355.775085 162.90264 
L 355.844524 162.90264 
L 355.844524 161.854785 
L 356.10795 161.854785 
L 356.17571 157.663366 
L 357.022107 157.663366 
L 357.064586 155.567657 
L 357.304158 155.567657 
L 357.350449 153.471947 
L 357.531849 153.471947 
L 357.616556 151.376238 
L 357.977058 151.376238 
L 357.977058 150.328383 
L 358.088349 150.328383 
L 358.088349 149.280528 
L 358.467808 149.280528 
L 358.467808 148.232673 
L 358.720942 148.232673 
L 358.791043 146.136964 
L 358.873941 146.136964 
L 358.9248 142.993399 
L 359.342975 142.993399 
L 359.359125 140.89769 
L 359.63986 140.89769 
L 359.63986 139.849835 
L 359.927583 139.849835 
L 359.927583 138.80198 
L 360.064793 138.80198 
L 360.064793 137.754125 
L 360.381647 137.754125 
L 360.434852 135.658416 
L 360.498709 135.658416 
L 360.593778 133.562706 
L 360.900226 133.562706 
L 360.900226 132.514851 
L 361.024797 132.514851 
L 361.024797 131.466997 
L 361.96297 131.466997 
L 361.96297 130.419142 
L 362.141003 130.419142 
L 362.141003 129.371287 
L 362.841432 129.371287 
L 362.841432 128.323432 
L 363.170991 128.323432 
L 363.170991 127.275578 
L 363.647706 127.275578 
L 363.647706 126.227723 
L 364.090402 126.227723 
L 364.090402 125.179868 
L 364.358218 125.179868 
L 364.458071 120.988449 
L 364.75624 120.988449 
L 364.825067 118.892739 
L 365.280506 118.892739 
L 365.371979 116.79703 
L 365.447942 116.79703 
L 365.447942 115.749175 
L 365.807098 115.749175 
L 365.807098 114.70132 
L 365.93348 114.70132 
L 365.93348 113.653465 
L 366.542951 113.653465 
L 366.58538 111.557756 
L 367.003103 111.557756 
L 367.003103 110.509901 
L 368.028432 110.509901 
L 368.028432 109.462046 
L 368.445331 109.462046 
L 368.445331 108.414191 
L 368.714732 108.414191 
L 368.714732 107.366337 
L 370.655203 107.366337 
L 370.655203 106.318482 
L 370.839265 106.318482 
L 370.839265 105.270627 
L 371.197092 105.270627 
L 371.197092 104.222772 
L 371.38189 104.222772 
L 371.38189 103.174917 
L 371.61126 103.174917 
L 371.705367 100.031353 
L 372.098883 100.031353 
L 372.098883 98.983498 
L 372.435167 98.983498 
L 372.491805 96.887789 
L 372.948852 96.887789 
L 372.948852 95.839934 
L 373.122014 95.839934 
L 373.157949 93.744224 
L 374.630155 93.744224 
L 374.630155 92.69637 
L 374.839983 92.69637 
L 374.839983 91.648515 
L 375.266109 91.648515 
L 375.266109 90.60066 
L 376.16853 90.60066 
L 376.263569 87.457096 
L 376.404907 87.457096 
L 376.404907 86.409241 
L 376.522156 86.409241 
L 376.522156 85.361386 
L 378.44929 85.361386 
L 378.44929 84.313531 
L 380.411673 84.313531 
L 380.414034 82.217822 
L 382.114822 82.217822 
L 382.114822 81.169967 
L 385.777949 81.169967 
L 385.777949 80.122112 
L 386.390771 80.122112 
L 386.390771 79.074257 
L 393.587844 79.074257 
L 393.587844 78.026403 
L 394.697232 78.026403 
L 394.697232 76.978548 
L 397.307915 76.978548 
L 397.307915 75.930693 
L 400.149277 75.930693 
L 400.149277 74.882838 
L 402.956539 74.882838 
L 402.956539 73.834983 
L 404.558146 73.834983 
L 404.558146 72.787129 
L 407.503281 72.787129 
L 407.557869 70.691419 
L 408.319868 70.691419 
L 408.319868 69.643564 
L 409.652923 69.643564 
L 409.652923 68.59571 
L 411.064265 68.59571 
L 411.064265 67.547855 
L 412.893896 67.547855 
L 412.893896 66.5 
L 414.072105 66.5 
L 414.072105 65.452145 
L 417.188288 65.452145 
L 417.188288 64.40429 
L 418.721765 64.40429 
L 418.721765 63.356436 
L 425.673021 63.356436 
L 425.673021 62.308581 
L 427.287056 62.308581 
L 427.287056 61.260726 
L 428.096275 61.260726 
L 428.096275 60.212871 
L 428.297528 60.212871 
L 428.297528 59.165017 
L 428.748023 59.165017 
L 428.748023 58.117162 
L 430.463101 58.117162 
L 430.463101 57.069307 
L 430.807919 57.069307 
L 430.807919 56.021452 
L 431.517046 56.021452 
L 431.517046 54.973597 
L 436.24395 54.973597 
L 436.24395 53.925743 
L 436.766037 53.925743 
L 436.766037 52.877888 
L 437.143906 52.877888 
L 437.143906 51.830033 
L 439.698761 51.830033 
L 439.698761 50.782178 
L 440.817911 50.782178 
L 440.817911 49.734323 
L 444.282841 49.734323 
L 444.282841 48.686469 
L 444.725666 48.686469 
L 444.725666 47.638614 
L 447.322393 47.638614 
L 447.322393 46.590759 
L 448.451341 46.590759 
L 448.451341 45.542904 
L 449.281682 45.542904 
L 449.373526 43.447195 
L 450.540274 43.447195 
L 450.540274 42.39934 
L 450.680732 42.39934 
L 450.680732 41.351485 
L 451.019783 41.351485 
L 451.019783 40.30363 
L 451.627927 40.30363 
L 451.702511 38.207921 
L 452.024737 38.207921 
L 452.024737 37.160066 
L 455.816753 37.160066 
L 455.816753 36.112211 
L 456.182033 36.112211 
L 456.182033 35.064356 
L 459.944661 35.064356 
L 459.944661 34.016502 
L 460.451517 34.016502 
L 460.451517 32.968647 
L 460.86831 32.968647 
L 460.86831 31.920792 
L 462.034959 31.920792 
L 462.034959 30.872937 
L 462.727113 30.872937 
L 462.727113 29.825083 
L 464.198223 29.825083 
L 464.198223 28.777228 
L 464.407698 28.777228 
L 464.407698 27.729373 
L 467.545702 27.729373 
L 467.545702 26.681518 
L 468.536986 26.681518 
L 468.536986 25.633663 
L 472.274297 25.633663 
L 472.274297 24.585809 
L 473.527277 24.585809 
L 473.527277 23.537954 
L 475.29296 23.537954 
L 475.29296 22.490099 
L 507.942983 22.490099 
L 507.942983 21.442244 
L 511.294958 21.442244 
L 511.294958 20.394389 
L 519.778148 20.394389 
L 519.778148 19.346535 
L 523.19888 19.346535 
L 523.19888 18.29868 
L 523.76067 18.29868 
L 523.76067 17.250825 
L 525.087888 17.250825 
L 525.087888 16.20297 
L 525.937234 16.20297 
L 525.937234 15.155116 
L 526.205391 15.155116 
L 526.205391 14.107261 
L 527.59393 14.107261 
L 527.59393 13.059406 
L 528.376354 13.059406 
L 528.376354 12.011551 
L 529.885282 12.011551 
L 529.885282 10.963696 
L 530.589824 10.963696 
L 530.589824 9.915842 
L 534.062108 9.915842 
L 534.062108 8.867987 
L 534.178925 8.867987 
L 534.178925 7.820132 
L 535.99569 7.820132 
L 535.99569 6.772277 
L 535.99569 6.772277 
L 567.24 6.772277 
L 567.24 6.772277 
" style="fill:none;stroke:#ff0000;stroke-linecap:square;stroke-width:3.0;"/>
   </g>
   <g id="line2d_2">
    <path clip-path="url(#pcd1a9e66b5)" d="M 248.424348 384 
L 248.424348 382.952145 
L 248.424348 382.952145 
L 248.424348 382.952145 
L 248.428551 382.952145 
L 248.480852 368.282178 
L 300.656841 368.282178 
L 300.656841 367.234323 
L 301.187283 367.234323 
L 301.187283 366.186469 
L 302.589182 366.186469 
L 302.589182 365.138614 
L 303.562492 365.138614 
L 303.562492 364.090759 
L 304.429 364.090759 
L 304.429 363.042904 
L 304.712642 363.042904 
L 304.810787 360.947195 
L 306.583675 360.947195 
L 306.583675 359.89934 
L 306.805731 359.89934 
L 306.911035 356.755776 
L 306.963519 356.755776 
L 306.963519 355.707921 
L 307.435948 355.707921 
L 307.51866 353.612211 
L 307.916691 353.612211 
L 307.916691 352.564356 
L 308.131444 352.564356 
L 308.194389 350.468647 
L 308.391015 350.468647 
L 308.444806 348.372937 
L 308.902235 348.372937 
L 308.902235 347.325083 
L 309.227981 347.325083 
L 309.227981 346.277228 
L 309.872543 346.277228 
L 309.872543 345.229373 
L 310.192529 345.229373 
L 310.192529 344.181518 
L 311.516566 344.181518 
L 311.622122 342.085809 
L 313.00896 342.085809 
L 313.00896 341.037954 
L 314.394449 341.037954 
L 314.394449 339.990099 
L 315.767738 339.990099 
L 315.767738 338.942244 
L 316.588179 338.942244 
L 316.588179 337.894389 
L 319.07408 337.894389 
L 319.07408 336.846535 
L 319.99703 336.846535 
L 320.019586 334.750825 
L 320.434076 334.750825 
L 320.538399 332.655116 
L 321.370435 332.655116 
L 321.458069 330.559406 
L 322.176556 330.559406 
L 322.176556 329.511551 
L 323.290403 329.511551 
L 323.311551 327.415842 
L 324.21799 327.415842 
L 324.21799 326.367987 
L 324.335232 326.367987 
L 324.335232 325.320132 
L 324.587417 325.320132 
L 324.587417 324.272277 
L 325.08201 324.272277 
L 325.08201 323.224422 
L 325.286902 323.224422 
L 325.286902 322.176568 
L 325.411004 322.176568 
L 325.411004 321.128713 
L 325.631004 321.128713 
L 325.631004 320.080858 
L 326.085078 320.080858 
L 326.085078 319.033003 
L 326.223199 319.033003 
L 326.223199 317.985149 
L 326.343136 317.985149 
L 326.387776 315.889439 
L 326.723574 315.889439 
L 326.723574 314.841584 
L 327.330876 314.841584 
L 327.330876 313.793729 
L 327.655477 313.793729 
L 327.655477 312.745875 
L 328.011562 312.745875 
L 328.011562 311.69802 
L 328.551033 311.69802 
L 328.62322 309.60231 
L 329.228558 309.60231 
L 329.228558 308.554455 
L 329.404189 308.554455 
L 329.495283 306.458746 
L 329.639238 306.458746 
L 329.6439 304.363036 
L 329.939554 304.363036 
L 329.939554 303.315182 
L 330.104822 303.315182 
L 330.193806 300.171617 
L 330.30702 300.171617 
L 330.404795 295.980198 
L 330.795244 295.980198 
L 330.795244 294.932343 
L 330.974832 294.932343 
L 330.993409 292.836634 
L 331.106363 292.836634 
L 331.180227 290.740924 
L 331.390475 290.740924 
L 331.390475 289.693069 
L 331.536641 289.693069 
L 331.645968 286.549505 
L 331.667479 286.549505 
L 331.764998 279.214521 
L 331.840308 279.214521 
L 331.946402 273.975248 
L 332.122125 273.975248 
L 332.138707 270.831683 
L 332.277808 270.831683 
L 332.349521 267.688119 
L 332.482032 267.688119 
L 332.482032 266.640264 
L 332.886217 266.640264 
L 332.886217 265.592409 
L 333.016072 265.592409 
L 333.016072 264.544554 
L 333.291108 264.544554 
L 333.291108 263.4967 
L 333.682588 263.4967 
L 333.682588 262.448845 
L 333.797365 262.448845 
L 333.797365 261.40099 
L 334.376543 261.40099 
L 334.474498 259.305281 
L 334.882797 259.305281 
L 334.882797 258.257426 
L 335.962305 258.257426 
L 336.030911 256.161716 
L 336.175317 256.161716 
L 336.189178 254.066007 
L 336.38718 254.066007 
L 336.38718 253.018152 
L 337.609843 253.018152 
L 337.609843 251.970297 
L 337.850944 251.970297 
L 337.889839 235.20462 
L 338.417917 235.20462 
L 338.417917 234.156766 
L 338.590929 234.156766 
L 338.590929 233.108911 
L 338.920268 233.108911 
L 338.920268 232.061056 
L 340.368286 232.061056 
L 340.368286 231.013201 
L 340.695252 231.013201 
L 340.695252 229.965347 
L 341.390476 229.965347 
L 341.456071 227.869637 
L 346.063887 227.869637 
L 346.063887 226.821782 
L 348.946033 226.821782 
L 349.055949 224.726073 
L 350.491936 224.726073 
L 350.491936 223.678218 
L 351.064497 223.678218 
L 351.064497 222.630363 
L 351.298626 222.630363 
L 351.298626 221.582508 
L 351.508471 221.582508 
L 351.508471 220.534653 
L 351.924643 220.534653 
L 351.924643 219.486799 
L 352.333855 219.486799 
L 352.404373 217.391089 
L 352.582772 217.391089 
L 352.665068 215.29538 
L 352.839819 215.29538 
L 352.839819 214.247525 
L 353.013551 214.247525 
L 353.013551 213.19967 
L 354.136943 213.19967 
L 354.136943 212.151815 
L 354.741142 212.151815 
L 354.808482 195.386139 
L 357.616556 195.386139 
L 357.616556 194.338284 
L 357.874674 194.338284 
L 357.874674 193.290429 
L 358.72937 193.290429 
L 358.837208 191.194719 
L 359.275524 191.194719 
L 359.351114 189.09901 
L 359.975163 189.09901 
L 359.975163 188.051155 
L 360.285966 188.051155 
L 360.285966 187.0033 
L 360.768212 187.0033 
L 360.768212 185.955446 
L 360.941147 185.955446 
L 361.024797 183.859736 
L 361.106129 183.859736 
L 361.1977 181.764026 
L 361.375427 181.764026 
L 361.471454 179.668317 
L 361.604091 179.668317 
L 361.689241 176.524752 
L 361.719976 176.524752 
L 361.830935 174.429043 
L 362.346663 174.429043 
L 362.381465 172.333333 
L 362.77485 172.333333 
L 362.776058 170.237624 
L 362.979973 170.237624 
L 362.986019 168.141914 
L 363.170991 168.141914 
L 363.204334 164.99835 
L 363.349521 164.99835 
L 363.349521 163.950495 
L 363.519398 163.950495 
L 363.519398 162.90264 
L 363.674261 162.90264 
L 363.758068 159.759076 
L 364.19496 159.759076 
L 364.19496 158.711221 
L 364.458071 158.711221 
L 364.458594 156.615512 
L 364.75624 156.615512 
L 364.75624 155.567657 
L 365.078045 155.567657 
L 365.078045 154.519802 
L 365.258951 154.519802 
L 365.258951 153.471947 
L 365.371979 153.471947 
L 365.371979 152.424092 
L 365.93348 152.424092 
L 365.93348 151.376238 
L 366.72419 151.376238 
L 366.778306 147.184818 
L 367.003103 147.184818 
L 367.003103 146.136964 
L 367.265856 146.136964 
L 367.303451 144.041254 
L 367.561423 144.041254 
L 367.561423 142.993399 
L 368.627672 142.993399 
L 368.627672 141.945545 
L 370.655203 141.945545 
L 370.655203 140.89769 
L 371.006379 140.89769 
L 371.006379 139.849835 
L 372.948852 139.849835 
L 372.948852 138.80198 
L 373.122014 138.80198 
L 373.122014 137.754125 
L 373.634914 137.754125 
L 373.634914 136.706271 
L 376.127361 136.706271 
L 376.16853 134.610561 
L 376.310464 134.610561 
L 376.404907 132.514851 
L 377.498208 132.514851 
L 377.498208 131.466997 
L 378.173495 131.466997 
L 378.173495 130.419142 
L 378.292428 130.419142 
L 378.292428 129.371287 
L 378.52204 129.371287 
L 378.52204 128.323432 
L 379.334312 128.323432 
L 379.418161 126.227723 
L 379.469903 126.227723 
L 379.470681 124.132013 
L 379.974192 124.132013 
L 379.974192 123.084158 
L 380.411673 123.084158 
L 380.411673 122.036304 
L 380.667284 122.036304 
L 380.667284 120.988449 
L 380.963576 120.988449 
L 381.014461 118.892739 
L 382.114822 118.892739 
L 382.149461 116.79703 
L 409.973432 116.79703 
L 409.973432 101.079208 
L 414.719637 101.079208 
L 414.719637 100.031353 
L 415.053013 100.031353 
L 415.053013 98.983498 
L 415.861195 98.983498 
L 415.861195 97.935644 
L 417.32579 97.935644 
L 417.32579 96.887789 
L 419.700153 96.887789 
L 419.700153 95.839934 
L 420.937735 95.839934 
L 420.937735 94.792079 
L 423.552621 94.792079 
L 423.552621 93.744224 
L 424.40825 93.744224 
L 424.482824 91.648515 
L 425.771404 91.648515 
L 425.836102 89.552805 
L 426.125421 89.552805 
L 426.125421 88.50495 
L 429.113815 88.50495 
L 429.113815 87.457096 
L 430.42142 87.457096 
L 430.42142 86.409241 
L 430.92361 86.409241 
L 430.92361 85.361386 
L 431.819831 85.361386 
L 431.819831 84.313531 
L 438.342592 84.313531 
L 438.342592 83.265677 
L 441.868651 83.265677 
L 441.868651 82.217822 
L 444.33806 82.217822 
L 444.33806 81.169967 
L 449.346844 81.169967 
L 449.346844 80.122112 
L 449.726641 80.122112 
L 449.726641 79.074257 
L 451.600314 79.074257 
L 451.600314 78.026403 
L 452.955947 78.026403 
L 452.955947 76.978548 
L 453.604854 76.978548 
L 453.604854 75.930693 
L 454.701664 75.930693 
L 454.701664 74.882838 
L 458.012267 74.882838 
L 458.012267 73.834983 
L 459.502705 73.834983 
L 459.502705 72.787129 
L 459.713741 72.787129 
L 459.72303 70.691419 
L 461.301044 70.691419 
L 461.301044 69.643564 
L 462.362101 69.643564 
L 462.44108 67.547855 
L 463.95527 67.547855 
L 463.95527 66.5 
L 467.655153 66.5 
L 467.655153 65.452145 
L 469.262619 65.452145 
L 469.262619 64.40429 
L 473.267065 64.40429 
L 473.267065 63.356436 
L 476.697443 63.356436 
L 476.697443 62.308581 
L 477.520746 62.308581 
L 477.520746 61.260726 
L 479.714225 61.260726 
L 479.714225 60.212871 
L 480.970538 60.212871 
L 480.970538 59.165017 
L 481.312584 59.165017 
L 481.312584 58.117162 
L 481.457479 58.117162 
L 481.457479 57.069307 
L 484.659351 57.069307 
L 484.659351 56.021452 
L 485.598257 56.021452 
L 485.598257 54.973597 
L 486.854819 54.973597 
L 486.854819 53.925743 
L 487.493638 53.925743 
L 487.493638 52.877888 
L 487.811401 52.877888 
L 487.811401 51.830033 
L 489.02076 51.830033 
L 489.02076 50.782178 
L 490.732176 50.782178 
L 490.807362 48.686469 
L 493.531777 48.686469 
L 493.531777 47.638614 
L 496.067942 47.638614 
L 496.121281 45.542904 
L 496.28769 45.542904 
L 496.28769 44.49505 
L 496.520812 44.49505 
L 496.520812 43.447195 
L 497.150942 43.447195 
L 497.150942 42.39934 
L 497.357716 42.39934 
L 497.357716 41.351485 
L 498.742311 41.351485 
L 498.742311 40.30363 
L 499.257249 40.30363 
L 499.276807 38.207921 
L 499.836006 38.207921 
L 499.906877 36.112211 
L 500.74604 36.112211 
L 500.74604 35.064356 
L 501.839539 35.064356 
L 501.839539 34.016502 
L 502.228509 34.016502 
L 502.322007 31.920792 
L 503.205644 31.920792 
L 503.205644 30.872937 
L 503.363516 30.872937 
L 503.363516 29.825083 
L 503.706523 29.825083 
L 503.706523 28.777228 
L 504.894139 28.777228 
L 504.894139 27.729373 
L 507.211194 27.729373 
L 507.211194 26.681518 
L 508.895333 26.681518 
L 508.895333 25.633663 
L 510.690379 25.633663 
L 510.690379 24.585809 
L 510.857989 24.585809 
L 510.857989 23.537954 
L 516.792754 23.537954 
L 516.792754 22.490099 
L 532.684565 22.490099 
L 532.684565 21.442244 
L 533.404104 21.442244 
L 533.404104 20.394389 
L 541.077592 20.394389 
L 541.077592 19.346535 
L 541.371496 19.346535 
L 541.371496 18.29868 
L 542.327984 18.29868 
L 542.327984 17.250825 
L 542.563431 17.250825 
L 542.563431 16.20297 
L 544.336904 16.20297 
L 544.336904 15.155116 
L 549.187249 15.155116 
L 549.187249 14.107261 
L 551.691506 14.107261 
L 551.691506 13.059406 
L 555.031843 13.059406 
L 555.031843 12.011551 
L 556.750537 12.011551 
L 556.750537 10.963696 
L 558.735548 10.963696 
L 558.735548 9.915842 
L 558.94969 9.915842 
L 558.94969 8.867987 
L 559.607689 8.867987 
L 559.607689 7.820132 
L 560.109009 7.820132 
L 560.109009 6.772277 
L 560.109009 6.772277 
L 567.24 6.772277 
L 567.24 6.772277 
" style="fill:none;stroke:#00bfbf;stroke-linecap:square;"/>
   </g>
   <g id="line2d_3">
    <path clip-path="url(#pcd1a9e66b5)" d="M 248.407631 384 
L 248.407631 382.952145 
L 248.407631 382.952145 
L 248.407631 382.952145 
L 248.411073 382.952145 
L 248.452104 368.282178 
L 300.656841 368.282178 
L 300.656841 367.234323 
L 301.077425 367.234323 
L 301.077425 366.186469 
L 302.589182 366.186469 
L 302.589182 365.138614 
L 303.506698 365.138614 
L 303.506698 364.090759 
L 304.411399 364.090759 
L 304.411399 363.042904 
L 304.711541 363.042904 
L 304.80968 360.947195 
L 306.519615 360.947195 
L 306.519615 359.89934 
L 306.805731 359.89934 
L 306.910494 356.755776 
L 306.962371 356.755776 
L 306.962371 355.707921 
L 307.40734 355.707921 
L 307.517999 353.612211 
L 307.915725 353.612211 
L 307.915725 352.564356 
L 308.108608 352.564356 
L 308.193458 350.468647 
L 308.388481 350.468647 
L 308.443404 348.372937 
L 308.901634 348.372937 
L 308.901634 347.325083 
L 309.227296 347.325083 
L 309.227296 346.277228 
L 309.696277 346.277228 
L 309.696277 345.229373 
L 310.185068 345.229373 
L 310.185068 344.181518 
L 311.515232 344.181518 
L 311.581631 342.085809 
L 312.967523 342.085809 
L 312.967523 341.037954 
L 314.394038 341.037954 
L 314.394038 339.990099 
L 315.767738 339.990099 
L 315.767738 338.942244 
L 316.554045 338.942244 
L 316.554045 337.894389 
L 319.073527 337.894389 
L 319.073527 336.846535 
L 319.993414 336.846535 
L 320.019527 334.750825 
L 320.433809 334.750825 
L 320.538323 332.655116 
L 321.370435 332.655116 
L 321.458069 330.559406 
L 322.172568 330.559406 
L 322.172568 329.511551 
L 323.249725 329.511551 
L 323.310141 327.415842 
L 324.217626 327.415842 
L 324.217626 326.367987 
L 324.334958 326.367987 
L 324.334958 325.320132 
L 324.586579 325.320132 
L 324.586579 324.272277 
L 325.08201 324.272277 
L 325.08201 323.224422 
L 325.286786 323.224422 
L 325.286786 322.176568 
L 325.41088 322.176568 
L 325.41088 321.128713 
L 325.630552 321.128713 
L 325.630552 320.080858 
L 326.08471 320.080858 
L 326.08471 319.033003 
L 326.219817 319.033003 
L 326.219817 317.985149 
L 326.343106 317.985149 
L 326.385798 315.889439 
L 326.698869 315.889439 
L 326.698869 314.841584 
L 327.328736 314.841584 
L 327.328736 313.793729 
L 327.644926 313.793729 
L 327.644926 312.745875 
L 327.996794 312.745875 
L 327.996794 311.69802 
L 328.534336 311.69802 
L 328.613298 309.60231 
L 329.224432 309.60231 
L 329.224432 308.554455 
L 329.404092 308.554455 
L 329.495235 306.458746 
L 329.632731 306.458746 
L 329.638562 304.363036 
L 329.939398 304.363036 
L 329.939398 303.315182 
L 330.104822 303.315182 
L 330.193806 300.171617 
L 330.306989 300.171617 
L 330.404742 295.980198 
L 330.795231 295.980198 
L 330.795231 294.932343 
L 330.974801 294.932343 
L 330.993386 292.836634 
L 331.106318 292.836634 
L 331.180213 290.740924 
L 331.390475 290.740924 
L 331.390475 289.693069 
L 331.536625 289.693069 
L 331.645949 286.549505 
L 331.667479 286.549505 
L 331.755026 279.214521 
L 331.840308 279.214521 
L 331.946384 273.975248 
L 332.122106 273.975248 
L 332.138688 270.831683 
L 332.277751 270.831683 
L 332.349507 267.688119 
L 332.482027 267.688119 
L 332.482027 266.640264 
L 332.886217 266.640264 
L 332.886217 265.592409 
L 333.01599 265.592409 
L 333.01599 264.544554 
L 333.290926 264.544554 
L 333.290926 263.4967 
L 333.682522 263.4967 
L 333.682522 262.448845 
L 333.797365 262.448845 
L 333.797365 261.40099 
L 334.376309 261.40099 
L 334.474392 259.305281 
L 334.882701 259.305281 
L 334.882701 258.257426 
L 335.962236 258.257426 
L 336.030911 256.161716 
L 336.167415 256.161716 
L 336.175182 254.066007 
L 336.38643 254.066007 
L 336.38643 253.018152 
L 337.594901 253.018152 
L 337.594901 251.970297 
L 337.850819 251.970297 
L 337.889371 235.20462 
L 338.417896 235.20462 
L 338.417896 234.156766 
L 338.590857 234.156766 
L 338.590857 233.108911 
L 338.920261 233.108911 
L 338.920261 232.061056 
L 340.368286 232.061056 
L 340.368286 231.013201 
L 340.694808 231.013201 
L 340.694808 229.965347 
L 341.389891 229.965347 
L 341.454241 227.869637 
L 346.06216 227.869637 
L 346.06216 226.821782 
L 348.943025 226.821782 
L 349.053807 224.726073 
L 350.491936 224.726073 
L 350.491936 223.678218 
L 351.064497 223.678218 
L 351.064497 222.630363 
L 351.295757 222.630363 
L 351.295757 221.582508 
L 351.506948 221.582508 
L 351.506948 220.534653 
L 351.922581 220.534653 
L 351.922581 219.486799 
L 352.329895 219.486799 
L 352.391664 217.391089 
L 352.575777 217.391089 
L 352.665068 215.29538 
L 352.834148 215.29538 
L 352.834148 214.247525 
L 353.009872 214.247525 
L 353.009872 213.19967 
L 354.13491 213.19967 
L 354.13491 212.151815 
L 354.739511 212.151815 
L 354.80843 195.386139 
L 357.616556 195.386139 
L 357.616556 194.338284 
L 357.874001 194.338284 
L 357.874001 193.290429 
L 358.728802 193.290429 
L 358.836439 191.194719 
L 359.274993 191.194719 
L 359.350048 189.09901 
L 359.974516 189.09901 
L 359.974516 188.051155 
L 360.285239 188.051155 
L 360.285239 187.0033 
L 360.767004 187.0033 
L 360.767004 185.955446 
L 360.941112 185.955446 
L 361.024797 183.859736 
L 361.10548 183.859736 
L 361.197004 181.764026 
L 361.374102 181.764026 
L 361.471152 179.668317 
L 361.603148 179.668317 
L 361.688824 176.524752 
L 361.718918 176.524752 
L 361.718918 175.476898 
L 361.830732 175.476898 
L 361.830732 174.429043 
L 362.346069 174.429043 
L 362.381253 172.333333 
L 362.773994 172.333333 
L 362.775163 170.237624 
L 362.979236 170.237624 
L 362.985617 168.141914 
L 363.170991 168.141914 
L 363.201639 164.99835 
L 363.349165 164.99835 
L 363.349165 163.950495 
L 363.51937 163.950495 
L 363.51937 162.90264 
L 363.673735 162.90264 
L 363.758019 159.759076 
L 364.194538 159.759076 
L 364.194538 158.711221 
L 364.457722 158.711221 
L 364.458071 156.615512 
L 364.75624 156.615512 
L 364.75624 155.567657 
L 365.077408 155.567657 
L 365.077408 154.519802 
L 365.258365 154.519802 
L 365.258365 153.471947 
L 365.371979 153.471947 
L 365.371979 152.424092 
L 365.93348 152.424092 
L 365.93348 151.376238 
L 366.723411 151.376238 
L 366.77748 147.184818 
L 367.003103 147.184818 
L 367.003103 146.136964 
L 367.265531 146.136964 
L 367.302576 144.041254 
L 367.560501 144.041254 
L 367.560501 142.993399 
L 368.62586 142.993399 
L 368.62586 141.945545 
L 370.655203 141.945545 
L 370.655203 140.89769 
L 371.005904 140.89769 
L 371.005904 139.849835 
L 372.948852 139.849835 
L 372.948852 138.80198 
L 373.122014 138.80198 
L 373.122014 137.754125 
L 373.634744 137.754125 
L 373.634744 136.706271 
L 376.127347 136.706271 
L 376.16853 134.610561 
L 376.31036 134.610561 
L 376.404907 132.514851 
L 377.498104 132.514851 
L 377.498104 131.466997 
L 378.173475 131.466997 
L 378.173475 130.419142 
L 378.292308 130.419142 
L 378.292308 129.371287 
L 378.521996 129.371287 
L 378.521996 128.323432 
L 379.333834 128.323432 
L 379.418161 126.227723 
L 379.469793 126.227723 
L 379.470574 124.132013 
L 379.974061 124.132013 
L 379.974061 123.084158 
L 380.411673 123.084158 
L 380.411673 122.036304 
L 380.667284 122.036304 
L 380.667284 120.988449 
L 380.96353 120.988449 
L 381.014451 118.892739 
L 382.114822 118.892739 
L 382.149446 116.79703 
L 409.970839 116.79703 
L 409.971879 101.079208 
L 414.718579 101.079208 
L 414.718579 100.031353 
L 415.050766 100.031353 
L 415.050766 98.983498 
L 415.859695 98.983498 
L 415.859695 97.935644 
L 417.318396 97.935644 
L 417.318396 96.887789 
L 419.698204 96.887789 
L 419.698204 95.839934 
L 420.937071 95.839934 
L 420.937071 94.792079 
L 423.550993 94.792079 
L 423.550993 93.744224 
L 424.407214 93.744224 
L 424.481656 91.648515 
L 425.770613 91.648515 
L 425.835295 89.552805 
L 426.12405 89.552805 
L 426.12405 88.50495 
L 429.113085 88.50495 
L 429.113085 87.457096 
L 430.420976 87.457096 
L 430.420976 86.409241 
L 430.922956 86.409241 
L 430.922956 85.361386 
L 431.819369 85.361386 
L 431.819369 84.313531 
L 438.341762 84.313531 
L 438.341762 83.265677 
L 441.868249 83.265677 
L 441.868249 82.217822 
L 444.336435 82.217822 
L 444.336435 81.169967 
L 449.343935 81.169967 
L 449.343935 80.122112 
L 449.726379 80.122112 
L 449.726379 79.074257 
L 451.600047 79.074257 
L 451.600047 78.026403 
L 452.955782 78.026403 
L 452.955782 76.978548 
L 453.604854 76.978548 
L 453.604854 75.930693 
L 454.701061 75.930693 
L 454.701061 74.882838 
L 458.006691 74.882838 
L 458.006691 73.834983 
L 459.502705 73.834983 
L 459.502705 72.787129 
L 459.713741 72.787129 
L 459.72303 70.691419 
L 461.300998 70.691419 
L 461.300998 69.643564 
L 462.361903 69.643564 
L 462.4389 67.547855 
L 463.955059 67.547855 
L 463.955059 66.5 
L 467.655087 66.5 
L 467.655087 65.452145 
L 469.262535 65.452145 
L 469.262535 64.40429 
L 473.266158 64.40429 
L 473.266158 63.356436 
L 476.697443 63.356436 
L 476.697443 62.308581 
L 477.51988 62.308581 
L 477.51988 61.260726 
L 479.713791 61.260726 
L 479.713791 60.212871 
L 480.970362 60.212871 
L 480.970362 59.165017 
L 481.311536 59.165017 
L 481.311536 58.117162 
L 481.456216 58.117162 
L 481.456216 57.069307 
L 484.658096 57.069307 
L 484.658096 56.021452 
L 485.597308 56.021452 
L 485.597308 54.973597 
L 486.854819 54.973597 
L 486.854819 53.925743 
L 487.492392 53.925743 
L 487.492392 52.877888 
L 487.809798 52.877888 
L 487.809798 51.830033 
L 489.019686 51.830033 
L 489.019686 50.782178 
L 490.731843 50.782178 
L 490.807054 48.686469 
L 493.530401 48.686469 
L 493.530401 47.638614 
L 496.067363 47.638614 
L 496.119556 45.542904 
L 496.287274 45.542904 
L 496.287274 44.49505 
L 496.520678 44.49505 
L 496.520678 43.447195 
L 497.148896 43.447195 
L 497.148896 42.39934 
L 497.356402 42.39934 
L 497.356402 41.351485 
L 498.742311 41.351485 
L 498.742311 40.30363 
L 499.256507 40.30363 
L 499.276805 38.207921 
L 499.83591 38.207921 
L 499.904543 36.112211 
L 500.74604 36.112211 
L 500.74604 35.064356 
L 501.838267 35.064356 
L 501.838267 34.016502 
L 502.227576 34.016502 
L 502.322007 31.920792 
L 503.205527 31.920792 
L 503.205527 30.872937 
L 503.361574 30.872937 
L 503.361574 29.825083 
L 503.704831 29.825083 
L 503.704831 28.777228 
L 504.893723 28.777228 
L 504.893723 27.729373 
L 507.210075 27.729373 
L 507.210075 26.681518 
L 508.893581 26.681518 
L 508.893581 25.633663 
L 510.68882 25.633663 
L 510.68882 24.585809 
L 510.856384 24.585809 
L 510.856384 23.537954 
L 516.792754 23.537954 
L 516.792754 22.490099 
L 532.684353 22.490099 
L 532.684353 21.442244 
L 533.403693 21.442244 
L 533.403693 20.394389 
L 541.077189 20.394389 
L 541.077189 19.346535 
L 541.371084 19.346535 
L 541.371084 18.29868 
L 542.327664 18.29868 
L 542.327664 17.250825 
L 542.562549 17.250825 
L 542.562549 16.20297 
L 544.336422 16.20297 
L 544.336422 15.155116 
L 549.186436 15.155116 
L 549.186436 14.107261 
L 551.691419 14.107261 
L 551.691419 13.059406 
L 555.031764 13.059406 
L 555.031764 12.011551 
L 556.74995 12.011551 
L 556.74995 10.963696 
L 558.735548 10.963696 
L 558.735548 9.915842 
L 558.949485 9.915842 
L 558.949485 8.867987 
L 559.607263 8.867987 
L 559.607263 7.820132 
L 560.109009 7.820132 
L 560.109009 6.772277 
L 560.109009 6.772277 
L 567.24 6.772277 
L 567.24 6.772277 
" style="fill:none;stroke:#bf00bf;stroke-linecap:square;"/>
   </g>
   <g id="line2d_4">
    <path clip-path="url(#pcd1a9e66b5)" d="M 248.138873 384 
L 248.138873 382.952145 
L 248.138873 382.952145 
L 248.138873 382.952145 
L 248.178718 382.952145 
L 248.287541 369.330033 
L 248.295203 369.330033 
L 248.295203 368.282178 
L 300.255956 368.282178 
L 300.255956 367.234323 
L 300.550387 367.234323 
L 300.550387 366.186469 
L 301.874641 366.186469 
L 301.874641 365.138614 
L 303.124972 365.138614 
L 303.124972 364.090759 
L 303.986572 364.090759 
L 303.986572 363.042904 
L 304.698876 363.042904 
L 304.800166 360.947195 
L 306.040288 360.947195 
L 306.040288 359.89934 
L 306.551105 359.89934 
L 306.551105 358.851485 
L 306.872655 358.851485 
L 306.952309 354.660066 
L 307.402252 354.660066 
L 307.504889 352.564356 
L 307.909877 352.564356 
L 307.909877 351.516502 
L 308.18597 351.516502 
L 308.18597 350.468647 
L 308.378627 350.468647 
L 308.433282 348.372937 
L 308.777406 348.372937 
L 308.777406 347.325083 
L 308.89313 347.325083 
L 308.89313 346.277228 
L 309.224162 346.277228 
L 309.224162 345.229373 
L 309.845551 345.229373 
L 309.845551 344.181518 
L 311.250212 344.181518 
L 311.250212 343.133663 
L 311.503792 343.133663 
L 311.503792 342.085809 
L 312.567365 342.085809 
L 312.567365 341.037954 
L 314.390312 341.037954 
L 314.390312 339.990099 
L 315.563507 339.990099 
L 315.563507 338.942244 
L 316.336275 338.942244 
L 316.336275 337.894389 
L 319.070574 337.894389 
L 319.070574 336.846535 
L 319.952396 336.846535 
L 320.017045 334.750825 
L 320.430052 334.750825 
L 320.532904 332.655116 
L 321.367652 332.655116 
L 321.370798 330.559406 
L 322.14077 330.559406 
L 322.14077 329.511551 
L 323.214477 329.511551 
L 323.296167 327.415842 
L 324.215118 327.415842 
L 324.317149 325.320132 
L 324.572238 325.320132 
L 324.572238 324.272277 
L 325.079888 324.272277 
L 325.079888 323.224422 
L 325.284339 323.224422 
L 325.284339 322.176568 
L 325.408233 322.176568 
L 325.408233 321.128713 
L 325.626767 321.128713 
L 325.626767 320.080858 
L 326.082456 320.080858 
L 326.082456 319.033003 
L 326.200894 319.033003 
L 326.200894 317.985149 
L 326.332897 317.985149 
L 326.375056 315.889439 
L 326.646632 315.889439 
L 326.646632 314.841584 
L 327.31031 314.841584 
L 327.31031 313.793729 
L 327.617674 313.793729 
L 327.617674 312.745875 
L 327.978774 312.745875 
L 327.978774 311.69802 
L 328.495108 311.69802 
L 328.568707 309.60231 
L 329.199829 309.60231 
L 329.199829 308.554455 
L 329.403129 308.554455 
L 329.494409 306.458746 
L 329.561569 306.458746 
L 329.63502 304.363036 
L 329.935973 304.363036 
L 329.935973 303.315182 
L 330.103208 303.315182 
L 330.167493 300.171617 
L 330.250252 300.171617 
L 330.311378 297.028053 
L 330.404284 297.028053 
L 330.404284 295.980198 
L 330.79482 295.980198 
L 330.79482 294.932343 
L 330.974227 294.932343 
L 330.992588 292.836634 
L 331.105967 292.836634 
L 331.179835 290.740924 
L 331.390137 290.740924 
L 331.390137 289.693069 
L 331.536217 289.693069 
L 331.645651 286.549505 
L 331.667175 286.549505 
L 331.754681 279.214521 
L 331.838628 279.214521 
L 331.946256 273.975248 
L 332.121945 273.975248 
L 332.224652 269.783828 
L 332.277631 269.783828 
L 332.349427 267.688119 
L 332.481942 267.688119 
L 332.481942 266.640264 
L 332.883161 266.640264 
L 332.883161 265.592409 
L 333.014518 265.592409 
L 333.014518 264.544554 
L 333.289246 264.544554 
L 333.289246 263.4967 
L 333.680951 263.4967 
L 333.762302 261.40099 
L 334.374711 261.40099 
L 334.472828 259.305281 
L 334.881158 259.305281 
L 334.881158 258.257426 
L 335.96082 258.257426 
L 336.029554 256.161716 
L 336.135918 256.161716 
L 336.173618 254.066007 
L 336.370613 254.066007 
L 336.370613 253.018152 
L 337.570284 253.018152 
L 337.570284 251.970297 
L 337.849417 251.970297 
L 337.886115 235.20462 
L 338.416612 235.20462 
L 338.416612 234.156766 
L 338.589675 234.156766 
L 338.589675 233.108911 
L 338.91901 233.108911 
L 338.91901 232.061056 
L 340.367093 232.061056 
L 340.367093 231.013201 
L 340.692137 231.013201 
L 340.692137 229.965347 
L 341.382125 229.965347 
L 341.443503 227.869637 
L 346.018626 227.869637 
L 346.018626 226.821782 
L 348.912184 226.821782 
L 348.998432 224.726073 
L 350.463329 224.726073 
L 350.463329 223.678218 
L 351.007786 223.678218 
L 351.007786 222.630363 
L 351.264377 222.630363 
L 351.264377 221.582508 
L 351.467287 221.582508 
L 351.467287 220.534653 
L 351.873734 220.534653 
L 351.873734 219.486799 
L 352.290509 219.486799 
L 352.35909 217.391089 
L 352.543658 217.391089 
L 352.621272 215.29538 
L 352.79758 215.29538 
L 352.79758 214.247525 
L 352.947815 214.247525 
L 352.947815 213.19967 
L 354.104125 213.19967 
L 354.104125 212.151815 
L 354.708299 212.151815 
L 354.808083 195.386139 
L 357.616556 195.386139 
L 357.616556 194.338284 
L 357.866612 194.338284 
L 357.866612 193.290429 
L 358.723016 193.290429 
L 358.83198 191.194719 
L 359.26913 191.194719 
L 359.34604 189.09901 
L 359.969303 189.09901 
L 359.969303 188.051155 
L 360.280511 188.051155 
L 360.280511 187.0033 
L 360.761554 187.0033 
L 360.761554 185.955446 
L 360.936198 185.955446 
L 361.024797 183.859736 
L 361.099838 183.859736 
L 361.190145 181.764026 
L 361.368769 181.764026 
L 361.467486 179.668317 
L 361.599027 179.668317 
L 361.684605 176.524752 
L 361.715338 176.524752 
L 361.715338 175.476898 
L 361.826935 175.476898 
L 361.826935 174.429043 
L 362.340855 174.429043 
L 362.377701 172.333333 
L 362.767608 172.333333 
L 362.769998 170.237624 
L 362.976968 170.237624 
L 362.980013 168.141914 
L 363.170991 168.141914 
L 363.195507 164.99835 
L 363.346046 164.99835 
L 363.346046 163.950495 
L 363.514247 163.950495 
L 363.514247 162.90264 
L 363.670393 162.90264 
L 363.75447 159.759076 
L 364.189807 159.759076 
L 364.189807 158.711221 
L 364.454769 158.711221 
L 364.458071 156.615512 
L 364.75624 156.615512 
L 364.75624 155.567657 
L 365.075698 155.567657 
L 365.075698 154.519802 
L 365.253585 154.519802 
L 365.253585 153.471947 
L 365.371979 153.471947 
L 365.371979 152.424092 
L 365.93348 152.424092 
L 365.93348 151.376238 
L 366.720652 151.376238 
L 366.774374 147.184818 
L 367.003103 147.184818 
L 367.003103 146.136964 
L 367.262212 146.136964 
L 367.29933 144.041254 
L 367.554404 144.041254 
L 367.554404 142.993399 
L 368.621891 142.993399 
L 368.621891 141.945545 
L 370.655203 141.945545 
L 370.655203 140.89769 
L 370.999586 140.89769 
L 370.999586 139.849835 
L 372.948852 139.849835 
L 372.948852 138.80198 
L 373.122014 138.80198 
L 373.122014 137.754125 
L 373.633597 137.754125 
L 373.633597 136.706271 
L 376.126209 136.706271 
L 376.16853 134.610561 
L 376.3095 134.610561 
L 376.404907 132.514851 
L 377.497188 132.514851 
L 377.497188 131.466997 
L 378.172718 131.466997 
L 378.172718 130.419142 
L 378.291611 130.419142 
L 378.291611 129.371287 
L 378.521118 129.371287 
L 378.521118 128.323432 
L 379.331773 128.323432 
L 379.417329 126.227723 
L 379.469049 126.227723 
L 379.469671 124.132013 
L 379.973344 124.132013 
L 379.973344 123.084158 
L 380.411673 123.084158 
L 380.411673 122.036304 
L 380.666595 122.036304 
L 380.666595 120.988449 
L 380.962873 120.988449 
L 381.013687 118.892739 
L 382.114822 118.892739 
L 382.148732 116.79703 
L 409.963978 116.79703 
L 409.967318 101.079208 
L 414.714337 101.079208 
L 414.714337 100.031353 
L 415.04658 100.031353 
L 415.04658 98.983498 
L 415.85448 98.983498 
L 415.85448 97.935644 
L 417.267105 97.935644 
L 417.267105 96.887789 
L 419.69404 96.887789 
L 419.69404 95.839934 
L 420.933523 95.839934 
L 420.933523 94.792079 
L 423.547695 94.792079 
L 423.547695 93.744224 
L 424.403384 93.744224 
L 424.477341 91.648515 
L 425.76715 91.648515 
L 425.831939 89.552805 
L 426.120032 89.552805 
L 426.120032 88.50495 
L 429.110178 88.50495 
L 429.110178 87.457096 
L 430.418544 87.457096 
L 430.418544 86.409241 
L 430.920261 86.409241 
L 430.920261 85.361386 
L 431.816849 85.361386 
L 431.816849 84.313531 
L 438.337699 84.313531 
L 438.337699 83.265677 
L 441.86532 83.265677 
L 441.86532 82.217822 
L 444.308574 82.217822 
L 444.308574 81.169967 
L 449.330983 81.169967 
L 449.330983 80.122112 
L 449.724255 80.122112 
L 449.724255 79.074257 
L 451.598559 79.074257 
L 451.598559 78.026403 
L 452.953218 78.026403 
L 452.953218 76.978548 
L 453.602701 76.978548 
L 453.602701 75.930693 
L 454.698197 75.930693 
L 454.698197 74.882838 
L 457.985618 74.882838 
L 457.985618 73.834983 
L 459.502044 73.834983 
L 459.502044 72.787129 
L 459.713454 72.787129 
L 459.722738 70.691419 
L 461.298666 70.691419 
L 461.298666 69.643564 
L 462.359576 69.643564 
L 462.415503 67.547855 
L 463.951979 67.547855 
L 463.951979 66.5 
L 467.653395 66.5 
L 467.653395 65.452145 
L 469.262017 65.452145 
L 469.262017 64.40429 
L 473.259955 64.40429 
L 473.259955 63.356436 
L 476.684719 63.356436 
L 476.684719 62.308581 
L 477.511786 62.308581 
L 477.511786 61.260726 
L 479.710463 61.260726 
L 479.710463 60.212871 
L 480.960819 60.212871 
L 480.960819 59.165017 
L 481.302981 59.165017 
L 481.302981 58.117162 
L 481.444258 58.117162 
L 481.444258 57.069307 
L 484.652882 57.069307 
L 484.652882 56.021452 
L 485.584438 56.021452 
L 485.584438 54.973597 
L 486.84808 54.973597 
L 486.84808 53.925743 
L 487.490158 53.925743 
L 487.490158 52.877888 
L 487.807908 52.877888 
L 487.807908 51.830033 
L 489.015428 51.830033 
L 489.015428 50.782178 
L 490.729632 50.782178 
L 490.801055 48.686469 
L 493.523891 48.686469 
L 493.523891 47.638614 
L 496.062062 47.638614 
L 496.117878 45.542904 
L 496.283438 45.542904 
L 496.283438 44.49505 
L 496.517977 44.49505 
L 496.517977 43.447195 
L 497.147171 43.447195 
L 497.147171 42.39934 
L 497.355102 42.39934 
L 497.355102 41.351485 
L 498.739523 41.351485 
L 498.739523 40.30363 
L 499.255107 40.30363 
L 499.271205 38.207921 
L 499.834038 38.207921 
L 499.900449 36.112211 
L 500.742946 36.112211 
L 500.742946 35.064356 
L 501.837728 35.064356 
L 501.837728 34.016502 
L 502.22513 34.016502 
L 502.319079 31.920792 
L 503.202123 31.920792 
L 503.202123 30.872937 
L 503.359878 30.872937 
L 503.359878 29.825083 
L 503.704153 29.825083 
L 503.704153 28.777228 
L 504.889471 28.777228 
L 504.889471 27.729373 
L 507.208784 27.729373 
L 507.208784 26.681518 
L 508.890581 26.681518 
L 508.890581 25.633663 
L 510.686036 25.633663 
L 510.686036 24.585809 
L 510.853513 24.585809 
L 510.853513 23.537954 
L 516.790571 23.537954 
L 516.790571 22.490099 
L 532.681268 22.490099 
L 532.681268 21.442244 
L 533.400388 21.442244 
L 533.400388 20.394389 
L 541.073577 20.394389 
L 541.073577 19.346535 
L 541.366693 19.346535 
L 541.366693 18.29868 
L 542.325642 18.29868 
L 542.325642 17.250825 
L 542.559301 17.250825 
L 542.559301 16.20297 
L 544.334186 16.20297 
L 544.334186 15.155116 
L 549.182986 15.155116 
L 549.182986 14.107261 
L 551.687335 14.107261 
L 551.687335 13.059406 
L 555.025912 13.059406 
L 555.025912 12.011551 
L 556.743518 12.011551 
L 556.743518 10.963696 
L 558.732424 10.963696 
L 558.732424 9.915842 
L 558.945262 9.915842 
L 558.945262 8.867987 
L 559.601709 8.867987 
L 559.601709 7.820132 
L 560.104715 7.820132 
L 560.104715 6.772277 
L 560.104715 6.772277 
L 567.24 6.772277 
L 567.24 6.772277 
" style="fill:none;stroke:#000000;stroke-linecap:square;"/>
   </g>
   <g id="line2d_5">
    <path clip-path="url(#pcd1a9e66b5)" d="M 245.883857 384 
L 245.883857 382.952145 
L 246.410837 382.952145 
L 246.410837 381.90429 
L 246.528124 381.90429 
L 246.599138 378.760726 
L 246.667328 378.760726 
L 246.766067 375.617162 
L 246.811244 375.617162 
L 246.909189 370.377888 
L 247.22991 370.377888 
L 247.323031 368.282178 
L 294.043428 368.282178 
L 294.043428 367.234323 
L 295.084603 367.234323 
L 295.084603 366.186469 
L 299.978631 366.186469 
L 299.978631 365.138614 
L 301.020643 365.138614 
L 301.020643 364.090759 
L 301.9757 364.090759 
L 301.9757 363.042904 
L 302.651703 363.042904 
L 302.651703 361.99505 
L 303.141499 361.99505 
L 303.141499 360.947195 
L 303.717254 360.947195 
L 303.717254 359.89934 
L 303.978204 359.89934 
L 303.978204 358.851485 
L 304.45925 358.851485 
L 304.45925 357.80363 
L 304.596802 357.80363 
L 304.596802 356.755776 
L 305.068994 356.755776 
L 305.068994 355.707921 
L 306.372805 355.707921 
L 306.372805 354.660066 
L 306.72841 354.660066 
L 306.770703 352.564356 
L 307.207573 352.564356 
L 307.207573 351.516502 
L 307.734584 351.516502 
L 307.734584 350.468647 
L 307.978442 350.468647 
L 307.978442 349.420792 
L 308.148919 349.420792 
L 308.231771 346.277228 
L 308.707962 346.277228 
L 308.771955 344.181518 
L 309.132118 344.181518 
L 309.132118 343.133663 
L 309.718517 343.133663 
L 309.718517 342.085809 
L 311.030769 342.085809 
L 311.030769 341.037954 
L 311.301592 341.037954 
L 311.301592 339.990099 
L 314.3131 339.990099 
L 314.3131 338.942244 
L 315.08129 338.942244 
L 315.08129 337.894389 
L 318.988212 337.894389 
L 318.988212 336.846535 
L 319.17196 336.846535 
L 319.17196 335.79868 
L 319.965681 335.79868 
L 319.965681 334.750825 
L 320.354614 334.750825 
L 320.399802 332.655116 
L 321.260269 332.655116 
L 321.287503 330.559406 
L 321.49999 330.559406 
L 321.49999 329.511551 
L 322.959966 329.511551 
L 323.046869 327.415842 
L 323.960826 327.415842 
L 323.960826 326.367987 
L 324.143206 326.367987 
L 324.253866 324.272277 
L 325.014672 324.272277 
L 325.014672 323.224422 
L 325.235749 323.224422 
L 325.235749 322.176568 
L 325.356192 322.176568 
L 325.356192 321.128713 
L 325.523597 321.128713 
L 325.523597 320.080858 
L 325.640338 320.080858 
L 325.640338 319.033003 
L 326.017802 319.033003 
L 326.122891 315.889439 
L 326.349966 315.889439 
L 326.349966 314.841584 
L 326.871304 314.841584 
L 326.871304 313.793729 
L 327.582427 313.793729 
L 327.582427 312.745875 
L 327.945627 312.745875 
L 327.945627 311.69802 
L 328.313654 311.69802 
L 328.352694 309.60231 
L 328.486961 309.60231 
L 328.486961 308.554455 
L 329.384894 308.554455 
L 329.478394 306.458746 
L 329.536994 306.458746 
L 329.552781 304.363036 
L 329.715336 304.363036 
L 329.715336 303.315182 
L 329.866441 303.315182 
L 329.866441 302.267327 
L 330.067828 302.267327 
L 330.175145 299.123762 
L 330.296171 299.123762 
L 330.395281 295.980198 
L 330.541175 295.980198 
L 330.541175 294.932343 
L 330.786653 294.932343 
L 330.786653 293.884488 
L 330.961804 293.884488 
L 330.977085 291.788779 
L 331.097496 291.788779 
L 331.17214 289.693069 
L 331.38307 289.693069 
L 331.38307 288.645215 
L 331.528033 288.645215 
L 331.604071 285.50165 
L 331.639374 285.50165 
L 331.747889 278.166667 
L 331.830536 278.166667 
L 331.912465 275.023102 
L 331.942254 275.023102 
L 331.942254 273.975248 
L 332.118532 273.975248 
L 332.160294 269.783828 
L 332.272674 269.783828 
L 332.347773 267.688119 
L 332.48003 267.688119 
L 332.48003 266.640264 
L 332.821429 266.640264 
L 332.821429 265.592409 
L 332.983364 265.592409 
L 332.983364 264.544554 
L 333.2543 264.544554 
L 333.2543 263.4967 
L 333.646342 263.4967 
L 333.695462 261.40099 
L 334.343632 261.40099 
L 334.440165 259.305281 
L 334.849376 259.305281 
L 334.849376 258.257426 
L 335.932092 258.257426 
L 336.001244 256.161716 
L 336.087172 256.161716 
L 336.142844 253.018152 
L 337.543037 253.018152 
L 337.543037 251.970297 
L 337.779773 251.970297 
L 337.820824 235.20462 
L 338.386449 235.20462 
L 338.386449 234.156766 
L 338.56237 234.156766 
L 338.56237 233.108911 
L 338.892986 233.108911 
L 338.892986 232.061056 
L 340.339427 232.061056 
L 340.339427 231.013201 
L 340.629216 231.013201 
L 340.629216 229.965347 
L 341.256475 229.965347 
L 341.265909 227.869637 
L 345.150968 227.869637 
L 345.150968 226.821782 
L 347.849942 226.821782 
L 347.849942 225.773927 
L 348.199977 225.773927 
L 348.199977 224.726073 
L 349.633751 224.726073 
L 349.633751 223.678218 
L 349.856485 223.678218 
L 349.856485 222.630363 
L 350.656829 222.630363 
L 350.692516 220.534653 
L 350.829566 220.534653 
L 350.829566 219.486799 
L 351.404979 219.486799 
L 351.488721 217.391089 
L 351.640083 217.391089 
L 351.720474 214.247525 
L 351.758552 214.247525 
L 351.758552 213.19967 
L 353.531726 213.19967 
L 353.531726 212.151815 
L 353.926195 212.151815 
L 353.926195 211.10396 
L 354.798678 211.10396 
L 354.800914 195.386139 
L 357.616556 195.386139 
L 357.712494 193.290429 
L 358.603655 193.290429 
L 358.603655 192.242574 
L 358.750415 192.242574 
L 358.750415 191.194719 
L 359.146105 191.194719 
L 359.22855 189.09901 
L 359.858607 189.09901 
L 359.858607 188.051155 
L 360.183714 188.051155 
L 360.183714 187.0033 
L 360.650583 187.0033 
L 360.650583 185.955446 
L 360.838681 185.955446 
L 360.838681 184.907591 
L 360.986866 184.907591 
L 361.047243 181.764026 
L 361.226298 181.764026 
L 361.226298 180.716172 
L 361.38873 180.716172 
L 361.38873 179.668317 
L 361.506338 179.668317 
L 361.594408 176.524752 
L 361.62629 176.524752 
L 361.62629 175.476898 
L 361.748709 175.476898 
L 361.748709 174.429043 
L 362.24393 174.429043 
L 362.303523 172.333333 
L 362.635163 172.333333 
L 362.647914 170.237624 
L 362.845058 170.237624 
L 362.92316 168.141914 
L 363.006436 168.141914 
L 363.072886 166.046205 
L 363.170991 166.046205 
L 363.280034 163.950495 
L 363.394315 163.950495 
L 363.394315 162.90264 
L 363.601363 162.90264 
L 363.678504 159.759076 
L 364.083784 159.759076 
L 364.083784 158.711221 
L 364.361636 158.711221 
L 364.458071 156.615512 
L 364.75624 156.615512 
L 364.75624 155.567657 
L 365.030276 155.567657 
L 365.030276 154.519802 
L 365.160994 154.519802 
L 365.160994 153.471947 
L 365.371979 153.471947 
L 365.371979 152.424092 
L 365.93348 152.424092 
L 365.93348 151.376238 
L 366.581506 151.376238 
L 366.684322 147.184818 
L 367.003103 147.184818 
L 367.003103 146.136964 
L 367.190314 146.136964 
L 367.230251 144.041254 
L 367.422079 144.041254 
L 367.422079 142.993399 
L 368.439421 142.993399 
L 368.439421 141.945545 
L 370.655203 141.945545 
L 370.655203 140.89769 
L 370.872123 140.89769 
L 370.872123 139.849835 
L 372.948852 139.849835 
L 372.948852 138.80198 
L 373.122014 138.80198 
L 373.122014 137.754125 
L 373.609925 137.754125 
L 373.609925 136.706271 
L 376.10303 136.706271 
L 376.16853 134.610561 
L 376.292774 134.610561 
L 376.292774 133.562706 
L 376.404907 133.562706 
L 376.404907 132.514851 
L 377.479433 132.514851 
L 377.479433 131.466997 
L 378.156907 131.466997 
L 378.156907 130.419142 
L 378.272076 130.419142 
L 378.272076 129.371287 
L 378.499428 129.371287 
L 378.499428 128.323432 
L 379.265894 128.323432 
L 379.265894 127.275578 
L 379.399427 127.275578 
L 379.453679 124.132013 
L 379.952672 124.132013 
L 379.952672 123.084158 
L 380.411673 123.084158 
L 380.411673 122.036304 
L 380.65228 122.036304 
L 380.65228 120.988449 
L 380.948325 120.988449 
L 380.995666 118.892739 
L 382.114822 118.892739 
L 382.134334 116.79703 
L 409.776704 116.79703 
L 409.840339 101.079208 
L 414.595731 101.079208 
L 414.595731 100.031353 
L 414.896807 100.031353 
L 414.896807 98.983498 
L 415.597883 98.983498 
L 415.597883 97.935644 
L 415.726666 97.935644 
L 415.726666 96.887789 
L 419.577612 96.887789 
L 419.577612 95.839934 
L 420.836611 95.839934 
L 420.836611 94.792079 
L 423.43502 94.792079 
L 423.43502 93.744224 
L 424.314386 93.744224 
L 424.379099 91.648515 
L 425.686984 91.648515 
L 425.732022 89.552805 
L 426.021133 89.552805 
L 426.021133 88.50495 
L 429.040496 88.50495 
L 429.040496 87.457096 
L 430.350732 87.457096 
L 430.350732 86.409241 
L 430.839162 86.409241 
L 430.839162 85.361386 
L 431.745435 85.361386 
L 431.745435 84.313531 
L 438.250069 84.313531 
L 438.250069 83.265677 
L 441.78535 83.265677 
L 441.78535 82.217822 
L 443.657088 82.217822 
L 443.657088 81.169967 
L 448.945218 81.169967 
L 448.945218 80.122112 
L 449.679527 80.122112 
L 449.679527 79.074257 
L 451.568335 79.074257 
L 451.568335 78.026403 
L 452.87926 78.026403 
L 452.87926 76.978548 
L 453.537657 76.978548 
L 453.537657 75.930693 
L 454.616498 75.930693 
L 454.616498 74.882838 
L 457.473926 74.882838 
L 457.473926 73.834983 
L 459.488487 73.834983 
L 459.488487 72.787129 
L 459.707453 72.787129 
L 459.71715 70.691419 
L 461.252228 70.691419 
L 461.252228 69.643564 
L 461.946848 69.643564 
L 461.946848 68.59571 
L 462.289013 68.59571 
L 462.289013 67.547855 
L 463.887831 67.547855 
L 463.887831 66.5 
L 467.617877 66.5 
L 467.617877 65.452145 
L 469.24729 65.452145 
L 469.24729 64.40429 
L 473.074972 64.40429 
L 473.074972 63.356436 
L 476.411746 63.356436 
L 476.411746 62.308581 
L 477.341025 62.308581 
L 477.341025 61.260726 
L 479.637133 61.260726 
L 479.637133 60.212871 
L 480.754251 60.212871 
L 480.754251 59.165017 
L 481.064027 59.165017 
L 481.064027 58.117162 
L 481.210842 58.117162 
L 481.210842 57.069307 
L 484.508973 57.069307 
L 484.508973 56.021452 
L 485.336523 56.021452 
L 485.336523 54.973597 
L 486.702487 54.973597 
L 486.702487 53.925743 
L 487.413369 53.925743 
L 487.413369 52.877888 
L 487.736888 52.877888 
L 487.736888 51.830033 
L 488.899592 51.830033 
L 488.899592 50.782178 
L 490.681255 50.782178 
L 490.685489 48.686469 
L 493.338826 48.686469 
L 493.338826 47.638614 
L 495.951419 47.638614 
L 496.060763 45.542904 
L 496.204119 45.542904 
L 496.204119 44.49505 
L 496.464084 44.49505 
L 496.464084 43.447195 
L 497.081639 43.447195 
L 497.081639 42.39934 
L 497.311166 42.39934 
L 497.311166 41.351485 
L 498.658723 41.351485 
L 498.658723 40.30363 
L 499.160842 40.30363 
L 499.218472 38.207921 
L 499.784748 38.207921 
L 499.796204 36.112211 
L 500.680721 36.112211 
L 500.680721 35.064356 
L 501.798483 35.064356 
L 501.798483 34.016502 
L 502.168427 34.016502 
L 502.25691 31.920792 
L 503.134022 31.920792 
L 503.134022 30.872937 
L 503.296952 30.872937 
L 503.296952 29.825083 
L 503.655112 29.825083 
L 503.655112 28.777228 
L 504.7984 28.777228 
L 504.7984 27.729373 
L 507.159726 27.729373 
L 507.159726 26.681518 
L 508.805968 26.681518 
L 508.805968 25.633663 
L 510.607947 25.633663 
L 510.607947 24.585809 
L 510.773924 24.585809 
L 510.773924 23.537954 
L 516.749098 23.537954 
L 516.749098 22.490099 
L 532.589228 22.490099 
L 532.589228 21.442244 
L 533.315278 21.442244 
L 533.315278 20.394389 
L 540.995892 20.394389 
L 540.995892 19.346535 
L 541.247309 19.346535 
L 541.247309 18.29868 
L 542.267952 18.29868 
L 542.267952 17.250825 
L 542.465641 17.250825 
L 542.465641 16.20297 
L 544.269106 16.20297 
L 544.269106 15.155116 
L 549.087387 15.155116 
L 549.087387 14.107261 
L 551.609302 14.107261 
L 551.609302 13.059406 
L 554.908715 13.059406 
L 554.908715 12.011551 
L 556.612841 12.011551 
L 556.612841 10.963696 
L 558.653939 10.963696 
L 558.653939 9.915842 
L 558.859078 9.915842 
L 558.859078 8.867987 
L 559.490876 8.867987 
L 559.490876 7.820132 
L 560.017641 7.820132 
L 560.017641 6.772277 
L 560.017641 6.772277 
L 567.24 6.772277 
L 567.24 6.772277 
" style="fill:none;stroke:#00bfbf;stroke-linecap:square;"/>
   </g>
   <g id="line2d_6">
    <path clip-path="url(#pcd1a9e66b5)" d="M 213.896644 384 
L 213.896644 382.952145 
L 214.311714 382.952145 
L 214.311714 381.90429 
L 215.285487 381.90429 
L 215.285487 380.856436 
L 216.925173 380.856436 
L 216.925173 379.808581 
L 217.255662 379.808581 
L 217.255662 378.760726 
L 220.045652 378.760726 
L 220.045652 377.712871 
L 220.942964 377.712871 
L 220.942964 376.665017 
L 221.516411 376.665017 
L 221.516411 375.617162 
L 221.68972 375.617162 
L 221.68972 374.569307 
L 221.982239 374.569307 
L 221.982239 373.521452 
L 222.44554 373.521452 
L 222.44554 372.473597 
L 227.78081 372.473597 
L 227.8867 370.377888 
L 230.788027 370.377888 
L 230.788027 369.330033 
L 233.552112 369.330033 
L 233.552112 368.282178 
L 286.052678 368.282178 
L 286.052678 367.234323 
L 288.441743 367.234323 
L 288.441743 366.186469 
L 291.058142 366.186469 
L 291.058142 365.138614 
L 291.268814 365.138614 
L 291.268814 364.090759 
L 292.657259 364.090759 
L 292.657259 363.042904 
L 296.184725 363.042904 
L 296.184725 361.99505 
L 296.824823 361.99505 
L 296.824823 360.947195 
L 297.341478 360.947195 
L 297.341478 359.89934 
L 297.670896 359.89934 
L 297.670896 358.851485 
L 298.28827 358.851485 
L 298.28827 357.80363 
L 298.56678 357.80363 
L 298.56678 356.755776 
L 299.297006 356.755776 
L 299.381337 354.660066 
L 299.411147 354.660066 
L 299.411147 353.612211 
L 300.111837 353.612211 
L 300.111837 352.564356 
L 301.558099 352.564356 
L 301.642987 349.420792 
L 301.966487 349.420792 
L 301.966487 348.372937 
L 302.12313 348.372937 
L 302.12313 347.325083 
L 302.408721 347.325083 
L 302.408721 346.277228 
L 302.56267 346.277228 
L 302.56267 345.229373 
L 303.34671 345.229373 
L 303.34671 344.181518 
L 304.287536 344.181518 
L 304.287536 343.133663 
L 304.546222 343.133663 
L 304.546222 342.085809 
L 304.770852 342.085809 
L 304.770852 341.037954 
L 305.416114 341.037954 
L 305.416114 339.990099 
L 306.705973 339.990099 
L 306.705973 338.942244 
L 307.757645 338.942244 
L 307.757645 337.894389 
L 308.072027 337.894389 
L 308.072027 336.846535 
L 308.734605 336.846535 
L 308.734605 335.79868 
L 309.1131 335.79868 
L 309.1131 334.750825 
L 309.295041 334.750825 
L 309.295041 333.70297 
L 309.452034 333.70297 
L 309.529633 331.607261 
L 310.98006 331.607261 
L 310.98006 330.559406 
L 311.485891 330.559406 
L 311.524613 328.463696 
L 313.389766 328.463696 
L 313.389766 327.415842 
L 313.953591 327.415842 
L 313.953591 326.367987 
L 314.689714 326.367987 
L 314.771606 324.272277 
L 314.850186 324.272277 
L 314.850186 323.224422 
L 315.011215 323.224422 
L 315.011215 322.176568 
L 316.372863 322.176568 
L 316.372863 321.128713 
L 316.878647 321.128713 
L 316.878647 320.080858 
L 317.239704 320.080858 
L 317.239704 319.033003 
L 317.841425 319.033003 
L 317.866482 316.937294 
L 318.047836 316.937294 
L 318.047836 315.889439 
L 318.641307 315.889439 
L 318.641307 314.841584 
L 319.099637 314.841584 
L 319.099637 313.793729 
L 319.479208 313.793729 
L 319.479208 312.745875 
L 319.693183 312.745875 
L 319.693183 311.69802 
L 320.037992 311.69802 
L 320.037992 310.650165 
L 320.306375 310.650165 
L 320.306375 309.60231 
L 320.430857 309.60231 
L 320.430857 308.554455 
L 320.642749 308.554455 
L 320.642749 307.506601 
L 321.224542 307.506601 
L 321.224542 306.458746 
L 322.339747 306.458746 
L 322.339747 305.410891 
L 322.642082 305.410891 
L 322.642082 304.363036 
L 322.963968 304.363036 
L 323.005956 302.267327 
L 323.983022 302.267327 
L 323.983022 301.219472 
L 324.238163 301.219472 
L 324.238163 300.171617 
L 324.611533 300.171617 
L 324.611533 299.123762 
L 324.896881 299.123762 
L 324.896881 298.075908 
L 325.4934 298.075908 
L 325.4934 297.028053 
L 325.752839 297.028053 
L 325.752839 295.980198 
L 326.187536 295.980198 
L 326.235422 293.884488 
L 326.699526 293.884488 
L 326.699526 292.836634 
L 327.02648 292.836634 
L 327.02648 291.788779 
L 327.302873 291.788779 
L 327.302873 290.740924 
L 327.508875 290.740924 
L 327.561961 288.645215 
L 327.921649 288.645215 
L 327.952371 286.549505 
L 328.034143 286.549505 
L 328.130747 284.453795 
L 328.186931 284.453795 
L 328.270398 281.310231 
L 328.318064 281.310231 
L 328.318064 280.262376 
L 328.452129 280.262376 
L 328.540525 277.118812 
L 328.585515 277.118812 
L 328.585515 276.070957 
L 328.71632 276.070957 
L 328.71632 275.023102 
L 328.857373 275.023102 
L 328.857373 273.975248 
L 329.037627 273.975248 
L 329.122261 271.879538 
L 329.34512 271.879538 
L 329.445611 269.783828 
L 329.460046 269.783828 
L 329.518725 267.688119 
L 329.710709 267.688119 
L 329.710709 266.640264 
L 329.840427 266.640264 
L 329.922494 261.40099 
L 330.058544 261.40099 
L 330.153037 258.257426 
L 330.198295 258.257426 
L 330.252177 255.113861 
L 330.331139 255.113861 
L 330.362996 253.018152 
L 330.489544 253.018152 
L 330.513659 250.922442 
L 331.537159 250.922442 
L 331.537159 249.874587 
L 331.965494 249.874587 
L 332.068017 247.778878 
L 332.143161 247.778878 
L 332.143161 246.731023 
L 332.560915 246.731023 
L 332.560915 245.683168 
L 333.398158 245.683168 
L 333.467495 243.587459 
L 333.587455 243.587459 
L 333.66435 241.491749 
L 334.129282 241.491749 
L 334.129282 240.443894 
L 334.503158 240.443894 
L 334.528041 238.348185 
L 334.622495 238.348185 
L 334.729573 235.20462 
L 334.743038 235.20462 
L 334.743038 234.156766 
L 335.105272 234.156766 
L 335.192905 232.061056 
L 335.282394 232.061056 
L 335.282394 231.013201 
L 335.429988 231.013201 
L 335.429988 229.965347 
L 335.702447 229.965347 
L 335.762984 227.869637 
L 336.071138 227.869637 
L 336.071138 226.821782 
L 336.191688 226.821782 
L 336.191688 225.773927 
L 336.461923 225.773927 
L 336.512457 223.678218 
L 336.719351 223.678218 
L 336.719351 222.630363 
L 337.148146 222.630363 
L 337.148146 221.582508 
L 337.294098 221.582508 
L 337.372398 218.438944 
L 337.493257 218.438944 
L 337.524842 216.343234 
L 337.745725 216.343234 
L 337.745725 215.29538 
L 337.967123 215.29538 
L 337.967123 214.247525 
L 338.211906 214.247525 
L 338.211906 213.19967 
L 338.714987 213.19967 
L 338.714987 212.151815 
L 339.07381 212.151815 
L 339.174955 210.056106 
L 339.588044 210.056106 
L 339.588044 209.008251 
L 340.273713 209.008251 
L 340.273713 207.960396 
L 340.667591 207.960396 
L 340.667591 206.912541 
L 340.790541 206.912541 
L 340.861586 204.816832 
L 340.912688 204.816832 
L 340.912688 203.768977 
L 341.651562 203.768977 
L 341.707526 201.673267 
L 341.824378 201.673267 
L 341.901951 198.529703 
L 342.036732 198.529703 
L 342.036732 197.481848 
L 342.241031 197.481848 
L 342.29818 194.338284 
L 342.436659 194.338284 
L 342.436659 193.290429 
L 342.57854 193.290429 
L 342.634982 190.146865 
L 342.748634 190.146865 
L 342.826858 188.051155 
L 343.015679 188.051155 
L 343.015679 187.0033 
L 343.236007 187.0033 
L 343.236007 185.955446 
L 344.005617 185.955446 
L 344.100418 183.859736 
L 344.34141 183.859736 
L 344.355305 181.764026 
L 344.739102 181.764026 
L 344.739102 180.716172 
L 344.861075 180.716172 
L 344.861075 179.668317 
L 345.156939 179.668317 
L 345.156939 178.620462 
L 346.861932 178.620462 
L 346.861932 177.572607 
L 348.044131 177.572607 
L 348.044131 176.524752 
L 353.490013 176.524752 
L 353.490013 175.476898 
L 354.106001 175.476898 
L 354.209244 173.381188 
L 354.282293 173.381188 
L 354.282293 172.333333 
L 356.354916 172.333333 
L 356.354916 171.285479 
L 356.598691 171.285479 
L 356.610395 169.189769 
L 356.978628 169.189769 
L 356.989127 167.094059 
L 357.167573 167.094059 
L 357.167573 166.046205 
L 357.31382 166.046205 
L 357.348817 163.950495 
L 357.490483 163.950495 
L 357.490483 162.90264 
L 357.616556 162.90264 
L 357.616556 161.854785 
L 357.764081 161.854785 
L 357.859352 159.759076 
L 358.087571 159.759076 
L 358.087571 158.711221 
L 358.293201 158.711221 
L 358.293201 157.663366 
L 358.719702 157.663366 
L 358.719702 156.615512 
L 359.064543 156.615512 
L 359.167815 154.519802 
L 359.26598 154.519802 
L 359.26598 153.471947 
L 359.498646 153.471947 
L 359.514653 151.376238 
L 359.774967 151.376238 
L 359.774967 150.328383 
L 360.036996 150.328383 
L 360.036996 149.280528 
L 360.272286 149.280528 
L 360.372119 146.136964 
L 360.452612 146.136964 
L 360.463294 144.041254 
L 360.689297 144.041254 
L 360.780033 139.849835 
L 361.024797 139.849835 
L 361.126985 137.754125 
L 362.265689 137.754125 
L 362.265689 136.706271 
L 362.39989 136.706271 
L 362.39989 135.658416 
L 363.170991 135.658416 
L 363.218451 133.562706 
L 364.395642 133.562706 
L 364.458071 131.466997 
L 364.536815 131.466997 
L 364.536815 130.419142 
L 364.755978 130.419142 
L 364.75624 128.323432 
L 364.968066 128.323432 
L 364.968066 127.275578 
L 365.16694 127.275578 
L 365.16694 126.227723 
L 365.371979 126.227723 
L 365.371979 125.179868 
L 365.811277 125.179868 
L 365.811277 124.132013 
L 365.93348 124.132013 
L 365.93348 123.084158 
L 366.547774 123.084158 
L 366.643194 120.988449 
L 366.962264 120.988449 
L 367.003103 118.892739 
L 367.423623 118.892739 
L 367.423623 117.844884 
L 368.187657 117.844884 
L 368.187657 116.79703 
L 368.674852 116.79703 
L 368.674852 115.749175 
L 369.807735 115.749175 
L 369.807735 114.70132 
L 370.208136 114.70132 
L 370.208136 113.653465 
L 370.655203 113.653465 
L 370.685523 111.557756 
L 372.203923 111.557756 
L 372.296552 109.462046 
L 372.948852 109.462046 
L 372.998471 106.318482 
L 373.114517 106.318482 
L 373.158594 103.174917 
L 373.263849 103.174917 
L 373.343457 100.031353 
L 374.069515 100.031353 
L 374.069515 98.983498 
L 374.947295 98.983498 
L 374.947295 97.935644 
L 375.544498 97.935644 
L 375.544498 96.887789 
L 376.16853 96.887789 
L 376.16853 95.839934 
L 376.377369 95.839934 
L 376.404907 93.744224 
L 377.901564 93.744224 
L 377.901564 92.69637 
L 378.153454 92.69637 
L 378.153454 91.648515 
L 378.546244 91.648515 
L 378.546244 90.60066 
L 380.411673 90.60066 
L 380.411673 89.552805 
L 380.885219 89.552805 
L 380.885219 88.50495 
L 381.816308 88.50495 
L 381.816308 87.457096 
L 382.114822 87.457096 
L 382.114822 86.409241 
L 384.276129 86.409241 
L 384.276129 85.361386 
L 388.387171 85.361386 
L 388.387171 84.313531 
L 393.879266 84.313531 
L 393.879266 83.265677 
L 395.289209 83.265677 
L 395.289209 82.217822 
L 399.873265 82.217822 
L 399.873265 81.169967 
L 401.199236 81.169967 
L 401.199236 80.122112 
L 401.868254 80.122112 
L 401.936221 78.026403 
L 401.985595 78.026403 
L 401.985595 76.978548 
L 406.365519 76.978548 
L 406.365519 75.930693 
L 406.879704 75.930693 
L 406.879704 74.882838 
L 410.633958 74.882838 
L 410.633958 73.834983 
L 411.688128 73.834983 
L 411.688128 72.787129 
L 412.183019 72.787129 
L 412.183019 71.739274 
L 413.517485 71.739274 
L 413.517485 70.691419 
L 414.71324 70.691419 
L 414.71324 69.643564 
L 419.003583 69.643564 
L 419.003583 68.59571 
L 421.945163 68.59571 
L 421.945163 67.547855 
L 425.973796 67.547855 
L 425.973796 66.5 
L 429.200337 66.5 
L 429.200337 65.452145 
L 432.897381 65.452145 
L 432.897381 64.40429 
L 435.575674 64.40429 
L 435.575674 63.356436 
L 435.856572 63.356436 
L 435.856572 62.308581 
L 436.795977 62.308581 
L 436.795977 61.260726 
L 437.848955 61.260726 
L 437.848955 60.212871 
L 438.91892 60.212871 
L 438.91892 59.165017 
L 440.019702 59.165017 
L 440.124274 57.069307 
L 440.949386 57.069307 
L 440.949386 56.021452 
L 441.674423 56.021452 
L 441.674423 54.973597 
L 446.062403 54.973597 
L 446.062403 53.925743 
L 450.090445 53.925743 
L 450.090445 52.877888 
L 450.308956 52.877888 
L 450.308956 51.830033 
L 450.739792 51.830033 
L 450.739792 50.782178 
L 450.855777 50.782178 
L 450.855777 49.734323 
L 451.982271 49.734323 
L 451.982271 48.686469 
L 452.326423 48.686469 
L 452.326423 47.638614 
L 454.992046 47.638614 
L 455.095983 45.542904 
L 455.849567 45.542904 
L 455.849567 44.49505 
L 457.145949 44.49505 
L 457.145949 43.447195 
L 458.328331 43.447195 
L 458.328331 42.39934 
L 462.110346 42.39934 
L 462.110346 41.351485 
L 463.481413 41.351485 
L 463.52217 39.255776 
L 464.677684 39.255776 
L 464.677684 38.207921 
L 465.940721 38.207921 
L 465.940721 37.160066 
L 466.294231 37.160066 
L 466.326509 35.064356 
L 466.775478 35.064356 
L 466.775478 34.016502 
L 468.16817 34.016502 
L 468.265352 31.920792 
L 468.364041 31.920792 
L 468.364041 30.872937 
L 470.876624 30.872937 
L 470.876624 29.825083 
L 474.006718 29.825083 
L 474.006718 28.777228 
L 476.641551 28.777228 
L 476.641551 27.729373 
L 476.879279 27.729373 
L 476.879279 26.681518 
L 477.766441 26.681518 
L 477.766441 25.633663 
L 480.707114 25.633663 
L 480.707114 24.585809 
L 481.910515 24.585809 
L 481.910515 23.537954 
L 483.069339 23.537954 
L 483.069339 22.490099 
L 511.890596 22.490099 
L 511.890596 21.442244 
L 515.012734 21.442244 
L 515.012734 20.394389 
L 521.936114 20.394389 
L 521.936114 19.346535 
L 525.81749 19.346535 
L 525.81749 18.29868 
L 527.955443 18.29868 
L 527.955443 17.250825 
L 528.700137 17.250825 
L 528.700137 16.20297 
L 529.673077 16.20297 
L 529.673077 15.155116 
L 531.232123 15.155116 
L 531.232123 14.107261 
L 532.342073 14.107261 
L 532.342073 13.059406 
L 533.554221 13.059406 
L 533.554221 12.011551 
L 534.796293 12.011551 
L 534.796293 10.963696 
L 535.783934 10.963696 
L 535.783934 9.915842 
L 537.765343 9.915842 
L 537.765343 8.867987 
L 539.463656 8.867987 
L 539.463656 7.820132 
L 540.224771 7.820132 
L 540.224771 6.772277 
L 540.224771 6.772277 
L 567.24 6.772277 
L 567.24 6.772277 
" style="fill:none;stroke:#bf00bf;stroke-linecap:square;"/>
   </g>
   <g id="patch_3">
    <path d="M 3 3 
L 567.24 3 
" style="fill:none;stroke:#000000;stroke-linecap:square;stroke-linejoin:miter;"/>
   </g>
   <g id="patch_4">
    <path d="M 567.24 384 
L 567.24 3 
" style="fill:none;stroke:#000000;stroke-linecap:square;stroke-linejoin:miter;"/>
   </g>
   <g id="patch_5">
    <path d="M 3 384 
L 567.24 384 
" style="fill:none;stroke:#000000;stroke-linecap:square;stroke-linejoin:miter;"/>
   </g>
   <g id="patch_6">
    <path d="M 3 384 
L 3 3 
" style="fill:none;stroke:#000000;stroke-linecap:square;stroke-linejoin:miter;"/>
   </g>
   <g id="matplotlib.axis_1">
    <g id="xtick_1"/>
    <g id="xtick_2">
     <g id="line2d_7">
      <path clip-path="url(#pcd1a9e66b5)" d="M 69.254589 384 
L 69.254589 3 
" style="fill:none;stroke:#000000;stroke-dasharray:1.000000,3.000000;stroke-dashoffset:0.0;stroke-width:0.5;"/>
     </g>
     <g id="line2d_8">
      <defs>
       <path d="M 0 0 
L 0 -4 
" id="m89be8aaced" style="stroke:#000000;stroke-width:0.5;"/>
      </defs>
      <g>
       <use style="stroke:#000000;stroke-width:0.5;" x="69.2545893472" xlink:href="#m89be8aaced" y="384.0"/>
      </g>
     </g>
     <g id="line2d_9">
      <defs>
       <path d="M 0 0 
L 0 4 
" id="m7f9ba33445" style="stroke:#000000;stroke-width:0.5;"/>
      </defs>
      <g>
       <use style="stroke:#000000;stroke-width:0.5;" x="69.2545893472" xlink:href="#m7f9ba33445" y="3.0"/>
      </g>
     </g>
     <g id="text_1">
      <!-- -6 -->
      <defs>
       <path d="M 33.015625 40.375 
Q 26.375 40.375 22.484375 35.828125 
Q 18.609375 31.296875 18.609375 23.390625 
Q 18.609375 15.53125 22.484375 10.953125 
Q 26.375 6.390625 33.015625 6.390625 
Q 39.65625 6.390625 43.53125 10.953125 
Q 47.40625 15.53125 47.40625 23.390625 
Q 47.40625 31.296875 43.53125 35.828125 
Q 39.65625 40.375 33.015625 40.375 
M 52.59375 71.296875 
L 52.59375 62.3125 
Q 48.875 64.0625 45.09375 64.984375 
Q 41.3125 65.921875 37.59375 65.921875 
Q 27.828125 65.921875 22.671875 59.328125 
Q 17.53125 52.734375 16.796875 39.40625 
Q 19.671875 43.65625 24.015625 45.921875 
Q 28.375 48.1875 33.59375 48.1875 
Q 44.578125 48.1875 50.953125 41.515625 
Q 57.328125 34.859375 57.328125 23.390625 
Q 57.328125 12.15625 50.6875 5.359375 
Q 44.046875 -1.421875 33.015625 -1.421875 
Q 20.359375 -1.421875 13.671875 8.265625 
Q 6.984375 17.96875 6.984375 36.375 
Q 6.984375 53.65625 15.1875 63.9375 
Q 23.390625 74.21875 37.203125 74.21875 
Q 40.921875 74.21875 44.703125 73.484375 
Q 48.484375 72.75 52.59375 71.296875 
" id="BitstreamVeraSans-Roman-36"/>
       <path d="M 4.890625 31.390625 
L 31.203125 31.390625 
L 31.203125 23.390625 
L 4.890625 23.390625 
z
" id="BitstreamVeraSans-Roman-2d"/>
      </defs>
      <g transform="translate(59.2842768472 403.196875)scale(0.2 -0.2)">
       <use xlink:href="#BitstreamVeraSans-Roman-2d"/>
       <use x="36.083984375" xlink:href="#BitstreamVeraSans-Roman-36"/>
      </g>
     </g>
    </g>
    <g id="xtick_3">
     <g id="line2d_10">
      <path clip-path="url(#pcd1a9e66b5)" d="M 135.652644 384 
L 135.652644 3 
" style="fill:none;stroke:#000000;stroke-dasharray:1.000000,3.000000;stroke-dashoffset:0.0;stroke-width:0.5;"/>
     </g>
     <g id="line2d_11">
      <g>
       <use style="stroke:#000000;stroke-width:0.5;" x="135.652644101" xlink:href="#m89be8aaced" y="384.0"/>
      </g>
     </g>
     <g id="line2d_12">
      <g>
       <use style="stroke:#000000;stroke-width:0.5;" x="135.652644101" xlink:href="#m7f9ba33445" y="3.0"/>
      </g>
     </g>
     <g id="text_2">
      <!-- -4 -->
      <defs>
       <path d="M 37.796875 64.3125 
L 12.890625 25.390625 
L 37.796875 25.390625 
z
M 35.203125 72.90625 
L 47.609375 72.90625 
L 47.609375 25.390625 
L 58.015625 25.390625 
L 58.015625 17.1875 
L 47.609375 17.1875 
L 47.609375 0 
L 37.796875 0 
L 37.796875 17.1875 
L 4.890625 17.1875 
L 4.890625 26.703125 
z
" id="BitstreamVeraSans-Roman-34"/>
      </defs>
      <g transform="translate(125.682331601 403.196875)scale(0.2 -0.2)">
       <use xlink:href="#BitstreamVeraSans-Roman-2d"/>
       <use x="36.083984375" xlink:href="#BitstreamVeraSans-Roman-34"/>
      </g>
     </g>
    </g>
    <g id="xtick_4">
     <g id="line2d_13">
      <path clip-path="url(#pcd1a9e66b5)" d="M 202.050699 384 
L 202.050699 3 
" style="fill:none;stroke:#000000;stroke-dasharray:1.000000,3.000000;stroke-dashoffset:0.0;stroke-width:0.5;"/>
     </g>
     <g id="line2d_14">
      <g>
       <use style="stroke:#000000;stroke-width:0.5;" x="202.050698855" xlink:href="#m89be8aaced" y="384.0"/>
      </g>
     </g>
     <g id="line2d_15">
      <g>
       <use style="stroke:#000000;stroke-width:0.5;" x="202.050698855" xlink:href="#m7f9ba33445" y="3.0"/>
      </g>
     </g>
     <g id="text_3">
      <!-- -2 -->
      <defs>
       <path d="M 19.1875 8.296875 
L 53.609375 8.296875 
L 53.609375 0 
L 7.328125 0 
L 7.328125 8.296875 
Q 12.9375 14.109375 22.625 23.890625 
Q 32.328125 33.6875 34.8125 36.53125 
Q 39.546875 41.84375 41.421875 45.53125 
Q 43.3125 49.21875 43.3125 52.78125 
Q 43.3125 58.59375 39.234375 62.25 
Q 35.15625 65.921875 28.609375 65.921875 
Q 23.96875 65.921875 18.8125 64.3125 
Q 13.671875 62.703125 7.8125 59.421875 
L 7.8125 69.390625 
Q 13.765625 71.78125 18.9375 73 
Q 24.125 74.21875 28.421875 74.21875 
Q 39.75 74.21875 46.484375 68.546875 
Q 53.21875 62.890625 53.21875 53.421875 
Q 53.21875 48.921875 51.53125 44.890625 
Q 49.859375 40.875 45.40625 35.40625 
Q 44.1875 33.984375 37.640625 27.21875 
Q 31.109375 20.453125 19.1875 8.296875 
" id="BitstreamVeraSans-Roman-32"/>
      </defs>
      <g transform="translate(192.080386355 403.196875)scale(0.2 -0.2)">
       <use xlink:href="#BitstreamVeraSans-Roman-2d"/>
       <use x="36.083984375" xlink:href="#BitstreamVeraSans-Roman-32"/>
      </g>
     </g>
    </g>
    <g id="xtick_5">
     <g id="line2d_16">
      <path clip-path="url(#pcd1a9e66b5)" d="M 268.448754 384 
L 268.448754 3 
" style="fill:none;stroke:#000000;stroke-dasharray:1.000000,3.000000;stroke-dashoffset:0.0;stroke-width:0.5;"/>
     </g>
     <g id="line2d_17">
      <g>
       <use style="stroke:#000000;stroke-width:0.5;" x="268.448753608" xlink:href="#m89be8aaced" y="384.0"/>
      </g>
     </g>
     <g id="line2d_18">
      <g>
       <use style="stroke:#000000;stroke-width:0.5;" x="268.448753608" xlink:href="#m7f9ba33445" y="3.0"/>
      </g>
     </g>
     <g id="text_4">
      <!-- 0 -->
      <defs>
       <path d="M 31.78125 66.40625 
Q 24.171875 66.40625 20.328125 58.90625 
Q 16.5 51.421875 16.5 36.375 
Q 16.5 21.390625 20.328125 13.890625 
Q 24.171875 6.390625 31.78125 6.390625 
Q 39.453125 6.390625 43.28125 13.890625 
Q 47.125 21.390625 47.125 36.375 
Q 47.125 51.421875 43.28125 58.90625 
Q 39.453125 66.40625 31.78125 66.40625 
M 31.78125 74.21875 
Q 44.046875 74.21875 50.515625 64.515625 
Q 56.984375 54.828125 56.984375 36.375 
Q 56.984375 17.96875 50.515625 8.265625 
Q 44.046875 -1.421875 31.78125 -1.421875 
Q 19.53125 -1.421875 13.0625 8.265625 
Q 6.59375 17.96875 6.59375 36.375 
Q 6.59375 54.828125 13.0625 64.515625 
Q 19.53125 74.21875 31.78125 74.21875 
" id="BitstreamVeraSans-Roman-30"/>
      </defs>
      <g transform="translate(262.086253608 403.196875)scale(0.2 -0.2)">
       <use xlink:href="#BitstreamVeraSans-Roman-30"/>
      </g>
     </g>
    </g>
    <g id="xtick_6">
     <g id="line2d_19">
      <path clip-path="url(#pcd1a9e66b5)" d="M 334.846808 384 
L 334.846808 3 
" style="fill:none;stroke:#000000;stroke-dasharray:1.000000,3.000000;stroke-dashoffset:0.0;stroke-width:0.5;"/>
     </g>
     <g id="line2d_20">
      <g>
       <use style="stroke:#000000;stroke-width:0.5;" x="334.846808362" xlink:href="#m89be8aaced" y="384.0"/>
      </g>
     </g>
     <g id="line2d_21">
      <g>
       <use style="stroke:#000000;stroke-width:0.5;" x="334.846808362" xlink:href="#m7f9ba33445" y="3.0"/>
      </g>
     </g>
     <g id="text_5">
      <!-- 2 -->
      <g transform="translate(328.484308362 403.196875)scale(0.2 -0.2)">
       <use xlink:href="#BitstreamVeraSans-Roman-32"/>
      </g>
     </g>
    </g>
    <g id="xtick_7">
     <g id="line2d_22">
      <path clip-path="url(#pcd1a9e66b5)" d="M 401.244863 384 
L 401.244863 3 
" style="fill:none;stroke:#000000;stroke-dasharray:1.000000,3.000000;stroke-dashoffset:0.0;stroke-width:0.5;"/>
     </g>
     <g id="line2d_23">
      <g>
       <use style="stroke:#000000;stroke-width:0.5;" x="401.244863116" xlink:href="#m89be8aaced" y="384.0"/>
      </g>
     </g>
     <g id="line2d_24">
      <g>
       <use style="stroke:#000000;stroke-width:0.5;" x="401.244863116" xlink:href="#m7f9ba33445" y="3.0"/>
      </g>
     </g>
     <g id="text_6">
      <!-- 4 -->
      <g transform="translate(394.882363116 403.196875)scale(0.2 -0.2)">
       <use xlink:href="#BitstreamVeraSans-Roman-34"/>
      </g>
     </g>
    </g>
    <g id="xtick_8">
     <g id="line2d_25">
      <path clip-path="url(#pcd1a9e66b5)" d="M 467.642918 384 
L 467.642918 3 
" style="fill:none;stroke:#000000;stroke-dasharray:1.000000,3.000000;stroke-dashoffset:0.0;stroke-width:0.5;"/>
     </g>
     <g id="line2d_26">
      <g>
       <use style="stroke:#000000;stroke-width:0.5;" x="467.642917869" xlink:href="#m89be8aaced" y="384.0"/>
      </g>
     </g>
     <g id="line2d_27">
      <g>
       <use style="stroke:#000000;stroke-width:0.5;" x="467.642917869" xlink:href="#m7f9ba33445" y="3.0"/>
      </g>
     </g>
     <g id="text_7">
      <!-- 6 -->
      <g transform="translate(461.280417869 403.196875)scale(0.2 -0.2)">
       <use xlink:href="#BitstreamVeraSans-Roman-36"/>
      </g>
     </g>
    </g>
    <g id="xtick_9">
     <g id="line2d_28">
      <path clip-path="url(#pcd1a9e66b5)" d="M 534.040973 384 
L 534.040973 3 
" style="fill:none;stroke:#000000;stroke-dasharray:1.000000,3.000000;stroke-dashoffset:0.0;stroke-width:0.5;"/>
     </g>
     <g id="line2d_29">
      <g>
       <use style="stroke:#000000;stroke-width:0.5;" x="534.040972623" xlink:href="#m89be8aaced" y="384.0"/>
      </g>
     </g>
     <g id="line2d_30">
      <g>
       <use style="stroke:#000000;stroke-width:0.5;" x="534.040972623" xlink:href="#m7f9ba33445" y="3.0"/>
      </g>
     </g>
     <g id="text_8">
      <!-- 8 -->
      <defs>
       <path d="M 31.78125 34.625 
Q 24.75 34.625 20.71875 30.859375 
Q 16.703125 27.09375 16.703125 20.515625 
Q 16.703125 13.921875 20.71875 10.15625 
Q 24.75 6.390625 31.78125 6.390625 
Q 38.8125 6.390625 42.859375 10.171875 
Q 46.921875 13.96875 46.921875 20.515625 
Q 46.921875 27.09375 42.890625 30.859375 
Q 38.875 34.625 31.78125 34.625 
M 21.921875 38.8125 
Q 15.578125 40.375 12.03125 44.71875 
Q 8.5 49.078125 8.5 55.328125 
Q 8.5 64.0625 14.71875 69.140625 
Q 20.953125 74.21875 31.78125 74.21875 
Q 42.671875 74.21875 48.875 69.140625 
Q 55.078125 64.0625 55.078125 55.328125 
Q 55.078125 49.078125 51.53125 44.71875 
Q 48 40.375 41.703125 38.8125 
Q 48.828125 37.15625 52.796875 32.3125 
Q 56.78125 27.484375 56.78125 20.515625 
Q 56.78125 9.90625 50.3125 4.234375 
Q 43.84375 -1.421875 31.78125 -1.421875 
Q 19.734375 -1.421875 13.25 4.234375 
Q 6.78125 9.90625 6.78125 20.515625 
Q 6.78125 27.484375 10.78125 32.3125 
Q 14.796875 37.15625 21.921875 38.8125 
M 18.3125 54.390625 
Q 18.3125 48.734375 21.84375 45.5625 
Q 25.390625 42.390625 31.78125 42.390625 
Q 38.140625 42.390625 41.71875 45.5625 
Q 45.3125 48.734375 45.3125 54.390625 
Q 45.3125 60.0625 41.71875 63.234375 
Q 38.140625 66.40625 31.78125 66.40625 
Q 25.390625 66.40625 21.84375 63.234375 
Q 18.3125 60.0625 18.3125 54.390625 
" id="BitstreamVeraSans-Roman-38"/>
      </defs>
      <g transform="translate(527.678472623 403.196875)scale(0.2 -0.2)">
       <use xlink:href="#BitstreamVeraSans-Roman-38"/>
      </g>
     </g>
    </g>
    <g id="xtick_10"/>
    <g id="xtick_11">
     <g id="line2d_31">
      <defs>
       <path d="M 0 0 
L 0 -2 
" id="m901cccba3e" style="stroke:#000000;stroke-width:0.5;"/>
      </defs>
      <g>
       <use style="stroke:#000000;stroke-width:0.5;" x="69.2545893472" xlink:href="#m901cccba3e" y="384.0"/>
      </g>
     </g>
     <g id="line2d_32">
      <defs>
       <path d="M 0 0 
L 0 2 
" id="mf9ad66fab4" style="stroke:#000000;stroke-width:0.5;"/>
      </defs>
      <g>
       <use style="stroke:#000000;stroke-width:0.5;" x="69.2545893472" xlink:href="#mf9ad66fab4" y="3.0"/>
      </g>
     </g>
    </g>
    <g id="xtick_12">
     <g id="line2d_33">
      <g>
       <use style="stroke:#000000;stroke-width:0.5;" x="135.652644101" xlink:href="#m901cccba3e" y="384.0"/>
      </g>
     </g>
     <g id="line2d_34">
      <g>
       <use style="stroke:#000000;stroke-width:0.5;" x="135.652644101" xlink:href="#mf9ad66fab4" y="3.0"/>
      </g>
     </g>
    </g>
    <g id="xtick_13">
     <g id="line2d_35">
      <g>
       <use style="stroke:#000000;stroke-width:0.5;" x="202.050698855" xlink:href="#m901cccba3e" y="384.0"/>
      </g>
     </g>
     <g id="line2d_36">
      <g>
       <use style="stroke:#000000;stroke-width:0.5;" x="202.050698855" xlink:href="#mf9ad66fab4" y="3.0"/>
      </g>
     </g>
    </g>
    <g id="xtick_14">
     <g id="line2d_37">
      <g>
       <use style="stroke:#000000;stroke-width:0.5;" x="268.448753608" xlink:href="#m901cccba3e" y="384.0"/>
      </g>
     </g>
     <g id="line2d_38">
      <g>
       <use style="stroke:#000000;stroke-width:0.5;" x="268.448753608" xlink:href="#mf9ad66fab4" y="3.0"/>
      </g>
     </g>
    </g>
    <g id="xtick_15">
     <g id="line2d_39">
      <g>
       <use style="stroke:#000000;stroke-width:0.5;" x="334.846808362" xlink:href="#m901cccba3e" y="384.0"/>
      </g>
     </g>
     <g id="line2d_40">
      <g>
       <use style="stroke:#000000;stroke-width:0.5;" x="334.846808362" xlink:href="#mf9ad66fab4" y="3.0"/>
      </g>
     </g>
    </g>
    <g id="xtick_16">
     <g id="line2d_41">
      <g>
       <use style="stroke:#000000;stroke-width:0.5;" x="401.244863116" xlink:href="#m901cccba3e" y="384.0"/>
      </g>
     </g>
     <g id="line2d_42">
      <g>
       <use style="stroke:#000000;stroke-width:0.5;" x="401.244863116" xlink:href="#mf9ad66fab4" y="3.0"/>
      </g>
     </g>
    </g>
    <g id="xtick_17">
     <g id="line2d_43">
      <g>
       <use style="stroke:#000000;stroke-width:0.5;" x="467.642917869" xlink:href="#m901cccba3e" y="384.0"/>
      </g>
     </g>
     <g id="line2d_44">
      <g>
       <use style="stroke:#000000;stroke-width:0.5;" x="467.642917869" xlink:href="#mf9ad66fab4" y="3.0"/>
      </g>
     </g>
    </g>
    <g id="xtick_18">
     <g id="line2d_45">
      <g>
       <use style="stroke:#000000;stroke-width:0.5;" x="534.040972623" xlink:href="#m901cccba3e" y="384.0"/>
      </g>
     </g>
     <g id="line2d_46">
      <g>
       <use style="stroke:#000000;stroke-width:0.5;" x="534.040972623" xlink:href="#mf9ad66fab4" y="3.0"/>
      </g>
     </g>
    </g>
    <g id="text_9">
     <!-- log10 of Df -->
     <defs>
      <path id="BitstreamVeraSans-Roman-20"/>
      <path d="M 12.40625 8.296875 
L 28.515625 8.296875 
L 28.515625 63.921875 
L 10.984375 60.40625 
L 10.984375 69.390625 
L 28.421875 72.90625 
L 38.28125 72.90625 
L 38.28125 8.296875 
L 54.390625 8.296875 
L 54.390625 0 
L 12.40625 0 
z
" id="BitstreamVeraSans-Roman-31"/>
      <path d="M 30.609375 48.390625 
Q 23.390625 48.390625 19.1875 42.75 
Q 14.984375 37.109375 14.984375 27.296875 
Q 14.984375 17.484375 19.15625 11.84375 
Q 23.34375 6.203125 30.609375 6.203125 
Q 37.796875 6.203125 41.984375 11.859375 
Q 46.1875 17.53125 46.1875 27.296875 
Q 46.1875 37.015625 41.984375 42.703125 
Q 37.796875 48.390625 30.609375 48.390625 
M 30.609375 56 
Q 42.328125 56 49.015625 48.375 
Q 55.71875 40.765625 55.71875 27.296875 
Q 55.71875 13.875 49.015625 6.21875 
Q 42.328125 -1.421875 30.609375 -1.421875 
Q 18.84375 -1.421875 12.171875 6.21875 
Q 5.515625 13.875 5.515625 27.296875 
Q 5.515625 40.765625 12.171875 48.375 
Q 18.84375 56 30.609375 56 
" id="BitstreamVeraSans-Roman-6f"/>
      <path d="M 9.421875 75.984375 
L 18.40625 75.984375 
L 18.40625 0 
L 9.421875 0 
z
" id="BitstreamVeraSans-Roman-6c"/>
      <path d="M 19.671875 64.796875 
L 19.671875 8.109375 
L 31.59375 8.109375 
Q 46.6875 8.109375 53.6875 14.9375 
Q 60.6875 21.78125 60.6875 36.53125 
Q 60.6875 51.171875 53.6875 57.984375 
Q 46.6875 64.796875 31.59375 64.796875 
z
M 9.8125 72.90625 
L 30.078125 72.90625 
Q 51.265625 72.90625 61.171875 64.09375 
Q 71.09375 55.28125 71.09375 36.53125 
Q 71.09375 17.671875 61.125 8.828125 
Q 51.171875 0 30.078125 0 
L 9.8125 0 
z
" id="BitstreamVeraSans-Roman-44"/>
      <path d="M 45.40625 27.984375 
Q 45.40625 37.75 41.375 43.109375 
Q 37.359375 48.484375 30.078125 48.484375 
Q 22.859375 48.484375 18.828125 43.109375 
Q 14.796875 37.75 14.796875 27.984375 
Q 14.796875 18.265625 18.828125 12.890625 
Q 22.859375 7.515625 30.078125 7.515625 
Q 37.359375 7.515625 41.375 12.890625 
Q 45.40625 18.265625 45.40625 27.984375 
M 54.390625 6.78125 
Q 54.390625 -7.171875 48.1875 -13.984375 
Q 42 -20.796875 29.203125 -20.796875 
Q 24.46875 -20.796875 20.265625 -20.09375 
Q 16.0625 -19.390625 12.109375 -17.921875 
L 12.109375 -9.1875 
Q 16.0625 -11.328125 19.921875 -12.34375 
Q 23.78125 -13.375 27.78125 -13.375 
Q 36.625 -13.375 41.015625 -8.765625 
Q 45.40625 -4.15625 45.40625 5.171875 
L 45.40625 9.625 
Q 42.625 4.78125 38.28125 2.390625 
Q 33.9375 0 27.875 0 
Q 17.828125 0 11.671875 7.65625 
Q 5.515625 15.328125 5.515625 27.984375 
Q 5.515625 40.671875 11.671875 48.328125 
Q 17.828125 56 27.875 56 
Q 33.9375 56 38.28125 53.609375 
Q 42.625 51.21875 45.40625 46.390625 
L 45.40625 54.6875 
L 54.390625 54.6875 
z
" id="BitstreamVeraSans-Roman-67"/>
      <path d="M 37.109375 75.984375 
L 37.109375 68.5 
L 28.515625 68.5 
Q 23.6875 68.5 21.796875 66.546875 
Q 19.921875 64.59375 19.921875 59.515625 
L 19.921875 54.6875 
L 34.71875 54.6875 
L 34.71875 47.703125 
L 19.921875 47.703125 
L 19.921875 0 
L 10.890625 0 
L 10.890625 47.703125 
L 2.296875 47.703125 
L 2.296875 54.6875 
L 10.890625 54.6875 
L 10.890625 58.5 
Q 10.890625 67.625 15.140625 71.796875 
Q 19.390625 75.984375 28.609375 75.984375 
z
" id="BitstreamVeraSans-Roman-66"/>
     </defs>
     <g transform="translate(229.9340625 427.553125)scale(0.2 -0.2)">
      <use xlink:href="#BitstreamVeraSans-Roman-6c"/>
      <use x="27.783203125" xlink:href="#BitstreamVeraSans-Roman-6f"/>
      <use x="88.96484375" xlink:href="#BitstreamVeraSans-Roman-67"/>
      <use x="152.44140625" xlink:href="#BitstreamVeraSans-Roman-31"/>
      <use x="216.064453125" xlink:href="#BitstreamVeraSans-Roman-30"/>
      <use x="279.6875" xlink:href="#BitstreamVeraSans-Roman-20"/>
      <use x="311.474609375" xlink:href="#BitstreamVeraSans-Roman-6f"/>
      <use x="372.65625" xlink:href="#BitstreamVeraSans-Roman-66"/>
      <use x="407.861328125" xlink:href="#BitstreamVeraSans-Roman-20"/>
      <use x="439.6484375" xlink:href="#BitstreamVeraSans-Roman-44"/>
      <use x="516.650390625" xlink:href="#BitstreamVeraSans-Roman-66"/>
     </g>
    </g>
   </g>
   <g id="matplotlib.axis_2">
    <g id="ytick_1">
     <g id="line2d_47">
      <path clip-path="url(#pcd1a9e66b5)" d="M 3 384 
L 567.24 384 
" style="fill:none;stroke:#000000;stroke-dasharray:1.000000,3.000000;stroke-dashoffset:0.0;stroke-width:0.5;"/>
     </g>
     <g id="line2d_48">
      <defs>
       <path d="M 0 0 
L 4 0 
" id="mcf3ca1c783" style="stroke:#000000;stroke-width:0.5;"/>
      </defs>
      <g>
       <use style="stroke:#000000;stroke-width:0.5;" x="3.0" xlink:href="#mcf3ca1c783" y="384.0"/>
      </g>
     </g>
     <g id="line2d_49">
      <defs>
       <path d="M 0 0 
L -4 0 
" id="mb7ea5abb6c" style="stroke:#000000;stroke-width:0.5;"/>
      </defs>
      <g>
       <use style="stroke:#000000;stroke-width:0.5;" x="567.24" xlink:href="#mb7ea5abb6c" y="384.0"/>
      </g>
     </g>
    </g>
    <g id="ytick_2">
     <g id="line2d_50">
      <path clip-path="url(#pcd1a9e66b5)" d="M 3 308.554455 
L 567.24 308.554455 
" style="fill:none;stroke:#000000;stroke-dasharray:1.000000,3.000000;stroke-dashoffset:0.0;stroke-width:0.5;"/>
     </g>
     <g id="line2d_51">
      <g>
       <use style="stroke:#000000;stroke-width:0.5;" x="3.0" xlink:href="#mcf3ca1c783" y="308.554455446"/>
      </g>
     </g>
     <g id="line2d_52">
      <g>
       <use style="stroke:#000000;stroke-width:0.5;" x="567.24" xlink:href="#mb7ea5abb6c" y="308.554455446"/>
      </g>
     </g>
    </g>
    <g id="ytick_3">
     <g id="line2d_53">
      <path clip-path="url(#pcd1a9e66b5)" d="M 3 233.108911 
L 567.24 233.108911 
" style="fill:none;stroke:#000000;stroke-dasharray:1.000000,3.000000;stroke-dashoffset:0.0;stroke-width:0.5;"/>
     </g>
     <g id="line2d_54">
      <g>
       <use style="stroke:#000000;stroke-width:0.5;" x="3.0" xlink:href="#mcf3ca1c783" y="233.108910891"/>
      </g>
     </g>
     <g id="line2d_55">
      <g>
       <use style="stroke:#000000;stroke-width:0.5;" x="567.24" xlink:href="#mb7ea5abb6c" y="233.108910891"/>
      </g>
     </g>
    </g>
    <g id="ytick_4">
     <g id="line2d_56">
      <path clip-path="url(#pcd1a9e66b5)" d="M 3 157.663366 
L 567.24 157.663366 
" style="fill:none;stroke:#000000;stroke-dasharray:1.000000,3.000000;stroke-dashoffset:0.0;stroke-width:0.5;"/>
     </g>
     <g id="line2d_57">
      <g>
       <use style="stroke:#000000;stroke-width:0.5;" x="3.0" xlink:href="#mcf3ca1c783" y="157.663366337"/>
      </g>
     </g>
     <g id="line2d_58">
      <g>
       <use style="stroke:#000000;stroke-width:0.5;" x="567.24" xlink:href="#mb7ea5abb6c" y="157.663366337"/>
      </g>
     </g>
    </g>
    <g id="ytick_5">
     <g id="line2d_59">
      <path clip-path="url(#pcd1a9e66b5)" d="M 3 82.217822 
L 567.24 82.217822 
" style="fill:none;stroke:#000000;stroke-dasharray:1.000000,3.000000;stroke-dashoffset:0.0;stroke-width:0.5;"/>
     </g>
     <g id="line2d_60">
      <g>
       <use style="stroke:#000000;stroke-width:0.5;" x="3.0" xlink:href="#mcf3ca1c783" y="82.2178217822"/>
      </g>
     </g>
     <g id="line2d_61">
      <g>
       <use style="stroke:#000000;stroke-width:0.5;" x="567.24" xlink:href="#mb7ea5abb6c" y="82.2178217822"/>
      </g>
     </g>
    </g>
    <g id="ytick_6">
     <g id="line2d_62">
      <path clip-path="url(#pcd1a9e66b5)" d="M 3 6.772277 
L 567.24 6.772277 
" style="fill:none;stroke:#000000;stroke-dasharray:1.000000,3.000000;stroke-dashoffset:0.0;stroke-width:0.5;"/>
     </g>
     <g id="line2d_63">
      <g>
       <use style="stroke:#000000;stroke-width:0.5;" x="3.0" xlink:href="#mcf3ca1c783" y="6.77227722772"/>
      </g>
     </g>
     <g id="line2d_64">
      <g>
       <use style="stroke:#000000;stroke-width:0.5;" x="567.24" xlink:href="#mb7ea5abb6c" y="6.77227722772"/>
      </g>
     </g>
    </g>
   </g>
   <g id="text_10">
    <!-- {f1-f24}, 20-D -->
    <defs>
     <path d="M 12.5 -9.28125 
L 15.921875 -9.28125 
Q 22.75 -9.28125 24.828125 -7.171875 
Q 26.90625 -5.078125 26.90625 1.90625 
L 26.90625 14.015625 
Q 26.90625 21.625 29.09375 25.09375 
Q 31.296875 28.5625 36.71875 29.890625 
Q 31.296875 31.109375 29.09375 34.5625 
Q 26.90625 38.03125 26.90625 45.703125 
L 26.90625 57.8125 
Q 26.90625 64.75 24.828125 66.875 
Q 22.75 69 15.921875 69 
L 12.5 69 
L 12.5 75.984375 
L 15.578125 75.984375 
Q 27.734375 75.984375 31.8125 72.390625 
Q 35.890625 68.796875 35.890625 58.015625 
L 35.890625 46.296875 
Q 35.890625 39.015625 38.515625 36.203125 
Q 41.15625 33.40625 48.09375 33.40625 
L 51.125 33.40625 
L 51.125 26.421875 
L 48.09375 26.421875 
Q 41.15625 26.421875 38.515625 23.578125 
Q 35.890625 20.75 35.890625 13.375 
L 35.890625 1.703125 
Q 35.890625 -9.078125 31.8125 -12.6875 
Q 27.734375 -16.3125 15.578125 -16.3125 
L 12.5 -16.3125 
z
" id="BitstreamVeraSans-Roman-7d"/>
     <path d="M 51.125 -9.28125 
L 51.125 -16.3125 
L 48.09375 -16.3125 
Q 35.9375 -16.3125 31.8125 -12.6875 
Q 27.6875 -9.078125 27.6875 1.703125 
L 27.6875 13.375 
Q 27.6875 20.75 25.046875 23.578125 
Q 22.40625 26.421875 15.484375 26.421875 
L 12.5 26.421875 
L 12.5 33.40625 
L 15.484375 33.40625 
Q 22.46875 33.40625 25.078125 36.203125 
Q 27.6875 39.015625 27.6875 46.296875 
L 27.6875 58.015625 
Q 27.6875 68.796875 31.8125 72.390625 
Q 35.9375 75.984375 48.09375 75.984375 
L 51.125 75.984375 
L 51.125 69 
L 47.796875 69 
Q 40.921875 69 38.8125 66.84375 
Q 36.71875 64.703125 36.71875 57.8125 
L 36.71875 45.703125 
Q 36.71875 38.03125 34.5 34.5625 
Q 32.28125 31.109375 26.90625 29.890625 
Q 32.328125 28.5625 34.515625 25.09375 
Q 36.71875 21.625 36.71875 14.015625 
L 36.71875 1.90625 
Q 36.71875 -4.984375 38.8125 -7.125 
Q 40.921875 -9.28125 47.796875 -9.28125 
z
" id="BitstreamVeraSans-Roman-7b"/>
     <path d="M 11.71875 12.40625 
L 22.015625 12.40625 
L 22.015625 4 
L 14.015625 -11.625 
L 7.71875 -11.625 
L 11.71875 4 
z
" id="BitstreamVeraSans-Roman-2c"/>
    </defs>
    <g transform="translate(410.2552 376.38)scale(0.2 -0.2)">
     <use xlink:href="#BitstreamVeraSans-Roman-7b"/>
     <use x="63.623046875" xlink:href="#BitstreamVeraSans-Roman-66"/>
     <use x="98.828125" xlink:href="#BitstreamVeraSans-Roman-31"/>
     <use x="162.451171875" xlink:href="#BitstreamVeraSans-Roman-2d"/>
     <use x="198.53515625" xlink:href="#BitstreamVeraSans-Roman-66"/>
     <use x="233.740234375" xlink:href="#BitstreamVeraSans-Roman-32"/>
     <use x="297.36328125" xlink:href="#BitstreamVeraSans-Roman-34"/>
     <use x="360.986328125" xlink:href="#BitstreamVeraSans-Roman-7d"/>
     <use x="424.609375" xlink:href="#BitstreamVeraSans-Roman-2c"/>
     <use x="456.396484375" xlink:href="#BitstreamVeraSans-Roman-20"/>
     <use x="488.18359375" xlink:href="#BitstreamVeraSans-Roman-32"/>
     <use x="551.806640625" xlink:href="#BitstreamVeraSans-Roman-30"/>
     <use x="615.4296875" xlink:href="#BitstreamVeraSans-Roman-2d"/>
     <use x="651.513671875" xlink:href="#BitstreamVeraSans-Roman-44"/>
    </g>
   </g>
   <g id="text_11">
    <!-- v2.2.1.10 -->
    <defs>
     <path d="M 2.984375 54.6875 
L 12.5 54.6875 
L 29.59375 8.796875 
L 46.6875 54.6875 
L 56.203125 54.6875 
L 35.6875 0 
L 23.484375 0 
z
" id="BitstreamVeraSans-Roman-76"/>
     <path d="M 10.6875 12.40625 
L 21 12.40625 
L 21 0 
L 10.6875 0 
z
" id="BitstreamVeraSans-Roman-2e"/>
    </defs>
    <g style="fill:#808080;" transform="translate(261.4871875 378.1103125)scale(0.1 -0.1)">
     <use xlink:href="#BitstreamVeraSans-Roman-76"/>
     <use x="59.1796875" xlink:href="#BitstreamVeraSans-Roman-32"/>
     <use x="122.802734375" xlink:href="#BitstreamVeraSans-Roman-2e"/>
     <use x="154.58984375" xlink:href="#BitstreamVeraSans-Roman-32"/>
     <use x="218.212890625" xlink:href="#BitstreamVeraSans-Roman-2e"/>
     <use x="250.0" xlink:href="#BitstreamVeraSans-Roman-31"/>
     <use x="313.623046875" xlink:href="#BitstreamVeraSans-Roman-2e"/>
     <use x="345.41015625" xlink:href="#BitstreamVeraSans-Roman-31"/>
     <use x="409.033203125" xlink:href="#BitstreamVeraSans-Roman-30"/>
    </g>
   </g>
  </g>
 </g>
 <defs>
  <clipPath id="pcd1a9e66b5">
   <rect height="381.0" width="564.24" x="3.0" y="3.0"/>
  </clipPath>
 </defs>
</svg>
