<?xml version="1.0" encoding="utf-8" standalone="no"?>
<!DOCTYPE svg PUBLIC "-//W3C//DTD SVG 1.1//EN"
  "http://www.w3.org/Graphics/SVG/1.1/DTD/svg11.dtd">
<!-- Created with matplotlib (http://matplotlib.org/) -->
<svg height="432pt" version="1.1" viewBox="0 0 576 432" width="576pt" xmlns="http://www.w3.org/2000/svg" xmlns:xlink="http://www.w3.org/1999/xlink">
 <defs>
  <style type="text/css">
*{stroke-linecap:butt;stroke-linejoin:round;stroke-miterlimit:100000;}
  </style>
 </defs>
 <g id="figure_1">
  <g id="patch_1">
   <path d="M 0 432 
L 576 432 
L 576 0 
L 0 0 
z
" style="fill:#ffffff;"/>
  </g>
  <g id="axes_1">
   <g id="patch_2">
    <path d="M 55.425 384 
L 567.24 384 
L 567.24 7.678218 
L 55.425 7.678218 
z
" style="fill:#ffffff;"/>
   </g>
   <g id="line2d_1">
    <path clip-path="url(#p760000f813)" d="M 476.320958 384 
L 476.320958 377.79007 
L 477.720375 377.79007 
L 477.720375 371.580139 
L 481.182974 371.580139 
L 481.182974 365.370209 
L 483.926448 365.370209 
L 483.926448 359.160278 
L 489.714359 359.160278 
L 489.714359 352.950348 
L 492.733717 352.950348 
L 492.733717 346.740418 
L 495.855187 346.740418 
L 495.855187 340.530487 
L 496.870979 340.530487 
L 496.870979 334.320557 
L 497.47474 334.320557 
L 497.47474 328.110626 
L 497.775038 328.110626 
L 497.775038 321.900696 
L 498.074289 321.900696 
L 498.074289 315.690766 
L 499.945728 315.690766 
L 499.945728 309.480835 
L 500.62506 309.480835 
L 500.62506 303.270905 
L 500.62506 303.270905 
L 500.62506 297.060974 
L 502.914252 297.060974 
L 502.914252 290.851044 
L 504.499642 290.851044 
L 504.499642 284.641114 
L 504.960421 284.641114 
L 504.960421 278.431183 
L 505.052281 278.431183 
L 505.052281 272.221253 
L 507.763389 272.221253 
L 507.763389 266.011322 
L 510.218843 266.011322 
L 510.218843 259.801392 
L 515.09232 259.801392 
L 515.09232 253.591462 
L 535.436484 253.591462 
L 535.436484 247.381531 
L 539.28167 247.381531 
L 539.28167 241.171601 
L 539.650754 241.171601 
L 539.650754 234.96167 
L 553.613752 234.96167 
L 553.613752 228.75174 
L 555.624925 228.75174 
L 555.624925 222.54181 
L 577 222.54181 
" style="fill:none;stroke:#f5deb3;stroke-linecap:square;"/>
   </g>
   <g id="line2d_2">
    <path clip-path="url(#p760000f813)" d="M 777.447759 384 
" style="fill:none;stroke:#f5deb3;stroke-linecap:square;"/>
   </g>
   <g id="line2d_3">
    <path clip-path="url(#p760000f813)" d="M 307.546047 384 
L 307.546047 377.79007 
L 388.809892 377.79007 
L 388.809892 371.580139 
L 389.164264 371.580139 
L 389.164264 365.370209 
L 390.914528 365.370209 
L 390.914528 359.160278 
L 395.305091 359.160278 
L 395.305091 352.950348 
L 398.218422 352.950348 
L 398.218422 346.740418 
L 401.343676 346.740418 
L 401.343676 340.530487 
L 404.94987 340.530487 
L 404.94987 334.320557 
L 406.985651 334.320557 
L 406.985651 328.110626 
L 407.558553 328.110626 
L 407.558553 321.900696 
L 408.127661 321.900696 
L 408.127661 315.690766 
L 410.367137 315.690766 
L 410.367137 309.480835 
L 411.737741 309.480835 
L 411.737741 303.270905 
L 414.940659 303.270905 
L 414.940659 297.060974 
L 417.775354 297.060974 
L 417.775354 290.851044 
L 417.775354 290.851044 
L 417.775354 284.641114 
L 424.829144 284.641114 
L 424.829144 278.431183 
L 425.294917 278.431183 
L 425.294917 272.221253 
L 427.586654 272.221253 
L 427.586654 266.011322 
L 430.913586 266.011322 
L 430.913586 259.801392 
L 434.325847 259.801392 
L 434.325847 253.591462 
L 443.817971 253.591462 
L 443.817971 247.381531 
L 444.37781 247.381531 
L 444.37781 241.171601 
L 444.74902 241.171601 
L 444.74902 234.96167 
L 444.74902 234.96167 
L 444.74902 228.75174 
L 445.853125 228.75174 
L 445.853125 222.54181 
L 462.881409 222.54181 
L 462.881409 216.331879 
L 476.577099 216.331879 
L 476.577099 210.121949 
L 477.0871 210.121949 
L 477.0871 203.912018 
L 488.831835 203.912018 
L 488.831835 197.702088 
L 490.042983 197.702088 
L 490.042983 191.492158 
L 492.62769 191.492158 
L 492.62769 185.282227 
L 493.786855 185.282227 
L 493.786855 179.072297 
L 494.620171 179.072297 
L 494.620171 172.862366 
L 497.775038 172.862366 
L 497.775038 166.652436 
L 500.62506 166.652436 
L 500.62506 160.442506 
L 501.490669 160.442506 
L 501.490669 154.232575 
L 521.162698 154.232575 
L 521.162698 148.022645 
L 531.815553 148.022645 
L 531.815553 141.812714 
L 533.083743 141.812714 
L 533.083743 135.602784 
L 534.984023 135.602784 
L 534.984023 129.392854 
L 546.377998 129.392854 
L 546.377998 123.182923 
L 577 123.182923 
" style="fill:none;stroke:#f5deb3;stroke-linecap:square;"/>
   </g>
   <g id="line2d_4">
    <path clip-path="url(#p760000f813)" d="M 411.737741 384 
L 411.737741 377.79007 
L 502.062935 377.79007 
L 502.062935 371.580139 
L 504.499642 371.580139 
L 504.499642 365.370209 
L 519.082592 365.370209 
L 519.082592 359.160278 
L 520.781273 359.160278 
L 520.781273 352.950348 
L 521.23878 352.950348 
L 521.23878 346.740418 
L 522.146553 346.740418 
L 522.146553 340.530487 
L 522.447026 340.530487 
L 522.447026 334.320557 
L 522.596869 334.320557 
L 522.596869 328.110626 
L 522.671692 328.110626 
L 522.671692 321.900696 
L 523.34219 321.900696 
L 523.34219 315.690766 
L 523.7863 315.690766 
L 523.7863 309.480835 
L 524.081103 309.480835 
L 524.081103 303.270905 
L 527.04592 303.270905 
L 527.04592 297.060974 
L 527.612682 297.060974 
L 527.612682 290.851044 
L 533.612169 290.851044 
L 533.612169 284.641114 
L 536.652717 284.641114 
L 536.652717 278.431183 
L 539.404874 278.431183 
L 539.404874 272.221253 
L 540.687966 272.221253 
L 540.687966 266.011322 
L 541.051072 266.011322 
L 541.051072 259.801392 
L 543.139148 259.801392 
L 543.139148 253.591462 
L 543.374587 253.591462 
L 543.374587 247.381531 
L 543.785059 247.381531 
L 543.785059 241.171601 
L 545.177689 241.171601 
L 545.177689 234.96167 
L 547.89702 234.96167 
L 547.89702 228.75174 
L 548.008479 228.75174 
L 548.008479 222.54181 
L 552.616632 222.54181 
L 552.616632 216.331879 
L 554.289386 216.331879 
L 554.289386 210.121949 
L 556.889814 210.121949 
L 556.889814 203.912018 
L 556.940024 203.912018 
L 556.940024 197.702088 
L 557.540271 197.702088 
L 557.540271 191.492158 
L 563.369424 191.492158 
L 563.369424 185.282227 
L 567.506741 185.282227 
L 567.506741 179.072297 
L 570.000322 179.072297 
L 570.000322 172.862366 
L 572.549249 172.862366 
L 572.549249 166.652436 
L 575.106046 166.652436 
L 575.106046 160.442506 
L 575.18727 160.442506 
L 575.18727 154.232575 
L 577 154.232575 
" style="fill:none;stroke:#f5deb3;stroke-linecap:square;"/>
   </g>
   <g id="line2d_5">
    <path clip-path="url(#p760000f813)" d="M 520.013305 384 
L 520.013305 377.79007 
L 555.522924 377.79007 
L 555.522924 371.580139 
L 562.855541 371.580139 
L 562.855541 365.370209 
L 572.171696 365.370209 
L 572.171696 359.160278 
L 576.476521 359.160278 
L 576.476521 352.950348 
L 577 352.950348 
" style="fill:none;stroke:#f5deb3;stroke-linecap:square;"/>
   </g>
   <g id="line2d_6"/>
   <g id="line2d_7">
    <path clip-path="url(#p760000f813)" d="M 484.277921 384 
L 484.277921 377.79007 
L 489.933581 377.79007 
L 489.933581 371.580139 
L 493.577258 371.580139 
L 493.577258 365.370209 
L 562.149802 365.370209 
L 562.149802 359.160278 
L 564.755503 359.160278 
L 564.755503 352.950348 
L 566.434773 352.950348 
L 566.434773 346.740418 
L 568.477769 346.740418 
L 568.477769 340.530487 
L 569.870869 340.530487 
L 569.870869 334.320557 
L 569.957193 334.320557 
L 569.957193 328.110626 
L 571.453984 328.110626 
L 571.453984 321.900696 
L 571.961226 321.900696 
L 571.961226 315.690766 
L 572.591097 315.690766 
L 572.591097 309.480835 
L 572.591097 309.480835 
L 572.591097 303.270905 
L 573.257909 303.270905 
L 573.257909 297.060974 
L 573.672055 297.060974 
L 573.672055 290.851044 
L 573.960774 290.851044 
L 573.960774 284.641114 
L 574.043087 284.641114 
L 574.043087 278.431183 
L 574.166409 278.431183 
L 574.166409 272.221253 
L 574.57621 272.221253 
L 574.57621 266.011322 
L 575.146667 266.011322 
L 575.146667 259.801392 
L 575.308962 259.801392 
L 575.308962 253.591462 
L 576.196145 253.591462 
L 576.196145 247.381531 
L 577 247.381531 
" style="fill:none;stroke:#f5deb3;stroke-linecap:square;"/>
   </g>
   <g id="line2d_8">
    <path clip-path="url(#p760000f813)" d="M 757.961813 384 
" style="fill:none;stroke:#f5deb3;stroke-linecap:square;"/>
   </g>
   <g id="line2d_9">
    <path clip-path="url(#p760000f813)" d="M 428.037757 384 
L 428.037757 377.79007 
L 466.11907 377.79007 
L 466.11907 371.580139 
L 487.940154 371.580139 
L 487.940154 365.370209 
L 522.596869 365.370209 
L 522.596869 359.160278 
L 527.96502 359.160278 
L 527.96502 352.950348 
L 529.3601 352.950348 
L 529.3601 346.740418 
L 531.208236 346.740418 
L 531.208236 340.530487 
L 531.546164 340.530487 
L 531.546164 334.320557 
L 545.120111 334.320557 
L 545.120111 328.110626 
L 547.673667 328.110626 
L 547.673667 321.900696 
L 553.037883 321.900696 
L 553.037883 315.690766 
L 553.352472 315.690766 
L 553.352472 309.480835 
L 553.87424 309.480835 
L 553.87424 303.270905 
L 558.235301 303.270905 
L 558.235301 297.060974 
L 558.284732 297.060974 
L 558.284732 290.851044 
L 559.462614 290.851044 
L 559.462614 284.641114 
L 559.948673 284.641114 
L 559.948673 278.431183 
L 560.287286 278.431183 
L 560.287286 272.221253 
L 560.431999 272.221253 
L 560.431999 266.011322 
L 560.816711 266.011322 
L 560.816711 259.801392 
L 561.295193 259.801392 
L 561.295193 253.591462 
L 561.72356 253.591462 
L 561.72356 247.381531 
L 561.818463 247.381531 
L 561.818463 241.171601 
L 564.249866 241.171601 
L 564.249866 234.96167 
L 564.755503 234.96167 
L 564.755503 228.75174 
L 565.07573 228.75174 
L 565.07573 222.54181 
L 566.524616 222.54181 
L 566.524616 216.331879 
L 567.329006 216.331879 
L 567.329006 210.121949 
L 567.949478 210.121949 
L 567.949478 203.912018 
L 569.741221 203.912018 
L 569.741221 197.702088 
L 569.827675 197.702088 
L 569.827675 191.492158 
L 570.12958 191.492158 
L 570.12958 185.282227 
L 570.215644 185.282227 
L 570.215644 179.072297 
L 571.538732 179.072297 
L 571.538732 172.862366 
L 571.91907 172.862366 
L 571.91907 166.652436 
L 572.883464 166.652436 
L 572.883464 160.442506 
L 574.984065 160.442506 
L 574.984065 154.232575 
L 576.035519 154.232575 
L 576.035519 148.022645 
L 576.115869 148.022645 
L 576.115869 141.812714 
L 577 141.812714 
" style="fill:none;stroke:#f5deb3;stroke-linecap:square;"/>
   </g>
   <g id="line2d_10">
    <path clip-path="url(#p760000f813)" d="M 703.309719 384 
" style="fill:none;stroke:#f5deb3;stroke-linecap:square;"/>
   </g>
   <g id="line2d_11">
    <path clip-path="url(#p760000f813)" d="M 430.913586 384 
L 430.913586 377.79007 
L 507.317436 377.79007 
L 507.317436 371.580139 
L 511.761088 371.580139 
L 511.761088 365.370209 
L 514.106439 365.370209 
L 514.106439 359.160278 
L 523.119272 359.160278 
L 523.119272 352.950348 
L 525.973059 352.950348 
L 525.973059 346.740418 
L 532.21806 346.740418 
L 532.21806 340.530487 
L 532.552048 340.530487 
L 532.552048 334.320557 
L 536.716255 334.320557 
L 536.716255 328.110626 
L 537.663729 328.110626 
L 537.663729 321.900696 
L 539.58935 321.900696 
L 539.58935 315.690766 
L 540.687966 315.690766 
L 540.687966 309.480835 
L 558.77748 309.480835 
L 558.77748 303.270905 
L 570.559041 303.270905 
L 570.559041 297.060974 
L 577 297.060974 
" style="fill:none;stroke:#f5deb3;stroke-linecap:square;"/>
   </g>
   <g id="line2d_12">
    <path clip-path="url(#p760000f813)" d="M 402.259511 384 
L 402.259511 377.79007 
L 412.549731 377.79007 
L 412.549731 371.580139 
L 415.723077 371.580139 
L 415.723077 365.370209 
L 417.266861 365.370209 
L 417.266861 359.160278 
L 417.266861 359.160278 
L 417.266861 352.950348 
L 423.178763 352.950348 
L 423.178763 346.740418 
L 425.988878 346.740418 
L 425.988878 340.530487 
L 425.988878 340.530487 
L 425.988878 334.320557 
L 427.360211 334.320557 
L 427.360211 328.110626 
L 431.347602 328.110626 
L 431.347602 321.900696 
L 432.636652 321.900696 
L 432.636652 315.690766 
L 435.158153 315.690766 
L 435.158153 309.480835 
L 435.158153 309.480835 
L 435.158153 303.270905 
L 446.762499 303.270905 
L 446.762499 297.060974 
L 447.841196 297.060974 
L 447.841196 290.851044 
L 447.841196 290.851044 
L 447.841196 284.641114 
L 448.906519 284.641114 
L 448.906519 278.431183 
L 453.040464 278.431183 
L 453.040464 272.221253 
L 454.043607 272.221253 
L 454.043607 266.011322 
L 456.015434 266.011322 
L 456.015434 259.801392 
L 458.890852 259.801392 
L 458.890852 253.591462 
L 466.981302 253.591462 
L 466.981302 247.381531 
L 469.517273 247.381531 
L 469.517273 241.171601 
L 484.043766 241.171601 
L 484.043766 234.96167 
L 489.494577 234.96167 
L 489.494577 228.75174 
L 495.239898 228.75174 
L 495.239898 222.54181 
L 495.239898 222.54181 
L 495.239898 216.331879 
L 495.855187 216.331879 
L 495.855187 210.121949 
L 504.591995 210.121949 
L 504.591995 203.912018 
L 568.696935 203.912018 
L 568.696935 197.702088 
L 577 197.702088 
" style="fill:none;stroke:#f5deb3;stroke-linecap:square;"/>
   </g>
   <g id="line2d_13">
    <path clip-path="url(#p760000f813)" d="M 611.944385 384 
" style="fill:none;stroke:#f5deb3;stroke-linecap:square;"/>
   </g>
   <g id="line2d_14">
    <path clip-path="url(#p760000f813)" d="M 469.099774 384 
L 469.099774 377.79007 
L 477.467625 377.79007 
L 477.467625 371.580139 
L 501.681848 371.580139 
L 501.681848 365.370209 
L 508.648413 365.370209 
L 508.648413 359.160278 
L 514.518598 359.160278 
L 514.518598 352.950348 
L 517.508646 352.950348 
L 517.508646 346.740418 
L 522.52198 346.740418 
L 522.52198 340.530487 
L 528.804782 340.530487 
L 528.804782 334.320557 
L 531.748285 334.320557 
L 531.748285 328.110626 
L 539.03473 328.110626 
L 539.03473 321.900696 
L 539.404874 321.900696 
L 539.404874 315.690766 
L 540.384201 315.690766 
L 540.384201 309.480835 
L 542.428938 309.480835 
L 542.428938 303.270905 
L 546.717887 303.270905 
L 546.717887 297.060974 
L 550.964497 297.060974 
L 550.964497 290.851044 
L 560.86468 290.851044 
L 560.86468 284.641114 
L 563.880253 284.641114 
L 563.880253 278.431183 
L 566.209753 278.431183 
L 566.209753 272.221253 
L 574.248526 272.221253 
L 574.248526 266.011322 
L 577 266.011322 
" style="fill:none;stroke:#f5deb3;stroke-linecap:square;"/>
   </g>
   <g id="line2d_15">
    <path clip-path="url(#p760000f813)" d="M 861.844237 384 
" style="fill:none;stroke:#f5deb3;stroke-linecap:square;"/>
   </g>
   <g id="line2d_16">
    <path clip-path="url(#p760000f813)" d="M 752.229353 384 
" style="fill:none;stroke:#f5deb3;stroke-linecap:square;"/>
   </g>
   <g id="line2d_17">
    <path clip-path="url(#p760000f813)" d="M 620.621901 384 
" style="fill:none;stroke:#f5deb3;stroke-linecap:square;"/>
   </g>
   <g id="line2d_18">
    <path clip-path="url(#p760000f813)" d="M 411.737741 384 
L 411.737741 377.79007 
L 412.009258 377.79007 
L 412.009258 371.580139 
L 414.940659 371.580139 
L 414.940659 365.370209 
L 419.283025 365.370209 
L 419.283025 359.160278 
L 423.889954 359.160278 
L 423.889954 352.950348 
L 424.829144 352.950348 
L 424.829144 346.740418 
L 425.988878 346.740418 
L 425.988878 340.530487 
L 428.037757 340.530487 
L 428.037757 334.320557 
L 430.258424 334.320557 
L 430.258424 328.110626 
L 432.209113 328.110626 
L 432.209113 321.900696 
L 434.743008 321.900696 
L 434.743008 315.690766 
L 435.158153 315.690766 
L 435.158153 309.480835 
L 439.400226 309.480835 
L 439.400226 303.270905 
L 440.574755 303.270905 
L 440.574755 297.060974 
L 440.962724 297.060974 
L 440.962724 290.851044 
L 444.74902 290.851044 
L 444.74902 284.641114 
L 444.74902 284.641114 
L 444.74902 278.431183 
L 446.943225 278.431183 
L 446.943225 272.221253 
L 449.082796 272.221253 
L 449.082796 266.011322 
L 453.376148 266.011322 
L 453.376148 259.801392 
L 456.984637 259.801392 
L 456.984637 253.591462 
L 466.263378 253.591462 
L 466.263378 247.381531 
L 479.592672 247.381531 
L 479.592672 241.171601 
L 491.129407 241.171601 
L 491.129407 234.96167 
L 493.2619 234.96167 
L 493.2619 228.75174 
L 504.591995 228.75174 
L 504.591995 222.54181 
L 510.993425 222.54181 
L 510.993425 216.331879 
L 511.250075 216.331879 
L 511.250075 210.121949 
L 528.525772 210.121949 
L 528.525772 203.912018 
L 535.950681 203.912018 
L 535.950681 197.702088 
L 554.651001 197.702088 
L 554.651001 191.492158 
L 577 191.492158 
" style="fill:none;stroke:#f5deb3;stroke-linecap:square;"/>
   </g>
   <g id="line2d_19">
    <path clip-path="url(#p760000f813)" d="M 720.214674 384 
" style="fill:none;stroke:#f5deb3;stroke-linecap:square;"/>
   </g>
   <g id="line2d_20">
    <path clip-path="url(#p760000f813)" d="M 447.123571 384 
L 447.123571 377.79007 
L 454.870707 377.79007 
L 454.870707 371.580139 
L 458.101728 371.580139 
L 458.101728 365.370209 
L 464.66251 365.370209 
L 464.66251 359.160278 
L 467.12417 359.160278 
L 467.12417 352.950348 
L 468.539935 352.950348 
L 468.539935 346.740418 
L 469.378332 346.740418 
L 469.378332 340.530487 
L 470.346235 340.530487 
L 470.346235 334.320557 
L 472.919737 334.320557 
L 472.919737 328.110626 
L 473.848774 328.110626 
L 473.848774 321.900696 
L 480.940219 321.900696 
L 480.940219 315.690766 
L 482.027255 315.690766 
L 482.027255 309.480835 
L 484.043766 309.480835 
L 484.043766 303.270905 
L 485.899385 303.270905 
L 485.899385 297.060974 
L 486.014041 297.060974 
L 486.014041 290.851044 
L 487.378118 290.851044 
L 487.378118 284.641114 
L 487.603374 284.641114 
L 487.603374 278.431183 
L 494.308624 278.431183 
L 494.308624 272.221253 
L 498.372503 272.221253 
L 498.372503 266.011322 
L 503.757218 266.011322 
L 503.757218 259.801392 
L 507.227967 259.801392 
L 507.227967 253.591462 
L 515.255539 253.591462 
L 515.255539 247.381531 
L 516.147746 247.381531 
L 516.147746 241.171601 
L 530.049237 241.171601 
L 530.049237 234.96167 
L 533.677995 234.96167 
L 533.677995 228.75174 
L 538.351963 228.75174 
L 538.351963 222.54181 
L 543.315788 222.54181 
L 543.315788 216.331879 
L 548.064155 216.331879 
L 548.064155 210.121949 
L 559.21855 210.121949 
L 559.21855 203.912018 
L 565.212605 203.912018 
L 565.212605 197.702088 
L 577 197.702088 
" style="fill:none;stroke:#f5deb3;stroke-linecap:square;"/>
   </g>
   <g id="line2d_21"/>
   <g id="line2d_22">
    <path clip-path="url(#p760000f813)" d="M 430.477367 384 
L 430.477367 377.79007 
L 436.187328 377.79007 
L 436.187328 371.580139 
L 436.595571 371.580139 
L 436.595571 365.370209 
L 445.118634 365.370209 
L 445.118634 359.160278 
L 454.705923 359.160278 
L 454.705923 352.950348 
L 455.363173 352.950348 
L 455.363173 346.740418 
L 457.30529 346.740418 
L 457.30529 340.530487 
L 460.447688 340.530487 
L 460.447688 334.320557 
L 463.47922 334.320557 
L 463.47922 328.110626 
L 468.258642 328.110626 
L 468.258642 321.900696 
L 470.483621 321.900696 
L 470.483621 315.690766 
L 478.724007 315.690766 
L 478.724007 309.480835 
L 479.097368 309.480835 
L 479.097368 303.270905 
L 490.80492 303.270905 
L 490.80492 297.060974 
L 499.555113 297.060974 
L 499.555113 290.851044 
L 504.314636 290.851044 
L 504.314636 284.641114 
L 505.327273 284.641114 
L 505.327273 278.431183 
L 508.029855 278.431183 
L 508.029855 272.221253 
L 512.100082 272.221253 
L 512.100082 266.011322 
L 513.692293 266.011322 
L 513.692293 259.801392 
L 516.067018 259.801392 
L 516.067018 253.591462 
L 518.926488 253.591462 
L 518.926488 247.381531 
L 523.044837 247.381531 
L 523.044837 241.171601 
L 567.150902 241.171601 
L 567.150902 234.96167 
L 567.861113 234.96167 
L 567.861113 228.75174 
L 577 228.75174 
" style="fill:none;stroke:#f5deb3;stroke-linecap:square;"/>
   </g>
   <g id="line2d_23">
    <path clip-path="url(#p760000f813)" d="M 660.000944 384 
" style="fill:none;stroke:#f5deb3;stroke-linecap:square;"/>
   </g>
   <g id="line2d_24">
    <path clip-path="url(#p760000f813)" d="M 481.545825 384 
L 481.545825 377.79007 
L 486.812382 377.79007 
L 486.812382 371.580139 
L 488.609781 371.580139 
L 488.609781 365.370209 
L 505.144042 365.370209 
L 505.144042 359.160278 
L 505.327273 359.160278 
L 505.327273 352.950348 
L 511.07906 352.950348 
L 511.07906 346.740418 
L 517.983864 346.740418 
L 517.983864 340.530487 
L 527.04592 340.530487 
L 527.04592 334.320557 
L 551.767885 334.320557 
L 551.767885 328.110626 
L 560.720695 328.110626 
L 560.720695 321.900696 
L 566.748814 321.900696 
L 566.748814 315.690766 
L 577 315.690766 
" style="fill:none;stroke:#f5deb3;stroke-linecap:square;"/>
   </g>
   <g id="line2d_25">
    <path clip-path="url(#p760000f813)" d="M 803.833336 384 
" style="fill:none;stroke:#f5deb3;stroke-linecap:square;"/>
   </g>
   <g id="line2d_26">
    <path clip-path="url(#p760000f813)" d="M 620.813081 384 
" style="fill:none;stroke:#f5deb3;stroke-linecap:square;"/>
   </g>
   <g id="line2d_27"/>
   <g id="line2d_28">
    <path clip-path="url(#p760000f813)" d="M 455.689923 384 
L 455.689923 377.79007 
L 458.890852 377.79007 
L 458.890852 371.580139 
L 468.960156 371.580139 
L 468.960156 365.370209 
L 484.043766 365.370209 
L 484.043766 359.160278 
L 529.152276 359.160278 
L 529.152276 352.950348 
L 563.972805 352.950348 
L 563.972805 346.740418 
L 574.043087 346.740418 
L 574.043087 340.530487 
L 576.476521 340.530487 
L 576.476521 334.320557 
L 576.875477 334.320557 
L 576.875477 328.110626 
L 577 328.110626 
" style="fill:none;stroke:#f5deb3;stroke-linecap:square;"/>
   </g>
   <g id="line2d_29">
    <path clip-path="url(#p760000f813)" d="M 382.931702 384 
L 382.931702 377.79007 
L 382.931702 377.79007 
L 382.931702 371.580139 
L 382.931702 371.580139 
L 382.931702 365.370209 
L 415.723077 365.370209 
L 415.723077 359.160278 
L 415.723077 359.160278 
L 415.723077 352.950348 
L 415.723077 352.950348 
L 415.723077 346.740418 
L 418.783401 346.740418 
L 418.783401 340.530487 
L 418.783401 340.530487 
L 418.783401 334.320557 
L 418.783401 334.320557 
L 418.783401 328.110626 
L 419.531751 328.110626 
L 419.531751 321.900696 
L 419.531751 321.900696 
L 419.531751 315.690766 
L 419.531751 315.690766 
L 419.531751 309.480835 
L 424.360832 309.480835 
L 424.360832 303.270905 
L 424.360832 303.270905 
L 424.360832 297.060974 
L 424.360832 297.060974 
L 424.360832 290.851044 
L 432.209113 290.851044 
L 432.209113 284.641114 
L 432.209113 284.641114 
L 432.209113 278.431183 
L 432.209113 278.431183 
L 432.209113 272.221253 
L 432.849626 272.221253 
L 432.849626 266.011322 
L 432.849626 266.011322 
L 432.849626 259.801392 
L 432.849626 259.801392 
L 432.849626 253.591462 
L 436.187328 253.591462 
L 436.187328 247.381531 
L 436.187328 247.381531 
L 436.187328 241.171601 
L 436.187328 241.171601 
L 436.187328 234.96167 
L 458.418248 234.96167 
L 458.418248 228.75174 
L 458.418248 228.75174 
L 458.418248 222.54181 
L 458.418248 222.54181 
L 458.418248 216.331879 
L 503.008324 216.331879 
L 503.008324 210.121949 
L 503.008324 210.121949 
L 503.008324 203.912018 
L 503.008324 203.912018 
L 503.008324 197.702088 
L 577 197.702088 
" style="fill:none;stroke:#f5deb3;stroke-linecap:square;"/>
   </g>
   <g id="line2d_30">
    <path clip-path="url(#p760000f813)" d="M 650.660532 384 
" style="fill:none;stroke:#f5deb3;stroke-linecap:square;"/>
   </g>
   <g id="line2d_31">
    <path clip-path="url(#p760000f813)" d="M 321.053793 384 
L 321.053793 377.79007 
L 322.602214 377.79007 
L 322.602214 371.580139 
L 322.602214 371.580139 
L 322.602214 365.370209 
L 357.445866 365.370209 
L 357.445866 359.160278 
L 392.289518 359.160278 
L 392.289518 352.950348 
L 392.289518 352.950348 
L 392.289518 346.740418 
L 400.107179 346.740418 
L 400.107179 340.530487 
L 427.586654 340.530487 
L 427.586654 334.320557 
L 428.932922 334.320557 
L 428.932922 328.110626 
L 434.116504 328.110626 
L 434.116504 321.900696 
L 435.777136 321.900696 
L 435.777136 315.690766 
L 437.406285 315.690766 
L 437.406285 309.480835 
L 441.348949 309.480835 
L 441.348949 303.270905 
L 446.581393 303.270905 
L 446.581393 297.060974 
L 451.170389 297.060974 
L 451.170389 290.851044 
L 453.20847 290.851044 
L 453.20847 284.641114 
L 470.483621 284.641114 
L 470.483621 278.431183 
L 480.085138 278.431183 
L 480.085138 272.221253 
L 482.266962 272.221253 
L 482.266962 266.011322 
L 482.506002 266.011322 
L 482.506002 259.801392 
L 484.627963 259.801392 
L 484.627963 253.591462 
L 492.202268 253.591462 
L 492.202268 247.381531 
L 515.905334 247.381531 
L 515.905334 241.171601 
L 525.828994 241.171601 
L 525.828994 234.96167 
L 527.542041 234.96167 
L 527.542041 228.75174 
L 545.694161 228.75174 
L 545.694161 222.54181 
L 546.943734 222.54181 
L 546.943734 216.331879 
L 549.060193 216.331879 
L 549.060193 210.121949 
L 550.695024 210.121949 
L 550.695024 203.912018 
L 561.533438 203.912018 
L 561.533438 197.702088 
L 561.533438 197.702088 
L 561.533438 197.702088 
L 567.24 197.702088 
" style="fill:none;stroke:#000000;stroke-linecap:square;"/>
   </g>
   <g id="line2d_32">
    <path clip-path="url(#p760000f813)" d="M -59504.256099 756.595824 
" style="fill:none;stroke:#000000;stroke-linecap:square;"/>
   </g>
   <g id="line2d_33">
    <path clip-path="url(#p760000f813)" d="M 506.147009 384 
L 506.147009 377.79007 
L 522.146553 377.79007 
L 522.146553 371.580139 
L 534.7244 371.580139 
L 534.7244 365.370209 
L 536.398094 365.370209 
L 536.398094 359.160278 
L 539.773431 359.160278 
L 539.773431 352.950348 
L 544.193579 352.950348 
L 544.193579 346.740418 
L 565.167004 346.740418 
L 565.167004 340.530487 
L 565.167004 340.530487 
L 565.167004 340.530487 
L 567.24 340.530487 
" style="fill:none;stroke:#00bfbf;stroke-linecap:square;"/>
   </g>
   <g id="line2d_34">
    <path clip-path="url(#p760000f813)" d="M -59504.256099 756.595824 
" style="fill:none;stroke:#00bfbf;stroke-linecap:square;"/>
   </g>
   <g id="line2d_35">
    <path clip-path="url(#p760000f813)" d="M 548.839847 384 
L 548.839847 377.79007 
L 551.767885 377.79007 
L 551.767885 371.580139 
L 558.826599 371.580139 
L 558.826599 365.370209 
L 558.826599 365.370209 
L 558.826599 365.370209 
L 567.24 365.370209 
" style="fill:none;stroke:#bf00bf;stroke-linecap:square;"/>
   </g>
   <g id="line2d_36">
    <path clip-path="url(#p760000f813)" d="M -59504.256099 756.595824 
" style="fill:none;stroke:#bf00bf;stroke-linecap:square;"/>
   </g>
   <g id="line2d_37">
    <path clip-path="url(#p760000f813)" d="M 558.728332 384 
L 558.728332 377.79007 
L 558.728332 377.79007 
L 558.728332 377.79007 
L 567.24 377.79007 
" style="fill:none;stroke:#ff0000;stroke-linecap:square;stroke-width:3.0;"/>
   </g>
   <g id="line2d_38">
    <path clip-path="url(#p760000f813)" d="M -59504.256099 756.595824 
" style="fill:none;stroke:#ff0000;stroke-linecap:square;stroke-width:3.0;"/>
   </g>
   <g id="line2d_39">
    <path clip-path="url(#p760000f813)" d="M 558.728332 384 
L 558.728332 7.678218 
" style="fill:none;stroke:#000000;stroke-linecap:square;"/>
   </g>
   <g id="patch_3">
    <path d="M 55.425 7.678218 
L 567.24 7.678218 
" style="fill:none;stroke:#000000;stroke-linecap:square;stroke-linejoin:miter;"/>
   </g>
   <g id="patch_4">
    <path d="M 567.24 384 
L 567.24 7.678218 
" style="fill:none;stroke:#000000;stroke-linecap:square;stroke-linejoin:miter;"/>
   </g>
   <g id="patch_5">
    <path d="M 55.425 384 
L 567.24 384 
" style="fill:none;stroke:#000000;stroke-linecap:square;stroke-linejoin:miter;"/>
   </g>
   <g id="patch_6">
    <path d="M 55.425 384 
L 55.425 7.678218 
" style="fill:none;stroke:#000000;stroke-linecap:square;stroke-linejoin:miter;"/>
   </g>
   <g id="matplotlib.axis_1">
    <g id="xtick_1">
     <g id="line2d_40">
      <path clip-path="url(#p760000f813)" d="M 55.425 384 
L 55.425 7.678218 
" style="fill:none;stroke:#000000;stroke-dasharray:1.000000,3.000000;stroke-dashoffset:0.0;stroke-width:0.5;"/>
     </g>
     <g id="line2d_41">
      <defs>
       <path d="M 0 0 
L 0 -4 
" id="m8c70301573" style="stroke:#000000;stroke-width:0.5;"/>
      </defs>
      <g>
       <use style="stroke:#000000;stroke-width:0.5;" x="55.425" xlink:href="#m8c70301573" y="384.0"/>
      </g>
     </g>
     <g id="line2d_42">
      <defs>
       <path d="M 0 0 
L 0 4 
" id="mc2fce808e1" style="stroke:#000000;stroke-width:0.5;"/>
      </defs>
      <g>
       <use style="stroke:#000000;stroke-width:0.5;" x="55.425" xlink:href="#mc2fce808e1" y="7.67821782178"/>
      </g>
     </g>
     <g id="text_1">
      <!-- 0 -->
      <defs>
       <path d="M 31.78125 66.40625 
Q 24.171875 66.40625 20.328125 58.90625 
Q 16.5 51.421875 16.5 36.375 
Q 16.5 21.390625 20.328125 13.890625 
Q 24.171875 6.390625 31.78125 6.390625 
Q 39.453125 6.390625 43.28125 13.890625 
Q 47.125 21.390625 47.125 36.375 
Q 47.125 51.421875 43.28125 58.90625 
Q 39.453125 66.40625 31.78125 66.40625 
M 31.78125 74.21875 
Q 44.046875 74.21875 50.515625 64.515625 
Q 56.984375 54.828125 56.984375 36.375 
Q 56.984375 17.96875 50.515625 8.265625 
Q 44.046875 -1.421875 31.78125 -1.421875 
Q 19.53125 -1.421875 13.0625 8.265625 
Q 6.59375 17.96875 6.59375 36.375 
Q 6.59375 54.828125 13.0625 64.515625 
Q 19.53125 74.21875 31.78125 74.21875 
" id="BitstreamVeraSans-Roman-30"/>
      </defs>
      <g transform="translate(49.0625 403.196875)scale(0.2 -0.2)">
       <use xlink:href="#BitstreamVeraSans-Roman-30"/>
      </g>
     </g>
    </g>
    <g id="xtick_2">
     <g id="line2d_43">
      <path clip-path="url(#p760000f813)" d="M 253.297695 384 
L 253.297695 7.678218 
" style="fill:none;stroke:#000000;stroke-dasharray:1.000000,3.000000;stroke-dashoffset:0.0;stroke-width:0.5;"/>
     </g>
     <g id="line2d_44">
      <g>
       <use style="stroke:#000000;stroke-width:0.5;" x="253.29769468" xlink:href="#m8c70301573" y="384.0"/>
      </g>
     </g>
     <g id="line2d_45">
      <g>
       <use style="stroke:#000000;stroke-width:0.5;" x="253.29769468" xlink:href="#mc2fce808e1" y="7.67821782178"/>
      </g>
     </g>
     <g id="text_2">
      <!-- 1 -->
      <defs>
       <path d="M 12.40625 8.296875 
L 28.515625 8.296875 
L 28.515625 63.921875 
L 10.984375 60.40625 
L 10.984375 69.390625 
L 28.421875 72.90625 
L 38.28125 72.90625 
L 38.28125 8.296875 
L 54.390625 8.296875 
L 54.390625 0 
L 12.40625 0 
z
" id="BitstreamVeraSans-Roman-31"/>
      </defs>
      <g transform="translate(246.93519468 403.196875)scale(0.2 -0.2)">
       <use xlink:href="#BitstreamVeraSans-Roman-31"/>
      </g>
     </g>
    </g>
    <g id="xtick_3">
     <g id="line2d_46">
      <path clip-path="url(#p760000f813)" d="M 451.170389 384 
L 451.170389 7.678218 
" style="fill:none;stroke:#000000;stroke-dasharray:1.000000,3.000000;stroke-dashoffset:0.0;stroke-width:0.5;"/>
     </g>
     <g id="line2d_47">
      <g>
       <use style="stroke:#000000;stroke-width:0.5;" x="451.17038936" xlink:href="#m8c70301573" y="384.0"/>
      </g>
     </g>
     <g id="line2d_48">
      <g>
       <use style="stroke:#000000;stroke-width:0.5;" x="451.17038936" xlink:href="#mc2fce808e1" y="7.67821782178"/>
      </g>
     </g>
     <g id="text_3">
      <!-- 2 -->
      <defs>
       <path d="M 19.1875 8.296875 
L 53.609375 8.296875 
L 53.609375 0 
L 7.328125 0 
L 7.328125 8.296875 
Q 12.9375 14.109375 22.625 23.890625 
Q 32.328125 33.6875 34.8125 36.53125 
Q 39.546875 41.84375 41.421875 45.53125 
Q 43.3125 49.21875 43.3125 52.78125 
Q 43.3125 58.59375 39.234375 62.25 
Q 35.15625 65.921875 28.609375 65.921875 
Q 23.96875 65.921875 18.8125 64.3125 
Q 13.671875 62.703125 7.8125 59.421875 
L 7.8125 69.390625 
Q 13.765625 71.78125 18.9375 73 
Q 24.125 74.21875 28.421875 74.21875 
Q 39.75 74.21875 46.484375 68.546875 
Q 53.21875 62.890625 53.21875 53.421875 
Q 53.21875 48.921875 51.53125 44.890625 
Q 49.859375 40.875 45.40625 35.40625 
Q 44.1875 33.984375 37.640625 27.21875 
Q 31.109375 20.453125 19.1875 8.296875 
" id="BitstreamVeraSans-Roman-32"/>
      </defs>
      <g transform="translate(444.80788936 403.196875)scale(0.2 -0.2)">
       <use xlink:href="#BitstreamVeraSans-Roman-32"/>
      </g>
     </g>
    </g>
    <g id="xtick_4">
     <g id="line2d_49">
      <defs>
       <path d="M 0 0 
L 0 -2 
" id="mfb0f674e2c" style="stroke:#000000;stroke-width:0.5;"/>
      </defs>
      <g>
       <use style="stroke:#000000;stroke-width:0.5;" x="114.990616421" xlink:href="#mfb0f674e2c" y="384.0"/>
      </g>
     </g>
     <g id="line2d_50">
      <defs>
       <path d="M 0 0 
L 0 2 
" id="mca71827d40" style="stroke:#000000;stroke-width:0.5;"/>
      </defs>
      <g>
       <use style="stroke:#000000;stroke-width:0.5;" x="114.990616421" xlink:href="#mca71827d40" y="7.67821782178"/>
      </g>
     </g>
    </g>
    <g id="xtick_5">
     <g id="line2d_51">
      <g>
       <use style="stroke:#000000;stroke-width:0.5;" x="149.83426836" xlink:href="#mfb0f674e2c" y="384.0"/>
      </g>
     </g>
     <g id="line2d_52">
      <g>
       <use style="stroke:#000000;stroke-width:0.5;" x="149.83426836" xlink:href="#mca71827d40" y="7.67821782178"/>
      </g>
     </g>
    </g>
    <g id="xtick_6">
     <g id="line2d_53">
      <g>
       <use style="stroke:#000000;stroke-width:0.5;" x="174.556232843" xlink:href="#mfb0f674e2c" y="384.0"/>
      </g>
     </g>
     <g id="line2d_54">
      <g>
       <use style="stroke:#000000;stroke-width:0.5;" x="174.556232843" xlink:href="#mca71827d40" y="7.67821782178"/>
      </g>
     </g>
    </g>
    <g id="xtick_7">
     <g id="line2d_55">
      <g>
       <use style="stroke:#000000;stroke-width:0.5;" x="193.732078258" xlink:href="#mfb0f674e2c" y="384.0"/>
      </g>
     </g>
     <g id="line2d_56">
      <g>
       <use style="stroke:#000000;stroke-width:0.5;" x="193.732078258" xlink:href="#mca71827d40" y="7.67821782178"/>
      </g>
     </g>
    </g>
    <g id="xtick_8">
     <g id="line2d_57">
      <g>
       <use style="stroke:#000000;stroke-width:0.5;" x="209.399884782" xlink:href="#mfb0f674e2c" y="384.0"/>
      </g>
     </g>
     <g id="line2d_58">
      <g>
       <use style="stroke:#000000;stroke-width:0.5;" x="209.399884782" xlink:href="#mca71827d40" y="7.67821782178"/>
      </g>
     </g>
    </g>
    <g id="xtick_9">
     <g id="line2d_59">
      <g>
       <use style="stroke:#000000;stroke-width:0.5;" x="222.646826446" xlink:href="#mfb0f674e2c" y="384.0"/>
      </g>
     </g>
     <g id="line2d_60">
      <g>
       <use style="stroke:#000000;stroke-width:0.5;" x="222.646826446" xlink:href="#mca71827d40" y="7.67821782178"/>
      </g>
     </g>
    </g>
    <g id="xtick_10">
     <g id="line2d_61">
      <g>
       <use style="stroke:#000000;stroke-width:0.5;" x="234.121849264" xlink:href="#mfb0f674e2c" y="384.0"/>
      </g>
     </g>
     <g id="line2d_62">
      <g>
       <use style="stroke:#000000;stroke-width:0.5;" x="234.121849264" xlink:href="#mca71827d40" y="7.67821782178"/>
      </g>
     </g>
    </g>
    <g id="xtick_11">
     <g id="line2d_63">
      <g>
       <use style="stroke:#000000;stroke-width:0.5;" x="244.243536721" xlink:href="#mfb0f674e2c" y="384.0"/>
      </g>
     </g>
     <g id="line2d_64">
      <g>
       <use style="stroke:#000000;stroke-width:0.5;" x="244.243536721" xlink:href="#mca71827d40" y="7.67821782178"/>
      </g>
     </g>
    </g>
    <g id="xtick_12">
     <g id="line2d_65">
      <g>
       <use style="stroke:#000000;stroke-width:0.5;" x="312.863311101" xlink:href="#mfb0f674e2c" y="384.0"/>
      </g>
     </g>
     <g id="line2d_66">
      <g>
       <use style="stroke:#000000;stroke-width:0.5;" x="312.863311101" xlink:href="#mca71827d40" y="7.67821782178"/>
      </g>
     </g>
    </g>
    <g id="xtick_13">
     <g id="line2d_67">
      <g>
       <use style="stroke:#000000;stroke-width:0.5;" x="347.70696304" xlink:href="#mfb0f674e2c" y="384.0"/>
      </g>
     </g>
     <g id="line2d_68">
      <g>
       <use style="stroke:#000000;stroke-width:0.5;" x="347.70696304" xlink:href="#mca71827d40" y="7.67821782178"/>
      </g>
     </g>
    </g>
    <g id="xtick_14">
     <g id="line2d_69">
      <g>
       <use style="stroke:#000000;stroke-width:0.5;" x="372.428927523" xlink:href="#mfb0f674e2c" y="384.0"/>
      </g>
     </g>
     <g id="line2d_70">
      <g>
       <use style="stroke:#000000;stroke-width:0.5;" x="372.428927523" xlink:href="#mca71827d40" y="7.67821782178"/>
      </g>
     </g>
    </g>
    <g id="xtick_15">
     <g id="line2d_71">
      <g>
       <use style="stroke:#000000;stroke-width:0.5;" x="391.604772938" xlink:href="#mfb0f674e2c" y="384.0"/>
      </g>
     </g>
     <g id="line2d_72">
      <g>
       <use style="stroke:#000000;stroke-width:0.5;" x="391.604772938" xlink:href="#mca71827d40" y="7.67821782178"/>
      </g>
     </g>
    </g>
    <g id="xtick_16">
     <g id="line2d_73">
      <g>
       <use style="stroke:#000000;stroke-width:0.5;" x="407.272579462" xlink:href="#mfb0f674e2c" y="384.0"/>
      </g>
     </g>
     <g id="line2d_74">
      <g>
       <use style="stroke:#000000;stroke-width:0.5;" x="407.272579462" xlink:href="#mca71827d40" y="7.67821782178"/>
      </g>
     </g>
    </g>
    <g id="xtick_17">
     <g id="line2d_75">
      <g>
       <use style="stroke:#000000;stroke-width:0.5;" x="420.519521126" xlink:href="#mfb0f674e2c" y="384.0"/>
      </g>
     </g>
     <g id="line2d_76">
      <g>
       <use style="stroke:#000000;stroke-width:0.5;" x="420.519521126" xlink:href="#mca71827d40" y="7.67821782178"/>
      </g>
     </g>
    </g>
    <g id="xtick_18">
     <g id="line2d_77">
      <g>
       <use style="stroke:#000000;stroke-width:0.5;" x="431.994543944" xlink:href="#mfb0f674e2c" y="384.0"/>
      </g>
     </g>
     <g id="line2d_78">
      <g>
       <use style="stroke:#000000;stroke-width:0.5;" x="431.994543944" xlink:href="#mca71827d40" y="7.67821782178"/>
      </g>
     </g>
    </g>
    <g id="xtick_19">
     <g id="line2d_79">
      <g>
       <use style="stroke:#000000;stroke-width:0.5;" x="442.116231401" xlink:href="#mfb0f674e2c" y="384.0"/>
      </g>
     </g>
     <g id="line2d_80">
      <g>
       <use style="stroke:#000000;stroke-width:0.5;" x="442.116231401" xlink:href="#mca71827d40" y="7.67821782178"/>
      </g>
     </g>
    </g>
    <g id="xtick_20">
     <g id="line2d_81">
      <g>
       <use style="stroke:#000000;stroke-width:0.5;" x="510.736005781" xlink:href="#mfb0f674e2c" y="384.0"/>
      </g>
     </g>
     <g id="line2d_82">
      <g>
       <use style="stroke:#000000;stroke-width:0.5;" x="510.736005781" xlink:href="#mca71827d40" y="7.67821782178"/>
      </g>
     </g>
    </g>
    <g id="xtick_21">
     <g id="line2d_83">
      <g>
       <use style="stroke:#000000;stroke-width:0.5;" x="545.57965772" xlink:href="#mfb0f674e2c" y="384.0"/>
      </g>
     </g>
     <g id="line2d_84">
      <g>
       <use style="stroke:#000000;stroke-width:0.5;" x="545.57965772" xlink:href="#mca71827d40" y="7.67821782178"/>
      </g>
     </g>
    </g>
    <g id="text_4">
     <!-- log10 of FEvals / DIM -->
     <defs>
      <path id="BitstreamVeraSans-Roman-20"/>
      <path d="M 9.8125 72.90625 
L 24.515625 72.90625 
L 43.109375 23.296875 
L 61.8125 72.90625 
L 76.515625 72.90625 
L 76.515625 0 
L 66.890625 0 
L 66.890625 64.015625 
L 48.09375 14.015625 
L 38.1875 14.015625 
L 19.390625 64.015625 
L 19.390625 0 
L 9.8125 0 
z
" id="BitstreamVeraSans-Roman-4d"/>
      <path d="M 30.609375 48.390625 
Q 23.390625 48.390625 19.1875 42.75 
Q 14.984375 37.109375 14.984375 27.296875 
Q 14.984375 17.484375 19.15625 11.84375 
Q 23.34375 6.203125 30.609375 6.203125 
Q 37.796875 6.203125 41.984375 11.859375 
Q 46.1875 17.53125 46.1875 27.296875 
Q 46.1875 37.015625 41.984375 42.703125 
Q 37.796875 48.390625 30.609375 48.390625 
M 30.609375 56 
Q 42.328125 56 49.015625 48.375 
Q 55.71875 40.765625 55.71875 27.296875 
Q 55.71875 13.875 49.015625 6.21875 
Q 42.328125 -1.421875 30.609375 -1.421875 
Q 18.84375 -1.421875 12.171875 6.21875 
Q 5.515625 13.875 5.515625 27.296875 
Q 5.515625 40.765625 12.171875 48.375 
Q 18.84375 56 30.609375 56 
" id="BitstreamVeraSans-Roman-6f"/>
      <path d="M 9.421875 75.984375 
L 18.40625 75.984375 
L 18.40625 0 
L 9.421875 0 
z
" id="BitstreamVeraSans-Roman-6c"/>
      <path d="M 9.8125 72.90625 
L 51.703125 72.90625 
L 51.703125 64.59375 
L 19.671875 64.59375 
L 19.671875 43.109375 
L 48.578125 43.109375 
L 48.578125 34.8125 
L 19.671875 34.8125 
L 19.671875 0 
L 9.8125 0 
z
" id="BitstreamVeraSans-Roman-46"/>
      <path d="M 9.8125 72.90625 
L 55.90625 72.90625 
L 55.90625 64.59375 
L 19.671875 64.59375 
L 19.671875 43.015625 
L 54.390625 43.015625 
L 54.390625 34.71875 
L 19.671875 34.71875 
L 19.671875 8.296875 
L 56.78125 8.296875 
L 56.78125 0 
L 9.8125 0 
z
" id="BitstreamVeraSans-Roman-45"/>
      <path d="M 19.671875 64.796875 
L 19.671875 8.109375 
L 31.59375 8.109375 
Q 46.6875 8.109375 53.6875 14.9375 
Q 60.6875 21.78125 60.6875 36.53125 
Q 60.6875 51.171875 53.6875 57.984375 
Q 46.6875 64.796875 31.59375 64.796875 
z
M 9.8125 72.90625 
L 30.078125 72.90625 
Q 51.265625 72.90625 61.171875 64.09375 
Q 71.09375 55.28125 71.09375 36.53125 
Q 71.09375 17.671875 61.125 8.828125 
Q 51.171875 0 30.078125 0 
L 9.8125 0 
z
" id="BitstreamVeraSans-Roman-44"/>
      <path d="M 25.390625 72.90625 
L 33.6875 72.90625 
L 8.296875 -9.28125 
L 0 -9.28125 
z
" id="BitstreamVeraSans-Roman-2f"/>
      <path d="M 2.984375 54.6875 
L 12.5 54.6875 
L 29.59375 8.796875 
L 46.6875 54.6875 
L 56.203125 54.6875 
L 35.6875 0 
L 23.484375 0 
z
" id="BitstreamVeraSans-Roman-76"/>
      <path d="M 45.40625 27.984375 
Q 45.40625 37.75 41.375 43.109375 
Q 37.359375 48.484375 30.078125 48.484375 
Q 22.859375 48.484375 18.828125 43.109375 
Q 14.796875 37.75 14.796875 27.984375 
Q 14.796875 18.265625 18.828125 12.890625 
Q 22.859375 7.515625 30.078125 7.515625 
Q 37.359375 7.515625 41.375 12.890625 
Q 45.40625 18.265625 45.40625 27.984375 
M 54.390625 6.78125 
Q 54.390625 -7.171875 48.1875 -13.984375 
Q 42 -20.796875 29.203125 -20.796875 
Q 24.46875 -20.796875 20.265625 -20.09375 
Q 16.0625 -19.390625 12.109375 -17.921875 
L 12.109375 -9.1875 
Q 16.0625 -11.328125 19.921875 -12.34375 
Q 23.78125 -13.375 27.78125 -13.375 
Q 36.625 -13.375 41.015625 -8.765625 
Q 45.40625 -4.15625 45.40625 5.171875 
L 45.40625 9.625 
Q 42.625 4.78125 38.28125 2.390625 
Q 33.9375 0 27.875 0 
Q 17.828125 0 11.671875 7.65625 
Q 5.515625 15.328125 5.515625 27.984375 
Q 5.515625 40.671875 11.671875 48.328125 
Q 17.828125 56 27.875 56 
Q 33.9375 56 38.28125 53.609375 
Q 42.625 51.21875 45.40625 46.390625 
L 45.40625 54.6875 
L 54.390625 54.6875 
z
" id="BitstreamVeraSans-Roman-67"/>
      <path d="M 37.109375 75.984375 
L 37.109375 68.5 
L 28.515625 68.5 
Q 23.6875 68.5 21.796875 66.546875 
Q 19.921875 64.59375 19.921875 59.515625 
L 19.921875 54.6875 
L 34.71875 54.6875 
L 34.71875 47.703125 
L 19.921875 47.703125 
L 19.921875 0 
L 10.890625 0 
L 10.890625 47.703125 
L 2.296875 47.703125 
L 2.296875 54.6875 
L 10.890625 54.6875 
L 10.890625 58.5 
Q 10.890625 67.625 15.140625 71.796875 
Q 19.390625 75.984375 28.609375 75.984375 
z
" id="BitstreamVeraSans-Roman-66"/>
      <path d="M 34.28125 27.484375 
Q 23.390625 27.484375 19.1875 25 
Q 14.984375 22.515625 14.984375 16.5 
Q 14.984375 11.71875 18.140625 8.90625 
Q 21.296875 6.109375 26.703125 6.109375 
Q 34.1875 6.109375 38.703125 11.40625 
Q 43.21875 16.703125 43.21875 25.484375 
L 43.21875 27.484375 
z
M 52.203125 31.203125 
L 52.203125 0 
L 43.21875 0 
L 43.21875 8.296875 
Q 40.140625 3.328125 35.546875 0.953125 
Q 30.953125 -1.421875 24.3125 -1.421875 
Q 15.921875 -1.421875 10.953125 3.296875 
Q 6 8.015625 6 15.921875 
Q 6 25.140625 12.171875 29.828125 
Q 18.359375 34.515625 30.609375 34.515625 
L 43.21875 34.515625 
L 43.21875 35.40625 
Q 43.21875 41.609375 39.140625 45 
Q 35.0625 48.390625 27.6875 48.390625 
Q 23 48.390625 18.546875 47.265625 
Q 14.109375 46.140625 10.015625 43.890625 
L 10.015625 52.203125 
Q 14.9375 54.109375 19.578125 55.046875 
Q 24.21875 56 28.609375 56 
Q 40.484375 56 46.34375 49.84375 
Q 52.203125 43.703125 52.203125 31.203125 
" id="BitstreamVeraSans-Roman-61"/>
      <path d="M 44.28125 53.078125 
L 44.28125 44.578125 
Q 40.484375 46.53125 36.375 47.5 
Q 32.28125 48.484375 27.875 48.484375 
Q 21.1875 48.484375 17.84375 46.4375 
Q 14.5 44.390625 14.5 40.28125 
Q 14.5 37.15625 16.890625 35.375 
Q 19.28125 33.59375 26.515625 31.984375 
L 29.59375 31.296875 
Q 39.15625 29.25 43.1875 25.515625 
Q 47.21875 21.78125 47.21875 15.09375 
Q 47.21875 7.46875 41.1875 3.015625 
Q 35.15625 -1.421875 24.609375 -1.421875 
Q 20.21875 -1.421875 15.453125 -0.5625 
Q 10.6875 0.296875 5.421875 2 
L 5.421875 11.28125 
Q 10.40625 8.6875 15.234375 7.390625 
Q 20.0625 6.109375 24.8125 6.109375 
Q 31.15625 6.109375 34.5625 8.28125 
Q 37.984375 10.453125 37.984375 14.40625 
Q 37.984375 18.0625 35.515625 20.015625 
Q 33.0625 21.96875 24.703125 23.78125 
L 21.578125 24.515625 
Q 13.234375 26.265625 9.515625 29.90625 
Q 5.8125 33.546875 5.8125 39.890625 
Q 5.8125 47.609375 11.28125 51.796875 
Q 16.75 56 26.8125 56 
Q 31.78125 56 36.171875 55.265625 
Q 40.578125 54.546875 44.28125 53.078125 
" id="BitstreamVeraSans-Roman-73"/>
      <path d="M 9.8125 72.90625 
L 19.671875 72.90625 
L 19.671875 0 
L 9.8125 0 
z
" id="BitstreamVeraSans-Roman-49"/>
     </defs>
     <g transform="translate(206.2590625 427.553125)scale(0.2 -0.2)">
      <use xlink:href="#BitstreamVeraSans-Roman-6c"/>
      <use x="27.783203125" xlink:href="#BitstreamVeraSans-Roman-6f"/>
      <use x="88.96484375" xlink:href="#BitstreamVeraSans-Roman-67"/>
      <use x="152.44140625" xlink:href="#BitstreamVeraSans-Roman-31"/>
      <use x="216.064453125" xlink:href="#BitstreamVeraSans-Roman-30"/>
      <use x="279.6875" xlink:href="#BitstreamVeraSans-Roman-20"/>
      <use x="311.474609375" xlink:href="#BitstreamVeraSans-Roman-6f"/>
      <use x="372.65625" xlink:href="#BitstreamVeraSans-Roman-66"/>
      <use x="407.861328125" xlink:href="#BitstreamVeraSans-Roman-20"/>
      <use x="439.6484375" xlink:href="#BitstreamVeraSans-Roman-46"/>
      <use x="497.16796875" xlink:href="#BitstreamVeraSans-Roman-45"/>
      <use x="560.3515625" xlink:href="#BitstreamVeraSans-Roman-76"/>
      <use x="619.53125" xlink:href="#BitstreamVeraSans-Roman-61"/>
      <use x="680.810546875" xlink:href="#BitstreamVeraSans-Roman-6c"/>
      <use x="708.59375" xlink:href="#BitstreamVeraSans-Roman-73"/>
      <use x="760.693359375" xlink:href="#BitstreamVeraSans-Roman-20"/>
      <use x="792.48046875" xlink:href="#BitstreamVeraSans-Roman-2f"/>
      <use x="826.171875" xlink:href="#BitstreamVeraSans-Roman-20"/>
      <use x="857.958984375" xlink:href="#BitstreamVeraSans-Roman-44"/>
      <use x="934.9609375" xlink:href="#BitstreamVeraSans-Roman-49"/>
      <use x="964.453125" xlink:href="#BitstreamVeraSans-Roman-4d"/>
     </g>
    </g>
   </g>
   <g id="matplotlib.axis_2">
    <g id="ytick_1">
     <g id="line2d_85">
      <path clip-path="url(#p760000f813)" d="M 55.425 384 
L 567.24 384 
" style="fill:none;stroke:#000000;stroke-dasharray:1.000000,3.000000;stroke-dashoffset:0.0;stroke-width:0.5;"/>
     </g>
     <g id="line2d_86">
      <defs>
       <path d="M 0 0 
L 4 0 
" id="m888ff2cf25" style="stroke:#000000;stroke-width:0.5;"/>
      </defs>
      <g>
       <use style="stroke:#000000;stroke-width:0.5;" x="55.425" xlink:href="#m888ff2cf25" y="384.0"/>
      </g>
     </g>
     <g id="line2d_87">
      <defs>
       <path d="M 0 0 
L -4 0 
" id="m4895188151" style="stroke:#000000;stroke-width:0.5;"/>
      </defs>
      <g>
       <use style="stroke:#000000;stroke-width:0.5;" x="567.24" xlink:href="#m4895188151" y="384.0"/>
      </g>
     </g>
     <g id="text_5">
      <!-- 0.0 -->
      <defs>
       <path d="M 10.6875 12.40625 
L 21 12.40625 
L 21 0 
L 10.6875 0 
z
" id="BitstreamVeraSans-Roman-2e"/>
      </defs>
      <g transform="translate(25.98 388.415)scale(0.16 -0.16)">
       <use xlink:href="#BitstreamVeraSans-Roman-30"/>
       <use x="63.623046875" xlink:href="#BitstreamVeraSans-Roman-2e"/>
       <use x="95.41015625" xlink:href="#BitstreamVeraSans-Roman-30"/>
      </g>
     </g>
    </g>
    <g id="ytick_2">
     <g id="line2d_88">
      <path clip-path="url(#p760000f813)" d="M 55.425 309.480835 
L 567.24 309.480835 
" style="fill:none;stroke:#000000;stroke-dasharray:1.000000,3.000000;stroke-dashoffset:0.0;stroke-width:0.5;"/>
     </g>
     <g id="line2d_89">
      <g>
       <use style="stroke:#000000;stroke-width:0.5;" x="55.425" xlink:href="#m888ff2cf25" y="309.480835212"/>
      </g>
     </g>
     <g id="line2d_90">
      <g>
       <use style="stroke:#000000;stroke-width:0.5;" x="567.24" xlink:href="#m4895188151" y="309.480835212"/>
      </g>
     </g>
     <g id="text_6">
      <!-- 0.2 -->
      <g transform="translate(25.98 313.895835212)scale(0.16 -0.16)">
       <use xlink:href="#BitstreamVeraSans-Roman-30"/>
       <use x="63.623046875" xlink:href="#BitstreamVeraSans-Roman-2e"/>
       <use x="95.41015625" xlink:href="#BitstreamVeraSans-Roman-32"/>
      </g>
     </g>
    </g>
    <g id="ytick_3">
     <g id="line2d_91">
      <path clip-path="url(#p760000f813)" d="M 55.425 234.96167 
L 567.24 234.96167 
" style="fill:none;stroke:#000000;stroke-dasharray:1.000000,3.000000;stroke-dashoffset:0.0;stroke-width:0.5;"/>
     </g>
     <g id="line2d_92">
      <g>
       <use style="stroke:#000000;stroke-width:0.5;" x="55.425" xlink:href="#m888ff2cf25" y="234.961670424"/>
      </g>
     </g>
     <g id="line2d_93">
      <g>
       <use style="stroke:#000000;stroke-width:0.5;" x="567.24" xlink:href="#m4895188151" y="234.961670424"/>
      </g>
     </g>
     <g id="text_7">
      <!-- 0.4 -->
      <defs>
       <path d="M 37.796875 64.3125 
L 12.890625 25.390625 
L 37.796875 25.390625 
z
M 35.203125 72.90625 
L 47.609375 72.90625 
L 47.609375 25.390625 
L 58.015625 25.390625 
L 58.015625 17.1875 
L 47.609375 17.1875 
L 47.609375 0 
L 37.796875 0 
L 37.796875 17.1875 
L 4.890625 17.1875 
L 4.890625 26.703125 
z
" id="BitstreamVeraSans-Roman-34"/>
      </defs>
      <g transform="translate(25.98 239.376670424)scale(0.16 -0.16)">
       <use xlink:href="#BitstreamVeraSans-Roman-30"/>
       <use x="63.623046875" xlink:href="#BitstreamVeraSans-Roman-2e"/>
       <use x="95.41015625" xlink:href="#BitstreamVeraSans-Roman-34"/>
      </g>
     </g>
    </g>
    <g id="ytick_4">
     <g id="line2d_94">
      <path clip-path="url(#p760000f813)" d="M 55.425 160.442506 
L 567.24 160.442506 
" style="fill:none;stroke:#000000;stroke-dasharray:1.000000,3.000000;stroke-dashoffset:0.0;stroke-width:0.5;"/>
     </g>
     <g id="line2d_95">
      <g>
       <use style="stroke:#000000;stroke-width:0.5;" x="55.425" xlink:href="#m888ff2cf25" y="160.442505637"/>
      </g>
     </g>
     <g id="line2d_96">
      <g>
       <use style="stroke:#000000;stroke-width:0.5;" x="567.24" xlink:href="#m4895188151" y="160.442505637"/>
      </g>
     </g>
     <g id="text_8">
      <!-- 0.6 -->
      <defs>
       <path d="M 33.015625 40.375 
Q 26.375 40.375 22.484375 35.828125 
Q 18.609375 31.296875 18.609375 23.390625 
Q 18.609375 15.53125 22.484375 10.953125 
Q 26.375 6.390625 33.015625 6.390625 
Q 39.65625 6.390625 43.53125 10.953125 
Q 47.40625 15.53125 47.40625 23.390625 
Q 47.40625 31.296875 43.53125 35.828125 
Q 39.65625 40.375 33.015625 40.375 
M 52.59375 71.296875 
L 52.59375 62.3125 
Q 48.875 64.0625 45.09375 64.984375 
Q 41.3125 65.921875 37.59375 65.921875 
Q 27.828125 65.921875 22.671875 59.328125 
Q 17.53125 52.734375 16.796875 39.40625 
Q 19.671875 43.65625 24.015625 45.921875 
Q 28.375 48.1875 33.59375 48.1875 
Q 44.578125 48.1875 50.953125 41.515625 
Q 57.328125 34.859375 57.328125 23.390625 
Q 57.328125 12.15625 50.6875 5.359375 
Q 44.046875 -1.421875 33.015625 -1.421875 
Q 20.359375 -1.421875 13.671875 8.265625 
Q 6.984375 17.96875 6.984375 36.375 
Q 6.984375 53.65625 15.1875 63.9375 
Q 23.390625 74.21875 37.203125 74.21875 
Q 40.921875 74.21875 44.703125 73.484375 
Q 48.484375 72.75 52.59375 71.296875 
" id="BitstreamVeraSans-Roman-36"/>
      </defs>
      <g transform="translate(25.98 164.857505637)scale(0.16 -0.16)">
       <use xlink:href="#BitstreamVeraSans-Roman-30"/>
       <use x="63.623046875" xlink:href="#BitstreamVeraSans-Roman-2e"/>
       <use x="95.41015625" xlink:href="#BitstreamVeraSans-Roman-36"/>
      </g>
     </g>
    </g>
    <g id="ytick_5">
     <g id="line2d_97">
      <path clip-path="url(#p760000f813)" d="M 55.425 85.923341 
L 567.24 85.923341 
" style="fill:none;stroke:#000000;stroke-dasharray:1.000000,3.000000;stroke-dashoffset:0.0;stroke-width:0.5;"/>
     </g>
     <g id="line2d_98">
      <g>
       <use style="stroke:#000000;stroke-width:0.5;" x="55.425" xlink:href="#m888ff2cf25" y="85.9233408489"/>
      </g>
     </g>
     <g id="line2d_99">
      <g>
       <use style="stroke:#000000;stroke-width:0.5;" x="567.24" xlink:href="#m4895188151" y="85.9233408489"/>
      </g>
     </g>
     <g id="text_9">
      <!-- 0.8 -->
      <defs>
       <path d="M 31.78125 34.625 
Q 24.75 34.625 20.71875 30.859375 
Q 16.703125 27.09375 16.703125 20.515625 
Q 16.703125 13.921875 20.71875 10.15625 
Q 24.75 6.390625 31.78125 6.390625 
Q 38.8125 6.390625 42.859375 10.171875 
Q 46.921875 13.96875 46.921875 20.515625 
Q 46.921875 27.09375 42.890625 30.859375 
Q 38.875 34.625 31.78125 34.625 
M 21.921875 38.8125 
Q 15.578125 40.375 12.03125 44.71875 
Q 8.5 49.078125 8.5 55.328125 
Q 8.5 64.0625 14.71875 69.140625 
Q 20.953125 74.21875 31.78125 74.21875 
Q 42.671875 74.21875 48.875 69.140625 
Q 55.078125 64.0625 55.078125 55.328125 
Q 55.078125 49.078125 51.53125 44.71875 
Q 48 40.375 41.703125 38.8125 
Q 48.828125 37.15625 52.796875 32.3125 
Q 56.78125 27.484375 56.78125 20.515625 
Q 56.78125 9.90625 50.3125 4.234375 
Q 43.84375 -1.421875 31.78125 -1.421875 
Q 19.734375 -1.421875 13.25 4.234375 
Q 6.78125 9.90625 6.78125 20.515625 
Q 6.78125 27.484375 10.78125 32.3125 
Q 14.796875 37.15625 21.921875 38.8125 
M 18.3125 54.390625 
Q 18.3125 48.734375 21.84375 45.5625 
Q 25.390625 42.390625 31.78125 42.390625 
Q 38.140625 42.390625 41.71875 45.5625 
Q 45.3125 48.734375 45.3125 54.390625 
Q 45.3125 60.0625 41.71875 63.234375 
Q 38.140625 66.40625 31.78125 66.40625 
Q 25.390625 66.40625 21.84375 63.234375 
Q 18.3125 60.0625 18.3125 54.390625 
" id="BitstreamVeraSans-Roman-38"/>
      </defs>
      <g transform="translate(25.98 90.3383408489)scale(0.16 -0.16)">
       <use xlink:href="#BitstreamVeraSans-Roman-30"/>
       <use x="63.623046875" xlink:href="#BitstreamVeraSans-Roman-2e"/>
       <use x="95.41015625" xlink:href="#BitstreamVeraSans-Roman-38"/>
      </g>
     </g>
    </g>
    <g id="ytick_6">
     <g id="line2d_100">
      <path clip-path="url(#p760000f813)" d="M 55.425 11.404176 
L 567.24 11.404176 
" style="fill:none;stroke:#000000;stroke-dasharray:1.000000,3.000000;stroke-dashoffset:0.0;stroke-width:0.5;"/>
     </g>
     <g id="line2d_101">
      <g>
       <use style="stroke:#000000;stroke-width:0.5;" x="55.425" xlink:href="#m888ff2cf25" y="11.4041760612"/>
      </g>
     </g>
     <g id="line2d_102">
      <g>
       <use style="stroke:#000000;stroke-width:0.5;" x="567.24" xlink:href="#m4895188151" y="11.4041760612"/>
      </g>
     </g>
     <g id="text_10">
      <!-- 1.0 -->
      <g transform="translate(25.98 15.8191760612)scale(0.16 -0.16)">
       <use xlink:href="#BitstreamVeraSans-Roman-31"/>
       <use x="63.623046875" xlink:href="#BitstreamVeraSans-Roman-2e"/>
       <use x="95.41015625" xlink:href="#BitstreamVeraSans-Roman-30"/>
      </g>
     </g>
    </g>
    <g id="text_11">
     <!-- proportion of trials -->
     <defs>
      <path d="M 54.890625 33.015625 
L 54.890625 0 
L 45.90625 0 
L 45.90625 32.71875 
Q 45.90625 40.484375 42.875 44.328125 
Q 39.84375 48.1875 33.796875 48.1875 
Q 26.515625 48.1875 22.3125 43.546875 
Q 18.109375 38.921875 18.109375 30.90625 
L 18.109375 0 
L 9.078125 0 
L 9.078125 54.6875 
L 18.109375 54.6875 
L 18.109375 46.1875 
Q 21.34375 51.125 25.703125 53.5625 
Q 30.078125 56 35.796875 56 
Q 45.21875 56 50.046875 50.171875 
Q 54.890625 44.34375 54.890625 33.015625 
" id="BitstreamVeraSans-Roman-6e"/>
      <path d="M 9.421875 54.6875 
L 18.40625 54.6875 
L 18.40625 0 
L 9.421875 0 
z
M 9.421875 75.984375 
L 18.40625 75.984375 
L 18.40625 64.59375 
L 9.421875 64.59375 
z
" id="BitstreamVeraSans-Roman-69"/>
      <path d="M 18.3125 70.21875 
L 18.3125 54.6875 
L 36.8125 54.6875 
L 36.8125 47.703125 
L 18.3125 47.703125 
L 18.3125 18.015625 
Q 18.3125 11.328125 20.140625 9.421875 
Q 21.96875 7.515625 27.59375 7.515625 
L 36.8125 7.515625 
L 36.8125 0 
L 27.59375 0 
Q 17.1875 0 13.234375 3.875 
Q 9.28125 7.765625 9.28125 18.015625 
L 9.28125 47.703125 
L 2.6875 47.703125 
L 2.6875 54.6875 
L 9.28125 54.6875 
L 9.28125 70.21875 
z
" id="BitstreamVeraSans-Roman-74"/>
      <path d="M 41.109375 46.296875 
Q 39.59375 47.171875 37.8125 47.578125 
Q 36.03125 48 33.890625 48 
Q 26.265625 48 22.1875 43.046875 
Q 18.109375 38.09375 18.109375 28.8125 
L 18.109375 0 
L 9.078125 0 
L 9.078125 54.6875 
L 18.109375 54.6875 
L 18.109375 46.1875 
Q 20.953125 51.171875 25.484375 53.578125 
Q 30.03125 56 36.53125 56 
Q 37.453125 56 38.578125 55.875 
Q 39.703125 55.765625 41.0625 55.515625 
z
" id="BitstreamVeraSans-Roman-72"/>
      <path d="M 18.109375 8.203125 
L 18.109375 -20.796875 
L 9.078125 -20.796875 
L 9.078125 54.6875 
L 18.109375 54.6875 
L 18.109375 46.390625 
Q 20.953125 51.265625 25.265625 53.625 
Q 29.59375 56 35.59375 56 
Q 45.5625 56 51.78125 48.09375 
Q 58.015625 40.1875 58.015625 27.296875 
Q 58.015625 14.40625 51.78125 6.484375 
Q 45.5625 -1.421875 35.59375 -1.421875 
Q 29.59375 -1.421875 25.265625 0.953125 
Q 20.953125 3.328125 18.109375 8.203125 
M 48.6875 27.296875 
Q 48.6875 37.203125 44.609375 42.84375 
Q 40.53125 48.484375 33.40625 48.484375 
Q 26.265625 48.484375 22.1875 42.84375 
Q 18.109375 37.203125 18.109375 27.296875 
Q 18.109375 17.390625 22.1875 11.75 
Q 26.265625 6.109375 33.40625 6.109375 
Q 40.53125 6.109375 44.609375 11.75 
Q 48.6875 17.390625 48.6875 27.296875 
" id="BitstreamVeraSans-Roman-70"/>
     </defs>
     <g transform="translate(16.820625 289.067233911)rotate(-90.0)scale(0.2 -0.2)">
      <use xlink:href="#BitstreamVeraSans-Roman-70"/>
      <use x="63.4765625" xlink:href="#BitstreamVeraSans-Roman-72"/>
      <use x="104.55859375" xlink:href="#BitstreamVeraSans-Roman-6f"/>
      <use x="165.740234375" xlink:href="#BitstreamVeraSans-Roman-70"/>
      <use x="229.216796875" xlink:href="#BitstreamVeraSans-Roman-6f"/>
      <use x="290.3984375" xlink:href="#BitstreamVeraSans-Roman-72"/>
      <use x="331.51171875" xlink:href="#BitstreamVeraSans-Roman-74"/>
      <use x="370.720703125" xlink:href="#BitstreamVeraSans-Roman-69"/>
      <use x="398.50390625" xlink:href="#BitstreamVeraSans-Roman-6f"/>
      <use x="459.685546875" xlink:href="#BitstreamVeraSans-Roman-6e"/>
      <use x="523.064453125" xlink:href="#BitstreamVeraSans-Roman-20"/>
      <use x="554.8515625" xlink:href="#BitstreamVeraSans-Roman-6f"/>
      <use x="616.033203125" xlink:href="#BitstreamVeraSans-Roman-66"/>
      <use x="651.23828125" xlink:href="#BitstreamVeraSans-Roman-20"/>
      <use x="683.025390625" xlink:href="#BitstreamVeraSans-Roman-74"/>
      <use x="722.234375" xlink:href="#BitstreamVeraSans-Roman-72"/>
      <use x="763.34765625" xlink:href="#BitstreamVeraSans-Roman-69"/>
      <use x="791.130859375" xlink:href="#BitstreamVeraSans-Roman-61"/>
      <use x="852.41015625" xlink:href="#BitstreamVeraSans-Roman-6c"/>
      <use x="880.193359375" xlink:href="#BitstreamVeraSans-Roman-73"/>
     </g>
    </g>
   </g>
   <g id="text_12">
    <!-- {f6-f9}, 5-D -->
    <defs>
     <path d="M 10.796875 72.90625 
L 49.515625 72.90625 
L 49.515625 64.59375 
L 19.828125 64.59375 
L 19.828125 46.734375 
Q 21.96875 47.46875 24.109375 47.828125 
Q 26.265625 48.1875 28.421875 48.1875 
Q 40.625 48.1875 47.75 41.5 
Q 54.890625 34.8125 54.890625 23.390625 
Q 54.890625 11.625 47.5625 5.09375 
Q 40.234375 -1.421875 26.90625 -1.421875 
Q 22.3125 -1.421875 17.546875 -0.640625 
Q 12.796875 0.140625 7.71875 1.703125 
L 7.71875 11.625 
Q 12.109375 9.234375 16.796875 8.0625 
Q 21.484375 6.890625 26.703125 6.890625 
Q 35.15625 6.890625 40.078125 11.328125 
Q 45.015625 15.765625 45.015625 23.390625 
Q 45.015625 31 40.078125 35.4375 
Q 35.15625 39.890625 26.703125 39.890625 
Q 22.75 39.890625 18.8125 39.015625 
Q 14.890625 38.140625 10.796875 36.28125 
z
" id="BitstreamVeraSans-Roman-35"/>
     <path d="M 12.5 -9.28125 
L 15.921875 -9.28125 
Q 22.75 -9.28125 24.828125 -7.171875 
Q 26.90625 -5.078125 26.90625 1.90625 
L 26.90625 14.015625 
Q 26.90625 21.625 29.09375 25.09375 
Q 31.296875 28.5625 36.71875 29.890625 
Q 31.296875 31.109375 29.09375 34.5625 
Q 26.90625 38.03125 26.90625 45.703125 
L 26.90625 57.8125 
Q 26.90625 64.75 24.828125 66.875 
Q 22.75 69 15.921875 69 
L 12.5 69 
L 12.5 75.984375 
L 15.578125 75.984375 
Q 27.734375 75.984375 31.8125 72.390625 
Q 35.890625 68.796875 35.890625 58.015625 
L 35.890625 46.296875 
Q 35.890625 39.015625 38.515625 36.203125 
Q 41.15625 33.40625 48.09375 33.40625 
L 51.125 33.40625 
L 51.125 26.421875 
L 48.09375 26.421875 
Q 41.15625 26.421875 38.515625 23.578125 
Q 35.890625 20.75 35.890625 13.375 
L 35.890625 1.703125 
Q 35.890625 -9.078125 31.8125 -12.6875 
Q 27.734375 -16.3125 15.578125 -16.3125 
L 12.5 -16.3125 
z
" id="BitstreamVeraSans-Roman-7d"/>
     <path d="M 10.984375 1.515625 
L 10.984375 10.5 
Q 14.703125 8.734375 18.5 7.8125 
Q 22.3125 6.890625 25.984375 6.890625 
Q 35.75 6.890625 40.890625 13.453125 
Q 46.046875 20.015625 46.78125 33.40625 
Q 43.953125 29.203125 39.59375 26.953125 
Q 35.25 24.703125 29.984375 24.703125 
Q 19.046875 24.703125 12.671875 31.3125 
Q 6.296875 37.9375 6.296875 49.421875 
Q 6.296875 60.640625 12.9375 67.421875 
Q 19.578125 74.21875 30.609375 74.21875 
Q 43.265625 74.21875 49.921875 64.515625 
Q 56.59375 54.828125 56.59375 36.375 
Q 56.59375 19.140625 48.40625 8.859375 
Q 40.234375 -1.421875 26.421875 -1.421875 
Q 22.703125 -1.421875 18.890625 -0.6875 
Q 15.09375 0.046875 10.984375 1.515625 
M 30.609375 32.421875 
Q 37.25 32.421875 41.125 36.953125 
Q 45.015625 41.5 45.015625 49.421875 
Q 45.015625 57.28125 41.125 61.84375 
Q 37.25 66.40625 30.609375 66.40625 
Q 23.96875 66.40625 20.09375 61.84375 
Q 16.21875 57.28125 16.21875 49.421875 
Q 16.21875 41.5 20.09375 36.953125 
Q 23.96875 32.421875 30.609375 32.421875 
" id="BitstreamVeraSans-Roman-39"/>
     <path d="M 51.125 -9.28125 
L 51.125 -16.3125 
L 48.09375 -16.3125 
Q 35.9375 -16.3125 31.8125 -12.6875 
Q 27.6875 -9.078125 27.6875 1.703125 
L 27.6875 13.375 
Q 27.6875 20.75 25.046875 23.578125 
Q 22.40625 26.421875 15.484375 26.421875 
L 12.5 26.421875 
L 12.5 33.40625 
L 15.484375 33.40625 
Q 22.46875 33.40625 25.078125 36.203125 
Q 27.6875 39.015625 27.6875 46.296875 
L 27.6875 58.015625 
Q 27.6875 68.796875 31.8125 72.390625 
Q 35.9375 75.984375 48.09375 75.984375 
L 51.125 75.984375 
L 51.125 69 
L 47.796875 69 
Q 40.921875 69 38.8125 66.84375 
Q 36.71875 64.703125 36.71875 57.8125 
L 36.71875 45.703125 
Q 36.71875 38.03125 34.5 34.5625 
Q 32.28125 31.109375 26.90625 29.890625 
Q 32.328125 28.5625 34.515625 25.09375 
Q 36.71875 21.625 36.71875 14.015625 
L 36.71875 1.90625 
Q 36.71875 -4.984375 38.8125 -7.125 
Q 40.921875 -9.28125 47.796875 -9.28125 
z
" id="BitstreamVeraSans-Roman-7b"/>
     <path d="M 11.71875 12.40625 
L 22.015625 12.40625 
L 22.015625 4 
L 14.015625 -11.625 
L 7.71875 -11.625 
L 11.71875 4 
z
" id="BitstreamVeraSans-Roman-2c"/>
     <path d="M 4.890625 31.390625 
L 31.203125 31.390625 
L 31.203125 23.390625 
L 4.890625 23.390625 
z
" id="BitstreamVeraSans-Roman-2d"/>
    </defs>
    <g transform="translate(251.2075 30.4015284653)scale(0.2 -0.2)">
     <use xlink:href="#BitstreamVeraSans-Roman-7b"/>
     <use x="63.623046875" xlink:href="#BitstreamVeraSans-Roman-66"/>
     <use x="98.828125" xlink:href="#BitstreamVeraSans-Roman-36"/>
     <use x="162.451171875" xlink:href="#BitstreamVeraSans-Roman-2d"/>
     <use x="198.53515625" xlink:href="#BitstreamVeraSans-Roman-66"/>
     <use x="233.740234375" xlink:href="#BitstreamVeraSans-Roman-39"/>
     <use x="297.36328125" xlink:href="#BitstreamVeraSans-Roman-7d"/>
     <use x="360.986328125" xlink:href="#BitstreamVeraSans-Roman-2c"/>
     <use x="392.7734375" xlink:href="#BitstreamVeraSans-Roman-20"/>
     <use x="424.560546875" xlink:href="#BitstreamVeraSans-Roman-35"/>
     <use x="488.18359375" xlink:href="#BitstreamVeraSans-Roman-2d"/>
     <use x="524.267578125" xlink:href="#BitstreamVeraSans-Roman-44"/>
    </g>
   </g>
   <g id="text_13">
    <!-- absolute targets -->
    <defs>
     <path d="M 56.203125 29.59375 
L 56.203125 25.203125 
L 14.890625 25.203125 
Q 15.484375 15.921875 20.484375 11.0625 
Q 25.484375 6.203125 34.421875 6.203125 
Q 39.59375 6.203125 44.453125 7.46875 
Q 49.3125 8.734375 54.109375 11.28125 
L 54.109375 2.78125 
Q 49.265625 0.734375 44.1875 -0.34375 
Q 39.109375 -1.421875 33.890625 -1.421875 
Q 20.796875 -1.421875 13.15625 6.1875 
Q 5.515625 13.8125 5.515625 26.8125 
Q 5.515625 40.234375 12.765625 48.109375 
Q 20.015625 56 32.328125 56 
Q 43.359375 56 49.78125 48.890625 
Q 56.203125 41.796875 56.203125 29.59375 
M 47.21875 32.234375 
Q 47.125 39.59375 43.09375 43.984375 
Q 39.0625 48.390625 32.421875 48.390625 
Q 24.90625 48.390625 20.390625 44.140625 
Q 15.875 39.890625 15.1875 32.171875 
z
" id="BitstreamVeraSans-Roman-65"/>
     <path d="M 8.5 21.578125 
L 8.5 54.6875 
L 17.484375 54.6875 
L 17.484375 21.921875 
Q 17.484375 14.15625 20.5 10.265625 
Q 23.53125 6.390625 29.59375 6.390625 
Q 36.859375 6.390625 41.078125 11.03125 
Q 45.3125 15.671875 45.3125 23.6875 
L 45.3125 54.6875 
L 54.296875 54.6875 
L 54.296875 0 
L 45.3125 0 
L 45.3125 8.40625 
Q 42.046875 3.421875 37.71875 1 
Q 33.40625 -1.421875 27.6875 -1.421875 
Q 18.265625 -1.421875 13.375 4.4375 
Q 8.5 10.296875 8.5 21.578125 
" id="BitstreamVeraSans-Roman-75"/>
     <path d="M 48.6875 27.296875 
Q 48.6875 37.203125 44.609375 42.84375 
Q 40.53125 48.484375 33.40625 48.484375 
Q 26.265625 48.484375 22.1875 42.84375 
Q 18.109375 37.203125 18.109375 27.296875 
Q 18.109375 17.390625 22.1875 11.75 
Q 26.265625 6.109375 33.40625 6.109375 
Q 40.53125 6.109375 44.609375 11.75 
Q 48.6875 17.390625 48.6875 27.296875 
M 18.109375 46.390625 
Q 20.953125 51.265625 25.265625 53.625 
Q 29.59375 56 35.59375 56 
Q 45.5625 56 51.78125 48.09375 
Q 58.015625 40.1875 58.015625 27.296875 
Q 58.015625 14.40625 51.78125 6.484375 
Q 45.5625 -1.421875 35.59375 -1.421875 
Q 29.59375 -1.421875 25.265625 0.953125 
Q 20.953125 3.328125 18.109375 8.203125 
L 18.109375 0 
L 9.078125 0 
L 9.078125 75.984375 
L 18.109375 75.984375 
z
" id="BitstreamVeraSans-Roman-62"/>
    </defs>
    <g transform="translate(55.425 756.595823939)scale(0.14 -0.14)">
     <use xlink:href="#BitstreamVeraSans-Roman-61"/>
     <use x="61.279296875" xlink:href="#BitstreamVeraSans-Roman-62"/>
     <use x="124.755859375" xlink:href="#BitstreamVeraSans-Roman-73"/>
     <use x="176.85546875" xlink:href="#BitstreamVeraSans-Roman-6f"/>
     <use x="238.037109375" xlink:href="#BitstreamVeraSans-Roman-6c"/>
     <use x="265.8203125" xlink:href="#BitstreamVeraSans-Roman-75"/>
     <use x="329.19921875" xlink:href="#BitstreamVeraSans-Roman-74"/>
     <use x="368.408203125" xlink:href="#BitstreamVeraSans-Roman-65"/>
     <use x="429.931640625" xlink:href="#BitstreamVeraSans-Roman-20"/>
     <use x="461.71875" xlink:href="#BitstreamVeraSans-Roman-74"/>
     <use x="500.927734375" xlink:href="#BitstreamVeraSans-Roman-61"/>
     <use x="562.20703125" xlink:href="#BitstreamVeraSans-Roman-72"/>
     <use x="603.3046875" xlink:href="#BitstreamVeraSans-Roman-67"/>
     <use x="666.78125" xlink:href="#BitstreamVeraSans-Roman-65"/>
     <use x="728.3046875" xlink:href="#BitstreamVeraSans-Roman-74"/>
     <use x="767.513671875" xlink:href="#BitstreamVeraSans-Roman-73"/>
    </g>
   </g>
   <g id="text_14">
    <!-- v2.2.1.10 -->
    <g style="fill:#808080;" transform="translate(287.6996875 378.157094678)scale(0.1 -0.1)">
     <use xlink:href="#BitstreamVeraSans-Roman-76"/>
     <use x="59.1796875" xlink:href="#BitstreamVeraSans-Roman-32"/>
     <use x="122.802734375" xlink:href="#BitstreamVeraSans-Roman-2e"/>
     <use x="154.58984375" xlink:href="#BitstreamVeraSans-Roman-32"/>
     <use x="218.212890625" xlink:href="#BitstreamVeraSans-Roman-2e"/>
     <use x="250.0" xlink:href="#BitstreamVeraSans-Roman-31"/>
     <use x="313.623046875" xlink:href="#BitstreamVeraSans-Roman-2e"/>
     <use x="345.41015625" xlink:href="#BitstreamVeraSans-Roman-31"/>
     <use x="409.033203125" xlink:href="#BitstreamVeraSans-Roman-30"/>
    </g>
   </g>
   <g id="legend_1">
    <g id="patch_7">
     <path d="M 65.425 141.103218 
L 202.646875 141.103218 
L 202.646875 17.678218 
L 65.425 17.678218 
z
" style="fill:#ffffff;opacity:0.2;stroke:#000000;stroke-linejoin:miter;"/>
    </g>
    <g id="line2d_103">
     <path d="M 79.425 33.875093 
L 107.425 33.875093 
" style="fill:none;stroke:#000000;stroke-linecap:square;"/>
    </g>
    <g id="line2d_104"/>
    <g id="text_15">
     <!-- 1: 3/4 -->
     <defs>
      <path d="M 40.578125 39.3125 
Q 47.65625 37.796875 51.625 33 
Q 55.609375 28.21875 55.609375 21.1875 
Q 55.609375 10.40625 48.1875 4.484375 
Q 40.765625 -1.421875 27.09375 -1.421875 
Q 22.515625 -1.421875 17.65625 -0.515625 
Q 12.796875 0.390625 7.625 2.203125 
L 7.625 11.71875 
Q 11.71875 9.328125 16.59375 8.109375 
Q 21.484375 6.890625 26.8125 6.890625 
Q 36.078125 6.890625 40.9375 10.546875 
Q 45.796875 14.203125 45.796875 21.1875 
Q 45.796875 27.640625 41.28125 31.265625 
Q 36.765625 34.90625 28.71875 34.90625 
L 20.21875 34.90625 
L 20.21875 43.015625 
L 29.109375 43.015625 
Q 36.375 43.015625 40.234375 45.921875 
Q 44.09375 48.828125 44.09375 54.296875 
Q 44.09375 59.90625 40.109375 62.90625 
Q 36.140625 65.921875 28.71875 65.921875 
Q 24.65625 65.921875 20.015625 65.03125 
Q 15.375 64.15625 9.8125 62.3125 
L 9.8125 71.09375 
Q 15.4375 72.65625 20.34375 73.4375 
Q 25.25 74.21875 29.59375 74.21875 
Q 40.828125 74.21875 47.359375 69.109375 
Q 53.90625 64.015625 53.90625 55.328125 
Q 53.90625 49.265625 50.4375 45.09375 
Q 46.96875 40.921875 40.578125 39.3125 
" id="BitstreamVeraSans-Roman-33"/>
      <path d="M 11.71875 12.40625 
L 22.015625 12.40625 
L 22.015625 0 
L 11.71875 0 
z
M 11.71875 51.703125 
L 22.015625 51.703125 
L 22.015625 39.3125 
L 11.71875 39.3125 
z
" id="BitstreamVeraSans-Roman-3a"/>
     </defs>
     <g transform="translate(129.425 40.8750928218)scale(0.2 -0.2)">
      <use xlink:href="#BitstreamVeraSans-Roman-31"/>
      <use x="63.623046875" xlink:href="#BitstreamVeraSans-Roman-3a"/>
      <use x="97.314453125" xlink:href="#BitstreamVeraSans-Roman-20"/>
      <use x="129.1015625" xlink:href="#BitstreamVeraSans-Roman-33"/>
      <use x="192.724609375" xlink:href="#BitstreamVeraSans-Roman-2f"/>
      <use x="226.416015625" xlink:href="#BitstreamVeraSans-Roman-34"/>
     </g>
    </g>
    <g id="line2d_105">
     <path d="M 79.425 63.231343 
L 107.425 63.231343 
" style="fill:none;stroke:#00bfbf;stroke-linecap:square;"/>
    </g>
    <g id="line2d_106"/>
    <g id="text_16">
     <!-- -1: 2/4 -->
     <g transform="translate(129.425 70.2313428218)scale(0.2 -0.2)">
      <use xlink:href="#BitstreamVeraSans-Roman-2d"/>
      <use x="36.083984375" xlink:href="#BitstreamVeraSans-Roman-31"/>
      <use x="99.70703125" xlink:href="#BitstreamVeraSans-Roman-3a"/>
      <use x="133.3984375" xlink:href="#BitstreamVeraSans-Roman-20"/>
      <use x="165.185546875" xlink:href="#BitstreamVeraSans-Roman-32"/>
      <use x="228.80859375" xlink:href="#BitstreamVeraSans-Roman-2f"/>
      <use x="262.5" xlink:href="#BitstreamVeraSans-Roman-34"/>
     </g>
    </g>
    <g id="line2d_107">
     <path d="M 79.425 92.587593 
L 107.425 92.587593 
" style="fill:none;stroke:#bf00bf;stroke-linecap:square;"/>
    </g>
    <g id="line2d_108"/>
    <g id="text_17">
     <!-- -4: 1/4 -->
     <g transform="translate(129.425 99.5875928218)scale(0.2 -0.2)">
      <use xlink:href="#BitstreamVeraSans-Roman-2d"/>
      <use x="36.083984375" xlink:href="#BitstreamVeraSans-Roman-34"/>
      <use x="99.70703125" xlink:href="#BitstreamVeraSans-Roman-3a"/>
      <use x="133.3984375" xlink:href="#BitstreamVeraSans-Roman-20"/>
      <use x="165.185546875" xlink:href="#BitstreamVeraSans-Roman-31"/>
      <use x="228.80859375" xlink:href="#BitstreamVeraSans-Roman-2f"/>
      <use x="262.5" xlink:href="#BitstreamVeraSans-Roman-34"/>
     </g>
    </g>
    <g id="line2d_109">
     <path d="M 79.425 121.943843 
L 107.425 121.943843 
" style="fill:none;stroke:#ff0000;stroke-linecap:square;stroke-width:3.0;"/>
    </g>
    <g id="line2d_110"/>
    <g id="text_18">
     <!-- -8: 1/4 -->
     <g transform="translate(129.425 128.943842822)scale(0.2 -0.2)">
      <use xlink:href="#BitstreamVeraSans-Roman-2d"/>
      <use x="36.083984375" xlink:href="#BitstreamVeraSans-Roman-38"/>
      <use x="99.70703125" xlink:href="#BitstreamVeraSans-Roman-3a"/>
      <use x="133.3984375" xlink:href="#BitstreamVeraSans-Roman-20"/>
      <use x="165.185546875" xlink:href="#BitstreamVeraSans-Roman-31"/>
      <use x="228.80859375" xlink:href="#BitstreamVeraSans-Roman-2f"/>
      <use x="262.5" xlink:href="#BitstreamVeraSans-Roman-34"/>
     </g>
    </g>
   </g>
  </g>
 </g>
 <defs>
  <clipPath id="p760000f813">
   <rect height="376.321782178" width="511.815" x="55.425" y="7.67821782178"/>
  </clipPath>
 </defs>
</svg>
