<?xml version="1.0" encoding="utf-8" standalone="no"?>
<!DOCTYPE svg PUBLIC "-//W3C//DTD SVG 1.1//EN"
  "http://www.w3.org/Graphics/SVG/1.1/DTD/svg11.dtd">
<!-- Created with matplotlib (http://matplotlib.org/) -->
<svg height="432pt" version="1.1" viewBox="0 0 576 432" width="576pt" xmlns="http://www.w3.org/2000/svg" xmlns:xlink="http://www.w3.org/1999/xlink">
 <defs>
  <style type="text/css">
*{stroke-linecap:butt;stroke-linejoin:round;stroke-miterlimit:100000;}
  </style>
 </defs>
 <g id="figure_1">
  <g id="patch_1">
   <path d="M 0 432 
L 576 432 
L 576 0 
L 0 0 
z
" style="fill:#ffffff;"/>
  </g>
  <g id="axes_1">
   <g id="patch_2">
    <path d="M 3 384 
L 567.24 384 
L 567.24 3 
L 3 3 
z
" style="fill:#ffffff;"/>
   </g>
   <g id="line2d_1">
    <path clip-path="url(#p1f138f4610)" d="M 321.369222 384 
L 321.369222 378.970297 
L 322.156438 378.970297 
L 322.156438 373.940594 
L 322.401277 373.940594 
L 322.401277 368.910891 
L 322.87746 368.910891 
L 322.979189 358.851485 
L 323.388865 358.851485 
L 323.388865 353.821782 
L 324.71732 353.821782 
L 324.71732 348.792079 
L 325.470727 348.792079 
L 325.470727 343.762376 
L 325.887395 343.762376 
L 325.887395 338.732673 
L 326.706756 338.732673 
L 326.706756 333.70297 
L 327.751852 333.70297 
L 327.751852 328.673267 
L 328.277342 328.673267 
L 328.277342 323.643564 
L 328.714834 323.643564 
L 328.714834 318.613861 
L 329.952725 318.613861 
L 329.952725 313.584158 
L 332.783121 313.584158 
L 332.783121 308.554455 
L 335.867954 308.554455 
L 335.867954 303.524752 
L 337.067354 303.524752 
L 337.137712 293.465347 
L 339.519286 293.465347 
L 339.519286 288.435644 
L 339.78666 288.435644 
L 339.78666 283.405941 
L 340.498774 283.405941 
L 340.498774 278.376238 
L 341.651557 278.376238 
L 341.740443 263.287129 
L 343.463233 263.287129 
L 343.463233 258.257426 
L 344.341401 258.257426 
L 344.413788 248.19802 
L 345.156939 248.19802 
L 345.156939 243.168317 
L 346.743948 243.168317 
L 346.743948 238.138614 
L 348.044131 238.138614 
L 348.044131 233.108911 
L 352.832872 233.108911 
L 352.832872 228.079208 
L 353.490609 228.079208 
L 353.490609 223.049505 
L 355.259157 223.049505 
L 355.259157 218.019802 
L 355.844524 218.019802 
L 355.844524 212.990099 
L 356.10795 212.990099 
L 356.146188 197.90099 
L 357.064586 197.90099 
L 357.064586 192.871287 
L 357.350449 192.871287 
L 357.350449 187.841584 
L 357.531849 187.841584 
L 357.531849 182.811881 
L 357.977058 182.811881 
L 357.977058 177.782178 
L 358.467808 177.782178 
L 358.467808 172.752475 
L 358.873941 172.752475 
L 358.873941 167.722772 
L 359.342975 167.722772 
L 359.359125 157.663366 
L 359.63986 157.663366 
L 359.63986 152.633663 
L 360.064793 152.633663 
L 360.064793 147.60396 
L 360.381647 147.60396 
L 360.381647 142.574257 
L 360.498709 142.574257 
L 360.593778 132.514851 
L 360.900226 132.514851 
L 360.900226 127.485149 
L 361.96297 127.485149 
L 361.96297 122.455446 
L 362.141003 122.455446 
L 362.141003 117.425743 
L 362.841432 117.425743 
L 362.841432 112.39604 
L 364.090402 112.39604 
L 364.090402 107.366337 
L 364.415567 107.366337 
L 364.421152 97.306931 
L 365.280506 97.306931 
L 365.280506 92.277228 
L 365.807098 92.277228 
L 365.807098 87.247525 
L 366.58538 87.247525 
L 366.58538 82.217822 
L 439.698761 82.217822 
L 439.698761 77.188119 
L 444.282841 77.188119 
L 444.282841 72.158416 
L 444.725666 72.158416 
L 444.725666 67.128713 
L 449.373526 67.128713 
L 449.373526 62.09901 
L 450.680732 62.09901 
L 450.680732 57.069307 
L 451.702511 57.069307 
L 451.702511 52.039604 
L 455.816753 52.039604 
L 455.816753 47.009901 
L 459.944661 47.009901 
L 459.944661 41.980198 
L 460.451517 41.980198 
L 460.451517 36.950495 
L 462.034959 36.950495 
L 462.034959 31.920792 
L 464.198223 31.920792 
L 464.198223 26.891089 
L 464.407698 26.891089 
L 464.407698 21.861386 
L 472.274297 21.861386 
L 472.274297 16.831683 
L 473.527277 16.831683 
L 473.527277 11.80198 
L 475.29296 11.80198 
L 475.29296 6.772277 
L 475.29296 6.772277 
L 567.24 6.772277 
L 567.24 6.772277 
" style="fill:none;stroke:#ff0000;stroke-linecap:square;stroke-width:3.0;"/>
   </g>
   <g id="line2d_2">
    <path clip-path="url(#p1f138f4610)" d="M 330.104822 384 
L 330.104822 378.970297 
L 333.016072 378.970297 
L 333.016072 373.940594 
L 333.291108 373.940594 
L 333.291108 368.910891 
L 333.682588 368.910891 
L 333.682588 363.881188 
L 334.376543 363.881188 
L 334.474498 353.821782 
L 334.882797 353.821782 
L 334.882797 348.792079 
L 335.962305 348.792079 
L 336.030911 338.732673 
L 336.175317 338.732673 
L 336.175317 333.70297 
L 337.850944 333.70297 
L 337.850944 328.673267 
L 338.417917 328.673267 
L 338.417917 323.643564 
L 338.590929 323.643564 
L 338.590929 318.613861 
L 338.920268 318.613861 
L 338.920268 313.584158 
L 340.368286 313.584158 
L 340.368286 308.554455 
L 354.808475 308.554455 
L 354.808482 233.108911 
L 357.874674 233.108911 
L 357.874674 228.079208 
L 358.72937 228.079208 
L 358.837208 218.019802 
L 359.351114 218.019802 
L 359.351114 212.990099 
L 359.975163 212.990099 
L 359.975163 207.960396 
L 360.768212 207.960396 
L 360.768212 202.930693 
L 361.106129 202.930693 
L 361.106129 197.90099 
L 361.375427 197.90099 
L 361.471454 187.841584 
L 361.604091 187.841584 
L 361.689241 177.782178 
L 361.719976 177.782178 
L 361.719976 172.752475 
L 362.381465 172.752475 
L 362.381465 167.722772 
L 362.77485 167.722772 
L 362.776058 157.663366 
L 362.979973 157.663366 
L 362.979973 152.633663 
L 363.185337 152.633663 
L 363.204334 142.574257 
L 363.349521 142.574257 
L 363.349521 137.544554 
L 363.674261 137.544554 
L 363.758068 127.485149 
L 364.458594 127.485149 
L 364.458594 122.455446 
L 365.078045 122.455446 
L 365.078045 117.425743 
L 365.258951 117.425743 
L 365.258951 112.39604 
L 366.72419 112.39604 
L 366.778306 97.306931 
L 367.265856 97.306931 
L 367.303451 87.247525 
L 368.627672 87.247525 
L 368.627672 82.217822 
L 487.493638 82.217822 
L 487.493638 77.188119 
L 487.811401 77.188119 
L 487.811401 72.158416 
L 496.121281 72.158416 
L 496.121281 67.128713 
L 497.150942 67.128713 
L 497.150942 62.09901 
L 497.357716 62.09901 
L 497.357716 57.069307 
L 499.257249 57.069307 
L 499.257249 52.039604 
L 499.906877 52.039604 
L 499.906877 47.009901 
L 501.839539 47.009901 
L 501.839539 41.980198 
L 502.228509 41.980198 
L 502.228509 36.950495 
L 503.363516 36.950495 
L 503.363516 31.920792 
L 503.706523 31.920792 
L 503.706523 26.891089 
L 507.211194 26.891089 
L 507.211194 21.861386 
L 508.895333 21.861386 
L 508.895333 16.831683 
L 510.690379 16.831683 
L 510.690379 11.80198 
L 510.857989 11.80198 
L 510.857989 6.772277 
L 510.857989 6.772277 
L 567.24 6.772277 
L 567.24 6.772277 
" style="fill:none;stroke:#00bfbf;stroke-linecap:square;"/>
   </g>
   <g id="line2d_3">
    <path clip-path="url(#p1f138f4610)" d="M 330.104822 384 
L 330.104822 378.970297 
L 333.01599 378.970297 
L 333.01599 373.940594 
L 333.290926 373.940594 
L 333.290926 368.910891 
L 333.682522 368.910891 
L 333.682522 363.881188 
L 334.376309 363.881188 
L 334.474392 353.821782 
L 334.882701 353.821782 
L 334.882701 348.792079 
L 335.962236 348.792079 
L 336.030911 338.732673 
L 336.175182 338.732673 
L 336.175182 333.70297 
L 337.850819 333.70297 
L 337.850819 328.673267 
L 338.417896 328.673267 
L 338.417896 323.643564 
L 338.590857 323.643564 
L 338.590857 318.613861 
L 338.920261 318.613861 
L 338.920261 313.584158 
L 340.368286 313.584158 
L 340.368286 308.554455 
L 354.808381 308.554455 
L 354.80843 233.108911 
L 357.874001 233.108911 
L 357.874001 228.079208 
L 358.728802 228.079208 
L 358.836439 218.019802 
L 359.350048 218.019802 
L 359.350048 212.990099 
L 359.974516 212.990099 
L 359.974516 207.960396 
L 360.767004 207.960396 
L 360.767004 202.930693 
L 361.10548 202.930693 
L 361.10548 197.90099 
L 361.374102 197.90099 
L 361.471152 187.841584 
L 361.603148 187.841584 
L 361.688824 177.782178 
L 361.718918 177.782178 
L 361.718918 172.752475 
L 362.381253 172.752475 
L 362.381253 167.722772 
L 362.773994 167.722772 
L 362.775163 157.663366 
L 362.979236 157.663366 
L 362.979236 152.633663 
L 363.183809 152.633663 
L 363.201639 142.574257 
L 363.349165 142.574257 
L 363.349165 137.544554 
L 363.673735 137.544554 
L 363.758019 127.485149 
L 364.457722 127.485149 
L 364.457722 122.455446 
L 365.077408 122.455446 
L 365.077408 117.425743 
L 365.258365 117.425743 
L 365.258365 112.39604 
L 366.723411 112.39604 
L 366.77748 97.306931 
L 367.265531 97.306931 
L 367.302576 87.247525 
L 368.62586 87.247525 
L 368.62586 82.217822 
L 487.492392 82.217822 
L 487.492392 77.188119 
L 487.809798 77.188119 
L 487.809798 72.158416 
L 496.119556 72.158416 
L 496.119556 67.128713 
L 497.148896 67.128713 
L 497.148896 62.09901 
L 497.356402 62.09901 
L 497.356402 57.069307 
L 499.256507 57.069307 
L 499.256507 52.039604 
L 499.904543 52.039604 
L 499.904543 47.009901 
L 501.838267 47.009901 
L 501.838267 41.980198 
L 502.227576 41.980198 
L 502.227576 36.950495 
L 503.361574 36.950495 
L 503.361574 31.920792 
L 503.704831 31.920792 
L 503.704831 26.891089 
L 507.210075 26.891089 
L 507.210075 21.861386 
L 508.893581 21.861386 
L 508.893581 16.831683 
L 510.68882 16.831683 
L 510.68882 11.80198 
L 510.856384 11.80198 
L 510.856384 6.772277 
L 510.856384 6.772277 
L 567.24 6.772277 
L 567.24 6.772277 
" style="fill:none;stroke:#bf00bf;stroke-linecap:square;"/>
   </g>
   <g id="line2d_4">
    <path clip-path="url(#p1f138f4610)" d="M 330.103208 384 
L 330.103208 378.970297 
L 333.014518 378.970297 
L 333.014518 373.940594 
L 333.289246 373.940594 
L 333.289246 368.910891 
L 333.680951 368.910891 
L 333.680951 363.881188 
L 334.374711 363.881188 
L 334.472828 353.821782 
L 334.881158 353.821782 
L 334.881158 348.792079 
L 335.96082 348.792079 
L 336.029554 338.732673 
L 336.173618 338.732673 
L 336.173618 333.70297 
L 337.849417 333.70297 
L 337.849417 328.673267 
L 338.416612 328.673267 
L 338.416612 323.643564 
L 338.589675 323.643564 
L 338.589675 318.613861 
L 338.91901 318.613861 
L 338.91901 313.584158 
L 340.367093 313.584158 
L 340.367093 308.554455 
L 354.807938 308.554455 
L 354.808083 233.108911 
L 357.866612 233.108911 
L 357.866612 228.079208 
L 358.723016 228.079208 
L 358.83198 218.019802 
L 359.34604 218.019802 
L 359.34604 212.990099 
L 359.969303 212.990099 
L 359.969303 207.960396 
L 360.761554 207.960396 
L 360.761554 202.930693 
L 361.099838 202.930693 
L 361.099838 197.90099 
L 361.368769 197.90099 
L 361.467486 187.841584 
L 361.599027 187.841584 
L 361.684605 177.782178 
L 361.715338 177.782178 
L 361.715338 172.752475 
L 362.377701 172.752475 
L 362.377701 167.722772 
L 362.767608 167.722772 
L 362.769998 157.663366 
L 362.976968 157.663366 
L 362.976968 152.633663 
L 363.179254 152.633663 
L 363.195507 142.574257 
L 363.346046 142.574257 
L 363.346046 137.544554 
L 363.670393 137.544554 
L 363.75447 127.485149 
L 364.454769 127.485149 
L 364.454769 122.455446 
L 365.075698 122.455446 
L 365.075698 117.425743 
L 365.253585 117.425743 
L 365.253585 112.39604 
L 366.720652 112.39604 
L 366.774374 97.306931 
L 367.262212 97.306931 
L 367.29933 87.247525 
L 368.621891 87.247525 
L 368.621891 82.217822 
L 487.490158 82.217822 
L 487.490158 77.188119 
L 487.807908 77.188119 
L 487.807908 72.158416 
L 496.117878 72.158416 
L 496.117878 67.128713 
L 497.147171 67.128713 
L 497.147171 62.09901 
L 497.355102 62.09901 
L 497.355102 57.069307 
L 499.255107 57.069307 
L 499.255107 52.039604 
L 499.900449 52.039604 
L 499.900449 47.009901 
L 501.837728 47.009901 
L 501.837728 41.980198 
L 502.22513 41.980198 
L 502.22513 36.950495 
L 503.359878 36.950495 
L 503.359878 31.920792 
L 503.704153 31.920792 
L 503.704153 26.891089 
L 507.208784 26.891089 
L 507.208784 21.861386 
L 508.890581 21.861386 
L 508.890581 16.831683 
L 510.686036 16.831683 
L 510.686036 11.80198 
L 510.853513 11.80198 
L 510.853513 6.772277 
L 510.853513 6.772277 
L 567.24 6.772277 
L 567.24 6.772277 
" style="fill:none;stroke:#000000;stroke-linecap:square;"/>
   </g>
   <g id="line2d_5">
    <path clip-path="url(#p1f138f4610)" d="M 330.067828 384 
L 330.067828 378.970297 
L 332.983364 378.970297 
L 332.983364 373.940594 
L 333.2543 373.940594 
L 333.2543 368.910891 
L 333.646342 368.910891 
L 333.646342 363.881188 
L 334.343632 363.881188 
L 334.440165 353.821782 
L 334.849376 353.821782 
L 334.849376 348.792079 
L 335.932092 348.792079 
L 336.001244 338.732673 
L 336.142844 338.732673 
L 336.142844 333.70297 
L 337.820824 333.70297 
L 337.820824 328.673267 
L 338.386449 328.673267 
L 338.386449 323.643564 
L 338.56237 323.643564 
L 338.56237 318.613861 
L 338.892986 318.613861 
L 338.892986 313.584158 
L 340.339427 313.584158 
L 340.339427 308.554455 
L 354.798678 308.554455 
L 354.800914 233.108911 
L 357.712494 233.108911 
L 357.712494 228.079208 
L 358.603655 228.079208 
L 358.603655 223.049505 
L 358.750415 223.049505 
L 358.750415 218.019802 
L 359.22855 218.019802 
L 359.22855 212.990099 
L 359.858607 212.990099 
L 359.858607 207.960396 
L 360.650583 207.960396 
L 360.650583 202.930693 
L 360.986866 202.930693 
L 360.986866 197.90099 
L 361.226298 197.90099 
L 361.226298 192.871287 
L 361.38873 192.871287 
L 361.38873 187.841584 
L 361.506338 187.841584 
L 361.594408 177.782178 
L 361.62629 177.782178 
L 361.62629 172.752475 
L 362.303523 172.752475 
L 362.303523 167.722772 
L 362.635163 167.722772 
L 362.647914 157.663366 
L 362.92316 157.663366 
L 363.006436 147.60396 
L 363.072886 147.60396 
L 363.072886 142.574257 
L 363.280034 142.574257 
L 363.280034 137.544554 
L 363.601363 137.544554 
L 363.678504 127.485149 
L 364.361636 127.485149 
L 364.361636 122.455446 
L 365.030276 122.455446 
L 365.030276 117.425743 
L 365.160994 117.425743 
L 365.160994 112.39604 
L 366.581506 112.39604 
L 366.684322 97.306931 
L 367.190314 97.306931 
L 367.230251 87.247525 
L 368.439421 87.247525 
L 368.439421 82.217822 
L 487.413369 82.217822 
L 487.413369 77.188119 
L 487.736888 77.188119 
L 487.736888 72.158416 
L 496.060763 72.158416 
L 496.060763 67.128713 
L 497.081639 67.128713 
L 497.081639 62.09901 
L 497.311166 62.09901 
L 497.311166 57.069307 
L 499.218472 57.069307 
L 499.218472 52.039604 
L 499.784748 52.039604 
L 499.784748 47.009901 
L 501.798483 47.009901 
L 501.798483 41.980198 
L 502.168427 41.980198 
L 502.168427 36.950495 
L 503.296952 36.950495 
L 503.296952 31.920792 
L 503.655112 31.920792 
L 503.655112 26.891089 
L 507.159726 26.891089 
L 507.159726 21.861386 
L 508.805968 21.861386 
L 508.805968 16.831683 
L 510.607947 16.831683 
L 510.607947 11.80198 
L 510.773924 11.80198 
L 510.773924 6.772277 
L 510.773924 6.772277 
L 567.24 6.772277 
L 567.24 6.772277 
" style="fill:none;stroke:#00bfbf;stroke-linecap:square;"/>
   </g>
   <g id="line2d_6">
    <path clip-path="url(#p1f138f4610)" d="M 322.963968 384 
L 322.963968 378.970297 
L 323.983022 378.970297 
L 323.983022 373.940594 
L 324.238163 373.940594 
L 324.238163 368.910891 
L 324.611533 368.910891 
L 324.611533 363.881188 
L 324.896881 363.881188 
L 324.896881 358.851485 
L 325.752839 358.851485 
L 325.752839 353.821782 
L 327.02648 353.821782 
L 327.02648 348.792079 
L 328.034143 348.792079 
L 328.034143 343.762376 
L 328.186931 343.762376 
L 328.24411 333.70297 
L 329.037627 333.70297 
L 329.037627 328.673267 
L 329.851042 328.673267 
L 329.851042 323.643564 
L 330.252177 323.643564 
L 330.252177 318.613861 
L 330.513659 318.613861 
L 330.513659 313.584158 
L 334.129282 313.584158 
L 334.129282 308.554455 
L 337.148146 308.554455 
L 337.148146 303.524752 
L 340.861586 303.524752 
L 340.861586 298.49505 
L 341.651562 298.49505 
L 341.707526 288.435644 
L 341.824378 288.435644 
L 341.889003 278.376238 
L 342.036732 278.376238 
L 342.036732 273.346535 
L 342.634982 273.346535 
L 342.634982 268.316832 
L 344.100418 268.316832 
L 344.100418 263.287129 
L 344.34141 263.287129 
L 344.355305 253.227723 
L 344.861075 253.227723 
L 344.861075 248.19802 
L 345.156939 248.19802 
L 345.156939 243.168317 
L 346.861932 243.168317 
L 346.861932 238.138614 
L 348.044131 238.138614 
L 348.044131 233.108911 
L 353.490013 233.108911 
L 353.490013 228.079208 
L 354.209244 228.079208 
L 354.209244 223.049505 
L 356.354916 223.049505 
L 356.354916 218.019802 
L 356.610395 218.019802 
L 356.610395 212.990099 
L 356.978628 212.990099 
L 356.989127 202.930693 
L 357.31382 202.930693 
L 357.348817 192.871287 
L 357.764081 192.871287 
L 357.764081 187.841584 
L 358.087571 187.841584 
L 358.087571 182.811881 
L 358.719702 182.811881 
L 358.719702 177.782178 
L 359.167815 177.782178 
L 359.167815 172.752475 
L 359.514653 172.752475 
L 359.514653 167.722772 
L 359.774967 167.722772 
L 359.774967 162.693069 
L 360.036996 162.693069 
L 360.036996 157.663366 
L 360.354604 157.663366 
L 360.463294 142.574257 
L 360.725332 142.574257 
L 360.768433 132.514851 
L 361.126985 132.514851 
L 361.126985 127.485149 
L 362.265689 127.485149 
L 362.265689 122.455446 
L 362.39989 122.455446 
L 362.39989 117.425743 
L 363.218451 117.425743 
L 363.218451 112.39604 
L 364.395642 112.39604 
L 364.395642 107.366337 
L 364.536815 107.366337 
L 364.536815 102.336634 
L 365.16694 102.336634 
L 365.16694 97.306931 
L 365.811277 97.306931 
L 365.811277 92.277228 
L 366.547774 92.277228 
L 366.547774 87.247525 
L 366.962264 87.247525 
L 366.962264 82.217822 
L 450.855777 82.217822 
L 450.855777 77.188119 
L 455.095983 77.188119 
L 455.095983 72.158416 
L 457.145949 72.158416 
L 457.145949 67.128713 
L 463.481413 67.128713 
L 463.52217 57.069307 
L 464.677684 57.069307 
L 464.677684 52.039604 
L 466.294231 52.039604 
L 466.294231 47.009901 
L 466.775478 47.009901 
L 466.775478 41.980198 
L 468.16817 41.980198 
L 468.16817 36.950495 
L 470.876624 36.950495 
L 470.876624 31.920792 
L 474.006718 31.920792 
L 474.006718 26.891089 
L 477.766441 26.891089 
L 477.766441 21.861386 
L 480.707114 21.861386 
L 480.707114 16.831683 
L 481.910515 16.831683 
L 481.910515 11.80198 
L 483.069339 11.80198 
L 483.069339 6.772277 
L 483.069339 6.772277 
L 567.24 6.772277 
L 567.24 6.772277 
" style="fill:none;stroke:#bf00bf;stroke-linecap:square;"/>
   </g>
   <g id="patch_3">
    <path d="M 3 3 
L 567.24 3 
" style="fill:none;stroke:#000000;stroke-linecap:square;stroke-linejoin:miter;"/>
   </g>
   <g id="patch_4">
    <path d="M 567.24 384 
L 567.24 3 
" style="fill:none;stroke:#000000;stroke-linecap:square;stroke-linejoin:miter;"/>
   </g>
   <g id="patch_5">
    <path d="M 3 384 
L 567.24 384 
" style="fill:none;stroke:#000000;stroke-linecap:square;stroke-linejoin:miter;"/>
   </g>
   <g id="patch_6">
    <path d="M 3 384 
L 3 3 
" style="fill:none;stroke:#000000;stroke-linecap:square;stroke-linejoin:miter;"/>
   </g>
   <g id="matplotlib.axis_1">
    <g id="xtick_1"/>
    <g id="xtick_2">
     <g id="line2d_7">
      <path clip-path="url(#p1f138f4610)" d="M 69.254589 384 
L 69.254589 3 
" style="fill:none;stroke:#000000;stroke-dasharray:1.000000,3.000000;stroke-dashoffset:0.0;stroke-width:0.5;"/>
     </g>
     <g id="line2d_8">
      <defs>
       <path d="M 0 0 
L 0 -4 
" id="m9b8eb986cc" style="stroke:#000000;stroke-width:0.5;"/>
      </defs>
      <g>
       <use style="stroke:#000000;stroke-width:0.5;" x="69.2545893472" xlink:href="#m9b8eb986cc" y="384.0"/>
      </g>
     </g>
     <g id="line2d_9">
      <defs>
       <path d="M 0 0 
L 0 4 
" id="m45f36ddb67" style="stroke:#000000;stroke-width:0.5;"/>
      </defs>
      <g>
       <use style="stroke:#000000;stroke-width:0.5;" x="69.2545893472" xlink:href="#m45f36ddb67" y="3.0"/>
      </g>
     </g>
     <g id="text_1">
      <!-- -6 -->
      <defs>
       <path d="M 33.015625 40.375 
Q 26.375 40.375 22.484375 35.828125 
Q 18.609375 31.296875 18.609375 23.390625 
Q 18.609375 15.53125 22.484375 10.953125 
Q 26.375 6.390625 33.015625 6.390625 
Q 39.65625 6.390625 43.53125 10.953125 
Q 47.40625 15.53125 47.40625 23.390625 
Q 47.40625 31.296875 43.53125 35.828125 
Q 39.65625 40.375 33.015625 40.375 
M 52.59375 71.296875 
L 52.59375 62.3125 
Q 48.875 64.0625 45.09375 64.984375 
Q 41.3125 65.921875 37.59375 65.921875 
Q 27.828125 65.921875 22.671875 59.328125 
Q 17.53125 52.734375 16.796875 39.40625 
Q 19.671875 43.65625 24.015625 45.921875 
Q 28.375 48.1875 33.59375 48.1875 
Q 44.578125 48.1875 50.953125 41.515625 
Q 57.328125 34.859375 57.328125 23.390625 
Q 57.328125 12.15625 50.6875 5.359375 
Q 44.046875 -1.421875 33.015625 -1.421875 
Q 20.359375 -1.421875 13.671875 8.265625 
Q 6.984375 17.96875 6.984375 36.375 
Q 6.984375 53.65625 15.1875 63.9375 
Q 23.390625 74.21875 37.203125 74.21875 
Q 40.921875 74.21875 44.703125 73.484375 
Q 48.484375 72.75 52.59375 71.296875 
" id="BitstreamVeraSans-Roman-36"/>
       <path d="M 4.890625 31.390625 
L 31.203125 31.390625 
L 31.203125 23.390625 
L 4.890625 23.390625 
z
" id="BitstreamVeraSans-Roman-2d"/>
      </defs>
      <g transform="translate(59.2842768472 403.196875)scale(0.2 -0.2)">
       <use xlink:href="#BitstreamVeraSans-Roman-2d"/>
       <use x="36.083984375" xlink:href="#BitstreamVeraSans-Roman-36"/>
      </g>
     </g>
    </g>
    <g id="xtick_3">
     <g id="line2d_10">
      <path clip-path="url(#p1f138f4610)" d="M 135.652644 384 
L 135.652644 3 
" style="fill:none;stroke:#000000;stroke-dasharray:1.000000,3.000000;stroke-dashoffset:0.0;stroke-width:0.5;"/>
     </g>
     <g id="line2d_11">
      <g>
       <use style="stroke:#000000;stroke-width:0.5;" x="135.652644101" xlink:href="#m9b8eb986cc" y="384.0"/>
      </g>
     </g>
     <g id="line2d_12">
      <g>
       <use style="stroke:#000000;stroke-width:0.5;" x="135.652644101" xlink:href="#m45f36ddb67" y="3.0"/>
      </g>
     </g>
     <g id="text_2">
      <!-- -4 -->
      <defs>
       <path d="M 37.796875 64.3125 
L 12.890625 25.390625 
L 37.796875 25.390625 
z
M 35.203125 72.90625 
L 47.609375 72.90625 
L 47.609375 25.390625 
L 58.015625 25.390625 
L 58.015625 17.1875 
L 47.609375 17.1875 
L 47.609375 0 
L 37.796875 0 
L 37.796875 17.1875 
L 4.890625 17.1875 
L 4.890625 26.703125 
z
" id="BitstreamVeraSans-Roman-34"/>
      </defs>
      <g transform="translate(125.682331601 403.196875)scale(0.2 -0.2)">
       <use xlink:href="#BitstreamVeraSans-Roman-2d"/>
       <use x="36.083984375" xlink:href="#BitstreamVeraSans-Roman-34"/>
      </g>
     </g>
    </g>
    <g id="xtick_4">
     <g id="line2d_13">
      <path clip-path="url(#p1f138f4610)" d="M 202.050699 384 
L 202.050699 3 
" style="fill:none;stroke:#000000;stroke-dasharray:1.000000,3.000000;stroke-dashoffset:0.0;stroke-width:0.5;"/>
     </g>
     <g id="line2d_14">
      <g>
       <use style="stroke:#000000;stroke-width:0.5;" x="202.050698855" xlink:href="#m9b8eb986cc" y="384.0"/>
      </g>
     </g>
     <g id="line2d_15">
      <g>
       <use style="stroke:#000000;stroke-width:0.5;" x="202.050698855" xlink:href="#m45f36ddb67" y="3.0"/>
      </g>
     </g>
     <g id="text_3">
      <!-- -2 -->
      <defs>
       <path d="M 19.1875 8.296875 
L 53.609375 8.296875 
L 53.609375 0 
L 7.328125 0 
L 7.328125 8.296875 
Q 12.9375 14.109375 22.625 23.890625 
Q 32.328125 33.6875 34.8125 36.53125 
Q 39.546875 41.84375 41.421875 45.53125 
Q 43.3125 49.21875 43.3125 52.78125 
Q 43.3125 58.59375 39.234375 62.25 
Q 35.15625 65.921875 28.609375 65.921875 
Q 23.96875 65.921875 18.8125 64.3125 
Q 13.671875 62.703125 7.8125 59.421875 
L 7.8125 69.390625 
Q 13.765625 71.78125 18.9375 73 
Q 24.125 74.21875 28.421875 74.21875 
Q 39.75 74.21875 46.484375 68.546875 
Q 53.21875 62.890625 53.21875 53.421875 
Q 53.21875 48.921875 51.53125 44.890625 
Q 49.859375 40.875 45.40625 35.40625 
Q 44.1875 33.984375 37.640625 27.21875 
Q 31.109375 20.453125 19.1875 8.296875 
" id="BitstreamVeraSans-Roman-32"/>
      </defs>
      <g transform="translate(192.080386355 403.196875)scale(0.2 -0.2)">
       <use xlink:href="#BitstreamVeraSans-Roman-2d"/>
       <use x="36.083984375" xlink:href="#BitstreamVeraSans-Roman-32"/>
      </g>
     </g>
    </g>
    <g id="xtick_5">
     <g id="line2d_16">
      <path clip-path="url(#p1f138f4610)" d="M 268.448754 384 
L 268.448754 3 
" style="fill:none;stroke:#000000;stroke-dasharray:1.000000,3.000000;stroke-dashoffset:0.0;stroke-width:0.5;"/>
     </g>
     <g id="line2d_17">
      <g>
       <use style="stroke:#000000;stroke-width:0.5;" x="268.448753608" xlink:href="#m9b8eb986cc" y="384.0"/>
      </g>
     </g>
     <g id="line2d_18">
      <g>
       <use style="stroke:#000000;stroke-width:0.5;" x="268.448753608" xlink:href="#m45f36ddb67" y="3.0"/>
      </g>
     </g>
     <g id="text_4">
      <!-- 0 -->
      <defs>
       <path d="M 31.78125 66.40625 
Q 24.171875 66.40625 20.328125 58.90625 
Q 16.5 51.421875 16.5 36.375 
Q 16.5 21.390625 20.328125 13.890625 
Q 24.171875 6.390625 31.78125 6.390625 
Q 39.453125 6.390625 43.28125 13.890625 
Q 47.125 21.390625 47.125 36.375 
Q 47.125 51.421875 43.28125 58.90625 
Q 39.453125 66.40625 31.78125 66.40625 
M 31.78125 74.21875 
Q 44.046875 74.21875 50.515625 64.515625 
Q 56.984375 54.828125 56.984375 36.375 
Q 56.984375 17.96875 50.515625 8.265625 
Q 44.046875 -1.421875 31.78125 -1.421875 
Q 19.53125 -1.421875 13.0625 8.265625 
Q 6.59375 17.96875 6.59375 36.375 
Q 6.59375 54.828125 13.0625 64.515625 
Q 19.53125 74.21875 31.78125 74.21875 
" id="BitstreamVeraSans-Roman-30"/>
      </defs>
      <g transform="translate(262.086253608 403.196875)scale(0.2 -0.2)">
       <use xlink:href="#BitstreamVeraSans-Roman-30"/>
      </g>
     </g>
    </g>
    <g id="xtick_6">
     <g id="line2d_19">
      <path clip-path="url(#p1f138f4610)" d="M 334.846808 384 
L 334.846808 3 
" style="fill:none;stroke:#000000;stroke-dasharray:1.000000,3.000000;stroke-dashoffset:0.0;stroke-width:0.5;"/>
     </g>
     <g id="line2d_20">
      <g>
       <use style="stroke:#000000;stroke-width:0.5;" x="334.846808362" xlink:href="#m9b8eb986cc" y="384.0"/>
      </g>
     </g>
     <g id="line2d_21">
      <g>
       <use style="stroke:#000000;stroke-width:0.5;" x="334.846808362" xlink:href="#m45f36ddb67" y="3.0"/>
      </g>
     </g>
     <g id="text_5">
      <!-- 2 -->
      <g transform="translate(328.484308362 403.196875)scale(0.2 -0.2)">
       <use xlink:href="#BitstreamVeraSans-Roman-32"/>
      </g>
     </g>
    </g>
    <g id="xtick_7">
     <g id="line2d_22">
      <path clip-path="url(#p1f138f4610)" d="M 401.244863 384 
L 401.244863 3 
" style="fill:none;stroke:#000000;stroke-dasharray:1.000000,3.000000;stroke-dashoffset:0.0;stroke-width:0.5;"/>
     </g>
     <g id="line2d_23">
      <g>
       <use style="stroke:#000000;stroke-width:0.5;" x="401.244863116" xlink:href="#m9b8eb986cc" y="384.0"/>
      </g>
     </g>
     <g id="line2d_24">
      <g>
       <use style="stroke:#000000;stroke-width:0.5;" x="401.244863116" xlink:href="#m45f36ddb67" y="3.0"/>
      </g>
     </g>
     <g id="text_6">
      <!-- 4 -->
      <g transform="translate(394.882363116 403.196875)scale(0.2 -0.2)">
       <use xlink:href="#BitstreamVeraSans-Roman-34"/>
      </g>
     </g>
    </g>
    <g id="xtick_8">
     <g id="line2d_25">
      <path clip-path="url(#p1f138f4610)" d="M 467.642918 384 
L 467.642918 3 
" style="fill:none;stroke:#000000;stroke-dasharray:1.000000,3.000000;stroke-dashoffset:0.0;stroke-width:0.5;"/>
     </g>
     <g id="line2d_26">
      <g>
       <use style="stroke:#000000;stroke-width:0.5;" x="467.642917869" xlink:href="#m9b8eb986cc" y="384.0"/>
      </g>
     </g>
     <g id="line2d_27">
      <g>
       <use style="stroke:#000000;stroke-width:0.5;" x="467.642917869" xlink:href="#m45f36ddb67" y="3.0"/>
      </g>
     </g>
     <g id="text_7">
      <!-- 6 -->
      <g transform="translate(461.280417869 403.196875)scale(0.2 -0.2)">
       <use xlink:href="#BitstreamVeraSans-Roman-36"/>
      </g>
     </g>
    </g>
    <g id="xtick_9">
     <g id="line2d_28">
      <path clip-path="url(#p1f138f4610)" d="M 534.040973 384 
L 534.040973 3 
" style="fill:none;stroke:#000000;stroke-dasharray:1.000000,3.000000;stroke-dashoffset:0.0;stroke-width:0.5;"/>
     </g>
     <g id="line2d_29">
      <g>
       <use style="stroke:#000000;stroke-width:0.5;" x="534.040972623" xlink:href="#m9b8eb986cc" y="384.0"/>
      </g>
     </g>
     <g id="line2d_30">
      <g>
       <use style="stroke:#000000;stroke-width:0.5;" x="534.040972623" xlink:href="#m45f36ddb67" y="3.0"/>
      </g>
     </g>
     <g id="text_8">
      <!-- 8 -->
      <defs>
       <path d="M 31.78125 34.625 
Q 24.75 34.625 20.71875 30.859375 
Q 16.703125 27.09375 16.703125 20.515625 
Q 16.703125 13.921875 20.71875 10.15625 
Q 24.75 6.390625 31.78125 6.390625 
Q 38.8125 6.390625 42.859375 10.171875 
Q 46.921875 13.96875 46.921875 20.515625 
Q 46.921875 27.09375 42.890625 30.859375 
Q 38.875 34.625 31.78125 34.625 
M 21.921875 38.8125 
Q 15.578125 40.375 12.03125 44.71875 
Q 8.5 49.078125 8.5 55.328125 
Q 8.5 64.0625 14.71875 69.140625 
Q 20.953125 74.21875 31.78125 74.21875 
Q 42.671875 74.21875 48.875 69.140625 
Q 55.078125 64.0625 55.078125 55.328125 
Q 55.078125 49.078125 51.53125 44.71875 
Q 48 40.375 41.703125 38.8125 
Q 48.828125 37.15625 52.796875 32.3125 
Q 56.78125 27.484375 56.78125 20.515625 
Q 56.78125 9.90625 50.3125 4.234375 
Q 43.84375 -1.421875 31.78125 -1.421875 
Q 19.734375 -1.421875 13.25 4.234375 
Q 6.78125 9.90625 6.78125 20.515625 
Q 6.78125 27.484375 10.78125 32.3125 
Q 14.796875 37.15625 21.921875 38.8125 
M 18.3125 54.390625 
Q 18.3125 48.734375 21.84375 45.5625 
Q 25.390625 42.390625 31.78125 42.390625 
Q 38.140625 42.390625 41.71875 45.5625 
Q 45.3125 48.734375 45.3125 54.390625 
Q 45.3125 60.0625 41.71875 63.234375 
Q 38.140625 66.40625 31.78125 66.40625 
Q 25.390625 66.40625 21.84375 63.234375 
Q 18.3125 60.0625 18.3125 54.390625 
" id="BitstreamVeraSans-Roman-38"/>
      </defs>
      <g transform="translate(527.678472623 403.196875)scale(0.2 -0.2)">
       <use xlink:href="#BitstreamVeraSans-Roman-38"/>
      </g>
     </g>
    </g>
    <g id="xtick_10"/>
    <g id="xtick_11">
     <g id="line2d_31">
      <defs>
       <path d="M 0 0 
L 0 -2 
" id="mf3b3f89c8d" style="stroke:#000000;stroke-width:0.5;"/>
      </defs>
      <g>
       <use style="stroke:#000000;stroke-width:0.5;" x="69.2545893472" xlink:href="#mf3b3f89c8d" y="384.0"/>
      </g>
     </g>
     <g id="line2d_32">
      <defs>
       <path d="M 0 0 
L 0 2 
" id="m0253485bac" style="stroke:#000000;stroke-width:0.5;"/>
      </defs>
      <g>
       <use style="stroke:#000000;stroke-width:0.5;" x="69.2545893472" xlink:href="#m0253485bac" y="3.0"/>
      </g>
     </g>
    </g>
    <g id="xtick_12">
     <g id="line2d_33">
      <g>
       <use style="stroke:#000000;stroke-width:0.5;" x="135.652644101" xlink:href="#mf3b3f89c8d" y="384.0"/>
      </g>
     </g>
     <g id="line2d_34">
      <g>
       <use style="stroke:#000000;stroke-width:0.5;" x="135.652644101" xlink:href="#m0253485bac" y="3.0"/>
      </g>
     </g>
    </g>
    <g id="xtick_13">
     <g id="line2d_35">
      <g>
       <use style="stroke:#000000;stroke-width:0.5;" x="202.050698855" xlink:href="#mf3b3f89c8d" y="384.0"/>
      </g>
     </g>
     <g id="line2d_36">
      <g>
       <use style="stroke:#000000;stroke-width:0.5;" x="202.050698855" xlink:href="#m0253485bac" y="3.0"/>
      </g>
     </g>
    </g>
    <g id="xtick_14">
     <g id="line2d_37">
      <g>
       <use style="stroke:#000000;stroke-width:0.5;" x="268.448753608" xlink:href="#mf3b3f89c8d" y="384.0"/>
      </g>
     </g>
     <g id="line2d_38">
      <g>
       <use style="stroke:#000000;stroke-width:0.5;" x="268.448753608" xlink:href="#m0253485bac" y="3.0"/>
      </g>
     </g>
    </g>
    <g id="xtick_15">
     <g id="line2d_39">
      <g>
       <use style="stroke:#000000;stroke-width:0.5;" x="334.846808362" xlink:href="#mf3b3f89c8d" y="384.0"/>
      </g>
     </g>
     <g id="line2d_40">
      <g>
       <use style="stroke:#000000;stroke-width:0.5;" x="334.846808362" xlink:href="#m0253485bac" y="3.0"/>
      </g>
     </g>
    </g>
    <g id="xtick_16">
     <g id="line2d_41">
      <g>
       <use style="stroke:#000000;stroke-width:0.5;" x="401.244863116" xlink:href="#mf3b3f89c8d" y="384.0"/>
      </g>
     </g>
     <g id="line2d_42">
      <g>
       <use style="stroke:#000000;stroke-width:0.5;" x="401.244863116" xlink:href="#m0253485bac" y="3.0"/>
      </g>
     </g>
    </g>
    <g id="xtick_17">
     <g id="line2d_43">
      <g>
       <use style="stroke:#000000;stroke-width:0.5;" x="467.642917869" xlink:href="#mf3b3f89c8d" y="384.0"/>
      </g>
     </g>
     <g id="line2d_44">
      <g>
       <use style="stroke:#000000;stroke-width:0.5;" x="467.642917869" xlink:href="#m0253485bac" y="3.0"/>
      </g>
     </g>
    </g>
    <g id="xtick_18">
     <g id="line2d_45">
      <g>
       <use style="stroke:#000000;stroke-width:0.5;" x="534.040972623" xlink:href="#mf3b3f89c8d" y="384.0"/>
      </g>
     </g>
     <g id="line2d_46">
      <g>
       <use style="stroke:#000000;stroke-width:0.5;" x="534.040972623" xlink:href="#m0253485bac" y="3.0"/>
      </g>
     </g>
    </g>
    <g id="text_9">
     <!-- log10 of Df -->
     <defs>
      <path id="BitstreamVeraSans-Roman-20"/>
      <path d="M 12.40625 8.296875 
L 28.515625 8.296875 
L 28.515625 63.921875 
L 10.984375 60.40625 
L 10.984375 69.390625 
L 28.421875 72.90625 
L 38.28125 72.90625 
L 38.28125 8.296875 
L 54.390625 8.296875 
L 54.390625 0 
L 12.40625 0 
z
" id="BitstreamVeraSans-Roman-31"/>
      <path d="M 30.609375 48.390625 
Q 23.390625 48.390625 19.1875 42.75 
Q 14.984375 37.109375 14.984375 27.296875 
Q 14.984375 17.484375 19.15625 11.84375 
Q 23.34375 6.203125 30.609375 6.203125 
Q 37.796875 6.203125 41.984375 11.859375 
Q 46.1875 17.53125 46.1875 27.296875 
Q 46.1875 37.015625 41.984375 42.703125 
Q 37.796875 48.390625 30.609375 48.390625 
M 30.609375 56 
Q 42.328125 56 49.015625 48.375 
Q 55.71875 40.765625 55.71875 27.296875 
Q 55.71875 13.875 49.015625 6.21875 
Q 42.328125 -1.421875 30.609375 -1.421875 
Q 18.84375 -1.421875 12.171875 6.21875 
Q 5.515625 13.875 5.515625 27.296875 
Q 5.515625 40.765625 12.171875 48.375 
Q 18.84375 56 30.609375 56 
" id="BitstreamVeraSans-Roman-6f"/>
      <path d="M 9.421875 75.984375 
L 18.40625 75.984375 
L 18.40625 0 
L 9.421875 0 
z
" id="BitstreamVeraSans-Roman-6c"/>
      <path d="M 19.671875 64.796875 
L 19.671875 8.109375 
L 31.59375 8.109375 
Q 46.6875 8.109375 53.6875 14.9375 
Q 60.6875 21.78125 60.6875 36.53125 
Q 60.6875 51.171875 53.6875 57.984375 
Q 46.6875 64.796875 31.59375 64.796875 
z
M 9.8125 72.90625 
L 30.078125 72.90625 
Q 51.265625 72.90625 61.171875 64.09375 
Q 71.09375 55.28125 71.09375 36.53125 
Q 71.09375 17.671875 61.125 8.828125 
Q 51.171875 0 30.078125 0 
L 9.8125 0 
z
" id="BitstreamVeraSans-Roman-44"/>
      <path d="M 45.40625 27.984375 
Q 45.40625 37.75 41.375 43.109375 
Q 37.359375 48.484375 30.078125 48.484375 
Q 22.859375 48.484375 18.828125 43.109375 
Q 14.796875 37.75 14.796875 27.984375 
Q 14.796875 18.265625 18.828125 12.890625 
Q 22.859375 7.515625 30.078125 7.515625 
Q 37.359375 7.515625 41.375 12.890625 
Q 45.40625 18.265625 45.40625 27.984375 
M 54.390625 6.78125 
Q 54.390625 -7.171875 48.1875 -13.984375 
Q 42 -20.796875 29.203125 -20.796875 
Q 24.46875 -20.796875 20.265625 -20.09375 
Q 16.0625 -19.390625 12.109375 -17.921875 
L 12.109375 -9.1875 
Q 16.0625 -11.328125 19.921875 -12.34375 
Q 23.78125 -13.375 27.78125 -13.375 
Q 36.625 -13.375 41.015625 -8.765625 
Q 45.40625 -4.15625 45.40625 5.171875 
L 45.40625 9.625 
Q 42.625 4.78125 38.28125 2.390625 
Q 33.9375 0 27.875 0 
Q 17.828125 0 11.671875 7.65625 
Q 5.515625 15.328125 5.515625 27.984375 
Q 5.515625 40.671875 11.671875 48.328125 
Q 17.828125 56 27.875 56 
Q 33.9375 56 38.28125 53.609375 
Q 42.625 51.21875 45.40625 46.390625 
L 45.40625 54.6875 
L 54.390625 54.6875 
z
" id="BitstreamVeraSans-Roman-67"/>
      <path d="M 37.109375 75.984375 
L 37.109375 68.5 
L 28.515625 68.5 
Q 23.6875 68.5 21.796875 66.546875 
Q 19.921875 64.59375 19.921875 59.515625 
L 19.921875 54.6875 
L 34.71875 54.6875 
L 34.71875 47.703125 
L 19.921875 47.703125 
L 19.921875 0 
L 10.890625 0 
L 10.890625 47.703125 
L 2.296875 47.703125 
L 2.296875 54.6875 
L 10.890625 54.6875 
L 10.890625 58.5 
Q 10.890625 67.625 15.140625 71.796875 
Q 19.390625 75.984375 28.609375 75.984375 
z
" id="BitstreamVeraSans-Roman-66"/>
     </defs>
     <g transform="translate(229.9340625 427.553125)scale(0.2 -0.2)">
      <use xlink:href="#BitstreamVeraSans-Roman-6c"/>
      <use x="27.783203125" xlink:href="#BitstreamVeraSans-Roman-6f"/>
      <use x="88.96484375" xlink:href="#BitstreamVeraSans-Roman-67"/>
      <use x="152.44140625" xlink:href="#BitstreamVeraSans-Roman-31"/>
      <use x="216.064453125" xlink:href="#BitstreamVeraSans-Roman-30"/>
      <use x="279.6875" xlink:href="#BitstreamVeraSans-Roman-20"/>
      <use x="311.474609375" xlink:href="#BitstreamVeraSans-Roman-6f"/>
      <use x="372.65625" xlink:href="#BitstreamVeraSans-Roman-66"/>
      <use x="407.861328125" xlink:href="#BitstreamVeraSans-Roman-20"/>
      <use x="439.6484375" xlink:href="#BitstreamVeraSans-Roman-44"/>
      <use x="516.650390625" xlink:href="#BitstreamVeraSans-Roman-66"/>
     </g>
    </g>
   </g>
   <g id="matplotlib.axis_2">
    <g id="ytick_1">
     <g id="line2d_47">
      <path clip-path="url(#p1f138f4610)" d="M 3 384 
L 567.24 384 
" style="fill:none;stroke:#000000;stroke-dasharray:1.000000,3.000000;stroke-dashoffset:0.0;stroke-width:0.5;"/>
     </g>
     <g id="line2d_48">
      <defs>
       <path d="M 0 0 
L 4 0 
" id="mbfb0acdbaa" style="stroke:#000000;stroke-width:0.5;"/>
      </defs>
      <g>
       <use style="stroke:#000000;stroke-width:0.5;" x="3.0" xlink:href="#mbfb0acdbaa" y="384.0"/>
      </g>
     </g>
     <g id="line2d_49">
      <defs>
       <path d="M 0 0 
L -4 0 
" id="mf21409bf11" style="stroke:#000000;stroke-width:0.5;"/>
      </defs>
      <g>
       <use style="stroke:#000000;stroke-width:0.5;" x="567.24" xlink:href="#mf21409bf11" y="384.0"/>
      </g>
     </g>
    </g>
    <g id="ytick_2">
     <g id="line2d_50">
      <path clip-path="url(#p1f138f4610)" d="M 3 308.554455 
L 567.24 308.554455 
" style="fill:none;stroke:#000000;stroke-dasharray:1.000000,3.000000;stroke-dashoffset:0.0;stroke-width:0.5;"/>
     </g>
     <g id="line2d_51">
      <g>
       <use style="stroke:#000000;stroke-width:0.5;" x="3.0" xlink:href="#mbfb0acdbaa" y="308.554455446"/>
      </g>
     </g>
     <g id="line2d_52">
      <g>
       <use style="stroke:#000000;stroke-width:0.5;" x="567.24" xlink:href="#mf21409bf11" y="308.554455446"/>
      </g>
     </g>
    </g>
    <g id="ytick_3">
     <g id="line2d_53">
      <path clip-path="url(#p1f138f4610)" d="M 3 233.108911 
L 567.24 233.108911 
" style="fill:none;stroke:#000000;stroke-dasharray:1.000000,3.000000;stroke-dashoffset:0.0;stroke-width:0.5;"/>
     </g>
     <g id="line2d_54">
      <g>
       <use style="stroke:#000000;stroke-width:0.5;" x="3.0" xlink:href="#mbfb0acdbaa" y="233.108910891"/>
      </g>
     </g>
     <g id="line2d_55">
      <g>
       <use style="stroke:#000000;stroke-width:0.5;" x="567.24" xlink:href="#mf21409bf11" y="233.108910891"/>
      </g>
     </g>
    </g>
    <g id="ytick_4">
     <g id="line2d_56">
      <path clip-path="url(#p1f138f4610)" d="M 3 157.663366 
L 567.24 157.663366 
" style="fill:none;stroke:#000000;stroke-dasharray:1.000000,3.000000;stroke-dashoffset:0.0;stroke-width:0.5;"/>
     </g>
     <g id="line2d_57">
      <g>
       <use style="stroke:#000000;stroke-width:0.5;" x="3.0" xlink:href="#mbfb0acdbaa" y="157.663366337"/>
      </g>
     </g>
     <g id="line2d_58">
      <g>
       <use style="stroke:#000000;stroke-width:0.5;" x="567.24" xlink:href="#mf21409bf11" y="157.663366337"/>
      </g>
     </g>
    </g>
    <g id="ytick_5">
     <g id="line2d_59">
      <path clip-path="url(#p1f138f4610)" d="M 3 82.217822 
L 567.24 82.217822 
" style="fill:none;stroke:#000000;stroke-dasharray:1.000000,3.000000;stroke-dashoffset:0.0;stroke-width:0.5;"/>
     </g>
     <g id="line2d_60">
      <g>
       <use style="stroke:#000000;stroke-width:0.5;" x="3.0" xlink:href="#mbfb0acdbaa" y="82.2178217822"/>
      </g>
     </g>
     <g id="line2d_61">
      <g>
       <use style="stroke:#000000;stroke-width:0.5;" x="567.24" xlink:href="#mf21409bf11" y="82.2178217822"/>
      </g>
     </g>
    </g>
    <g id="ytick_6">
     <g id="line2d_62">
      <path clip-path="url(#p1f138f4610)" d="M 3 6.772277 
L 567.24 6.772277 
" style="fill:none;stroke:#000000;stroke-dasharray:1.000000,3.000000;stroke-dashoffset:0.0;stroke-width:0.5;"/>
     </g>
     <g id="line2d_63">
      <g>
       <use style="stroke:#000000;stroke-width:0.5;" x="3.0" xlink:href="#mbfb0acdbaa" y="6.77227722772"/>
      </g>
     </g>
     <g id="line2d_64">
      <g>
       <use style="stroke:#000000;stroke-width:0.5;" x="567.24" xlink:href="#mf21409bf11" y="6.77227722772"/>
      </g>
     </g>
    </g>
   </g>
   <g id="text_10">
    <!-- {f1-f5}, 20-D -->
    <defs>
     <path d="M 12.5 -9.28125 
L 15.921875 -9.28125 
Q 22.75 -9.28125 24.828125 -7.171875 
Q 26.90625 -5.078125 26.90625 1.90625 
L 26.90625 14.015625 
Q 26.90625 21.625 29.09375 25.09375 
Q 31.296875 28.5625 36.71875 29.890625 
Q 31.296875 31.109375 29.09375 34.5625 
Q 26.90625 38.03125 26.90625 45.703125 
L 26.90625 57.8125 
Q 26.90625 64.75 24.828125 66.875 
Q 22.75 69 15.921875 69 
L 12.5 69 
L 12.5 75.984375 
L 15.578125 75.984375 
Q 27.734375 75.984375 31.8125 72.390625 
Q 35.890625 68.796875 35.890625 58.015625 
L 35.890625 46.296875 
Q 35.890625 39.015625 38.515625 36.203125 
Q 41.15625 33.40625 48.09375 33.40625 
L 51.125 33.40625 
L 51.125 26.421875 
L 48.09375 26.421875 
Q 41.15625 26.421875 38.515625 23.578125 
Q 35.890625 20.75 35.890625 13.375 
L 35.890625 1.703125 
Q 35.890625 -9.078125 31.8125 -12.6875 
Q 27.734375 -16.3125 15.578125 -16.3125 
L 12.5 -16.3125 
z
" id="BitstreamVeraSans-Roman-7d"/>
     <path d="M 51.125 -9.28125 
L 51.125 -16.3125 
L 48.09375 -16.3125 
Q 35.9375 -16.3125 31.8125 -12.6875 
Q 27.6875 -9.078125 27.6875 1.703125 
L 27.6875 13.375 
Q 27.6875 20.75 25.046875 23.578125 
Q 22.40625 26.421875 15.484375 26.421875 
L 12.5 26.421875 
L 12.5 33.40625 
L 15.484375 33.40625 
Q 22.46875 33.40625 25.078125 36.203125 
Q 27.6875 39.015625 27.6875 46.296875 
L 27.6875 58.015625 
Q 27.6875 68.796875 31.8125 72.390625 
Q 35.9375 75.984375 48.09375 75.984375 
L 51.125 75.984375 
L 51.125 69 
L 47.796875 69 
Q 40.921875 69 38.8125 66.84375 
Q 36.71875 64.703125 36.71875 57.8125 
L 36.71875 45.703125 
Q 36.71875 38.03125 34.5 34.5625 
Q 32.28125 31.109375 26.90625 29.890625 
Q 32.328125 28.5625 34.515625 25.09375 
Q 36.71875 21.625 36.71875 14.015625 
L 36.71875 1.90625 
Q 36.71875 -4.984375 38.8125 -7.125 
Q 40.921875 -9.28125 47.796875 -9.28125 
z
" id="BitstreamVeraSans-Roman-7b"/>
     <path d="M 11.71875 12.40625 
L 22.015625 12.40625 
L 22.015625 4 
L 14.015625 -11.625 
L 7.71875 -11.625 
L 11.71875 4 
z
" id="BitstreamVeraSans-Roman-2c"/>
     <path d="M 10.796875 72.90625 
L 49.515625 72.90625 
L 49.515625 64.59375 
L 19.828125 64.59375 
L 19.828125 46.734375 
Q 21.96875 47.46875 24.109375 47.828125 
Q 26.265625 48.1875 28.421875 48.1875 
Q 40.625 48.1875 47.75 41.5 
Q 54.890625 34.8125 54.890625 23.390625 
Q 54.890625 11.625 47.5625 5.09375 
Q 40.234375 -1.421875 26.90625 -1.421875 
Q 22.3125 -1.421875 17.546875 -0.640625 
Q 12.796875 0.140625 7.71875 1.703125 
L 7.71875 11.625 
Q 12.109375 9.234375 16.796875 8.0625 
Q 21.484375 6.890625 26.703125 6.890625 
Q 35.15625 6.890625 40.078125 11.328125 
Q 45.015625 15.765625 45.015625 23.390625 
Q 45.015625 31 40.078125 35.4375 
Q 35.15625 39.890625 26.703125 39.890625 
Q 22.75 39.890625 18.8125 39.015625 
Q 14.890625 38.140625 10.796875 36.28125 
z
" id="BitstreamVeraSans-Roman-35"/>
    </defs>
    <g transform="translate(422.9802 376.38)scale(0.2 -0.2)">
     <use xlink:href="#BitstreamVeraSans-Roman-7b"/>
     <use x="63.623046875" xlink:href="#BitstreamVeraSans-Roman-66"/>
     <use x="98.828125" xlink:href="#BitstreamVeraSans-Roman-31"/>
     <use x="162.451171875" xlink:href="#BitstreamVeraSans-Roman-2d"/>
     <use x="198.53515625" xlink:href="#BitstreamVeraSans-Roman-66"/>
     <use x="233.740234375" xlink:href="#BitstreamVeraSans-Roman-35"/>
     <use x="297.36328125" xlink:href="#BitstreamVeraSans-Roman-7d"/>
     <use x="360.986328125" xlink:href="#BitstreamVeraSans-Roman-2c"/>
     <use x="392.7734375" xlink:href="#BitstreamVeraSans-Roman-20"/>
     <use x="424.560546875" xlink:href="#BitstreamVeraSans-Roman-32"/>
     <use x="488.18359375" xlink:href="#BitstreamVeraSans-Roman-30"/>
     <use x="551.806640625" xlink:href="#BitstreamVeraSans-Roman-2d"/>
     <use x="587.890625" xlink:href="#BitstreamVeraSans-Roman-44"/>
    </g>
   </g>
   <g id="text_11">
    <!-- v2.2.1.10 -->
    <defs>
     <path d="M 2.984375 54.6875 
L 12.5 54.6875 
L 29.59375 8.796875 
L 46.6875 54.6875 
L 56.203125 54.6875 
L 35.6875 0 
L 23.484375 0 
z
" id="BitstreamVeraSans-Roman-76"/>
     <path d="M 10.6875 12.40625 
L 21 12.40625 
L 21 0 
L 10.6875 0 
z
" id="BitstreamVeraSans-Roman-2e"/>
    </defs>
    <g style="fill:#808080;" transform="translate(261.4871875 378.1103125)scale(0.1 -0.1)">
     <use xlink:href="#BitstreamVeraSans-Roman-76"/>
     <use x="59.1796875" xlink:href="#BitstreamVeraSans-Roman-32"/>
     <use x="122.802734375" xlink:href="#BitstreamVeraSans-Roman-2e"/>
     <use x="154.58984375" xlink:href="#BitstreamVeraSans-Roman-32"/>
     <use x="218.212890625" xlink:href="#BitstreamVeraSans-Roman-2e"/>
     <use x="250.0" xlink:href="#BitstreamVeraSans-Roman-31"/>
     <use x="313.623046875" xlink:href="#BitstreamVeraSans-Roman-2e"/>
     <use x="345.41015625" xlink:href="#BitstreamVeraSans-Roman-31"/>
     <use x="409.033203125" xlink:href="#BitstreamVeraSans-Roman-30"/>
    </g>
   </g>
  </g>
 </g>
 <defs>
  <clipPath id="p1f138f4610">
   <rect height="381.0" width="564.24" x="3.0" y="3.0"/>
  </clipPath>
 </defs>
</svg>
