<?xml version="1.0" encoding="utf-8" standalone="no"?>
<!DOCTYPE svg PUBLIC "-//W3C//DTD SVG 1.1//EN"
  "http://www.w3.org/Graphics/SVG/1.1/DTD/svg11.dtd">
<!-- Created with matplotlib (http://matplotlib.org/) -->
<svg height="432pt" version="1.1" viewBox="0 0 576 432" width="576pt" xmlns="http://www.w3.org/2000/svg" xmlns:xlink="http://www.w3.org/1999/xlink">
 <defs>
  <style type="text/css">
*{stroke-linecap:butt;stroke-linejoin:round;stroke-miterlimit:100000;}
  </style>
 </defs>
 <g id="figure_1">
  <g id="patch_1">
   <path d="M 0 432 
L 576 432 
L 576 0 
L 0 0 
z
" style="fill:#ffffff;"/>
  </g>
  <g id="axes_1">
   <g id="patch_2">
    <path d="M 3 384 
L 567.24 384 
L 567.24 3 
L 3 3 
z
" style="fill:#ffffff;"/>
   </g>
   <g id="line2d_1">
    <path clip-path="url(#p096e93cd0a)" d="M -42.180564 384 
M -1 377.712871 
L 10.159334 377.712871 
L 10.159334 371.425743 
L 15.260569 371.425743 
L 15.260569 365.138614 
L 210.887326 365.138614 
L 210.887326 358.851485 
L 228.435271 358.851485 
L 228.435271 352.564356 
L 233.06931 352.564356 
L 233.06931 346.277228 
L 234.905705 346.277228 
L 234.905705 339.990099 
L 237.43082 339.990099 
L 237.43082 333.70297 
L 247.856738 333.70297 
L 247.856738 327.415842 
L 254.102484 327.415842 
L 254.102484 321.128713 
L 257.109706 321.128713 
L 257.109706 314.841584 
L 261.564725 314.841584 
L 261.564725 308.554455 
L 261.934002 308.554455 
L 261.934002 302.267327 
L 263.169042 302.267327 
L 263.169042 295.980198 
L 264.066249 295.980198 
L 264.066249 289.693069 
L 266.259879 289.693069 
L 266.259879 283.405941 
L 267.612987 283.405941 
L 267.612987 277.118812 
L 269.166773 277.118812 
L 269.166773 270.831683 
L 269.242835 270.831683 
L 269.242835 264.544554 
L 273.910042 264.544554 
L 273.910042 258.257426 
L 275.813442 258.257426 
L 275.813442 251.970297 
L 276.581824 251.970297 
L 276.581824 245.683168 
L 280.08943 245.683168 
L 280.08943 239.39604 
L 282.719045 239.39604 
L 282.719045 233.108911 
L 285.659172 233.108911 
L 285.659172 226.821782 
L 287.011217 226.821782 
L 287.011217 220.534653 
L 290.511428 220.534653 
L 290.511428 214.247525 
L 292.338912 214.247525 
L 292.338912 207.960396 
L 294.202636 207.960396 
L 294.202636 201.673267 
L 294.690525 201.673267 
L 294.690525 195.386139 
L 304.771827 195.386139 
L 304.771827 189.09901 
L 305.180921 189.09901 
L 305.180921 182.811881 
L 305.557728 182.811881 
L 305.557728 176.524752 
L 309.991739 176.524752 
L 309.991739 170.237624 
L 314.012653 170.237624 
L 314.012653 163.950495 
L 315.003106 163.950495 
L 315.003106 157.663366 
L 318.724258 157.663366 
L 318.724258 151.376238 
L 321.430159 151.376238 
L 321.430159 145.089109 
L 321.712264 145.089109 
L 321.712264 138.80198 
L 322.518336 138.80198 
L 322.518336 132.514851 
L 322.804492 132.514851 
L 322.804492 126.227723 
L 323.520268 126.227723 
L 323.520268 119.940594 
L 323.544406 119.940594 
L 323.544406 113.653465 
L 328.701155 113.653465 
L 328.701155 107.366337 
L 329.993795 107.366337 
L 329.993795 101.079208 
L 332.270454 101.079208 
L 332.270454 94.792079 
L 332.289104 94.792079 
L 332.289104 88.50495 
L 338.466521 88.50495 
L 338.466521 82.217822 
L 339.071803 82.217822 
L 339.071803 75.930693 
L 341.178937 75.930693 
L 341.178937 69.643564 
L 343.499616 69.643564 
L 343.499616 63.356436 
L 343.648051 63.356436 
L 343.648051 57.069307 
L 344.924295 57.069307 
L 344.924295 50.782178 
L 345.658863 50.782178 
L 345.658863 44.49505 
L 346.935588 44.49505 
L 346.935588 38.207921 
L 349.37529 38.207921 
L 349.37529 31.920792 
L 349.727859 31.920792 
L 349.727859 25.633663 
L 355.485455 25.633663 
L 355.485455 19.346535 
L 356.988685 19.346535 
L 356.988685 13.059406 
L 363.567382 13.059406 
L 363.567382 6.772277 
L 363.567382 6.772277 
L 363.567382 6.772277 
L 567.24 6.772277 
" style="fill:none;stroke:#ff0000;stroke-linecap:square;stroke-width:3.0;"/>
   </g>
   <g id="line2d_2">
    <path clip-path="url(#p096e93cd0a)" d="M 305.557728 384 
L 305.557728 377.712871 
L 309.991739 377.712871 
L 309.991739 371.425743 
L 315.418513 371.425743 
L 315.418513 365.138614 
L 315.418605 365.138614 
L 315.418605 358.851485 
L 315.421154 358.851485 
L 315.421154 352.564356 
L 315.424204 352.564356 
L 315.424204 346.277228 
L 315.424493 346.277228 
L 315.424493 339.990099 
L 315.424493 339.990099 
L 315.424493 333.70297 
L 315.424493 333.70297 
L 315.424493 327.415842 
L 315.424493 327.415842 
L 315.424493 321.128713 
L 315.424493 321.128713 
L 315.424493 314.841584 
L 315.424493 314.841584 
L 315.424493 308.554455 
L 315.424493 308.554455 
L 315.424493 302.267327 
L 315.424493 302.267327 
L 315.424493 295.980198 
L 315.424493 295.980198 
L 315.424493 289.693069 
L 315.424493 289.693069 
L 315.424493 283.405941 
L 315.424493 283.405941 
L 315.424493 277.118812 
L 318.724258 277.118812 
L 318.724258 270.831683 
L 321.712264 270.831683 
L 321.712264 264.544554 
L 323.520268 264.544554 
L 323.520268 258.257426 
L 332.289104 258.257426 
L 332.289104 251.970297 
L 341.178937 251.970297 
L 341.178937 245.683168 
L 343.648051 245.683168 
L 343.648051 239.39604 
L 344.924295 239.39604 
L 344.924295 233.108911 
L 345.658863 233.108911 
L 345.658863 226.821782 
L 345.89786 226.821782 
L 345.89786 220.534653 
L 349.37529 220.534653 
L 349.37529 214.247525 
L 349.727859 214.247525 
L 349.727859 207.960396 
L 355.485455 207.960396 
L 355.485455 201.673267 
L 356.988685 201.673267 
L 356.988685 195.386139 
L 363.567382 195.386139 
L 363.567382 189.09901 
L 372.125358 189.09901 
L 372.125358 182.811881 
L 381.690035 182.811881 
L 381.690035 176.524752 
L 387.718699 176.524752 
L 387.718699 170.237624 
L 388.733672 170.237624 
L 388.733672 163.950495 
L 391.445516 163.950495 
L 391.445516 157.663366 
L 391.667693 157.663366 
L 391.667693 151.376238 
L 394.219751 151.376238 
L 394.219751 145.089109 
L 397.234907 145.089109 
L 397.234907 138.80198 
L 403.22205 138.80198 
L 403.22205 132.514851 
L 404.728681 132.514851 
L 404.728681 126.227723 
L 406.588107 126.227723 
L 406.588107 119.940594 
L 407.723199 119.940594 
L 407.723199 113.653465 
L 409.792821 113.653465 
L 409.792821 107.366337 
L 409.924039 107.366337 
L 409.924039 101.079208 
L 413.999867 101.079208 
L 413.999867 94.792079 
L 422.589538 94.792079 
L 422.589538 88.50495 
L 425.841476 88.50495 
L 425.841476 82.217822 
L 427.907874 82.217822 
L 427.907874 75.930693 
L 428.624346 75.930693 
L 428.624346 69.643564 
L 431.098401 69.643564 
L 431.098401 63.356436 
L 436.191269 63.356436 
L 436.191269 57.069307 
L 436.780951 57.069307 
L 436.780951 50.782178 
L 439.67264 50.782178 
L 439.67264 44.49505 
L 441.352124 44.49505 
L 441.352124 38.207921 
L 443.69627 38.207921 
L 443.69627 31.920792 
L 449.791365 31.920792 
L 449.791365 25.633663 
L 451.286661 25.633663 
L 451.286661 19.346535 
L 455.648993 19.346535 
L 455.648993 13.059406 
L 459.755728 13.059406 
L 459.755728 6.772277 
L 459.755728 6.772277 
L 459.755728 6.772277 
L 567.24 6.772277 
" style="fill:none;stroke:#00bfbf;stroke-linecap:square;"/>
   </g>
   <g id="line2d_3">
    <path clip-path="url(#p096e93cd0a)" d="M 305.557728 384 
L 305.557728 377.712871 
L 309.991739 377.712871 
L 309.991739 371.425743 
L 315.41687 371.425743 
L 315.41687 365.138614 
L 315.417517 365.138614 
L 315.417517 358.851485 
L 315.418183 358.851485 
L 315.418183 352.564356 
L 315.418292 352.564356 
L 315.418292 346.277228 
L 315.418513 346.277228 
L 315.418513 339.990099 
L 315.419163 339.990099 
L 315.419163 333.70297 
L 315.419783 333.70297 
L 315.419783 327.415842 
L 315.420023 327.415842 
L 315.420023 321.128713 
L 315.420533 321.128713 
L 315.420533 314.841584 
L 315.420652 314.841584 
L 315.420652 308.554455 
L 315.421154 308.554455 
L 315.421154 302.267327 
L 315.421224 302.267327 
L 315.421224 295.980198 
L 315.422691 295.980198 
L 315.422691 289.693069 
L 315.423376 289.693069 
L 315.423376 283.405941 
L 315.424493 283.405941 
L 315.424493 277.118812 
L 318.724258 277.118812 
L 318.724258 270.831683 
L 321.712264 270.831683 
L 321.712264 264.544554 
L 323.520268 264.544554 
L 323.520268 258.257426 
L 332.289104 258.257426 
L 332.289104 251.970297 
L 341.178937 251.970297 
L 341.178937 245.683168 
L 343.648051 245.683168 
L 343.648051 239.39604 
L 344.924295 239.39604 
L 344.924295 233.108911 
L 345.658863 233.108911 
L 345.658863 226.821782 
L 345.897844 226.821782 
L 345.897844 220.534653 
L 349.37529 220.534653 
L 349.37529 214.247525 
L 349.727859 214.247525 
L 349.727859 207.960396 
L 355.485455 207.960396 
L 355.485455 201.673267 
L 356.988685 201.673267 
L 356.988685 195.386139 
L 363.567382 195.386139 
L 363.567382 189.09901 
L 372.125358 189.09901 
L 372.125358 182.811881 
L 381.690035 182.811881 
L 381.690035 176.524752 
L 387.718699 176.524752 
L 387.718699 170.237624 
L 388.732687 170.237624 
L 388.732687 163.950495 
L 391.444757 163.950495 
L 391.444757 157.663366 
L 391.665854 157.663366 
L 391.665854 151.376238 
L 394.21899 151.376238 
L 394.21899 145.089109 
L 397.23442 145.089109 
L 397.23442 138.80198 
L 403.221391 138.80198 
L 403.221391 132.514851 
L 404.728577 132.514851 
L 404.728577 126.227723 
L 406.587596 126.227723 
L 406.587596 119.940594 
L 407.722749 119.940594 
L 407.722749 113.653465 
L 409.792482 113.653465 
L 409.792482 107.366337 
L 409.923446 107.366337 
L 409.923446 101.079208 
L 413.999415 101.079208 
L 413.999415 94.792079 
L 422.589538 94.792079 
L 422.589538 88.50495 
L 425.839802 88.50495 
L 425.839802 82.217822 
L 427.907492 82.217822 
L 427.907492 75.930693 
L 428.623554 75.930693 
L 428.623554 69.643564 
L 431.098401 69.643564 
L 431.098401 63.356436 
L 436.191102 63.356436 
L 436.191102 57.069307 
L 436.780596 57.069307 
L 436.780596 50.782178 
L 439.670685 50.782178 
L 439.670685 44.49505 
L 441.351129 44.49505 
L 441.351129 38.207921 
L 443.695316 38.207921 
L 443.695316 31.920792 
L 449.791264 31.920792 
L 449.791264 25.633663 
L 451.286216 25.633663 
L 451.286216 19.346535 
L 455.648993 19.346535 
L 455.648993 13.059406 
L 459.755696 13.059406 
L 459.755696 6.772277 
L 459.755696 6.772277 
L 459.755696 6.772277 
L 567.24 6.772277 
" style="fill:none;stroke:#bf00bf;stroke-linecap:square;"/>
   </g>
   <g id="line2d_4">
    <path clip-path="url(#p096e93cd0a)" d="M 305.557728 384 
L 305.557728 377.712871 
L 309.991739 377.712871 
L 309.991739 371.425743 
L 315.368319 371.425743 
L 315.368319 365.138614 
L 315.369082 365.138614 
L 315.369082 358.851485 
L 315.369682 358.851485 
L 315.369682 352.564356 
L 315.371846 352.564356 
L 315.371846 346.277228 
L 315.37681 346.277228 
L 315.37681 339.990099 
L 315.37911 339.990099 
L 315.37911 333.70297 
L 315.379652 333.70297 
L 315.379652 327.415842 
L 315.379775 327.415842 
L 315.379775 321.128713 
L 315.380983 321.128713 
L 315.380983 314.841584 
L 315.380985 314.841584 
L 315.380985 308.554455 
L 315.381994 308.554455 
L 315.381994 302.267327 
L 315.385759 302.267327 
L 315.385759 295.980198 
L 315.38947 295.980198 
L 315.38947 289.693069 
L 315.389782 289.693069 
L 315.389782 283.405941 
L 315.399025 283.405941 
L 315.399025 277.118812 
L 318.724258 277.118812 
L 318.724258 270.831683 
L 321.712264 270.831683 
L 321.712264 264.544554 
L 323.520268 264.544554 
L 323.520268 258.257426 
L 332.289104 258.257426 
L 332.289104 251.970297 
L 341.178937 251.970297 
L 341.178937 245.683168 
L 343.648051 245.683168 
L 343.648051 239.39604 
L 344.924295 239.39604 
L 344.924295 233.108911 
L 345.658863 233.108911 
L 345.658863 226.821782 
L 345.897378 226.821782 
L 345.897378 220.534653 
L 349.37529 220.534653 
L 349.37529 214.247525 
L 349.727859 214.247525 
L 349.727859 207.960396 
L 355.485455 207.960396 
L 355.485455 201.673267 
L 356.988685 201.673267 
L 356.988685 195.386139 
L 363.567382 195.386139 
L 363.567382 189.09901 
L 372.119234 189.09901 
L 372.119234 182.811881 
L 381.666524 182.811881 
L 381.666524 176.524752 
L 387.687679 176.524752 
L 387.687679 170.237624 
L 388.707224 170.237624 
L 388.707224 163.950495 
L 391.420245 163.950495 
L 391.420245 157.663366 
L 391.650003 157.663366 
L 391.650003 151.376238 
L 394.199695 151.376238 
L 394.199695 145.089109 
L 397.210072 145.089109 
L 397.210072 138.80198 
L 403.198488 138.80198 
L 403.198488 132.514851 
L 404.708853 132.514851 
L 404.708853 126.227723 
L 406.569179 126.227723 
L 406.569179 119.940594 
L 407.702968 119.940594 
L 407.702968 113.653465 
L 409.779355 113.653465 
L 409.779355 107.366337 
L 409.911905 107.366337 
L 409.911905 101.079208 
L 413.980707 101.079208 
L 413.980707 94.792079 
L 422.563911 94.792079 
L 422.563911 88.50495 
L 425.824101 88.50495 
L 425.824101 82.217822 
L 427.904665 82.217822 
L 427.904665 75.930693 
L 428.612409 75.930693 
L 428.612409 69.643564 
L 431.086142 69.643564 
L 431.086142 63.356436 
L 436.186178 63.356436 
L 436.186178 57.069307 
L 436.776817 57.069307 
L 436.776817 50.782178 
L 439.664648 50.782178 
L 439.664648 44.49505 
L 441.344405 44.49505 
L 441.344405 38.207921 
L 443.691583 38.207921 
L 443.691583 31.920792 
L 449.786775 31.920792 
L 449.786775 25.633663 
L 451.284393 25.633663 
L 451.284393 19.346535 
L 455.640839 19.346535 
L 455.640839 13.059406 
L 459.754998 13.059406 
L 459.754998 6.772277 
L 459.754998 6.772277 
L 459.754998 6.772277 
L 567.24 6.772277 
" style="fill:none;stroke:#000000;stroke-linecap:square;"/>
   </g>
   <g id="line2d_5">
    <path clip-path="url(#p096e93cd0a)" d="M 305.557728 384 
L 305.557728 377.712871 
L 309.084199 377.712871 
L 309.084199 371.425743 
L 309.174199 371.425743 
L 309.174199 365.138614 
L 309.187044 365.138614 
L 309.187044 358.851485 
L 309.815058 358.851485 
L 309.815058 352.564356 
L 309.991739 352.564356 
L 309.991739 346.277228 
L 310.502345 346.277228 
L 310.502345 339.990099 
L 310.680004 339.990099 
L 310.680004 333.70297 
L 310.853456 333.70297 
L 310.853456 327.415842 
L 310.909259 327.415842 
L 310.909259 321.128713 
L 311.853748 321.128713 
L 311.853748 314.841584 
L 312.012273 314.841584 
L 312.012273 308.554455 
L 312.101554 308.554455 
L 312.101554 302.267327 
L 312.169484 302.267327 
L 312.169484 295.980198 
L 312.32149 295.980198 
L 312.32149 289.693069 
L 312.573598 289.693069 
L 312.573598 283.405941 
L 312.883908 283.405941 
L 312.883908 277.118812 
L 318.724258 277.118812 
L 318.724258 270.831683 
L 321.712264 270.831683 
L 321.712264 264.544554 
L 323.520268 264.544554 
L 323.520268 258.257426 
L 332.289104 258.257426 
L 332.289104 251.970297 
L 341.178937 251.970297 
L 341.178937 245.683168 
L 343.648051 245.683168 
L 343.648051 239.39604 
L 344.924295 239.39604 
L 344.924295 233.108911 
L 345.658863 233.108911 
L 345.658863 226.821782 
L 345.828779 226.821782 
L 345.828779 220.534653 
L 349.37529 220.534653 
L 349.37529 214.247525 
L 349.727859 214.247525 
L 349.727859 207.960396 
L 355.485455 207.960396 
L 355.485455 201.673267 
L 356.988685 201.673267 
L 356.988685 195.386139 
L 363.567382 195.386139 
L 363.567382 189.09901 
L 371.173106 189.09901 
L 371.173106 182.811881 
L 379.468462 182.811881 
L 379.468462 176.524752 
L 384.636393 176.524752 
L 384.636393 170.237624 
L 386.358763 170.237624 
L 386.358763 163.950495 
L 389.299318 163.950495 
L 389.299318 157.663366 
L 389.437868 157.663366 
L 389.437868 151.376238 
L 391.522294 151.376238 
L 391.522294 145.089109 
L 394.917649 145.089109 
L 394.917649 138.80198 
L 401.027944 138.80198 
L 401.027944 132.514851 
L 402.909555 132.514851 
L 402.909555 126.227723 
L 404.866818 126.227723 
L 404.866818 119.940594 
L 405.853577 119.940594 
L 405.853577 113.653465 
L 408.000877 113.653465 
L 408.000877 107.366337 
L 408.296137 107.366337 
L 408.296137 101.079208 
L 412.222117 101.079208 
L 412.222117 94.792079 
L 419.831306 94.792079 
L 419.831306 88.50495 
L 422.946823 88.50495 
L 422.946823 82.217822 
L 427.085757 82.217822 
L 427.085757 75.930693 
L 427.948676 75.930693 
L 427.948676 69.643564 
L 429.493553 69.643564 
L 429.493553 63.356436 
L 435.337359 63.356436 
L 435.337359 57.069307 
L 436.370164 57.069307 
L 436.370164 50.782178 
L 438.750808 50.782178 
L 438.750808 44.49505 
L 440.463318 44.49505 
L 440.463318 38.207921 
L 443.085791 38.207921 
L 443.085791 31.920792 
L 449.046397 31.920792 
L 449.046397 25.633663 
L 451.038156 25.633663 
L 451.038156 19.346535 
L 454.866202 19.346535 
L 454.866202 13.059406 
L 459.62263 13.059406 
L 459.62263 6.772277 
L 459.62263 6.772277 
L 459.62263 6.772277 
L 567.24 6.772277 
" style="fill:none;stroke:#00bfbf;stroke-linecap:square;"/>
   </g>
   <g id="line2d_6">
    <path clip-path="url(#p096e93cd0a)" d="M 234.912907 384 
L 234.912907 377.712871 
L 237.43082 377.712871 
L 237.43082 371.425743 
L 247.856738 371.425743 
L 247.856738 365.138614 
L 254.105436 365.138614 
L 254.105436 358.851485 
L 261.564992 358.851485 
L 261.564992 352.564356 
L 261.934002 352.564356 
L 261.934002 346.277228 
L 263.169042 346.277228 
L 263.169042 339.990099 
L 266.259921 339.990099 
L 266.259921 333.70297 
L 267.612995 333.70297 
L 267.612995 327.415842 
L 269.242835 327.415842 
L 269.242835 321.128713 
L 274.790025 321.128713 
L 274.790025 314.841584 
L 275.24663 314.841584 
L 275.24663 308.554455 
L 280.08943 308.554455 
L 280.08943 302.267327 
L 280.591134 302.267327 
L 280.591134 295.980198 
L 281.925989 295.980198 
L 281.925989 289.693069 
L 282.719063 289.693069 
L 282.719063 283.405941 
L 285.732863 283.405941 
L 285.732863 277.118812 
L 287.011217 277.118812 
L 287.011217 270.831683 
L 289.787572 270.831683 
L 289.787572 264.544554 
L 292.423148 264.544554 
L 292.423148 258.257426 
L 294.301342 258.257426 
L 294.301342 251.970297 
L 296.446544 251.970297 
L 296.446544 245.683168 
L 304.666943 245.683168 
L 304.666943 239.39604 
L 305.557728 239.39604 
L 305.557728 233.108911 
L 306.558002 233.108911 
L 306.558002 226.821782 
L 309.991739 226.821782 
L 309.991739 220.534653 
L 310.690771 220.534653 
L 310.690771 214.247525 
L 314.202734 214.247525 
L 314.202734 207.960396 
L 315.003106 207.960396 
L 315.003106 201.673267 
L 318.724258 201.673267 
L 318.724258 195.386139 
L 321.136216 195.386139 
L 321.136216 189.09901 
L 321.712264 189.09901 
L 321.712264 182.811881 
L 322.752467 182.811881 
L 322.752467 176.524752 
L 322.804492 176.524752 
L 322.804492 170.237624 
L 323.520268 170.237624 
L 323.520268 163.950495 
L 327.030184 163.950495 
L 327.030184 157.663366 
L 328.770621 157.663366 
L 328.770621 151.376238 
L 329.276762 151.376238 
L 329.276762 145.089109 
L 329.44866 145.089109 
L 329.44866 138.80198 
L 329.993795 138.80198 
L 329.993795 132.514851 
L 332.289104 132.514851 
L 332.289104 126.227723 
L 333.088461 126.227723 
L 333.088461 119.940594 
L 333.829062 119.940594 
L 333.829062 113.653465 
L 339.205456 113.653465 
L 339.205456 107.366337 
L 339.729264 107.366337 
L 339.729264 101.079208 
L 340.936305 101.079208 
L 340.936305 94.792079 
L 341.178937 94.792079 
L 341.178937 88.50495 
L 343.648051 88.50495 
L 343.648051 82.217822 
L 344.156489 82.217822 
L 344.156489 75.930693 
L 344.604348 75.930693 
L 344.604348 69.643564 
L 344.924295 69.643564 
L 344.924295 63.356436 
L 345.658863 63.356436 
L 345.658863 57.069307 
L 349.37529 57.069307 
L 349.37529 50.782178 
L 349.727859 50.782178 
L 349.727859 44.49505 
L 350.279551 44.49505 
L 350.279551 38.207921 
L 351.881863 38.207921 
L 351.881863 31.920792 
L 355.485455 31.920792 
L 355.485455 25.633663 
L 356.988685 25.633663 
L 356.988685 19.346535 
L 357.273375 19.346535 
L 357.273375 13.059406 
L 363.567382 13.059406 
L 363.567382 6.772277 
L 363.567382 6.772277 
L 363.567382 6.772277 
L 567.24 6.772277 
" style="fill:none;stroke:#bf00bf;stroke-linecap:square;"/>
   </g>
   <g id="patch_3">
    <path d="M 3 3 
L 567.24 3 
" style="fill:none;stroke:#000000;stroke-linecap:square;stroke-linejoin:miter;"/>
   </g>
   <g id="patch_4">
    <path d="M 567.24 384 
L 567.24 3 
" style="fill:none;stroke:#000000;stroke-linecap:square;stroke-linejoin:miter;"/>
   </g>
   <g id="patch_5">
    <path d="M 3 384 
L 567.24 384 
" style="fill:none;stroke:#000000;stroke-linecap:square;stroke-linejoin:miter;"/>
   </g>
   <g id="patch_6">
    <path d="M 3 384 
L 3 3 
" style="fill:none;stroke:#000000;stroke-linecap:square;stroke-linejoin:miter;"/>
   </g>
   <g id="matplotlib.axis_1">
    <g id="xtick_1"/>
    <g id="xtick_2">
     <g id="line2d_7">
      <path clip-path="url(#p096e93cd0a)" d="M 69.254589 384 
L 69.254589 3 
" style="fill:none;stroke:#000000;stroke-dasharray:1.000000,3.000000;stroke-dashoffset:0.0;stroke-width:0.5;"/>
     </g>
     <g id="line2d_8">
      <defs>
       <path d="M 0 0 
L 0 -4 
" id="m2e5abf4f95" style="stroke:#000000;stroke-width:0.5;"/>
      </defs>
      <g>
       <use style="stroke:#000000;stroke-width:0.5;" x="69.2545893472" xlink:href="#m2e5abf4f95" y="384.0"/>
      </g>
     </g>
     <g id="line2d_9">
      <defs>
       <path d="M 0 0 
L 0 4 
" id="m0fec4d73ca" style="stroke:#000000;stroke-width:0.5;"/>
      </defs>
      <g>
       <use style="stroke:#000000;stroke-width:0.5;" x="69.2545893472" xlink:href="#m0fec4d73ca" y="3.0"/>
      </g>
     </g>
     <g id="text_1">
      <!-- -6 -->
      <defs>
       <path d="M 33.015625 40.375 
Q 26.375 40.375 22.484375 35.828125 
Q 18.609375 31.296875 18.609375 23.390625 
Q 18.609375 15.53125 22.484375 10.953125 
Q 26.375 6.390625 33.015625 6.390625 
Q 39.65625 6.390625 43.53125 10.953125 
Q 47.40625 15.53125 47.40625 23.390625 
Q 47.40625 31.296875 43.53125 35.828125 
Q 39.65625 40.375 33.015625 40.375 
M 52.59375 71.296875 
L 52.59375 62.3125 
Q 48.875 64.0625 45.09375 64.984375 
Q 41.3125 65.921875 37.59375 65.921875 
Q 27.828125 65.921875 22.671875 59.328125 
Q 17.53125 52.734375 16.796875 39.40625 
Q 19.671875 43.65625 24.015625 45.921875 
Q 28.375 48.1875 33.59375 48.1875 
Q 44.578125 48.1875 50.953125 41.515625 
Q 57.328125 34.859375 57.328125 23.390625 
Q 57.328125 12.15625 50.6875 5.359375 
Q 44.046875 -1.421875 33.015625 -1.421875 
Q 20.359375 -1.421875 13.671875 8.265625 
Q 6.984375 17.96875 6.984375 36.375 
Q 6.984375 53.65625 15.1875 63.9375 
Q 23.390625 74.21875 37.203125 74.21875 
Q 40.921875 74.21875 44.703125 73.484375 
Q 48.484375 72.75 52.59375 71.296875 
" id="BitstreamVeraSans-Roman-36"/>
       <path d="M 4.890625 31.390625 
L 31.203125 31.390625 
L 31.203125 23.390625 
L 4.890625 23.390625 
z
" id="BitstreamVeraSans-Roman-2d"/>
      </defs>
      <g transform="translate(59.2842768472 403.196875)scale(0.2 -0.2)">
       <use xlink:href="#BitstreamVeraSans-Roman-2d"/>
       <use x="36.083984375" xlink:href="#BitstreamVeraSans-Roman-36"/>
      </g>
     </g>
    </g>
    <g id="xtick_3">
     <g id="line2d_10">
      <path clip-path="url(#p096e93cd0a)" d="M 135.652644 384 
L 135.652644 3 
" style="fill:none;stroke:#000000;stroke-dasharray:1.000000,3.000000;stroke-dashoffset:0.0;stroke-width:0.5;"/>
     </g>
     <g id="line2d_11">
      <g>
       <use style="stroke:#000000;stroke-width:0.5;" x="135.652644101" xlink:href="#m2e5abf4f95" y="384.0"/>
      </g>
     </g>
     <g id="line2d_12">
      <g>
       <use style="stroke:#000000;stroke-width:0.5;" x="135.652644101" xlink:href="#m0fec4d73ca" y="3.0"/>
      </g>
     </g>
     <g id="text_2">
      <!-- -4 -->
      <defs>
       <path d="M 37.796875 64.3125 
L 12.890625 25.390625 
L 37.796875 25.390625 
z
M 35.203125 72.90625 
L 47.609375 72.90625 
L 47.609375 25.390625 
L 58.015625 25.390625 
L 58.015625 17.1875 
L 47.609375 17.1875 
L 47.609375 0 
L 37.796875 0 
L 37.796875 17.1875 
L 4.890625 17.1875 
L 4.890625 26.703125 
z
" id="BitstreamVeraSans-Roman-34"/>
      </defs>
      <g transform="translate(125.682331601 403.196875)scale(0.2 -0.2)">
       <use xlink:href="#BitstreamVeraSans-Roman-2d"/>
       <use x="36.083984375" xlink:href="#BitstreamVeraSans-Roman-34"/>
      </g>
     </g>
    </g>
    <g id="xtick_4">
     <g id="line2d_13">
      <path clip-path="url(#p096e93cd0a)" d="M 202.050699 384 
L 202.050699 3 
" style="fill:none;stroke:#000000;stroke-dasharray:1.000000,3.000000;stroke-dashoffset:0.0;stroke-width:0.5;"/>
     </g>
     <g id="line2d_14">
      <g>
       <use style="stroke:#000000;stroke-width:0.5;" x="202.050698855" xlink:href="#m2e5abf4f95" y="384.0"/>
      </g>
     </g>
     <g id="line2d_15">
      <g>
       <use style="stroke:#000000;stroke-width:0.5;" x="202.050698855" xlink:href="#m0fec4d73ca" y="3.0"/>
      </g>
     </g>
     <g id="text_3">
      <!-- -2 -->
      <defs>
       <path d="M 19.1875 8.296875 
L 53.609375 8.296875 
L 53.609375 0 
L 7.328125 0 
L 7.328125 8.296875 
Q 12.9375 14.109375 22.625 23.890625 
Q 32.328125 33.6875 34.8125 36.53125 
Q 39.546875 41.84375 41.421875 45.53125 
Q 43.3125 49.21875 43.3125 52.78125 
Q 43.3125 58.59375 39.234375 62.25 
Q 35.15625 65.921875 28.609375 65.921875 
Q 23.96875 65.921875 18.8125 64.3125 
Q 13.671875 62.703125 7.8125 59.421875 
L 7.8125 69.390625 
Q 13.765625 71.78125 18.9375 73 
Q 24.125 74.21875 28.421875 74.21875 
Q 39.75 74.21875 46.484375 68.546875 
Q 53.21875 62.890625 53.21875 53.421875 
Q 53.21875 48.921875 51.53125 44.890625 
Q 49.859375 40.875 45.40625 35.40625 
Q 44.1875 33.984375 37.640625 27.21875 
Q 31.109375 20.453125 19.1875 8.296875 
" id="BitstreamVeraSans-Roman-32"/>
      </defs>
      <g transform="translate(192.080386355 403.196875)scale(0.2 -0.2)">
       <use xlink:href="#BitstreamVeraSans-Roman-2d"/>
       <use x="36.083984375" xlink:href="#BitstreamVeraSans-Roman-32"/>
      </g>
     </g>
    </g>
    <g id="xtick_5">
     <g id="line2d_16">
      <path clip-path="url(#p096e93cd0a)" d="M 268.448754 384 
L 268.448754 3 
" style="fill:none;stroke:#000000;stroke-dasharray:1.000000,3.000000;stroke-dashoffset:0.0;stroke-width:0.5;"/>
     </g>
     <g id="line2d_17">
      <g>
       <use style="stroke:#000000;stroke-width:0.5;" x="268.448753608" xlink:href="#m2e5abf4f95" y="384.0"/>
      </g>
     </g>
     <g id="line2d_18">
      <g>
       <use style="stroke:#000000;stroke-width:0.5;" x="268.448753608" xlink:href="#m0fec4d73ca" y="3.0"/>
      </g>
     </g>
     <g id="text_4">
      <!-- 0 -->
      <defs>
       <path d="M 31.78125 66.40625 
Q 24.171875 66.40625 20.328125 58.90625 
Q 16.5 51.421875 16.5 36.375 
Q 16.5 21.390625 20.328125 13.890625 
Q 24.171875 6.390625 31.78125 6.390625 
Q 39.453125 6.390625 43.28125 13.890625 
Q 47.125 21.390625 47.125 36.375 
Q 47.125 51.421875 43.28125 58.90625 
Q 39.453125 66.40625 31.78125 66.40625 
M 31.78125 74.21875 
Q 44.046875 74.21875 50.515625 64.515625 
Q 56.984375 54.828125 56.984375 36.375 
Q 56.984375 17.96875 50.515625 8.265625 
Q 44.046875 -1.421875 31.78125 -1.421875 
Q 19.53125 -1.421875 13.0625 8.265625 
Q 6.59375 17.96875 6.59375 36.375 
Q 6.59375 54.828125 13.0625 64.515625 
Q 19.53125 74.21875 31.78125 74.21875 
" id="BitstreamVeraSans-Roman-30"/>
      </defs>
      <g transform="translate(262.086253608 403.196875)scale(0.2 -0.2)">
       <use xlink:href="#BitstreamVeraSans-Roman-30"/>
      </g>
     </g>
    </g>
    <g id="xtick_6">
     <g id="line2d_19">
      <path clip-path="url(#p096e93cd0a)" d="M 334.846808 384 
L 334.846808 3 
" style="fill:none;stroke:#000000;stroke-dasharray:1.000000,3.000000;stroke-dashoffset:0.0;stroke-width:0.5;"/>
     </g>
     <g id="line2d_20">
      <g>
       <use style="stroke:#000000;stroke-width:0.5;" x="334.846808362" xlink:href="#m2e5abf4f95" y="384.0"/>
      </g>
     </g>
     <g id="line2d_21">
      <g>
       <use style="stroke:#000000;stroke-width:0.5;" x="334.846808362" xlink:href="#m0fec4d73ca" y="3.0"/>
      </g>
     </g>
     <g id="text_5">
      <!-- 2 -->
      <g transform="translate(328.484308362 403.196875)scale(0.2 -0.2)">
       <use xlink:href="#BitstreamVeraSans-Roman-32"/>
      </g>
     </g>
    </g>
    <g id="xtick_7">
     <g id="line2d_22">
      <path clip-path="url(#p096e93cd0a)" d="M 401.244863 384 
L 401.244863 3 
" style="fill:none;stroke:#000000;stroke-dasharray:1.000000,3.000000;stroke-dashoffset:0.0;stroke-width:0.5;"/>
     </g>
     <g id="line2d_23">
      <g>
       <use style="stroke:#000000;stroke-width:0.5;" x="401.244863116" xlink:href="#m2e5abf4f95" y="384.0"/>
      </g>
     </g>
     <g id="line2d_24">
      <g>
       <use style="stroke:#000000;stroke-width:0.5;" x="401.244863116" xlink:href="#m0fec4d73ca" y="3.0"/>
      </g>
     </g>
     <g id="text_6">
      <!-- 4 -->
      <g transform="translate(394.882363116 403.196875)scale(0.2 -0.2)">
       <use xlink:href="#BitstreamVeraSans-Roman-34"/>
      </g>
     </g>
    </g>
    <g id="xtick_8">
     <g id="line2d_25">
      <path clip-path="url(#p096e93cd0a)" d="M 467.642918 384 
L 467.642918 3 
" style="fill:none;stroke:#000000;stroke-dasharray:1.000000,3.000000;stroke-dashoffset:0.0;stroke-width:0.5;"/>
     </g>
     <g id="line2d_26">
      <g>
       <use style="stroke:#000000;stroke-width:0.5;" x="467.642917869" xlink:href="#m2e5abf4f95" y="384.0"/>
      </g>
     </g>
     <g id="line2d_27">
      <g>
       <use style="stroke:#000000;stroke-width:0.5;" x="467.642917869" xlink:href="#m0fec4d73ca" y="3.0"/>
      </g>
     </g>
     <g id="text_7">
      <!-- 6 -->
      <g transform="translate(461.280417869 403.196875)scale(0.2 -0.2)">
       <use xlink:href="#BitstreamVeraSans-Roman-36"/>
      </g>
     </g>
    </g>
    <g id="xtick_9">
     <g id="line2d_28">
      <path clip-path="url(#p096e93cd0a)" d="M 534.040973 384 
L 534.040973 3 
" style="fill:none;stroke:#000000;stroke-dasharray:1.000000,3.000000;stroke-dashoffset:0.0;stroke-width:0.5;"/>
     </g>
     <g id="line2d_29">
      <g>
       <use style="stroke:#000000;stroke-width:0.5;" x="534.040972623" xlink:href="#m2e5abf4f95" y="384.0"/>
      </g>
     </g>
     <g id="line2d_30">
      <g>
       <use style="stroke:#000000;stroke-width:0.5;" x="534.040972623" xlink:href="#m0fec4d73ca" y="3.0"/>
      </g>
     </g>
     <g id="text_8">
      <!-- 8 -->
      <defs>
       <path d="M 31.78125 34.625 
Q 24.75 34.625 20.71875 30.859375 
Q 16.703125 27.09375 16.703125 20.515625 
Q 16.703125 13.921875 20.71875 10.15625 
Q 24.75 6.390625 31.78125 6.390625 
Q 38.8125 6.390625 42.859375 10.171875 
Q 46.921875 13.96875 46.921875 20.515625 
Q 46.921875 27.09375 42.890625 30.859375 
Q 38.875 34.625 31.78125 34.625 
M 21.921875 38.8125 
Q 15.578125 40.375 12.03125 44.71875 
Q 8.5 49.078125 8.5 55.328125 
Q 8.5 64.0625 14.71875 69.140625 
Q 20.953125 74.21875 31.78125 74.21875 
Q 42.671875 74.21875 48.875 69.140625 
Q 55.078125 64.0625 55.078125 55.328125 
Q 55.078125 49.078125 51.53125 44.71875 
Q 48 40.375 41.703125 38.8125 
Q 48.828125 37.15625 52.796875 32.3125 
Q 56.78125 27.484375 56.78125 20.515625 
Q 56.78125 9.90625 50.3125 4.234375 
Q 43.84375 -1.421875 31.78125 -1.421875 
Q 19.734375 -1.421875 13.25 4.234375 
Q 6.78125 9.90625 6.78125 20.515625 
Q 6.78125 27.484375 10.78125 32.3125 
Q 14.796875 37.15625 21.921875 38.8125 
M 18.3125 54.390625 
Q 18.3125 48.734375 21.84375 45.5625 
Q 25.390625 42.390625 31.78125 42.390625 
Q 38.140625 42.390625 41.71875 45.5625 
Q 45.3125 48.734375 45.3125 54.390625 
Q 45.3125 60.0625 41.71875 63.234375 
Q 38.140625 66.40625 31.78125 66.40625 
Q 25.390625 66.40625 21.84375 63.234375 
Q 18.3125 60.0625 18.3125 54.390625 
" id="BitstreamVeraSans-Roman-38"/>
      </defs>
      <g transform="translate(527.678472623 403.196875)scale(0.2 -0.2)">
       <use xlink:href="#BitstreamVeraSans-Roman-38"/>
      </g>
     </g>
    </g>
    <g id="xtick_10"/>
    <g id="xtick_11">
     <g id="line2d_31">
      <defs>
       <path d="M 0 0 
L 0 -2 
" id="mfcb265af1e" style="stroke:#000000;stroke-width:0.5;"/>
      </defs>
      <g>
       <use style="stroke:#000000;stroke-width:0.5;" x="69.2545893472" xlink:href="#mfcb265af1e" y="384.0"/>
      </g>
     </g>
     <g id="line2d_32">
      <defs>
       <path d="M 0 0 
L 0 2 
" id="m74857014c4" style="stroke:#000000;stroke-width:0.5;"/>
      </defs>
      <g>
       <use style="stroke:#000000;stroke-width:0.5;" x="69.2545893472" xlink:href="#m74857014c4" y="3.0"/>
      </g>
     </g>
    </g>
    <g id="xtick_12">
     <g id="line2d_33">
      <g>
       <use style="stroke:#000000;stroke-width:0.5;" x="135.652644101" xlink:href="#mfcb265af1e" y="384.0"/>
      </g>
     </g>
     <g id="line2d_34">
      <g>
       <use style="stroke:#000000;stroke-width:0.5;" x="135.652644101" xlink:href="#m74857014c4" y="3.0"/>
      </g>
     </g>
    </g>
    <g id="xtick_13">
     <g id="line2d_35">
      <g>
       <use style="stroke:#000000;stroke-width:0.5;" x="202.050698855" xlink:href="#mfcb265af1e" y="384.0"/>
      </g>
     </g>
     <g id="line2d_36">
      <g>
       <use style="stroke:#000000;stroke-width:0.5;" x="202.050698855" xlink:href="#m74857014c4" y="3.0"/>
      </g>
     </g>
    </g>
    <g id="xtick_14">
     <g id="line2d_37">
      <g>
       <use style="stroke:#000000;stroke-width:0.5;" x="268.448753608" xlink:href="#mfcb265af1e" y="384.0"/>
      </g>
     </g>
     <g id="line2d_38">
      <g>
       <use style="stroke:#000000;stroke-width:0.5;" x="268.448753608" xlink:href="#m74857014c4" y="3.0"/>
      </g>
     </g>
    </g>
    <g id="xtick_15">
     <g id="line2d_39">
      <g>
       <use style="stroke:#000000;stroke-width:0.5;" x="334.846808362" xlink:href="#mfcb265af1e" y="384.0"/>
      </g>
     </g>
     <g id="line2d_40">
      <g>
       <use style="stroke:#000000;stroke-width:0.5;" x="334.846808362" xlink:href="#m74857014c4" y="3.0"/>
      </g>
     </g>
    </g>
    <g id="xtick_16">
     <g id="line2d_41">
      <g>
       <use style="stroke:#000000;stroke-width:0.5;" x="401.244863116" xlink:href="#mfcb265af1e" y="384.0"/>
      </g>
     </g>
     <g id="line2d_42">
      <g>
       <use style="stroke:#000000;stroke-width:0.5;" x="401.244863116" xlink:href="#m74857014c4" y="3.0"/>
      </g>
     </g>
    </g>
    <g id="xtick_17">
     <g id="line2d_43">
      <g>
       <use style="stroke:#000000;stroke-width:0.5;" x="467.642917869" xlink:href="#mfcb265af1e" y="384.0"/>
      </g>
     </g>
     <g id="line2d_44">
      <g>
       <use style="stroke:#000000;stroke-width:0.5;" x="467.642917869" xlink:href="#m74857014c4" y="3.0"/>
      </g>
     </g>
    </g>
    <g id="xtick_18">
     <g id="line2d_45">
      <g>
       <use style="stroke:#000000;stroke-width:0.5;" x="534.040972623" xlink:href="#mfcb265af1e" y="384.0"/>
      </g>
     </g>
     <g id="line2d_46">
      <g>
       <use style="stroke:#000000;stroke-width:0.5;" x="534.040972623" xlink:href="#m74857014c4" y="3.0"/>
      </g>
     </g>
    </g>
    <g id="text_9">
     <!-- log10 of Df -->
     <defs>
      <path id="BitstreamVeraSans-Roman-20"/>
      <path d="M 12.40625 8.296875 
L 28.515625 8.296875 
L 28.515625 63.921875 
L 10.984375 60.40625 
L 10.984375 69.390625 
L 28.421875 72.90625 
L 38.28125 72.90625 
L 38.28125 8.296875 
L 54.390625 8.296875 
L 54.390625 0 
L 12.40625 0 
z
" id="BitstreamVeraSans-Roman-31"/>
      <path d="M 30.609375 48.390625 
Q 23.390625 48.390625 19.1875 42.75 
Q 14.984375 37.109375 14.984375 27.296875 
Q 14.984375 17.484375 19.15625 11.84375 
Q 23.34375 6.203125 30.609375 6.203125 
Q 37.796875 6.203125 41.984375 11.859375 
Q 46.1875 17.53125 46.1875 27.296875 
Q 46.1875 37.015625 41.984375 42.703125 
Q 37.796875 48.390625 30.609375 48.390625 
M 30.609375 56 
Q 42.328125 56 49.015625 48.375 
Q 55.71875 40.765625 55.71875 27.296875 
Q 55.71875 13.875 49.015625 6.21875 
Q 42.328125 -1.421875 30.609375 -1.421875 
Q 18.84375 -1.421875 12.171875 6.21875 
Q 5.515625 13.875 5.515625 27.296875 
Q 5.515625 40.765625 12.171875 48.375 
Q 18.84375 56 30.609375 56 
" id="BitstreamVeraSans-Roman-6f"/>
      <path d="M 9.421875 75.984375 
L 18.40625 75.984375 
L 18.40625 0 
L 9.421875 0 
z
" id="BitstreamVeraSans-Roman-6c"/>
      <path d="M 19.671875 64.796875 
L 19.671875 8.109375 
L 31.59375 8.109375 
Q 46.6875 8.109375 53.6875 14.9375 
Q 60.6875 21.78125 60.6875 36.53125 
Q 60.6875 51.171875 53.6875 57.984375 
Q 46.6875 64.796875 31.59375 64.796875 
z
M 9.8125 72.90625 
L 30.078125 72.90625 
Q 51.265625 72.90625 61.171875 64.09375 
Q 71.09375 55.28125 71.09375 36.53125 
Q 71.09375 17.671875 61.125 8.828125 
Q 51.171875 0 30.078125 0 
L 9.8125 0 
z
" id="BitstreamVeraSans-Roman-44"/>
      <path d="M 45.40625 27.984375 
Q 45.40625 37.75 41.375 43.109375 
Q 37.359375 48.484375 30.078125 48.484375 
Q 22.859375 48.484375 18.828125 43.109375 
Q 14.796875 37.75 14.796875 27.984375 
Q 14.796875 18.265625 18.828125 12.890625 
Q 22.859375 7.515625 30.078125 7.515625 
Q 37.359375 7.515625 41.375 12.890625 
Q 45.40625 18.265625 45.40625 27.984375 
M 54.390625 6.78125 
Q 54.390625 -7.171875 48.1875 -13.984375 
Q 42 -20.796875 29.203125 -20.796875 
Q 24.46875 -20.796875 20.265625 -20.09375 
Q 16.0625 -19.390625 12.109375 -17.921875 
L 12.109375 -9.1875 
Q 16.0625 -11.328125 19.921875 -12.34375 
Q 23.78125 -13.375 27.78125 -13.375 
Q 36.625 -13.375 41.015625 -8.765625 
Q 45.40625 -4.15625 45.40625 5.171875 
L 45.40625 9.625 
Q 42.625 4.78125 38.28125 2.390625 
Q 33.9375 0 27.875 0 
Q 17.828125 0 11.671875 7.65625 
Q 5.515625 15.328125 5.515625 27.984375 
Q 5.515625 40.671875 11.671875 48.328125 
Q 17.828125 56 27.875 56 
Q 33.9375 56 38.28125 53.609375 
Q 42.625 51.21875 45.40625 46.390625 
L 45.40625 54.6875 
L 54.390625 54.6875 
z
" id="BitstreamVeraSans-Roman-67"/>
      <path d="M 37.109375 75.984375 
L 37.109375 68.5 
L 28.515625 68.5 
Q 23.6875 68.5 21.796875 66.546875 
Q 19.921875 64.59375 19.921875 59.515625 
L 19.921875 54.6875 
L 34.71875 54.6875 
L 34.71875 47.703125 
L 19.921875 47.703125 
L 19.921875 0 
L 10.890625 0 
L 10.890625 47.703125 
L 2.296875 47.703125 
L 2.296875 54.6875 
L 10.890625 54.6875 
L 10.890625 58.5 
Q 10.890625 67.625 15.140625 71.796875 
Q 19.390625 75.984375 28.609375 75.984375 
z
" id="BitstreamVeraSans-Roman-66"/>
     </defs>
     <g transform="translate(229.9340625 427.553125)scale(0.2 -0.2)">
      <use xlink:href="#BitstreamVeraSans-Roman-6c"/>
      <use x="27.783203125" xlink:href="#BitstreamVeraSans-Roman-6f"/>
      <use x="88.96484375" xlink:href="#BitstreamVeraSans-Roman-67"/>
      <use x="152.44140625" xlink:href="#BitstreamVeraSans-Roman-31"/>
      <use x="216.064453125" xlink:href="#BitstreamVeraSans-Roman-30"/>
      <use x="279.6875" xlink:href="#BitstreamVeraSans-Roman-20"/>
      <use x="311.474609375" xlink:href="#BitstreamVeraSans-Roman-6f"/>
      <use x="372.65625" xlink:href="#BitstreamVeraSans-Roman-66"/>
      <use x="407.861328125" xlink:href="#BitstreamVeraSans-Roman-20"/>
      <use x="439.6484375" xlink:href="#BitstreamVeraSans-Roman-44"/>
      <use x="516.650390625" xlink:href="#BitstreamVeraSans-Roman-66"/>
     </g>
    </g>
   </g>
   <g id="matplotlib.axis_2">
    <g id="ytick_1">
     <g id="line2d_47">
      <path clip-path="url(#p096e93cd0a)" d="M 3 384 
L 567.24 384 
" style="fill:none;stroke:#000000;stroke-dasharray:1.000000,3.000000;stroke-dashoffset:0.0;stroke-width:0.5;"/>
     </g>
     <g id="line2d_48">
      <defs>
       <path d="M 0 0 
L 4 0 
" id="m3249c0068e" style="stroke:#000000;stroke-width:0.5;"/>
      </defs>
      <g>
       <use style="stroke:#000000;stroke-width:0.5;" x="3.0" xlink:href="#m3249c0068e" y="384.0"/>
      </g>
     </g>
     <g id="line2d_49">
      <defs>
       <path d="M 0 0 
L -4 0 
" id="mde3fc3438c" style="stroke:#000000;stroke-width:0.5;"/>
      </defs>
      <g>
       <use style="stroke:#000000;stroke-width:0.5;" x="567.24" xlink:href="#mde3fc3438c" y="384.0"/>
      </g>
     </g>
    </g>
    <g id="ytick_2">
     <g id="line2d_50">
      <path clip-path="url(#p096e93cd0a)" d="M 3 308.554455 
L 567.24 308.554455 
" style="fill:none;stroke:#000000;stroke-dasharray:1.000000,3.000000;stroke-dashoffset:0.0;stroke-width:0.5;"/>
     </g>
     <g id="line2d_51">
      <g>
       <use style="stroke:#000000;stroke-width:0.5;" x="3.0" xlink:href="#m3249c0068e" y="308.554455446"/>
      </g>
     </g>
     <g id="line2d_52">
      <g>
       <use style="stroke:#000000;stroke-width:0.5;" x="567.24" xlink:href="#mde3fc3438c" y="308.554455446"/>
      </g>
     </g>
    </g>
    <g id="ytick_3">
     <g id="line2d_53">
      <path clip-path="url(#p096e93cd0a)" d="M 3 233.108911 
L 567.24 233.108911 
" style="fill:none;stroke:#000000;stroke-dasharray:1.000000,3.000000;stroke-dashoffset:0.0;stroke-width:0.5;"/>
     </g>
     <g id="line2d_54">
      <g>
       <use style="stroke:#000000;stroke-width:0.5;" x="3.0" xlink:href="#m3249c0068e" y="233.108910891"/>
      </g>
     </g>
     <g id="line2d_55">
      <g>
       <use style="stroke:#000000;stroke-width:0.5;" x="567.24" xlink:href="#mde3fc3438c" y="233.108910891"/>
      </g>
     </g>
    </g>
    <g id="ytick_4">
     <g id="line2d_56">
      <path clip-path="url(#p096e93cd0a)" d="M 3 157.663366 
L 567.24 157.663366 
" style="fill:none;stroke:#000000;stroke-dasharray:1.000000,3.000000;stroke-dashoffset:0.0;stroke-width:0.5;"/>
     </g>
     <g id="line2d_57">
      <g>
       <use style="stroke:#000000;stroke-width:0.5;" x="3.0" xlink:href="#m3249c0068e" y="157.663366337"/>
      </g>
     </g>
     <g id="line2d_58">
      <g>
       <use style="stroke:#000000;stroke-width:0.5;" x="567.24" xlink:href="#mde3fc3438c" y="157.663366337"/>
      </g>
     </g>
    </g>
    <g id="ytick_5">
     <g id="line2d_59">
      <path clip-path="url(#p096e93cd0a)" d="M 3 82.217822 
L 567.24 82.217822 
" style="fill:none;stroke:#000000;stroke-dasharray:1.000000,3.000000;stroke-dashoffset:0.0;stroke-width:0.5;"/>
     </g>
     <g id="line2d_60">
      <g>
       <use style="stroke:#000000;stroke-width:0.5;" x="3.0" xlink:href="#m3249c0068e" y="82.2178217822"/>
      </g>
     </g>
     <g id="line2d_61">
      <g>
       <use style="stroke:#000000;stroke-width:0.5;" x="567.24" xlink:href="#mde3fc3438c" y="82.2178217822"/>
      </g>
     </g>
    </g>
    <g id="ytick_6">
     <g id="line2d_62">
      <path clip-path="url(#p096e93cd0a)" d="M 3 6.772277 
L 567.24 6.772277 
" style="fill:none;stroke:#000000;stroke-dasharray:1.000000,3.000000;stroke-dashoffset:0.0;stroke-width:0.5;"/>
     </g>
     <g id="line2d_63">
      <g>
       <use style="stroke:#000000;stroke-width:0.5;" x="3.0" xlink:href="#m3249c0068e" y="6.77227722772"/>
      </g>
     </g>
     <g id="line2d_64">
      <g>
       <use style="stroke:#000000;stroke-width:0.5;" x="567.24" xlink:href="#mde3fc3438c" y="6.77227722772"/>
      </g>
     </g>
    </g>
   </g>
   <g id="text_10">
    <!-- {f6-f9}, 5-D -->
    <defs>
     <path d="M 12.5 -9.28125 
L 15.921875 -9.28125 
Q 22.75 -9.28125 24.828125 -7.171875 
Q 26.90625 -5.078125 26.90625 1.90625 
L 26.90625 14.015625 
Q 26.90625 21.625 29.09375 25.09375 
Q 31.296875 28.5625 36.71875 29.890625 
Q 31.296875 31.109375 29.09375 34.5625 
Q 26.90625 38.03125 26.90625 45.703125 
L 26.90625 57.8125 
Q 26.90625 64.75 24.828125 66.875 
Q 22.75 69 15.921875 69 
L 12.5 69 
L 12.5 75.984375 
L 15.578125 75.984375 
Q 27.734375 75.984375 31.8125 72.390625 
Q 35.890625 68.796875 35.890625 58.015625 
L 35.890625 46.296875 
Q 35.890625 39.015625 38.515625 36.203125 
Q 41.15625 33.40625 48.09375 33.40625 
L 51.125 33.40625 
L 51.125 26.421875 
L 48.09375 26.421875 
Q 41.15625 26.421875 38.515625 23.578125 
Q 35.890625 20.75 35.890625 13.375 
L 35.890625 1.703125 
Q 35.890625 -9.078125 31.8125 -12.6875 
Q 27.734375 -16.3125 15.578125 -16.3125 
L 12.5 -16.3125 
z
" id="BitstreamVeraSans-Roman-7d"/>
     <path d="M 10.984375 1.515625 
L 10.984375 10.5 
Q 14.703125 8.734375 18.5 7.8125 
Q 22.3125 6.890625 25.984375 6.890625 
Q 35.75 6.890625 40.890625 13.453125 
Q 46.046875 20.015625 46.78125 33.40625 
Q 43.953125 29.203125 39.59375 26.953125 
Q 35.25 24.703125 29.984375 24.703125 
Q 19.046875 24.703125 12.671875 31.3125 
Q 6.296875 37.9375 6.296875 49.421875 
Q 6.296875 60.640625 12.9375 67.421875 
Q 19.578125 74.21875 30.609375 74.21875 
Q 43.265625 74.21875 49.921875 64.515625 
Q 56.59375 54.828125 56.59375 36.375 
Q 56.59375 19.140625 48.40625 8.859375 
Q 40.234375 -1.421875 26.421875 -1.421875 
Q 22.703125 -1.421875 18.890625 -0.6875 
Q 15.09375 0.046875 10.984375 1.515625 
M 30.609375 32.421875 
Q 37.25 32.421875 41.125 36.953125 
Q 45.015625 41.5 45.015625 49.421875 
Q 45.015625 57.28125 41.125 61.84375 
Q 37.25 66.40625 30.609375 66.40625 
Q 23.96875 66.40625 20.09375 61.84375 
Q 16.21875 57.28125 16.21875 49.421875 
Q 16.21875 41.5 20.09375 36.953125 
Q 23.96875 32.421875 30.609375 32.421875 
" id="BitstreamVeraSans-Roman-39"/>
     <path d="M 51.125 -9.28125 
L 51.125 -16.3125 
L 48.09375 -16.3125 
Q 35.9375 -16.3125 31.8125 -12.6875 
Q 27.6875 -9.078125 27.6875 1.703125 
L 27.6875 13.375 
Q 27.6875 20.75 25.046875 23.578125 
Q 22.40625 26.421875 15.484375 26.421875 
L 12.5 26.421875 
L 12.5 33.40625 
L 15.484375 33.40625 
Q 22.46875 33.40625 25.078125 36.203125 
Q 27.6875 39.015625 27.6875 46.296875 
L 27.6875 58.015625 
Q 27.6875 68.796875 31.8125 72.390625 
Q 35.9375 75.984375 48.09375 75.984375 
L 51.125 75.984375 
L 51.125 69 
L 47.796875 69 
Q 40.921875 69 38.8125 66.84375 
Q 36.71875 64.703125 36.71875 57.8125 
L 36.71875 45.703125 
Q 36.71875 38.03125 34.5 34.5625 
Q 32.28125 31.109375 26.90625 29.890625 
Q 32.328125 28.5625 34.515625 25.09375 
Q 36.71875 21.625 36.71875 14.015625 
L 36.71875 1.90625 
Q 36.71875 -4.984375 38.8125 -7.125 
Q 40.921875 -9.28125 47.796875 -9.28125 
z
" id="BitstreamVeraSans-Roman-7b"/>
     <path d="M 11.71875 12.40625 
L 22.015625 12.40625 
L 22.015625 4 
L 14.015625 -11.625 
L 7.71875 -11.625 
L 11.71875 4 
z
" id="BitstreamVeraSans-Roman-2c"/>
     <path d="M 10.796875 72.90625 
L 49.515625 72.90625 
L 49.515625 64.59375 
L 19.828125 64.59375 
L 19.828125 46.734375 
Q 21.96875 47.46875 24.109375 47.828125 
Q 26.265625 48.1875 28.421875 48.1875 
Q 40.625 48.1875 47.75 41.5 
Q 54.890625 34.8125 54.890625 23.390625 
Q 54.890625 11.625 47.5625 5.09375 
Q 40.234375 -1.421875 26.90625 -1.421875 
Q 22.3125 -1.421875 17.546875 -0.640625 
Q 12.796875 0.140625 7.71875 1.703125 
L 7.71875 11.625 
Q 12.109375 9.234375 16.796875 8.0625 
Q 21.484375 6.890625 26.703125 6.890625 
Q 35.15625 6.890625 40.078125 11.328125 
Q 45.015625 15.765625 45.015625 23.390625 
Q 45.015625 31 40.078125 35.4375 
Q 35.15625 39.890625 26.703125 39.890625 
Q 22.75 39.890625 18.8125 39.015625 
Q 14.890625 38.140625 10.796875 36.28125 
z
" id="BitstreamVeraSans-Roman-35"/>
    </defs>
    <g transform="translate(435.7052 376.38)scale(0.2 -0.2)">
     <use xlink:href="#BitstreamVeraSans-Roman-7b"/>
     <use x="63.623046875" xlink:href="#BitstreamVeraSans-Roman-66"/>
     <use x="98.828125" xlink:href="#BitstreamVeraSans-Roman-36"/>
     <use x="162.451171875" xlink:href="#BitstreamVeraSans-Roman-2d"/>
     <use x="198.53515625" xlink:href="#BitstreamVeraSans-Roman-66"/>
     <use x="233.740234375" xlink:href="#BitstreamVeraSans-Roman-39"/>
     <use x="297.36328125" xlink:href="#BitstreamVeraSans-Roman-7d"/>
     <use x="360.986328125" xlink:href="#BitstreamVeraSans-Roman-2c"/>
     <use x="392.7734375" xlink:href="#BitstreamVeraSans-Roman-20"/>
     <use x="424.560546875" xlink:href="#BitstreamVeraSans-Roman-35"/>
     <use x="488.18359375" xlink:href="#BitstreamVeraSans-Roman-2d"/>
     <use x="524.267578125" xlink:href="#BitstreamVeraSans-Roman-44"/>
    </g>
   </g>
   <g id="text_11">
    <!-- v2.2.1.10 -->
    <defs>
     <path d="M 2.984375 54.6875 
L 12.5 54.6875 
L 29.59375 8.796875 
L 46.6875 54.6875 
L 56.203125 54.6875 
L 35.6875 0 
L 23.484375 0 
z
" id="BitstreamVeraSans-Roman-76"/>
     <path d="M 10.6875 12.40625 
L 21 12.40625 
L 21 0 
L 10.6875 0 
z
" id="BitstreamVeraSans-Roman-2e"/>
    </defs>
    <g style="fill:#808080;" transform="translate(261.4871875 378.1103125)scale(0.1 -0.1)">
     <use xlink:href="#BitstreamVeraSans-Roman-76"/>
     <use x="59.1796875" xlink:href="#BitstreamVeraSans-Roman-32"/>
     <use x="122.802734375" xlink:href="#BitstreamVeraSans-Roman-2e"/>
     <use x="154.58984375" xlink:href="#BitstreamVeraSans-Roman-32"/>
     <use x="218.212890625" xlink:href="#BitstreamVeraSans-Roman-2e"/>
     <use x="250.0" xlink:href="#BitstreamVeraSans-Roman-31"/>
     <use x="313.623046875" xlink:href="#BitstreamVeraSans-Roman-2e"/>
     <use x="345.41015625" xlink:href="#BitstreamVeraSans-Roman-31"/>
     <use x="409.033203125" xlink:href="#BitstreamVeraSans-Roman-30"/>
    </g>
   </g>
  </g>
 </g>
 <defs>
  <clipPath id="p096e93cd0a">
   <rect height="381.0" width="564.24" x="3.0" y="3.0"/>
  </clipPath>
 </defs>
</svg>
