<?xml version="1.0" encoding="utf-8" standalone="no"?>
<!DOCTYPE svg PUBLIC "-//W3C//DTD SVG 1.1//EN"
  "http://www.w3.org/Graphics/SVG/1.1/DTD/svg11.dtd">
<!-- Created with matplotlib (http://matplotlib.org/) -->
<svg height="432pt" version="1.1" viewBox="0 0 576 432" width="576pt" xmlns="http://www.w3.org/2000/svg" xmlns:xlink="http://www.w3.org/1999/xlink">
 <defs>
  <style type="text/css">
*{stroke-linecap:butt;stroke-linejoin:round;stroke-miterlimit:100000;}
  </style>
 </defs>
 <g id="figure_1">
  <g id="patch_1">
   <path d="M 0 432 
L 576 432 
L 576 0 
L 0 0 
z
" style="fill:#ffffff;"/>
  </g>
  <g id="axes_1">
   <g id="patch_2">
    <path d="M 3 384 
L 567.24 384 
L 567.24 3 
L 3 3 
z
" style="fill:#ffffff;"/>
   </g>
   <g id="line2d_1">
    <path clip-path="url(#p7b624ad4fa)" d="M -1 378.970297 
L 2.856535 378.970297 
L 2.856535 333.70297 
L 10.907655 333.70297 
L 10.907655 328.673267 
L 39.802806 328.673267 
L 39.802806 323.643564 
L 119.25373 323.643564 
L 119.25373 318.613861 
L 141.780139 318.613861 
L 141.780139 313.584158 
L 157.613788 313.584158 
L 157.613788 308.554455 
L 202.722979 308.554455 
L 202.722979 303.524752 
L 255.19492 303.524752 
L 255.19492 298.49505 
L 258.811522 298.49505 
L 258.811522 293.465347 
L 261.975174 293.465347 
L 261.975174 288.435644 
L 269.703184 288.435644 
L 269.703184 283.405941 
L 270.443275 283.405941 
L 270.443275 278.376238 
L 276.525841 278.376238 
L 276.525841 273.346535 
L 283.005987 273.346535 
L 283.005987 268.316832 
L 288.167875 268.316832 
L 288.167875 263.287129 
L 297.090673 263.287129 
L 297.090673 258.257426 
L 300.500176 258.257426 
L 300.500176 253.227723 
L 303.249886 253.227723 
L 303.249886 248.19802 
L 305.677587 248.19802 
L 305.677587 243.168317 
L 306.562219 243.168317 
L 306.562219 238.138614 
L 308.071364 238.138614 
L 308.071364 233.108911 
L 312.60598 233.108911 
L 312.60598 228.079208 
L 317.522443 228.079208 
L 317.522443 223.049505 
L 322.936803 223.049505 
L 322.936805 212.990099 
L 326.669079 212.990099 
L 326.669079 207.960396 
L 328.220254 207.960396 
L 328.220254 202.930693 
L 329.423723 202.930693 
L 329.450916 192.871287 
L 331.37893 192.871287 
L 331.455166 182.811881 
L 331.912445 182.811881 
L 331.912445 177.782178 
L 332.276903 177.782178 
L 332.276903 172.752475 
L 332.765847 172.752475 
L 332.765847 167.722772 
L 334.166674 167.722772 
L 334.166674 162.693069 
L 335.059192 162.693069 
L 335.059192 152.633663 
L 339.485357 152.633663 
L 339.485357 147.60396 
L 339.727378 147.60396 
L 339.727378 142.574257 
L 340.333439 142.574257 
L 340.336162 132.514851 
L 341.093883 132.514851 
L 341.093883 127.485149 
L 341.729344 127.485149 
L 341.729344 122.455446 
L 342.234489 122.455446 
L 342.253474 112.39604 
L 342.841801 112.39604 
L 342.841801 107.366337 
L 343.469245 107.366337 
L 343.469245 102.336634 
L 344.532033 102.336634 
L 344.532033 97.306931 
L 344.910794 97.306931 
L 344.910794 92.277228 
L 345.332838 92.277228 
L 345.336076 82.217822 
L 349.048049 82.217822 
L 349.048049 77.188119 
L 352.116456 77.188119 
L 352.116456 72.158416 
L 353.68606 72.158416 
L 353.68606 67.128713 
L 353.805776 67.128713 
L 353.805776 62.09901 
L 353.95397 62.09901 
L 353.95397 57.069307 
L 354.203181 57.069307 
L 354.203181 52.039604 
L 355.269669 52.039604 
L 355.339038 41.980198 
L 356.147954 41.980198 
L 356.147954 36.950495 
L 356.616039 36.950495 
L 356.616039 31.920792 
L 360.523004 31.920792 
L 360.523004 26.891089 
L 363.57884 26.891089 
L 363.57884 21.861386 
L 382.012999 21.861386 
L 382.012999 16.831683 
L 382.726091 16.831683 
L 382.726091 11.80198 
L 400.849278 11.80198 
L 400.849278 6.772277 
L 400.849278 6.772277 
L 567.24 6.772277 
L 567.24 6.772277 
" style="fill:none;stroke:#ff0000;stroke-linecap:square;stroke-width:3.0;"/>
   </g>
   <g id="line2d_2">
    <path clip-path="url(#p7b624ad4fa)" d="M 305.233887 384 
L 305.233887 378.970297 
L 305.822531 378.970297 
L 305.822531 373.940594 
L 308.946612 373.940594 
L 308.946612 368.910891 
L 311.374092 368.910891 
L 311.374092 363.881188 
L 312.946557 363.881188 
L 312.946557 358.851485 
L 315.197123 358.851485 
L 315.197123 353.821782 
L 316.021865 353.821782 
L 316.021865 348.792079 
L 317.955833 348.792079 
L 317.955833 343.762376 
L 319.387315 343.762376 
L 319.387315 338.732673 
L 320.131355 338.732673 
L 320.131355 333.70297 
L 320.962993 333.70297 
L 320.962993 328.673267 
L 322.023453 328.673267 
L 322.023453 323.643564 
L 323.271454 323.643564 
L 323.271454 318.613861 
L 325.963107 318.613861 
L 325.963107 313.584158 
L 326.355901 313.584158 
L 326.355901 308.554455 
L 333.891316 308.554455 
L 333.982489 293.465347 
L 334.137406 293.465347 
L 334.137406 288.435644 
L 335.932341 288.435644 
L 335.932374 212.990099 
L 337.25485 212.990099 
L 337.25485 207.960396 
L 337.64084 207.960396 
L 337.64084 202.930693 
L 338.154478 202.930693 
L 338.182071 187.841584 
L 338.302852 187.841584 
L 338.361094 177.782178 
L 338.903447 177.782178 
L 338.903447 172.752475 
L 342.705491 172.752475 
L 342.705491 167.722772 
L 343.85066 167.722772 
L 343.85066 162.693069 
L 344.242458 162.693069 
L 344.242458 157.663366 
L 344.620925 157.663366 
L 344.620925 152.633663 
L 344.959843 152.633663 
L 344.959843 147.60396 
L 345.900376 147.60396 
L 345.900376 142.574257 
L 346.023725 142.574257 
L 346.023725 137.544554 
L 347.34351 137.544554 
L 347.34351 132.514851 
L 347.808355 132.514851 
L 347.808355 127.485149 
L 348.071304 127.485149 
L 348.071304 122.455446 
L 348.404096 122.455446 
L 348.404096 117.425743 
L 348.51674 117.425743 
L 348.565687 107.366337 
L 349.168258 107.366337 
L 349.168258 102.336634 
L 355.687326 102.336634 
L 355.733385 92.277228 
L 355.883644 92.277228 
L 355.883644 87.247525 
L 356.583204 87.247525 
L 356.583204 82.217822 
L 405.886907 82.217822 
L 405.886907 77.188119 
L 435.555114 77.188119 
L 435.555114 72.158416 
L 452.879978 72.158416 
L 452.879978 67.128713 
L 477.57082 67.128713 
L 477.57082 62.09901 
L 479.433277 62.09901 
L 479.433277 57.069307 
L 484.13995 57.069307 
L 484.13995 52.039604 
L 486.407506 52.039604 
L 486.407506 47.009901 
L 491.088722 47.009901 
L 491.088722 41.980198 
L 493.511837 41.980198 
L 493.511837 36.950495 
L 498.18482 36.950495 
L 498.18482 31.920792 
L 498.76614 31.920792 
L 498.76614 26.891089 
L 499.692948 26.891089 
L 499.692948 21.861386 
L 502.812005 21.861386 
L 502.812005 16.831683 
L 503.823879 16.831683 
L 503.823879 11.80198 
L 504.675591 11.80198 
L 504.675591 6.772277 
L 504.675591 6.772277 
L 567.24 6.772277 
L 567.24 6.772277 
" style="fill:none;stroke:#00bfbf;stroke-linecap:square;"/>
   </g>
   <g id="line2d_3">
    <path clip-path="url(#p7b624ad4fa)" d="M 305.232946 384 
L 305.232946 378.970297 
L 305.821379 378.970297 
L 305.821379 373.940594 
L 308.946612 373.940594 
L 308.946612 368.910891 
L 311.373264 368.910891 
L 311.373264 363.881188 
L 312.946306 363.881188 
L 312.946306 358.851485 
L 315.197123 358.851485 
L 315.197123 353.821782 
L 316.020858 353.821782 
L 316.020858 348.792079 
L 317.955833 348.792079 
L 317.955833 343.762376 
L 319.38662 343.762376 
L 319.38662 338.732673 
L 320.130734 338.732673 
L 320.130734 333.70297 
L 320.962954 333.70297 
L 320.962954 328.673267 
L 322.023441 328.673267 
L 322.023441 323.643564 
L 323.270853 323.643564 
L 323.270853 318.613861 
L 325.962585 318.613861 
L 325.962585 313.584158 
L 326.3554 313.584158 
L 326.3554 308.554455 
L 333.883462 308.554455 
L 333.978649 293.465347 
L 334.132517 293.465347 
L 334.132517 288.435644 
L 335.93204 288.435644 
L 335.932341 212.990099 
L 337.252295 212.990099 
L 337.252295 207.960396 
L 337.637966 207.960396 
L 337.637966 202.930693 
L 338.154368 202.930693 
L 338.179303 187.841584 
L 338.298907 187.841584 
L 338.354059 177.782178 
L 338.8963 177.782178 
L 338.8963 172.752475 
L 342.705012 172.752475 
L 342.705012 167.722772 
L 343.848602 167.722772 
L 343.848602 162.693069 
L 344.242416 162.693069 
L 344.242416 157.663366 
L 344.620608 157.663366 
L 344.620608 152.633663 
L 344.959433 152.633663 
L 344.959433 147.60396 
L 345.900086 147.60396 
L 345.900086 142.574257 
L 346.023725 142.574257 
L 346.023725 137.544554 
L 347.342257 137.544554 
L 347.342257 132.514851 
L 347.805572 132.514851 
L 347.805572 127.485149 
L 348.071304 127.485149 
L 348.071304 122.455446 
L 348.400238 122.455446 
L 348.400238 117.425743 
L 348.514514 117.425743 
L 348.56509 107.366337 
L 349.166131 107.366337 
L 349.166131 102.336634 
L 355.687326 102.336634 
L 355.731731 92.277228 
L 355.882113 92.277228 
L 355.882113 87.247525 
L 356.58159 87.247525 
L 356.58159 82.217822 
L 405.885995 82.217822 
L 405.885995 77.188119 
L 435.555107 77.188119 
L 435.555107 72.158416 
L 452.873081 72.158416 
L 452.873081 67.128713 
L 477.570807 67.128713 
L 477.570807 62.09901 
L 479.432951 62.09901 
L 479.432951 57.069307 
L 484.136435 57.069307 
L 484.136435 52.039604 
L 486.404833 52.039604 
L 486.404833 47.009901 
L 491.086413 47.009901 
L 491.086413 41.980198 
L 493.509118 41.980198 
L 493.509118 36.950495 
L 498.18482 36.950495 
L 498.18482 31.920792 
L 498.766131 31.920792 
L 498.766131 26.891089 
L 499.692946 26.891089 
L 499.692946 21.861386 
L 502.812004 21.861386 
L 502.812004 16.831683 
L 503.823879 16.831683 
L 503.823879 11.80198 
L 504.673429 11.80198 
L 504.673429 6.772277 
L 504.673429 6.772277 
L 567.24 6.772277 
L 567.24 6.772277 
" style="fill:none;stroke:#bf00bf;stroke-linecap:square;"/>
   </g>
   <g id="line2d_4">
    <path clip-path="url(#p7b624ad4fa)" d="M 305.225186 384 
L 305.225186 378.970297 
L 305.810899 378.970297 
L 305.810899 373.940594 
L 308.940495 373.940594 
L 308.940495 368.910891 
L 311.366669 368.910891 
L 311.366669 363.881188 
L 312.939719 363.881188 
L 312.939719 358.851485 
L 315.192828 358.851485 
L 315.192828 353.821782 
L 316.01639 353.821782 
L 316.01639 348.792079 
L 317.951162 348.792079 
L 317.951162 343.762376 
L 319.380049 343.762376 
L 319.380049 338.732673 
L 320.126595 338.732673 
L 320.126595 333.70297 
L 320.959912 333.70297 
L 320.959912 328.673267 
L 322.021072 328.673267 
L 322.021072 323.643564 
L 323.266892 323.643564 
L 323.266892 318.613861 
L 325.959192 318.613861 
L 325.959192 313.584158 
L 326.351785 313.584158 
L 326.351785 308.554455 
L 333.859465 308.554455 
L 333.95306 293.465347 
L 334.105297 293.465347 
L 334.105297 288.435644 
L 335.930031 288.435644 
L 335.930907 212.990099 
L 337.233899 212.990099 
L 337.233899 207.960396 
L 337.60727 207.960396 
L 337.60727 202.930693 
L 338.142189 202.930693 
L 338.148769 187.841584 
L 338.284869 187.841584 
L 338.334205 177.782178 
L 338.877007 177.782178 
L 338.877007 172.752475 
L 342.693388 172.752475 
L 342.693388 167.722772 
L 343.834229 167.722772 
L 343.834229 162.693069 
L 344.227511 162.693069 
L 344.227511 157.663366 
L 344.609994 157.663366 
L 344.609994 152.633663 
L 344.950024 152.633663 
L 344.950024 147.60396 
L 345.885356 147.60396 
L 345.885356 142.574257 
L 346.015312 142.574257 
L 346.015312 137.544554 
L 347.331138 137.544554 
L 347.331138 132.514851 
L 347.7826 132.514851 
L 347.7826 127.485149 
L 348.035309 127.485149 
L 348.035309 122.455446 
L 348.387733 122.455446 
L 348.387733 117.425743 
L 348.500009 117.425743 
L 348.536869 107.366337 
L 349.150695 107.366337 
L 349.150695 102.336634 
L 355.683977 102.336634 
L 355.722712 92.277228 
L 355.870878 92.277228 
L 355.870878 87.247525 
L 356.575242 87.247525 
L 356.575242 82.217822 
L 405.813732 82.217822 
L 405.813732 77.188119 
L 435.533851 77.188119 
L 435.533851 72.158416 
L 452.860611 72.158416 
L 452.860611 67.128713 
L 477.560351 67.128713 
L 477.560351 62.09901 
L 479.428781 62.09901 
L 479.428781 57.069307 
L 484.129873 57.069307 
L 484.129873 52.039604 
L 486.400022 52.039604 
L 486.400022 47.009901 
L 491.082201 47.009901 
L 491.082201 41.980198 
L 493.504304 41.980198 
L 493.504304 36.950495 
L 498.176872 36.950495 
L 498.176872 31.920792 
L 498.757293 31.920792 
L 498.757293 26.891089 
L 499.683314 26.891089 
L 499.683314 21.861386 
L 502.799653 21.861386 
L 502.799653 16.831683 
L 503.811513 16.831683 
L 503.811513 11.80198 
L 504.669582 11.80198 
L 504.669582 6.772277 
L 504.669582 6.772277 
L 567.24 6.772277 
L 567.24 6.772277 
" style="fill:none;stroke:#000000;stroke-linecap:square;"/>
   </g>
   <g id="line2d_5">
    <path clip-path="url(#p7b624ad4fa)" d="M 304.067213 384 
L 304.067213 378.970297 
L 304.791707 378.970297 
L 304.791707 373.940594 
L 308.059118 373.940594 
L 308.059118 368.910891 
L 310.371113 368.910891 
L 310.371113 363.881188 
L 312.012904 363.881188 
L 312.012904 358.851485 
L 314.570813 358.851485 
L 314.570813 353.821782 
L 315.357709 353.821782 
L 315.357709 348.792079 
L 317.27815 348.792079 
L 317.27815 343.762376 
L 318.757067 343.762376 
L 318.757067 338.732673 
L 319.508926 338.732673 
L 319.508926 333.70297 
L 320.549336 333.70297 
L 320.549336 328.673267 
L 321.701388 328.673267 
L 321.701388 323.643564 
L 322.709692 323.643564 
L 322.709692 318.613861 
L 325.572813 318.613861 
L 325.572813 313.584158 
L 325.940455 313.584158 
L 325.940455 308.554455 
L 330.846953 308.554455 
L 330.846953 303.524752 
L 331.020591 303.524752 
L 331.020591 298.49505 
L 331.65857 298.49505 
L 331.65857 293.465347 
L 332.793998 293.465347 
L 332.793998 288.435644 
L 334.875707 288.435644 
L 334.875707 283.405941 
L 335.441691 283.405941 
L 335.441691 278.376238 
L 335.67481 278.376238 
L 335.774842 197.90099 
L 336.087056 197.90099 
L 336.087056 187.841584 
L 336.602847 187.841584 
L 336.602847 182.811881 
L 337.536472 182.811881 
L 337.536472 177.782178 
L 338.041299 177.782178 
L 338.041299 172.752475 
L 341.63673 172.752475 
L 341.63673 167.722772 
L 342.134538 167.722772 
L 342.134538 162.693069 
L 343.545044 162.693069 
L 343.545044 157.663366 
L 343.862976 157.663366 
L 343.862976 152.633663 
L 344.391428 152.633663 
L 344.391428 147.60396 
L 344.574052 147.60396 
L 344.574052 142.574257 
L 345.590677 142.574257 
L 345.667639 132.514851 
L 346.031846 132.514851 
L 346.031846 127.485149 
L 346.583976 127.485149 
L 346.583976 122.455446 
L 347.181521 122.455446 
L 347.181521 117.425743 
L 347.630782 117.425743 
L 347.728867 107.366337 
L 348.578937 107.366337 
L 348.578937 102.336634 
L 355.471002 102.336634 
L 355.537762 92.277228 
L 355.759452 92.277228 
L 355.759452 87.247525 
L 356.351018 87.247525 
L 356.351018 82.217822 
L 401.066493 82.217822 
L 401.066493 77.188119 
L 433.10221 77.188119 
L 433.10221 72.158416 
L 449.996676 72.158416 
L 449.996676 67.128713 
L 475.609101 67.128713 
L 475.609101 62.09901 
L 478.451979 62.09901 
L 478.451979 57.069307 
L 482.784615 57.069307 
L 482.784615 52.039604 
L 485.50139 52.039604 
L 485.50139 47.009901 
L 490.284566 47.009901 
L 490.284566 41.980198 
L 492.591811 41.980198 
L 492.591811 36.950495 
L 497.438277 36.950495 
L 497.438277 31.920792 
L 497.962716 31.920792 
L 497.962716 26.891089 
L 498.825359 26.891089 
L 498.825359 21.861386 
L 501.647832 21.861386 
L 501.647832 16.831683 
L 502.643512 16.831683 
L 502.643512 11.80198 
L 503.924817 11.80198 
L 503.924817 6.772277 
L 503.924817 6.772277 
L 567.24 6.772277 
L 567.24 6.772277 
" style="fill:none;stroke:#00bfbf;stroke-linecap:square;"/>
   </g>
   <g id="line2d_6">
    <path clip-path="url(#p7b624ad4fa)" d="M 2.856535 384 
L 2.856535 378.970297 
L 2.856535 378.970297 
L 2.856535 378.970297 
L 2.856535 373.940594 
L 2.856535 373.940594 
L 2.856535 373.940594 
L 2.856535 368.910891 
L 2.856535 368.910891 
L 2.856535 368.910891 
L 2.856535 363.881188 
L 2.856535 363.881188 
L 2.856535 363.881188 
L 2.856535 358.851485 
L 2.856535 358.851485 
L 2.856535 358.851485 
L 2.856535 353.821782 
L 2.856535 353.821782 
L 2.856535 353.821782 
L 2.856535 348.792079 
L 2.856535 348.792079 
L 2.856535 348.792079 
L 2.856535 343.762376 
L 2.856535 343.762376 
L 2.856535 343.762376 
L 2.856535 338.732673 
L 215.039217 338.732673 
L 215.039217 333.70297 
L 259.080719 333.70297 
L 259.080719 328.673267 
L 262.642571 328.673267 
L 262.642571 323.643564 
L 270.732759 323.643564 
L 270.732759 318.613861 
L 271.904204 318.613861 
L 271.904204 313.584158 
L 272.750783 313.584158 
L 272.750783 308.554455 
L 273.267561 308.554455 
L 273.267561 303.524752 
L 276.382295 303.524752 
L 276.382295 298.49505 
L 279.78448 298.49505 
L 279.78448 293.465347 
L 282.50531 293.465347 
L 282.50531 288.435644 
L 283.345875 288.435644 
L 283.345875 283.405941 
L 286.864912 283.405941 
L 286.864912 278.376238 
L 288.954371 278.376238 
L 288.954371 273.346535 
L 300.500176 273.346535 
L 300.500176 268.316832 
L 302.12417 268.316832 
L 302.12417 263.287129 
L 303.286869 263.287129 
L 303.286869 258.257426 
L 304.979703 258.257426 
L 304.979703 253.227723 
L 305.677587 253.227723 
L 305.677587 248.19802 
L 310.871739 248.19802 
L 310.871739 243.168317 
L 312.60598 243.168317 
L 312.712382 233.108911 
L 317.52618 233.108911 
L 317.52618 228.079208 
L 323.493274 228.079208 
L 323.493274 223.049505 
L 323.624168 223.049505 
L 323.624168 218.019802 
L 327.959507 218.019802 
L 327.959507 212.990099 
L 328.220254 212.990099 
L 328.220254 207.960396 
L 329.42373 207.960396 
L 329.450916 197.90099 
L 331.39531 197.90099 
L 331.455208 187.841584 
L 331.912452 187.841584 
L 331.912452 182.811881 
L 334.788233 182.811881 
L 334.788233 177.782178 
L 335.095599 177.782178 
L 335.095599 172.752475 
L 335.462976 172.752475 
L 335.462976 167.722772 
L 339.48542 167.722772 
L 339.48542 162.693069 
L 340.091276 162.693069 
L 340.091276 157.663366 
L 340.333439 157.663366 
L 340.336162 147.60396 
L 341.266148 147.60396 
L 341.266148 142.574257 
L 341.73034 142.574257 
L 341.73034 137.544554 
L 342.234489 137.544554 
L 342.234489 132.514851 
L 342.707569 132.514851 
L 342.707569 127.485149 
L 343.113325 127.485149 
L 343.113325 122.455446 
L 343.560262 122.455446 
L 343.577821 112.39604 
L 344.532056 112.39604 
L 344.532056 107.366337 
L 344.920767 107.366337 
L 344.920767 102.336634 
L 345.332859 102.336634 
L 345.336076 92.277228 
L 349.093628 92.277228 
L 349.093628 87.247525 
L 352.462607 87.247525 
L 352.462607 82.217822 
L 353.805783 82.217822 
L 353.805783 77.188119 
L 353.95397 77.188119 
L 353.95397 72.158416 
L 355.269669 72.158416 
L 355.269669 67.128713 
L 356.147954 67.128713 
L 356.147954 62.09901 
L 356.616039 62.09901 
L 356.616039 57.069307 
L 360.523004 57.069307 
L 360.523004 52.039604 
L 362.906948 52.039604 
L 362.906948 47.009901 
L 382.72705 47.009901 
L 382.72705 41.980198 
L 395.021079 41.980198 
L 395.021079 36.950495 
L 396.107398 36.950495 
L 396.107398 31.920792 
L 400.849278 31.920792 
L 400.849278 26.891089 
L 409.395373 26.891089 
L 409.395373 21.861386 
L 409.587184 21.861386 
L 409.587184 16.831683 
L 410.914098 16.831683 
L 410.914098 11.80198 
L 423.417076 11.80198 
L 423.417076 6.772277 
L 423.417076 6.772277 
L 567.24 6.772277 
L 567.24 6.772277 
" style="fill:none;stroke:#bf00bf;stroke-linecap:square;"/>
   </g>
   <g id="patch_3">
    <path d="M 3 3 
L 567.24 3 
" style="fill:none;stroke:#000000;stroke-linecap:square;stroke-linejoin:miter;"/>
   </g>
   <g id="patch_4">
    <path d="M 567.24 384 
L 567.24 3 
" style="fill:none;stroke:#000000;stroke-linecap:square;stroke-linejoin:miter;"/>
   </g>
   <g id="patch_5">
    <path d="M 3 384 
L 567.24 384 
" style="fill:none;stroke:#000000;stroke-linecap:square;stroke-linejoin:miter;"/>
   </g>
   <g id="patch_6">
    <path d="M 3 384 
L 3 3 
" style="fill:none;stroke:#000000;stroke-linecap:square;stroke-linejoin:miter;"/>
   </g>
   <g id="matplotlib.axis_1">
    <g id="xtick_1"/>
    <g id="xtick_2">
     <g id="line2d_7">
      <path clip-path="url(#p7b624ad4fa)" d="M 69.254589 384 
L 69.254589 3 
" style="fill:none;stroke:#000000;stroke-dasharray:1.000000,3.000000;stroke-dashoffset:0.0;stroke-width:0.5;"/>
     </g>
     <g id="line2d_8">
      <defs>
       <path d="M 0 0 
L 0 -4 
" id="mebc2388102" style="stroke:#000000;stroke-width:0.5;"/>
      </defs>
      <g>
       <use style="stroke:#000000;stroke-width:0.5;" x="69.2545893472" xlink:href="#mebc2388102" y="384.0"/>
      </g>
     </g>
     <g id="line2d_9">
      <defs>
       <path d="M 0 0 
L 0 4 
" id="m20763cb974" style="stroke:#000000;stroke-width:0.5;"/>
      </defs>
      <g>
       <use style="stroke:#000000;stroke-width:0.5;" x="69.2545893472" xlink:href="#m20763cb974" y="3.0"/>
      </g>
     </g>
     <g id="text_1">
      <!-- -6 -->
      <defs>
       <path d="M 33.015625 40.375 
Q 26.375 40.375 22.484375 35.828125 
Q 18.609375 31.296875 18.609375 23.390625 
Q 18.609375 15.53125 22.484375 10.953125 
Q 26.375 6.390625 33.015625 6.390625 
Q 39.65625 6.390625 43.53125 10.953125 
Q 47.40625 15.53125 47.40625 23.390625 
Q 47.40625 31.296875 43.53125 35.828125 
Q 39.65625 40.375 33.015625 40.375 
M 52.59375 71.296875 
L 52.59375 62.3125 
Q 48.875 64.0625 45.09375 64.984375 
Q 41.3125 65.921875 37.59375 65.921875 
Q 27.828125 65.921875 22.671875 59.328125 
Q 17.53125 52.734375 16.796875 39.40625 
Q 19.671875 43.65625 24.015625 45.921875 
Q 28.375 48.1875 33.59375 48.1875 
Q 44.578125 48.1875 50.953125 41.515625 
Q 57.328125 34.859375 57.328125 23.390625 
Q 57.328125 12.15625 50.6875 5.359375 
Q 44.046875 -1.421875 33.015625 -1.421875 
Q 20.359375 -1.421875 13.671875 8.265625 
Q 6.984375 17.96875 6.984375 36.375 
Q 6.984375 53.65625 15.1875 63.9375 
Q 23.390625 74.21875 37.203125 74.21875 
Q 40.921875 74.21875 44.703125 73.484375 
Q 48.484375 72.75 52.59375 71.296875 
" id="BitstreamVeraSans-Roman-36"/>
       <path d="M 4.890625 31.390625 
L 31.203125 31.390625 
L 31.203125 23.390625 
L 4.890625 23.390625 
z
" id="BitstreamVeraSans-Roman-2d"/>
      </defs>
      <g transform="translate(59.2842768472 403.196875)scale(0.2 -0.2)">
       <use xlink:href="#BitstreamVeraSans-Roman-2d"/>
       <use x="36.083984375" xlink:href="#BitstreamVeraSans-Roman-36"/>
      </g>
     </g>
    </g>
    <g id="xtick_3">
     <g id="line2d_10">
      <path clip-path="url(#p7b624ad4fa)" d="M 135.652644 384 
L 135.652644 3 
" style="fill:none;stroke:#000000;stroke-dasharray:1.000000,3.000000;stroke-dashoffset:0.0;stroke-width:0.5;"/>
     </g>
     <g id="line2d_11">
      <g>
       <use style="stroke:#000000;stroke-width:0.5;" x="135.652644101" xlink:href="#mebc2388102" y="384.0"/>
      </g>
     </g>
     <g id="line2d_12">
      <g>
       <use style="stroke:#000000;stroke-width:0.5;" x="135.652644101" xlink:href="#m20763cb974" y="3.0"/>
      </g>
     </g>
     <g id="text_2">
      <!-- -4 -->
      <defs>
       <path d="M 37.796875 64.3125 
L 12.890625 25.390625 
L 37.796875 25.390625 
z
M 35.203125 72.90625 
L 47.609375 72.90625 
L 47.609375 25.390625 
L 58.015625 25.390625 
L 58.015625 17.1875 
L 47.609375 17.1875 
L 47.609375 0 
L 37.796875 0 
L 37.796875 17.1875 
L 4.890625 17.1875 
L 4.890625 26.703125 
z
" id="BitstreamVeraSans-Roman-34"/>
      </defs>
      <g transform="translate(125.682331601 403.196875)scale(0.2 -0.2)">
       <use xlink:href="#BitstreamVeraSans-Roman-2d"/>
       <use x="36.083984375" xlink:href="#BitstreamVeraSans-Roman-34"/>
      </g>
     </g>
    </g>
    <g id="xtick_4">
     <g id="line2d_13">
      <path clip-path="url(#p7b624ad4fa)" d="M 202.050699 384 
L 202.050699 3 
" style="fill:none;stroke:#000000;stroke-dasharray:1.000000,3.000000;stroke-dashoffset:0.0;stroke-width:0.5;"/>
     </g>
     <g id="line2d_14">
      <g>
       <use style="stroke:#000000;stroke-width:0.5;" x="202.050698855" xlink:href="#mebc2388102" y="384.0"/>
      </g>
     </g>
     <g id="line2d_15">
      <g>
       <use style="stroke:#000000;stroke-width:0.5;" x="202.050698855" xlink:href="#m20763cb974" y="3.0"/>
      </g>
     </g>
     <g id="text_3">
      <!-- -2 -->
      <defs>
       <path d="M 19.1875 8.296875 
L 53.609375 8.296875 
L 53.609375 0 
L 7.328125 0 
L 7.328125 8.296875 
Q 12.9375 14.109375 22.625 23.890625 
Q 32.328125 33.6875 34.8125 36.53125 
Q 39.546875 41.84375 41.421875 45.53125 
Q 43.3125 49.21875 43.3125 52.78125 
Q 43.3125 58.59375 39.234375 62.25 
Q 35.15625 65.921875 28.609375 65.921875 
Q 23.96875 65.921875 18.8125 64.3125 
Q 13.671875 62.703125 7.8125 59.421875 
L 7.8125 69.390625 
Q 13.765625 71.78125 18.9375 73 
Q 24.125 74.21875 28.421875 74.21875 
Q 39.75 74.21875 46.484375 68.546875 
Q 53.21875 62.890625 53.21875 53.421875 
Q 53.21875 48.921875 51.53125 44.890625 
Q 49.859375 40.875 45.40625 35.40625 
Q 44.1875 33.984375 37.640625 27.21875 
Q 31.109375 20.453125 19.1875 8.296875 
" id="BitstreamVeraSans-Roman-32"/>
      </defs>
      <g transform="translate(192.080386355 403.196875)scale(0.2 -0.2)">
       <use xlink:href="#BitstreamVeraSans-Roman-2d"/>
       <use x="36.083984375" xlink:href="#BitstreamVeraSans-Roman-32"/>
      </g>
     </g>
    </g>
    <g id="xtick_5">
     <g id="line2d_16">
      <path clip-path="url(#p7b624ad4fa)" d="M 268.448754 384 
L 268.448754 3 
" style="fill:none;stroke:#000000;stroke-dasharray:1.000000,3.000000;stroke-dashoffset:0.0;stroke-width:0.5;"/>
     </g>
     <g id="line2d_17">
      <g>
       <use style="stroke:#000000;stroke-width:0.5;" x="268.448753608" xlink:href="#mebc2388102" y="384.0"/>
      </g>
     </g>
     <g id="line2d_18">
      <g>
       <use style="stroke:#000000;stroke-width:0.5;" x="268.448753608" xlink:href="#m20763cb974" y="3.0"/>
      </g>
     </g>
     <g id="text_4">
      <!-- 0 -->
      <defs>
       <path d="M 31.78125 66.40625 
Q 24.171875 66.40625 20.328125 58.90625 
Q 16.5 51.421875 16.5 36.375 
Q 16.5 21.390625 20.328125 13.890625 
Q 24.171875 6.390625 31.78125 6.390625 
Q 39.453125 6.390625 43.28125 13.890625 
Q 47.125 21.390625 47.125 36.375 
Q 47.125 51.421875 43.28125 58.90625 
Q 39.453125 66.40625 31.78125 66.40625 
M 31.78125 74.21875 
Q 44.046875 74.21875 50.515625 64.515625 
Q 56.984375 54.828125 56.984375 36.375 
Q 56.984375 17.96875 50.515625 8.265625 
Q 44.046875 -1.421875 31.78125 -1.421875 
Q 19.53125 -1.421875 13.0625 8.265625 
Q 6.59375 17.96875 6.59375 36.375 
Q 6.59375 54.828125 13.0625 64.515625 
Q 19.53125 74.21875 31.78125 74.21875 
" id="BitstreamVeraSans-Roman-30"/>
      </defs>
      <g transform="translate(262.086253608 403.196875)scale(0.2 -0.2)">
       <use xlink:href="#BitstreamVeraSans-Roman-30"/>
      </g>
     </g>
    </g>
    <g id="xtick_6">
     <g id="line2d_19">
      <path clip-path="url(#p7b624ad4fa)" d="M 334.846808 384 
L 334.846808 3 
" style="fill:none;stroke:#000000;stroke-dasharray:1.000000,3.000000;stroke-dashoffset:0.0;stroke-width:0.5;"/>
     </g>
     <g id="line2d_20">
      <g>
       <use style="stroke:#000000;stroke-width:0.5;" x="334.846808362" xlink:href="#mebc2388102" y="384.0"/>
      </g>
     </g>
     <g id="line2d_21">
      <g>
       <use style="stroke:#000000;stroke-width:0.5;" x="334.846808362" xlink:href="#m20763cb974" y="3.0"/>
      </g>
     </g>
     <g id="text_5">
      <!-- 2 -->
      <g transform="translate(328.484308362 403.196875)scale(0.2 -0.2)">
       <use xlink:href="#BitstreamVeraSans-Roman-32"/>
      </g>
     </g>
    </g>
    <g id="xtick_7">
     <g id="line2d_22">
      <path clip-path="url(#p7b624ad4fa)" d="M 401.244863 384 
L 401.244863 3 
" style="fill:none;stroke:#000000;stroke-dasharray:1.000000,3.000000;stroke-dashoffset:0.0;stroke-width:0.5;"/>
     </g>
     <g id="line2d_23">
      <g>
       <use style="stroke:#000000;stroke-width:0.5;" x="401.244863116" xlink:href="#mebc2388102" y="384.0"/>
      </g>
     </g>
     <g id="line2d_24">
      <g>
       <use style="stroke:#000000;stroke-width:0.5;" x="401.244863116" xlink:href="#m20763cb974" y="3.0"/>
      </g>
     </g>
     <g id="text_6">
      <!-- 4 -->
      <g transform="translate(394.882363116 403.196875)scale(0.2 -0.2)">
       <use xlink:href="#BitstreamVeraSans-Roman-34"/>
      </g>
     </g>
    </g>
    <g id="xtick_8">
     <g id="line2d_25">
      <path clip-path="url(#p7b624ad4fa)" d="M 467.642918 384 
L 467.642918 3 
" style="fill:none;stroke:#000000;stroke-dasharray:1.000000,3.000000;stroke-dashoffset:0.0;stroke-width:0.5;"/>
     </g>
     <g id="line2d_26">
      <g>
       <use style="stroke:#000000;stroke-width:0.5;" x="467.642917869" xlink:href="#mebc2388102" y="384.0"/>
      </g>
     </g>
     <g id="line2d_27">
      <g>
       <use style="stroke:#000000;stroke-width:0.5;" x="467.642917869" xlink:href="#m20763cb974" y="3.0"/>
      </g>
     </g>
     <g id="text_7">
      <!-- 6 -->
      <g transform="translate(461.280417869 403.196875)scale(0.2 -0.2)">
       <use xlink:href="#BitstreamVeraSans-Roman-36"/>
      </g>
     </g>
    </g>
    <g id="xtick_9">
     <g id="line2d_28">
      <path clip-path="url(#p7b624ad4fa)" d="M 534.040973 384 
L 534.040973 3 
" style="fill:none;stroke:#000000;stroke-dasharray:1.000000,3.000000;stroke-dashoffset:0.0;stroke-width:0.5;"/>
     </g>
     <g id="line2d_29">
      <g>
       <use style="stroke:#000000;stroke-width:0.5;" x="534.040972623" xlink:href="#mebc2388102" y="384.0"/>
      </g>
     </g>
     <g id="line2d_30">
      <g>
       <use style="stroke:#000000;stroke-width:0.5;" x="534.040972623" xlink:href="#m20763cb974" y="3.0"/>
      </g>
     </g>
     <g id="text_8">
      <!-- 8 -->
      <defs>
       <path d="M 31.78125 34.625 
Q 24.75 34.625 20.71875 30.859375 
Q 16.703125 27.09375 16.703125 20.515625 
Q 16.703125 13.921875 20.71875 10.15625 
Q 24.75 6.390625 31.78125 6.390625 
Q 38.8125 6.390625 42.859375 10.171875 
Q 46.921875 13.96875 46.921875 20.515625 
Q 46.921875 27.09375 42.890625 30.859375 
Q 38.875 34.625 31.78125 34.625 
M 21.921875 38.8125 
Q 15.578125 40.375 12.03125 44.71875 
Q 8.5 49.078125 8.5 55.328125 
Q 8.5 64.0625 14.71875 69.140625 
Q 20.953125 74.21875 31.78125 74.21875 
Q 42.671875 74.21875 48.875 69.140625 
Q 55.078125 64.0625 55.078125 55.328125 
Q 55.078125 49.078125 51.53125 44.71875 
Q 48 40.375 41.703125 38.8125 
Q 48.828125 37.15625 52.796875 32.3125 
Q 56.78125 27.484375 56.78125 20.515625 
Q 56.78125 9.90625 50.3125 4.234375 
Q 43.84375 -1.421875 31.78125 -1.421875 
Q 19.734375 -1.421875 13.25 4.234375 
Q 6.78125 9.90625 6.78125 20.515625 
Q 6.78125 27.484375 10.78125 32.3125 
Q 14.796875 37.15625 21.921875 38.8125 
M 18.3125 54.390625 
Q 18.3125 48.734375 21.84375 45.5625 
Q 25.390625 42.390625 31.78125 42.390625 
Q 38.140625 42.390625 41.71875 45.5625 
Q 45.3125 48.734375 45.3125 54.390625 
Q 45.3125 60.0625 41.71875 63.234375 
Q 38.140625 66.40625 31.78125 66.40625 
Q 25.390625 66.40625 21.84375 63.234375 
Q 18.3125 60.0625 18.3125 54.390625 
" id="BitstreamVeraSans-Roman-38"/>
      </defs>
      <g transform="translate(527.678472623 403.196875)scale(0.2 -0.2)">
       <use xlink:href="#BitstreamVeraSans-Roman-38"/>
      </g>
     </g>
    </g>
    <g id="xtick_10"/>
    <g id="xtick_11">
     <g id="line2d_31">
      <defs>
       <path d="M 0 0 
L 0 -2 
" id="m8d9f23caed" style="stroke:#000000;stroke-width:0.5;"/>
      </defs>
      <g>
       <use style="stroke:#000000;stroke-width:0.5;" x="69.2545893472" xlink:href="#m8d9f23caed" y="384.0"/>
      </g>
     </g>
     <g id="line2d_32">
      <defs>
       <path d="M 0 0 
L 0 2 
" id="md7d70645f9" style="stroke:#000000;stroke-width:0.5;"/>
      </defs>
      <g>
       <use style="stroke:#000000;stroke-width:0.5;" x="69.2545893472" xlink:href="#md7d70645f9" y="3.0"/>
      </g>
     </g>
    </g>
    <g id="xtick_12">
     <g id="line2d_33">
      <g>
       <use style="stroke:#000000;stroke-width:0.5;" x="135.652644101" xlink:href="#m8d9f23caed" y="384.0"/>
      </g>
     </g>
     <g id="line2d_34">
      <g>
       <use style="stroke:#000000;stroke-width:0.5;" x="135.652644101" xlink:href="#md7d70645f9" y="3.0"/>
      </g>
     </g>
    </g>
    <g id="xtick_13">
     <g id="line2d_35">
      <g>
       <use style="stroke:#000000;stroke-width:0.5;" x="202.050698855" xlink:href="#m8d9f23caed" y="384.0"/>
      </g>
     </g>
     <g id="line2d_36">
      <g>
       <use style="stroke:#000000;stroke-width:0.5;" x="202.050698855" xlink:href="#md7d70645f9" y="3.0"/>
      </g>
     </g>
    </g>
    <g id="xtick_14">
     <g id="line2d_37">
      <g>
       <use style="stroke:#000000;stroke-width:0.5;" x="268.448753608" xlink:href="#m8d9f23caed" y="384.0"/>
      </g>
     </g>
     <g id="line2d_38">
      <g>
       <use style="stroke:#000000;stroke-width:0.5;" x="268.448753608" xlink:href="#md7d70645f9" y="3.0"/>
      </g>
     </g>
    </g>
    <g id="xtick_15">
     <g id="line2d_39">
      <g>
       <use style="stroke:#000000;stroke-width:0.5;" x="334.846808362" xlink:href="#m8d9f23caed" y="384.0"/>
      </g>
     </g>
     <g id="line2d_40">
      <g>
       <use style="stroke:#000000;stroke-width:0.5;" x="334.846808362" xlink:href="#md7d70645f9" y="3.0"/>
      </g>
     </g>
    </g>
    <g id="xtick_16">
     <g id="line2d_41">
      <g>
       <use style="stroke:#000000;stroke-width:0.5;" x="401.244863116" xlink:href="#m8d9f23caed" y="384.0"/>
      </g>
     </g>
     <g id="line2d_42">
      <g>
       <use style="stroke:#000000;stroke-width:0.5;" x="401.244863116" xlink:href="#md7d70645f9" y="3.0"/>
      </g>
     </g>
    </g>
    <g id="xtick_17">
     <g id="line2d_43">
      <g>
       <use style="stroke:#000000;stroke-width:0.5;" x="467.642917869" xlink:href="#m8d9f23caed" y="384.0"/>
      </g>
     </g>
     <g id="line2d_44">
      <g>
       <use style="stroke:#000000;stroke-width:0.5;" x="467.642917869" xlink:href="#md7d70645f9" y="3.0"/>
      </g>
     </g>
    </g>
    <g id="xtick_18">
     <g id="line2d_45">
      <g>
       <use style="stroke:#000000;stroke-width:0.5;" x="534.040972623" xlink:href="#m8d9f23caed" y="384.0"/>
      </g>
     </g>
     <g id="line2d_46">
      <g>
       <use style="stroke:#000000;stroke-width:0.5;" x="534.040972623" xlink:href="#md7d70645f9" y="3.0"/>
      </g>
     </g>
    </g>
    <g id="text_9">
     <!-- log10 of Df -->
     <defs>
      <path id="BitstreamVeraSans-Roman-20"/>
      <path d="M 12.40625 8.296875 
L 28.515625 8.296875 
L 28.515625 63.921875 
L 10.984375 60.40625 
L 10.984375 69.390625 
L 28.421875 72.90625 
L 38.28125 72.90625 
L 38.28125 8.296875 
L 54.390625 8.296875 
L 54.390625 0 
L 12.40625 0 
z
" id="BitstreamVeraSans-Roman-31"/>
      <path d="M 30.609375 48.390625 
Q 23.390625 48.390625 19.1875 42.75 
Q 14.984375 37.109375 14.984375 27.296875 
Q 14.984375 17.484375 19.15625 11.84375 
Q 23.34375 6.203125 30.609375 6.203125 
Q 37.796875 6.203125 41.984375 11.859375 
Q 46.1875 17.53125 46.1875 27.296875 
Q 46.1875 37.015625 41.984375 42.703125 
Q 37.796875 48.390625 30.609375 48.390625 
M 30.609375 56 
Q 42.328125 56 49.015625 48.375 
Q 55.71875 40.765625 55.71875 27.296875 
Q 55.71875 13.875 49.015625 6.21875 
Q 42.328125 -1.421875 30.609375 -1.421875 
Q 18.84375 -1.421875 12.171875 6.21875 
Q 5.515625 13.875 5.515625 27.296875 
Q 5.515625 40.765625 12.171875 48.375 
Q 18.84375 56 30.609375 56 
" id="BitstreamVeraSans-Roman-6f"/>
      <path d="M 9.421875 75.984375 
L 18.40625 75.984375 
L 18.40625 0 
L 9.421875 0 
z
" id="BitstreamVeraSans-Roman-6c"/>
      <path d="M 19.671875 64.796875 
L 19.671875 8.109375 
L 31.59375 8.109375 
Q 46.6875 8.109375 53.6875 14.9375 
Q 60.6875 21.78125 60.6875 36.53125 
Q 60.6875 51.171875 53.6875 57.984375 
Q 46.6875 64.796875 31.59375 64.796875 
z
M 9.8125 72.90625 
L 30.078125 72.90625 
Q 51.265625 72.90625 61.171875 64.09375 
Q 71.09375 55.28125 71.09375 36.53125 
Q 71.09375 17.671875 61.125 8.828125 
Q 51.171875 0 30.078125 0 
L 9.8125 0 
z
" id="BitstreamVeraSans-Roman-44"/>
      <path d="M 45.40625 27.984375 
Q 45.40625 37.75 41.375 43.109375 
Q 37.359375 48.484375 30.078125 48.484375 
Q 22.859375 48.484375 18.828125 43.109375 
Q 14.796875 37.75 14.796875 27.984375 
Q 14.796875 18.265625 18.828125 12.890625 
Q 22.859375 7.515625 30.078125 7.515625 
Q 37.359375 7.515625 41.375 12.890625 
Q 45.40625 18.265625 45.40625 27.984375 
M 54.390625 6.78125 
Q 54.390625 -7.171875 48.1875 -13.984375 
Q 42 -20.796875 29.203125 -20.796875 
Q 24.46875 -20.796875 20.265625 -20.09375 
Q 16.0625 -19.390625 12.109375 -17.921875 
L 12.109375 -9.1875 
Q 16.0625 -11.328125 19.921875 -12.34375 
Q 23.78125 -13.375 27.78125 -13.375 
Q 36.625 -13.375 41.015625 -8.765625 
Q 45.40625 -4.15625 45.40625 5.171875 
L 45.40625 9.625 
Q 42.625 4.78125 38.28125 2.390625 
Q 33.9375 0 27.875 0 
Q 17.828125 0 11.671875 7.65625 
Q 5.515625 15.328125 5.515625 27.984375 
Q 5.515625 40.671875 11.671875 48.328125 
Q 17.828125 56 27.875 56 
Q 33.9375 56 38.28125 53.609375 
Q 42.625 51.21875 45.40625 46.390625 
L 45.40625 54.6875 
L 54.390625 54.6875 
z
" id="BitstreamVeraSans-Roman-67"/>
      <path d="M 37.109375 75.984375 
L 37.109375 68.5 
L 28.515625 68.5 
Q 23.6875 68.5 21.796875 66.546875 
Q 19.921875 64.59375 19.921875 59.515625 
L 19.921875 54.6875 
L 34.71875 54.6875 
L 34.71875 47.703125 
L 19.921875 47.703125 
L 19.921875 0 
L 10.890625 0 
L 10.890625 47.703125 
L 2.296875 47.703125 
L 2.296875 54.6875 
L 10.890625 54.6875 
L 10.890625 58.5 
Q 10.890625 67.625 15.140625 71.796875 
Q 19.390625 75.984375 28.609375 75.984375 
z
" id="BitstreamVeraSans-Roman-66"/>
     </defs>
     <g transform="translate(229.9340625 427.553125)scale(0.2 -0.2)">
      <use xlink:href="#BitstreamVeraSans-Roman-6c"/>
      <use x="27.783203125" xlink:href="#BitstreamVeraSans-Roman-6f"/>
      <use x="88.96484375" xlink:href="#BitstreamVeraSans-Roman-67"/>
      <use x="152.44140625" xlink:href="#BitstreamVeraSans-Roman-31"/>
      <use x="216.064453125" xlink:href="#BitstreamVeraSans-Roman-30"/>
      <use x="279.6875" xlink:href="#BitstreamVeraSans-Roman-20"/>
      <use x="311.474609375" xlink:href="#BitstreamVeraSans-Roman-6f"/>
      <use x="372.65625" xlink:href="#BitstreamVeraSans-Roman-66"/>
      <use x="407.861328125" xlink:href="#BitstreamVeraSans-Roman-20"/>
      <use x="439.6484375" xlink:href="#BitstreamVeraSans-Roman-44"/>
      <use x="516.650390625" xlink:href="#BitstreamVeraSans-Roman-66"/>
     </g>
    </g>
   </g>
   <g id="matplotlib.axis_2">
    <g id="ytick_1">
     <g id="line2d_47">
      <path clip-path="url(#p7b624ad4fa)" d="M 3 384 
L 567.24 384 
" style="fill:none;stroke:#000000;stroke-dasharray:1.000000,3.000000;stroke-dashoffset:0.0;stroke-width:0.5;"/>
     </g>
     <g id="line2d_48">
      <defs>
       <path d="M 0 0 
L 4 0 
" id="mde5af247ff" style="stroke:#000000;stroke-width:0.5;"/>
      </defs>
      <g>
       <use style="stroke:#000000;stroke-width:0.5;" x="3.0" xlink:href="#mde5af247ff" y="384.0"/>
      </g>
     </g>
     <g id="line2d_49">
      <defs>
       <path d="M 0 0 
L -4 0 
" id="m39c039cf93" style="stroke:#000000;stroke-width:0.5;"/>
      </defs>
      <g>
       <use style="stroke:#000000;stroke-width:0.5;" x="567.24" xlink:href="#m39c039cf93" y="384.0"/>
      </g>
     </g>
    </g>
    <g id="ytick_2">
     <g id="line2d_50">
      <path clip-path="url(#p7b624ad4fa)" d="M 3 308.554455 
L 567.24 308.554455 
" style="fill:none;stroke:#000000;stroke-dasharray:1.000000,3.000000;stroke-dashoffset:0.0;stroke-width:0.5;"/>
     </g>
     <g id="line2d_51">
      <g>
       <use style="stroke:#000000;stroke-width:0.5;" x="3.0" xlink:href="#mde5af247ff" y="308.554455446"/>
      </g>
     </g>
     <g id="line2d_52">
      <g>
       <use style="stroke:#000000;stroke-width:0.5;" x="567.24" xlink:href="#m39c039cf93" y="308.554455446"/>
      </g>
     </g>
    </g>
    <g id="ytick_3">
     <g id="line2d_53">
      <path clip-path="url(#p7b624ad4fa)" d="M 3 233.108911 
L 567.24 233.108911 
" style="fill:none;stroke:#000000;stroke-dasharray:1.000000,3.000000;stroke-dashoffset:0.0;stroke-width:0.5;"/>
     </g>
     <g id="line2d_54">
      <g>
       <use style="stroke:#000000;stroke-width:0.5;" x="3.0" xlink:href="#mde5af247ff" y="233.108910891"/>
      </g>
     </g>
     <g id="line2d_55">
      <g>
       <use style="stroke:#000000;stroke-width:0.5;" x="567.24" xlink:href="#m39c039cf93" y="233.108910891"/>
      </g>
     </g>
    </g>
    <g id="ytick_4">
     <g id="line2d_56">
      <path clip-path="url(#p7b624ad4fa)" d="M 3 157.663366 
L 567.24 157.663366 
" style="fill:none;stroke:#000000;stroke-dasharray:1.000000,3.000000;stroke-dashoffset:0.0;stroke-width:0.5;"/>
     </g>
     <g id="line2d_57">
      <g>
       <use style="stroke:#000000;stroke-width:0.5;" x="3.0" xlink:href="#mde5af247ff" y="157.663366337"/>
      </g>
     </g>
     <g id="line2d_58">
      <g>
       <use style="stroke:#000000;stroke-width:0.5;" x="567.24" xlink:href="#m39c039cf93" y="157.663366337"/>
      </g>
     </g>
    </g>
    <g id="ytick_5">
     <g id="line2d_59">
      <path clip-path="url(#p7b624ad4fa)" d="M 3 82.217822 
L 567.24 82.217822 
" style="fill:none;stroke:#000000;stroke-dasharray:1.000000,3.000000;stroke-dashoffset:0.0;stroke-width:0.5;"/>
     </g>
     <g id="line2d_60">
      <g>
       <use style="stroke:#000000;stroke-width:0.5;" x="3.0" xlink:href="#mde5af247ff" y="82.2178217822"/>
      </g>
     </g>
     <g id="line2d_61">
      <g>
       <use style="stroke:#000000;stroke-width:0.5;" x="567.24" xlink:href="#m39c039cf93" y="82.2178217822"/>
      </g>
     </g>
    </g>
    <g id="ytick_6">
     <g id="line2d_62">
      <path clip-path="url(#p7b624ad4fa)" d="M 3 6.772277 
L 567.24 6.772277 
" style="fill:none;stroke:#000000;stroke-dasharray:1.000000,3.000000;stroke-dashoffset:0.0;stroke-width:0.5;"/>
     </g>
     <g id="line2d_63">
      <g>
       <use style="stroke:#000000;stroke-width:0.5;" x="3.0" xlink:href="#mde5af247ff" y="6.77227722772"/>
      </g>
     </g>
     <g id="line2d_64">
      <g>
       <use style="stroke:#000000;stroke-width:0.5;" x="567.24" xlink:href="#m39c039cf93" y="6.77227722772"/>
      </g>
     </g>
    </g>
   </g>
   <g id="text_10">
    <!-- {f1-f5}, 5-D -->
    <defs>
     <path d="M 12.5 -9.28125 
L 15.921875 -9.28125 
Q 22.75 -9.28125 24.828125 -7.171875 
Q 26.90625 -5.078125 26.90625 1.90625 
L 26.90625 14.015625 
Q 26.90625 21.625 29.09375 25.09375 
Q 31.296875 28.5625 36.71875 29.890625 
Q 31.296875 31.109375 29.09375 34.5625 
Q 26.90625 38.03125 26.90625 45.703125 
L 26.90625 57.8125 
Q 26.90625 64.75 24.828125 66.875 
Q 22.75 69 15.921875 69 
L 12.5 69 
L 12.5 75.984375 
L 15.578125 75.984375 
Q 27.734375 75.984375 31.8125 72.390625 
Q 35.890625 68.796875 35.890625 58.015625 
L 35.890625 46.296875 
Q 35.890625 39.015625 38.515625 36.203125 
Q 41.15625 33.40625 48.09375 33.40625 
L 51.125 33.40625 
L 51.125 26.421875 
L 48.09375 26.421875 
Q 41.15625 26.421875 38.515625 23.578125 
Q 35.890625 20.75 35.890625 13.375 
L 35.890625 1.703125 
Q 35.890625 -9.078125 31.8125 -12.6875 
Q 27.734375 -16.3125 15.578125 -16.3125 
L 12.5 -16.3125 
z
" id="BitstreamVeraSans-Roman-7d"/>
     <path d="M 51.125 -9.28125 
L 51.125 -16.3125 
L 48.09375 -16.3125 
Q 35.9375 -16.3125 31.8125 -12.6875 
Q 27.6875 -9.078125 27.6875 1.703125 
L 27.6875 13.375 
Q 27.6875 20.75 25.046875 23.578125 
Q 22.40625 26.421875 15.484375 26.421875 
L 12.5 26.421875 
L 12.5 33.40625 
L 15.484375 33.40625 
Q 22.46875 33.40625 25.078125 36.203125 
Q 27.6875 39.015625 27.6875 46.296875 
L 27.6875 58.015625 
Q 27.6875 68.796875 31.8125 72.390625 
Q 35.9375 75.984375 48.09375 75.984375 
L 51.125 75.984375 
L 51.125 69 
L 47.796875 69 
Q 40.921875 69 38.8125 66.84375 
Q 36.71875 64.703125 36.71875 57.8125 
L 36.71875 45.703125 
Q 36.71875 38.03125 34.5 34.5625 
Q 32.28125 31.109375 26.90625 29.890625 
Q 32.328125 28.5625 34.515625 25.09375 
Q 36.71875 21.625 36.71875 14.015625 
L 36.71875 1.90625 
Q 36.71875 -4.984375 38.8125 -7.125 
Q 40.921875 -9.28125 47.796875 -9.28125 
z
" id="BitstreamVeraSans-Roman-7b"/>
     <path d="M 11.71875 12.40625 
L 22.015625 12.40625 
L 22.015625 4 
L 14.015625 -11.625 
L 7.71875 -11.625 
L 11.71875 4 
z
" id="BitstreamVeraSans-Roman-2c"/>
     <path d="M 10.796875 72.90625 
L 49.515625 72.90625 
L 49.515625 64.59375 
L 19.828125 64.59375 
L 19.828125 46.734375 
Q 21.96875 47.46875 24.109375 47.828125 
Q 26.265625 48.1875 28.421875 48.1875 
Q 40.625 48.1875 47.75 41.5 
Q 54.890625 34.8125 54.890625 23.390625 
Q 54.890625 11.625 47.5625 5.09375 
Q 40.234375 -1.421875 26.90625 -1.421875 
Q 22.3125 -1.421875 17.546875 -0.640625 
Q 12.796875 0.140625 7.71875 1.703125 
L 7.71875 11.625 
Q 12.109375 9.234375 16.796875 8.0625 
Q 21.484375 6.890625 26.703125 6.890625 
Q 35.15625 6.890625 40.078125 11.328125 
Q 45.015625 15.765625 45.015625 23.390625 
Q 45.015625 31 40.078125 35.4375 
Q 35.15625 39.890625 26.703125 39.890625 
Q 22.75 39.890625 18.8125 39.015625 
Q 14.890625 38.140625 10.796875 36.28125 
z
" id="BitstreamVeraSans-Roman-35"/>
    </defs>
    <g transform="translate(435.7052 376.38)scale(0.2 -0.2)">
     <use xlink:href="#BitstreamVeraSans-Roman-7b"/>
     <use x="63.623046875" xlink:href="#BitstreamVeraSans-Roman-66"/>
     <use x="98.828125" xlink:href="#BitstreamVeraSans-Roman-31"/>
     <use x="162.451171875" xlink:href="#BitstreamVeraSans-Roman-2d"/>
     <use x="198.53515625" xlink:href="#BitstreamVeraSans-Roman-66"/>
     <use x="233.740234375" xlink:href="#BitstreamVeraSans-Roman-35"/>
     <use x="297.36328125" xlink:href="#BitstreamVeraSans-Roman-7d"/>
     <use x="360.986328125" xlink:href="#BitstreamVeraSans-Roman-2c"/>
     <use x="392.7734375" xlink:href="#BitstreamVeraSans-Roman-20"/>
     <use x="424.560546875" xlink:href="#BitstreamVeraSans-Roman-35"/>
     <use x="488.18359375" xlink:href="#BitstreamVeraSans-Roman-2d"/>
     <use x="524.267578125" xlink:href="#BitstreamVeraSans-Roman-44"/>
    </g>
   </g>
   <g id="text_11">
    <!-- v2.2.1.10 -->
    <defs>
     <path d="M 2.984375 54.6875 
L 12.5 54.6875 
L 29.59375 8.796875 
L 46.6875 54.6875 
L 56.203125 54.6875 
L 35.6875 0 
L 23.484375 0 
z
" id="BitstreamVeraSans-Roman-76"/>
     <path d="M 10.6875 12.40625 
L 21 12.40625 
L 21 0 
L 10.6875 0 
z
" id="BitstreamVeraSans-Roman-2e"/>
    </defs>
    <g style="fill:#808080;" transform="translate(261.4871875 378.1103125)scale(0.1 -0.1)">
     <use xlink:href="#BitstreamVeraSans-Roman-76"/>
     <use x="59.1796875" xlink:href="#BitstreamVeraSans-Roman-32"/>
     <use x="122.802734375" xlink:href="#BitstreamVeraSans-Roman-2e"/>
     <use x="154.58984375" xlink:href="#BitstreamVeraSans-Roman-32"/>
     <use x="218.212890625" xlink:href="#BitstreamVeraSans-Roman-2e"/>
     <use x="250.0" xlink:href="#BitstreamVeraSans-Roman-31"/>
     <use x="313.623046875" xlink:href="#BitstreamVeraSans-Roman-2e"/>
     <use x="345.41015625" xlink:href="#BitstreamVeraSans-Roman-31"/>
     <use x="409.033203125" xlink:href="#BitstreamVeraSans-Roman-30"/>
    </g>
   </g>
  </g>
 </g>
 <defs>
  <clipPath id="p7b624ad4fa">
   <rect height="381.0" width="564.24" x="3.0" y="3.0"/>
  </clipPath>
 </defs>
</svg>
