<?xml version="1.0" encoding="utf-8" standalone="no"?>
<!DOCTYPE svg PUBLIC "-//W3C//DTD SVG 1.1//EN"
  "http://www.w3.org/Graphics/SVG/1.1/DTD/svg11.dtd">
<!-- Created with matplotlib (http://matplotlib.org/) -->
<svg height="432pt" version="1.1" viewBox="0 0 576 432" width="576pt" xmlns="http://www.w3.org/2000/svg" xmlns:xlink="http://www.w3.org/1999/xlink">
 <defs>
  <style type="text/css">
*{stroke-linecap:butt;stroke-linejoin:round;stroke-miterlimit:100000;}
  </style>
 </defs>
 <g id="figure_1">
  <g id="patch_1">
   <path d="M 0 432 
L 576 432 
L 576 0 
L 0 0 
z
" style="fill:#ffffff;"/>
  </g>
  <g id="axes_1">
   <g id="patch_2">
    <path d="M 3 384 
L 567.24 384 
L 567.24 3 
L 3 3 
z
" style="fill:#ffffff;"/>
   </g>
   <g id="line2d_1">
    <path clip-path="url(#pbca5a33b15)" d="M 327.74255 384 
L 327.74255 377.712871 
L 329.634782 377.712871 
L 329.634782 371.425743 
L 330.573826 371.425743 
L 330.573826 365.138614 
L 330.766875 365.138614 
L 330.766875 358.851485 
L 331.237127 358.851485 
L 331.237127 352.564356 
L 332.507313 352.564356 
L 332.507313 346.277228 
L 332.717995 346.277228 
L 332.717995 339.990099 
L 333.560757 339.990099 
L 333.560757 333.70297 
L 333.779163 333.70297 
L 333.779163 327.415842 
L 333.94853 327.415842 
L 333.94853 321.128713 
L 334.061616 321.128713 
L 334.061616 314.841584 
L 334.52109 314.841584 
L 334.52109 308.554455 
L 334.790834 308.554455 
L 334.790834 302.267327 
L 334.802671 302.267327 
L 334.802671 295.980198 
L 334.84424 295.980198 
L 334.84424 289.693069 
L 353.77568 289.693069 
L 353.77568 283.405941 
L 357.616556 283.405941 
L 357.616556 277.118812 
L 361.024797 277.118812 
L 361.024797 270.831683 
L 363.170991 270.831683 
L 363.170991 264.544554 
L 364.458071 264.544554 
L 364.458071 258.257426 
L 364.75624 258.257426 
L 364.75624 251.970297 
L 365.371979 251.970297 
L 365.371979 245.683168 
L 365.93348 245.683168 
L 365.93348 239.39604 
L 367.003103 239.39604 
L 367.003103 233.108911 
L 370.655203 233.108911 
L 370.655203 226.821782 
L 372.948852 226.821782 
L 372.948852 220.534653 
L 373.122014 220.534653 
L 373.122014 214.247525 
L 373.157949 214.247525 
L 373.157949 207.960396 
L 376.16853 207.960396 
L 376.16853 201.673267 
L 376.404907 201.673267 
L 376.404907 195.386139 
L 378.44929 195.386139 
L 378.44929 189.09901 
L 380.411673 189.09901 
L 380.411673 182.811881 
L 380.414034 182.811881 
L 380.414034 176.524752 
L 382.114822 176.524752 
L 382.114822 170.237624 
L 385.777949 170.237624 
L 385.777949 163.950495 
L 386.390771 163.950495 
L 386.390771 157.663366 
L 393.587844 157.663366 
L 393.587844 151.376238 
L 394.697232 151.376238 
L 394.697232 145.089109 
L 397.307915 145.089109 
L 397.307915 138.80198 
L 400.149277 138.80198 
L 400.149277 132.514851 
L 402.956539 132.514851 
L 402.956539 126.227723 
L 404.558146 126.227723 
L 404.558146 119.940594 
L 407.503281 119.940594 
L 407.503281 113.653465 
L 407.557869 113.653465 
L 407.557869 107.366337 
L 408.319868 107.366337 
L 408.319868 101.079208 
L 409.652923 101.079208 
L 409.652923 94.792079 
L 411.064265 94.792079 
L 411.064265 88.50495 
L 412.893896 88.50495 
L 412.893896 82.217822 
L 414.072105 82.217822 
L 414.072105 75.930693 
L 417.188288 75.930693 
L 417.188288 69.643564 
L 418.721765 69.643564 
L 418.721765 63.356436 
L 425.673021 63.356436 
L 425.673021 57.069307 
L 427.287056 57.069307 
L 427.287056 50.782178 
L 428.297528 50.782178 
L 428.297528 44.49505 
L 428.748023 44.49505 
L 428.748023 38.207921 
L 430.463101 38.207921 
L 430.463101 31.920792 
L 431.517046 31.920792 
L 431.517046 25.633663 
L 437.143906 25.633663 
L 437.143906 19.346535 
L 449.281682 19.346535 
L 449.281682 13.059406 
L 451.019783 13.059406 
L 451.019783 6.772277 
L 451.019783 6.772277 
L 451.019783 6.772277 
L 567.24 6.772277 
" style="fill:none;stroke:#ff0000;stroke-linecap:square;stroke-width:3.0;"/>
   </g>
   <g id="line2d_2">
    <path clip-path="url(#pbca5a33b15)" d="M 337.888926 384 
L 337.888926 377.712871 
L 337.889008 377.712871 
L 337.889008 371.425743 
L 337.889085 371.425743 
L 337.889085 365.138614 
L 337.889117 365.138614 
L 337.889117 358.851485 
L 337.889128 358.851485 
L 337.889128 352.564356 
L 337.889154 352.564356 
L 337.889154 346.277228 
L 337.88922 346.277228 
L 337.88922 339.990099 
L 337.889303 339.990099 
L 337.889303 333.70297 
L 337.889319 333.70297 
L 337.889319 327.415842 
L 337.889322 327.415842 
L 337.889322 321.128713 
L 337.88937 321.128713 
L 337.88937 314.841584 
L 337.889371 314.841584 
L 337.889371 308.554455 
L 337.889543 308.554455 
L 337.889543 302.267327 
L 337.889558 302.267327 
L 337.889558 295.980198 
L 337.889839 295.980198 
L 337.889839 289.693069 
L 357.616556 289.693069 
L 357.616556 283.405941 
L 361.024797 283.405941 
L 361.024797 277.118812 
L 363.170991 277.118812 
L 363.170991 270.831683 
L 364.458071 270.831683 
L 364.458071 264.544554 
L 364.75624 264.544554 
L 364.75624 258.257426 
L 365.371979 258.257426 
L 365.371979 251.970297 
L 365.93348 251.970297 
L 365.93348 245.683168 
L 367.003103 245.683168 
L 367.003103 239.39604 
L 370.655203 239.39604 
L 370.655203 233.108911 
L 372.948852 233.108911 
L 372.948852 226.821782 
L 373.122014 226.821782 
L 373.122014 220.534653 
L 376.16853 220.534653 
L 376.16853 214.247525 
L 376.404907 214.247525 
L 376.404907 207.960396 
L 380.411673 207.960396 
L 380.411673 201.673267 
L 382.114822 201.673267 
L 382.114822 195.386139 
L 414.719637 195.386139 
L 414.719637 189.09901 
L 415.053013 189.09901 
L 415.053013 182.811881 
L 415.861195 182.811881 
L 415.861195 176.524752 
L 419.700153 176.524752 
L 419.700153 170.237624 
L 420.937735 170.237624 
L 420.937735 163.950495 
L 423.552621 163.950495 
L 423.552621 157.663366 
L 424.40825 157.663366 
L 424.40825 151.376238 
L 424.482824 151.376238 
L 424.482824 145.089109 
L 425.771404 145.089109 
L 425.771404 138.80198 
L 425.836102 138.80198 
L 425.836102 132.514851 
L 426.125421 132.514851 
L 426.125421 126.227723 
L 429.113815 126.227723 
L 429.113815 119.940594 
L 430.42142 119.940594 
L 430.42142 113.653465 
L 430.92361 113.653465 
L 430.92361 107.366337 
L 431.819831 107.366337 
L 431.819831 101.079208 
L 438.342592 101.079208 
L 438.342592 94.792079 
L 441.868651 94.792079 
L 441.868651 88.50495 
L 449.726641 88.50495 
L 449.726641 82.217822 
L 451.600314 82.217822 
L 451.600314 75.930693 
L 452.955947 75.930693 
L 452.955947 69.643564 
L 453.604854 69.643564 
L 453.604854 63.356436 
L 454.701664 63.356436 
L 454.701664 57.069307 
L 459.502705 57.069307 
L 459.502705 50.782178 
L 459.713741 50.782178 
L 459.713741 44.49505 
L 459.72303 44.49505 
L 459.72303 38.207921 
L 461.301044 38.207921 
L 461.301044 31.920792 
L 462.362101 31.920792 
L 462.362101 25.633663 
L 463.95527 25.633663 
L 463.95527 19.346535 
L 467.655153 19.346535 
L 467.655153 13.059406 
L 469.262619 13.059406 
L 469.262619 6.772277 
L 469.262619 6.772277 
L 469.262619 6.772277 
L 567.24 6.772277 
" style="fill:none;stroke:#00bfbf;stroke-linecap:square;"/>
   </g>
   <g id="line2d_3">
    <path clip-path="url(#pbca5a33b15)" d="M 337.888731 384 
L 337.888731 377.712871 
L 337.888772 377.712871 
L 337.888772 371.425743 
L 337.888813 371.425743 
L 337.888813 365.138614 
L 337.888854 365.138614 
L 337.888854 358.851485 
L 337.888917 358.851485 
L 337.888917 352.564356 
L 337.888926 352.564356 
L 337.888926 346.277228 
L 337.888948 346.277228 
L 337.888948 339.990099 
L 337.889058 339.990099 
L 337.889058 333.70297 
L 337.889068 333.70297 
L 337.889068 327.415842 
L 337.889073 327.415842 
L 337.889073 321.128713 
L 337.889117 321.128713 
L 337.889117 314.841584 
L 337.889165 314.841584 
L 337.889165 308.554455 
L 337.88922 308.554455 
L 337.88922 302.267327 
L 337.889322 302.267327 
L 337.889322 295.980198 
L 337.889371 295.980198 
L 337.889371 289.693069 
L 357.616556 289.693069 
L 357.616556 283.405941 
L 361.024797 283.405941 
L 361.024797 277.118812 
L 363.170991 277.118812 
L 363.170991 270.831683 
L 364.458071 270.831683 
L 364.458071 264.544554 
L 364.75624 264.544554 
L 364.75624 258.257426 
L 365.371979 258.257426 
L 365.371979 251.970297 
L 365.93348 251.970297 
L 365.93348 245.683168 
L 367.003103 245.683168 
L 367.003103 239.39604 
L 370.655203 239.39604 
L 370.655203 233.108911 
L 372.948852 233.108911 
L 372.948852 226.821782 
L 373.122014 226.821782 
L 373.122014 220.534653 
L 376.16853 220.534653 
L 376.16853 214.247525 
L 376.404907 214.247525 
L 376.404907 207.960396 
L 380.411673 207.960396 
L 380.411673 201.673267 
L 382.114822 201.673267 
L 382.114822 195.386139 
L 414.718579 195.386139 
L 414.718579 189.09901 
L 415.050766 189.09901 
L 415.050766 182.811881 
L 415.859695 182.811881 
L 415.859695 176.524752 
L 419.698204 176.524752 
L 419.698204 170.237624 
L 420.937071 170.237624 
L 420.937071 163.950495 
L 423.550993 163.950495 
L 423.550993 157.663366 
L 424.407214 157.663366 
L 424.407214 151.376238 
L 424.481656 151.376238 
L 424.481656 145.089109 
L 425.770613 145.089109 
L 425.770613 138.80198 
L 425.835295 138.80198 
L 425.835295 132.514851 
L 426.12405 132.514851 
L 426.12405 126.227723 
L 429.113085 126.227723 
L 429.113085 119.940594 
L 430.420976 119.940594 
L 430.420976 113.653465 
L 430.922956 113.653465 
L 430.922956 107.366337 
L 431.819369 107.366337 
L 431.819369 101.079208 
L 438.341762 101.079208 
L 438.341762 94.792079 
L 441.868249 94.792079 
L 441.868249 88.50495 
L 449.726379 88.50495 
L 449.726379 82.217822 
L 451.600047 82.217822 
L 451.600047 75.930693 
L 452.955782 75.930693 
L 452.955782 69.643564 
L 453.604854 69.643564 
L 453.604854 63.356436 
L 454.701061 63.356436 
L 454.701061 57.069307 
L 459.502705 57.069307 
L 459.502705 50.782178 
L 459.713741 50.782178 
L 459.713741 44.49505 
L 459.72303 44.49505 
L 459.72303 38.207921 
L 461.300998 38.207921 
L 461.300998 31.920792 
L 462.361903 31.920792 
L 462.361903 25.633663 
L 463.955059 25.633663 
L 463.955059 19.346535 
L 467.655087 19.346535 
L 467.655087 13.059406 
L 469.262535 13.059406 
L 469.262535 6.772277 
L 469.262535 6.772277 
L 469.262535 6.772277 
L 567.24 6.772277 
" style="fill:none;stroke:#bf00bf;stroke-linecap:square;"/>
   </g>
   <g id="line2d_4">
    <path clip-path="url(#pbca5a33b15)" d="M 337.884422 384 
L 337.884422 377.712871 
L 337.884438 377.712871 
L 337.884438 371.425743 
L 337.884464 371.425743 
L 337.884464 365.138614 
L 337.884788 365.138614 
L 337.884788 358.851485 
L 337.884837 358.851485 
L 337.884837 352.564356 
L 337.884935 352.564356 
L 337.884935 346.277228 
L 337.884939 346.277228 
L 337.884939 339.990099 
L 337.884993 339.990099 
L 337.884993 333.70297 
L 337.88504 333.70297 
L 337.88504 327.415842 
L 337.885144 327.415842 
L 337.885144 321.128713 
L 337.885332 321.128713 
L 337.885332 314.841584 
L 337.885384 314.841584 
L 337.885384 308.554455 
L 337.885522 308.554455 
L 337.885522 302.267327 
L 337.885991 302.267327 
L 337.885991 295.980198 
L 337.886115 295.980198 
L 337.886115 289.693069 
L 357.616556 289.693069 
L 357.616556 283.405941 
L 361.024797 283.405941 
L 361.024797 277.118812 
L 363.170991 277.118812 
L 363.170991 270.831683 
L 364.458071 270.831683 
L 364.458071 264.544554 
L 364.75624 264.544554 
L 364.75624 258.257426 
L 365.371979 258.257426 
L 365.371979 251.970297 
L 365.93348 251.970297 
L 365.93348 245.683168 
L 367.003103 245.683168 
L 367.003103 239.39604 
L 370.655203 239.39604 
L 370.655203 233.108911 
L 372.948852 233.108911 
L 372.948852 226.821782 
L 373.122014 226.821782 
L 373.122014 220.534653 
L 376.16853 220.534653 
L 376.16853 214.247525 
L 376.404907 214.247525 
L 376.404907 207.960396 
L 380.411673 207.960396 
L 380.411673 201.673267 
L 382.114822 201.673267 
L 382.114822 195.386139 
L 414.714337 195.386139 
L 414.714337 189.09901 
L 415.04658 189.09901 
L 415.04658 182.811881 
L 415.85448 182.811881 
L 415.85448 176.524752 
L 419.69404 176.524752 
L 419.69404 170.237624 
L 420.933523 170.237624 
L 420.933523 163.950495 
L 423.547695 163.950495 
L 423.547695 157.663366 
L 424.403384 157.663366 
L 424.403384 151.376238 
L 424.477341 151.376238 
L 424.477341 145.089109 
L 425.76715 145.089109 
L 425.76715 138.80198 
L 425.831939 138.80198 
L 425.831939 132.514851 
L 426.120032 132.514851 
L 426.120032 126.227723 
L 429.110178 126.227723 
L 429.110178 119.940594 
L 430.418544 119.940594 
L 430.418544 113.653465 
L 430.920261 113.653465 
L 430.920261 107.366337 
L 431.816849 107.366337 
L 431.816849 101.079208 
L 438.337699 101.079208 
L 438.337699 94.792079 
L 441.86532 94.792079 
L 441.86532 88.50495 
L 449.724255 88.50495 
L 449.724255 82.217822 
L 451.598559 82.217822 
L 451.598559 75.930693 
L 452.953218 75.930693 
L 452.953218 69.643564 
L 453.602701 69.643564 
L 453.602701 63.356436 
L 454.698197 63.356436 
L 454.698197 57.069307 
L 459.502044 57.069307 
L 459.502044 50.782178 
L 459.713454 50.782178 
L 459.713454 44.49505 
L 459.722738 44.49505 
L 459.722738 38.207921 
L 461.298666 38.207921 
L 461.298666 31.920792 
L 462.359576 31.920792 
L 462.359576 25.633663 
L 463.951979 25.633663 
L 463.951979 19.346535 
L 467.653395 19.346535 
L 467.653395 13.059406 
L 469.262017 13.059406 
L 469.262017 6.772277 
L 469.262017 6.772277 
L 469.262017 6.772277 
L 567.24 6.772277 
" style="fill:none;stroke:#000000;stroke-linecap:square;"/>
   </g>
   <g id="line2d_5">
    <path clip-path="url(#pbca5a33b15)" d="M 337.779773 384 
L 337.779773 377.712871 
L 337.783966 377.712871 
L 337.783966 371.425743 
L 337.790361 371.425743 
L 337.790361 365.138614 
L 337.794578 365.138614 
L 337.794578 358.851485 
L 337.796692 358.851485 
L 337.796692 352.564356 
L 337.799232 352.564356 
L 337.799232 346.277228 
L 337.801172 346.277228 
L 337.801172 339.990099 
L 337.801665 339.990099 
L 337.801665 333.70297 
L 337.801692 333.70297 
L 337.801692 327.415842 
L 337.804906 327.415842 
L 337.804906 321.128713 
L 337.805455 321.128713 
L 337.805455 314.841584 
L 337.806577 314.841584 
L 337.806577 308.554455 
L 337.806924 308.554455 
L 337.806924 302.267327 
L 337.807108 302.267327 
L 337.807108 295.980198 
L 337.810746 295.980198 
L 337.810746 289.693069 
L 357.616556 289.693069 
L 357.616556 283.405941 
L 361.024797 283.405941 
L 361.024797 277.118812 
L 363.170991 277.118812 
L 363.170991 270.831683 
L 364.458071 270.831683 
L 364.458071 264.544554 
L 364.75624 264.544554 
L 364.75624 258.257426 
L 365.371979 258.257426 
L 365.371979 251.970297 
L 365.93348 251.970297 
L 365.93348 245.683168 
L 367.003103 245.683168 
L 367.003103 239.39604 
L 370.655203 239.39604 
L 370.655203 233.108911 
L 372.948852 233.108911 
L 372.948852 226.821782 
L 373.122014 226.821782 
L 373.122014 220.534653 
L 376.16853 220.534653 
L 376.16853 214.247525 
L 376.404907 214.247525 
L 376.404907 207.960396 
L 380.411673 207.960396 
L 380.411673 201.673267 
L 382.114822 201.673267 
L 382.114822 195.386139 
L 414.595731 195.386139 
L 414.595731 189.09901 
L 414.896807 189.09901 
L 414.896807 182.811881 
L 415.726666 182.811881 
L 415.726666 176.524752 
L 419.577612 176.524752 
L 419.577612 170.237624 
L 420.836611 170.237624 
L 420.836611 163.950495 
L 423.43502 163.950495 
L 423.43502 157.663366 
L 424.314386 157.663366 
L 424.314386 151.376238 
L 424.379099 151.376238 
L 424.379099 145.089109 
L 425.686984 145.089109 
L 425.686984 138.80198 
L 425.732022 138.80198 
L 425.732022 132.514851 
L 426.021133 132.514851 
L 426.021133 126.227723 
L 429.040496 126.227723 
L 429.040496 119.940594 
L 430.350732 119.940594 
L 430.350732 113.653465 
L 430.839162 113.653465 
L 430.839162 107.366337 
L 431.745435 107.366337 
L 431.745435 101.079208 
L 438.250069 101.079208 
L 438.250069 94.792079 
L 441.78535 94.792079 
L 441.78535 88.50495 
L 449.679527 88.50495 
L 449.679527 82.217822 
L 451.568335 82.217822 
L 451.568335 75.930693 
L 452.87926 75.930693 
L 452.87926 69.643564 
L 453.537657 69.643564 
L 453.537657 63.356436 
L 454.616498 63.356436 
L 454.616498 57.069307 
L 459.488487 57.069307 
L 459.488487 50.782178 
L 459.707453 50.782178 
L 459.707453 44.49505 
L 459.71715 44.49505 
L 459.71715 38.207921 
L 461.252228 38.207921 
L 461.252228 31.920792 
L 462.289013 31.920792 
L 462.289013 25.633663 
L 463.887831 25.633663 
L 463.887831 19.346535 
L 467.617877 19.346535 
L 467.617877 13.059406 
L 469.24729 13.059406 
L 469.24729 6.772277 
L 469.24729 6.772277 
L 469.24729 6.772277 
L 567.24 6.772277 
" style="fill:none;stroke:#00bfbf;stroke-linecap:square;"/>
   </g>
   <g id="line2d_6">
    <path clip-path="url(#pbca5a33b15)" d="M 332.560915 384 
L 332.560915 377.712871 
L 333.467495 377.712871 
L 333.467495 371.425743 
L 333.587455 371.425743 
L 333.587455 365.138614 
L 334.503158 365.138614 
L 334.503158 358.851485 
L 334.528041 358.851485 
L 334.528041 352.564356 
L 334.622495 352.564356 
L 334.622495 346.277228 
L 334.706372 346.277228 
L 334.706372 339.990099 
L 334.729573 339.990099 
L 334.729573 333.70297 
L 334.743038 333.70297 
L 334.743038 327.415842 
L 335.105272 327.415842 
L 335.105272 321.128713 
L 335.192905 321.128713 
L 335.192905 314.841584 
L 335.282394 314.841584 
L 335.282394 308.554455 
L 335.429988 308.554455 
L 335.429988 302.267327 
L 335.702447 302.267327 
L 335.702447 295.980198 
L 336.461923 295.980198 
L 336.461923 289.693069 
L 357.616556 289.693069 
L 357.616556 283.405941 
L 361.024797 283.405941 
L 361.024797 277.118812 
L 363.170991 277.118812 
L 363.170991 270.831683 
L 364.458071 270.831683 
L 364.458071 264.544554 
L 364.75624 264.544554 
L 364.75624 258.257426 
L 365.371979 258.257426 
L 365.371979 251.970297 
L 365.93348 251.970297 
L 365.93348 245.683168 
L 367.003103 245.683168 
L 367.003103 239.39604 
L 370.655203 239.39604 
L 370.655203 233.108911 
L 372.948852 233.108911 
L 372.948852 226.821782 
L 373.122014 226.821782 
L 373.122014 220.534653 
L 376.16853 220.534653 
L 376.16853 214.247525 
L 376.404907 214.247525 
L 376.404907 207.960396 
L 380.411673 207.960396 
L 380.411673 201.673267 
L 380.885219 201.673267 
L 380.885219 195.386139 
L 382.114822 195.386139 
L 382.114822 189.09901 
L 393.879266 189.09901 
L 393.879266 182.811881 
L 395.289209 182.811881 
L 395.289209 176.524752 
L 399.873265 176.524752 
L 399.873265 170.237624 
L 401.199236 170.237624 
L 401.199236 163.950495 
L 401.868254 163.950495 
L 401.868254 157.663366 
L 401.936221 157.663366 
L 401.936221 151.376238 
L 401.985595 151.376238 
L 401.985595 145.089109 
L 406.365519 145.089109 
L 406.365519 138.80198 
L 406.879704 138.80198 
L 406.879704 132.514851 
L 410.633958 132.514851 
L 410.633958 126.227723 
L 411.688128 126.227723 
L 411.688128 119.940594 
L 412.183019 119.940594 
L 412.183019 113.653465 
L 413.517485 113.653465 
L 413.517485 107.366337 
L 414.71324 107.366337 
L 414.71324 101.079208 
L 419.003583 101.079208 
L 419.003583 94.792079 
L 421.945163 94.792079 
L 421.945163 88.50495 
L 425.973796 88.50495 
L 425.973796 82.217822 
L 429.200337 82.217822 
L 429.200337 75.930693 
L 432.897381 75.930693 
L 432.897381 69.643564 
L 435.575674 69.643564 
L 435.575674 63.356436 
L 435.856572 63.356436 
L 435.856572 57.069307 
L 436.795977 57.069307 
L 436.795977 50.782178 
L 437.848955 50.782178 
L 437.848955 44.49505 
L 440.019702 44.49505 
L 440.019702 38.207921 
L 440.124274 38.207921 
L 440.124274 31.920792 
L 441.674423 31.920792 
L 441.674423 25.633663 
L 450.090445 25.633663 
L 450.090445 19.346535 
L 450.308956 19.346535 
L 450.308956 13.059406 
L 452.326423 13.059406 
L 452.326423 6.772277 
L 452.326423 6.772277 
L 452.326423 6.772277 
L 567.24 6.772277 
" style="fill:none;stroke:#bf00bf;stroke-linecap:square;"/>
   </g>
   <g id="patch_3">
    <path d="M 3 3 
L 567.24 3 
" style="fill:none;stroke:#000000;stroke-linecap:square;stroke-linejoin:miter;"/>
   </g>
   <g id="patch_4">
    <path d="M 567.24 384 
L 567.24 3 
" style="fill:none;stroke:#000000;stroke-linecap:square;stroke-linejoin:miter;"/>
   </g>
   <g id="patch_5">
    <path d="M 3 384 
L 567.24 384 
" style="fill:none;stroke:#000000;stroke-linecap:square;stroke-linejoin:miter;"/>
   </g>
   <g id="patch_6">
    <path d="M 3 384 
L 3 3 
" style="fill:none;stroke:#000000;stroke-linecap:square;stroke-linejoin:miter;"/>
   </g>
   <g id="matplotlib.axis_1">
    <g id="xtick_1"/>
    <g id="xtick_2">
     <g id="line2d_7">
      <path clip-path="url(#pbca5a33b15)" d="M 69.254589 384 
L 69.254589 3 
" style="fill:none;stroke:#000000;stroke-dasharray:1.000000,3.000000;stroke-dashoffset:0.0;stroke-width:0.5;"/>
     </g>
     <g id="line2d_8">
      <defs>
       <path d="M 0 0 
L 0 -4 
" id="m0f9a601635" style="stroke:#000000;stroke-width:0.5;"/>
      </defs>
      <g>
       <use style="stroke:#000000;stroke-width:0.5;" x="69.2545893472" xlink:href="#m0f9a601635" y="384.0"/>
      </g>
     </g>
     <g id="line2d_9">
      <defs>
       <path d="M 0 0 
L 0 4 
" id="mb7dcc46bde" style="stroke:#000000;stroke-width:0.5;"/>
      </defs>
      <g>
       <use style="stroke:#000000;stroke-width:0.5;" x="69.2545893472" xlink:href="#mb7dcc46bde" y="3.0"/>
      </g>
     </g>
     <g id="text_1">
      <!-- -6 -->
      <defs>
       <path d="M 33.015625 40.375 
Q 26.375 40.375 22.484375 35.828125 
Q 18.609375 31.296875 18.609375 23.390625 
Q 18.609375 15.53125 22.484375 10.953125 
Q 26.375 6.390625 33.015625 6.390625 
Q 39.65625 6.390625 43.53125 10.953125 
Q 47.40625 15.53125 47.40625 23.390625 
Q 47.40625 31.296875 43.53125 35.828125 
Q 39.65625 40.375 33.015625 40.375 
M 52.59375 71.296875 
L 52.59375 62.3125 
Q 48.875 64.0625 45.09375 64.984375 
Q 41.3125 65.921875 37.59375 65.921875 
Q 27.828125 65.921875 22.671875 59.328125 
Q 17.53125 52.734375 16.796875 39.40625 
Q 19.671875 43.65625 24.015625 45.921875 
Q 28.375 48.1875 33.59375 48.1875 
Q 44.578125 48.1875 50.953125 41.515625 
Q 57.328125 34.859375 57.328125 23.390625 
Q 57.328125 12.15625 50.6875 5.359375 
Q 44.046875 -1.421875 33.015625 -1.421875 
Q 20.359375 -1.421875 13.671875 8.265625 
Q 6.984375 17.96875 6.984375 36.375 
Q 6.984375 53.65625 15.1875 63.9375 
Q 23.390625 74.21875 37.203125 74.21875 
Q 40.921875 74.21875 44.703125 73.484375 
Q 48.484375 72.75 52.59375 71.296875 
" id="BitstreamVeraSans-Roman-36"/>
       <path d="M 4.890625 31.390625 
L 31.203125 31.390625 
L 31.203125 23.390625 
L 4.890625 23.390625 
z
" id="BitstreamVeraSans-Roman-2d"/>
      </defs>
      <g transform="translate(59.2842768472 403.196875)scale(0.2 -0.2)">
       <use xlink:href="#BitstreamVeraSans-Roman-2d"/>
       <use x="36.083984375" xlink:href="#BitstreamVeraSans-Roman-36"/>
      </g>
     </g>
    </g>
    <g id="xtick_3">
     <g id="line2d_10">
      <path clip-path="url(#pbca5a33b15)" d="M 135.652644 384 
L 135.652644 3 
" style="fill:none;stroke:#000000;stroke-dasharray:1.000000,3.000000;stroke-dashoffset:0.0;stroke-width:0.5;"/>
     </g>
     <g id="line2d_11">
      <g>
       <use style="stroke:#000000;stroke-width:0.5;" x="135.652644101" xlink:href="#m0f9a601635" y="384.0"/>
      </g>
     </g>
     <g id="line2d_12">
      <g>
       <use style="stroke:#000000;stroke-width:0.5;" x="135.652644101" xlink:href="#mb7dcc46bde" y="3.0"/>
      </g>
     </g>
     <g id="text_2">
      <!-- -4 -->
      <defs>
       <path d="M 37.796875 64.3125 
L 12.890625 25.390625 
L 37.796875 25.390625 
z
M 35.203125 72.90625 
L 47.609375 72.90625 
L 47.609375 25.390625 
L 58.015625 25.390625 
L 58.015625 17.1875 
L 47.609375 17.1875 
L 47.609375 0 
L 37.796875 0 
L 37.796875 17.1875 
L 4.890625 17.1875 
L 4.890625 26.703125 
z
" id="BitstreamVeraSans-Roman-34"/>
      </defs>
      <g transform="translate(125.682331601 403.196875)scale(0.2 -0.2)">
       <use xlink:href="#BitstreamVeraSans-Roman-2d"/>
       <use x="36.083984375" xlink:href="#BitstreamVeraSans-Roman-34"/>
      </g>
     </g>
    </g>
    <g id="xtick_4">
     <g id="line2d_13">
      <path clip-path="url(#pbca5a33b15)" d="M 202.050699 384 
L 202.050699 3 
" style="fill:none;stroke:#000000;stroke-dasharray:1.000000,3.000000;stroke-dashoffset:0.0;stroke-width:0.5;"/>
     </g>
     <g id="line2d_14">
      <g>
       <use style="stroke:#000000;stroke-width:0.5;" x="202.050698855" xlink:href="#m0f9a601635" y="384.0"/>
      </g>
     </g>
     <g id="line2d_15">
      <g>
       <use style="stroke:#000000;stroke-width:0.5;" x="202.050698855" xlink:href="#mb7dcc46bde" y="3.0"/>
      </g>
     </g>
     <g id="text_3">
      <!-- -2 -->
      <defs>
       <path d="M 19.1875 8.296875 
L 53.609375 8.296875 
L 53.609375 0 
L 7.328125 0 
L 7.328125 8.296875 
Q 12.9375 14.109375 22.625 23.890625 
Q 32.328125 33.6875 34.8125 36.53125 
Q 39.546875 41.84375 41.421875 45.53125 
Q 43.3125 49.21875 43.3125 52.78125 
Q 43.3125 58.59375 39.234375 62.25 
Q 35.15625 65.921875 28.609375 65.921875 
Q 23.96875 65.921875 18.8125 64.3125 
Q 13.671875 62.703125 7.8125 59.421875 
L 7.8125 69.390625 
Q 13.765625 71.78125 18.9375 73 
Q 24.125 74.21875 28.421875 74.21875 
Q 39.75 74.21875 46.484375 68.546875 
Q 53.21875 62.890625 53.21875 53.421875 
Q 53.21875 48.921875 51.53125 44.890625 
Q 49.859375 40.875 45.40625 35.40625 
Q 44.1875 33.984375 37.640625 27.21875 
Q 31.109375 20.453125 19.1875 8.296875 
" id="BitstreamVeraSans-Roman-32"/>
      </defs>
      <g transform="translate(192.080386355 403.196875)scale(0.2 -0.2)">
       <use xlink:href="#BitstreamVeraSans-Roman-2d"/>
       <use x="36.083984375" xlink:href="#BitstreamVeraSans-Roman-32"/>
      </g>
     </g>
    </g>
    <g id="xtick_5">
     <g id="line2d_16">
      <path clip-path="url(#pbca5a33b15)" d="M 268.448754 384 
L 268.448754 3 
" style="fill:none;stroke:#000000;stroke-dasharray:1.000000,3.000000;stroke-dashoffset:0.0;stroke-width:0.5;"/>
     </g>
     <g id="line2d_17">
      <g>
       <use style="stroke:#000000;stroke-width:0.5;" x="268.448753608" xlink:href="#m0f9a601635" y="384.0"/>
      </g>
     </g>
     <g id="line2d_18">
      <g>
       <use style="stroke:#000000;stroke-width:0.5;" x="268.448753608" xlink:href="#mb7dcc46bde" y="3.0"/>
      </g>
     </g>
     <g id="text_4">
      <!-- 0 -->
      <defs>
       <path d="M 31.78125 66.40625 
Q 24.171875 66.40625 20.328125 58.90625 
Q 16.5 51.421875 16.5 36.375 
Q 16.5 21.390625 20.328125 13.890625 
Q 24.171875 6.390625 31.78125 6.390625 
Q 39.453125 6.390625 43.28125 13.890625 
Q 47.125 21.390625 47.125 36.375 
Q 47.125 51.421875 43.28125 58.90625 
Q 39.453125 66.40625 31.78125 66.40625 
M 31.78125 74.21875 
Q 44.046875 74.21875 50.515625 64.515625 
Q 56.984375 54.828125 56.984375 36.375 
Q 56.984375 17.96875 50.515625 8.265625 
Q 44.046875 -1.421875 31.78125 -1.421875 
Q 19.53125 -1.421875 13.0625 8.265625 
Q 6.59375 17.96875 6.59375 36.375 
Q 6.59375 54.828125 13.0625 64.515625 
Q 19.53125 74.21875 31.78125 74.21875 
" id="BitstreamVeraSans-Roman-30"/>
      </defs>
      <g transform="translate(262.086253608 403.196875)scale(0.2 -0.2)">
       <use xlink:href="#BitstreamVeraSans-Roman-30"/>
      </g>
     </g>
    </g>
    <g id="xtick_6">
     <g id="line2d_19">
      <path clip-path="url(#pbca5a33b15)" d="M 334.846808 384 
L 334.846808 3 
" style="fill:none;stroke:#000000;stroke-dasharray:1.000000,3.000000;stroke-dashoffset:0.0;stroke-width:0.5;"/>
     </g>
     <g id="line2d_20">
      <g>
       <use style="stroke:#000000;stroke-width:0.5;" x="334.846808362" xlink:href="#m0f9a601635" y="384.0"/>
      </g>
     </g>
     <g id="line2d_21">
      <g>
       <use style="stroke:#000000;stroke-width:0.5;" x="334.846808362" xlink:href="#mb7dcc46bde" y="3.0"/>
      </g>
     </g>
     <g id="text_5">
      <!-- 2 -->
      <g transform="translate(328.484308362 403.196875)scale(0.2 -0.2)">
       <use xlink:href="#BitstreamVeraSans-Roman-32"/>
      </g>
     </g>
    </g>
    <g id="xtick_7">
     <g id="line2d_22">
      <path clip-path="url(#pbca5a33b15)" d="M 401.244863 384 
L 401.244863 3 
" style="fill:none;stroke:#000000;stroke-dasharray:1.000000,3.000000;stroke-dashoffset:0.0;stroke-width:0.5;"/>
     </g>
     <g id="line2d_23">
      <g>
       <use style="stroke:#000000;stroke-width:0.5;" x="401.244863116" xlink:href="#m0f9a601635" y="384.0"/>
      </g>
     </g>
     <g id="line2d_24">
      <g>
       <use style="stroke:#000000;stroke-width:0.5;" x="401.244863116" xlink:href="#mb7dcc46bde" y="3.0"/>
      </g>
     </g>
     <g id="text_6">
      <!-- 4 -->
      <g transform="translate(394.882363116 403.196875)scale(0.2 -0.2)">
       <use xlink:href="#BitstreamVeraSans-Roman-34"/>
      </g>
     </g>
    </g>
    <g id="xtick_8">
     <g id="line2d_25">
      <path clip-path="url(#pbca5a33b15)" d="M 467.642918 384 
L 467.642918 3 
" style="fill:none;stroke:#000000;stroke-dasharray:1.000000,3.000000;stroke-dashoffset:0.0;stroke-width:0.5;"/>
     </g>
     <g id="line2d_26">
      <g>
       <use style="stroke:#000000;stroke-width:0.5;" x="467.642917869" xlink:href="#m0f9a601635" y="384.0"/>
      </g>
     </g>
     <g id="line2d_27">
      <g>
       <use style="stroke:#000000;stroke-width:0.5;" x="467.642917869" xlink:href="#mb7dcc46bde" y="3.0"/>
      </g>
     </g>
     <g id="text_7">
      <!-- 6 -->
      <g transform="translate(461.280417869 403.196875)scale(0.2 -0.2)">
       <use xlink:href="#BitstreamVeraSans-Roman-36"/>
      </g>
     </g>
    </g>
    <g id="xtick_9">
     <g id="line2d_28">
      <path clip-path="url(#pbca5a33b15)" d="M 534.040973 384 
L 534.040973 3 
" style="fill:none;stroke:#000000;stroke-dasharray:1.000000,3.000000;stroke-dashoffset:0.0;stroke-width:0.5;"/>
     </g>
     <g id="line2d_29">
      <g>
       <use style="stroke:#000000;stroke-width:0.5;" x="534.040972623" xlink:href="#m0f9a601635" y="384.0"/>
      </g>
     </g>
     <g id="line2d_30">
      <g>
       <use style="stroke:#000000;stroke-width:0.5;" x="534.040972623" xlink:href="#mb7dcc46bde" y="3.0"/>
      </g>
     </g>
     <g id="text_8">
      <!-- 8 -->
      <defs>
       <path d="M 31.78125 34.625 
Q 24.75 34.625 20.71875 30.859375 
Q 16.703125 27.09375 16.703125 20.515625 
Q 16.703125 13.921875 20.71875 10.15625 
Q 24.75 6.390625 31.78125 6.390625 
Q 38.8125 6.390625 42.859375 10.171875 
Q 46.921875 13.96875 46.921875 20.515625 
Q 46.921875 27.09375 42.890625 30.859375 
Q 38.875 34.625 31.78125 34.625 
M 21.921875 38.8125 
Q 15.578125 40.375 12.03125 44.71875 
Q 8.5 49.078125 8.5 55.328125 
Q 8.5 64.0625 14.71875 69.140625 
Q 20.953125 74.21875 31.78125 74.21875 
Q 42.671875 74.21875 48.875 69.140625 
Q 55.078125 64.0625 55.078125 55.328125 
Q 55.078125 49.078125 51.53125 44.71875 
Q 48 40.375 41.703125 38.8125 
Q 48.828125 37.15625 52.796875 32.3125 
Q 56.78125 27.484375 56.78125 20.515625 
Q 56.78125 9.90625 50.3125 4.234375 
Q 43.84375 -1.421875 31.78125 -1.421875 
Q 19.734375 -1.421875 13.25 4.234375 
Q 6.78125 9.90625 6.78125 20.515625 
Q 6.78125 27.484375 10.78125 32.3125 
Q 14.796875 37.15625 21.921875 38.8125 
M 18.3125 54.390625 
Q 18.3125 48.734375 21.84375 45.5625 
Q 25.390625 42.390625 31.78125 42.390625 
Q 38.140625 42.390625 41.71875 45.5625 
Q 45.3125 48.734375 45.3125 54.390625 
Q 45.3125 60.0625 41.71875 63.234375 
Q 38.140625 66.40625 31.78125 66.40625 
Q 25.390625 66.40625 21.84375 63.234375 
Q 18.3125 60.0625 18.3125 54.390625 
" id="BitstreamVeraSans-Roman-38"/>
      </defs>
      <g transform="translate(527.678472623 403.196875)scale(0.2 -0.2)">
       <use xlink:href="#BitstreamVeraSans-Roman-38"/>
      </g>
     </g>
    </g>
    <g id="xtick_10"/>
    <g id="xtick_11">
     <g id="line2d_31">
      <defs>
       <path d="M 0 0 
L 0 -2 
" id="m9a2f95330a" style="stroke:#000000;stroke-width:0.5;"/>
      </defs>
      <g>
       <use style="stroke:#000000;stroke-width:0.5;" x="69.2545893472" xlink:href="#m9a2f95330a" y="384.0"/>
      </g>
     </g>
     <g id="line2d_32">
      <defs>
       <path d="M 0 0 
L 0 2 
" id="m47c01ca393" style="stroke:#000000;stroke-width:0.5;"/>
      </defs>
      <g>
       <use style="stroke:#000000;stroke-width:0.5;" x="69.2545893472" xlink:href="#m47c01ca393" y="3.0"/>
      </g>
     </g>
    </g>
    <g id="xtick_12">
     <g id="line2d_33">
      <g>
       <use style="stroke:#000000;stroke-width:0.5;" x="135.652644101" xlink:href="#m9a2f95330a" y="384.0"/>
      </g>
     </g>
     <g id="line2d_34">
      <g>
       <use style="stroke:#000000;stroke-width:0.5;" x="135.652644101" xlink:href="#m47c01ca393" y="3.0"/>
      </g>
     </g>
    </g>
    <g id="xtick_13">
     <g id="line2d_35">
      <g>
       <use style="stroke:#000000;stroke-width:0.5;" x="202.050698855" xlink:href="#m9a2f95330a" y="384.0"/>
      </g>
     </g>
     <g id="line2d_36">
      <g>
       <use style="stroke:#000000;stroke-width:0.5;" x="202.050698855" xlink:href="#m47c01ca393" y="3.0"/>
      </g>
     </g>
    </g>
    <g id="xtick_14">
     <g id="line2d_37">
      <g>
       <use style="stroke:#000000;stroke-width:0.5;" x="268.448753608" xlink:href="#m9a2f95330a" y="384.0"/>
      </g>
     </g>
     <g id="line2d_38">
      <g>
       <use style="stroke:#000000;stroke-width:0.5;" x="268.448753608" xlink:href="#m47c01ca393" y="3.0"/>
      </g>
     </g>
    </g>
    <g id="xtick_15">
     <g id="line2d_39">
      <g>
       <use style="stroke:#000000;stroke-width:0.5;" x="334.846808362" xlink:href="#m9a2f95330a" y="384.0"/>
      </g>
     </g>
     <g id="line2d_40">
      <g>
       <use style="stroke:#000000;stroke-width:0.5;" x="334.846808362" xlink:href="#m47c01ca393" y="3.0"/>
      </g>
     </g>
    </g>
    <g id="xtick_16">
     <g id="line2d_41">
      <g>
       <use style="stroke:#000000;stroke-width:0.5;" x="401.244863116" xlink:href="#m9a2f95330a" y="384.0"/>
      </g>
     </g>
     <g id="line2d_42">
      <g>
       <use style="stroke:#000000;stroke-width:0.5;" x="401.244863116" xlink:href="#m47c01ca393" y="3.0"/>
      </g>
     </g>
    </g>
    <g id="xtick_17">
     <g id="line2d_43">
      <g>
       <use style="stroke:#000000;stroke-width:0.5;" x="467.642917869" xlink:href="#m9a2f95330a" y="384.0"/>
      </g>
     </g>
     <g id="line2d_44">
      <g>
       <use style="stroke:#000000;stroke-width:0.5;" x="467.642917869" xlink:href="#m47c01ca393" y="3.0"/>
      </g>
     </g>
    </g>
    <g id="xtick_18">
     <g id="line2d_45">
      <g>
       <use style="stroke:#000000;stroke-width:0.5;" x="534.040972623" xlink:href="#m9a2f95330a" y="384.0"/>
      </g>
     </g>
     <g id="line2d_46">
      <g>
       <use style="stroke:#000000;stroke-width:0.5;" x="534.040972623" xlink:href="#m47c01ca393" y="3.0"/>
      </g>
     </g>
    </g>
    <g id="text_9">
     <!-- log10 of Df -->
     <defs>
      <path id="BitstreamVeraSans-Roman-20"/>
      <path d="M 12.40625 8.296875 
L 28.515625 8.296875 
L 28.515625 63.921875 
L 10.984375 60.40625 
L 10.984375 69.390625 
L 28.421875 72.90625 
L 38.28125 72.90625 
L 38.28125 8.296875 
L 54.390625 8.296875 
L 54.390625 0 
L 12.40625 0 
z
" id="BitstreamVeraSans-Roman-31"/>
      <path d="M 30.609375 48.390625 
Q 23.390625 48.390625 19.1875 42.75 
Q 14.984375 37.109375 14.984375 27.296875 
Q 14.984375 17.484375 19.15625 11.84375 
Q 23.34375 6.203125 30.609375 6.203125 
Q 37.796875 6.203125 41.984375 11.859375 
Q 46.1875 17.53125 46.1875 27.296875 
Q 46.1875 37.015625 41.984375 42.703125 
Q 37.796875 48.390625 30.609375 48.390625 
M 30.609375 56 
Q 42.328125 56 49.015625 48.375 
Q 55.71875 40.765625 55.71875 27.296875 
Q 55.71875 13.875 49.015625 6.21875 
Q 42.328125 -1.421875 30.609375 -1.421875 
Q 18.84375 -1.421875 12.171875 6.21875 
Q 5.515625 13.875 5.515625 27.296875 
Q 5.515625 40.765625 12.171875 48.375 
Q 18.84375 56 30.609375 56 
" id="BitstreamVeraSans-Roman-6f"/>
      <path d="M 9.421875 75.984375 
L 18.40625 75.984375 
L 18.40625 0 
L 9.421875 0 
z
" id="BitstreamVeraSans-Roman-6c"/>
      <path d="M 19.671875 64.796875 
L 19.671875 8.109375 
L 31.59375 8.109375 
Q 46.6875 8.109375 53.6875 14.9375 
Q 60.6875 21.78125 60.6875 36.53125 
Q 60.6875 51.171875 53.6875 57.984375 
Q 46.6875 64.796875 31.59375 64.796875 
z
M 9.8125 72.90625 
L 30.078125 72.90625 
Q 51.265625 72.90625 61.171875 64.09375 
Q 71.09375 55.28125 71.09375 36.53125 
Q 71.09375 17.671875 61.125 8.828125 
Q 51.171875 0 30.078125 0 
L 9.8125 0 
z
" id="BitstreamVeraSans-Roman-44"/>
      <path d="M 45.40625 27.984375 
Q 45.40625 37.75 41.375 43.109375 
Q 37.359375 48.484375 30.078125 48.484375 
Q 22.859375 48.484375 18.828125 43.109375 
Q 14.796875 37.75 14.796875 27.984375 
Q 14.796875 18.265625 18.828125 12.890625 
Q 22.859375 7.515625 30.078125 7.515625 
Q 37.359375 7.515625 41.375 12.890625 
Q 45.40625 18.265625 45.40625 27.984375 
M 54.390625 6.78125 
Q 54.390625 -7.171875 48.1875 -13.984375 
Q 42 -20.796875 29.203125 -20.796875 
Q 24.46875 -20.796875 20.265625 -20.09375 
Q 16.0625 -19.390625 12.109375 -17.921875 
L 12.109375 -9.1875 
Q 16.0625 -11.328125 19.921875 -12.34375 
Q 23.78125 -13.375 27.78125 -13.375 
Q 36.625 -13.375 41.015625 -8.765625 
Q 45.40625 -4.15625 45.40625 5.171875 
L 45.40625 9.625 
Q 42.625 4.78125 38.28125 2.390625 
Q 33.9375 0 27.875 0 
Q 17.828125 0 11.671875 7.65625 
Q 5.515625 15.328125 5.515625 27.984375 
Q 5.515625 40.671875 11.671875 48.328125 
Q 17.828125 56 27.875 56 
Q 33.9375 56 38.28125 53.609375 
Q 42.625 51.21875 45.40625 46.390625 
L 45.40625 54.6875 
L 54.390625 54.6875 
z
" id="BitstreamVeraSans-Roman-67"/>
      <path d="M 37.109375 75.984375 
L 37.109375 68.5 
L 28.515625 68.5 
Q 23.6875 68.5 21.796875 66.546875 
Q 19.921875 64.59375 19.921875 59.515625 
L 19.921875 54.6875 
L 34.71875 54.6875 
L 34.71875 47.703125 
L 19.921875 47.703125 
L 19.921875 0 
L 10.890625 0 
L 10.890625 47.703125 
L 2.296875 47.703125 
L 2.296875 54.6875 
L 10.890625 54.6875 
L 10.890625 58.5 
Q 10.890625 67.625 15.140625 71.796875 
Q 19.390625 75.984375 28.609375 75.984375 
z
" id="BitstreamVeraSans-Roman-66"/>
     </defs>
     <g transform="translate(229.9340625 427.553125)scale(0.2 -0.2)">
      <use xlink:href="#BitstreamVeraSans-Roman-6c"/>
      <use x="27.783203125" xlink:href="#BitstreamVeraSans-Roman-6f"/>
      <use x="88.96484375" xlink:href="#BitstreamVeraSans-Roman-67"/>
      <use x="152.44140625" xlink:href="#BitstreamVeraSans-Roman-31"/>
      <use x="216.064453125" xlink:href="#BitstreamVeraSans-Roman-30"/>
      <use x="279.6875" xlink:href="#BitstreamVeraSans-Roman-20"/>
      <use x="311.474609375" xlink:href="#BitstreamVeraSans-Roman-6f"/>
      <use x="372.65625" xlink:href="#BitstreamVeraSans-Roman-66"/>
      <use x="407.861328125" xlink:href="#BitstreamVeraSans-Roman-20"/>
      <use x="439.6484375" xlink:href="#BitstreamVeraSans-Roman-44"/>
      <use x="516.650390625" xlink:href="#BitstreamVeraSans-Roman-66"/>
     </g>
    </g>
   </g>
   <g id="matplotlib.axis_2">
    <g id="ytick_1">
     <g id="line2d_47">
      <path clip-path="url(#pbca5a33b15)" d="M 3 384 
L 567.24 384 
" style="fill:none;stroke:#000000;stroke-dasharray:1.000000,3.000000;stroke-dashoffset:0.0;stroke-width:0.5;"/>
     </g>
     <g id="line2d_48">
      <defs>
       <path d="M 0 0 
L 4 0 
" id="m304d294028" style="stroke:#000000;stroke-width:0.5;"/>
      </defs>
      <g>
       <use style="stroke:#000000;stroke-width:0.5;" x="3.0" xlink:href="#m304d294028" y="384.0"/>
      </g>
     </g>
     <g id="line2d_49">
      <defs>
       <path d="M 0 0 
L -4 0 
" id="m561056dfff" style="stroke:#000000;stroke-width:0.5;"/>
      </defs>
      <g>
       <use style="stroke:#000000;stroke-width:0.5;" x="567.24" xlink:href="#m561056dfff" y="384.0"/>
      </g>
     </g>
    </g>
    <g id="ytick_2">
     <g id="line2d_50">
      <path clip-path="url(#pbca5a33b15)" d="M 3 308.554455 
L 567.24 308.554455 
" style="fill:none;stroke:#000000;stroke-dasharray:1.000000,3.000000;stroke-dashoffset:0.0;stroke-width:0.5;"/>
     </g>
     <g id="line2d_51">
      <g>
       <use style="stroke:#000000;stroke-width:0.5;" x="3.0" xlink:href="#m304d294028" y="308.554455446"/>
      </g>
     </g>
     <g id="line2d_52">
      <g>
       <use style="stroke:#000000;stroke-width:0.5;" x="567.24" xlink:href="#m561056dfff" y="308.554455446"/>
      </g>
     </g>
    </g>
    <g id="ytick_3">
     <g id="line2d_53">
      <path clip-path="url(#pbca5a33b15)" d="M 3 233.108911 
L 567.24 233.108911 
" style="fill:none;stroke:#000000;stroke-dasharray:1.000000,3.000000;stroke-dashoffset:0.0;stroke-width:0.5;"/>
     </g>
     <g id="line2d_54">
      <g>
       <use style="stroke:#000000;stroke-width:0.5;" x="3.0" xlink:href="#m304d294028" y="233.108910891"/>
      </g>
     </g>
     <g id="line2d_55">
      <g>
       <use style="stroke:#000000;stroke-width:0.5;" x="567.24" xlink:href="#m561056dfff" y="233.108910891"/>
      </g>
     </g>
    </g>
    <g id="ytick_4">
     <g id="line2d_56">
      <path clip-path="url(#pbca5a33b15)" d="M 3 157.663366 
L 567.24 157.663366 
" style="fill:none;stroke:#000000;stroke-dasharray:1.000000,3.000000;stroke-dashoffset:0.0;stroke-width:0.5;"/>
     </g>
     <g id="line2d_57">
      <g>
       <use style="stroke:#000000;stroke-width:0.5;" x="3.0" xlink:href="#m304d294028" y="157.663366337"/>
      </g>
     </g>
     <g id="line2d_58">
      <g>
       <use style="stroke:#000000;stroke-width:0.5;" x="567.24" xlink:href="#m561056dfff" y="157.663366337"/>
      </g>
     </g>
    </g>
    <g id="ytick_5">
     <g id="line2d_59">
      <path clip-path="url(#pbca5a33b15)" d="M 3 82.217822 
L 567.24 82.217822 
" style="fill:none;stroke:#000000;stroke-dasharray:1.000000,3.000000;stroke-dashoffset:0.0;stroke-width:0.5;"/>
     </g>
     <g id="line2d_60">
      <g>
       <use style="stroke:#000000;stroke-width:0.5;" x="3.0" xlink:href="#m304d294028" y="82.2178217822"/>
      </g>
     </g>
     <g id="line2d_61">
      <g>
       <use style="stroke:#000000;stroke-width:0.5;" x="567.24" xlink:href="#m561056dfff" y="82.2178217822"/>
      </g>
     </g>
    </g>
    <g id="ytick_6">
     <g id="line2d_62">
      <path clip-path="url(#pbca5a33b15)" d="M 3 6.772277 
L 567.24 6.772277 
" style="fill:none;stroke:#000000;stroke-dasharray:1.000000,3.000000;stroke-dashoffset:0.0;stroke-width:0.5;"/>
     </g>
     <g id="line2d_63">
      <g>
       <use style="stroke:#000000;stroke-width:0.5;" x="3.0" xlink:href="#m304d294028" y="6.77227722772"/>
      </g>
     </g>
     <g id="line2d_64">
      <g>
       <use style="stroke:#000000;stroke-width:0.5;" x="567.24" xlink:href="#m561056dfff" y="6.77227722772"/>
      </g>
     </g>
    </g>
   </g>
   <g id="text_10">
    <!-- {f6-f9}, 20-D -->
    <defs>
     <path d="M 12.5 -9.28125 
L 15.921875 -9.28125 
Q 22.75 -9.28125 24.828125 -7.171875 
Q 26.90625 -5.078125 26.90625 1.90625 
L 26.90625 14.015625 
Q 26.90625 21.625 29.09375 25.09375 
Q 31.296875 28.5625 36.71875 29.890625 
Q 31.296875 31.109375 29.09375 34.5625 
Q 26.90625 38.03125 26.90625 45.703125 
L 26.90625 57.8125 
Q 26.90625 64.75 24.828125 66.875 
Q 22.75 69 15.921875 69 
L 12.5 69 
L 12.5 75.984375 
L 15.578125 75.984375 
Q 27.734375 75.984375 31.8125 72.390625 
Q 35.890625 68.796875 35.890625 58.015625 
L 35.890625 46.296875 
Q 35.890625 39.015625 38.515625 36.203125 
Q 41.15625 33.40625 48.09375 33.40625 
L 51.125 33.40625 
L 51.125 26.421875 
L 48.09375 26.421875 
Q 41.15625 26.421875 38.515625 23.578125 
Q 35.890625 20.75 35.890625 13.375 
L 35.890625 1.703125 
Q 35.890625 -9.078125 31.8125 -12.6875 
Q 27.734375 -16.3125 15.578125 -16.3125 
L 12.5 -16.3125 
z
" id="BitstreamVeraSans-Roman-7d"/>
     <path d="M 10.984375 1.515625 
L 10.984375 10.5 
Q 14.703125 8.734375 18.5 7.8125 
Q 22.3125 6.890625 25.984375 6.890625 
Q 35.75 6.890625 40.890625 13.453125 
Q 46.046875 20.015625 46.78125 33.40625 
Q 43.953125 29.203125 39.59375 26.953125 
Q 35.25 24.703125 29.984375 24.703125 
Q 19.046875 24.703125 12.671875 31.3125 
Q 6.296875 37.9375 6.296875 49.421875 
Q 6.296875 60.640625 12.9375 67.421875 
Q 19.578125 74.21875 30.609375 74.21875 
Q 43.265625 74.21875 49.921875 64.515625 
Q 56.59375 54.828125 56.59375 36.375 
Q 56.59375 19.140625 48.40625 8.859375 
Q 40.234375 -1.421875 26.421875 -1.421875 
Q 22.703125 -1.421875 18.890625 -0.6875 
Q 15.09375 0.046875 10.984375 1.515625 
M 30.609375 32.421875 
Q 37.25 32.421875 41.125 36.953125 
Q 45.015625 41.5 45.015625 49.421875 
Q 45.015625 57.28125 41.125 61.84375 
Q 37.25 66.40625 30.609375 66.40625 
Q 23.96875 66.40625 20.09375 61.84375 
Q 16.21875 57.28125 16.21875 49.421875 
Q 16.21875 41.5 20.09375 36.953125 
Q 23.96875 32.421875 30.609375 32.421875 
" id="BitstreamVeraSans-Roman-39"/>
     <path d="M 51.125 -9.28125 
L 51.125 -16.3125 
L 48.09375 -16.3125 
Q 35.9375 -16.3125 31.8125 -12.6875 
Q 27.6875 -9.078125 27.6875 1.703125 
L 27.6875 13.375 
Q 27.6875 20.75 25.046875 23.578125 
Q 22.40625 26.421875 15.484375 26.421875 
L 12.5 26.421875 
L 12.5 33.40625 
L 15.484375 33.40625 
Q 22.46875 33.40625 25.078125 36.203125 
Q 27.6875 39.015625 27.6875 46.296875 
L 27.6875 58.015625 
Q 27.6875 68.796875 31.8125 72.390625 
Q 35.9375 75.984375 48.09375 75.984375 
L 51.125 75.984375 
L 51.125 69 
L 47.796875 69 
Q 40.921875 69 38.8125 66.84375 
Q 36.71875 64.703125 36.71875 57.8125 
L 36.71875 45.703125 
Q 36.71875 38.03125 34.5 34.5625 
Q 32.28125 31.109375 26.90625 29.890625 
Q 32.328125 28.5625 34.515625 25.09375 
Q 36.71875 21.625 36.71875 14.015625 
L 36.71875 1.90625 
Q 36.71875 -4.984375 38.8125 -7.125 
Q 40.921875 -9.28125 47.796875 -9.28125 
z
" id="BitstreamVeraSans-Roman-7b"/>
     <path d="M 11.71875 12.40625 
L 22.015625 12.40625 
L 22.015625 4 
L 14.015625 -11.625 
L 7.71875 -11.625 
L 11.71875 4 
z
" id="BitstreamVeraSans-Roman-2c"/>
    </defs>
    <g transform="translate(422.9802 376.38)scale(0.2 -0.2)">
     <use xlink:href="#BitstreamVeraSans-Roman-7b"/>
     <use x="63.623046875" xlink:href="#BitstreamVeraSans-Roman-66"/>
     <use x="98.828125" xlink:href="#BitstreamVeraSans-Roman-36"/>
     <use x="162.451171875" xlink:href="#BitstreamVeraSans-Roman-2d"/>
     <use x="198.53515625" xlink:href="#BitstreamVeraSans-Roman-66"/>
     <use x="233.740234375" xlink:href="#BitstreamVeraSans-Roman-39"/>
     <use x="297.36328125" xlink:href="#BitstreamVeraSans-Roman-7d"/>
     <use x="360.986328125" xlink:href="#BitstreamVeraSans-Roman-2c"/>
     <use x="392.7734375" xlink:href="#BitstreamVeraSans-Roman-20"/>
     <use x="424.560546875" xlink:href="#BitstreamVeraSans-Roman-32"/>
     <use x="488.18359375" xlink:href="#BitstreamVeraSans-Roman-30"/>
     <use x="551.806640625" xlink:href="#BitstreamVeraSans-Roman-2d"/>
     <use x="587.890625" xlink:href="#BitstreamVeraSans-Roman-44"/>
    </g>
   </g>
   <g id="text_11">
    <!-- v2.2.1.10 -->
    <defs>
     <path d="M 2.984375 54.6875 
L 12.5 54.6875 
L 29.59375 8.796875 
L 46.6875 54.6875 
L 56.203125 54.6875 
L 35.6875 0 
L 23.484375 0 
z
" id="BitstreamVeraSans-Roman-76"/>
     <path d="M 10.6875 12.40625 
L 21 12.40625 
L 21 0 
L 10.6875 0 
z
" id="BitstreamVeraSans-Roman-2e"/>
    </defs>
    <g style="fill:#808080;" transform="translate(261.4871875 378.1103125)scale(0.1 -0.1)">
     <use xlink:href="#BitstreamVeraSans-Roman-76"/>
     <use x="59.1796875" xlink:href="#BitstreamVeraSans-Roman-32"/>
     <use x="122.802734375" xlink:href="#BitstreamVeraSans-Roman-2e"/>
     <use x="154.58984375" xlink:href="#BitstreamVeraSans-Roman-32"/>
     <use x="218.212890625" xlink:href="#BitstreamVeraSans-Roman-2e"/>
     <use x="250.0" xlink:href="#BitstreamVeraSans-Roman-31"/>
     <use x="313.623046875" xlink:href="#BitstreamVeraSans-Roman-2e"/>
     <use x="345.41015625" xlink:href="#BitstreamVeraSans-Roman-31"/>
     <use x="409.033203125" xlink:href="#BitstreamVeraSans-Roman-30"/>
    </g>
   </g>
  </g>
 </g>
 <defs>
  <clipPath id="pbca5a33b15">
   <rect height="381.0" width="564.24" x="3.0" y="3.0"/>
  </clipPath>
 </defs>
</svg>
