<?xml version="1.0" encoding="utf-8" standalone="no"?>
<!DOCTYPE svg PUBLIC "-//W3C//DTD SVG 1.1//EN"
  "http://www.w3.org/Graphics/SVG/1.1/DTD/svg11.dtd">
<!-- Created with matplotlib (http://matplotlib.org/) -->
<svg height="432pt" version="1.1" viewBox="0 0 576 432" width="576pt" xmlns="http://www.w3.org/2000/svg" xmlns:xlink="http://www.w3.org/1999/xlink">
 <defs>
  <style type="text/css">
*{stroke-linecap:butt;stroke-linejoin:round;stroke-miterlimit:100000;}
  </style>
 </defs>
 <g id="figure_1">
  <g id="patch_1">
   <path d="M 0 432 
L 576 432 
L 576 0 
L 0 0 
z
" style="fill:#ffffff;"/>
  </g>
  <g id="axes_1">
   <g id="patch_2">
    <path d="M 3 384 
L 567.24 384 
L 567.24 3 
L 3 3 
z
" style="fill:#ffffff;"/>
   </g>
   <g id="line2d_1">
    <path clip-path="url(#p70c00398e4)" d="M 99.297867 384 
L 99.297867 378.970297 
L 102.515752 378.970297 
L 102.515752 373.940594 
L 172.151032 373.940594 
L 172.151032 368.910891 
L 200.942574 368.910891 
L 200.942574 363.881188 
L 223.368885 363.881188 
L 223.368885 358.851485 
L 223.522842 358.851485 
L 223.522842 353.821782 
L 225.872978 353.821782 
L 225.872978 348.792079 
L 236.748674 348.792079 
L 236.748674 343.762376 
L 249.199383 343.762376 
L 249.199383 338.732673 
L 250.408886 338.732673 
L 250.408886 333.70297 
L 260.914512 333.70297 
L 260.914512 328.673267 
L 262.777363 328.673267 
L 262.777363 323.643564 
L 263.060384 323.643564 
L 263.060384 318.613861 
L 272.032612 318.613861 
L 272.032612 313.584158 
L 274.788767 313.584158 
L 274.788767 308.554455 
L 277.329589 308.554455 
L 277.329589 303.524752 
L 278.174261 303.524752 
L 278.174261 298.49505 
L 280.682541 298.49505 
L 280.682541 293.465347 
L 289.353986 293.465347 
L 289.353986 288.435644 
L 294.912474 288.435644 
L 294.912474 283.405941 
L 296.844938 283.405941 
L 296.844938 278.376238 
L 297.775688 278.376238 
L 297.775688 273.346535 
L 300.29081 273.346535 
L 300.29081 268.316832 
L 304.362053 268.316832 
L 304.362053 263.287129 
L 305.069588 263.287129 
L 305.069588 258.257426 
L 305.410807 258.257426 
L 305.410807 253.227723 
L 306.877787 253.227723 
L 306.877787 248.19802 
L 308.122437 248.19802 
L 308.122437 243.168317 
L 308.643532 243.168317 
L 308.643532 238.138614 
L 308.763949 238.138614 
L 308.763949 233.108911 
L 309.258994 233.108911 
L 309.258994 228.079208 
L 309.592623 228.079208 
L 309.592623 223.049505 
L 309.751596 223.049505 
L 309.751596 218.019802 
L 311.246622 218.019802 
L 311.246622 212.990099 
L 312.015566 212.990099 
L 312.015566 207.960396 
L 312.268715 207.960396 
L 312.268715 202.930693 
L 313.031988 202.930693 
L 313.031988 197.90099 
L 313.222103 197.90099 
L 313.222103 192.871287 
L 314.403015 192.871287 
L 314.403015 187.841584 
L 315.375574 187.841584 
L 315.375574 182.811881 
L 315.594905 182.811881 
L 315.594905 177.782178 
L 317.504102 177.782178 
L 317.504102 172.752475 
L 317.865054 172.752475 
L 317.930381 157.663366 
L 318.414465 157.663366 
L 318.414465 152.633663 
L 320.451941 152.633663 
L 320.451941 147.60396 
L 322.033113 147.60396 
L 322.033113 142.574257 
L 323.093496 142.574257 
L 323.093496 137.544554 
L 324.30527 137.544554 
L 324.30527 132.514851 
L 326.809804 132.514851 
L 326.809804 127.485149 
L 327.582844 127.485149 
L 327.582844 122.455446 
L 329.941723 122.455446 
L 329.941723 117.425743 
L 331.030804 117.425743 
L 331.140936 107.366337 
L 331.919166 107.366337 
L 331.919166 102.336634 
L 332.123596 102.336634 
L 332.123596 97.306931 
L 332.421102 97.306931 
L 332.421102 92.277228 
L 333.982465 92.277228 
L 333.982465 87.247525 
L 334.199583 87.247525 
L 334.199583 82.217822 
L 338.965947 82.217822 
L 338.965947 77.188119 
L 341.195003 77.188119 
L 341.195003 72.158416 
L 344.616248 72.158416 
L 344.616248 67.128713 
L 345.638794 67.128713 
L 345.638794 62.09901 
L 346.067459 62.09901 
L 346.067459 57.069307 
L 347.748625 57.069307 
L 347.748625 52.039604 
L 350.661911 52.039604 
L 350.661911 47.009901 
L 355.4716 47.009901 
L 355.4716 41.980198 
L 355.948972 41.980198 
L 355.948972 36.950495 
L 356.812995 36.950495 
L 356.812995 31.920792 
L 362.9987 31.920792 
L 362.9987 26.891089 
L 365.885941 26.891089 
L 365.885941 21.861386 
L 393.984818 21.861386 
L 393.984818 16.831683 
L 412.120925 16.831683 
L 412.120925 11.80198 
L 413.103302 11.80198 
L 413.103302 6.772277 
L 413.103302 6.772277 
L 567.24 6.772277 
L 567.24 6.772277 
" style="fill:none;stroke:#ff0000;stroke-linecap:square;stroke-width:3.0;"/>
   </g>
   <g id="line2d_2">
    <path clip-path="url(#p70c00398e4)" d="M 289.859618 384 
L 289.859618 378.970297 
L 293.367921 378.970297 
L 293.367921 373.940594 
L 293.581116 373.940594 
L 293.581116 368.910891 
L 293.769375 368.910891 
L 293.769375 363.881188 
L 300.823744 363.881188 
L 300.823744 358.851485 
L 302.69456 358.851485 
L 302.69456 353.821782 
L 313.184416 353.821782 
L 313.184416 348.792079 
L 314.365126 348.792079 
L 314.365126 343.762376 
L 315.474985 343.762376 
L 315.474985 338.732673 
L 318.013167 338.732673 
L 318.013167 333.70297 
L 323.83728 333.70297 
L 323.83728 328.673267 
L 324.766246 328.673267 
L 324.766246 323.643564 
L 327.872372 323.643564 
L 327.872372 318.613861 
L 328.334644 318.613861 
L 328.334644 313.584158 
L 333.63628 313.584158 
L 333.63628 308.554455 
L 353.771107 308.554455 
L 353.771107 303.524752 
L 354.1399 303.524752 
L 354.1399 298.49505 
L 358.302303 298.49505 
L 358.302303 293.465347 
L 359.412318 293.465347 
L 359.412318 288.435644 
L 364.548202 288.435644 
L 364.548202 283.405941 
L 365.037462 283.405941 
L 365.037462 278.376238 
L 366.346581 278.376238 
L 366.346581 273.346535 
L 367.835437 273.346535 
L 367.835437 268.316832 
L 368.432923 268.316832 
L 368.432923 263.287129 
L 368.723244 263.287129 
L 368.734202 253.227723 
L 370.270812 253.227723 
L 370.270812 248.19802 
L 371.462549 248.19802 
L 371.462549 243.168317 
L 373.468351 243.168317 
L 373.468351 238.138614 
L 376.985013 238.138614 
L 376.985013 233.108911 
L 377.409445 233.108911 
L 377.409445 228.079208 
L 416.652563 228.079208 
L 416.652563 223.049505 
L 421.778589 223.049505 
L 421.778589 218.019802 
L 423.812843 218.019802 
L 423.812843 212.990099 
L 434.095829 212.990099 
L 434.095829 207.960396 
L 438.509049 207.960396 
L 438.509049 202.930693 
L 445.569866 202.930693 
L 445.569866 197.90099 
L 449.984704 197.90099 
L 449.984704 192.871287 
L 456.231204 192.871287 
L 456.231204 187.841584 
L 457.635236 187.841584 
L 457.635236 182.811881 
L 460.608261 182.811881 
L 460.608261 177.782178 
L 470.899578 177.782178 
L 470.899578 172.752475 
L 475.631611 172.752475 
L 475.631611 167.722772 
L 477.168519 167.722772 
L 477.168519 162.693069 
L 479.972622 162.693069 
L 479.972622 157.663366 
L 480.852778 157.663366 
L 480.852778 152.633663 
L 486.197977 152.633663 
L 486.197977 147.60396 
L 487.502212 147.60396 
L 487.502212 142.574257 
L 490.385598 142.574257 
L 490.385598 137.544554 
L 492.079158 137.544554 
L 492.079158 132.514851 
L 493.274898 132.514851 
L 493.274898 127.485149 
L 493.565232 127.485149 
L 493.565232 122.455446 
L 494.777348 122.455446 
L 494.777348 117.425743 
L 495.153374 117.425743 
L 495.153374 112.39604 
L 496.629397 112.39604 
L 496.629397 107.366337 
L 497.552999 107.366337 
L 497.552999 102.336634 
L 499.393667 102.336634 
L 499.393667 97.306931 
L 499.554897 97.306931 
L 499.554897 92.277228 
L 501.067293 92.277228 
L 501.067293 87.247525 
L 504.593668 87.247525 
L 504.593668 82.217822 
L 507.800907 82.217822 
L 507.800907 77.188119 
L 508.514175 77.188119 
L 508.514175 72.158416 
L 510.132556 72.158416 
L 510.132556 67.128713 
L 511.697687 67.128713 
L 511.697687 62.09901 
L 512.308024 62.09901 
L 512.308024 57.069307 
L 513.982505 57.069307 
L 513.982505 52.039604 
L 517.950091 52.039604 
L 517.950091 47.009901 
L 520.813582 47.009901 
L 520.813582 41.980198 
L 526.043176 41.980198 
L 526.043176 36.950495 
L 526.632997 36.950495 
L 526.632997 31.920792 
L 527.399183 31.920792 
L 527.399183 26.891089 
L 527.773595 26.891089 
L 527.773595 21.861386 
L 540.103095 21.861386 
L 540.103095 16.831683 
L 541.188641 16.831683 
L 541.188641 11.80198 
L 549.363515 11.80198 
L 549.363515 6.772277 
L 549.363515 6.772277 
L 567.24 6.772277 
L 567.24 6.772277 
" style="fill:none;stroke:#00bfbf;stroke-linecap:square;"/>
   </g>
   <g id="line2d_3">
    <path clip-path="url(#p70c00398e4)" d="M 289.85895 384 
L 289.85895 378.970297 
L 293.367921 378.970297 
L 293.367921 373.940594 
L 293.580271 373.940594 
L 293.580271 368.910891 
L 293.768319 368.910891 
L 293.768319 363.881188 
L 300.821474 363.881188 
L 300.821474 358.851485 
L 302.69456 358.851485 
L 302.69456 353.821782 
L 313.18405 353.821782 
L 313.18405 348.792079 
L 314.363508 348.792079 
L 314.363508 343.762376 
L 315.47491 343.762376 
L 315.47491 338.732673 
L 318.01294 338.732673 
L 318.01294 333.70297 
L 323.835282 333.70297 
L 323.835282 328.673267 
L 324.764534 328.673267 
L 324.764534 323.643564 
L 327.870298 323.643564 
L 327.870298 318.613861 
L 328.332931 318.613861 
L 328.332931 313.584158 
L 333.634579 313.584158 
L 333.634579 308.554455 
L 353.770413 308.554455 
L 353.770413 303.524752 
L 354.13931 303.524752 
L 354.13931 298.49505 
L 358.302303 298.49505 
L 358.302303 293.465347 
L 359.412201 293.465347 
L 359.412201 288.435644 
L 364.547421 288.435644 
L 364.547421 283.405941 
L 365.037462 283.405941 
L 365.037462 278.376238 
L 366.346581 278.376238 
L 366.346581 273.346535 
L 367.835331 273.346535 
L 367.835331 268.316832 
L 368.432447 268.316832 
L 368.432447 263.287129 
L 368.723176 263.287129 
L 368.733931 253.227723 
L 370.270242 253.227723 
L 370.270242 248.19802 
L 371.462549 248.19802 
L 371.462549 243.168317 
L 373.468023 243.168317 
L 373.468023 238.138614 
L 376.985013 238.138614 
L 376.985013 233.108911 
L 377.409348 233.108911 
L 377.409348 228.079208 
L 416.652563 228.079208 
L 416.652563 223.049505 
L 421.755629 223.049505 
L 421.755629 218.019802 
L 423.812843 218.019802 
L 423.812843 212.990099 
L 434.074584 212.990099 
L 434.074584 207.960396 
L 438.501323 207.960396 
L 438.501323 202.930693 
L 445.565832 202.930693 
L 445.565832 197.90099 
L 449.984198 197.90099 
L 449.984198 192.871287 
L 456.231204 192.871287 
L 456.231204 187.841584 
L 457.63404 187.841584 
L 457.63404 182.811881 
L 460.601179 182.811881 
L 460.601179 177.782178 
L 470.898182 177.782178 
L 470.898182 172.752475 
L 475.631611 172.752475 
L 475.631611 167.722772 
L 477.168519 167.722772 
L 477.168519 162.693069 
L 479.972622 162.693069 
L 479.972622 157.663366 
L 480.852627 157.663366 
L 480.852627 152.633663 
L 486.197977 152.633663 
L 486.197977 147.60396 
L 487.501041 147.60396 
L 487.501041 142.574257 
L 490.384468 142.574257 
L 490.384468 137.544554 
L 492.077814 137.544554 
L 492.077814 132.514851 
L 493.272439 132.514851 
L 493.272439 127.485149 
L 493.563722 127.485149 
L 493.563722 122.455446 
L 494.777348 122.455446 
L 494.777348 117.425743 
L 495.151474 117.425743 
L 495.151474 112.39604 
L 496.628788 112.39604 
L 496.628788 107.366337 
L 497.552145 107.366337 
L 497.552145 102.336634 
L 499.392829 102.336634 
L 499.392829 97.306931 
L 499.55351 97.306931 
L 499.55351 92.277228 
L 501.064374 92.277228 
L 501.064374 87.247525 
L 504.593584 87.247525 
L 504.593584 82.217822 
L 507.799518 82.217822 
L 507.799518 77.188119 
L 508.513213 77.188119 
L 508.513213 72.158416 
L 510.131983 72.158416 
L 510.131983 67.128713 
L 511.697267 67.128713 
L 511.697267 62.09901 
L 512.307372 62.09901 
L 512.307372 57.069307 
L 513.981532 57.069307 
L 513.981532 52.039604 
L 517.949145 52.039604 
L 517.949145 47.009901 
L 520.812899 47.009901 
L 520.812899 41.980198 
L 526.041481 41.980198 
L 526.041481 36.950495 
L 526.630608 36.950495 
L 526.630608 31.920792 
L 527.399183 31.920792 
L 527.399183 26.891089 
L 527.772591 26.891089 
L 527.772591 21.861386 
L 540.103095 21.861386 
L 540.103095 16.831683 
L 541.187502 16.831683 
L 541.187502 11.80198 
L 549.36282 11.80198 
L 549.36282 6.772277 
L 549.36282 6.772277 
L 567.24 6.772277 
L 567.24 6.772277 
" style="fill:none;stroke:#bf00bf;stroke-linecap:square;"/>
   </g>
   <g id="line2d_4">
    <path clip-path="url(#p70c00398e4)" d="M 289.849933 384 
L 289.849933 378.970297 
L 293.365459 378.970297 
L 293.365459 373.940594 
L 293.568146 373.940594 
L 293.568146 368.910891 
L 293.75049 368.910891 
L 293.75049 363.881188 
L 300.813054 363.881188 
L 300.813054 358.851485 
L 302.688791 358.851485 
L 302.688791 353.821782 
L 313.181323 353.821782 
L 313.181323 348.792079 
L 314.354042 348.792079 
L 314.354042 343.762376 
L 315.4679 343.762376 
L 315.4679 338.732673 
L 318.005025 338.732673 
L 318.005025 333.70297 
L 323.828486 333.70297 
L 323.828486 328.673267 
L 324.753773 328.673267 
L 324.753773 323.643564 
L 327.861586 323.643564 
L 327.861586 318.613861 
L 328.325103 318.613861 
L 328.325103 313.584158 
L 333.628506 313.584158 
L 333.628506 308.554455 
L 353.762722 308.554455 
L 353.762722 303.524752 
L 354.132551 303.524752 
L 354.132551 298.49505 
L 358.295093 298.49505 
L 358.295093 293.465347 
L 359.407371 293.465347 
L 359.407371 288.435644 
L 363.878485 288.435644 
L 363.878485 283.405941 
L 364.54351 283.405941 
L 364.54351 278.376238 
L 366.343883 278.376238 
L 366.343883 273.346535 
L 367.83221 273.346535 
L 367.83221 268.316832 
L 368.42967 268.316832 
L 368.42967 263.287129 
L 368.719697 263.287129 
L 368.729063 253.227723 
L 370.267104 253.227723 
L 370.267104 248.19802 
L 371.46027 248.19802 
L 371.46027 243.168317 
L 373.464329 243.168317 
L 373.464329 238.138614 
L 376.982635 238.138614 
L 376.982635 233.108911 
L 377.40741 233.108911 
L 377.40741 228.079208 
L 416.576667 228.079208 
L 416.576667 223.049505 
L 421.634735 223.049505 
L 421.634735 218.019802 
L 423.686887 218.019802 
L 423.686887 212.990099 
L 434.02069 212.990099 
L 434.02069 207.960396 
L 438.412331 207.960396 
L 438.412331 202.930693 
L 445.539331 202.930693 
L 445.539331 197.90099 
L 449.976418 197.90099 
L 449.976418 192.871287 
L 456.197116 192.871287 
L 456.197116 187.841584 
L 457.629016 187.841584 
L 457.629016 182.811881 
L 460.561519 182.811881 
L 460.561519 177.782178 
L 470.850766 177.782178 
L 470.850766 172.752475 
L 475.605268 172.752475 
L 475.605268 167.722772 
L 477.158116 167.722772 
L 477.158116 162.693069 
L 479.947792 162.693069 
L 479.947792 157.663366 
L 480.83936 157.663366 
L 480.83936 152.633663 
L 486.188764 152.633663 
L 486.188764 147.60396 
L 487.494059 147.60396 
L 487.494059 142.574257 
L 490.373047 142.574257 
L 490.373047 137.544554 
L 492.061787 137.544554 
L 492.061787 132.514851 
L 493.263981 132.514851 
L 493.263981 127.485149 
L 493.544879 127.485149 
L 493.544879 122.455446 
L 494.772333 122.455446 
L 494.772333 117.425743 
L 495.143306 117.425743 
L 495.143306 112.39604 
L 496.620999 112.39604 
L 496.620999 107.366337 
L 497.546136 107.366337 
L 497.546136 102.336634 
L 499.381881 102.336634 
L 499.381881 97.306931 
L 499.543452 97.306931 
L 499.543452 92.277228 
L 501.050379 92.277228 
L 501.050379 87.247525 
L 504.584565 87.247525 
L 504.584565 82.217822 
L 507.786129 82.217822 
L 507.786129 77.188119 
L 508.505407 77.188119 
L 508.505407 72.158416 
L 510.125428 72.158416 
L 510.125428 67.128713 
L 511.69139 67.128713 
L 511.69139 62.09901 
L 512.304105 62.09901 
L 512.304105 57.069307 
L 513.976305 57.069307 
L 513.976305 52.039604 
L 517.943612 52.039604 
L 517.943612 47.009901 
L 520.808081 47.009901 
L 520.808081 41.980198 
L 526.033289 41.980198 
L 526.033289 36.950495 
L 526.620808 36.950495 
L 526.620808 31.920792 
L 527.381135 31.920792 
L 527.381135 26.891089 
L 527.759834 26.891089 
L 527.759834 21.861386 
L 540.092024 21.861386 
L 540.092024 16.831683 
L 541.175365 16.831683 
L 541.175365 11.80198 
L 549.356351 11.80198 
L 549.356351 6.772277 
L 549.356351 6.772277 
L 567.24 6.772277 
L 567.24 6.772277 
" style="fill:none;stroke:#000000;stroke-linecap:square;"/>
   </g>
   <g id="line2d_5">
    <path clip-path="url(#p70c00398e4)" d="M 289.011755 384 
L 289.011755 378.970297 
L 291.595231 378.970297 
L 291.595231 373.940594 
L 291.995495 373.940594 
L 291.995495 368.910891 
L 293.010378 368.910891 
L 293.010378 363.881188 
L 299.724144 363.881188 
L 299.724144 358.851485 
L 301.88032 358.851485 
L 301.88032 353.821782 
L 312.807582 353.821782 
L 312.807582 348.792079 
L 313.308408 348.792079 
L 313.308408 343.762376 
L 314.830659 343.762376 
L 314.830659 338.732673 
L 316.963236 338.732673 
L 316.963236 333.70297 
L 318.975825 333.70297 
L 318.975825 328.673267 
L 322.689716 328.673267 
L 322.689716 323.643564 
L 323.501625 323.643564 
L 323.501625 318.613861 
L 326.563076 318.613861 
L 326.563076 313.584158 
L 327.28163 313.584158 
L 327.28163 308.554455 
L 332.664209 308.554455 
L 332.664209 303.524752 
L 353.005804 303.524752 
L 353.005804 298.49505 
L 353.385369 298.49505 
L 353.385369 293.465347 
L 357.397613 293.465347 
L 357.397613 288.435644 
L 358.756364 288.435644 
L 358.756364 283.405941 
L 363.993552 283.405941 
L 363.993552 278.376238 
L 365.972341 278.376238 
L 365.972341 273.346535 
L 367.3945 273.346535 
L 367.3945 268.316832 
L 368.054524 268.316832 
L 368.054524 263.287129 
L 368.238809 263.287129 
L 368.248861 253.227723 
L 369.87458 253.227723 
L 369.87458 248.19802 
L 371.147293 248.19802 
L 371.147293 243.168317 
L 373.101742 243.168317 
L 373.101742 238.138614 
L 376.655428 238.138614 
L 376.655428 233.108911 
L 377.134177 233.108911 
L 377.134177 228.079208 
L 387.568305 228.079208 
L 387.568305 223.049505 
L 409.416854 223.049505 
L 409.416854 218.019802 
L 410.584977 218.019802 
L 410.584977 212.990099 
L 422.526573 212.990099 
L 422.526573 207.960396 
L 422.951428 207.960396 
L 422.951428 202.930693 
L 443.209833 202.930693 
L 443.209833 197.90099 
L 448.865454 197.90099 
L 448.865454 192.871287 
L 451.772275 192.871287 
L 451.772275 187.841584 
L 454.889338 187.841584 
L 454.889338 182.811881 
L 455.438609 182.811881 
L 455.438609 177.782178 
L 466.160541 177.782178 
L 466.160541 172.752475 
L 469.987713 172.752475 
L 469.987713 167.722772 
L 474.88286 167.722772 
L 474.88286 162.693069 
L 477.132783 162.693069 
L 477.132783 157.663366 
L 479.422616 157.663366 
L 479.422616 152.633663 
L 485.035525 152.633663 
L 485.035525 147.60396 
L 486.50934 147.60396 
L 486.50934 142.574257 
L 489.27031 142.574257 
L 489.27031 137.544554 
L 489.77006 137.544554 
L 489.77006 132.514851 
L 491.495303 132.514851 
L 491.495303 127.485149 
L 491.864122 127.485149 
L 491.864122 122.455446 
L 493.705959 122.455446 
L 493.705959 117.425743 
L 494.050833 117.425743 
L 494.050833 112.39604 
L 495.326035 112.39604 
L 495.326035 107.366337 
L 496.678293 107.366337 
L 496.678293 102.336634 
L 497.900635 102.336634 
L 497.900635 97.306931 
L 498.515023 97.306931 
L 498.515023 92.277228 
L 498.935258 92.277228 
L 498.935258 87.247525 
L 503.686823 87.247525 
L 503.686823 82.217822 
L 505.944756 82.217822 
L 505.944756 77.188119 
L 507.682851 77.188119 
L 507.682851 72.158416 
L 509.14626 72.158416 
L 509.14626 67.128713 
L 510.874798 67.128713 
L 510.874798 62.09901 
L 511.735504 62.09901 
L 511.735504 57.069307 
L 513.239297 57.069307 
L 513.239297 52.039604 
L 517.297753 52.039604 
L 517.297753 47.009901 
L 520.204493 47.009901 
L 520.204493 41.980198 
L 524.944993 41.980198 
L 524.945927 31.920792 
L 525.268965 31.920792 
L 525.268965 26.891089 
L 525.865348 26.891089 
L 525.865348 21.861386 
L 538.615076 21.861386 
L 538.615076 16.831683 
L 539.469493 16.831683 
L 539.469493 11.80198 
L 548.464542 11.80198 
L 548.464542 6.772277 
L 548.464542 6.772277 
L 567.24 6.772277 
L 567.24 6.772277 
" style="fill:none;stroke:#00bfbf;stroke-linecap:square;"/>
   </g>
   <g id="line2d_6">
    <path clip-path="url(#p70c00398e4)" d="M 215.664432 384 
L 215.664432 378.970297 
L 222.366466 378.970297 
L 222.366466 373.940594 
L 252.446168 373.940594 
L 252.446168 368.910891 
L 262.813096 368.910891 
L 262.813096 363.881188 
L 263.060386 363.881188 
L 263.060386 358.851485 
L 271.299083 358.851485 
L 271.299083 353.821782 
L 277.91974 353.821782 
L 277.91974 348.792079 
L 278.509874 348.792079 
L 278.509874 343.762376 
L 283.945771 343.762376 
L 283.945771 338.732673 
L 284.895931 338.732673 
L 284.895931 333.70297 
L 286.315558 333.70297 
L 286.315558 328.673267 
L 289.759574 328.673267 
L 289.759574 323.643564 
L 290.809073 323.643564 
L 290.809073 318.613861 
L 300.165162 318.613861 
L 300.165162 313.584158 
L 300.29081 313.584158 
L 300.29081 308.554455 
L 304.362053 308.554455 
L 304.362053 303.524752 
L 305.820764 303.524752 
L 305.820764 298.49505 
L 306.877787 298.49505 
L 306.877787 293.465347 
L 308.643532 293.465347 
L 308.643532 288.435644 
L 309.258994 288.435644 
L 309.258994 283.405941 
L 309.592623 283.405941 
L 309.592623 278.376238 
L 310.809022 278.376238 
L 310.809022 273.346535 
L 312.015566 273.346535 
L 312.015566 268.316832 
L 313.031988 268.316832 
L 313.031988 263.287129 
L 313.989114 263.287129 
L 313.989114 258.257426 
L 315.375574 258.257426 
L 315.375574 253.227723 
L 317.504102 253.227723 
L 317.504102 248.19802 
L 317.865054 248.19802 
L 317.930381 233.108911 
L 322.033113 233.108911 
L 322.033113 228.079208 
L 326.159046 228.079208 
L 326.159046 223.049505 
L 327.582844 223.049505 
L 327.582844 218.019802 
L 327.875533 218.019802 
L 327.875533 212.990099 
L 332.723774 212.990099 
L 332.723774 207.960396 
L 333.982495 207.960396 
L 333.982495 202.930693 
L 336.573177 202.930693 
L 336.573177 197.90099 
L 337.367221 197.90099 
L 337.367221 192.871287 
L 341.789269 192.871287 
L 341.789269 187.841584 
L 344.076526 187.841584 
L 344.076526 182.811881 
L 347.003073 182.811881 
L 347.003073 177.782178 
L 349.516493 177.782178 
L 349.516493 172.752475 
L 350.360255 172.752475 
L 350.360255 167.722772 
L 351.559401 167.722772 
L 351.559401 162.693069 
L 351.697062 162.693069 
L 351.697062 157.663366 
L 352.370003 157.663366 
L 352.370003 152.633663 
L 353.500809 152.633663 
L 353.500809 147.60396 
L 353.852841 147.60396 
L 353.852841 142.574257 
L 354.204104 142.574257 
L 354.204104 137.544554 
L 356.105829 137.544554 
L 356.105829 132.514851 
L 358.763781 132.514851 
L 358.763781 127.485149 
L 362.354285 127.485149 
L 362.354285 122.455446 
L 364.471267 122.455446 
L 364.471267 117.425743 
L 376.17625 117.425743 
L 376.17625 112.39604 
L 378.832254 112.39604 
L 378.832254 107.366337 
L 382.400364 107.366337 
L 382.400364 102.336634 
L 390.492045 102.336634 
L 390.492045 97.306931 
L 397.143243 97.306931 
L 397.143243 92.277228 
L 403.745132 92.277228 
L 403.745132 87.247525 
L 404.241476 87.247525 
L 404.241476 82.217822 
L 409.286232 82.217822 
L 409.309899 72.158416 
L 412.120925 72.158416 
L 412.120925 67.128713 
L 413.103302 67.128713 
L 413.103302 62.09901 
L 424.478678 62.09901 
L 424.478678 57.069307 
L 440.635142 57.069307 
L 440.635142 52.039604 
L 443.888651 52.039604 
L 443.888651 47.009901 
L 457.769191 47.009901 
L 457.769191 41.980198 
L 462.044444 41.980198 
L 462.044444 36.950495 
L 462.625434 36.950495 
L 462.625434 31.920792 
L 474.658803 31.920792 
L 474.658803 26.891089 
L 479.910852 26.891089 
L 479.910852 21.861386 
L 483.80279 21.861386 
L 483.80279 16.831683 
L 490.900172 16.831683 
L 490.900172 11.80198 
L 499.629934 11.80198 
L 499.629934 6.772277 
L 499.629934 6.772277 
L 567.24 6.772277 
L 567.24 6.772277 
" style="fill:none;stroke:#bf00bf;stroke-linecap:square;"/>
   </g>
   <g id="patch_3">
    <path d="M 3 3 
L 567.24 3 
" style="fill:none;stroke:#000000;stroke-linecap:square;stroke-linejoin:miter;"/>
   </g>
   <g id="patch_4">
    <path d="M 567.24 384 
L 567.24 3 
" style="fill:none;stroke:#000000;stroke-linecap:square;stroke-linejoin:miter;"/>
   </g>
   <g id="patch_5">
    <path d="M 3 384 
L 567.24 384 
" style="fill:none;stroke:#000000;stroke-linecap:square;stroke-linejoin:miter;"/>
   </g>
   <g id="patch_6">
    <path d="M 3 384 
L 3 3 
" style="fill:none;stroke:#000000;stroke-linecap:square;stroke-linejoin:miter;"/>
   </g>
   <g id="matplotlib.axis_1">
    <g id="xtick_1"/>
    <g id="xtick_2">
     <g id="line2d_7">
      <path clip-path="url(#p70c00398e4)" d="M 69.254589 384 
L 69.254589 3 
" style="fill:none;stroke:#000000;stroke-dasharray:1.000000,3.000000;stroke-dashoffset:0.0;stroke-width:0.5;"/>
     </g>
     <g id="line2d_8">
      <defs>
       <path d="M 0 0 
L 0 -4 
" id="md44482b27a" style="stroke:#000000;stroke-width:0.5;"/>
      </defs>
      <g>
       <use style="stroke:#000000;stroke-width:0.5;" x="69.2545893472" xlink:href="#md44482b27a" y="384.0"/>
      </g>
     </g>
     <g id="line2d_9">
      <defs>
       <path d="M 0 0 
L 0 4 
" id="m1a830a9033" style="stroke:#000000;stroke-width:0.5;"/>
      </defs>
      <g>
       <use style="stroke:#000000;stroke-width:0.5;" x="69.2545893472" xlink:href="#m1a830a9033" y="3.0"/>
      </g>
     </g>
     <g id="text_1">
      <!-- -6 -->
      <defs>
       <path d="M 33.015625 40.375 
Q 26.375 40.375 22.484375 35.828125 
Q 18.609375 31.296875 18.609375 23.390625 
Q 18.609375 15.53125 22.484375 10.953125 
Q 26.375 6.390625 33.015625 6.390625 
Q 39.65625 6.390625 43.53125 10.953125 
Q 47.40625 15.53125 47.40625 23.390625 
Q 47.40625 31.296875 43.53125 35.828125 
Q 39.65625 40.375 33.015625 40.375 
M 52.59375 71.296875 
L 52.59375 62.3125 
Q 48.875 64.0625 45.09375 64.984375 
Q 41.3125 65.921875 37.59375 65.921875 
Q 27.828125 65.921875 22.671875 59.328125 
Q 17.53125 52.734375 16.796875 39.40625 
Q 19.671875 43.65625 24.015625 45.921875 
Q 28.375 48.1875 33.59375 48.1875 
Q 44.578125 48.1875 50.953125 41.515625 
Q 57.328125 34.859375 57.328125 23.390625 
Q 57.328125 12.15625 50.6875 5.359375 
Q 44.046875 -1.421875 33.015625 -1.421875 
Q 20.359375 -1.421875 13.671875 8.265625 
Q 6.984375 17.96875 6.984375 36.375 
Q 6.984375 53.65625 15.1875 63.9375 
Q 23.390625 74.21875 37.203125 74.21875 
Q 40.921875 74.21875 44.703125 73.484375 
Q 48.484375 72.75 52.59375 71.296875 
" id="BitstreamVeraSans-Roman-36"/>
       <path d="M 4.890625 31.390625 
L 31.203125 31.390625 
L 31.203125 23.390625 
L 4.890625 23.390625 
z
" id="BitstreamVeraSans-Roman-2d"/>
      </defs>
      <g transform="translate(59.2842768472 403.196875)scale(0.2 -0.2)">
       <use xlink:href="#BitstreamVeraSans-Roman-2d"/>
       <use x="36.083984375" xlink:href="#BitstreamVeraSans-Roman-36"/>
      </g>
     </g>
    </g>
    <g id="xtick_3">
     <g id="line2d_10">
      <path clip-path="url(#p70c00398e4)" d="M 135.652644 384 
L 135.652644 3 
" style="fill:none;stroke:#000000;stroke-dasharray:1.000000,3.000000;stroke-dashoffset:0.0;stroke-width:0.5;"/>
     </g>
     <g id="line2d_11">
      <g>
       <use style="stroke:#000000;stroke-width:0.5;" x="135.652644101" xlink:href="#md44482b27a" y="384.0"/>
      </g>
     </g>
     <g id="line2d_12">
      <g>
       <use style="stroke:#000000;stroke-width:0.5;" x="135.652644101" xlink:href="#m1a830a9033" y="3.0"/>
      </g>
     </g>
     <g id="text_2">
      <!-- -4 -->
      <defs>
       <path d="M 37.796875 64.3125 
L 12.890625 25.390625 
L 37.796875 25.390625 
z
M 35.203125 72.90625 
L 47.609375 72.90625 
L 47.609375 25.390625 
L 58.015625 25.390625 
L 58.015625 17.1875 
L 47.609375 17.1875 
L 47.609375 0 
L 37.796875 0 
L 37.796875 17.1875 
L 4.890625 17.1875 
L 4.890625 26.703125 
z
" id="BitstreamVeraSans-Roman-34"/>
      </defs>
      <g transform="translate(125.682331601 403.196875)scale(0.2 -0.2)">
       <use xlink:href="#BitstreamVeraSans-Roman-2d"/>
       <use x="36.083984375" xlink:href="#BitstreamVeraSans-Roman-34"/>
      </g>
     </g>
    </g>
    <g id="xtick_4">
     <g id="line2d_13">
      <path clip-path="url(#p70c00398e4)" d="M 202.050699 384 
L 202.050699 3 
" style="fill:none;stroke:#000000;stroke-dasharray:1.000000,3.000000;stroke-dashoffset:0.0;stroke-width:0.5;"/>
     </g>
     <g id="line2d_14">
      <g>
       <use style="stroke:#000000;stroke-width:0.5;" x="202.050698855" xlink:href="#md44482b27a" y="384.0"/>
      </g>
     </g>
     <g id="line2d_15">
      <g>
       <use style="stroke:#000000;stroke-width:0.5;" x="202.050698855" xlink:href="#m1a830a9033" y="3.0"/>
      </g>
     </g>
     <g id="text_3">
      <!-- -2 -->
      <defs>
       <path d="M 19.1875 8.296875 
L 53.609375 8.296875 
L 53.609375 0 
L 7.328125 0 
L 7.328125 8.296875 
Q 12.9375 14.109375 22.625 23.890625 
Q 32.328125 33.6875 34.8125 36.53125 
Q 39.546875 41.84375 41.421875 45.53125 
Q 43.3125 49.21875 43.3125 52.78125 
Q 43.3125 58.59375 39.234375 62.25 
Q 35.15625 65.921875 28.609375 65.921875 
Q 23.96875 65.921875 18.8125 64.3125 
Q 13.671875 62.703125 7.8125 59.421875 
L 7.8125 69.390625 
Q 13.765625 71.78125 18.9375 73 
Q 24.125 74.21875 28.421875 74.21875 
Q 39.75 74.21875 46.484375 68.546875 
Q 53.21875 62.890625 53.21875 53.421875 
Q 53.21875 48.921875 51.53125 44.890625 
Q 49.859375 40.875 45.40625 35.40625 
Q 44.1875 33.984375 37.640625 27.21875 
Q 31.109375 20.453125 19.1875 8.296875 
" id="BitstreamVeraSans-Roman-32"/>
      </defs>
      <g transform="translate(192.080386355 403.196875)scale(0.2 -0.2)">
       <use xlink:href="#BitstreamVeraSans-Roman-2d"/>
       <use x="36.083984375" xlink:href="#BitstreamVeraSans-Roman-32"/>
      </g>
     </g>
    </g>
    <g id="xtick_5">
     <g id="line2d_16">
      <path clip-path="url(#p70c00398e4)" d="M 268.448754 384 
L 268.448754 3 
" style="fill:none;stroke:#000000;stroke-dasharray:1.000000,3.000000;stroke-dashoffset:0.0;stroke-width:0.5;"/>
     </g>
     <g id="line2d_17">
      <g>
       <use style="stroke:#000000;stroke-width:0.5;" x="268.448753608" xlink:href="#md44482b27a" y="384.0"/>
      </g>
     </g>
     <g id="line2d_18">
      <g>
       <use style="stroke:#000000;stroke-width:0.5;" x="268.448753608" xlink:href="#m1a830a9033" y="3.0"/>
      </g>
     </g>
     <g id="text_4">
      <!-- 0 -->
      <defs>
       <path d="M 31.78125 66.40625 
Q 24.171875 66.40625 20.328125 58.90625 
Q 16.5 51.421875 16.5 36.375 
Q 16.5 21.390625 20.328125 13.890625 
Q 24.171875 6.390625 31.78125 6.390625 
Q 39.453125 6.390625 43.28125 13.890625 
Q 47.125 21.390625 47.125 36.375 
Q 47.125 51.421875 43.28125 58.90625 
Q 39.453125 66.40625 31.78125 66.40625 
M 31.78125 74.21875 
Q 44.046875 74.21875 50.515625 64.515625 
Q 56.984375 54.828125 56.984375 36.375 
Q 56.984375 17.96875 50.515625 8.265625 
Q 44.046875 -1.421875 31.78125 -1.421875 
Q 19.53125 -1.421875 13.0625 8.265625 
Q 6.59375 17.96875 6.59375 36.375 
Q 6.59375 54.828125 13.0625 64.515625 
Q 19.53125 74.21875 31.78125 74.21875 
" id="BitstreamVeraSans-Roman-30"/>
      </defs>
      <g transform="translate(262.086253608 403.196875)scale(0.2 -0.2)">
       <use xlink:href="#BitstreamVeraSans-Roman-30"/>
      </g>
     </g>
    </g>
    <g id="xtick_6">
     <g id="line2d_19">
      <path clip-path="url(#p70c00398e4)" d="M 334.846808 384 
L 334.846808 3 
" style="fill:none;stroke:#000000;stroke-dasharray:1.000000,3.000000;stroke-dashoffset:0.0;stroke-width:0.5;"/>
     </g>
     <g id="line2d_20">
      <g>
       <use style="stroke:#000000;stroke-width:0.5;" x="334.846808362" xlink:href="#md44482b27a" y="384.0"/>
      </g>
     </g>
     <g id="line2d_21">
      <g>
       <use style="stroke:#000000;stroke-width:0.5;" x="334.846808362" xlink:href="#m1a830a9033" y="3.0"/>
      </g>
     </g>
     <g id="text_5">
      <!-- 2 -->
      <g transform="translate(328.484308362 403.196875)scale(0.2 -0.2)">
       <use xlink:href="#BitstreamVeraSans-Roman-32"/>
      </g>
     </g>
    </g>
    <g id="xtick_7">
     <g id="line2d_22">
      <path clip-path="url(#p70c00398e4)" d="M 401.244863 384 
L 401.244863 3 
" style="fill:none;stroke:#000000;stroke-dasharray:1.000000,3.000000;stroke-dashoffset:0.0;stroke-width:0.5;"/>
     </g>
     <g id="line2d_23">
      <g>
       <use style="stroke:#000000;stroke-width:0.5;" x="401.244863116" xlink:href="#md44482b27a" y="384.0"/>
      </g>
     </g>
     <g id="line2d_24">
      <g>
       <use style="stroke:#000000;stroke-width:0.5;" x="401.244863116" xlink:href="#m1a830a9033" y="3.0"/>
      </g>
     </g>
     <g id="text_6">
      <!-- 4 -->
      <g transform="translate(394.882363116 403.196875)scale(0.2 -0.2)">
       <use xlink:href="#BitstreamVeraSans-Roman-34"/>
      </g>
     </g>
    </g>
    <g id="xtick_8">
     <g id="line2d_25">
      <path clip-path="url(#p70c00398e4)" d="M 467.642918 384 
L 467.642918 3 
" style="fill:none;stroke:#000000;stroke-dasharray:1.000000,3.000000;stroke-dashoffset:0.0;stroke-width:0.5;"/>
     </g>
     <g id="line2d_26">
      <g>
       <use style="stroke:#000000;stroke-width:0.5;" x="467.642917869" xlink:href="#md44482b27a" y="384.0"/>
      </g>
     </g>
     <g id="line2d_27">
      <g>
       <use style="stroke:#000000;stroke-width:0.5;" x="467.642917869" xlink:href="#m1a830a9033" y="3.0"/>
      </g>
     </g>
     <g id="text_7">
      <!-- 6 -->
      <g transform="translate(461.280417869 403.196875)scale(0.2 -0.2)">
       <use xlink:href="#BitstreamVeraSans-Roman-36"/>
      </g>
     </g>
    </g>
    <g id="xtick_9">
     <g id="line2d_28">
      <path clip-path="url(#p70c00398e4)" d="M 534.040973 384 
L 534.040973 3 
" style="fill:none;stroke:#000000;stroke-dasharray:1.000000,3.000000;stroke-dashoffset:0.0;stroke-width:0.5;"/>
     </g>
     <g id="line2d_29">
      <g>
       <use style="stroke:#000000;stroke-width:0.5;" x="534.040972623" xlink:href="#md44482b27a" y="384.0"/>
      </g>
     </g>
     <g id="line2d_30">
      <g>
       <use style="stroke:#000000;stroke-width:0.5;" x="534.040972623" xlink:href="#m1a830a9033" y="3.0"/>
      </g>
     </g>
     <g id="text_8">
      <!-- 8 -->
      <defs>
       <path d="M 31.78125 34.625 
Q 24.75 34.625 20.71875 30.859375 
Q 16.703125 27.09375 16.703125 20.515625 
Q 16.703125 13.921875 20.71875 10.15625 
Q 24.75 6.390625 31.78125 6.390625 
Q 38.8125 6.390625 42.859375 10.171875 
Q 46.921875 13.96875 46.921875 20.515625 
Q 46.921875 27.09375 42.890625 30.859375 
Q 38.875 34.625 31.78125 34.625 
M 21.921875 38.8125 
Q 15.578125 40.375 12.03125 44.71875 
Q 8.5 49.078125 8.5 55.328125 
Q 8.5 64.0625 14.71875 69.140625 
Q 20.953125 74.21875 31.78125 74.21875 
Q 42.671875 74.21875 48.875 69.140625 
Q 55.078125 64.0625 55.078125 55.328125 
Q 55.078125 49.078125 51.53125 44.71875 
Q 48 40.375 41.703125 38.8125 
Q 48.828125 37.15625 52.796875 32.3125 
Q 56.78125 27.484375 56.78125 20.515625 
Q 56.78125 9.90625 50.3125 4.234375 
Q 43.84375 -1.421875 31.78125 -1.421875 
Q 19.734375 -1.421875 13.25 4.234375 
Q 6.78125 9.90625 6.78125 20.515625 
Q 6.78125 27.484375 10.78125 32.3125 
Q 14.796875 37.15625 21.921875 38.8125 
M 18.3125 54.390625 
Q 18.3125 48.734375 21.84375 45.5625 
Q 25.390625 42.390625 31.78125 42.390625 
Q 38.140625 42.390625 41.71875 45.5625 
Q 45.3125 48.734375 45.3125 54.390625 
Q 45.3125 60.0625 41.71875 63.234375 
Q 38.140625 66.40625 31.78125 66.40625 
Q 25.390625 66.40625 21.84375 63.234375 
Q 18.3125 60.0625 18.3125 54.390625 
" id="BitstreamVeraSans-Roman-38"/>
      </defs>
      <g transform="translate(527.678472623 403.196875)scale(0.2 -0.2)">
       <use xlink:href="#BitstreamVeraSans-Roman-38"/>
      </g>
     </g>
    </g>
    <g id="xtick_10"/>
    <g id="xtick_11">
     <g id="line2d_31">
      <defs>
       <path d="M 0 0 
L 0 -2 
" id="m9243c47544" style="stroke:#000000;stroke-width:0.5;"/>
      </defs>
      <g>
       <use style="stroke:#000000;stroke-width:0.5;" x="69.2545893472" xlink:href="#m9243c47544" y="384.0"/>
      </g>
     </g>
     <g id="line2d_32">
      <defs>
       <path d="M 0 0 
L 0 2 
" id="mc954a53bbc" style="stroke:#000000;stroke-width:0.5;"/>
      </defs>
      <g>
       <use style="stroke:#000000;stroke-width:0.5;" x="69.2545893472" xlink:href="#mc954a53bbc" y="3.0"/>
      </g>
     </g>
    </g>
    <g id="xtick_12">
     <g id="line2d_33">
      <g>
       <use style="stroke:#000000;stroke-width:0.5;" x="135.652644101" xlink:href="#m9243c47544" y="384.0"/>
      </g>
     </g>
     <g id="line2d_34">
      <g>
       <use style="stroke:#000000;stroke-width:0.5;" x="135.652644101" xlink:href="#mc954a53bbc" y="3.0"/>
      </g>
     </g>
    </g>
    <g id="xtick_13">
     <g id="line2d_35">
      <g>
       <use style="stroke:#000000;stroke-width:0.5;" x="202.050698855" xlink:href="#m9243c47544" y="384.0"/>
      </g>
     </g>
     <g id="line2d_36">
      <g>
       <use style="stroke:#000000;stroke-width:0.5;" x="202.050698855" xlink:href="#mc954a53bbc" y="3.0"/>
      </g>
     </g>
    </g>
    <g id="xtick_14">
     <g id="line2d_37">
      <g>
       <use style="stroke:#000000;stroke-width:0.5;" x="268.448753608" xlink:href="#m9243c47544" y="384.0"/>
      </g>
     </g>
     <g id="line2d_38">
      <g>
       <use style="stroke:#000000;stroke-width:0.5;" x="268.448753608" xlink:href="#mc954a53bbc" y="3.0"/>
      </g>
     </g>
    </g>
    <g id="xtick_15">
     <g id="line2d_39">
      <g>
       <use style="stroke:#000000;stroke-width:0.5;" x="334.846808362" xlink:href="#m9243c47544" y="384.0"/>
      </g>
     </g>
     <g id="line2d_40">
      <g>
       <use style="stroke:#000000;stroke-width:0.5;" x="334.846808362" xlink:href="#mc954a53bbc" y="3.0"/>
      </g>
     </g>
    </g>
    <g id="xtick_16">
     <g id="line2d_41">
      <g>
       <use style="stroke:#000000;stroke-width:0.5;" x="401.244863116" xlink:href="#m9243c47544" y="384.0"/>
      </g>
     </g>
     <g id="line2d_42">
      <g>
       <use style="stroke:#000000;stroke-width:0.5;" x="401.244863116" xlink:href="#mc954a53bbc" y="3.0"/>
      </g>
     </g>
    </g>
    <g id="xtick_17">
     <g id="line2d_43">
      <g>
       <use style="stroke:#000000;stroke-width:0.5;" x="467.642917869" xlink:href="#m9243c47544" y="384.0"/>
      </g>
     </g>
     <g id="line2d_44">
      <g>
       <use style="stroke:#000000;stroke-width:0.5;" x="467.642917869" xlink:href="#mc954a53bbc" y="3.0"/>
      </g>
     </g>
    </g>
    <g id="xtick_18">
     <g id="line2d_45">
      <g>
       <use style="stroke:#000000;stroke-width:0.5;" x="534.040972623" xlink:href="#m9243c47544" y="384.0"/>
      </g>
     </g>
     <g id="line2d_46">
      <g>
       <use style="stroke:#000000;stroke-width:0.5;" x="534.040972623" xlink:href="#mc954a53bbc" y="3.0"/>
      </g>
     </g>
    </g>
    <g id="text_9">
     <!-- log10 of Df -->
     <defs>
      <path id="BitstreamVeraSans-Roman-20"/>
      <path d="M 12.40625 8.296875 
L 28.515625 8.296875 
L 28.515625 63.921875 
L 10.984375 60.40625 
L 10.984375 69.390625 
L 28.421875 72.90625 
L 38.28125 72.90625 
L 38.28125 8.296875 
L 54.390625 8.296875 
L 54.390625 0 
L 12.40625 0 
z
" id="BitstreamVeraSans-Roman-31"/>
      <path d="M 30.609375 48.390625 
Q 23.390625 48.390625 19.1875 42.75 
Q 14.984375 37.109375 14.984375 27.296875 
Q 14.984375 17.484375 19.15625 11.84375 
Q 23.34375 6.203125 30.609375 6.203125 
Q 37.796875 6.203125 41.984375 11.859375 
Q 46.1875 17.53125 46.1875 27.296875 
Q 46.1875 37.015625 41.984375 42.703125 
Q 37.796875 48.390625 30.609375 48.390625 
M 30.609375 56 
Q 42.328125 56 49.015625 48.375 
Q 55.71875 40.765625 55.71875 27.296875 
Q 55.71875 13.875 49.015625 6.21875 
Q 42.328125 -1.421875 30.609375 -1.421875 
Q 18.84375 -1.421875 12.171875 6.21875 
Q 5.515625 13.875 5.515625 27.296875 
Q 5.515625 40.765625 12.171875 48.375 
Q 18.84375 56 30.609375 56 
" id="BitstreamVeraSans-Roman-6f"/>
      <path d="M 9.421875 75.984375 
L 18.40625 75.984375 
L 18.40625 0 
L 9.421875 0 
z
" id="BitstreamVeraSans-Roman-6c"/>
      <path d="M 19.671875 64.796875 
L 19.671875 8.109375 
L 31.59375 8.109375 
Q 46.6875 8.109375 53.6875 14.9375 
Q 60.6875 21.78125 60.6875 36.53125 
Q 60.6875 51.171875 53.6875 57.984375 
Q 46.6875 64.796875 31.59375 64.796875 
z
M 9.8125 72.90625 
L 30.078125 72.90625 
Q 51.265625 72.90625 61.171875 64.09375 
Q 71.09375 55.28125 71.09375 36.53125 
Q 71.09375 17.671875 61.125 8.828125 
Q 51.171875 0 30.078125 0 
L 9.8125 0 
z
" id="BitstreamVeraSans-Roman-44"/>
      <path d="M 45.40625 27.984375 
Q 45.40625 37.75 41.375 43.109375 
Q 37.359375 48.484375 30.078125 48.484375 
Q 22.859375 48.484375 18.828125 43.109375 
Q 14.796875 37.75 14.796875 27.984375 
Q 14.796875 18.265625 18.828125 12.890625 
Q 22.859375 7.515625 30.078125 7.515625 
Q 37.359375 7.515625 41.375 12.890625 
Q 45.40625 18.265625 45.40625 27.984375 
M 54.390625 6.78125 
Q 54.390625 -7.171875 48.1875 -13.984375 
Q 42 -20.796875 29.203125 -20.796875 
Q 24.46875 -20.796875 20.265625 -20.09375 
Q 16.0625 -19.390625 12.109375 -17.921875 
L 12.109375 -9.1875 
Q 16.0625 -11.328125 19.921875 -12.34375 
Q 23.78125 -13.375 27.78125 -13.375 
Q 36.625 -13.375 41.015625 -8.765625 
Q 45.40625 -4.15625 45.40625 5.171875 
L 45.40625 9.625 
Q 42.625 4.78125 38.28125 2.390625 
Q 33.9375 0 27.875 0 
Q 17.828125 0 11.671875 7.65625 
Q 5.515625 15.328125 5.515625 27.984375 
Q 5.515625 40.671875 11.671875 48.328125 
Q 17.828125 56 27.875 56 
Q 33.9375 56 38.28125 53.609375 
Q 42.625 51.21875 45.40625 46.390625 
L 45.40625 54.6875 
L 54.390625 54.6875 
z
" id="BitstreamVeraSans-Roman-67"/>
      <path d="M 37.109375 75.984375 
L 37.109375 68.5 
L 28.515625 68.5 
Q 23.6875 68.5 21.796875 66.546875 
Q 19.921875 64.59375 19.921875 59.515625 
L 19.921875 54.6875 
L 34.71875 54.6875 
L 34.71875 47.703125 
L 19.921875 47.703125 
L 19.921875 0 
L 10.890625 0 
L 10.890625 47.703125 
L 2.296875 47.703125 
L 2.296875 54.6875 
L 10.890625 54.6875 
L 10.890625 58.5 
Q 10.890625 67.625 15.140625 71.796875 
Q 19.390625 75.984375 28.609375 75.984375 
z
" id="BitstreamVeraSans-Roman-66"/>
     </defs>
     <g transform="translate(229.9340625 427.553125)scale(0.2 -0.2)">
      <use xlink:href="#BitstreamVeraSans-Roman-6c"/>
      <use x="27.783203125" xlink:href="#BitstreamVeraSans-Roman-6f"/>
      <use x="88.96484375" xlink:href="#BitstreamVeraSans-Roman-67"/>
      <use x="152.44140625" xlink:href="#BitstreamVeraSans-Roman-31"/>
      <use x="216.064453125" xlink:href="#BitstreamVeraSans-Roman-30"/>
      <use x="279.6875" xlink:href="#BitstreamVeraSans-Roman-20"/>
      <use x="311.474609375" xlink:href="#BitstreamVeraSans-Roman-6f"/>
      <use x="372.65625" xlink:href="#BitstreamVeraSans-Roman-66"/>
      <use x="407.861328125" xlink:href="#BitstreamVeraSans-Roman-20"/>
      <use x="439.6484375" xlink:href="#BitstreamVeraSans-Roman-44"/>
      <use x="516.650390625" xlink:href="#BitstreamVeraSans-Roman-66"/>
     </g>
    </g>
   </g>
   <g id="matplotlib.axis_2">
    <g id="ytick_1">
     <g id="line2d_47">
      <path clip-path="url(#p70c00398e4)" d="M 3 384 
L 567.24 384 
" style="fill:none;stroke:#000000;stroke-dasharray:1.000000,3.000000;stroke-dashoffset:0.0;stroke-width:0.5;"/>
     </g>
     <g id="line2d_48">
      <defs>
       <path d="M 0 0 
L 4 0 
" id="ma9f7cf601d" style="stroke:#000000;stroke-width:0.5;"/>
      </defs>
      <g>
       <use style="stroke:#000000;stroke-width:0.5;" x="3.0" xlink:href="#ma9f7cf601d" y="384.0"/>
      </g>
     </g>
     <g id="line2d_49">
      <defs>
       <path d="M 0 0 
L -4 0 
" id="mefcda5f6c7" style="stroke:#000000;stroke-width:0.5;"/>
      </defs>
      <g>
       <use style="stroke:#000000;stroke-width:0.5;" x="567.24" xlink:href="#mefcda5f6c7" y="384.0"/>
      </g>
     </g>
    </g>
    <g id="ytick_2">
     <g id="line2d_50">
      <path clip-path="url(#p70c00398e4)" d="M 3 308.554455 
L 567.24 308.554455 
" style="fill:none;stroke:#000000;stroke-dasharray:1.000000,3.000000;stroke-dashoffset:0.0;stroke-width:0.5;"/>
     </g>
     <g id="line2d_51">
      <g>
       <use style="stroke:#000000;stroke-width:0.5;" x="3.0" xlink:href="#ma9f7cf601d" y="308.554455446"/>
      </g>
     </g>
     <g id="line2d_52">
      <g>
       <use style="stroke:#000000;stroke-width:0.5;" x="567.24" xlink:href="#mefcda5f6c7" y="308.554455446"/>
      </g>
     </g>
    </g>
    <g id="ytick_3">
     <g id="line2d_53">
      <path clip-path="url(#p70c00398e4)" d="M 3 233.108911 
L 567.24 233.108911 
" style="fill:none;stroke:#000000;stroke-dasharray:1.000000,3.000000;stroke-dashoffset:0.0;stroke-width:0.5;"/>
     </g>
     <g id="line2d_54">
      <g>
       <use style="stroke:#000000;stroke-width:0.5;" x="3.0" xlink:href="#ma9f7cf601d" y="233.108910891"/>
      </g>
     </g>
     <g id="line2d_55">
      <g>
       <use style="stroke:#000000;stroke-width:0.5;" x="567.24" xlink:href="#mefcda5f6c7" y="233.108910891"/>
      </g>
     </g>
    </g>
    <g id="ytick_4">
     <g id="line2d_56">
      <path clip-path="url(#p70c00398e4)" d="M 3 157.663366 
L 567.24 157.663366 
" style="fill:none;stroke:#000000;stroke-dasharray:1.000000,3.000000;stroke-dashoffset:0.0;stroke-width:0.5;"/>
     </g>
     <g id="line2d_57">
      <g>
       <use style="stroke:#000000;stroke-width:0.5;" x="3.0" xlink:href="#ma9f7cf601d" y="157.663366337"/>
      </g>
     </g>
     <g id="line2d_58">
      <g>
       <use style="stroke:#000000;stroke-width:0.5;" x="567.24" xlink:href="#mefcda5f6c7" y="157.663366337"/>
      </g>
     </g>
    </g>
    <g id="ytick_5">
     <g id="line2d_59">
      <path clip-path="url(#p70c00398e4)" d="M 3 82.217822 
L 567.24 82.217822 
" style="fill:none;stroke:#000000;stroke-dasharray:1.000000,3.000000;stroke-dashoffset:0.0;stroke-width:0.5;"/>
     </g>
     <g id="line2d_60">
      <g>
       <use style="stroke:#000000;stroke-width:0.5;" x="3.0" xlink:href="#ma9f7cf601d" y="82.2178217822"/>
      </g>
     </g>
     <g id="line2d_61">
      <g>
       <use style="stroke:#000000;stroke-width:0.5;" x="567.24" xlink:href="#mefcda5f6c7" y="82.2178217822"/>
      </g>
     </g>
    </g>
    <g id="ytick_6">
     <g id="line2d_62">
      <path clip-path="url(#p70c00398e4)" d="M 3 6.772277 
L 567.24 6.772277 
" style="fill:none;stroke:#000000;stroke-dasharray:1.000000,3.000000;stroke-dashoffset:0.0;stroke-width:0.5;"/>
     </g>
     <g id="line2d_63">
      <g>
       <use style="stroke:#000000;stroke-width:0.5;" x="3.0" xlink:href="#ma9f7cf601d" y="6.77227722772"/>
      </g>
     </g>
     <g id="line2d_64">
      <g>
       <use style="stroke:#000000;stroke-width:0.5;" x="567.24" xlink:href="#mefcda5f6c7" y="6.77227722772"/>
      </g>
     </g>
    </g>
   </g>
   <g id="text_10">
    <!-- {f10-f14}, 5-D -->
    <defs>
     <path d="M 12.5 -9.28125 
L 15.921875 -9.28125 
Q 22.75 -9.28125 24.828125 -7.171875 
Q 26.90625 -5.078125 26.90625 1.90625 
L 26.90625 14.015625 
Q 26.90625 21.625 29.09375 25.09375 
Q 31.296875 28.5625 36.71875 29.890625 
Q 31.296875 31.109375 29.09375 34.5625 
Q 26.90625 38.03125 26.90625 45.703125 
L 26.90625 57.8125 
Q 26.90625 64.75 24.828125 66.875 
Q 22.75 69 15.921875 69 
L 12.5 69 
L 12.5 75.984375 
L 15.578125 75.984375 
Q 27.734375 75.984375 31.8125 72.390625 
Q 35.890625 68.796875 35.890625 58.015625 
L 35.890625 46.296875 
Q 35.890625 39.015625 38.515625 36.203125 
Q 41.15625 33.40625 48.09375 33.40625 
L 51.125 33.40625 
L 51.125 26.421875 
L 48.09375 26.421875 
Q 41.15625 26.421875 38.515625 23.578125 
Q 35.890625 20.75 35.890625 13.375 
L 35.890625 1.703125 
Q 35.890625 -9.078125 31.8125 -12.6875 
Q 27.734375 -16.3125 15.578125 -16.3125 
L 12.5 -16.3125 
z
" id="BitstreamVeraSans-Roman-7d"/>
     <path d="M 51.125 -9.28125 
L 51.125 -16.3125 
L 48.09375 -16.3125 
Q 35.9375 -16.3125 31.8125 -12.6875 
Q 27.6875 -9.078125 27.6875 1.703125 
L 27.6875 13.375 
Q 27.6875 20.75 25.046875 23.578125 
Q 22.40625 26.421875 15.484375 26.421875 
L 12.5 26.421875 
L 12.5 33.40625 
L 15.484375 33.40625 
Q 22.46875 33.40625 25.078125 36.203125 
Q 27.6875 39.015625 27.6875 46.296875 
L 27.6875 58.015625 
Q 27.6875 68.796875 31.8125 72.390625 
Q 35.9375 75.984375 48.09375 75.984375 
L 51.125 75.984375 
L 51.125 69 
L 47.796875 69 
Q 40.921875 69 38.8125 66.84375 
Q 36.71875 64.703125 36.71875 57.8125 
L 36.71875 45.703125 
Q 36.71875 38.03125 34.5 34.5625 
Q 32.28125 31.109375 26.90625 29.890625 
Q 32.328125 28.5625 34.515625 25.09375 
Q 36.71875 21.625 36.71875 14.015625 
L 36.71875 1.90625 
Q 36.71875 -4.984375 38.8125 -7.125 
Q 40.921875 -9.28125 47.796875 -9.28125 
z
" id="BitstreamVeraSans-Roman-7b"/>
     <path d="M 11.71875 12.40625 
L 22.015625 12.40625 
L 22.015625 4 
L 14.015625 -11.625 
L 7.71875 -11.625 
L 11.71875 4 
z
" id="BitstreamVeraSans-Roman-2c"/>
     <path d="M 10.796875 72.90625 
L 49.515625 72.90625 
L 49.515625 64.59375 
L 19.828125 64.59375 
L 19.828125 46.734375 
Q 21.96875 47.46875 24.109375 47.828125 
Q 26.265625 48.1875 28.421875 48.1875 
Q 40.625 48.1875 47.75 41.5 
Q 54.890625 34.8125 54.890625 23.390625 
Q 54.890625 11.625 47.5625 5.09375 
Q 40.234375 -1.421875 26.90625 -1.421875 
Q 22.3125 -1.421875 17.546875 -0.640625 
Q 12.796875 0.140625 7.71875 1.703125 
L 7.71875 11.625 
Q 12.109375 9.234375 16.796875 8.0625 
Q 21.484375 6.890625 26.703125 6.890625 
Q 35.15625 6.890625 40.078125 11.328125 
Q 45.015625 15.765625 45.015625 23.390625 
Q 45.015625 31 40.078125 35.4375 
Q 35.15625 39.890625 26.703125 39.890625 
Q 22.75 39.890625 18.8125 39.015625 
Q 14.890625 38.140625 10.796875 36.28125 
z
" id="BitstreamVeraSans-Roman-35"/>
    </defs>
    <g transform="translate(410.2552 376.38)scale(0.2 -0.2)">
     <use xlink:href="#BitstreamVeraSans-Roman-7b"/>
     <use x="63.623046875" xlink:href="#BitstreamVeraSans-Roman-66"/>
     <use x="98.828125" xlink:href="#BitstreamVeraSans-Roman-31"/>
     <use x="162.451171875" xlink:href="#BitstreamVeraSans-Roman-30"/>
     <use x="226.07421875" xlink:href="#BitstreamVeraSans-Roman-2d"/>
     <use x="262.158203125" xlink:href="#BitstreamVeraSans-Roman-66"/>
     <use x="297.36328125" xlink:href="#BitstreamVeraSans-Roman-31"/>
     <use x="360.986328125" xlink:href="#BitstreamVeraSans-Roman-34"/>
     <use x="424.609375" xlink:href="#BitstreamVeraSans-Roman-7d"/>
     <use x="488.232421875" xlink:href="#BitstreamVeraSans-Roman-2c"/>
     <use x="520.01953125" xlink:href="#BitstreamVeraSans-Roman-20"/>
     <use x="551.806640625" xlink:href="#BitstreamVeraSans-Roman-35"/>
     <use x="615.4296875" xlink:href="#BitstreamVeraSans-Roman-2d"/>
     <use x="651.513671875" xlink:href="#BitstreamVeraSans-Roman-44"/>
    </g>
   </g>
   <g id="text_11">
    <!-- v2.2.1.10 -->
    <defs>
     <path d="M 2.984375 54.6875 
L 12.5 54.6875 
L 29.59375 8.796875 
L 46.6875 54.6875 
L 56.203125 54.6875 
L 35.6875 0 
L 23.484375 0 
z
" id="BitstreamVeraSans-Roman-76"/>
     <path d="M 10.6875 12.40625 
L 21 12.40625 
L 21 0 
L 10.6875 0 
z
" id="BitstreamVeraSans-Roman-2e"/>
    </defs>
    <g style="fill:#808080;" transform="translate(261.4871875 378.1103125)scale(0.1 -0.1)">
     <use xlink:href="#BitstreamVeraSans-Roman-76"/>
     <use x="59.1796875" xlink:href="#BitstreamVeraSans-Roman-32"/>
     <use x="122.802734375" xlink:href="#BitstreamVeraSans-Roman-2e"/>
     <use x="154.58984375" xlink:href="#BitstreamVeraSans-Roman-32"/>
     <use x="218.212890625" xlink:href="#BitstreamVeraSans-Roman-2e"/>
     <use x="250.0" xlink:href="#BitstreamVeraSans-Roman-31"/>
     <use x="313.623046875" xlink:href="#BitstreamVeraSans-Roman-2e"/>
     <use x="345.41015625" xlink:href="#BitstreamVeraSans-Roman-31"/>
     <use x="409.033203125" xlink:href="#BitstreamVeraSans-Roman-30"/>
    </g>
   </g>
  </g>
 </g>
 <defs>
  <clipPath id="p70c00398e4">
   <rect height="381.0" width="564.24" x="3.0" y="3.0"/>
  </clipPath>
 </defs>
</svg>
