<?xml version="1.0" encoding="utf-8" standalone="no"?>
<!DOCTYPE svg PUBLIC "-//W3C//DTD SVG 1.1//EN"
  "http://www.w3.org/Graphics/SVG/1.1/DTD/svg11.dtd">
<!-- Created with matplotlib (http://matplotlib.org/) -->
<svg height="432pt" version="1.1" viewBox="0 0 576 432" width="576pt" xmlns="http://www.w3.org/2000/svg" xmlns:xlink="http://www.w3.org/1999/xlink">
 <defs>
  <style type="text/css">
*{stroke-linecap:butt;stroke-linejoin:round;stroke-miterlimit:100000;}
  </style>
 </defs>
 <g id="figure_1">
  <g id="patch_1">
   <path d="M 0 432 
L 576 432 
L 576 0 
L 0 0 
z
" style="fill:#ffffff;"/>
  </g>
  <g id="axes_1">
   <g id="patch_2">
    <path d="M 55.425 384 
L 567.24 384 
L 567.24 7.678218 
L 55.425 7.678218 
z
" style="fill:#ffffff;"/>
   </g>
   <g id="line2d_1">
    <path clip-path="url(#pc33dd9d369)" d="M 329.947754 384 
L 329.947754 382.965012 
L 329.947754 382.965012 
L 329.947754 382.965012 
L 329.947754 381.930023 
L 329.947754 381.930023 
L 329.947754 381.930023 
L 329.947754 380.895035 
L 329.947754 380.895035 
L 329.947754 380.895035 
L 329.947754 379.860046 
L 329.947754 379.860046 
L 329.947754 379.860046 
L 329.947754 378.825058 
L 329.947754 378.825058 
L 329.947754 378.825058 
L 329.947754 377.79007 
L 329.947754 377.79007 
L 329.947754 377.79007 
L 329.947754 376.755081 
L 329.947754 376.755081 
L 329.947754 376.755081 
L 329.947754 375.720093 
L 329.947754 375.720093 
L 329.947754 375.720093 
L 329.947754 374.685104 
L 329.947754 374.685104 
L 329.947754 374.685104 
L 329.947754 373.650116 
L 329.947754 373.650116 
L 329.947754 373.650116 
L 329.947754 372.615128 
L 329.947754 372.615128 
L 329.947754 372.615128 
L 329.947754 371.580139 
L 329.947754 371.580139 
L 329.947754 371.580139 
L 329.947754 370.545151 
L 329.947754 370.545151 
L 329.947754 370.545151 
L 329.947754 369.510162 
L 329.947754 369.510162 
L 329.947754 369.510162 
L 329.947754 368.475174 
L 341.105719 368.475174 
L 341.105719 367.440186 
L 346.235861 367.440186 
L 346.235861 365.370209 
L 351.107228 365.370209 
L 351.107228 361.230255 
L 355.744678 361.230255 
L 355.744678 358.12529 
L 360.169649 358.12529 
L 360.169649 353.985336 
L 364.400762 353.985336 
L 364.400762 352.950348 
L 562.995553 352.950348 
L 562.995553 351.91536 
L 570.632143 351.91536 
L 570.632143 350.880371 
L 573.525387 350.880371 
L 573.525387 348.810394 
L 574.940147 348.810394 
L 574.940147 347.775406 
L 575.407167 347.775406 
L 575.407167 346.740418 
L 575.871939 346.740418 
L 575.871939 345.705429 
L 577 345.705429 
L 577 345.705429 
" style="fill:none;stroke:#f5deb3;stroke-linecap:square;"/>
   </g>
   <g id="line2d_2">
    <path clip-path="url(#pc33dd9d369)" d="M 647.313051 384 
" style="fill:none;stroke:#f5deb3;stroke-linecap:square;"/>
   </g>
   <g id="line2d_3">
    <path clip-path="url(#pc33dd9d369)" d="M 292.595249 384 
L 292.595249 382.965012 
L 292.595249 382.965012 
L 292.595249 382.965012 
L 292.595249 381.930023 
L 292.595249 381.930023 
L 292.595249 381.930023 
L 292.595249 380.895035 
L 292.595249 380.895035 
L 292.595249 380.895035 
L 292.595249 379.860046 
L 293.008932 379.860046 
L 293.008932 378.825058 
L 293.420852 378.825058 
L 293.420852 369.510162 
L 293.831022 369.510162 
L 293.831022 368.475174 
L 294.239458 368.475174 
L 294.239458 367.440186 
L 295.051186 367.440186 
L 295.051186 366.405197 
L 299.01055 366.405197 
L 299.01055 365.370209 
L 300.549945 365.370209 
L 300.549945 364.33522 
L 303.557036 364.33522 
L 303.557036 362.265244 
L 304.66099 362.265244 
L 304.66099 361.230255 
L 305.026189 361.230255 
L 305.026189 360.195267 
L 305.390012 360.195267 
L 305.390012 359.160278 
L 307.188854 359.160278 
L 307.188854 358.12529 
L 307.544637 358.12529 
L 307.544637 357.090302 
L 308.60419 357.090302 
L 308.60419 356.055313 
L 311.714852 356.055313 
L 311.714852 355.020325 
L 317.009052 355.020325 
L 317.009052 353.985336 
L 321.10668 353.985336 
L 321.10668 352.950348 
L 497.716621 352.950348 
L 497.716621 351.91536 
L 564.547112 351.91536 
L 564.547112 350.880371 
L 577 350.880371 
L 577 350.880371 
" style="fill:none;stroke:#f5deb3;stroke-linecap:square;"/>
   </g>
   <g id="line2d_4">
    <path clip-path="url(#pc33dd9d369)" d="M 222.694231 384 
L 222.694231 382.965012 
L 224.388923 382.965012 
L 224.388923 381.930023 
L 226.876485 381.930023 
L 226.876485 380.895035 
L 230.096616 380.895035 
L 230.096616 379.860046 
L 233.212853 379.860046 
L 233.212853 378.825058 
L 244.077661 378.825058 
L 244.077661 376.755081 
L 244.760314 376.755081 
L 244.760314 375.720093 
L 249.408392 375.720093 
L 249.408392 373.650116 
L 255.073565 373.650116 
L 255.073565 372.615128 
L 261.574762 372.615128 
L 261.574762 371.580139 
L 262.711187 371.580139 
L 262.711187 370.545151 
L 264.944696 370.545151 
L 264.944696 369.510162 
L 303.557036 369.510162 
L 303.557036 368.475174 
L 479.068324 368.475174 
L 479.068324 367.440186 
L 483.419655 367.440186 
L 483.419655 366.405197 
L 484.050061 366.405197 
L 484.050061 365.370209 
L 484.78982 365.370209 
L 484.78982 364.33522 
L 485.860916 364.33522 
L 485.860916 363.300232 
L 488.351328 363.300232 
L 488.351328 362.265244 
L 488.678584 362.265244 
L 488.678584 361.230255 
L 488.841798 361.230255 
L 488.841798 360.195267 
L 489.004735 360.195267 
L 489.004735 359.160278 
L 489.599834 359.160278 
L 489.599834 358.12529 
L 489.922894 358.12529 
L 490.030341 356.055313 
L 492.469203 356.055313 
L 492.469203 355.020325 
L 492.887137 355.020325 
L 492.887137 353.985336 
L 493.355162 353.985336 
L 493.355162 352.950348 
L 577 352.950348 
L 577 352.950348 
" style="fill:none;stroke:#f5deb3;stroke-linecap:square;"/>
   </g>
   <g id="line2d_5">
    <path clip-path="url(#pc33dd9d369)" d="M 399.6782 384 
L 399.6782 382.965012 
L 399.6782 382.965012 
L 399.6782 382.965012 
L 399.6782 381.930023 
L 406.415508 381.930023 
L 406.415508 380.895035 
L 409.182741 380.895035 
L 409.182741 379.860046 
L 412.832859 379.860046 
L 412.832859 378.825058 
L 431.650547 378.825058 
L 431.650547 377.79007 
L 441.275983 377.79007 
L 441.364888 375.720093 
L 441.896605 375.720093 
L 441.896605 374.685104 
L 445.963452 374.685104 
L 445.963452 373.650116 
L 452.752011 373.650116 
L 452.752011 372.615128 
L 462.223798 372.615128 
L 462.223798 371.580139 
L 469.464056 371.580139 
L 469.464056 370.545151 
L 470.192079 370.545151 
L 470.192079 369.510162 
L 477.857845 369.510162 
L 477.857845 368.475174 
L 494.899068 368.475174 
L 494.899068 367.440186 
L 502.552214 367.440186 
L 502.552214 366.405197 
L 510.124169 366.405197 
L 510.124169 365.370209 
L 510.515859 365.370209 
L 510.515859 364.33522 
L 510.949215 364.33522 
L 510.949215 363.300232 
L 511.208299 363.300232 
L 511.208299 362.265244 
L 511.46669 362.265244 
L 511.46669 360.195267 
L 511.767274 360.195267 
L 511.767274 359.160278 
L 512.408252 359.160278 
L 512.408252 358.12529 
L 512.705926 358.12529 
L 512.705926 357.090302 
L 513.129588 357.090302 
L 513.129588 356.055313 
L 515.26183 356.055313 
L 515.344496 353.985336 
L 516.167286 353.985336 
L 516.167286 352.950348 
L 517.912903 352.950348 
L 517.912903 351.91536 
L 577 351.91536 
L 577 351.91536 
" style="fill:none;stroke:#f5deb3;stroke-linecap:square;"/>
   </g>
   <g id="line2d_6"/>
   <g id="line2d_7">
    <path clip-path="url(#pc33dd9d369)" d="M 290.499831 384 
L 290.499831 382.965012 
L 310.344687 382.965012 
L 310.344687 381.930023 
L 312.054377 381.930023 
L 312.054377 380.895035 
L 313.400671 380.895035 
L 313.400671 379.860046 
L 313.734332 379.860046 
L 313.734332 378.825058 
L 314.728458 378.825058 
L 314.728458 377.79007 
L 316.362929 377.79007 
L 316.362929 375.720093 
L 317.009052 375.720093 
L 317.009052 374.685104 
L 325.628332 374.685104 
L 325.628332 373.650116 
L 328.5293 373.650116 
L 328.5293 372.615128 
L 331.067708 372.615128 
L 331.067708 371.580139 
L 333.541114 371.580139 
L 333.541114 370.545151 
L 347.182878 370.545151 
L 347.182878 368.475174 
L 511.208299 368.475174 
L 511.208299 367.440186 
L 527.444348 367.440186 
L 527.444348 366.405197 
L 528.6398 366.405197 
L 528.6398 365.370209 
L 531.057467 365.370209 
L 531.057467 364.33522 
L 531.652546 364.33522 
L 531.652546 363.300232 
L 531.93132 363.300232 
L 531.93132 362.265244 
L 532.382618 362.265244 
L 532.382618 361.230255 
L 532.624754 361.230255 
L 532.624754 360.195267 
L 533.244617 360.195267 
L 533.278938 358.12529 
L 534.709496 358.12529 
L 534.709496 357.090302 
L 535.651565 357.090302 
L 535.651565 356.055313 
L 536.55137 356.055313 
L 536.55137 355.020325 
L 538.910659 355.020325 
L 538.910659 353.985336 
L 539.780744 353.985336 
L 539.780744 352.950348 
L 540.228833 352.950348 
L 540.228833 351.91536 
L 577 351.91536 
L 577 351.91536 
" style="fill:none;stroke:#f5deb3;stroke-linecap:square;"/>
   </g>
   <g id="line2d_8">
    <path clip-path="url(#pc33dd9d369)" d="M 677.495616 384 
" style="fill:none;stroke:#f5deb3;stroke-linecap:square;"/>
   </g>
   <g id="line2d_9">
    <path clip-path="url(#pc33dd9d369)" d="M 280.69839 384 
L 280.69839 382.965012 
L 283.926208 382.965012 
L 283.926208 381.930023 
L 290.075237 381.930023 
L 290.075237 380.895035 
L 291.762528 380.895035 
L 291.762528 379.860046 
L 292.179786 379.860046 
L 292.179786 378.825058 
L 293.420852 378.825058 
L 293.420852 377.79007 
L 295.856148 377.79007 
L 295.856148 376.755081 
L 296.256128 376.755081 
L 296.256128 375.720093 
L 298.621838 375.720093 
L 298.621838 374.685104 
L 306.113574 374.685104 
L 306.113574 373.650116 
L 307.899114 373.650116 
L 307.899114 372.615128 
L 314.728458 372.615128 
L 314.728458 371.580139 
L 317.009052 371.580139 
L 317.009052 370.545151 
L 321.10668 370.545151 
L 321.10668 369.510162 
L 324.443102 369.510162 
L 324.443102 368.475174 
L 510.776106 368.475174 
L 510.776106 367.440186 
L 513.88753 367.440186 
L 513.88753 366.405197 
L 521.351091 366.405197 
L 521.351091 365.370209 
L 526.418291 365.370209 
L 526.418291 364.33522 
L 527.042553 364.33522 
L 527.042553 363.300232 
L 527.953317 363.300232 
L 527.953317 362.265244 
L 528.351349 362.265244 
L 528.351349 361.230255 
L 529.962795 361.230255 
L 530.069275 359.160278 
L 530.987217 359.160278 
L 530.987217 358.12529 
L 531.722315 358.12529 
L 531.722315 357.090302 
L 532.693825 357.090302 
L 532.693825 356.055313 
L 533.175939 356.055313 
L 533.175939 355.020325 
L 533.996865 355.020325 
L 533.996865 353.985336 
L 535.248946 353.985336 
L 535.248946 352.950348 
L 535.383339 352.950348 
L 535.383339 351.91536 
L 541.340045 351.91536 
L 541.340045 350.880371 
L 577 350.880371 
L 577 350.880371 
" style="fill:none;stroke:#f5deb3;stroke-linecap:square;"/>
   </g>
   <g id="line2d_10">
    <path clip-path="url(#pc33dd9d369)" d="M 354.004181 384 
L 354.004181 382.965012 
L 357.029774 382.965012 
L 357.029774 381.930023 
L 370.326348 381.930023 
L 370.326348 379.860046 
L 377.471562 379.860046 
L 377.471562 378.825058 
L 388.676474 378.825058 
L 388.676474 377.79007 
L 396.337406 377.79007 
L 396.337406 376.755081 
L 577 376.755081 
L 577 376.755081 
" style="fill:none;stroke:#f5deb3;stroke-linecap:square;"/>
   </g>
   <g id="line2d_11">
    <path clip-path="url(#pc33dd9d369)" d="M 206.945422 384 
L 206.945422 382.965012 
L 221.835603 382.965012 
L 221.835603 381.930023 
L 224.388923 381.930023 
L 224.388923 380.895035 
L 226.054395 380.895035 
L 226.054395 379.860046 
L 228.499968 379.860046 
L 228.499968 378.825058 
L 230.885151 378.825058 
L 230.885151 377.79007 
L 236.971887 377.79007 
L 236.971887 376.755081 
L 243.39015 376.755081 
L 243.39015 375.720093 
L 244.077661 375.720093 
L 244.077661 374.685104 
L 248.103035 374.685104 
L 248.103035 373.650116 
L 256.288612 373.650116 
L 256.288612 372.615128 
L 264.944696 372.615128 
L 264.944696 371.580139 
L 265.495097 371.580139 
L 265.495097 370.545151 
L 282.094969 370.545151 
L 282.094969 369.510162 
L 296.256128 369.510162 
L 296.256128 368.475174 
L 462.080482 368.475174 
L 462.080482 367.440186 
L 463.433475 367.440186 
L 463.433475 366.405197 
L 465.670217 366.405197 
L 465.670217 365.370209 
L 465.87728 365.370209 
L 465.87728 364.33522 
L 468.328024 364.33522 
L 468.328024 363.300232 
L 468.864292 363.300232 
L 468.864292 362.265244 
L 470.84919 362.265244 
L 470.84919 361.230255 
L 471.7617 361.230255 
L 471.7617 360.195267 
L 471.956121 360.195267 
L 471.956121 359.160278 
L 473.879111 359.160278 
L 473.879111 358.12529 
L 474.574724 358.12529 
L 474.574724 357.090302 
L 475.077497 357.090302 
L 475.077497 356.055313 
L 476.446778 356.055313 
L 476.446778 355.020325 
L 478.101157 355.020325 
L 478.101157 353.985336 
L 479.787397 353.985336 
L 479.787397 352.950348 
L 577 352.950348 
L 577 352.950348 
" style="fill:none;stroke:#f5deb3;stroke-linecap:square;"/>
   </g>
   <g id="line2d_12">
    <path clip-path="url(#pc33dd9d369)" d="M 129.36535 384 
L 129.36535 382.965012 
L 129.36535 382.965012 
L 129.36535 382.965012 
L 129.36535 381.930023 
L 129.36535 381.930023 
L 129.36535 381.930023 
L 129.36535 380.895035 
L 129.36535 380.895035 
L 129.36535 380.895035 
L 129.36535 379.860046 
L 129.36535 379.860046 
L 129.36535 379.860046 
L 129.36535 378.825058 
L 129.36535 378.825058 
L 129.36535 378.825058 
L 129.36535 377.79007 
L 129.36535 377.79007 
L 129.36535 377.79007 
L 129.36535 376.755081 
L 129.36535 376.755081 
L 129.36535 376.755081 
L 129.36535 375.720093 
L 129.36535 375.720093 
L 129.36535 375.720093 
L 129.36535 374.685104 
L 129.36535 374.685104 
L 129.36535 374.685104 
L 129.36535 373.650116 
L 129.36535 373.650116 
L 129.36535 373.650116 
L 129.36535 372.615128 
L 129.36535 372.615128 
L 129.36535 372.615128 
L 129.36535 371.580139 
L 129.36535 371.580139 
L 129.36535 371.580139 
L 129.36535 370.545151 
L 129.36535 370.545151 
L 129.36535 370.545151 
L 129.36535 369.510162 
L 129.36535 369.510162 
L 129.36535 369.510162 
L 129.36535 368.475174 
L 195.190109 368.475174 
L 195.190109 367.440186 
L 216.517105 367.440186 
L 216.517105 358.12529 
L 233.976454 358.12529 
L 233.976454 353.985336 
L 261.574762 353.985336 
L 261.574762 352.950348 
L 570.492184 352.950348 
L 570.492184 351.91536 
L 577 351.91536 
L 577 351.91536 
" style="fill:none;stroke:#f5deb3;stroke-linecap:square;"/>
   </g>
   <g id="line2d_13">
    <path clip-path="url(#pc33dd9d369)" d="M 493.147431 384 
L 493.147431 382.965012 
L 493.147431 382.965012 
L 493.147431 381.930023 
L 494.694634 381.930023 
L 494.694634 380.895035 
L 494.694634 380.895035 
L 494.694634 379.860046 
L 497.0199 379.860046 
L 497.0199 378.825058 
L 497.269306 378.825058 
L 497.269306 377.79007 
L 497.269306 377.79007 
L 497.269306 376.755081 
L 497.269306 376.755081 
L 497.269306 375.720093 
L 498.605084 375.720093 
L 498.605084 374.685104 
L 502.552214 374.685104 
L 502.552214 373.650116 
L 502.552214 373.650116 
L 502.552214 372.615128 
L 502.552214 372.615128 
L 502.552214 371.580139 
L 502.740692 371.580139 
L 502.740692 370.545151 
L 502.740692 370.545151 
L 502.740692 369.510162 
L 502.740692 369.510162 
L 502.740692 368.475174 
L 502.740692 368.475174 
L 502.740692 368.475174 
L 567.24 368.475174 
" style="fill:none;stroke:#f5deb3;stroke-linecap:square;"/>
   </g>
   <g id="line2d_14">
    <path clip-path="url(#pc33dd9d369)" d="M 256.890452 384 
L 256.890452 382.965012 
L 259.844657 382.965012 
L 259.844657 381.930023 
L 261.574762 381.930023 
L 261.574762 380.895035 
L 263.834397 380.895035 
L 263.834397 379.860046 
L 264.391142 379.860046 
L 264.391142 377.79007 
L 264.944696 377.79007 
L 264.944696 376.755081 
L 265.495097 376.755081 
L 265.495097 375.720093 
L 266.586577 375.720093 
L 266.586577 371.580139 
L 267.127727 371.580139 
L 267.127727 370.545151 
L 267.665862 370.545151 
L 267.665862 368.475174 
L 403.566656 368.475174 
L 403.566656 367.440186 
L 405.518136 367.440186 
L 405.518136 366.405197 
L 408.310827 366.405197 
L 408.310827 365.370209 
L 409.30666 365.370209 
L 409.30666 364.33522 
L 410.169671 364.33522 
L 410.169671 363.300232 
L 414.724621 363.300232 
L 414.724621 362.265244 
L 415.075238 362.265244 
L 415.075238 361.230255 
L 415.308278 361.230255 
L 415.308278 360.195267 
L 416.234856 360.195267 
L 416.234856 359.160278 
L 417.608267 359.160278 
L 417.608267 358.12529 
L 417.94859 358.12529 
L 417.94859 357.090302 
L 418.174808 357.090302 
L 418.174808 356.055313 
L 420.518649 356.055313 
L 420.518649 355.020325 
L 421.178003 355.020325 
L 421.178003 353.985336 
L 421.615085 353.985336 
L 421.615085 352.950348 
L 438.478549 352.950348 
L 438.478549 351.91536 
L 444.253762 351.91536 
L 444.253762 350.880371 
L 444.941273 350.880371 
L 444.941273 349.845383 
L 447.726643 349.845383 
L 447.726643 348.810394 
L 448.472554 348.810394 
L 448.472554 347.775406 
L 449.376469 347.775406 
L 449.376469 346.740418 
L 450.918127 346.740418 
L 450.918127 345.705429 
L 452.593918 345.705429 
L 452.593918 344.670441 
L 453.303309 344.670441 
L 453.303309 343.635452 
L 457.152224 343.635452 
L 457.152224 342.600464 
L 458.128318 342.600464 
L 458.128318 341.565476 
L 469.131313 341.565476 
L 469.131313 340.530487 
L 473.688525 340.530487 
L 473.688525 339.495499 
L 480.501156 339.495499 
L 480.501156 338.46051 
L 537.836466 338.46051 
L 537.836466 337.425522 
L 577 337.425522 
L 577 337.425522 
" style="fill:none;stroke:#f5deb3;stroke-linecap:square;"/>
   </g>
   <g id="line2d_15"/>
   <g id="line2d_16">
    <path clip-path="url(#pc33dd9d369)" d="M 513.467186 384 
L 513.467186 382.965012 
L 514.264283 382.965012 
L 514.264283 381.930023 
L 516.085321 381.930023 
L 516.085321 380.895035 
L 516.901852 380.895035 
L 516.901852 379.860046 
L 524.106761 379.860046 
L 524.106761 378.825058 
L 530.211066 378.825058 
L 530.211066 377.79007 
L 534.098992 377.79007 
L 534.098992 376.755081 
L 537.080658 376.755081 
L 537.080658 375.720093 
L 538.521424 375.720093 
L 538.521424 374.685104 
L 539.007723 374.685104 
L 539.007723 373.650116 
L 540.833648 373.650116 
L 540.833648 372.615128 
L 541.529261 372.615128 
L 541.529261 371.580139 
L 547.781079 371.580139 
L 547.781079 370.545151 
L 549.681752 370.545151 
L 549.681752 369.510162 
L 568.74914 369.510162 
L 568.74914 368.475174 
L 577 368.475174 
L 577 368.475174 
" style="fill:none;stroke:#f5deb3;stroke-linecap:square;"/>
   </g>
   <g id="line2d_17">
    <path clip-path="url(#pc33dd9d369)" d="M 560.387484 384 
L 560.387484 382.965012 
L 571.560056 382.965012 
L 571.560056 380.895035 
L 571.790648 380.895035 
L 571.790648 379.860046 
L 576.55397 379.860046 
L 576.55397 378.825058 
L 577 378.825058 
L 577 378.825058 
" style="fill:none;stroke:#f5deb3;stroke-linecap:square;"/>
   </g>
   <g id="line2d_18">
    <path clip-path="url(#pc33dd9d369)" d="M 129.36535 384 
L 129.36535 382.965012 
L 129.36535 382.965012 
L 129.36535 382.965012 
L 129.36535 381.930023 
L 129.36535 381.930023 
L 129.36535 381.930023 
L 129.36535 380.895035 
L 129.36535 380.895035 
L 129.36535 380.895035 
L 129.36535 379.860046 
L 129.36535 379.860046 
L 129.36535 379.860046 
L 129.36535 378.825058 
L 129.36535 378.825058 
L 129.36535 378.825058 
L 129.36535 377.79007 
L 129.36535 377.79007 
L 129.36535 377.79007 
L 129.36535 376.755081 
L 129.36535 376.755081 
L 129.36535 376.755081 
L 129.36535 375.720093 
L 131.586022 375.720093 
L 131.586022 369.510162 
L 135.879839 369.510162 
L 135.879839 368.475174 
L 137.957231 368.475174 
L 137.957231 366.405197 
L 143.934084 366.405197 
L 143.934084 365.370209 
L 145.846918 365.370209 
L 145.846918 364.33522 
L 149.562568 364.33522 
L 149.562568 363.300232 
L 159.921948 363.300232 
L 159.921948 362.265244 
L 161.545431 362.265244 
L 161.545431 360.195267 
L 166.258316 360.195267 
L 166.258316 359.160278 
L 185.642097 359.160278 
L 185.642097 358.12529 
L 186.888501 358.12529 
L 186.888501 356.055313 
L 194.046959 356.055313 
L 194.046959 355.020325 
L 196.319887 355.020325 
L 196.319887 353.985336 
L 199.63204 353.985336 
L 199.63204 352.950348 
L 435.880256 352.950348 
L 435.880256 351.91536 
L 511.380636 351.91536 
L 511.380636 350.880371 
L 533.313246 350.880371 
L 533.313246 349.845383 
L 533.689835 349.845383 
L 533.689835 348.810394 
L 535.148028 348.810394 
L 535.148028 347.775406 
L 535.685041 347.775406 
L 535.685041 346.740418 
L 542.126013 346.740418 
L 542.126013 345.705429 
L 542.344943 345.705429 
L 542.344943 344.670441 
L 542.563378 344.670441 
L 542.563378 343.635452 
L 542.687977 343.635452 
L 542.687977 342.600464 
L 543.709828 342.600464 
L 543.709828 341.565476 
L 544.476824 341.565476 
L 544.476824 340.530487 
L 544.781925 340.530487 
L 544.873268 338.46051 
L 545.32869 338.46051 
L 545.32869 337.425522 
L 546.082989 337.425522 
L 546.082989 336.390534 
L 546.442971 336.390534 
L 546.442971 335.355545 
L 549.100903 335.355545 
L 549.100903 334.320557 
L 549.913118 334.320557 
L 549.970873 332.25058 
L 550.115109 332.25058 
L 550.115109 331.215592 
L 552.196793 331.215592 
L 552.196793 330.180603 
L 557.466917 330.180603 
L 557.466917 329.145615 
L 558.13245 329.145615 
L 558.13245 328.110626 
L 564.992936 328.110626 
L 564.992936 327.075638 
L 570.071086 327.075638 
L 570.071086 326.04065 
L 577 326.04065 
L 577 326.04065 
" style="fill:none;stroke:#f5deb3;stroke-linecap:square;"/>
   </g>
   <g id="line2d_19">
    <path clip-path="url(#pc33dd9d369)" d="M 649.717252 384 
" style="fill:none;stroke:#f5deb3;stroke-linecap:square;"/>
   </g>
   <g id="line2d_20">
    <path clip-path="url(#pc33dd9d369)" d="M 252.596635 384 
L 252.596635 382.965012 
L 264.944696 382.965012 
L 264.944696 381.930023 
L 266.042378 381.930023 
L 266.042378 380.895035 
L 273.395545 380.895035 
L 273.395545 379.860046 
L 287.487717 379.860046 
L 287.487717 378.825058 
L 293.008932 378.825058 
L 293.008932 377.79007 
L 295.454505 377.79007 
L 295.454505 376.755081 
L 296.654458 376.755081 
L 296.654458 375.720093 
L 307.544637 375.720093 
L 307.544637 374.685104 
L 312.054377 374.685104 
L 312.054377 373.650116 
L 315.057572 373.650116 
L 315.057572 372.615128 
L 319.551172 372.615128 
L 319.551172 371.580139 
L 323.844989 371.580139 
L 323.844989 370.545151 
L 330.509354 370.545151 
L 330.509354 369.510162 
L 346.946993 369.510162 
L 346.946993 368.475174 
L 477.55284 368.475174 
L 477.55284 367.440186 
L 479.787397 367.440186 
L 479.787397 366.405197 
L 483.992921 366.405197 
L 483.992921 365.370209 
L 484.959732 365.370209 
L 484.959732 364.33522 
L 491.416386 364.33522 
L 491.416386 363.300232 
L 495.408268 363.300232 
L 495.408268 361.230255 
L 495.914797 361.230255 
L 495.914797 359.160278 
L 496.16707 359.160278 
L 496.16707 358.12529 
L 496.919957 358.12529 
L 496.919957 357.090302 
L 502.079404 357.090302 
L 502.079404 356.055313 
L 503.163428 356.055313 
L 503.163428 355.020325 
L 506.026395 355.020325 
L 506.026395 353.985336 
L 519.943204 353.985336 
L 519.943204 352.950348 
L 532.278659 352.950348 
L 532.278659 351.91536 
L 548.340539 351.91536 
L 548.340539 350.880371 
L 577 350.880371 
L 577 350.880371 
" style="fill:none;stroke:#f5deb3;stroke-linecap:square;"/>
   </g>
   <g id="line2d_21">
    <path clip-path="url(#pc33dd9d369)" d="M 615.030473 384 
" style="fill:none;stroke:#f5deb3;stroke-linecap:square;"/>
   </g>
   <g id="line2d_22">
    <path clip-path="url(#pc33dd9d369)" d="M 298.231554 384 
L 298.231554 382.965012 
L 305.390012 382.965012 
L 305.390012 381.930023 
L 315.057572 381.930023 
L 315.057572 380.895035 
L 320.797576 380.895035 
L 320.797576 379.860046 
L 327.66812 379.860046 
L 327.66812 378.825058 
L 334.082264 378.825058 
L 334.082264 377.79007 
L 334.351706 377.79007 
L 334.351706 376.755081 
L 335.687758 376.755081 
L 335.687758 375.720093 
L 338.047047 375.720093 
L 338.047047 374.685104 
L 338.820842 374.685104 
L 338.820842 373.650116 
L 345.758848 373.650116 
L 345.758848 372.615128 
L 346.235861 372.615128 
L 346.235861 371.580139 
L 347.887097 371.580139 
L 347.887097 370.545151 
L 356.174946 370.545151 
L 356.174946 369.510162 
L 388.369336 369.510162 
L 388.369336 368.475174 
L 485.580198 368.475174 
L 485.580198 367.440186 
L 502.834794 367.440186 
L 502.834794 365.370209 
L 504.374374 365.370209 
L 504.374374 364.33522 
L 505.844227 364.33522 
L 505.844227 363.300232 
L 507.336944 363.300232 
L 507.336944 362.265244 
L 513.171853 362.265244 
L 513.171853 361.230255 
L 513.677587 361.230255 
L 513.677587 360.195267 
L 514.222494 360.195267 
L 514.222494 359.160278 
L 515.63327 359.160278 
L 515.63327 358.12529 
L 518.754084 358.12529 
L 518.754084 357.090302 
L 526.270818 357.090302 
L 526.270818 356.055313 
L 526.969319 356.055313 
L 526.969319 355.020325 
L 531.337961 355.020325 
L 531.337961 353.985336 
L 537.179578 353.985336 
L 537.179578 352.950348 
L 568.129175 352.950348 
L 568.129175 351.91536 
L 572.410511 351.91536 
L 572.410511 350.880371 
L 577 350.880371 
L 577 350.880371 
" style="fill:none;stroke:#f5deb3;stroke-linecap:square;"/>
   </g>
   <g id="line2d_23">
    <path clip-path="url(#pc33dd9d369)" d="M 396.620262 384 
L 396.620262 382.965012 
L 413.071366 382.965012 
L 413.071366 381.930023 
L 416.580044 381.930023 
L 416.580044 380.895035 
L 418.287719 380.895035 
L 418.287719 379.860046 
L 421.178003 379.860046 
L 421.178003 378.825058 
L 425.776086 378.825058 
L 425.776086 377.79007 
L 429.464147 377.79007 
L 429.464147 376.755081 
L 450.998589 376.755081 
L 450.998589 375.720093 
L 577 375.720093 
" style="fill:none;stroke:#f5deb3;stroke-linecap:square;"/>
   </g>
   <g id="line2d_24">
    <path clip-path="url(#pc33dd9d369)" d="M 501.699482 384 
L 501.699482 382.965012 
L 514.180687 382.965012 
L 514.180687 381.930023 
L 534.201011 381.930023 
L 534.302922 379.860046 
L 534.336869 379.860046 
L 534.336869 378.825058 
L 539.941015 378.825058 
L 539.941015 377.79007 
L 543.493973 377.79007 
L 543.493973 376.755081 
L 543.679021 376.755081 
L 543.679021 375.720093 
L 551.801028 375.720093 
L 551.801028 374.685104 
L 552.28139 374.685104 
L 552.28139 373.650116 
L 559.528393 373.650116 
L 559.528393 372.615128 
L 559.711264 372.615128 
L 559.711264 371.580139 
L 566.707395 371.580139 
L 566.707395 370.545151 
L 573.366904 370.545151 
L 573.457498 368.475174 
L 577 368.475174 
L 577 368.475174 
" style="fill:none;stroke:#f5deb3;stroke-linecap:square;"/>
   </g>
   <g id="line2d_25">
    <path clip-path="url(#pc33dd9d369)" d="M 407.30462 384 
L 407.30462 382.965012 
L 413.190398 382.965012 
L 413.190398 381.930023 
L 414.372726 381.930023 
L 414.372726 380.895035 
L 416.234856 380.895035 
L 416.234856 379.860046 
L 438.111616 379.860046 
L 438.111616 378.825058 
L 440.561784 378.825058 
L 440.561784 377.79007 
L 441.097928 377.79007 
L 441.097928 376.755081 
L 447.97592 376.755081 
L 447.97592 375.720093 
L 461.143709 375.720093 
L 461.143709 374.685104 
L 470.060118 374.685104 
L 470.060118 373.650116 
L 472.085519 373.650116 
L 472.085519 372.615128 
L 481.444704 372.615128 
L 481.444704 371.580139 
L 482.95858 371.580139 
L 482.95858 370.545151 
L 489.058987 370.545151 
L 489.058987 369.510162 
L 577 369.510162 
L 577 369.510162 
" style="fill:none;stroke:#f5deb3;stroke-linecap:square;"/>
   </g>
   <g id="line2d_26">
    <path clip-path="url(#pc33dd9d369)" d="M 480.025903 384 
L 480.025903 383.003754 
L 481.562002 383.003754 
L 481.562002 382.007509 
L 487.031103 382.007509 
L 487.031103 381.011263 
L 488.351328 381.011263 
L 488.351328 380.015018 
L 488.569622 380.015018 
L 488.569622 379.018772 
L 489.058987 379.018772 
L 489.113208 377.026281 
L 490.565792 377.026281 
L 490.565792 375.03379 
L 492.416833 375.03379 
L 492.416833 374.037545 
L 494.284464 374.037545 
L 494.284464 373.041299 
L 495.255789 373.041299 
L 495.255789 372.045054 
L 497.468369 372.045054 
L 497.468369 371.048808 
L 497.914765 371.048808 
L 497.914765 370.052563 
L 522.047414 370.052563 
L 522.047414 369.056317 
L 577 369.056317 
L 577 369.056317 
" style="fill:none;stroke:#f5deb3;stroke-linecap:square;"/>
   </g>
   <g id="line2d_27">
    <path clip-path="url(#pc33dd9d369)" d="M 628.616498 384 
" style="fill:none;stroke:#f5deb3;stroke-linecap:square;"/>
   </g>
   <g id="line2d_28">
    <path clip-path="url(#pc33dd9d369)" d="M 342.104125 384 
L 342.104125 382.965012 
L 342.352123 382.965012 
L 342.352123 381.930023 
L 342.599485 381.930023 
L 342.599485 380.895035 
L 342.846216 380.895035 
L 342.846216 379.860046 
L 352.231746 379.860046 
L 352.231746 375.720093 
L 352.455087 375.720093 
L 352.455087 374.685104 
L 361.397568 374.685104 
L 361.397568 372.615128 
L 362.005723 372.615128 
L 362.005723 371.580139 
L 370.696444 371.580139 
L 370.696444 370.545151 
L 377.643592 370.545151 
L 377.643592 369.510162 
L 391.843806 369.510162 
L 391.843806 368.475174 
L 577 368.475174 
L 577 368.475174 
" style="fill:none;stroke:#f5deb3;stroke-linecap:square;"/>
   </g>
   <g id="line2d_29">
    <path clip-path="url(#pc33dd9d369)" d="M 122.379537 384 
L 122.379537 382.965012 
L 122.379537 382.965012 
L 122.379537 381.930023 
L 122.379537 381.930023 
L 122.379537 380.895035 
L 122.379537 380.895035 
L 122.379537 379.860046 
L 122.379537 379.860046 
L 122.379537 378.825058 
L 122.379537 378.825058 
L 122.379537 377.79007 
L 124.76472 377.79007 
L 124.76472 376.755081 
L 124.76472 376.755081 
L 124.76472 375.720093 
L 124.76472 375.720093 
L 124.76472 374.685104 
L 124.76472 374.685104 
L 124.76472 373.650116 
L 124.76472 373.650116 
L 124.76472 372.615128 
L 124.76472 372.615128 
L 124.76472 371.580139 
L 124.76472 371.580139 
L 124.76472 370.545151 
L 124.76472 370.545151 
L 124.76472 369.510162 
L 124.76472 369.510162 
L 124.76472 368.475174 
L 170.751916 368.475174 
L 170.751916 367.440186 
L 170.751916 367.440186 
L 170.751916 366.405197 
L 170.751916 366.405197 
L 170.751916 365.370209 
L 332.174826 365.370209 
L 332.174826 364.33522 
L 332.174826 364.33522 
L 332.174826 363.300232 
L 332.174826 363.300232 
L 332.174826 362.265244 
L 333.541114 362.265244 
L 333.541114 361.230255 
L 333.541114 361.230255 
L 333.541114 360.195267 
L 333.541114 360.195267 
L 333.541114 359.160278 
L 334.620399 359.160278 
L 334.620399 358.12529 
L 334.620399 358.12529 
L 334.620399 357.090302 
L 334.620399 357.090302 
L 334.620399 356.055313 
L 335.155553 356.055313 
L 335.155553 355.020325 
L 335.155553 355.020325 
L 335.155553 353.985336 
L 335.155553 353.985336 
L 335.155553 352.950348 
L 526.785992 352.950348 
L 526.785992 351.91536 
L 526.785992 351.91536 
L 526.785992 350.880371 
L 526.785992 350.880371 
L 526.785992 349.845383 
L 554.730486 349.845383 
L 554.730486 348.810394 
L 554.730486 348.810394 
L 554.730486 347.775406 
L 554.730486 347.775406 
L 554.730486 346.740418 
L 577 346.740418 
" style="fill:none;stroke:#f5deb3;stroke-linecap:square;"/>
   </g>
   <g id="line2d_30">
    <path clip-path="url(#pc33dd9d369)" d="M 334.888346 384 
L 334.888346 382.965012 
L 334.888346 382.965012 
L 334.888346 381.930023 
L 336.217047 381.930023 
L 336.217047 380.895035 
L 338.563599 380.895035 
L 338.563599 379.860046 
L 339.588489 379.860046 
L 339.588489 378.825058 
L 339.588489 378.825058 
L 339.588489 377.79007 
L 341.105719 377.79007 
L 341.105719 376.755081 
L 341.606212 376.755081 
L 341.606212 375.720093 
L 341.855489 375.720093 
L 341.855489 374.685104 
L 342.104125 374.685104 
L 342.104125 373.650116 
L 342.846216 373.650116 
L 342.846216 372.615128 
L 344.313509 372.615128 
L 344.313509 371.580139 
L 345.519455 371.580139 
L 345.519455 370.545151 
L 345.758848 370.545151 
L 345.758848 369.510162 
L 347.887097 369.510162 
L 347.887097 368.475174 
L 348.353741 368.475174 
L 348.353741 367.440186 
L 349.049506 367.440186 
L 349.049506 366.405197 
L 350.65373 366.405197 
L 350.65373 365.370209 
L 351.333182 365.370209 
L 351.333182 364.33522 
L 352.231746 364.33522 
L 352.231746 363.300232 
L 353.784397 363.300232 
L 353.784397 362.265244 
L 354.442254 362.265244 
L 354.442254 361.230255 
L 356.603305 361.230255 
L 356.603305 360.195267 
L 358.92592 360.195267 
L 358.92592 359.160278 
L 359.549786 359.160278 
L 359.549786 358.12529 
L 359.96347 358.12529 
L 359.96347 357.090302 
L 361.600712 357.090302 
L 361.600712 356.055313 
L 362.810686 356.055313 
L 362.810686 355.020325 
L 363.210665 355.020325 
L 363.210665 353.985336 
L 384.605419 353.985336 
L 384.605419 352.950348 
L 391.992072 352.950348 
L 391.992072 351.91536 
L 391.992072 351.91536 
L 391.992072 350.880371 
L 391.992072 350.880371 
L 391.992072 349.845383 
L 391.992072 349.845383 
L 391.992072 348.810394 
L 391.992072 348.810394 
L 391.992072 347.775406 
L 391.992072 347.775406 
L 391.992072 346.740418 
L 391.992072 346.740418 
L 391.992072 345.705429 
L 391.992072 345.705429 
L 391.992072 344.670441 
L 391.992072 344.670441 
L 391.992072 343.635452 
L 391.992072 343.635452 
L 391.992072 342.600464 
L 391.992072 342.600464 
L 391.992072 341.565476 
L 391.992072 341.565476 
L 391.992072 340.530487 
L 391.992072 340.530487 
L 391.992072 339.495499 
L 391.992072 339.495499 
L 391.992072 338.46051 
L 391.992072 338.46051 
L 391.992072 337.425522 
L 577 337.425522 
" style="fill:none;stroke:#f5deb3;stroke-linecap:square;"/>
   </g>
   <g id="line2d_31">
    <path clip-path="url(#pc33dd9d369)" d="M -166.993158 384 
M -1 366.405197 
L 240.590099 366.405197 
L 240.590099 365.370209 
L 323.844989 365.370209 
L 323.844989 364.33522 
L 367.504482 364.33522 
L 367.504482 363.300232 
L 394.910571 363.300232 
L 394.910571 362.265244 
L 398.853771 362.265244 
L 398.853771 361.230255 
L 429.162131 361.230255 
L 429.162131 360.195267 
L 444.769854 360.195267 
L 444.769854 359.160278 
L 445.112389 359.160278 
L 445.112389 358.12529 
L 468.529474 358.12529 
L 468.529474 357.090302 
L 469.596832 357.090302 
L 469.596832 356.055313 
L 469.994071 356.055313 
L 469.994071 355.020325 
L 515.344496 355.020325 
L 515.344496 353.985336 
L 516.003288 353.985336 
L 516.003288 352.950348 
L 523.955713 352.950348 
L 523.955713 351.91536 
L 560.930226 351.91536 
L 560.930226 350.880371 
L 567.119211 350.880371 
L 567.119211 349.845383 
L 577 349.845383 
" style="fill:none;stroke:#000000;stroke-linecap:square;"/>
   </g>
   <g id="line2d_32">
    <path clip-path="url(#pc33dd9d369)" d="M -66892.440706 756.595824 
" style="fill:none;stroke:#000000;stroke-linecap:square;"/>
   </g>
   <g id="line2d_33">
    <path clip-path="url(#pc33dd9d369)" d="M 453.773359 384 
L 453.773359 382.965012 
L 459.831455 382.965012 
L 459.831455 381.930023 
L 471.566887 381.930023 
L 471.566887 380.895035 
L 478.585951 380.895035 
L 478.585951 379.860046 
L 483.189393 379.860046 
L 483.189393 378.825058 
L 492.834994 378.825058 
L 492.834994 377.79007 
L 498.112503 377.79007 
L 498.112503 376.755081 
L 501.413557 376.755081 
L 501.413557 375.720093 
L 502.457837 375.720093 
L 502.457837 374.685104 
L 515.427091 374.685104 
L 515.427091 373.650116 
L 523.501148 373.650116 
L 523.501148 372.615128 
L 528.675796 372.615128 
L 528.675796 371.580139 
L 532.693825 371.580139 
L 532.693825 370.545151 
L 540.005049 370.545151 
L 540.005049 369.510162 
L 564.422906 369.510162 
L 564.422906 368.475174 
L 564.422906 368.475174 
L 564.422906 368.475174 
L 567.24 368.475174 
" style="fill:none;stroke:#00bfbf;stroke-linecap:square;"/>
   </g>
   <g id="line2d_34">
    <path clip-path="url(#pc33dd9d369)" d="M -66892.440706 756.595824 
" style="fill:none;stroke:#00bfbf;stroke-linecap:square;"/>
   </g>
   <g id="line2d_35"/>
   <g id="line2d_36"/>
   <g id="line2d_37">
    <path clip-path="url(#pc33dd9d369)" d="M 567.24 384 
L 567.24 7.678218 
" style="fill:none;stroke:#000000;stroke-linecap:square;"/>
   </g>
   <g id="patch_3">
    <path d="M 55.425 7.678218 
L 567.24 7.678218 
" style="fill:none;stroke:#000000;stroke-linecap:square;stroke-linejoin:miter;"/>
   </g>
   <g id="patch_4">
    <path d="M 567.24 384 
L 567.24 7.678218 
" style="fill:none;stroke:#000000;stroke-linecap:square;stroke-linejoin:miter;"/>
   </g>
   <g id="patch_5">
    <path d="M 55.425 384 
L 567.24 384 
" style="fill:none;stroke:#000000;stroke-linecap:square;stroke-linejoin:miter;"/>
   </g>
   <g id="patch_6">
    <path d="M 55.425 384 
L 55.425 7.678218 
" style="fill:none;stroke:#000000;stroke-linecap:square;stroke-linejoin:miter;"/>
   </g>
   <g id="matplotlib.axis_1">
    <g id="xtick_1">
     <g id="line2d_38">
      <path clip-path="url(#pc33dd9d369)" d="M 55.425 384 
L 55.425 7.678218 
" style="fill:none;stroke:#000000;stroke-dasharray:1.000000,3.000000;stroke-dashoffset:0.0;stroke-width:0.5;"/>
     </g>
     <g id="line2d_39">
      <defs>
       <path d="M 0 0 
L 0 -4 
" id="mff9fcebea5" style="stroke:#000000;stroke-width:0.5;"/>
      </defs>
      <g>
       <use style="stroke:#000000;stroke-width:0.5;" x="55.425" xlink:href="#mff9fcebea5" y="384.0"/>
      </g>
     </g>
     <g id="line2d_40">
      <defs>
       <path d="M 0 0 
L 0 4 
" id="m9c6146df8c" style="stroke:#000000;stroke-width:0.5;"/>
      </defs>
      <g>
       <use style="stroke:#000000;stroke-width:0.5;" x="55.425" xlink:href="#m9c6146df8c" y="7.67821782178"/>
      </g>
     </g>
     <g id="text_1">
      <!-- 0 -->
      <defs>
       <path d="M 31.78125 66.40625 
Q 24.171875 66.40625 20.328125 58.90625 
Q 16.5 51.421875 16.5 36.375 
Q 16.5 21.390625 20.328125 13.890625 
Q 24.171875 6.390625 31.78125 6.390625 
Q 39.453125 6.390625 43.28125 13.890625 
Q 47.125 21.390625 47.125 36.375 
Q 47.125 51.421875 43.28125 58.90625 
Q 39.453125 66.40625 31.78125 66.40625 
M 31.78125 74.21875 
Q 44.046875 74.21875 50.515625 64.515625 
Q 56.984375 54.828125 56.984375 36.375 
Q 56.984375 17.96875 50.515625 8.265625 
Q 44.046875 -1.421875 31.78125 -1.421875 
Q 19.53125 -1.421875 13.0625 8.265625 
Q 6.59375 17.96875 6.59375 36.375 
Q 6.59375 54.828125 13.0625 64.515625 
Q 19.53125 74.21875 31.78125 74.21875 
" id="BitstreamVeraSans-Roman-30"/>
      </defs>
      <g transform="translate(49.0625 403.196875)scale(0.2 -0.2)">
       <use xlink:href="#BitstreamVeraSans-Roman-30"/>
      </g>
     </g>
    </g>
    <g id="xtick_2">
     <g id="line2d_41">
      <path clip-path="url(#pc33dd9d369)" d="M 277.843158 384 
L 277.843158 7.678218 
" style="fill:none;stroke:#000000;stroke-dasharray:1.000000,3.000000;stroke-dashoffset:0.0;stroke-width:0.5;"/>
     </g>
     <g id="line2d_42">
      <g>
       <use style="stroke:#000000;stroke-width:0.5;" x="277.843158493" xlink:href="#mff9fcebea5" y="384.0"/>
      </g>
     </g>
     <g id="line2d_43">
      <g>
       <use style="stroke:#000000;stroke-width:0.5;" x="277.843158493" xlink:href="#m9c6146df8c" y="7.67821782178"/>
      </g>
     </g>
     <g id="text_2">
      <!-- 1 -->
      <defs>
       <path d="M 12.40625 8.296875 
L 28.515625 8.296875 
L 28.515625 63.921875 
L 10.984375 60.40625 
L 10.984375 69.390625 
L 28.421875 72.90625 
L 38.28125 72.90625 
L 38.28125 8.296875 
L 54.390625 8.296875 
L 54.390625 0 
L 12.40625 0 
z
" id="BitstreamVeraSans-Roman-31"/>
      </defs>
      <g transform="translate(271.480658493 403.196875)scale(0.2 -0.2)">
       <use xlink:href="#BitstreamVeraSans-Roman-31"/>
      </g>
     </g>
    </g>
    <g id="xtick_3">
     <g id="line2d_44">
      <path clip-path="url(#pc33dd9d369)" d="M 500.261317 384 
L 500.261317 7.678218 
" style="fill:none;stroke:#000000;stroke-dasharray:1.000000,3.000000;stroke-dashoffset:0.0;stroke-width:0.5;"/>
     </g>
     <g id="line2d_45">
      <g>
       <use style="stroke:#000000;stroke-width:0.5;" x="500.261316987" xlink:href="#mff9fcebea5" y="384.0"/>
      </g>
     </g>
     <g id="line2d_46">
      <g>
       <use style="stroke:#000000;stroke-width:0.5;" x="500.261316987" xlink:href="#m9c6146df8c" y="7.67821782178"/>
      </g>
     </g>
     <g id="text_3">
      <!-- 2 -->
      <defs>
       <path d="M 19.1875 8.296875 
L 53.609375 8.296875 
L 53.609375 0 
L 7.328125 0 
L 7.328125 8.296875 
Q 12.9375 14.109375 22.625 23.890625 
Q 32.328125 33.6875 34.8125 36.53125 
Q 39.546875 41.84375 41.421875 45.53125 
Q 43.3125 49.21875 43.3125 52.78125 
Q 43.3125 58.59375 39.234375 62.25 
Q 35.15625 65.921875 28.609375 65.921875 
Q 23.96875 65.921875 18.8125 64.3125 
Q 13.671875 62.703125 7.8125 59.421875 
L 7.8125 69.390625 
Q 13.765625 71.78125 18.9375 73 
Q 24.125 74.21875 28.421875 74.21875 
Q 39.75 74.21875 46.484375 68.546875 
Q 53.21875 62.890625 53.21875 53.421875 
Q 53.21875 48.921875 51.53125 44.890625 
Q 49.859375 40.875 45.40625 35.40625 
Q 44.1875 33.984375 37.640625 27.21875 
Q 31.109375 20.453125 19.1875 8.296875 
" id="BitstreamVeraSans-Roman-32"/>
      </defs>
      <g transform="translate(493.898816987 403.196875)scale(0.2 -0.2)">
       <use xlink:href="#BitstreamVeraSans-Roman-32"/>
      </g>
     </g>
    </g>
    <g id="xtick_4">
     <g id="line2d_47">
      <defs>
       <path d="M 0 0 
L 0 -2 
" id="m1cb3d5100c" style="stroke:#000000;stroke-width:0.5;"/>
      </defs>
      <g>
       <use style="stroke:#000000;stroke-width:0.5;" x="122.379537287" xlink:href="#m1cb3d5100c" y="384.0"/>
      </g>
     </g>
     <g id="line2d_48">
      <defs>
       <path d="M 0 0 
L 0 2 
" id="m1d62f1eca9" style="stroke:#000000;stroke-width:0.5;"/>
      </defs>
      <g>
       <use style="stroke:#000000;stroke-width:0.5;" x="122.379537287" xlink:href="#m1d62f1eca9" y="7.67821782178"/>
      </g>
     </g>
    </g>
    <g id="xtick_5">
     <g id="line2d_49">
      <g>
       <use style="stroke:#000000;stroke-width:0.5;" x="161.545430853" xlink:href="#m1cb3d5100c" y="384.0"/>
      </g>
     </g>
     <g id="line2d_50">
      <g>
       <use style="stroke:#000000;stroke-width:0.5;" x="161.545430853" xlink:href="#m1d62f1eca9" y="7.67821782178"/>
      </g>
     </g>
    </g>
    <g id="xtick_6">
     <g id="line2d_51">
      <g>
       <use style="stroke:#000000;stroke-width:0.5;" x="189.334074574" xlink:href="#m1cb3d5100c" y="384.0"/>
      </g>
     </g>
     <g id="line2d_52">
      <g>
       <use style="stroke:#000000;stroke-width:0.5;" x="189.334074574" xlink:href="#m1d62f1eca9" y="7.67821782178"/>
      </g>
     </g>
    </g>
    <g id="xtick_7">
     <g id="line2d_53">
      <g>
       <use style="stroke:#000000;stroke-width:0.5;" x="210.888621206" xlink:href="#m1cb3d5100c" y="384.0"/>
      </g>
     </g>
     <g id="line2d_54">
      <g>
       <use style="stroke:#000000;stroke-width:0.5;" x="210.888621206" xlink:href="#m1d62f1eca9" y="7.67821782178"/>
      </g>
     </g>
    </g>
    <g id="xtick_8">
     <g id="line2d_55">
      <g>
       <use style="stroke:#000000;stroke-width:0.5;" x="228.49996814" xlink:href="#m1cb3d5100c" y="384.0"/>
      </g>
     </g>
     <g id="line2d_56">
      <g>
       <use style="stroke:#000000;stroke-width:0.5;" x="228.49996814" xlink:href="#m1d62f1eca9" y="7.67821782178"/>
      </g>
     </g>
    </g>
    <g id="xtick_9">
     <g id="line2d_57">
      <g>
       <use style="stroke:#000000;stroke-width:0.5;" x="243.390149806" xlink:href="#m1cb3d5100c" y="384.0"/>
      </g>
     </g>
     <g id="line2d_58">
      <g>
       <use style="stroke:#000000;stroke-width:0.5;" x="243.390149806" xlink:href="#m1d62f1eca9" y="7.67821782178"/>
      </g>
     </g>
    </g>
    <g id="xtick_10">
     <g id="line2d_59">
      <g>
       <use style="stroke:#000000;stroke-width:0.5;" x="256.28861186" xlink:href="#m1cb3d5100c" y="384.0"/>
      </g>
     </g>
     <g id="line2d_60">
      <g>
       <use style="stroke:#000000;stroke-width:0.5;" x="256.28861186" xlink:href="#m1d62f1eca9" y="7.67821782178"/>
      </g>
     </g>
    </g>
    <g id="xtick_11">
     <g id="line2d_61">
      <g>
       <use style="stroke:#000000;stroke-width:0.5;" x="267.665861705" xlink:href="#m1cb3d5100c" y="384.0"/>
      </g>
     </g>
     <g id="line2d_62">
      <g>
       <use style="stroke:#000000;stroke-width:0.5;" x="267.665861705" xlink:href="#m1d62f1eca9" y="7.67821782178"/>
      </g>
     </g>
    </g>
    <g id="xtick_12">
     <g id="line2d_63">
      <g>
       <use style="stroke:#000000;stroke-width:0.5;" x="344.79769578" xlink:href="#m1cb3d5100c" y="384.0"/>
      </g>
     </g>
     <g id="line2d_64">
      <g>
       <use style="stroke:#000000;stroke-width:0.5;" x="344.79769578" xlink:href="#m1d62f1eca9" y="7.67821782178"/>
      </g>
     </g>
    </g>
    <g id="xtick_13">
     <g id="line2d_65">
      <g>
       <use style="stroke:#000000;stroke-width:0.5;" x="383.963589346" xlink:href="#m1cb3d5100c" y="384.0"/>
      </g>
     </g>
     <g id="line2d_66">
      <g>
       <use style="stroke:#000000;stroke-width:0.5;" x="383.963589346" xlink:href="#m1d62f1eca9" y="7.67821782178"/>
      </g>
     </g>
    </g>
    <g id="xtick_14">
     <g id="line2d_67">
      <g>
       <use style="stroke:#000000;stroke-width:0.5;" x="411.752233067" xlink:href="#m1cb3d5100c" y="384.0"/>
      </g>
     </g>
     <g id="line2d_68">
      <g>
       <use style="stroke:#000000;stroke-width:0.5;" x="411.752233067" xlink:href="#m1d62f1eca9" y="7.67821782178"/>
      </g>
     </g>
    </g>
    <g id="xtick_15">
     <g id="line2d_69">
      <g>
       <use style="stroke:#000000;stroke-width:0.5;" x="433.3067797" xlink:href="#m1cb3d5100c" y="384.0"/>
      </g>
     </g>
     <g id="line2d_70">
      <g>
       <use style="stroke:#000000;stroke-width:0.5;" x="433.3067797" xlink:href="#m1d62f1eca9" y="7.67821782178"/>
      </g>
     </g>
    </g>
    <g id="xtick_16">
     <g id="line2d_71">
      <g>
       <use style="stroke:#000000;stroke-width:0.5;" x="450.918126633" xlink:href="#m1cb3d5100c" y="384.0"/>
      </g>
     </g>
     <g id="line2d_72">
      <g>
       <use style="stroke:#000000;stroke-width:0.5;" x="450.918126633" xlink:href="#m1d62f1eca9" y="7.67821782178"/>
      </g>
     </g>
    </g>
    <g id="xtick_17">
     <g id="line2d_73">
      <g>
       <use style="stroke:#000000;stroke-width:0.5;" x="465.8083083" xlink:href="#m1cb3d5100c" y="384.0"/>
      </g>
     </g>
     <g id="line2d_74">
      <g>
       <use style="stroke:#000000;stroke-width:0.5;" x="465.8083083" xlink:href="#m1d62f1eca9" y="7.67821782178"/>
      </g>
     </g>
    </g>
    <g id="xtick_18">
     <g id="line2d_75">
      <g>
       <use style="stroke:#000000;stroke-width:0.5;" x="478.706770354" xlink:href="#m1cb3d5100c" y="384.0"/>
      </g>
     </g>
     <g id="line2d_76">
      <g>
       <use style="stroke:#000000;stroke-width:0.5;" x="478.706770354" xlink:href="#m1d62f1eca9" y="7.67821782178"/>
      </g>
     </g>
    </g>
    <g id="xtick_19">
     <g id="line2d_77">
      <g>
       <use style="stroke:#000000;stroke-width:0.5;" x="490.084020199" xlink:href="#m1cb3d5100c" y="384.0"/>
      </g>
     </g>
     <g id="line2d_78">
      <g>
       <use style="stroke:#000000;stroke-width:0.5;" x="490.084020199" xlink:href="#m1d62f1eca9" y="7.67821782178"/>
      </g>
     </g>
    </g>
    <g id="xtick_20">
     <g id="line2d_79">
      <g>
       <use style="stroke:#000000;stroke-width:0.5;" x="567.215854273" xlink:href="#m1cb3d5100c" y="384.0"/>
      </g>
     </g>
     <g id="line2d_80">
      <g>
       <use style="stroke:#000000;stroke-width:0.5;" x="567.215854273" xlink:href="#m1d62f1eca9" y="7.67821782178"/>
      </g>
     </g>
    </g>
    <g id="text_4">
     <!-- log10 of FEvals / DIM -->
     <defs>
      <path id="BitstreamVeraSans-Roman-20"/>
      <path d="M 9.8125 72.90625 
L 24.515625 72.90625 
L 43.109375 23.296875 
L 61.8125 72.90625 
L 76.515625 72.90625 
L 76.515625 0 
L 66.890625 0 
L 66.890625 64.015625 
L 48.09375 14.015625 
L 38.1875 14.015625 
L 19.390625 64.015625 
L 19.390625 0 
L 9.8125 0 
z
" id="BitstreamVeraSans-Roman-4d"/>
      <path d="M 30.609375 48.390625 
Q 23.390625 48.390625 19.1875 42.75 
Q 14.984375 37.109375 14.984375 27.296875 
Q 14.984375 17.484375 19.15625 11.84375 
Q 23.34375 6.203125 30.609375 6.203125 
Q 37.796875 6.203125 41.984375 11.859375 
Q 46.1875 17.53125 46.1875 27.296875 
Q 46.1875 37.015625 41.984375 42.703125 
Q 37.796875 48.390625 30.609375 48.390625 
M 30.609375 56 
Q 42.328125 56 49.015625 48.375 
Q 55.71875 40.765625 55.71875 27.296875 
Q 55.71875 13.875 49.015625 6.21875 
Q 42.328125 -1.421875 30.609375 -1.421875 
Q 18.84375 -1.421875 12.171875 6.21875 
Q 5.515625 13.875 5.515625 27.296875 
Q 5.515625 40.765625 12.171875 48.375 
Q 18.84375 56 30.609375 56 
" id="BitstreamVeraSans-Roman-6f"/>
      <path d="M 9.421875 75.984375 
L 18.40625 75.984375 
L 18.40625 0 
L 9.421875 0 
z
" id="BitstreamVeraSans-Roman-6c"/>
      <path d="M 9.8125 72.90625 
L 51.703125 72.90625 
L 51.703125 64.59375 
L 19.671875 64.59375 
L 19.671875 43.109375 
L 48.578125 43.109375 
L 48.578125 34.8125 
L 19.671875 34.8125 
L 19.671875 0 
L 9.8125 0 
z
" id="BitstreamVeraSans-Roman-46"/>
      <path d="M 9.8125 72.90625 
L 55.90625 72.90625 
L 55.90625 64.59375 
L 19.671875 64.59375 
L 19.671875 43.015625 
L 54.390625 43.015625 
L 54.390625 34.71875 
L 19.671875 34.71875 
L 19.671875 8.296875 
L 56.78125 8.296875 
L 56.78125 0 
L 9.8125 0 
z
" id="BitstreamVeraSans-Roman-45"/>
      <path d="M 19.671875 64.796875 
L 19.671875 8.109375 
L 31.59375 8.109375 
Q 46.6875 8.109375 53.6875 14.9375 
Q 60.6875 21.78125 60.6875 36.53125 
Q 60.6875 51.171875 53.6875 57.984375 
Q 46.6875 64.796875 31.59375 64.796875 
z
M 9.8125 72.90625 
L 30.078125 72.90625 
Q 51.265625 72.90625 61.171875 64.09375 
Q 71.09375 55.28125 71.09375 36.53125 
Q 71.09375 17.671875 61.125 8.828125 
Q 51.171875 0 30.078125 0 
L 9.8125 0 
z
" id="BitstreamVeraSans-Roman-44"/>
      <path d="M 25.390625 72.90625 
L 33.6875 72.90625 
L 8.296875 -9.28125 
L 0 -9.28125 
z
" id="BitstreamVeraSans-Roman-2f"/>
      <path d="M 2.984375 54.6875 
L 12.5 54.6875 
L 29.59375 8.796875 
L 46.6875 54.6875 
L 56.203125 54.6875 
L 35.6875 0 
L 23.484375 0 
z
" id="BitstreamVeraSans-Roman-76"/>
      <path d="M 45.40625 27.984375 
Q 45.40625 37.75 41.375 43.109375 
Q 37.359375 48.484375 30.078125 48.484375 
Q 22.859375 48.484375 18.828125 43.109375 
Q 14.796875 37.75 14.796875 27.984375 
Q 14.796875 18.265625 18.828125 12.890625 
Q 22.859375 7.515625 30.078125 7.515625 
Q 37.359375 7.515625 41.375 12.890625 
Q 45.40625 18.265625 45.40625 27.984375 
M 54.390625 6.78125 
Q 54.390625 -7.171875 48.1875 -13.984375 
Q 42 -20.796875 29.203125 -20.796875 
Q 24.46875 -20.796875 20.265625 -20.09375 
Q 16.0625 -19.390625 12.109375 -17.921875 
L 12.109375 -9.1875 
Q 16.0625 -11.328125 19.921875 -12.34375 
Q 23.78125 -13.375 27.78125 -13.375 
Q 36.625 -13.375 41.015625 -8.765625 
Q 45.40625 -4.15625 45.40625 5.171875 
L 45.40625 9.625 
Q 42.625 4.78125 38.28125 2.390625 
Q 33.9375 0 27.875 0 
Q 17.828125 0 11.671875 7.65625 
Q 5.515625 15.328125 5.515625 27.984375 
Q 5.515625 40.671875 11.671875 48.328125 
Q 17.828125 56 27.875 56 
Q 33.9375 56 38.28125 53.609375 
Q 42.625 51.21875 45.40625 46.390625 
L 45.40625 54.6875 
L 54.390625 54.6875 
z
" id="BitstreamVeraSans-Roman-67"/>
      <path d="M 37.109375 75.984375 
L 37.109375 68.5 
L 28.515625 68.5 
Q 23.6875 68.5 21.796875 66.546875 
Q 19.921875 64.59375 19.921875 59.515625 
L 19.921875 54.6875 
L 34.71875 54.6875 
L 34.71875 47.703125 
L 19.921875 47.703125 
L 19.921875 0 
L 10.890625 0 
L 10.890625 47.703125 
L 2.296875 47.703125 
L 2.296875 54.6875 
L 10.890625 54.6875 
L 10.890625 58.5 
Q 10.890625 67.625 15.140625 71.796875 
Q 19.390625 75.984375 28.609375 75.984375 
z
" id="BitstreamVeraSans-Roman-66"/>
      <path d="M 34.28125 27.484375 
Q 23.390625 27.484375 19.1875 25 
Q 14.984375 22.515625 14.984375 16.5 
Q 14.984375 11.71875 18.140625 8.90625 
Q 21.296875 6.109375 26.703125 6.109375 
Q 34.1875 6.109375 38.703125 11.40625 
Q 43.21875 16.703125 43.21875 25.484375 
L 43.21875 27.484375 
z
M 52.203125 31.203125 
L 52.203125 0 
L 43.21875 0 
L 43.21875 8.296875 
Q 40.140625 3.328125 35.546875 0.953125 
Q 30.953125 -1.421875 24.3125 -1.421875 
Q 15.921875 -1.421875 10.953125 3.296875 
Q 6 8.015625 6 15.921875 
Q 6 25.140625 12.171875 29.828125 
Q 18.359375 34.515625 30.609375 34.515625 
L 43.21875 34.515625 
L 43.21875 35.40625 
Q 43.21875 41.609375 39.140625 45 
Q 35.0625 48.390625 27.6875 48.390625 
Q 23 48.390625 18.546875 47.265625 
Q 14.109375 46.140625 10.015625 43.890625 
L 10.015625 52.203125 
Q 14.9375 54.109375 19.578125 55.046875 
Q 24.21875 56 28.609375 56 
Q 40.484375 56 46.34375 49.84375 
Q 52.203125 43.703125 52.203125 31.203125 
" id="BitstreamVeraSans-Roman-61"/>
      <path d="M 44.28125 53.078125 
L 44.28125 44.578125 
Q 40.484375 46.53125 36.375 47.5 
Q 32.28125 48.484375 27.875 48.484375 
Q 21.1875 48.484375 17.84375 46.4375 
Q 14.5 44.390625 14.5 40.28125 
Q 14.5 37.15625 16.890625 35.375 
Q 19.28125 33.59375 26.515625 31.984375 
L 29.59375 31.296875 
Q 39.15625 29.25 43.1875 25.515625 
Q 47.21875 21.78125 47.21875 15.09375 
Q 47.21875 7.46875 41.1875 3.015625 
Q 35.15625 -1.421875 24.609375 -1.421875 
Q 20.21875 -1.421875 15.453125 -0.5625 
Q 10.6875 0.296875 5.421875 2 
L 5.421875 11.28125 
Q 10.40625 8.6875 15.234375 7.390625 
Q 20.0625 6.109375 24.8125 6.109375 
Q 31.15625 6.109375 34.5625 8.28125 
Q 37.984375 10.453125 37.984375 14.40625 
Q 37.984375 18.0625 35.515625 20.015625 
Q 33.0625 21.96875 24.703125 23.78125 
L 21.578125 24.515625 
Q 13.234375 26.265625 9.515625 29.90625 
Q 5.8125 33.546875 5.8125 39.890625 
Q 5.8125 47.609375 11.28125 51.796875 
Q 16.75 56 26.8125 56 
Q 31.78125 56 36.171875 55.265625 
Q 40.578125 54.546875 44.28125 53.078125 
" id="BitstreamVeraSans-Roman-73"/>
      <path d="M 9.8125 72.90625 
L 19.671875 72.90625 
L 19.671875 0 
L 9.8125 0 
z
" id="BitstreamVeraSans-Roman-49"/>
     </defs>
     <g transform="translate(206.2590625 427.553125)scale(0.2 -0.2)">
      <use xlink:href="#BitstreamVeraSans-Roman-6c"/>
      <use x="27.783203125" xlink:href="#BitstreamVeraSans-Roman-6f"/>
      <use x="88.96484375" xlink:href="#BitstreamVeraSans-Roman-67"/>
      <use x="152.44140625" xlink:href="#BitstreamVeraSans-Roman-31"/>
      <use x="216.064453125" xlink:href="#BitstreamVeraSans-Roman-30"/>
      <use x="279.6875" xlink:href="#BitstreamVeraSans-Roman-20"/>
      <use x="311.474609375" xlink:href="#BitstreamVeraSans-Roman-6f"/>
      <use x="372.65625" xlink:href="#BitstreamVeraSans-Roman-66"/>
      <use x="407.861328125" xlink:href="#BitstreamVeraSans-Roman-20"/>
      <use x="439.6484375" xlink:href="#BitstreamVeraSans-Roman-46"/>
      <use x="497.16796875" xlink:href="#BitstreamVeraSans-Roman-45"/>
      <use x="560.3515625" xlink:href="#BitstreamVeraSans-Roman-76"/>
      <use x="619.53125" xlink:href="#BitstreamVeraSans-Roman-61"/>
      <use x="680.810546875" xlink:href="#BitstreamVeraSans-Roman-6c"/>
      <use x="708.59375" xlink:href="#BitstreamVeraSans-Roman-73"/>
      <use x="760.693359375" xlink:href="#BitstreamVeraSans-Roman-20"/>
      <use x="792.48046875" xlink:href="#BitstreamVeraSans-Roman-2f"/>
      <use x="826.171875" xlink:href="#BitstreamVeraSans-Roman-20"/>
      <use x="857.958984375" xlink:href="#BitstreamVeraSans-Roman-44"/>
      <use x="934.9609375" xlink:href="#BitstreamVeraSans-Roman-49"/>
      <use x="964.453125" xlink:href="#BitstreamVeraSans-Roman-4d"/>
     </g>
    </g>
   </g>
   <g id="matplotlib.axis_2">
    <g id="ytick_1">
     <g id="line2d_81">
      <path clip-path="url(#pc33dd9d369)" d="M 55.425 384 
L 567.24 384 
" style="fill:none;stroke:#000000;stroke-dasharray:1.000000,3.000000;stroke-dashoffset:0.0;stroke-width:0.5;"/>
     </g>
     <g id="line2d_82">
      <defs>
       <path d="M 0 0 
L 4 0 
" id="m15bd5ff0be" style="stroke:#000000;stroke-width:0.5;"/>
      </defs>
      <g>
       <use style="stroke:#000000;stroke-width:0.5;" x="55.425" xlink:href="#m15bd5ff0be" y="384.0"/>
      </g>
     </g>
     <g id="line2d_83">
      <defs>
       <path d="M 0 0 
L -4 0 
" id="m25606d328a" style="stroke:#000000;stroke-width:0.5;"/>
      </defs>
      <g>
       <use style="stroke:#000000;stroke-width:0.5;" x="567.24" xlink:href="#m25606d328a" y="384.0"/>
      </g>
     </g>
     <g id="text_5">
      <!-- 0.0 -->
      <defs>
       <path d="M 10.6875 12.40625 
L 21 12.40625 
L 21 0 
L 10.6875 0 
z
" id="BitstreamVeraSans-Roman-2e"/>
      </defs>
      <g transform="translate(25.98 388.415)scale(0.16 -0.16)">
       <use xlink:href="#BitstreamVeraSans-Roman-30"/>
       <use x="63.623046875" xlink:href="#BitstreamVeraSans-Roman-2e"/>
       <use x="95.41015625" xlink:href="#BitstreamVeraSans-Roman-30"/>
      </g>
     </g>
    </g>
    <g id="ytick_2">
     <g id="line2d_84">
      <path clip-path="url(#pc33dd9d369)" d="M 55.425 309.480835 
L 567.24 309.480835 
" style="fill:none;stroke:#000000;stroke-dasharray:1.000000,3.000000;stroke-dashoffset:0.0;stroke-width:0.5;"/>
     </g>
     <g id="line2d_85">
      <g>
       <use style="stroke:#000000;stroke-width:0.5;" x="55.425" xlink:href="#m15bd5ff0be" y="309.480835212"/>
      </g>
     </g>
     <g id="line2d_86">
      <g>
       <use style="stroke:#000000;stroke-width:0.5;" x="567.24" xlink:href="#m25606d328a" y="309.480835212"/>
      </g>
     </g>
     <g id="text_6">
      <!-- 0.2 -->
      <g transform="translate(25.98 313.895835212)scale(0.16 -0.16)">
       <use xlink:href="#BitstreamVeraSans-Roman-30"/>
       <use x="63.623046875" xlink:href="#BitstreamVeraSans-Roman-2e"/>
       <use x="95.41015625" xlink:href="#BitstreamVeraSans-Roman-32"/>
      </g>
     </g>
    </g>
    <g id="ytick_3">
     <g id="line2d_87">
      <path clip-path="url(#pc33dd9d369)" d="M 55.425 234.96167 
L 567.24 234.96167 
" style="fill:none;stroke:#000000;stroke-dasharray:1.000000,3.000000;stroke-dashoffset:0.0;stroke-width:0.5;"/>
     </g>
     <g id="line2d_88">
      <g>
       <use style="stroke:#000000;stroke-width:0.5;" x="55.425" xlink:href="#m15bd5ff0be" y="234.961670424"/>
      </g>
     </g>
     <g id="line2d_89">
      <g>
       <use style="stroke:#000000;stroke-width:0.5;" x="567.24" xlink:href="#m25606d328a" y="234.961670424"/>
      </g>
     </g>
     <g id="text_7">
      <!-- 0.4 -->
      <defs>
       <path d="M 37.796875 64.3125 
L 12.890625 25.390625 
L 37.796875 25.390625 
z
M 35.203125 72.90625 
L 47.609375 72.90625 
L 47.609375 25.390625 
L 58.015625 25.390625 
L 58.015625 17.1875 
L 47.609375 17.1875 
L 47.609375 0 
L 37.796875 0 
L 37.796875 17.1875 
L 4.890625 17.1875 
L 4.890625 26.703125 
z
" id="BitstreamVeraSans-Roman-34"/>
      </defs>
      <g transform="translate(25.98 239.376670424)scale(0.16 -0.16)">
       <use xlink:href="#BitstreamVeraSans-Roman-30"/>
       <use x="63.623046875" xlink:href="#BitstreamVeraSans-Roman-2e"/>
       <use x="95.41015625" xlink:href="#BitstreamVeraSans-Roman-34"/>
      </g>
     </g>
    </g>
    <g id="ytick_4">
     <g id="line2d_90">
      <path clip-path="url(#pc33dd9d369)" d="M 55.425 160.442506 
L 567.24 160.442506 
" style="fill:none;stroke:#000000;stroke-dasharray:1.000000,3.000000;stroke-dashoffset:0.0;stroke-width:0.5;"/>
     </g>
     <g id="line2d_91">
      <g>
       <use style="stroke:#000000;stroke-width:0.5;" x="55.425" xlink:href="#m15bd5ff0be" y="160.442505637"/>
      </g>
     </g>
     <g id="line2d_92">
      <g>
       <use style="stroke:#000000;stroke-width:0.5;" x="567.24" xlink:href="#m25606d328a" y="160.442505637"/>
      </g>
     </g>
     <g id="text_8">
      <!-- 0.6 -->
      <defs>
       <path d="M 33.015625 40.375 
Q 26.375 40.375 22.484375 35.828125 
Q 18.609375 31.296875 18.609375 23.390625 
Q 18.609375 15.53125 22.484375 10.953125 
Q 26.375 6.390625 33.015625 6.390625 
Q 39.65625 6.390625 43.53125 10.953125 
Q 47.40625 15.53125 47.40625 23.390625 
Q 47.40625 31.296875 43.53125 35.828125 
Q 39.65625 40.375 33.015625 40.375 
M 52.59375 71.296875 
L 52.59375 62.3125 
Q 48.875 64.0625 45.09375 64.984375 
Q 41.3125 65.921875 37.59375 65.921875 
Q 27.828125 65.921875 22.671875 59.328125 
Q 17.53125 52.734375 16.796875 39.40625 
Q 19.671875 43.65625 24.015625 45.921875 
Q 28.375 48.1875 33.59375 48.1875 
Q 44.578125 48.1875 50.953125 41.515625 
Q 57.328125 34.859375 57.328125 23.390625 
Q 57.328125 12.15625 50.6875 5.359375 
Q 44.046875 -1.421875 33.015625 -1.421875 
Q 20.359375 -1.421875 13.671875 8.265625 
Q 6.984375 17.96875 6.984375 36.375 
Q 6.984375 53.65625 15.1875 63.9375 
Q 23.390625 74.21875 37.203125 74.21875 
Q 40.921875 74.21875 44.703125 73.484375 
Q 48.484375 72.75 52.59375 71.296875 
" id="BitstreamVeraSans-Roman-36"/>
      </defs>
      <g transform="translate(25.98 164.857505637)scale(0.16 -0.16)">
       <use xlink:href="#BitstreamVeraSans-Roman-30"/>
       <use x="63.623046875" xlink:href="#BitstreamVeraSans-Roman-2e"/>
       <use x="95.41015625" xlink:href="#BitstreamVeraSans-Roman-36"/>
      </g>
     </g>
    </g>
    <g id="ytick_5">
     <g id="line2d_93">
      <path clip-path="url(#pc33dd9d369)" d="M 55.425 85.923341 
L 567.24 85.923341 
" style="fill:none;stroke:#000000;stroke-dasharray:1.000000,3.000000;stroke-dashoffset:0.0;stroke-width:0.5;"/>
     </g>
     <g id="line2d_94">
      <g>
       <use style="stroke:#000000;stroke-width:0.5;" x="55.425" xlink:href="#m15bd5ff0be" y="85.9233408489"/>
      </g>
     </g>
     <g id="line2d_95">
      <g>
       <use style="stroke:#000000;stroke-width:0.5;" x="567.24" xlink:href="#m25606d328a" y="85.9233408489"/>
      </g>
     </g>
     <g id="text_9">
      <!-- 0.8 -->
      <defs>
       <path d="M 31.78125 34.625 
Q 24.75 34.625 20.71875 30.859375 
Q 16.703125 27.09375 16.703125 20.515625 
Q 16.703125 13.921875 20.71875 10.15625 
Q 24.75 6.390625 31.78125 6.390625 
Q 38.8125 6.390625 42.859375 10.171875 
Q 46.921875 13.96875 46.921875 20.515625 
Q 46.921875 27.09375 42.890625 30.859375 
Q 38.875 34.625 31.78125 34.625 
M 21.921875 38.8125 
Q 15.578125 40.375 12.03125 44.71875 
Q 8.5 49.078125 8.5 55.328125 
Q 8.5 64.0625 14.71875 69.140625 
Q 20.953125 74.21875 31.78125 74.21875 
Q 42.671875 74.21875 48.875 69.140625 
Q 55.078125 64.0625 55.078125 55.328125 
Q 55.078125 49.078125 51.53125 44.71875 
Q 48 40.375 41.703125 38.8125 
Q 48.828125 37.15625 52.796875 32.3125 
Q 56.78125 27.484375 56.78125 20.515625 
Q 56.78125 9.90625 50.3125 4.234375 
Q 43.84375 -1.421875 31.78125 -1.421875 
Q 19.734375 -1.421875 13.25 4.234375 
Q 6.78125 9.90625 6.78125 20.515625 
Q 6.78125 27.484375 10.78125 32.3125 
Q 14.796875 37.15625 21.921875 38.8125 
M 18.3125 54.390625 
Q 18.3125 48.734375 21.84375 45.5625 
Q 25.390625 42.390625 31.78125 42.390625 
Q 38.140625 42.390625 41.71875 45.5625 
Q 45.3125 48.734375 45.3125 54.390625 
Q 45.3125 60.0625 41.71875 63.234375 
Q 38.140625 66.40625 31.78125 66.40625 
Q 25.390625 66.40625 21.84375 63.234375 
Q 18.3125 60.0625 18.3125 54.390625 
" id="BitstreamVeraSans-Roman-38"/>
      </defs>
      <g transform="translate(25.98 90.3383408489)scale(0.16 -0.16)">
       <use xlink:href="#BitstreamVeraSans-Roman-30"/>
       <use x="63.623046875" xlink:href="#BitstreamVeraSans-Roman-2e"/>
       <use x="95.41015625" xlink:href="#BitstreamVeraSans-Roman-38"/>
      </g>
     </g>
    </g>
    <g id="ytick_6">
     <g id="line2d_96">
      <path clip-path="url(#pc33dd9d369)" d="M 55.425 11.404176 
L 567.24 11.404176 
" style="fill:none;stroke:#000000;stroke-dasharray:1.000000,3.000000;stroke-dashoffset:0.0;stroke-width:0.5;"/>
     </g>
     <g id="line2d_97">
      <g>
       <use style="stroke:#000000;stroke-width:0.5;" x="55.425" xlink:href="#m15bd5ff0be" y="11.4041760612"/>
      </g>
     </g>
     <g id="line2d_98">
      <g>
       <use style="stroke:#000000;stroke-width:0.5;" x="567.24" xlink:href="#m25606d328a" y="11.4041760612"/>
      </g>
     </g>
     <g id="text_10">
      <!-- 1.0 -->
      <g transform="translate(25.98 15.8191760612)scale(0.16 -0.16)">
       <use xlink:href="#BitstreamVeraSans-Roman-31"/>
       <use x="63.623046875" xlink:href="#BitstreamVeraSans-Roman-2e"/>
       <use x="95.41015625" xlink:href="#BitstreamVeraSans-Roman-30"/>
      </g>
     </g>
    </g>
    <g id="text_11">
     <!-- proportion of trials -->
     <defs>
      <path d="M 54.890625 33.015625 
L 54.890625 0 
L 45.90625 0 
L 45.90625 32.71875 
Q 45.90625 40.484375 42.875 44.328125 
Q 39.84375 48.1875 33.796875 48.1875 
Q 26.515625 48.1875 22.3125 43.546875 
Q 18.109375 38.921875 18.109375 30.90625 
L 18.109375 0 
L 9.078125 0 
L 9.078125 54.6875 
L 18.109375 54.6875 
L 18.109375 46.1875 
Q 21.34375 51.125 25.703125 53.5625 
Q 30.078125 56 35.796875 56 
Q 45.21875 56 50.046875 50.171875 
Q 54.890625 44.34375 54.890625 33.015625 
" id="BitstreamVeraSans-Roman-6e"/>
      <path d="M 9.421875 54.6875 
L 18.40625 54.6875 
L 18.40625 0 
L 9.421875 0 
z
M 9.421875 75.984375 
L 18.40625 75.984375 
L 18.40625 64.59375 
L 9.421875 64.59375 
z
" id="BitstreamVeraSans-Roman-69"/>
      <path d="M 18.3125 70.21875 
L 18.3125 54.6875 
L 36.8125 54.6875 
L 36.8125 47.703125 
L 18.3125 47.703125 
L 18.3125 18.015625 
Q 18.3125 11.328125 20.140625 9.421875 
Q 21.96875 7.515625 27.59375 7.515625 
L 36.8125 7.515625 
L 36.8125 0 
L 27.59375 0 
Q 17.1875 0 13.234375 3.875 
Q 9.28125 7.765625 9.28125 18.015625 
L 9.28125 47.703125 
L 2.6875 47.703125 
L 2.6875 54.6875 
L 9.28125 54.6875 
L 9.28125 70.21875 
z
" id="BitstreamVeraSans-Roman-74"/>
      <path d="M 41.109375 46.296875 
Q 39.59375 47.171875 37.8125 47.578125 
Q 36.03125 48 33.890625 48 
Q 26.265625 48 22.1875 43.046875 
Q 18.109375 38.09375 18.109375 28.8125 
L 18.109375 0 
L 9.078125 0 
L 9.078125 54.6875 
L 18.109375 54.6875 
L 18.109375 46.1875 
Q 20.953125 51.171875 25.484375 53.578125 
Q 30.03125 56 36.53125 56 
Q 37.453125 56 38.578125 55.875 
Q 39.703125 55.765625 41.0625 55.515625 
z
" id="BitstreamVeraSans-Roman-72"/>
      <path d="M 18.109375 8.203125 
L 18.109375 -20.796875 
L 9.078125 -20.796875 
L 9.078125 54.6875 
L 18.109375 54.6875 
L 18.109375 46.390625 
Q 20.953125 51.265625 25.265625 53.625 
Q 29.59375 56 35.59375 56 
Q 45.5625 56 51.78125 48.09375 
Q 58.015625 40.1875 58.015625 27.296875 
Q 58.015625 14.40625 51.78125 6.484375 
Q 45.5625 -1.421875 35.59375 -1.421875 
Q 29.59375 -1.421875 25.265625 0.953125 
Q 20.953125 3.328125 18.109375 8.203125 
M 48.6875 27.296875 
Q 48.6875 37.203125 44.609375 42.84375 
Q 40.53125 48.484375 33.40625 48.484375 
Q 26.265625 48.484375 22.1875 42.84375 
Q 18.109375 37.203125 18.109375 27.296875 
Q 18.109375 17.390625 22.1875 11.75 
Q 26.265625 6.109375 33.40625 6.109375 
Q 40.53125 6.109375 44.609375 11.75 
Q 48.6875 17.390625 48.6875 27.296875 
" id="BitstreamVeraSans-Roman-70"/>
     </defs>
     <g transform="translate(16.820625 289.067233911)rotate(-90.0)scale(0.2 -0.2)">
      <use xlink:href="#BitstreamVeraSans-Roman-70"/>
      <use x="63.4765625" xlink:href="#BitstreamVeraSans-Roman-72"/>
      <use x="104.55859375" xlink:href="#BitstreamVeraSans-Roman-6f"/>
      <use x="165.740234375" xlink:href="#BitstreamVeraSans-Roman-70"/>
      <use x="229.216796875" xlink:href="#BitstreamVeraSans-Roman-6f"/>
      <use x="290.3984375" xlink:href="#BitstreamVeraSans-Roman-72"/>
      <use x="331.51171875" xlink:href="#BitstreamVeraSans-Roman-74"/>
      <use x="370.720703125" xlink:href="#BitstreamVeraSans-Roman-69"/>
      <use x="398.50390625" xlink:href="#BitstreamVeraSans-Roman-6f"/>
      <use x="459.685546875" xlink:href="#BitstreamVeraSans-Roman-6e"/>
      <use x="523.064453125" xlink:href="#BitstreamVeraSans-Roman-20"/>
      <use x="554.8515625" xlink:href="#BitstreamVeraSans-Roman-6f"/>
      <use x="616.033203125" xlink:href="#BitstreamVeraSans-Roman-66"/>
      <use x="651.23828125" xlink:href="#BitstreamVeraSans-Roman-20"/>
      <use x="683.025390625" xlink:href="#BitstreamVeraSans-Roman-74"/>
      <use x="722.234375" xlink:href="#BitstreamVeraSans-Roman-72"/>
      <use x="763.34765625" xlink:href="#BitstreamVeraSans-Roman-69"/>
      <use x="791.130859375" xlink:href="#BitstreamVeraSans-Roman-61"/>
      <use x="852.41015625" xlink:href="#BitstreamVeraSans-Roman-6c"/>
      <use x="880.193359375" xlink:href="#BitstreamVeraSans-Roman-73"/>
     </g>
    </g>
   </g>
   <g id="text_12">
    <!-- {f1-f24}, 20-D -->
    <defs>
     <path d="M 11.71875 12.40625 
L 22.015625 12.40625 
L 22.015625 4 
L 14.015625 -11.625 
L 7.71875 -11.625 
L 11.71875 4 
z
" id="BitstreamVeraSans-Roman-2c"/>
     <path d="M 12.5 -9.28125 
L 15.921875 -9.28125 
Q 22.75 -9.28125 24.828125 -7.171875 
Q 26.90625 -5.078125 26.90625 1.90625 
L 26.90625 14.015625 
Q 26.90625 21.625 29.09375 25.09375 
Q 31.296875 28.5625 36.71875 29.890625 
Q 31.296875 31.109375 29.09375 34.5625 
Q 26.90625 38.03125 26.90625 45.703125 
L 26.90625 57.8125 
Q 26.90625 64.75 24.828125 66.875 
Q 22.75 69 15.921875 69 
L 12.5 69 
L 12.5 75.984375 
L 15.578125 75.984375 
Q 27.734375 75.984375 31.8125 72.390625 
Q 35.890625 68.796875 35.890625 58.015625 
L 35.890625 46.296875 
Q 35.890625 39.015625 38.515625 36.203125 
Q 41.15625 33.40625 48.09375 33.40625 
L 51.125 33.40625 
L 51.125 26.421875 
L 48.09375 26.421875 
Q 41.15625 26.421875 38.515625 23.578125 
Q 35.890625 20.75 35.890625 13.375 
L 35.890625 1.703125 
Q 35.890625 -9.078125 31.8125 -12.6875 
Q 27.734375 -16.3125 15.578125 -16.3125 
L 12.5 -16.3125 
z
" id="BitstreamVeraSans-Roman-7d"/>
     <path d="M 51.125 -9.28125 
L 51.125 -16.3125 
L 48.09375 -16.3125 
Q 35.9375 -16.3125 31.8125 -12.6875 
Q 27.6875 -9.078125 27.6875 1.703125 
L 27.6875 13.375 
Q 27.6875 20.75 25.046875 23.578125 
Q 22.40625 26.421875 15.484375 26.421875 
L 12.5 26.421875 
L 12.5 33.40625 
L 15.484375 33.40625 
Q 22.46875 33.40625 25.078125 36.203125 
Q 27.6875 39.015625 27.6875 46.296875 
L 27.6875 58.015625 
Q 27.6875 68.796875 31.8125 72.390625 
Q 35.9375 75.984375 48.09375 75.984375 
L 51.125 75.984375 
L 51.125 69 
L 47.796875 69 
Q 40.921875 69 38.8125 66.84375 
Q 36.71875 64.703125 36.71875 57.8125 
L 36.71875 45.703125 
Q 36.71875 38.03125 34.5 34.5625 
Q 32.28125 31.109375 26.90625 29.890625 
Q 32.328125 28.5625 34.515625 25.09375 
Q 36.71875 21.625 36.71875 14.015625 
L 36.71875 1.90625 
Q 36.71875 -4.984375 38.8125 -7.125 
Q 40.921875 -9.28125 47.796875 -9.28125 
z
" id="BitstreamVeraSans-Roman-7b"/>
     <path d="M 4.890625 31.390625 
L 31.203125 31.390625 
L 31.203125 23.390625 
L 4.890625 23.390625 
z
" id="BitstreamVeraSans-Roman-2d"/>
    </defs>
    <g transform="translate(238.4825 30.4015284653)scale(0.2 -0.2)">
     <use xlink:href="#BitstreamVeraSans-Roman-7b"/>
     <use x="63.623046875" xlink:href="#BitstreamVeraSans-Roman-66"/>
     <use x="98.828125" xlink:href="#BitstreamVeraSans-Roman-31"/>
     <use x="162.451171875" xlink:href="#BitstreamVeraSans-Roman-2d"/>
     <use x="198.53515625" xlink:href="#BitstreamVeraSans-Roman-66"/>
     <use x="233.740234375" xlink:href="#BitstreamVeraSans-Roman-32"/>
     <use x="297.36328125" xlink:href="#BitstreamVeraSans-Roman-34"/>
     <use x="360.986328125" xlink:href="#BitstreamVeraSans-Roman-7d"/>
     <use x="424.609375" xlink:href="#BitstreamVeraSans-Roman-2c"/>
     <use x="456.396484375" xlink:href="#BitstreamVeraSans-Roman-20"/>
     <use x="488.18359375" xlink:href="#BitstreamVeraSans-Roman-32"/>
     <use x="551.806640625" xlink:href="#BitstreamVeraSans-Roman-30"/>
     <use x="615.4296875" xlink:href="#BitstreamVeraSans-Roman-2d"/>
     <use x="651.513671875" xlink:href="#BitstreamVeraSans-Roman-44"/>
    </g>
   </g>
   <g id="text_13">
    <!-- absolute targets -->
    <defs>
     <path d="M 56.203125 29.59375 
L 56.203125 25.203125 
L 14.890625 25.203125 
Q 15.484375 15.921875 20.484375 11.0625 
Q 25.484375 6.203125 34.421875 6.203125 
Q 39.59375 6.203125 44.453125 7.46875 
Q 49.3125 8.734375 54.109375 11.28125 
L 54.109375 2.78125 
Q 49.265625 0.734375 44.1875 -0.34375 
Q 39.109375 -1.421875 33.890625 -1.421875 
Q 20.796875 -1.421875 13.15625 6.1875 
Q 5.515625 13.8125 5.515625 26.8125 
Q 5.515625 40.234375 12.765625 48.109375 
Q 20.015625 56 32.328125 56 
Q 43.359375 56 49.78125 48.890625 
Q 56.203125 41.796875 56.203125 29.59375 
M 47.21875 32.234375 
Q 47.125 39.59375 43.09375 43.984375 
Q 39.0625 48.390625 32.421875 48.390625 
Q 24.90625 48.390625 20.390625 44.140625 
Q 15.875 39.890625 15.1875 32.171875 
z
" id="BitstreamVeraSans-Roman-65"/>
     <path d="M 8.5 21.578125 
L 8.5 54.6875 
L 17.484375 54.6875 
L 17.484375 21.921875 
Q 17.484375 14.15625 20.5 10.265625 
Q 23.53125 6.390625 29.59375 6.390625 
Q 36.859375 6.390625 41.078125 11.03125 
Q 45.3125 15.671875 45.3125 23.6875 
L 45.3125 54.6875 
L 54.296875 54.6875 
L 54.296875 0 
L 45.3125 0 
L 45.3125 8.40625 
Q 42.046875 3.421875 37.71875 1 
Q 33.40625 -1.421875 27.6875 -1.421875 
Q 18.265625 -1.421875 13.375 4.4375 
Q 8.5 10.296875 8.5 21.578125 
" id="BitstreamVeraSans-Roman-75"/>
     <path d="M 48.6875 27.296875 
Q 48.6875 37.203125 44.609375 42.84375 
Q 40.53125 48.484375 33.40625 48.484375 
Q 26.265625 48.484375 22.1875 42.84375 
Q 18.109375 37.203125 18.109375 27.296875 
Q 18.109375 17.390625 22.1875 11.75 
Q 26.265625 6.109375 33.40625 6.109375 
Q 40.53125 6.109375 44.609375 11.75 
Q 48.6875 17.390625 48.6875 27.296875 
M 18.109375 46.390625 
Q 20.953125 51.265625 25.265625 53.625 
Q 29.59375 56 35.59375 56 
Q 45.5625 56 51.78125 48.09375 
Q 58.015625 40.1875 58.015625 27.296875 
Q 58.015625 14.40625 51.78125 6.484375 
Q 45.5625 -1.421875 35.59375 -1.421875 
Q 29.59375 -1.421875 25.265625 0.953125 
Q 20.953125 3.328125 18.109375 8.203125 
L 18.109375 0 
L 9.078125 0 
L 9.078125 75.984375 
L 18.109375 75.984375 
z
" id="BitstreamVeraSans-Roman-62"/>
    </defs>
    <g transform="translate(55.425 756.595823939)scale(0.14 -0.14)">
     <use xlink:href="#BitstreamVeraSans-Roman-61"/>
     <use x="61.279296875" xlink:href="#BitstreamVeraSans-Roman-62"/>
     <use x="124.755859375" xlink:href="#BitstreamVeraSans-Roman-73"/>
     <use x="176.85546875" xlink:href="#BitstreamVeraSans-Roman-6f"/>
     <use x="238.037109375" xlink:href="#BitstreamVeraSans-Roman-6c"/>
     <use x="265.8203125" xlink:href="#BitstreamVeraSans-Roman-75"/>
     <use x="329.19921875" xlink:href="#BitstreamVeraSans-Roman-74"/>
     <use x="368.408203125" xlink:href="#BitstreamVeraSans-Roman-65"/>
     <use x="429.931640625" xlink:href="#BitstreamVeraSans-Roman-20"/>
     <use x="461.71875" xlink:href="#BitstreamVeraSans-Roman-74"/>
     <use x="500.927734375" xlink:href="#BitstreamVeraSans-Roman-61"/>
     <use x="562.20703125" xlink:href="#BitstreamVeraSans-Roman-72"/>
     <use x="603.3046875" xlink:href="#BitstreamVeraSans-Roman-67"/>
     <use x="666.78125" xlink:href="#BitstreamVeraSans-Roman-65"/>
     <use x="728.3046875" xlink:href="#BitstreamVeraSans-Roman-74"/>
     <use x="767.513671875" xlink:href="#BitstreamVeraSans-Roman-73"/>
    </g>
   </g>
   <g id="text_14">
    <!-- v2.2.1.10 -->
    <g style="fill:#808080;" transform="translate(287.6996875 378.157094678)scale(0.1 -0.1)">
     <use xlink:href="#BitstreamVeraSans-Roman-76"/>
     <use x="59.1796875" xlink:href="#BitstreamVeraSans-Roman-32"/>
     <use x="122.802734375" xlink:href="#BitstreamVeraSans-Roman-2e"/>
     <use x="154.58984375" xlink:href="#BitstreamVeraSans-Roman-32"/>
     <use x="218.212890625" xlink:href="#BitstreamVeraSans-Roman-2e"/>
     <use x="250.0" xlink:href="#BitstreamVeraSans-Roman-31"/>
     <use x="313.623046875" xlink:href="#BitstreamVeraSans-Roman-2e"/>
     <use x="345.41015625" xlink:href="#BitstreamVeraSans-Roman-31"/>
     <use x="409.033203125" xlink:href="#BitstreamVeraSans-Roman-30"/>
    </g>
   </g>
   <g id="legend_1">
    <g id="patch_7">
     <path d="M 407.293125 141.103218 
L 557.24 141.103218 
L 557.24 17.678218 
L 407.293125 17.678218 
z
" style="fill:#ffffff;opacity:0.2;stroke:#000000;stroke-linejoin:miter;"/>
    </g>
    <g id="line2d_99">
     <path d="M 421.293125 33.875093 
L 449.293125 33.875093 
" style="fill:none;stroke:#000000;stroke-linecap:square;"/>
    </g>
    <g id="line2d_100"/>
    <g id="text_15">
     <!-- 1: 4/24 -->
     <defs>
      <path d="M 11.71875 12.40625 
L 22.015625 12.40625 
L 22.015625 0 
L 11.71875 0 
z
M 11.71875 51.703125 
L 22.015625 51.703125 
L 22.015625 39.3125 
L 11.71875 39.3125 
z
" id="BitstreamVeraSans-Roman-3a"/>
     </defs>
     <g transform="translate(471.293125 40.8750928218)scale(0.2 -0.2)">
      <use xlink:href="#BitstreamVeraSans-Roman-31"/>
      <use x="63.623046875" xlink:href="#BitstreamVeraSans-Roman-3a"/>
      <use x="97.314453125" xlink:href="#BitstreamVeraSans-Roman-20"/>
      <use x="129.1015625" xlink:href="#BitstreamVeraSans-Roman-34"/>
      <use x="192.724609375" xlink:href="#BitstreamVeraSans-Roman-2f"/>
      <use x="226.416015625" xlink:href="#BitstreamVeraSans-Roman-32"/>
      <use x="290.0390625" xlink:href="#BitstreamVeraSans-Roman-34"/>
     </g>
    </g>
    <g id="line2d_101">
     <path d="M 421.293125 63.231343 
L 449.293125 63.231343 
" style="fill:none;stroke:#00bfbf;stroke-linecap:square;"/>
    </g>
    <g id="line2d_102"/>
    <g id="text_16">
     <!-- -1: 1/24 -->
     <g transform="translate(471.293125 70.2313428218)scale(0.2 -0.2)">
      <use xlink:href="#BitstreamVeraSans-Roman-2d"/>
      <use x="36.083984375" xlink:href="#BitstreamVeraSans-Roman-31"/>
      <use x="99.70703125" xlink:href="#BitstreamVeraSans-Roman-3a"/>
      <use x="133.3984375" xlink:href="#BitstreamVeraSans-Roman-20"/>
      <use x="165.185546875" xlink:href="#BitstreamVeraSans-Roman-31"/>
      <use x="228.80859375" xlink:href="#BitstreamVeraSans-Roman-2f"/>
      <use x="262.5" xlink:href="#BitstreamVeraSans-Roman-32"/>
      <use x="326.123046875" xlink:href="#BitstreamVeraSans-Roman-34"/>
     </g>
    </g>
    <g id="line2d_103">
     <path d="M 421.293125 92.587593 
L 449.293125 92.587593 
" style="fill:none;stroke:#bf00bf;stroke-linecap:square;"/>
    </g>
    <g id="line2d_104"/>
    <g id="text_17">
     <!-- -4: 0/24 -->
     <g transform="translate(471.293125 99.5875928218)scale(0.2 -0.2)">
      <use xlink:href="#BitstreamVeraSans-Roman-2d"/>
      <use x="36.083984375" xlink:href="#BitstreamVeraSans-Roman-34"/>
      <use x="99.70703125" xlink:href="#BitstreamVeraSans-Roman-3a"/>
      <use x="133.3984375" xlink:href="#BitstreamVeraSans-Roman-20"/>
      <use x="165.185546875" xlink:href="#BitstreamVeraSans-Roman-30"/>
      <use x="228.80859375" xlink:href="#BitstreamVeraSans-Roman-2f"/>
      <use x="262.5" xlink:href="#BitstreamVeraSans-Roman-32"/>
      <use x="326.123046875" xlink:href="#BitstreamVeraSans-Roman-34"/>
     </g>
    </g>
    <g id="line2d_105">
     <path d="M 421.293125 121.943843 
L 449.293125 121.943843 
" style="fill:none;stroke:#ff0000;stroke-linecap:square;stroke-width:3.0;"/>
    </g>
    <g id="line2d_106"/>
    <g id="text_18">
     <!-- -8: 0/24 -->
     <g transform="translate(471.293125 128.943842822)scale(0.2 -0.2)">
      <use xlink:href="#BitstreamVeraSans-Roman-2d"/>
      <use x="36.083984375" xlink:href="#BitstreamVeraSans-Roman-38"/>
      <use x="99.70703125" xlink:href="#BitstreamVeraSans-Roman-3a"/>
      <use x="133.3984375" xlink:href="#BitstreamVeraSans-Roman-20"/>
      <use x="165.185546875" xlink:href="#BitstreamVeraSans-Roman-30"/>
      <use x="228.80859375" xlink:href="#BitstreamVeraSans-Roman-2f"/>
      <use x="262.5" xlink:href="#BitstreamVeraSans-Roman-32"/>
      <use x="326.123046875" xlink:href="#BitstreamVeraSans-Roman-34"/>
     </g>
    </g>
   </g>
  </g>
 </g>
 <defs>
  <clipPath id="pc33dd9d369">
   <rect height="376.321782178" width="511.815" x="55.425" y="7.67821782178"/>
  </clipPath>
 </defs>
</svg>
