<?xml version="1.0" encoding="utf-8" standalone="no"?>
<!DOCTYPE svg PUBLIC "-//W3C//DTD SVG 1.1//EN"
  "http://www.w3.org/Graphics/SVG/1.1/DTD/svg11.dtd">
<!-- Created with matplotlib (http://matplotlib.org/) -->
<svg height="432pt" version="1.1" viewBox="0 0 576 432" width="576pt" xmlns="http://www.w3.org/2000/svg" xmlns:xlink="http://www.w3.org/1999/xlink">
 <defs>
  <style type="text/css">
*{stroke-linecap:butt;stroke-linejoin:round;stroke-miterlimit:100000;}
  </style>
 </defs>
 <g id="figure_1">
  <g id="patch_1">
   <path d="M 0 432 
L 576 432 
L 576 0 
L 0 0 
z
" style="fill:#ffffff;"/>
  </g>
  <g id="axes_1">
   <g id="patch_2">
    <path d="M 55.425 384 
L 567.24 384 
L 567.24 7.678218 
L 55.425 7.678218 
z
" style="fill:#ffffff;"/>
   </g>
   <g id="line2d_1">
    <path clip-path="url(#pb4823a1c3f)" d="M 413.354121 384 
L 413.354121 379.032056 
L 413.354121 379.032056 
L 413.354121 374.064111 
L 413.886228 374.064111 
L 413.886228 369.096167 
L 413.886228 369.096167 
L 413.886228 364.128223 
L 413.886228 364.128223 
L 413.886228 359.160278 
L 414.151051 359.160278 
L 414.151051 354.192334 
L 414.151051 354.192334 
L 414.151051 349.22439 
L 414.940659 349.22439 
L 414.940659 344.256445 
L 417.266861 344.256445 
L 417.266861 339.288501 
L 417.266861 339.288501 
L 417.266861 334.320557 
L 418.783401 334.320557 
L 418.783401 329.352612 
L 419.531751 329.352612 
L 419.531751 324.384668 
L 422.22126 324.384668 
L 422.22126 319.416724 
L 425.294917 319.416724 
L 425.294917 314.44878 
L 427.812501 314.44878 
L 427.812501 309.480835 
L 446.943225 309.480835 
L 446.943225 304.512891 
L 448.906519 304.512891 
L 448.906519 299.544947 
L 449.434269 299.544947 
L 449.434269 294.577002 
L 449.434269 294.577002 
L 449.434269 289.609058 
L 449.784311 289.609058 
L 449.784311 284.641114 
L 450.653226 284.641114 
L 450.653226 279.673169 
L 450.82596 279.673169 
L 450.82596 274.705225 
L 451.855134 274.705225 
L 451.855134 269.737281 
L 451.855134 269.737281 
L 451.855134 264.769336 
L 453.040464 264.769336 
L 453.040464 259.801392 
L 453.543499 259.801392 
L 453.543499 254.833448 
L 453.543499 254.833448 
L 453.543499 249.865503 
L 454.705923 249.865503 
L 454.705923 244.897559 
L 475.806376 244.897559 
L 475.806376 239.929615 
L 476.320958 239.929615 
L 476.320958 234.96167 
L 488.831835 234.96167 
L 488.831835 229.993726 
L 490.479202 229.993726 
L 490.479202 225.025782 
L 494.204523 225.025782 
L 494.204523 220.057837 
L 496.364584 220.057837 
L 496.364584 215.089893 
L 497.574956 215.089893 
L 497.574956 210.121949 
L 497.775038 210.121949 
L 497.775038 205.154005 
L 499.457182 205.154005 
L 499.457182 200.18606 
L 505.601388 200.18606 
L 505.601388 195.218116 
L 522.22177 195.218116 
L 522.22177 190.250172 
L 535.693967 190.250172 
L 535.693967 185.282227 
L 540.505836 185.282227 
L 540.505836 180.314283 
L 548.175397 180.314283 
L 548.175397 175.346339 
L 556.28499 175.346339 
L 556.28499 170.378394 
L 556.28499 170.378394 
L 556.28499 170.378394 
L 567.24 170.378394 
" style="fill:none;stroke:#f5deb3;stroke-linecap:square;"/>
   </g>
   <g id="line2d_2">
    <path clip-path="url(#pb4823a1c3f)" d="M 336.7216 384 
L 336.7216 369.096167 
L 336.7216 369.096167 
L 336.7216 354.192334 
L 337.370169 354.192334 
L 337.370169 339.288501 
L 337.370169 339.288501 
L 337.370169 324.384668 
L 337.370169 324.384668 
L 337.370169 309.480835 
L 565.757938 309.480835 
L 565.757938 294.577002 
L 577 294.577002 
" style="fill:none;stroke:#f5deb3;stroke-linecap:square;"/>
   </g>
   <g id="line2d_3">
    <path clip-path="url(#pb4823a1c3f)" d="M 182.746715 384 
L 182.746715 379.032056 
L 182.746715 379.032056 
L 182.746715 374.064111 
L 182.746715 374.064111 
L 182.746715 369.096167 
L 182.746715 369.096167 
L 182.746715 364.128223 
L 182.746715 364.128223 
L 182.746715 359.160278 
L 182.746715 359.160278 
L 182.746715 354.192334 
L 182.746715 354.192334 
L 182.746715 349.22439 
L 182.746715 349.22439 
L 182.746715 344.256445 
L 182.746715 344.256445 
L 182.746715 339.288501 
L 182.746715 339.288501 
L 182.746715 334.320557 
L 182.746715 334.320557 
L 182.746715 329.352612 
L 182.746715 329.352612 
L 182.746715 324.384668 
L 182.746715 324.384668 
L 182.746715 319.416724 
L 182.746715 319.416724 
L 182.746715 314.44878 
L 182.746715 314.44878 
L 182.746715 309.480835 
L 182.746715 309.480835 
L 182.746715 304.512891 
L 182.746715 304.512891 
L 182.746715 299.544947 
L 182.746715 299.544947 
L 182.746715 294.577002 
L 182.746715 294.577002 
L 182.746715 289.609058 
L 186.566678 289.609058 
L 186.566678 284.641114 
L 186.566678 284.641114 
L 186.566678 279.673169 
L 186.566678 279.673169 
L 186.566678 274.705225 
L 190.224039 274.705225 
L 190.224039 269.737281 
L 190.224039 269.737281 
L 190.224039 264.769336 
L 193.732078 264.769336 
L 193.732078 259.801392 
L 193.732078 259.801392 
L 193.732078 254.833448 
L 193.732078 254.833448 
L 193.732078 249.865503 
L 197.102511 249.865503 
L 197.102511 244.897559 
L 200.345727 244.897559 
L 200.345727 239.929615 
L 214.946004 239.929615 
L 214.946004 234.96167 
L 577 234.96167 
" style="fill:none;stroke:#f5deb3;stroke-linecap:square;"/>
   </g>
   <g id="line2d_4">
    <path clip-path="url(#pb4823a1c3f)" d="M 130.658423 384 
L 130.658423 379.032056 
L 165.502075 379.032056 
L 165.502075 374.064111 
L 186.566678 374.064111 
L 186.566678 369.096167 
L 190.224039 369.096167 
L 190.224039 364.128223 
L 200.345727 364.128223 
L 200.345727 359.160278 
L 209.399885 359.160278 
L 209.399885 354.192334 
L 214.946004 354.192334 
L 214.946004 349.22439 
L 217.590367 349.22439 
L 217.590367 344.256445 
L 217.590367 344.256445 
L 217.590367 339.288501 
L 217.590367 339.288501 
L 217.590367 334.320557 
L 225.067691 334.320557 
L 225.067691 329.352612 
L 231.946163 329.352612 
L 231.946163 324.384668 
L 234.121849 324.384668 
L 234.121849 319.416724 
L 240.336727 319.416724 
L 240.336727 314.44878 
L 253.297695 314.44878 
L 253.297695 309.480835 
L 428.037757 309.480835 
L 428.037757 304.512891 
L 432.849626 304.512891 
L 432.849626 299.544947 
L 435.777136 299.544947 
L 435.777136 294.577002 
L 436.798967 294.577002 
L 436.798967 289.609058 
L 437.001884 289.609058 
L 437.001884 284.641114 
L 437.607774 284.641114 
L 437.607774 279.673169 
L 438.00934 279.673169 
L 438.00934 274.705225 
L 439.202901 274.705225 
L 439.202901 269.737281 
L 439.597099 269.737281 
L 439.597099 264.769336 
L 440.380111 264.769336 
L 440.380111 259.801392 
L 442.306986 259.801392 
L 442.306986 254.833448 
L 446.581393 254.833448 
L 446.581393 249.865503 
L 446.943225 249.865503 
L 446.943225 244.897559 
L 448.375508 244.897559 
L 448.375508 239.929615 
L 453.040464 239.929615 
L 453.040464 234.96167 
L 533.149974 234.96167 
L 533.149974 229.993726 
L 537.600888 229.993726 
L 537.600888 225.025782 
L 537.663729 225.025782 
L 537.663729 220.057837 
L 537.663729 220.057837 
L 537.663729 215.089893 
L 538.662984 215.089893 
L 538.662984 210.121949 
L 539.834703 210.121949 
L 539.834703 205.154005 
L 539.957118 205.154005 
L 539.957118 200.18606 
L 540.627299 200.18606 
L 540.627299 195.218116 
L 542.784777 195.218116 
L 542.784777 190.250172 
L 544.773831 190.250172 
L 544.773831 185.282227 
L 547.50577 185.282227 
L 547.50577 180.314283 
L 548.064155 180.314283 
L 548.064155 175.346339 
L 552.087148 175.346339 
L 552.087148 170.378394 
L 552.40523 170.378394 
L 552.40523 165.41045 
L 554.185788 165.41045 
L 554.185788 160.442506 
L 554.185788 160.442506 
L 554.185788 160.442506 
L 567.24 160.442506 
" style="fill:none;stroke:#f5deb3;stroke-linecap:square;"/>
   </g>
   <g id="line2d_5">
    <path clip-path="url(#pb4823a1c3f)" d="M 347.132145 384 
L 347.132145 379.032056 
L 365.729301 379.032056 
L 365.729301 374.064111 
L 366.653342 374.064111 
L 366.653342 369.096167 
L 369.811415 369.096167 
L 369.811415 364.128223 
L 379.439505 364.128223 
L 379.439505 359.160278 
L 379.439505 359.160278 
L 379.439505 354.192334 
L 380.61941 354.192334 
L 380.61941 349.22439 
L 386.652414 349.22439 
L 386.652414 344.256445 
L 401.65004 344.256445 
L 401.65004 339.288501 
L 406.119072 339.288501 
L 406.119072 334.320557 
L 413.086827 334.320557 
L 413.086827 329.352612 
L 417.266861 329.352612 
L 417.266861 324.384668 
L 419.77976 324.384668 
L 419.77976 319.416724 
L 434.53468 319.416724 
L 434.53468 314.44878 
L 457.30529 314.44878 
L 457.30529 309.480835 
L 461.825127 309.480835 
L 461.825127 304.512891 
L 463.330157 304.512891 
L 463.330157 299.544947 
L 463.330157 299.544947 
L 463.330157 294.577002 
L 464.809282 294.577002 
L 464.809282 289.609058 
L 466.838196 289.609058 
L 466.838196 284.641114 
L 468.960156 284.641114 
L 468.960156 279.673169 
L 470.208629 279.673169 
L 470.208629 274.705225 
L 470.620788 274.705225 
L 470.620788 269.737281 
L 471.167276 269.737281 
L 471.167276 264.769336 
L 473.319126 264.769336 
L 473.319126 259.801392 
L 473.319126 259.801392 
L 473.319126 254.833448 
L 475.158784 254.833448 
L 475.158784 249.865503 
L 476.832478 249.865503 
L 476.832478 244.897559 
L 477.846472 244.897559 
L 477.846472 239.929615 
L 486.812382 239.929615 
L 486.812382 234.96167 
L 577 234.96167 
" style="fill:none;stroke:#f5deb3;stroke-linecap:square;"/>
   </g>
   <g id="line2d_6"/>
   <g id="line2d_7">
    <path clip-path="url(#pb4823a1c3f)" d="M 330.653078 384 
L 330.653078 379.032056 
L 333.403233 379.032056 
L 333.403233 374.064111 
L 339.916578 374.064111 
L 339.916578 369.096167 
L 342.997016 369.096167 
L 342.997016 364.128223 
L 344.793633 364.128223 
L 344.793633 359.160278 
L 348.845192 359.160278 
L 348.845192 349.22439 
L 349.968541 349.22439 
L 349.968541 344.256445 
L 350.524757 344.256445 
L 350.524757 339.288501 
L 351.626503 339.288501 
L 351.626503 334.320557 
L 354.849444 334.320557 
L 354.849444 329.352612 
L 356.932819 329.352612 
L 356.932819 324.384668 
L 357.445866 324.384668 
L 357.445866 319.416724 
L 358.966879 319.416724 
L 358.966879 314.44878 
L 364.795215 314.44878 
L 364.795215 309.480835 
L 491.452674 309.480835 
L 491.452674 304.512891 
L 491.988765 304.512891 
L 491.988765 299.544947 
L 493.051016 299.544947 
L 493.051016 294.577002 
L 493.577258 294.577002 
L 493.577258 289.609058 
L 494.620171 289.609058 
L 494.620171 284.641114 
L 495.445484 284.641114 
L 495.445484 279.673169 
L 496.262946 279.673169 
L 496.262946 274.705225 
L 497.072705 274.705225 
L 497.072705 269.737281 
L 497.775038 269.737281 
L 497.775038 264.769336 
L 498.074289 264.769336 
L 498.074289 259.801392 
L 500.818172 259.801392 
L 500.818172 254.833448 
L 501.299063 254.833448 
L 501.299063 249.865503 
L 502.157943 249.865503 
L 502.157943 244.897559 
L 505.327273 244.897559 
L 505.327273 239.929615 
L 507.406812 239.929615 
L 507.406812 234.96167 
L 577 234.96167 
L 577 234.96167 
" style="fill:none;stroke:#f5deb3;stroke-linecap:square;"/>
   </g>
   <g id="line2d_8">
    <path clip-path="url(#pb4823a1c3f)" d="M 570.430428 384 
L 570.430428 379.032056 
L 572.507381 379.032056 
L 572.507381 374.064111 
L 573.589385 374.064111 
L 573.672055 364.128223 
L 573.837156 364.128223 
L 573.837156 359.160278 
L 574.330564 359.160278 
L 574.330564 354.192334 
L 574.453475 354.192334 
L 574.535318 344.256445 
L 576.156017 344.256445 
L 576.156017 339.288501 
L 576.436523 339.288501 
L 576.436523 334.320557 
L 577 334.320557 
L 577 334.320557 
" style="fill:none;stroke:#f5deb3;stroke-linecap:square;"/>
   </g>
   <g id="line2d_9">
    <path clip-path="url(#pb4823a1c3f)" d="M 222.646826 384 
L 222.646826 379.032056 
L 231.946163 379.032056 
L 231.946163 374.064111 
L 238.314633 374.064111 
L 238.314633 369.096167 
L 247.980431 369.096167 
L 247.980431 364.128223 
L 249.789656 364.128223 
L 249.789656 359.160278 
L 270.385947 359.160278 
L 270.385947 354.192334 
L 275.843973 354.192334 
L 275.843973 349.22439 
L 288.141347 349.22439 
L 288.141347 344.256445 
L 288.141347 344.256445 
L 288.141347 339.288501 
L 293.687466 339.288501 
L 293.687466 334.320557 
L 293.687466 334.320557 
L 293.687466 329.352612 
L 298.897244 329.352612 
L 298.897244 324.384668 
L 299.902343 324.384668 
L 299.902343 319.416724 
L 300.895823 319.416724 
L 300.895823 314.44878 
L 301.877948 314.44878 
L 301.877948 309.480835 
L 473.451844 309.480835 
L 473.451844 304.512891 
L 473.848774 304.512891 
L 473.848774 299.544947 
L 476.320958 299.544947 
L 476.320958 294.577002 
L 478.848641 294.577002 
L 478.848641 289.609058 
L 479.839257 289.609058 
L 479.839257 284.641114 
L 480.085138 284.641114 
L 480.085138 279.673169 
L 481.545825 279.673169 
L 481.545825 274.705225 
L 482.386565 274.705225 
L 482.386565 269.737281 
L 482.74438 269.737281 
L 482.74438 264.769336 
L 484.860534 264.769336 
L 484.860534 259.801392 
L 485.208215 259.801392 
L 485.208215 254.833448 
L 487.15227 254.833448 
L 487.15227 249.865503 
L 492.62769 249.865503 
L 492.62769 244.897559 
L 492.733717 244.897559 
L 492.733717 239.929615 
L 493.472267 239.929615 
L 493.472267 234.96167 
L 566.972428 234.96167 
L 566.972428 229.993726 
L 568.477769 229.993726 
L 568.477769 225.025782 
L 568.653146 225.025782 
L 568.653146 220.057837 
L 569.002831 220.057837 
L 569.002831 215.089893 
L 570.815692 215.089893 
L 570.815692 210.121949 
L 574.084214 210.121949 
L 574.084214 205.154005 
L 576.196145 205.154005 
L 576.196145 200.18606 
L 577 200.18606 
" style="fill:none;stroke:#f5deb3;stroke-linecap:square;"/>
   </g>
   <g id="line2d_10">
    <path clip-path="url(#pb4823a1c3f)" d="M 313.718393 384 
L 313.718393 379.032056 
L 329.244275 379.032056 
L 329.244275 374.064111 
L 329.951564 374.064111 
L 329.951564 359.160278 
L 332.723901 359.160278 
L 332.723901 354.192334 
L 334.745995 354.192334 
L 334.745995 349.22439 
L 343.600071 349.22439 
L 343.600071 344.256445 
L 344.793633 344.256445 
L 344.793633 339.288501 
L 356.416692 339.288501 
L 356.416692 334.320557 
L 362.414592 334.320557 
L 362.414592 329.352612 
L 376.621711 329.352612 
L 376.621711 324.384668 
L 377.029954 324.384668 
L 377.029954 319.416724 
L 391.260344 319.416724 
L 391.260344 314.44878 
L 392.96885 314.44878 
L 392.96885 309.480835 
L 577 309.480835 
L 577 309.480835 
" style="fill:none;stroke:#f5deb3;stroke-linecap:square;"/>
   </g>
   <g id="line2d_11">
    <path clip-path="url(#pb4823a1c3f)" d="M 149.834268 384 
L 149.834268 379.032056 
L 174.556233 379.032056 
L 174.556233 374.064111 
L 178.749017 374.064111 
L 178.749017 369.096167 
L 178.749017 369.096167 
L 178.749017 364.128223 
L 178.749017 364.128223 
L 178.749017 359.160278 
L 182.746715 359.160278 
L 182.746715 354.192334 
L 182.746715 354.192334 
L 182.746715 349.22439 
L 186.566678 349.22439 
L 186.566678 344.256445 
L 186.566678 344.256445 
L 186.566678 339.288501 
L 200.345727 339.288501 
L 200.345727 334.320557 
L 200.345727 334.320557 
L 200.345727 329.352612 
L 217.590367 329.352612 
L 217.590367 324.384668 
L 217.590367 324.384668 
L 217.590367 319.416724 
L 227.422223 319.416724 
L 227.422223 314.44878 
L 229.713959 314.44878 
L 229.713959 309.480835 
L 415.202257 309.480835 
L 415.202257 304.512891 
L 421.980208 304.512891 
L 421.980208 299.544947 
L 421.980208 299.544947 
L 421.980208 294.577002 
L 422.701345 294.577002 
L 422.701345 289.609058 
L 424.360832 289.609058 
L 424.360832 284.641114 
L 425.75818 284.641114 
L 425.75818 279.673169 
L 425.988878 279.673169 
L 425.988878 274.705225 
L 427.586654 274.705225 
L 427.586654 269.737281 
L 428.037757 269.737281 
L 428.037757 264.769336 
L 432.209113 264.769336 
L 432.209113 259.801392 
L 432.209113 259.801392 
L 432.209113 254.833448 
L 433.90665 254.833448 
L 433.90665 249.865503 
L 434.325847 249.865503 
L 434.325847 244.897559 
L 438.00934 244.897559 
L 438.00934 239.929615 
L 438.608193 239.929615 
L 438.608193 234.96167 
L 577 234.96167 
" style="fill:none;stroke:#f5deb3;stroke-linecap:square;"/>
   </g>
   <g id="line2d_12">
    <path clip-path="url(#pb4823a1c3f)" d="M 137.536895 384 
L 137.536895 379.032056 
L 137.536895 379.032056 
L 137.536895 374.064111 
L 137.536895 374.064111 
L 137.536895 369.096167 
L 137.536895 369.096167 
L 137.536895 364.128223 
L 137.536895 364.128223 
L 137.536895 359.160278 
L 137.536895 359.160278 
L 137.536895 354.192334 
L 137.536895 354.192334 
L 137.536895 349.22439 
L 137.536895 349.22439 
L 137.536895 344.256445 
L 137.536895 344.256445 
L 137.536895 339.288501 
L 137.536895 339.288501 
L 137.536895 334.320557 
L 137.536895 334.320557 
L 137.536895 329.352612 
L 137.536895 329.352612 
L 137.536895 324.384668 
L 137.536895 324.384668 
L 137.536895 319.416724 
L 137.536895 319.416724 
L 137.536895 314.44878 
L 137.536895 314.44878 
L 137.536895 309.480835 
L 170.148343 309.480835 
L 170.148343 304.512891 
L 170.148343 304.512891 
L 170.148343 299.544947 
L 193.732078 299.544947 
L 193.732078 294.577002 
L 212.217679 294.577002 
L 212.217679 289.609058 
L 212.217679 289.609058 
L 212.217679 284.641114 
L 212.217679 284.641114 
L 212.217679 279.673169 
L 212.217679 279.673169 
L 212.217679 274.705225 
L 212.217679 274.705225 
L 212.217679 269.737281 
L 212.217679 269.737281 
L 212.217679 264.769336 
L 212.217679 264.769336 
L 212.217679 259.801392 
L 212.217679 259.801392 
L 212.217679 254.833448 
L 227.422223 254.833448 
L 227.422223 249.865503 
L 227.422223 249.865503 
L 227.422223 244.897559 
L 227.422223 244.897559 
L 227.422223 239.929615 
L 240.336727 239.929615 
L 240.336727 234.96167 
L 453.040464 234.96167 
L 453.040464 229.993726 
L 455.035176 229.993726 
L 455.035176 225.025782 
L 456.984637 225.025782 
L 456.984637 220.057837 
L 457.94303 220.057837 
L 457.94303 215.089893 
L 461.673164 215.089893 
L 461.673164 210.121949 
L 472.786194 210.121949 
L 472.786194 205.154005 
L 474.375177 205.154005 
L 474.375177 200.18606 
L 479.592672 200.18606 
L 479.592672 195.218116 
L 480.452644 195.218116 
L 480.452644 190.250172 
L 480.452644 190.250172 
L 480.452644 185.282227 
L 489.494577 185.282227 
L 489.494577 180.314283 
L 491.452674 180.314283 
L 491.452674 175.346339 
L 491.988765 175.346339 
L 491.988765 170.378394 
L 505.144042 170.378394 
L 505.144042 165.41045 
L 505.692566 165.41045 
L 505.692566 160.442506 
L 505.692566 160.442506 
L 505.692566 160.442506 
L 567.24 160.442506 
" style="fill:none;stroke:#f5deb3;stroke-linecap:square;"/>
   </g>
   <g id="line2d_13">
    <path clip-path="url(#pb4823a1c3f)" d="M 418.028477 384 
L 418.028477 379.032056 
L 418.028477 379.032056 
L 418.028477 374.064111 
L 418.028477 374.064111 
L 418.028477 369.096167 
L 425.294917 369.096167 
L 425.294917 364.128223 
L 425.294917 364.128223 
L 425.294917 359.160278 
L 425.294917 359.160278 
L 425.294917 354.192334 
L 425.988878 354.192334 
L 425.988878 349.22439 
L 425.988878 349.22439 
L 425.988878 344.256445 
L 425.988878 344.256445 
L 425.988878 339.288501 
L 441.348949 339.288501 
L 441.348949 334.320557 
L 441.348949 334.320557 
L 441.348949 329.352612 
L 441.348949 329.352612 
L 441.348949 324.384668 
L 450.998347 324.384668 
L 450.998347 319.416724 
L 450.998347 319.416724 
L 450.998347 314.44878 
L 450.998347 314.44878 
L 450.998347 309.480835 
L 577 309.480835 
" style="fill:none;stroke:#f5deb3;stroke-linecap:square;"/>
   </g>
   <g id="line2d_14">
    <path clip-path="url(#pb4823a1c3f)" d="M 222.646826 384 
L 222.646826 379.032056 
L 222.646826 379.032056 
L 222.646826 374.064111 
L 225.067691 374.064111 
L 225.067691 369.096167 
L 229.713959 369.096167 
L 229.713959 364.128223 
L 236.243809 364.128223 
L 236.243809 359.160278 
L 236.243809 359.160278 
L 236.243809 354.192334 
L 236.243809 354.192334 
L 236.243809 349.22439 
L 242.312331 349.22439 
L 242.312331 344.256445 
L 246.132294 344.256445 
L 246.132294 339.288501 
L 246.132294 339.288501 
L 246.132294 334.320557 
L 246.132294 334.320557 
L 246.132294 329.352612 
L 246.132294 329.352612 
L 246.132294 324.384668 
L 246.132294 324.384668 
L 246.132294 319.416724 
L 246.132294 319.416724 
L 246.132294 314.44878 
L 246.132294 314.44878 
L 246.132294 309.480835 
L 351.077396 309.480835 
L 351.077396 304.512891 
L 356.932819 304.512891 
L 356.932819 299.544947 
L 361.93045 299.544947 
L 361.93045 294.577002 
L 364.795215 294.577002 
L 364.795215 289.609058 
L 364.795215 289.609058 
L 364.795215 284.641114 
L 366.653342 284.641114 
L 366.653342 279.673169 
L 367.567553 279.673169 
L 367.567553 274.705225 
L 368.472141 274.705225 
L 368.472141 269.737281 
L 371.998175 269.737281 
L 371.998175 264.769336 
L 373.708381 264.769336 
L 373.708381 259.801392 
L 377.436267 259.801392 
L 377.436267 254.833448 
L 378.643805 254.833448 
L 378.643805 249.865503 
L 381.397107 249.865503 
L 381.397107 244.897559 
L 381.397107 244.897559 
L 381.397107 239.929615 
L 394.975206 239.929615 
L 394.975206 234.96167 
L 577 234.96167 
" style="fill:none;stroke:#f5deb3;stroke-linecap:square;"/>
   </g>
   <g id="line2d_15">
    <path clip-path="url(#pb4823a1c3f)" d="M 911.613493 384 
" style="fill:none;stroke:#f5deb3;stroke-linecap:square;"/>
   </g>
   <g id="line2d_16">
    <path clip-path="url(#pb4823a1c3f)" d="M 454.043607 384 
L 454.043607 379.032056 
L 462.731304 379.032056 
L 462.731304 369.096167 
L 471.303357 369.096167 
L 471.303357 364.128223 
L 476.704883 364.128223 
L 476.704883 359.160278 
L 479.097368 359.160278 
L 479.097368 354.192334 
L 479.221462 354.192334 
L 479.221462 344.256445 
L 479.345377 344.256445 
L 479.345377 339.288501 
L 479.469113 339.288501 
L 479.469113 334.320557 
L 480.085138 334.320557 
L 480.085138 329.352612 
L 482.74438 329.352612 
L 482.74438 324.384668 
L 482.982098 324.384668 
L 482.982098 319.416724 
L 489.053317 319.416724 
L 489.053317 314.44878 
L 498.173809 314.44878 
L 498.173809 309.480835 
L 558.48217 309.480835 
L 558.48217 304.512891 
L 561.628551 304.512891 
L 561.628551 299.544947 
L 563.229579 299.544947 
L 563.229579 294.577002 
L 563.601996 294.577002 
L 563.601996 289.609058 
L 564.295956 289.609058 
L 564.295956 284.641114 
L 567.949478 284.641114 
L 567.949478 279.673169 
L 571.496369 279.673169 
L 571.496369 274.705225 
L 572.003361 274.705225 
L 572.003361 269.737281 
L 574.617083 269.737281 
L 574.617083 264.769336 
L 576.035519 264.769336 
L 576.035519 259.801392 
L 576.915271 259.801392 
L 576.915271 254.833448 
L 577 254.833448 
" style="fill:none;stroke:#f5deb3;stroke-linecap:square;"/>
   </g>
   <g id="line2d_17">
    <path clip-path="url(#pb4823a1c3f)" d="M 329.951564 384 
L 329.951564 379.032056 
L 339.287015 379.032056 
L 339.287015 374.064111 
L 359.46796 374.064111 
L 359.46796 369.096167 
L 377.436267 369.096167 
L 377.436267 364.128223 
L 380.227905 364.128223 
L 380.227905 359.160278 
L 404.359249 359.160278 
L 404.359249 354.192334 
L 411.737741 354.192334 
L 411.737741 349.22439 
L 412.009258 349.22439 
L 412.009258 344.256445 
L 417.011482 344.256445 
L 417.011482 339.288501 
L 440.380111 339.288501 
L 440.380111 334.320557 
L 458.576071 334.320557 
L 458.576071 329.352612 
L 459.672796 329.352612 
L 459.672796 324.384668 
L 460.447688 324.384668 
L 460.447688 319.416724 
L 508.383861 319.416724 
L 508.383861 314.44878 
L 508.999886 314.44878 
L 508.999886 309.480835 
L 577 309.480835 
" style="fill:none;stroke:#f5deb3;stroke-linecap:square;"/>
   </g>
   <g id="line2d_18">
    <path clip-path="url(#pb4823a1c3f)" d="M 130.658423 384 
L 130.658423 379.032056 
L 130.658423 379.032056 
L 130.658423 374.064111 
L 130.658423 374.064111 
L 130.658423 369.096167 
L 130.658423 369.096167 
L 130.658423 364.128223 
L 130.658423 364.128223 
L 130.658423 359.160278 
L 130.658423 359.160278 
L 130.658423 354.192334 
L 130.658423 354.192334 
L 130.658423 349.22439 
L 130.658423 349.22439 
L 130.658423 344.256445 
L 130.658423 344.256445 
L 130.658423 339.288501 
L 130.658423 339.288501 
L 130.658423 334.320557 
L 130.658423 334.320557 
L 130.658423 329.352612 
L 130.658423 329.352612 
L 130.658423 324.384668 
L 130.658423 324.384668 
L 130.658423 319.416724 
L 130.658423 319.416724 
L 130.658423 314.44878 
L 130.658423 314.44878 
L 130.658423 309.480835 
L 137.536895 309.480835 
L 137.536895 304.512891 
L 137.536895 304.512891 
L 137.536895 299.544947 
L 137.536895 299.544947 
L 137.536895 294.577002 
L 137.536895 294.577002 
L 137.536895 289.609058 
L 137.536895 289.609058 
L 137.536895 284.641114 
L 143.905365 284.641114 
L 143.905365 279.673169 
L 149.834268 279.673169 
L 149.834268 274.705225 
L 155.380387 274.705225 
L 155.380387 269.737281 
L 155.380387 269.737281 
L 155.380387 264.769336 
L 160.590165 264.769336 
L 160.590165 259.801392 
L 160.590165 259.801392 
L 160.590165 254.833448 
L 160.590165 254.833448 
L 160.590165 249.865503 
L 160.590165 249.865503 
L 160.590165 244.897559 
L 165.502075 244.897559 
L 165.502075 239.929615 
L 178.749017 239.929615 
L 178.749017 234.96167 
L 577 234.96167 
" style="fill:none;stroke:#f5deb3;stroke-linecap:square;"/>
   </g>
   <g id="line2d_19">
    <path clip-path="url(#pb4823a1c3f)" d="M 482.863321 384 
L 482.863321 382.344019 
L 482.863321 382.344019 
L 482.863321 382.344019 
L 482.863321 380.688037 
L 482.863321 380.688037 
L 482.863321 380.688037 
L 482.863321 379.032056 
L 497.874904 379.032056 
L 497.874904 374.064111 
L 513.775282 374.064111 
L 513.775282 369.096167 
L 538.725054 369.096167 
L 538.725054 364.128223 
L 540.079358 364.128223 
L 540.079358 359.160278 
L 544.368066 359.160278 
L 544.368066 354.192334 
L 550.586997 354.192334 
L 550.586997 349.22439 
L 554.237603 349.22439 
L 554.237603 344.256445 
L 556.839574 344.256445 
L 556.839574 339.288501 
L 561.960622 339.288501 
L 561.960622 334.320557 
L 565.803226 334.320557 
L 565.803226 329.352612 
L 570.12958 329.352612 
L 570.12958 324.384668 
L 572.129644 324.384668 
L 572.129644 319.416724 
L 577 319.416724 
L 577 319.416724 
" style="fill:none;stroke:#f5deb3;stroke-linecap:square;"/>
   </g>
   <g id="line2d_20">
    <path clip-path="url(#pb4823a1c3f)" d="M 149.834268 384 
L 149.834268 379.032056 
L 160.590165 379.032056 
L 160.590165 374.064111 
L 165.502075 374.064111 
L 165.502075 369.096167 
L 165.502075 369.096167 
L 165.502075 364.128223 
L 178.749017 364.128223 
L 178.749017 359.160278 
L 186.566678 359.160278 
L 186.566678 354.192334 
L 190.224039 354.192334 
L 190.224039 349.22439 
L 197.102511 349.22439 
L 197.102511 344.256445 
L 200.345727 344.256445 
L 200.345727 339.288501 
L 200.345727 339.288501 
L 200.345727 334.320557 
L 203.470981 334.320557 
L 203.470981 329.352612 
L 209.399885 329.352612 
L 209.399885 324.384668 
L 214.946004 324.384668 
L 214.946004 319.416724 
L 217.590367 319.416724 
L 217.590367 314.44878 
L 225.067691 314.44878 
L 225.067691 309.480835 
L 368.920889 309.480835 
L 368.920889 304.512891 
L 376.621711 304.512891 
L 376.621711 299.544947 
L 377.029954 299.544947 
L 377.029954 294.577002 
L 378.243175 294.577002 
L 378.243175 289.609058 
L 379.83461 289.609058 
L 379.83461 284.641114 
L 381.783333 284.641114 
L 381.783333 279.673169 
L 383.311107 279.673169 
L 383.311107 274.705225 
L 384.439373 274.705225 
L 384.439373 269.737281 
L 387.737923 269.737281 
L 387.737923 264.769336 
L 388.454053 264.769336 
L 388.454053 259.801392 
L 392.289518 259.801392 
L 392.289518 254.833448 
L 394.311612 254.833448 
L 394.311612 249.865503 
L 397.899553 249.865503 
L 397.899553 244.897559 
L 402.562633 244.897559 
L 402.562633 239.929615 
L 402.864689 239.929615 
L 402.864689 234.96167 
L 437.607774 234.96167 
L 437.607774 229.993726 
L 461.062611 229.993726 
L 461.062611 225.025782 
L 466.694851 225.025782 
L 466.694851 220.057837 
L 469.932754 220.057837 
L 469.932754 215.089893 
L 482.027255 215.089893 
L 482.027255 210.121949 
L 482.982098 210.121949 
L 482.982098 205.154005 
L 487.71578 205.154005 
L 487.71578 200.18606 
L 497.574956 200.18606 
L 497.574956 195.218116 
L 500.431512 195.218116 
L 500.431512 190.250172 
L 518.377881 190.250172 
L 518.377881 185.282227 
L 524.081103 185.282227 
L 524.081103 180.314283 
L 531.882768 180.314283 
L 531.882768 175.346339 
L 540.627299 175.346339 
L 540.627299 170.378394 
L 557.888489 170.378394 
L 557.888489 165.41045 
L 569.741221 165.41045 
L 569.741221 160.442506 
L 577 160.442506 
" style="fill:none;stroke:#f5deb3;stroke-linecap:square;"/>
   </g>
   <g id="line2d_21">
    <path clip-path="url(#pb4823a1c3f)" d="M 533.612169 384 
L 533.612169 379.032056 
L 533.612169 379.032056 
L 533.612169 379.032056 
L 533.612169 374.064111 
L 533.612169 374.064111 
L 533.612169 374.064111 
L 533.612169 369.096167 
L 533.74377 369.096167 
L 533.809494 349.22439 
L 533.940793 349.22439 
L 534.006367 339.288501 
L 534.137366 339.288501 
L 534.137366 329.352612 
L 551.179469 329.352612 
L 551.233128 254.833448 
L 551.980859 254.833448 
L 552.087148 180.314283 
L 552.722139 180.314283 
L 552.774844 165.41045 
L 552.880156 165.41045 
L 552.880156 160.442506 
L 553.142874 160.442506 
L 553.142874 155.474561 
L 553.352472 155.474561 
L 553.457079 140.570728 
L 553.509335 140.570728 
L 553.613752 130.63484 
L 553.718042 130.63484 
L 553.718042 125.666895 
L 553.87424 125.666895 
L 553.978215 115.731007 
L 554.341139 115.731007 
L 554.341139 110.763062 
L 554.599435 110.763062 
L 554.599435 95.859229 
L 555.06242 95.859229 
L 555.06242 90.891285 
L 555.216196 90.891285 
L 555.31856 80.955397 
L 563.880253 80.955397 
L 563.880253 75.987452 
L 564.065258 75.987452 
L 564.065258 66.051564 
L 567.861113 66.051564 
L 567.861113 61.083619 
L 568.125936 61.083619 
L 568.125936 46.179786 
L 568.828167 46.179786 
L 568.828167 36.243898 
L 569.220664 36.243898 
L 569.220664 26.308009 
L 569.220664 26.308009 
" style="fill:none;stroke:#f5deb3;stroke-linecap:square;"/>
   </g>
   <g id="line2d_22">
    <path clip-path="url(#pb4823a1c3f)" d="M 165.502075 384 
L 165.502075 379.032056 
L 165.502075 379.032056 
L 165.502075 374.064111 
L 178.749017 374.064111 
L 178.749017 369.096167 
L 182.746715 369.096167 
L 182.746715 364.128223 
L 193.732078 364.128223 
L 193.732078 359.160278 
L 193.732078 359.160278 
L 193.732078 354.192334 
L 193.732078 354.192334 
L 193.732078 349.22439 
L 203.470981 349.22439 
L 203.470981 344.256445 
L 225.067691 344.256445 
L 225.067691 339.288501 
L 236.243809 339.288501 
L 236.243809 334.320557 
L 238.314633 334.320557 
L 238.314633 329.352612 
L 247.980431 329.352612 
L 247.980431 324.384668 
L 251.561575 324.384668 
L 251.561575 319.416724 
L 321.053793 319.416724 
L 321.053793 314.44878 
L 335.409589 314.44878 
L 335.409589 309.480835 
L 375.385215 309.480835 
L 375.385215 304.512891 
L 377.029954 304.512891 
L 377.029954 299.544947 
L 378.243175 299.544947 
L 378.243175 294.577002 
L 380.61941 294.577002 
L 380.61941 289.609058 
L 382.550615 289.609058 
L 382.550615 284.641114 
L 384.064928 284.641114 
L 384.064928 279.673169 
L 384.439373 279.673169 
L 384.439373 274.705225 
L 385.183404 274.705225 
L 385.183404 269.737281 
L 385.553017 269.737281 
L 385.553017 264.769336 
L 389.164264 264.769336 
L 389.164264 259.801392 
L 389.868653 259.801392 
L 389.868653 254.833448 
L 392.289518 254.833448 
L 392.289518 249.865503 
L 392.629855 249.865503 
L 392.629855 244.897559 
L 395.305091 244.897559 
L 395.305091 239.929615 
L 400.727651 239.929615 
L 400.727651 234.96167 
L 456.339718 234.96167 
L 456.339718 229.993726 
L 465.393876 229.993726 
L 465.393876 225.025782 
L 468.820311 225.025782 
L 468.820311 220.057837 
L 470.483621 220.057837 
L 470.483621 215.089893 
L 475.158784 215.089893 
L 475.158784 210.121949 
L 479.097368 210.121949 
L 479.097368 205.154005 
L 490.80492 205.154005 
L 490.80492 200.18606 
L 497.974655 200.18606 
L 497.974655 195.218116 
L 499.162715 195.218116 
L 499.162715 190.250172 
L 501.299063 190.250172 
L 501.299063 185.282227 
L 504.221984 185.282227 
L 504.221984 180.314283 
L 504.221984 180.314283 
L 504.221984 175.346339 
L 505.510113 175.346339 
L 505.510113 170.378394 
L 506.056312 170.378394 
L 506.056312 165.41045 
L 555.216196 165.41045 
L 555.216196 160.442506 
L 577 160.442506 
" style="fill:none;stroke:#f5deb3;stroke-linecap:square;"/>
   </g>
   <g id="line2d_23">
    <path clip-path="url(#pb4823a1c3f)" d="M 294.754995 384 
L 294.754995 379.032056 
L 325.617787 379.032056 
L 325.617787 374.064111 
L 329.244275 374.064111 
L 329.244275 369.096167 
L 331.348912 369.096167 
L 331.348912 364.128223 
L 342.389699 364.128223 
L 342.389699 359.160278 
L 342.389699 359.160278 
L 342.389699 354.192334 
L 351.626503 354.192334 
L 351.626503 349.22439 
L 352.172124 349.22439 
L 352.172124 344.256445 
L 354.320612 344.256445 
L 354.320612 339.288501 
L 354.849444 339.288501 
L 354.849444 334.320557 
L 355.375042 334.320557 
L 355.375042 329.352612 
L 369.811415 329.352612 
L 369.811415 324.384668 
L 379.439505 324.384668 
L 379.439505 319.416724 
L 385.921048 319.416724 
L 385.921048 314.44878 
L 401.65004 314.44878 
L 401.65004 309.480835 
L 577 309.480835 
" style="fill:none;stroke:#f5deb3;stroke-linecap:square;"/>
   </g>
   <g id="line2d_24">
    <path clip-path="url(#pb4823a1c3f)" d="M 373.708381 384 
L 373.708381 379.032056 
L 373.708381 379.032056 
L 373.708381 374.064111 
L 374.130667 374.064111 
L 374.130667 369.096167 
L 390.567315 369.096167 
L 390.567315 364.128223 
L 390.567315 364.128223 
L 390.567315 359.160278 
L 390.914528 359.160278 
L 390.914528 354.192334 
L 406.119072 354.192334 
L 406.119072 349.22439 
L 406.119072 349.22439 
L 406.119072 344.256445 
L 406.408904 344.256445 
L 406.408904 339.288501 
L 406.697761 339.288501 
L 406.697761 334.320557 
L 419.283025 334.320557 
L 419.283025 329.352612 
L 419.283025 329.352612 
L 419.283025 324.384668 
L 419.531751 324.384668 
L 419.531751 319.416724 
L 419.77976 319.416724 
L 419.77976 314.44878 
L 440.768958 314.44878 
L 440.768958 309.480835 
L 529.774245 309.480835 
L 529.774245 304.512891 
L 538.289624 304.512891 
L 538.289624 299.544947 
L 538.414258 299.544947 
L 538.414258 294.577002 
L 544.5422 294.577002 
L 544.5422 289.609058 
L 545.465001 289.609058 
L 545.465001 284.641114 
L 546.321219 284.641114 
L 546.321219 279.673169 
L 546.717887 279.673169 
L 546.717887 274.705225 
L 552.246336 274.705225 
L 552.246336 269.737281 
L 553.037883 269.737281 
L 553.037883 264.769336 
L 554.030155 264.769336 
L 554.030155 259.801392 
L 556.082432 259.801392 
L 556.082432 254.833448 
L 556.889814 254.833448 
L 556.889814 249.865503 
L 558.235301 249.865503 
L 558.235301 244.897559 
L 568.653146 244.897559 
L 568.653146 239.929615 
L 571.241746 239.929615 
L 571.241746 234.96167 
L 573.589385 234.96167 
L 573.589385 229.993726 
L 574.412524 229.993726 
L 574.412524 225.025782 
L 577 225.025782 
" style="fill:none;stroke:#f5deb3;stroke-linecap:square;"/>
   </g>
   <g id="line2d_25">
    <path clip-path="url(#pb4823a1c3f)" d="M 315.403447 384 
L 315.403447 379.032056 
L 329.951564 379.032056 
L 329.951564 374.064111 
L 333.403233 374.064111 
L 333.403233 369.096167 
L 341.778059 369.096167 
L 341.778059 364.128223 
L 343.600071 364.128223 
L 343.600071 359.160278 
L 354.320612 359.160278 
L 354.320612 354.192334 
L 354.849444 354.192334 
L 354.849444 349.22439 
L 355.897445 349.22439 
L 355.897445 344.256445 
L 355.897445 344.256445 
L 355.897445 339.288501 
L 357.445866 339.288501 
L 357.445866 334.320557 
L 360.953905 334.320557 
L 360.953905 329.352612 
L 362.896022 329.352612 
L 362.896022 324.384668 
L 382.16783 324.384668 
L 382.16783 319.416724 
L 383.311107 319.416724 
L 383.311107 314.44878 
L 384.812193 314.44878 
L 384.812193 309.480835 
L 577 309.480835 
" style="fill:none;stroke:#f5deb3;stroke-linecap:square;"/>
   </g>
   <g id="line2d_26">
    <path clip-path="url(#pb4823a1c3f)" d="M 470.757736 384 
L 470.757736 379.032056 
L 471.303357 379.032056 
L 471.303357 374.064111 
L 471.710311 374.064111 
L 471.710311 369.096167 
L 475.547924 369.096167 
L 475.547924 364.128223 
L 478.724007 364.128223 
L 478.724007 359.160278 
L 479.221462 359.160278 
L 479.221462 354.192334 
L 479.469113 354.192334 
L 479.469113 349.22439 
L 479.592672 349.22439 
L 479.592672 339.288501 
L 483.100711 339.288501 
L 483.100711 334.320557 
L 483.926448 334.320557 
L 483.926448 329.352612 
L 487.15227 329.352612 
L 487.15227 324.384668 
L 487.82804 324.384668 
L 487.82804 319.416724 
L 489.714359 319.416724 
L 489.714359 314.44878 
L 490.042983 314.44878 
L 490.042983 309.480835 
L 555.624925 309.480835 
L 555.624925 304.512891 
L 556.234395 304.512891 
L 556.234395 299.544947 
L 556.839574 299.544947 
L 556.839574 294.577002 
L 557.590103 294.577002 
L 557.590103 289.609058 
L 560.480182 289.609058 
L 560.480182 284.641114 
L 561.818463 284.641114 
L 561.818463 279.673169 
L 564.295956 279.673169 
L 564.295956 269.737281 
L 564.48007 269.737281 
L 564.48007 264.769336 
L 565.07573 264.769336 
L 565.121379 249.865503 
L 565.394768 249.865503 
L 565.394768 244.897559 
L 566.704021 244.897559 
L 566.704021 239.929615 
L 567.462342 239.929615 
L 567.462342 234.96167 
L 568.258042 234.96167 
L 568.258042 229.993726 
L 577 229.993726 
L 577 229.993726 
" style="fill:none;stroke:#f5deb3;stroke-linecap:square;"/>
   </g>
   <g id="line2d_27">
    <path clip-path="url(#pb4823a1c3f)" d="M 438.209421 384 
L 438.209421 379.032056 
L 457.624751 379.032056 
L 457.624751 374.064111 
L 460.447688 374.064111 
L 460.447688 369.096167 
L 464.368211 369.096167 
L 464.368211 364.128223 
L 466.551267 364.128223 
L 466.551267 359.160278 
L 478.349018 359.160278 
L 478.349018 354.192334 
L 490.587912 354.192334 
L 490.587912 349.22439 
L 490.696485 349.22439 
L 490.696485 344.256445 
L 493.786855 344.256445 
L 493.786855 339.288501 
L 498.570738 339.288501 
L 498.570738 334.320557 
L 513.858191 334.320557 
L 513.858191 329.352612 
L 514.271539 329.352612 
L 514.271539 324.384668 
L 577 324.384668 
" style="fill:none;stroke:#f5deb3;stroke-linecap:square;"/>
   </g>
   <g id="line2d_28">
    <path clip-path="url(#pb4823a1c3f)" d="M 244.243537 384 
L 244.243537 379.032056 
L 277.155983 379.032056 
L 277.155983 374.064111 
L 299.902343 374.064111 
L 299.902343 369.096167 
L 299.902343 369.096167 
L 299.902343 364.128223 
L 301.877948 364.128223 
L 301.877948 359.160278 
L 311.127191 359.160278 
L 311.127191 354.192334 
L 318.677558 354.192334 
L 318.677558 349.22439 
L 318.677558 349.22439 
L 318.677558 344.256445 
L 319.47696 344.256445 
L 319.47696 339.288501 
L 334.077237 339.288501 
L 334.077237 334.320557 
L 334.745995 334.320557 
L 334.745995 329.352612 
L 334.745995 329.352612 
L 334.745995 324.384668 
L 347.706963 324.384668 
L 347.706963 319.416724 
L 367.111664 319.416724 
L 367.111664 314.44878 
L 377.840668 314.44878 
L 377.840668 309.480835 
L 502.53693 309.480835 
L 502.53693 304.512891 
L 503.289925 304.512891 
L 503.289925 299.544947 
L 503.943426 299.544947 
L 503.943426 294.577002 
L 504.407189 294.577002 
L 504.407189 289.609058 
L 504.960421 289.609058 
L 504.960421 284.641114 
L 507.406812 284.641114 
L 507.406812 279.673169 
L 507.763389 279.673169 
L 507.763389 274.705225 
L 508.383861 274.705225 
L 508.383861 269.737281 
L 509.437215 269.737281 
L 509.437215 264.769336 
L 510.045761 264.769336 
L 510.045761 259.801392 
L 512.100082 259.801392 
L 512.100082 254.833448 
L 512.60608 254.833448 
L 512.60608 249.865503 
L 518.926488 249.865503 
L 518.926488 244.897559 
L 522.372006 244.897559 
L 522.372006 239.929615 
L 525.46777 239.929615 
L 525.46777 234.96167 
L 533.612169 234.96167 
L 533.612169 229.993726 
L 543.492065 229.993726 
L 543.492065 225.025782 
L 546.03676 225.025782 
L 546.03676 220.057837 
L 547.393657 220.057837 
L 547.393657 215.089893 
L 550.802915 215.089893 
L 550.802915 210.121949 
L 554.030155 210.121949 
L 554.030155 205.154005 
L 556.133117 205.154005 
L 556.133117 200.18606 
L 557.240672 200.18606 
L 557.240672 195.218116 
L 557.340654 195.218116 
L 557.340654 190.250172 
L 558.037294 190.250172 
L 558.037294 185.282227 
L 560.14233 185.282227 
L 560.14233 180.314283 
L 562.385693 180.314283 
L 562.385693 175.346339 
L 565.667289 175.346339 
L 565.667289 170.378394 
L 574.943367 170.378394 
L 574.943367 165.41045 
L 577 165.41045 
" style="fill:none;stroke:#f5deb3;stroke-linecap:square;"/>
   </g>
   <g id="line2d_29">
    <path clip-path="url(#pb4823a1c3f)" d="M 114.990616 384 
L 114.990616 379.032056 
L 114.990616 379.032056 
L 114.990616 374.064111 
L 114.990616 374.064111 
L 114.990616 369.096167 
L 114.990616 369.096167 
L 114.990616 364.128223 
L 114.990616 364.128223 
L 114.990616 359.160278 
L 114.990616 359.160278 
L 114.990616 354.192334 
L 114.990616 354.192334 
L 114.990616 349.22439 
L 114.990616 349.22439 
L 114.990616 344.256445 
L 114.990616 344.256445 
L 114.990616 339.288501 
L 114.990616 339.288501 
L 114.990616 334.320557 
L 114.990616 334.320557 
L 114.990616 329.352612 
L 114.990616 329.352612 
L 114.990616 324.384668 
L 114.990616 324.384668 
L 114.990616 319.416724 
L 114.990616 319.416724 
L 114.990616 314.44878 
L 114.990616 314.44878 
L 114.990616 309.480835 
L 155.380387 309.480835 
L 155.380387 304.512891 
L 155.380387 304.512891 
L 155.380387 299.544947 
L 155.380387 299.544947 
L 155.380387 294.577002 
L 160.590165 294.577002 
L 160.590165 289.609058 
L 160.590165 289.609058 
L 160.590165 284.641114 
L 160.590165 284.641114 
L 160.590165 279.673169 
L 160.590165 279.673169 
L 160.590165 274.705225 
L 160.590165 274.705225 
L 160.590165 269.737281 
L 160.590165 269.737281 
L 160.590165 264.769336 
L 259.911343 264.769336 
L 259.911343 259.801392 
L 259.911343 259.801392 
L 259.911343 254.833448 
L 259.911343 254.833448 
L 259.911343 249.865503 
L 261.488177 249.865503 
L 261.488177 244.897559 
L 261.488177 244.897559 
L 261.488177 239.929615 
L 261.488177 239.929615 
L 261.488177 234.96167 
L 487.378118 234.96167 
L 487.378118 229.993726 
L 487.378118 229.993726 
L 487.378118 225.025782 
L 487.378118 225.025782 
L 487.378118 220.057837 
L 517.746584 220.057837 
L 517.746584 215.089893 
L 517.746584 215.089893 
L 517.746584 210.121949 
L 517.746584 210.121949 
L 517.746584 205.154005 
L 519.004575 205.154005 
L 519.004575 200.18606 
L 519.004575 200.18606 
L 519.004575 195.218116 
L 519.004575 195.218116 
L 519.004575 190.250172 
L 577 190.250172 
" style="fill:none;stroke:#f5deb3;stroke-linecap:square;"/>
   </g>
   <g id="line2d_30">
    <path clip-path="url(#pb4823a1c3f)" d="M 236.243809 384 
L 236.243809 379.032056 
L 244.243537 379.032056 
L 244.243537 374.064111 
L 282.212443 374.064111 
L 282.212443 369.096167 
L 283.4314 369.096167 
L 283.4314 364.128223 
L 290.402925 364.128223 
L 290.402925 359.160278 
L 294.754995 359.160278 
L 294.754995 354.192334 
L 296.851075 354.192334 
L 296.851075 349.22439 
L 296.851075 349.22439 
L 296.851075 344.256445 
L 297.880249 344.256445 
L 297.880249 339.288501 
L 297.880249 339.288501 
L 297.880249 334.320557 
L 297.880249 334.320557 
L 297.880249 329.352612 
L 301.877948 329.352612 
L 301.877948 324.384668 
L 302.848975 324.384668 
L 302.848975 319.416724 
L 303.809153 319.416724 
L 303.809153 314.44878 
L 303.809153 314.44878 
L 303.809153 309.480835 
L 303.809153 309.480835 
L 303.809153 304.512891 
L 304.758721 304.512891 
L 304.758721 299.544947 
L 305.697911 299.544947 
L 305.697911 294.577002 
L 305.697911 294.577002 
L 305.697911 289.609058 
L 306.626947 289.609058 
L 306.626947 284.641114 
L 308.455421 284.641114 
L 308.455421 279.673169 
L 309.355272 279.673169 
L 309.355272 274.705225 
L 310.245799 274.705225 
L 310.245799 269.737281 
L 314.56505 269.737281 
L 314.56505 264.769336 
L 316.233744 264.769336 
L 316.233744 259.801392 
L 317.870651 259.801392 
L 317.870651 254.833448 
L 317.870651 254.833448 
L 317.870651 249.865503 
L 319.47696 249.865503 
L 319.47696 244.897559 
L 320.268993 244.897559 
L 320.268993 239.929615 
L 327.811992 239.929615 
L 327.811992 234.96167 
L 342.997016 234.96167 
L 342.997016 229.993726 
L 342.997016 229.993726 
L 342.997016 225.025782 
L 342.997016 225.025782 
L 342.997016 220.057837 
L 342.997016 220.057837 
L 342.997016 215.089893 
L 342.997016 215.089893 
L 342.997016 210.121949 
L 342.997016 210.121949 
L 342.997016 205.154005 
L 342.997016 205.154005 
L 342.997016 200.18606 
L 342.997016 200.18606 
L 342.997016 195.218116 
L 342.997016 195.218116 
L 342.997016 190.250172 
L 342.997016 190.250172 
L 342.997016 185.282227 
L 342.997016 185.282227 
L 342.997016 180.314283 
L 342.997016 180.314283 
L 342.997016 175.346339 
L 342.997016 175.346339 
L 342.997016 170.378394 
L 342.997016 170.378394 
L 342.997016 165.41045 
L 342.997016 165.41045 
L 342.997016 160.442506 
L 342.997016 160.442506 
L 342.997016 160.442506 
L 567.24 160.442506 
" style="fill:none;stroke:#f5deb3;stroke-linecap:square;"/>
   </g>
   <g id="line2d_31">
    <path clip-path="url(#pb4823a1c3f)" d="M 328.531118 384 
L 328.531118 379.032056 
L 329.951564 379.032056 
L 329.951564 374.064111 
L 336.7216 374.064111 
L 336.7216 369.096167 
L 339.287015 369.096167 
L 339.287015 364.128223 
L 340.541563 364.128223 
L 340.541563 359.160278 
L 346.553456 359.160278 
L 346.553456 354.192334 
L 346.553456 354.192334 
L 346.553456 349.22439 
L 347.706963 349.22439 
L 347.706963 344.256445 
L 349.968541 344.256445 
L 349.968541 339.288501 
L 357.445866 339.288501 
L 357.445866 334.320557 
L 357.445866 334.320557 
L 357.445866 329.352612 
L 361.443564 329.352612 
L 361.443564 324.384668 
L 373.284009 324.384668 
L 373.284009 319.416724 
L 373.284009 319.416724 
L 373.284009 314.44878 
L 389.51718 314.44878 
L 389.51718 309.480835 
L 413.354121 309.480835 
L 413.354121 304.512891 
L 426.218959 304.512891 
L 426.218959 299.544947 
L 427.586654 299.544947 
L 427.586654 294.577002 
L 434.116504 294.577002 
L 434.116504 289.609058 
L 454.540822 289.609058 
L 454.540822 284.641114 
L 458.418248 284.641114 
L 458.418248 279.673169 
L 472.919737 279.673169 
L 472.919737 274.705225 
L 472.919737 274.705225 
L 472.919737 269.737281 
L 523.638518 269.737281 
L 523.638518 264.769336 
L 548.175397 264.769336 
L 548.175397 259.801392 
L 566.254804 259.801392 
L 566.254804 254.833448 
L 566.254804 254.833448 
L 566.254804 254.833448 
L 567.24 254.833448 
" style="fill:none;stroke:#000000;stroke-linecap:square;"/>
   </g>
   <g id="line2d_32">
    <path clip-path="url(#pb4823a1c3f)" d="M -59504.256099 756.595824 
" style="fill:none;stroke:#000000;stroke-linecap:square;"/>
   </g>
   <g id="line2d_33">
    <path clip-path="url(#pb4823a1c3f)" d="M 372.428928 384 
L 372.428928 379.032056 
L 372.428928 379.032056 
L 372.428928 374.064111 
L 376.621711 374.064111 
L 376.621711 369.096167 
L 378.243175 369.096167 
L 378.243175 364.128223 
L 378.243175 364.128223 
L 378.243175 359.160278 
L 429.377031 359.160278 
L 429.377031 354.192334 
L 476.577099 354.192334 
L 476.577099 349.22439 
L 476.577099 349.22439 
L 476.577099 344.256445 
L 481.304094 344.256445 
L 481.304094 339.288501 
L 506.508841 339.288501 
L 506.508841 334.320557 
L 521.390743 334.320557 
L 521.390743 329.352612 
L 525.684687 329.352612 
L 525.684687 324.384668 
L 554.805514 324.384668 
L 554.805514 319.416724 
L 562.479868 319.416724 
L 562.479868 314.44878 
L 564.984358 314.44878 
L 564.984358 309.480835 
L 566.074458 309.480835 
L 566.074458 304.512891 
L 566.074458 304.512891 
L 566.074458 304.512891 
L 567.24 304.512891 
" style="fill:none;stroke:#00bfbf;stroke-linecap:square;"/>
   </g>
   <g id="line2d_34">
    <path clip-path="url(#pb4823a1c3f)" d="M -59504.256099 756.595824 
" style="fill:none;stroke:#00bfbf;stroke-linecap:square;"/>
   </g>
   <g id="line2d_35">
    <path clip-path="url(#pb4823a1c3f)" d="M 372.428928 384 
L 372.428928 379.032056 
L 372.428928 379.032056 
L 372.428928 374.064111 
L 376.621711 374.064111 
L 376.621711 369.096167 
L 378.243175 369.096167 
L 378.243175 364.128223 
L 378.243175 364.128223 
L 378.243175 359.160278 
L 429.377031 359.160278 
L 429.377031 354.192334 
L 476.577099 354.192334 
L 476.577099 349.22439 
L 476.577099 349.22439 
L 476.577099 344.256445 
L 481.304094 344.256445 
L 481.304094 339.288501 
L 560.190676 339.288501 
L 560.190676 334.320557 
L 562.66791 334.320557 
L 562.66791 329.352612 
L 565.07573 329.352612 
L 565.07573 324.384668 
L 569.264165 324.384668 
L 569.264165 319.416724 
L 569.264165 319.416724 
" style="fill:none;stroke:#bf00bf;stroke-linecap:square;"/>
   </g>
   <g id="line2d_36">
    <path clip-path="url(#pb4823a1c3f)" d="M -59504.256099 756.595824 
" style="fill:none;stroke:#bf00bf;stroke-linecap:square;"/>
   </g>
   <g id="line2d_37">
    <path clip-path="url(#pb4823a1c3f)" d="M 372.428928 384 
L 372.428928 379.032056 
L 372.428928 379.032056 
L 372.428928 374.064111 
L 376.621711 374.064111 
L 376.621711 369.096167 
L 378.243175 369.096167 
L 378.243175 364.128223 
L 378.243175 364.128223 
L 378.243175 359.160278 
L 429.377031 359.160278 
L 429.377031 354.192334 
L 476.577099 354.192334 
L 476.577099 349.22439 
L 476.577099 349.22439 
L 476.577099 344.256445 
L 481.304094 344.256445 
L 481.304094 339.288501 
L 567.24 339.288501 
L 567.24 334.320557 
L 567.24 334.320557 
" style="fill:none;stroke:#ff0000;stroke-linecap:square;stroke-width:3.0;"/>
   </g>
   <g id="line2d_38">
    <path clip-path="url(#pb4823a1c3f)" d="M -59504.256099 756.595824 
" style="fill:none;stroke:#ff0000;stroke-linecap:square;stroke-width:3.0;"/>
   </g>
   <g id="line2d_39">
    <path clip-path="url(#pb4823a1c3f)" d="M 567.24 384 
L 567.24 7.678218 
" style="fill:none;stroke:#000000;stroke-linecap:square;"/>
   </g>
   <g id="patch_3">
    <path d="M 55.425 7.678218 
L 567.24 7.678218 
" style="fill:none;stroke:#000000;stroke-linecap:square;stroke-linejoin:miter;"/>
   </g>
   <g id="patch_4">
    <path d="M 567.24 384 
L 567.24 7.678218 
" style="fill:none;stroke:#000000;stroke-linecap:square;stroke-linejoin:miter;"/>
   </g>
   <g id="patch_5">
    <path d="M 55.425 384 
L 567.24 384 
" style="fill:none;stroke:#000000;stroke-linecap:square;stroke-linejoin:miter;"/>
   </g>
   <g id="patch_6">
    <path d="M 55.425 384 
L 55.425 7.678218 
" style="fill:none;stroke:#000000;stroke-linecap:square;stroke-linejoin:miter;"/>
   </g>
   <g id="matplotlib.axis_1">
    <g id="xtick_1">
     <g id="line2d_40">
      <path clip-path="url(#pb4823a1c3f)" d="M 55.425 384 
L 55.425 7.678218 
" style="fill:none;stroke:#000000;stroke-dasharray:1.000000,3.000000;stroke-dashoffset:0.0;stroke-width:0.5;"/>
     </g>
     <g id="line2d_41">
      <defs>
       <path d="M 0 0 
L 0 -4 
" id="ma791699148" style="stroke:#000000;stroke-width:0.5;"/>
      </defs>
      <g>
       <use style="stroke:#000000;stroke-width:0.5;" x="55.425" xlink:href="#ma791699148" y="384.0"/>
      </g>
     </g>
     <g id="line2d_42">
      <defs>
       <path d="M 0 0 
L 0 4 
" id="m3cc2876a82" style="stroke:#000000;stroke-width:0.5;"/>
      </defs>
      <g>
       <use style="stroke:#000000;stroke-width:0.5;" x="55.425" xlink:href="#m3cc2876a82" y="7.67821782178"/>
      </g>
     </g>
     <g id="text_1">
      <!-- 0 -->
      <defs>
       <path d="M 31.78125 66.40625 
Q 24.171875 66.40625 20.328125 58.90625 
Q 16.5 51.421875 16.5 36.375 
Q 16.5 21.390625 20.328125 13.890625 
Q 24.171875 6.390625 31.78125 6.390625 
Q 39.453125 6.390625 43.28125 13.890625 
Q 47.125 21.390625 47.125 36.375 
Q 47.125 51.421875 43.28125 58.90625 
Q 39.453125 66.40625 31.78125 66.40625 
M 31.78125 74.21875 
Q 44.046875 74.21875 50.515625 64.515625 
Q 56.984375 54.828125 56.984375 36.375 
Q 56.984375 17.96875 50.515625 8.265625 
Q 44.046875 -1.421875 31.78125 -1.421875 
Q 19.53125 -1.421875 13.0625 8.265625 
Q 6.59375 17.96875 6.59375 36.375 
Q 6.59375 54.828125 13.0625 64.515625 
Q 19.53125 74.21875 31.78125 74.21875 
" id="BitstreamVeraSans-Roman-30"/>
      </defs>
      <g transform="translate(49.0625 403.196875)scale(0.2 -0.2)">
       <use xlink:href="#BitstreamVeraSans-Roman-30"/>
      </g>
     </g>
    </g>
    <g id="xtick_2">
     <g id="line2d_43">
      <path clip-path="url(#pb4823a1c3f)" d="M 253.297695 384 
L 253.297695 7.678218 
" style="fill:none;stroke:#000000;stroke-dasharray:1.000000,3.000000;stroke-dashoffset:0.0;stroke-width:0.5;"/>
     </g>
     <g id="line2d_44">
      <g>
       <use style="stroke:#000000;stroke-width:0.5;" x="253.29769468" xlink:href="#ma791699148" y="384.0"/>
      </g>
     </g>
     <g id="line2d_45">
      <g>
       <use style="stroke:#000000;stroke-width:0.5;" x="253.29769468" xlink:href="#m3cc2876a82" y="7.67821782178"/>
      </g>
     </g>
     <g id="text_2">
      <!-- 1 -->
      <defs>
       <path d="M 12.40625 8.296875 
L 28.515625 8.296875 
L 28.515625 63.921875 
L 10.984375 60.40625 
L 10.984375 69.390625 
L 28.421875 72.90625 
L 38.28125 72.90625 
L 38.28125 8.296875 
L 54.390625 8.296875 
L 54.390625 0 
L 12.40625 0 
z
" id="BitstreamVeraSans-Roman-31"/>
      </defs>
      <g transform="translate(246.93519468 403.196875)scale(0.2 -0.2)">
       <use xlink:href="#BitstreamVeraSans-Roman-31"/>
      </g>
     </g>
    </g>
    <g id="xtick_3">
     <g id="line2d_46">
      <path clip-path="url(#pb4823a1c3f)" d="M 451.170389 384 
L 451.170389 7.678218 
" style="fill:none;stroke:#000000;stroke-dasharray:1.000000,3.000000;stroke-dashoffset:0.0;stroke-width:0.5;"/>
     </g>
     <g id="line2d_47">
      <g>
       <use style="stroke:#000000;stroke-width:0.5;" x="451.17038936" xlink:href="#ma791699148" y="384.0"/>
      </g>
     </g>
     <g id="line2d_48">
      <g>
       <use style="stroke:#000000;stroke-width:0.5;" x="451.17038936" xlink:href="#m3cc2876a82" y="7.67821782178"/>
      </g>
     </g>
     <g id="text_3">
      <!-- 2 -->
      <defs>
       <path d="M 19.1875 8.296875 
L 53.609375 8.296875 
L 53.609375 0 
L 7.328125 0 
L 7.328125 8.296875 
Q 12.9375 14.109375 22.625 23.890625 
Q 32.328125 33.6875 34.8125 36.53125 
Q 39.546875 41.84375 41.421875 45.53125 
Q 43.3125 49.21875 43.3125 52.78125 
Q 43.3125 58.59375 39.234375 62.25 
Q 35.15625 65.921875 28.609375 65.921875 
Q 23.96875 65.921875 18.8125 64.3125 
Q 13.671875 62.703125 7.8125 59.421875 
L 7.8125 69.390625 
Q 13.765625 71.78125 18.9375 73 
Q 24.125 74.21875 28.421875 74.21875 
Q 39.75 74.21875 46.484375 68.546875 
Q 53.21875 62.890625 53.21875 53.421875 
Q 53.21875 48.921875 51.53125 44.890625 
Q 49.859375 40.875 45.40625 35.40625 
Q 44.1875 33.984375 37.640625 27.21875 
Q 31.109375 20.453125 19.1875 8.296875 
" id="BitstreamVeraSans-Roman-32"/>
      </defs>
      <g transform="translate(444.80788936 403.196875)scale(0.2 -0.2)">
       <use xlink:href="#BitstreamVeraSans-Roman-32"/>
      </g>
     </g>
    </g>
    <g id="xtick_4">
     <g id="line2d_49">
      <defs>
       <path d="M 0 0 
L 0 -2 
" id="me61a1cb69b" style="stroke:#000000;stroke-width:0.5;"/>
      </defs>
      <g>
       <use style="stroke:#000000;stroke-width:0.5;" x="114.990616421" xlink:href="#me61a1cb69b" y="384.0"/>
      </g>
     </g>
     <g id="line2d_50">
      <defs>
       <path d="M 0 0 
L 0 2 
" id="m67ea80a0e6" style="stroke:#000000;stroke-width:0.5;"/>
      </defs>
      <g>
       <use style="stroke:#000000;stroke-width:0.5;" x="114.990616421" xlink:href="#m67ea80a0e6" y="7.67821782178"/>
      </g>
     </g>
    </g>
    <g id="xtick_5">
     <g id="line2d_51">
      <g>
       <use style="stroke:#000000;stroke-width:0.5;" x="149.83426836" xlink:href="#me61a1cb69b" y="384.0"/>
      </g>
     </g>
     <g id="line2d_52">
      <g>
       <use style="stroke:#000000;stroke-width:0.5;" x="149.83426836" xlink:href="#m67ea80a0e6" y="7.67821782178"/>
      </g>
     </g>
    </g>
    <g id="xtick_6">
     <g id="line2d_53">
      <g>
       <use style="stroke:#000000;stroke-width:0.5;" x="174.556232843" xlink:href="#me61a1cb69b" y="384.0"/>
      </g>
     </g>
     <g id="line2d_54">
      <g>
       <use style="stroke:#000000;stroke-width:0.5;" x="174.556232843" xlink:href="#m67ea80a0e6" y="7.67821782178"/>
      </g>
     </g>
    </g>
    <g id="xtick_7">
     <g id="line2d_55">
      <g>
       <use style="stroke:#000000;stroke-width:0.5;" x="193.732078258" xlink:href="#me61a1cb69b" y="384.0"/>
      </g>
     </g>
     <g id="line2d_56">
      <g>
       <use style="stroke:#000000;stroke-width:0.5;" x="193.732078258" xlink:href="#m67ea80a0e6" y="7.67821782178"/>
      </g>
     </g>
    </g>
    <g id="xtick_8">
     <g id="line2d_57">
      <g>
       <use style="stroke:#000000;stroke-width:0.5;" x="209.399884782" xlink:href="#me61a1cb69b" y="384.0"/>
      </g>
     </g>
     <g id="line2d_58">
      <g>
       <use style="stroke:#000000;stroke-width:0.5;" x="209.399884782" xlink:href="#m67ea80a0e6" y="7.67821782178"/>
      </g>
     </g>
    </g>
    <g id="xtick_9">
     <g id="line2d_59">
      <g>
       <use style="stroke:#000000;stroke-width:0.5;" x="222.646826446" xlink:href="#me61a1cb69b" y="384.0"/>
      </g>
     </g>
     <g id="line2d_60">
      <g>
       <use style="stroke:#000000;stroke-width:0.5;" x="222.646826446" xlink:href="#m67ea80a0e6" y="7.67821782178"/>
      </g>
     </g>
    </g>
    <g id="xtick_10">
     <g id="line2d_61">
      <g>
       <use style="stroke:#000000;stroke-width:0.5;" x="234.121849264" xlink:href="#me61a1cb69b" y="384.0"/>
      </g>
     </g>
     <g id="line2d_62">
      <g>
       <use style="stroke:#000000;stroke-width:0.5;" x="234.121849264" xlink:href="#m67ea80a0e6" y="7.67821782178"/>
      </g>
     </g>
    </g>
    <g id="xtick_11">
     <g id="line2d_63">
      <g>
       <use style="stroke:#000000;stroke-width:0.5;" x="244.243536721" xlink:href="#me61a1cb69b" y="384.0"/>
      </g>
     </g>
     <g id="line2d_64">
      <g>
       <use style="stroke:#000000;stroke-width:0.5;" x="244.243536721" xlink:href="#m67ea80a0e6" y="7.67821782178"/>
      </g>
     </g>
    </g>
    <g id="xtick_12">
     <g id="line2d_65">
      <g>
       <use style="stroke:#000000;stroke-width:0.5;" x="312.863311101" xlink:href="#me61a1cb69b" y="384.0"/>
      </g>
     </g>
     <g id="line2d_66">
      <g>
       <use style="stroke:#000000;stroke-width:0.5;" x="312.863311101" xlink:href="#m67ea80a0e6" y="7.67821782178"/>
      </g>
     </g>
    </g>
    <g id="xtick_13">
     <g id="line2d_67">
      <g>
       <use style="stroke:#000000;stroke-width:0.5;" x="347.70696304" xlink:href="#me61a1cb69b" y="384.0"/>
      </g>
     </g>
     <g id="line2d_68">
      <g>
       <use style="stroke:#000000;stroke-width:0.5;" x="347.70696304" xlink:href="#m67ea80a0e6" y="7.67821782178"/>
      </g>
     </g>
    </g>
    <g id="xtick_14">
     <g id="line2d_69">
      <g>
       <use style="stroke:#000000;stroke-width:0.5;" x="372.428927523" xlink:href="#me61a1cb69b" y="384.0"/>
      </g>
     </g>
     <g id="line2d_70">
      <g>
       <use style="stroke:#000000;stroke-width:0.5;" x="372.428927523" xlink:href="#m67ea80a0e6" y="7.67821782178"/>
      </g>
     </g>
    </g>
    <g id="xtick_15">
     <g id="line2d_71">
      <g>
       <use style="stroke:#000000;stroke-width:0.5;" x="391.604772938" xlink:href="#me61a1cb69b" y="384.0"/>
      </g>
     </g>
     <g id="line2d_72">
      <g>
       <use style="stroke:#000000;stroke-width:0.5;" x="391.604772938" xlink:href="#m67ea80a0e6" y="7.67821782178"/>
      </g>
     </g>
    </g>
    <g id="xtick_16">
     <g id="line2d_73">
      <g>
       <use style="stroke:#000000;stroke-width:0.5;" x="407.272579462" xlink:href="#me61a1cb69b" y="384.0"/>
      </g>
     </g>
     <g id="line2d_74">
      <g>
       <use style="stroke:#000000;stroke-width:0.5;" x="407.272579462" xlink:href="#m67ea80a0e6" y="7.67821782178"/>
      </g>
     </g>
    </g>
    <g id="xtick_17">
     <g id="line2d_75">
      <g>
       <use style="stroke:#000000;stroke-width:0.5;" x="420.519521126" xlink:href="#me61a1cb69b" y="384.0"/>
      </g>
     </g>
     <g id="line2d_76">
      <g>
       <use style="stroke:#000000;stroke-width:0.5;" x="420.519521126" xlink:href="#m67ea80a0e6" y="7.67821782178"/>
      </g>
     </g>
    </g>
    <g id="xtick_18">
     <g id="line2d_77">
      <g>
       <use style="stroke:#000000;stroke-width:0.5;" x="431.994543944" xlink:href="#me61a1cb69b" y="384.0"/>
      </g>
     </g>
     <g id="line2d_78">
      <g>
       <use style="stroke:#000000;stroke-width:0.5;" x="431.994543944" xlink:href="#m67ea80a0e6" y="7.67821782178"/>
      </g>
     </g>
    </g>
    <g id="xtick_19">
     <g id="line2d_79">
      <g>
       <use style="stroke:#000000;stroke-width:0.5;" x="442.116231401" xlink:href="#me61a1cb69b" y="384.0"/>
      </g>
     </g>
     <g id="line2d_80">
      <g>
       <use style="stroke:#000000;stroke-width:0.5;" x="442.116231401" xlink:href="#m67ea80a0e6" y="7.67821782178"/>
      </g>
     </g>
    </g>
    <g id="xtick_20">
     <g id="line2d_81">
      <g>
       <use style="stroke:#000000;stroke-width:0.5;" x="510.736005781" xlink:href="#me61a1cb69b" y="384.0"/>
      </g>
     </g>
     <g id="line2d_82">
      <g>
       <use style="stroke:#000000;stroke-width:0.5;" x="510.736005781" xlink:href="#m67ea80a0e6" y="7.67821782178"/>
      </g>
     </g>
    </g>
    <g id="xtick_21">
     <g id="line2d_83">
      <g>
       <use style="stroke:#000000;stroke-width:0.5;" x="545.57965772" xlink:href="#me61a1cb69b" y="384.0"/>
      </g>
     </g>
     <g id="line2d_84">
      <g>
       <use style="stroke:#000000;stroke-width:0.5;" x="545.57965772" xlink:href="#m67ea80a0e6" y="7.67821782178"/>
      </g>
     </g>
    </g>
    <g id="text_4">
     <!-- log10 of FEvals / DIM -->
     <defs>
      <path id="BitstreamVeraSans-Roman-20"/>
      <path d="M 9.8125 72.90625 
L 24.515625 72.90625 
L 43.109375 23.296875 
L 61.8125 72.90625 
L 76.515625 72.90625 
L 76.515625 0 
L 66.890625 0 
L 66.890625 64.015625 
L 48.09375 14.015625 
L 38.1875 14.015625 
L 19.390625 64.015625 
L 19.390625 0 
L 9.8125 0 
z
" id="BitstreamVeraSans-Roman-4d"/>
      <path d="M 30.609375 48.390625 
Q 23.390625 48.390625 19.1875 42.75 
Q 14.984375 37.109375 14.984375 27.296875 
Q 14.984375 17.484375 19.15625 11.84375 
Q 23.34375 6.203125 30.609375 6.203125 
Q 37.796875 6.203125 41.984375 11.859375 
Q 46.1875 17.53125 46.1875 27.296875 
Q 46.1875 37.015625 41.984375 42.703125 
Q 37.796875 48.390625 30.609375 48.390625 
M 30.609375 56 
Q 42.328125 56 49.015625 48.375 
Q 55.71875 40.765625 55.71875 27.296875 
Q 55.71875 13.875 49.015625 6.21875 
Q 42.328125 -1.421875 30.609375 -1.421875 
Q 18.84375 -1.421875 12.171875 6.21875 
Q 5.515625 13.875 5.515625 27.296875 
Q 5.515625 40.765625 12.171875 48.375 
Q 18.84375 56 30.609375 56 
" id="BitstreamVeraSans-Roman-6f"/>
      <path d="M 9.421875 75.984375 
L 18.40625 75.984375 
L 18.40625 0 
L 9.421875 0 
z
" id="BitstreamVeraSans-Roman-6c"/>
      <path d="M 9.8125 72.90625 
L 51.703125 72.90625 
L 51.703125 64.59375 
L 19.671875 64.59375 
L 19.671875 43.109375 
L 48.578125 43.109375 
L 48.578125 34.8125 
L 19.671875 34.8125 
L 19.671875 0 
L 9.8125 0 
z
" id="BitstreamVeraSans-Roman-46"/>
      <path d="M 9.8125 72.90625 
L 55.90625 72.90625 
L 55.90625 64.59375 
L 19.671875 64.59375 
L 19.671875 43.015625 
L 54.390625 43.015625 
L 54.390625 34.71875 
L 19.671875 34.71875 
L 19.671875 8.296875 
L 56.78125 8.296875 
L 56.78125 0 
L 9.8125 0 
z
" id="BitstreamVeraSans-Roman-45"/>
      <path d="M 19.671875 64.796875 
L 19.671875 8.109375 
L 31.59375 8.109375 
Q 46.6875 8.109375 53.6875 14.9375 
Q 60.6875 21.78125 60.6875 36.53125 
Q 60.6875 51.171875 53.6875 57.984375 
Q 46.6875 64.796875 31.59375 64.796875 
z
M 9.8125 72.90625 
L 30.078125 72.90625 
Q 51.265625 72.90625 61.171875 64.09375 
Q 71.09375 55.28125 71.09375 36.53125 
Q 71.09375 17.671875 61.125 8.828125 
Q 51.171875 0 30.078125 0 
L 9.8125 0 
z
" id="BitstreamVeraSans-Roman-44"/>
      <path d="M 25.390625 72.90625 
L 33.6875 72.90625 
L 8.296875 -9.28125 
L 0 -9.28125 
z
" id="BitstreamVeraSans-Roman-2f"/>
      <path d="M 2.984375 54.6875 
L 12.5 54.6875 
L 29.59375 8.796875 
L 46.6875 54.6875 
L 56.203125 54.6875 
L 35.6875 0 
L 23.484375 0 
z
" id="BitstreamVeraSans-Roman-76"/>
      <path d="M 45.40625 27.984375 
Q 45.40625 37.75 41.375 43.109375 
Q 37.359375 48.484375 30.078125 48.484375 
Q 22.859375 48.484375 18.828125 43.109375 
Q 14.796875 37.75 14.796875 27.984375 
Q 14.796875 18.265625 18.828125 12.890625 
Q 22.859375 7.515625 30.078125 7.515625 
Q 37.359375 7.515625 41.375 12.890625 
Q 45.40625 18.265625 45.40625 27.984375 
M 54.390625 6.78125 
Q 54.390625 -7.171875 48.1875 -13.984375 
Q 42 -20.796875 29.203125 -20.796875 
Q 24.46875 -20.796875 20.265625 -20.09375 
Q 16.0625 -19.390625 12.109375 -17.921875 
L 12.109375 -9.1875 
Q 16.0625 -11.328125 19.921875 -12.34375 
Q 23.78125 -13.375 27.78125 -13.375 
Q 36.625 -13.375 41.015625 -8.765625 
Q 45.40625 -4.15625 45.40625 5.171875 
L 45.40625 9.625 
Q 42.625 4.78125 38.28125 2.390625 
Q 33.9375 0 27.875 0 
Q 17.828125 0 11.671875 7.65625 
Q 5.515625 15.328125 5.515625 27.984375 
Q 5.515625 40.671875 11.671875 48.328125 
Q 17.828125 56 27.875 56 
Q 33.9375 56 38.28125 53.609375 
Q 42.625 51.21875 45.40625 46.390625 
L 45.40625 54.6875 
L 54.390625 54.6875 
z
" id="BitstreamVeraSans-Roman-67"/>
      <path d="M 37.109375 75.984375 
L 37.109375 68.5 
L 28.515625 68.5 
Q 23.6875 68.5 21.796875 66.546875 
Q 19.921875 64.59375 19.921875 59.515625 
L 19.921875 54.6875 
L 34.71875 54.6875 
L 34.71875 47.703125 
L 19.921875 47.703125 
L 19.921875 0 
L 10.890625 0 
L 10.890625 47.703125 
L 2.296875 47.703125 
L 2.296875 54.6875 
L 10.890625 54.6875 
L 10.890625 58.5 
Q 10.890625 67.625 15.140625 71.796875 
Q 19.390625 75.984375 28.609375 75.984375 
z
" id="BitstreamVeraSans-Roman-66"/>
      <path d="M 34.28125 27.484375 
Q 23.390625 27.484375 19.1875 25 
Q 14.984375 22.515625 14.984375 16.5 
Q 14.984375 11.71875 18.140625 8.90625 
Q 21.296875 6.109375 26.703125 6.109375 
Q 34.1875 6.109375 38.703125 11.40625 
Q 43.21875 16.703125 43.21875 25.484375 
L 43.21875 27.484375 
z
M 52.203125 31.203125 
L 52.203125 0 
L 43.21875 0 
L 43.21875 8.296875 
Q 40.140625 3.328125 35.546875 0.953125 
Q 30.953125 -1.421875 24.3125 -1.421875 
Q 15.921875 -1.421875 10.953125 3.296875 
Q 6 8.015625 6 15.921875 
Q 6 25.140625 12.171875 29.828125 
Q 18.359375 34.515625 30.609375 34.515625 
L 43.21875 34.515625 
L 43.21875 35.40625 
Q 43.21875 41.609375 39.140625 45 
Q 35.0625 48.390625 27.6875 48.390625 
Q 23 48.390625 18.546875 47.265625 
Q 14.109375 46.140625 10.015625 43.890625 
L 10.015625 52.203125 
Q 14.9375 54.109375 19.578125 55.046875 
Q 24.21875 56 28.609375 56 
Q 40.484375 56 46.34375 49.84375 
Q 52.203125 43.703125 52.203125 31.203125 
" id="BitstreamVeraSans-Roman-61"/>
      <path d="M 44.28125 53.078125 
L 44.28125 44.578125 
Q 40.484375 46.53125 36.375 47.5 
Q 32.28125 48.484375 27.875 48.484375 
Q 21.1875 48.484375 17.84375 46.4375 
Q 14.5 44.390625 14.5 40.28125 
Q 14.5 37.15625 16.890625 35.375 
Q 19.28125 33.59375 26.515625 31.984375 
L 29.59375 31.296875 
Q 39.15625 29.25 43.1875 25.515625 
Q 47.21875 21.78125 47.21875 15.09375 
Q 47.21875 7.46875 41.1875 3.015625 
Q 35.15625 -1.421875 24.609375 -1.421875 
Q 20.21875 -1.421875 15.453125 -0.5625 
Q 10.6875 0.296875 5.421875 2 
L 5.421875 11.28125 
Q 10.40625 8.6875 15.234375 7.390625 
Q 20.0625 6.109375 24.8125 6.109375 
Q 31.15625 6.109375 34.5625 8.28125 
Q 37.984375 10.453125 37.984375 14.40625 
Q 37.984375 18.0625 35.515625 20.015625 
Q 33.0625 21.96875 24.703125 23.78125 
L 21.578125 24.515625 
Q 13.234375 26.265625 9.515625 29.90625 
Q 5.8125 33.546875 5.8125 39.890625 
Q 5.8125 47.609375 11.28125 51.796875 
Q 16.75 56 26.8125 56 
Q 31.78125 56 36.171875 55.265625 
Q 40.578125 54.546875 44.28125 53.078125 
" id="BitstreamVeraSans-Roman-73"/>
      <path d="M 9.8125 72.90625 
L 19.671875 72.90625 
L 19.671875 0 
L 9.8125 0 
z
" id="BitstreamVeraSans-Roman-49"/>
     </defs>
     <g transform="translate(206.2590625 427.553125)scale(0.2 -0.2)">
      <use xlink:href="#BitstreamVeraSans-Roman-6c"/>
      <use x="27.783203125" xlink:href="#BitstreamVeraSans-Roman-6f"/>
      <use x="88.96484375" xlink:href="#BitstreamVeraSans-Roman-67"/>
      <use x="152.44140625" xlink:href="#BitstreamVeraSans-Roman-31"/>
      <use x="216.064453125" xlink:href="#BitstreamVeraSans-Roman-30"/>
      <use x="279.6875" xlink:href="#BitstreamVeraSans-Roman-20"/>
      <use x="311.474609375" xlink:href="#BitstreamVeraSans-Roman-6f"/>
      <use x="372.65625" xlink:href="#BitstreamVeraSans-Roman-66"/>
      <use x="407.861328125" xlink:href="#BitstreamVeraSans-Roman-20"/>
      <use x="439.6484375" xlink:href="#BitstreamVeraSans-Roman-46"/>
      <use x="497.16796875" xlink:href="#BitstreamVeraSans-Roman-45"/>
      <use x="560.3515625" xlink:href="#BitstreamVeraSans-Roman-76"/>
      <use x="619.53125" xlink:href="#BitstreamVeraSans-Roman-61"/>
      <use x="680.810546875" xlink:href="#BitstreamVeraSans-Roman-6c"/>
      <use x="708.59375" xlink:href="#BitstreamVeraSans-Roman-73"/>
      <use x="760.693359375" xlink:href="#BitstreamVeraSans-Roman-20"/>
      <use x="792.48046875" xlink:href="#BitstreamVeraSans-Roman-2f"/>
      <use x="826.171875" xlink:href="#BitstreamVeraSans-Roman-20"/>
      <use x="857.958984375" xlink:href="#BitstreamVeraSans-Roman-44"/>
      <use x="934.9609375" xlink:href="#BitstreamVeraSans-Roman-49"/>
      <use x="964.453125" xlink:href="#BitstreamVeraSans-Roman-4d"/>
     </g>
    </g>
   </g>
   <g id="matplotlib.axis_2">
    <g id="ytick_1">
     <g id="line2d_85">
      <path clip-path="url(#pb4823a1c3f)" d="M 55.425 384 
L 567.24 384 
" style="fill:none;stroke:#000000;stroke-dasharray:1.000000,3.000000;stroke-dashoffset:0.0;stroke-width:0.5;"/>
     </g>
     <g id="line2d_86">
      <defs>
       <path d="M 0 0 
L 4 0 
" id="m5fc097deb3" style="stroke:#000000;stroke-width:0.5;"/>
      </defs>
      <g>
       <use style="stroke:#000000;stroke-width:0.5;" x="55.425" xlink:href="#m5fc097deb3" y="384.0"/>
      </g>
     </g>
     <g id="line2d_87">
      <defs>
       <path d="M 0 0 
L -4 0 
" id="m35ee490a97" style="stroke:#000000;stroke-width:0.5;"/>
      </defs>
      <g>
       <use style="stroke:#000000;stroke-width:0.5;" x="567.24" xlink:href="#m35ee490a97" y="384.0"/>
      </g>
     </g>
     <g id="text_5">
      <!-- 0.0 -->
      <defs>
       <path d="M 10.6875 12.40625 
L 21 12.40625 
L 21 0 
L 10.6875 0 
z
" id="BitstreamVeraSans-Roman-2e"/>
      </defs>
      <g transform="translate(25.98 388.415)scale(0.16 -0.16)">
       <use xlink:href="#BitstreamVeraSans-Roman-30"/>
       <use x="63.623046875" xlink:href="#BitstreamVeraSans-Roman-2e"/>
       <use x="95.41015625" xlink:href="#BitstreamVeraSans-Roman-30"/>
      </g>
     </g>
    </g>
    <g id="ytick_2">
     <g id="line2d_88">
      <path clip-path="url(#pb4823a1c3f)" d="M 55.425 309.480835 
L 567.24 309.480835 
" style="fill:none;stroke:#000000;stroke-dasharray:1.000000,3.000000;stroke-dashoffset:0.0;stroke-width:0.5;"/>
     </g>
     <g id="line2d_89">
      <g>
       <use style="stroke:#000000;stroke-width:0.5;" x="55.425" xlink:href="#m5fc097deb3" y="309.480835212"/>
      </g>
     </g>
     <g id="line2d_90">
      <g>
       <use style="stroke:#000000;stroke-width:0.5;" x="567.24" xlink:href="#m35ee490a97" y="309.480835212"/>
      </g>
     </g>
     <g id="text_6">
      <!-- 0.2 -->
      <g transform="translate(25.98 313.895835212)scale(0.16 -0.16)">
       <use xlink:href="#BitstreamVeraSans-Roman-30"/>
       <use x="63.623046875" xlink:href="#BitstreamVeraSans-Roman-2e"/>
       <use x="95.41015625" xlink:href="#BitstreamVeraSans-Roman-32"/>
      </g>
     </g>
    </g>
    <g id="ytick_3">
     <g id="line2d_91">
      <path clip-path="url(#pb4823a1c3f)" d="M 55.425 234.96167 
L 567.24 234.96167 
" style="fill:none;stroke:#000000;stroke-dasharray:1.000000,3.000000;stroke-dashoffset:0.0;stroke-width:0.5;"/>
     </g>
     <g id="line2d_92">
      <g>
       <use style="stroke:#000000;stroke-width:0.5;" x="55.425" xlink:href="#m5fc097deb3" y="234.961670424"/>
      </g>
     </g>
     <g id="line2d_93">
      <g>
       <use style="stroke:#000000;stroke-width:0.5;" x="567.24" xlink:href="#m35ee490a97" y="234.961670424"/>
      </g>
     </g>
     <g id="text_7">
      <!-- 0.4 -->
      <defs>
       <path d="M 37.796875 64.3125 
L 12.890625 25.390625 
L 37.796875 25.390625 
z
M 35.203125 72.90625 
L 47.609375 72.90625 
L 47.609375 25.390625 
L 58.015625 25.390625 
L 58.015625 17.1875 
L 47.609375 17.1875 
L 47.609375 0 
L 37.796875 0 
L 37.796875 17.1875 
L 4.890625 17.1875 
L 4.890625 26.703125 
z
" id="BitstreamVeraSans-Roman-34"/>
      </defs>
      <g transform="translate(25.98 239.376670424)scale(0.16 -0.16)">
       <use xlink:href="#BitstreamVeraSans-Roman-30"/>
       <use x="63.623046875" xlink:href="#BitstreamVeraSans-Roman-2e"/>
       <use x="95.41015625" xlink:href="#BitstreamVeraSans-Roman-34"/>
      </g>
     </g>
    </g>
    <g id="ytick_4">
     <g id="line2d_94">
      <path clip-path="url(#pb4823a1c3f)" d="M 55.425 160.442506 
L 567.24 160.442506 
" style="fill:none;stroke:#000000;stroke-dasharray:1.000000,3.000000;stroke-dashoffset:0.0;stroke-width:0.5;"/>
     </g>
     <g id="line2d_95">
      <g>
       <use style="stroke:#000000;stroke-width:0.5;" x="55.425" xlink:href="#m5fc097deb3" y="160.442505637"/>
      </g>
     </g>
     <g id="line2d_96">
      <g>
       <use style="stroke:#000000;stroke-width:0.5;" x="567.24" xlink:href="#m35ee490a97" y="160.442505637"/>
      </g>
     </g>
     <g id="text_8">
      <!-- 0.6 -->
      <defs>
       <path d="M 33.015625 40.375 
Q 26.375 40.375 22.484375 35.828125 
Q 18.609375 31.296875 18.609375 23.390625 
Q 18.609375 15.53125 22.484375 10.953125 
Q 26.375 6.390625 33.015625 6.390625 
Q 39.65625 6.390625 43.53125 10.953125 
Q 47.40625 15.53125 47.40625 23.390625 
Q 47.40625 31.296875 43.53125 35.828125 
Q 39.65625 40.375 33.015625 40.375 
M 52.59375 71.296875 
L 52.59375 62.3125 
Q 48.875 64.0625 45.09375 64.984375 
Q 41.3125 65.921875 37.59375 65.921875 
Q 27.828125 65.921875 22.671875 59.328125 
Q 17.53125 52.734375 16.796875 39.40625 
Q 19.671875 43.65625 24.015625 45.921875 
Q 28.375 48.1875 33.59375 48.1875 
Q 44.578125 48.1875 50.953125 41.515625 
Q 57.328125 34.859375 57.328125 23.390625 
Q 57.328125 12.15625 50.6875 5.359375 
Q 44.046875 -1.421875 33.015625 -1.421875 
Q 20.359375 -1.421875 13.671875 8.265625 
Q 6.984375 17.96875 6.984375 36.375 
Q 6.984375 53.65625 15.1875 63.9375 
Q 23.390625 74.21875 37.203125 74.21875 
Q 40.921875 74.21875 44.703125 73.484375 
Q 48.484375 72.75 52.59375 71.296875 
" id="BitstreamVeraSans-Roman-36"/>
      </defs>
      <g transform="translate(25.98 164.857505637)scale(0.16 -0.16)">
       <use xlink:href="#BitstreamVeraSans-Roman-30"/>
       <use x="63.623046875" xlink:href="#BitstreamVeraSans-Roman-2e"/>
       <use x="95.41015625" xlink:href="#BitstreamVeraSans-Roman-36"/>
      </g>
     </g>
    </g>
    <g id="ytick_5">
     <g id="line2d_97">
      <path clip-path="url(#pb4823a1c3f)" d="M 55.425 85.923341 
L 567.24 85.923341 
" style="fill:none;stroke:#000000;stroke-dasharray:1.000000,3.000000;stroke-dashoffset:0.0;stroke-width:0.5;"/>
     </g>
     <g id="line2d_98">
      <g>
       <use style="stroke:#000000;stroke-width:0.5;" x="55.425" xlink:href="#m5fc097deb3" y="85.9233408489"/>
      </g>
     </g>
     <g id="line2d_99">
      <g>
       <use style="stroke:#000000;stroke-width:0.5;" x="567.24" xlink:href="#m35ee490a97" y="85.9233408489"/>
      </g>
     </g>
     <g id="text_9">
      <!-- 0.8 -->
      <defs>
       <path d="M 31.78125 34.625 
Q 24.75 34.625 20.71875 30.859375 
Q 16.703125 27.09375 16.703125 20.515625 
Q 16.703125 13.921875 20.71875 10.15625 
Q 24.75 6.390625 31.78125 6.390625 
Q 38.8125 6.390625 42.859375 10.171875 
Q 46.921875 13.96875 46.921875 20.515625 
Q 46.921875 27.09375 42.890625 30.859375 
Q 38.875 34.625 31.78125 34.625 
M 21.921875 38.8125 
Q 15.578125 40.375 12.03125 44.71875 
Q 8.5 49.078125 8.5 55.328125 
Q 8.5 64.0625 14.71875 69.140625 
Q 20.953125 74.21875 31.78125 74.21875 
Q 42.671875 74.21875 48.875 69.140625 
Q 55.078125 64.0625 55.078125 55.328125 
Q 55.078125 49.078125 51.53125 44.71875 
Q 48 40.375 41.703125 38.8125 
Q 48.828125 37.15625 52.796875 32.3125 
Q 56.78125 27.484375 56.78125 20.515625 
Q 56.78125 9.90625 50.3125 4.234375 
Q 43.84375 -1.421875 31.78125 -1.421875 
Q 19.734375 -1.421875 13.25 4.234375 
Q 6.78125 9.90625 6.78125 20.515625 
Q 6.78125 27.484375 10.78125 32.3125 
Q 14.796875 37.15625 21.921875 38.8125 
M 18.3125 54.390625 
Q 18.3125 48.734375 21.84375 45.5625 
Q 25.390625 42.390625 31.78125 42.390625 
Q 38.140625 42.390625 41.71875 45.5625 
Q 45.3125 48.734375 45.3125 54.390625 
Q 45.3125 60.0625 41.71875 63.234375 
Q 38.140625 66.40625 31.78125 66.40625 
Q 25.390625 66.40625 21.84375 63.234375 
Q 18.3125 60.0625 18.3125 54.390625 
" id="BitstreamVeraSans-Roman-38"/>
      </defs>
      <g transform="translate(25.98 90.3383408489)scale(0.16 -0.16)">
       <use xlink:href="#BitstreamVeraSans-Roman-30"/>
       <use x="63.623046875" xlink:href="#BitstreamVeraSans-Roman-2e"/>
       <use x="95.41015625" xlink:href="#BitstreamVeraSans-Roman-38"/>
      </g>
     </g>
    </g>
    <g id="ytick_6">
     <g id="line2d_100">
      <path clip-path="url(#pb4823a1c3f)" d="M 55.425 11.404176 
L 567.24 11.404176 
" style="fill:none;stroke:#000000;stroke-dasharray:1.000000,3.000000;stroke-dashoffset:0.0;stroke-width:0.5;"/>
     </g>
     <g id="line2d_101">
      <g>
       <use style="stroke:#000000;stroke-width:0.5;" x="55.425" xlink:href="#m5fc097deb3" y="11.4041760612"/>
      </g>
     </g>
     <g id="line2d_102">
      <g>
       <use style="stroke:#000000;stroke-width:0.5;" x="567.24" xlink:href="#m35ee490a97" y="11.4041760612"/>
      </g>
     </g>
     <g id="text_10">
      <!-- 1.0 -->
      <g transform="translate(25.98 15.8191760612)scale(0.16 -0.16)">
       <use xlink:href="#BitstreamVeraSans-Roman-31"/>
       <use x="63.623046875" xlink:href="#BitstreamVeraSans-Roman-2e"/>
       <use x="95.41015625" xlink:href="#BitstreamVeraSans-Roman-30"/>
      </g>
     </g>
    </g>
    <g id="text_11">
     <!-- proportion of trials -->
     <defs>
      <path d="M 54.890625 33.015625 
L 54.890625 0 
L 45.90625 0 
L 45.90625 32.71875 
Q 45.90625 40.484375 42.875 44.328125 
Q 39.84375 48.1875 33.796875 48.1875 
Q 26.515625 48.1875 22.3125 43.546875 
Q 18.109375 38.921875 18.109375 30.90625 
L 18.109375 0 
L 9.078125 0 
L 9.078125 54.6875 
L 18.109375 54.6875 
L 18.109375 46.1875 
Q 21.34375 51.125 25.703125 53.5625 
Q 30.078125 56 35.796875 56 
Q 45.21875 56 50.046875 50.171875 
Q 54.890625 44.34375 54.890625 33.015625 
" id="BitstreamVeraSans-Roman-6e"/>
      <path d="M 9.421875 54.6875 
L 18.40625 54.6875 
L 18.40625 0 
L 9.421875 0 
z
M 9.421875 75.984375 
L 18.40625 75.984375 
L 18.40625 64.59375 
L 9.421875 64.59375 
z
" id="BitstreamVeraSans-Roman-69"/>
      <path d="M 18.3125 70.21875 
L 18.3125 54.6875 
L 36.8125 54.6875 
L 36.8125 47.703125 
L 18.3125 47.703125 
L 18.3125 18.015625 
Q 18.3125 11.328125 20.140625 9.421875 
Q 21.96875 7.515625 27.59375 7.515625 
L 36.8125 7.515625 
L 36.8125 0 
L 27.59375 0 
Q 17.1875 0 13.234375 3.875 
Q 9.28125 7.765625 9.28125 18.015625 
L 9.28125 47.703125 
L 2.6875 47.703125 
L 2.6875 54.6875 
L 9.28125 54.6875 
L 9.28125 70.21875 
z
" id="BitstreamVeraSans-Roman-74"/>
      <path d="M 41.109375 46.296875 
Q 39.59375 47.171875 37.8125 47.578125 
Q 36.03125 48 33.890625 48 
Q 26.265625 48 22.1875 43.046875 
Q 18.109375 38.09375 18.109375 28.8125 
L 18.109375 0 
L 9.078125 0 
L 9.078125 54.6875 
L 18.109375 54.6875 
L 18.109375 46.1875 
Q 20.953125 51.171875 25.484375 53.578125 
Q 30.03125 56 36.53125 56 
Q 37.453125 56 38.578125 55.875 
Q 39.703125 55.765625 41.0625 55.515625 
z
" id="BitstreamVeraSans-Roman-72"/>
      <path d="M 18.109375 8.203125 
L 18.109375 -20.796875 
L 9.078125 -20.796875 
L 9.078125 54.6875 
L 18.109375 54.6875 
L 18.109375 46.390625 
Q 20.953125 51.265625 25.265625 53.625 
Q 29.59375 56 35.59375 56 
Q 45.5625 56 51.78125 48.09375 
Q 58.015625 40.1875 58.015625 27.296875 
Q 58.015625 14.40625 51.78125 6.484375 
Q 45.5625 -1.421875 35.59375 -1.421875 
Q 29.59375 -1.421875 25.265625 0.953125 
Q 20.953125 3.328125 18.109375 8.203125 
M 48.6875 27.296875 
Q 48.6875 37.203125 44.609375 42.84375 
Q 40.53125 48.484375 33.40625 48.484375 
Q 26.265625 48.484375 22.1875 42.84375 
Q 18.109375 37.203125 18.109375 27.296875 
Q 18.109375 17.390625 22.1875 11.75 
Q 26.265625 6.109375 33.40625 6.109375 
Q 40.53125 6.109375 44.609375 11.75 
Q 48.6875 17.390625 48.6875 27.296875 
" id="BitstreamVeraSans-Roman-70"/>
     </defs>
     <g transform="translate(16.820625 289.067233911)rotate(-90.0)scale(0.2 -0.2)">
      <use xlink:href="#BitstreamVeraSans-Roman-70"/>
      <use x="63.4765625" xlink:href="#BitstreamVeraSans-Roman-72"/>
      <use x="104.55859375" xlink:href="#BitstreamVeraSans-Roman-6f"/>
      <use x="165.740234375" xlink:href="#BitstreamVeraSans-Roman-70"/>
      <use x="229.216796875" xlink:href="#BitstreamVeraSans-Roman-6f"/>
      <use x="290.3984375" xlink:href="#BitstreamVeraSans-Roman-72"/>
      <use x="331.51171875" xlink:href="#BitstreamVeraSans-Roman-74"/>
      <use x="370.720703125" xlink:href="#BitstreamVeraSans-Roman-69"/>
      <use x="398.50390625" xlink:href="#BitstreamVeraSans-Roman-6f"/>
      <use x="459.685546875" xlink:href="#BitstreamVeraSans-Roman-6e"/>
      <use x="523.064453125" xlink:href="#BitstreamVeraSans-Roman-20"/>
      <use x="554.8515625" xlink:href="#BitstreamVeraSans-Roman-6f"/>
      <use x="616.033203125" xlink:href="#BitstreamVeraSans-Roman-66"/>
      <use x="651.23828125" xlink:href="#BitstreamVeraSans-Roman-20"/>
      <use x="683.025390625" xlink:href="#BitstreamVeraSans-Roman-74"/>
      <use x="722.234375" xlink:href="#BitstreamVeraSans-Roman-72"/>
      <use x="763.34765625" xlink:href="#BitstreamVeraSans-Roman-69"/>
      <use x="791.130859375" xlink:href="#BitstreamVeraSans-Roman-61"/>
      <use x="852.41015625" xlink:href="#BitstreamVeraSans-Roman-6c"/>
      <use x="880.193359375" xlink:href="#BitstreamVeraSans-Roman-73"/>
     </g>
    </g>
   </g>
   <g id="text_12">
    <!-- {f1-f5}, 5-D -->
    <defs>
     <path d="M 11.71875 12.40625 
L 22.015625 12.40625 
L 22.015625 4 
L 14.015625 -11.625 
L 7.71875 -11.625 
L 11.71875 4 
z
" id="BitstreamVeraSans-Roman-2c"/>
     <path d="M 12.5 -9.28125 
L 15.921875 -9.28125 
Q 22.75 -9.28125 24.828125 -7.171875 
Q 26.90625 -5.078125 26.90625 1.90625 
L 26.90625 14.015625 
Q 26.90625 21.625 29.09375 25.09375 
Q 31.296875 28.5625 36.71875 29.890625 
Q 31.296875 31.109375 29.09375 34.5625 
Q 26.90625 38.03125 26.90625 45.703125 
L 26.90625 57.8125 
Q 26.90625 64.75 24.828125 66.875 
Q 22.75 69 15.921875 69 
L 12.5 69 
L 12.5 75.984375 
L 15.578125 75.984375 
Q 27.734375 75.984375 31.8125 72.390625 
Q 35.890625 68.796875 35.890625 58.015625 
L 35.890625 46.296875 
Q 35.890625 39.015625 38.515625 36.203125 
Q 41.15625 33.40625 48.09375 33.40625 
L 51.125 33.40625 
L 51.125 26.421875 
L 48.09375 26.421875 
Q 41.15625 26.421875 38.515625 23.578125 
Q 35.890625 20.75 35.890625 13.375 
L 35.890625 1.703125 
Q 35.890625 -9.078125 31.8125 -12.6875 
Q 27.734375 -16.3125 15.578125 -16.3125 
L 12.5 -16.3125 
z
" id="BitstreamVeraSans-Roman-7d"/>
     <path d="M 51.125 -9.28125 
L 51.125 -16.3125 
L 48.09375 -16.3125 
Q 35.9375 -16.3125 31.8125 -12.6875 
Q 27.6875 -9.078125 27.6875 1.703125 
L 27.6875 13.375 
Q 27.6875 20.75 25.046875 23.578125 
Q 22.40625 26.421875 15.484375 26.421875 
L 12.5 26.421875 
L 12.5 33.40625 
L 15.484375 33.40625 
Q 22.46875 33.40625 25.078125 36.203125 
Q 27.6875 39.015625 27.6875 46.296875 
L 27.6875 58.015625 
Q 27.6875 68.796875 31.8125 72.390625 
Q 35.9375 75.984375 48.09375 75.984375 
L 51.125 75.984375 
L 51.125 69 
L 47.796875 69 
Q 40.921875 69 38.8125 66.84375 
Q 36.71875 64.703125 36.71875 57.8125 
L 36.71875 45.703125 
Q 36.71875 38.03125 34.5 34.5625 
Q 32.28125 31.109375 26.90625 29.890625 
Q 32.328125 28.5625 34.515625 25.09375 
Q 36.71875 21.625 36.71875 14.015625 
L 36.71875 1.90625 
Q 36.71875 -4.984375 38.8125 -7.125 
Q 40.921875 -9.28125 47.796875 -9.28125 
z
" id="BitstreamVeraSans-Roman-7b"/>
     <path d="M 4.890625 31.390625 
L 31.203125 31.390625 
L 31.203125 23.390625 
L 4.890625 23.390625 
z
" id="BitstreamVeraSans-Roman-2d"/>
     <path d="M 10.796875 72.90625 
L 49.515625 72.90625 
L 49.515625 64.59375 
L 19.828125 64.59375 
L 19.828125 46.734375 
Q 21.96875 47.46875 24.109375 47.828125 
Q 26.265625 48.1875 28.421875 48.1875 
Q 40.625 48.1875 47.75 41.5 
Q 54.890625 34.8125 54.890625 23.390625 
Q 54.890625 11.625 47.5625 5.09375 
Q 40.234375 -1.421875 26.90625 -1.421875 
Q 22.3125 -1.421875 17.546875 -0.640625 
Q 12.796875 0.140625 7.71875 1.703125 
L 7.71875 11.625 
Q 12.109375 9.234375 16.796875 8.0625 
Q 21.484375 6.890625 26.703125 6.890625 
Q 35.15625 6.890625 40.078125 11.328125 
Q 45.015625 15.765625 45.015625 23.390625 
Q 45.015625 31 40.078125 35.4375 
Q 35.15625 39.890625 26.703125 39.890625 
Q 22.75 39.890625 18.8125 39.015625 
Q 14.890625 38.140625 10.796875 36.28125 
z
" id="BitstreamVeraSans-Roman-35"/>
    </defs>
    <g transform="translate(251.2075 30.4015284653)scale(0.2 -0.2)">
     <use xlink:href="#BitstreamVeraSans-Roman-7b"/>
     <use x="63.623046875" xlink:href="#BitstreamVeraSans-Roman-66"/>
     <use x="98.828125" xlink:href="#BitstreamVeraSans-Roman-31"/>
     <use x="162.451171875" xlink:href="#BitstreamVeraSans-Roman-2d"/>
     <use x="198.53515625" xlink:href="#BitstreamVeraSans-Roman-66"/>
     <use x="233.740234375" xlink:href="#BitstreamVeraSans-Roman-35"/>
     <use x="297.36328125" xlink:href="#BitstreamVeraSans-Roman-7d"/>
     <use x="360.986328125" xlink:href="#BitstreamVeraSans-Roman-2c"/>
     <use x="392.7734375" xlink:href="#BitstreamVeraSans-Roman-20"/>
     <use x="424.560546875" xlink:href="#BitstreamVeraSans-Roman-35"/>
     <use x="488.18359375" xlink:href="#BitstreamVeraSans-Roman-2d"/>
     <use x="524.267578125" xlink:href="#BitstreamVeraSans-Roman-44"/>
    </g>
   </g>
   <g id="text_13">
    <!-- absolute targets -->
    <defs>
     <path d="M 56.203125 29.59375 
L 56.203125 25.203125 
L 14.890625 25.203125 
Q 15.484375 15.921875 20.484375 11.0625 
Q 25.484375 6.203125 34.421875 6.203125 
Q 39.59375 6.203125 44.453125 7.46875 
Q 49.3125 8.734375 54.109375 11.28125 
L 54.109375 2.78125 
Q 49.265625 0.734375 44.1875 -0.34375 
Q 39.109375 -1.421875 33.890625 -1.421875 
Q 20.796875 -1.421875 13.15625 6.1875 
Q 5.515625 13.8125 5.515625 26.8125 
Q 5.515625 40.234375 12.765625 48.109375 
Q 20.015625 56 32.328125 56 
Q 43.359375 56 49.78125 48.890625 
Q 56.203125 41.796875 56.203125 29.59375 
M 47.21875 32.234375 
Q 47.125 39.59375 43.09375 43.984375 
Q 39.0625 48.390625 32.421875 48.390625 
Q 24.90625 48.390625 20.390625 44.140625 
Q 15.875 39.890625 15.1875 32.171875 
z
" id="BitstreamVeraSans-Roman-65"/>
     <path d="M 8.5 21.578125 
L 8.5 54.6875 
L 17.484375 54.6875 
L 17.484375 21.921875 
Q 17.484375 14.15625 20.5 10.265625 
Q 23.53125 6.390625 29.59375 6.390625 
Q 36.859375 6.390625 41.078125 11.03125 
Q 45.3125 15.671875 45.3125 23.6875 
L 45.3125 54.6875 
L 54.296875 54.6875 
L 54.296875 0 
L 45.3125 0 
L 45.3125 8.40625 
Q 42.046875 3.421875 37.71875 1 
Q 33.40625 -1.421875 27.6875 -1.421875 
Q 18.265625 -1.421875 13.375 4.4375 
Q 8.5 10.296875 8.5 21.578125 
" id="BitstreamVeraSans-Roman-75"/>
     <path d="M 48.6875 27.296875 
Q 48.6875 37.203125 44.609375 42.84375 
Q 40.53125 48.484375 33.40625 48.484375 
Q 26.265625 48.484375 22.1875 42.84375 
Q 18.109375 37.203125 18.109375 27.296875 
Q 18.109375 17.390625 22.1875 11.75 
Q 26.265625 6.109375 33.40625 6.109375 
Q 40.53125 6.109375 44.609375 11.75 
Q 48.6875 17.390625 48.6875 27.296875 
M 18.109375 46.390625 
Q 20.953125 51.265625 25.265625 53.625 
Q 29.59375 56 35.59375 56 
Q 45.5625 56 51.78125 48.09375 
Q 58.015625 40.1875 58.015625 27.296875 
Q 58.015625 14.40625 51.78125 6.484375 
Q 45.5625 -1.421875 35.59375 -1.421875 
Q 29.59375 -1.421875 25.265625 0.953125 
Q 20.953125 3.328125 18.109375 8.203125 
L 18.109375 0 
L 9.078125 0 
L 9.078125 75.984375 
L 18.109375 75.984375 
z
" id="BitstreamVeraSans-Roman-62"/>
    </defs>
    <g transform="translate(55.425 756.595823939)scale(0.14 -0.14)">
     <use xlink:href="#BitstreamVeraSans-Roman-61"/>
     <use x="61.279296875" xlink:href="#BitstreamVeraSans-Roman-62"/>
     <use x="124.755859375" xlink:href="#BitstreamVeraSans-Roman-73"/>
     <use x="176.85546875" xlink:href="#BitstreamVeraSans-Roman-6f"/>
     <use x="238.037109375" xlink:href="#BitstreamVeraSans-Roman-6c"/>
     <use x="265.8203125" xlink:href="#BitstreamVeraSans-Roman-75"/>
     <use x="329.19921875" xlink:href="#BitstreamVeraSans-Roman-74"/>
     <use x="368.408203125" xlink:href="#BitstreamVeraSans-Roman-65"/>
     <use x="429.931640625" xlink:href="#BitstreamVeraSans-Roman-20"/>
     <use x="461.71875" xlink:href="#BitstreamVeraSans-Roman-74"/>
     <use x="500.927734375" xlink:href="#BitstreamVeraSans-Roman-61"/>
     <use x="562.20703125" xlink:href="#BitstreamVeraSans-Roman-72"/>
     <use x="603.3046875" xlink:href="#BitstreamVeraSans-Roman-67"/>
     <use x="666.78125" xlink:href="#BitstreamVeraSans-Roman-65"/>
     <use x="728.3046875" xlink:href="#BitstreamVeraSans-Roman-74"/>
     <use x="767.513671875" xlink:href="#BitstreamVeraSans-Roman-73"/>
    </g>
   </g>
   <g id="text_14">
    <!-- v2.2.1.10 -->
    <g style="fill:#808080;" transform="translate(287.6996875 378.157094678)scale(0.1 -0.1)">
     <use xlink:href="#BitstreamVeraSans-Roman-76"/>
     <use x="59.1796875" xlink:href="#BitstreamVeraSans-Roman-32"/>
     <use x="122.802734375" xlink:href="#BitstreamVeraSans-Roman-2e"/>
     <use x="154.58984375" xlink:href="#BitstreamVeraSans-Roman-32"/>
     <use x="218.212890625" xlink:href="#BitstreamVeraSans-Roman-2e"/>
     <use x="250.0" xlink:href="#BitstreamVeraSans-Roman-31"/>
     <use x="313.623046875" xlink:href="#BitstreamVeraSans-Roman-2e"/>
     <use x="345.41015625" xlink:href="#BitstreamVeraSans-Roman-31"/>
     <use x="409.033203125" xlink:href="#BitstreamVeraSans-Roman-30"/>
    </g>
   </g>
   <g id="legend_1">
    <g id="patch_7">
     <path d="M 65.425 141.103218 
L 202.646875 141.103218 
L 202.646875 17.678218 
L 65.425 17.678218 
z
" style="fill:#ffffff;opacity:0.2;stroke:#000000;stroke-linejoin:miter;"/>
    </g>
    <g id="line2d_103">
     <path d="M 79.425 33.875093 
L 107.425 33.875093 
" style="fill:none;stroke:#000000;stroke-linecap:square;"/>
    </g>
    <g id="line2d_104"/>
    <g id="text_15">
     <!-- 1: 2/5 -->
     <defs>
      <path d="M 11.71875 12.40625 
L 22.015625 12.40625 
L 22.015625 0 
L 11.71875 0 
z
M 11.71875 51.703125 
L 22.015625 51.703125 
L 22.015625 39.3125 
L 11.71875 39.3125 
z
" id="BitstreamVeraSans-Roman-3a"/>
     </defs>
     <g transform="translate(129.425 40.8750928218)scale(0.2 -0.2)">
      <use xlink:href="#BitstreamVeraSans-Roman-31"/>
      <use x="63.623046875" xlink:href="#BitstreamVeraSans-Roman-3a"/>
      <use x="97.314453125" xlink:href="#BitstreamVeraSans-Roman-20"/>
      <use x="129.1015625" xlink:href="#BitstreamVeraSans-Roman-32"/>
      <use x="192.724609375" xlink:href="#BitstreamVeraSans-Roman-2f"/>
      <use x="226.416015625" xlink:href="#BitstreamVeraSans-Roman-35"/>
     </g>
    </g>
    <g id="line2d_105">
     <path d="M 79.425 63.231343 
L 107.425 63.231343 
" style="fill:none;stroke:#00bfbf;stroke-linecap:square;"/>
    </g>
    <g id="line2d_106"/>
    <g id="text_16">
     <!-- -1: 2/5 -->
     <g transform="translate(129.425 70.2313428218)scale(0.2 -0.2)">
      <use xlink:href="#BitstreamVeraSans-Roman-2d"/>
      <use x="36.083984375" xlink:href="#BitstreamVeraSans-Roman-31"/>
      <use x="99.70703125" xlink:href="#BitstreamVeraSans-Roman-3a"/>
      <use x="133.3984375" xlink:href="#BitstreamVeraSans-Roman-20"/>
      <use x="165.185546875" xlink:href="#BitstreamVeraSans-Roman-32"/>
      <use x="228.80859375" xlink:href="#BitstreamVeraSans-Roman-2f"/>
      <use x="262.5" xlink:href="#BitstreamVeraSans-Roman-35"/>
     </g>
    </g>
    <g id="line2d_107">
     <path d="M 79.425 92.587593 
L 107.425 92.587593 
" style="fill:none;stroke:#bf00bf;stroke-linecap:square;"/>
    </g>
    <g id="line2d_108"/>
    <g id="text_17">
     <!-- -4: 2/5 -->
     <g transform="translate(129.425 99.5875928218)scale(0.2 -0.2)">
      <use xlink:href="#BitstreamVeraSans-Roman-2d"/>
      <use x="36.083984375" xlink:href="#BitstreamVeraSans-Roman-34"/>
      <use x="99.70703125" xlink:href="#BitstreamVeraSans-Roman-3a"/>
      <use x="133.3984375" xlink:href="#BitstreamVeraSans-Roman-20"/>
      <use x="165.185546875" xlink:href="#BitstreamVeraSans-Roman-32"/>
      <use x="228.80859375" xlink:href="#BitstreamVeraSans-Roman-2f"/>
      <use x="262.5" xlink:href="#BitstreamVeraSans-Roman-35"/>
     </g>
    </g>
    <g id="line2d_109">
     <path d="M 79.425 121.943843 
L 107.425 121.943843 
" style="fill:none;stroke:#ff0000;stroke-linecap:square;stroke-width:3.0;"/>
    </g>
    <g id="line2d_110"/>
    <g id="text_18">
     <!-- -8: 2/5 -->
     <g transform="translate(129.425 128.943842822)scale(0.2 -0.2)">
      <use xlink:href="#BitstreamVeraSans-Roman-2d"/>
      <use x="36.083984375" xlink:href="#BitstreamVeraSans-Roman-38"/>
      <use x="99.70703125" xlink:href="#BitstreamVeraSans-Roman-3a"/>
      <use x="133.3984375" xlink:href="#BitstreamVeraSans-Roman-20"/>
      <use x="165.185546875" xlink:href="#BitstreamVeraSans-Roman-32"/>
      <use x="228.80859375" xlink:href="#BitstreamVeraSans-Roman-2f"/>
      <use x="262.5" xlink:href="#BitstreamVeraSans-Roman-35"/>
     </g>
    </g>
   </g>
  </g>
 </g>
 <defs>
  <clipPath id="pb4823a1c3f">
   <rect height="376.321782178" width="511.815" x="55.425" y="7.67821782178"/>
  </clipPath>
 </defs>
</svg>
