<?xml version="1.0" encoding="utf-8" standalone="no"?>
<!DOCTYPE svg PUBLIC "-//W3C//DTD SVG 1.1//EN"
  "http://www.w3.org/Graphics/SVG/1.1/DTD/svg11.dtd">
<!-- Created with matplotlib (http://matplotlib.org/) -->
<svg height="432pt" version="1.1" viewBox="0 0 576 432" width="576pt" xmlns="http://www.w3.org/2000/svg" xmlns:xlink="http://www.w3.org/1999/xlink">
 <defs>
  <style type="text/css">
*{stroke-linecap:butt;stroke-linejoin:round;stroke-miterlimit:100000;}
  </style>
 </defs>
 <g id="figure_1">
  <g id="patch_1">
   <path d="M 0 432 
L 576 432 
L 576 0 
L 0 0 
z
" style="fill:#ffffff;"/>
  </g>
  <g id="axes_1">
   <g id="patch_2">
    <path d="M 54.525 384.9 
L 503.88 384.9 
L 503.88 7.678218 
L 54.525 7.678218 
z
" style="fill:#ffffff;"/>
   </g>
   <g id="line2d_1">
    <defs>
     <path d="M 0 1.5 
C 0.397805 1.5 0.77937 1.341951 1.06066 1.06066 
C 1.341951 0.77937 1.5 0.397805 1.5 0 
C 1.5 -0.397805 1.341951 -0.77937 1.06066 -1.06066 
C 0.77937 -1.341951 0.397805 -1.5 0 -1.5 
C -0.397805 -1.5 -0.77937 -1.341951 -1.06066 -1.06066 
C -1.341951 -0.77937 -1.5 -0.397805 -1.5 0 
C -1.5 0.397805 -1.341951 0.77937 -1.06066 1.06066 
C -0.77937 1.341951 -0.397805 1.5 0 1.5 
z
" id="m01e61b0f85" style="stroke:#000080;stroke-width:0.5;"/>
    </defs>
    <g>
     <use style="fill:#000080;stroke:#000080;stroke-width:0.5;" x="369.790902514" xlink:href="#m01e61b0f85" y="326.313817561"/>
     <use style="fill:#000080;stroke:#000080;stroke-width:0.5;" x="369.790902514" xlink:href="#m01e61b0f85" y="326.313817561"/>
    </g>
   </g>
   <g id="line2d_2">
    <path d="M 243.889707 384.9 
L 243.889707 382.703018 
L 264.452872 382.703018 
L 264.452872 380.506036 
L 281.792975 380.506036 
L 281.79325 379.041382 
L 284.070283 379.041382 
L 284.070283 378.309054 
L 286.018171 378.309054 
L 286.018171 377.576727 
L 286.161605 377.576727 
L 286.161605 375.379745 
L 296.474956 375.379745 
L 296.474956 374.647418 
L 297.616809 374.647418 
L 297.703086 369.521127 
L 298.386982 369.521127 
L 298.386982 368.7888 
L 305.291459 368.7888 
L 305.291814 362.930182 
L 305.781469 362.930182 
L 305.781469 362.197854 
L 310.955289 362.197854 
L 310.955389 360.000872 
L 314.926614 360.000872 
L 314.926614 359.268545 
L 315.43627 359.268545 
L 315.436701 356.339236 
L 319.237248 356.339236 
L 319.23749 352.6776 
L 322.45888 352.6776 
L 322.45888 351.945272 
L 325.27638 351.945272 
L 325.276605 346.818981 
L 327.779641 346.818981 
L 327.779652 345.354327 
L 329.746126 345.354327 
L 329.746126 344.622 
L 330.031997 344.622 
L 330.032051 343.157345 
L 332.078912 343.157345 
L 332.078912 342.425018 
L 333.954911 342.425018 
L 333.955208 340.228036 
L 335.670856 340.228036 
L 335.686777 338.031054 
L 337.294532 338.031054 
L 337.294532 337.298727 
L 341.184094 337.298727 
L 341.184094 336.566399 
L 343.958975 336.566399 
L 343.959142 334.369418 
L 346.155174 334.369418 
L 346.155431 332.172436 
L 347.177781 332.172436 
L 347.177781 331.440109 
L 348.155815 331.440109 
L 348.155815 330.707781 
L 351.683491 330.707781 
L 351.691131 328.510799 
L 358.058693 328.510799 
L 358.058693 327.778472 
L 360.945593 327.778472 
L 360.945593 327.046145 
L 369.790903 327.046145 
L 369.790903 326.313818 
L 416.908065 326.313818 
L 416.908065 326.313818 
" style="fill:none;stroke:#000080;stroke-linecap:square;stroke-width:1.5;"/>
   </g>
   <g id="line2d_3">
    <defs>
     <path d="M 0 6 
C 1.591219 6 3.117479 5.367802 4.242641 4.242641 
C 5.367802 3.117479 6 1.591219 6 0 
C 6 -1.591219 5.367802 -3.117479 4.242641 -4.242641 
C 3.117479 -5.367802 1.591219 -6 0 -6 
C -1.591219 -6 -3.117479 -5.367802 -4.242641 -4.242641 
C -5.367802 -3.117479 -6 -1.591219 -6 0 
C -6 1.591219 -5.367802 3.117479 -4.242641 4.242641 
C -3.117479 5.367802 -1.591219 6 0 6 
z
" id="m5daebc91fb" style="stroke:#000080;stroke-width:1.5;"/>
    </defs>
    <g>
     <use style="fill:none;stroke:#000080;stroke-width:1.5;" x="319.237299611" xlink:href="#m5daebc91fb" y="355.606908781"/>
     <use style="fill:none;stroke:#000080;stroke-width:1.5;" x="360.945593038" xlink:href="#m5daebc91fb" y="327.778472122"/>
     <use style="fill:none;stroke:#000080;stroke-width:1.5;" x="369.790902514" xlink:href="#m5daebc91fb" y="326.313817561"/>
     <use style="fill:none;stroke:#000080;stroke-width:1.5;" x="416.908064516" xlink:href="#m5daebc91fb" y="326.313817561"/>
    </g>
   </g>
   <g id="line2d_4">
    <path d="M -15527.946774 758.386913 
" style="fill:none;stroke:#000080;stroke-linecap:square;stroke-width:1.5;"/>
    <g>
     <use style="fill:none;stroke:#000080;stroke-width:1.5;" x="-15527.9467742" xlink:href="#m5daebc91fb" y="758.386913048"/>
    </g>
   </g>
   <g id="line2d_5">
    <path clip-path="url(#p838f3a7745)" d="M 277.185961 380.506036 
" style="fill:none;stroke:#000080;stroke-linecap:square;"/>
    <defs>
     <path d="M -12 12 
L 12 -12 
M -12 -12 
L 12 12 
" id="me120e32dc9" style="stroke:#000080;stroke-width:3.0;"/>
    </defs>
    <g clip-path="url(#p838f3a7745)">
     <use style="fill:#000080;stroke:#000080;stroke-width:3.0;" x="277.185960788" xlink:href="#me120e32dc9" y="380.506036317"/>
    </g>
   </g>
   <g id="line2d_6">
    <defs>
     <path d="M 0 1.5 
C 0.397805 1.5 0.77937 1.341951 1.06066 1.06066 
C 1.341951 0.77937 1.5 0.397805 1.5 0 
C 1.5 -0.397805 1.341951 -0.77937 1.06066 -1.06066 
C 0.77937 -1.341951 0.397805 -1.5 0 -1.5 
C -0.397805 -1.5 -0.77937 -1.341951 -1.06066 -1.06066 
C -1.341951 -0.77937 -1.5 -0.397805 -1.5 0 
C -1.5 0.397805 -1.341951 0.77937 -1.06066 1.06066 
C -0.77937 1.341951 -0.397805 1.5 0 1.5 
z
" id="m951b5db60a" style="stroke:#ff00ff;stroke-width:0.5;"/>
    </defs>
    <g>
     <use style="fill:#ff00ff;stroke:#ff00ff;stroke-width:0.5;" x="331.437820625" xlink:href="#m951b5db60a" y="370.25345439"/>
     <use style="fill:#ff00ff;stroke:#ff00ff;stroke-width:0.5;" x="331.437820625" xlink:href="#m951b5db60a" y="370.25345439"/>
    </g>
   </g>
   <g id="line2d_7">
    <path d="M 236.4559 384.9 
L 236.4559 384.167673 
L 236.460027 384.167673 
L 236.460027 383.435345 
L 237.022471 383.435345 
L 237.022471 382.703018 
L 253.258414 382.703018 
L 253.258414 381.238364 
L 280.587983 381.238364 
L 280.587983 379.773709 
L 280.669098 379.773709 
L 280.669098 379.041382 
L 280.669291 379.041382 
L 280.669291 378.309054 
L 280.985444 378.309054 
L 280.985444 377.576727 
L 294.535283 377.576727 
L 294.535283 376.8444 
L 294.536166 376.8444 
L 294.536166 376.112073 
L 294.578939 376.112073 
L 294.578939 375.379745 
L 303.078326 375.379745 
L 303.078326 374.647418 
L 314.112082 374.647418 
L 314.112082 373.915091 
L 318.089433 373.915091 
L 318.089433 373.182764 
L 321.467541 373.182764 
L 321.467541 372.450436 
L 322.017777 372.450436 
L 322.017777 371.718109 
L 327.432181 371.718109 
L 327.432181 370.985782 
L 331.437821 370.985782 
L 331.437821 370.253454 
L 416.908065 370.253454 
" style="fill:none;stroke:#ff00ff;stroke-linecap:square;stroke-width:1.5;"/>
   </g>
   <g id="line2d_8">
    <defs>
     <path d="M -0 8.485281 
L 5.091169 0 
L 0 -8.485281 
L -5.091169 -0 
z
" id="m21ea8b2287" style="stroke:#ff00ff;stroke-linejoin:miter;stroke-width:1.5;"/>
    </defs>
    <g>
     <use style="fill:none;stroke:#ff00ff;stroke-linejoin:miter;stroke-width:1.5;" x="314.112081955" xlink:href="#m21ea8b2287" y="373.915090793"/>
     <use style="fill:none;stroke:#ff00ff;stroke-linejoin:miter;stroke-width:1.5;" x="331.437820625" xlink:href="#m21ea8b2287" y="370.25345439"/>
     <use style="fill:none;stroke:#ff00ff;stroke-linejoin:miter;stroke-width:1.5;" x="331.437820625" xlink:href="#m21ea8b2287" y="370.25345439"/>
     <use style="fill:none;stroke:#ff00ff;stroke-linejoin:miter;stroke-width:1.5;" x="416.908064516" xlink:href="#m21ea8b2287" y="370.25345439"/>
    </g>
   </g>
   <g id="line2d_9">
    <path d="M -15527.946774 758.386913 
" style="fill:none;stroke:#ff00ff;stroke-linecap:square;stroke-width:1.5;"/>
    <g>
     <use style="fill:none;stroke:#ff00ff;stroke-linejoin:miter;stroke-width:1.5;" x="-15527.9467742" xlink:href="#m21ea8b2287" y="758.386913048"/>
    </g>
   </g>
   <g id="line2d_10">
    <path clip-path="url(#p838f3a7745)" d="M 277.185961 381.238364 
" style="fill:none;stroke:#ff00ff;stroke-linecap:square;"/>
    <defs>
     <path d="M -12 12 
L 12 -12 
M -12 -12 
L 12 12 
" id="mbfa115f0a9" style="stroke:#ff00ff;stroke-width:3.0;"/>
    </defs>
    <g clip-path="url(#p838f3a7745)">
     <use style="fill:#ff00ff;stroke:#ff00ff;stroke-width:3.0;" x="277.185960788" xlink:href="#mbfa115f0a9" y="381.238363598"/>
    </g>
   </g>
   <g id="line2d_11">
    <path clip-path="url(#p838f3a7745)" d="M 54.525 384.9 
L 54.525 384.9 
L 54.525 384.9 
L 54.525 384.9 
L 503.88 384.9 
" style="fill:none;stroke:#ffa500;stroke-linecap:square;stroke-width:1.5;"/>
   </g>
   <g id="line2d_12">
    <defs>
     <path d="M 0 -6 
L -1.347084 -1.854102 
L -5.706339 -1.854102 
L -2.179628 0.708204 
L -3.526712 4.854102 
L -0 2.291796 
L 3.526712 4.854102 
L 2.179628 0.708204 
L 5.706339 -1.854102 
L 1.347084 -1.854102 
z
" id="mf58a35a600" style="stroke:#ffa500;stroke-linejoin:bevel;stroke-width:1.5;"/>
    </defs>
    <g clip-path="url(#p838f3a7745)">
     <use style="fill:none;stroke:#ffa500;stroke-linejoin:bevel;stroke-width:1.5;" x="54.525" xlink:href="#mf58a35a600" y="384.9"/>
    </g>
   </g>
   <g id="line2d_13">
    <path clip-path="url(#p838f3a7745)" d="M -15527.946774 758.386913 
" style="fill:none;stroke:#ffa500;stroke-linecap:square;stroke-width:1.5;"/>
    <g clip-path="url(#p838f3a7745)">
     <use style="fill:none;stroke:#ffa500;stroke-linejoin:bevel;stroke-width:1.5;" x="-15527.9467742" xlink:href="#mf58a35a600" y="758.386913048"/>
     <use style="fill:none;stroke:#ffa500;stroke-linejoin:bevel;stroke-width:1.5;" x="-1.0" xlink:href="#mf58a35a600" y="758.386913048"/>
     <use style="fill:none;stroke:#ffa500;stroke-linejoin:bevel;stroke-width:1.5;" x="503.88" xlink:href="#mf58a35a600" y="758.386913048"/>
    </g>
   </g>
   <g id="line2d_14">
    <defs>
     <path d="M 0 1.5 
C 0.397805 1.5 0.77937 1.341951 1.06066 1.06066 
C 1.341951 0.77937 1.5 0.397805 1.5 0 
C 1.5 -0.397805 1.341951 -0.77937 1.06066 -1.06066 
C 0.77937 -1.341951 0.397805 -1.5 0 -1.5 
C -0.397805 -1.5 -0.77937 -1.341951 -1.06066 -1.06066 
C -1.341951 -0.77937 -1.5 -0.397805 -1.5 0 
C -1.5 0.397805 -1.341951 0.77937 -1.06066 1.06066 
C -0.77937 1.341951 -0.397805 1.5 0 1.5 
z
" id="me56b118f21" style="stroke:#6495ed;stroke-width:0.5;"/>
    </defs>
    <g>
     <use style="fill:#6495ed;stroke:#6495ed;stroke-width:0.5;" x="327.636640447" xlink:href="#me56b118f21" y="355.606908781"/>
     <use style="fill:#6495ed;stroke:#6495ed;stroke-width:0.5;" x="327.636640447" xlink:href="#me56b118f21" y="355.606908781"/>
    </g>
   </g>
   <g id="line2d_15">
    <path d="M 122.323256 384.9 
L 122.323256 384.167673 
L 194.012956 384.167673 
L 194.012956 383.435345 
L 201.755019 383.435345 
L 201.755019 381.970691 
L 203.519417 381.970691 
L 203.519417 381.238364 
L 212.583825 381.238364 
L 212.583825 379.773709 
L 215.703074 379.773709 
L 215.703074 379.041382 
L 223.529162 379.041382 
L 223.529162 376.112073 
L 223.668104 376.112073 
L 223.668104 375.379745 
L 223.716653 375.379745 
L 223.716653 374.647418 
L 224.034473 374.647418 
L 224.034473 373.915091 
L 224.45371 373.915091 
L 224.45371 373.182764 
L 231.306138 373.182764 
L 231.306138 372.450436 
L 238.850023 372.450436 
L 238.850023 371.718109 
L 249.634382 371.718109 
L 249.634382 370.253454 
L 253.458241 370.253454 
L 253.458241 369.521127 
L 255.242532 369.521127 
L 255.242532 368.056473 
L 258.244047 368.056473 
L 258.244047 367.324145 
L 262.93484 367.324145 
L 262.93484 365.859491 
L 267.743339 365.859491 
L 267.743339 365.127163 
L 270.655569 365.127163 
L 270.655569 364.394836 
L 276.52133 364.394836 
L 276.52133 363.662509 
L 279.981971 363.662509 
L 279.981971 362.930182 
L 283.984877 362.930182 
L 283.984877 362.197854 
L 290.243464 362.197854 
L 290.243464 360.7332 
L 296.425424 360.7332 
L 296.425424 360.000872 
L 302.857282 360.000872 
L 302.857282 359.268545 
L 304.387678 359.268545 
L 304.387678 358.536218 
L 306.627174 358.536218 
L 306.627174 357.803891 
L 310.255809 357.803891 
L 310.255809 357.071563 
L 315.247827 357.071563 
L 315.247827 356.339236 
L 327.63664 356.339236 
L 327.63664 355.606909 
L 416.908065 355.606909 
" style="fill:none;stroke:#6495ed;stroke-linecap:square;stroke-width:1.5;"/>
   </g>
   <g id="line2d_16">
    <defs>
     <path d="M -0 6 
L 6 -6 
L -6 -6 
z
" id="mfc15c7eefa" style="stroke:#6495ed;stroke-linejoin:miter;stroke-width:1.5;"/>
    </defs>
    <g>
     <use style="fill:none;stroke:#6495ed;stroke-linejoin:miter;stroke-width:1.5;" x="203.519417235" xlink:href="#mfc15c7eefa" y="381.970690878"/>
     <use style="fill:none;stroke:#6495ed;stroke-linejoin:miter;stroke-width:1.5;" x="306.627174157" xlink:href="#mfc15c7eefa" y="358.536217903"/>
     <use style="fill:none;stroke:#6495ed;stroke-linejoin:miter;stroke-width:1.5;" x="327.636640447" xlink:href="#mfc15c7eefa" y="355.606908781"/>
     <use style="fill:none;stroke:#6495ed;stroke-linejoin:miter;stroke-width:1.5;" x="327.636640447" xlink:href="#mfc15c7eefa" y="355.606908781"/>
     <use style="fill:none;stroke:#6495ed;stroke-linejoin:miter;stroke-width:1.5;" x="416.908064516" xlink:href="#mfc15c7eefa" y="355.606908781"/>
    </g>
   </g>
   <g id="line2d_17">
    <path d="M -15527.946774 758.386913 
" style="fill:none;stroke:#6495ed;stroke-linecap:square;stroke-width:1.5;"/>
    <g>
     <use style="fill:none;stroke:#6495ed;stroke-linejoin:miter;stroke-width:1.5;" x="-15527.9467742" xlink:href="#mfc15c7eefa" y="758.386913048"/>
    </g>
   </g>
   <g id="line2d_18">
    <path clip-path="url(#p838f3a7745)" d="M 277.185848 363.662509 
" style="fill:none;stroke:#6495ed;stroke-linecap:square;"/>
    <defs>
     <path d="M -12 12 
L 12 -12 
M -12 -12 
L 12 12 
" id="m0b57e47915" style="stroke:#6495ed;stroke-width:3.0;"/>
    </defs>
    <g clip-path="url(#p838f3a7745)">
     <use style="fill:#6495ed;stroke:#6495ed;stroke-width:3.0;" x="277.185848377" xlink:href="#m0b57e47915" y="363.662508866"/>
    </g>
   </g>
   <g id="line2d_19">
    <defs>
     <path d="M 0 1.5 
C 0.397805 1.5 0.77937 1.341951 1.06066 1.06066 
C 1.341951 0.77937 1.5 0.397805 1.5 0 
C 1.5 -0.397805 1.341951 -0.77937 1.06066 -1.06066 
C 0.77937 -1.341951 0.397805 -1.5 0 -1.5 
C -0.397805 -1.5 -0.77937 -1.341951 -1.06066 -1.06066 
C -1.341951 -0.77937 -1.5 -0.397805 -1.5 0 
C -1.5 0.397805 -1.341951 0.77937 -1.06066 1.06066 
C -0.77937 1.341951 -0.397805 1.5 0 1.5 
z
" id="m941ae1d8b2" style="stroke:#ff0000;stroke-width:0.5;"/>
    </defs>
    <g>
     <use style="fill:#ff0000;stroke:#ff0000;stroke-width:0.5;" x="358.488388915" xlink:href="#m941ae1d8b2" y="260.404362317"/>
     <use style="fill:#ff0000;stroke:#ff0000;stroke-width:0.5;" x="358.488388915" xlink:href="#m941ae1d8b2" y="260.404362317"/>
    </g>
   </g>
   <g id="line2d_20">
    <path d="M 18.340015 384.9 
L 18.340015 363.662509 
L 33.92404 363.662509 
L 33.92404 362.197854 
L 43.04011 362.197854 
L 43.04011 360.000872 
L 49.508065 360.000872 
L 49.508065 358.536218 
L 58.624135 358.536218 
L 58.624135 357.803891 
L 76.007759 357.803891 
L 76.007759 357.071563 
L 116.001771 357.071563 
L 116.001771 355.606909 
L 119.757647 355.606909 
L 119.757647 354.142254 
L 133.000287 354.142254 
L 133.000287 353.409927 
L 154.409106 353.409927 
L 154.409106 352.6776 
L 159.668079 352.6776 
L 159.668079 351.212945 
L 162.607375 351.212945 
L 162.607375 350.480618 
L 162.899367 350.480618 
L 162.899367 349.748291 
L 165.173705 349.748291 
L 165.173705 349.015963 
L 169.940167 349.015963 
L 169.940167 347.551309 
L 170.256093 347.551309 
L 170.256093 346.818981 
L 172.422705 346.818981 
L 172.422705 346.086654 
L 172.822727 346.086654 
L 172.822727 344.622 
L 180.126236 344.622 
L 180.126236 343.157345 
L 180.921005 343.157345 
L 180.921005 342.425018 
L 184.645574 342.425018 
L 184.645574 341.69269 
L 193.236327 341.69269 
L 193.236327 340.228036 
L 195.129802 340.228036 
L 195.129802 339.495709 
L 198.894989 339.495709 
L 198.894989 338.763381 
L 200.888414 338.763381 
L 200.888414 338.031054 
L 204.083874 338.031054 
L 204.083874 337.298727 
L 204.634505 337.298727 
L 204.634505 335.834072 
L 205.468746 335.834072 
L 205.468746 334.369418 
L 207.976901 334.369418 
L 207.976901 332.904763 
L 209.035681 332.904763 
L 209.035681 331.440109 
L 214.537449 331.440109 
L 214.559323 329.975454 
L 214.927964 329.975454 
L 214.927964 328.510799 
L 215.406759 328.510799 
L 215.406759 327.778472 
L 217.457874 327.778472 
L 217.457874 326.313818 
L 218.564125 326.313818 
L 218.564125 324.849163 
L 219.034864 324.849163 
L 219.034864 324.116836 
L 219.222211 324.116836 
L 219.222211 323.384508 
L 220.195854 323.384508 
L 220.195854 321.919854 
L 220.957022 321.919854 
L 220.957022 321.187527 
L 223.570691 321.187527 
L 223.570691 320.455199 
L 224.134663 320.455199 
L 224.227298 318.258217 
L 224.45371 318.258217 
L 224.45371 317.52589 
L 225.071687 317.52589 
L 225.071687 316.793563 
L 225.586277 316.793563 
L 225.646443 315.328908 
L 225.878901 315.328908 
L 225.878901 314.596581 
L 226.115521 314.596581 
L 226.219891 313.131927 
L 226.304336 313.131927 
L 226.304336 312.399599 
L 226.918302 312.399599 
L 226.918302 310.202617 
L 227.43594 310.202617 
L 227.43594 308.737963 
L 227.947956 308.737963 
L 227.947956 307.273308 
L 228.145957 307.273308 
L 228.145957 306.540981 
L 228.306671 306.540981 
L 228.306671 305.076326 
L 228.595434 305.076326 
L 228.648072 302.147017 
L 228.718064 302.147017 
L 228.718064 301.41469 
L 229.110622 301.41469 
L 229.110622 300.682363 
L 229.591873 300.682363 
L 229.591873 299.950035 
L 229.731479 299.950035 
L 229.731479 299.217708 
L 229.870223 299.217708 
L 229.870223 298.485381 
L 230.019112 298.485381 
L 230.019112 297.020726 
L 230.400589 297.020726 
L 230.486882 295.556072 
L 231.357982 295.556072 
L 231.368336 292.626763 
L 231.481922 292.626763 
L 231.481922 291.894435 
L 231.940705 291.894435 
L 231.940705 291.162108 
L 232.121629 291.162108 
L 232.121629 290.429781 
L 232.729025 290.429781 
L 232.729025 288.965126 
L 232.947206 288.965126 
L 233.000219 286.768144 
L 233.215797 286.768144 
L 233.215797 286.035817 
L 233.518879 286.035817 
L 233.518879 285.30349 
L 233.794709 285.30349 
L 233.794709 284.571163 
L 234.327347 284.571163 
L 234.327347 283.838835 
L 235.589066 283.838835 
L 235.623361 281.641853 
L 236.064495 281.641853 
L 236.102266 278.712544 
L 236.19433 278.712544 
L 236.19433 277.24789 
L 236.795927 277.24789 
L 236.795927 276.515562 
L 237.29055 276.515562 
L 237.29055 275.783235 
L 237.762844 275.783235 
L 237.762844 275.050908 
L 238.1145 275.050908 
L 238.1145 274.318581 
L 240.433163 274.318581 
L 240.433163 271.389272 
L 240.571081 271.389272 
L 240.571081 270.656944 
L 280.554332 270.656944 
L 280.56865 268.459962 
L 281.191262 268.459962 
L 281.191262 267.727635 
L 294.861915 267.727635 
L 294.861915 266.995308 
L 303.32588 266.995308 
L 303.32588 266.262981 
L 309.442618 266.262981 
L 309.442618 265.530653 
L 314.23132 265.530653 
L 314.245575 264.065999 
L 318.188999 264.065999 
L 318.188999 263.333671 
L 321.5534 263.333671 
L 321.564302 261.13669 
L 358.488389 261.13669 
L 358.488389 260.404362 
L 416.908065 260.404362 
L 416.908065 260.404362 
" style="fill:none;stroke:#ff0000;stroke-linecap:square;stroke-width:1.5;"/>
   </g>
   <g id="line2d_21">
    <defs>
     <path d="M 0 -6 
L -5.196152 -3 
L -5.196152 3 
L -0 6 
L 5.196152 3 
L 5.196152 -3 
z
" id="m5321cf3be6" style="stroke:#ff0000;stroke-linejoin:miter;stroke-width:1.5;"/>
    </defs>
    <g>
     <use style="fill:none;stroke:#ff0000;stroke-linejoin:miter;stroke-width:1.5;" x="76.0077590757" xlink:href="#m5321cf3be6" y="357.071563342"/>
     <use style="fill:none;stroke:#ff0000;stroke-linejoin:miter;stroke-width:1.5;" x="195.129802129" xlink:href="#m5321cf3be6" y="340.22803589"/>
     <use style="fill:none;stroke:#ff0000;stroke-linejoin:miter;stroke-width:1.5;" x="240.571081384" xlink:href="#m5321cf3be6" y="271.389271525"/>
     <use style="fill:none;stroke:#ff0000;stroke-linejoin:miter;stroke-width:1.5;" x="358.488388915" xlink:href="#m5321cf3be6" y="261.136689598"/>
     <use style="fill:none;stroke:#ff0000;stroke-linejoin:miter;stroke-width:1.5;" x="358.488388915" xlink:href="#m5321cf3be6" y="260.404362317"/>
     <use style="fill:none;stroke:#ff0000;stroke-linejoin:miter;stroke-width:1.5;" x="416.908064516" xlink:href="#m5321cf3be6" y="260.404362317"/>
    </g>
   </g>
   <g id="line2d_22">
    <path d="M -15527.946774 758.386913 
" style="fill:none;stroke:#ff0000;stroke-linecap:square;stroke-width:1.5;"/>
    <g>
     <use style="fill:none;stroke:#ff0000;stroke-linejoin:miter;stroke-width:1.5;" x="-15527.9467742" xlink:href="#m5321cf3be6" y="758.386913048"/>
    </g>
   </g>
   <g id="line2d_23">
    <path clip-path="url(#p838f3a7745)" d="M 277.185736 270.656944 
" style="fill:none;stroke:#ff0000;stroke-linecap:square;"/>
    <defs>
     <path d="M -12 12 
L 12 -12 
M -12 -12 
L 12 12 
" id="m4249df7be1" style="stroke:#ff0000;stroke-width:3.0;"/>
    </defs>
    <g clip-path="url(#p838f3a7745)">
     <use style="fill:#ff0000;stroke:#ff0000;stroke-width:3.0;" x="277.185735966" xlink:href="#m4249df7be1" y="270.656944244"/>
    </g>
   </g>
   <g id="line2d_24">
    <path d="M 416.908065 384.9 
L 456.770202 377.430262 
" style="fill:none;stroke:#ffa500;stroke-linecap:square;stroke-width:1.5;"/>
    <g>
     <use style="fill:none;stroke:#ffa500;stroke-linejoin:bevel;stroke-width:1.5;" x="416.908064516" xlink:href="#mf58a35a600" y="384.9"/>
     <use style="fill:none;stroke:#ffa500;stroke-linejoin:bevel;stroke-width:1.5;" x="456.770201613" xlink:href="#mf58a35a600" y="377.430261739"/>
    </g>
   </g>
   <g id="line2d_25">
    <path d="M 416.908065 370.253454 
L 456.770202 287.793403 
" style="fill:none;stroke:#ff00ff;stroke-linecap:square;stroke-width:1.5;"/>
    <g>
     <use style="fill:none;stroke:#ff00ff;stroke-linejoin:miter;stroke-width:1.5;" x="416.908064516" xlink:href="#m21ea8b2287" y="370.25345439"/>
     <use style="fill:none;stroke:#ff00ff;stroke-linejoin:miter;stroke-width:1.5;" x="456.770201613" xlink:href="#m21ea8b2287" y="287.793402608"/>
    </g>
   </g>
   <g id="line2d_26">
    <path d="M 416.908065 355.606909 
L 456.770202 198.156543 
" style="fill:none;stroke:#6495ed;stroke-linecap:square;stroke-width:1.5;"/>
    <g>
     <use style="fill:none;stroke:#6495ed;stroke-linejoin:miter;stroke-width:1.5;" x="416.908064516" xlink:href="#mfc15c7eefa" y="355.606908781"/>
     <use style="fill:none;stroke:#6495ed;stroke-linejoin:miter;stroke-width:1.5;" x="456.770201613" xlink:href="#mfc15c7eefa" y="198.156543476"/>
    </g>
   </g>
   <g id="line2d_27">
    <path d="M 416.908065 326.313818 
L 456.770202 108.519684 
" style="fill:none;stroke:#000080;stroke-linecap:square;stroke-width:1.5;"/>
    <g>
     <use style="fill:none;stroke:#000080;stroke-width:1.5;" x="416.908064516" xlink:href="#m5daebc91fb" y="326.313817561"/>
     <use style="fill:none;stroke:#000080;stroke-width:1.5;" x="456.770201613" xlink:href="#m5daebc91fb" y="108.519684345"/>
    </g>
   </g>
   <g id="line2d_28">
    <path d="M 416.908065 260.404362 
L 456.770202 18.882825 
" style="fill:none;stroke:#ff0000;stroke-linecap:square;stroke-width:1.5;"/>
    <g>
     <use style="fill:none;stroke:#ff0000;stroke-linejoin:miter;stroke-width:1.5;" x="416.908064516" xlink:href="#m5321cf3be6" y="260.404362317"/>
     <use style="fill:none;stroke:#ff0000;stroke-linejoin:miter;stroke-width:1.5;" x="456.770201613" xlink:href="#m5321cf3be6" y="18.8828252132"/>
    </g>
   </g>
   <g id="line2d_29">
    <path d="M 416.908065 384.9 
L 416.908065 11.413087 
" style="fill:none;stroke:#000000;stroke-linecap:square;"/>
   </g>
   <g id="patch_3">
    <path d="M 54.525 7.678218 
L 503.88 7.678218 
" style="fill:none;stroke:#000000;stroke-linecap:square;stroke-linejoin:miter;"/>
   </g>
   <g id="patch_4">
    <path d="M 503.88 384.9 
L 503.88 7.678218 
" style="fill:none;stroke:#000000;stroke-linecap:square;stroke-linejoin:miter;"/>
   </g>
   <g id="patch_5">
    <path d="M 54.525 384.9 
L 503.88 384.9 
" style="fill:none;stroke:#000000;stroke-linecap:square;stroke-linejoin:miter;"/>
   </g>
   <g id="patch_6">
    <path d="M 54.525 384.9 
L 54.525 7.678218 
" style="fill:none;stroke:#000000;stroke-linecap:square;stroke-linejoin:miter;"/>
   </g>
   <g id="matplotlib.axis_1">
    <g id="xtick_1">
     <g id="line2d_30">
      <path clip-path="url(#p838f3a7745)" d="M 54.525 384.9 
L 54.525 7.678218 
" style="fill:none;stroke:#000000;stroke-dasharray:1.000000,3.000000;stroke-dashoffset:0.0;stroke-width:0.5;"/>
     </g>
     <g id="line2d_31">
      <defs>
       <path d="M 0 0 
L 0 -4 
" id="m9fc2374c48" style="stroke:#000000;stroke-width:0.5;"/>
      </defs>
      <g>
       <use style="stroke:#000000;stroke-width:0.5;" x="54.525" xlink:href="#m9fc2374c48" y="384.9"/>
      </g>
     </g>
     <g id="line2d_32">
      <defs>
       <path d="M 0 0 
L 0 4 
" id="m163fa590c2" style="stroke:#000000;stroke-width:0.5;"/>
      </defs>
      <g>
       <use style="stroke:#000000;stroke-width:0.5;" x="54.525" xlink:href="#m163fa590c2" y="7.67821782178"/>
      </g>
     </g>
     <g id="text_1">
      <!-- 0 -->
      <defs>
       <path d="M 31.78125 66.40625 
Q 24.171875 66.40625 20.328125 58.90625 
Q 16.5 51.421875 16.5 36.375 
Q 16.5 21.390625 20.328125 13.890625 
Q 24.171875 6.390625 31.78125 6.390625 
Q 39.453125 6.390625 43.28125 13.890625 
Q 47.125 21.390625 47.125 36.375 
Q 47.125 51.421875 43.28125 58.90625 
Q 39.453125 66.40625 31.78125 66.40625 
M 31.78125 74.21875 
Q 44.046875 74.21875 50.515625 64.515625 
Q 56.984375 54.828125 56.984375 36.375 
Q 56.984375 17.96875 50.515625 8.265625 
Q 44.046875 -1.421875 31.78125 -1.421875 
Q 19.53125 -1.421875 13.0625 8.265625 
Q 6.59375 17.96875 6.59375 36.375 
Q 6.59375 54.828125 13.0625 64.515625 
Q 19.53125 74.21875 31.78125 74.21875 
" id="BitstreamVeraSans-Roman-30"/>
      </defs>
      <g transform="translate(48.1625 404.096875)scale(0.2 -0.2)">
       <use xlink:href="#BitstreamVeraSans-Roman-30"/>
      </g>
     </g>
    </g>
    <g id="xtick_2">
     <g id="line2d_33">
      <path clip-path="url(#p838f3a7745)" d="M 106.294009 384.9 
L 106.294009 7.678218 
" style="fill:none;stroke:#000000;stroke-dasharray:1.000000,3.000000;stroke-dashoffset:0.0;stroke-width:0.5;"/>
     </g>
     <g id="line2d_34">
      <g>
       <use style="stroke:#000000;stroke-width:0.5;" x="106.294009217" xlink:href="#m9fc2374c48" y="384.9"/>
      </g>
     </g>
     <g id="line2d_35">
      <g>
       <use style="stroke:#000000;stroke-width:0.5;" x="106.294009217" xlink:href="#m163fa590c2" y="7.67821782178"/>
      </g>
     </g>
     <g id="text_2">
      <!-- 1 -->
      <defs>
       <path d="M 12.40625 8.296875 
L 28.515625 8.296875 
L 28.515625 63.921875 
L 10.984375 60.40625 
L 10.984375 69.390625 
L 28.421875 72.90625 
L 38.28125 72.90625 
L 38.28125 8.296875 
L 54.390625 8.296875 
L 54.390625 0 
L 12.40625 0 
z
" id="BitstreamVeraSans-Roman-31"/>
      </defs>
      <g transform="translate(99.9315092166 404.096875)scale(0.2 -0.2)">
       <use xlink:href="#BitstreamVeraSans-Roman-31"/>
      </g>
     </g>
    </g>
    <g id="xtick_3">
     <g id="line2d_36">
      <path clip-path="url(#p838f3a7745)" d="M 158.063018 384.9 
L 158.063018 7.678218 
" style="fill:none;stroke:#000000;stroke-dasharray:1.000000,3.000000;stroke-dashoffset:0.0;stroke-width:0.5;"/>
     </g>
     <g id="line2d_37">
      <g>
       <use style="stroke:#000000;stroke-width:0.5;" x="158.063018433" xlink:href="#m9fc2374c48" y="384.9"/>
      </g>
     </g>
     <g id="line2d_38">
      <g>
       <use style="stroke:#000000;stroke-width:0.5;" x="158.063018433" xlink:href="#m163fa590c2" y="7.67821782178"/>
      </g>
     </g>
     <g id="text_3">
      <!-- 2 -->
      <defs>
       <path d="M 19.1875 8.296875 
L 53.609375 8.296875 
L 53.609375 0 
L 7.328125 0 
L 7.328125 8.296875 
Q 12.9375 14.109375 22.625 23.890625 
Q 32.328125 33.6875 34.8125 36.53125 
Q 39.546875 41.84375 41.421875 45.53125 
Q 43.3125 49.21875 43.3125 52.78125 
Q 43.3125 58.59375 39.234375 62.25 
Q 35.15625 65.921875 28.609375 65.921875 
Q 23.96875 65.921875 18.8125 64.3125 
Q 13.671875 62.703125 7.8125 59.421875 
L 7.8125 69.390625 
Q 13.765625 71.78125 18.9375 73 
Q 24.125 74.21875 28.421875 74.21875 
Q 39.75 74.21875 46.484375 68.546875 
Q 53.21875 62.890625 53.21875 53.421875 
Q 53.21875 48.921875 51.53125 44.890625 
Q 49.859375 40.875 45.40625 35.40625 
Q 44.1875 33.984375 37.640625 27.21875 
Q 31.109375 20.453125 19.1875 8.296875 
" id="BitstreamVeraSans-Roman-32"/>
      </defs>
      <g transform="translate(151.700518433 404.096875)scale(0.2 -0.2)">
       <use xlink:href="#BitstreamVeraSans-Roman-32"/>
      </g>
     </g>
    </g>
    <g id="xtick_4">
     <g id="line2d_39">
      <path clip-path="url(#p838f3a7745)" d="M 209.832028 384.9 
L 209.832028 7.678218 
" style="fill:none;stroke:#000000;stroke-dasharray:1.000000,3.000000;stroke-dashoffset:0.0;stroke-width:0.5;"/>
     </g>
     <g id="line2d_40">
      <g>
       <use style="stroke:#000000;stroke-width:0.5;" x="209.83202765" xlink:href="#m9fc2374c48" y="384.9"/>
      </g>
     </g>
     <g id="line2d_41">
      <g>
       <use style="stroke:#000000;stroke-width:0.5;" x="209.83202765" xlink:href="#m163fa590c2" y="7.67821782178"/>
      </g>
     </g>
     <g id="text_4">
      <!-- 3 -->
      <defs>
       <path d="M 40.578125 39.3125 
Q 47.65625 37.796875 51.625 33 
Q 55.609375 28.21875 55.609375 21.1875 
Q 55.609375 10.40625 48.1875 4.484375 
Q 40.765625 -1.421875 27.09375 -1.421875 
Q 22.515625 -1.421875 17.65625 -0.515625 
Q 12.796875 0.390625 7.625 2.203125 
L 7.625 11.71875 
Q 11.71875 9.328125 16.59375 8.109375 
Q 21.484375 6.890625 26.8125 6.890625 
Q 36.078125 6.890625 40.9375 10.546875 
Q 45.796875 14.203125 45.796875 21.1875 
Q 45.796875 27.640625 41.28125 31.265625 
Q 36.765625 34.90625 28.71875 34.90625 
L 20.21875 34.90625 
L 20.21875 43.015625 
L 29.109375 43.015625 
Q 36.375 43.015625 40.234375 45.921875 
Q 44.09375 48.828125 44.09375 54.296875 
Q 44.09375 59.90625 40.109375 62.90625 
Q 36.140625 65.921875 28.71875 65.921875 
Q 24.65625 65.921875 20.015625 65.03125 
Q 15.375 64.15625 9.8125 62.3125 
L 9.8125 71.09375 
Q 15.4375 72.65625 20.34375 73.4375 
Q 25.25 74.21875 29.59375 74.21875 
Q 40.828125 74.21875 47.359375 69.109375 
Q 53.90625 64.015625 53.90625 55.328125 
Q 53.90625 49.265625 50.4375 45.09375 
Q 46.96875 40.921875 40.578125 39.3125 
" id="BitstreamVeraSans-Roman-33"/>
      </defs>
      <g transform="translate(203.46952765 404.096875)scale(0.2 -0.2)">
       <use xlink:href="#BitstreamVeraSans-Roman-33"/>
      </g>
     </g>
    </g>
    <g id="xtick_5">
     <g id="line2d_42">
      <path clip-path="url(#p838f3a7745)" d="M 261.601037 384.9 
L 261.601037 7.678218 
" style="fill:none;stroke:#000000;stroke-dasharray:1.000000,3.000000;stroke-dashoffset:0.0;stroke-width:0.5;"/>
     </g>
     <g id="line2d_43">
      <g>
       <use style="stroke:#000000;stroke-width:0.5;" x="261.601036866" xlink:href="#m9fc2374c48" y="384.9"/>
      </g>
     </g>
     <g id="line2d_44">
      <g>
       <use style="stroke:#000000;stroke-width:0.5;" x="261.601036866" xlink:href="#m163fa590c2" y="7.67821782178"/>
      </g>
     </g>
     <g id="text_5">
      <!-- 4 -->
      <defs>
       <path d="M 37.796875 64.3125 
L 12.890625 25.390625 
L 37.796875 25.390625 
z
M 35.203125 72.90625 
L 47.609375 72.90625 
L 47.609375 25.390625 
L 58.015625 25.390625 
L 58.015625 17.1875 
L 47.609375 17.1875 
L 47.609375 0 
L 37.796875 0 
L 37.796875 17.1875 
L 4.890625 17.1875 
L 4.890625 26.703125 
z
" id="BitstreamVeraSans-Roman-34"/>
      </defs>
      <g transform="translate(255.238536866 404.096875)scale(0.2 -0.2)">
       <use xlink:href="#BitstreamVeraSans-Roman-34"/>
      </g>
     </g>
    </g>
    <g id="xtick_6">
     <g id="line2d_45">
      <path clip-path="url(#p838f3a7745)" d="M 313.370046 384.9 
L 313.370046 7.678218 
" style="fill:none;stroke:#000000;stroke-dasharray:1.000000,3.000000;stroke-dashoffset:0.0;stroke-width:0.5;"/>
     </g>
     <g id="line2d_46">
      <g>
       <use style="stroke:#000000;stroke-width:0.5;" x="313.370046083" xlink:href="#m9fc2374c48" y="384.9"/>
      </g>
     </g>
     <g id="line2d_47">
      <g>
       <use style="stroke:#000000;stroke-width:0.5;" x="313.370046083" xlink:href="#m163fa590c2" y="7.67821782178"/>
      </g>
     </g>
     <g id="text_6">
      <!-- 5 -->
      <defs>
       <path d="M 10.796875 72.90625 
L 49.515625 72.90625 
L 49.515625 64.59375 
L 19.828125 64.59375 
L 19.828125 46.734375 
Q 21.96875 47.46875 24.109375 47.828125 
Q 26.265625 48.1875 28.421875 48.1875 
Q 40.625 48.1875 47.75 41.5 
Q 54.890625 34.8125 54.890625 23.390625 
Q 54.890625 11.625 47.5625 5.09375 
Q 40.234375 -1.421875 26.90625 -1.421875 
Q 22.3125 -1.421875 17.546875 -0.640625 
Q 12.796875 0.140625 7.71875 1.703125 
L 7.71875 11.625 
Q 12.109375 9.234375 16.796875 8.0625 
Q 21.484375 6.890625 26.703125 6.890625 
Q 35.15625 6.890625 40.078125 11.328125 
Q 45.015625 15.765625 45.015625 23.390625 
Q 45.015625 31 40.078125 35.4375 
Q 35.15625 39.890625 26.703125 39.890625 
Q 22.75 39.890625 18.8125 39.015625 
Q 14.890625 38.140625 10.796875 36.28125 
z
" id="BitstreamVeraSans-Roman-35"/>
      </defs>
      <g transform="translate(307.007546083 404.096875)scale(0.2 -0.2)">
       <use xlink:href="#BitstreamVeraSans-Roman-35"/>
      </g>
     </g>
    </g>
    <g id="xtick_7">
     <g id="line2d_48">
      <path clip-path="url(#p838f3a7745)" d="M 365.139055 384.9 
L 365.139055 7.678218 
" style="fill:none;stroke:#000000;stroke-dasharray:1.000000,3.000000;stroke-dashoffset:0.0;stroke-width:0.5;"/>
     </g>
     <g id="line2d_49">
      <g>
       <use style="stroke:#000000;stroke-width:0.5;" x="365.1390553" xlink:href="#m9fc2374c48" y="384.9"/>
      </g>
     </g>
     <g id="line2d_50">
      <g>
       <use style="stroke:#000000;stroke-width:0.5;" x="365.1390553" xlink:href="#m163fa590c2" y="7.67821782178"/>
      </g>
     </g>
     <g id="text_7">
      <!-- 6 -->
      <defs>
       <path d="M 33.015625 40.375 
Q 26.375 40.375 22.484375 35.828125 
Q 18.609375 31.296875 18.609375 23.390625 
Q 18.609375 15.53125 22.484375 10.953125 
Q 26.375 6.390625 33.015625 6.390625 
Q 39.65625 6.390625 43.53125 10.953125 
Q 47.40625 15.53125 47.40625 23.390625 
Q 47.40625 31.296875 43.53125 35.828125 
Q 39.65625 40.375 33.015625 40.375 
M 52.59375 71.296875 
L 52.59375 62.3125 
Q 48.875 64.0625 45.09375 64.984375 
Q 41.3125 65.921875 37.59375 65.921875 
Q 27.828125 65.921875 22.671875 59.328125 
Q 17.53125 52.734375 16.796875 39.40625 
Q 19.671875 43.65625 24.015625 45.921875 
Q 28.375 48.1875 33.59375 48.1875 
Q 44.578125 48.1875 50.953125 41.515625 
Q 57.328125 34.859375 57.328125 23.390625 
Q 57.328125 12.15625 50.6875 5.359375 
Q 44.046875 -1.421875 33.015625 -1.421875 
Q 20.359375 -1.421875 13.671875 8.265625 
Q 6.984375 17.96875 6.984375 36.375 
Q 6.984375 53.65625 15.1875 63.9375 
Q 23.390625 74.21875 37.203125 74.21875 
Q 40.921875 74.21875 44.703125 73.484375 
Q 48.484375 72.75 52.59375 71.296875 
" id="BitstreamVeraSans-Roman-36"/>
      </defs>
      <g transform="translate(358.7765553 404.096875)scale(0.2 -0.2)">
       <use xlink:href="#BitstreamVeraSans-Roman-36"/>
      </g>
     </g>
    </g>
    <g id="xtick_8">
     <g id="line2d_51">
      <path clip-path="url(#p838f3a7745)" d="M 416.908065 384.9 
L 416.908065 7.678218 
" style="fill:none;stroke:#000000;stroke-dasharray:1.000000,3.000000;stroke-dashoffset:0.0;stroke-width:0.5;"/>
     </g>
     <g id="line2d_52">
      <g>
       <use style="stroke:#000000;stroke-width:0.5;" x="416.908064516" xlink:href="#m9fc2374c48" y="384.9"/>
      </g>
     </g>
     <g id="line2d_53">
      <g>
       <use style="stroke:#000000;stroke-width:0.5;" x="416.908064516" xlink:href="#m163fa590c2" y="7.67821782178"/>
      </g>
     </g>
     <g id="text_8">
      <!-- 7 -->
      <defs>
       <path d="M 8.203125 72.90625 
L 55.078125 72.90625 
L 55.078125 68.703125 
L 28.609375 0 
L 18.3125 0 
L 43.21875 64.59375 
L 8.203125 64.59375 
z
" id="BitstreamVeraSans-Roman-37"/>
      </defs>
      <g transform="translate(410.545564516 404.096875)scale(0.2 -0.2)">
       <use xlink:href="#BitstreamVeraSans-Roman-37"/>
      </g>
     </g>
    </g>
    <g id="xtick_9">
     <g id="line2d_54">
      <path clip-path="url(#p838f3a7745)" d="M 468.677074 384.9 
L 468.677074 7.678218 
" style="fill:none;stroke:#000000;stroke-dasharray:1.000000,3.000000;stroke-dashoffset:0.0;stroke-width:0.5;"/>
     </g>
     <g id="line2d_55">
      <g>
       <use style="stroke:#000000;stroke-width:0.5;" x="468.677073733" xlink:href="#m9fc2374c48" y="384.9"/>
      </g>
     </g>
     <g id="line2d_56">
      <g>
       <use style="stroke:#000000;stroke-width:0.5;" x="468.677073733" xlink:href="#m163fa590c2" y="7.67821782178"/>
      </g>
     </g>
     <g id="text_9">
      <!-- 8 -->
      <defs>
       <path d="M 31.78125 34.625 
Q 24.75 34.625 20.71875 30.859375 
Q 16.703125 27.09375 16.703125 20.515625 
Q 16.703125 13.921875 20.71875 10.15625 
Q 24.75 6.390625 31.78125 6.390625 
Q 38.8125 6.390625 42.859375 10.171875 
Q 46.921875 13.96875 46.921875 20.515625 
Q 46.921875 27.09375 42.890625 30.859375 
Q 38.875 34.625 31.78125 34.625 
M 21.921875 38.8125 
Q 15.578125 40.375 12.03125 44.71875 
Q 8.5 49.078125 8.5 55.328125 
Q 8.5 64.0625 14.71875 69.140625 
Q 20.953125 74.21875 31.78125 74.21875 
Q 42.671875 74.21875 48.875 69.140625 
Q 55.078125 64.0625 55.078125 55.328125 
Q 55.078125 49.078125 51.53125 44.71875 
Q 48 40.375 41.703125 38.8125 
Q 48.828125 37.15625 52.796875 32.3125 
Q 56.78125 27.484375 56.78125 20.515625 
Q 56.78125 9.90625 50.3125 4.234375 
Q 43.84375 -1.421875 31.78125 -1.421875 
Q 19.734375 -1.421875 13.25 4.234375 
Q 6.78125 9.90625 6.78125 20.515625 
Q 6.78125 27.484375 10.78125 32.3125 
Q 14.796875 37.15625 21.921875 38.8125 
M 18.3125 54.390625 
Q 18.3125 48.734375 21.84375 45.5625 
Q 25.390625 42.390625 31.78125 42.390625 
Q 38.140625 42.390625 41.71875 45.5625 
Q 45.3125 48.734375 45.3125 54.390625 
Q 45.3125 60.0625 41.71875 63.234375 
Q 38.140625 66.40625 31.78125 66.40625 
Q 25.390625 66.40625 21.84375 63.234375 
Q 18.3125 60.0625 18.3125 54.390625 
" id="BitstreamVeraSans-Roman-38"/>
      </defs>
      <g transform="translate(462.314573733 404.096875)scale(0.2 -0.2)">
       <use xlink:href="#BitstreamVeraSans-Roman-38"/>
      </g>
     </g>
    </g>
    <g id="xtick_10">
     <g id="line2d_57">
      <defs>
       <path d="M 0 0 
L 0 -2 
" id="m5ef0736bfc" style="stroke:#000000;stroke-width:0.5;"/>
      </defs>
      <g>
       <use style="stroke:#000000;stroke-width:0.5;" x="70.10902462" xlink:href="#m5ef0736bfc" y="384.9"/>
      </g>
     </g>
     <g id="line2d_58">
      <defs>
       <path d="M 0 0 
L 0 2 
" id="m2b192780dd" style="stroke:#000000;stroke-width:0.5;"/>
      </defs>
      <g>
       <use style="stroke:#000000;stroke-width:0.5;" x="70.10902462" xlink:href="#m2b192780dd" y="7.67821782178"/>
      </g>
     </g>
    </g>
    <g id="xtick_11">
     <g id="line2d_59">
      <g>
       <use style="stroke:#000000;stroke-width:0.5;" x="85.69304924" xlink:href="#m5ef0736bfc" y="384.9"/>
      </g>
     </g>
     <g id="line2d_60">
      <g>
       <use style="stroke:#000000;stroke-width:0.5;" x="85.69304924" xlink:href="#m2b192780dd" y="7.67821782178"/>
      </g>
     </g>
    </g>
    <g id="xtick_12">
     <g id="line2d_61">
      <g>
       <use style="stroke:#000000;stroke-width:0.5;" x="94.809119253" xlink:href="#m5ef0736bfc" y="384.9"/>
      </g>
     </g>
     <g id="line2d_62">
      <g>
       <use style="stroke:#000000;stroke-width:0.5;" x="94.809119253" xlink:href="#m2b192780dd" y="7.67821782178"/>
      </g>
     </g>
    </g>
    <g id="xtick_13">
     <g id="line2d_63">
      <g>
       <use style="stroke:#000000;stroke-width:0.5;" x="101.27707386" xlink:href="#m5ef0736bfc" y="384.9"/>
      </g>
     </g>
     <g id="line2d_64">
      <g>
       <use style="stroke:#000000;stroke-width:0.5;" x="101.27707386" xlink:href="#m2b192780dd" y="7.67821782178"/>
      </g>
     </g>
    </g>
    <g id="xtick_14">
     <g id="line2d_65">
      <g>
       <use style="stroke:#000000;stroke-width:0.5;" x="121.878033837" xlink:href="#m5ef0736bfc" y="384.9"/>
      </g>
     </g>
     <g id="line2d_66">
      <g>
       <use style="stroke:#000000;stroke-width:0.5;" x="121.878033837" xlink:href="#m2b192780dd" y="7.67821782178"/>
      </g>
     </g>
    </g>
    <g id="xtick_15">
     <g id="line2d_67">
      <g>
       <use style="stroke:#000000;stroke-width:0.5;" x="137.462058457" xlink:href="#m5ef0736bfc" y="384.9"/>
      </g>
     </g>
     <g id="line2d_68">
      <g>
       <use style="stroke:#000000;stroke-width:0.5;" x="137.462058457" xlink:href="#m2b192780dd" y="7.67821782178"/>
      </g>
     </g>
    </g>
    <g id="xtick_16">
     <g id="line2d_69">
      <g>
       <use style="stroke:#000000;stroke-width:0.5;" x="146.57812847" xlink:href="#m5ef0736bfc" y="384.9"/>
      </g>
     </g>
     <g id="line2d_70">
      <g>
       <use style="stroke:#000000;stroke-width:0.5;" x="146.57812847" xlink:href="#m2b192780dd" y="7.67821782178"/>
      </g>
     </g>
    </g>
    <g id="xtick_17">
     <g id="line2d_71">
      <g>
       <use style="stroke:#000000;stroke-width:0.5;" x="153.046083077" xlink:href="#m5ef0736bfc" y="384.9"/>
      </g>
     </g>
     <g id="line2d_72">
      <g>
       <use style="stroke:#000000;stroke-width:0.5;" x="153.046083077" xlink:href="#m2b192780dd" y="7.67821782178"/>
      </g>
     </g>
    </g>
    <g id="xtick_18">
     <g id="line2d_73">
      <g>
       <use style="stroke:#000000;stroke-width:0.5;" x="173.647043053" xlink:href="#m5ef0736bfc" y="384.9"/>
      </g>
     </g>
     <g id="line2d_74">
      <g>
       <use style="stroke:#000000;stroke-width:0.5;" x="173.647043053" xlink:href="#m2b192780dd" y="7.67821782178"/>
      </g>
     </g>
    </g>
    <g id="xtick_19">
     <g id="line2d_75">
      <g>
       <use style="stroke:#000000;stroke-width:0.5;" x="189.231067673" xlink:href="#m5ef0736bfc" y="384.9"/>
      </g>
     </g>
     <g id="line2d_76">
      <g>
       <use style="stroke:#000000;stroke-width:0.5;" x="189.231067673" xlink:href="#m2b192780dd" y="7.67821782178"/>
      </g>
     </g>
    </g>
    <g id="xtick_20">
     <g id="line2d_77">
      <g>
       <use style="stroke:#000000;stroke-width:0.5;" x="198.347137686" xlink:href="#m5ef0736bfc" y="384.9"/>
      </g>
     </g>
     <g id="line2d_78">
      <g>
       <use style="stroke:#000000;stroke-width:0.5;" x="198.347137686" xlink:href="#m2b192780dd" y="7.67821782178"/>
      </g>
     </g>
    </g>
    <g id="xtick_21">
     <g id="line2d_79">
      <g>
       <use style="stroke:#000000;stroke-width:0.5;" x="204.815092293" xlink:href="#m5ef0736bfc" y="384.9"/>
      </g>
     </g>
     <g id="line2d_80">
      <g>
       <use style="stroke:#000000;stroke-width:0.5;" x="204.815092293" xlink:href="#m2b192780dd" y="7.67821782178"/>
      </g>
     </g>
    </g>
    <g id="xtick_22">
     <g id="line2d_81">
      <g>
       <use style="stroke:#000000;stroke-width:0.5;" x="225.41605227" xlink:href="#m5ef0736bfc" y="384.9"/>
      </g>
     </g>
     <g id="line2d_82">
      <g>
       <use style="stroke:#000000;stroke-width:0.5;" x="225.41605227" xlink:href="#m2b192780dd" y="7.67821782178"/>
      </g>
     </g>
    </g>
    <g id="xtick_23">
     <g id="line2d_83">
      <g>
       <use style="stroke:#000000;stroke-width:0.5;" x="241.00007689" xlink:href="#m5ef0736bfc" y="384.9"/>
      </g>
     </g>
     <g id="line2d_84">
      <g>
       <use style="stroke:#000000;stroke-width:0.5;" x="241.00007689" xlink:href="#m2b192780dd" y="7.67821782178"/>
      </g>
     </g>
    </g>
    <g id="xtick_24">
     <g id="line2d_85">
      <g>
       <use style="stroke:#000000;stroke-width:0.5;" x="250.116146903" xlink:href="#m5ef0736bfc" y="384.9"/>
      </g>
     </g>
     <g id="line2d_86">
      <g>
       <use style="stroke:#000000;stroke-width:0.5;" x="250.116146903" xlink:href="#m2b192780dd" y="7.67821782178"/>
      </g>
     </g>
    </g>
    <g id="xtick_25">
     <g id="line2d_87">
      <g>
       <use style="stroke:#000000;stroke-width:0.5;" x="256.58410151" xlink:href="#m5ef0736bfc" y="384.9"/>
      </g>
     </g>
     <g id="line2d_88">
      <g>
       <use style="stroke:#000000;stroke-width:0.5;" x="256.58410151" xlink:href="#m2b192780dd" y="7.67821782178"/>
      </g>
     </g>
    </g>
    <g id="xtick_26">
     <g id="line2d_89">
      <g>
       <use style="stroke:#000000;stroke-width:0.5;" x="277.185061486" xlink:href="#m5ef0736bfc" y="384.9"/>
      </g>
     </g>
     <g id="line2d_90">
      <g>
       <use style="stroke:#000000;stroke-width:0.5;" x="277.185061486" xlink:href="#m2b192780dd" y="7.67821782178"/>
      </g>
     </g>
    </g>
    <g id="xtick_27">
     <g id="line2d_91">
      <g>
       <use style="stroke:#000000;stroke-width:0.5;" x="292.769086106" xlink:href="#m5ef0736bfc" y="384.9"/>
      </g>
     </g>
     <g id="line2d_92">
      <g>
       <use style="stroke:#000000;stroke-width:0.5;" x="292.769086106" xlink:href="#m2b192780dd" y="7.67821782178"/>
      </g>
     </g>
    </g>
    <g id="xtick_28">
     <g id="line2d_93">
      <g>
       <use style="stroke:#000000;stroke-width:0.5;" x="301.885156119" xlink:href="#m5ef0736bfc" y="384.9"/>
      </g>
     </g>
     <g id="line2d_94">
      <g>
       <use style="stroke:#000000;stroke-width:0.5;" x="301.885156119" xlink:href="#m2b192780dd" y="7.67821782178"/>
      </g>
     </g>
    </g>
    <g id="xtick_29">
     <g id="line2d_95">
      <g>
       <use style="stroke:#000000;stroke-width:0.5;" x="308.353110726" xlink:href="#m5ef0736bfc" y="384.9"/>
      </g>
     </g>
     <g id="line2d_96">
      <g>
       <use style="stroke:#000000;stroke-width:0.5;" x="308.353110726" xlink:href="#m2b192780dd" y="7.67821782178"/>
      </g>
     </g>
    </g>
    <g id="xtick_30">
     <g id="line2d_97">
      <g>
       <use style="stroke:#000000;stroke-width:0.5;" x="328.954070703" xlink:href="#m5ef0736bfc" y="384.9"/>
      </g>
     </g>
     <g id="line2d_98">
      <g>
       <use style="stroke:#000000;stroke-width:0.5;" x="328.954070703" xlink:href="#m2b192780dd" y="7.67821782178"/>
      </g>
     </g>
    </g>
    <g id="xtick_31">
     <g id="line2d_99">
      <g>
       <use style="stroke:#000000;stroke-width:0.5;" x="344.538095323" xlink:href="#m5ef0736bfc" y="384.9"/>
      </g>
     </g>
     <g id="line2d_100">
      <g>
       <use style="stroke:#000000;stroke-width:0.5;" x="344.538095323" xlink:href="#m2b192780dd" y="7.67821782178"/>
      </g>
     </g>
    </g>
    <g id="xtick_32">
     <g id="line2d_101">
      <g>
       <use style="stroke:#000000;stroke-width:0.5;" x="353.654165336" xlink:href="#m5ef0736bfc" y="384.9"/>
      </g>
     </g>
     <g id="line2d_102">
      <g>
       <use style="stroke:#000000;stroke-width:0.5;" x="353.654165336" xlink:href="#m2b192780dd" y="7.67821782178"/>
      </g>
     </g>
    </g>
    <g id="xtick_33">
     <g id="line2d_103">
      <g>
       <use style="stroke:#000000;stroke-width:0.5;" x="360.122119943" xlink:href="#m5ef0736bfc" y="384.9"/>
      </g>
     </g>
     <g id="line2d_104">
      <g>
       <use style="stroke:#000000;stroke-width:0.5;" x="360.122119943" xlink:href="#m2b192780dd" y="7.67821782178"/>
      </g>
     </g>
    </g>
    <g id="xtick_34">
     <g id="line2d_105">
      <g>
       <use style="stroke:#000000;stroke-width:0.5;" x="380.72307992" xlink:href="#m5ef0736bfc" y="384.9"/>
      </g>
     </g>
     <g id="line2d_106">
      <g>
       <use style="stroke:#000000;stroke-width:0.5;" x="380.72307992" xlink:href="#m2b192780dd" y="7.67821782178"/>
      </g>
     </g>
    </g>
    <g id="xtick_35">
     <g id="line2d_107">
      <g>
       <use style="stroke:#000000;stroke-width:0.5;" x="396.30710454" xlink:href="#m5ef0736bfc" y="384.9"/>
      </g>
     </g>
     <g id="line2d_108">
      <g>
       <use style="stroke:#000000;stroke-width:0.5;" x="396.30710454" xlink:href="#m2b192780dd" y="7.67821782178"/>
      </g>
     </g>
    </g>
    <g id="xtick_36">
     <g id="line2d_109">
      <g>
       <use style="stroke:#000000;stroke-width:0.5;" x="405.423174553" xlink:href="#m5ef0736bfc" y="384.9"/>
      </g>
     </g>
     <g id="line2d_110">
      <g>
       <use style="stroke:#000000;stroke-width:0.5;" x="405.423174553" xlink:href="#m2b192780dd" y="7.67821782178"/>
      </g>
     </g>
    </g>
    <g id="xtick_37">
     <g id="line2d_111">
      <g>
       <use style="stroke:#000000;stroke-width:0.5;" x="411.89112916" xlink:href="#m5ef0736bfc" y="384.9"/>
      </g>
     </g>
     <g id="line2d_112">
      <g>
       <use style="stroke:#000000;stroke-width:0.5;" x="411.89112916" xlink:href="#m2b192780dd" y="7.67821782178"/>
      </g>
     </g>
    </g>
    <g id="xtick_38">
     <g id="line2d_113">
      <g>
       <use style="stroke:#000000;stroke-width:0.5;" x="432.492089136" xlink:href="#m5ef0736bfc" y="384.9"/>
      </g>
     </g>
     <g id="line2d_114">
      <g>
       <use style="stroke:#000000;stroke-width:0.5;" x="432.492089136" xlink:href="#m2b192780dd" y="7.67821782178"/>
      </g>
     </g>
    </g>
    <g id="xtick_39">
     <g id="line2d_115">
      <g>
       <use style="stroke:#000000;stroke-width:0.5;" x="448.076113756" xlink:href="#m5ef0736bfc" y="384.9"/>
      </g>
     </g>
     <g id="line2d_116">
      <g>
       <use style="stroke:#000000;stroke-width:0.5;" x="448.076113756" xlink:href="#m2b192780dd" y="7.67821782178"/>
      </g>
     </g>
    </g>
    <g id="xtick_40">
     <g id="line2d_117">
      <g>
       <use style="stroke:#000000;stroke-width:0.5;" x="457.192183769" xlink:href="#m5ef0736bfc" y="384.9"/>
      </g>
     </g>
     <g id="line2d_118">
      <g>
       <use style="stroke:#000000;stroke-width:0.5;" x="457.192183769" xlink:href="#m2b192780dd" y="7.67821782178"/>
      </g>
     </g>
    </g>
    <g id="xtick_41">
     <g id="line2d_119">
      <g>
       <use style="stroke:#000000;stroke-width:0.5;" x="463.660138376" xlink:href="#m5ef0736bfc" y="384.9"/>
      </g>
     </g>
     <g id="line2d_120">
      <g>
       <use style="stroke:#000000;stroke-width:0.5;" x="463.660138376" xlink:href="#m2b192780dd" y="7.67821782178"/>
      </g>
     </g>
    </g>
    <g id="xtick_42">
     <g id="line2d_121">
      <g>
       <use style="stroke:#000000;stroke-width:0.5;" x="484.261098353" xlink:href="#m5ef0736bfc" y="384.9"/>
      </g>
     </g>
     <g id="line2d_122">
      <g>
       <use style="stroke:#000000;stroke-width:0.5;" x="484.261098353" xlink:href="#m2b192780dd" y="7.67821782178"/>
      </g>
     </g>
    </g>
    <g id="xtick_43">
     <g id="line2d_123">
      <g>
       <use style="stroke:#000000;stroke-width:0.5;" x="499.845122973" xlink:href="#m5ef0736bfc" y="384.9"/>
      </g>
     </g>
     <g id="line2d_124">
      <g>
       <use style="stroke:#000000;stroke-width:0.5;" x="499.845122973" xlink:href="#m2b192780dd" y="7.67821782178"/>
      </g>
     </g>
    </g>
    <g id="text_10">
     <!-- log10(# f-evals / dimension) -->
     <defs>
      <path id="BitstreamVeraSans-Roman-20"/>
      <path d="M 51.125 44 
L 36.921875 44 
L 32.8125 27.6875 
L 47.125 27.6875 
z
M 43.796875 71.78125 
L 38.71875 51.515625 
L 52.984375 51.515625 
L 58.109375 71.78125 
L 65.921875 71.78125 
L 60.890625 51.515625 
L 76.125 51.515625 
L 76.125 44 
L 58.984375 44 
L 54.984375 27.6875 
L 70.515625 27.6875 
L 70.515625 20.21875 
L 53.078125 20.21875 
L 48 0 
L 40.1875 0 
L 45.21875 20.21875 
L 30.90625 20.21875 
L 25.875 0 
L 18.015625 0 
L 23.09375 20.21875 
L 7.71875 20.21875 
L 7.71875 27.6875 
L 24.90625 27.6875 
L 29 44 
L 13.28125 44 
L 13.28125 51.515625 
L 30.90625 51.515625 
L 35.890625 71.78125 
z
" id="BitstreamVeraSans-Roman-23"/>
      <path d="M 52 44.1875 
Q 55.375 50.25 60.0625 53.125 
Q 64.75 56 71.09375 56 
Q 79.640625 56 84.28125 50.015625 
Q 88.921875 44.046875 88.921875 33.015625 
L 88.921875 0 
L 79.890625 0 
L 79.890625 32.71875 
Q 79.890625 40.578125 77.09375 44.375 
Q 74.3125 48.1875 68.609375 48.1875 
Q 61.625 48.1875 57.5625 43.546875 
Q 53.515625 38.921875 53.515625 30.90625 
L 53.515625 0 
L 44.484375 0 
L 44.484375 32.71875 
Q 44.484375 40.625 41.703125 44.40625 
Q 38.921875 48.1875 33.109375 48.1875 
Q 26.21875 48.1875 22.15625 43.53125 
Q 18.109375 38.875 18.109375 30.90625 
L 18.109375 0 
L 9.078125 0 
L 9.078125 54.6875 
L 18.109375 54.6875 
L 18.109375 46.1875 
Q 21.1875 51.21875 25.484375 53.609375 
Q 29.78125 56 35.6875 56 
Q 41.65625 56 45.828125 52.96875 
Q 50 49.953125 52 44.1875 
" id="BitstreamVeraSans-Roman-6d"/>
      <path d="M 54.890625 33.015625 
L 54.890625 0 
L 45.90625 0 
L 45.90625 32.71875 
Q 45.90625 40.484375 42.875 44.328125 
Q 39.84375 48.1875 33.796875 48.1875 
Q 26.515625 48.1875 22.3125 43.546875 
Q 18.109375 38.921875 18.109375 30.90625 
L 18.109375 0 
L 9.078125 0 
L 9.078125 54.6875 
L 18.109375 54.6875 
L 18.109375 46.1875 
Q 21.34375 51.125 25.703125 53.5625 
Q 30.078125 56 35.796875 56 
Q 45.21875 56 50.046875 50.171875 
Q 54.890625 44.34375 54.890625 33.015625 
" id="BitstreamVeraSans-Roman-6e"/>
      <path d="M 31 75.875 
Q 24.46875 64.65625 21.28125 53.65625 
Q 18.109375 42.671875 18.109375 31.390625 
Q 18.109375 20.125 21.3125 9.0625 
Q 24.515625 -2 31 -13.1875 
L 23.1875 -13.1875 
Q 15.875 -1.703125 12.234375 9.375 
Q 8.59375 20.453125 8.59375 31.390625 
Q 8.59375 42.28125 12.203125 53.3125 
Q 15.828125 64.359375 23.1875 75.875 
z
" id="BitstreamVeraSans-Roman-28"/>
      <path d="M 30.609375 48.390625 
Q 23.390625 48.390625 19.1875 42.75 
Q 14.984375 37.109375 14.984375 27.296875 
Q 14.984375 17.484375 19.15625 11.84375 
Q 23.34375 6.203125 30.609375 6.203125 
Q 37.796875 6.203125 41.984375 11.859375 
Q 46.1875 17.53125 46.1875 27.296875 
Q 46.1875 37.015625 41.984375 42.703125 
Q 37.796875 48.390625 30.609375 48.390625 
M 30.609375 56 
Q 42.328125 56 49.015625 48.375 
Q 55.71875 40.765625 55.71875 27.296875 
Q 55.71875 13.875 49.015625 6.21875 
Q 42.328125 -1.421875 30.609375 -1.421875 
Q 18.84375 -1.421875 12.171875 6.21875 
Q 5.515625 13.875 5.515625 27.296875 
Q 5.515625 40.765625 12.171875 48.375 
Q 18.84375 56 30.609375 56 
" id="BitstreamVeraSans-Roman-6f"/>
      <path d="M 9.421875 75.984375 
L 18.40625 75.984375 
L 18.40625 0 
L 9.421875 0 
z
" id="BitstreamVeraSans-Roman-6c"/>
      <path d="M 2.984375 54.6875 
L 12.5 54.6875 
L 29.59375 8.796875 
L 46.6875 54.6875 
L 56.203125 54.6875 
L 35.6875 0 
L 23.484375 0 
z
" id="BitstreamVeraSans-Roman-76"/>
      <path d="M 9.421875 54.6875 
L 18.40625 54.6875 
L 18.40625 0 
L 9.421875 0 
z
M 9.421875 75.984375 
L 18.40625 75.984375 
L 18.40625 64.59375 
L 9.421875 64.59375 
z
" id="BitstreamVeraSans-Roman-69"/>
      <path d="M 4.890625 31.390625 
L 31.203125 31.390625 
L 31.203125 23.390625 
L 4.890625 23.390625 
z
" id="BitstreamVeraSans-Roman-2d"/>
      <path d="M 25.390625 72.90625 
L 33.6875 72.90625 
L 8.296875 -9.28125 
L 0 -9.28125 
z
" id="BitstreamVeraSans-Roman-2f"/>
      <path d="M 56.203125 29.59375 
L 56.203125 25.203125 
L 14.890625 25.203125 
Q 15.484375 15.921875 20.484375 11.0625 
Q 25.484375 6.203125 34.421875 6.203125 
Q 39.59375 6.203125 44.453125 7.46875 
Q 49.3125 8.734375 54.109375 11.28125 
L 54.109375 2.78125 
Q 49.265625 0.734375 44.1875 -0.34375 
Q 39.109375 -1.421875 33.890625 -1.421875 
Q 20.796875 -1.421875 13.15625 6.1875 
Q 5.515625 13.8125 5.515625 26.8125 
Q 5.515625 40.234375 12.765625 48.109375 
Q 20.015625 56 32.328125 56 
Q 43.359375 56 49.78125 48.890625 
Q 56.203125 41.796875 56.203125 29.59375 
M 47.21875 32.234375 
Q 47.125 39.59375 43.09375 43.984375 
Q 39.0625 48.390625 32.421875 48.390625 
Q 24.90625 48.390625 20.390625 44.140625 
Q 15.875 39.890625 15.1875 32.171875 
z
" id="BitstreamVeraSans-Roman-65"/>
      <path d="M 45.40625 46.390625 
L 45.40625 75.984375 
L 54.390625 75.984375 
L 54.390625 0 
L 45.40625 0 
L 45.40625 8.203125 
Q 42.578125 3.328125 38.25 0.953125 
Q 33.9375 -1.421875 27.875 -1.421875 
Q 17.96875 -1.421875 11.734375 6.484375 
Q 5.515625 14.40625 5.515625 27.296875 
Q 5.515625 40.1875 11.734375 48.09375 
Q 17.96875 56 27.875 56 
Q 33.9375 56 38.25 53.625 
Q 42.578125 51.265625 45.40625 46.390625 
M 14.796875 27.296875 
Q 14.796875 17.390625 18.875 11.75 
Q 22.953125 6.109375 30.078125 6.109375 
Q 37.203125 6.109375 41.296875 11.75 
Q 45.40625 17.390625 45.40625 27.296875 
Q 45.40625 37.203125 41.296875 42.84375 
Q 37.203125 48.484375 30.078125 48.484375 
Q 22.953125 48.484375 18.875 42.84375 
Q 14.796875 37.203125 14.796875 27.296875 
" id="BitstreamVeraSans-Roman-64"/>
      <path d="M 45.40625 27.984375 
Q 45.40625 37.75 41.375 43.109375 
Q 37.359375 48.484375 30.078125 48.484375 
Q 22.859375 48.484375 18.828125 43.109375 
Q 14.796875 37.75 14.796875 27.984375 
Q 14.796875 18.265625 18.828125 12.890625 
Q 22.859375 7.515625 30.078125 7.515625 
Q 37.359375 7.515625 41.375 12.890625 
Q 45.40625 18.265625 45.40625 27.984375 
M 54.390625 6.78125 
Q 54.390625 -7.171875 48.1875 -13.984375 
Q 42 -20.796875 29.203125 -20.796875 
Q 24.46875 -20.796875 20.265625 -20.09375 
Q 16.0625 -19.390625 12.109375 -17.921875 
L 12.109375 -9.1875 
Q 16.0625 -11.328125 19.921875 -12.34375 
Q 23.78125 -13.375 27.78125 -13.375 
Q 36.625 -13.375 41.015625 -8.765625 
Q 45.40625 -4.15625 45.40625 5.171875 
L 45.40625 9.625 
Q 42.625 4.78125 38.28125 2.390625 
Q 33.9375 0 27.875 0 
Q 17.828125 0 11.671875 7.65625 
Q 5.515625 15.328125 5.515625 27.984375 
Q 5.515625 40.671875 11.671875 48.328125 
Q 17.828125 56 27.875 56 
Q 33.9375 56 38.28125 53.609375 
Q 42.625 51.21875 45.40625 46.390625 
L 45.40625 54.6875 
L 54.390625 54.6875 
z
" id="BitstreamVeraSans-Roman-67"/>
      <path d="M 37.109375 75.984375 
L 37.109375 68.5 
L 28.515625 68.5 
Q 23.6875 68.5 21.796875 66.546875 
Q 19.921875 64.59375 19.921875 59.515625 
L 19.921875 54.6875 
L 34.71875 54.6875 
L 34.71875 47.703125 
L 19.921875 47.703125 
L 19.921875 0 
L 10.890625 0 
L 10.890625 47.703125 
L 2.296875 47.703125 
L 2.296875 54.6875 
L 10.890625 54.6875 
L 10.890625 58.5 
Q 10.890625 67.625 15.140625 71.796875 
Q 19.390625 75.984375 28.609375 75.984375 
z
" id="BitstreamVeraSans-Roman-66"/>
      <path d="M 34.28125 27.484375 
Q 23.390625 27.484375 19.1875 25 
Q 14.984375 22.515625 14.984375 16.5 
Q 14.984375 11.71875 18.140625 8.90625 
Q 21.296875 6.109375 26.703125 6.109375 
Q 34.1875 6.109375 38.703125 11.40625 
Q 43.21875 16.703125 43.21875 25.484375 
L 43.21875 27.484375 
z
M 52.203125 31.203125 
L 52.203125 0 
L 43.21875 0 
L 43.21875 8.296875 
Q 40.140625 3.328125 35.546875 0.953125 
Q 30.953125 -1.421875 24.3125 -1.421875 
Q 15.921875 -1.421875 10.953125 3.296875 
Q 6 8.015625 6 15.921875 
Q 6 25.140625 12.171875 29.828125 
Q 18.359375 34.515625 30.609375 34.515625 
L 43.21875 34.515625 
L 43.21875 35.40625 
Q 43.21875 41.609375 39.140625 45 
Q 35.0625 48.390625 27.6875 48.390625 
Q 23 48.390625 18.546875 47.265625 
Q 14.109375 46.140625 10.015625 43.890625 
L 10.015625 52.203125 
Q 14.9375 54.109375 19.578125 55.046875 
Q 24.21875 56 28.609375 56 
Q 40.484375 56 46.34375 49.84375 
Q 52.203125 43.703125 52.203125 31.203125 
" id="BitstreamVeraSans-Roman-61"/>
      <path d="M 44.28125 53.078125 
L 44.28125 44.578125 
Q 40.484375 46.53125 36.375 47.5 
Q 32.28125 48.484375 27.875 48.484375 
Q 21.1875 48.484375 17.84375 46.4375 
Q 14.5 44.390625 14.5 40.28125 
Q 14.5 37.15625 16.890625 35.375 
Q 19.28125 33.59375 26.515625 31.984375 
L 29.59375 31.296875 
Q 39.15625 29.25 43.1875 25.515625 
Q 47.21875 21.78125 47.21875 15.09375 
Q 47.21875 7.46875 41.1875 3.015625 
Q 35.15625 -1.421875 24.609375 -1.421875 
Q 20.21875 -1.421875 15.453125 -0.5625 
Q 10.6875 0.296875 5.421875 2 
L 5.421875 11.28125 
Q 10.40625 8.6875 15.234375 7.390625 
Q 20.0625 6.109375 24.8125 6.109375 
Q 31.15625 6.109375 34.5625 8.28125 
Q 37.984375 10.453125 37.984375 14.40625 
Q 37.984375 18.0625 35.515625 20.015625 
Q 33.0625 21.96875 24.703125 23.78125 
L 21.578125 24.515625 
Q 13.234375 26.265625 9.515625 29.90625 
Q 5.8125 33.546875 5.8125 39.890625 
Q 5.8125 47.609375 11.28125 51.796875 
Q 16.75 56 26.8125 56 
Q 31.78125 56 36.171875 55.265625 
Q 40.578125 54.546875 44.28125 53.078125 
" id="BitstreamVeraSans-Roman-73"/>
      <path d="M 8.015625 75.875 
L 15.828125 75.875 
Q 23.140625 64.359375 26.78125 53.3125 
Q 30.421875 42.28125 30.421875 31.390625 
Q 30.421875 20.453125 26.78125 9.375 
Q 23.140625 -1.703125 15.828125 -13.1875 
L 8.015625 -13.1875 
Q 14.5 -2 17.703125 9.0625 
Q 20.90625 20.125 20.90625 31.390625 
Q 20.90625 42.671875 17.703125 53.65625 
Q 14.5 64.65625 8.015625 75.875 
" id="BitstreamVeraSans-Roman-29"/>
     </defs>
     <g transform="translate(158.36171875 426.17359375)scale(0.17 -0.17)">
      <use xlink:href="#BitstreamVeraSans-Roman-6c"/>
      <use x="27.783203125" xlink:href="#BitstreamVeraSans-Roman-6f"/>
      <use x="88.96484375" xlink:href="#BitstreamVeraSans-Roman-67"/>
      <use x="152.44140625" xlink:href="#BitstreamVeraSans-Roman-31"/>
      <use x="216.064453125" xlink:href="#BitstreamVeraSans-Roman-30"/>
      <use x="279.6875" xlink:href="#BitstreamVeraSans-Roman-28"/>
      <use x="318.701171875" xlink:href="#BitstreamVeraSans-Roman-23"/>
      <use x="402.490234375" xlink:href="#BitstreamVeraSans-Roman-20"/>
      <use x="434.27734375" xlink:href="#BitstreamVeraSans-Roman-66"/>
      <use x="469.404296875" xlink:href="#BitstreamVeraSans-Roman-2d"/>
      <use x="505.48828125" xlink:href="#BitstreamVeraSans-Roman-65"/>
      <use x="567.01171875" xlink:href="#BitstreamVeraSans-Roman-76"/>
      <use x="626.19140625" xlink:href="#BitstreamVeraSans-Roman-61"/>
      <use x="687.470703125" xlink:href="#BitstreamVeraSans-Roman-6c"/>
      <use x="715.25390625" xlink:href="#BitstreamVeraSans-Roman-73"/>
      <use x="767.353515625" xlink:href="#BitstreamVeraSans-Roman-20"/>
      <use x="799.140625" xlink:href="#BitstreamVeraSans-Roman-2f"/>
      <use x="832.83203125" xlink:href="#BitstreamVeraSans-Roman-20"/>
      <use x="864.619140625" xlink:href="#BitstreamVeraSans-Roman-64"/>
      <use x="928.095703125" xlink:href="#BitstreamVeraSans-Roman-69"/>
      <use x="955.87890625" xlink:href="#BitstreamVeraSans-Roman-6d"/>
      <use x="1053.29101562" xlink:href="#BitstreamVeraSans-Roman-65"/>
      <use x="1114.81445312" xlink:href="#BitstreamVeraSans-Roman-6e"/>
      <use x="1178.19335938" xlink:href="#BitstreamVeraSans-Roman-73"/>
      <use x="1230.29296875" xlink:href="#BitstreamVeraSans-Roman-69"/>
      <use x="1258.07617188" xlink:href="#BitstreamVeraSans-Roman-6f"/>
      <use x="1319.2578125" xlink:href="#BitstreamVeraSans-Roman-6e"/>
      <use x="1382.63671875" xlink:href="#BitstreamVeraSans-Roman-29"/>
     </g>
    </g>
   </g>
   <g id="matplotlib.axis_2">
    <g id="ytick_1">
     <g id="line2d_125">
      <path clip-path="url(#p838f3a7745)" d="M 54.525 384.9 
L 503.88 384.9 
" style="fill:none;stroke:#000000;stroke-dasharray:1.000000,3.000000;stroke-dashoffset:0.0;stroke-width:0.5;"/>
     </g>
     <g id="line2d_126">
      <defs>
       <path d="M 0 0 
L 4 0 
" id="m738302941c" style="stroke:#000000;stroke-width:0.5;"/>
      </defs>
      <g>
       <use style="stroke:#000000;stroke-width:0.5;" x="54.525" xlink:href="#m738302941c" y="384.9"/>
      </g>
     </g>
     <g id="line2d_127">
      <defs>
       <path d="M 0 0 
L -4 0 
" id="m0c30846993" style="stroke:#000000;stroke-width:0.5;"/>
      </defs>
      <g>
       <use style="stroke:#000000;stroke-width:0.5;" x="503.88" xlink:href="#m0c30846993" y="384.9"/>
      </g>
     </g>
     <g id="text_11">
      <!-- 0.0 -->
      <defs>
       <path d="M 10.6875 12.40625 
L 21 12.40625 
L 21 0 
L 10.6875 0 
z
" id="BitstreamVeraSans-Roman-2e"/>
      </defs>
      <g transform="translate(25.08 389.315)scale(0.16 -0.16)">
       <use xlink:href="#BitstreamVeraSans-Roman-30"/>
       <use x="63.623046875" xlink:href="#BitstreamVeraSans-Roman-2e"/>
       <use x="95.41015625" xlink:href="#BitstreamVeraSans-Roman-30"/>
      </g>
     </g>
    </g>
    <g id="ytick_2">
     <g id="line2d_128">
      <path clip-path="url(#p838f3a7745)" d="M 54.525 310.202617 
L 503.88 310.202617 
" style="fill:none;stroke:#000000;stroke-dasharray:1.000000,3.000000;stroke-dashoffset:0.0;stroke-width:0.5;"/>
     </g>
     <g id="line2d_129">
      <g>
       <use style="stroke:#000000;stroke-width:0.5;" x="54.525" xlink:href="#m738302941c" y="310.20261739"/>
      </g>
     </g>
     <g id="line2d_130">
      <g>
       <use style="stroke:#000000;stroke-width:0.5;" x="503.88" xlink:href="#m0c30846993" y="310.20261739"/>
      </g>
     </g>
     <g id="text_12">
      <!-- 0.2 -->
      <g transform="translate(25.08 314.61761739)scale(0.16 -0.16)">
       <use xlink:href="#BitstreamVeraSans-Roman-30"/>
       <use x="63.623046875" xlink:href="#BitstreamVeraSans-Roman-2e"/>
       <use x="95.41015625" xlink:href="#BitstreamVeraSans-Roman-32"/>
      </g>
     </g>
    </g>
    <g id="ytick_3">
     <g id="line2d_131">
      <path clip-path="url(#p838f3a7745)" d="M 54.525 235.505235 
L 503.88 235.505235 
" style="fill:none;stroke:#000000;stroke-dasharray:1.000000,3.000000;stroke-dashoffset:0.0;stroke-width:0.5;"/>
     </g>
     <g id="line2d_132">
      <g>
       <use style="stroke:#000000;stroke-width:0.5;" x="54.525" xlink:href="#m738302941c" y="235.505234781"/>
      </g>
     </g>
     <g id="line2d_133">
      <g>
       <use style="stroke:#000000;stroke-width:0.5;" x="503.88" xlink:href="#m0c30846993" y="235.505234781"/>
      </g>
     </g>
     <g id="text_13">
      <!-- 0.4 -->
      <g transform="translate(25.08 239.920234781)scale(0.16 -0.16)">
       <use xlink:href="#BitstreamVeraSans-Roman-30"/>
       <use x="63.623046875" xlink:href="#BitstreamVeraSans-Roman-2e"/>
       <use x="95.41015625" xlink:href="#BitstreamVeraSans-Roman-34"/>
      </g>
     </g>
    </g>
    <g id="ytick_4">
     <g id="line2d_134">
      <path clip-path="url(#p838f3a7745)" d="M 54.525 160.807852 
L 503.88 160.807852 
" style="fill:none;stroke:#000000;stroke-dasharray:1.000000,3.000000;stroke-dashoffset:0.0;stroke-width:0.5;"/>
     </g>
     <g id="line2d_135">
      <g>
       <use style="stroke:#000000;stroke-width:0.5;" x="54.525" xlink:href="#m738302941c" y="160.807852171"/>
      </g>
     </g>
     <g id="line2d_136">
      <g>
       <use style="stroke:#000000;stroke-width:0.5;" x="503.88" xlink:href="#m0c30846993" y="160.807852171"/>
      </g>
     </g>
     <g id="text_14">
      <!-- 0.6 -->
      <g transform="translate(25.08 165.222852171)scale(0.16 -0.16)">
       <use xlink:href="#BitstreamVeraSans-Roman-30"/>
       <use x="63.623046875" xlink:href="#BitstreamVeraSans-Roman-2e"/>
       <use x="95.41015625" xlink:href="#BitstreamVeraSans-Roman-36"/>
      </g>
     </g>
    </g>
    <g id="ytick_5">
     <g id="line2d_137">
      <path clip-path="url(#p838f3a7745)" d="M 54.525 86.11047 
L 503.88 86.11047 
" style="fill:none;stroke:#000000;stroke-dasharray:1.000000,3.000000;stroke-dashoffset:0.0;stroke-width:0.5;"/>
     </g>
     <g id="line2d_138">
      <g>
       <use style="stroke:#000000;stroke-width:0.5;" x="54.525" xlink:href="#m738302941c" y="86.1104695618"/>
      </g>
     </g>
     <g id="line2d_139">
      <g>
       <use style="stroke:#000000;stroke-width:0.5;" x="503.88" xlink:href="#m0c30846993" y="86.1104695618"/>
      </g>
     </g>
     <g id="text_15">
      <!-- 0.8 -->
      <g transform="translate(25.08 90.5254695618)scale(0.16 -0.16)">
       <use xlink:href="#BitstreamVeraSans-Roman-30"/>
       <use x="63.623046875" xlink:href="#BitstreamVeraSans-Roman-2e"/>
       <use x="95.41015625" xlink:href="#BitstreamVeraSans-Roman-38"/>
      </g>
     </g>
    </g>
    <g id="ytick_6">
     <g id="line2d_140">
      <path clip-path="url(#p838f3a7745)" d="M 54.525 11.413087 
L 503.88 11.413087 
" style="fill:none;stroke:#000000;stroke-dasharray:1.000000,3.000000;stroke-dashoffset:0.0;stroke-width:0.5;"/>
     </g>
     <g id="line2d_141">
      <g>
       <use style="stroke:#000000;stroke-width:0.5;" x="54.525" xlink:href="#m738302941c" y="11.4130869523"/>
      </g>
     </g>
     <g id="line2d_142">
      <g>
       <use style="stroke:#000000;stroke-width:0.5;" x="503.88" xlink:href="#m0c30846993" y="11.4130869523"/>
      </g>
     </g>
     <g id="text_16">
      <!-- 1.0 -->
      <g transform="translate(25.08 15.8280869523)scale(0.16 -0.16)">
       <use xlink:href="#BitstreamVeraSans-Roman-31"/>
       <use x="63.623046875" xlink:href="#BitstreamVeraSans-Roman-2e"/>
       <use x="95.41015625" xlink:href="#BitstreamVeraSans-Roman-30"/>
      </g>
     </g>
    </g>
    <g id="text_17">
     <!-- Fraction of function,target pairs -->
     <defs>
      <path d="M 9.8125 72.90625 
L 51.703125 72.90625 
L 51.703125 64.59375 
L 19.671875 64.59375 
L 19.671875 43.109375 
L 48.578125 43.109375 
L 48.578125 34.8125 
L 19.671875 34.8125 
L 19.671875 0 
L 9.8125 0 
z
" id="BitstreamVeraSans-Roman-46"/>
      <path d="M 11.71875 12.40625 
L 22.015625 12.40625 
L 22.015625 4 
L 14.015625 -11.625 
L 7.71875 -11.625 
L 11.71875 4 
z
" id="BitstreamVeraSans-Roman-2c"/>
      <path d="M 18.109375 8.203125 
L 18.109375 -20.796875 
L 9.078125 -20.796875 
L 9.078125 54.6875 
L 18.109375 54.6875 
L 18.109375 46.390625 
Q 20.953125 51.265625 25.265625 53.625 
Q 29.59375 56 35.59375 56 
Q 45.5625 56 51.78125 48.09375 
Q 58.015625 40.1875 58.015625 27.296875 
Q 58.015625 14.40625 51.78125 6.484375 
Q 45.5625 -1.421875 35.59375 -1.421875 
Q 29.59375 -1.421875 25.265625 0.953125 
Q 20.953125 3.328125 18.109375 8.203125 
M 48.6875 27.296875 
Q 48.6875 37.203125 44.609375 42.84375 
Q 40.53125 48.484375 33.40625 48.484375 
Q 26.265625 48.484375 22.1875 42.84375 
Q 18.109375 37.203125 18.109375 27.296875 
Q 18.109375 17.390625 22.1875 11.75 
Q 26.265625 6.109375 33.40625 6.109375 
Q 40.53125 6.109375 44.609375 11.75 
Q 48.6875 17.390625 48.6875 27.296875 
" id="BitstreamVeraSans-Roman-70"/>
      <path d="M 18.3125 70.21875 
L 18.3125 54.6875 
L 36.8125 54.6875 
L 36.8125 47.703125 
L 18.3125 47.703125 
L 18.3125 18.015625 
Q 18.3125 11.328125 20.140625 9.421875 
Q 21.96875 7.515625 27.59375 7.515625 
L 36.8125 7.515625 
L 36.8125 0 
L 27.59375 0 
Q 17.1875 0 13.234375 3.875 
Q 9.28125 7.765625 9.28125 18.015625 
L 9.28125 47.703125 
L 2.6875 47.703125 
L 2.6875 54.6875 
L 9.28125 54.6875 
L 9.28125 70.21875 
z
" id="BitstreamVeraSans-Roman-74"/>
      <path d="M 8.5 21.578125 
L 8.5 54.6875 
L 17.484375 54.6875 
L 17.484375 21.921875 
Q 17.484375 14.15625 20.5 10.265625 
Q 23.53125 6.390625 29.59375 6.390625 
Q 36.859375 6.390625 41.078125 11.03125 
Q 45.3125 15.671875 45.3125 23.6875 
L 45.3125 54.6875 
L 54.296875 54.6875 
L 54.296875 0 
L 45.3125 0 
L 45.3125 8.40625 
Q 42.046875 3.421875 37.71875 1 
Q 33.40625 -1.421875 27.6875 -1.421875 
Q 18.265625 -1.421875 13.375 4.4375 
Q 8.5 10.296875 8.5 21.578125 
" id="BitstreamVeraSans-Roman-75"/>
      <path d="M 41.109375 46.296875 
Q 39.59375 47.171875 37.8125 47.578125 
Q 36.03125 48 33.890625 48 
Q 26.265625 48 22.1875 43.046875 
Q 18.109375 38.09375 18.109375 28.8125 
L 18.109375 0 
L 9.078125 0 
L 9.078125 54.6875 
L 18.109375 54.6875 
L 18.109375 46.1875 
Q 20.953125 51.171875 25.484375 53.578125 
Q 30.03125 56 36.53125 56 
Q 37.453125 56 38.578125 55.875 
Q 39.703125 55.765625 41.0625 55.515625 
z
" id="BitstreamVeraSans-Roman-72"/>
      <path d="M 48.78125 52.59375 
L 48.78125 44.1875 
Q 44.96875 46.296875 41.140625 47.34375 
Q 37.3125 48.390625 33.40625 48.390625 
Q 24.65625 48.390625 19.8125 42.84375 
Q 14.984375 37.3125 14.984375 27.296875 
Q 14.984375 17.28125 19.8125 11.734375 
Q 24.65625 6.203125 33.40625 6.203125 
Q 37.3125 6.203125 41.140625 7.25 
Q 44.96875 8.296875 48.78125 10.40625 
L 48.78125 2.09375 
Q 45.015625 0.34375 40.984375 -0.53125 
Q 36.96875 -1.421875 32.421875 -1.421875 
Q 20.0625 -1.421875 12.78125 6.34375 
Q 5.515625 14.109375 5.515625 27.296875 
Q 5.515625 40.671875 12.859375 48.328125 
Q 20.21875 56 33.015625 56 
Q 37.15625 56 41.109375 55.140625 
Q 45.0625 54.296875 48.78125 52.59375 
" id="BitstreamVeraSans-Roman-63"/>
     </defs>
     <g transform="translate(16.54453125 331.428483911)rotate(-90.0)scale(0.17 -0.17)">
      <use xlink:href="#BitstreamVeraSans-Roman-46"/>
      <use x="57.41015625" xlink:href="#BitstreamVeraSans-Roman-72"/>
      <use x="98.5234375" xlink:href="#BitstreamVeraSans-Roman-61"/>
      <use x="159.802734375" xlink:href="#BitstreamVeraSans-Roman-63"/>
      <use x="214.783203125" xlink:href="#BitstreamVeraSans-Roman-74"/>
      <use x="253.9921875" xlink:href="#BitstreamVeraSans-Roman-69"/>
      <use x="281.775390625" xlink:href="#BitstreamVeraSans-Roman-6f"/>
      <use x="342.95703125" xlink:href="#BitstreamVeraSans-Roman-6e"/>
      <use x="406.3359375" xlink:href="#BitstreamVeraSans-Roman-20"/>
      <use x="438.123046875" xlink:href="#BitstreamVeraSans-Roman-6f"/>
      <use x="499.3046875" xlink:href="#BitstreamVeraSans-Roman-66"/>
      <use x="534.509765625" xlink:href="#BitstreamVeraSans-Roman-20"/>
      <use x="566.296875" xlink:href="#BitstreamVeraSans-Roman-66"/>
      <use x="601.501953125" xlink:href="#BitstreamVeraSans-Roman-75"/>
      <use x="664.880859375" xlink:href="#BitstreamVeraSans-Roman-6e"/>
      <use x="728.259765625" xlink:href="#BitstreamVeraSans-Roman-63"/>
      <use x="783.240234375" xlink:href="#BitstreamVeraSans-Roman-74"/>
      <use x="822.44921875" xlink:href="#BitstreamVeraSans-Roman-69"/>
      <use x="850.232421875" xlink:href="#BitstreamVeraSans-Roman-6f"/>
      <use x="911.4140625" xlink:href="#BitstreamVeraSans-Roman-6e"/>
      <use x="974.79296875" xlink:href="#BitstreamVeraSans-Roman-2c"/>
      <use x="1006.58007812" xlink:href="#BitstreamVeraSans-Roman-74"/>
      <use x="1045.7890625" xlink:href="#BitstreamVeraSans-Roman-61"/>
      <use x="1107.06835938" xlink:href="#BitstreamVeraSans-Roman-72"/>
      <use x="1148.16601562" xlink:href="#BitstreamVeraSans-Roman-67"/>
      <use x="1211.64257812" xlink:href="#BitstreamVeraSans-Roman-65"/>
      <use x="1273.16601562" xlink:href="#BitstreamVeraSans-Roman-74"/>
      <use x="1312.375" xlink:href="#BitstreamVeraSans-Roman-20"/>
      <use x="1344.16210938" xlink:href="#BitstreamVeraSans-Roman-70"/>
      <use x="1407.63867188" xlink:href="#BitstreamVeraSans-Roman-61"/>
      <use x="1468.91796875" xlink:href="#BitstreamVeraSans-Roman-69"/>
      <use x="1496.70117188" xlink:href="#BitstreamVeraSans-Roman-72"/>
      <use x="1537.81445312" xlink:href="#BitstreamVeraSans-Roman-73"/>
     </g>
    </g>
   </g>
   <g id="text_18">
    <!-- f10 -->
    <g transform="translate(464.017862903 382.121199239)scale(0.17 -0.17)">
     <use xlink:href="#BitstreamVeraSans-Roman-66"/>
     <use x="35.205078125" xlink:href="#BitstreamVeraSans-Roman-31"/>
     <use x="98.828125" xlink:href="#BitstreamVeraSans-Roman-30"/>
    </g>
   </g>
   <g id="text_19">
    <!-- f13 -->
    <g transform="translate(464.017862903 292.484340108)scale(0.17 -0.17)">
     <use xlink:href="#BitstreamVeraSans-Roman-66"/>
     <use x="35.205078125" xlink:href="#BitstreamVeraSans-Roman-31"/>
     <use x="98.828125" xlink:href="#BitstreamVeraSans-Roman-33"/>
    </g>
   </g>
   <g id="text_20">
    <!-- f11 -->
    <g transform="translate(464.017862903 202.847480976)scale(0.17 -0.17)">
     <use xlink:href="#BitstreamVeraSans-Roman-66"/>
     <use x="35.205078125" xlink:href="#BitstreamVeraSans-Roman-31"/>
     <use x="98.828125" xlink:href="#BitstreamVeraSans-Roman-31"/>
    </g>
   </g>
   <g id="text_21">
    <!-- f12 -->
    <g transform="translate(464.017862903 113.210621845)scale(0.17 -0.17)">
     <use xlink:href="#BitstreamVeraSans-Roman-66"/>
     <use x="35.205078125" xlink:href="#BitstreamVeraSans-Roman-31"/>
     <use x="98.828125" xlink:href="#BitstreamVeraSans-Roman-32"/>
    </g>
   </g>
   <g id="text_22">
    <!-- f14 -->
    <g transform="translate(464.017862903 23.5737627132)scale(0.17 -0.17)">
     <use xlink:href="#BitstreamVeraSans-Roman-66"/>
     <use x="35.205078125" xlink:href="#BitstreamVeraSans-Roman-31"/>
     <use x="98.828125" xlink:href="#BitstreamVeraSans-Roman-34"/>
    </g>
   </g>
   <g id="text_23">
    <!-- bbob -->
    <defs>
     <path d="M 48.6875 27.296875 
Q 48.6875 37.203125 44.609375 42.84375 
Q 40.53125 48.484375 33.40625 48.484375 
Q 26.265625 48.484375 22.1875 42.84375 
Q 18.109375 37.203125 18.109375 27.296875 
Q 18.109375 17.390625 22.1875 11.75 
Q 26.265625 6.109375 33.40625 6.109375 
Q 40.53125 6.109375 44.609375 11.75 
Q 48.6875 17.390625 48.6875 27.296875 
M 18.109375 46.390625 
Q 20.953125 51.265625 25.265625 53.625 
Q 29.59375 56 35.59375 56 
Q 45.5625 56 51.78125 48.09375 
Q 58.015625 40.1875 58.015625 27.296875 
Q 58.015625 14.40625 51.78125 6.484375 
Q 45.5625 -1.421875 35.59375 -1.421875 
Q 29.59375 -1.421875 25.265625 0.953125 
Q 20.953125 3.328125 18.109375 8.203125 
L 18.109375 0 
L 9.078125 0 
L 9.078125 75.984375 
L 18.109375 75.984375 
z
" id="BitstreamVeraSans-Roman-62"/>
    </defs>
    <g transform="translate(59.01855 19.2008418936)scale(0.102 -0.102)">
     <use xlink:href="#BitstreamVeraSans-Roman-62"/>
     <use x="63.4765625" xlink:href="#BitstreamVeraSans-Roman-62"/>
     <use x="126.953125" xlink:href="#BitstreamVeraSans-Roman-6f"/>
     <use x="188.134765625" xlink:href="#BitstreamVeraSans-Roman-62"/>
    </g>
    <!-- Ill-conditioned functions, 10-D -->
    <defs>
     <path d="M 19.671875 64.796875 
L 19.671875 8.109375 
L 31.59375 8.109375 
Q 46.6875 8.109375 53.6875 14.9375 
Q 60.6875 21.78125 60.6875 36.53125 
Q 60.6875 51.171875 53.6875 57.984375 
Q 46.6875 64.796875 31.59375 64.796875 
z
M 9.8125 72.90625 
L 30.078125 72.90625 
Q 51.265625 72.90625 61.171875 64.09375 
Q 71.09375 55.28125 71.09375 36.53125 
Q 71.09375 17.671875 61.125 8.828125 
Q 51.171875 0 30.078125 0 
L 9.8125 0 
z
" id="BitstreamVeraSans-Roman-44"/>
     <path d="M 9.8125 72.90625 
L 19.671875 72.90625 
L 19.671875 0 
L 9.8125 0 
z
" id="BitstreamVeraSans-Roman-49"/>
    </defs>
    <g transform="translate(59.01855 30.6226106436)scale(0.102 -0.102)">
     <use xlink:href="#BitstreamVeraSans-Roman-49"/>
     <use x="29.4921875" xlink:href="#BitstreamVeraSans-Roman-6c"/>
     <use x="57.275390625" xlink:href="#BitstreamVeraSans-Roman-6c"/>
     <use x="85.05859375" xlink:href="#BitstreamVeraSans-Roman-2d"/>
     <use x="121.142578125" xlink:href="#BitstreamVeraSans-Roman-63"/>
     <use x="176.123046875" xlink:href="#BitstreamVeraSans-Roman-6f"/>
     <use x="237.3046875" xlink:href="#BitstreamVeraSans-Roman-6e"/>
     <use x="300.68359375" xlink:href="#BitstreamVeraSans-Roman-64"/>
     <use x="364.16015625" xlink:href="#BitstreamVeraSans-Roman-69"/>
     <use x="391.943359375" xlink:href="#BitstreamVeraSans-Roman-74"/>
     <use x="431.15234375" xlink:href="#BitstreamVeraSans-Roman-69"/>
     <use x="458.935546875" xlink:href="#BitstreamVeraSans-Roman-6f"/>
     <use x="520.1171875" xlink:href="#BitstreamVeraSans-Roman-6e"/>
     <use x="583.49609375" xlink:href="#BitstreamVeraSans-Roman-65"/>
     <use x="645.01953125" xlink:href="#BitstreamVeraSans-Roman-64"/>
     <use x="708.49609375" xlink:href="#BitstreamVeraSans-Roman-20"/>
     <use x="740.283203125" xlink:href="#BitstreamVeraSans-Roman-66"/>
     <use x="775.48828125" xlink:href="#BitstreamVeraSans-Roman-75"/>
     <use x="838.8671875" xlink:href="#BitstreamVeraSans-Roman-6e"/>
     <use x="902.24609375" xlink:href="#BitstreamVeraSans-Roman-63"/>
     <use x="957.2265625" xlink:href="#BitstreamVeraSans-Roman-74"/>
     <use x="996.435546875" xlink:href="#BitstreamVeraSans-Roman-69"/>
     <use x="1024.21875" xlink:href="#BitstreamVeraSans-Roman-6f"/>
     <use x="1085.40039062" xlink:href="#BitstreamVeraSans-Roman-6e"/>
     <use x="1148.77929688" xlink:href="#BitstreamVeraSans-Roman-73"/>
     <use x="1200.87890625" xlink:href="#BitstreamVeraSans-Roman-2c"/>
     <use x="1232.66601562" xlink:href="#BitstreamVeraSans-Roman-20"/>
     <use x="1264.453125" xlink:href="#BitstreamVeraSans-Roman-31"/>
     <use x="1328.07617188" xlink:href="#BitstreamVeraSans-Roman-30"/>
     <use x="1391.69921875" xlink:href="#BitstreamVeraSans-Roman-2d"/>
     <use x="1427.78320312" xlink:href="#BitstreamVeraSans-Roman-44"/>
    </g>
    <!-- 51 targets: 100..1e-08 -->
    <defs>
     <path d="M 11.71875 12.40625 
L 22.015625 12.40625 
L 22.015625 0 
L 11.71875 0 
z
M 11.71875 51.703125 
L 22.015625 51.703125 
L 22.015625 39.3125 
L 11.71875 39.3125 
z
" id="BitstreamVeraSans-Roman-3a"/>
    </defs>
    <g transform="translate(59.01855 42.0443793936)scale(0.102 -0.102)">
     <use xlink:href="#BitstreamVeraSans-Roman-35"/>
     <use x="63.623046875" xlink:href="#BitstreamVeraSans-Roman-31"/>
     <use x="127.24609375" xlink:href="#BitstreamVeraSans-Roman-20"/>
     <use x="159.033203125" xlink:href="#BitstreamVeraSans-Roman-74"/>
     <use x="198.2421875" xlink:href="#BitstreamVeraSans-Roman-61"/>
     <use x="259.521484375" xlink:href="#BitstreamVeraSans-Roman-72"/>
     <use x="300.619140625" xlink:href="#BitstreamVeraSans-Roman-67"/>
     <use x="364.095703125" xlink:href="#BitstreamVeraSans-Roman-65"/>
     <use x="425.619140625" xlink:href="#BitstreamVeraSans-Roman-74"/>
     <use x="464.828125" xlink:href="#BitstreamVeraSans-Roman-73"/>
     <use x="516.927734375" xlink:href="#BitstreamVeraSans-Roman-3a"/>
     <use x="550.619140625" xlink:href="#BitstreamVeraSans-Roman-20"/>
     <use x="582.40625" xlink:href="#BitstreamVeraSans-Roman-31"/>
     <use x="646.029296875" xlink:href="#BitstreamVeraSans-Roman-30"/>
     <use x="709.65234375" xlink:href="#BitstreamVeraSans-Roman-30"/>
     <use x="773.275390625" xlink:href="#BitstreamVeraSans-Roman-2e"/>
     <use x="805.0625" xlink:href="#BitstreamVeraSans-Roman-2e"/>
     <use x="836.849609375" xlink:href="#BitstreamVeraSans-Roman-31"/>
     <use x="900.47265625" xlink:href="#BitstreamVeraSans-Roman-65"/>
     <use x="961.99609375" xlink:href="#BitstreamVeraSans-Roman-2d"/>
     <use x="998.080078125" xlink:href="#BitstreamVeraSans-Roman-30"/>
     <use x="1061.703125" xlink:href="#BitstreamVeraSans-Roman-38"/>
    </g>
    <!-- 15 instances -->
    <g transform="translate(59.01855 53.4661481436)scale(0.102 -0.102)">
     <use xlink:href="#BitstreamVeraSans-Roman-31"/>
     <use x="63.623046875" xlink:href="#BitstreamVeraSans-Roman-35"/>
     <use x="127.24609375" xlink:href="#BitstreamVeraSans-Roman-20"/>
     <use x="159.033203125" xlink:href="#BitstreamVeraSans-Roman-69"/>
     <use x="186.81640625" xlink:href="#BitstreamVeraSans-Roman-6e"/>
     <use x="250.1953125" xlink:href="#BitstreamVeraSans-Roman-73"/>
     <use x="302.294921875" xlink:href="#BitstreamVeraSans-Roman-74"/>
     <use x="341.50390625" xlink:href="#BitstreamVeraSans-Roman-61"/>
     <use x="402.783203125" xlink:href="#BitstreamVeraSans-Roman-6e"/>
     <use x="466.162109375" xlink:href="#BitstreamVeraSans-Roman-63"/>
     <use x="521.142578125" xlink:href="#BitstreamVeraSans-Roman-65"/>
     <use x="582.666015625" xlink:href="#BitstreamVeraSans-Roman-73"/>
    </g>
   </g>
   <g id="text_24">
    <!-- v2.2.1.10 -->
    <g style="fill:#808080;" transform="translate(255.5696875 379.048094678)scale(0.1 -0.1)">
     <use xlink:href="#BitstreamVeraSans-Roman-76"/>
     <use x="59.1796875" xlink:href="#BitstreamVeraSans-Roman-32"/>
     <use x="122.802734375" xlink:href="#BitstreamVeraSans-Roman-2e"/>
     <use x="154.58984375" xlink:href="#BitstreamVeraSans-Roman-32"/>
     <use x="218.212890625" xlink:href="#BitstreamVeraSans-Roman-2e"/>
     <use x="250.0" xlink:href="#BitstreamVeraSans-Roman-31"/>
     <use x="313.623046875" xlink:href="#BitstreamVeraSans-Roman-2e"/>
     <use x="345.41015625" xlink:href="#BitstreamVeraSans-Roman-31"/>
     <use x="409.033203125" xlink:href="#BitstreamVeraSans-Roman-30"/>
    </g>
   </g>
  </g>
 </g>
 <defs>
  <clipPath id="p838f3a7745">
   <rect height="377.221782178" width="449.355" x="54.525" y="7.67821782178"/>
  </clipPath>
 </defs>
</svg>
