<?xml version="1.0" encoding="utf-8" standalone="no"?>
<!DOCTYPE svg PUBLIC "-//W3C//DTD SVG 1.1//EN"
  "http://www.w3.org/Graphics/SVG/1.1/DTD/svg11.dtd">
<!-- Created with matplotlib (http://matplotlib.org/) -->
<svg height="432pt" version="1.1" viewBox="0 0 576 432" width="576pt" xmlns="http://www.w3.org/2000/svg" xmlns:xlink="http://www.w3.org/1999/xlink">
 <defs>
  <style type="text/css">
*{stroke-linecap:butt;stroke-linejoin:round;stroke-miterlimit:100000;}
  </style>
 </defs>
 <g id="figure_1">
  <g id="patch_1">
   <path d="M 0 432 
L 576 432 
L 576 0 
L 0 0 
z
" style="fill:#ffffff;"/>
  </g>
  <g id="axes_1">
   <g id="patch_2">
    <path d="M 54.525 384.9 
L 503.88 384.9 
L 503.88 22.4 
L 54.525 22.4 
z
" style="fill:#ffffff;"/>
   </g>
   <g id="line2d_1">
    <defs>
     <path d="M 0 1.5 
C 0.397805 1.5 0.77937 1.341951 1.06066 1.06066 
C 1.341951 0.77937 1.5 0.397805 1.5 0 
C 1.5 -0.397805 1.341951 -0.77937 1.06066 -1.06066 
C 0.77937 -1.341951 0.397805 -1.5 0 -1.5 
C -0.397805 -1.5 -0.77937 -1.341951 -1.06066 -1.06066 
C -1.341951 -0.77937 -1.5 -0.397805 -1.5 0 
C -1.5 0.397805 -1.341951 0.77937 -1.06066 1.06066 
C -0.77937 1.341951 -0.397805 1.5 0 1.5 
z
" id="m5f509b86cd" style="stroke:#00bfbf;stroke-width:0.5;"/>
    </defs>
    <g>
     <use style="fill:#00bfbf;stroke:#00bfbf;stroke-width:0.5;" x="376.221228338" xlink:href="#m5f509b86cd" y="187.850883324"/>
     <use style="fill:#00bfbf;stroke:#00bfbf;stroke-width:0.5;" x="376.221228338" xlink:href="#m5f509b86cd" y="187.850883324"/>
    </g>
   </g>
   <g id="line2d_2">
    <path d="M 54.525 384.9 
L 54.525 370.825063 
L 70.109025 370.825063 
L 70.109025 370.121316 
L 79.225095 370.121316 
L 79.225095 363.787595 
L 85.693049 363.787595 
L 85.693049 361.676354 
L 90.709985 361.676354 
L 90.709985 359.565114 
L 94.809119 359.565114 
L 94.809119 355.342632 
L 98.274888 355.342632 
L 98.274888 353.231392 
L 103.925189 353.231392 
L 103.925189 352.527645 
L 106.294009 352.527645 
L 106.294009 350.416405 
L 113.858913 350.416405 
L 113.858913 349.712658 
L 116.861098 349.712658 
L 116.861098 344.78643 
L 153.325379 344.78643 
L 153.325379 341.267696 
L 156.431412 341.267696 
L 156.431412 339.860202 
L 156.909792 339.860202 
L 156.909792 335.637721 
L 164.305011 335.637721 
L 164.305011 334.933974 
L 171.027014 334.933974 
L 171.027014 334.230227 
L 172.015437 334.230227 
L 172.015437 332.822733 
L 172.255899 332.822733 
L 172.255899 330.711493 
L 172.729242 330.711493 
L 172.729242 330.007746 
L 176.494124 330.007746 
L 176.494124 325.785265 
L 177.368303 325.785265 
L 177.368303 324.377771 
L 178.117806 324.377771 
L 178.117806 323.674024 
L 180.642727 323.674024 
L 180.642727 321.562784 
L 185.311081 321.562784 
L 185.311081 320.15529 
L 187.538942 320.15529 
L 187.538942 319.451543 
L 191.678441 319.451543 
L 191.678441 318.747797 
L 196.102878 318.747797 
L 196.102878 316.636556 
L 199.300882 316.636556 
L 199.300882 315.932809 
L 202.632854 315.932809 
L 202.632854 313.117822 
L 204.418156 313.117822 
L 204.418156 312.414075 
L 210.757022 312.414075 
L 210.757022 311.710328 
L 211.458013 311.710328 
L 211.458013 311.006581 
L 217.588821 311.006581 
L 217.588821 309.599088 
L 218.154857 309.599088 
L 218.154857 308.191594 
L 219.495949 308.191594 
L 219.495949 303.969113 
L 222.529197 303.969113 
L 222.529197 302.561619 
L 223.246198 302.561619 
L 223.246198 301.857872 
L 231.132456 301.857872 
L 231.132456 301.154125 
L 241.29602 301.154125 
L 241.29602 298.339138 
L 244.317613 298.339138 
L 244.317613 297.635391 
L 250.561369 297.635391 
L 250.561369 295.524151 
L 252.887166 295.524151 
L 252.887166 294.820404 
L 255.454528 294.820404 
L 255.454528 292.709163 
L 258.181311 292.709163 
L 258.181311 291.30167 
L 265.87932 291.30167 
L 265.87932 290.597923 
L 266.475429 290.597923 
L 266.475429 288.486682 
L 268.408162 288.486682 
L 268.408162 287.782935 
L 269.279673 287.782935 
L 269.353053 286.375442 
L 271.029686 286.375442 
L 271.029686 285.671695 
L 281.335193 285.671695 
L 281.335193 284.967948 
L 283.188616 284.967948 
L 283.190337 283.560454 
L 285.219185 283.560454 
L 285.227833 282.152961 
L 287.754258 282.152961 
L 287.754258 280.745467 
L 288.079968 280.745467 
L 288.079968 280.04172 
L 289.170322 280.04172 
L 289.170322 279.337973 
L 289.902353 279.337973 
L 289.902353 278.634226 
L 290.56578 278.634226 
L 290.625834 274.411745 
L 291.70679 274.411745 
L 291.70679 272.300505 
L 292.485139 272.300505 
L 292.485139 271.596758 
L 295.977727 271.596758 
L 295.97797 269.485517 
L 296.690466 269.485517 
L 296.710286 267.374277 
L 298.732151 267.374277 
L 298.732151 266.67053 
L 299.553984 266.67053 
L 299.58659 265.263036 
L 300.021279 265.263036 
L 300.021279 264.559289 
L 300.480653 264.559289 
L 300.498795 261.040555 
L 301.696824 261.040555 
L 301.696824 260.336808 
L 302.475753 260.336808 
L 302.475753 259.633062 
L 304.080244 259.633062 
L 304.080244 258.929315 
L 304.575034 258.929315 
L 304.580021 257.521821 
L 304.930112 257.521821 
L 304.930112 256.818074 
L 307.311724 256.818074 
L 307.325114 251.891846 
L 310.030799 251.891846 
L 310.030799 251.188099 
L 312.538615 251.188099 
L 312.550161 247.669365 
L 315.025188 247.669365 
L 315.025397 246.261871 
L 316.77973 246.261871 
L 316.791512 242.743137 
L 317.773628 242.743137 
L 317.773628 242.03939 
L 320.346038 242.03939 
L 320.356833 237.113162 
L 322.132921 237.113162 
L 322.139011 235.705669 
L 323.426209 235.705669 
L 323.439789 233.594428 
L 326.12995 233.594428 
L 326.141036 230.075694 
L 327.350007 230.075694 
L 327.350007 229.371947 
L 328.551871 229.371947 
L 328.551871 228.6682 
L 329.138237 228.6682 
L 329.138237 227.964454 
L 330.72806 227.964454 
L 330.730865 225.853213 
L 331.871265 225.853213 
L 331.871265 225.149466 
L 332.715878 225.149466 
L 332.722011 220.223238 
L 333.771872 220.223238 
L 333.771872 219.519491 
L 334.540423 219.519491 
L 334.548225 214.593263 
L 339.275354 214.593263 
L 339.275354 213.889517 
L 340.651207 213.889517 
L 340.653879 212.482023 
L 341.94631 212.482023 
L 341.947855 211.074529 
L 344.340106 211.074529 
L 344.349489 208.963289 
L 345.450625 208.963289 
L 345.450625 208.259542 
L 346.50719 208.259542 
L 346.510254 206.852048 
L 347.513246 206.852048 
L 347.514502 204.740808 
L 348.061764 204.740808 
L 348.061764 204.037061 
L 349.39807 204.037061 
L 349.403412 201.222073 
L 350.288472 201.222073 
L 350.288472 200.518327 
L 351.142647 200.518327 
L 351.146774 199.110833 
L 353.528397 199.110833 
L 353.528397 198.407086 
L 355.680834 198.407086 
L 355.686004 196.295845 
L 357.013822 196.295845 
L 357.020468 194.888352 
L 358.266017 194.888352 
L 358.266017 194.184605 
L 361.663609 194.184605 
L 361.663609 193.480858 
L 362.179226 193.480858 
L 362.186201 192.073364 
L 363.184872 192.073364 
L 363.184872 191.369618 
L 363.669046 191.369618 
L 363.669046 190.665871 
L 367.218043 190.665871 
L 367.218043 189.962124 
L 367.625774 189.962124 
L 367.625774 189.258377 
L 370.63809 189.258377 
L 370.63809 188.55463 
L 376.221228 188.55463 
L 376.221228 187.850883 
L 416.908065 187.850883 
L 416.908065 187.850883 
" style="fill:none;stroke:#00bfbf;stroke-linecap:square;stroke-width:1.5;"/>
   </g>
   <g id="line2d_3">
    <defs>
     <path d="M -6 0 
L 6 0 
M 0 6 
L 0 -6 
" id="m7e4f3c1905" style="stroke:#00bfbf;stroke-width:1.5;"/>
    </defs>
    <g>
     <use style="fill:none;stroke:#00bfbf;stroke-width:1.5;" x="116.86109848" xlink:href="#m7e4f3c1905" y="349.712657736"/>
     <use style="fill:none;stroke:#00bfbf;stroke-width:1.5;" x="269.353053314" xlink:href="#m7e4f3c1905" y="286.375441662"/>
     <use style="fill:none;stroke:#00bfbf;stroke-width:1.5;" x="329.138236987" xlink:href="#m7e4f3c1905" y="227.964453504"/>
     <use style="fill:none;stroke:#00bfbf;stroke-width:1.5;" x="376.221228338" xlink:href="#m7e4f3c1905" y="187.850883324"/>
     <use style="fill:none;stroke:#00bfbf;stroke-width:1.5;" x="416.908064516" xlink:href="#m7e4f3c1905" y="187.850883324"/>
    </g>
   </g>
   <g id="line2d_4">
    <path d="M -15527.946774 743.810891 
" style="fill:none;stroke:#00bfbf;stroke-linecap:square;stroke-width:1.5;"/>
    <g>
     <use style="fill:none;stroke:#00bfbf;stroke-width:1.5;" x="-15527.9467742" xlink:href="#m7e4f3c1905" y="743.810891089"/>
    </g>
   </g>
   <g id="line2d_5">
    <path clip-path="url(#p7ae594e965)" d="M 277.192367 285.671695 
" style="fill:none;stroke:#00bfbf;stroke-linecap:square;"/>
    <defs>
     <path d="M -12 12 
L 12 -12 
M -12 -12 
L 12 12 
" id="mcfba790cd9" style="stroke:#00bfbf;stroke-width:3.0;"/>
    </defs>
    <g clip-path="url(#p7ae594e965)">
     <use style="fill:#00bfbf;stroke:#00bfbf;stroke-width:3.0;" x="277.192367273" xlink:href="#mcfba790cd9" y="285.671694817"/>
    </g>
   </g>
   <g id="line2d_6">
    <defs>
     <path d="M 0 1.5 
C 0.397805 1.5 0.77937 1.341951 1.06066 1.06066 
C 1.341951 0.77937 1.5 0.397805 1.5 0 
C 1.5 -0.397805 1.341951 -0.77937 1.06066 -1.06066 
C 0.77937 -1.341951 0.397805 -1.5 0 -1.5 
C -0.397805 -1.5 -0.77937 -1.341951 -1.06066 -1.06066 
C -1.341951 -0.77937 -1.5 -0.397805 -1.5 0 
C -1.5 0.397805 -1.341951 0.77937 -1.06066 1.06066 
C -0.77937 1.341951 -0.397805 1.5 0 1.5 
z
" id="m039f7689f6" style="stroke:#008000;stroke-width:0.5;"/>
    </defs>
    <g>
     <use style="fill:#008000;stroke:#008000;stroke-width:0.5;" x="364.113750982" xlink:href="#m039f7689f6" y="272.300504756"/>
     <use style="fill:#008000;stroke:#008000;stroke-width:0.5;" x="364.113750982" xlink:href="#m039f7689f6" y="272.300504756"/>
    </g>
   </g>
   <g id="line2d_7">
    <path d="M 45.40893 384.9 
L 45.40893 371.52881 
L 60.992955 371.52881 
L 60.992955 369.417569 
L 70.109025 369.417569 
L 70.109025 360.972607 
L 76.576979 360.972607 
L 76.576979 360.26886 
L 81.593915 360.26886 
L 81.593915 358.15762 
L 85.693049 358.15762 
L 85.693049 356.046379 
L 89.158818 356.046379 
L 89.158818 354.638886 
L 92.161004 354.638886 
L 92.161004 353.231392 
L 94.809119 353.231392 
L 94.809119 349.008911 
L 97.177939 349.008911 
L 97.177939 346.89767 
L 103.076674 346.89767 
L 103.076674 346.193924 
L 150.677263 346.193924 
L 150.677263 344.082683 
L 151.694767 344.082683 
L 151.694767 343.378936 
L 152.283875 343.378936 
L 152.283875 342.675189 
L 152.668209 342.675189 
L 152.668209 340.563949 
L 152.85794 340.563949 
L 152.85794 339.156455 
L 153.963884 339.156455 
L 153.963884 338.452708 
L 164.191173 338.452708 
L 164.191173 337.748961 
L 167.078941 337.748961 
L 167.078941 337.045215 
L 170.516015 337.045215 
L 170.516015 335.637721 
L 175.515715 335.637721 
L 175.515715 334.230227 
L 181.050778 334.230227 
L 181.050778 333.52648 
L 185.266428 333.52648 
L 185.266428 332.822733 
L 185.533028 332.822733 
L 185.533028 331.41524 
L 203.283991 331.41524 
L 203.283991 330.711493 
L 205.750872 330.711493 
L 205.750872 328.600252 
L 206.230954 328.600252 
L 206.230954 327.192759 
L 213.95613 327.192759 
L 213.95613 325.081518 
L 215.788337 325.081518 
L 215.788337 323.674024 
L 223.237943 323.674024 
L 223.237943 322.266531 
L 224.412215 322.266531 
L 224.412215 320.859037 
L 235.490655 320.859037 
L 235.490655 319.451543 
L 245.730409 319.451543 
L 245.730409 315.932809 
L 256.110758 315.932809 
L 256.110758 314.525315 
L 258.049168 314.525315 
L 258.049168 313.821569 
L 263.500034 313.821569 
L 263.500034 313.117822 
L 270.330085 313.117822 
L 270.330085 312.414075 
L 278.099984 312.414075 
L 278.099984 311.710328 
L 280.669452 311.710328 
L 280.669452 311.006581 
L 282.155184 311.006581 
L 282.231954 308.191594 
L 287.529974 308.191594 
L 287.529974 305.376606 
L 289.723177 305.376606 
L 289.723177 304.67286 
L 289.887769 304.67286 
L 289.887769 303.265366 
L 290.771485 303.265366 
L 290.771485 300.450379 
L 293.231568 300.450379 
L 293.231568 299.746632 
L 295.434515 299.746632 
L 295.434515 299.042885 
L 297.418814 299.042885 
L 297.419119 297.635391 
L 298.532661 297.635391 
L 298.533531 296.227897 
L 300.007908 296.227897 
L 300.00818 294.820404 
L 300.574524 294.820404 
L 300.574524 294.116657 
L 303.668955 294.116657 
L 303.668955 293.41291 
L 306.925362 293.41291 
L 306.959674 292.005416 
L 312.262213 292.005416 
L 312.263472 290.597923 
L 312.594111 290.597923 
L 312.594111 289.894176 
L 316.527948 289.894176 
L 316.553982 287.782935 
L 320.132668 287.782935 
L 320.150635 285.671695 
L 323.253577 285.671695 
L 323.258018 283.560454 
L 328.395878 283.560454 
L 328.410394 281.449214 
L 332.604309 281.449214 
L 332.606124 280.04172 
L 334.436234 280.04172 
L 334.436234 279.337973 
L 336.13443 279.337973 
L 336.13443 278.634226 
L 337.710956 278.634226 
L 337.715017 277.226733 
L 340.569611 277.226733 
L 340.570595 275.819239 
L 343.10202 275.819239 
L 343.10202 275.115492 
L 351.089783 275.115492 
L 351.089783 274.411745 
L 352.708738 274.411745 
L 352.708738 273.707998 
L 354.222827 273.707998 
L 354.222827 273.004252 
L 364.113751 273.004252 
L 364.113751 272.300505 
L 416.908065 272.300505 
L 416.908065 272.300505 
" style="fill:none;stroke:#008000;stroke-linecap:square;stroke-width:1.5;"/>
   </g>
   <g id="line2d_8">
    <defs>
     <path d="M -0 6 
L 6 -6 
L -6 -6 
z
" id="md07648cb58" style="stroke:#008000;stroke-linejoin:miter;stroke-width:1.5;"/>
    </defs>
    <g>
     <use style="fill:none;stroke:#008000;stroke-linejoin:miter;stroke-width:1.5;" x="103.076673659" xlink:href="#md07648cb58" y="346.19392351"/>
     <use style="fill:none;stroke:#008000;stroke-linejoin:miter;stroke-width:1.5;" x="224.412214608" xlink:href="#md07648cb58" y="320.85903708"/>
     <use style="fill:none;stroke:#008000;stroke-linejoin:miter;stroke-width:1.5;" x="300.574524473" xlink:href="#md07648cb58" y="294.820403805"/>
     <use style="fill:none;stroke:#008000;stroke-linejoin:miter;stroke-width:1.5;" x="364.113750982" xlink:href="#md07648cb58" y="272.300504756"/>
     <use style="fill:none;stroke:#008000;stroke-linejoin:miter;stroke-width:1.5;" x="364.113750982" xlink:href="#md07648cb58" y="272.300504756"/>
     <use style="fill:none;stroke:#008000;stroke-linejoin:miter;stroke-width:1.5;" x="416.908064516" xlink:href="#md07648cb58" y="272.300504756"/>
    </g>
   </g>
   <g id="line2d_9">
    <path d="M -15527.946774 743.810891 
" style="fill:none;stroke:#008000;stroke-linecap:square;stroke-width:1.5;"/>
    <g>
     <use style="fill:none;stroke:#008000;stroke-linejoin:miter;stroke-width:1.5;" x="-15527.9467742" xlink:href="#md07648cb58" y="743.810891089"/>
    </g>
   </g>
   <g id="line2d_10">
    <path clip-path="url(#p7ae594e965)" d="M 277.190307 312.414075 
" style="fill:none;stroke:#008000;stroke-linecap:square;"/>
    <defs>
     <path d="M -12 12 
L 12 -12 
M -12 -12 
L 12 12 
" id="m57f9fd712e" style="stroke:#008000;stroke-width:3.0;"/>
    </defs>
    <g clip-path="url(#p7ae594e965)">
     <use style="fill:#008000;stroke:#008000;stroke-width:3.0;" x="277.190306907" xlink:href="#m57f9fd712e" y="312.414074937"/>
    </g>
   </g>
   <g id="line2d_11">
    <defs>
     <path d="M 0 1.5 
C 0.397805 1.5 0.77937 1.341951 1.06066 1.06066 
C 1.341951 0.77937 1.5 0.397805 1.5 0 
C 1.5 -0.397805 1.341951 -0.77937 1.06066 -1.06066 
C 0.77937 -1.341951 0.397805 -1.5 0 -1.5 
C -0.397805 -1.5 -0.77937 -1.341951 -1.06066 -1.06066 
C -1.341951 -0.77937 -1.5 -0.397805 -1.5 0 
C -1.5 0.397805 -1.341951 0.77937 -1.06066 1.06066 
C -0.77937 1.341951 -0.397805 1.5 0 1.5 
z
" id="m8b50b44999" style="stroke:#0000ff;stroke-width:0.5;"/>
    </defs>
    <g>
     <use style="fill:#0000ff;stroke:#0000ff;stroke-width:0.5;" x="350.004396593" xlink:href="#m8b50b44999" y="314.525315473"/>
     <use style="fill:#0000ff;stroke:#0000ff;stroke-width:0.5;" x="350.004396593" xlink:href="#m8b50b44999" y="314.525315473"/>
    </g>
   </g>
   <g id="line2d_12">
    <path d="M 33.92404 384.9 
L 33.92404 380.677519 
L 49.508065 380.677519 
L 49.508065 377.862532 
L 58.624135 377.862532 
L 58.624135 375.751291 
L 65.092089 375.751291 
L 65.092089 368.713823 
L 70.109025 368.713823 
L 70.109025 366.602582 
L 74.208159 366.602582 
L 74.208159 363.083848 
L 77.673928 363.083848 
L 77.673928 362.380101 
L 83.324229 362.380101 
L 83.324229 361.676354 
L 85.693049 361.676354 
L 85.693049 360.972607 
L 87.835908 360.972607 
L 87.835908 359.565114 
L 89.792184 359.565114 
L 89.792184 357.453873 
L 153.81953 357.453873 
L 153.81953 356.750126 
L 160.69114 356.750126 
L 160.69114 353.935139 
L 168.118462 353.935139 
L 168.118462 352.527645 
L 183.587189 352.527645 
L 183.587189 350.416405 
L 184.298286 350.416405 
L 184.298286 349.712658 
L 188.172307 349.712658 
L 188.172307 349.008911 
L 188.336675 349.008911 
L 188.336675 348.305164 
L 190.877957 348.305164 
L 190.877957 347.601417 
L 191.899159 347.601417 
L 191.899159 346.89767 
L 198.615328 346.89767 
L 198.615328 345.490177 
L 200.544434 345.490177 
L 200.544434 344.78643 
L 200.706963 344.78643 
L 200.706963 344.082683 
L 207.342977 344.082683 
L 207.342977 342.675189 
L 226.772726 342.675189 
L 226.772726 339.860202 
L 228.413179 339.860202 
L 228.413179 339.156455 
L 240.912222 339.156455 
L 240.912222 338.452708 
L 254.577079 338.452708 
L 254.577079 337.748961 
L 264.155428 337.748961 
L 264.155428 337.045215 
L 264.199535 337.045215 
L 264.199535 336.341468 
L 267.114626 336.341468 
L 267.114626 335.637721 
L 271.676023 335.637721 
L 271.676023 334.230227 
L 275.886528 334.230227 
L 275.886528 332.822733 
L 279.022954 332.822733 
L 279.022954 332.118987 
L 284.131608 332.118987 
L 284.131608 331.41524 
L 286.296634 331.41524 
L 286.296634 330.007746 
L 290.781721 330.007746 
L 290.781721 329.303999 
L 292.13035 329.303999 
L 292.13035 328.600252 
L 292.326107 328.600252 
L 292.326107 327.896506 
L 295.092918 327.896506 
L 295.092918 327.192759 
L 295.094844 327.192759 
L 295.094844 326.489012 
L 296.510534 326.489012 
L 296.510534 325.785265 
L 300.198039 325.785265 
L 300.198039 325.081518 
L 300.580747 325.081518 
L 300.580747 324.377771 
L 300.76874 324.377771 
L 300.76874 323.674024 
L 301.463874 323.674024 
L 301.463874 322.970278 
L 305.351696 322.970278 
L 305.351696 322.266531 
L 311.001276 322.266531 
L 311.001276 321.562784 
L 311.003274 321.562784 
L 311.003274 320.859037 
L 315.515847 320.859037 
L 315.515847 320.15529 
L 316.643271 320.15529 
L 316.643271 319.451543 
L 322.488424 319.451543 
L 322.488424 318.747797 
L 322.488514 318.747797 
L 322.488514 318.04405 
L 322.490792 318.04405 
L 322.490792 317.340303 
L 333.975574 317.340303 
L 333.975574 316.636556 
L 341.538877 316.636556 
L 341.538877 315.932809 
L 341.540072 315.932809 
L 341.540072 315.229062 
L 350.004397 315.229062 
L 350.004397 314.525315 
L 416.908065 314.525315 
" style="fill:none;stroke:#0000ff;stroke-linecap:square;stroke-width:1.5;"/>
   </g>
   <g id="line2d_13">
    <defs>
     <path d="M 0 -6 
L -1.347084 -1.854102 
L -5.706339 -1.854102 
L -2.179628 0.708204 
L -3.526712 4.854102 
L -0 2.291796 
L 3.526712 4.854102 
L 2.179628 0.708204 
L 5.706339 -1.854102 
L 1.347084 -1.854102 
z
" id="m2201af20d8" style="stroke:#0000ff;stroke-linejoin:bevel;stroke-width:1.5;"/>
    </defs>
    <g>
     <use style="fill:none;stroke:#0000ff;stroke-linejoin:bevel;stroke-width:1.5;" x="160.691140067" xlink:href="#m2201af20d8" y="356.750126189"/>
     <use style="fill:none;stroke:#0000ff;stroke-linejoin:bevel;stroke-width:1.5;" x="240.91222178" xlink:href="#m2201af20d8" y="339.156455057"/>
     <use style="fill:none;stroke:#0000ff;stroke-linejoin:bevel;stroke-width:1.5;" x="305.351695921" xlink:href="#m2201af20d8" y="322.266530771"/>
     <use style="fill:none;stroke:#0000ff;stroke-linejoin:bevel;stroke-width:1.5;" x="350.004396593" xlink:href="#m2201af20d8" y="314.525315473"/>
     <use style="fill:none;stroke:#0000ff;stroke-linejoin:bevel;stroke-width:1.5;" x="350.004396593" xlink:href="#m2201af20d8" y="314.525315473"/>
     <use style="fill:none;stroke:#0000ff;stroke-linejoin:bevel;stroke-width:1.5;" x="416.908064516" xlink:href="#m2201af20d8" y="314.525315473"/>
    </g>
   </g>
   <g id="line2d_14">
    <path d="M -15527.946774 743.810891 
" style="fill:none;stroke:#0000ff;stroke-linecap:square;stroke-width:1.5;"/>
    <g>
     <use style="fill:none;stroke:#0000ff;stroke-linejoin:bevel;stroke-width:1.5;" x="-15527.9467742" xlink:href="#m2201af20d8" y="743.810891089"/>
    </g>
   </g>
   <g id="line2d_15">
    <path clip-path="url(#p7ae594e965)" d="M 277.187984 332.822733 
" style="fill:none;stroke:#0000ff;stroke-linecap:square;"/>
    <defs>
     <path d="M -12 12 
L 12 -12 
M -12 -12 
L 12 12 
" id="me5acff0e4f" style="stroke:#0000ff;stroke-width:3.0;"/>
    </defs>
    <g clip-path="url(#p7ae594e965)">
     <use style="fill:#0000ff;stroke:#0000ff;stroke-width:3.0;" x="277.187984086" xlink:href="#me5acff0e4f" y="332.82273345"/>
    </g>
   </g>
   <g id="line2d_16">
    <defs>
     <path d="M 0 1.5 
C 0.397805 1.5 0.77937 1.341951 1.06066 1.06066 
C 1.341951 0.77937 1.5 0.397805 1.5 0 
C 1.5 -0.397805 1.341951 -0.77937 1.06066 -1.06066 
C 0.77937 -1.341951 0.397805 -1.5 0 -1.5 
C -0.397805 -1.5 -0.77937 -1.341951 -1.06066 -1.06066 
C -1.341951 -0.77937 -1.5 -0.397805 -1.5 0 
C -1.5 0.397805 -1.341951 0.77937 -1.06066 1.06066 
C -0.77937 1.341951 -0.397805 1.5 0 1.5 
z
" id="m7454da9188" style="stroke:#000000;stroke-width:0.5;"/>
    </defs>
    <g>
     <use style="stroke:#000000;stroke-width:0.5;" x="337.982157703" xlink:href="#m7454da9188" y="342.675189284"/>
     <use style="stroke:#000000;stroke-width:0.5;" x="337.982157703" xlink:href="#m7454da9188" y="342.675189284"/>
    </g>
   </g>
   <g id="line2d_17">
    <path d="M 18.340015 384.9 
L 18.340015 379.270025 
L 33.92404 379.270025 
L 33.92404 375.047544 
L 43.04011 375.047544 
L 43.04011 371.52881 
L 49.508065 371.52881 
L 49.508065 370.825063 
L 54.525 370.825063 
L 54.525 370.121316 
L 67.740205 370.121316 
L 67.740205 368.713823 
L 72.251883 368.713823 
L 72.251883 368.010076 
L 80.676114 368.010076 
L 80.676114 366.602582 
L 138.877921 366.602582 
L 138.877921 365.898835 
L 139.706881 365.898835 
L 139.706881 364.491341 
L 139.909432 364.491341 
L 139.909432 363.787595 
L 151.892856 363.787595 
L 151.892856 363.083848 
L 163.613172 363.083848 
L 163.613172 362.380101 
L 183.281689 362.380101 
L 183.281689 361.676354 
L 190.971789 361.676354 
L 190.971789 360.26886 
L 191.799101 360.26886 
L 191.799101 359.565114 
L 201.709892 359.565114 
L 201.709892 358.15762 
L 202.533537 358.15762 
L 202.533537 357.453873 
L 206.034827 357.453873 
L 206.034827 356.750126 
L 211.483096 356.750126 
L 211.483096 356.046379 
L 221.35376 356.046379 
L 221.35376 355.342632 
L 229.455152 355.342632 
L 229.455152 354.638886 
L 246.983396 354.638886 
L 246.983396 353.231392 
L 263.765959 353.231392 
L 263.765959 352.527645 
L 265.881178 352.527645 
L 265.881178 351.120151 
L 274.644466 351.120151 
L 274.644466 349.712658 
L 277.957966 349.712658 
L 277.957966 349.008911 
L 288.653398 349.008911 
L 288.653398 347.601417 
L 289.094003 347.601417 
L 289.094003 346.193924 
L 292.080447 346.193924 
L 292.080447 345.490177 
L 306.59155 345.490177 
L 306.59155 344.78643 
L 311.972204 344.78643 
L 311.972204 344.082683 
L 316.312029 344.082683 
L 316.312029 343.378936 
L 337.982158 343.378936 
L 337.982158 342.675189 
L 416.908065 342.675189 
" style="fill:none;stroke:#000000;stroke-linecap:square;stroke-width:1.5;"/>
   </g>
   <g id="line2d_18">
    <defs>
     <path d="M 0 6 
C 1.591219 6 3.117479 5.367802 4.242641 4.242641 
C 5.367802 3.117479 6 1.591219 6 0 
C 6 -1.591219 5.367802 -3.117479 4.242641 -4.242641 
C 3.117479 -5.367802 1.591219 -6 0 -6 
C -1.591219 -6 -3.117479 -5.367802 -4.242641 -4.242641 
C -5.367802 -3.117479 -6 -1.591219 -6 0 
C -6 1.591219 -5.367802 3.117479 -4.242641 4.242641 
C -3.117479 5.367802 -1.591219 6 0 6 
z
" id="ma29854e387" style="stroke:#000000;stroke-width:1.5;"/>
    </defs>
    <g>
     <use style="fill:none;stroke:#000000;stroke-width:1.5;" x="139.909431502" xlink:href="#ma29854e387" y="363.787594642"/>
     <use style="fill:none;stroke:#000000;stroke-width:1.5;" x="211.483096024" xlink:href="#ma29854e387" y="356.750126189"/>
     <use style="fill:none;stroke:#000000;stroke-width:1.5;" x="292.080447143" xlink:href="#ma29854e387" y="345.490176665"/>
     <use style="fill:none;stroke:#000000;stroke-width:1.5;" x="337.982157703" xlink:href="#ma29854e387" y="342.675189284"/>
     <use style="fill:none;stroke:#000000;stroke-width:1.5;" x="337.982157703" xlink:href="#ma29854e387" y="342.675189284"/>
     <use style="fill:none;stroke:#000000;stroke-width:1.5;" x="416.908064516" xlink:href="#ma29854e387" y="342.675189284"/>
    </g>
   </g>
   <g id="line2d_19">
    <path d="M -15527.946774 743.810891 
" style="fill:none;stroke:#000000;stroke-linecap:square;stroke-width:1.5;"/>
    <g>
     <use style="fill:none;stroke:#000000;stroke-width:1.5;" x="-15527.9467742" xlink:href="#ma29854e387" y="743.810891089"/>
    </g>
   </g>
   <g id="line2d_20">
    <path clip-path="url(#p7ae594e965)" d="M 277.186635 349.712658 
" style="fill:none;stroke:#000000;stroke-linecap:square;"/>
    <defs>
     <path d="M -12 12 
L 12 -12 
M -12 -12 
L 12 12 
" id="m5715ef26ce" style="stroke:#000000;stroke-width:3.0;"/>
    </defs>
    <g clip-path="url(#p7ae594e965)">
     <use style="stroke:#000000;stroke-width:3.0;" x="277.186635241" xlink:href="#m5715ef26ce" y="349.712657736"/>
    </g>
   </g>
   <g id="line2d_21">
    <defs>
     <path d="M 0 1.5 
C 0.397805 1.5 0.77937 1.341951 1.06066 1.06066 
C 1.341951 0.77937 1.5 0.397805 1.5 0 
C 1.5 -0.397805 1.341951 -0.77937 1.06066 -1.06066 
C 0.77937 -1.341951 0.397805 -1.5 0 -1.5 
C -0.397805 -1.5 -0.77937 -1.341951 -1.06066 -1.06066 
C -1.341951 -0.77937 -1.5 -0.397805 -1.5 0 
C -1.5 0.397805 -1.341951 0.77937 -1.06066 1.06066 
C -0.77937 1.341951 -0.397805 1.5 0 1.5 
z
" id="m57b2716ff4" style="stroke:#ff0000;stroke-width:0.5;"/>
    </defs>
    <g>
     <use style="fill:#ff0000;stroke:#ff0000;stroke-width:0.5;" x="291.236982033" xlink:href="#m57b2716ff4" y="356.750126189"/>
     <use style="fill:#ff0000;stroke:#ff0000;stroke-width:0.5;" x="291.236982033" xlink:href="#m57b2716ff4" y="356.750126189"/>
    </g>
   </g>
   <g id="line2d_22">
    <path d="M 2.755991 384.9 
L 2.755991 376.455038 
L 18.340015 376.455038 
L 18.340015 373.64005 
L 27.456085 373.64005 
L 27.456085 372.232557 
L 38.940975 372.232557 
L 38.940975 371.52881 
L 46.505879 371.52881 
L 46.505879 370.825063 
L 49.508065 370.825063 
L 49.508065 370.121316 
L 134.778786 370.121316 
L 134.778786 368.713823 
L 135.030699 368.713823 
L 135.030699 367.306329 
L 171.24072 367.306329 
L 171.24072 366.602582 
L 171.882078 366.602582 
L 171.882078 365.898835 
L 178.958812 365.898835 
L 178.958812 365.195088 
L 190.091238 365.195088 
L 190.091238 363.787595 
L 201.276605 363.787595 
L 201.276605 362.380101 
L 256.022663 362.380101 
L 256.022663 361.676354 
L 271.418609 361.676354 
L 271.418609 360.972607 
L 272.431039 360.972607 
L 272.431039 360.26886 
L 274.008375 360.26886 
L 274.008375 359.565114 
L 281.558032 359.565114 
L 281.558032 358.861367 
L 288.485715 358.861367 
L 288.485715 357.453873 
L 291.236982 357.453873 
L 291.236982 356.750126 
L 416.908065 356.750126 
" style="fill:none;stroke:#ff0000;stroke-linecap:square;stroke-width:1.5;"/>
   </g>
   <g id="line2d_23">
    <defs>
     <path d="M -6 6 
L 6 6 
L 6 -6 
L -6 -6 
z
" id="m5626332d42" style="stroke:#ff0000;stroke-linejoin:miter;stroke-width:1.5;"/>
    </defs>
    <g>
     <use style="fill:none;stroke:#ff0000;stroke-linejoin:miter;stroke-width:1.5;" x="201.276604512" xlink:href="#m5626332d42" y="362.380100951"/>
     <use style="fill:none;stroke:#ff0000;stroke-linejoin:miter;stroke-width:1.5;" x="291.236982033" xlink:href="#m5626332d42" y="357.453873034"/>
     <use style="fill:none;stroke:#ff0000;stroke-linejoin:miter;stroke-width:1.5;" x="291.236982033" xlink:href="#m5626332d42" y="356.750126189"/>
     <use style="fill:none;stroke:#ff0000;stroke-linejoin:miter;stroke-width:1.5;" x="416.908064516" xlink:href="#m5626332d42" y="356.750126189"/>
    </g>
   </g>
   <g id="line2d_24">
    <path d="M -15527.946774 743.810891 
" style="fill:none;stroke:#ff0000;stroke-linecap:square;stroke-width:1.5;"/>
    <g>
     <use style="fill:none;stroke:#ff0000;stroke-linejoin:miter;stroke-width:1.5;" x="-15527.9467742" xlink:href="#m5626332d42" y="743.810891089"/>
    </g>
   </g>
   <g id="line2d_25">
    <path clip-path="url(#p7ae594e965)" d="M 277.185511 359.565114 
" style="fill:none;stroke:#ff0000;stroke-linecap:square;"/>
    <defs>
     <path d="M -12 12 
L 12 -12 
M -12 -12 
L 12 12 
" id="mfd2d409d95" style="stroke:#ff0000;stroke-width:3.0;"/>
    </defs>
    <g clip-path="url(#p7ae594e965)">
     <use style="fill:#ff0000;stroke:#ff0000;stroke-width:3.0;" x="277.185511142" xlink:href="#mfd2d409d95" y="359.56511357"/>
    </g>
   </g>
   <g id="line2d_26">
    <defs>
     <path d="M 0 1.5 
C 0.397805 1.5 0.77937 1.341951 1.06066 1.06066 
C 1.341951 0.77937 1.5 0.397805 1.5 0 
C 1.5 -0.397805 1.341951 -0.77937 1.06066 -1.06066 
C 0.77937 -1.341951 0.397805 -1.5 0 -1.5 
C -0.397805 -1.5 -0.77937 -1.341951 -1.06066 -1.06066 
C -1.341951 -0.77937 -1.5 -0.397805 -1.5 0 
C -1.5 0.397805 -1.341951 0.77937 -1.06066 1.06066 
C -0.77937 1.341951 -0.397805 1.5 0 1.5 
z
" id="m5e0eff7c32" style="stroke:#bf00bf;stroke-width:0.5;"/>
    </defs>
    <g>
     <use style="fill:#bf00bf;stroke:#bf00bf;stroke-width:0.5;" x="361.317839098" xlink:href="#m5e0eff7c32" y="356.750126189"/>
     <use style="fill:#bf00bf;stroke:#bf00bf;stroke-width:0.5;" x="361.317839098" xlink:href="#m5e0eff7c32" y="356.750126189"/>
    </g>
   </g>
   <g id="line2d_27">
    <path d="M -12.828034 384.9 
M -1 376.455038 
L 11.872061 376.455038 
L 11.872061 374.343797 
L 33.92404 374.343797 
L 33.92404 371.52881 
L 41.083834 371.52881 
L 41.083834 370.825063 
L 173.714391 370.825063 
L 173.714391 369.417569 
L 182.669238 369.417569 
L 182.669238 368.713823 
L 235.621219 368.713823 
L 235.621219 367.306329 
L 238.69518 367.306329 
L 238.69518 366.602582 
L 265.692114 366.602582 
L 265.692114 365.195088 
L 276.020235 365.195088 
L 276.020235 364.491341 
L 291.795771 364.491341 
L 291.795771 363.787595 
L 321.520379 363.787595 
L 321.520379 363.083848 
L 329.365529 363.083848 
L 329.365529 362.380101 
L 329.365554 362.380101 
L 329.365554 361.676354 
L 331.471277 361.676354 
L 331.471277 360.972607 
L 335.169984 360.972607 
L 335.169984 360.26886 
L 341.127153 360.26886 
L 341.127153 359.565114 
L 352.250933 359.565114 
L 352.250933 358.861367 
L 358.481408 358.861367 
L 358.481408 358.15762 
L 360.778507 358.15762 
L 360.778507 357.453873 
L 361.317839 357.453873 
L 361.317839 356.750126 
L 416.908065 356.750126 
" style="fill:none;stroke:#bf00bf;stroke-linecap:square;stroke-width:1.5;"/>
   </g>
   <g id="line2d_28">
    <defs>
     <path d="M -0 8.485281 
L 8.485281 0 
L 0 -8.485281 
L -8.485281 -0 
z
" id="m2bc0408c34" style="stroke:#bf00bf;stroke-linejoin:miter;stroke-width:1.5;"/>
    </defs>
    <g>
     <use style="fill:none;stroke:#bf00bf;stroke-linejoin:miter;stroke-width:1.5;" x="182.669238211" xlink:href="#m2bc0408c34" y="368.713822559"/>
     <use style="fill:none;stroke:#bf00bf;stroke-linejoin:miter;stroke-width:1.5;" x="291.79577058" xlink:href="#m2bc0408c34" y="364.491341487"/>
     <use style="fill:none;stroke:#bf00bf;stroke-linejoin:miter;stroke-width:1.5;" x="361.317839098" xlink:href="#m2bc0408c34" y="356.750126189"/>
     <use style="fill:none;stroke:#bf00bf;stroke-linejoin:miter;stroke-width:1.5;" x="361.317839098" xlink:href="#m2bc0408c34" y="356.750126189"/>
     <use style="fill:none;stroke:#bf00bf;stroke-linejoin:miter;stroke-width:1.5;" x="416.908064516" xlink:href="#m2bc0408c34" y="356.750126189"/>
    </g>
   </g>
   <g id="line2d_29">
    <path d="M -15527.946774 743.810891 
" style="fill:none;stroke:#bf00bf;stroke-linecap:square;stroke-width:1.5;"/>
    <g>
     <use style="fill:none;stroke:#bf00bf;stroke-linejoin:miter;stroke-width:1.5;" x="-15527.9467742" xlink:href="#m2bc0408c34" y="743.810891089"/>
    </g>
   </g>
   <g id="line2d_30">
    <path clip-path="url(#p7ae594e965)" d="M 277.18523 364.491341 
" style="fill:none;stroke:#bf00bf;stroke-linecap:square;"/>
    <defs>
     <path d="M -12 12 
L 12 -12 
M -12 -12 
L 12 12 
" id="m9e58fb9238" style="stroke:#bf00bf;stroke-width:3.0;"/>
    </defs>
    <g clip-path="url(#p7ae594e965)">
     <use style="fill:#bf00bf;stroke:#bf00bf;stroke-width:3.0;" x="277.185230108" xlink:href="#m9e58fb9238" y="364.491341487"/>
    </g>
   </g>
   <g id="line2d_31">
    <path d="M 416.908065 356.750126 
L 456.770202 377.721782 
" style="fill:none;stroke:#bf00bf;stroke-linecap:square;stroke-width:1.5;"/>
    <g>
     <use style="fill:none;stroke:#bf00bf;stroke-linejoin:miter;stroke-width:1.5;" x="416.908064516" xlink:href="#m2bc0408c34" y="356.750126189"/>
     <use style="fill:none;stroke:#bf00bf;stroke-linejoin:miter;stroke-width:1.5;" x="456.770201613" xlink:href="#m2bc0408c34" y="377.721782178"/>
    </g>
   </g>
   <g id="line2d_32">
    <path d="M 416.908065 356.750126 
L 456.770202 308.810891 
" style="fill:none;stroke:#ff0000;stroke-linecap:square;stroke-width:1.5;"/>
    <g>
     <use style="fill:none;stroke:#ff0000;stroke-linejoin:miter;stroke-width:1.5;" x="416.908064516" xlink:href="#m5626332d42" y="356.750126189"/>
     <use style="fill:none;stroke:#ff0000;stroke-linejoin:miter;stroke-width:1.5;" x="456.770201613" xlink:href="#m5626332d42" y="308.810891089"/>
    </g>
   </g>
   <g id="line2d_33">
    <path d="M 416.908065 342.675189 
L 456.770202 239.9 
" style="fill:none;stroke:#000000;stroke-linecap:square;stroke-width:1.5;"/>
    <g>
     <use style="fill:none;stroke:#000000;stroke-width:1.5;" x="416.908064516" xlink:href="#ma29854e387" y="342.675189284"/>
     <use style="fill:none;stroke:#000000;stroke-width:1.5;" x="456.770201613" xlink:href="#ma29854e387" y="239.9"/>
    </g>
   </g>
   <g id="line2d_34">
    <path d="M 416.908065 314.525315 
L 456.770202 170.989109 
" style="fill:none;stroke:#0000ff;stroke-linecap:square;stroke-width:1.5;"/>
    <g>
     <use style="fill:none;stroke:#0000ff;stroke-linejoin:bevel;stroke-width:1.5;" x="416.908064516" xlink:href="#m2201af20d8" y="314.525315473"/>
     <use style="fill:none;stroke:#0000ff;stroke-linejoin:bevel;stroke-width:1.5;" x="456.770201613" xlink:href="#m2201af20d8" y="170.989108911"/>
    </g>
   </g>
   <g id="line2d_35">
    <path d="M 416.908065 272.300505 
L 456.770202 102.078218 
" style="fill:none;stroke:#008000;stroke-linecap:square;stroke-width:1.5;"/>
    <g>
     <use style="fill:none;stroke:#008000;stroke-linejoin:miter;stroke-width:1.5;" x="416.908064516" xlink:href="#md07648cb58" y="272.300504756"/>
     <use style="fill:none;stroke:#008000;stroke-linejoin:miter;stroke-width:1.5;" x="456.770201613" xlink:href="#md07648cb58" y="102.078217822"/>
    </g>
   </g>
   <g id="line2d_36">
    <path d="M 416.908065 187.850883 
L 456.770202 33.167327 
" style="fill:none;stroke:#00bfbf;stroke-linecap:square;stroke-width:1.5;"/>
    <g>
     <use style="fill:none;stroke:#00bfbf;stroke-width:1.5;" x="416.908064516" xlink:href="#m7e4f3c1905" y="187.850883324"/>
     <use style="fill:none;stroke:#00bfbf;stroke-width:1.5;" x="456.770201613" xlink:href="#m7e4f3c1905" y="33.1673267327"/>
    </g>
   </g>
   <g id="line2d_37">
    <path d="M 416.908065 384.9 
L 416.908065 25.989109 
" style="fill:none;stroke:#000000;stroke-linecap:square;"/>
   </g>
   <g id="patch_3">
    <path d="M 54.525 22.4 
L 503.88 22.4 
" style="fill:none;stroke:#000000;stroke-linecap:square;stroke-linejoin:miter;"/>
   </g>
   <g id="patch_4">
    <path d="M 503.88 384.9 
L 503.88 22.4 
" style="fill:none;stroke:#000000;stroke-linecap:square;stroke-linejoin:miter;"/>
   </g>
   <g id="patch_5">
    <path d="M 54.525 384.9 
L 503.88 384.9 
" style="fill:none;stroke:#000000;stroke-linecap:square;stroke-linejoin:miter;"/>
   </g>
   <g id="patch_6">
    <path d="M 54.525 384.9 
L 54.525 22.4 
" style="fill:none;stroke:#000000;stroke-linecap:square;stroke-linejoin:miter;"/>
   </g>
   <g id="matplotlib.axis_1">
    <g id="xtick_1">
     <g id="line2d_38">
      <path clip-path="url(#p7ae594e965)" d="M 54.525 384.9 
L 54.525 22.4 
" style="fill:none;stroke:#000000;stroke-dasharray:1.000000,3.000000;stroke-dashoffset:0.0;stroke-width:0.5;"/>
     </g>
     <g id="line2d_39">
      <defs>
       <path d="M 0 0 
L 0 -4 
" id="m43c2a298bf" style="stroke:#000000;stroke-width:0.5;"/>
      </defs>
      <g>
       <use style="stroke:#000000;stroke-width:0.5;" x="54.525" xlink:href="#m43c2a298bf" y="384.9"/>
      </g>
     </g>
     <g id="line2d_40">
      <defs>
       <path d="M 0 0 
L 0 4 
" id="m93e4239d51" style="stroke:#000000;stroke-width:0.5;"/>
      </defs>
      <g>
       <use style="stroke:#000000;stroke-width:0.5;" x="54.525" xlink:href="#m93e4239d51" y="22.4"/>
      </g>
     </g>
     <g id="text_1">
      <!-- 0 -->
      <defs>
       <path d="M 31.78125 66.40625 
Q 24.171875 66.40625 20.328125 58.90625 
Q 16.5 51.421875 16.5 36.375 
Q 16.5 21.390625 20.328125 13.890625 
Q 24.171875 6.390625 31.78125 6.390625 
Q 39.453125 6.390625 43.28125 13.890625 
Q 47.125 21.390625 47.125 36.375 
Q 47.125 51.421875 43.28125 58.90625 
Q 39.453125 66.40625 31.78125 66.40625 
M 31.78125 74.21875 
Q 44.046875 74.21875 50.515625 64.515625 
Q 56.984375 54.828125 56.984375 36.375 
Q 56.984375 17.96875 50.515625 8.265625 
Q 44.046875 -1.421875 31.78125 -1.421875 
Q 19.53125 -1.421875 13.0625 8.265625 
Q 6.59375 17.96875 6.59375 36.375 
Q 6.59375 54.828125 13.0625 64.515625 
Q 19.53125 74.21875 31.78125 74.21875 
" id="BitstreamVeraSans-Roman-30"/>
      </defs>
      <g transform="translate(48.1625 404.096875)scale(0.2 -0.2)">
       <use xlink:href="#BitstreamVeraSans-Roman-30"/>
      </g>
     </g>
    </g>
    <g id="xtick_2">
     <g id="line2d_41">
      <path clip-path="url(#p7ae594e965)" d="M 106.294009 384.9 
L 106.294009 22.4 
" style="fill:none;stroke:#000000;stroke-dasharray:1.000000,3.000000;stroke-dashoffset:0.0;stroke-width:0.5;"/>
     </g>
     <g id="line2d_42">
      <g>
       <use style="stroke:#000000;stroke-width:0.5;" x="106.294009217" xlink:href="#m43c2a298bf" y="384.9"/>
      </g>
     </g>
     <g id="line2d_43">
      <g>
       <use style="stroke:#000000;stroke-width:0.5;" x="106.294009217" xlink:href="#m93e4239d51" y="22.4"/>
      </g>
     </g>
     <g id="text_2">
      <!-- 1 -->
      <defs>
       <path d="M 12.40625 8.296875 
L 28.515625 8.296875 
L 28.515625 63.921875 
L 10.984375 60.40625 
L 10.984375 69.390625 
L 28.421875 72.90625 
L 38.28125 72.90625 
L 38.28125 8.296875 
L 54.390625 8.296875 
L 54.390625 0 
L 12.40625 0 
z
" id="BitstreamVeraSans-Roman-31"/>
      </defs>
      <g transform="translate(99.9315092166 404.096875)scale(0.2 -0.2)">
       <use xlink:href="#BitstreamVeraSans-Roman-31"/>
      </g>
     </g>
    </g>
    <g id="xtick_3">
     <g id="line2d_44">
      <path clip-path="url(#p7ae594e965)" d="M 158.063018 384.9 
L 158.063018 22.4 
" style="fill:none;stroke:#000000;stroke-dasharray:1.000000,3.000000;stroke-dashoffset:0.0;stroke-width:0.5;"/>
     </g>
     <g id="line2d_45">
      <g>
       <use style="stroke:#000000;stroke-width:0.5;" x="158.063018433" xlink:href="#m43c2a298bf" y="384.9"/>
      </g>
     </g>
     <g id="line2d_46">
      <g>
       <use style="stroke:#000000;stroke-width:0.5;" x="158.063018433" xlink:href="#m93e4239d51" y="22.4"/>
      </g>
     </g>
     <g id="text_3">
      <!-- 2 -->
      <defs>
       <path d="M 19.1875 8.296875 
L 53.609375 8.296875 
L 53.609375 0 
L 7.328125 0 
L 7.328125 8.296875 
Q 12.9375 14.109375 22.625 23.890625 
Q 32.328125 33.6875 34.8125 36.53125 
Q 39.546875 41.84375 41.421875 45.53125 
Q 43.3125 49.21875 43.3125 52.78125 
Q 43.3125 58.59375 39.234375 62.25 
Q 35.15625 65.921875 28.609375 65.921875 
Q 23.96875 65.921875 18.8125 64.3125 
Q 13.671875 62.703125 7.8125 59.421875 
L 7.8125 69.390625 
Q 13.765625 71.78125 18.9375 73 
Q 24.125 74.21875 28.421875 74.21875 
Q 39.75 74.21875 46.484375 68.546875 
Q 53.21875 62.890625 53.21875 53.421875 
Q 53.21875 48.921875 51.53125 44.890625 
Q 49.859375 40.875 45.40625 35.40625 
Q 44.1875 33.984375 37.640625 27.21875 
Q 31.109375 20.453125 19.1875 8.296875 
" id="BitstreamVeraSans-Roman-32"/>
      </defs>
      <g transform="translate(151.700518433 404.096875)scale(0.2 -0.2)">
       <use xlink:href="#BitstreamVeraSans-Roman-32"/>
      </g>
     </g>
    </g>
    <g id="xtick_4">
     <g id="line2d_47">
      <path clip-path="url(#p7ae594e965)" d="M 209.832028 384.9 
L 209.832028 22.4 
" style="fill:none;stroke:#000000;stroke-dasharray:1.000000,3.000000;stroke-dashoffset:0.0;stroke-width:0.5;"/>
     </g>
     <g id="line2d_48">
      <g>
       <use style="stroke:#000000;stroke-width:0.5;" x="209.83202765" xlink:href="#m43c2a298bf" y="384.9"/>
      </g>
     </g>
     <g id="line2d_49">
      <g>
       <use style="stroke:#000000;stroke-width:0.5;" x="209.83202765" xlink:href="#m93e4239d51" y="22.4"/>
      </g>
     </g>
     <g id="text_4">
      <!-- 3 -->
      <defs>
       <path d="M 40.578125 39.3125 
Q 47.65625 37.796875 51.625 33 
Q 55.609375 28.21875 55.609375 21.1875 
Q 55.609375 10.40625 48.1875 4.484375 
Q 40.765625 -1.421875 27.09375 -1.421875 
Q 22.515625 -1.421875 17.65625 -0.515625 
Q 12.796875 0.390625 7.625 2.203125 
L 7.625 11.71875 
Q 11.71875 9.328125 16.59375 8.109375 
Q 21.484375 6.890625 26.8125 6.890625 
Q 36.078125 6.890625 40.9375 10.546875 
Q 45.796875 14.203125 45.796875 21.1875 
Q 45.796875 27.640625 41.28125 31.265625 
Q 36.765625 34.90625 28.71875 34.90625 
L 20.21875 34.90625 
L 20.21875 43.015625 
L 29.109375 43.015625 
Q 36.375 43.015625 40.234375 45.921875 
Q 44.09375 48.828125 44.09375 54.296875 
Q 44.09375 59.90625 40.109375 62.90625 
Q 36.140625 65.921875 28.71875 65.921875 
Q 24.65625 65.921875 20.015625 65.03125 
Q 15.375 64.15625 9.8125 62.3125 
L 9.8125 71.09375 
Q 15.4375 72.65625 20.34375 73.4375 
Q 25.25 74.21875 29.59375 74.21875 
Q 40.828125 74.21875 47.359375 69.109375 
Q 53.90625 64.015625 53.90625 55.328125 
Q 53.90625 49.265625 50.4375 45.09375 
Q 46.96875 40.921875 40.578125 39.3125 
" id="BitstreamVeraSans-Roman-33"/>
      </defs>
      <g transform="translate(203.46952765 404.096875)scale(0.2 -0.2)">
       <use xlink:href="#BitstreamVeraSans-Roman-33"/>
      </g>
     </g>
    </g>
    <g id="xtick_5">
     <g id="line2d_50">
      <path clip-path="url(#p7ae594e965)" d="M 261.601037 384.9 
L 261.601037 22.4 
" style="fill:none;stroke:#000000;stroke-dasharray:1.000000,3.000000;stroke-dashoffset:0.0;stroke-width:0.5;"/>
     </g>
     <g id="line2d_51">
      <g>
       <use style="stroke:#000000;stroke-width:0.5;" x="261.601036866" xlink:href="#m43c2a298bf" y="384.9"/>
      </g>
     </g>
     <g id="line2d_52">
      <g>
       <use style="stroke:#000000;stroke-width:0.5;" x="261.601036866" xlink:href="#m93e4239d51" y="22.4"/>
      </g>
     </g>
     <g id="text_5">
      <!-- 4 -->
      <defs>
       <path d="M 37.796875 64.3125 
L 12.890625 25.390625 
L 37.796875 25.390625 
z
M 35.203125 72.90625 
L 47.609375 72.90625 
L 47.609375 25.390625 
L 58.015625 25.390625 
L 58.015625 17.1875 
L 47.609375 17.1875 
L 47.609375 0 
L 37.796875 0 
L 37.796875 17.1875 
L 4.890625 17.1875 
L 4.890625 26.703125 
z
" id="BitstreamVeraSans-Roman-34"/>
      </defs>
      <g transform="translate(255.238536866 404.096875)scale(0.2 -0.2)">
       <use xlink:href="#BitstreamVeraSans-Roman-34"/>
      </g>
     </g>
    </g>
    <g id="xtick_6">
     <g id="line2d_53">
      <path clip-path="url(#p7ae594e965)" d="M 313.370046 384.9 
L 313.370046 22.4 
" style="fill:none;stroke:#000000;stroke-dasharray:1.000000,3.000000;stroke-dashoffset:0.0;stroke-width:0.5;"/>
     </g>
     <g id="line2d_54">
      <g>
       <use style="stroke:#000000;stroke-width:0.5;" x="313.370046083" xlink:href="#m43c2a298bf" y="384.9"/>
      </g>
     </g>
     <g id="line2d_55">
      <g>
       <use style="stroke:#000000;stroke-width:0.5;" x="313.370046083" xlink:href="#m93e4239d51" y="22.4"/>
      </g>
     </g>
     <g id="text_6">
      <!-- 5 -->
      <defs>
       <path d="M 10.796875 72.90625 
L 49.515625 72.90625 
L 49.515625 64.59375 
L 19.828125 64.59375 
L 19.828125 46.734375 
Q 21.96875 47.46875 24.109375 47.828125 
Q 26.265625 48.1875 28.421875 48.1875 
Q 40.625 48.1875 47.75 41.5 
Q 54.890625 34.8125 54.890625 23.390625 
Q 54.890625 11.625 47.5625 5.09375 
Q 40.234375 -1.421875 26.90625 -1.421875 
Q 22.3125 -1.421875 17.546875 -0.640625 
Q 12.796875 0.140625 7.71875 1.703125 
L 7.71875 11.625 
Q 12.109375 9.234375 16.796875 8.0625 
Q 21.484375 6.890625 26.703125 6.890625 
Q 35.15625 6.890625 40.078125 11.328125 
Q 45.015625 15.765625 45.015625 23.390625 
Q 45.015625 31 40.078125 35.4375 
Q 35.15625 39.890625 26.703125 39.890625 
Q 22.75 39.890625 18.8125 39.015625 
Q 14.890625 38.140625 10.796875 36.28125 
z
" id="BitstreamVeraSans-Roman-35"/>
      </defs>
      <g transform="translate(307.007546083 404.096875)scale(0.2 -0.2)">
       <use xlink:href="#BitstreamVeraSans-Roman-35"/>
      </g>
     </g>
    </g>
    <g id="xtick_7">
     <g id="line2d_56">
      <path clip-path="url(#p7ae594e965)" d="M 365.139055 384.9 
L 365.139055 22.4 
" style="fill:none;stroke:#000000;stroke-dasharray:1.000000,3.000000;stroke-dashoffset:0.0;stroke-width:0.5;"/>
     </g>
     <g id="line2d_57">
      <g>
       <use style="stroke:#000000;stroke-width:0.5;" x="365.1390553" xlink:href="#m43c2a298bf" y="384.9"/>
      </g>
     </g>
     <g id="line2d_58">
      <g>
       <use style="stroke:#000000;stroke-width:0.5;" x="365.1390553" xlink:href="#m93e4239d51" y="22.4"/>
      </g>
     </g>
     <g id="text_7">
      <!-- 6 -->
      <defs>
       <path d="M 33.015625 40.375 
Q 26.375 40.375 22.484375 35.828125 
Q 18.609375 31.296875 18.609375 23.390625 
Q 18.609375 15.53125 22.484375 10.953125 
Q 26.375 6.390625 33.015625 6.390625 
Q 39.65625 6.390625 43.53125 10.953125 
Q 47.40625 15.53125 47.40625 23.390625 
Q 47.40625 31.296875 43.53125 35.828125 
Q 39.65625 40.375 33.015625 40.375 
M 52.59375 71.296875 
L 52.59375 62.3125 
Q 48.875 64.0625 45.09375 64.984375 
Q 41.3125 65.921875 37.59375 65.921875 
Q 27.828125 65.921875 22.671875 59.328125 
Q 17.53125 52.734375 16.796875 39.40625 
Q 19.671875 43.65625 24.015625 45.921875 
Q 28.375 48.1875 33.59375 48.1875 
Q 44.578125 48.1875 50.953125 41.515625 
Q 57.328125 34.859375 57.328125 23.390625 
Q 57.328125 12.15625 50.6875 5.359375 
Q 44.046875 -1.421875 33.015625 -1.421875 
Q 20.359375 -1.421875 13.671875 8.265625 
Q 6.984375 17.96875 6.984375 36.375 
Q 6.984375 53.65625 15.1875 63.9375 
Q 23.390625 74.21875 37.203125 74.21875 
Q 40.921875 74.21875 44.703125 73.484375 
Q 48.484375 72.75 52.59375 71.296875 
" id="BitstreamVeraSans-Roman-36"/>
      </defs>
      <g transform="translate(358.7765553 404.096875)scale(0.2 -0.2)">
       <use xlink:href="#BitstreamVeraSans-Roman-36"/>
      </g>
     </g>
    </g>
    <g id="xtick_8">
     <g id="line2d_59">
      <path clip-path="url(#p7ae594e965)" d="M 416.908065 384.9 
L 416.908065 22.4 
" style="fill:none;stroke:#000000;stroke-dasharray:1.000000,3.000000;stroke-dashoffset:0.0;stroke-width:0.5;"/>
     </g>
     <g id="line2d_60">
      <g>
       <use style="stroke:#000000;stroke-width:0.5;" x="416.908064516" xlink:href="#m43c2a298bf" y="384.9"/>
      </g>
     </g>
     <g id="line2d_61">
      <g>
       <use style="stroke:#000000;stroke-width:0.5;" x="416.908064516" xlink:href="#m93e4239d51" y="22.4"/>
      </g>
     </g>
     <g id="text_8">
      <!-- 7 -->
      <defs>
       <path d="M 8.203125 72.90625 
L 55.078125 72.90625 
L 55.078125 68.703125 
L 28.609375 0 
L 18.3125 0 
L 43.21875 64.59375 
L 8.203125 64.59375 
z
" id="BitstreamVeraSans-Roman-37"/>
      </defs>
      <g transform="translate(410.545564516 404.096875)scale(0.2 -0.2)">
       <use xlink:href="#BitstreamVeraSans-Roman-37"/>
      </g>
     </g>
    </g>
    <g id="xtick_9">
     <g id="line2d_62">
      <path clip-path="url(#p7ae594e965)" d="M 468.677074 384.9 
L 468.677074 22.4 
" style="fill:none;stroke:#000000;stroke-dasharray:1.000000,3.000000;stroke-dashoffset:0.0;stroke-width:0.5;"/>
     </g>
     <g id="line2d_63">
      <g>
       <use style="stroke:#000000;stroke-width:0.5;" x="468.677073733" xlink:href="#m43c2a298bf" y="384.9"/>
      </g>
     </g>
     <g id="line2d_64">
      <g>
       <use style="stroke:#000000;stroke-width:0.5;" x="468.677073733" xlink:href="#m93e4239d51" y="22.4"/>
      </g>
     </g>
     <g id="text_9">
      <!-- 8 -->
      <defs>
       <path d="M 31.78125 34.625 
Q 24.75 34.625 20.71875 30.859375 
Q 16.703125 27.09375 16.703125 20.515625 
Q 16.703125 13.921875 20.71875 10.15625 
Q 24.75 6.390625 31.78125 6.390625 
Q 38.8125 6.390625 42.859375 10.171875 
Q 46.921875 13.96875 46.921875 20.515625 
Q 46.921875 27.09375 42.890625 30.859375 
Q 38.875 34.625 31.78125 34.625 
M 21.921875 38.8125 
Q 15.578125 40.375 12.03125 44.71875 
Q 8.5 49.078125 8.5 55.328125 
Q 8.5 64.0625 14.71875 69.140625 
Q 20.953125 74.21875 31.78125 74.21875 
Q 42.671875 74.21875 48.875 69.140625 
Q 55.078125 64.0625 55.078125 55.328125 
Q 55.078125 49.078125 51.53125 44.71875 
Q 48 40.375 41.703125 38.8125 
Q 48.828125 37.15625 52.796875 32.3125 
Q 56.78125 27.484375 56.78125 20.515625 
Q 56.78125 9.90625 50.3125 4.234375 
Q 43.84375 -1.421875 31.78125 -1.421875 
Q 19.734375 -1.421875 13.25 4.234375 
Q 6.78125 9.90625 6.78125 20.515625 
Q 6.78125 27.484375 10.78125 32.3125 
Q 14.796875 37.15625 21.921875 38.8125 
M 18.3125 54.390625 
Q 18.3125 48.734375 21.84375 45.5625 
Q 25.390625 42.390625 31.78125 42.390625 
Q 38.140625 42.390625 41.71875 45.5625 
Q 45.3125 48.734375 45.3125 54.390625 
Q 45.3125 60.0625 41.71875 63.234375 
Q 38.140625 66.40625 31.78125 66.40625 
Q 25.390625 66.40625 21.84375 63.234375 
Q 18.3125 60.0625 18.3125 54.390625 
" id="BitstreamVeraSans-Roman-38"/>
      </defs>
      <g transform="translate(462.314573733 404.096875)scale(0.2 -0.2)">
       <use xlink:href="#BitstreamVeraSans-Roman-38"/>
      </g>
     </g>
    </g>
    <g id="xtick_10">
     <g id="line2d_65">
      <defs>
       <path d="M 0 0 
L 0 -2 
" id="mbf575bf094" style="stroke:#000000;stroke-width:0.5;"/>
      </defs>
      <g>
       <use style="stroke:#000000;stroke-width:0.5;" x="70.10902462" xlink:href="#mbf575bf094" y="384.9"/>
      </g>
     </g>
     <g id="line2d_66">
      <defs>
       <path d="M 0 0 
L 0 2 
" id="m10a4f76387" style="stroke:#000000;stroke-width:0.5;"/>
      </defs>
      <g>
       <use style="stroke:#000000;stroke-width:0.5;" x="70.10902462" xlink:href="#m10a4f76387" y="22.4"/>
      </g>
     </g>
    </g>
    <g id="xtick_11">
     <g id="line2d_67">
      <g>
       <use style="stroke:#000000;stroke-width:0.5;" x="85.69304924" xlink:href="#mbf575bf094" y="384.9"/>
      </g>
     </g>
     <g id="line2d_68">
      <g>
       <use style="stroke:#000000;stroke-width:0.5;" x="85.69304924" xlink:href="#m10a4f76387" y="22.4"/>
      </g>
     </g>
    </g>
    <g id="xtick_12">
     <g id="line2d_69">
      <g>
       <use style="stroke:#000000;stroke-width:0.5;" x="94.809119253" xlink:href="#mbf575bf094" y="384.9"/>
      </g>
     </g>
     <g id="line2d_70">
      <g>
       <use style="stroke:#000000;stroke-width:0.5;" x="94.809119253" xlink:href="#m10a4f76387" y="22.4"/>
      </g>
     </g>
    </g>
    <g id="xtick_13">
     <g id="line2d_71">
      <g>
       <use style="stroke:#000000;stroke-width:0.5;" x="101.27707386" xlink:href="#mbf575bf094" y="384.9"/>
      </g>
     </g>
     <g id="line2d_72">
      <g>
       <use style="stroke:#000000;stroke-width:0.5;" x="101.27707386" xlink:href="#m10a4f76387" y="22.4"/>
      </g>
     </g>
    </g>
    <g id="xtick_14">
     <g id="line2d_73">
      <g>
       <use style="stroke:#000000;stroke-width:0.5;" x="121.878033837" xlink:href="#mbf575bf094" y="384.9"/>
      </g>
     </g>
     <g id="line2d_74">
      <g>
       <use style="stroke:#000000;stroke-width:0.5;" x="121.878033837" xlink:href="#m10a4f76387" y="22.4"/>
      </g>
     </g>
    </g>
    <g id="xtick_15">
     <g id="line2d_75">
      <g>
       <use style="stroke:#000000;stroke-width:0.5;" x="137.462058457" xlink:href="#mbf575bf094" y="384.9"/>
      </g>
     </g>
     <g id="line2d_76">
      <g>
       <use style="stroke:#000000;stroke-width:0.5;" x="137.462058457" xlink:href="#m10a4f76387" y="22.4"/>
      </g>
     </g>
    </g>
    <g id="xtick_16">
     <g id="line2d_77">
      <g>
       <use style="stroke:#000000;stroke-width:0.5;" x="146.57812847" xlink:href="#mbf575bf094" y="384.9"/>
      </g>
     </g>
     <g id="line2d_78">
      <g>
       <use style="stroke:#000000;stroke-width:0.5;" x="146.57812847" xlink:href="#m10a4f76387" y="22.4"/>
      </g>
     </g>
    </g>
    <g id="xtick_17">
     <g id="line2d_79">
      <g>
       <use style="stroke:#000000;stroke-width:0.5;" x="153.046083077" xlink:href="#mbf575bf094" y="384.9"/>
      </g>
     </g>
     <g id="line2d_80">
      <g>
       <use style="stroke:#000000;stroke-width:0.5;" x="153.046083077" xlink:href="#m10a4f76387" y="22.4"/>
      </g>
     </g>
    </g>
    <g id="xtick_18">
     <g id="line2d_81">
      <g>
       <use style="stroke:#000000;stroke-width:0.5;" x="173.647043053" xlink:href="#mbf575bf094" y="384.9"/>
      </g>
     </g>
     <g id="line2d_82">
      <g>
       <use style="stroke:#000000;stroke-width:0.5;" x="173.647043053" xlink:href="#m10a4f76387" y="22.4"/>
      </g>
     </g>
    </g>
    <g id="xtick_19">
     <g id="line2d_83">
      <g>
       <use style="stroke:#000000;stroke-width:0.5;" x="189.231067673" xlink:href="#mbf575bf094" y="384.9"/>
      </g>
     </g>
     <g id="line2d_84">
      <g>
       <use style="stroke:#000000;stroke-width:0.5;" x="189.231067673" xlink:href="#m10a4f76387" y="22.4"/>
      </g>
     </g>
    </g>
    <g id="xtick_20">
     <g id="line2d_85">
      <g>
       <use style="stroke:#000000;stroke-width:0.5;" x="198.347137686" xlink:href="#mbf575bf094" y="384.9"/>
      </g>
     </g>
     <g id="line2d_86">
      <g>
       <use style="stroke:#000000;stroke-width:0.5;" x="198.347137686" xlink:href="#m10a4f76387" y="22.4"/>
      </g>
     </g>
    </g>
    <g id="xtick_21">
     <g id="line2d_87">
      <g>
       <use style="stroke:#000000;stroke-width:0.5;" x="204.815092293" xlink:href="#mbf575bf094" y="384.9"/>
      </g>
     </g>
     <g id="line2d_88">
      <g>
       <use style="stroke:#000000;stroke-width:0.5;" x="204.815092293" xlink:href="#m10a4f76387" y="22.4"/>
      </g>
     </g>
    </g>
    <g id="xtick_22">
     <g id="line2d_89">
      <g>
       <use style="stroke:#000000;stroke-width:0.5;" x="225.41605227" xlink:href="#mbf575bf094" y="384.9"/>
      </g>
     </g>
     <g id="line2d_90">
      <g>
       <use style="stroke:#000000;stroke-width:0.5;" x="225.41605227" xlink:href="#m10a4f76387" y="22.4"/>
      </g>
     </g>
    </g>
    <g id="xtick_23">
     <g id="line2d_91">
      <g>
       <use style="stroke:#000000;stroke-width:0.5;" x="241.00007689" xlink:href="#mbf575bf094" y="384.9"/>
      </g>
     </g>
     <g id="line2d_92">
      <g>
       <use style="stroke:#000000;stroke-width:0.5;" x="241.00007689" xlink:href="#m10a4f76387" y="22.4"/>
      </g>
     </g>
    </g>
    <g id="xtick_24">
     <g id="line2d_93">
      <g>
       <use style="stroke:#000000;stroke-width:0.5;" x="250.116146903" xlink:href="#mbf575bf094" y="384.9"/>
      </g>
     </g>
     <g id="line2d_94">
      <g>
       <use style="stroke:#000000;stroke-width:0.5;" x="250.116146903" xlink:href="#m10a4f76387" y="22.4"/>
      </g>
     </g>
    </g>
    <g id="xtick_25">
     <g id="line2d_95">
      <g>
       <use style="stroke:#000000;stroke-width:0.5;" x="256.58410151" xlink:href="#mbf575bf094" y="384.9"/>
      </g>
     </g>
     <g id="line2d_96">
      <g>
       <use style="stroke:#000000;stroke-width:0.5;" x="256.58410151" xlink:href="#m10a4f76387" y="22.4"/>
      </g>
     </g>
    </g>
    <g id="xtick_26">
     <g id="line2d_97">
      <g>
       <use style="stroke:#000000;stroke-width:0.5;" x="277.185061486" xlink:href="#mbf575bf094" y="384.9"/>
      </g>
     </g>
     <g id="line2d_98">
      <g>
       <use style="stroke:#000000;stroke-width:0.5;" x="277.185061486" xlink:href="#m10a4f76387" y="22.4"/>
      </g>
     </g>
    </g>
    <g id="xtick_27">
     <g id="line2d_99">
      <g>
       <use style="stroke:#000000;stroke-width:0.5;" x="292.769086106" xlink:href="#mbf575bf094" y="384.9"/>
      </g>
     </g>
     <g id="line2d_100">
      <g>
       <use style="stroke:#000000;stroke-width:0.5;" x="292.769086106" xlink:href="#m10a4f76387" y="22.4"/>
      </g>
     </g>
    </g>
    <g id="xtick_28">
     <g id="line2d_101">
      <g>
       <use style="stroke:#000000;stroke-width:0.5;" x="301.885156119" xlink:href="#mbf575bf094" y="384.9"/>
      </g>
     </g>
     <g id="line2d_102">
      <g>
       <use style="stroke:#000000;stroke-width:0.5;" x="301.885156119" xlink:href="#m10a4f76387" y="22.4"/>
      </g>
     </g>
    </g>
    <g id="xtick_29">
     <g id="line2d_103">
      <g>
       <use style="stroke:#000000;stroke-width:0.5;" x="308.353110726" xlink:href="#mbf575bf094" y="384.9"/>
      </g>
     </g>
     <g id="line2d_104">
      <g>
       <use style="stroke:#000000;stroke-width:0.5;" x="308.353110726" xlink:href="#m10a4f76387" y="22.4"/>
      </g>
     </g>
    </g>
    <g id="xtick_30">
     <g id="line2d_105">
      <g>
       <use style="stroke:#000000;stroke-width:0.5;" x="328.954070703" xlink:href="#mbf575bf094" y="384.9"/>
      </g>
     </g>
     <g id="line2d_106">
      <g>
       <use style="stroke:#000000;stroke-width:0.5;" x="328.954070703" xlink:href="#m10a4f76387" y="22.4"/>
      </g>
     </g>
    </g>
    <g id="xtick_31">
     <g id="line2d_107">
      <g>
       <use style="stroke:#000000;stroke-width:0.5;" x="344.538095323" xlink:href="#mbf575bf094" y="384.9"/>
      </g>
     </g>
     <g id="line2d_108">
      <g>
       <use style="stroke:#000000;stroke-width:0.5;" x="344.538095323" xlink:href="#m10a4f76387" y="22.4"/>
      </g>
     </g>
    </g>
    <g id="xtick_32">
     <g id="line2d_109">
      <g>
       <use style="stroke:#000000;stroke-width:0.5;" x="353.654165336" xlink:href="#mbf575bf094" y="384.9"/>
      </g>
     </g>
     <g id="line2d_110">
      <g>
       <use style="stroke:#000000;stroke-width:0.5;" x="353.654165336" xlink:href="#m10a4f76387" y="22.4"/>
      </g>
     </g>
    </g>
    <g id="xtick_33">
     <g id="line2d_111">
      <g>
       <use style="stroke:#000000;stroke-width:0.5;" x="360.122119943" xlink:href="#mbf575bf094" y="384.9"/>
      </g>
     </g>
     <g id="line2d_112">
      <g>
       <use style="stroke:#000000;stroke-width:0.5;" x="360.122119943" xlink:href="#m10a4f76387" y="22.4"/>
      </g>
     </g>
    </g>
    <g id="xtick_34">
     <g id="line2d_113">
      <g>
       <use style="stroke:#000000;stroke-width:0.5;" x="380.72307992" xlink:href="#mbf575bf094" y="384.9"/>
      </g>
     </g>
     <g id="line2d_114">
      <g>
       <use style="stroke:#000000;stroke-width:0.5;" x="380.72307992" xlink:href="#m10a4f76387" y="22.4"/>
      </g>
     </g>
    </g>
    <g id="xtick_35">
     <g id="line2d_115">
      <g>
       <use style="stroke:#000000;stroke-width:0.5;" x="396.30710454" xlink:href="#mbf575bf094" y="384.9"/>
      </g>
     </g>
     <g id="line2d_116">
      <g>
       <use style="stroke:#000000;stroke-width:0.5;" x="396.30710454" xlink:href="#m10a4f76387" y="22.4"/>
      </g>
     </g>
    </g>
    <g id="xtick_36">
     <g id="line2d_117">
      <g>
       <use style="stroke:#000000;stroke-width:0.5;" x="405.423174553" xlink:href="#mbf575bf094" y="384.9"/>
      </g>
     </g>
     <g id="line2d_118">
      <g>
       <use style="stroke:#000000;stroke-width:0.5;" x="405.423174553" xlink:href="#m10a4f76387" y="22.4"/>
      </g>
     </g>
    </g>
    <g id="xtick_37">
     <g id="line2d_119">
      <g>
       <use style="stroke:#000000;stroke-width:0.5;" x="411.89112916" xlink:href="#mbf575bf094" y="384.9"/>
      </g>
     </g>
     <g id="line2d_120">
      <g>
       <use style="stroke:#000000;stroke-width:0.5;" x="411.89112916" xlink:href="#m10a4f76387" y="22.4"/>
      </g>
     </g>
    </g>
    <g id="xtick_38">
     <g id="line2d_121">
      <g>
       <use style="stroke:#000000;stroke-width:0.5;" x="432.492089136" xlink:href="#mbf575bf094" y="384.9"/>
      </g>
     </g>
     <g id="line2d_122">
      <g>
       <use style="stroke:#000000;stroke-width:0.5;" x="432.492089136" xlink:href="#m10a4f76387" y="22.4"/>
      </g>
     </g>
    </g>
    <g id="xtick_39">
     <g id="line2d_123">
      <g>
       <use style="stroke:#000000;stroke-width:0.5;" x="448.076113756" xlink:href="#mbf575bf094" y="384.9"/>
      </g>
     </g>
     <g id="line2d_124">
      <g>
       <use style="stroke:#000000;stroke-width:0.5;" x="448.076113756" xlink:href="#m10a4f76387" y="22.4"/>
      </g>
     </g>
    </g>
    <g id="xtick_40">
     <g id="line2d_125">
      <g>
       <use style="stroke:#000000;stroke-width:0.5;" x="457.192183769" xlink:href="#mbf575bf094" y="384.9"/>
      </g>
     </g>
     <g id="line2d_126">
      <g>
       <use style="stroke:#000000;stroke-width:0.5;" x="457.192183769" xlink:href="#m10a4f76387" y="22.4"/>
      </g>
     </g>
    </g>
    <g id="xtick_41">
     <g id="line2d_127">
      <g>
       <use style="stroke:#000000;stroke-width:0.5;" x="463.660138376" xlink:href="#mbf575bf094" y="384.9"/>
      </g>
     </g>
     <g id="line2d_128">
      <g>
       <use style="stroke:#000000;stroke-width:0.5;" x="463.660138376" xlink:href="#m10a4f76387" y="22.4"/>
      </g>
     </g>
    </g>
    <g id="xtick_42">
     <g id="line2d_129">
      <g>
       <use style="stroke:#000000;stroke-width:0.5;" x="484.261098353" xlink:href="#mbf575bf094" y="384.9"/>
      </g>
     </g>
     <g id="line2d_130">
      <g>
       <use style="stroke:#000000;stroke-width:0.5;" x="484.261098353" xlink:href="#m10a4f76387" y="22.4"/>
      </g>
     </g>
    </g>
    <g id="xtick_43">
     <g id="line2d_131">
      <g>
       <use style="stroke:#000000;stroke-width:0.5;" x="499.845122973" xlink:href="#mbf575bf094" y="384.9"/>
      </g>
     </g>
     <g id="line2d_132">
      <g>
       <use style="stroke:#000000;stroke-width:0.5;" x="499.845122973" xlink:href="#m10a4f76387" y="22.4"/>
      </g>
     </g>
    </g>
    <g id="text_10">
     <!-- log10(# f-evals / dimension) -->
     <defs>
      <path id="BitstreamVeraSans-Roman-20"/>
      <path d="M 51.125 44 
L 36.921875 44 
L 32.8125 27.6875 
L 47.125 27.6875 
z
M 43.796875 71.78125 
L 38.71875 51.515625 
L 52.984375 51.515625 
L 58.109375 71.78125 
L 65.921875 71.78125 
L 60.890625 51.515625 
L 76.125 51.515625 
L 76.125 44 
L 58.984375 44 
L 54.984375 27.6875 
L 70.515625 27.6875 
L 70.515625 20.21875 
L 53.078125 20.21875 
L 48 0 
L 40.1875 0 
L 45.21875 20.21875 
L 30.90625 20.21875 
L 25.875 0 
L 18.015625 0 
L 23.09375 20.21875 
L 7.71875 20.21875 
L 7.71875 27.6875 
L 24.90625 27.6875 
L 29 44 
L 13.28125 44 
L 13.28125 51.515625 
L 30.90625 51.515625 
L 35.890625 71.78125 
z
" id="BitstreamVeraSans-Roman-23"/>
      <path d="M 52 44.1875 
Q 55.375 50.25 60.0625 53.125 
Q 64.75 56 71.09375 56 
Q 79.640625 56 84.28125 50.015625 
Q 88.921875 44.046875 88.921875 33.015625 
L 88.921875 0 
L 79.890625 0 
L 79.890625 32.71875 
Q 79.890625 40.578125 77.09375 44.375 
Q 74.3125 48.1875 68.609375 48.1875 
Q 61.625 48.1875 57.5625 43.546875 
Q 53.515625 38.921875 53.515625 30.90625 
L 53.515625 0 
L 44.484375 0 
L 44.484375 32.71875 
Q 44.484375 40.625 41.703125 44.40625 
Q 38.921875 48.1875 33.109375 48.1875 
Q 26.21875 48.1875 22.15625 43.53125 
Q 18.109375 38.875 18.109375 30.90625 
L 18.109375 0 
L 9.078125 0 
L 9.078125 54.6875 
L 18.109375 54.6875 
L 18.109375 46.1875 
Q 21.1875 51.21875 25.484375 53.609375 
Q 29.78125 56 35.6875 56 
Q 41.65625 56 45.828125 52.96875 
Q 50 49.953125 52 44.1875 
" id="BitstreamVeraSans-Roman-6d"/>
      <path d="M 54.890625 33.015625 
L 54.890625 0 
L 45.90625 0 
L 45.90625 32.71875 
Q 45.90625 40.484375 42.875 44.328125 
Q 39.84375 48.1875 33.796875 48.1875 
Q 26.515625 48.1875 22.3125 43.546875 
Q 18.109375 38.921875 18.109375 30.90625 
L 18.109375 0 
L 9.078125 0 
L 9.078125 54.6875 
L 18.109375 54.6875 
L 18.109375 46.1875 
Q 21.34375 51.125 25.703125 53.5625 
Q 30.078125 56 35.796875 56 
Q 45.21875 56 50.046875 50.171875 
Q 54.890625 44.34375 54.890625 33.015625 
" id="BitstreamVeraSans-Roman-6e"/>
      <path d="M 31 75.875 
Q 24.46875 64.65625 21.28125 53.65625 
Q 18.109375 42.671875 18.109375 31.390625 
Q 18.109375 20.125 21.3125 9.0625 
Q 24.515625 -2 31 -13.1875 
L 23.1875 -13.1875 
Q 15.875 -1.703125 12.234375 9.375 
Q 8.59375 20.453125 8.59375 31.390625 
Q 8.59375 42.28125 12.203125 53.3125 
Q 15.828125 64.359375 23.1875 75.875 
z
" id="BitstreamVeraSans-Roman-28"/>
      <path d="M 30.609375 48.390625 
Q 23.390625 48.390625 19.1875 42.75 
Q 14.984375 37.109375 14.984375 27.296875 
Q 14.984375 17.484375 19.15625 11.84375 
Q 23.34375 6.203125 30.609375 6.203125 
Q 37.796875 6.203125 41.984375 11.859375 
Q 46.1875 17.53125 46.1875 27.296875 
Q 46.1875 37.015625 41.984375 42.703125 
Q 37.796875 48.390625 30.609375 48.390625 
M 30.609375 56 
Q 42.328125 56 49.015625 48.375 
Q 55.71875 40.765625 55.71875 27.296875 
Q 55.71875 13.875 49.015625 6.21875 
Q 42.328125 -1.421875 30.609375 -1.421875 
Q 18.84375 -1.421875 12.171875 6.21875 
Q 5.515625 13.875 5.515625 27.296875 
Q 5.515625 40.765625 12.171875 48.375 
Q 18.84375 56 30.609375 56 
" id="BitstreamVeraSans-Roman-6f"/>
      <path d="M 9.421875 75.984375 
L 18.40625 75.984375 
L 18.40625 0 
L 9.421875 0 
z
" id="BitstreamVeraSans-Roman-6c"/>
      <path d="M 2.984375 54.6875 
L 12.5 54.6875 
L 29.59375 8.796875 
L 46.6875 54.6875 
L 56.203125 54.6875 
L 35.6875 0 
L 23.484375 0 
z
" id="BitstreamVeraSans-Roman-76"/>
      <path d="M 9.421875 54.6875 
L 18.40625 54.6875 
L 18.40625 0 
L 9.421875 0 
z
M 9.421875 75.984375 
L 18.40625 75.984375 
L 18.40625 64.59375 
L 9.421875 64.59375 
z
" id="BitstreamVeraSans-Roman-69"/>
      <path d="M 4.890625 31.390625 
L 31.203125 31.390625 
L 31.203125 23.390625 
L 4.890625 23.390625 
z
" id="BitstreamVeraSans-Roman-2d"/>
      <path d="M 25.390625 72.90625 
L 33.6875 72.90625 
L 8.296875 -9.28125 
L 0 -9.28125 
z
" id="BitstreamVeraSans-Roman-2f"/>
      <path d="M 56.203125 29.59375 
L 56.203125 25.203125 
L 14.890625 25.203125 
Q 15.484375 15.921875 20.484375 11.0625 
Q 25.484375 6.203125 34.421875 6.203125 
Q 39.59375 6.203125 44.453125 7.46875 
Q 49.3125 8.734375 54.109375 11.28125 
L 54.109375 2.78125 
Q 49.265625 0.734375 44.1875 -0.34375 
Q 39.109375 -1.421875 33.890625 -1.421875 
Q 20.796875 -1.421875 13.15625 6.1875 
Q 5.515625 13.8125 5.515625 26.8125 
Q 5.515625 40.234375 12.765625 48.109375 
Q 20.015625 56 32.328125 56 
Q 43.359375 56 49.78125 48.890625 
Q 56.203125 41.796875 56.203125 29.59375 
M 47.21875 32.234375 
Q 47.125 39.59375 43.09375 43.984375 
Q 39.0625 48.390625 32.421875 48.390625 
Q 24.90625 48.390625 20.390625 44.140625 
Q 15.875 39.890625 15.1875 32.171875 
z
" id="BitstreamVeraSans-Roman-65"/>
      <path d="M 45.40625 46.390625 
L 45.40625 75.984375 
L 54.390625 75.984375 
L 54.390625 0 
L 45.40625 0 
L 45.40625 8.203125 
Q 42.578125 3.328125 38.25 0.953125 
Q 33.9375 -1.421875 27.875 -1.421875 
Q 17.96875 -1.421875 11.734375 6.484375 
Q 5.515625 14.40625 5.515625 27.296875 
Q 5.515625 40.1875 11.734375 48.09375 
Q 17.96875 56 27.875 56 
Q 33.9375 56 38.25 53.625 
Q 42.578125 51.265625 45.40625 46.390625 
M 14.796875 27.296875 
Q 14.796875 17.390625 18.875 11.75 
Q 22.953125 6.109375 30.078125 6.109375 
Q 37.203125 6.109375 41.296875 11.75 
Q 45.40625 17.390625 45.40625 27.296875 
Q 45.40625 37.203125 41.296875 42.84375 
Q 37.203125 48.484375 30.078125 48.484375 
Q 22.953125 48.484375 18.875 42.84375 
Q 14.796875 37.203125 14.796875 27.296875 
" id="BitstreamVeraSans-Roman-64"/>
      <path d="M 45.40625 27.984375 
Q 45.40625 37.75 41.375 43.109375 
Q 37.359375 48.484375 30.078125 48.484375 
Q 22.859375 48.484375 18.828125 43.109375 
Q 14.796875 37.75 14.796875 27.984375 
Q 14.796875 18.265625 18.828125 12.890625 
Q 22.859375 7.515625 30.078125 7.515625 
Q 37.359375 7.515625 41.375 12.890625 
Q 45.40625 18.265625 45.40625 27.984375 
M 54.390625 6.78125 
Q 54.390625 -7.171875 48.1875 -13.984375 
Q 42 -20.796875 29.203125 -20.796875 
Q 24.46875 -20.796875 20.265625 -20.09375 
Q 16.0625 -19.390625 12.109375 -17.921875 
L 12.109375 -9.1875 
Q 16.0625 -11.328125 19.921875 -12.34375 
Q 23.78125 -13.375 27.78125 -13.375 
Q 36.625 -13.375 41.015625 -8.765625 
Q 45.40625 -4.15625 45.40625 5.171875 
L 45.40625 9.625 
Q 42.625 4.78125 38.28125 2.390625 
Q 33.9375 0 27.875 0 
Q 17.828125 0 11.671875 7.65625 
Q 5.515625 15.328125 5.515625 27.984375 
Q 5.515625 40.671875 11.671875 48.328125 
Q 17.828125 56 27.875 56 
Q 33.9375 56 38.28125 53.609375 
Q 42.625 51.21875 45.40625 46.390625 
L 45.40625 54.6875 
L 54.390625 54.6875 
z
" id="BitstreamVeraSans-Roman-67"/>
      <path d="M 37.109375 75.984375 
L 37.109375 68.5 
L 28.515625 68.5 
Q 23.6875 68.5 21.796875 66.546875 
Q 19.921875 64.59375 19.921875 59.515625 
L 19.921875 54.6875 
L 34.71875 54.6875 
L 34.71875 47.703125 
L 19.921875 47.703125 
L 19.921875 0 
L 10.890625 0 
L 10.890625 47.703125 
L 2.296875 47.703125 
L 2.296875 54.6875 
L 10.890625 54.6875 
L 10.890625 58.5 
Q 10.890625 67.625 15.140625 71.796875 
Q 19.390625 75.984375 28.609375 75.984375 
z
" id="BitstreamVeraSans-Roman-66"/>
      <path d="M 34.28125 27.484375 
Q 23.390625 27.484375 19.1875 25 
Q 14.984375 22.515625 14.984375 16.5 
Q 14.984375 11.71875 18.140625 8.90625 
Q 21.296875 6.109375 26.703125 6.109375 
Q 34.1875 6.109375 38.703125 11.40625 
Q 43.21875 16.703125 43.21875 25.484375 
L 43.21875 27.484375 
z
M 52.203125 31.203125 
L 52.203125 0 
L 43.21875 0 
L 43.21875 8.296875 
Q 40.140625 3.328125 35.546875 0.953125 
Q 30.953125 -1.421875 24.3125 -1.421875 
Q 15.921875 -1.421875 10.953125 3.296875 
Q 6 8.015625 6 15.921875 
Q 6 25.140625 12.171875 29.828125 
Q 18.359375 34.515625 30.609375 34.515625 
L 43.21875 34.515625 
L 43.21875 35.40625 
Q 43.21875 41.609375 39.140625 45 
Q 35.0625 48.390625 27.6875 48.390625 
Q 23 48.390625 18.546875 47.265625 
Q 14.109375 46.140625 10.015625 43.890625 
L 10.015625 52.203125 
Q 14.9375 54.109375 19.578125 55.046875 
Q 24.21875 56 28.609375 56 
Q 40.484375 56 46.34375 49.84375 
Q 52.203125 43.703125 52.203125 31.203125 
" id="BitstreamVeraSans-Roman-61"/>
      <path d="M 44.28125 53.078125 
L 44.28125 44.578125 
Q 40.484375 46.53125 36.375 47.5 
Q 32.28125 48.484375 27.875 48.484375 
Q 21.1875 48.484375 17.84375 46.4375 
Q 14.5 44.390625 14.5 40.28125 
Q 14.5 37.15625 16.890625 35.375 
Q 19.28125 33.59375 26.515625 31.984375 
L 29.59375 31.296875 
Q 39.15625 29.25 43.1875 25.515625 
Q 47.21875 21.78125 47.21875 15.09375 
Q 47.21875 7.46875 41.1875 3.015625 
Q 35.15625 -1.421875 24.609375 -1.421875 
Q 20.21875 -1.421875 15.453125 -0.5625 
Q 10.6875 0.296875 5.421875 2 
L 5.421875 11.28125 
Q 10.40625 8.6875 15.234375 7.390625 
Q 20.0625 6.109375 24.8125 6.109375 
Q 31.15625 6.109375 34.5625 8.28125 
Q 37.984375 10.453125 37.984375 14.40625 
Q 37.984375 18.0625 35.515625 20.015625 
Q 33.0625 21.96875 24.703125 23.78125 
L 21.578125 24.515625 
Q 13.234375 26.265625 9.515625 29.90625 
Q 5.8125 33.546875 5.8125 39.890625 
Q 5.8125 47.609375 11.28125 51.796875 
Q 16.75 56 26.8125 56 
Q 31.78125 56 36.171875 55.265625 
Q 40.578125 54.546875 44.28125 53.078125 
" id="BitstreamVeraSans-Roman-73"/>
      <path d="M 8.015625 75.875 
L 15.828125 75.875 
Q 23.140625 64.359375 26.78125 53.3125 
Q 30.421875 42.28125 30.421875 31.390625 
Q 30.421875 20.453125 26.78125 9.375 
Q 23.140625 -1.703125 15.828125 -13.1875 
L 8.015625 -13.1875 
Q 14.5 -2 17.703125 9.0625 
Q 20.90625 20.125 20.90625 31.390625 
Q 20.90625 42.671875 17.703125 53.65625 
Q 14.5 64.65625 8.015625 75.875 
" id="BitstreamVeraSans-Roman-29"/>
     </defs>
     <g transform="translate(158.36171875 426.17359375)scale(0.17 -0.17)">
      <use xlink:href="#BitstreamVeraSans-Roman-6c"/>
      <use x="27.783203125" xlink:href="#BitstreamVeraSans-Roman-6f"/>
      <use x="88.96484375" xlink:href="#BitstreamVeraSans-Roman-67"/>
      <use x="152.44140625" xlink:href="#BitstreamVeraSans-Roman-31"/>
      <use x="216.064453125" xlink:href="#BitstreamVeraSans-Roman-30"/>
      <use x="279.6875" xlink:href="#BitstreamVeraSans-Roman-28"/>
      <use x="318.701171875" xlink:href="#BitstreamVeraSans-Roman-23"/>
      <use x="402.490234375" xlink:href="#BitstreamVeraSans-Roman-20"/>
      <use x="434.27734375" xlink:href="#BitstreamVeraSans-Roman-66"/>
      <use x="469.404296875" xlink:href="#BitstreamVeraSans-Roman-2d"/>
      <use x="505.48828125" xlink:href="#BitstreamVeraSans-Roman-65"/>
      <use x="567.01171875" xlink:href="#BitstreamVeraSans-Roman-76"/>
      <use x="626.19140625" xlink:href="#BitstreamVeraSans-Roman-61"/>
      <use x="687.470703125" xlink:href="#BitstreamVeraSans-Roman-6c"/>
      <use x="715.25390625" xlink:href="#BitstreamVeraSans-Roman-73"/>
      <use x="767.353515625" xlink:href="#BitstreamVeraSans-Roman-20"/>
      <use x="799.140625" xlink:href="#BitstreamVeraSans-Roman-2f"/>
      <use x="832.83203125" xlink:href="#BitstreamVeraSans-Roman-20"/>
      <use x="864.619140625" xlink:href="#BitstreamVeraSans-Roman-64"/>
      <use x="928.095703125" xlink:href="#BitstreamVeraSans-Roman-69"/>
      <use x="955.87890625" xlink:href="#BitstreamVeraSans-Roman-6d"/>
      <use x="1053.29101562" xlink:href="#BitstreamVeraSans-Roman-65"/>
      <use x="1114.81445312" xlink:href="#BitstreamVeraSans-Roman-6e"/>
      <use x="1178.19335938" xlink:href="#BitstreamVeraSans-Roman-73"/>
      <use x="1230.29296875" xlink:href="#BitstreamVeraSans-Roman-69"/>
      <use x="1258.07617188" xlink:href="#BitstreamVeraSans-Roman-6f"/>
      <use x="1319.2578125" xlink:href="#BitstreamVeraSans-Roman-6e"/>
      <use x="1382.63671875" xlink:href="#BitstreamVeraSans-Roman-29"/>
     </g>
    </g>
   </g>
   <g id="matplotlib.axis_2">
    <g id="ytick_1">
     <g id="line2d_133">
      <path clip-path="url(#p7ae594e965)" d="M 54.525 384.9 
L 503.88 384.9 
" style="fill:none;stroke:#000000;stroke-dasharray:1.000000,3.000000;stroke-dashoffset:0.0;stroke-width:0.5;"/>
     </g>
     <g id="line2d_134">
      <defs>
       <path d="M 0 0 
L 4 0 
" id="m4c783cf8a9" style="stroke:#000000;stroke-width:0.5;"/>
      </defs>
      <g>
       <use style="stroke:#000000;stroke-width:0.5;" x="54.525" xlink:href="#m4c783cf8a9" y="384.9"/>
      </g>
     </g>
     <g id="line2d_135">
      <defs>
       <path d="M 0 0 
L -4 0 
" id="mc2dc0d15f9" style="stroke:#000000;stroke-width:0.5;"/>
      </defs>
      <g>
       <use style="stroke:#000000;stroke-width:0.5;" x="503.88" xlink:href="#mc2dc0d15f9" y="384.9"/>
      </g>
     </g>
     <g id="text_11">
      <!-- 0.0 -->
      <defs>
       <path d="M 10.6875 12.40625 
L 21 12.40625 
L 21 0 
L 10.6875 0 
z
" id="BitstreamVeraSans-Roman-2e"/>
      </defs>
      <g transform="translate(25.08 389.315)scale(0.16 -0.16)">
       <use xlink:href="#BitstreamVeraSans-Roman-30"/>
       <use x="63.623046875" xlink:href="#BitstreamVeraSans-Roman-2e"/>
       <use x="95.41015625" xlink:href="#BitstreamVeraSans-Roman-30"/>
      </g>
     </g>
    </g>
    <g id="ytick_2">
     <g id="line2d_136">
      <path clip-path="url(#p7ae594e965)" d="M 54.525 313.117822 
L 503.88 313.117822 
" style="fill:none;stroke:#000000;stroke-dasharray:1.000000,3.000000;stroke-dashoffset:0.0;stroke-width:0.5;"/>
     </g>
     <g id="line2d_137">
      <g>
       <use style="stroke:#000000;stroke-width:0.5;" x="54.525" xlink:href="#m4c783cf8a9" y="313.117821782"/>
      </g>
     </g>
     <g id="line2d_138">
      <g>
       <use style="stroke:#000000;stroke-width:0.5;" x="503.88" xlink:href="#mc2dc0d15f9" y="313.117821782"/>
      </g>
     </g>
     <g id="text_12">
      <!-- 0.2 -->
      <g transform="translate(25.08 317.532821782)scale(0.16 -0.16)">
       <use xlink:href="#BitstreamVeraSans-Roman-30"/>
       <use x="63.623046875" xlink:href="#BitstreamVeraSans-Roman-2e"/>
       <use x="95.41015625" xlink:href="#BitstreamVeraSans-Roman-32"/>
      </g>
     </g>
    </g>
    <g id="ytick_3">
     <g id="line2d_139">
      <path clip-path="url(#p7ae594e965)" d="M 54.525 241.335644 
L 503.88 241.335644 
" style="fill:none;stroke:#000000;stroke-dasharray:1.000000,3.000000;stroke-dashoffset:0.0;stroke-width:0.5;"/>
     </g>
     <g id="line2d_140">
      <g>
       <use style="stroke:#000000;stroke-width:0.5;" x="54.525" xlink:href="#m4c783cf8a9" y="241.335643564"/>
      </g>
     </g>
     <g id="line2d_141">
      <g>
       <use style="stroke:#000000;stroke-width:0.5;" x="503.88" xlink:href="#mc2dc0d15f9" y="241.335643564"/>
      </g>
     </g>
     <g id="text_13">
      <!-- 0.4 -->
      <g transform="translate(25.08 245.750643564)scale(0.16 -0.16)">
       <use xlink:href="#BitstreamVeraSans-Roman-30"/>
       <use x="63.623046875" xlink:href="#BitstreamVeraSans-Roman-2e"/>
       <use x="95.41015625" xlink:href="#BitstreamVeraSans-Roman-34"/>
      </g>
     </g>
    </g>
    <g id="ytick_4">
     <g id="line2d_142">
      <path clip-path="url(#p7ae594e965)" d="M 54.525 169.553465 
L 503.88 169.553465 
" style="fill:none;stroke:#000000;stroke-dasharray:1.000000,3.000000;stroke-dashoffset:0.0;stroke-width:0.5;"/>
     </g>
     <g id="line2d_143">
      <g>
       <use style="stroke:#000000;stroke-width:0.5;" x="54.525" xlink:href="#m4c783cf8a9" y="169.553465347"/>
      </g>
     </g>
     <g id="line2d_144">
      <g>
       <use style="stroke:#000000;stroke-width:0.5;" x="503.88" xlink:href="#mc2dc0d15f9" y="169.553465347"/>
      </g>
     </g>
     <g id="text_14">
      <!-- 0.6 -->
      <g transform="translate(25.08 173.968465347)scale(0.16 -0.16)">
       <use xlink:href="#BitstreamVeraSans-Roman-30"/>
       <use x="63.623046875" xlink:href="#BitstreamVeraSans-Roman-2e"/>
       <use x="95.41015625" xlink:href="#BitstreamVeraSans-Roman-36"/>
      </g>
     </g>
    </g>
    <g id="ytick_5">
     <g id="line2d_145">
      <path clip-path="url(#p7ae594e965)" d="M 54.525 97.771287 
L 503.88 97.771287 
" style="fill:none;stroke:#000000;stroke-dasharray:1.000000,3.000000;stroke-dashoffset:0.0;stroke-width:0.5;"/>
     </g>
     <g id="line2d_146">
      <g>
       <use style="stroke:#000000;stroke-width:0.5;" x="54.525" xlink:href="#m4c783cf8a9" y="97.7712871287"/>
      </g>
     </g>
     <g id="line2d_147">
      <g>
       <use style="stroke:#000000;stroke-width:0.5;" x="503.88" xlink:href="#mc2dc0d15f9" y="97.7712871287"/>
      </g>
     </g>
     <g id="text_15">
      <!-- 0.8 -->
      <g transform="translate(25.08 102.186287129)scale(0.16 -0.16)">
       <use xlink:href="#BitstreamVeraSans-Roman-30"/>
       <use x="63.623046875" xlink:href="#BitstreamVeraSans-Roman-2e"/>
       <use x="95.41015625" xlink:href="#BitstreamVeraSans-Roman-38"/>
      </g>
     </g>
    </g>
    <g id="ytick_6">
     <g id="line2d_148">
      <path clip-path="url(#p7ae594e965)" d="M 54.525 25.989109 
L 503.88 25.989109 
" style="fill:none;stroke:#000000;stroke-dasharray:1.000000,3.000000;stroke-dashoffset:0.0;stroke-width:0.5;"/>
     </g>
     <g id="line2d_149">
      <g>
       <use style="stroke:#000000;stroke-width:0.5;" x="54.525" xlink:href="#m4c783cf8a9" y="25.9891089109"/>
      </g>
     </g>
     <g id="line2d_150">
      <g>
       <use style="stroke:#000000;stroke-width:0.5;" x="503.88" xlink:href="#mc2dc0d15f9" y="25.9891089109"/>
      </g>
     </g>
     <g id="text_16">
      <!-- 1.0 -->
      <g transform="translate(25.08 30.4041089109)scale(0.16 -0.16)">
       <use xlink:href="#BitstreamVeraSans-Roman-31"/>
       <use x="63.623046875" xlink:href="#BitstreamVeraSans-Roman-2e"/>
       <use x="95.41015625" xlink:href="#BitstreamVeraSans-Roman-30"/>
      </g>
     </g>
    </g>
    <g id="text_17">
     <!-- Fraction of function,target pairs -->
     <defs>
      <path d="M 9.8125 72.90625 
L 51.703125 72.90625 
L 51.703125 64.59375 
L 19.671875 64.59375 
L 19.671875 43.109375 
L 48.578125 43.109375 
L 48.578125 34.8125 
L 19.671875 34.8125 
L 19.671875 0 
L 9.8125 0 
z
" id="BitstreamVeraSans-Roman-46"/>
      <path d="M 11.71875 12.40625 
L 22.015625 12.40625 
L 22.015625 4 
L 14.015625 -11.625 
L 7.71875 -11.625 
L 11.71875 4 
z
" id="BitstreamVeraSans-Roman-2c"/>
      <path d="M 18.109375 8.203125 
L 18.109375 -20.796875 
L 9.078125 -20.796875 
L 9.078125 54.6875 
L 18.109375 54.6875 
L 18.109375 46.390625 
Q 20.953125 51.265625 25.265625 53.625 
Q 29.59375 56 35.59375 56 
Q 45.5625 56 51.78125 48.09375 
Q 58.015625 40.1875 58.015625 27.296875 
Q 58.015625 14.40625 51.78125 6.484375 
Q 45.5625 -1.421875 35.59375 -1.421875 
Q 29.59375 -1.421875 25.265625 0.953125 
Q 20.953125 3.328125 18.109375 8.203125 
M 48.6875 27.296875 
Q 48.6875 37.203125 44.609375 42.84375 
Q 40.53125 48.484375 33.40625 48.484375 
Q 26.265625 48.484375 22.1875 42.84375 
Q 18.109375 37.203125 18.109375 27.296875 
Q 18.109375 17.390625 22.1875 11.75 
Q 26.265625 6.109375 33.40625 6.109375 
Q 40.53125 6.109375 44.609375 11.75 
Q 48.6875 17.390625 48.6875 27.296875 
" id="BitstreamVeraSans-Roman-70"/>
      <path d="M 18.3125 70.21875 
L 18.3125 54.6875 
L 36.8125 54.6875 
L 36.8125 47.703125 
L 18.3125 47.703125 
L 18.3125 18.015625 
Q 18.3125 11.328125 20.140625 9.421875 
Q 21.96875 7.515625 27.59375 7.515625 
L 36.8125 7.515625 
L 36.8125 0 
L 27.59375 0 
Q 17.1875 0 13.234375 3.875 
Q 9.28125 7.765625 9.28125 18.015625 
L 9.28125 47.703125 
L 2.6875 47.703125 
L 2.6875 54.6875 
L 9.28125 54.6875 
L 9.28125 70.21875 
z
" id="BitstreamVeraSans-Roman-74"/>
      <path d="M 8.5 21.578125 
L 8.5 54.6875 
L 17.484375 54.6875 
L 17.484375 21.921875 
Q 17.484375 14.15625 20.5 10.265625 
Q 23.53125 6.390625 29.59375 6.390625 
Q 36.859375 6.390625 41.078125 11.03125 
Q 45.3125 15.671875 45.3125 23.6875 
L 45.3125 54.6875 
L 54.296875 54.6875 
L 54.296875 0 
L 45.3125 0 
L 45.3125 8.40625 
Q 42.046875 3.421875 37.71875 1 
Q 33.40625 -1.421875 27.6875 -1.421875 
Q 18.265625 -1.421875 13.375 4.4375 
Q 8.5 10.296875 8.5 21.578125 
" id="BitstreamVeraSans-Roman-75"/>
      <path d="M 41.109375 46.296875 
Q 39.59375 47.171875 37.8125 47.578125 
Q 36.03125 48 33.890625 48 
Q 26.265625 48 22.1875 43.046875 
Q 18.109375 38.09375 18.109375 28.8125 
L 18.109375 0 
L 9.078125 0 
L 9.078125 54.6875 
L 18.109375 54.6875 
L 18.109375 46.1875 
Q 20.953125 51.171875 25.484375 53.578125 
Q 30.03125 56 36.53125 56 
Q 37.453125 56 38.578125 55.875 
Q 39.703125 55.765625 41.0625 55.515625 
z
" id="BitstreamVeraSans-Roman-72"/>
      <path d="M 48.78125 52.59375 
L 48.78125 44.1875 
Q 44.96875 46.296875 41.140625 47.34375 
Q 37.3125 48.390625 33.40625 48.390625 
Q 24.65625 48.390625 19.8125 42.84375 
Q 14.984375 37.3125 14.984375 27.296875 
Q 14.984375 17.28125 19.8125 11.734375 
Q 24.65625 6.203125 33.40625 6.203125 
Q 37.3125 6.203125 41.140625 7.25 
Q 44.96875 8.296875 48.78125 10.40625 
L 48.78125 2.09375 
Q 45.015625 0.34375 40.984375 -0.53125 
Q 36.96875 -1.421875 32.421875 -1.421875 
Q 20.0625 -1.421875 12.78125 6.34375 
Q 5.515625 14.109375 5.515625 27.296875 
Q 5.515625 40.671875 12.859375 48.328125 
Q 20.21875 56 33.015625 56 
Q 37.15625 56 41.109375 55.140625 
Q 45.0625 54.296875 48.78125 52.59375 
" id="BitstreamVeraSans-Roman-63"/>
     </defs>
     <g transform="translate(16.54453125 338.789375)rotate(-90.0)scale(0.17 -0.17)">
      <use xlink:href="#BitstreamVeraSans-Roman-46"/>
      <use x="57.41015625" xlink:href="#BitstreamVeraSans-Roman-72"/>
      <use x="98.5234375" xlink:href="#BitstreamVeraSans-Roman-61"/>
      <use x="159.802734375" xlink:href="#BitstreamVeraSans-Roman-63"/>
      <use x="214.783203125" xlink:href="#BitstreamVeraSans-Roman-74"/>
      <use x="253.9921875" xlink:href="#BitstreamVeraSans-Roman-69"/>
      <use x="281.775390625" xlink:href="#BitstreamVeraSans-Roman-6f"/>
      <use x="342.95703125" xlink:href="#BitstreamVeraSans-Roman-6e"/>
      <use x="406.3359375" xlink:href="#BitstreamVeraSans-Roman-20"/>
      <use x="438.123046875" xlink:href="#BitstreamVeraSans-Roman-6f"/>
      <use x="499.3046875" xlink:href="#BitstreamVeraSans-Roman-66"/>
      <use x="534.509765625" xlink:href="#BitstreamVeraSans-Roman-20"/>
      <use x="566.296875" xlink:href="#BitstreamVeraSans-Roman-66"/>
      <use x="601.501953125" xlink:href="#BitstreamVeraSans-Roman-75"/>
      <use x="664.880859375" xlink:href="#BitstreamVeraSans-Roman-6e"/>
      <use x="728.259765625" xlink:href="#BitstreamVeraSans-Roman-63"/>
      <use x="783.240234375" xlink:href="#BitstreamVeraSans-Roman-74"/>
      <use x="822.44921875" xlink:href="#BitstreamVeraSans-Roman-69"/>
      <use x="850.232421875" xlink:href="#BitstreamVeraSans-Roman-6f"/>
      <use x="911.4140625" xlink:href="#BitstreamVeraSans-Roman-6e"/>
      <use x="974.79296875" xlink:href="#BitstreamVeraSans-Roman-2c"/>
      <use x="1006.58007812" xlink:href="#BitstreamVeraSans-Roman-74"/>
      <use x="1045.7890625" xlink:href="#BitstreamVeraSans-Roman-61"/>
      <use x="1107.06835938" xlink:href="#BitstreamVeraSans-Roman-72"/>
      <use x="1148.16601562" xlink:href="#BitstreamVeraSans-Roman-67"/>
      <use x="1211.64257812" xlink:href="#BitstreamVeraSans-Roman-65"/>
      <use x="1273.16601562" xlink:href="#BitstreamVeraSans-Roman-74"/>
      <use x="1312.375" xlink:href="#BitstreamVeraSans-Roman-20"/>
      <use x="1344.16210938" xlink:href="#BitstreamVeraSans-Roman-70"/>
      <use x="1407.63867188" xlink:href="#BitstreamVeraSans-Roman-61"/>
      <use x="1468.91796875" xlink:href="#BitstreamVeraSans-Roman-69"/>
      <use x="1496.70117188" xlink:href="#BitstreamVeraSans-Roman-72"/>
      <use x="1537.81445312" xlink:href="#BitstreamVeraSans-Roman-73"/>
     </g>
    </g>
   </g>
   <g id="text_18">
    <!-- 40-D -->
    <defs>
     <path d="M 19.671875 64.796875 
L 19.671875 8.109375 
L 31.59375 8.109375 
Q 46.6875 8.109375 53.6875 14.9375 
Q 60.6875 21.78125 60.6875 36.53125 
Q 60.6875 51.171875 53.6875 57.984375 
Q 46.6875 64.796875 31.59375 64.796875 
z
M 9.8125 72.90625 
L 30.078125 72.90625 
Q 51.265625 72.90625 61.171875 64.09375 
Q 71.09375 55.28125 71.09375 36.53125 
Q 71.09375 17.671875 61.125 8.828125 
Q 51.171875 0 30.078125 0 
L 9.8125 0 
z
" id="BitstreamVeraSans-Roman-44"/>
    </defs>
    <g transform="translate(464.017862903 382.412719678)scale(0.17 -0.17)">
     <use xlink:href="#BitstreamVeraSans-Roman-34"/>
     <use x="63.623046875" xlink:href="#BitstreamVeraSans-Roman-30"/>
     <use x="127.24609375" xlink:href="#BitstreamVeraSans-Roman-2d"/>
     <use x="163.330078125" xlink:href="#BitstreamVeraSans-Roman-44"/>
    </g>
   </g>
   <g id="text_19">
    <!-- 20-D -->
    <g transform="translate(464.017862903 313.501828589)scale(0.17 -0.17)">
     <use xlink:href="#BitstreamVeraSans-Roman-32"/>
     <use x="63.623046875" xlink:href="#BitstreamVeraSans-Roman-30"/>
     <use x="127.24609375" xlink:href="#BitstreamVeraSans-Roman-2d"/>
     <use x="163.330078125" xlink:href="#BitstreamVeraSans-Roman-44"/>
    </g>
   </g>
   <g id="text_20">
    <!-- 10-D -->
    <g transform="translate(464.017862903 244.5909375)scale(0.17 -0.17)">
     <use xlink:href="#BitstreamVeraSans-Roman-31"/>
     <use x="63.623046875" xlink:href="#BitstreamVeraSans-Roman-30"/>
     <use x="127.24609375" xlink:href="#BitstreamVeraSans-Roman-2d"/>
     <use x="163.330078125" xlink:href="#BitstreamVeraSans-Roman-44"/>
    </g>
   </g>
   <g id="text_21">
    <!-- 5-D -->
    <g transform="translate(464.017862903 175.680046411)scale(0.17 -0.17)">
     <use xlink:href="#BitstreamVeraSans-Roman-35"/>
     <use x="63.623046875" xlink:href="#BitstreamVeraSans-Roman-2d"/>
     <use x="99.70703125" xlink:href="#BitstreamVeraSans-Roman-44"/>
    </g>
   </g>
   <g id="text_22">
    <!-- 3-D -->
    <g transform="translate(464.017862903 106.769155322)scale(0.17 -0.17)">
     <use xlink:href="#BitstreamVeraSans-Roman-33"/>
     <use x="63.623046875" xlink:href="#BitstreamVeraSans-Roman-2d"/>
     <use x="99.70703125" xlink:href="#BitstreamVeraSans-Roman-44"/>
    </g>
   </g>
   <g id="text_23">
    <!-- 2-D -->
    <g transform="translate(464.017862903 37.8582642327)scale(0.17 -0.17)">
     <use xlink:href="#BitstreamVeraSans-Roman-32"/>
     <use x="63.623046875" xlink:href="#BitstreamVeraSans-Roman-2d"/>
     <use x="99.70703125" xlink:href="#BitstreamVeraSans-Roman-44"/>
    </g>
   </g>
   <g id="text_24">
    <!-- bbob f16 -->
    <defs>
     <path d="M 48.6875 27.296875 
Q 48.6875 37.203125 44.609375 42.84375 
Q 40.53125 48.484375 33.40625 48.484375 
Q 26.265625 48.484375 22.1875 42.84375 
Q 18.109375 37.203125 18.109375 27.296875 
Q 18.109375 17.390625 22.1875 11.75 
Q 26.265625 6.109375 33.40625 6.109375 
Q 40.53125 6.109375 44.609375 11.75 
Q 48.6875 17.390625 48.6875 27.296875 
M 18.109375 46.390625 
Q 20.953125 51.265625 25.265625 53.625 
Q 29.59375 56 35.59375 56 
Q 45.5625 56 51.78125 48.09375 
Q 58.015625 40.1875 58.015625 27.296875 
Q 58.015625 14.40625 51.78125 6.484375 
Q 45.5625 -1.421875 35.59375 -1.421875 
Q 29.59375 -1.421875 25.265625 0.953125 
Q 20.953125 3.328125 18.109375 8.203125 
L 18.109375 0 
L 9.078125 0 
L 9.078125 75.984375 
L 18.109375 75.984375 
z
" id="BitstreamVeraSans-Roman-62"/>
    </defs>
    <g transform="translate(59.01855 33.77540625)scale(0.102 -0.102)">
     <use xlink:href="#BitstreamVeraSans-Roman-62"/>
     <use x="63.4765625" xlink:href="#BitstreamVeraSans-Roman-62"/>
     <use x="126.953125" xlink:href="#BitstreamVeraSans-Roman-6f"/>
     <use x="188.134765625" xlink:href="#BitstreamVeraSans-Roman-62"/>
     <use x="251.611328125" xlink:href="#BitstreamVeraSans-Roman-20"/>
     <use x="283.3984375" xlink:href="#BitstreamVeraSans-Roman-66"/>
     <use x="318.603515625" xlink:href="#BitstreamVeraSans-Roman-31"/>
     <use x="382.2265625" xlink:href="#BitstreamVeraSans-Roman-36"/>
    </g>
    <!-- 51 targets: 100..1e-08 -->
    <defs>
     <path d="M 11.71875 12.40625 
L 22.015625 12.40625 
L 22.015625 0 
L 11.71875 0 
z
M 11.71875 51.703125 
L 22.015625 51.703125 
L 22.015625 39.3125 
L 11.71875 39.3125 
z
" id="BitstreamVeraSans-Roman-3a"/>
    </defs>
    <g transform="translate(59.01855 45.197175)scale(0.102 -0.102)">
     <use xlink:href="#BitstreamVeraSans-Roman-35"/>
     <use x="63.623046875" xlink:href="#BitstreamVeraSans-Roman-31"/>
     <use x="127.24609375" xlink:href="#BitstreamVeraSans-Roman-20"/>
     <use x="159.033203125" xlink:href="#BitstreamVeraSans-Roman-74"/>
     <use x="198.2421875" xlink:href="#BitstreamVeraSans-Roman-61"/>
     <use x="259.521484375" xlink:href="#BitstreamVeraSans-Roman-72"/>
     <use x="300.619140625" xlink:href="#BitstreamVeraSans-Roman-67"/>
     <use x="364.095703125" xlink:href="#BitstreamVeraSans-Roman-65"/>
     <use x="425.619140625" xlink:href="#BitstreamVeraSans-Roman-74"/>
     <use x="464.828125" xlink:href="#BitstreamVeraSans-Roman-73"/>
     <use x="516.927734375" xlink:href="#BitstreamVeraSans-Roman-3a"/>
     <use x="550.619140625" xlink:href="#BitstreamVeraSans-Roman-20"/>
     <use x="582.40625" xlink:href="#BitstreamVeraSans-Roman-31"/>
     <use x="646.029296875" xlink:href="#BitstreamVeraSans-Roman-30"/>
     <use x="709.65234375" xlink:href="#BitstreamVeraSans-Roman-30"/>
     <use x="773.275390625" xlink:href="#BitstreamVeraSans-Roman-2e"/>
     <use x="805.0625" xlink:href="#BitstreamVeraSans-Roman-2e"/>
     <use x="836.849609375" xlink:href="#BitstreamVeraSans-Roman-31"/>
     <use x="900.47265625" xlink:href="#BitstreamVeraSans-Roman-65"/>
     <use x="961.99609375" xlink:href="#BitstreamVeraSans-Roman-2d"/>
     <use x="998.080078125" xlink:href="#BitstreamVeraSans-Roman-30"/>
     <use x="1061.703125" xlink:href="#BitstreamVeraSans-Roman-38"/>
    </g>
    <!-- 15 instances -->
    <g transform="translate(59.01855 56.61894375)scale(0.102 -0.102)">
     <use xlink:href="#BitstreamVeraSans-Roman-31"/>
     <use x="63.623046875" xlink:href="#BitstreamVeraSans-Roman-35"/>
     <use x="127.24609375" xlink:href="#BitstreamVeraSans-Roman-20"/>
     <use x="159.033203125" xlink:href="#BitstreamVeraSans-Roman-69"/>
     <use x="186.81640625" xlink:href="#BitstreamVeraSans-Roman-6e"/>
     <use x="250.1953125" xlink:href="#BitstreamVeraSans-Roman-73"/>
     <use x="302.294921875" xlink:href="#BitstreamVeraSans-Roman-74"/>
     <use x="341.50390625" xlink:href="#BitstreamVeraSans-Roman-61"/>
     <use x="402.783203125" xlink:href="#BitstreamVeraSans-Roman-6e"/>
     <use x="466.162109375" xlink:href="#BitstreamVeraSans-Roman-63"/>
     <use x="521.142578125" xlink:href="#BitstreamVeraSans-Roman-65"/>
     <use x="582.666015625" xlink:href="#BitstreamVeraSans-Roman-73"/>
    </g>
   </g>
   <g id="text_25">
    <!-- v2.2.1.10 -->
    <g style="fill:#808080;" transform="translate(255.5696875 379.1953125)scale(0.1 -0.1)">
     <use xlink:href="#BitstreamVeraSans-Roman-76"/>
     <use x="59.1796875" xlink:href="#BitstreamVeraSans-Roman-32"/>
     <use x="122.802734375" xlink:href="#BitstreamVeraSans-Roman-2e"/>
     <use x="154.58984375" xlink:href="#BitstreamVeraSans-Roman-32"/>
     <use x="218.212890625" xlink:href="#BitstreamVeraSans-Roman-2e"/>
     <use x="250.0" xlink:href="#BitstreamVeraSans-Roman-31"/>
     <use x="313.623046875" xlink:href="#BitstreamVeraSans-Roman-2e"/>
     <use x="345.41015625" xlink:href="#BitstreamVeraSans-Roman-31"/>
     <use x="409.033203125" xlink:href="#BitstreamVeraSans-Roman-30"/>
    </g>
   </g>
   <g id="text_26">
    <!-- 16 Weierstrass -->
    <defs>
     <path d="M 3.328125 72.90625 
L 13.28125 72.90625 
L 28.609375 11.28125 
L 43.890625 72.90625 
L 54.984375 72.90625 
L 70.3125 11.28125 
L 85.59375 72.90625 
L 95.609375 72.90625 
L 77.296875 0 
L 64.890625 0 
L 49.515625 63.28125 
L 33.984375 0 
L 21.578125 0 
z
" id="BitstreamVeraSans-Roman-57"/>
    </defs>
    <g transform="translate(204.436875 17.4)scale(0.2 -0.2)">
     <use xlink:href="#BitstreamVeraSans-Roman-31"/>
     <use x="63.623046875" xlink:href="#BitstreamVeraSans-Roman-36"/>
     <use x="127.24609375" xlink:href="#BitstreamVeraSans-Roman-20"/>
     <use x="159.033203125" xlink:href="#BitstreamVeraSans-Roman-57"/>
     <use x="257.83203125" xlink:href="#BitstreamVeraSans-Roman-65"/>
     <use x="319.35546875" xlink:href="#BitstreamVeraSans-Roman-69"/>
     <use x="347.138671875" xlink:href="#BitstreamVeraSans-Roman-65"/>
     <use x="408.662109375" xlink:href="#BitstreamVeraSans-Roman-72"/>
     <use x="449.775390625" xlink:href="#BitstreamVeraSans-Roman-73"/>
     <use x="501.875" xlink:href="#BitstreamVeraSans-Roman-74"/>
     <use x="541.083984375" xlink:href="#BitstreamVeraSans-Roman-72"/>
     <use x="582.197265625" xlink:href="#BitstreamVeraSans-Roman-61"/>
     <use x="643.4765625" xlink:href="#BitstreamVeraSans-Roman-73"/>
     <use x="695.576171875" xlink:href="#BitstreamVeraSans-Roman-73"/>
    </g>
   </g>
  </g>
 </g>
 <defs>
  <clipPath id="p7ae594e965">
   <rect height="362.5" width="449.355" x="54.525" y="22.4"/>
  </clipPath>
 </defs>
</svg>
