<?xml version="1.0" encoding="utf-8" standalone="no"?>
<!DOCTYPE svg PUBLIC "-//W3C//DTD SVG 1.1//EN"
  "http://www.w3.org/Graphics/SVG/1.1/DTD/svg11.dtd">
<!-- Created with matplotlib (http://matplotlib.org/) -->
<svg height="432pt" version="1.1" viewBox="0 0 576 432" width="576pt" xmlns="http://www.w3.org/2000/svg" xmlns:xlink="http://www.w3.org/1999/xlink">
 <defs>
  <style type="text/css">
*{stroke-linecap:butt;stroke-linejoin:round;stroke-miterlimit:100000;}
  </style>
 </defs>
 <g id="figure_1">
  <g id="patch_1">
   <path d="M 0 432 
L 576 432 
L 576 0 
L 0 0 
z
" style="fill:#ffffff;"/>
  </g>
  <g id="axes_1">
   <g id="patch_2">
    <path d="M 54.525 384.9 
L 503.88 384.9 
L 503.88 7.678218 
L 54.525 7.678218 
z
" style="fill:#ffffff;"/>
   </g>
   <g id="line2d_1">
    <defs>
     <path d="M 0 1.5 
C 0.397805 1.5 0.77937 1.341951 1.06066 1.06066 
C 1.341951 0.77937 1.5 0.397805 1.5 0 
C 1.5 -0.397805 1.341951 -0.77937 1.06066 -1.06066 
C 0.77937 -1.341951 0.397805 -1.5 0 -1.5 
C -0.397805 -1.5 -0.77937 -1.341951 -1.06066 -1.06066 
C -1.341951 -0.77937 -1.5 -0.397805 -1.5 0 
C -1.5 0.397805 -1.341951 0.77937 -1.06066 1.06066 
C -0.77937 1.341951 -0.397805 1.5 0 1.5 
z
" id="mb146e0aace" style="stroke:#000080;stroke-width:0.5;"/>
    </defs>
    <g>
     <use style="fill:#000080;stroke:#000080;stroke-width:0.5;" x="368.651957002" xlink:href="#mb146e0aace" y="267.727635122"/>
     <use style="fill:#000080;stroke:#000080;stroke-width:0.5;" x="368.651957002" xlink:href="#mb146e0aace" y="267.727635122"/>
    </g>
   </g>
   <g id="line2d_2">
    <path d="M 54.525 384.9 
L 54.525 382.703018 
L 70.109025 382.703018 
L 70.109025 381.970691 
L 79.225095 381.970691 
L 79.225095 374.647418 
L 85.693049 374.647418 
L 85.693049 370.985782 
L 90.709985 370.985782 
L 90.709985 369.521127 
L 94.809119 369.521127 
L 94.809119 368.7888 
L 98.274888 368.7888 
L 98.274888 368.056473 
L 101.277074 368.056473 
L 101.277074 366.591818 
L 103.925189 366.591818 
L 103.925189 364.394836 
L 106.294009 364.394836 
L 106.294009 362.930182 
L 116.861098 362.930182 
L 116.861098 357.803891 
L 151.595064 357.803891 
L 151.595064 355.606909 
L 154.143032 355.606909 
L 154.143032 354.142254 
L 165.466753 354.142254 
L 165.466753 352.6776 
L 174.528842 352.6776 
L 174.528842 351.212945 
L 174.8508 351.212945 
L 174.8508 348.283636 
L 175.584576 348.283636 
L 175.584576 343.889672 
L 176.983969 343.889672 
L 176.983969 343.157345 
L 178.663978 343.157345 
L 178.663978 341.69269 
L 179.459138 341.69269 
L 179.459138 339.495709 
L 183.208335 339.495709 
L 183.208335 338.763381 
L 183.427683 338.763381 
L 183.427683 338.031054 
L 188.488233 338.031054 
L 188.488233 333.63709 
L 189.67629 333.63709 
L 189.67629 331.440109 
L 193.330202 331.440109 
L 193.330202 328.510799 
L 193.931017 328.510799 
L 193.931017 327.778472 
L 205.342821 327.778472 
L 205.342821 326.313818 
L 207.785639 326.313818 
L 207.785639 323.384508 
L 210.518416 323.384508 
L 210.518416 322.652181 
L 212.480143 322.652181 
L 212.559941 321.187527 
L 212.915567 321.187527 
L 212.915567 319.722872 
L 217.572893 319.722872 
L 217.572893 318.990545 
L 220.399117 318.990545 
L 220.399117 318.258217 
L 222.694748 318.258217 
L 222.694748 317.52589 
L 227.083827 317.52589 
L 227.083827 316.061236 
L 228.47017 316.061236 
L 228.47017 315.328908 
L 230.024607 315.328908 
L 230.024607 311.667272 
L 239.656718 311.667272 
L 239.656718 310.934945 
L 246.563401 310.934945 
L 246.563401 309.47029 
L 252.327032 309.47029 
L 252.327032 308.005636 
L 268.13746 308.005636 
L 268.13746 305.808654 
L 273.414464 305.808654 
L 273.414464 305.076326 
L 278.090628 305.076326 
L 278.090628 302.879345 
L 280.929174 302.879345 
L 280.929174 302.147017 
L 285.251011 302.147017 
L 285.251011 298.485381 
L 288.697364 298.485381 
L 288.698711 297.020726 
L 291.586257 297.020726 
L 291.586257 296.288399 
L 292.45039 296.288399 
L 292.45039 294.091417 
L 294.420677 294.091417 
L 294.420677 293.35909 
L 297.164164 293.35909 
L 297.168093 291.894435 
L 303.006181 291.894435 
L 303.006894 290.429781 
L 304.916855 290.429781 
L 304.916855 288.965126 
L 309.044132 288.965126 
L 309.044132 288.232799 
L 309.197723 288.232799 
L 309.197723 287.500472 
L 310.658383 287.500472 
L 310.664089 285.30349 
L 313.922797 285.30349 
L 313.922797 284.571163 
L 315.234752 284.571163 
L 315.236615 283.106508 
L 322.288449 283.106508 
L 322.292833 280.909526 
L 325.12497 280.909526 
L 325.127636 279.444872 
L 327.64702 279.444872 
L 327.647676 277.980217 
L 329.910814 277.980217 
L 329.912592 275.783235 
L 333.852885 275.783235 
L 333.852885 275.050908 
L 335.594439 275.050908 
L 335.599668 273.586253 
L 338.716841 273.586253 
L 338.716841 272.853926 
L 341.457017 272.853926 
L 341.457017 272.121599 
L 345.026369 272.121599 
L 345.026369 271.389272 
L 349.949631 271.389272 
L 349.949631 270.656944 
L 353.2338 270.656944 
L 353.2338 269.924617 
L 354.709178 269.924617 
L 354.709178 269.19229 
L 357.403274 269.19229 
L 357.403274 268.459962 
L 368.651957 268.459962 
L 368.651957 267.727635 
L 416.908065 267.727635 
L 416.908065 267.727635 
" style="fill:none;stroke:#000080;stroke-linecap:square;stroke-width:1.5;"/>
   </g>
   <g id="line2d_3">
    <defs>
     <path d="M 0 6 
C 1.591219 6 3.117479 5.367802 4.242641 4.242641 
C 5.367802 3.117479 6 1.591219 6 0 
C 6 -1.591219 5.367802 -3.117479 4.242641 -4.242641 
C 3.117479 -5.367802 1.591219 -6 0 -6 
C -1.591219 -6 -3.117479 -5.367802 -4.242641 -4.242641 
C -5.367802 -3.117479 -6 -1.591219 -6 0 
C -6 1.591219 -5.367802 3.117479 -4.242641 4.242641 
C -3.117479 5.367802 -1.591219 6 0 6 
z
" id="m9a9084a624" style="stroke:#000080;stroke-width:1.5;"/>
    </defs>
    <g>
     <use style="fill:none;stroke:#000080;stroke-width:1.5;" x="176.983969292" xlink:href="#m9a9084a624" y="343.157345012"/>
     <use style="fill:none;stroke:#000080;stroke-width:1.5;" x="228.47016981" xlink:href="#m9a9084a624" y="315.328908354"/>
     <use style="fill:none;stroke:#000080;stroke-width:1.5;" x="327.647020278" xlink:href="#m9a9084a624" y="279.44487161"/>
     <use style="fill:none;stroke:#000080;stroke-width:1.5;" x="368.651957002" xlink:href="#m9a9084a624" y="267.727635122"/>
     <use style="fill:none;stroke:#000080;stroke-width:1.5;" x="416.908064516" xlink:href="#m9a9084a624" y="267.727635122"/>
    </g>
   </g>
   <g id="line2d_4">
    <path d="M -15527.946774 758.386913 
" style="fill:none;stroke:#000080;stroke-linecap:square;stroke-width:1.5;"/>
    <g>
     <use style="fill:none;stroke:#000080;stroke-width:1.5;" x="-15527.9467742" xlink:href="#m9a9084a624" y="758.386913048"/>
    </g>
   </g>
   <g id="line2d_5">
    <path clip-path="url(#p6b621fcb9d)" d="M 277.192929 305.076326 
" style="fill:none;stroke:#000080;stroke-linecap:square;"/>
    <defs>
     <path d="M -12 12 
L 12 -12 
M -12 -12 
L 12 12 
" id="mf41cf89e20" style="stroke:#000080;stroke-width:3.0;"/>
    </defs>
    <g clip-path="url(#p6b621fcb9d)">
     <use style="fill:#000080;stroke:#000080;stroke-width:3.0;" x="277.192929158" xlink:href="#mf41cf89e20" y="305.076326427"/>
    </g>
   </g>
   <g id="line2d_6">
    <defs>
     <path d="M 0 1.5 
C 0.397805 1.5 0.77937 1.341951 1.06066 1.06066 
C 1.341951 0.77937 1.5 0.397805 1.5 0 
C 1.5 -0.397805 1.341951 -0.77937 1.06066 -1.06066 
C 0.77937 -1.341951 0.397805 -1.5 0 -1.5 
C -0.397805 -1.5 -0.77937 -1.341951 -1.06066 -1.06066 
C -1.341951 -0.77937 -1.5 -0.397805 -1.5 0 
C -1.5 0.397805 -1.341951 0.77937 -1.06066 1.06066 
C -0.77937 1.341951 -0.397805 1.5 0 1.5 
z
" id="ma6af898f13" style="stroke:#ff00ff;stroke-width:0.5;"/>
    </defs>
    <g>
     <use style="fill:#ff00ff;stroke:#ff00ff;stroke-width:0.5;" x="368.882863497" xlink:href="#ma6af898f13" y="172.525088659"/>
     <use style="fill:#ff00ff;stroke:#ff00ff;stroke-width:0.5;" x="368.882863497" xlink:href="#ma6af898f13" y="172.525088659"/>
    </g>
   </g>
   <g id="line2d_7">
    <path d="M 54.525 384.9 
L 54.525 282.374181 
L 163.613172 282.374181 
L 163.613172 280.909526 
L 164.134037 280.909526 
L 164.134037 280.177199 
L 183.860062 280.177199 
L 183.860062 278.712544 
L 187.839923 278.712544 
L 187.839923 271.389272 
L 198.158994 271.389272 
L 198.158994 266.995308 
L 223.221424 266.995308 
L 223.221424 264.798326 
L 244.958252 264.798326 
L 244.958252 264.065999 
L 254.840405 264.065999 
L 254.840405 263.333671 
L 256.51937 263.333671 
L 256.51937 262.601344 
L 258.361207 262.601344 
L 258.361207 261.13669 
L 259.152135 261.13669 
L 259.152135 256.742726 
L 259.709255 256.742726 
L 259.709255 256.010399 
L 262.607874 256.010399 
L 262.607874 255.278071 
L 264.692415 255.278071 
L 264.692415 253.08109 
L 266.160084 253.08109 
L 266.160084 248.687126 
L 269.743028 248.687126 
L 269.743028 246.490144 
L 271.138805 246.490144 
L 271.138805 245.025489 
L 272.828603 245.025489 
L 272.828603 244.293162 
L 273.741764 244.293162 
L 273.741764 243.560835 
L 277.603818 243.560835 
L 277.6154 237.702217 
L 280.987153 237.702217 
L 280.987153 235.505235 
L 285.251796 235.505235 
L 285.251796 234.772908 
L 285.514101 234.772908 
L 285.522248 231.843598 
L 286.641778 231.843598 
L 286.641778 231.111271 
L 287.022384 231.111271 
L 287.022384 230.378944 
L 287.925722 230.378944 
L 287.925722 229.646617 
L 288.349773 229.646617 
L 288.349773 225.98498 
L 289.278572 225.98498 
L 289.278572 221.591016 
L 289.955287 221.591016 
L 289.955287 220.858689 
L 291.291071 220.858689 
L 291.355208 216.464725 
L 292.98278 216.464725 
L 293.003371 208.409125 
L 297.332034 208.409125 
L 297.332034 207.676798 
L 299.037464 207.676798 
L 299.037464 206.944471 
L 299.623706 206.944471 
L 299.630335 204.747489 
L 300.912447 204.747489 
L 300.954861 201.81818 
L 302.033801 201.81818 
L 302.048686 198.888871 
L 305.635295 198.888871 
L 305.635295 198.156543 
L 306.0644 198.156543 
L 306.070933 196.691889 
L 306.255566 196.691889 
L 306.255566 195.959562 
L 306.679612 195.959562 
L 306.679612 195.227234 
L 307.001247 195.227234 
L 307.001247 194.494907 
L 307.661632 194.494907 
L 307.661632 193.76258 
L 308.464407 193.76258 
L 308.464407 193.030253 
L 310.660285 193.030253 
L 310.660285 192.297925 
L 312.823643 192.297925 
L 312.823643 191.565598 
L 313.466068 191.565598 
L 313.469985 189.368616 
L 317.018596 189.368616 
L 317.018596 188.636289 
L 317.55856 188.636289 
L 317.562106 187.171634 
L 320.533927 187.171634 
L 320.533927 186.439307 
L 321.007101 186.439307 
L 321.012463 184.974652 
L 324.001891 184.974652 
L 324.001891 184.242325 
L 328.69089 184.242325 
L 328.69089 183.509998 
L 329.017159 183.509998 
L 329.017159 182.777671 
L 334.900272 182.777671 
L 334.904845 181.313016 
L 336.561692 181.313016 
L 336.561692 180.580689 
L 338.111359 180.580689 
L 338.111359 179.848361 
L 339.564503 179.848361 
L 339.564503 179.116034 
L 340.919368 179.116034 
L 340.919368 178.383707 
L 344.571402 178.383707 
L 344.571402 177.65138 
L 345.666499 177.65138 
L 345.666499 176.919052 
L 350.472623 176.919052 
L 350.472623 176.186725 
L 351.313536 176.186725 
L 351.313536 175.454398 
L 352.131606 175.454398 
L 352.131606 174.722071 
L 355.135095 174.722071 
L 355.135095 173.989743 
L 366.042937 173.989743 
L 366.042937 173.257416 
L 368.882863 173.257416 
L 368.882863 172.525089 
L 416.908065 172.525089 
L 416.908065 172.525089 
" style="fill:none;stroke:#ff00ff;stroke-linecap:square;stroke-width:1.5;"/>
   </g>
   <g id="line2d_8">
    <defs>
     <path d="M -0 8.485281 
L 5.091169 0 
L 0 -8.485281 
L -5.091169 -0 
z
" id="m3dc2fbd445" style="stroke:#ff00ff;stroke-linejoin:miter;stroke-width:1.5;"/>
    </defs>
    <g>
     <use style="fill:none;stroke:#ff00ff;stroke-linejoin:miter;stroke-width:1.5;" x="198.15899437" xlink:href="#m3dc2fbd445" y="271.389271525"/>
     <use style="fill:none;stroke:#ff00ff;stroke-linejoin:miter;stroke-width:1.5;" x="329.017159321" xlink:href="#m3dc2fbd445" y="183.509997866"/>
     <use style="fill:none;stroke:#ff00ff;stroke-linejoin:miter;stroke-width:1.5;" x="368.882863497" xlink:href="#m3dc2fbd445" y="172.525088659"/>
     <use style="fill:none;stroke:#ff00ff;stroke-linejoin:miter;stroke-width:1.5;" x="416.908064516" xlink:href="#m3dc2fbd445" y="172.525088659"/>
    </g>
   </g>
   <g id="line2d_9">
    <path d="M -15527.946774 758.386913 
" style="fill:none;stroke:#ff00ff;stroke-linecap:square;stroke-width:1.5;"/>
    <g>
     <use style="fill:none;stroke:#ff00ff;stroke-linejoin:miter;stroke-width:1.5;" x="-15527.9467742" xlink:href="#m3dc2fbd445" y="758.386913048"/>
    </g>
   </g>
   <g id="line2d_10">
    <path clip-path="url(#p6b621fcb9d)" d="M 277.196862 243.560835 
" style="fill:none;stroke:#ff00ff;stroke-linecap:square;"/>
    <defs>
     <path d="M -12 12 
L 12 -12 
M -12 -12 
L 12 12 
" id="mf84afe6f6d" style="stroke:#ff00ff;stroke-width:3.0;"/>
    </defs>
    <g clip-path="url(#p6b621fcb9d)">
     <use style="fill:#ff00ff;stroke:#ff00ff;stroke-width:3.0;" x="277.196861961" xlink:href="#mf84afe6f6d" y="243.560834866"/>
    </g>
   </g>
   <g id="line2d_11">
    <defs>
     <path d="M 0 1.5 
C 0.397805 1.5 0.77937 1.341951 1.06066 1.06066 
C 1.341951 0.77937 1.5 0.397805 1.5 0 
C 1.5 -0.397805 1.341951 -0.77937 1.06066 -1.06066 
C 0.77937 -1.341951 0.397805 -1.5 0 -1.5 
C -0.397805 -1.5 -0.77937 -1.341951 -1.06066 -1.06066 
C -1.341951 -0.77937 -1.5 -0.397805 -1.5 0 
C -1.5 0.397805 -1.341951 0.77937 -1.06066 1.06066 
C -0.77937 1.341951 -0.397805 1.5 0 1.5 
z
" id="m4de8a29510" style="stroke:#ffa500;stroke-width:0.5;"/>
    </defs>
    <g>
     <use style="fill:#ffa500;stroke:#ffa500;stroke-width:0.5;" x="368.025076647" xlink:href="#m4de8a29510" y="179.848361464"/>
     <use style="fill:#ffa500;stroke:#ffa500;stroke-width:0.5;" x="368.025076647" xlink:href="#m4de8a29510" y="179.848361464"/>
    </g>
   </g>
   <g id="line2d_12">
    <path d="M 54.525 384.9 
L 54.525 373.182764 
L 70.109025 373.182764 
L 70.109025 371.718109 
L 79.225095 371.718109 
L 79.225095 362.930182 
L 85.693049 362.930182 
L 85.693049 360.000872 
L 90.709985 360.000872 
L 90.709985 358.536218 
L 94.809119 358.536218 
L 94.809119 350.480618 
L 98.274888 350.480618 
L 98.274888 347.551309 
L 101.277074 347.551309 
L 101.277074 345.354327 
L 106.294009 345.354327 
L 106.294009 344.622 
L 116.861098 344.622 
L 116.861098 341.69269 
L 153.325379 341.69269 
L 153.325379 340.960363 
L 154.672068 340.960363 
L 154.672068 339.495709 
L 155.442989 339.495709 
L 155.442989 337.298727 
L 156.431412 337.298727 
L 156.431412 336.566399 
L 156.909792 336.566399 
L 156.909792 332.904763 
L 172.015437 332.904763 
L 172.015437 329.975454 
L 172.255899 329.975454 
L 172.255899 327.778472 
L 175.377358 327.778472 
L 175.377358 327.046145 
L 176.494124 327.046145 
L 176.494124 324.849163 
L 177.368303 324.849163 
L 177.368303 323.384508 
L 178.117806 323.384508 
L 178.117806 322.652181 
L 180.642727 322.652181 
L 180.642727 321.187527 
L 185.311081 321.187527 
L 185.311081 320.455199 
L 187.538942 320.455199 
L 187.538942 318.990545 
L 191.678441 318.990545 
L 191.678441 318.258217 
L 199.300882 318.258217 
L 199.300882 317.52589 
L 202.632854 317.52589 
L 202.632854 316.061236 
L 204.418156 316.061236 
L 204.418156 312.399599 
L 210.757022 312.399599 
L 210.757022 311.667272 
L 211.458013 311.667272 
L 211.458013 310.934945 
L 219.495949 310.934945 
L 219.495949 302.879345 
L 222.529197 302.879345 
L 222.529197 299.950035 
L 223.246198 299.950035 
L 223.246198 297.753054 
L 234.123742 297.753054 
L 234.123742 297.020726 
L 234.711271 297.020726 
L 234.711271 294.823745 
L 238.31047 294.823745 
L 238.31047 293.35909 
L 241.29602 293.35909 
L 241.29602 292.626763 
L 250.561369 292.626763 
L 250.561369 289.697454 
L 252.887166 289.697454 
L 252.887166 288.232799 
L 255.454528 288.232799 
L 255.454528 283.838835 
L 258.181311 283.838835 
L 258.181311 280.177199 
L 265.87932 280.177199 
L 265.87932 277.24789 
L 266.475429 277.24789 
L 266.475429 275.783235 
L 269.279673 275.783235 
L 269.279673 275.050908 
L 276.296516 275.050908 
L 276.296516 274.318581 
L 278.85388 274.318581 
L 278.900799 272.121599 
L 283.198082 272.121599 
L 283.198082 271.389272 
L 284.434201 271.389272 
L 284.441528 269.924617 
L 288.18566 269.924617 
L 288.18566 269.19229 
L 289.171971 269.19229 
L 289.171971 268.459962 
L 290.625834 268.459962 
L 290.625834 264.798326 
L 291.70679 264.798326 
L 291.70679 263.333671 
L 292.485139 263.333671 
L 292.485139 262.601344 
L 293.651426 262.601344 
L 293.651426 261.869017 
L 295.976752 261.869017 
L 295.984548 258.939708 
L 296.685272 258.939708 
L 296.707692 256.010399 
L 297.168324 256.010399 
L 297.168324 255.278071 
L 300.479856 255.278071 
L 300.484243 250.884108 
L 301.714765 250.884108 
L 301.714765 250.15178 
L 304.078034 250.15178 
L 304.078034 249.419453 
L 307.307897 249.419453 
L 307.324525 245.757817 
L 308.21611 245.757817 
L 308.21611 245.025489 
L 308.799297 245.025489 
L 308.799297 244.293162 
L 310.399956 244.293162 
L 310.403163 242.828508 
L 312.540832 242.828508 
L 312.544447 240.631526 
L 312.974369 240.631526 
L 312.974369 239.899198 
L 316.783111 239.899198 
L 316.788422 238.434544 
L 320.346533 238.434544 
L 320.356174 231.111271 
L 321.919048 231.111271 
L 321.919048 230.378944 
L 322.130181 230.378944 
L 322.130181 229.646617 
L 323.424987 229.646617 
L 323.429443 225.252653 
L 326.140399 225.252653 
L 326.140399 224.520326 
L 327.528518 224.520326 
L 327.528518 223.787998 
L 328.547865 223.787998 
L 328.551299 222.323344 
L 330.72832 222.323344 
L 330.734915 218.661707 
L 331.876892 218.661707 
L 331.876892 217.92938 
L 332.716021 217.92938 
L 332.72472 214.267744 
L 334.542308 214.267744 
L 334.542308 213.535416 
L 336.23275 213.535416 
L 336.241938 210.606107 
L 337.800685 210.606107 
L 337.809065 209.141453 
L 338.643795 209.141453 
L 338.643795 208.409125 
L 339.270274 208.409125 
L 339.276455 206.944471 
L 340.651274 206.944471 
L 340.656652 204.015162 
L 341.947193 204.015162 
L 341.957503 201.81818 
L 343.176859 201.81818 
L 343.181725 199.621198 
L 344.345464 199.621198 
L 344.345464 198.888871 
L 345.446604 198.888871 
L 345.4479 197.424216 
L 346.502169 197.424216 
L 346.502169 196.691889 
L 347.080216 196.691889 
L 347.080216 195.959562 
L 347.506179 195.959562 
L 347.506179 195.227234 
L 348.475003 195.227234 
L 348.475003 194.494907 
L 349.402869 194.494907 
L 349.402869 193.76258 
L 350.288124 193.76258 
L 350.28869 192.297925 
L 351.962867 192.297925 
L 351.962867 191.565598 
L 352.760669 191.565598 
L 352.760669 190.833271 
L 353.524666 190.833271 
L 353.52915 189.368616 
L 354.269295 189.368616 
L 354.270261 187.903962 
L 354.986079 187.903962 
L 354.990705 186.439307 
L 355.684738 186.439307 
L 355.684738 185.70698 
L 357.01458 185.70698 
L 357.01458 184.974652 
L 358.872543 184.974652 
L 358.872543 184.242325 
L 360.034434 184.242325 
L 360.034434 183.509998 
L 363.185902 183.509998 
L 363.185902 182.777671 
L 363.672466 182.777671 
L 363.672466 182.045343 
L 365.063938 182.045343 
L 365.063938 181.313016 
L 368.024404 181.313016 
L 368.025077 179.848361 
L 416.908065 179.848361 
L 416.908065 179.848361 
" style="fill:none;stroke:#ffa500;stroke-linecap:square;stroke-width:1.5;"/>
   </g>
   <g id="line2d_13">
    <defs>
     <path d="M 0 -6 
L -1.347084 -1.854102 
L -5.706339 -1.854102 
L -2.179628 0.708204 
L -3.526712 4.854102 
L -0 2.291796 
L 3.526712 4.854102 
L 2.179628 0.708204 
L 5.706339 -1.854102 
L 1.347084 -1.854102 
z
" id="me5e1e09c84" style="stroke:#ffa500;stroke-linejoin:bevel;stroke-width:1.5;"/>
    </defs>
    <g>
     <use style="fill:none;stroke:#ffa500;stroke-linejoin:bevel;stroke-width:1.5;" x="199.300882431" xlink:href="#me5e1e09c84" y="318.258217476"/>
     <use style="fill:none;stroke:#ffa500;stroke-linejoin:bevel;stroke-width:1.5;" x="301.71476547" xlink:href="#me5e1e09c84" y="250.151780391"/>
     <use style="fill:none;stroke:#ffa500;stroke-linejoin:bevel;stroke-width:1.5;" x="368.025076647" xlink:href="#me5e1e09c84" y="180.580688744"/>
     <use style="fill:none;stroke:#ffa500;stroke-linejoin:bevel;stroke-width:1.5;" x="368.025076647" xlink:href="#me5e1e09c84" y="179.848361464"/>
     <use style="fill:none;stroke:#ffa500;stroke-linejoin:bevel;stroke-width:1.5;" x="416.908064516" xlink:href="#me5e1e09c84" y="179.848361464"/>
    </g>
   </g>
   <g id="line2d_14">
    <path d="M -15527.946774 758.386913 
" style="fill:none;stroke:#ffa500;stroke-linecap:square;stroke-width:1.5;"/>
    <g>
     <use style="fill:none;stroke:#ffa500;stroke-linejoin:bevel;stroke-width:1.5;" x="-15527.9467742" xlink:href="#me5e1e09c84" y="758.386913048"/>
    </g>
   </g>
   <g id="line2d_15">
    <path clip-path="url(#p6b621fcb9d)" d="M 277.192367 274.318581 
" style="fill:none;stroke:#ffa500;stroke-linecap:square;"/>
    <defs>
     <path d="M -12 12 
L 12 -12 
M -12 -12 
L 12 12 
" id="mff46befc37" style="stroke:#ffa500;stroke-width:3.0;"/>
    </defs>
    <g clip-path="url(#p6b621fcb9d)">
     <use style="fill:#ffa500;stroke:#ffa500;stroke-width:3.0;" x="277.192367273" xlink:href="#mff46befc37" y="274.318580647"/>
    </g>
   </g>
   <g id="line2d_16">
    <defs>
     <path d="M 0 1.5 
C 0.397805 1.5 0.77937 1.341951 1.06066 1.06066 
C 1.341951 0.77937 1.5 0.397805 1.5 0 
C 1.5 -0.397805 1.341951 -0.77937 1.06066 -1.06066 
C 0.77937 -1.341951 0.397805 -1.5 0 -1.5 
C -0.397805 -1.5 -0.77937 -1.341951 -1.06066 -1.06066 
C -1.341951 -0.77937 -1.5 -0.397805 -1.5 0 
C -1.5 0.397805 -1.341951 0.77937 -1.06066 1.06066 
C -0.77937 1.341951 -0.397805 1.5 0 1.5 
z
" id="mbba7a32f13" style="stroke:#6495ed;stroke-width:0.5;"/>
    </defs>
    <g>
     <use style="fill:#6495ed;stroke:#6495ed;stroke-width:0.5;" x="355.608433747" xlink:href="#mbba7a32f13" y="238.434543903"/>
     <use style="fill:#6495ed;stroke:#6495ed;stroke-width:0.5;" x="355.608433747" xlink:href="#mbba7a32f13" y="238.434543903"/>
    </g>
   </g>
   <g id="line2d_17">
    <path d="M 54.525 384.9 
L 54.525 351.945272 
L 70.109025 351.945272 
L 70.109025 350.480618 
L 79.225095 350.480618 
L 79.225095 347.551309 
L 85.693049 347.551309 
L 85.693049 345.354327 
L 90.709985 345.354327 
L 90.709985 340.960363 
L 94.809119 340.960363 
L 94.809119 339.495709 
L 98.274888 339.495709 
L 98.274888 338.031054 
L 106.294009 338.031054 
L 106.294009 333.63709 
L 112.192744 333.63709 
L 112.192744 331.440109 
L 145.424902 331.440109 
L 145.424902 329.243127 
L 148.720987 329.243127 
L 148.720987 327.046145 
L 151.293274 327.046145 
L 151.293274 325.58149 
L 160.610987 325.58149 
L 160.610987 324.849163 
L 162.899367 324.849163 
L 162.899367 324.116836 
L 167.328478 324.116836 
L 167.328478 322.652181 
L 167.916302 322.652181 
L 167.916302 321.919854 
L 173.647043 321.919854 
L 173.647043 321.187527 
L 174.8508 321.187527 
L 174.8508 319.722872 
L 191.1686 319.722872 
L 191.1686 318.258217 
L 191.92909 318.258217 
L 191.92909 317.52589 
L 193.376993 317.52589 
L 193.376993 315.328908 
L 197.931124 315.328908 
L 197.931124 314.596581 
L 199.479746 314.596581 
L 199.479746 313.864254 
L 199.868307 313.864254 
L 199.868307 312.399599 
L 207.513114 312.399599 
L 207.513114 310.934945 
L 213.304219 310.934945 
L 213.304219 310.202617 
L 215.134919 310.202617 
L 215.134919 309.47029 
L 220.775352 309.47029 
L 220.775352 308.737963 
L 223.748154 308.737963 
L 223.748154 308.005636 
L 224.191714 308.005636 
L 224.191714 307.273308 
L 227.073387 307.273308 
L 227.073387 306.540981 
L 228.054173 306.540981 
L 228.054173 305.808654 
L 231.228147 305.808654 
L 231.306138 304.343999 
L 232.624846 304.343999 
L 232.624846 300.682363 
L 233.045101 300.682363 
L 233.045101 299.950035 
L 233.59089 299.950035 
L 233.59089 297.753054 
L 235.650473 297.753054 
L 235.650473 297.020726 
L 244.929954 297.020726 
L 244.929954 296.288399 
L 247.096825 296.288399 
L 247.096825 294.823745 
L 248.585046 294.823745 
L 248.585046 293.35909 
L 249.151458 293.35909 
L 249.151458 292.626763 
L 250.469339 292.626763 
L 250.469339 291.162108 
L 254.589981 291.162108 
L 254.589981 288.965126 
L 254.806973 288.965126 
L 254.806973 288.232799 
L 256.006232 288.232799 
L 256.006232 287.500472 
L 256.479876 287.500472 
L 256.479876 286.035817 
L 257.755869 286.035817 
L 257.755869 283.838835 
L 258.350818 283.838835 
L 258.350818 283.106508 
L 262.665844 283.106508 
L 262.665844 280.177199 
L 263.07172 280.177199 
L 263.07172 279.444872 
L 266.818523 279.444872 
L 266.818523 278.712544 
L 271.620514 278.712544 
L 271.620514 275.783235 
L 276.155741 275.783235 
L 276.155741 274.318581 
L 280.208736 274.318581 
L 280.208736 273.586253 
L 282.752773 273.586253 
L 282.752773 272.853926 
L 283.166657 272.853926 
L 283.166657 272.121599 
L 284.250638 272.121599 
L 284.285094 270.656944 
L 286.67276 270.656944 
L 286.67276 269.924617 
L 288.667703 269.924617 
L 288.667703 268.459962 
L 290.159791 268.459962 
L 290.167995 266.995308 
L 291.585664 266.995308 
L 291.585664 265.530653 
L 292.703227 265.530653 
L 292.703227 263.333671 
L 295.725592 263.333671 
L 295.725592 262.601344 
L 296.605325 262.601344 
L 296.605325 261.869017 
L 296.885077 261.869017 
L 296.885077 261.13669 
L 299.238376 261.13669 
L 299.238376 260.404362 
L 299.650417 260.404362 
L 299.656004 257.475053 
L 300.180098 257.475053 
L 300.185959 255.278071 
L 301.841647 255.278071 
L 301.841647 254.545744 
L 303.901105 254.545744 
L 303.901105 253.813417 
L 306.698223 253.813417 
L 306.703517 252.348762 
L 307.091498 252.348762 
L 307.091498 251.616435 
L 311.127898 251.616435 
L 311.127898 250.884108 
L 312.058051 250.884108 
L 312.058527 249.419453 
L 312.366248 249.419453 
L 312.366248 248.687126 
L 316.384088 248.687126 
L 316.385661 247.222471 
L 317.45025 247.222471 
L 317.45025 246.490144 
L 320.010624 246.490144 
L 320.010624 245.757817 
L 320.224542 245.757817 
L 320.224542 245.025489 
L 325.869962 245.025489 
L 325.869962 244.293162 
L 328.312327 244.293162 
L 328.312327 243.560835 
L 330.512873 243.560835 
L 330.512873 242.828508 
L 334.361983 242.828508 
L 334.361983 242.09618 
L 336.062422 242.09618 
L 336.062627 240.631526 
L 337.571564 240.631526 
L 337.647866 239.166871 
L 355.608434 239.166871 
L 355.608434 238.434544 
L 416.908065 238.434544 
L 416.908065 238.434544 
" style="fill:none;stroke:#6495ed;stroke-linecap:square;stroke-width:1.5;"/>
   </g>
   <g id="line2d_18">
    <defs>
     <path d="M -0 6 
L 6 -6 
L -6 -6 
z
" id="m07abece7c9" style="stroke:#6495ed;stroke-linejoin:miter;stroke-width:1.5;"/>
    </defs>
    <g>
     <use style="fill:none;stroke:#6495ed;stroke-linejoin:miter;stroke-width:1.5;" x="112.192743672" xlink:href="#m07abece7c9" y="333.637090366"/>
     <use style="fill:none;stroke:#6495ed;stroke-linejoin:miter;stroke-width:1.5;" x="199.868306744" xlink:href="#m07abece7c9" y="312.399599232"/>
     <use style="fill:none;stroke:#6495ed;stroke-linejoin:miter;stroke-width:1.5;" x="296.885076689" xlink:href="#m07abece7c9" y="261.136689598"/>
     <use style="fill:none;stroke:#6495ed;stroke-linejoin:miter;stroke-width:1.5;" x="355.608433747" xlink:href="#m07abece7c9" y="238.434543903"/>
     <use style="fill:none;stroke:#6495ed;stroke-linejoin:miter;stroke-width:1.5;" x="416.908064516" xlink:href="#m07abece7c9" y="238.434543903"/>
    </g>
   </g>
   <g id="line2d_19">
    <path d="M -15527.946774 758.386913 
" style="fill:none;stroke:#6495ed;stroke-linecap:square;stroke-width:1.5;"/>
    <g>
     <use style="fill:none;stroke:#6495ed;stroke-linejoin:miter;stroke-width:1.5;" x="-15527.9467742" xlink:href="#m07abece7c9" y="758.386913048"/>
    </g>
   </g>
   <g id="line2d_20">
    <path clip-path="url(#p6b621fcb9d)" d="M 277.189558 274.318581 
" style="fill:none;stroke:#6495ed;stroke-linecap:square;"/>
    <defs>
     <path d="M -12 12 
L 12 -12 
M -12 -12 
L 12 12 
" id="m931a57e718" style="stroke:#6495ed;stroke-width:3.0;"/>
    </defs>
    <g clip-path="url(#p6b621fcb9d)">
     <use style="fill:#6495ed;stroke:#6495ed;stroke-width:3.0;" x="277.189557636" xlink:href="#m931a57e718" y="274.318580647"/>
    </g>
   </g>
   <g id="line2d_21">
    <defs>
     <path d="M 0 1.5 
C 0.397805 1.5 0.77937 1.341951 1.06066 1.06066 
C 1.341951 0.77937 1.5 0.397805 1.5 0 
C 1.5 -0.397805 1.341951 -0.77937 1.06066 -1.06066 
C 0.77937 -1.341951 0.397805 -1.5 0 -1.5 
C -0.397805 -1.5 -0.77937 -1.341951 -1.06066 -1.06066 
C -1.341951 -0.77937 -1.5 -0.397805 -1.5 0 
C -1.5 0.397805 -1.341951 0.77937 -1.06066 1.06066 
C -0.77937 1.341951 -0.397805 1.5 0 1.5 
z
" id="m37c8ff69e1" style="stroke:#ff0000;stroke-width:0.5;"/>
    </defs>
    <g>
     <use style="fill:#ff0000;stroke:#ff0000;stroke-width:0.5;" x="359.907822577" xlink:href="#m37c8ff69e1" y="275.050907927"/>
     <use style="fill:#ff0000;stroke:#ff0000;stroke-width:0.5;" x="359.907822577" xlink:href="#m37c8ff69e1" y="275.050907927"/>
    </g>
   </g>
   <g id="line2d_22">
    <path d="M 54.525 384.9 
L 54.525 365.859491 
L 79.225095 365.859491 
L 79.225095 365.127163 
L 90.709985 365.127163 
L 90.709985 364.394836 
L 94.809119 364.394836 
L 94.809119 363.662509 
L 98.274888 363.662509 
L 98.274888 362.930182 
L 103.925189 362.930182 
L 103.925189 362.197854 
L 106.294009 362.197854 
L 106.294009 359.268545 
L 108.436868 359.268545 
L 108.436868 358.536218 
L 110.393144 358.536218 
L 110.393144 355.606909 
L 113.858913 355.606909 
L 113.858913 352.6776 
L 133.136962 352.6776 
L 133.136962 351.945272 
L 143.789053 351.945272 
L 143.789053 351.212945 
L 146.200254 351.212945 
L 146.200254 349.748291 
L 158.508241 349.748291 
L 158.508241 349.015963 
L 169.457796 349.015963 
L 169.457796 346.818981 
L 170.124996 346.818981 
L 170.124996 345.354327 
L 173.077823 345.354327 
L 173.077823 343.889672 
L 174.743992 343.889672 
L 174.743992 343.157345 
L 195.043162 343.157345 
L 195.043162 342.425018 
L 205.723898 342.425018 
L 205.750872 339.495709 
L 205.992195 339.495709 
L 205.992195 338.031054 
L 207.211998 338.031054 
L 207.211998 336.566399 
L 214.794939 336.566399 
L 214.794939 335.834072 
L 218.294167 335.834072 
L 218.294167 335.101745 
L 221.104578 335.101745 
L 221.104578 334.369418 
L 225.144624 334.369418 
L 225.144624 331.440109 
L 226.831914 331.440109 
L 226.831914 330.707781 
L 232.860188 330.707781 
L 232.860188 329.975454 
L 233.520447 329.975454 
L 233.598703 325.58149 
L 235.579053 325.58149 
L 235.579053 324.849163 
L 236.414583 324.849163 
L 236.414583 324.116836 
L 238.53111 324.116836 
L 238.53111 323.384508 
L 240.608861 323.384508 
L 240.608861 322.652181 
L 243.214358 322.652181 
L 243.214358 321.919854 
L 244.152117 321.919854 
L 244.152117 321.187527 
L 245.304367 321.187527 
L 245.304367 320.455199 
L 247.010946 320.455199 
L 247.010946 319.722872 
L 247.335554 319.722872 
L 247.335554 318.990545 
L 254.80089 318.990545 
L 254.80089 317.52589 
L 258.16036 317.52589 
L 258.16036 316.793563 
L 259.142105 316.793563 
L 259.142105 316.061236 
L 260.020141 316.061236 
L 260.020141 315.328908 
L 264.82137 315.328908 
L 264.82137 314.596581 
L 265.119419 314.596581 
L 265.119419 313.131927 
L 266.057052 313.131927 
L 266.057052 310.202617 
L 268.82451 310.202617 
L 268.82451 308.737963 
L 275.467469 308.737963 
L 275.467469 308.005636 
L 279.41869 308.005636 
L 279.41869 307.273308 
L 280.21414 307.273308 
L 280.217579 305.808654 
L 282.086588 305.808654 
L 282.086588 304.343999 
L 282.41235 304.343999 
L 282.41235 303.611672 
L 283.784438 303.611672 
L 283.784438 302.879345 
L 286.187681 302.879345 
L 286.187681 300.682363 
L 287.400222 300.682363 
L 287.400222 299.950035 
L 287.890487 299.950035 
L 287.960555 297.020726 
L 288.981865 297.020726 
L 288.981865 296.288399 
L 294.33958 296.288399 
L 294.33958 295.556072 
L 297.380388 295.556072 
L 297.380388 294.823745 
L 298.796513 294.823745 
L 298.796513 294.091417 
L 302.946747 294.091417 
L 302.946747 293.35909 
L 305.307201 293.35909 
L 305.307201 292.626763 
L 305.896216 292.626763 
L 305.896216 291.894435 
L 306.048681 291.894435 
L 306.050393 289.697454 
L 309.155864 289.697454 
L 309.155864 288.965126 
L 311.570643 288.965126 
L 311.570643 288.232799 
L 315.961633 288.232799 
L 315.983261 286.768144 
L 318.006973 286.768144 
L 318.006973 286.035817 
L 319.565663 286.035817 
L 319.565663 285.30349 
L 322.816131 285.30349 
L 322.81842 283.106508 
L 331.394738 283.106508 
L 331.396453 281.641853 
L 332.31434 281.641853 
L 332.315066 280.177199 
L 334.171958 280.177199 
L 334.171958 279.444872 
L 338.291108 279.444872 
L 338.291108 278.712544 
L 340.367937 278.712544 
L 340.367937 277.980217 
L 350.566231 277.980217 
L 350.566231 277.24789 
L 354.112022 277.24789 
L 354.112022 276.515562 
L 354.835961 276.515562 
L 354.835961 275.783235 
L 359.907823 275.783235 
L 359.907823 275.050908 
L 416.908065 275.050908 
L 416.908065 275.050908 
" style="fill:none;stroke:#ff0000;stroke-linecap:square;stroke-width:1.5;"/>
   </g>
   <g id="line2d_23">
    <defs>
     <path d="M 0 -6 
L -5.196152 -3 
L -5.196152 3 
L -0 6 
L 5.196152 3 
L 5.196152 -3 
z
" id="m4df6f95841" style="stroke:#ff0000;stroke-linejoin:miter;stroke-width:1.5;"/>
    </defs>
    <g>
     <use style="fill:none;stroke:#ff0000;stroke-linejoin:miter;stroke-width:1.5;" x="110.393143873" xlink:href="#m4df6f95841" y="355.606908781"/>
     <use style="fill:none;stroke:#ff0000;stroke-linejoin:miter;stroke-width:1.5;" x="214.794938963" xlink:href="#m4df6f95841" y="335.834072207"/>
     <use style="fill:none;stroke:#ff0000;stroke-linejoin:miter;stroke-width:1.5;" x="340.367937237" xlink:href="#m4df6f95841" y="278.71254433"/>
     <use style="fill:none;stroke:#ff0000;stroke-linejoin:miter;stroke-width:1.5;" x="359.907822577" xlink:href="#m4df6f95841" y="275.050907927"/>
     <use style="fill:none;stroke:#ff0000;stroke-linejoin:miter;stroke-width:1.5;" x="416.908064516" xlink:href="#m4df6f95841" y="275.050907927"/>
    </g>
   </g>
   <g id="line2d_24">
    <path d="M -15527.946774 758.386913 
" style="fill:none;stroke:#ff0000;stroke-linecap:square;stroke-width:1.5;"/>
    <g>
     <use style="fill:none;stroke:#ff0000;stroke-linejoin:miter;stroke-width:1.5;" x="-15527.9467742" xlink:href="#m4df6f95841" y="758.386913048"/>
    </g>
   </g>
   <g id="line2d_25">
    <path clip-path="url(#p6b621fcb9d)" d="M 277.192367 308.005636 
" style="fill:none;stroke:#ff0000;stroke-linecap:square;"/>
    <defs>
     <path d="M -12 12 
L 12 -12 
M -12 -12 
L 12 12 
" id="m226628bf16" style="stroke:#ff0000;stroke-width:3.0;"/>
    </defs>
    <g clip-path="url(#p6b621fcb9d)">
     <use style="fill:#ff0000;stroke:#ff0000;stroke-width:3.0;" x="277.192367273" xlink:href="#m226628bf16" y="308.005635549"/>
    </g>
   </g>
   <g id="line2d_26">
    <path d="M 416.908065 275.050908 
L 456.770202 377.430262 
" style="fill:none;stroke:#ff0000;stroke-linecap:square;stroke-width:1.5;"/>
    <g>
     <use style="fill:none;stroke:#ff0000;stroke-linejoin:miter;stroke-width:1.5;" x="416.908064516" xlink:href="#m4df6f95841" y="275.050907927"/>
     <use style="fill:none;stroke:#ff0000;stroke-linejoin:miter;stroke-width:1.5;" x="456.770201613" xlink:href="#m4df6f95841" y="377.430261739"/>
    </g>
   </g>
   <g id="line2d_27">
    <path d="M 416.908065 267.727635 
L 456.770202 287.793403 
" style="fill:none;stroke:#000080;stroke-linecap:square;stroke-width:1.5;"/>
    <g>
     <use style="fill:none;stroke:#000080;stroke-width:1.5;" x="416.908064516" xlink:href="#m9a9084a624" y="267.727635122"/>
     <use style="fill:none;stroke:#000080;stroke-width:1.5;" x="456.770201613" xlink:href="#m9a9084a624" y="287.793402608"/>
    </g>
   </g>
   <g id="line2d_28">
    <path d="M 416.908065 238.434544 
L 456.770202 198.156543 
" style="fill:none;stroke:#6495ed;stroke-linecap:square;stroke-width:1.5;"/>
    <g>
     <use style="fill:none;stroke:#6495ed;stroke-linejoin:miter;stroke-width:1.5;" x="416.908064516" xlink:href="#m07abece7c9" y="238.434543903"/>
     <use style="fill:none;stroke:#6495ed;stroke-linejoin:miter;stroke-width:1.5;" x="456.770201613" xlink:href="#m07abece7c9" y="198.156543476"/>
    </g>
   </g>
   <g id="line2d_29">
    <path d="M 416.908065 179.848361 
L 456.770202 108.519684 
" style="fill:none;stroke:#ffa500;stroke-linecap:square;stroke-width:1.5;"/>
    <g>
     <use style="fill:none;stroke:#ffa500;stroke-linejoin:bevel;stroke-width:1.5;" x="416.908064516" xlink:href="#me5e1e09c84" y="179.848361464"/>
     <use style="fill:none;stroke:#ffa500;stroke-linejoin:bevel;stroke-width:1.5;" x="456.770201613" xlink:href="#me5e1e09c84" y="108.519684345"/>
    </g>
   </g>
   <g id="line2d_30">
    <path d="M 416.908065 172.525089 
L 456.770202 18.882825 
" style="fill:none;stroke:#ff00ff;stroke-linecap:square;stroke-width:1.5;"/>
    <g>
     <use style="fill:none;stroke:#ff00ff;stroke-linejoin:miter;stroke-width:1.5;" x="416.908064516" xlink:href="#m3dc2fbd445" y="172.525088659"/>
     <use style="fill:none;stroke:#ff00ff;stroke-linejoin:miter;stroke-width:1.5;" x="456.770201613" xlink:href="#m3dc2fbd445" y="18.8828252132"/>
    </g>
   </g>
   <g id="line2d_31">
    <path d="M 416.908065 384.9 
L 416.908065 11.413087 
" style="fill:none;stroke:#000000;stroke-linecap:square;"/>
   </g>
   <g id="patch_3">
    <path d="M 54.525 7.678218 
L 503.88 7.678218 
" style="fill:none;stroke:#000000;stroke-linecap:square;stroke-linejoin:miter;"/>
   </g>
   <g id="patch_4">
    <path d="M 503.88 384.9 
L 503.88 7.678218 
" style="fill:none;stroke:#000000;stroke-linecap:square;stroke-linejoin:miter;"/>
   </g>
   <g id="patch_5">
    <path d="M 54.525 384.9 
L 503.88 384.9 
" style="fill:none;stroke:#000000;stroke-linecap:square;stroke-linejoin:miter;"/>
   </g>
   <g id="patch_6">
    <path d="M 54.525 384.9 
L 54.525 7.678218 
" style="fill:none;stroke:#000000;stroke-linecap:square;stroke-linejoin:miter;"/>
   </g>
   <g id="matplotlib.axis_1">
    <g id="xtick_1">
     <g id="line2d_32">
      <path clip-path="url(#p6b621fcb9d)" d="M 54.525 384.9 
L 54.525 7.678218 
" style="fill:none;stroke:#000000;stroke-dasharray:1.000000,3.000000;stroke-dashoffset:0.0;stroke-width:0.5;"/>
     </g>
     <g id="line2d_33">
      <defs>
       <path d="M 0 0 
L 0 -4 
" id="m28527ae3a3" style="stroke:#000000;stroke-width:0.5;"/>
      </defs>
      <g>
       <use style="stroke:#000000;stroke-width:0.5;" x="54.525" xlink:href="#m28527ae3a3" y="384.9"/>
      </g>
     </g>
     <g id="line2d_34">
      <defs>
       <path d="M 0 0 
L 0 4 
" id="mffbf4f608d" style="stroke:#000000;stroke-width:0.5;"/>
      </defs>
      <g>
       <use style="stroke:#000000;stroke-width:0.5;" x="54.525" xlink:href="#mffbf4f608d" y="7.67821782178"/>
      </g>
     </g>
     <g id="text_1">
      <!-- 0 -->
      <defs>
       <path d="M 31.78125 66.40625 
Q 24.171875 66.40625 20.328125 58.90625 
Q 16.5 51.421875 16.5 36.375 
Q 16.5 21.390625 20.328125 13.890625 
Q 24.171875 6.390625 31.78125 6.390625 
Q 39.453125 6.390625 43.28125 13.890625 
Q 47.125 21.390625 47.125 36.375 
Q 47.125 51.421875 43.28125 58.90625 
Q 39.453125 66.40625 31.78125 66.40625 
M 31.78125 74.21875 
Q 44.046875 74.21875 50.515625 64.515625 
Q 56.984375 54.828125 56.984375 36.375 
Q 56.984375 17.96875 50.515625 8.265625 
Q 44.046875 -1.421875 31.78125 -1.421875 
Q 19.53125 -1.421875 13.0625 8.265625 
Q 6.59375 17.96875 6.59375 36.375 
Q 6.59375 54.828125 13.0625 64.515625 
Q 19.53125 74.21875 31.78125 74.21875 
" id="BitstreamVeraSans-Roman-30"/>
      </defs>
      <g transform="translate(48.1625 404.096875)scale(0.2 -0.2)">
       <use xlink:href="#BitstreamVeraSans-Roman-30"/>
      </g>
     </g>
    </g>
    <g id="xtick_2">
     <g id="line2d_35">
      <path clip-path="url(#p6b621fcb9d)" d="M 106.294009 384.9 
L 106.294009 7.678218 
" style="fill:none;stroke:#000000;stroke-dasharray:1.000000,3.000000;stroke-dashoffset:0.0;stroke-width:0.5;"/>
     </g>
     <g id="line2d_36">
      <g>
       <use style="stroke:#000000;stroke-width:0.5;" x="106.294009217" xlink:href="#m28527ae3a3" y="384.9"/>
      </g>
     </g>
     <g id="line2d_37">
      <g>
       <use style="stroke:#000000;stroke-width:0.5;" x="106.294009217" xlink:href="#mffbf4f608d" y="7.67821782178"/>
      </g>
     </g>
     <g id="text_2">
      <!-- 1 -->
      <defs>
       <path d="M 12.40625 8.296875 
L 28.515625 8.296875 
L 28.515625 63.921875 
L 10.984375 60.40625 
L 10.984375 69.390625 
L 28.421875 72.90625 
L 38.28125 72.90625 
L 38.28125 8.296875 
L 54.390625 8.296875 
L 54.390625 0 
L 12.40625 0 
z
" id="BitstreamVeraSans-Roman-31"/>
      </defs>
      <g transform="translate(99.9315092166 404.096875)scale(0.2 -0.2)">
       <use xlink:href="#BitstreamVeraSans-Roman-31"/>
      </g>
     </g>
    </g>
    <g id="xtick_3">
     <g id="line2d_38">
      <path clip-path="url(#p6b621fcb9d)" d="M 158.063018 384.9 
L 158.063018 7.678218 
" style="fill:none;stroke:#000000;stroke-dasharray:1.000000,3.000000;stroke-dashoffset:0.0;stroke-width:0.5;"/>
     </g>
     <g id="line2d_39">
      <g>
       <use style="stroke:#000000;stroke-width:0.5;" x="158.063018433" xlink:href="#m28527ae3a3" y="384.9"/>
      </g>
     </g>
     <g id="line2d_40">
      <g>
       <use style="stroke:#000000;stroke-width:0.5;" x="158.063018433" xlink:href="#mffbf4f608d" y="7.67821782178"/>
      </g>
     </g>
     <g id="text_3">
      <!-- 2 -->
      <defs>
       <path d="M 19.1875 8.296875 
L 53.609375 8.296875 
L 53.609375 0 
L 7.328125 0 
L 7.328125 8.296875 
Q 12.9375 14.109375 22.625 23.890625 
Q 32.328125 33.6875 34.8125 36.53125 
Q 39.546875 41.84375 41.421875 45.53125 
Q 43.3125 49.21875 43.3125 52.78125 
Q 43.3125 58.59375 39.234375 62.25 
Q 35.15625 65.921875 28.609375 65.921875 
Q 23.96875 65.921875 18.8125 64.3125 
Q 13.671875 62.703125 7.8125 59.421875 
L 7.8125 69.390625 
Q 13.765625 71.78125 18.9375 73 
Q 24.125 74.21875 28.421875 74.21875 
Q 39.75 74.21875 46.484375 68.546875 
Q 53.21875 62.890625 53.21875 53.421875 
Q 53.21875 48.921875 51.53125 44.890625 
Q 49.859375 40.875 45.40625 35.40625 
Q 44.1875 33.984375 37.640625 27.21875 
Q 31.109375 20.453125 19.1875 8.296875 
" id="BitstreamVeraSans-Roman-32"/>
      </defs>
      <g transform="translate(151.700518433 404.096875)scale(0.2 -0.2)">
       <use xlink:href="#BitstreamVeraSans-Roman-32"/>
      </g>
     </g>
    </g>
    <g id="xtick_4">
     <g id="line2d_41">
      <path clip-path="url(#p6b621fcb9d)" d="M 209.832028 384.9 
L 209.832028 7.678218 
" style="fill:none;stroke:#000000;stroke-dasharray:1.000000,3.000000;stroke-dashoffset:0.0;stroke-width:0.5;"/>
     </g>
     <g id="line2d_42">
      <g>
       <use style="stroke:#000000;stroke-width:0.5;" x="209.83202765" xlink:href="#m28527ae3a3" y="384.9"/>
      </g>
     </g>
     <g id="line2d_43">
      <g>
       <use style="stroke:#000000;stroke-width:0.5;" x="209.83202765" xlink:href="#mffbf4f608d" y="7.67821782178"/>
      </g>
     </g>
     <g id="text_4">
      <!-- 3 -->
      <defs>
       <path d="M 40.578125 39.3125 
Q 47.65625 37.796875 51.625 33 
Q 55.609375 28.21875 55.609375 21.1875 
Q 55.609375 10.40625 48.1875 4.484375 
Q 40.765625 -1.421875 27.09375 -1.421875 
Q 22.515625 -1.421875 17.65625 -0.515625 
Q 12.796875 0.390625 7.625 2.203125 
L 7.625 11.71875 
Q 11.71875 9.328125 16.59375 8.109375 
Q 21.484375 6.890625 26.8125 6.890625 
Q 36.078125 6.890625 40.9375 10.546875 
Q 45.796875 14.203125 45.796875 21.1875 
Q 45.796875 27.640625 41.28125 31.265625 
Q 36.765625 34.90625 28.71875 34.90625 
L 20.21875 34.90625 
L 20.21875 43.015625 
L 29.109375 43.015625 
Q 36.375 43.015625 40.234375 45.921875 
Q 44.09375 48.828125 44.09375 54.296875 
Q 44.09375 59.90625 40.109375 62.90625 
Q 36.140625 65.921875 28.71875 65.921875 
Q 24.65625 65.921875 20.015625 65.03125 
Q 15.375 64.15625 9.8125 62.3125 
L 9.8125 71.09375 
Q 15.4375 72.65625 20.34375 73.4375 
Q 25.25 74.21875 29.59375 74.21875 
Q 40.828125 74.21875 47.359375 69.109375 
Q 53.90625 64.015625 53.90625 55.328125 
Q 53.90625 49.265625 50.4375 45.09375 
Q 46.96875 40.921875 40.578125 39.3125 
" id="BitstreamVeraSans-Roman-33"/>
      </defs>
      <g transform="translate(203.46952765 404.096875)scale(0.2 -0.2)">
       <use xlink:href="#BitstreamVeraSans-Roman-33"/>
      </g>
     </g>
    </g>
    <g id="xtick_5">
     <g id="line2d_44">
      <path clip-path="url(#p6b621fcb9d)" d="M 261.601037 384.9 
L 261.601037 7.678218 
" style="fill:none;stroke:#000000;stroke-dasharray:1.000000,3.000000;stroke-dashoffset:0.0;stroke-width:0.5;"/>
     </g>
     <g id="line2d_45">
      <g>
       <use style="stroke:#000000;stroke-width:0.5;" x="261.601036866" xlink:href="#m28527ae3a3" y="384.9"/>
      </g>
     </g>
     <g id="line2d_46">
      <g>
       <use style="stroke:#000000;stroke-width:0.5;" x="261.601036866" xlink:href="#mffbf4f608d" y="7.67821782178"/>
      </g>
     </g>
     <g id="text_5">
      <!-- 4 -->
      <defs>
       <path d="M 37.796875 64.3125 
L 12.890625 25.390625 
L 37.796875 25.390625 
z
M 35.203125 72.90625 
L 47.609375 72.90625 
L 47.609375 25.390625 
L 58.015625 25.390625 
L 58.015625 17.1875 
L 47.609375 17.1875 
L 47.609375 0 
L 37.796875 0 
L 37.796875 17.1875 
L 4.890625 17.1875 
L 4.890625 26.703125 
z
" id="BitstreamVeraSans-Roman-34"/>
      </defs>
      <g transform="translate(255.238536866 404.096875)scale(0.2 -0.2)">
       <use xlink:href="#BitstreamVeraSans-Roman-34"/>
      </g>
     </g>
    </g>
    <g id="xtick_6">
     <g id="line2d_47">
      <path clip-path="url(#p6b621fcb9d)" d="M 313.370046 384.9 
L 313.370046 7.678218 
" style="fill:none;stroke:#000000;stroke-dasharray:1.000000,3.000000;stroke-dashoffset:0.0;stroke-width:0.5;"/>
     </g>
     <g id="line2d_48">
      <g>
       <use style="stroke:#000000;stroke-width:0.5;" x="313.370046083" xlink:href="#m28527ae3a3" y="384.9"/>
      </g>
     </g>
     <g id="line2d_49">
      <g>
       <use style="stroke:#000000;stroke-width:0.5;" x="313.370046083" xlink:href="#mffbf4f608d" y="7.67821782178"/>
      </g>
     </g>
     <g id="text_6">
      <!-- 5 -->
      <defs>
       <path d="M 10.796875 72.90625 
L 49.515625 72.90625 
L 49.515625 64.59375 
L 19.828125 64.59375 
L 19.828125 46.734375 
Q 21.96875 47.46875 24.109375 47.828125 
Q 26.265625 48.1875 28.421875 48.1875 
Q 40.625 48.1875 47.75 41.5 
Q 54.890625 34.8125 54.890625 23.390625 
Q 54.890625 11.625 47.5625 5.09375 
Q 40.234375 -1.421875 26.90625 -1.421875 
Q 22.3125 -1.421875 17.546875 -0.640625 
Q 12.796875 0.140625 7.71875 1.703125 
L 7.71875 11.625 
Q 12.109375 9.234375 16.796875 8.0625 
Q 21.484375 6.890625 26.703125 6.890625 
Q 35.15625 6.890625 40.078125 11.328125 
Q 45.015625 15.765625 45.015625 23.390625 
Q 45.015625 31 40.078125 35.4375 
Q 35.15625 39.890625 26.703125 39.890625 
Q 22.75 39.890625 18.8125 39.015625 
Q 14.890625 38.140625 10.796875 36.28125 
z
" id="BitstreamVeraSans-Roman-35"/>
      </defs>
      <g transform="translate(307.007546083 404.096875)scale(0.2 -0.2)">
       <use xlink:href="#BitstreamVeraSans-Roman-35"/>
      </g>
     </g>
    </g>
    <g id="xtick_7">
     <g id="line2d_50">
      <path clip-path="url(#p6b621fcb9d)" d="M 365.139055 384.9 
L 365.139055 7.678218 
" style="fill:none;stroke:#000000;stroke-dasharray:1.000000,3.000000;stroke-dashoffset:0.0;stroke-width:0.5;"/>
     </g>
     <g id="line2d_51">
      <g>
       <use style="stroke:#000000;stroke-width:0.5;" x="365.1390553" xlink:href="#m28527ae3a3" y="384.9"/>
      </g>
     </g>
     <g id="line2d_52">
      <g>
       <use style="stroke:#000000;stroke-width:0.5;" x="365.1390553" xlink:href="#mffbf4f608d" y="7.67821782178"/>
      </g>
     </g>
     <g id="text_7">
      <!-- 6 -->
      <defs>
       <path d="M 33.015625 40.375 
Q 26.375 40.375 22.484375 35.828125 
Q 18.609375 31.296875 18.609375 23.390625 
Q 18.609375 15.53125 22.484375 10.953125 
Q 26.375 6.390625 33.015625 6.390625 
Q 39.65625 6.390625 43.53125 10.953125 
Q 47.40625 15.53125 47.40625 23.390625 
Q 47.40625 31.296875 43.53125 35.828125 
Q 39.65625 40.375 33.015625 40.375 
M 52.59375 71.296875 
L 52.59375 62.3125 
Q 48.875 64.0625 45.09375 64.984375 
Q 41.3125 65.921875 37.59375 65.921875 
Q 27.828125 65.921875 22.671875 59.328125 
Q 17.53125 52.734375 16.796875 39.40625 
Q 19.671875 43.65625 24.015625 45.921875 
Q 28.375 48.1875 33.59375 48.1875 
Q 44.578125 48.1875 50.953125 41.515625 
Q 57.328125 34.859375 57.328125 23.390625 
Q 57.328125 12.15625 50.6875 5.359375 
Q 44.046875 -1.421875 33.015625 -1.421875 
Q 20.359375 -1.421875 13.671875 8.265625 
Q 6.984375 17.96875 6.984375 36.375 
Q 6.984375 53.65625 15.1875 63.9375 
Q 23.390625 74.21875 37.203125 74.21875 
Q 40.921875 74.21875 44.703125 73.484375 
Q 48.484375 72.75 52.59375 71.296875 
" id="BitstreamVeraSans-Roman-36"/>
      </defs>
      <g transform="translate(358.7765553 404.096875)scale(0.2 -0.2)">
       <use xlink:href="#BitstreamVeraSans-Roman-36"/>
      </g>
     </g>
    </g>
    <g id="xtick_8">
     <g id="line2d_53">
      <path clip-path="url(#p6b621fcb9d)" d="M 416.908065 384.9 
L 416.908065 7.678218 
" style="fill:none;stroke:#000000;stroke-dasharray:1.000000,3.000000;stroke-dashoffset:0.0;stroke-width:0.5;"/>
     </g>
     <g id="line2d_54">
      <g>
       <use style="stroke:#000000;stroke-width:0.5;" x="416.908064516" xlink:href="#m28527ae3a3" y="384.9"/>
      </g>
     </g>
     <g id="line2d_55">
      <g>
       <use style="stroke:#000000;stroke-width:0.5;" x="416.908064516" xlink:href="#mffbf4f608d" y="7.67821782178"/>
      </g>
     </g>
     <g id="text_8">
      <!-- 7 -->
      <defs>
       <path d="M 8.203125 72.90625 
L 55.078125 72.90625 
L 55.078125 68.703125 
L 28.609375 0 
L 18.3125 0 
L 43.21875 64.59375 
L 8.203125 64.59375 
z
" id="BitstreamVeraSans-Roman-37"/>
      </defs>
      <g transform="translate(410.545564516 404.096875)scale(0.2 -0.2)">
       <use xlink:href="#BitstreamVeraSans-Roman-37"/>
      </g>
     </g>
    </g>
    <g id="xtick_9">
     <g id="line2d_56">
      <path clip-path="url(#p6b621fcb9d)" d="M 468.677074 384.9 
L 468.677074 7.678218 
" style="fill:none;stroke:#000000;stroke-dasharray:1.000000,3.000000;stroke-dashoffset:0.0;stroke-width:0.5;"/>
     </g>
     <g id="line2d_57">
      <g>
       <use style="stroke:#000000;stroke-width:0.5;" x="468.677073733" xlink:href="#m28527ae3a3" y="384.9"/>
      </g>
     </g>
     <g id="line2d_58">
      <g>
       <use style="stroke:#000000;stroke-width:0.5;" x="468.677073733" xlink:href="#mffbf4f608d" y="7.67821782178"/>
      </g>
     </g>
     <g id="text_9">
      <!-- 8 -->
      <defs>
       <path d="M 31.78125 34.625 
Q 24.75 34.625 20.71875 30.859375 
Q 16.703125 27.09375 16.703125 20.515625 
Q 16.703125 13.921875 20.71875 10.15625 
Q 24.75 6.390625 31.78125 6.390625 
Q 38.8125 6.390625 42.859375 10.171875 
Q 46.921875 13.96875 46.921875 20.515625 
Q 46.921875 27.09375 42.890625 30.859375 
Q 38.875 34.625 31.78125 34.625 
M 21.921875 38.8125 
Q 15.578125 40.375 12.03125 44.71875 
Q 8.5 49.078125 8.5 55.328125 
Q 8.5 64.0625 14.71875 69.140625 
Q 20.953125 74.21875 31.78125 74.21875 
Q 42.671875 74.21875 48.875 69.140625 
Q 55.078125 64.0625 55.078125 55.328125 
Q 55.078125 49.078125 51.53125 44.71875 
Q 48 40.375 41.703125 38.8125 
Q 48.828125 37.15625 52.796875 32.3125 
Q 56.78125 27.484375 56.78125 20.515625 
Q 56.78125 9.90625 50.3125 4.234375 
Q 43.84375 -1.421875 31.78125 -1.421875 
Q 19.734375 -1.421875 13.25 4.234375 
Q 6.78125 9.90625 6.78125 20.515625 
Q 6.78125 27.484375 10.78125 32.3125 
Q 14.796875 37.15625 21.921875 38.8125 
M 18.3125 54.390625 
Q 18.3125 48.734375 21.84375 45.5625 
Q 25.390625 42.390625 31.78125 42.390625 
Q 38.140625 42.390625 41.71875 45.5625 
Q 45.3125 48.734375 45.3125 54.390625 
Q 45.3125 60.0625 41.71875 63.234375 
Q 38.140625 66.40625 31.78125 66.40625 
Q 25.390625 66.40625 21.84375 63.234375 
Q 18.3125 60.0625 18.3125 54.390625 
" id="BitstreamVeraSans-Roman-38"/>
      </defs>
      <g transform="translate(462.314573733 404.096875)scale(0.2 -0.2)">
       <use xlink:href="#BitstreamVeraSans-Roman-38"/>
      </g>
     </g>
    </g>
    <g id="xtick_10">
     <g id="line2d_59">
      <defs>
       <path d="M 0 0 
L 0 -2 
" id="m0db99fdb3d" style="stroke:#000000;stroke-width:0.5;"/>
      </defs>
      <g>
       <use style="stroke:#000000;stroke-width:0.5;" x="70.10902462" xlink:href="#m0db99fdb3d" y="384.9"/>
      </g>
     </g>
     <g id="line2d_60">
      <defs>
       <path d="M 0 0 
L 0 2 
" id="m0db99616af" style="stroke:#000000;stroke-width:0.5;"/>
      </defs>
      <g>
       <use style="stroke:#000000;stroke-width:0.5;" x="70.10902462" xlink:href="#m0db99616af" y="7.67821782178"/>
      </g>
     </g>
    </g>
    <g id="xtick_11">
     <g id="line2d_61">
      <g>
       <use style="stroke:#000000;stroke-width:0.5;" x="85.69304924" xlink:href="#m0db99fdb3d" y="384.9"/>
      </g>
     </g>
     <g id="line2d_62">
      <g>
       <use style="stroke:#000000;stroke-width:0.5;" x="85.69304924" xlink:href="#m0db99616af" y="7.67821782178"/>
      </g>
     </g>
    </g>
    <g id="xtick_12">
     <g id="line2d_63">
      <g>
       <use style="stroke:#000000;stroke-width:0.5;" x="94.809119253" xlink:href="#m0db99fdb3d" y="384.9"/>
      </g>
     </g>
     <g id="line2d_64">
      <g>
       <use style="stroke:#000000;stroke-width:0.5;" x="94.809119253" xlink:href="#m0db99616af" y="7.67821782178"/>
      </g>
     </g>
    </g>
    <g id="xtick_13">
     <g id="line2d_65">
      <g>
       <use style="stroke:#000000;stroke-width:0.5;" x="101.27707386" xlink:href="#m0db99fdb3d" y="384.9"/>
      </g>
     </g>
     <g id="line2d_66">
      <g>
       <use style="stroke:#000000;stroke-width:0.5;" x="101.27707386" xlink:href="#m0db99616af" y="7.67821782178"/>
      </g>
     </g>
    </g>
    <g id="xtick_14">
     <g id="line2d_67">
      <g>
       <use style="stroke:#000000;stroke-width:0.5;" x="121.878033837" xlink:href="#m0db99fdb3d" y="384.9"/>
      </g>
     </g>
     <g id="line2d_68">
      <g>
       <use style="stroke:#000000;stroke-width:0.5;" x="121.878033837" xlink:href="#m0db99616af" y="7.67821782178"/>
      </g>
     </g>
    </g>
    <g id="xtick_15">
     <g id="line2d_69">
      <g>
       <use style="stroke:#000000;stroke-width:0.5;" x="137.462058457" xlink:href="#m0db99fdb3d" y="384.9"/>
      </g>
     </g>
     <g id="line2d_70">
      <g>
       <use style="stroke:#000000;stroke-width:0.5;" x="137.462058457" xlink:href="#m0db99616af" y="7.67821782178"/>
      </g>
     </g>
    </g>
    <g id="xtick_16">
     <g id="line2d_71">
      <g>
       <use style="stroke:#000000;stroke-width:0.5;" x="146.57812847" xlink:href="#m0db99fdb3d" y="384.9"/>
      </g>
     </g>
     <g id="line2d_72">
      <g>
       <use style="stroke:#000000;stroke-width:0.5;" x="146.57812847" xlink:href="#m0db99616af" y="7.67821782178"/>
      </g>
     </g>
    </g>
    <g id="xtick_17">
     <g id="line2d_73">
      <g>
       <use style="stroke:#000000;stroke-width:0.5;" x="153.046083077" xlink:href="#m0db99fdb3d" y="384.9"/>
      </g>
     </g>
     <g id="line2d_74">
      <g>
       <use style="stroke:#000000;stroke-width:0.5;" x="153.046083077" xlink:href="#m0db99616af" y="7.67821782178"/>
      </g>
     </g>
    </g>
    <g id="xtick_18">
     <g id="line2d_75">
      <g>
       <use style="stroke:#000000;stroke-width:0.5;" x="173.647043053" xlink:href="#m0db99fdb3d" y="384.9"/>
      </g>
     </g>
     <g id="line2d_76">
      <g>
       <use style="stroke:#000000;stroke-width:0.5;" x="173.647043053" xlink:href="#m0db99616af" y="7.67821782178"/>
      </g>
     </g>
    </g>
    <g id="xtick_19">
     <g id="line2d_77">
      <g>
       <use style="stroke:#000000;stroke-width:0.5;" x="189.231067673" xlink:href="#m0db99fdb3d" y="384.9"/>
      </g>
     </g>
     <g id="line2d_78">
      <g>
       <use style="stroke:#000000;stroke-width:0.5;" x="189.231067673" xlink:href="#m0db99616af" y="7.67821782178"/>
      </g>
     </g>
    </g>
    <g id="xtick_20">
     <g id="line2d_79">
      <g>
       <use style="stroke:#000000;stroke-width:0.5;" x="198.347137686" xlink:href="#m0db99fdb3d" y="384.9"/>
      </g>
     </g>
     <g id="line2d_80">
      <g>
       <use style="stroke:#000000;stroke-width:0.5;" x="198.347137686" xlink:href="#m0db99616af" y="7.67821782178"/>
      </g>
     </g>
    </g>
    <g id="xtick_21">
     <g id="line2d_81">
      <g>
       <use style="stroke:#000000;stroke-width:0.5;" x="204.815092293" xlink:href="#m0db99fdb3d" y="384.9"/>
      </g>
     </g>
     <g id="line2d_82">
      <g>
       <use style="stroke:#000000;stroke-width:0.5;" x="204.815092293" xlink:href="#m0db99616af" y="7.67821782178"/>
      </g>
     </g>
    </g>
    <g id="xtick_22">
     <g id="line2d_83">
      <g>
       <use style="stroke:#000000;stroke-width:0.5;" x="225.41605227" xlink:href="#m0db99fdb3d" y="384.9"/>
      </g>
     </g>
     <g id="line2d_84">
      <g>
       <use style="stroke:#000000;stroke-width:0.5;" x="225.41605227" xlink:href="#m0db99616af" y="7.67821782178"/>
      </g>
     </g>
    </g>
    <g id="xtick_23">
     <g id="line2d_85">
      <g>
       <use style="stroke:#000000;stroke-width:0.5;" x="241.00007689" xlink:href="#m0db99fdb3d" y="384.9"/>
      </g>
     </g>
     <g id="line2d_86">
      <g>
       <use style="stroke:#000000;stroke-width:0.5;" x="241.00007689" xlink:href="#m0db99616af" y="7.67821782178"/>
      </g>
     </g>
    </g>
    <g id="xtick_24">
     <g id="line2d_87">
      <g>
       <use style="stroke:#000000;stroke-width:0.5;" x="250.116146903" xlink:href="#m0db99fdb3d" y="384.9"/>
      </g>
     </g>
     <g id="line2d_88">
      <g>
       <use style="stroke:#000000;stroke-width:0.5;" x="250.116146903" xlink:href="#m0db99616af" y="7.67821782178"/>
      </g>
     </g>
    </g>
    <g id="xtick_25">
     <g id="line2d_89">
      <g>
       <use style="stroke:#000000;stroke-width:0.5;" x="256.58410151" xlink:href="#m0db99fdb3d" y="384.9"/>
      </g>
     </g>
     <g id="line2d_90">
      <g>
       <use style="stroke:#000000;stroke-width:0.5;" x="256.58410151" xlink:href="#m0db99616af" y="7.67821782178"/>
      </g>
     </g>
    </g>
    <g id="xtick_26">
     <g id="line2d_91">
      <g>
       <use style="stroke:#000000;stroke-width:0.5;" x="277.185061486" xlink:href="#m0db99fdb3d" y="384.9"/>
      </g>
     </g>
     <g id="line2d_92">
      <g>
       <use style="stroke:#000000;stroke-width:0.5;" x="277.185061486" xlink:href="#m0db99616af" y="7.67821782178"/>
      </g>
     </g>
    </g>
    <g id="xtick_27">
     <g id="line2d_93">
      <g>
       <use style="stroke:#000000;stroke-width:0.5;" x="292.769086106" xlink:href="#m0db99fdb3d" y="384.9"/>
      </g>
     </g>
     <g id="line2d_94">
      <g>
       <use style="stroke:#000000;stroke-width:0.5;" x="292.769086106" xlink:href="#m0db99616af" y="7.67821782178"/>
      </g>
     </g>
    </g>
    <g id="xtick_28">
     <g id="line2d_95">
      <g>
       <use style="stroke:#000000;stroke-width:0.5;" x="301.885156119" xlink:href="#m0db99fdb3d" y="384.9"/>
      </g>
     </g>
     <g id="line2d_96">
      <g>
       <use style="stroke:#000000;stroke-width:0.5;" x="301.885156119" xlink:href="#m0db99616af" y="7.67821782178"/>
      </g>
     </g>
    </g>
    <g id="xtick_29">
     <g id="line2d_97">
      <g>
       <use style="stroke:#000000;stroke-width:0.5;" x="308.353110726" xlink:href="#m0db99fdb3d" y="384.9"/>
      </g>
     </g>
     <g id="line2d_98">
      <g>
       <use style="stroke:#000000;stroke-width:0.5;" x="308.353110726" xlink:href="#m0db99616af" y="7.67821782178"/>
      </g>
     </g>
    </g>
    <g id="xtick_30">
     <g id="line2d_99">
      <g>
       <use style="stroke:#000000;stroke-width:0.5;" x="328.954070703" xlink:href="#m0db99fdb3d" y="384.9"/>
      </g>
     </g>
     <g id="line2d_100">
      <g>
       <use style="stroke:#000000;stroke-width:0.5;" x="328.954070703" xlink:href="#m0db99616af" y="7.67821782178"/>
      </g>
     </g>
    </g>
    <g id="xtick_31">
     <g id="line2d_101">
      <g>
       <use style="stroke:#000000;stroke-width:0.5;" x="344.538095323" xlink:href="#m0db99fdb3d" y="384.9"/>
      </g>
     </g>
     <g id="line2d_102">
      <g>
       <use style="stroke:#000000;stroke-width:0.5;" x="344.538095323" xlink:href="#m0db99616af" y="7.67821782178"/>
      </g>
     </g>
    </g>
    <g id="xtick_32">
     <g id="line2d_103">
      <g>
       <use style="stroke:#000000;stroke-width:0.5;" x="353.654165336" xlink:href="#m0db99fdb3d" y="384.9"/>
      </g>
     </g>
     <g id="line2d_104">
      <g>
       <use style="stroke:#000000;stroke-width:0.5;" x="353.654165336" xlink:href="#m0db99616af" y="7.67821782178"/>
      </g>
     </g>
    </g>
    <g id="xtick_33">
     <g id="line2d_105">
      <g>
       <use style="stroke:#000000;stroke-width:0.5;" x="360.122119943" xlink:href="#m0db99fdb3d" y="384.9"/>
      </g>
     </g>
     <g id="line2d_106">
      <g>
       <use style="stroke:#000000;stroke-width:0.5;" x="360.122119943" xlink:href="#m0db99616af" y="7.67821782178"/>
      </g>
     </g>
    </g>
    <g id="xtick_34">
     <g id="line2d_107">
      <g>
       <use style="stroke:#000000;stroke-width:0.5;" x="380.72307992" xlink:href="#m0db99fdb3d" y="384.9"/>
      </g>
     </g>
     <g id="line2d_108">
      <g>
       <use style="stroke:#000000;stroke-width:0.5;" x="380.72307992" xlink:href="#m0db99616af" y="7.67821782178"/>
      </g>
     </g>
    </g>
    <g id="xtick_35">
     <g id="line2d_109">
      <g>
       <use style="stroke:#000000;stroke-width:0.5;" x="396.30710454" xlink:href="#m0db99fdb3d" y="384.9"/>
      </g>
     </g>
     <g id="line2d_110">
      <g>
       <use style="stroke:#000000;stroke-width:0.5;" x="396.30710454" xlink:href="#m0db99616af" y="7.67821782178"/>
      </g>
     </g>
    </g>
    <g id="xtick_36">
     <g id="line2d_111">
      <g>
       <use style="stroke:#000000;stroke-width:0.5;" x="405.423174553" xlink:href="#m0db99fdb3d" y="384.9"/>
      </g>
     </g>
     <g id="line2d_112">
      <g>
       <use style="stroke:#000000;stroke-width:0.5;" x="405.423174553" xlink:href="#m0db99616af" y="7.67821782178"/>
      </g>
     </g>
    </g>
    <g id="xtick_37">
     <g id="line2d_113">
      <g>
       <use style="stroke:#000000;stroke-width:0.5;" x="411.89112916" xlink:href="#m0db99fdb3d" y="384.9"/>
      </g>
     </g>
     <g id="line2d_114">
      <g>
       <use style="stroke:#000000;stroke-width:0.5;" x="411.89112916" xlink:href="#m0db99616af" y="7.67821782178"/>
      </g>
     </g>
    </g>
    <g id="xtick_38">
     <g id="line2d_115">
      <g>
       <use style="stroke:#000000;stroke-width:0.5;" x="432.492089136" xlink:href="#m0db99fdb3d" y="384.9"/>
      </g>
     </g>
     <g id="line2d_116">
      <g>
       <use style="stroke:#000000;stroke-width:0.5;" x="432.492089136" xlink:href="#m0db99616af" y="7.67821782178"/>
      </g>
     </g>
    </g>
    <g id="xtick_39">
     <g id="line2d_117">
      <g>
       <use style="stroke:#000000;stroke-width:0.5;" x="448.076113756" xlink:href="#m0db99fdb3d" y="384.9"/>
      </g>
     </g>
     <g id="line2d_118">
      <g>
       <use style="stroke:#000000;stroke-width:0.5;" x="448.076113756" xlink:href="#m0db99616af" y="7.67821782178"/>
      </g>
     </g>
    </g>
    <g id="xtick_40">
     <g id="line2d_119">
      <g>
       <use style="stroke:#000000;stroke-width:0.5;" x="457.192183769" xlink:href="#m0db99fdb3d" y="384.9"/>
      </g>
     </g>
     <g id="line2d_120">
      <g>
       <use style="stroke:#000000;stroke-width:0.5;" x="457.192183769" xlink:href="#m0db99616af" y="7.67821782178"/>
      </g>
     </g>
    </g>
    <g id="xtick_41">
     <g id="line2d_121">
      <g>
       <use style="stroke:#000000;stroke-width:0.5;" x="463.660138376" xlink:href="#m0db99fdb3d" y="384.9"/>
      </g>
     </g>
     <g id="line2d_122">
      <g>
       <use style="stroke:#000000;stroke-width:0.5;" x="463.660138376" xlink:href="#m0db99616af" y="7.67821782178"/>
      </g>
     </g>
    </g>
    <g id="xtick_42">
     <g id="line2d_123">
      <g>
       <use style="stroke:#000000;stroke-width:0.5;" x="484.261098353" xlink:href="#m0db99fdb3d" y="384.9"/>
      </g>
     </g>
     <g id="line2d_124">
      <g>
       <use style="stroke:#000000;stroke-width:0.5;" x="484.261098353" xlink:href="#m0db99616af" y="7.67821782178"/>
      </g>
     </g>
    </g>
    <g id="xtick_43">
     <g id="line2d_125">
      <g>
       <use style="stroke:#000000;stroke-width:0.5;" x="499.845122973" xlink:href="#m0db99fdb3d" y="384.9"/>
      </g>
     </g>
     <g id="line2d_126">
      <g>
       <use style="stroke:#000000;stroke-width:0.5;" x="499.845122973" xlink:href="#m0db99616af" y="7.67821782178"/>
      </g>
     </g>
    </g>
    <g id="text_10">
     <!-- log10(# f-evals / dimension) -->
     <defs>
      <path id="BitstreamVeraSans-Roman-20"/>
      <path d="M 51.125 44 
L 36.921875 44 
L 32.8125 27.6875 
L 47.125 27.6875 
z
M 43.796875 71.78125 
L 38.71875 51.515625 
L 52.984375 51.515625 
L 58.109375 71.78125 
L 65.921875 71.78125 
L 60.890625 51.515625 
L 76.125 51.515625 
L 76.125 44 
L 58.984375 44 
L 54.984375 27.6875 
L 70.515625 27.6875 
L 70.515625 20.21875 
L 53.078125 20.21875 
L 48 0 
L 40.1875 0 
L 45.21875 20.21875 
L 30.90625 20.21875 
L 25.875 0 
L 18.015625 0 
L 23.09375 20.21875 
L 7.71875 20.21875 
L 7.71875 27.6875 
L 24.90625 27.6875 
L 29 44 
L 13.28125 44 
L 13.28125 51.515625 
L 30.90625 51.515625 
L 35.890625 71.78125 
z
" id="BitstreamVeraSans-Roman-23"/>
      <path d="M 52 44.1875 
Q 55.375 50.25 60.0625 53.125 
Q 64.75 56 71.09375 56 
Q 79.640625 56 84.28125 50.015625 
Q 88.921875 44.046875 88.921875 33.015625 
L 88.921875 0 
L 79.890625 0 
L 79.890625 32.71875 
Q 79.890625 40.578125 77.09375 44.375 
Q 74.3125 48.1875 68.609375 48.1875 
Q 61.625 48.1875 57.5625 43.546875 
Q 53.515625 38.921875 53.515625 30.90625 
L 53.515625 0 
L 44.484375 0 
L 44.484375 32.71875 
Q 44.484375 40.625 41.703125 44.40625 
Q 38.921875 48.1875 33.109375 48.1875 
Q 26.21875 48.1875 22.15625 43.53125 
Q 18.109375 38.875 18.109375 30.90625 
L 18.109375 0 
L 9.078125 0 
L 9.078125 54.6875 
L 18.109375 54.6875 
L 18.109375 46.1875 
Q 21.1875 51.21875 25.484375 53.609375 
Q 29.78125 56 35.6875 56 
Q 41.65625 56 45.828125 52.96875 
Q 50 49.953125 52 44.1875 
" id="BitstreamVeraSans-Roman-6d"/>
      <path d="M 54.890625 33.015625 
L 54.890625 0 
L 45.90625 0 
L 45.90625 32.71875 
Q 45.90625 40.484375 42.875 44.328125 
Q 39.84375 48.1875 33.796875 48.1875 
Q 26.515625 48.1875 22.3125 43.546875 
Q 18.109375 38.921875 18.109375 30.90625 
L 18.109375 0 
L 9.078125 0 
L 9.078125 54.6875 
L 18.109375 54.6875 
L 18.109375 46.1875 
Q 21.34375 51.125 25.703125 53.5625 
Q 30.078125 56 35.796875 56 
Q 45.21875 56 50.046875 50.171875 
Q 54.890625 44.34375 54.890625 33.015625 
" id="BitstreamVeraSans-Roman-6e"/>
      <path d="M 31 75.875 
Q 24.46875 64.65625 21.28125 53.65625 
Q 18.109375 42.671875 18.109375 31.390625 
Q 18.109375 20.125 21.3125 9.0625 
Q 24.515625 -2 31 -13.1875 
L 23.1875 -13.1875 
Q 15.875 -1.703125 12.234375 9.375 
Q 8.59375 20.453125 8.59375 31.390625 
Q 8.59375 42.28125 12.203125 53.3125 
Q 15.828125 64.359375 23.1875 75.875 
z
" id="BitstreamVeraSans-Roman-28"/>
      <path d="M 30.609375 48.390625 
Q 23.390625 48.390625 19.1875 42.75 
Q 14.984375 37.109375 14.984375 27.296875 
Q 14.984375 17.484375 19.15625 11.84375 
Q 23.34375 6.203125 30.609375 6.203125 
Q 37.796875 6.203125 41.984375 11.859375 
Q 46.1875 17.53125 46.1875 27.296875 
Q 46.1875 37.015625 41.984375 42.703125 
Q 37.796875 48.390625 30.609375 48.390625 
M 30.609375 56 
Q 42.328125 56 49.015625 48.375 
Q 55.71875 40.765625 55.71875 27.296875 
Q 55.71875 13.875 49.015625 6.21875 
Q 42.328125 -1.421875 30.609375 -1.421875 
Q 18.84375 -1.421875 12.171875 6.21875 
Q 5.515625 13.875 5.515625 27.296875 
Q 5.515625 40.765625 12.171875 48.375 
Q 18.84375 56 30.609375 56 
" id="BitstreamVeraSans-Roman-6f"/>
      <path d="M 9.421875 75.984375 
L 18.40625 75.984375 
L 18.40625 0 
L 9.421875 0 
z
" id="BitstreamVeraSans-Roman-6c"/>
      <path d="M 2.984375 54.6875 
L 12.5 54.6875 
L 29.59375 8.796875 
L 46.6875 54.6875 
L 56.203125 54.6875 
L 35.6875 0 
L 23.484375 0 
z
" id="BitstreamVeraSans-Roman-76"/>
      <path d="M 9.421875 54.6875 
L 18.40625 54.6875 
L 18.40625 0 
L 9.421875 0 
z
M 9.421875 75.984375 
L 18.40625 75.984375 
L 18.40625 64.59375 
L 9.421875 64.59375 
z
" id="BitstreamVeraSans-Roman-69"/>
      <path d="M 4.890625 31.390625 
L 31.203125 31.390625 
L 31.203125 23.390625 
L 4.890625 23.390625 
z
" id="BitstreamVeraSans-Roman-2d"/>
      <path d="M 25.390625 72.90625 
L 33.6875 72.90625 
L 8.296875 -9.28125 
L 0 -9.28125 
z
" id="BitstreamVeraSans-Roman-2f"/>
      <path d="M 56.203125 29.59375 
L 56.203125 25.203125 
L 14.890625 25.203125 
Q 15.484375 15.921875 20.484375 11.0625 
Q 25.484375 6.203125 34.421875 6.203125 
Q 39.59375 6.203125 44.453125 7.46875 
Q 49.3125 8.734375 54.109375 11.28125 
L 54.109375 2.78125 
Q 49.265625 0.734375 44.1875 -0.34375 
Q 39.109375 -1.421875 33.890625 -1.421875 
Q 20.796875 -1.421875 13.15625 6.1875 
Q 5.515625 13.8125 5.515625 26.8125 
Q 5.515625 40.234375 12.765625 48.109375 
Q 20.015625 56 32.328125 56 
Q 43.359375 56 49.78125 48.890625 
Q 56.203125 41.796875 56.203125 29.59375 
M 47.21875 32.234375 
Q 47.125 39.59375 43.09375 43.984375 
Q 39.0625 48.390625 32.421875 48.390625 
Q 24.90625 48.390625 20.390625 44.140625 
Q 15.875 39.890625 15.1875 32.171875 
z
" id="BitstreamVeraSans-Roman-65"/>
      <path d="M 45.40625 46.390625 
L 45.40625 75.984375 
L 54.390625 75.984375 
L 54.390625 0 
L 45.40625 0 
L 45.40625 8.203125 
Q 42.578125 3.328125 38.25 0.953125 
Q 33.9375 -1.421875 27.875 -1.421875 
Q 17.96875 -1.421875 11.734375 6.484375 
Q 5.515625 14.40625 5.515625 27.296875 
Q 5.515625 40.1875 11.734375 48.09375 
Q 17.96875 56 27.875 56 
Q 33.9375 56 38.25 53.625 
Q 42.578125 51.265625 45.40625 46.390625 
M 14.796875 27.296875 
Q 14.796875 17.390625 18.875 11.75 
Q 22.953125 6.109375 30.078125 6.109375 
Q 37.203125 6.109375 41.296875 11.75 
Q 45.40625 17.390625 45.40625 27.296875 
Q 45.40625 37.203125 41.296875 42.84375 
Q 37.203125 48.484375 30.078125 48.484375 
Q 22.953125 48.484375 18.875 42.84375 
Q 14.796875 37.203125 14.796875 27.296875 
" id="BitstreamVeraSans-Roman-64"/>
      <path d="M 45.40625 27.984375 
Q 45.40625 37.75 41.375 43.109375 
Q 37.359375 48.484375 30.078125 48.484375 
Q 22.859375 48.484375 18.828125 43.109375 
Q 14.796875 37.75 14.796875 27.984375 
Q 14.796875 18.265625 18.828125 12.890625 
Q 22.859375 7.515625 30.078125 7.515625 
Q 37.359375 7.515625 41.375 12.890625 
Q 45.40625 18.265625 45.40625 27.984375 
M 54.390625 6.78125 
Q 54.390625 -7.171875 48.1875 -13.984375 
Q 42 -20.796875 29.203125 -20.796875 
Q 24.46875 -20.796875 20.265625 -20.09375 
Q 16.0625 -19.390625 12.109375 -17.921875 
L 12.109375 -9.1875 
Q 16.0625 -11.328125 19.921875 -12.34375 
Q 23.78125 -13.375 27.78125 -13.375 
Q 36.625 -13.375 41.015625 -8.765625 
Q 45.40625 -4.15625 45.40625 5.171875 
L 45.40625 9.625 
Q 42.625 4.78125 38.28125 2.390625 
Q 33.9375 0 27.875 0 
Q 17.828125 0 11.671875 7.65625 
Q 5.515625 15.328125 5.515625 27.984375 
Q 5.515625 40.671875 11.671875 48.328125 
Q 17.828125 56 27.875 56 
Q 33.9375 56 38.28125 53.609375 
Q 42.625 51.21875 45.40625 46.390625 
L 45.40625 54.6875 
L 54.390625 54.6875 
z
" id="BitstreamVeraSans-Roman-67"/>
      <path d="M 37.109375 75.984375 
L 37.109375 68.5 
L 28.515625 68.5 
Q 23.6875 68.5 21.796875 66.546875 
Q 19.921875 64.59375 19.921875 59.515625 
L 19.921875 54.6875 
L 34.71875 54.6875 
L 34.71875 47.703125 
L 19.921875 47.703125 
L 19.921875 0 
L 10.890625 0 
L 10.890625 47.703125 
L 2.296875 47.703125 
L 2.296875 54.6875 
L 10.890625 54.6875 
L 10.890625 58.5 
Q 10.890625 67.625 15.140625 71.796875 
Q 19.390625 75.984375 28.609375 75.984375 
z
" id="BitstreamVeraSans-Roman-66"/>
      <path d="M 34.28125 27.484375 
Q 23.390625 27.484375 19.1875 25 
Q 14.984375 22.515625 14.984375 16.5 
Q 14.984375 11.71875 18.140625 8.90625 
Q 21.296875 6.109375 26.703125 6.109375 
Q 34.1875 6.109375 38.703125 11.40625 
Q 43.21875 16.703125 43.21875 25.484375 
L 43.21875 27.484375 
z
M 52.203125 31.203125 
L 52.203125 0 
L 43.21875 0 
L 43.21875 8.296875 
Q 40.140625 3.328125 35.546875 0.953125 
Q 30.953125 -1.421875 24.3125 -1.421875 
Q 15.921875 -1.421875 10.953125 3.296875 
Q 6 8.015625 6 15.921875 
Q 6 25.140625 12.171875 29.828125 
Q 18.359375 34.515625 30.609375 34.515625 
L 43.21875 34.515625 
L 43.21875 35.40625 
Q 43.21875 41.609375 39.140625 45 
Q 35.0625 48.390625 27.6875 48.390625 
Q 23 48.390625 18.546875 47.265625 
Q 14.109375 46.140625 10.015625 43.890625 
L 10.015625 52.203125 
Q 14.9375 54.109375 19.578125 55.046875 
Q 24.21875 56 28.609375 56 
Q 40.484375 56 46.34375 49.84375 
Q 52.203125 43.703125 52.203125 31.203125 
" id="BitstreamVeraSans-Roman-61"/>
      <path d="M 44.28125 53.078125 
L 44.28125 44.578125 
Q 40.484375 46.53125 36.375 47.5 
Q 32.28125 48.484375 27.875 48.484375 
Q 21.1875 48.484375 17.84375 46.4375 
Q 14.5 44.390625 14.5 40.28125 
Q 14.5 37.15625 16.890625 35.375 
Q 19.28125 33.59375 26.515625 31.984375 
L 29.59375 31.296875 
Q 39.15625 29.25 43.1875 25.515625 
Q 47.21875 21.78125 47.21875 15.09375 
Q 47.21875 7.46875 41.1875 3.015625 
Q 35.15625 -1.421875 24.609375 -1.421875 
Q 20.21875 -1.421875 15.453125 -0.5625 
Q 10.6875 0.296875 5.421875 2 
L 5.421875 11.28125 
Q 10.40625 8.6875 15.234375 7.390625 
Q 20.0625 6.109375 24.8125 6.109375 
Q 31.15625 6.109375 34.5625 8.28125 
Q 37.984375 10.453125 37.984375 14.40625 
Q 37.984375 18.0625 35.515625 20.015625 
Q 33.0625 21.96875 24.703125 23.78125 
L 21.578125 24.515625 
Q 13.234375 26.265625 9.515625 29.90625 
Q 5.8125 33.546875 5.8125 39.890625 
Q 5.8125 47.609375 11.28125 51.796875 
Q 16.75 56 26.8125 56 
Q 31.78125 56 36.171875 55.265625 
Q 40.578125 54.546875 44.28125 53.078125 
" id="BitstreamVeraSans-Roman-73"/>
      <path d="M 8.015625 75.875 
L 15.828125 75.875 
Q 23.140625 64.359375 26.78125 53.3125 
Q 30.421875 42.28125 30.421875 31.390625 
Q 30.421875 20.453125 26.78125 9.375 
Q 23.140625 -1.703125 15.828125 -13.1875 
L 8.015625 -13.1875 
Q 14.5 -2 17.703125 9.0625 
Q 20.90625 20.125 20.90625 31.390625 
Q 20.90625 42.671875 17.703125 53.65625 
Q 14.5 64.65625 8.015625 75.875 
" id="BitstreamVeraSans-Roman-29"/>
     </defs>
     <g transform="translate(158.36171875 426.17359375)scale(0.17 -0.17)">
      <use xlink:href="#BitstreamVeraSans-Roman-6c"/>
      <use x="27.783203125" xlink:href="#BitstreamVeraSans-Roman-6f"/>
      <use x="88.96484375" xlink:href="#BitstreamVeraSans-Roman-67"/>
      <use x="152.44140625" xlink:href="#BitstreamVeraSans-Roman-31"/>
      <use x="216.064453125" xlink:href="#BitstreamVeraSans-Roman-30"/>
      <use x="279.6875" xlink:href="#BitstreamVeraSans-Roman-28"/>
      <use x="318.701171875" xlink:href="#BitstreamVeraSans-Roman-23"/>
      <use x="402.490234375" xlink:href="#BitstreamVeraSans-Roman-20"/>
      <use x="434.27734375" xlink:href="#BitstreamVeraSans-Roman-66"/>
      <use x="469.404296875" xlink:href="#BitstreamVeraSans-Roman-2d"/>
      <use x="505.48828125" xlink:href="#BitstreamVeraSans-Roman-65"/>
      <use x="567.01171875" xlink:href="#BitstreamVeraSans-Roman-76"/>
      <use x="626.19140625" xlink:href="#BitstreamVeraSans-Roman-61"/>
      <use x="687.470703125" xlink:href="#BitstreamVeraSans-Roman-6c"/>
      <use x="715.25390625" xlink:href="#BitstreamVeraSans-Roman-73"/>
      <use x="767.353515625" xlink:href="#BitstreamVeraSans-Roman-20"/>
      <use x="799.140625" xlink:href="#BitstreamVeraSans-Roman-2f"/>
      <use x="832.83203125" xlink:href="#BitstreamVeraSans-Roman-20"/>
      <use x="864.619140625" xlink:href="#BitstreamVeraSans-Roman-64"/>
      <use x="928.095703125" xlink:href="#BitstreamVeraSans-Roman-69"/>
      <use x="955.87890625" xlink:href="#BitstreamVeraSans-Roman-6d"/>
      <use x="1053.29101562" xlink:href="#BitstreamVeraSans-Roman-65"/>
      <use x="1114.81445312" xlink:href="#BitstreamVeraSans-Roman-6e"/>
      <use x="1178.19335938" xlink:href="#BitstreamVeraSans-Roman-73"/>
      <use x="1230.29296875" xlink:href="#BitstreamVeraSans-Roman-69"/>
      <use x="1258.07617188" xlink:href="#BitstreamVeraSans-Roman-6f"/>
      <use x="1319.2578125" xlink:href="#BitstreamVeraSans-Roman-6e"/>
      <use x="1382.63671875" xlink:href="#BitstreamVeraSans-Roman-29"/>
     </g>
    </g>
   </g>
   <g id="matplotlib.axis_2">
    <g id="ytick_1">
     <g id="line2d_127">
      <path clip-path="url(#p6b621fcb9d)" d="M 54.525 384.9 
L 503.88 384.9 
" style="fill:none;stroke:#000000;stroke-dasharray:1.000000,3.000000;stroke-dashoffset:0.0;stroke-width:0.5;"/>
     </g>
     <g id="line2d_128">
      <defs>
       <path d="M 0 0 
L 4 0 
" id="m657e3d1eee" style="stroke:#000000;stroke-width:0.5;"/>
      </defs>
      <g>
       <use style="stroke:#000000;stroke-width:0.5;" x="54.525" xlink:href="#m657e3d1eee" y="384.9"/>
      </g>
     </g>
     <g id="line2d_129">
      <defs>
       <path d="M 0 0 
L -4 0 
" id="meb5def934b" style="stroke:#000000;stroke-width:0.5;"/>
      </defs>
      <g>
       <use style="stroke:#000000;stroke-width:0.5;" x="503.88" xlink:href="#meb5def934b" y="384.9"/>
      </g>
     </g>
     <g id="text_11">
      <!-- 0.0 -->
      <defs>
       <path d="M 10.6875 12.40625 
L 21 12.40625 
L 21 0 
L 10.6875 0 
z
" id="BitstreamVeraSans-Roman-2e"/>
      </defs>
      <g transform="translate(25.08 389.315)scale(0.16 -0.16)">
       <use xlink:href="#BitstreamVeraSans-Roman-30"/>
       <use x="63.623046875" xlink:href="#BitstreamVeraSans-Roman-2e"/>
       <use x="95.41015625" xlink:href="#BitstreamVeraSans-Roman-30"/>
      </g>
     </g>
    </g>
    <g id="ytick_2">
     <g id="line2d_130">
      <path clip-path="url(#p6b621fcb9d)" d="M 54.525 310.202617 
L 503.88 310.202617 
" style="fill:none;stroke:#000000;stroke-dasharray:1.000000,3.000000;stroke-dashoffset:0.0;stroke-width:0.5;"/>
     </g>
     <g id="line2d_131">
      <g>
       <use style="stroke:#000000;stroke-width:0.5;" x="54.525" xlink:href="#m657e3d1eee" y="310.20261739"/>
      </g>
     </g>
     <g id="line2d_132">
      <g>
       <use style="stroke:#000000;stroke-width:0.5;" x="503.88" xlink:href="#meb5def934b" y="310.20261739"/>
      </g>
     </g>
     <g id="text_12">
      <!-- 0.2 -->
      <g transform="translate(25.08 314.61761739)scale(0.16 -0.16)">
       <use xlink:href="#BitstreamVeraSans-Roman-30"/>
       <use x="63.623046875" xlink:href="#BitstreamVeraSans-Roman-2e"/>
       <use x="95.41015625" xlink:href="#BitstreamVeraSans-Roman-32"/>
      </g>
     </g>
    </g>
    <g id="ytick_3">
     <g id="line2d_133">
      <path clip-path="url(#p6b621fcb9d)" d="M 54.525 235.505235 
L 503.88 235.505235 
" style="fill:none;stroke:#000000;stroke-dasharray:1.000000,3.000000;stroke-dashoffset:0.0;stroke-width:0.5;"/>
     </g>
     <g id="line2d_134">
      <g>
       <use style="stroke:#000000;stroke-width:0.5;" x="54.525" xlink:href="#m657e3d1eee" y="235.505234781"/>
      </g>
     </g>
     <g id="line2d_135">
      <g>
       <use style="stroke:#000000;stroke-width:0.5;" x="503.88" xlink:href="#meb5def934b" y="235.505234781"/>
      </g>
     </g>
     <g id="text_13">
      <!-- 0.4 -->
      <g transform="translate(25.08 239.920234781)scale(0.16 -0.16)">
       <use xlink:href="#BitstreamVeraSans-Roman-30"/>
       <use x="63.623046875" xlink:href="#BitstreamVeraSans-Roman-2e"/>
       <use x="95.41015625" xlink:href="#BitstreamVeraSans-Roman-34"/>
      </g>
     </g>
    </g>
    <g id="ytick_4">
     <g id="line2d_136">
      <path clip-path="url(#p6b621fcb9d)" d="M 54.525 160.807852 
L 503.88 160.807852 
" style="fill:none;stroke:#000000;stroke-dasharray:1.000000,3.000000;stroke-dashoffset:0.0;stroke-width:0.5;"/>
     </g>
     <g id="line2d_137">
      <g>
       <use style="stroke:#000000;stroke-width:0.5;" x="54.525" xlink:href="#m657e3d1eee" y="160.807852171"/>
      </g>
     </g>
     <g id="line2d_138">
      <g>
       <use style="stroke:#000000;stroke-width:0.5;" x="503.88" xlink:href="#meb5def934b" y="160.807852171"/>
      </g>
     </g>
     <g id="text_14">
      <!-- 0.6 -->
      <g transform="translate(25.08 165.222852171)scale(0.16 -0.16)">
       <use xlink:href="#BitstreamVeraSans-Roman-30"/>
       <use x="63.623046875" xlink:href="#BitstreamVeraSans-Roman-2e"/>
       <use x="95.41015625" xlink:href="#BitstreamVeraSans-Roman-36"/>
      </g>
     </g>
    </g>
    <g id="ytick_5">
     <g id="line2d_139">
      <path clip-path="url(#p6b621fcb9d)" d="M 54.525 86.11047 
L 503.88 86.11047 
" style="fill:none;stroke:#000000;stroke-dasharray:1.000000,3.000000;stroke-dashoffset:0.0;stroke-width:0.5;"/>
     </g>
     <g id="line2d_140">
      <g>
       <use style="stroke:#000000;stroke-width:0.5;" x="54.525" xlink:href="#m657e3d1eee" y="86.1104695618"/>
      </g>
     </g>
     <g id="line2d_141">
      <g>
       <use style="stroke:#000000;stroke-width:0.5;" x="503.88" xlink:href="#meb5def934b" y="86.1104695618"/>
      </g>
     </g>
     <g id="text_15">
      <!-- 0.8 -->
      <g transform="translate(25.08 90.5254695618)scale(0.16 -0.16)">
       <use xlink:href="#BitstreamVeraSans-Roman-30"/>
       <use x="63.623046875" xlink:href="#BitstreamVeraSans-Roman-2e"/>
       <use x="95.41015625" xlink:href="#BitstreamVeraSans-Roman-38"/>
      </g>
     </g>
    </g>
    <g id="ytick_6">
     <g id="line2d_142">
      <path clip-path="url(#p6b621fcb9d)" d="M 54.525 11.413087 
L 503.88 11.413087 
" style="fill:none;stroke:#000000;stroke-dasharray:1.000000,3.000000;stroke-dashoffset:0.0;stroke-width:0.5;"/>
     </g>
     <g id="line2d_143">
      <g>
       <use style="stroke:#000000;stroke-width:0.5;" x="54.525" xlink:href="#m657e3d1eee" y="11.4130869523"/>
      </g>
     </g>
     <g id="line2d_144">
      <g>
       <use style="stroke:#000000;stroke-width:0.5;" x="503.88" xlink:href="#meb5def934b" y="11.4130869523"/>
      </g>
     </g>
     <g id="text_16">
      <!-- 1.0 -->
      <g transform="translate(25.08 15.8280869523)scale(0.16 -0.16)">
       <use xlink:href="#BitstreamVeraSans-Roman-31"/>
       <use x="63.623046875" xlink:href="#BitstreamVeraSans-Roman-2e"/>
       <use x="95.41015625" xlink:href="#BitstreamVeraSans-Roman-30"/>
      </g>
     </g>
    </g>
    <g id="text_17">
     <!-- Fraction of function,target pairs -->
     <defs>
      <path d="M 9.8125 72.90625 
L 51.703125 72.90625 
L 51.703125 64.59375 
L 19.671875 64.59375 
L 19.671875 43.109375 
L 48.578125 43.109375 
L 48.578125 34.8125 
L 19.671875 34.8125 
L 19.671875 0 
L 9.8125 0 
z
" id="BitstreamVeraSans-Roman-46"/>
      <path d="M 11.71875 12.40625 
L 22.015625 12.40625 
L 22.015625 4 
L 14.015625 -11.625 
L 7.71875 -11.625 
L 11.71875 4 
z
" id="BitstreamVeraSans-Roman-2c"/>
      <path d="M 18.109375 8.203125 
L 18.109375 -20.796875 
L 9.078125 -20.796875 
L 9.078125 54.6875 
L 18.109375 54.6875 
L 18.109375 46.390625 
Q 20.953125 51.265625 25.265625 53.625 
Q 29.59375 56 35.59375 56 
Q 45.5625 56 51.78125 48.09375 
Q 58.015625 40.1875 58.015625 27.296875 
Q 58.015625 14.40625 51.78125 6.484375 
Q 45.5625 -1.421875 35.59375 -1.421875 
Q 29.59375 -1.421875 25.265625 0.953125 
Q 20.953125 3.328125 18.109375 8.203125 
M 48.6875 27.296875 
Q 48.6875 37.203125 44.609375 42.84375 
Q 40.53125 48.484375 33.40625 48.484375 
Q 26.265625 48.484375 22.1875 42.84375 
Q 18.109375 37.203125 18.109375 27.296875 
Q 18.109375 17.390625 22.1875 11.75 
Q 26.265625 6.109375 33.40625 6.109375 
Q 40.53125 6.109375 44.609375 11.75 
Q 48.6875 17.390625 48.6875 27.296875 
" id="BitstreamVeraSans-Roman-70"/>
      <path d="M 18.3125 70.21875 
L 18.3125 54.6875 
L 36.8125 54.6875 
L 36.8125 47.703125 
L 18.3125 47.703125 
L 18.3125 18.015625 
Q 18.3125 11.328125 20.140625 9.421875 
Q 21.96875 7.515625 27.59375 7.515625 
L 36.8125 7.515625 
L 36.8125 0 
L 27.59375 0 
Q 17.1875 0 13.234375 3.875 
Q 9.28125 7.765625 9.28125 18.015625 
L 9.28125 47.703125 
L 2.6875 47.703125 
L 2.6875 54.6875 
L 9.28125 54.6875 
L 9.28125 70.21875 
z
" id="BitstreamVeraSans-Roman-74"/>
      <path d="M 8.5 21.578125 
L 8.5 54.6875 
L 17.484375 54.6875 
L 17.484375 21.921875 
Q 17.484375 14.15625 20.5 10.265625 
Q 23.53125 6.390625 29.59375 6.390625 
Q 36.859375 6.390625 41.078125 11.03125 
Q 45.3125 15.671875 45.3125 23.6875 
L 45.3125 54.6875 
L 54.296875 54.6875 
L 54.296875 0 
L 45.3125 0 
L 45.3125 8.40625 
Q 42.046875 3.421875 37.71875 1 
Q 33.40625 -1.421875 27.6875 -1.421875 
Q 18.265625 -1.421875 13.375 4.4375 
Q 8.5 10.296875 8.5 21.578125 
" id="BitstreamVeraSans-Roman-75"/>
      <path d="M 41.109375 46.296875 
Q 39.59375 47.171875 37.8125 47.578125 
Q 36.03125 48 33.890625 48 
Q 26.265625 48 22.1875 43.046875 
Q 18.109375 38.09375 18.109375 28.8125 
L 18.109375 0 
L 9.078125 0 
L 9.078125 54.6875 
L 18.109375 54.6875 
L 18.109375 46.1875 
Q 20.953125 51.171875 25.484375 53.578125 
Q 30.03125 56 36.53125 56 
Q 37.453125 56 38.578125 55.875 
Q 39.703125 55.765625 41.0625 55.515625 
z
" id="BitstreamVeraSans-Roman-72"/>
      <path d="M 48.78125 52.59375 
L 48.78125 44.1875 
Q 44.96875 46.296875 41.140625 47.34375 
Q 37.3125 48.390625 33.40625 48.390625 
Q 24.65625 48.390625 19.8125 42.84375 
Q 14.984375 37.3125 14.984375 27.296875 
Q 14.984375 17.28125 19.8125 11.734375 
Q 24.65625 6.203125 33.40625 6.203125 
Q 37.3125 6.203125 41.140625 7.25 
Q 44.96875 8.296875 48.78125 10.40625 
L 48.78125 2.09375 
Q 45.015625 0.34375 40.984375 -0.53125 
Q 36.96875 -1.421875 32.421875 -1.421875 
Q 20.0625 -1.421875 12.78125 6.34375 
Q 5.515625 14.109375 5.515625 27.296875 
Q 5.515625 40.671875 12.859375 48.328125 
Q 20.21875 56 33.015625 56 
Q 37.15625 56 41.109375 55.140625 
Q 45.0625 54.296875 48.78125 52.59375 
" id="BitstreamVeraSans-Roman-63"/>
     </defs>
     <g transform="translate(16.54453125 331.428483911)rotate(-90.0)scale(0.17 -0.17)">
      <use xlink:href="#BitstreamVeraSans-Roman-46"/>
      <use x="57.41015625" xlink:href="#BitstreamVeraSans-Roman-72"/>
      <use x="98.5234375" xlink:href="#BitstreamVeraSans-Roman-61"/>
      <use x="159.802734375" xlink:href="#BitstreamVeraSans-Roman-63"/>
      <use x="214.783203125" xlink:href="#BitstreamVeraSans-Roman-74"/>
      <use x="253.9921875" xlink:href="#BitstreamVeraSans-Roman-69"/>
      <use x="281.775390625" xlink:href="#BitstreamVeraSans-Roman-6f"/>
      <use x="342.95703125" xlink:href="#BitstreamVeraSans-Roman-6e"/>
      <use x="406.3359375" xlink:href="#BitstreamVeraSans-Roman-20"/>
      <use x="438.123046875" xlink:href="#BitstreamVeraSans-Roman-6f"/>
      <use x="499.3046875" xlink:href="#BitstreamVeraSans-Roman-66"/>
      <use x="534.509765625" xlink:href="#BitstreamVeraSans-Roman-20"/>
      <use x="566.296875" xlink:href="#BitstreamVeraSans-Roman-66"/>
      <use x="601.501953125" xlink:href="#BitstreamVeraSans-Roman-75"/>
      <use x="664.880859375" xlink:href="#BitstreamVeraSans-Roman-6e"/>
      <use x="728.259765625" xlink:href="#BitstreamVeraSans-Roman-63"/>
      <use x="783.240234375" xlink:href="#BitstreamVeraSans-Roman-74"/>
      <use x="822.44921875" xlink:href="#BitstreamVeraSans-Roman-69"/>
      <use x="850.232421875" xlink:href="#BitstreamVeraSans-Roman-6f"/>
      <use x="911.4140625" xlink:href="#BitstreamVeraSans-Roman-6e"/>
      <use x="974.79296875" xlink:href="#BitstreamVeraSans-Roman-2c"/>
      <use x="1006.58007812" xlink:href="#BitstreamVeraSans-Roman-74"/>
      <use x="1045.7890625" xlink:href="#BitstreamVeraSans-Roman-61"/>
      <use x="1107.06835938" xlink:href="#BitstreamVeraSans-Roman-72"/>
      <use x="1148.16601562" xlink:href="#BitstreamVeraSans-Roman-67"/>
      <use x="1211.64257812" xlink:href="#BitstreamVeraSans-Roman-65"/>
      <use x="1273.16601562" xlink:href="#BitstreamVeraSans-Roman-74"/>
      <use x="1312.375" xlink:href="#BitstreamVeraSans-Roman-20"/>
      <use x="1344.16210938" xlink:href="#BitstreamVeraSans-Roman-70"/>
      <use x="1407.63867188" xlink:href="#BitstreamVeraSans-Roman-61"/>
      <use x="1468.91796875" xlink:href="#BitstreamVeraSans-Roman-69"/>
      <use x="1496.70117188" xlink:href="#BitstreamVeraSans-Roman-72"/>
      <use x="1537.81445312" xlink:href="#BitstreamVeraSans-Roman-73"/>
     </g>
    </g>
   </g>
   <g id="text_18">
    <!-- f15 -->
    <g transform="translate(464.017862903 382.121199239)scale(0.17 -0.17)">
     <use xlink:href="#BitstreamVeraSans-Roman-66"/>
     <use x="35.205078125" xlink:href="#BitstreamVeraSans-Roman-31"/>
     <use x="98.828125" xlink:href="#BitstreamVeraSans-Roman-35"/>
    </g>
   </g>
   <g id="text_19">
    <!-- f18 -->
    <g transform="translate(464.017862903 292.484340108)scale(0.17 -0.17)">
     <use xlink:href="#BitstreamVeraSans-Roman-66"/>
     <use x="35.205078125" xlink:href="#BitstreamVeraSans-Roman-31"/>
     <use x="98.828125" xlink:href="#BitstreamVeraSans-Roman-38"/>
    </g>
   </g>
   <g id="text_20">
    <!-- f17 -->
    <g transform="translate(464.017862903 202.847480976)scale(0.17 -0.17)">
     <use xlink:href="#BitstreamVeraSans-Roman-66"/>
     <use x="35.205078125" xlink:href="#BitstreamVeraSans-Roman-31"/>
     <use x="98.828125" xlink:href="#BitstreamVeraSans-Roman-37"/>
    </g>
   </g>
   <g id="text_21">
    <!-- f16 -->
    <g transform="translate(464.017862903 113.210621845)scale(0.17 -0.17)">
     <use xlink:href="#BitstreamVeraSans-Roman-66"/>
     <use x="35.205078125" xlink:href="#BitstreamVeraSans-Roman-31"/>
     <use x="98.828125" xlink:href="#BitstreamVeraSans-Roman-36"/>
    </g>
   </g>
   <g id="text_22">
    <!-- f19 -->
    <defs>
     <path d="M 10.984375 1.515625 
L 10.984375 10.5 
Q 14.703125 8.734375 18.5 7.8125 
Q 22.3125 6.890625 25.984375 6.890625 
Q 35.75 6.890625 40.890625 13.453125 
Q 46.046875 20.015625 46.78125 33.40625 
Q 43.953125 29.203125 39.59375 26.953125 
Q 35.25 24.703125 29.984375 24.703125 
Q 19.046875 24.703125 12.671875 31.3125 
Q 6.296875 37.9375 6.296875 49.421875 
Q 6.296875 60.640625 12.9375 67.421875 
Q 19.578125 74.21875 30.609375 74.21875 
Q 43.265625 74.21875 49.921875 64.515625 
Q 56.59375 54.828125 56.59375 36.375 
Q 56.59375 19.140625 48.40625 8.859375 
Q 40.234375 -1.421875 26.421875 -1.421875 
Q 22.703125 -1.421875 18.890625 -0.6875 
Q 15.09375 0.046875 10.984375 1.515625 
M 30.609375 32.421875 
Q 37.25 32.421875 41.125 36.953125 
Q 45.015625 41.5 45.015625 49.421875 
Q 45.015625 57.28125 41.125 61.84375 
Q 37.25 66.40625 30.609375 66.40625 
Q 23.96875 66.40625 20.09375 61.84375 
Q 16.21875 57.28125 16.21875 49.421875 
Q 16.21875 41.5 20.09375 36.953125 
Q 23.96875 32.421875 30.609375 32.421875 
" id="BitstreamVeraSans-Roman-39"/>
    </defs>
    <g transform="translate(464.017862903 23.5737627132)scale(0.17 -0.17)">
     <use xlink:href="#BitstreamVeraSans-Roman-66"/>
     <use x="35.205078125" xlink:href="#BitstreamVeraSans-Roman-31"/>
     <use x="98.828125" xlink:href="#BitstreamVeraSans-Roman-39"/>
    </g>
   </g>
   <g id="text_23">
    <!-- bbob -->
    <defs>
     <path d="M 48.6875 27.296875 
Q 48.6875 37.203125 44.609375 42.84375 
Q 40.53125 48.484375 33.40625 48.484375 
Q 26.265625 48.484375 22.1875 42.84375 
Q 18.109375 37.203125 18.109375 27.296875 
Q 18.109375 17.390625 22.1875 11.75 
Q 26.265625 6.109375 33.40625 6.109375 
Q 40.53125 6.109375 44.609375 11.75 
Q 48.6875 17.390625 48.6875 27.296875 
M 18.109375 46.390625 
Q 20.953125 51.265625 25.265625 53.625 
Q 29.59375 56 35.59375 56 
Q 45.5625 56 51.78125 48.09375 
Q 58.015625 40.1875 58.015625 27.296875 
Q 58.015625 14.40625 51.78125 6.484375 
Q 45.5625 -1.421875 35.59375 -1.421875 
Q 29.59375 -1.421875 25.265625 0.953125 
Q 20.953125 3.328125 18.109375 8.203125 
L 18.109375 0 
L 9.078125 0 
L 9.078125 75.984375 
L 18.109375 75.984375 
z
" id="BitstreamVeraSans-Roman-62"/>
    </defs>
    <g transform="translate(59.01855 19.2008418936)scale(0.102 -0.102)">
     <use xlink:href="#BitstreamVeraSans-Roman-62"/>
     <use x="63.4765625" xlink:href="#BitstreamVeraSans-Roman-62"/>
     <use x="126.953125" xlink:href="#BitstreamVeraSans-Roman-6f"/>
     <use x="188.134765625" xlink:href="#BitstreamVeraSans-Roman-62"/>
    </g>
    <!-- Multi-modal functions, 2-D -->
    <defs>
     <path d="M 19.671875 64.796875 
L 19.671875 8.109375 
L 31.59375 8.109375 
Q 46.6875 8.109375 53.6875 14.9375 
Q 60.6875 21.78125 60.6875 36.53125 
Q 60.6875 51.171875 53.6875 57.984375 
Q 46.6875 64.796875 31.59375 64.796875 
z
M 9.8125 72.90625 
L 30.078125 72.90625 
Q 51.265625 72.90625 61.171875 64.09375 
Q 71.09375 55.28125 71.09375 36.53125 
Q 71.09375 17.671875 61.125 8.828125 
Q 51.171875 0 30.078125 0 
L 9.8125 0 
z
" id="BitstreamVeraSans-Roman-44"/>
     <path d="M 9.8125 72.90625 
L 24.515625 72.90625 
L 43.109375 23.296875 
L 61.8125 72.90625 
L 76.515625 72.90625 
L 76.515625 0 
L 66.890625 0 
L 66.890625 64.015625 
L 48.09375 14.015625 
L 38.1875 14.015625 
L 19.390625 64.015625 
L 19.390625 0 
L 9.8125 0 
z
" id="BitstreamVeraSans-Roman-4d"/>
    </defs>
    <g transform="translate(59.01855 30.6226106436)scale(0.102 -0.102)">
     <use xlink:href="#BitstreamVeraSans-Roman-4d"/>
     <use x="86.279296875" xlink:href="#BitstreamVeraSans-Roman-75"/>
     <use x="149.658203125" xlink:href="#BitstreamVeraSans-Roman-6c"/>
     <use x="177.44140625" xlink:href="#BitstreamVeraSans-Roman-74"/>
     <use x="216.650390625" xlink:href="#BitstreamVeraSans-Roman-69"/>
     <use x="244.43359375" xlink:href="#BitstreamVeraSans-Roman-2d"/>
     <use x="280.517578125" xlink:href="#BitstreamVeraSans-Roman-6d"/>
     <use x="377.9296875" xlink:href="#BitstreamVeraSans-Roman-6f"/>
     <use x="439.111328125" xlink:href="#BitstreamVeraSans-Roman-64"/>
     <use x="502.587890625" xlink:href="#BitstreamVeraSans-Roman-61"/>
     <use x="563.8671875" xlink:href="#BitstreamVeraSans-Roman-6c"/>
     <use x="591.650390625" xlink:href="#BitstreamVeraSans-Roman-20"/>
     <use x="623.4375" xlink:href="#BitstreamVeraSans-Roman-66"/>
     <use x="658.642578125" xlink:href="#BitstreamVeraSans-Roman-75"/>
     <use x="722.021484375" xlink:href="#BitstreamVeraSans-Roman-6e"/>
     <use x="785.400390625" xlink:href="#BitstreamVeraSans-Roman-63"/>
     <use x="840.380859375" xlink:href="#BitstreamVeraSans-Roman-74"/>
     <use x="879.58984375" xlink:href="#BitstreamVeraSans-Roman-69"/>
     <use x="907.373046875" xlink:href="#BitstreamVeraSans-Roman-6f"/>
     <use x="968.5546875" xlink:href="#BitstreamVeraSans-Roman-6e"/>
     <use x="1031.93359375" xlink:href="#BitstreamVeraSans-Roman-73"/>
     <use x="1084.03320312" xlink:href="#BitstreamVeraSans-Roman-2c"/>
     <use x="1115.8203125" xlink:href="#BitstreamVeraSans-Roman-20"/>
     <use x="1147.60742188" xlink:href="#BitstreamVeraSans-Roman-32"/>
     <use x="1211.23046875" xlink:href="#BitstreamVeraSans-Roman-2d"/>
     <use x="1247.31445312" xlink:href="#BitstreamVeraSans-Roman-44"/>
    </g>
    <!-- 51 targets: 100..1e-08 -->
    <defs>
     <path d="M 11.71875 12.40625 
L 22.015625 12.40625 
L 22.015625 0 
L 11.71875 0 
z
M 11.71875 51.703125 
L 22.015625 51.703125 
L 22.015625 39.3125 
L 11.71875 39.3125 
z
" id="BitstreamVeraSans-Roman-3a"/>
    </defs>
    <g transform="translate(59.01855 42.0443793936)scale(0.102 -0.102)">
     <use xlink:href="#BitstreamVeraSans-Roman-35"/>
     <use x="63.623046875" xlink:href="#BitstreamVeraSans-Roman-31"/>
     <use x="127.24609375" xlink:href="#BitstreamVeraSans-Roman-20"/>
     <use x="159.033203125" xlink:href="#BitstreamVeraSans-Roman-74"/>
     <use x="198.2421875" xlink:href="#BitstreamVeraSans-Roman-61"/>
     <use x="259.521484375" xlink:href="#BitstreamVeraSans-Roman-72"/>
     <use x="300.619140625" xlink:href="#BitstreamVeraSans-Roman-67"/>
     <use x="364.095703125" xlink:href="#BitstreamVeraSans-Roman-65"/>
     <use x="425.619140625" xlink:href="#BitstreamVeraSans-Roman-74"/>
     <use x="464.828125" xlink:href="#BitstreamVeraSans-Roman-73"/>
     <use x="516.927734375" xlink:href="#BitstreamVeraSans-Roman-3a"/>
     <use x="550.619140625" xlink:href="#BitstreamVeraSans-Roman-20"/>
     <use x="582.40625" xlink:href="#BitstreamVeraSans-Roman-31"/>
     <use x="646.029296875" xlink:href="#BitstreamVeraSans-Roman-30"/>
     <use x="709.65234375" xlink:href="#BitstreamVeraSans-Roman-30"/>
     <use x="773.275390625" xlink:href="#BitstreamVeraSans-Roman-2e"/>
     <use x="805.0625" xlink:href="#BitstreamVeraSans-Roman-2e"/>
     <use x="836.849609375" xlink:href="#BitstreamVeraSans-Roman-31"/>
     <use x="900.47265625" xlink:href="#BitstreamVeraSans-Roman-65"/>
     <use x="961.99609375" xlink:href="#BitstreamVeraSans-Roman-2d"/>
     <use x="998.080078125" xlink:href="#BitstreamVeraSans-Roman-30"/>
     <use x="1061.703125" xlink:href="#BitstreamVeraSans-Roman-38"/>
    </g>
    <!-- 15 instances -->
    <g transform="translate(59.01855 53.4661481436)scale(0.102 -0.102)">
     <use xlink:href="#BitstreamVeraSans-Roman-31"/>
     <use x="63.623046875" xlink:href="#BitstreamVeraSans-Roman-35"/>
     <use x="127.24609375" xlink:href="#BitstreamVeraSans-Roman-20"/>
     <use x="159.033203125" xlink:href="#BitstreamVeraSans-Roman-69"/>
     <use x="186.81640625" xlink:href="#BitstreamVeraSans-Roman-6e"/>
     <use x="250.1953125" xlink:href="#BitstreamVeraSans-Roman-73"/>
     <use x="302.294921875" xlink:href="#BitstreamVeraSans-Roman-74"/>
     <use x="341.50390625" xlink:href="#BitstreamVeraSans-Roman-61"/>
     <use x="402.783203125" xlink:href="#BitstreamVeraSans-Roman-6e"/>
     <use x="466.162109375" xlink:href="#BitstreamVeraSans-Roman-63"/>
     <use x="521.142578125" xlink:href="#BitstreamVeraSans-Roman-65"/>
     <use x="582.666015625" xlink:href="#BitstreamVeraSans-Roman-73"/>
    </g>
   </g>
   <g id="text_24">
    <!-- v2.2.1.10 -->
    <g style="fill:#808080;" transform="translate(255.5696875 379.048094678)scale(0.1 -0.1)">
     <use xlink:href="#BitstreamVeraSans-Roman-76"/>
     <use x="59.1796875" xlink:href="#BitstreamVeraSans-Roman-32"/>
     <use x="122.802734375" xlink:href="#BitstreamVeraSans-Roman-2e"/>
     <use x="154.58984375" xlink:href="#BitstreamVeraSans-Roman-32"/>
     <use x="218.212890625" xlink:href="#BitstreamVeraSans-Roman-2e"/>
     <use x="250.0" xlink:href="#BitstreamVeraSans-Roman-31"/>
     <use x="313.623046875" xlink:href="#BitstreamVeraSans-Roman-2e"/>
     <use x="345.41015625" xlink:href="#BitstreamVeraSans-Roman-31"/>
     <use x="409.033203125" xlink:href="#BitstreamVeraSans-Roman-30"/>
    </g>
   </g>
  </g>
 </g>
 <defs>
  <clipPath id="p6b621fcb9d">
   <rect height="377.221782178" width="449.355" x="54.525" y="7.67821782178"/>
  </clipPath>
 </defs>
</svg>
