<?xml version="1.0" encoding="utf-8" standalone="no"?>
<!DOCTYPE svg PUBLIC "-//W3C//DTD SVG 1.1//EN"
  "http://www.w3.org/Graphics/SVG/1.1/DTD/svg11.dtd">
<!-- Created with matplotlib (http://matplotlib.org/) -->
<svg height="432pt" version="1.1" viewBox="0 0 576 432" width="576pt" xmlns="http://www.w3.org/2000/svg" xmlns:xlink="http://www.w3.org/1999/xlink">
 <defs>
  <style type="text/css">
*{stroke-linecap:butt;stroke-linejoin:round;stroke-miterlimit:100000;}
  </style>
 </defs>
 <g id="figure_1">
  <g id="patch_1">
   <path d="M 0 432 
L 576 432 
L 576 0 
L 0 0 
z
" style="fill:#ffffff;"/>
  </g>
  <g id="axes_1">
   <g id="patch_2">
    <path d="M 3 384 
L 567.24 384 
L 567.24 3 
L 3 3 
z
" style="fill:#ffffff;"/>
   </g>
   <g id="line2d_1">
    <path clip-path="url(#p930c494d22)" d="M 119.47615 384 
L 119.47615 378.970297 
L 173.835579 378.970297 
L 173.835579 373.940594 
L 178.731966 373.940594 
L 178.731966 368.910891 
L 179.343446 368.910891 
L 179.343446 363.881188 
L 180.783693 363.881188 
L 180.783693 358.851485 
L 183.2051 358.851485 
L 183.299857 348.792079 
L 184.425046 348.792079 
L 184.425046 343.762376 
L 185.31219 343.762376 
L 185.31219 338.732673 
L 189.946401 338.732673 
L 189.946401 333.70297 
L 193.631176 333.70297 
L 193.631176 328.673267 
L 193.815215 328.673267 
L 193.815215 323.643564 
L 194.610816 323.643564 
L 194.610816 318.613861 
L 197.096795 318.613861 
L 197.096795 313.584158 
L 198.638274 313.584158 
L 198.638274 308.554455 
L 202.767272 308.554455 
L 202.767272 303.524752 
L 227.083907 303.524752 
L 227.083907 298.49505 
L 227.944456 298.49505 
L 227.944456 293.465347 
L 230.153308 293.465347 
L 230.153308 288.435644 
L 247.514883 288.435644 
L 247.514883 283.405941 
L 256.723335 283.405941 
L 256.723335 278.376238 
L 272.138815 278.376238 
L 272.138815 273.346535 
L 279.098468 273.346535 
L 279.098468 268.316832 
L 280.736968 268.316832 
L 280.736968 263.287129 
L 282.679067 263.287129 
L 282.679067 258.257426 
L 283.073786 258.257426 
L 283.073786 253.227723 
L 283.477607 253.227723 
L 283.477607 248.19802 
L 293.311678 248.19802 
L 293.311678 243.168317 
L 294.226703 243.168317 
L 294.226703 238.138614 
L 294.701697 238.138614 
L 294.701697 233.108911 
L 295.144389 233.108911 
L 295.144389 228.079208 
L 295.61769 228.079208 
L 295.61769 223.049505 
L 296.230708 223.049505 
L 296.244429 212.990099 
L 296.873526 212.990099 
L 296.873526 207.960396 
L 297.013159 207.960396 
L 297.013159 202.930693 
L 297.226416 202.930693 
L 297.226416 197.90099 
L 298.382263 197.90099 
L 298.382263 192.871287 
L 299.56522 192.871287 
L 299.56522 187.841584 
L 300.820729 187.841584 
L 300.820729 182.811881 
L 301.028611 182.811881 
L 301.028611 177.782178 
L 301.356729 177.782178 
L 301.356729 172.752475 
L 301.482299 172.752475 
L 301.482299 167.722772 
L 301.845067 167.722772 
L 301.845067 162.693069 
L 303.470867 162.693069 
L 303.470867 157.663366 
L 305.503489 157.663366 
L 305.503489 152.633663 
L 305.882903 152.633663 
L 305.882903 147.60396 
L 306.376031 147.60396 
L 306.376031 142.574257 
L 306.570183 142.574257 
L 306.570183 137.544554 
L 307.312956 137.544554 
L 307.312956 132.514851 
L 307.941869 132.514851 
L 307.941869 127.485149 
L 308.474561 127.485149 
L 308.474561 122.455446 
L 312.270576 122.455446 
L 312.270576 117.425743 
L 312.620847 117.425743 
L 312.620847 112.39604 
L 312.983676 112.39604 
L 312.983676 107.366337 
L 315.950349 107.366337 
L 315.950349 102.336634 
L 316.374882 102.336634 
L 316.374882 97.306931 
L 317.003412 97.306931 
L 317.003412 92.277228 
L 318.939015 92.277228 
L 318.939015 87.247525 
L 325.131369 87.247525 
L 325.131369 82.217822 
L 349.602881 82.217822 
L 349.602881 77.188119 
L 350.590714 77.188119 
L 350.590714 72.158416 
L 356.698128 72.158416 
L 356.698128 67.128713 
L 357.467255 67.128713 
L 357.467255 62.09901 
L 357.743718 62.09901 
L 357.743718 57.069307 
L 360.003647 57.069307 
L 360.003647 52.039604 
L 361.818517 52.039604 
L 361.818517 47.009901 
L 364.909105 47.009901 
L 364.99827 36.950495 
L 366.644561 36.950495 
L 366.644561 31.920792 
L 374.448278 31.920792 
L 374.448278 26.891089 
L 376.758016 26.891089 
L 376.758016 21.861386 
L 377.994052 21.861386 
L 377.994052 16.831683 
L 381.566157 16.831683 
L 381.66372 6.772277 
L 381.66372 6.772277 
L 567.24 6.772277 
L 567.24 6.772277 
" style="fill:none;stroke:#ff0000;stroke-linecap:square;stroke-width:3.0;"/>
   </g>
   <g id="line2d_2">
    <path clip-path="url(#p930c494d22)" d="M 289.859618 384 
L 289.859618 378.970297 
L 293.368366 378.970297 
L 293.368366 373.940594 
L 293.582377 373.940594 
L 293.582377 368.910891 
L 293.76967 368.910891 
L 293.76967 363.881188 
L 300.823744 363.881188 
L 300.823744 358.851485 
L 302.696136 358.851485 
L 302.696136 353.821782 
L 304.766824 353.821782 
L 304.766824 348.792079 
L 307.905042 348.792079 
L 307.905042 343.762376 
L 313.184919 343.762376 
L 313.184919 338.732673 
L 313.365578 338.732673 
L 313.365578 333.70297 
L 318.014274 333.70297 
L 318.014274 328.673267 
L 323.837489 328.673267 
L 323.837489 323.643564 
L 324.766899 323.643564 
L 324.766899 318.613861 
L 325.962986 318.613861 
L 325.962986 313.584158 
L 327.872372 313.584158 
L 327.872372 308.554455 
L 328.334644 308.554455 
L 328.334644 303.524752 
L 353.280078 303.524752 
L 353.280078 298.49505 
L 353.771107 298.49505 
L 353.771107 293.465347 
L 354.14005 293.465347 
L 354.14005 288.435644 
L 358.303521 288.435644 
L 358.303521 283.405941 
L 363.879478 283.405941 
L 363.879478 278.376238 
L 364.548202 278.376238 
L 364.548202 273.346535 
L 365.273522 273.346535 
L 365.273522 268.316832 
L 367.835437 268.316832 
L 367.835437 263.287129 
L 368.432923 263.287129 
L 368.432923 258.257426 
L 368.723413 258.257426 
L 368.734428 248.19802 
L 370.270812 248.19802 
L 370.270812 243.168317 
L 371.462954 243.168317 
L 371.462954 238.138614 
L 373.468414 238.138614 
L 373.468414 233.108911 
L 376.985316 233.108911 
L 376.985316 228.079208 
L 377.409445 228.079208 
L 377.409445 223.049505 
L 416.684263 223.049505 
L 416.684263 218.019802 
L 421.778589 218.019802 
L 421.778589 212.990099 
L 423.825654 212.990099 
L 423.825654 207.960396 
L 434.096208 207.960396 
L 434.096208 202.930693 
L 445.569866 202.930693 
L 445.569866 197.90099 
L 448.084303 197.90099 
L 448.084303 192.871287 
L 449.984704 192.871287 
L 449.984704 187.841584 
L 456.238044 187.841584 
L 456.262067 177.782178 
L 457.63565 177.782178 
L 457.63565 172.752475 
L 460.608261 172.752475 
L 460.608261 167.722772 
L 463.917581 167.722772 
L 463.917581 162.693069 
L 471.823321 162.693069 
L 471.823321 157.663366 
L 475.632791 157.663366 
L 475.632791 152.633663 
L 477.16917 152.633663 
L 477.16917 147.60396 
L 479.97613 147.60396 
L 479.97613 142.574257 
L 480.256927 142.574257 
L 480.256927 137.544554 
L 486.19867 137.544554 
L 486.19867 132.514851 
L 487.752452 132.514851 
L 487.752452 127.485149 
L 490.385598 127.485149 
L 490.385598 122.455446 
L 492.079158 122.455446 
L 492.079158 117.425743 
L 493.274898 117.425743 
L 493.274898 112.39604 
L 494.778986 112.39604 
L 494.778986 107.366337 
L 496.62994 107.366337 
L 496.62994 102.336634 
L 498.865893 102.336634 
L 498.865893 97.306931 
L 499.55525 97.306931 
L 499.55525 92.277228 
L 501.067293 92.277228 
L 501.067293 87.247525 
L 504.595019 87.247525 
L 504.595019 82.217822 
L 506.102588 82.217822 
L 506.102588 77.188119 
L 507.800907 77.188119 
L 507.800907 72.158416 
L 508.514448 72.158416 
L 508.514448 67.128713 
L 511.698126 67.128713 
L 511.698126 62.09901 
L 512.30848 62.09901 
L 512.30848 57.069307 
L 513.982558 57.069307 
L 513.982558 52.039604 
L 517.950091 52.039604 
L 517.950091 47.009901 
L 520.813582 47.009901 
L 520.813582 41.980198 
L 526.043889 41.980198 
L 526.043889 36.950495 
L 526.632997 36.950495 
L 526.632997 31.920792 
L 527.402621 31.920792 
L 527.402621 26.891089 
L 527.775471 26.891089 
L 527.775471 21.861386 
L 540.104176 21.861386 
L 540.104176 16.831683 
L 541.188641 16.831683 
L 541.188641 11.80198 
L 549.364494 11.80198 
L 549.364494 6.772277 
L 549.364494 6.772277 
L 567.24 6.772277 
L 567.24 6.772277 
" style="fill:none;stroke:#00bfbf;stroke-linecap:square;"/>
   </g>
   <g id="line2d_3">
    <path clip-path="url(#p930c494d22)" d="M 281.857812 384 
L 281.857812 378.970297 
L 289.859618 378.970297 
L 289.859618 373.940594 
L 293.368366 373.940594 
L 293.368366 368.910891 
L 293.582377 368.910891 
L 293.582377 363.881188 
L 293.76967 363.881188 
L 293.76967 358.851485 
L 300.823744 358.851485 
L 300.823744 353.821782 
L 301.396524 353.821782 
L 301.396524 348.792079 
L 302.447178 348.792079 
L 302.447178 343.762376 
L 304.003514 343.762376 
L 304.003514 338.732673 
L 304.766824 338.732673 
L 304.766824 333.70297 
L 306.984756 333.70297 
L 306.984756 328.673267 
L 307.905042 328.673267 
L 307.905042 323.643564 
L 308.812592 323.643564 
L 308.812592 318.613861 
L 310.285888 318.613861 
L 310.285888 313.584158 
L 313.365578 313.584158 
L 313.365578 308.554455 
L 318.014274 308.554455 
L 318.014274 303.524752 
L 353.268199 303.524752 
L 353.280078 293.465347 
L 353.771107 293.465347 
L 353.771107 288.435644 
L 358.303521 288.435644 
L 358.303521 283.405941 
L 362.348187 283.405941 
L 362.348187 278.376238 
L 362.489837 278.376238 
L 362.489837 273.346535 
L 364.548202 273.346535 
L 364.548202 268.316832 
L 365.273522 268.316832 
L 365.273522 263.287129 
L 366.238575 263.287129 
L 366.238575 258.257426 
L 367.835437 258.257426 
L 367.835437 253.227723 
L 368.723413 253.227723 
L 368.734428 243.168317 
L 369.180206 243.168317 
L 369.180206 238.138614 
L 369.309064 238.138614 
L 369.309064 233.108911 
L 370.317409 233.108911 
L 370.317409 228.079208 
L 371.462954 228.079208 
L 371.462954 223.049505 
L 376.248172 223.049505 
L 376.248172 218.019802 
L 415.821682 218.019802 
L 415.821682 212.990099 
L 416.684263 212.990099 
L 416.684263 207.960396 
L 423.825654 207.960396 
L 423.825654 202.930693 
L 424.243155 202.930693 
L 424.243155 197.90099 
L 434.096208 197.90099 
L 434.096208 192.871287 
L 442.089993 192.871287 
L 442.089993 187.841584 
L 448.084303 187.841584 
L 448.084303 182.811881 
L 449.984704 182.811881 
L 449.984704 177.782178 
L 450.789891 177.782178 
L 450.789891 172.752475 
L 451.2446 172.752475 
L 451.2446 167.722772 
L 452.091013 167.722772 
L 452.091013 162.693069 
L 456.262067 162.693069 
L 456.287471 152.633663 
L 457.932032 152.633663 
L 457.932032 147.60396 
L 460.608261 147.60396 
L 460.608261 142.574257 
L 463.917581 142.574257 
L 463.917581 137.544554 
L 464.057608 137.544554 
L 464.057608 132.514851 
L 464.195771 132.514851 
L 464.195771 127.485149 
L 472.325279 127.485149 
L 472.325279 122.455446 
L 472.939809 122.455446 
L 472.939809 117.425743 
L 475.632791 117.425743 
L 475.632791 112.39604 
L 476.658792 112.39604 
L 476.658792 107.366337 
L 477.16917 107.366337 
L 477.16917 102.336634 
L 477.501246 102.336634 
L 477.501246 97.306931 
L 488.645708 97.306931 
L 488.645708 92.277228 
L 493.154136 92.277228 
L 493.154136 87.247525 
L 493.274898 87.247525 
L 493.274898 82.217822 
L 493.785581 82.217822 
L 493.785581 77.188119 
L 496.494792 77.188119 
L 496.494792 72.158416 
L 499.029275 72.158416 
L 499.029275 67.128713 
L 500.775951 67.128713 
L 500.775951 62.09901 
L 501.067293 62.09901 
L 501.067293 57.069307 
L 502.500355 57.069307 
L 502.500355 52.039604 
L 507.068914 52.039604 
L 507.068914 47.009901 
L 507.800907 47.009901 
L 507.800907 41.980198 
L 510.702481 41.980198 
L 510.702481 36.950495 
L 511.698126 36.950495 
L 511.708613 26.891089 
L 513.982558 26.891089 
L 513.982558 21.861386 
L 517.139097 21.861386 
L 517.139097 16.831683 
L 517.950091 16.831683 
L 517.950091 11.80198 
L 523.31814 11.80198 
L 523.31814 6.772277 
L 523.31814 6.772277 
L 567.24 6.772277 
L 567.24 6.772277 
" style="fill:none;stroke:#bf00bf;stroke-linecap:square;"/>
   </g>
   <g id="line2d_4">
    <path clip-path="url(#p930c494d22)" d="M 280.783023 384 
L 280.783023 378.970297 
L 281.857812 378.970297 
L 281.857812 373.940594 
L 287.622257 373.940594 
L 287.622257 368.910891 
L 289.859618 368.910891 
L 289.859618 363.881188 
L 291.816064 363.881188 
L 291.816064 358.851485 
L 293.368366 358.851485 
L 293.472228 348.792079 
L 293.511157 348.792079 
L 293.582377 338.732673 
L 295.801573 338.732673 
L 295.801573 333.70297 
L 299.04512 333.70297 
L 299.04512 328.673267 
L 301.396524 328.673267 
L 301.396524 323.643564 
L 304.003514 323.643564 
L 304.003514 318.613861 
L 307.630527 318.613861 
L 307.630527 313.584158 
L 310.285888 313.584158 
L 310.285888 308.554455 
L 313.365578 308.554455 
L 313.365578 303.524752 
L 353.268199 303.524752 
L 353.280078 293.465347 
L 353.771107 293.465347 
L 353.771107 288.435644 
L 358.303521 288.435644 
L 358.387295 278.376238 
L 360.308268 278.376238 
L 360.308268 273.346535 
L 361.662728 273.346535 
L 361.662728 268.316832 
L 362.489837 268.316832 
L 362.489837 263.287129 
L 362.913243 263.287129 
L 362.913243 258.257426 
L 365.353845 258.257426 
L 365.353845 253.227723 
L 366.238575 253.227723 
L 366.238575 248.19802 
L 366.597101 248.19802 
L 366.6107 238.138614 
L 368.734428 238.138614 
L 368.734428 233.108911 
L 369.309064 233.108911 
L 369.309064 228.079208 
L 370.317409 228.079208 
L 370.317409 223.049505 
L 371.462954 223.049505 
L 371.462954 218.019802 
L 379.626607 218.019802 
L 379.626607 212.990099 
L 406.8958 212.990099 
L 406.8958 207.960396 
L 415.821682 207.960396 
L 415.821682 202.930693 
L 416.684263 202.930693 
L 416.684263 197.90099 
L 422.112021 197.90099 
L 422.112021 192.871287 
L 423.825654 192.871287 
L 423.825654 187.841584 
L 424.445673 187.841584 
L 424.445673 182.811881 
L 430.07813 182.811881 
L 430.07813 177.782178 
L 433.034846 177.782178 
L 433.034846 172.752475 
L 435.046032 172.752475 
L 435.046032 167.722772 
L 437.909887 167.722772 
L 437.909887 162.693069 
L 441.346147 162.693069 
L 441.346147 157.663366 
L 442.022292 157.663366 
L 442.022292 152.633663 
L 442.166409 152.633663 
L 442.166409 147.60396 
L 448.084303 147.60396 
L 448.084303 142.574257 
L 449.984704 142.574257 
L 449.984704 137.544554 
L 450.789891 137.544554 
L 450.789891 132.514851 
L 451.2446 132.514851 
L 451.2446 127.485149 
L 452.255684 127.485149 
L 452.255684 122.455446 
L 456.287471 122.455446 
L 456.287471 117.425743 
L 456.417864 117.425743 
L 456.417864 112.39604 
L 458.652572 112.39604 
L 458.652572 107.366337 
L 464.195771 107.366337 
L 464.195771 102.336634 
L 471.191031 102.336634 
L 471.191031 97.306931 
L 472.325279 97.306931 
L 472.325279 92.277228 
L 472.939809 92.277228 
L 472.939809 87.247525 
L 476.672642 87.247525 
L 476.672642 82.217822 
L 491.507234 82.217822 
L 491.507234 77.188119 
L 493.154136 77.188119 
L 493.154136 72.158416 
L 493.274898 72.158416 
L 493.274898 67.128713 
L 495.41029 67.128713 
L 495.41029 62.09901 
L 500.775951 62.09901 
L 500.775951 57.069307 
L 502.500355 57.069307 
L 502.500355 52.039604 
L 505.463707 52.039604 
L 505.463707 47.009901 
L 507.068914 47.009901 
L 507.068914 41.980198 
L 507.800907 41.980198 
L 507.800907 36.950495 
L 508.032482 36.950495 
L 508.09399 26.891089 
L 510.702481 26.891089 
L 510.702481 21.861386 
L 513.982558 21.861386 
L 513.982558 16.831683 
L 517.139097 16.831683 
L 517.139097 11.80198 
L 517.950091 11.80198 
L 517.950091 6.772277 
L 517.950091 6.772277 
L 567.24 6.772277 
L 567.24 6.772277 
" style="fill:none;stroke:#000000;stroke-linecap:square;"/>
   </g>
   <g id="line2d_5">
    <path clip-path="url(#p930c494d22)" d="M 280.783023 384 
L 280.783023 378.970297 
L 281.857812 378.970297 
L 281.857812 373.940594 
L 286.818053 373.940594 
L 286.818053 368.910891 
L 287.622257 368.910891 
L 287.622257 363.881188 
L 289.859618 363.881188 
L 289.859618 358.851485 
L 291.816064 358.851485 
L 291.816064 353.821782 
L 293.368366 353.821782 
L 293.472228 343.762376 
L 293.511157 343.762376 
L 293.582377 333.70297 
L 295.801573 333.70297 
L 295.801573 328.673267 
L 299.04512 328.673267 
L 299.04512 323.643564 
L 301.396524 323.643564 
L 301.396524 318.613861 
L 304.003514 318.613861 
L 304.003514 313.584158 
L 310.285888 313.584158 
L 310.285888 308.554455 
L 313.365578 308.554455 
L 313.365578 303.524752 
L 350.463263 303.524752 
L 350.463263 298.49505 
L 353.268199 298.49505 
L 353.280078 288.435644 
L 353.771107 288.435644 
L 353.771107 283.405941 
L 355.895676 283.405941 
L 355.895676 278.376238 
L 358.387295 278.376238 
L 358.387295 273.346535 
L 358.72151 273.346535 
L 358.798099 263.287129 
L 359.040364 263.287129 
L 359.040364 258.257426 
L 360.308268 258.257426 
L 360.308268 253.227723 
L 360.806697 253.227723 
L 360.806697 248.19802 
L 361.662728 248.19802 
L 361.662728 243.168317 
L 362.211001 243.168317 
L 362.211001 238.138614 
L 362.913243 238.138614 
L 362.913243 233.108911 
L 364.891427 233.108911 
L 364.891427 228.079208 
L 365.070324 228.079208 
L 365.070324 223.049505 
L 369.309064 223.049505 
L 369.309064 218.019802 
L 379.626607 218.019802 
L 379.626607 212.990099 
L 388.747951 212.990099 
L 388.747951 207.960396 
L 406.8958 207.960396 
L 406.8958 202.930693 
L 415.821682 202.930693 
L 415.821682 197.90099 
L 416.684263 197.90099 
L 416.684263 192.871287 
L 422.112021 192.871287 
L 422.112021 187.841584 
L 423.825654 187.841584 
L 423.825654 182.811881 
L 424.445673 182.811881 
L 424.445673 177.782178 
L 430.07813 177.782178 
L 430.07813 172.752475 
L 433.034846 172.752475 
L 433.034846 167.722772 
L 435.046032 167.722772 
L 435.046032 162.693069 
L 437.909887 162.693069 
L 437.909887 157.663366 
L 441.346147 157.663366 
L 441.346147 152.633663 
L 442.022292 152.633663 
L 442.022292 147.60396 
L 442.166409 147.60396 
L 442.166409 142.574257 
L 448.084303 142.574257 
L 448.084303 137.544554 
L 449.984704 137.544554 
L 449.984704 132.514851 
L 450.789891 132.514851 
L 450.789891 127.485149 
L 451.2446 127.485149 
L 451.2446 122.455446 
L 452.255684 122.455446 
L 452.255684 117.425743 
L 456.287471 117.425743 
L 456.287471 112.39604 
L 456.417864 112.39604 
L 456.417864 107.366337 
L 458.652572 107.366337 
L 458.652572 102.336634 
L 464.195771 102.336634 
L 464.195771 97.306931 
L 471.191031 97.306931 
L 471.191031 92.277228 
L 472.325279 92.277228 
L 472.325279 87.247525 
L 472.939809 87.247525 
L 472.939809 82.217822 
L 476.672642 82.217822 
L 476.672642 77.188119 
L 488.866349 77.188119 
L 488.866349 72.158416 
L 490.639446 72.158416 
L 490.639446 67.128713 
L 493.154136 67.128713 
L 493.154136 62.09901 
L 495.41029 62.09901 
L 495.41029 57.069307 
L 500.775951 57.069307 
L 500.775951 52.039604 
L 502.500355 52.039604 
L 502.500355 47.009901 
L 505.463707 47.009901 
L 505.463707 41.980198 
L 507.068914 41.980198 
L 507.068914 36.950495 
L 507.420952 36.950495 
L 507.420952 31.920792 
L 507.800907 31.920792 
L 507.800907 26.891089 
L 508.032482 26.891089 
L 508.09399 16.831683 
L 517.139097 16.831683 
L 517.139097 11.80198 
L 517.950091 11.80198 
L 517.950091 6.772277 
L 517.950091 6.772277 
L 567.24 6.772277 
L 567.24 6.772277 
" style="fill:none;stroke:#00bfbf;stroke-linecap:square;"/>
   </g>
   <g id="line2d_6">
    <path clip-path="url(#p930c494d22)" d="M 260.512827 384 
L 260.512827 378.970297 
L 269.644088 378.970297 
L 269.644088 373.940594 
L 278.369805 373.940594 
L 278.369805 368.910891 
L 278.482653 368.910891 
L 278.482653 363.881188 
L 279.18976 363.881188 
L 279.18976 358.851485 
L 281.117561 358.851485 
L 281.117561 353.821782 
L 281.857812 353.821782 
L 281.857812 348.792079 
L 284.477557 348.792079 
L 284.542196 338.732673 
L 284.982822 338.732673 
L 284.983986 328.673267 
L 288.576603 328.673267 
L 288.576603 323.643564 
L 291.48131 323.643564 
L 291.48131 318.613861 
L 295.028894 318.613861 
L 295.028894 313.584158 
L 295.536976 313.584158 
L 295.536976 308.554455 
L 313.365578 308.554455 
L 313.365578 303.524752 
L 319.048974 303.524752 
L 319.048974 298.49505 
L 332.985594 298.49505 
L 332.985594 293.465347 
L 335.897094 293.465347 
L 335.897094 288.435644 
L 337.327012 288.435644 
L 337.327012 283.405941 
L 339.78782 283.405941 
L 339.813241 273.346535 
L 339.97232 273.346535 
L 339.97232 268.316832 
L 344.012736 268.316832 
L 344.012736 263.287129 
L 345.456198 263.287129 
L 345.456198 258.257426 
L 346.599922 258.257426 
L 346.599922 253.227723 
L 347.468106 253.227723 
L 347.468106 248.19802 
L 348.112131 248.19802 
L 348.112131 243.168317 
L 348.623141 243.168317 
L 348.623141 238.138614 
L 348.75253 238.138614 
L 348.75253 233.108911 
L 348.888739 233.108911 
L 348.888739 228.079208 
L 349.181415 228.079208 
L 349.181415 223.049505 
L 349.51082 223.049505 
L 349.51082 218.019802 
L 350.690049 218.019802 
L 350.690049 212.990099 
L 351.800289 212.990099 
L 351.800289 207.960396 
L 352.608242 207.960396 
L 352.608242 202.930693 
L 353.384394 202.930693 
L 353.384394 197.90099 
L 356.367269 197.90099 
L 356.367269 192.871287 
L 363.618589 192.871287 
L 363.618589 187.841584 
L 365.118868 187.841584 
L 365.118868 182.811881 
L 365.466472 182.811881 
L 365.466472 177.782178 
L 369.052839 177.782178 
L 369.052839 172.752475 
L 373.91542 172.752475 
L 373.91542 167.722772 
L 378.265973 167.722772 
L 378.265973 162.693069 
L 381.999443 162.693069 
L 381.999443 157.663366 
L 383.828635 157.663366 
L 383.828635 152.633663 
L 386.524787 152.633663 
L 386.524787 147.60396 
L 387.264012 147.60396 
L 387.264012 142.574257 
L 395.988335 142.574257 
L 395.988335 137.544554 
L 396.437017 137.544554 
L 396.437017 132.514851 
L 403.334674 132.514851 
L 403.334674 127.485149 
L 408.821805 127.485149 
L 408.821805 122.455446 
L 409.079181 122.455446 
L 409.079181 117.425743 
L 409.972335 117.425743 
L 409.972335 112.39604 
L 422.446919 112.39604 
L 422.446919 107.366337 
L 423.384928 107.366337 
L 423.384928 102.336634 
L 423.825654 102.336634 
L 423.825654 97.306931 
L 426.218087 97.306931 
L 426.218087 92.277228 
L 427.057209 92.277228 
L 427.057209 87.247525 
L 428.481665 87.247525 
L 428.481665 82.217822 
L 432.477063 82.217822 
L 432.477063 77.188119 
L 440.341147 77.188119 
L 440.341147 72.158416 
L 442.022292 72.158416 
L 442.022292 67.128713 
L 452.255684 67.128713 
L 452.255684 62.09901 
L 457.292344 62.09901 
L 457.292344 57.069307 
L 462.458944 57.069307 
L 462.458944 52.039604 
L 474.821438 52.039604 
L 474.821438 47.009901 
L 475.342066 47.009901 
L 475.342066 41.980198 
L 479.993529 41.980198 
L 479.993529 36.950495 
L 490.82929 36.950495 
L 490.82929 31.920792 
L 493.154136 31.920792 
L 493.154136 26.891089 
L 495.41029 26.891089 
L 495.41029 21.861386 
L 495.752433 21.861386 
L 495.752433 16.831683 
L 503.153592 16.831683 
L 503.153592 11.80198 
L 503.561878 11.80198 
L 503.561878 6.772277 
L 503.561878 6.772277 
L 567.24 6.772277 
L 567.24 6.772277 
" style="fill:none;stroke:#bf00bf;stroke-linecap:square;"/>
   </g>
   <g id="line2d_7">
    <path clip-path="url(#p930c494d22)" d="M 229.938177 384 
L 229.938177 378.970297 
L 235.541734 378.970297 
L 235.541734 373.940594 
L 238.741267 373.940594 
L 238.741267 368.910891 
L 241.905857 368.910891 
L 241.905857 363.881188 
L 243.528773 363.881188 
L 243.528773 358.851485 
L 249.068409 358.851485 
L 249.068409 353.821782 
L 250.057418 353.821782 
L 250.057418 348.792079 
L 253.401447 348.792079 
L 253.401447 343.762376 
L 257.655772 343.762376 
L 257.749173 333.70297 
L 258.837335 333.70297 
L 258.837335 328.673267 
L 259.548169 328.673267 
L 259.548169 323.643564 
L 260.512827 323.643564 
L 260.512827 318.613861 
L 261.424625 318.613861 
L 261.424625 313.584158 
L 268.216082 313.584158 
L 268.216082 308.554455 
L 300.868165 308.554455 
L 300.868165 303.524752 
L 306.466845 303.524752 
L 306.466845 298.49505 
L 309.176727 298.49505 
L 309.176727 293.465347 
L 312.570588 293.465347 
L 312.570588 288.435644 
L 312.690912 288.435644 
L 312.690912 283.405941 
L 313.365578 283.405941 
L 313.365578 278.376238 
L 314.037324 278.376238 
L 314.037324 273.346535 
L 316.320159 273.346535 
L 316.320159 268.316832 
L 317.723606 268.316832 
L 317.723606 263.287129 
L 318.917876 263.287129 
L 318.917876 258.257426 
L 319.048974 258.257426 
L 319.096108 248.19802 
L 319.523433 248.19802 
L 319.523433 243.168317 
L 325.073818 243.168317 
L 325.073818 238.138614 
L 325.854676 238.138614 
L 325.854676 233.108911 
L 326.398603 233.108911 
L 326.398603 228.079208 
L 328.400796 228.079208 
L 328.400796 223.049505 
L 328.713686 223.049505 
L 328.713686 218.019802 
L 329.561323 218.019802 
L 329.60151 207.960396 
L 330.514476 207.960396 
L 330.514476 202.930693 
L 331.742834 202.930693 
L 331.742834 197.90099 
L 331.91561 197.90099 
L 331.91561 192.871287 
L 332.335522 192.871287 
L 332.335522 187.841584 
L 332.71421 187.841584 
L 332.71421 182.811881 
L 335.048529 182.811881 
L 335.048529 177.782178 
L 335.652007 177.782178 
L 335.652007 172.752475 
L 335.924448 172.752475 
L 335.924448 167.722772 
L 336.870628 167.722772 
L 336.870628 162.693069 
L 337.219588 162.693069 
L 337.327012 152.633663 
L 337.625102 152.633663 
L 337.625102 147.60396 
L 338.008158 147.60396 
L 338.008158 142.574257 
L 338.324055 142.574257 
L 338.324055 137.544554 
L 340.678698 137.544554 
L 340.678698 132.514851 
L 341.4104 132.514851 
L 341.4104 127.485149 
L 342.713011 127.485149 
L 342.713011 122.455446 
L 344.792166 122.455446 
L 344.792166 117.425743 
L 350.590714 117.425743 
L 350.590714 112.39604 
L 350.872361 112.39604 
L 350.872361 107.366337 
L 356.708847 107.366337 
L 356.708847 102.336634 
L 357.188657 102.336634 
L 357.188657 97.306931 
L 364.998276 97.306931 
L 364.998276 92.277228 
L 368.196948 92.277228 
L 368.196948 87.247525 
L 368.614487 87.247525 
L 368.614487 82.217822 
L 376.244879 82.217822 
L 376.244879 77.188119 
L 381.66372 77.188119 
L 381.66372 72.158416 
L 381.999443 72.158416 
L 381.999443 67.128713 
L 387.329789 67.128713 
L 387.329789 62.09901 
L 389.41929 62.09901 
L 389.508381 52.039604 
L 390.481623 52.039604 
L 390.481623 47.009901 
L 393.535395 47.009901 
L 393.535395 41.980198 
L 396.518527 41.980198 
L 396.518527 36.950495 
L 396.634376 36.950495 
L 396.634376 31.920792 
L 405.457326 31.920792 
L 405.457326 26.891089 
L 406.089476 26.891089 
L 406.089476 21.861386 
L 408.404413 21.861386 
L 408.404413 16.831683 
L 418.397687 16.831683 
L 418.397687 11.80198 
L 425.358701 11.80198 
L 425.358701 6.772277 
L 425.358701 6.772277 
L 567.24 6.772277 
L 567.24 6.772277 
" style="fill:none;stroke:#000000;stroke-linecap:square;"/>
   </g>
   <g id="line2d_8">
    <path clip-path="url(#p930c494d22)" d="M 173.835579 384 
L 173.835579 378.970297 
L 178.731966 378.970297 
L 178.731966 373.940594 
L 179.343446 373.940594 
L 179.343446 368.910891 
L 180.783693 368.910891 
L 180.783693 363.881188 
L 183.2051 363.881188 
L 183.299857 353.821782 
L 184.425046 353.821782 
L 184.425046 348.792079 
L 185.31219 348.792079 
L 185.31219 343.762376 
L 189.946401 343.762376 
L 189.946401 338.732673 
L 193.631176 338.732673 
L 193.631176 333.70297 
L 193.815215 333.70297 
L 193.815215 328.673267 
L 194.610816 328.673267 
L 194.610816 323.643564 
L 197.096795 323.643564 
L 197.096795 318.613861 
L 198.638274 318.613861 
L 198.638274 313.584158 
L 202.767272 313.584158 
L 202.767272 308.554455 
L 227.083907 308.554455 
L 227.083907 303.524752 
L 227.944456 303.524752 
L 227.944456 298.49505 
L 230.153308 298.49505 
L 230.153308 293.465347 
L 247.514883 293.465347 
L 247.514883 288.435644 
L 255.879324 288.435644 
L 255.879324 283.405941 
L 256.723335 283.405941 
L 256.723335 278.376238 
L 272.138815 278.376238 
L 272.138815 273.346535 
L 279.098468 273.346535 
L 279.098468 268.316832 
L 280.736968 268.316832 
L 280.736968 263.287129 
L 283.073786 263.287129 
L 283.073786 258.257426 
L 283.477607 258.257426 
L 283.477607 253.227723 
L 285.208424 253.227723 
L 285.208424 248.19802 
L 293.311678 248.19802 
L 293.311678 243.168317 
L 294.226703 243.168317 
L 294.226703 238.138614 
L 294.701697 238.138614 
L 294.701697 233.108911 
L 295.144389 233.108911 
L 295.144389 228.079208 
L 296.244429 228.079208 
L 296.244429 223.049505 
L 296.873526 223.049505 
L 296.873526 218.019802 
L 297.013159 218.019802 
L 297.013159 212.990099 
L 298.382263 212.990099 
L 298.382263 207.960396 
L 299.56522 207.960396 
L 299.56522 202.930693 
L 300.820729 202.930693 
L 300.820729 197.90099 
L 301.028611 197.90099 
L 301.028611 192.871287 
L 301.356729 192.871287 
L 301.356729 187.841584 
L 301.482299 187.841584 
L 301.482299 182.811881 
L 301.845067 182.811881 
L 301.845067 177.782178 
L 303.075506 177.782178 
L 303.075506 172.752475 
L 303.470867 172.752475 
L 303.470867 167.722772 
L 303.999357 167.722772 
L 303.999357 162.693069 
L 305.503489 162.693069 
L 305.503489 157.663366 
L 305.882903 157.663366 
L 305.882903 152.633663 
L 306.376031 152.633663 
L 306.376031 147.60396 
L 306.570183 147.60396 
L 306.570183 142.574257 
L 307.312956 142.574257 
L 307.312956 137.544554 
L 307.941869 137.544554 
L 307.941869 132.514851 
L 308.474561 132.514851 
L 308.474561 127.485149 
L 309.037887 127.485149 
L 309.037887 122.455446 
L 312.270576 122.455446 
L 312.270576 117.425743 
L 312.620847 117.425743 
L 312.620847 112.39604 
L 312.983676 112.39604 
L 312.983676 107.366337 
L 315.950349 107.366337 
L 315.950349 102.336634 
L 316.374882 102.336634 
L 316.374882 97.306931 
L 317.003412 97.306931 
L 317.003412 92.277228 
L 318.939015 92.277228 
L 318.939015 87.247525 
L 325.131369 87.247525 
L 325.131369 82.217822 
L 350.590714 82.217822 
L 350.590714 77.188119 
L 356.698128 77.188119 
L 356.698128 72.158416 
L 357.743718 72.158416 
L 357.743718 67.128713 
L 360.003647 67.128713 
L 360.003647 62.09901 
L 361.818517 62.09901 
L 361.818517 57.069307 
L 364.909105 57.069307 
L 364.99827 47.009901 
L 365.516529 47.009901 
L 365.516529 41.980198 
L 366.644561 41.980198 
L 366.644561 36.950495 
L 368.196948 36.950495 
L 368.196948 31.920792 
L 374.448278 31.920792 
L 374.448278 26.891089 
L 376.758016 26.891089 
L 376.758016 21.861386 
L 377.994052 21.861386 
L 377.994052 16.831683 
L 381.66372 16.831683 
L 381.66372 11.80198 
L 383.785079 11.80198 
L 383.785079 6.772277 
L 383.785079 6.772277 
L 567.24 6.772277 
L 567.24 6.772277 
" style="fill:none;stroke:#00bfbf;stroke-linecap:square;"/>
   </g>
   <g id="patch_3">
    <path d="M 3 3 
L 567.24 3 
" style="fill:none;stroke:#000000;stroke-linecap:square;stroke-linejoin:miter;"/>
   </g>
   <g id="patch_4">
    <path d="M 567.24 384 
L 567.24 3 
" style="fill:none;stroke:#000000;stroke-linecap:square;stroke-linejoin:miter;"/>
   </g>
   <g id="patch_5">
    <path d="M 3 384 
L 567.24 384 
" style="fill:none;stroke:#000000;stroke-linecap:square;stroke-linejoin:miter;"/>
   </g>
   <g id="patch_6">
    <path d="M 3 384 
L 3 3 
" style="fill:none;stroke:#000000;stroke-linecap:square;stroke-linejoin:miter;"/>
   </g>
   <g id="matplotlib.axis_1">
    <g id="xtick_1"/>
    <g id="xtick_2">
     <g id="line2d_9">
      <path clip-path="url(#p930c494d22)" d="M 69.254589 384 
L 69.254589 3 
" style="fill:none;stroke:#000000;stroke-dasharray:1.000000,3.000000;stroke-dashoffset:0.0;stroke-width:0.5;"/>
     </g>
     <g id="line2d_10">
      <defs>
       <path d="M 0 0 
L 0 -4 
" id="mca1e1161f9" style="stroke:#000000;stroke-width:0.5;"/>
      </defs>
      <g>
       <use style="stroke:#000000;stroke-width:0.5;" x="69.2545893472" xlink:href="#mca1e1161f9" y="384.0"/>
      </g>
     </g>
     <g id="line2d_11">
      <defs>
       <path d="M 0 0 
L 0 4 
" id="m95f30c1742" style="stroke:#000000;stroke-width:0.5;"/>
      </defs>
      <g>
       <use style="stroke:#000000;stroke-width:0.5;" x="69.2545893472" xlink:href="#m95f30c1742" y="3.0"/>
      </g>
     </g>
     <g id="text_1">
      <!-- -6 -->
      <defs>
       <path d="M 33.015625 40.375 
Q 26.375 40.375 22.484375 35.828125 
Q 18.609375 31.296875 18.609375 23.390625 
Q 18.609375 15.53125 22.484375 10.953125 
Q 26.375 6.390625 33.015625 6.390625 
Q 39.65625 6.390625 43.53125 10.953125 
Q 47.40625 15.53125 47.40625 23.390625 
Q 47.40625 31.296875 43.53125 35.828125 
Q 39.65625 40.375 33.015625 40.375 
M 52.59375 71.296875 
L 52.59375 62.3125 
Q 48.875 64.0625 45.09375 64.984375 
Q 41.3125 65.921875 37.59375 65.921875 
Q 27.828125 65.921875 22.671875 59.328125 
Q 17.53125 52.734375 16.796875 39.40625 
Q 19.671875 43.65625 24.015625 45.921875 
Q 28.375 48.1875 33.59375 48.1875 
Q 44.578125 48.1875 50.953125 41.515625 
Q 57.328125 34.859375 57.328125 23.390625 
Q 57.328125 12.15625 50.6875 5.359375 
Q 44.046875 -1.421875 33.015625 -1.421875 
Q 20.359375 -1.421875 13.671875 8.265625 
Q 6.984375 17.96875 6.984375 36.375 
Q 6.984375 53.65625 15.1875 63.9375 
Q 23.390625 74.21875 37.203125 74.21875 
Q 40.921875 74.21875 44.703125 73.484375 
Q 48.484375 72.75 52.59375 71.296875 
" id="BitstreamVeraSans-Roman-36"/>
       <path d="M 4.890625 31.390625 
L 31.203125 31.390625 
L 31.203125 23.390625 
L 4.890625 23.390625 
z
" id="BitstreamVeraSans-Roman-2d"/>
      </defs>
      <g transform="translate(59.2842768472 403.196875)scale(0.2 -0.2)">
       <use xlink:href="#BitstreamVeraSans-Roman-2d"/>
       <use x="36.083984375" xlink:href="#BitstreamVeraSans-Roman-36"/>
      </g>
     </g>
    </g>
    <g id="xtick_3">
     <g id="line2d_12">
      <path clip-path="url(#p930c494d22)" d="M 135.652644 384 
L 135.652644 3 
" style="fill:none;stroke:#000000;stroke-dasharray:1.000000,3.000000;stroke-dashoffset:0.0;stroke-width:0.5;"/>
     </g>
     <g id="line2d_13">
      <g>
       <use style="stroke:#000000;stroke-width:0.5;" x="135.652644101" xlink:href="#mca1e1161f9" y="384.0"/>
      </g>
     </g>
     <g id="line2d_14">
      <g>
       <use style="stroke:#000000;stroke-width:0.5;" x="135.652644101" xlink:href="#m95f30c1742" y="3.0"/>
      </g>
     </g>
     <g id="text_2">
      <!-- -4 -->
      <defs>
       <path d="M 37.796875 64.3125 
L 12.890625 25.390625 
L 37.796875 25.390625 
z
M 35.203125 72.90625 
L 47.609375 72.90625 
L 47.609375 25.390625 
L 58.015625 25.390625 
L 58.015625 17.1875 
L 47.609375 17.1875 
L 47.609375 0 
L 37.796875 0 
L 37.796875 17.1875 
L 4.890625 17.1875 
L 4.890625 26.703125 
z
" id="BitstreamVeraSans-Roman-34"/>
      </defs>
      <g transform="translate(125.682331601 403.196875)scale(0.2 -0.2)">
       <use xlink:href="#BitstreamVeraSans-Roman-2d"/>
       <use x="36.083984375" xlink:href="#BitstreamVeraSans-Roman-34"/>
      </g>
     </g>
    </g>
    <g id="xtick_4">
     <g id="line2d_15">
      <path clip-path="url(#p930c494d22)" d="M 202.050699 384 
L 202.050699 3 
" style="fill:none;stroke:#000000;stroke-dasharray:1.000000,3.000000;stroke-dashoffset:0.0;stroke-width:0.5;"/>
     </g>
     <g id="line2d_16">
      <g>
       <use style="stroke:#000000;stroke-width:0.5;" x="202.050698855" xlink:href="#mca1e1161f9" y="384.0"/>
      </g>
     </g>
     <g id="line2d_17">
      <g>
       <use style="stroke:#000000;stroke-width:0.5;" x="202.050698855" xlink:href="#m95f30c1742" y="3.0"/>
      </g>
     </g>
     <g id="text_3">
      <!-- -2 -->
      <defs>
       <path d="M 19.1875 8.296875 
L 53.609375 8.296875 
L 53.609375 0 
L 7.328125 0 
L 7.328125 8.296875 
Q 12.9375 14.109375 22.625 23.890625 
Q 32.328125 33.6875 34.8125 36.53125 
Q 39.546875 41.84375 41.421875 45.53125 
Q 43.3125 49.21875 43.3125 52.78125 
Q 43.3125 58.59375 39.234375 62.25 
Q 35.15625 65.921875 28.609375 65.921875 
Q 23.96875 65.921875 18.8125 64.3125 
Q 13.671875 62.703125 7.8125 59.421875 
L 7.8125 69.390625 
Q 13.765625 71.78125 18.9375 73 
Q 24.125 74.21875 28.421875 74.21875 
Q 39.75 74.21875 46.484375 68.546875 
Q 53.21875 62.890625 53.21875 53.421875 
Q 53.21875 48.921875 51.53125 44.890625 
Q 49.859375 40.875 45.40625 35.40625 
Q 44.1875 33.984375 37.640625 27.21875 
Q 31.109375 20.453125 19.1875 8.296875 
" id="BitstreamVeraSans-Roman-32"/>
      </defs>
      <g transform="translate(192.080386355 403.196875)scale(0.2 -0.2)">
       <use xlink:href="#BitstreamVeraSans-Roman-2d"/>
       <use x="36.083984375" xlink:href="#BitstreamVeraSans-Roman-32"/>
      </g>
     </g>
    </g>
    <g id="xtick_5">
     <g id="line2d_18">
      <path clip-path="url(#p930c494d22)" d="M 268.448754 384 
L 268.448754 3 
" style="fill:none;stroke:#000000;stroke-dasharray:1.000000,3.000000;stroke-dashoffset:0.0;stroke-width:0.5;"/>
     </g>
     <g id="line2d_19">
      <g>
       <use style="stroke:#000000;stroke-width:0.5;" x="268.448753608" xlink:href="#mca1e1161f9" y="384.0"/>
      </g>
     </g>
     <g id="line2d_20">
      <g>
       <use style="stroke:#000000;stroke-width:0.5;" x="268.448753608" xlink:href="#m95f30c1742" y="3.0"/>
      </g>
     </g>
     <g id="text_4">
      <!-- 0 -->
      <defs>
       <path d="M 31.78125 66.40625 
Q 24.171875 66.40625 20.328125 58.90625 
Q 16.5 51.421875 16.5 36.375 
Q 16.5 21.390625 20.328125 13.890625 
Q 24.171875 6.390625 31.78125 6.390625 
Q 39.453125 6.390625 43.28125 13.890625 
Q 47.125 21.390625 47.125 36.375 
Q 47.125 51.421875 43.28125 58.90625 
Q 39.453125 66.40625 31.78125 66.40625 
M 31.78125 74.21875 
Q 44.046875 74.21875 50.515625 64.515625 
Q 56.984375 54.828125 56.984375 36.375 
Q 56.984375 17.96875 50.515625 8.265625 
Q 44.046875 -1.421875 31.78125 -1.421875 
Q 19.53125 -1.421875 13.0625 8.265625 
Q 6.59375 17.96875 6.59375 36.375 
Q 6.59375 54.828125 13.0625 64.515625 
Q 19.53125 74.21875 31.78125 74.21875 
" id="BitstreamVeraSans-Roman-30"/>
      </defs>
      <g transform="translate(262.086253608 403.196875)scale(0.2 -0.2)">
       <use xlink:href="#BitstreamVeraSans-Roman-30"/>
      </g>
     </g>
    </g>
    <g id="xtick_6">
     <g id="line2d_21">
      <path clip-path="url(#p930c494d22)" d="M 334.846808 384 
L 334.846808 3 
" style="fill:none;stroke:#000000;stroke-dasharray:1.000000,3.000000;stroke-dashoffset:0.0;stroke-width:0.5;"/>
     </g>
     <g id="line2d_22">
      <g>
       <use style="stroke:#000000;stroke-width:0.5;" x="334.846808362" xlink:href="#mca1e1161f9" y="384.0"/>
      </g>
     </g>
     <g id="line2d_23">
      <g>
       <use style="stroke:#000000;stroke-width:0.5;" x="334.846808362" xlink:href="#m95f30c1742" y="3.0"/>
      </g>
     </g>
     <g id="text_5">
      <!-- 2 -->
      <g transform="translate(328.484308362 403.196875)scale(0.2 -0.2)">
       <use xlink:href="#BitstreamVeraSans-Roman-32"/>
      </g>
     </g>
    </g>
    <g id="xtick_7">
     <g id="line2d_24">
      <path clip-path="url(#p930c494d22)" d="M 401.244863 384 
L 401.244863 3 
" style="fill:none;stroke:#000000;stroke-dasharray:1.000000,3.000000;stroke-dashoffset:0.0;stroke-width:0.5;"/>
     </g>
     <g id="line2d_25">
      <g>
       <use style="stroke:#000000;stroke-width:0.5;" x="401.244863116" xlink:href="#mca1e1161f9" y="384.0"/>
      </g>
     </g>
     <g id="line2d_26">
      <g>
       <use style="stroke:#000000;stroke-width:0.5;" x="401.244863116" xlink:href="#m95f30c1742" y="3.0"/>
      </g>
     </g>
     <g id="text_6">
      <!-- 4 -->
      <g transform="translate(394.882363116 403.196875)scale(0.2 -0.2)">
       <use xlink:href="#BitstreamVeraSans-Roman-34"/>
      </g>
     </g>
    </g>
    <g id="xtick_8">
     <g id="line2d_27">
      <path clip-path="url(#p930c494d22)" d="M 467.642918 384 
L 467.642918 3 
" style="fill:none;stroke:#000000;stroke-dasharray:1.000000,3.000000;stroke-dashoffset:0.0;stroke-width:0.5;"/>
     </g>
     <g id="line2d_28">
      <g>
       <use style="stroke:#000000;stroke-width:0.5;" x="467.642917869" xlink:href="#mca1e1161f9" y="384.0"/>
      </g>
     </g>
     <g id="line2d_29">
      <g>
       <use style="stroke:#000000;stroke-width:0.5;" x="467.642917869" xlink:href="#m95f30c1742" y="3.0"/>
      </g>
     </g>
     <g id="text_7">
      <!-- 6 -->
      <g transform="translate(461.280417869 403.196875)scale(0.2 -0.2)">
       <use xlink:href="#BitstreamVeraSans-Roman-36"/>
      </g>
     </g>
    </g>
    <g id="xtick_9">
     <g id="line2d_30">
      <path clip-path="url(#p930c494d22)" d="M 534.040973 384 
L 534.040973 3 
" style="fill:none;stroke:#000000;stroke-dasharray:1.000000,3.000000;stroke-dashoffset:0.0;stroke-width:0.5;"/>
     </g>
     <g id="line2d_31">
      <g>
       <use style="stroke:#000000;stroke-width:0.5;" x="534.040972623" xlink:href="#mca1e1161f9" y="384.0"/>
      </g>
     </g>
     <g id="line2d_32">
      <g>
       <use style="stroke:#000000;stroke-width:0.5;" x="534.040972623" xlink:href="#m95f30c1742" y="3.0"/>
      </g>
     </g>
     <g id="text_8">
      <!-- 8 -->
      <defs>
       <path d="M 31.78125 34.625 
Q 24.75 34.625 20.71875 30.859375 
Q 16.703125 27.09375 16.703125 20.515625 
Q 16.703125 13.921875 20.71875 10.15625 
Q 24.75 6.390625 31.78125 6.390625 
Q 38.8125 6.390625 42.859375 10.171875 
Q 46.921875 13.96875 46.921875 20.515625 
Q 46.921875 27.09375 42.890625 30.859375 
Q 38.875 34.625 31.78125 34.625 
M 21.921875 38.8125 
Q 15.578125 40.375 12.03125 44.71875 
Q 8.5 49.078125 8.5 55.328125 
Q 8.5 64.0625 14.71875 69.140625 
Q 20.953125 74.21875 31.78125 74.21875 
Q 42.671875 74.21875 48.875 69.140625 
Q 55.078125 64.0625 55.078125 55.328125 
Q 55.078125 49.078125 51.53125 44.71875 
Q 48 40.375 41.703125 38.8125 
Q 48.828125 37.15625 52.796875 32.3125 
Q 56.78125 27.484375 56.78125 20.515625 
Q 56.78125 9.90625 50.3125 4.234375 
Q 43.84375 -1.421875 31.78125 -1.421875 
Q 19.734375 -1.421875 13.25 4.234375 
Q 6.78125 9.90625 6.78125 20.515625 
Q 6.78125 27.484375 10.78125 32.3125 
Q 14.796875 37.15625 21.921875 38.8125 
M 18.3125 54.390625 
Q 18.3125 48.734375 21.84375 45.5625 
Q 25.390625 42.390625 31.78125 42.390625 
Q 38.140625 42.390625 41.71875 45.5625 
Q 45.3125 48.734375 45.3125 54.390625 
Q 45.3125 60.0625 41.71875 63.234375 
Q 38.140625 66.40625 31.78125 66.40625 
Q 25.390625 66.40625 21.84375 63.234375 
Q 18.3125 60.0625 18.3125 54.390625 
" id="BitstreamVeraSans-Roman-38"/>
      </defs>
      <g transform="translate(527.678472623 403.196875)scale(0.2 -0.2)">
       <use xlink:href="#BitstreamVeraSans-Roman-38"/>
      </g>
     </g>
    </g>
    <g id="xtick_10"/>
    <g id="xtick_11">
     <g id="line2d_33">
      <defs>
       <path d="M 0 0 
L 0 -2 
" id="mea8e201dda" style="stroke:#000000;stroke-width:0.5;"/>
      </defs>
      <g>
       <use style="stroke:#000000;stroke-width:0.5;" x="69.2545893472" xlink:href="#mea8e201dda" y="384.0"/>
      </g>
     </g>
     <g id="line2d_34">
      <defs>
       <path d="M 0 0 
L 0 2 
" id="mf462ee6a44" style="stroke:#000000;stroke-width:0.5;"/>
      </defs>
      <g>
       <use style="stroke:#000000;stroke-width:0.5;" x="69.2545893472" xlink:href="#mf462ee6a44" y="3.0"/>
      </g>
     </g>
    </g>
    <g id="xtick_12">
     <g id="line2d_35">
      <g>
       <use style="stroke:#000000;stroke-width:0.5;" x="135.652644101" xlink:href="#mea8e201dda" y="384.0"/>
      </g>
     </g>
     <g id="line2d_36">
      <g>
       <use style="stroke:#000000;stroke-width:0.5;" x="135.652644101" xlink:href="#mf462ee6a44" y="3.0"/>
      </g>
     </g>
    </g>
    <g id="xtick_13">
     <g id="line2d_37">
      <g>
       <use style="stroke:#000000;stroke-width:0.5;" x="202.050698855" xlink:href="#mea8e201dda" y="384.0"/>
      </g>
     </g>
     <g id="line2d_38">
      <g>
       <use style="stroke:#000000;stroke-width:0.5;" x="202.050698855" xlink:href="#mf462ee6a44" y="3.0"/>
      </g>
     </g>
    </g>
    <g id="xtick_14">
     <g id="line2d_39">
      <g>
       <use style="stroke:#000000;stroke-width:0.5;" x="268.448753608" xlink:href="#mea8e201dda" y="384.0"/>
      </g>
     </g>
     <g id="line2d_40">
      <g>
       <use style="stroke:#000000;stroke-width:0.5;" x="268.448753608" xlink:href="#mf462ee6a44" y="3.0"/>
      </g>
     </g>
    </g>
    <g id="xtick_15">
     <g id="line2d_41">
      <g>
       <use style="stroke:#000000;stroke-width:0.5;" x="334.846808362" xlink:href="#mea8e201dda" y="384.0"/>
      </g>
     </g>
     <g id="line2d_42">
      <g>
       <use style="stroke:#000000;stroke-width:0.5;" x="334.846808362" xlink:href="#mf462ee6a44" y="3.0"/>
      </g>
     </g>
    </g>
    <g id="xtick_16">
     <g id="line2d_43">
      <g>
       <use style="stroke:#000000;stroke-width:0.5;" x="401.244863116" xlink:href="#mea8e201dda" y="384.0"/>
      </g>
     </g>
     <g id="line2d_44">
      <g>
       <use style="stroke:#000000;stroke-width:0.5;" x="401.244863116" xlink:href="#mf462ee6a44" y="3.0"/>
      </g>
     </g>
    </g>
    <g id="xtick_17">
     <g id="line2d_45">
      <g>
       <use style="stroke:#000000;stroke-width:0.5;" x="467.642917869" xlink:href="#mea8e201dda" y="384.0"/>
      </g>
     </g>
     <g id="line2d_46">
      <g>
       <use style="stroke:#000000;stroke-width:0.5;" x="467.642917869" xlink:href="#mf462ee6a44" y="3.0"/>
      </g>
     </g>
    </g>
    <g id="xtick_18">
     <g id="line2d_47">
      <g>
       <use style="stroke:#000000;stroke-width:0.5;" x="534.040972623" xlink:href="#mea8e201dda" y="384.0"/>
      </g>
     </g>
     <g id="line2d_48">
      <g>
       <use style="stroke:#000000;stroke-width:0.5;" x="534.040972623" xlink:href="#mf462ee6a44" y="3.0"/>
      </g>
     </g>
    </g>
    <g id="text_9">
     <!-- log10 of Df -->
     <defs>
      <path id="BitstreamVeraSans-Roman-20"/>
      <path d="M 12.40625 8.296875 
L 28.515625 8.296875 
L 28.515625 63.921875 
L 10.984375 60.40625 
L 10.984375 69.390625 
L 28.421875 72.90625 
L 38.28125 72.90625 
L 38.28125 8.296875 
L 54.390625 8.296875 
L 54.390625 0 
L 12.40625 0 
z
" id="BitstreamVeraSans-Roman-31"/>
      <path d="M 30.609375 48.390625 
Q 23.390625 48.390625 19.1875 42.75 
Q 14.984375 37.109375 14.984375 27.296875 
Q 14.984375 17.484375 19.15625 11.84375 
Q 23.34375 6.203125 30.609375 6.203125 
Q 37.796875 6.203125 41.984375 11.859375 
Q 46.1875 17.53125 46.1875 27.296875 
Q 46.1875 37.015625 41.984375 42.703125 
Q 37.796875 48.390625 30.609375 48.390625 
M 30.609375 56 
Q 42.328125 56 49.015625 48.375 
Q 55.71875 40.765625 55.71875 27.296875 
Q 55.71875 13.875 49.015625 6.21875 
Q 42.328125 -1.421875 30.609375 -1.421875 
Q 18.84375 -1.421875 12.171875 6.21875 
Q 5.515625 13.875 5.515625 27.296875 
Q 5.515625 40.765625 12.171875 48.375 
Q 18.84375 56 30.609375 56 
" id="BitstreamVeraSans-Roman-6f"/>
      <path d="M 9.421875 75.984375 
L 18.40625 75.984375 
L 18.40625 0 
L 9.421875 0 
z
" id="BitstreamVeraSans-Roman-6c"/>
      <path d="M 19.671875 64.796875 
L 19.671875 8.109375 
L 31.59375 8.109375 
Q 46.6875 8.109375 53.6875 14.9375 
Q 60.6875 21.78125 60.6875 36.53125 
Q 60.6875 51.171875 53.6875 57.984375 
Q 46.6875 64.796875 31.59375 64.796875 
z
M 9.8125 72.90625 
L 30.078125 72.90625 
Q 51.265625 72.90625 61.171875 64.09375 
Q 71.09375 55.28125 71.09375 36.53125 
Q 71.09375 17.671875 61.125 8.828125 
Q 51.171875 0 30.078125 0 
L 9.8125 0 
z
" id="BitstreamVeraSans-Roman-44"/>
      <path d="M 45.40625 27.984375 
Q 45.40625 37.75 41.375 43.109375 
Q 37.359375 48.484375 30.078125 48.484375 
Q 22.859375 48.484375 18.828125 43.109375 
Q 14.796875 37.75 14.796875 27.984375 
Q 14.796875 18.265625 18.828125 12.890625 
Q 22.859375 7.515625 30.078125 7.515625 
Q 37.359375 7.515625 41.375 12.890625 
Q 45.40625 18.265625 45.40625 27.984375 
M 54.390625 6.78125 
Q 54.390625 -7.171875 48.1875 -13.984375 
Q 42 -20.796875 29.203125 -20.796875 
Q 24.46875 -20.796875 20.265625 -20.09375 
Q 16.0625 -19.390625 12.109375 -17.921875 
L 12.109375 -9.1875 
Q 16.0625 -11.328125 19.921875 -12.34375 
Q 23.78125 -13.375 27.78125 -13.375 
Q 36.625 -13.375 41.015625 -8.765625 
Q 45.40625 -4.15625 45.40625 5.171875 
L 45.40625 9.625 
Q 42.625 4.78125 38.28125 2.390625 
Q 33.9375 0 27.875 0 
Q 17.828125 0 11.671875 7.65625 
Q 5.515625 15.328125 5.515625 27.984375 
Q 5.515625 40.671875 11.671875 48.328125 
Q 17.828125 56 27.875 56 
Q 33.9375 56 38.28125 53.609375 
Q 42.625 51.21875 45.40625 46.390625 
L 45.40625 54.6875 
L 54.390625 54.6875 
z
" id="BitstreamVeraSans-Roman-67"/>
      <path d="M 37.109375 75.984375 
L 37.109375 68.5 
L 28.515625 68.5 
Q 23.6875 68.5 21.796875 66.546875 
Q 19.921875 64.59375 19.921875 59.515625 
L 19.921875 54.6875 
L 34.71875 54.6875 
L 34.71875 47.703125 
L 19.921875 47.703125 
L 19.921875 0 
L 10.890625 0 
L 10.890625 47.703125 
L 2.296875 47.703125 
L 2.296875 54.6875 
L 10.890625 54.6875 
L 10.890625 58.5 
Q 10.890625 67.625 15.140625 71.796875 
Q 19.390625 75.984375 28.609375 75.984375 
z
" id="BitstreamVeraSans-Roman-66"/>
     </defs>
     <g transform="translate(229.9340625 427.553125)scale(0.2 -0.2)">
      <use xlink:href="#BitstreamVeraSans-Roman-6c"/>
      <use x="27.783203125" xlink:href="#BitstreamVeraSans-Roman-6f"/>
      <use x="88.96484375" xlink:href="#BitstreamVeraSans-Roman-67"/>
      <use x="152.44140625" xlink:href="#BitstreamVeraSans-Roman-31"/>
      <use x="216.064453125" xlink:href="#BitstreamVeraSans-Roman-30"/>
      <use x="279.6875" xlink:href="#BitstreamVeraSans-Roman-20"/>
      <use x="311.474609375" xlink:href="#BitstreamVeraSans-Roman-6f"/>
      <use x="372.65625" xlink:href="#BitstreamVeraSans-Roman-66"/>
      <use x="407.861328125" xlink:href="#BitstreamVeraSans-Roman-20"/>
      <use x="439.6484375" xlink:href="#BitstreamVeraSans-Roman-44"/>
      <use x="516.650390625" xlink:href="#BitstreamVeraSans-Roman-66"/>
     </g>
    </g>
   </g>
   <g id="matplotlib.axis_2">
    <g id="ytick_1">
     <g id="line2d_49">
      <path clip-path="url(#p930c494d22)" d="M 3 384 
L 567.24 384 
" style="fill:none;stroke:#000000;stroke-dasharray:1.000000,3.000000;stroke-dashoffset:0.0;stroke-width:0.5;"/>
     </g>
     <g id="line2d_50">
      <defs>
       <path d="M 0 0 
L 4 0 
" id="mc3a82b9c26" style="stroke:#000000;stroke-width:0.5;"/>
      </defs>
      <g>
       <use style="stroke:#000000;stroke-width:0.5;" x="3.0" xlink:href="#mc3a82b9c26" y="384.0"/>
      </g>
     </g>
     <g id="line2d_51">
      <defs>
       <path d="M 0 0 
L -4 0 
" id="md120da5ade" style="stroke:#000000;stroke-width:0.5;"/>
      </defs>
      <g>
       <use style="stroke:#000000;stroke-width:0.5;" x="567.24" xlink:href="#md120da5ade" y="384.0"/>
      </g>
     </g>
    </g>
    <g id="ytick_2">
     <g id="line2d_52">
      <path clip-path="url(#p930c494d22)" d="M 3 308.554455 
L 567.24 308.554455 
" style="fill:none;stroke:#000000;stroke-dasharray:1.000000,3.000000;stroke-dashoffset:0.0;stroke-width:0.5;"/>
     </g>
     <g id="line2d_53">
      <g>
       <use style="stroke:#000000;stroke-width:0.5;" x="3.0" xlink:href="#mc3a82b9c26" y="308.554455446"/>
      </g>
     </g>
     <g id="line2d_54">
      <g>
       <use style="stroke:#000000;stroke-width:0.5;" x="567.24" xlink:href="#md120da5ade" y="308.554455446"/>
      </g>
     </g>
    </g>
    <g id="ytick_3">
     <g id="line2d_55">
      <path clip-path="url(#p930c494d22)" d="M 3 233.108911 
L 567.24 233.108911 
" style="fill:none;stroke:#000000;stroke-dasharray:1.000000,3.000000;stroke-dashoffset:0.0;stroke-width:0.5;"/>
     </g>
     <g id="line2d_56">
      <g>
       <use style="stroke:#000000;stroke-width:0.5;" x="3.0" xlink:href="#mc3a82b9c26" y="233.108910891"/>
      </g>
     </g>
     <g id="line2d_57">
      <g>
       <use style="stroke:#000000;stroke-width:0.5;" x="567.24" xlink:href="#md120da5ade" y="233.108910891"/>
      </g>
     </g>
    </g>
    <g id="ytick_4">
     <g id="line2d_58">
      <path clip-path="url(#p930c494d22)" d="M 3 157.663366 
L 567.24 157.663366 
" style="fill:none;stroke:#000000;stroke-dasharray:1.000000,3.000000;stroke-dashoffset:0.0;stroke-width:0.5;"/>
     </g>
     <g id="line2d_59">
      <g>
       <use style="stroke:#000000;stroke-width:0.5;" x="3.0" xlink:href="#mc3a82b9c26" y="157.663366337"/>
      </g>
     </g>
     <g id="line2d_60">
      <g>
       <use style="stroke:#000000;stroke-width:0.5;" x="567.24" xlink:href="#md120da5ade" y="157.663366337"/>
      </g>
     </g>
    </g>
    <g id="ytick_5">
     <g id="line2d_61">
      <path clip-path="url(#p930c494d22)" d="M 3 82.217822 
L 567.24 82.217822 
" style="fill:none;stroke:#000000;stroke-dasharray:1.000000,3.000000;stroke-dashoffset:0.0;stroke-width:0.5;"/>
     </g>
     <g id="line2d_62">
      <g>
       <use style="stroke:#000000;stroke-width:0.5;" x="3.0" xlink:href="#mc3a82b9c26" y="82.2178217822"/>
      </g>
     </g>
     <g id="line2d_63">
      <g>
       <use style="stroke:#000000;stroke-width:0.5;" x="567.24" xlink:href="#md120da5ade" y="82.2178217822"/>
      </g>
     </g>
    </g>
    <g id="ytick_6">
     <g id="line2d_64">
      <path clip-path="url(#p930c494d22)" d="M 3 6.772277 
L 567.24 6.772277 
" style="fill:none;stroke:#000000;stroke-dasharray:1.000000,3.000000;stroke-dashoffset:0.0;stroke-width:0.5;"/>
     </g>
     <g id="line2d_65">
      <g>
       <use style="stroke:#000000;stroke-width:0.5;" x="3.0" xlink:href="#mc3a82b9c26" y="6.77227722772"/>
      </g>
     </g>
     <g id="line2d_66">
      <g>
       <use style="stroke:#000000;stroke-width:0.5;" x="567.24" xlink:href="#md120da5ade" y="6.77227722772"/>
      </g>
     </g>
    </g>
   </g>
   <g id="text_10">
    <!-- {f10-f14}, 5-D -->
    <defs>
     <path d="M 12.5 -9.28125 
L 15.921875 -9.28125 
Q 22.75 -9.28125 24.828125 -7.171875 
Q 26.90625 -5.078125 26.90625 1.90625 
L 26.90625 14.015625 
Q 26.90625 21.625 29.09375 25.09375 
Q 31.296875 28.5625 36.71875 29.890625 
Q 31.296875 31.109375 29.09375 34.5625 
Q 26.90625 38.03125 26.90625 45.703125 
L 26.90625 57.8125 
Q 26.90625 64.75 24.828125 66.875 
Q 22.75 69 15.921875 69 
L 12.5 69 
L 12.5 75.984375 
L 15.578125 75.984375 
Q 27.734375 75.984375 31.8125 72.390625 
Q 35.890625 68.796875 35.890625 58.015625 
L 35.890625 46.296875 
Q 35.890625 39.015625 38.515625 36.203125 
Q 41.15625 33.40625 48.09375 33.40625 
L 51.125 33.40625 
L 51.125 26.421875 
L 48.09375 26.421875 
Q 41.15625 26.421875 38.515625 23.578125 
Q 35.890625 20.75 35.890625 13.375 
L 35.890625 1.703125 
Q 35.890625 -9.078125 31.8125 -12.6875 
Q 27.734375 -16.3125 15.578125 -16.3125 
L 12.5 -16.3125 
z
" id="BitstreamVeraSans-Roman-7d"/>
     <path d="M 51.125 -9.28125 
L 51.125 -16.3125 
L 48.09375 -16.3125 
Q 35.9375 -16.3125 31.8125 -12.6875 
Q 27.6875 -9.078125 27.6875 1.703125 
L 27.6875 13.375 
Q 27.6875 20.75 25.046875 23.578125 
Q 22.40625 26.421875 15.484375 26.421875 
L 12.5 26.421875 
L 12.5 33.40625 
L 15.484375 33.40625 
Q 22.46875 33.40625 25.078125 36.203125 
Q 27.6875 39.015625 27.6875 46.296875 
L 27.6875 58.015625 
Q 27.6875 68.796875 31.8125 72.390625 
Q 35.9375 75.984375 48.09375 75.984375 
L 51.125 75.984375 
L 51.125 69 
L 47.796875 69 
Q 40.921875 69 38.8125 66.84375 
Q 36.71875 64.703125 36.71875 57.8125 
L 36.71875 45.703125 
Q 36.71875 38.03125 34.5 34.5625 
Q 32.28125 31.109375 26.90625 29.890625 
Q 32.328125 28.5625 34.515625 25.09375 
Q 36.71875 21.625 36.71875 14.015625 
L 36.71875 1.90625 
Q 36.71875 -4.984375 38.8125 -7.125 
Q 40.921875 -9.28125 47.796875 -9.28125 
z
" id="BitstreamVeraSans-Roman-7b"/>
     <path d="M 11.71875 12.40625 
L 22.015625 12.40625 
L 22.015625 4 
L 14.015625 -11.625 
L 7.71875 -11.625 
L 11.71875 4 
z
" id="BitstreamVeraSans-Roman-2c"/>
     <path d="M 10.796875 72.90625 
L 49.515625 72.90625 
L 49.515625 64.59375 
L 19.828125 64.59375 
L 19.828125 46.734375 
Q 21.96875 47.46875 24.109375 47.828125 
Q 26.265625 48.1875 28.421875 48.1875 
Q 40.625 48.1875 47.75 41.5 
Q 54.890625 34.8125 54.890625 23.390625 
Q 54.890625 11.625 47.5625 5.09375 
Q 40.234375 -1.421875 26.90625 -1.421875 
Q 22.3125 -1.421875 17.546875 -0.640625 
Q 12.796875 0.140625 7.71875 1.703125 
L 7.71875 11.625 
Q 12.109375 9.234375 16.796875 8.0625 
Q 21.484375 6.890625 26.703125 6.890625 
Q 35.15625 6.890625 40.078125 11.328125 
Q 45.015625 15.765625 45.015625 23.390625 
Q 45.015625 31 40.078125 35.4375 
Q 35.15625 39.890625 26.703125 39.890625 
Q 22.75 39.890625 18.8125 39.015625 
Q 14.890625 38.140625 10.796875 36.28125 
z
" id="BitstreamVeraSans-Roman-35"/>
    </defs>
    <g transform="translate(410.2552 376.38)scale(0.2 -0.2)">
     <use xlink:href="#BitstreamVeraSans-Roman-7b"/>
     <use x="63.623046875" xlink:href="#BitstreamVeraSans-Roman-66"/>
     <use x="98.828125" xlink:href="#BitstreamVeraSans-Roman-31"/>
     <use x="162.451171875" xlink:href="#BitstreamVeraSans-Roman-30"/>
     <use x="226.07421875" xlink:href="#BitstreamVeraSans-Roman-2d"/>
     <use x="262.158203125" xlink:href="#BitstreamVeraSans-Roman-66"/>
     <use x="297.36328125" xlink:href="#BitstreamVeraSans-Roman-31"/>
     <use x="360.986328125" xlink:href="#BitstreamVeraSans-Roman-34"/>
     <use x="424.609375" xlink:href="#BitstreamVeraSans-Roman-7d"/>
     <use x="488.232421875" xlink:href="#BitstreamVeraSans-Roman-2c"/>
     <use x="520.01953125" xlink:href="#BitstreamVeraSans-Roman-20"/>
     <use x="551.806640625" xlink:href="#BitstreamVeraSans-Roman-35"/>
     <use x="615.4296875" xlink:href="#BitstreamVeraSans-Roman-2d"/>
     <use x="651.513671875" xlink:href="#BitstreamVeraSans-Roman-44"/>
    </g>
   </g>
   <g id="text_11">
    <!-- v2.2.1.10 -->
    <defs>
     <path d="M 2.984375 54.6875 
L 12.5 54.6875 
L 29.59375 8.796875 
L 46.6875 54.6875 
L 56.203125 54.6875 
L 35.6875 0 
L 23.484375 0 
z
" id="BitstreamVeraSans-Roman-76"/>
     <path d="M 10.6875 12.40625 
L 21 12.40625 
L 21 0 
L 10.6875 0 
z
" id="BitstreamVeraSans-Roman-2e"/>
    </defs>
    <g style="fill:#808080;" transform="translate(261.4871875 378.1103125)scale(0.1 -0.1)">
     <use xlink:href="#BitstreamVeraSans-Roman-76"/>
     <use x="59.1796875" xlink:href="#BitstreamVeraSans-Roman-32"/>
     <use x="122.802734375" xlink:href="#BitstreamVeraSans-Roman-2e"/>
     <use x="154.58984375" xlink:href="#BitstreamVeraSans-Roman-32"/>
     <use x="218.212890625" xlink:href="#BitstreamVeraSans-Roman-2e"/>
     <use x="250.0" xlink:href="#BitstreamVeraSans-Roman-31"/>
     <use x="313.623046875" xlink:href="#BitstreamVeraSans-Roman-2e"/>
     <use x="345.41015625" xlink:href="#BitstreamVeraSans-Roman-31"/>
     <use x="409.033203125" xlink:href="#BitstreamVeraSans-Roman-30"/>
    </g>
   </g>
  </g>
 </g>
 <defs>
  <clipPath id="p930c494d22">
   <rect height="381.0" width="564.24" x="3.0" y="3.0"/>
  </clipPath>
 </defs>
</svg>
