<?xml version="1.0" encoding="utf-8" standalone="no"?>
<!DOCTYPE svg PUBLIC "-//W3C//DTD SVG 1.1//EN"
  "http://www.w3.org/Graphics/SVG/1.1/DTD/svg11.dtd">
<!-- Created with matplotlib (http://matplotlib.org/) -->
<svg height="432pt" version="1.1" viewBox="0 0 576 432" width="576pt" xmlns="http://www.w3.org/2000/svg" xmlns:xlink="http://www.w3.org/1999/xlink">
 <defs>
  <style type="text/css">
*{stroke-linecap:butt;stroke-linejoin:round;stroke-miterlimit:100000;}
  </style>
 </defs>
 <g id="figure_1">
  <g id="patch_1">
   <path d="M 0 432 
L 576 432 
L 576 0 
L 0 0 
z
" style="fill:#ffffff;"/>
  </g>
  <g id="axes_1">
   <g id="patch_2">
    <path d="M 3 384 
L 567.24 384 
L 567.24 3 
L 3 3 
z
" style="fill:#ffffff;"/>
   </g>
   <g id="line2d_1">
    <path clip-path="url(#p10b5db0f6a)" d="M 248.482486 384 
L 248.482486 378.970297 
L 248.482486 378.970297 
L 248.482486 378.970297 
L 248.482486 373.940594 
L 248.482486 373.940594 
L 248.482486 373.940594 
L 248.482486 368.910891 
L 248.482486 368.910891 
L 248.482486 368.910891 
L 248.482486 363.881188 
L 248.482486 363.881188 
L 248.482486 363.881188 
L 248.482486 358.851485 
L 248.482486 358.851485 
L 248.482486 358.851485 
L 248.482486 353.821782 
L 248.482486 353.821782 
L 248.482486 353.821782 
L 248.482486 348.792079 
L 248.482486 348.792079 
L 248.482486 348.792079 
L 248.482486 343.762376 
L 248.482486 343.762376 
L 248.482486 343.762376 
L 248.482486 338.732673 
L 248.482486 338.732673 
L 248.482486 338.732673 
L 248.482486 333.70297 
L 248.482486 333.70297 
L 248.482486 333.70297 
L 248.482486 328.673267 
L 248.482486 328.673267 
L 248.482486 328.673267 
L 248.482486 323.643564 
L 248.482486 323.643564 
L 248.482486 323.643564 
L 248.482486 318.613861 
L 248.482486 318.613861 
L 248.482486 318.613861 
L 248.482486 313.584158 
L 248.482486 313.584158 
L 248.482486 313.584158 
L 248.482486 308.554455 
L 268.103024 308.554455 
L 268.103024 303.524752 
L 268.28465 303.524752 
L 268.28465 298.49505 
L 271.750084 298.49505 
L 271.750084 293.465347 
L 271.868961 293.465347 
L 271.868961 288.435644 
L 272.460689 288.435644 
L 272.460689 283.405941 
L 273.535377 283.405941 
L 273.535377 278.376238 
L 274.710139 278.376238 
L 274.710139 273.346535 
L 275.920249 273.346535 
L 275.920249 268.316832 
L 276.359817 268.316832 
L 276.359817 263.287129 
L 276.626437 263.287129 
L 276.721127 253.227723 
L 276.776887 253.227723 
L 276.875417 243.168317 
L 277.216401 243.168317 
L 277.216401 238.138614 
L 278.445391 238.138614 
L 278.445391 233.108911 
L 279.177156 233.108911 
L 279.177156 228.079208 
L 280.56815 228.079208 
L 280.56815 223.049505 
L 281.357977 223.049505 
L 281.39559 212.990099 
L 281.595858 212.990099 
L 281.595858 207.960396 
L 281.800696 207.960396 
L 281.800696 202.930693 
L 283.194114 202.930693 
L 283.194114 197.90099 
L 285.327018 197.90099 
L 285.327018 192.871287 
L 286.437832 192.871287 
L 286.45857 182.811881 
L 287.228437 182.811881 
L 287.228437 177.782178 
L 289.091436 177.782178 
L 289.091436 172.752475 
L 289.556541 172.752475 
L 289.556541 167.722772 
L 289.92497 167.722772 
L 290.006328 157.663366 
L 292.409918 157.663366 
L 292.409918 152.633663 
L 292.872772 152.633663 
L 292.872772 147.60396 
L 293.521759 147.60396 
L 293.521759 142.574257 
L 294.472754 142.574257 
L 294.510095 132.514851 
L 294.648485 132.514851 
L 294.677963 122.455446 
L 295.061655 122.455446 
L 295.061655 117.425743 
L 295.686369 117.425743 
L 295.782879 107.366337 
L 296.241107 107.366337 
L 296.241107 102.336634 
L 299.233021 102.336634 
L 299.301185 92.277228 
L 300.265568 92.277228 
L 300.265568 87.247525 
L 302.622749 87.247525 
L 302.622749 82.217822 
L 306.216787 82.217822 
L 306.216787 77.188119 
L 310.125339 77.188119 
L 310.125339 72.158416 
L 311.706427 72.158416 
L 311.706427 67.128713 
L 312.585067 67.128713 
L 312.585067 62.09901 
L 312.877539 62.09901 
L 312.877539 57.069307 
L 313.168082 57.069307 
L 313.241549 47.009901 
L 313.514172 47.009901 
L 313.514172 41.980198 
L 314.114232 41.980198 
L 314.114232 36.950495 
L 314.251082 36.950495 
L 314.251082 31.920792 
L 314.962953 31.920792 
L 314.962953 26.891089 
L 315.51361 26.891089 
L 315.51361 21.861386 
L 315.780679 21.861386 
L 315.780679 16.831683 
L 318.153436 16.831683 
L 318.22548 6.772277 
L 318.22548 6.772277 
L 567.24 6.772277 
L 567.24 6.772277 
" style="fill:none;stroke:#ff0000;stroke-linecap:square;stroke-width:3.0;"/>
   </g>
   <g id="line2d_2">
    <path clip-path="url(#p10b5db0f6a)" d="M 248.482486 384 
L 248.482486 378.970297 
L 248.482486 378.970297 
L 248.482486 378.970297 
L 248.482486 373.940594 
L 248.482486 373.940594 
L 248.482486 373.940594 
L 248.482486 368.910891 
L 248.482486 368.910891 
L 248.482486 368.910891 
L 248.482486 363.881188 
L 248.482486 363.881188 
L 248.482486 363.881188 
L 248.482486 358.851485 
L 248.482486 358.851485 
L 248.482486 358.851485 
L 248.482486 353.821782 
L 248.482486 353.821782 
L 248.482486 353.821782 
L 248.482486 348.792079 
L 248.482486 348.792079 
L 248.482486 348.792079 
L 248.482486 343.762376 
L 248.482486 343.762376 
L 248.482486 343.762376 
L 248.482486 338.732673 
L 248.482486 338.732673 
L 248.482486 338.732673 
L 248.482486 333.70297 
L 248.482486 333.70297 
L 248.482486 333.70297 
L 248.482486 328.673267 
L 248.482486 328.673267 
L 248.482486 328.673267 
L 248.482486 323.643564 
L 248.482486 323.643564 
L 248.482486 323.643564 
L 248.482486 318.613861 
L 248.482486 318.613861 
L 248.482486 318.613861 
L 248.482486 313.584158 
L 248.482486 313.584158 
L 248.482486 313.584158 
L 248.482486 308.554455 
L 297.603537 308.554455 
L 297.603537 303.524752 
L 298.725216 303.524752 
L 298.725216 298.49505 
L 301.178329 298.49505 
L 301.178329 293.465347 
L 304.056646 293.465347 
L 304.056646 288.435644 
L 304.925783 288.435644 
L 304.925783 283.405941 
L 307.855532 283.405941 
L 307.855532 278.376238 
L 308.70294 278.376238 
L 308.70294 273.346535 
L 309.204036 273.346535 
L 309.204036 268.316832 
L 310.015417 268.316832 
L 310.015417 263.287129 
L 310.77325 263.287129 
L 310.786203 253.227723 
L 314.853365 253.227723 
L 314.853365 248.19802 
L 315.288056 248.19802 
L 315.288056 243.168317 
L 315.800595 243.168317 
L 315.800595 238.138614 
L 318.14125 238.138614 
L 318.14125 233.108911 
L 318.278748 233.108911 
L 318.278748 228.079208 
L 318.965958 228.079208 
L 318.965958 223.049505 
L 320.213981 223.049505 
L 320.213981 218.019802 
L 320.753168 218.019802 
L 320.753168 212.990099 
L 321.674104 212.990099 
L 321.674104 207.960396 
L 322.566506 207.960396 
L 322.566506 202.930693 
L 323.06189 202.930693 
L 323.071858 192.871287 
L 323.256896 192.871287 
L 323.256896 187.841584 
L 323.404833 187.841584 
L 323.404833 182.811881 
L 326.625067 182.811881 
L 326.625067 177.782178 
L 328.530807 177.782178 
L 328.530999 167.722772 
L 328.944866 167.722772 
L 328.944866 162.693069 
L 329.156335 162.693069 
L 329.156335 157.663366 
L 329.494157 157.663366 
L 329.494157 152.633663 
L 329.968724 152.633663 
L 329.968724 147.60396 
L 331.076537 147.60396 
L 331.076537 142.574257 
L 331.578853 142.574257 
L 331.578853 137.544554 
L 331.973268 137.544554 
L 331.973268 132.514851 
L 332.840008 132.514851 
L 332.840008 127.485149 
L 333.082776 127.485149 
L 333.155852 117.425743 
L 334.092165 117.425743 
L 334.092165 112.39604 
L 334.923725 112.39604 
L 334.923725 107.366337 
L 335.289868 107.366337 
L 335.289868 102.336634 
L 336.200281 102.336634 
L 336.200281 97.306931 
L 337.20932 97.306931 
L 337.259627 87.247525 
L 338.105472 87.247525 
L 338.105472 82.217822 
L 338.48942 82.217822 
L 338.48942 77.188119 
L 338.858436 77.188119 
L 338.858436 72.158416 
L 339.917051 72.158416 
L 339.917051 67.128713 
L 340.048791 67.128713 
L 340.048791 62.09901 
L 340.27084 62.09901 
L 340.27084 57.069307 
L 340.437898 57.069307 
L 340.437898 52.039604 
L 340.708773 52.039604 
L 340.799763 41.980198 
L 340.88877 41.980198 
L 340.88877 36.950495 
L 342.371817 36.950495 
L 342.371817 31.920792 
L 342.596132 31.920792 
L 342.596132 26.891089 
L 342.939423 26.891089 
L 342.939423 21.861386 
L 344.120471 21.861386 
L 344.144332 11.80198 
L 354.22085 11.80198 
L 354.22085 6.772277 
L 354.22085 6.772277 
L 567.24 6.772277 
L 567.24 6.772277 
" style="fill:none;stroke:#00bfbf;stroke-linecap:square;"/>
   </g>
   <g id="line2d_3">
    <path clip-path="url(#p10b5db0f6a)" d="M 248.482486 384 
L 248.482486 378.970297 
L 248.482486 378.970297 
L 248.482486 378.970297 
L 248.482486 373.940594 
L 248.482486 373.940594 
L 248.482486 373.940594 
L 248.482486 368.910891 
L 248.482486 368.910891 
L 248.482486 368.910891 
L 248.482486 363.881188 
L 248.482486 363.881188 
L 248.482486 363.881188 
L 248.482486 358.851485 
L 248.482486 358.851485 
L 248.482486 358.851485 
L 248.482486 353.821782 
L 248.482486 353.821782 
L 248.482486 353.821782 
L 248.482486 348.792079 
L 248.482486 348.792079 
L 248.482486 348.792079 
L 248.482486 343.762376 
L 248.482486 343.762376 
L 248.482486 343.762376 
L 248.482486 338.732673 
L 248.482486 338.732673 
L 248.482486 338.732673 
L 248.482486 333.70297 
L 248.482486 333.70297 
L 248.482486 333.70297 
L 248.482486 328.673267 
L 248.482486 328.673267 
L 248.482486 328.673267 
L 248.482486 323.643564 
L 248.482486 323.643564 
L 248.482486 323.643564 
L 248.482486 318.613861 
L 248.482486 318.613861 
L 248.482486 318.613861 
L 248.482486 313.584158 
L 248.482486 313.584158 
L 248.482486 313.584158 
L 248.482486 308.554455 
L 295.515093 308.554455 
L 295.515093 303.524752 
L 296.930079 303.524752 
L 296.930079 298.49505 
L 297.603537 298.49505 
L 297.603537 293.465347 
L 301.178329 293.465347 
L 301.178329 288.435644 
L 302.209195 288.435644 
L 302.209195 283.405941 
L 302.320337 283.405941 
L 302.320337 278.376238 
L 303.258815 278.376238 
L 303.295794 268.316832 
L 304.056646 268.316832 
L 304.056646 263.287129 
L 304.925783 263.287129 
L 304.925783 258.257426 
L 305.157984 258.257426 
L 305.157984 253.227723 
L 305.404623 253.227723 
L 305.404623 248.19802 
L 305.809007 248.19802 
L 305.809007 243.168317 
L 307.290591 243.168317 
L 307.290591 238.138614 
L 308.544421 238.138614 
L 308.544421 233.108911 
L 309.4275 233.108911 
L 309.4275 228.079208 
L 310.015417 228.079208 
L 310.015417 223.049505 
L 310.431535 223.049505 
L 310.431535 218.019802 
L 313.322406 218.019802 
L 313.378232 207.960396 
L 313.658657 207.960396 
L 313.658657 202.930693 
L 314.344602 202.930693 
L 314.344602 197.90099 
L 315.288056 197.90099 
L 315.288056 192.871287 
L 317.26897 192.871287 
L 317.26897 187.841584 
L 318.14125 187.841584 
L 318.14125 182.811881 
L 318.452499 182.811881 
L 318.452499 177.782178 
L 319.344101 177.782178 
L 319.344101 172.752475 
L 319.486495 172.752475 
L 319.588067 162.693069 
L 320.012213 162.693069 
L 320.012213 157.663366 
L 320.301834 157.663366 
L 320.301834 152.633663 
L 320.753168 152.633663 
L 320.753168 147.60396 
L 321.093056 147.60396 
L 321.093056 142.574257 
L 321.682965 142.574257 
L 321.682965 137.544554 
L 322.566506 137.544554 
L 322.566506 132.514851 
L 323.033727 132.514851 
L 323.033727 127.485149 
L 323.404833 127.485149 
L 323.404833 122.455446 
L 324.248698 122.455446 
L 324.248698 117.425743 
L 324.480619 117.425743 
L 324.583187 107.366337 
L 326.099228 107.366337 
L 326.099228 102.336634 
L 328.075807 102.336634 
L 328.075807 97.306931 
L 328.530999 97.306931 
L 328.530999 92.277228 
L 328.708186 92.277228 
L 328.708186 87.247525 
L 330.181884 87.247525 
L 330.181884 82.217822 
L 331.076537 82.217822 
L 331.076537 77.188119 
L 332.944496 77.188119 
L 332.944496 72.158416 
L 334.926321 72.158416 
L 334.926321 67.128713 
L 338.105472 67.128713 
L 338.105472 62.09901 
L 338.858436 62.09901 
L 338.858436 57.069307 
L 339.235153 57.069307 
L 339.235153 52.039604 
L 340.048791 52.039604 
L 340.048791 47.009901 
L 340.277805 47.009901 
L 340.277805 41.980198 
L 340.437898 41.980198 
L 340.503104 31.920792 
L 340.625086 31.920792 
L 340.625086 26.891089 
L 340.799763 26.891089 
L 340.799763 21.861386 
L 342.596132 21.861386 
L 342.596132 16.831683 
L 344.120471 16.831683 
L 344.120471 11.80198 
L 354.22085 11.80198 
L 354.22085 6.772277 
L 354.22085 6.772277 
L 567.24 6.772277 
L 567.24 6.772277 
" style="fill:none;stroke:#bf00bf;stroke-linecap:square;"/>
   </g>
   <g id="line2d_4">
    <path clip-path="url(#p10b5db0f6a)" d="M 248.482486 384 
L 248.482486 378.970297 
L 248.482486 378.970297 
L 248.482486 378.970297 
L 248.482486 373.940594 
L 248.482486 373.940594 
L 248.482486 373.940594 
L 248.482486 368.910891 
L 248.482486 368.910891 
L 248.482486 368.910891 
L 248.482486 363.881188 
L 248.482486 363.881188 
L 248.482486 363.881188 
L 248.482486 358.851485 
L 248.482486 358.851485 
L 248.482486 358.851485 
L 248.482486 353.821782 
L 248.482486 353.821782 
L 248.482486 353.821782 
L 248.482486 348.792079 
L 248.482486 348.792079 
L 248.482486 348.792079 
L 248.482486 343.762376 
L 248.482486 343.762376 
L 248.482486 343.762376 
L 248.482486 338.732673 
L 248.482486 338.732673 
L 248.482486 338.732673 
L 248.482486 333.70297 
L 248.482486 333.70297 
L 248.482486 333.70297 
L 248.482486 328.673267 
L 248.482486 328.673267 
L 248.482486 328.673267 
L 248.482486 323.643564 
L 248.482486 323.643564 
L 248.482486 323.643564 
L 248.482486 318.613861 
L 248.482486 318.613861 
L 248.482486 318.613861 
L 248.482486 313.584158 
L 248.482486 313.584158 
L 248.482486 313.584158 
L 248.482486 308.554455 
L 288.588467 308.554455 
L 288.588467 303.524752 
L 293.337693 303.524752 
L 293.337693 298.49505 
L 294.772827 298.49505 
L 294.772827 293.465347 
L 295.515093 293.465347 
L 295.515093 288.435644 
L 296.205431 288.435644 
L 296.205431 283.405941 
L 296.906958 283.405941 
L 296.930079 273.346535 
L 297.603537 273.346535 
L 297.603537 268.316832 
L 299.890274 268.316832 
L 299.890274 263.287129 
L 300.507959 263.287129 
L 300.507959 258.257426 
L 302.184202 258.257426 
L 302.209195 248.19802 
L 303.258815 248.19802 
L 303.295794 238.138614 
L 305.404623 238.138614 
L 305.404623 233.108911 
L 305.809007 233.108911 
L 305.809007 228.079208 
L 306.29657 228.079208 
L 306.29657 223.049505 
L 308.544421 223.049505 
L 308.544421 218.019802 
L 309.4275 218.019802 
L 309.4275 212.990099 
L 310.015417 212.990099 
L 310.015417 207.960396 
L 310.431535 207.960396 
L 310.431535 202.930693 
L 313.022285 202.930693 
L 313.022285 197.90099 
L 313.322406 197.90099 
L 313.378232 187.841584 
L 313.892621 187.841584 
L 313.892621 182.811881 
L 314.91666 182.811881 
L 314.91666 177.782178 
L 315.288056 177.782178 
L 315.288056 172.752475 
L 315.807833 172.752475 
L 315.807833 167.722772 
L 316.409792 167.722772 
L 316.409792 162.693069 
L 317.199704 162.693069 
L 317.26897 152.633663 
L 318.501382 152.633663 
L 318.501382 147.60396 
L 319.255416 147.60396 
L 319.344101 137.544554 
L 319.475241 137.544554 
L 319.486495 127.485149 
L 319.588067 127.485149 
L 319.588067 122.455446 
L 320.753168 122.455446 
L 320.753168 117.425743 
L 321.682965 117.425743 
L 321.682965 112.39604 
L 322.643679 112.39604 
L 322.643679 107.366337 
L 323.26209 107.366337 
L 323.26209 102.336634 
L 323.435824 102.336634 
L 323.435824 97.306931 
L 324.480619 97.306931 
L 324.480619 92.277228 
L 328.075807 92.277228 
L 328.075807 87.247525 
L 328.530999 87.247525 
L 328.530999 82.217822 
L 330.181884 82.217822 
L 330.181884 77.188119 
L 331.076537 77.188119 
L 331.076537 72.158416 
L 331.602207 72.158416 
L 331.602207 67.128713 
L 334.837387 67.128713 
L 334.926321 57.069307 
L 336.333273 57.069307 
L 336.333273 52.039604 
L 336.986022 52.039604 
L 337.064631 41.980198 
L 337.108807 41.980198 
L 337.108807 36.950495 
L 338.521891 36.950495 
L 338.612271 26.891089 
L 338.858436 26.891089 
L 338.858436 21.861386 
L 339.755465 21.861386 
L 339.755465 16.831683 
L 340.503104 16.831683 
L 340.503104 11.80198 
L 342.596132 11.80198 
L 342.596132 6.772277 
L 342.596132 6.772277 
L 567.24 6.772277 
L 567.24 6.772277 
" style="fill:none;stroke:#000000;stroke-linecap:square;"/>
   </g>
   <g id="line2d_5">
    <path clip-path="url(#p10b5db0f6a)" d="M 248.482486 384 
L 248.482486 378.970297 
L 248.482486 378.970297 
L 248.482486 378.970297 
L 248.482486 373.940594 
L 248.482486 373.940594 
L 248.482486 373.940594 
L 248.482486 368.910891 
L 248.482486 368.910891 
L 248.482486 368.910891 
L 248.482486 363.881188 
L 248.482486 363.881188 
L 248.482486 363.881188 
L 248.482486 358.851485 
L 248.482486 358.851485 
L 248.482486 358.851485 
L 248.482486 353.821782 
L 248.482486 353.821782 
L 248.482486 353.821782 
L 248.482486 348.792079 
L 248.482486 348.792079 
L 248.482486 348.792079 
L 248.482486 343.762376 
L 248.482486 343.762376 
L 248.482486 343.762376 
L 248.482486 338.732673 
L 248.482486 338.732673 
L 248.482486 338.732673 
L 248.482486 333.70297 
L 248.482486 333.70297 
L 248.482486 333.70297 
L 248.482486 328.673267 
L 248.482486 328.673267 
L 248.482486 328.673267 
L 248.482486 323.643564 
L 248.482486 323.643564 
L 248.482486 323.643564 
L 248.482486 318.613861 
L 248.482486 318.613861 
L 248.482486 318.613861 
L 248.482486 313.584158 
L 248.482486 313.584158 
L 248.482486 313.584158 
L 248.482486 308.554455 
L 288.588467 308.554455 
L 288.588467 303.524752 
L 293.337693 303.524752 
L 293.337693 298.49505 
L 294.772827 298.49505 
L 294.772827 293.465347 
L 295.515093 293.465347 
L 295.515093 288.435644 
L 296.205431 288.435644 
L 296.205431 283.405941 
L 296.906958 283.405941 
L 296.930079 273.346535 
L 297.603537 273.346535 
L 297.603537 268.316832 
L 299.890274 268.316832 
L 299.890274 263.287129 
L 300.507959 263.287129 
L 300.507959 258.257426 
L 302.184202 258.257426 
L 302.209195 248.19802 
L 303.258815 248.19802 
L 303.295794 238.138614 
L 305.404623 238.138614 
L 305.404623 233.108911 
L 305.809007 233.108911 
L 305.809007 228.079208 
L 306.29657 228.079208 
L 306.29657 223.049505 
L 308.544421 223.049505 
L 308.544421 218.019802 
L 309.4275 218.019802 
L 309.4275 212.990099 
L 310.015417 212.990099 
L 310.015417 207.960396 
L 310.431535 207.960396 
L 310.431535 202.930693 
L 313.022285 202.930693 
L 313.022285 197.90099 
L 313.322406 197.90099 
L 313.378232 187.841584 
L 313.892621 187.841584 
L 313.892621 182.811881 
L 314.91666 182.811881 
L 314.91666 177.782178 
L 315.288056 177.782178 
L 315.288056 172.752475 
L 315.807833 172.752475 
L 315.807833 167.722772 
L 316.409792 167.722772 
L 316.409792 162.693069 
L 317.199704 162.693069 
L 317.26897 152.633663 
L 318.501382 152.633663 
L 318.501382 147.60396 
L 319.255416 147.60396 
L 319.344101 137.544554 
L 319.475241 137.544554 
L 319.486495 127.485149 
L 319.588067 127.485149 
L 319.588067 122.455446 
L 320.753168 122.455446 
L 320.753168 117.425743 
L 321.682965 117.425743 
L 321.682965 112.39604 
L 322.643679 112.39604 
L 322.643679 107.366337 
L 323.26209 107.366337 
L 323.26209 102.336634 
L 323.435824 102.336634 
L 323.435824 97.306931 
L 324.480619 97.306931 
L 324.480619 92.277228 
L 328.075807 92.277228 
L 328.075807 87.247525 
L 328.530999 87.247525 
L 328.530999 82.217822 
L 330.181884 82.217822 
L 330.181884 77.188119 
L 331.076537 77.188119 
L 331.076537 72.158416 
L 331.602207 72.158416 
L 331.602207 67.128713 
L 334.837387 67.128713 
L 334.926321 57.069307 
L 334.971932 57.069307 
L 334.971932 52.039604 
L 336.333273 52.039604 
L 336.333273 47.009901 
L 336.986022 47.009901 
L 337.064631 36.950495 
L 337.108807 36.950495 
L 337.108807 31.920792 
L 338.521891 31.920792 
L 338.612271 21.861386 
L 338.858436 21.861386 
L 338.909699 11.80198 
L 340.503104 11.80198 
L 340.503104 6.772277 
L 340.503104 6.772277 
L 567.24 6.772277 
L 567.24 6.772277 
" style="fill:none;stroke:#00bfbf;stroke-linecap:square;"/>
   </g>
   <g id="line2d_6">
    <path clip-path="url(#p10b5db0f6a)" d="M 248.482486 384 
L 248.482486 378.970297 
L 248.482486 378.970297 
L 248.482486 378.970297 
L 248.482486 373.940594 
L 248.482486 373.940594 
L 248.482486 373.940594 
L 248.482486 368.910891 
L 248.482486 368.910891 
L 248.482486 368.910891 
L 248.482486 363.881188 
L 248.482486 363.881188 
L 248.482486 363.881188 
L 248.482486 358.851485 
L 248.482486 358.851485 
L 248.482486 358.851485 
L 248.482486 353.821782 
L 248.482486 353.821782 
L 248.482486 353.821782 
L 248.482486 348.792079 
L 248.482486 348.792079 
L 248.482486 348.792079 
L 248.482486 343.762376 
L 248.482486 343.762376 
L 248.482486 343.762376 
L 248.482486 338.732673 
L 248.482486 338.732673 
L 248.482486 338.732673 
L 248.482486 333.70297 
L 248.482486 333.70297 
L 248.482486 333.70297 
L 248.482486 328.673267 
L 248.482486 328.673267 
L 248.482486 328.673267 
L 248.482486 323.643564 
L 248.482486 323.643564 
L 248.482486 323.643564 
L 248.482486 318.613861 
L 248.482486 318.613861 
L 248.482486 318.613861 
L 248.482486 313.584158 
L 248.482486 313.584158 
L 248.482486 313.584158 
L 248.482486 308.554455 
L 286.70806 308.554455 
L 286.70806 303.524752 
L 288.588467 303.524752 
L 288.588467 298.49505 
L 288.824733 298.49505 
L 288.824733 293.465347 
L 288.963942 293.465347 
L 288.963942 288.435644 
L 289.34338 288.435644 
L 289.378558 278.376238 
L 289.888273 278.376238 
L 289.888273 273.346535 
L 291.633978 273.346535 
L 291.705705 263.287129 
L 292.054351 263.287129 
L 292.054351 258.257426 
L 292.669333 258.257426 
L 292.724414 248.19802 
L 293.378237 248.19802 
L 293.378237 243.168317 
L 295.316027 243.168317 
L 295.316027 238.138614 
L 296.551437 238.138614 
L 296.551437 233.108911 
L 296.930079 233.108911 
L 296.930079 228.079208 
L 297.910714 228.079208 
L 297.910714 223.049505 
L 302.606187 223.049505 
L 302.606187 218.019802 
L 302.895464 218.019802 
L 302.895464 212.990099 
L 303.850814 212.990099 
L 303.850814 207.960396 
L 305.027028 207.960396 
L 305.027028 202.930693 
L 305.9482 202.930693 
L 306.001157 192.871287 
L 306.29657 192.871287 
L 306.29657 187.841584 
L 307.053736 187.841584 
L 307.103073 177.782178 
L 307.625792 177.782178 
L 307.625792 172.752475 
L 308.304438 172.752475 
L 308.304438 167.722772 
L 308.486155 167.722772 
L 308.544421 157.663366 
L 308.745564 157.663366 
L 308.841585 147.60396 
L 309.961965 147.60396 
L 309.961965 142.574257 
L 312.307732 142.574257 
L 312.307732 137.544554 
L 312.890381 137.544554 
L 312.890381 132.514851 
L 313.294401 132.514851 
L 313.294401 127.485149 
L 313.892621 127.485149 
L 313.892621 122.455446 
L 314.91666 122.455446 
L 314.91666 117.425743 
L 317.862814 117.425743 
L 317.862814 112.39604 
L 318.495227 112.39604 
L 318.501382 102.336634 
L 319.164484 102.336634 
L 319.255416 92.277228 
L 320.209883 92.277228 
L 320.243358 82.217822 
L 320.626964 82.217822 
L 320.626964 77.188119 
L 321.388025 77.188119 
L 321.388025 72.158416 
L 324.110129 72.158416 
L 324.110129 67.128713 
L 326.329898 67.128713 
L 326.329898 62.09901 
L 326.466489 62.09901 
L 326.466489 57.069307 
L 327.662194 57.069307 
L 327.662194 52.039604 
L 329.157656 52.039604 
L 329.157656 47.009901 
L 329.303872 47.009901 
L 329.303872 41.980198 
L 331.076537 41.980198 
L 331.076537 36.950495 
L 331.242553 36.950495 
L 331.242553 31.920792 
L 331.498703 31.920792 
L 331.498703 26.891089 
L 331.679458 26.891089 
L 331.679458 21.861386 
L 332.425873 21.861386 
L 332.425873 16.831683 
L 333.360156 16.831683 
L 333.360156 11.80198 
L 337.747735 11.80198 
L 337.747735 6.772277 
L 337.747735 6.772277 
L 567.24 6.772277 
L 567.24 6.772277 
" style="fill:none;stroke:#bf00bf;stroke-linecap:square;"/>
   </g>
   <g id="line2d_7">
    <path clip-path="url(#p10b5db0f6a)" d="M 248.482486 384 
L 248.482486 378.970297 
L 248.482486 378.970297 
L 248.482486 378.970297 
L 248.482486 373.940594 
L 248.482486 373.940594 
L 248.482486 373.940594 
L 248.482486 368.910891 
L 248.482486 368.910891 
L 248.482486 368.910891 
L 248.482486 363.881188 
L 248.482486 363.881188 
L 248.482486 363.881188 
L 248.482486 358.851485 
L 248.482486 358.851485 
L 248.482486 358.851485 
L 248.482486 353.821782 
L 248.482486 353.821782 
L 248.482486 353.821782 
L 248.482486 348.792079 
L 248.482486 348.792079 
L 248.482486 348.792079 
L 248.482486 343.762376 
L 248.482486 343.762376 
L 248.482486 343.762376 
L 248.482486 338.732673 
L 248.482486 338.732673 
L 248.482486 338.732673 
L 248.482486 333.70297 
L 248.482486 333.70297 
L 248.482486 333.70297 
L 248.482486 328.673267 
L 248.482486 328.673267 
L 248.482486 328.673267 
L 248.482486 323.643564 
L 248.482486 323.643564 
L 248.482486 323.643564 
L 248.482486 318.613861 
L 248.482486 318.613861 
L 248.482486 318.613861 
L 248.482486 313.584158 
L 248.482486 313.584158 
L 248.482486 313.584158 
L 248.482486 308.554455 
L 275.920249 308.554455 
L 275.920249 303.524752 
L 278.445391 303.524752 
L 278.445391 298.49505 
L 282.015138 298.49505 
L 282.015138 293.465347 
L 282.776036 293.465347 
L 282.776036 288.435644 
L 284.284566 288.435644 
L 284.284566 283.405941 
L 284.468166 283.405941 
L 284.468166 278.376238 
L 285.327018 278.376238 
L 285.367194 268.316832 
L 286.568248 268.316832 
L 286.568248 263.287129 
L 286.70806 263.287129 
L 286.70806 258.257426 
L 288.195208 258.257426 
L 288.195208 253.227723 
L 288.556892 253.227723 
L 288.597447 243.168317 
L 289.378558 243.168317 
L 289.378558 238.138614 
L 289.778421 238.138614 
L 289.778421 233.108911 
L 290.640604 233.108911 
L 290.646641 223.049505 
L 291.705705 223.049505 
L 291.705705 218.019802 
L 291.923019 218.019802 
L 291.923019 212.990099 
L 296.185622 212.990099 
L 296.185622 207.960396 
L 297.637901 207.960396 
L 297.637901 202.930693 
L 298.055068 202.930693 
L 298.055068 197.90099 
L 298.433323 197.90099 
L 298.433323 192.871287 
L 299.258315 192.871287 
L 299.258315 187.841584 
L 300.693047 187.841584 
L 300.693047 182.811881 
L 301.176722 182.811881 
L 301.216579 172.752475 
L 302.606187 172.752475 
L 302.606187 167.722772 
L 302.895464 167.722772 
L 302.895464 162.693069 
L 303.253566 162.693069 
L 303.253566 157.663366 
L 304.360122 157.663366 
L 304.369399 147.60396 
L 305.224096 147.60396 
L 305.28014 137.544554 
L 305.873952 137.544554 
L 305.873952 132.514851 
L 306.241174 132.514851 
L 306.271556 122.455446 
L 306.603599 122.455446 
L 306.67853 112.39604 
L 307.103073 112.39604 
L 307.103073 107.366337 
L 307.625792 107.366337 
L 307.625792 102.336634 
L 308.191736 102.336634 
L 308.191736 97.306931 
L 308.304438 97.306931 
L 308.304438 92.277228 
L 309.143593 92.277228 
L 309.143593 87.247525 
L 310.626121 87.247525 
L 310.626121 82.217822 
L 319.665299 82.217822 
L 319.665299 77.188119 
L 320.209883 77.188119 
L 320.243358 67.128713 
L 320.422964 67.128713 
L 320.422964 62.09901 
L 321.833532 62.09901 
L 321.833532 57.069307 
L 322.13348 57.069307 
L 322.13348 52.039604 
L 323.200986 52.039604 
L 323.200986 47.009901 
L 323.475016 47.009901 
L 323.475016 41.980198 
L 324.110129 41.980198 
L 324.110129 36.950495 
L 324.233509 36.950495 
L 324.233509 31.920792 
L 325.547293 31.920792 
L 325.547293 26.891089 
L 325.838763 26.891089 
L 325.838763 21.861386 
L 326.459144 21.861386 
L 326.459144 16.831683 
L 327.662194 16.831683 
L 327.662194 11.80198 
L 333.771998 11.80198 
L 333.771998 6.772277 
L 333.771998 6.772277 
L 567.24 6.772277 
L 567.24 6.772277 
" style="fill:none;stroke:#000000;stroke-linecap:square;"/>
   </g>
   <g id="line2d_8">
    <path clip-path="url(#p10b5db0f6a)" d="M 248.482486 384 
L 248.482486 378.970297 
L 248.482486 378.970297 
L 248.482486 378.970297 
L 248.482486 373.940594 
L 248.482486 373.940594 
L 248.482486 373.940594 
L 248.482486 368.910891 
L 248.482486 368.910891 
L 248.482486 368.910891 
L 248.482486 363.881188 
L 248.482486 363.881188 
L 248.482486 363.881188 
L 248.482486 358.851485 
L 248.482486 358.851485 
L 248.482486 358.851485 
L 248.482486 353.821782 
L 248.482486 353.821782 
L 248.482486 353.821782 
L 248.482486 348.792079 
L 248.482486 348.792079 
L 248.482486 348.792079 
L 248.482486 343.762376 
L 248.482486 343.762376 
L 248.482486 343.762376 
L 248.482486 338.732673 
L 248.482486 338.732673 
L 248.482486 338.732673 
L 248.482486 333.70297 
L 248.482486 333.70297 
L 248.482486 333.70297 
L 248.482486 328.673267 
L 248.482486 328.673267 
L 248.482486 328.673267 
L 248.482486 323.643564 
L 248.482486 323.643564 
L 248.482486 323.643564 
L 248.482486 318.613861 
L 248.482486 318.613861 
L 248.482486 318.613861 
L 248.482486 313.584158 
L 248.482486 313.584158 
L 248.482486 313.584158 
L 248.482486 308.554455 
L 268.103024 308.554455 
L 268.103024 303.524752 
L 271.674806 303.524752 
L 271.750084 293.465347 
L 271.868961 293.465347 
L 271.868961 288.435644 
L 273.535377 288.435644 
L 273.535377 283.405941 
L 273.814418 283.405941 
L 273.814418 278.376238 
L 275.920249 278.376238 
L 275.920249 273.346535 
L 276.359817 273.346535 
L 276.359817 268.316832 
L 276.721127 268.316832 
L 276.721127 263.287129 
L 276.832276 263.287129 
L 276.832276 258.257426 
L 277.216401 258.257426 
L 277.216401 253.227723 
L 278.445391 253.227723 
L 278.445391 248.19802 
L 278.76049 248.19802 
L 278.76049 243.168317 
L 279.177156 243.168317 
L 279.177156 238.138614 
L 279.935355 238.138614 
L 279.935355 233.108911 
L 280.56815 233.108911 
L 280.56815 228.079208 
L 281.742027 228.079208 
L 281.800696 218.019802 
L 285.327018 218.019802 
L 285.327018 212.990099 
L 287.228437 212.990099 
L 287.228437 207.960396 
L 288.556892 207.960396 
L 288.556892 202.930693 
L 289.091436 202.930693 
L 289.091436 197.90099 
L 289.556541 197.90099 
L 289.556541 192.871287 
L 289.705496 192.871287 
L 289.778421 182.811881 
L 290.896396 182.811881 
L 290.896396 177.782178 
L 291.518352 177.782178 
L 291.518352 172.752475 
L 291.705705 172.752475 
L 291.705705 167.722772 
L 294.472754 167.722772 
L 294.472754 162.693069 
L 294.648485 162.693069 
L 294.648485 157.663366 
L 295.686369 157.663366 
L 295.727497 147.60396 
L 296.241107 147.60396 
L 296.241107 142.574257 
L 296.385937 142.574257 
L 296.385937 137.544554 
L 297.166293 137.544554 
L 297.166293 132.514851 
L 297.747053 132.514851 
L 297.747053 127.485149 
L 298.541504 127.485149 
L 298.541504 122.455446 
L 299.233021 122.455446 
L 299.301185 107.366337 
L 300.265568 107.366337 
L 300.265568 102.336634 
L 300.69994 102.336634 
L 300.69994 97.306931 
L 301.749611 97.306931 
L 301.749611 92.277228 
L 302.790366 92.277228 
L 302.790366 87.247525 
L 303.599271 87.247525 
L 303.599271 82.217822 
L 306.216787 82.217822 
L 306.216787 77.188119 
L 311.706427 77.188119 
L 311.706427 72.158416 
L 312.585067 72.158416 
L 312.585067 67.128713 
L 312.877539 67.128713 
L 312.877539 62.09901 
L 313.168082 62.09901 
L 313.168082 57.069307 
L 314.114232 57.069307 
L 314.114232 52.039604 
L 315.780679 52.039604 
L 315.780679 47.009901 
L 317.263758 47.009901 
L 317.263758 41.980198 
L 317.759668 41.980198 
L 317.759668 36.950495 
L 318.302486 36.950495 
L 318.302486 31.920792 
L 318.656113 31.920792 
L 318.656113 26.891089 
L 319.613206 26.891089 
L 319.613206 21.861386 
L 319.869836 21.861386 
L 319.869836 16.831683 
L 320.422964 16.831683 
L 320.422964 11.80198 
L 321.591889 11.80198 
L 321.591889 6.772277 
L 321.591889 6.772277 
L 567.24 6.772277 
L 567.24 6.772277 
" style="fill:none;stroke:#00bfbf;stroke-linecap:square;"/>
   </g>
   <g id="patch_3">
    <path d="M 3 3 
L 567.24 3 
" style="fill:none;stroke:#000000;stroke-linecap:square;stroke-linejoin:miter;"/>
   </g>
   <g id="patch_4">
    <path d="M 567.24 384 
L 567.24 3 
" style="fill:none;stroke:#000000;stroke-linecap:square;stroke-linejoin:miter;"/>
   </g>
   <g id="patch_5">
    <path d="M 3 384 
L 567.24 384 
" style="fill:none;stroke:#000000;stroke-linecap:square;stroke-linejoin:miter;"/>
   </g>
   <g id="patch_6">
    <path d="M 3 384 
L 3 3 
" style="fill:none;stroke:#000000;stroke-linecap:square;stroke-linejoin:miter;"/>
   </g>
   <g id="matplotlib.axis_1">
    <g id="xtick_1"/>
    <g id="xtick_2">
     <g id="line2d_9">
      <path clip-path="url(#p10b5db0f6a)" d="M 69.254589 384 
L 69.254589 3 
" style="fill:none;stroke:#000000;stroke-dasharray:1.000000,3.000000;stroke-dashoffset:0.0;stroke-width:0.5;"/>
     </g>
     <g id="line2d_10">
      <defs>
       <path d="M 0 0 
L 0 -4 
" id="m2cb7c8e10d" style="stroke:#000000;stroke-width:0.5;"/>
      </defs>
      <g>
       <use style="stroke:#000000;stroke-width:0.5;" x="69.2545893472" xlink:href="#m2cb7c8e10d" y="384.0"/>
      </g>
     </g>
     <g id="line2d_11">
      <defs>
       <path d="M 0 0 
L 0 4 
" id="mb3415a0718" style="stroke:#000000;stroke-width:0.5;"/>
      </defs>
      <g>
       <use style="stroke:#000000;stroke-width:0.5;" x="69.2545893472" xlink:href="#mb3415a0718" y="3.0"/>
      </g>
     </g>
     <g id="text_1">
      <!-- -6 -->
      <defs>
       <path d="M 33.015625 40.375 
Q 26.375 40.375 22.484375 35.828125 
Q 18.609375 31.296875 18.609375 23.390625 
Q 18.609375 15.53125 22.484375 10.953125 
Q 26.375 6.390625 33.015625 6.390625 
Q 39.65625 6.390625 43.53125 10.953125 
Q 47.40625 15.53125 47.40625 23.390625 
Q 47.40625 31.296875 43.53125 35.828125 
Q 39.65625 40.375 33.015625 40.375 
M 52.59375 71.296875 
L 52.59375 62.3125 
Q 48.875 64.0625 45.09375 64.984375 
Q 41.3125 65.921875 37.59375 65.921875 
Q 27.828125 65.921875 22.671875 59.328125 
Q 17.53125 52.734375 16.796875 39.40625 
Q 19.671875 43.65625 24.015625 45.921875 
Q 28.375 48.1875 33.59375 48.1875 
Q 44.578125 48.1875 50.953125 41.515625 
Q 57.328125 34.859375 57.328125 23.390625 
Q 57.328125 12.15625 50.6875 5.359375 
Q 44.046875 -1.421875 33.015625 -1.421875 
Q 20.359375 -1.421875 13.671875 8.265625 
Q 6.984375 17.96875 6.984375 36.375 
Q 6.984375 53.65625 15.1875 63.9375 
Q 23.390625 74.21875 37.203125 74.21875 
Q 40.921875 74.21875 44.703125 73.484375 
Q 48.484375 72.75 52.59375 71.296875 
" id="BitstreamVeraSans-Roman-36"/>
       <path d="M 4.890625 31.390625 
L 31.203125 31.390625 
L 31.203125 23.390625 
L 4.890625 23.390625 
z
" id="BitstreamVeraSans-Roman-2d"/>
      </defs>
      <g transform="translate(59.2842768472 403.196875)scale(0.2 -0.2)">
       <use xlink:href="#BitstreamVeraSans-Roman-2d"/>
       <use x="36.083984375" xlink:href="#BitstreamVeraSans-Roman-36"/>
      </g>
     </g>
    </g>
    <g id="xtick_3">
     <g id="line2d_12">
      <path clip-path="url(#p10b5db0f6a)" d="M 135.652644 384 
L 135.652644 3 
" style="fill:none;stroke:#000000;stroke-dasharray:1.000000,3.000000;stroke-dashoffset:0.0;stroke-width:0.5;"/>
     </g>
     <g id="line2d_13">
      <g>
       <use style="stroke:#000000;stroke-width:0.5;" x="135.652644101" xlink:href="#m2cb7c8e10d" y="384.0"/>
      </g>
     </g>
     <g id="line2d_14">
      <g>
       <use style="stroke:#000000;stroke-width:0.5;" x="135.652644101" xlink:href="#mb3415a0718" y="3.0"/>
      </g>
     </g>
     <g id="text_2">
      <!-- -4 -->
      <defs>
       <path d="M 37.796875 64.3125 
L 12.890625 25.390625 
L 37.796875 25.390625 
z
M 35.203125 72.90625 
L 47.609375 72.90625 
L 47.609375 25.390625 
L 58.015625 25.390625 
L 58.015625 17.1875 
L 47.609375 17.1875 
L 47.609375 0 
L 37.796875 0 
L 37.796875 17.1875 
L 4.890625 17.1875 
L 4.890625 26.703125 
z
" id="BitstreamVeraSans-Roman-34"/>
      </defs>
      <g transform="translate(125.682331601 403.196875)scale(0.2 -0.2)">
       <use xlink:href="#BitstreamVeraSans-Roman-2d"/>
       <use x="36.083984375" xlink:href="#BitstreamVeraSans-Roman-34"/>
      </g>
     </g>
    </g>
    <g id="xtick_4">
     <g id="line2d_15">
      <path clip-path="url(#p10b5db0f6a)" d="M 202.050699 384 
L 202.050699 3 
" style="fill:none;stroke:#000000;stroke-dasharray:1.000000,3.000000;stroke-dashoffset:0.0;stroke-width:0.5;"/>
     </g>
     <g id="line2d_16">
      <g>
       <use style="stroke:#000000;stroke-width:0.5;" x="202.050698855" xlink:href="#m2cb7c8e10d" y="384.0"/>
      </g>
     </g>
     <g id="line2d_17">
      <g>
       <use style="stroke:#000000;stroke-width:0.5;" x="202.050698855" xlink:href="#mb3415a0718" y="3.0"/>
      </g>
     </g>
     <g id="text_3">
      <!-- -2 -->
      <defs>
       <path d="M 19.1875 8.296875 
L 53.609375 8.296875 
L 53.609375 0 
L 7.328125 0 
L 7.328125 8.296875 
Q 12.9375 14.109375 22.625 23.890625 
Q 32.328125 33.6875 34.8125 36.53125 
Q 39.546875 41.84375 41.421875 45.53125 
Q 43.3125 49.21875 43.3125 52.78125 
Q 43.3125 58.59375 39.234375 62.25 
Q 35.15625 65.921875 28.609375 65.921875 
Q 23.96875 65.921875 18.8125 64.3125 
Q 13.671875 62.703125 7.8125 59.421875 
L 7.8125 69.390625 
Q 13.765625 71.78125 18.9375 73 
Q 24.125 74.21875 28.421875 74.21875 
Q 39.75 74.21875 46.484375 68.546875 
Q 53.21875 62.890625 53.21875 53.421875 
Q 53.21875 48.921875 51.53125 44.890625 
Q 49.859375 40.875 45.40625 35.40625 
Q 44.1875 33.984375 37.640625 27.21875 
Q 31.109375 20.453125 19.1875 8.296875 
" id="BitstreamVeraSans-Roman-32"/>
      </defs>
      <g transform="translate(192.080386355 403.196875)scale(0.2 -0.2)">
       <use xlink:href="#BitstreamVeraSans-Roman-2d"/>
       <use x="36.083984375" xlink:href="#BitstreamVeraSans-Roman-32"/>
      </g>
     </g>
    </g>
    <g id="xtick_5">
     <g id="line2d_18">
      <path clip-path="url(#p10b5db0f6a)" d="M 268.448754 384 
L 268.448754 3 
" style="fill:none;stroke:#000000;stroke-dasharray:1.000000,3.000000;stroke-dashoffset:0.0;stroke-width:0.5;"/>
     </g>
     <g id="line2d_19">
      <g>
       <use style="stroke:#000000;stroke-width:0.5;" x="268.448753608" xlink:href="#m2cb7c8e10d" y="384.0"/>
      </g>
     </g>
     <g id="line2d_20">
      <g>
       <use style="stroke:#000000;stroke-width:0.5;" x="268.448753608" xlink:href="#mb3415a0718" y="3.0"/>
      </g>
     </g>
     <g id="text_4">
      <!-- 0 -->
      <defs>
       <path d="M 31.78125 66.40625 
Q 24.171875 66.40625 20.328125 58.90625 
Q 16.5 51.421875 16.5 36.375 
Q 16.5 21.390625 20.328125 13.890625 
Q 24.171875 6.390625 31.78125 6.390625 
Q 39.453125 6.390625 43.28125 13.890625 
Q 47.125 21.390625 47.125 36.375 
Q 47.125 51.421875 43.28125 58.90625 
Q 39.453125 66.40625 31.78125 66.40625 
M 31.78125 74.21875 
Q 44.046875 74.21875 50.515625 64.515625 
Q 56.984375 54.828125 56.984375 36.375 
Q 56.984375 17.96875 50.515625 8.265625 
Q 44.046875 -1.421875 31.78125 -1.421875 
Q 19.53125 -1.421875 13.0625 8.265625 
Q 6.59375 17.96875 6.59375 36.375 
Q 6.59375 54.828125 13.0625 64.515625 
Q 19.53125 74.21875 31.78125 74.21875 
" id="BitstreamVeraSans-Roman-30"/>
      </defs>
      <g transform="translate(262.086253608 403.196875)scale(0.2 -0.2)">
       <use xlink:href="#BitstreamVeraSans-Roman-30"/>
      </g>
     </g>
    </g>
    <g id="xtick_6">
     <g id="line2d_21">
      <path clip-path="url(#p10b5db0f6a)" d="M 334.846808 384 
L 334.846808 3 
" style="fill:none;stroke:#000000;stroke-dasharray:1.000000,3.000000;stroke-dashoffset:0.0;stroke-width:0.5;"/>
     </g>
     <g id="line2d_22">
      <g>
       <use style="stroke:#000000;stroke-width:0.5;" x="334.846808362" xlink:href="#m2cb7c8e10d" y="384.0"/>
      </g>
     </g>
     <g id="line2d_23">
      <g>
       <use style="stroke:#000000;stroke-width:0.5;" x="334.846808362" xlink:href="#mb3415a0718" y="3.0"/>
      </g>
     </g>
     <g id="text_5">
      <!-- 2 -->
      <g transform="translate(328.484308362 403.196875)scale(0.2 -0.2)">
       <use xlink:href="#BitstreamVeraSans-Roman-32"/>
      </g>
     </g>
    </g>
    <g id="xtick_7">
     <g id="line2d_24">
      <path clip-path="url(#p10b5db0f6a)" d="M 401.244863 384 
L 401.244863 3 
" style="fill:none;stroke:#000000;stroke-dasharray:1.000000,3.000000;stroke-dashoffset:0.0;stroke-width:0.5;"/>
     </g>
     <g id="line2d_25">
      <g>
       <use style="stroke:#000000;stroke-width:0.5;" x="401.244863116" xlink:href="#m2cb7c8e10d" y="384.0"/>
      </g>
     </g>
     <g id="line2d_26">
      <g>
       <use style="stroke:#000000;stroke-width:0.5;" x="401.244863116" xlink:href="#mb3415a0718" y="3.0"/>
      </g>
     </g>
     <g id="text_6">
      <!-- 4 -->
      <g transform="translate(394.882363116 403.196875)scale(0.2 -0.2)">
       <use xlink:href="#BitstreamVeraSans-Roman-34"/>
      </g>
     </g>
    </g>
    <g id="xtick_8">
     <g id="line2d_27">
      <path clip-path="url(#p10b5db0f6a)" d="M 467.642918 384 
L 467.642918 3 
" style="fill:none;stroke:#000000;stroke-dasharray:1.000000,3.000000;stroke-dashoffset:0.0;stroke-width:0.5;"/>
     </g>
     <g id="line2d_28">
      <g>
       <use style="stroke:#000000;stroke-width:0.5;" x="467.642917869" xlink:href="#m2cb7c8e10d" y="384.0"/>
      </g>
     </g>
     <g id="line2d_29">
      <g>
       <use style="stroke:#000000;stroke-width:0.5;" x="467.642917869" xlink:href="#mb3415a0718" y="3.0"/>
      </g>
     </g>
     <g id="text_7">
      <!-- 6 -->
      <g transform="translate(461.280417869 403.196875)scale(0.2 -0.2)">
       <use xlink:href="#BitstreamVeraSans-Roman-36"/>
      </g>
     </g>
    </g>
    <g id="xtick_9">
     <g id="line2d_30">
      <path clip-path="url(#p10b5db0f6a)" d="M 534.040973 384 
L 534.040973 3 
" style="fill:none;stroke:#000000;stroke-dasharray:1.000000,3.000000;stroke-dashoffset:0.0;stroke-width:0.5;"/>
     </g>
     <g id="line2d_31">
      <g>
       <use style="stroke:#000000;stroke-width:0.5;" x="534.040972623" xlink:href="#m2cb7c8e10d" y="384.0"/>
      </g>
     </g>
     <g id="line2d_32">
      <g>
       <use style="stroke:#000000;stroke-width:0.5;" x="534.040972623" xlink:href="#mb3415a0718" y="3.0"/>
      </g>
     </g>
     <g id="text_8">
      <!-- 8 -->
      <defs>
       <path d="M 31.78125 34.625 
Q 24.75 34.625 20.71875 30.859375 
Q 16.703125 27.09375 16.703125 20.515625 
Q 16.703125 13.921875 20.71875 10.15625 
Q 24.75 6.390625 31.78125 6.390625 
Q 38.8125 6.390625 42.859375 10.171875 
Q 46.921875 13.96875 46.921875 20.515625 
Q 46.921875 27.09375 42.890625 30.859375 
Q 38.875 34.625 31.78125 34.625 
M 21.921875 38.8125 
Q 15.578125 40.375 12.03125 44.71875 
Q 8.5 49.078125 8.5 55.328125 
Q 8.5 64.0625 14.71875 69.140625 
Q 20.953125 74.21875 31.78125 74.21875 
Q 42.671875 74.21875 48.875 69.140625 
Q 55.078125 64.0625 55.078125 55.328125 
Q 55.078125 49.078125 51.53125 44.71875 
Q 48 40.375 41.703125 38.8125 
Q 48.828125 37.15625 52.796875 32.3125 
Q 56.78125 27.484375 56.78125 20.515625 
Q 56.78125 9.90625 50.3125 4.234375 
Q 43.84375 -1.421875 31.78125 -1.421875 
Q 19.734375 -1.421875 13.25 4.234375 
Q 6.78125 9.90625 6.78125 20.515625 
Q 6.78125 27.484375 10.78125 32.3125 
Q 14.796875 37.15625 21.921875 38.8125 
M 18.3125 54.390625 
Q 18.3125 48.734375 21.84375 45.5625 
Q 25.390625 42.390625 31.78125 42.390625 
Q 38.140625 42.390625 41.71875 45.5625 
Q 45.3125 48.734375 45.3125 54.390625 
Q 45.3125 60.0625 41.71875 63.234375 
Q 38.140625 66.40625 31.78125 66.40625 
Q 25.390625 66.40625 21.84375 63.234375 
Q 18.3125 60.0625 18.3125 54.390625 
" id="BitstreamVeraSans-Roman-38"/>
      </defs>
      <g transform="translate(527.678472623 403.196875)scale(0.2 -0.2)">
       <use xlink:href="#BitstreamVeraSans-Roman-38"/>
      </g>
     </g>
    </g>
    <g id="xtick_10"/>
    <g id="xtick_11">
     <g id="line2d_33">
      <defs>
       <path d="M 0 0 
L 0 -2 
" id="m803cab9eac" style="stroke:#000000;stroke-width:0.5;"/>
      </defs>
      <g>
       <use style="stroke:#000000;stroke-width:0.5;" x="69.2545893472" xlink:href="#m803cab9eac" y="384.0"/>
      </g>
     </g>
     <g id="line2d_34">
      <defs>
       <path d="M 0 0 
L 0 2 
" id="m5bc4df09cf" style="stroke:#000000;stroke-width:0.5;"/>
      </defs>
      <g>
       <use style="stroke:#000000;stroke-width:0.5;" x="69.2545893472" xlink:href="#m5bc4df09cf" y="3.0"/>
      </g>
     </g>
    </g>
    <g id="xtick_12">
     <g id="line2d_35">
      <g>
       <use style="stroke:#000000;stroke-width:0.5;" x="135.652644101" xlink:href="#m803cab9eac" y="384.0"/>
      </g>
     </g>
     <g id="line2d_36">
      <g>
       <use style="stroke:#000000;stroke-width:0.5;" x="135.652644101" xlink:href="#m5bc4df09cf" y="3.0"/>
      </g>
     </g>
    </g>
    <g id="xtick_13">
     <g id="line2d_37">
      <g>
       <use style="stroke:#000000;stroke-width:0.5;" x="202.050698855" xlink:href="#m803cab9eac" y="384.0"/>
      </g>
     </g>
     <g id="line2d_38">
      <g>
       <use style="stroke:#000000;stroke-width:0.5;" x="202.050698855" xlink:href="#m5bc4df09cf" y="3.0"/>
      </g>
     </g>
    </g>
    <g id="xtick_14">
     <g id="line2d_39">
      <g>
       <use style="stroke:#000000;stroke-width:0.5;" x="268.448753608" xlink:href="#m803cab9eac" y="384.0"/>
      </g>
     </g>
     <g id="line2d_40">
      <g>
       <use style="stroke:#000000;stroke-width:0.5;" x="268.448753608" xlink:href="#m5bc4df09cf" y="3.0"/>
      </g>
     </g>
    </g>
    <g id="xtick_15">
     <g id="line2d_41">
      <g>
       <use style="stroke:#000000;stroke-width:0.5;" x="334.846808362" xlink:href="#m803cab9eac" y="384.0"/>
      </g>
     </g>
     <g id="line2d_42">
      <g>
       <use style="stroke:#000000;stroke-width:0.5;" x="334.846808362" xlink:href="#m5bc4df09cf" y="3.0"/>
      </g>
     </g>
    </g>
    <g id="xtick_16">
     <g id="line2d_43">
      <g>
       <use style="stroke:#000000;stroke-width:0.5;" x="401.244863116" xlink:href="#m803cab9eac" y="384.0"/>
      </g>
     </g>
     <g id="line2d_44">
      <g>
       <use style="stroke:#000000;stroke-width:0.5;" x="401.244863116" xlink:href="#m5bc4df09cf" y="3.0"/>
      </g>
     </g>
    </g>
    <g id="xtick_17">
     <g id="line2d_45">
      <g>
       <use style="stroke:#000000;stroke-width:0.5;" x="467.642917869" xlink:href="#m803cab9eac" y="384.0"/>
      </g>
     </g>
     <g id="line2d_46">
      <g>
       <use style="stroke:#000000;stroke-width:0.5;" x="467.642917869" xlink:href="#m5bc4df09cf" y="3.0"/>
      </g>
     </g>
    </g>
    <g id="xtick_18">
     <g id="line2d_47">
      <g>
       <use style="stroke:#000000;stroke-width:0.5;" x="534.040972623" xlink:href="#m803cab9eac" y="384.0"/>
      </g>
     </g>
     <g id="line2d_48">
      <g>
       <use style="stroke:#000000;stroke-width:0.5;" x="534.040972623" xlink:href="#m5bc4df09cf" y="3.0"/>
      </g>
     </g>
    </g>
    <g id="text_9">
     <!-- log10 of Df -->
     <defs>
      <path id="BitstreamVeraSans-Roman-20"/>
      <path d="M 12.40625 8.296875 
L 28.515625 8.296875 
L 28.515625 63.921875 
L 10.984375 60.40625 
L 10.984375 69.390625 
L 28.421875 72.90625 
L 38.28125 72.90625 
L 38.28125 8.296875 
L 54.390625 8.296875 
L 54.390625 0 
L 12.40625 0 
z
" id="BitstreamVeraSans-Roman-31"/>
      <path d="M 30.609375 48.390625 
Q 23.390625 48.390625 19.1875 42.75 
Q 14.984375 37.109375 14.984375 27.296875 
Q 14.984375 17.484375 19.15625 11.84375 
Q 23.34375 6.203125 30.609375 6.203125 
Q 37.796875 6.203125 41.984375 11.859375 
Q 46.1875 17.53125 46.1875 27.296875 
Q 46.1875 37.015625 41.984375 42.703125 
Q 37.796875 48.390625 30.609375 48.390625 
M 30.609375 56 
Q 42.328125 56 49.015625 48.375 
Q 55.71875 40.765625 55.71875 27.296875 
Q 55.71875 13.875 49.015625 6.21875 
Q 42.328125 -1.421875 30.609375 -1.421875 
Q 18.84375 -1.421875 12.171875 6.21875 
Q 5.515625 13.875 5.515625 27.296875 
Q 5.515625 40.765625 12.171875 48.375 
Q 18.84375 56 30.609375 56 
" id="BitstreamVeraSans-Roman-6f"/>
      <path d="M 9.421875 75.984375 
L 18.40625 75.984375 
L 18.40625 0 
L 9.421875 0 
z
" id="BitstreamVeraSans-Roman-6c"/>
      <path d="M 19.671875 64.796875 
L 19.671875 8.109375 
L 31.59375 8.109375 
Q 46.6875 8.109375 53.6875 14.9375 
Q 60.6875 21.78125 60.6875 36.53125 
Q 60.6875 51.171875 53.6875 57.984375 
Q 46.6875 64.796875 31.59375 64.796875 
z
M 9.8125 72.90625 
L 30.078125 72.90625 
Q 51.265625 72.90625 61.171875 64.09375 
Q 71.09375 55.28125 71.09375 36.53125 
Q 71.09375 17.671875 61.125 8.828125 
Q 51.171875 0 30.078125 0 
L 9.8125 0 
z
" id="BitstreamVeraSans-Roman-44"/>
      <path d="M 45.40625 27.984375 
Q 45.40625 37.75 41.375 43.109375 
Q 37.359375 48.484375 30.078125 48.484375 
Q 22.859375 48.484375 18.828125 43.109375 
Q 14.796875 37.75 14.796875 27.984375 
Q 14.796875 18.265625 18.828125 12.890625 
Q 22.859375 7.515625 30.078125 7.515625 
Q 37.359375 7.515625 41.375 12.890625 
Q 45.40625 18.265625 45.40625 27.984375 
M 54.390625 6.78125 
Q 54.390625 -7.171875 48.1875 -13.984375 
Q 42 -20.796875 29.203125 -20.796875 
Q 24.46875 -20.796875 20.265625 -20.09375 
Q 16.0625 -19.390625 12.109375 -17.921875 
L 12.109375 -9.1875 
Q 16.0625 -11.328125 19.921875 -12.34375 
Q 23.78125 -13.375 27.78125 -13.375 
Q 36.625 -13.375 41.015625 -8.765625 
Q 45.40625 -4.15625 45.40625 5.171875 
L 45.40625 9.625 
Q 42.625 4.78125 38.28125 2.390625 
Q 33.9375 0 27.875 0 
Q 17.828125 0 11.671875 7.65625 
Q 5.515625 15.328125 5.515625 27.984375 
Q 5.515625 40.671875 11.671875 48.328125 
Q 17.828125 56 27.875 56 
Q 33.9375 56 38.28125 53.609375 
Q 42.625 51.21875 45.40625 46.390625 
L 45.40625 54.6875 
L 54.390625 54.6875 
z
" id="BitstreamVeraSans-Roman-67"/>
      <path d="M 37.109375 75.984375 
L 37.109375 68.5 
L 28.515625 68.5 
Q 23.6875 68.5 21.796875 66.546875 
Q 19.921875 64.59375 19.921875 59.515625 
L 19.921875 54.6875 
L 34.71875 54.6875 
L 34.71875 47.703125 
L 19.921875 47.703125 
L 19.921875 0 
L 10.890625 0 
L 10.890625 47.703125 
L 2.296875 47.703125 
L 2.296875 54.6875 
L 10.890625 54.6875 
L 10.890625 58.5 
Q 10.890625 67.625 15.140625 71.796875 
Q 19.390625 75.984375 28.609375 75.984375 
z
" id="BitstreamVeraSans-Roman-66"/>
     </defs>
     <g transform="translate(229.9340625 427.553125)scale(0.2 -0.2)">
      <use xlink:href="#BitstreamVeraSans-Roman-6c"/>
      <use x="27.783203125" xlink:href="#BitstreamVeraSans-Roman-6f"/>
      <use x="88.96484375" xlink:href="#BitstreamVeraSans-Roman-67"/>
      <use x="152.44140625" xlink:href="#BitstreamVeraSans-Roman-31"/>
      <use x="216.064453125" xlink:href="#BitstreamVeraSans-Roman-30"/>
      <use x="279.6875" xlink:href="#BitstreamVeraSans-Roman-20"/>
      <use x="311.474609375" xlink:href="#BitstreamVeraSans-Roman-6f"/>
      <use x="372.65625" xlink:href="#BitstreamVeraSans-Roman-66"/>
      <use x="407.861328125" xlink:href="#BitstreamVeraSans-Roman-20"/>
      <use x="439.6484375" xlink:href="#BitstreamVeraSans-Roman-44"/>
      <use x="516.650390625" xlink:href="#BitstreamVeraSans-Roman-66"/>
     </g>
    </g>
   </g>
   <g id="matplotlib.axis_2">
    <g id="ytick_1">
     <g id="line2d_49">
      <path clip-path="url(#p10b5db0f6a)" d="M 3 384 
L 567.24 384 
" style="fill:none;stroke:#000000;stroke-dasharray:1.000000,3.000000;stroke-dashoffset:0.0;stroke-width:0.5;"/>
     </g>
     <g id="line2d_50">
      <defs>
       <path d="M 0 0 
L 4 0 
" id="meed156d95c" style="stroke:#000000;stroke-width:0.5;"/>
      </defs>
      <g>
       <use style="stroke:#000000;stroke-width:0.5;" x="3.0" xlink:href="#meed156d95c" y="384.0"/>
      </g>
     </g>
     <g id="line2d_51">
      <defs>
       <path d="M 0 0 
L -4 0 
" id="ma4b696e8ee" style="stroke:#000000;stroke-width:0.5;"/>
      </defs>
      <g>
       <use style="stroke:#000000;stroke-width:0.5;" x="567.24" xlink:href="#ma4b696e8ee" y="384.0"/>
      </g>
     </g>
    </g>
    <g id="ytick_2">
     <g id="line2d_52">
      <path clip-path="url(#p10b5db0f6a)" d="M 3 308.554455 
L 567.24 308.554455 
" style="fill:none;stroke:#000000;stroke-dasharray:1.000000,3.000000;stroke-dashoffset:0.0;stroke-width:0.5;"/>
     </g>
     <g id="line2d_53">
      <g>
       <use style="stroke:#000000;stroke-width:0.5;" x="3.0" xlink:href="#meed156d95c" y="308.554455446"/>
      </g>
     </g>
     <g id="line2d_54">
      <g>
       <use style="stroke:#000000;stroke-width:0.5;" x="567.24" xlink:href="#ma4b696e8ee" y="308.554455446"/>
      </g>
     </g>
    </g>
    <g id="ytick_3">
     <g id="line2d_55">
      <path clip-path="url(#p10b5db0f6a)" d="M 3 233.108911 
L 567.24 233.108911 
" style="fill:none;stroke:#000000;stroke-dasharray:1.000000,3.000000;stroke-dashoffset:0.0;stroke-width:0.5;"/>
     </g>
     <g id="line2d_56">
      <g>
       <use style="stroke:#000000;stroke-width:0.5;" x="3.0" xlink:href="#meed156d95c" y="233.108910891"/>
      </g>
     </g>
     <g id="line2d_57">
      <g>
       <use style="stroke:#000000;stroke-width:0.5;" x="567.24" xlink:href="#ma4b696e8ee" y="233.108910891"/>
      </g>
     </g>
    </g>
    <g id="ytick_4">
     <g id="line2d_58">
      <path clip-path="url(#p10b5db0f6a)" d="M 3 157.663366 
L 567.24 157.663366 
" style="fill:none;stroke:#000000;stroke-dasharray:1.000000,3.000000;stroke-dashoffset:0.0;stroke-width:0.5;"/>
     </g>
     <g id="line2d_59">
      <g>
       <use style="stroke:#000000;stroke-width:0.5;" x="3.0" xlink:href="#meed156d95c" y="157.663366337"/>
      </g>
     </g>
     <g id="line2d_60">
      <g>
       <use style="stroke:#000000;stroke-width:0.5;" x="567.24" xlink:href="#ma4b696e8ee" y="157.663366337"/>
      </g>
     </g>
    </g>
    <g id="ytick_5">
     <g id="line2d_61">
      <path clip-path="url(#p10b5db0f6a)" d="M 3 82.217822 
L 567.24 82.217822 
" style="fill:none;stroke:#000000;stroke-dasharray:1.000000,3.000000;stroke-dashoffset:0.0;stroke-width:0.5;"/>
     </g>
     <g id="line2d_62">
      <g>
       <use style="stroke:#000000;stroke-width:0.5;" x="3.0" xlink:href="#meed156d95c" y="82.2178217822"/>
      </g>
     </g>
     <g id="line2d_63">
      <g>
       <use style="stroke:#000000;stroke-width:0.5;" x="567.24" xlink:href="#ma4b696e8ee" y="82.2178217822"/>
      </g>
     </g>
    </g>
    <g id="ytick_6">
     <g id="line2d_64">
      <path clip-path="url(#p10b5db0f6a)" d="M 3 6.772277 
L 567.24 6.772277 
" style="fill:none;stroke:#000000;stroke-dasharray:1.000000,3.000000;stroke-dashoffset:0.0;stroke-width:0.5;"/>
     </g>
     <g id="line2d_65">
      <g>
       <use style="stroke:#000000;stroke-width:0.5;" x="3.0" xlink:href="#meed156d95c" y="6.77227722772"/>
      </g>
     </g>
     <g id="line2d_66">
      <g>
       <use style="stroke:#000000;stroke-width:0.5;" x="567.24" xlink:href="#ma4b696e8ee" y="6.77227722772"/>
      </g>
     </g>
    </g>
   </g>
   <g id="text_10">
    <!-- {f15-f19}, 5-D -->
    <defs>
     <path d="M 12.5 -9.28125 
L 15.921875 -9.28125 
Q 22.75 -9.28125 24.828125 -7.171875 
Q 26.90625 -5.078125 26.90625 1.90625 
L 26.90625 14.015625 
Q 26.90625 21.625 29.09375 25.09375 
Q 31.296875 28.5625 36.71875 29.890625 
Q 31.296875 31.109375 29.09375 34.5625 
Q 26.90625 38.03125 26.90625 45.703125 
L 26.90625 57.8125 
Q 26.90625 64.75 24.828125 66.875 
Q 22.75 69 15.921875 69 
L 12.5 69 
L 12.5 75.984375 
L 15.578125 75.984375 
Q 27.734375 75.984375 31.8125 72.390625 
Q 35.890625 68.796875 35.890625 58.015625 
L 35.890625 46.296875 
Q 35.890625 39.015625 38.515625 36.203125 
Q 41.15625 33.40625 48.09375 33.40625 
L 51.125 33.40625 
L 51.125 26.421875 
L 48.09375 26.421875 
Q 41.15625 26.421875 38.515625 23.578125 
Q 35.890625 20.75 35.890625 13.375 
L 35.890625 1.703125 
Q 35.890625 -9.078125 31.8125 -12.6875 
Q 27.734375 -16.3125 15.578125 -16.3125 
L 12.5 -16.3125 
z
" id="BitstreamVeraSans-Roman-7d"/>
     <path d="M 10.984375 1.515625 
L 10.984375 10.5 
Q 14.703125 8.734375 18.5 7.8125 
Q 22.3125 6.890625 25.984375 6.890625 
Q 35.75 6.890625 40.890625 13.453125 
Q 46.046875 20.015625 46.78125 33.40625 
Q 43.953125 29.203125 39.59375 26.953125 
Q 35.25 24.703125 29.984375 24.703125 
Q 19.046875 24.703125 12.671875 31.3125 
Q 6.296875 37.9375 6.296875 49.421875 
Q 6.296875 60.640625 12.9375 67.421875 
Q 19.578125 74.21875 30.609375 74.21875 
Q 43.265625 74.21875 49.921875 64.515625 
Q 56.59375 54.828125 56.59375 36.375 
Q 56.59375 19.140625 48.40625 8.859375 
Q 40.234375 -1.421875 26.421875 -1.421875 
Q 22.703125 -1.421875 18.890625 -0.6875 
Q 15.09375 0.046875 10.984375 1.515625 
M 30.609375 32.421875 
Q 37.25 32.421875 41.125 36.953125 
Q 45.015625 41.5 45.015625 49.421875 
Q 45.015625 57.28125 41.125 61.84375 
Q 37.25 66.40625 30.609375 66.40625 
Q 23.96875 66.40625 20.09375 61.84375 
Q 16.21875 57.28125 16.21875 49.421875 
Q 16.21875 41.5 20.09375 36.953125 
Q 23.96875 32.421875 30.609375 32.421875 
" id="BitstreamVeraSans-Roman-39"/>
     <path d="M 51.125 -9.28125 
L 51.125 -16.3125 
L 48.09375 -16.3125 
Q 35.9375 -16.3125 31.8125 -12.6875 
Q 27.6875 -9.078125 27.6875 1.703125 
L 27.6875 13.375 
Q 27.6875 20.75 25.046875 23.578125 
Q 22.40625 26.421875 15.484375 26.421875 
L 12.5 26.421875 
L 12.5 33.40625 
L 15.484375 33.40625 
Q 22.46875 33.40625 25.078125 36.203125 
Q 27.6875 39.015625 27.6875 46.296875 
L 27.6875 58.015625 
Q 27.6875 68.796875 31.8125 72.390625 
Q 35.9375 75.984375 48.09375 75.984375 
L 51.125 75.984375 
L 51.125 69 
L 47.796875 69 
Q 40.921875 69 38.8125 66.84375 
Q 36.71875 64.703125 36.71875 57.8125 
L 36.71875 45.703125 
Q 36.71875 38.03125 34.5 34.5625 
Q 32.28125 31.109375 26.90625 29.890625 
Q 32.328125 28.5625 34.515625 25.09375 
Q 36.71875 21.625 36.71875 14.015625 
L 36.71875 1.90625 
Q 36.71875 -4.984375 38.8125 -7.125 
Q 40.921875 -9.28125 47.796875 -9.28125 
z
" id="BitstreamVeraSans-Roman-7b"/>
     <path d="M 11.71875 12.40625 
L 22.015625 12.40625 
L 22.015625 4 
L 14.015625 -11.625 
L 7.71875 -11.625 
L 11.71875 4 
z
" id="BitstreamVeraSans-Roman-2c"/>
     <path d="M 10.796875 72.90625 
L 49.515625 72.90625 
L 49.515625 64.59375 
L 19.828125 64.59375 
L 19.828125 46.734375 
Q 21.96875 47.46875 24.109375 47.828125 
Q 26.265625 48.1875 28.421875 48.1875 
Q 40.625 48.1875 47.75 41.5 
Q 54.890625 34.8125 54.890625 23.390625 
Q 54.890625 11.625 47.5625 5.09375 
Q 40.234375 -1.421875 26.90625 -1.421875 
Q 22.3125 -1.421875 17.546875 -0.640625 
Q 12.796875 0.140625 7.71875 1.703125 
L 7.71875 11.625 
Q 12.109375 9.234375 16.796875 8.0625 
Q 21.484375 6.890625 26.703125 6.890625 
Q 35.15625 6.890625 40.078125 11.328125 
Q 45.015625 15.765625 45.015625 23.390625 
Q 45.015625 31 40.078125 35.4375 
Q 35.15625 39.890625 26.703125 39.890625 
Q 22.75 39.890625 18.8125 39.015625 
Q 14.890625 38.140625 10.796875 36.28125 
z
" id="BitstreamVeraSans-Roman-35"/>
    </defs>
    <g transform="translate(410.2552 376.38)scale(0.2 -0.2)">
     <use xlink:href="#BitstreamVeraSans-Roman-7b"/>
     <use x="63.623046875" xlink:href="#BitstreamVeraSans-Roman-66"/>
     <use x="98.828125" xlink:href="#BitstreamVeraSans-Roman-31"/>
     <use x="162.451171875" xlink:href="#BitstreamVeraSans-Roman-35"/>
     <use x="226.07421875" xlink:href="#BitstreamVeraSans-Roman-2d"/>
     <use x="262.158203125" xlink:href="#BitstreamVeraSans-Roman-66"/>
     <use x="297.36328125" xlink:href="#BitstreamVeraSans-Roman-31"/>
     <use x="360.986328125" xlink:href="#BitstreamVeraSans-Roman-39"/>
     <use x="424.609375" xlink:href="#BitstreamVeraSans-Roman-7d"/>
     <use x="488.232421875" xlink:href="#BitstreamVeraSans-Roman-2c"/>
     <use x="520.01953125" xlink:href="#BitstreamVeraSans-Roman-20"/>
     <use x="551.806640625" xlink:href="#BitstreamVeraSans-Roman-35"/>
     <use x="615.4296875" xlink:href="#BitstreamVeraSans-Roman-2d"/>
     <use x="651.513671875" xlink:href="#BitstreamVeraSans-Roman-44"/>
    </g>
   </g>
   <g id="text_11">
    <!-- v2.2.1.10 -->
    <defs>
     <path d="M 2.984375 54.6875 
L 12.5 54.6875 
L 29.59375 8.796875 
L 46.6875 54.6875 
L 56.203125 54.6875 
L 35.6875 0 
L 23.484375 0 
z
" id="BitstreamVeraSans-Roman-76"/>
     <path d="M 10.6875 12.40625 
L 21 12.40625 
L 21 0 
L 10.6875 0 
z
" id="BitstreamVeraSans-Roman-2e"/>
    </defs>
    <g style="fill:#808080;" transform="translate(261.4871875 378.1103125)scale(0.1 -0.1)">
     <use xlink:href="#BitstreamVeraSans-Roman-76"/>
     <use x="59.1796875" xlink:href="#BitstreamVeraSans-Roman-32"/>
     <use x="122.802734375" xlink:href="#BitstreamVeraSans-Roman-2e"/>
     <use x="154.58984375" xlink:href="#BitstreamVeraSans-Roman-32"/>
     <use x="218.212890625" xlink:href="#BitstreamVeraSans-Roman-2e"/>
     <use x="250.0" xlink:href="#BitstreamVeraSans-Roman-31"/>
     <use x="313.623046875" xlink:href="#BitstreamVeraSans-Roman-2e"/>
     <use x="345.41015625" xlink:href="#BitstreamVeraSans-Roman-31"/>
     <use x="409.033203125" xlink:href="#BitstreamVeraSans-Roman-30"/>
    </g>
   </g>
  </g>
 </g>
 <defs>
  <clipPath id="p10b5db0f6a">
   <rect height="381.0" width="564.24" x="3.0" y="3.0"/>
  </clipPath>
 </defs>
</svg>
