<?xml version="1.0" encoding="utf-8" standalone="no"?>
<!DOCTYPE svg PUBLIC "-//W3C//DTD SVG 1.1//EN"
  "http://www.w3.org/Graphics/SVG/1.1/DTD/svg11.dtd">
<!-- Created with matplotlib (http://matplotlib.org/) -->
<svg height="432pt" version="1.1" viewBox="0 0 576 432" width="576pt" xmlns="http://www.w3.org/2000/svg" xmlns:xlink="http://www.w3.org/1999/xlink">
 <defs>
  <style type="text/css">
*{stroke-linecap:butt;stroke-linejoin:round;stroke-miterlimit:100000;}
  </style>
 </defs>
 <g id="figure_1">
  <g id="patch_1">
   <path d="M 0 432 
L 576 432 
L 576 0 
L 0 0 
z
" style="fill:#ffffff;"/>
  </g>
  <g id="axes_1">
   <g id="patch_2">
    <path d="M 3 384 
L 567.24 384 
L 567.24 3 
L 3 3 
z
" style="fill:#ffffff;"/>
   </g>
   <g id="line2d_1">
    <path clip-path="url(#pf870784b18)" d="M 248.482486 384 
L 248.482486 378.970297 
L 248.482486 378.970297 
L 248.482486 378.970297 
L 248.482486 373.940594 
L 248.482486 373.940594 
L 248.482486 373.940594 
L 248.482486 368.910891 
L 248.482486 368.910891 
L 248.482486 368.910891 
L 248.482486 363.881188 
L 248.482486 363.881188 
L 248.482486 363.881188 
L 248.482486 358.851485 
L 248.482486 358.851485 
L 248.482486 358.851485 
L 248.482486 353.821782 
L 248.482486 353.821782 
L 248.482486 353.821782 
L 248.482486 348.792079 
L 248.482486 348.792079 
L 248.482486 348.792079 
L 248.482486 343.762376 
L 248.482486 343.762376 
L 248.482486 343.762376 
L 248.482486 338.732673 
L 248.482486 338.732673 
L 248.482486 338.732673 
L 248.482486 333.70297 
L 248.482486 333.70297 
L 248.482486 333.70297 
L 248.482486 328.673267 
L 248.482486 328.673267 
L 248.482486 328.673267 
L 248.482486 323.643564 
L 248.482486 323.643564 
L 248.482486 323.643564 
L 248.482486 318.613861 
L 248.482486 318.613861 
L 248.482486 318.613861 
L 248.482486 313.584158 
L 248.482486 313.584158 
L 248.482486 313.584158 
L 248.482486 308.554455 
L 293.878661 308.554455 
L 293.878661 303.524752 
L 296.488943 303.524752 
L 296.488943 298.49505 
L 297.340189 298.49505 
L 297.340189 293.465347 
L 297.641669 293.465347 
L 297.641669 288.435644 
L 297.917913 288.435644 
L 297.917913 283.405941 
L 298.132113 283.405941 
L 298.132113 278.376238 
L 298.802867 278.376238 
L 298.811466 268.316832 
L 298.971861 268.316832 
L 298.971861 263.287129 
L 299.234603 263.287129 
L 299.234603 258.257426 
L 299.533065 258.257426 
L 299.600071 248.19802 
L 299.658981 248.19802 
L 299.658981 243.168317 
L 299.871739 243.168317 
L 299.871739 238.138614 
L 302.771341 238.138614 
L 302.771341 233.108911 
L 308.915924 233.108911 
L 308.915924 228.079208 
L 309.513414 228.079208 
L 309.513414 223.049505 
L 311.703217 223.049505 
L 311.703217 218.019802 
L 312.264503 218.019802 
L 312.264503 212.990099 
L 312.856183 212.990099 
L 312.95254 202.930693 
L 313.096751 202.930693 
L 313.096751 197.90099 
L 313.251555 197.90099 
L 313.251555 192.871287 
L 313.394343 192.871287 
L 313.394343 187.841584 
L 313.701587 187.841584 
L 313.701587 182.811881 
L 313.919124 182.811881 
L 314.008553 167.722772 
L 314.159392 167.722772 
L 314.159392 162.693069 
L 314.826537 162.693069 
L 314.826537 157.663366 
L 315.232858 157.663366 
L 315.232858 152.633663 
L 315.349803 152.633663 
L 315.349803 147.60396 
L 315.585642 147.60396 
L 315.585642 142.574257 
L 316.067988 142.574257 
L 316.067988 137.544554 
L 316.523988 137.544554 
L 316.523988 132.514851 
L 317.208186 132.514851 
L 317.208186 127.485149 
L 317.335532 127.485149 
L 317.437099 117.425743 
L 317.504213 117.425743 
L 317.504213 112.39604 
L 318.571627 112.39604 
L 318.571627 107.366337 
L 319.063599 107.366337 
L 319.126314 92.277228 
L 320.268929 92.277228 
L 320.268929 87.247525 
L 320.689818 87.247525 
L 320.689818 82.217822 
L 353.116191 82.217822 
L 353.116191 77.188119 
L 353.598135 77.188119 
L 353.598135 72.158416 
L 354.24462 72.158416 
L 354.24462 67.128713 
L 354.793825 67.128713 
L 354.793825 62.09901 
L 355.018998 62.09901 
L 355.073522 52.039604 
L 355.136278 52.039604 
L 355.136278 47.009901 
L 355.348923 47.009901 
L 355.356992 36.950495 
L 355.981461 36.950495 
L 355.981461 31.920792 
L 356.264664 31.920792 
L 356.264664 26.891089 
L 356.653025 26.891089 
L 356.653025 21.861386 
L 356.802978 21.861386 
L 356.802978 16.831683 
L 357.069681 16.831683 
L 357.069681 11.80198 
L 358.687613 11.80198 
L 358.687613 6.772277 
L 358.687613 6.772277 
L 567.24 6.772277 
L 567.24 6.772277 
" style="fill:none;stroke:#ff0000;stroke-linecap:square;stroke-width:3.0;"/>
   </g>
   <g id="line2d_2">
    <path clip-path="url(#pf870784b18)" d="M 248.482486 384 
L 248.482486 378.970297 
L 248.482486 378.970297 
L 248.482486 378.970297 
L 248.482486 373.940594 
L 248.482486 373.940594 
L 248.482486 373.940594 
L 248.482486 368.910891 
L 248.482486 368.910891 
L 248.482486 368.910891 
L 248.482486 363.881188 
L 248.482486 363.881188 
L 248.482486 363.881188 
L 248.482486 358.851485 
L 248.482486 358.851485 
L 248.482486 358.851485 
L 248.482486 353.821782 
L 248.482486 353.821782 
L 248.482486 353.821782 
L 248.482486 348.792079 
L 248.482486 348.792079 
L 248.482486 348.792079 
L 248.482486 343.762376 
L 248.482486 343.762376 
L 248.482486 343.762376 
L 248.482486 338.732673 
L 248.482486 338.732673 
L 248.482486 338.732673 
L 248.482486 333.70297 
L 248.482486 333.70297 
L 248.482486 333.70297 
L 248.482486 328.673267 
L 248.482486 328.673267 
L 248.482486 328.673267 
L 248.482486 323.643564 
L 248.482486 323.643564 
L 248.482486 323.643564 
L 248.482486 318.613861 
L 248.482486 318.613861 
L 248.482486 318.613861 
L 248.482486 313.584158 
L 248.482486 313.584158 
L 248.482486 313.584158 
L 248.482486 308.554455 
L 304.714529 308.554455 
L 304.8111 298.49505 
L 305.158578 298.49505 
L 305.158578 293.465347 
L 306.912784 293.465347 
L 306.964568 278.376238 
L 307.455253 278.376238 
L 307.455253 273.346535 
L 308.195969 273.346535 
L 308.195969 268.316832 
L 308.391847 268.316832 
L 308.446538 258.257426 
L 308.903386 258.257426 
L 308.903386 253.227723 
L 311.517583 253.227723 
L 311.517583 248.19802 
L 311.814679 248.19802 
L 311.814679 243.168317 
L 314.108927 243.168317 
L 314.108927 238.138614 
L 320.001619 238.138614 
L 320.001619 233.108911 
L 321.438158 233.108911 
L 321.534683 218.019802 
L 321.56419 218.019802 
L 321.56419 212.990099 
L 322.178228 212.990099 
L 322.178228 207.960396 
L 322.424655 207.960396 
L 322.424655 202.930693 
L 323.313182 202.930693 
L 323.313182 197.90099 
L 324.338705 197.90099 
L 324.338705 192.871287 
L 324.588765 192.871287 
L 324.613532 182.811881 
L 325.140807 182.811881 
L 325.140807 177.782178 
L 325.816313 177.782178 
L 325.816313 172.752475 
L 326.004483 172.752475 
L 326.104787 157.663366 
L 326.226496 157.663366 
L 326.226496 152.633663 
L 326.345385 152.633663 
L 326.437939 137.544554 
L 326.532686 137.544554 
L 326.532686 132.514851 
L 326.784622 132.514851 
L 326.784622 127.485149 
L 326.976778 127.485149 
L 326.976778 122.455446 
L 327.334495 122.455446 
L 327.334495 117.425743 
L 329.165211 117.425743 
L 329.231964 107.366337 
L 330.770336 107.366337 
L 330.770336 102.336634 
L 330.888911 102.336634 
L 330.888911 97.306931 
L 333.20087 97.306931 
L 333.20087 92.277228 
L 336.184162 92.277228 
L 336.184162 87.247525 
L 341.39147 87.247525 
L 341.39147 82.217822 
L 359.276017 82.217822 
L 359.276017 77.188119 
L 360.286521 77.188119 
L 360.286521 72.158416 
L 360.942235 72.158416 
L 360.942235 67.128713 
L 361.198541 67.128713 
L 361.198541 62.09901 
L 361.594699 62.09901 
L 361.594699 57.069307 
L 361.831519 57.069307 
L 361.831519 52.039604 
L 362.347084 52.039604 
L 362.347084 47.009901 
L 362.636848 47.009901 
L 362.636848 41.980198 
L 362.986823 41.980198 
L 362.986823 36.950495 
L 363.520603 36.950495 
L 363.520603 31.920792 
L 363.745168 31.920792 
L 363.745168 26.891089 
L 364.195856 26.891089 
L 364.195856 21.861386 
L 366.747503 21.861386 
L 366.747503 16.831683 
L 366.877812 16.831683 
L 366.877812 11.80198 
L 369.169068 11.80198 
L 369.169068 6.772277 
L 369.169068 6.772277 
L 567.24 6.772277 
L 567.24 6.772277 
" style="fill:none;stroke:#00bfbf;stroke-linecap:square;"/>
   </g>
   <g id="line2d_3">
    <path clip-path="url(#pf870784b18)" d="M 248.482486 384 
L 248.482486 378.970297 
L 248.482486 378.970297 
L 248.482486 378.970297 
L 248.482486 373.940594 
L 248.482486 373.940594 
L 248.482486 373.940594 
L 248.482486 368.910891 
L 248.482486 368.910891 
L 248.482486 368.910891 
L 248.482486 363.881188 
L 248.482486 363.881188 
L 248.482486 363.881188 
L 248.482486 358.851485 
L 248.482486 358.851485 
L 248.482486 358.851485 
L 248.482486 353.821782 
L 248.482486 353.821782 
L 248.482486 353.821782 
L 248.482486 348.792079 
L 248.482486 348.792079 
L 248.482486 348.792079 
L 248.482486 343.762376 
L 248.482486 343.762376 
L 248.482486 343.762376 
L 248.482486 338.732673 
L 248.482486 338.732673 
L 248.482486 338.732673 
L 248.482486 333.70297 
L 248.482486 333.70297 
L 248.482486 333.70297 
L 248.482486 328.673267 
L 248.482486 328.673267 
L 248.482486 328.673267 
L 248.482486 323.643564 
L 248.482486 323.643564 
L 248.482486 323.643564 
L 248.482486 318.613861 
L 248.482486 318.613861 
L 248.482486 318.613861 
L 248.482486 313.584158 
L 248.482486 313.584158 
L 248.482486 313.584158 
L 248.482486 308.554455 
L 304.714529 308.554455 
L 304.8111 298.49505 
L 305.158578 298.49505 
L 305.158578 293.465347 
L 306.692337 293.465347 
L 306.692337 288.435644 
L 306.912784 288.435644 
L 306.913486 278.376238 
L 307.367172 278.376238 
L 307.455253 268.316832 
L 308.195969 268.316832 
L 308.195969 263.287129 
L 308.446538 263.287129 
L 308.446538 258.257426 
L 308.903386 258.257426 
L 308.903386 253.227723 
L 311.517583 253.227723 
L 311.517583 248.19802 
L 311.814679 248.19802 
L 311.814679 243.168317 
L 314.108927 243.168317 
L 314.108927 238.138614 
L 320.001619 238.138614 
L 320.001619 233.108911 
L 320.584393 233.108911 
L 320.584393 228.079208 
L 321.438158 228.079208 
L 321.534683 212.990099 
L 321.56419 212.990099 
L 321.56419 207.960396 
L 322.178228 207.960396 
L 322.178228 202.930693 
L 323.198069 202.930693 
L 323.256274 192.871287 
L 323.313182 192.871287 
L 323.313182 187.841584 
L 323.674217 187.841584 
L 323.674217 182.811881 
L 324.338705 182.811881 
L 324.338705 177.782178 
L 324.588765 177.782178 
L 324.588765 172.752475 
L 325.816313 172.752475 
L 325.816313 167.722772 
L 326.053455 167.722772 
L 326.104787 157.663366 
L 326.195236 157.663366 
L 326.226496 147.60396 
L 326.345385 147.60396 
L 326.437939 132.514851 
L 326.594608 132.514851 
L 326.594608 127.485149 
L 326.784622 127.485149 
L 326.784622 122.455446 
L 326.976778 122.455446 
L 326.976778 117.425743 
L 327.334495 117.425743 
L 327.334495 112.39604 
L 329.00026 112.39604 
L 329.00026 107.366337 
L 329.165211 107.366337 
L 329.231964 97.306931 
L 329.541357 97.306931 
L 329.541357 92.277228 
L 330.770336 92.277228 
L 330.770336 87.247525 
L 336.184162 87.247525 
L 336.184162 82.217822 
L 359.021183 82.217822 
L 359.021183 77.188119 
L 359.276017 77.188119 
L 359.276017 72.158416 
L 360.286521 72.158416 
L 360.286521 67.128713 
L 361.198541 67.128713 
L 361.198541 62.09901 
L 361.594699 62.09901 
L 361.594699 57.069307 
L 361.831519 57.069307 
L 361.831519 52.039604 
L 362.347084 52.039604 
L 362.347084 47.009901 
L 362.636848 47.009901 
L 362.636848 41.980198 
L 362.986823 41.980198 
L 362.986823 36.950495 
L 363.520603 36.950495 
L 363.520603 31.920792 
L 363.745168 31.920792 
L 363.745168 26.891089 
L 364.195856 26.891089 
L 364.195856 21.861386 
L 366.747503 21.861386 
L 366.747503 16.831683 
L 366.877812 16.831683 
L 366.877812 11.80198 
L 369.169068 11.80198 
L 369.169068 6.772277 
L 369.169068 6.772277 
L 567.24 6.772277 
L 567.24 6.772277 
" style="fill:none;stroke:#bf00bf;stroke-linecap:square;"/>
   </g>
   <g id="line2d_4">
    <path clip-path="url(#pf870784b18)" d="M 248.482486 384 
L 248.482486 378.970297 
L 248.482486 378.970297 
L 248.482486 378.970297 
L 248.482486 373.940594 
L 248.482486 373.940594 
L 248.482486 373.940594 
L 248.482486 368.910891 
L 248.482486 368.910891 
L 248.482486 368.910891 
L 248.482486 363.881188 
L 248.482486 363.881188 
L 248.482486 363.881188 
L 248.482486 358.851485 
L 248.482486 358.851485 
L 248.482486 358.851485 
L 248.482486 353.821782 
L 248.482486 353.821782 
L 248.482486 353.821782 
L 248.482486 348.792079 
L 248.482486 348.792079 
L 248.482486 348.792079 
L 248.482486 343.762376 
L 248.482486 343.762376 
L 248.482486 343.762376 
L 248.482486 338.732673 
L 248.482486 338.732673 
L 248.482486 338.732673 
L 248.482486 333.70297 
L 248.482486 333.70297 
L 248.482486 333.70297 
L 248.482486 328.673267 
L 248.482486 328.673267 
L 248.482486 328.673267 
L 248.482486 323.643564 
L 248.482486 323.643564 
L 248.482486 323.643564 
L 248.482486 318.613861 
L 248.482486 318.613861 
L 248.482486 318.613861 
L 248.482486 313.584158 
L 248.482486 313.584158 
L 248.482486 313.584158 
L 248.482486 308.554455 
L 304.714529 308.554455 
L 304.8111 298.49505 
L 305.158578 298.49505 
L 305.158578 293.465347 
L 306.692337 293.465347 
L 306.692337 288.435644 
L 306.912784 288.435644 
L 306.913486 278.376238 
L 307.367172 278.376238 
L 307.455253 268.316832 
L 308.195969 268.316832 
L 308.195969 263.287129 
L 308.446538 263.287129 
L 308.446538 258.257426 
L 308.903386 258.257426 
L 308.903386 253.227723 
L 311.517583 253.227723 
L 311.517583 248.19802 
L 311.814679 248.19802 
L 311.814679 243.168317 
L 314.108927 243.168317 
L 314.108927 238.138614 
L 320.001619 238.138614 
L 320.001619 233.108911 
L 320.584393 233.108911 
L 320.584393 228.079208 
L 321.438158 228.079208 
L 321.534683 212.990099 
L 321.56419 212.990099 
L 321.56419 207.960396 
L 322.178228 207.960396 
L 322.178228 202.930693 
L 323.198069 202.930693 
L 323.256274 192.871287 
L 323.313182 192.871287 
L 323.313182 187.841584 
L 323.674217 187.841584 
L 323.674217 182.811881 
L 324.338705 182.811881 
L 324.338705 177.782178 
L 324.588765 177.782178 
L 324.588765 172.752475 
L 325.816313 172.752475 
L 325.816313 167.722772 
L 326.053455 167.722772 
L 326.104787 157.663366 
L 326.195236 157.663366 
L 326.226496 147.60396 
L 326.345385 147.60396 
L 326.437939 132.514851 
L 326.594608 132.514851 
L 326.594608 127.485149 
L 326.784622 127.485149 
L 326.784622 122.455446 
L 326.976778 122.455446 
L 326.976778 117.425743 
L 327.334495 117.425743 
L 327.334495 112.39604 
L 329.00026 112.39604 
L 329.00026 107.366337 
L 329.165211 107.366337 
L 329.231964 97.306931 
L 329.541357 97.306931 
L 329.541357 92.277228 
L 330.770336 92.277228 
L 330.770336 87.247525 
L 336.184162 87.247525 
L 336.184162 82.217822 
L 359.021183 82.217822 
L 359.021183 77.188119 
L 359.276017 77.188119 
L 359.276017 72.158416 
L 360.286521 72.158416 
L 360.286521 67.128713 
L 361.198541 67.128713 
L 361.198541 62.09901 
L 361.594699 62.09901 
L 361.594699 57.069307 
L 361.831519 57.069307 
L 361.831519 52.039604 
L 362.347084 52.039604 
L 362.347084 47.009901 
L 362.636848 47.009901 
L 362.636848 41.980198 
L 362.986823 41.980198 
L 362.986823 36.950495 
L 363.520603 36.950495 
L 363.520603 31.920792 
L 363.745168 31.920792 
L 363.745168 26.891089 
L 364.195856 26.891089 
L 364.195856 21.861386 
L 366.747503 21.861386 
L 366.747503 16.831683 
L 366.877812 16.831683 
L 366.877812 11.80198 
L 369.169068 11.80198 
L 369.169068 6.772277 
L 369.169068 6.772277 
L 567.24 6.772277 
L 567.24 6.772277 
" style="fill:none;stroke:#000000;stroke-linecap:square;"/>
   </g>
   <g id="line2d_5">
    <path clip-path="url(#pf870784b18)" d="M 248.482486 384 
L 248.482486 378.970297 
L 248.482486 378.970297 
L 248.482486 378.970297 
L 248.482486 373.940594 
L 248.482486 373.940594 
L 248.482486 373.940594 
L 248.482486 368.910891 
L 248.482486 368.910891 
L 248.482486 368.910891 
L 248.482486 363.881188 
L 248.482486 363.881188 
L 248.482486 363.881188 
L 248.482486 358.851485 
L 248.482486 358.851485 
L 248.482486 358.851485 
L 248.482486 353.821782 
L 248.482486 353.821782 
L 248.482486 353.821782 
L 248.482486 348.792079 
L 248.482486 348.792079 
L 248.482486 348.792079 
L 248.482486 343.762376 
L 248.482486 343.762376 
L 248.482486 343.762376 
L 248.482486 338.732673 
L 248.482486 338.732673 
L 248.482486 338.732673 
L 248.482486 333.70297 
L 248.482486 333.70297 
L 248.482486 333.70297 
L 248.482486 328.673267 
L 248.482486 328.673267 
L 248.482486 328.673267 
L 248.482486 323.643564 
L 248.482486 323.643564 
L 248.482486 323.643564 
L 248.482486 318.613861 
L 248.482486 318.613861 
L 248.482486 318.613861 
L 248.482486 313.584158 
L 248.482486 313.584158 
L 248.482486 313.584158 
L 248.482486 308.554455 
L 304.714529 308.554455 
L 304.8111 298.49505 
L 305.158578 298.49505 
L 305.158578 293.465347 
L 306.692337 293.465347 
L 306.692337 288.435644 
L 306.912784 288.435644 
L 306.913486 278.376238 
L 307.367172 278.376238 
L 307.455253 268.316832 
L 307.982764 268.316832 
L 307.982764 263.287129 
L 308.446538 263.287129 
L 308.446538 258.257426 
L 308.903386 258.257426 
L 308.903386 253.227723 
L 311.517583 253.227723 
L 311.517583 248.19802 
L 311.814679 248.19802 
L 311.814679 243.168317 
L 314.108927 243.168317 
L 314.108927 238.138614 
L 320.001619 238.138614 
L 320.001619 233.108911 
L 320.584393 233.108911 
L 320.584393 228.079208 
L 321.438158 228.079208 
L 321.534683 212.990099 
L 321.56419 212.990099 
L 321.56419 207.960396 
L 322.178228 207.960396 
L 322.178228 202.930693 
L 323.198069 202.930693 
L 323.256274 192.871287 
L 323.313182 192.871287 
L 323.313182 187.841584 
L 323.674217 187.841584 
L 323.674217 182.811881 
L 324.338705 182.811881 
L 324.338705 177.782178 
L 324.588765 177.782178 
L 324.588765 172.752475 
L 325.816313 172.752475 
L 325.816313 167.722772 
L 326.053455 167.722772 
L 326.104787 157.663366 
L 326.195236 157.663366 
L 326.226496 147.60396 
L 326.345385 147.60396 
L 326.437939 127.485149 
L 326.594608 127.485149 
L 326.594608 122.455446 
L 326.976778 122.455446 
L 326.976778 117.425743 
L 327.334495 117.425743 
L 327.334495 112.39604 
L 329.00026 112.39604 
L 329.00026 107.366337 
L 329.165211 107.366337 
L 329.231964 97.306931 
L 329.541357 97.306931 
L 329.541357 92.277228 
L 330.770336 92.277228 
L 330.770336 87.247525 
L 336.184162 87.247525 
L 336.184162 82.217822 
L 359.021183 82.217822 
L 359.021183 77.188119 
L 359.276017 77.188119 
L 359.276017 72.158416 
L 360.286521 72.158416 
L 360.286521 67.128713 
L 361.198541 67.128713 
L 361.198541 62.09901 
L 361.594699 62.09901 
L 361.594699 57.069307 
L 361.831519 57.069307 
L 361.831519 52.039604 
L 362.347084 52.039604 
L 362.347084 47.009901 
L 362.636848 47.009901 
L 362.636848 41.980198 
L 362.986823 41.980198 
L 362.986823 36.950495 
L 363.520603 36.950495 
L 363.520603 31.920792 
L 363.745168 31.920792 
L 363.745168 26.891089 
L 364.195856 26.891089 
L 364.195856 21.861386 
L 366.747503 21.861386 
L 366.747503 16.831683 
L 366.877812 16.831683 
L 366.877812 11.80198 
L 369.169068 11.80198 
L 369.169068 6.772277 
L 369.169068 6.772277 
L 567.24 6.772277 
L 567.24 6.772277 
" style="fill:none;stroke:#00bfbf;stroke-linecap:square;"/>
   </g>
   <g id="line2d_6">
    <path clip-path="url(#pf870784b18)" d="M 248.482486 384 
L 248.482486 378.970297 
L 248.482486 378.970297 
L 248.482486 378.970297 
L 248.482486 373.940594 
L 248.482486 373.940594 
L 248.482486 373.940594 
L 248.482486 368.910891 
L 248.482486 368.910891 
L 248.482486 368.910891 
L 248.482486 363.881188 
L 248.482486 363.881188 
L 248.482486 363.881188 
L 248.482486 358.851485 
L 248.482486 358.851485 
L 248.482486 358.851485 
L 248.482486 353.821782 
L 248.482486 353.821782 
L 248.482486 353.821782 
L 248.482486 348.792079 
L 248.482486 348.792079 
L 248.482486 348.792079 
L 248.482486 343.762376 
L 248.482486 343.762376 
L 248.482486 343.762376 
L 248.482486 338.732673 
L 248.482486 338.732673 
L 248.482486 338.732673 
L 248.482486 333.70297 
L 248.482486 333.70297 
L 248.482486 333.70297 
L 248.482486 328.673267 
L 248.482486 328.673267 
L 248.482486 328.673267 
L 248.482486 323.643564 
L 248.482486 323.643564 
L 248.482486 323.643564 
L 248.482486 318.613861 
L 248.482486 318.613861 
L 248.482486 318.613861 
L 248.482486 313.584158 
L 248.482486 313.584158 
L 248.482486 313.584158 
L 248.482486 308.554455 
L 301.894461 308.554455 
L 301.964188 298.49505 
L 303.250442 298.49505 
L 303.250442 293.465347 
L 303.843686 293.465347 
L 303.843686 288.435644 
L 304.022774 288.435644 
L 304.022774 283.405941 
L 304.963866 283.405941 
L 304.963866 278.376238 
L 305.158578 278.376238 
L 305.158578 273.346535 
L 305.366372 273.346535 
L 305.366372 268.316832 
L 306.109704 268.316832 
L 306.140151 258.257426 
L 306.913486 258.257426 
L 306.913486 253.227723 
L 307.79916 253.227723 
L 307.79916 248.19802 
L 310.177235 248.19802 
L 310.177235 243.168317 
L 311.434749 243.168317 
L 311.434749 238.138614 
L 312.549089 238.138614 
L 312.549089 233.108911 
L 316.580032 233.108911 
L 316.580032 228.079208 
L 317.850614 228.079208 
L 317.850614 223.049505 
L 318.760127 223.049505 
L 318.760127 218.019802 
L 319.151869 218.019802 
L 319.151869 212.990099 
L 319.969469 212.990099 
L 320.060426 202.930693 
L 320.359117 202.930693 
L 320.359117 197.90099 
L 320.619579 197.90099 
L 320.620044 187.841584 
L 321.034469 187.841584 
L 321.034469 182.811881 
L 321.513461 182.811881 
L 321.56419 172.752475 
L 321.626541 172.752475 
L 321.626541 167.722772 
L 321.847352 167.722772 
L 321.880525 157.663366 
L 322.704465 157.663366 
L 322.704465 152.633663 
L 323.172586 152.633663 
L 323.256274 142.574257 
L 323.313182 142.574257 
L 323.313182 137.544554 
L 323.933065 137.544554 
L 323.933065 132.514851 
L 324.338705 132.514851 
L 324.338705 127.485149 
L 325.211433 127.485149 
L 325.211433 122.455446 
L 326.345385 122.455446 
L 326.393674 107.366337 
L 327.009326 107.366337 
L 327.009326 102.336634 
L 328.572475 102.336634 
L 328.572475 97.306931 
L 329.165211 97.306931 
L 329.231964 87.247525 
L 331.477637 87.247525 
L 331.477637 82.217822 
L 357.746669 82.217822 
L 357.746669 77.188119 
L 359.021183 77.188119 
L 359.021183 72.158416 
L 359.276017 72.158416 
L 359.276017 67.128713 
L 359.965186 67.128713 
L 359.965186 62.09901 
L 360.286521 62.09901 
L 360.286521 57.069307 
L 360.487454 57.069307 
L 360.534061 47.009901 
L 360.976921 47.009901 
L 360.976921 41.980198 
L 362.347084 41.980198 
L 362.347084 36.950495 
L 362.636848 36.950495 
L 362.636848 31.920792 
L 363.037932 31.920792 
L 363.037932 26.891089 
L 363.520603 26.891089 
L 363.520603 21.861386 
L 363.745168 21.861386 
L 363.745168 16.831683 
L 364.280634 16.831683 
L 364.280634 11.80198 
L 366.246372 11.80198 
L 366.246372 6.772277 
L 366.246372 6.772277 
L 567.24 6.772277 
L 567.24 6.772277 
" style="fill:none;stroke:#bf00bf;stroke-linecap:square;"/>
   </g>
   <g id="line2d_7">
    <path clip-path="url(#pf870784b18)" d="M 248.482486 384 
L 248.482486 378.970297 
L 248.482486 378.970297 
L 248.482486 378.970297 
L 248.482486 373.940594 
L 248.482486 373.940594 
L 248.482486 373.940594 
L 248.482486 368.910891 
L 248.482486 368.910891 
L 248.482486 368.910891 
L 248.482486 363.881188 
L 248.482486 363.881188 
L 248.482486 363.881188 
L 248.482486 358.851485 
L 248.482486 358.851485 
L 248.482486 358.851485 
L 248.482486 353.821782 
L 248.482486 353.821782 
L 248.482486 353.821782 
L 248.482486 348.792079 
L 248.482486 348.792079 
L 248.482486 348.792079 
L 248.482486 343.762376 
L 248.482486 343.762376 
L 248.482486 343.762376 
L 248.482486 338.732673 
L 248.482486 338.732673 
L 248.482486 338.732673 
L 248.482486 333.70297 
L 248.482486 333.70297 
L 248.482486 333.70297 
L 248.482486 328.673267 
L 248.482486 328.673267 
L 248.482486 328.673267 
L 248.482486 323.643564 
L 248.482486 323.643564 
L 248.482486 323.643564 
L 248.482486 318.613861 
L 248.482486 318.613861 
L 248.482486 318.613861 
L 248.482486 313.584158 
L 248.482486 313.584158 
L 248.482486 313.584158 
L 248.482486 308.554455 
L 298.132113 308.554455 
L 298.132113 303.524752 
L 300.790478 303.524752 
L 300.79496 293.465347 
L 301.488327 293.465347 
L 301.488327 288.435644 
L 301.894461 288.435644 
L 301.979413 278.376238 
L 302.696079 278.376238 
L 302.696079 273.346535 
L 303.174937 273.346535 
L 303.174937 268.316832 
L 303.625735 268.316832 
L 303.654992 253.227723 
L 303.843686 253.227723 
L 303.843686 248.19802 
L 304.596198 248.19802 
L 304.596198 243.168317 
L 304.913847 243.168317 
L 304.913847 238.138614 
L 310.709454 238.138614 
L 310.709454 233.108911 
L 314.008553 233.108911 
L 314.008553 228.079208 
L 314.920782 228.079208 
L 314.920782 223.049505 
L 315.232858 223.049505 
L 315.232858 218.019802 
L 315.904785 218.019802 
L 315.955356 207.960396 
L 316.580032 207.960396 
L 316.580032 202.930693 
L 317.208186 202.930693 
L 317.208186 197.90099 
L 317.339198 197.90099 
L 317.339198 192.871287 
L 317.926158 192.871287 
L 317.926158 187.841584 
L 318.275849 187.841584 
L 318.314098 172.752475 
L 318.387229 172.752475 
L 318.396985 162.693069 
L 318.760127 162.693069 
L 318.760127 157.663366 
L 319.367541 157.663366 
L 319.367541 152.633663 
L 319.617437 152.633663 
L 319.617437 147.60396 
L 319.876933 147.60396 
L 319.876933 142.574257 
L 320.526584 142.574257 
L 320.526584 137.544554 
L 320.848552 137.544554 
L 320.848552 132.514851 
L 321.216135 132.514851 
L 321.216135 127.485149 
L 321.926507 127.485149 
L 321.926507 122.455446 
L 322.248008 122.455446 
L 322.248008 117.425743 
L 322.874772 117.425743 
L 322.874772 112.39604 
L 323.313182 112.39604 
L 323.313182 107.366337 
L 324.871568 107.366337 
L 324.871568 102.336634 
L 325.039226 102.336634 
L 325.039226 97.306931 
L 325.537699 97.306931 
L 325.537699 92.277228 
L 326.347528 92.277228 
L 326.347528 87.247525 
L 327.984588 87.247525 
L 327.984588 82.217822 
L 357.290125 82.217822 
L 357.290125 77.188119 
L 357.746669 77.188119 
L 357.755984 67.128713 
L 358.03158 67.128713 
L 358.03158 62.09901 
L 358.143222 62.09901 
L 358.143222 57.069307 
L 358.259647 57.069307 
L 358.259647 52.039604 
L 358.691251 52.039604 
L 358.691251 47.009901 
L 359.276017 47.009901 
L 359.339862 36.950495 
L 360.286521 36.950495 
L 360.286521 31.920792 
L 360.704304 31.920792 
L 360.704304 26.891089 
L 361.622159 26.891089 
L 361.622159 21.861386 
L 361.835701 21.861386 
L 361.835701 16.831683 
L 363.037932 16.831683 
L 363.037932 11.80198 
L 363.44358 11.80198 
L 363.44358 6.772277 
L 363.44358 6.772277 
L 567.24 6.772277 
L 567.24 6.772277 
" style="fill:none;stroke:#000000;stroke-linecap:square;"/>
   </g>
   <g id="line2d_8">
    <path clip-path="url(#pf870784b18)" d="M 248.482486 384 
L 248.482486 378.970297 
L 248.482486 378.970297 
L 248.482486 378.970297 
L 248.482486 373.940594 
L 248.482486 373.940594 
L 248.482486 373.940594 
L 248.482486 368.910891 
L 248.482486 368.910891 
L 248.482486 368.910891 
L 248.482486 363.881188 
L 248.482486 363.881188 
L 248.482486 363.881188 
L 248.482486 358.851485 
L 248.482486 358.851485 
L 248.482486 358.851485 
L 248.482486 353.821782 
L 248.482486 353.821782 
L 248.482486 353.821782 
L 248.482486 348.792079 
L 248.482486 348.792079 
L 248.482486 348.792079 
L 248.482486 343.762376 
L 248.482486 343.762376 
L 248.482486 343.762376 
L 248.482486 338.732673 
L 248.482486 338.732673 
L 248.482486 338.732673 
L 248.482486 333.70297 
L 248.482486 333.70297 
L 248.482486 333.70297 
L 248.482486 328.673267 
L 248.482486 328.673267 
L 248.482486 328.673267 
L 248.482486 323.643564 
L 248.482486 323.643564 
L 248.482486 323.643564 
L 248.482486 318.613861 
L 248.482486 318.613861 
L 248.482486 318.613861 
L 248.482486 313.584158 
L 248.482486 313.584158 
L 248.482486 313.584158 
L 248.482486 308.554455 
L 298.132113 308.554455 
L 298.132113 303.524752 
L 298.811466 303.524752 
L 298.811466 298.49505 
L 298.971861 298.49505 
L 298.971861 293.465347 
L 299.234603 293.465347 
L 299.234603 288.435644 
L 299.402535 288.435644 
L 299.402535 283.405941 
L 299.533065 283.405941 
L 299.533065 278.376238 
L 299.819249 278.376238 
L 299.871739 268.316832 
L 300.092716 268.316832 
L 300.092716 263.287129 
L 300.945583 263.287129 
L 300.945583 258.257426 
L 301.180555 258.257426 
L 301.272922 248.19802 
L 301.313897 248.19802 
L 301.313897 243.168317 
L 302.771341 243.168317 
L 302.771341 238.138614 
L 302.942724 238.138614 
L 302.942724 233.108911 
L 311.703217 233.108911 
L 311.703217 228.079208 
L 312.95254 228.079208 
L 312.95254 223.049505 
L 313.701587 223.049505 
L 313.701587 218.019802 
L 313.908257 218.019802 
L 314.008553 197.90099 
L 314.159392 197.90099 
L 314.159392 192.871287 
L 314.467655 192.871287 
L 314.56302 182.811881 
L 314.826537 182.811881 
L 314.826537 177.782178 
L 315.11493 177.782178 
L 315.11493 172.752475 
L 315.232858 172.752475 
L 315.285693 157.663366 
L 316.223669 157.663366 
L 316.223669 152.633663 
L 316.523988 152.633663 
L 316.523988 147.60396 
L 317.208186 147.60396 
L 317.208186 142.574257 
L 317.437099 142.574257 
L 317.504213 132.514851 
L 317.664263 132.514851 
L 317.664263 127.485149 
L 318.148558 127.485149 
L 318.148558 122.455446 
L 318.368318 122.455446 
L 318.380177 112.39604 
L 318.571627 112.39604 
L 318.571627 107.366337 
L 319.718409 107.366337 
L 319.718409 102.336634 
L 320.703717 102.336634 
L 320.703717 97.306931 
L 321.667922 97.306931 
L 321.667922 92.277228 
L 321.866912 92.277228 
L 321.866912 87.247525 
L 322.918574 87.247525 
L 322.918574 82.217822 
L 353.116191 82.217822 
L 353.116191 77.188119 
L 353.598135 77.188119 
L 353.598135 72.158416 
L 354.793825 72.158416 
L 354.793825 67.128713 
L 355.018998 67.128713 
L 355.018998 62.09901 
L 355.136278 62.09901 
L 355.136278 57.069307 
L 355.348923 57.069307 
L 355.348923 52.039604 
L 355.880253 52.039604 
L 355.880253 47.009901 
L 356.264664 47.009901 
L 356.264664 41.980198 
L 356.653025 41.980198 
L 356.653025 36.950495 
L 357.093327 36.950495 
L 357.146648 26.891089 
L 357.549903 26.891089 
L 357.549903 21.861386 
L 357.755984 21.861386 
L 357.755984 16.831683 
L 359.051801 16.831683 
L 359.115267 6.772277 
L 359.115267 6.772277 
L 567.24 6.772277 
L 567.24 6.772277 
" style="fill:none;stroke:#00bfbf;stroke-linecap:square;"/>
   </g>
   <g id="patch_3">
    <path d="M 3 3 
L 567.24 3 
" style="fill:none;stroke:#000000;stroke-linecap:square;stroke-linejoin:miter;"/>
   </g>
   <g id="patch_4">
    <path d="M 567.24 384 
L 567.24 3 
" style="fill:none;stroke:#000000;stroke-linecap:square;stroke-linejoin:miter;"/>
   </g>
   <g id="patch_5">
    <path d="M 3 384 
L 567.24 384 
" style="fill:none;stroke:#000000;stroke-linecap:square;stroke-linejoin:miter;"/>
   </g>
   <g id="patch_6">
    <path d="M 3 384 
L 3 3 
" style="fill:none;stroke:#000000;stroke-linecap:square;stroke-linejoin:miter;"/>
   </g>
   <g id="matplotlib.axis_1">
    <g id="xtick_1"/>
    <g id="xtick_2">
     <g id="line2d_9">
      <path clip-path="url(#pf870784b18)" d="M 69.254589 384 
L 69.254589 3 
" style="fill:none;stroke:#000000;stroke-dasharray:1.000000,3.000000;stroke-dashoffset:0.0;stroke-width:0.5;"/>
     </g>
     <g id="line2d_10">
      <defs>
       <path d="M 0 0 
L 0 -4 
" id="mb7c519e748" style="stroke:#000000;stroke-width:0.5;"/>
      </defs>
      <g>
       <use style="stroke:#000000;stroke-width:0.5;" x="69.2545893472" xlink:href="#mb7c519e748" y="384.0"/>
      </g>
     </g>
     <g id="line2d_11">
      <defs>
       <path d="M 0 0 
L 0 4 
" id="m61a7575680" style="stroke:#000000;stroke-width:0.5;"/>
      </defs>
      <g>
       <use style="stroke:#000000;stroke-width:0.5;" x="69.2545893472" xlink:href="#m61a7575680" y="3.0"/>
      </g>
     </g>
     <g id="text_1">
      <!-- -6 -->
      <defs>
       <path d="M 33.015625 40.375 
Q 26.375 40.375 22.484375 35.828125 
Q 18.609375 31.296875 18.609375 23.390625 
Q 18.609375 15.53125 22.484375 10.953125 
Q 26.375 6.390625 33.015625 6.390625 
Q 39.65625 6.390625 43.53125 10.953125 
Q 47.40625 15.53125 47.40625 23.390625 
Q 47.40625 31.296875 43.53125 35.828125 
Q 39.65625 40.375 33.015625 40.375 
M 52.59375 71.296875 
L 52.59375 62.3125 
Q 48.875 64.0625 45.09375 64.984375 
Q 41.3125 65.921875 37.59375 65.921875 
Q 27.828125 65.921875 22.671875 59.328125 
Q 17.53125 52.734375 16.796875 39.40625 
Q 19.671875 43.65625 24.015625 45.921875 
Q 28.375 48.1875 33.59375 48.1875 
Q 44.578125 48.1875 50.953125 41.515625 
Q 57.328125 34.859375 57.328125 23.390625 
Q 57.328125 12.15625 50.6875 5.359375 
Q 44.046875 -1.421875 33.015625 -1.421875 
Q 20.359375 -1.421875 13.671875 8.265625 
Q 6.984375 17.96875 6.984375 36.375 
Q 6.984375 53.65625 15.1875 63.9375 
Q 23.390625 74.21875 37.203125 74.21875 
Q 40.921875 74.21875 44.703125 73.484375 
Q 48.484375 72.75 52.59375 71.296875 
" id="BitstreamVeraSans-Roman-36"/>
       <path d="M 4.890625 31.390625 
L 31.203125 31.390625 
L 31.203125 23.390625 
L 4.890625 23.390625 
z
" id="BitstreamVeraSans-Roman-2d"/>
      </defs>
      <g transform="translate(59.2842768472 403.196875)scale(0.2 -0.2)">
       <use xlink:href="#BitstreamVeraSans-Roman-2d"/>
       <use x="36.083984375" xlink:href="#BitstreamVeraSans-Roman-36"/>
      </g>
     </g>
    </g>
    <g id="xtick_3">
     <g id="line2d_12">
      <path clip-path="url(#pf870784b18)" d="M 135.652644 384 
L 135.652644 3 
" style="fill:none;stroke:#000000;stroke-dasharray:1.000000,3.000000;stroke-dashoffset:0.0;stroke-width:0.5;"/>
     </g>
     <g id="line2d_13">
      <g>
       <use style="stroke:#000000;stroke-width:0.5;" x="135.652644101" xlink:href="#mb7c519e748" y="384.0"/>
      </g>
     </g>
     <g id="line2d_14">
      <g>
       <use style="stroke:#000000;stroke-width:0.5;" x="135.652644101" xlink:href="#m61a7575680" y="3.0"/>
      </g>
     </g>
     <g id="text_2">
      <!-- -4 -->
      <defs>
       <path d="M 37.796875 64.3125 
L 12.890625 25.390625 
L 37.796875 25.390625 
z
M 35.203125 72.90625 
L 47.609375 72.90625 
L 47.609375 25.390625 
L 58.015625 25.390625 
L 58.015625 17.1875 
L 47.609375 17.1875 
L 47.609375 0 
L 37.796875 0 
L 37.796875 17.1875 
L 4.890625 17.1875 
L 4.890625 26.703125 
z
" id="BitstreamVeraSans-Roman-34"/>
      </defs>
      <g transform="translate(125.682331601 403.196875)scale(0.2 -0.2)">
       <use xlink:href="#BitstreamVeraSans-Roman-2d"/>
       <use x="36.083984375" xlink:href="#BitstreamVeraSans-Roman-34"/>
      </g>
     </g>
    </g>
    <g id="xtick_4">
     <g id="line2d_15">
      <path clip-path="url(#pf870784b18)" d="M 202.050699 384 
L 202.050699 3 
" style="fill:none;stroke:#000000;stroke-dasharray:1.000000,3.000000;stroke-dashoffset:0.0;stroke-width:0.5;"/>
     </g>
     <g id="line2d_16">
      <g>
       <use style="stroke:#000000;stroke-width:0.5;" x="202.050698855" xlink:href="#mb7c519e748" y="384.0"/>
      </g>
     </g>
     <g id="line2d_17">
      <g>
       <use style="stroke:#000000;stroke-width:0.5;" x="202.050698855" xlink:href="#m61a7575680" y="3.0"/>
      </g>
     </g>
     <g id="text_3">
      <!-- -2 -->
      <defs>
       <path d="M 19.1875 8.296875 
L 53.609375 8.296875 
L 53.609375 0 
L 7.328125 0 
L 7.328125 8.296875 
Q 12.9375 14.109375 22.625 23.890625 
Q 32.328125 33.6875 34.8125 36.53125 
Q 39.546875 41.84375 41.421875 45.53125 
Q 43.3125 49.21875 43.3125 52.78125 
Q 43.3125 58.59375 39.234375 62.25 
Q 35.15625 65.921875 28.609375 65.921875 
Q 23.96875 65.921875 18.8125 64.3125 
Q 13.671875 62.703125 7.8125 59.421875 
L 7.8125 69.390625 
Q 13.765625 71.78125 18.9375 73 
Q 24.125 74.21875 28.421875 74.21875 
Q 39.75 74.21875 46.484375 68.546875 
Q 53.21875 62.890625 53.21875 53.421875 
Q 53.21875 48.921875 51.53125 44.890625 
Q 49.859375 40.875 45.40625 35.40625 
Q 44.1875 33.984375 37.640625 27.21875 
Q 31.109375 20.453125 19.1875 8.296875 
" id="BitstreamVeraSans-Roman-32"/>
      </defs>
      <g transform="translate(192.080386355 403.196875)scale(0.2 -0.2)">
       <use xlink:href="#BitstreamVeraSans-Roman-2d"/>
       <use x="36.083984375" xlink:href="#BitstreamVeraSans-Roman-32"/>
      </g>
     </g>
    </g>
    <g id="xtick_5">
     <g id="line2d_18">
      <path clip-path="url(#pf870784b18)" d="M 268.448754 384 
L 268.448754 3 
" style="fill:none;stroke:#000000;stroke-dasharray:1.000000,3.000000;stroke-dashoffset:0.0;stroke-width:0.5;"/>
     </g>
     <g id="line2d_19">
      <g>
       <use style="stroke:#000000;stroke-width:0.5;" x="268.448753608" xlink:href="#mb7c519e748" y="384.0"/>
      </g>
     </g>
     <g id="line2d_20">
      <g>
       <use style="stroke:#000000;stroke-width:0.5;" x="268.448753608" xlink:href="#m61a7575680" y="3.0"/>
      </g>
     </g>
     <g id="text_4">
      <!-- 0 -->
      <defs>
       <path d="M 31.78125 66.40625 
Q 24.171875 66.40625 20.328125 58.90625 
Q 16.5 51.421875 16.5 36.375 
Q 16.5 21.390625 20.328125 13.890625 
Q 24.171875 6.390625 31.78125 6.390625 
Q 39.453125 6.390625 43.28125 13.890625 
Q 47.125 21.390625 47.125 36.375 
Q 47.125 51.421875 43.28125 58.90625 
Q 39.453125 66.40625 31.78125 66.40625 
M 31.78125 74.21875 
Q 44.046875 74.21875 50.515625 64.515625 
Q 56.984375 54.828125 56.984375 36.375 
Q 56.984375 17.96875 50.515625 8.265625 
Q 44.046875 -1.421875 31.78125 -1.421875 
Q 19.53125 -1.421875 13.0625 8.265625 
Q 6.59375 17.96875 6.59375 36.375 
Q 6.59375 54.828125 13.0625 64.515625 
Q 19.53125 74.21875 31.78125 74.21875 
" id="BitstreamVeraSans-Roman-30"/>
      </defs>
      <g transform="translate(262.086253608 403.196875)scale(0.2 -0.2)">
       <use xlink:href="#BitstreamVeraSans-Roman-30"/>
      </g>
     </g>
    </g>
    <g id="xtick_6">
     <g id="line2d_21">
      <path clip-path="url(#pf870784b18)" d="M 334.846808 384 
L 334.846808 3 
" style="fill:none;stroke:#000000;stroke-dasharray:1.000000,3.000000;stroke-dashoffset:0.0;stroke-width:0.5;"/>
     </g>
     <g id="line2d_22">
      <g>
       <use style="stroke:#000000;stroke-width:0.5;" x="334.846808362" xlink:href="#mb7c519e748" y="384.0"/>
      </g>
     </g>
     <g id="line2d_23">
      <g>
       <use style="stroke:#000000;stroke-width:0.5;" x="334.846808362" xlink:href="#m61a7575680" y="3.0"/>
      </g>
     </g>
     <g id="text_5">
      <!-- 2 -->
      <g transform="translate(328.484308362 403.196875)scale(0.2 -0.2)">
       <use xlink:href="#BitstreamVeraSans-Roman-32"/>
      </g>
     </g>
    </g>
    <g id="xtick_7">
     <g id="line2d_24">
      <path clip-path="url(#pf870784b18)" d="M 401.244863 384 
L 401.244863 3 
" style="fill:none;stroke:#000000;stroke-dasharray:1.000000,3.000000;stroke-dashoffset:0.0;stroke-width:0.5;"/>
     </g>
     <g id="line2d_25">
      <g>
       <use style="stroke:#000000;stroke-width:0.5;" x="401.244863116" xlink:href="#mb7c519e748" y="384.0"/>
      </g>
     </g>
     <g id="line2d_26">
      <g>
       <use style="stroke:#000000;stroke-width:0.5;" x="401.244863116" xlink:href="#m61a7575680" y="3.0"/>
      </g>
     </g>
     <g id="text_6">
      <!-- 4 -->
      <g transform="translate(394.882363116 403.196875)scale(0.2 -0.2)">
       <use xlink:href="#BitstreamVeraSans-Roman-34"/>
      </g>
     </g>
    </g>
    <g id="xtick_8">
     <g id="line2d_27">
      <path clip-path="url(#pf870784b18)" d="M 467.642918 384 
L 467.642918 3 
" style="fill:none;stroke:#000000;stroke-dasharray:1.000000,3.000000;stroke-dashoffset:0.0;stroke-width:0.5;"/>
     </g>
     <g id="line2d_28">
      <g>
       <use style="stroke:#000000;stroke-width:0.5;" x="467.642917869" xlink:href="#mb7c519e748" y="384.0"/>
      </g>
     </g>
     <g id="line2d_29">
      <g>
       <use style="stroke:#000000;stroke-width:0.5;" x="467.642917869" xlink:href="#m61a7575680" y="3.0"/>
      </g>
     </g>
     <g id="text_7">
      <!-- 6 -->
      <g transform="translate(461.280417869 403.196875)scale(0.2 -0.2)">
       <use xlink:href="#BitstreamVeraSans-Roman-36"/>
      </g>
     </g>
    </g>
    <g id="xtick_9">
     <g id="line2d_30">
      <path clip-path="url(#pf870784b18)" d="M 534.040973 384 
L 534.040973 3 
" style="fill:none;stroke:#000000;stroke-dasharray:1.000000,3.000000;stroke-dashoffset:0.0;stroke-width:0.5;"/>
     </g>
     <g id="line2d_31">
      <g>
       <use style="stroke:#000000;stroke-width:0.5;" x="534.040972623" xlink:href="#mb7c519e748" y="384.0"/>
      </g>
     </g>
     <g id="line2d_32">
      <g>
       <use style="stroke:#000000;stroke-width:0.5;" x="534.040972623" xlink:href="#m61a7575680" y="3.0"/>
      </g>
     </g>
     <g id="text_8">
      <!-- 8 -->
      <defs>
       <path d="M 31.78125 34.625 
Q 24.75 34.625 20.71875 30.859375 
Q 16.703125 27.09375 16.703125 20.515625 
Q 16.703125 13.921875 20.71875 10.15625 
Q 24.75 6.390625 31.78125 6.390625 
Q 38.8125 6.390625 42.859375 10.171875 
Q 46.921875 13.96875 46.921875 20.515625 
Q 46.921875 27.09375 42.890625 30.859375 
Q 38.875 34.625 31.78125 34.625 
M 21.921875 38.8125 
Q 15.578125 40.375 12.03125 44.71875 
Q 8.5 49.078125 8.5 55.328125 
Q 8.5 64.0625 14.71875 69.140625 
Q 20.953125 74.21875 31.78125 74.21875 
Q 42.671875 74.21875 48.875 69.140625 
Q 55.078125 64.0625 55.078125 55.328125 
Q 55.078125 49.078125 51.53125 44.71875 
Q 48 40.375 41.703125 38.8125 
Q 48.828125 37.15625 52.796875 32.3125 
Q 56.78125 27.484375 56.78125 20.515625 
Q 56.78125 9.90625 50.3125 4.234375 
Q 43.84375 -1.421875 31.78125 -1.421875 
Q 19.734375 -1.421875 13.25 4.234375 
Q 6.78125 9.90625 6.78125 20.515625 
Q 6.78125 27.484375 10.78125 32.3125 
Q 14.796875 37.15625 21.921875 38.8125 
M 18.3125 54.390625 
Q 18.3125 48.734375 21.84375 45.5625 
Q 25.390625 42.390625 31.78125 42.390625 
Q 38.140625 42.390625 41.71875 45.5625 
Q 45.3125 48.734375 45.3125 54.390625 
Q 45.3125 60.0625 41.71875 63.234375 
Q 38.140625 66.40625 31.78125 66.40625 
Q 25.390625 66.40625 21.84375 63.234375 
Q 18.3125 60.0625 18.3125 54.390625 
" id="BitstreamVeraSans-Roman-38"/>
      </defs>
      <g transform="translate(527.678472623 403.196875)scale(0.2 -0.2)">
       <use xlink:href="#BitstreamVeraSans-Roman-38"/>
      </g>
     </g>
    </g>
    <g id="xtick_10"/>
    <g id="xtick_11">
     <g id="line2d_33">
      <defs>
       <path d="M 0 0 
L 0 -2 
" id="m18ee1d9732" style="stroke:#000000;stroke-width:0.5;"/>
      </defs>
      <g>
       <use style="stroke:#000000;stroke-width:0.5;" x="69.2545893472" xlink:href="#m18ee1d9732" y="384.0"/>
      </g>
     </g>
     <g id="line2d_34">
      <defs>
       <path d="M 0 0 
L 0 2 
" id="mbb25324ac3" style="stroke:#000000;stroke-width:0.5;"/>
      </defs>
      <g>
       <use style="stroke:#000000;stroke-width:0.5;" x="69.2545893472" xlink:href="#mbb25324ac3" y="3.0"/>
      </g>
     </g>
    </g>
    <g id="xtick_12">
     <g id="line2d_35">
      <g>
       <use style="stroke:#000000;stroke-width:0.5;" x="135.652644101" xlink:href="#m18ee1d9732" y="384.0"/>
      </g>
     </g>
     <g id="line2d_36">
      <g>
       <use style="stroke:#000000;stroke-width:0.5;" x="135.652644101" xlink:href="#mbb25324ac3" y="3.0"/>
      </g>
     </g>
    </g>
    <g id="xtick_13">
     <g id="line2d_37">
      <g>
       <use style="stroke:#000000;stroke-width:0.5;" x="202.050698855" xlink:href="#m18ee1d9732" y="384.0"/>
      </g>
     </g>
     <g id="line2d_38">
      <g>
       <use style="stroke:#000000;stroke-width:0.5;" x="202.050698855" xlink:href="#mbb25324ac3" y="3.0"/>
      </g>
     </g>
    </g>
    <g id="xtick_14">
     <g id="line2d_39">
      <g>
       <use style="stroke:#000000;stroke-width:0.5;" x="268.448753608" xlink:href="#m18ee1d9732" y="384.0"/>
      </g>
     </g>
     <g id="line2d_40">
      <g>
       <use style="stroke:#000000;stroke-width:0.5;" x="268.448753608" xlink:href="#mbb25324ac3" y="3.0"/>
      </g>
     </g>
    </g>
    <g id="xtick_15">
     <g id="line2d_41">
      <g>
       <use style="stroke:#000000;stroke-width:0.5;" x="334.846808362" xlink:href="#m18ee1d9732" y="384.0"/>
      </g>
     </g>
     <g id="line2d_42">
      <g>
       <use style="stroke:#000000;stroke-width:0.5;" x="334.846808362" xlink:href="#mbb25324ac3" y="3.0"/>
      </g>
     </g>
    </g>
    <g id="xtick_16">
     <g id="line2d_43">
      <g>
       <use style="stroke:#000000;stroke-width:0.5;" x="401.244863116" xlink:href="#m18ee1d9732" y="384.0"/>
      </g>
     </g>
     <g id="line2d_44">
      <g>
       <use style="stroke:#000000;stroke-width:0.5;" x="401.244863116" xlink:href="#mbb25324ac3" y="3.0"/>
      </g>
     </g>
    </g>
    <g id="xtick_17">
     <g id="line2d_45">
      <g>
       <use style="stroke:#000000;stroke-width:0.5;" x="467.642917869" xlink:href="#m18ee1d9732" y="384.0"/>
      </g>
     </g>
     <g id="line2d_46">
      <g>
       <use style="stroke:#000000;stroke-width:0.5;" x="467.642917869" xlink:href="#mbb25324ac3" y="3.0"/>
      </g>
     </g>
    </g>
    <g id="xtick_18">
     <g id="line2d_47">
      <g>
       <use style="stroke:#000000;stroke-width:0.5;" x="534.040972623" xlink:href="#m18ee1d9732" y="384.0"/>
      </g>
     </g>
     <g id="line2d_48">
      <g>
       <use style="stroke:#000000;stroke-width:0.5;" x="534.040972623" xlink:href="#mbb25324ac3" y="3.0"/>
      </g>
     </g>
    </g>
    <g id="text_9">
     <!-- log10 of Df -->
     <defs>
      <path id="BitstreamVeraSans-Roman-20"/>
      <path d="M 12.40625 8.296875 
L 28.515625 8.296875 
L 28.515625 63.921875 
L 10.984375 60.40625 
L 10.984375 69.390625 
L 28.421875 72.90625 
L 38.28125 72.90625 
L 38.28125 8.296875 
L 54.390625 8.296875 
L 54.390625 0 
L 12.40625 0 
z
" id="BitstreamVeraSans-Roman-31"/>
      <path d="M 30.609375 48.390625 
Q 23.390625 48.390625 19.1875 42.75 
Q 14.984375 37.109375 14.984375 27.296875 
Q 14.984375 17.484375 19.15625 11.84375 
Q 23.34375 6.203125 30.609375 6.203125 
Q 37.796875 6.203125 41.984375 11.859375 
Q 46.1875 17.53125 46.1875 27.296875 
Q 46.1875 37.015625 41.984375 42.703125 
Q 37.796875 48.390625 30.609375 48.390625 
M 30.609375 56 
Q 42.328125 56 49.015625 48.375 
Q 55.71875 40.765625 55.71875 27.296875 
Q 55.71875 13.875 49.015625 6.21875 
Q 42.328125 -1.421875 30.609375 -1.421875 
Q 18.84375 -1.421875 12.171875 6.21875 
Q 5.515625 13.875 5.515625 27.296875 
Q 5.515625 40.765625 12.171875 48.375 
Q 18.84375 56 30.609375 56 
" id="BitstreamVeraSans-Roman-6f"/>
      <path d="M 9.421875 75.984375 
L 18.40625 75.984375 
L 18.40625 0 
L 9.421875 0 
z
" id="BitstreamVeraSans-Roman-6c"/>
      <path d="M 19.671875 64.796875 
L 19.671875 8.109375 
L 31.59375 8.109375 
Q 46.6875 8.109375 53.6875 14.9375 
Q 60.6875 21.78125 60.6875 36.53125 
Q 60.6875 51.171875 53.6875 57.984375 
Q 46.6875 64.796875 31.59375 64.796875 
z
M 9.8125 72.90625 
L 30.078125 72.90625 
Q 51.265625 72.90625 61.171875 64.09375 
Q 71.09375 55.28125 71.09375 36.53125 
Q 71.09375 17.671875 61.125 8.828125 
Q 51.171875 0 30.078125 0 
L 9.8125 0 
z
" id="BitstreamVeraSans-Roman-44"/>
      <path d="M 45.40625 27.984375 
Q 45.40625 37.75 41.375 43.109375 
Q 37.359375 48.484375 30.078125 48.484375 
Q 22.859375 48.484375 18.828125 43.109375 
Q 14.796875 37.75 14.796875 27.984375 
Q 14.796875 18.265625 18.828125 12.890625 
Q 22.859375 7.515625 30.078125 7.515625 
Q 37.359375 7.515625 41.375 12.890625 
Q 45.40625 18.265625 45.40625 27.984375 
M 54.390625 6.78125 
Q 54.390625 -7.171875 48.1875 -13.984375 
Q 42 -20.796875 29.203125 -20.796875 
Q 24.46875 -20.796875 20.265625 -20.09375 
Q 16.0625 -19.390625 12.109375 -17.921875 
L 12.109375 -9.1875 
Q 16.0625 -11.328125 19.921875 -12.34375 
Q 23.78125 -13.375 27.78125 -13.375 
Q 36.625 -13.375 41.015625 -8.765625 
Q 45.40625 -4.15625 45.40625 5.171875 
L 45.40625 9.625 
Q 42.625 4.78125 38.28125 2.390625 
Q 33.9375 0 27.875 0 
Q 17.828125 0 11.671875 7.65625 
Q 5.515625 15.328125 5.515625 27.984375 
Q 5.515625 40.671875 11.671875 48.328125 
Q 17.828125 56 27.875 56 
Q 33.9375 56 38.28125 53.609375 
Q 42.625 51.21875 45.40625 46.390625 
L 45.40625 54.6875 
L 54.390625 54.6875 
z
" id="BitstreamVeraSans-Roman-67"/>
      <path d="M 37.109375 75.984375 
L 37.109375 68.5 
L 28.515625 68.5 
Q 23.6875 68.5 21.796875 66.546875 
Q 19.921875 64.59375 19.921875 59.515625 
L 19.921875 54.6875 
L 34.71875 54.6875 
L 34.71875 47.703125 
L 19.921875 47.703125 
L 19.921875 0 
L 10.890625 0 
L 10.890625 47.703125 
L 2.296875 47.703125 
L 2.296875 54.6875 
L 10.890625 54.6875 
L 10.890625 58.5 
Q 10.890625 67.625 15.140625 71.796875 
Q 19.390625 75.984375 28.609375 75.984375 
z
" id="BitstreamVeraSans-Roman-66"/>
     </defs>
     <g transform="translate(229.9340625 427.553125)scale(0.2 -0.2)">
      <use xlink:href="#BitstreamVeraSans-Roman-6c"/>
      <use x="27.783203125" xlink:href="#BitstreamVeraSans-Roman-6f"/>
      <use x="88.96484375" xlink:href="#BitstreamVeraSans-Roman-67"/>
      <use x="152.44140625" xlink:href="#BitstreamVeraSans-Roman-31"/>
      <use x="216.064453125" xlink:href="#BitstreamVeraSans-Roman-30"/>
      <use x="279.6875" xlink:href="#BitstreamVeraSans-Roman-20"/>
      <use x="311.474609375" xlink:href="#BitstreamVeraSans-Roman-6f"/>
      <use x="372.65625" xlink:href="#BitstreamVeraSans-Roman-66"/>
      <use x="407.861328125" xlink:href="#BitstreamVeraSans-Roman-20"/>
      <use x="439.6484375" xlink:href="#BitstreamVeraSans-Roman-44"/>
      <use x="516.650390625" xlink:href="#BitstreamVeraSans-Roman-66"/>
     </g>
    </g>
   </g>
   <g id="matplotlib.axis_2">
    <g id="ytick_1">
     <g id="line2d_49">
      <path clip-path="url(#pf870784b18)" d="M 3 384 
L 567.24 384 
" style="fill:none;stroke:#000000;stroke-dasharray:1.000000,3.000000;stroke-dashoffset:0.0;stroke-width:0.5;"/>
     </g>
     <g id="line2d_50">
      <defs>
       <path d="M 0 0 
L 4 0 
" id="m28d9cce245" style="stroke:#000000;stroke-width:0.5;"/>
      </defs>
      <g>
       <use style="stroke:#000000;stroke-width:0.5;" x="3.0" xlink:href="#m28d9cce245" y="384.0"/>
      </g>
     </g>
     <g id="line2d_51">
      <defs>
       <path d="M 0 0 
L -4 0 
" id="macb84f20a7" style="stroke:#000000;stroke-width:0.5;"/>
      </defs>
      <g>
       <use style="stroke:#000000;stroke-width:0.5;" x="567.24" xlink:href="#macb84f20a7" y="384.0"/>
      </g>
     </g>
    </g>
    <g id="ytick_2">
     <g id="line2d_52">
      <path clip-path="url(#pf870784b18)" d="M 3 308.554455 
L 567.24 308.554455 
" style="fill:none;stroke:#000000;stroke-dasharray:1.000000,3.000000;stroke-dashoffset:0.0;stroke-width:0.5;"/>
     </g>
     <g id="line2d_53">
      <g>
       <use style="stroke:#000000;stroke-width:0.5;" x="3.0" xlink:href="#m28d9cce245" y="308.554455446"/>
      </g>
     </g>
     <g id="line2d_54">
      <g>
       <use style="stroke:#000000;stroke-width:0.5;" x="567.24" xlink:href="#macb84f20a7" y="308.554455446"/>
      </g>
     </g>
    </g>
    <g id="ytick_3">
     <g id="line2d_55">
      <path clip-path="url(#pf870784b18)" d="M 3 233.108911 
L 567.24 233.108911 
" style="fill:none;stroke:#000000;stroke-dasharray:1.000000,3.000000;stroke-dashoffset:0.0;stroke-width:0.5;"/>
     </g>
     <g id="line2d_56">
      <g>
       <use style="stroke:#000000;stroke-width:0.5;" x="3.0" xlink:href="#m28d9cce245" y="233.108910891"/>
      </g>
     </g>
     <g id="line2d_57">
      <g>
       <use style="stroke:#000000;stroke-width:0.5;" x="567.24" xlink:href="#macb84f20a7" y="233.108910891"/>
      </g>
     </g>
    </g>
    <g id="ytick_4">
     <g id="line2d_58">
      <path clip-path="url(#pf870784b18)" d="M 3 157.663366 
L 567.24 157.663366 
" style="fill:none;stroke:#000000;stroke-dasharray:1.000000,3.000000;stroke-dashoffset:0.0;stroke-width:0.5;"/>
     </g>
     <g id="line2d_59">
      <g>
       <use style="stroke:#000000;stroke-width:0.5;" x="3.0" xlink:href="#m28d9cce245" y="157.663366337"/>
      </g>
     </g>
     <g id="line2d_60">
      <g>
       <use style="stroke:#000000;stroke-width:0.5;" x="567.24" xlink:href="#macb84f20a7" y="157.663366337"/>
      </g>
     </g>
    </g>
    <g id="ytick_5">
     <g id="line2d_61">
      <path clip-path="url(#pf870784b18)" d="M 3 82.217822 
L 567.24 82.217822 
" style="fill:none;stroke:#000000;stroke-dasharray:1.000000,3.000000;stroke-dashoffset:0.0;stroke-width:0.5;"/>
     </g>
     <g id="line2d_62">
      <g>
       <use style="stroke:#000000;stroke-width:0.5;" x="3.0" xlink:href="#m28d9cce245" y="82.2178217822"/>
      </g>
     </g>
     <g id="line2d_63">
      <g>
       <use style="stroke:#000000;stroke-width:0.5;" x="567.24" xlink:href="#macb84f20a7" y="82.2178217822"/>
      </g>
     </g>
    </g>
    <g id="ytick_6">
     <g id="line2d_64">
      <path clip-path="url(#pf870784b18)" d="M 3 6.772277 
L 567.24 6.772277 
" style="fill:none;stroke:#000000;stroke-dasharray:1.000000,3.000000;stroke-dashoffset:0.0;stroke-width:0.5;"/>
     </g>
     <g id="line2d_65">
      <g>
       <use style="stroke:#000000;stroke-width:0.5;" x="3.0" xlink:href="#m28d9cce245" y="6.77227722772"/>
      </g>
     </g>
     <g id="line2d_66">
      <g>
       <use style="stroke:#000000;stroke-width:0.5;" x="567.24" xlink:href="#macb84f20a7" y="6.77227722772"/>
      </g>
     </g>
    </g>
   </g>
   <g id="text_10">
    <!-- {f15-f19}, 20-D -->
    <defs>
     <path d="M 12.5 -9.28125 
L 15.921875 -9.28125 
Q 22.75 -9.28125 24.828125 -7.171875 
Q 26.90625 -5.078125 26.90625 1.90625 
L 26.90625 14.015625 
Q 26.90625 21.625 29.09375 25.09375 
Q 31.296875 28.5625 36.71875 29.890625 
Q 31.296875 31.109375 29.09375 34.5625 
Q 26.90625 38.03125 26.90625 45.703125 
L 26.90625 57.8125 
Q 26.90625 64.75 24.828125 66.875 
Q 22.75 69 15.921875 69 
L 12.5 69 
L 12.5 75.984375 
L 15.578125 75.984375 
Q 27.734375 75.984375 31.8125 72.390625 
Q 35.890625 68.796875 35.890625 58.015625 
L 35.890625 46.296875 
Q 35.890625 39.015625 38.515625 36.203125 
Q 41.15625 33.40625 48.09375 33.40625 
L 51.125 33.40625 
L 51.125 26.421875 
L 48.09375 26.421875 
Q 41.15625 26.421875 38.515625 23.578125 
Q 35.890625 20.75 35.890625 13.375 
L 35.890625 1.703125 
Q 35.890625 -9.078125 31.8125 -12.6875 
Q 27.734375 -16.3125 15.578125 -16.3125 
L 12.5 -16.3125 
z
" id="BitstreamVeraSans-Roman-7d"/>
     <path d="M 10.984375 1.515625 
L 10.984375 10.5 
Q 14.703125 8.734375 18.5 7.8125 
Q 22.3125 6.890625 25.984375 6.890625 
Q 35.75 6.890625 40.890625 13.453125 
Q 46.046875 20.015625 46.78125 33.40625 
Q 43.953125 29.203125 39.59375 26.953125 
Q 35.25 24.703125 29.984375 24.703125 
Q 19.046875 24.703125 12.671875 31.3125 
Q 6.296875 37.9375 6.296875 49.421875 
Q 6.296875 60.640625 12.9375 67.421875 
Q 19.578125 74.21875 30.609375 74.21875 
Q 43.265625 74.21875 49.921875 64.515625 
Q 56.59375 54.828125 56.59375 36.375 
Q 56.59375 19.140625 48.40625 8.859375 
Q 40.234375 -1.421875 26.421875 -1.421875 
Q 22.703125 -1.421875 18.890625 -0.6875 
Q 15.09375 0.046875 10.984375 1.515625 
M 30.609375 32.421875 
Q 37.25 32.421875 41.125 36.953125 
Q 45.015625 41.5 45.015625 49.421875 
Q 45.015625 57.28125 41.125 61.84375 
Q 37.25 66.40625 30.609375 66.40625 
Q 23.96875 66.40625 20.09375 61.84375 
Q 16.21875 57.28125 16.21875 49.421875 
Q 16.21875 41.5 20.09375 36.953125 
Q 23.96875 32.421875 30.609375 32.421875 
" id="BitstreamVeraSans-Roman-39"/>
     <path d="M 51.125 -9.28125 
L 51.125 -16.3125 
L 48.09375 -16.3125 
Q 35.9375 -16.3125 31.8125 -12.6875 
Q 27.6875 -9.078125 27.6875 1.703125 
L 27.6875 13.375 
Q 27.6875 20.75 25.046875 23.578125 
Q 22.40625 26.421875 15.484375 26.421875 
L 12.5 26.421875 
L 12.5 33.40625 
L 15.484375 33.40625 
Q 22.46875 33.40625 25.078125 36.203125 
Q 27.6875 39.015625 27.6875 46.296875 
L 27.6875 58.015625 
Q 27.6875 68.796875 31.8125 72.390625 
Q 35.9375 75.984375 48.09375 75.984375 
L 51.125 75.984375 
L 51.125 69 
L 47.796875 69 
Q 40.921875 69 38.8125 66.84375 
Q 36.71875 64.703125 36.71875 57.8125 
L 36.71875 45.703125 
Q 36.71875 38.03125 34.5 34.5625 
Q 32.28125 31.109375 26.90625 29.890625 
Q 32.328125 28.5625 34.515625 25.09375 
Q 36.71875 21.625 36.71875 14.015625 
L 36.71875 1.90625 
Q 36.71875 -4.984375 38.8125 -7.125 
Q 40.921875 -9.28125 47.796875 -9.28125 
z
" id="BitstreamVeraSans-Roman-7b"/>
     <path d="M 11.71875 12.40625 
L 22.015625 12.40625 
L 22.015625 4 
L 14.015625 -11.625 
L 7.71875 -11.625 
L 11.71875 4 
z
" id="BitstreamVeraSans-Roman-2c"/>
     <path d="M 10.796875 72.90625 
L 49.515625 72.90625 
L 49.515625 64.59375 
L 19.828125 64.59375 
L 19.828125 46.734375 
Q 21.96875 47.46875 24.109375 47.828125 
Q 26.265625 48.1875 28.421875 48.1875 
Q 40.625 48.1875 47.75 41.5 
Q 54.890625 34.8125 54.890625 23.390625 
Q 54.890625 11.625 47.5625 5.09375 
Q 40.234375 -1.421875 26.90625 -1.421875 
Q 22.3125 -1.421875 17.546875 -0.640625 
Q 12.796875 0.140625 7.71875 1.703125 
L 7.71875 11.625 
Q 12.109375 9.234375 16.796875 8.0625 
Q 21.484375 6.890625 26.703125 6.890625 
Q 35.15625 6.890625 40.078125 11.328125 
Q 45.015625 15.765625 45.015625 23.390625 
Q 45.015625 31 40.078125 35.4375 
Q 35.15625 39.890625 26.703125 39.890625 
Q 22.75 39.890625 18.8125 39.015625 
Q 14.890625 38.140625 10.796875 36.28125 
z
" id="BitstreamVeraSans-Roman-35"/>
    </defs>
    <g transform="translate(397.5302 376.38)scale(0.2 -0.2)">
     <use xlink:href="#BitstreamVeraSans-Roman-7b"/>
     <use x="63.623046875" xlink:href="#BitstreamVeraSans-Roman-66"/>
     <use x="98.828125" xlink:href="#BitstreamVeraSans-Roman-31"/>
     <use x="162.451171875" xlink:href="#BitstreamVeraSans-Roman-35"/>
     <use x="226.07421875" xlink:href="#BitstreamVeraSans-Roman-2d"/>
     <use x="262.158203125" xlink:href="#BitstreamVeraSans-Roman-66"/>
     <use x="297.36328125" xlink:href="#BitstreamVeraSans-Roman-31"/>
     <use x="360.986328125" xlink:href="#BitstreamVeraSans-Roman-39"/>
     <use x="424.609375" xlink:href="#BitstreamVeraSans-Roman-7d"/>
     <use x="488.232421875" xlink:href="#BitstreamVeraSans-Roman-2c"/>
     <use x="520.01953125" xlink:href="#BitstreamVeraSans-Roman-20"/>
     <use x="551.806640625" xlink:href="#BitstreamVeraSans-Roman-32"/>
     <use x="615.4296875" xlink:href="#BitstreamVeraSans-Roman-30"/>
     <use x="679.052734375" xlink:href="#BitstreamVeraSans-Roman-2d"/>
     <use x="715.13671875" xlink:href="#BitstreamVeraSans-Roman-44"/>
    </g>
   </g>
   <g id="text_11">
    <!-- v2.2.1.10 -->
    <defs>
     <path d="M 2.984375 54.6875 
L 12.5 54.6875 
L 29.59375 8.796875 
L 46.6875 54.6875 
L 56.203125 54.6875 
L 35.6875 0 
L 23.484375 0 
z
" id="BitstreamVeraSans-Roman-76"/>
     <path d="M 10.6875 12.40625 
L 21 12.40625 
L 21 0 
L 10.6875 0 
z
" id="BitstreamVeraSans-Roman-2e"/>
    </defs>
    <g style="fill:#808080;" transform="translate(261.4871875 378.1103125)scale(0.1 -0.1)">
     <use xlink:href="#BitstreamVeraSans-Roman-76"/>
     <use x="59.1796875" xlink:href="#BitstreamVeraSans-Roman-32"/>
     <use x="122.802734375" xlink:href="#BitstreamVeraSans-Roman-2e"/>
     <use x="154.58984375" xlink:href="#BitstreamVeraSans-Roman-32"/>
     <use x="218.212890625" xlink:href="#BitstreamVeraSans-Roman-2e"/>
     <use x="250.0" xlink:href="#BitstreamVeraSans-Roman-31"/>
     <use x="313.623046875" xlink:href="#BitstreamVeraSans-Roman-2e"/>
     <use x="345.41015625" xlink:href="#BitstreamVeraSans-Roman-31"/>
     <use x="409.033203125" xlink:href="#BitstreamVeraSans-Roman-30"/>
    </g>
   </g>
  </g>
 </g>
 <defs>
  <clipPath id="pf870784b18">
   <rect height="381.0" width="564.24" x="3.0" y="3.0"/>
  </clipPath>
 </defs>
</svg>
