<?xml version="1.0" encoding="utf-8" standalone="no"?>
<!DOCTYPE svg PUBLIC "-//W3C//DTD SVG 1.1//EN"
  "http://www.w3.org/Graphics/SVG/1.1/DTD/svg11.dtd">
<!-- Created with matplotlib (http://matplotlib.org/) -->
<svg height="432pt" version="1.1" viewBox="0 0 576 432" width="576pt" xmlns="http://www.w3.org/2000/svg" xmlns:xlink="http://www.w3.org/1999/xlink">
 <defs>
  <style type="text/css">
*{stroke-linecap:butt;stroke-linejoin:round;stroke-miterlimit:100000;}
  </style>
 </defs>
 <g id="figure_1">
  <g id="patch_1">
   <path d="M 0 432 
L 576 432 
L 576 0 
L 0 0 
z
" style="fill:#ffffff;"/>
  </g>
  <g id="axes_1">
   <g id="patch_2">
    <path d="M 3 384 
L 567.24 384 
L 567.24 3 
L 3 3 
z
" style="fill:#ffffff;"/>
   </g>
   <g id="line2d_1">
    <path clip-path="url(#p2462dfb906)" d="M 263.137453 384 
L 263.137453 378.970297 
L 265.855532 378.970297 
L 265.855532 373.940594 
L 267.062863 373.940594 
L 267.062863 368.910891 
L 271.611381 368.910891 
L 271.611381 363.881188 
L 271.726825 363.881188 
L 271.726825 358.851485 
L 273.613182 358.851485 
L 273.613182 353.821782 
L 274.53118 353.821782 
L 274.53118 348.792079 
L 274.745487 348.792079 
L 274.745487 343.762376 
L 275.572933 343.762376 
L 275.572933 338.732673 
L 277.132577 338.732673 
L 277.132577 333.70297 
L 278.026966 333.70297 
L 278.026966 328.673267 
L 279.033917 328.673267 
L 279.033917 323.643564 
L 279.456381 323.643564 
L 279.564599 308.554455 
L 280.021662 308.554455 
L 280.021662 303.524752 
L 280.378341 303.524752 
L 280.417573 293.465347 
L 280.786458 293.465347 
L 280.786458 288.435644 
L 281.516009 288.435644 
L 281.516009 283.405941 
L 281.719882 283.405941 
L 281.726236 273.346535 
L 281.898944 273.346535 
L 281.898944 268.316832 
L 282.137669 268.316832 
L 282.186428 258.257426 
L 282.42893 258.257426 
L 282.499873 248.19802 
L 282.556714 248.19802 
L 282.556714 243.168317 
L 282.716737 243.168317 
L 282.716737 238.138614 
L 283.187465 238.138614 
L 283.187465 233.108911 
L 283.711971 233.108911 
L 283.809376 223.049505 
L 284.578225 223.049505 
L 284.578225 218.019802 
L 284.831433 218.019802 
L 284.831433 212.990099 
L 285.265762 212.990099 
L 285.348361 197.90099 
L 285.816821 197.90099 
L 285.816821 192.871287 
L 288.208011 192.871287 
L 288.208011 187.841584 
L 291.23136 187.841584 
L 291.23136 182.811881 
L 293.047657 182.811881 
L 293.047657 177.782178 
L 293.350281 177.782178 
L 293.350281 172.752475 
L 293.537305 172.752475 
L 293.537305 167.722772 
L 294.213937 167.722772 
L 294.213937 162.693069 
L 295.853411 162.693069 
L 295.853411 157.663366 
L 296.58246 157.663366 
L 296.58246 152.633663 
L 296.933815 152.633663 
L 296.933815 147.60396 
L 297.054089 147.60396 
L 297.054089 142.574257 
L 298.208573 142.574257 
L 298.208573 137.544554 
L 298.640726 137.544554 
L 298.640726 132.514851 
L 299.75329 132.514851 
L 299.75329 127.485149 
L 300.306623 127.485149 
L 300.306623 122.455446 
L 302.833698 122.455446 
L 302.833698 117.425743 
L 304.212193 117.425743 
L 304.212193 112.39604 
L 306.664243 112.39604 
L 306.664243 107.366337 
L 307.119143 107.366337 
L 307.119143 102.336634 
L 307.540001 102.336634 
L 307.540001 97.306931 
L 312.388132 97.306931 
L 312.388132 92.277228 
L 318.239433 92.277228 
L 318.239433 87.247525 
L 319.186333 87.247525 
L 319.186333 82.217822 
L 348.953534 82.217822 
L 348.953534 77.188119 
L 349.06676 77.188119 
L 349.06676 72.158416 
L 350.503181 72.158416 
L 350.583447 62.09901 
L 351.077494 62.09901 
L 351.077494 57.069307 
L 351.303578 57.069307 
L 351.303578 52.039604 
L 351.514644 52.039604 
L 351.514644 47.009901 
L 351.758239 47.009901 
L 351.758239 41.980198 
L 351.915563 41.980198 
L 351.934276 31.920792 
L 352.074235 31.920792 
L 352.074235 26.891089 
L 352.408507 26.891089 
L 352.516435 16.831683 
L 352.541361 16.831683 
L 352.541361 11.80198 
L 352.846158 11.80198 
L 352.846158 6.772277 
L 352.846158 6.772277 
L 567.24 6.772277 
L 567.24 6.772277 
" style="fill:none;stroke:#ff0000;stroke-linecap:square;stroke-width:3.0;"/>
   </g>
   <g id="line2d_2">
    <path clip-path="url(#p2462dfb906)" d="M 292.053349 384 
L 292.053349 378.970297 
L 293.734125 378.970297 
L 293.734125 373.940594 
L 294.593656 373.940594 
L 294.593656 368.910891 
L 296.64803 368.910891 
L 296.64803 363.881188 
L 296.785167 363.881188 
L 296.785167 358.851485 
L 296.955131 358.851485 
L 296.955131 353.821782 
L 297.833002 353.821782 
L 297.833002 348.792079 
L 298.275237 348.792079 
L 298.275237 343.762376 
L 298.989049 343.762376 
L 298.989049 338.732673 
L 300.549493 338.732673 
L 300.549493 333.70297 
L 301.115876 333.70297 
L 301.115876 328.673267 
L 301.321706 328.673267 
L 301.419234 308.554455 
L 329.40429 308.554455 
L 329.495406 298.49505 
L 330.149204 298.49505 
L 330.194936 288.435644 
L 330.307121 288.435644 
L 330.40484 273.346535 
L 330.795312 273.346535 
L 330.795312 268.316832 
L 330.993547 268.316832 
L 330.993547 263.287129 
L 331.106431 263.287129 
L 331.180293 253.227723 
L 331.257796 253.227723 
L 331.257796 248.19802 
L 331.503382 248.19802 
L 331.601536 233.108911 
L 331.646019 233.108911 
L 331.755391 192.871287 
L 331.840383 192.871287 
L 331.908153 182.811881 
L 332.122134 182.811881 
L 332.138728 167.722772 
L 332.349521 167.722772 
L 332.349521 162.693069 
L 332.482044 162.693069 
L 332.482044 157.663366 
L 348.953534 157.663366 
L 348.953534 152.633663 
L 349.06676 152.633663 
L 349.06676 147.60396 
L 350.503181 147.60396 
L 350.503181 142.574257 
L 351.077494 142.574257 
L 351.077494 137.544554 
L 351.303578 137.544554 
L 351.303578 132.514851 
L 351.514644 132.514851 
L 351.514644 127.485149 
L 351.934276 127.485149 
L 351.934276 122.455446 
L 352.337967 122.455446 
L 352.408507 112.39604 
L 352.586737 112.39604 
L 352.675252 102.336634 
L 352.846158 102.336634 
L 352.846158 97.306931 
L 353.022007 97.306931 
L 353.022007 92.277228 
L 354.140759 92.277228 
L 354.140759 87.247525 
L 354.745346 87.247525 
L 354.745346 82.217822 
L 409.973432 82.217822 
L 409.973432 6.772277 
L 409.973432 6.772277 
L 567.24 6.772277 
L 567.24 6.772277 
" style="fill:none;stroke:#00bfbf;stroke-linecap:square;"/>
   </g>
   <g id="line2d_3">
    <path clip-path="url(#p2462dfb906)" d="M 291.092749 384 
L 291.092749 378.970297 
L 292.053349 378.970297 
L 292.053349 373.940594 
L 294.593656 373.940594 
L 294.593656 368.910891 
L 296.64803 368.910891 
L 296.64803 363.881188 
L 296.785167 363.881188 
L 296.785167 358.851485 
L 296.955131 358.851485 
L 296.996515 348.792079 
L 297.447907 348.792079 
L 297.447907 343.762376 
L 297.833002 343.762376 
L 297.833002 338.732673 
L 297.999327 338.732673 
L 297.999327 333.70297 
L 298.989049 333.70297 
L 298.989049 328.673267 
L 300.549493 328.673267 
L 300.549493 323.643564 
L 301.321706 323.643564 
L 301.339555 308.554455 
L 329.40429 308.554455 
L 329.495406 298.49505 
L 330.149204 298.49505 
L 330.194936 288.435644 
L 330.307121 288.435644 
L 330.40484 273.346535 
L 330.795312 273.346535 
L 330.795312 268.316832 
L 330.993547 268.316832 
L 330.993547 263.287129 
L 331.106431 263.287129 
L 331.204517 248.19802 
L 331.235294 248.19802 
L 331.257796 238.138614 
L 331.503382 238.138614 
L 331.601536 223.049505 
L 331.646019 223.049505 
L 331.755102 187.841584 
L 331.840383 187.841584 
L 331.908153 177.782178 
L 332.122134 177.782178 
L 332.138728 167.722772 
L 332.349521 167.722772 
L 332.349521 162.693069 
L 332.482044 162.693069 
L 332.482044 157.663366 
L 348.953534 157.663366 
L 348.953534 152.633663 
L 349.06676 152.633663 
L 349.06676 147.60396 
L 350.503181 147.60396 
L 350.503181 142.574257 
L 351.077494 142.574257 
L 351.077494 137.544554 
L 351.303578 137.544554 
L 351.303578 132.514851 
L 351.514644 132.514851 
L 351.514644 127.485149 
L 351.934276 127.485149 
L 351.934276 122.455446 
L 352.337967 122.455446 
L 352.408507 112.39604 
L 352.586737 112.39604 
L 352.675252 102.336634 
L 352.846158 102.336634 
L 352.846158 97.306931 
L 353.022007 97.306931 
L 353.022007 92.277228 
L 354.140759 92.277228 
L 354.140759 87.247525 
L 354.745346 87.247525 
L 354.745346 82.217822 
L 409.973432 82.217822 
L 409.973432 6.772277 
L 409.973432 6.772277 
L 567.24 6.772277 
L 567.24 6.772277 
" style="fill:none;stroke:#bf00bf;stroke-linecap:square;"/>
   </g>
   <g id="line2d_4">
    <path clip-path="url(#p2462dfb906)" d="M 291.092749 384 
L 291.092749 378.970297 
L 292.053349 378.970297 
L 292.053349 373.940594 
L 294.593656 373.940594 
L 294.593656 368.910891 
L 296.64803 368.910891 
L 296.64803 363.881188 
L 296.785167 363.881188 
L 296.785167 358.851485 
L 296.955131 358.851485 
L 296.996515 348.792079 
L 297.447907 348.792079 
L 297.447907 343.762376 
L 297.833002 343.762376 
L 297.833002 338.732673 
L 297.999327 338.732673 
L 297.999327 333.70297 
L 298.989049 333.70297 
L 298.989049 328.673267 
L 300.549493 328.673267 
L 300.549493 323.643564 
L 301.321706 323.643564 
L 301.339555 308.554455 
L 329.40429 308.554455 
L 329.495406 298.49505 
L 330.149204 298.49505 
L 330.194936 288.435644 
L 330.307121 288.435644 
L 330.40484 273.346535 
L 330.795312 273.346535 
L 330.795312 268.316832 
L 330.993547 268.316832 
L 330.993547 263.287129 
L 331.106431 263.287129 
L 331.204517 248.19802 
L 331.235294 248.19802 
L 331.257796 238.138614 
L 331.503382 238.138614 
L 331.601536 223.049505 
L 331.646019 223.049505 
L 331.755102 187.841584 
L 331.840383 187.841584 
L 331.908153 177.782178 
L 332.122134 177.782178 
L 332.138728 167.722772 
L 332.349521 167.722772 
L 332.349521 162.693069 
L 332.482044 162.693069 
L 332.482044 157.663366 
L 348.953534 157.663366 
L 348.953534 152.633663 
L 349.06676 152.633663 
L 349.06676 147.60396 
L 350.503181 147.60396 
L 350.503181 142.574257 
L 351.077494 142.574257 
L 351.077494 137.544554 
L 351.303578 137.544554 
L 351.303578 132.514851 
L 351.514644 132.514851 
L 351.514644 127.485149 
L 351.934276 127.485149 
L 351.934276 122.455446 
L 352.337967 122.455446 
L 352.408507 112.39604 
L 352.586737 112.39604 
L 352.675252 102.336634 
L 352.846158 102.336634 
L 352.846158 97.306931 
L 353.022007 97.306931 
L 353.022007 92.277228 
L 354.140759 92.277228 
L 354.140759 87.247525 
L 354.745346 87.247525 
L 354.745346 82.217822 
L 409.973432 82.217822 
L 409.973432 6.772277 
L 409.973432 6.772277 
L 567.24 6.772277 
L 567.24 6.772277 
" style="fill:none;stroke:#000000;stroke-linecap:square;"/>
   </g>
   <g id="line2d_5">
    <path clip-path="url(#p2462dfb906)" d="M 291.092749 384 
L 291.092749 378.970297 
L 292.053349 378.970297 
L 292.053349 373.940594 
L 294.593656 373.940594 
L 294.593656 368.910891 
L 296.64803 368.910891 
L 296.64803 363.881188 
L 296.785167 363.881188 
L 296.785167 358.851485 
L 296.955131 358.851485 
L 296.996515 348.792079 
L 297.447907 348.792079 
L 297.447907 343.762376 
L 297.833002 343.762376 
L 297.833002 338.732673 
L 297.999327 338.732673 
L 297.999327 333.70297 
L 298.989049 333.70297 
L 298.989049 328.673267 
L 300.549493 328.673267 
L 300.549493 323.643564 
L 301.321706 323.643564 
L 301.339555 308.554455 
L 323.424769 308.554455 
L 323.424769 303.524752 
L 325.539997 303.524752 
L 325.539997 298.49505 
L 328.063498 298.49505 
L 328.063498 293.465347 
L 328.306941 293.465347 
L 328.337702 283.405941 
L 328.425775 283.405941 
L 328.425775 278.376238 
L 328.907168 278.376238 
L 328.907168 273.346535 
L 329.40429 273.346535 
L 329.40429 268.316832 
L 329.910418 268.316832 
L 329.910418 263.287129 
L 330.194936 263.287129 
L 330.222562 253.227723 
L 330.307121 253.227723 
L 330.307121 248.19802 
L 330.459091 248.19802 
L 330.51498 238.138614 
L 330.795312 238.138614 
L 330.795312 233.108911 
L 331.180293 233.108911 
L 331.257796 218.019802 
L 331.351977 218.019802 
L 331.351977 212.990099 
L 331.669653 212.990099 
L 331.74877 187.841584 
L 331.840383 187.841584 
L 331.908153 177.782178 
L 332.122134 177.782178 
L 332.138728 167.722772 
L 332.349521 167.722772 
L 332.349521 162.693069 
L 332.482044 162.693069 
L 332.482044 157.663366 
L 348.953534 157.663366 
L 348.953534 152.633663 
L 349.06676 152.633663 
L 349.06676 147.60396 
L 350.503181 147.60396 
L 350.503181 142.574257 
L 351.077494 142.574257 
L 351.077494 137.544554 
L 351.303578 137.544554 
L 351.303578 132.514851 
L 351.514644 132.514851 
L 351.514644 127.485149 
L 351.934276 127.485149 
L 351.934276 122.455446 
L 352.337967 122.455446 
L 352.408507 112.39604 
L 352.586737 112.39604 
L 352.675252 102.336634 
L 352.846158 102.336634 
L 352.846158 97.306931 
L 353.022007 97.306931 
L 353.022007 92.277228 
L 354.140759 92.277228 
L 354.140759 87.247525 
L 354.745346 87.247525 
L 354.745346 82.217822 
L 390.214937 82.217822 
L 390.214937 77.188119 
L 409.973432 77.188119 
L 409.973432 6.772277 
L 409.973432 6.772277 
L 567.24 6.772277 
L 567.24 6.772277 
" style="fill:none;stroke:#00bfbf;stroke-linecap:square;"/>
   </g>
   <g id="line2d_6">
    <path clip-path="url(#p2462dfb906)" d="M 263.158538 384 
L 263.158538 378.970297 
L 283.192385 378.970297 
L 283.192385 373.940594 
L 285.729496 373.940594 
L 285.729496 368.910891 
L 287.067687 368.910891 
L 287.067687 363.881188 
L 287.652435 363.881188 
L 287.652435 358.851485 
L 288.239713 358.851485 
L 288.239713 353.821782 
L 289.417024 353.821782 
L 289.417024 348.792079 
L 290.512012 348.792079 
L 290.512012 343.762376 
L 290.803845 343.762376 
L 290.843148 333.70297 
L 291.092749 333.70297 
L 291.092749 328.673267 
L 291.833701 328.673267 
L 291.833701 323.643564 
L 292.053349 323.643564 
L 292.053349 318.613861 
L 293.391074 318.613861 
L 293.391074 313.584158 
L 293.637683 313.584158 
L 293.637683 308.554455 
L 294.298316 308.554455 
L 294.360885 298.49505 
L 294.593656 298.49505 
L 294.593656 293.465347 
L 295.354638 293.465347 
L 295.354638 288.435644 
L 295.598241 288.435644 
L 295.598241 283.405941 
L 297.384581 283.405941 
L 297.384581 278.376238 
L 297.756771 278.376238 
L 297.756771 273.346535 
L 298.347177 273.346535 
L 298.347177 268.316832 
L 299.893875 268.316832 
L 299.893875 263.287129 
L 302.270116 263.287129 
L 302.270116 258.257426 
L 303.09177 258.257426 
L 303.09177 253.227723 
L 303.267933 253.227723 
L 303.279007 243.168317 
L 306.306486 243.168317 
L 306.390134 233.108911 
L 306.569244 233.108911 
L 306.569244 228.079208 
L 307.08917 228.079208 
L 307.08917 223.049505 
L 311.626448 223.049505 
L 311.626448 218.019802 
L 312.795692 218.019802 
L 312.870625 207.960396 
L 313.700442 207.960396 
L 313.700442 202.930693 
L 314.981249 202.930693 
L 314.981249 197.90099 
L 318.326759 197.90099 
L 318.326759 192.871287 
L 320.849337 192.871287 
L 320.876694 182.811881 
L 322.463921 182.811881 
L 322.463921 177.782178 
L 323.231646 177.782178 
L 323.231646 172.752475 
L 325.902189 172.752475 
L 325.902189 167.722772 
L 329.598522 167.722772 
L 329.701706 157.663366 
L 348.953534 157.663366 
L 348.953534 152.633663 
L 349.06676 152.633663 
L 349.06676 147.60396 
L 350.503181 147.60396 
L 350.503181 142.574257 
L 351.077494 142.574257 
L 351.077494 137.544554 
L 351.303578 137.544554 
L 351.303578 132.514851 
L 351.514644 132.514851 
L 351.514644 127.485149 
L 351.934276 127.485149 
L 351.934276 122.455446 
L 352.337967 122.455446 
L 352.408507 112.39604 
L 352.586737 112.39604 
L 352.675252 102.336634 
L 352.846158 102.336634 
L 352.846158 97.306931 
L 353.022007 97.306931 
L 353.022007 92.277228 
L 354.140759 92.277228 
L 354.140759 87.247525 
L 354.745346 87.247525 
L 354.745346 82.217822 
L 377.440647 82.217822 
L 377.440647 77.188119 
L 386.85628 77.188119 
L 386.85628 72.158416 
L 387.362605 72.158416 
L 387.362605 67.128713 
L 389.624812 67.128713 
L 389.624812 62.09901 
L 391.0307 62.09901 
L 391.0307 57.069307 
L 391.946116 57.069307 
L 392.036396 47.009901 
L 394.841383 47.009901 
L 394.841383 41.980198 
L 395.334396 41.980198 
L 395.334396 36.950495 
L 395.927044 36.950495 
L 395.927044 31.920792 
L 400.665479 31.920792 
L 400.665479 26.891089 
L 401.310063 26.891089 
L 401.310063 21.861386 
L 402.821166 21.861386 
L 402.821166 16.831683 
L 403.040457 16.831683 
L 403.040457 11.80198 
L 403.424816 11.80198 
L 403.424816 6.772277 
L 403.424816 6.772277 
L 567.24 6.772277 
L 567.24 6.772277 
" style="fill:none;stroke:#bf00bf;stroke-linecap:square;"/>
   </g>
   <g id="line2d_7">
    <path clip-path="url(#p2462dfb906)" d="M 263.137453 384 
L 263.137453 378.970297 
L 271.851657 378.970297 
L 271.851657 373.940594 
L 274.7655 373.940594 
L 274.7655 368.910891 
L 277.318421 368.910891 
L 277.318421 363.881188 
L 277.828749 363.881188 
L 277.828749 358.851485 
L 277.959552 358.851485 
L 277.959552 353.821782 
L 278.553558 353.821782 
L 278.553558 348.792079 
L 282.247484 348.792079 
L 282.247484 343.762376 
L 282.64351 343.762376 
L 282.652535 333.70297 
L 283.187465 333.70297 
L 283.187465 328.673267 
L 285.34483 328.673267 
L 285.34483 323.643564 
L 285.729496 323.643564 
L 285.729496 318.613861 
L 287.067687 318.613861 
L 287.067687 313.584158 
L 287.652435 313.584158 
L 287.652435 308.554455 
L 287.781581 308.554455 
L 287.781581 303.524752 
L 288.239713 303.524752 
L 288.261361 293.465347 
L 288.875019 293.465347 
L 288.875019 288.435644 
L 289.417024 288.435644 
L 289.417024 283.405941 
L 290.401035 283.405941 
L 290.512012 273.346535 
L 290.642108 273.346535 
L 290.642108 268.316832 
L 290.803783 268.316832 
L 290.803783 263.287129 
L 291.564867 263.287129 
L 291.564867 258.257426 
L 291.920767 258.257426 
L 291.920767 253.227723 
L 292.053349 253.227723 
L 292.053349 248.19802 
L 292.258176 248.19802 
L 292.258176 243.168317 
L 293.364122 243.168317 
L 293.445249 233.108911 
L 293.537305 233.108911 
L 293.637683 223.049505 
L 293.694731 223.049505 
L 293.694731 218.019802 
L 293.957655 218.019802 
L 293.957655 212.990099 
L 295.366715 212.990099 
L 295.366715 207.960396 
L 296.003957 207.960396 
L 296.003957 202.930693 
L 296.621635 202.930693 
L 296.621635 197.90099 
L 297.05414 197.90099 
L 297.05414 192.871287 
L 298.747956 192.871287 
L 298.747956 187.841584 
L 299.239161 187.841584 
L 299.239161 182.811881 
L 301.434735 182.811881 
L 301.434735 177.782178 
L 301.861817 177.782178 
L 301.861817 172.752475 
L 302.391109 172.752475 
L 302.391109 167.722772 
L 302.833698 167.722772 
L 302.833698 162.693069 
L 302.961862 162.693069 
L 302.961862 157.663366 
L 303.267933 157.663366 
L 303.267933 152.633663 
L 303.518171 152.633663 
L 303.518171 147.60396 
L 304.187906 147.60396 
L 304.187906 142.574257 
L 305.145503 142.574257 
L 305.145503 137.544554 
L 305.820173 137.544554 
L 305.820173 132.514851 
L 306.664243 132.514851 
L 306.664243 127.485149 
L 307.540001 127.485149 
L 307.540001 122.455446 
L 307.718696 122.455446 
L 307.718696 117.425743 
L 312.870618 117.425743 
L 312.876633 107.366337 
L 318.275306 107.366337 
L 318.275306 102.336634 
L 321.964441 102.336634 
L 321.964441 97.306931 
L 325.878073 97.306931 
L 325.878073 92.277228 
L 332.178497 92.277228 
L 332.178497 87.247525 
L 332.544396 87.247525 
L 332.544396 82.217822 
L 348.953534 82.217822 
L 348.953534 77.188119 
L 349.06676 77.188119 
L 349.06676 72.158416 
L 350.503181 72.158416 
L 350.503181 67.128713 
L 351.077494 67.128713 
L 351.077494 62.09901 
L 351.303578 62.09901 
L 351.303578 57.069307 
L 351.514644 57.069307 
L 351.514644 52.039604 
L 351.934276 52.039604 
L 351.934276 47.009901 
L 352.337967 47.009901 
L 352.408507 36.950495 
L 352.586737 36.950495 
L 352.675252 26.891089 
L 352.846158 26.891089 
L 352.846158 21.861386 
L 353.022007 21.861386 
L 353.022007 16.831683 
L 354.140759 16.831683 
L 354.140759 11.80198 
L 354.745346 11.80198 
L 354.745346 6.772277 
L 354.745346 6.772277 
L 567.24 6.772277 
L 567.24 6.772277 
" style="fill:none;stroke:#000000;stroke-linecap:square;"/>
   </g>
   <g id="line2d_8">
    <path clip-path="url(#p2462dfb906)" d="M 263.137453 384 
L 263.137453 378.970297 
L 265.855532 378.970297 
L 265.855532 373.940594 
L 267.062863 373.940594 
L 267.062863 368.910891 
L 271.617437 368.910891 
L 271.726825 358.851485 
L 273.613182 358.851485 
L 273.613182 353.821782 
L 274.53118 353.821782 
L 274.53118 348.792079 
L 274.745487 348.792079 
L 274.745487 343.762376 
L 275.572933 343.762376 
L 275.572933 338.732673 
L 278.026966 338.732673 
L 278.026966 333.70297 
L 279.033917 333.70297 
L 279.033917 328.673267 
L 279.456381 328.673267 
L 279.456381 323.643564 
L 280.021662 323.643564 
L 280.021662 318.613861 
L 280.417573 318.613861 
L 280.417573 313.584158 
L 280.786458 313.584158 
L 280.786458 308.554455 
L 281.898944 308.554455 
L 281.898944 303.524752 
L 282.186428 303.524752 
L 282.186428 298.49505 
L 282.42893 298.49505 
L 282.499873 288.435644 
L 282.556714 288.435644 
L 282.556714 283.405941 
L 283.187465 283.405941 
L 283.187465 278.376238 
L 284.578225 278.376238 
L 284.578225 273.346535 
L 284.840696 273.346535 
L 284.840696 268.316832 
L 285.006106 268.316832 
L 285.006106 263.287129 
L 285.171636 263.287129 
L 285.264895 253.227723 
L 285.337245 253.227723 
L 285.34483 243.168317 
L 285.729496 243.168317 
L 285.729496 238.138614 
L 285.966747 238.138614 
L 285.966747 233.108911 
L 286.225823 233.108911 
L 286.225823 228.079208 
L 286.896672 228.079208 
L 286.901729 218.019802 
L 287.067687 218.019802 
L 287.067687 212.990099 
L 287.179612 212.990099 
L 287.179612 207.960396 
L 288.208011 207.960396 
L 288.239713 197.90099 
L 288.830029 197.90099 
L 288.830029 192.871287 
L 289.501332 192.871287 
L 289.501332 187.841584 
L 291.23136 187.841584 
L 291.23136 182.811881 
L 293.047657 182.811881 
L 293.047657 177.782178 
L 293.350281 177.782178 
L 293.350281 172.752475 
L 293.537305 172.752475 
L 293.537305 167.722772 
L 294.213937 167.722772 
L 294.213937 162.693069 
L 295.853411 162.693069 
L 295.853411 157.663366 
L 296.58246 157.663366 
L 296.58246 152.633663 
L 296.933815 152.633663 
L 296.933815 147.60396 
L 297.054089 147.60396 
L 297.054089 142.574257 
L 298.640726 142.574257 
L 298.640726 137.544554 
L 299.75329 137.544554 
L 299.75329 132.514851 
L 300.306623 132.514851 
L 300.306623 127.485149 
L 302.833698 127.485149 
L 302.833698 122.455446 
L 304.212193 122.455446 
L 304.212193 117.425743 
L 305.820173 117.425743 
L 305.820173 112.39604 
L 306.664243 112.39604 
L 306.664243 107.366337 
L 307.540001 107.366337 
L 307.540001 102.336634 
L 309.753145 102.336634 
L 309.753145 97.306931 
L 312.388132 97.306931 
L 312.388132 92.277228 
L 318.239433 92.277228 
L 318.239433 87.247525 
L 319.186333 87.247525 
L 319.186333 82.217822 
L 348.953534 82.217822 
L 348.953534 77.188119 
L 349.06676 77.188119 
L 349.06676 72.158416 
L 350.503181 72.158416 
L 350.503181 67.128713 
L 351.077494 67.128713 
L 351.077494 62.09901 
L 351.303578 62.09901 
L 351.303578 57.069307 
L 351.514644 57.069307 
L 351.514644 52.039604 
L 351.758239 52.039604 
L 351.758239 47.009901 
L 351.915563 47.009901 
L 351.934276 36.950495 
L 352.337967 36.950495 
L 352.408507 26.891089 
L 352.675252 26.891089 
L 352.675252 21.861386 
L 352.846158 21.861386 
L 352.846158 16.831683 
L 354.140759 16.831683 
L 354.140759 11.80198 
L 354.745346 11.80198 
L 354.745346 6.772277 
L 354.745346 6.772277 
L 567.24 6.772277 
L 567.24 6.772277 
" style="fill:none;stroke:#00bfbf;stroke-linecap:square;"/>
   </g>
   <g id="patch_3">
    <path d="M 3 3 
L 567.24 3 
" style="fill:none;stroke:#000000;stroke-linecap:square;stroke-linejoin:miter;"/>
   </g>
   <g id="patch_4">
    <path d="M 567.24 384 
L 567.24 3 
" style="fill:none;stroke:#000000;stroke-linecap:square;stroke-linejoin:miter;"/>
   </g>
   <g id="patch_5">
    <path d="M 3 384 
L 567.24 384 
" style="fill:none;stroke:#000000;stroke-linecap:square;stroke-linejoin:miter;"/>
   </g>
   <g id="patch_6">
    <path d="M 3 384 
L 3 3 
" style="fill:none;stroke:#000000;stroke-linecap:square;stroke-linejoin:miter;"/>
   </g>
   <g id="matplotlib.axis_1">
    <g id="xtick_1"/>
    <g id="xtick_2">
     <g id="line2d_9">
      <path clip-path="url(#p2462dfb906)" d="M 69.254589 384 
L 69.254589 3 
" style="fill:none;stroke:#000000;stroke-dasharray:1.000000,3.000000;stroke-dashoffset:0.0;stroke-width:0.5;"/>
     </g>
     <g id="line2d_10">
      <defs>
       <path d="M 0 0 
L 0 -4 
" id="me1a0be12e6" style="stroke:#000000;stroke-width:0.5;"/>
      </defs>
      <g>
       <use style="stroke:#000000;stroke-width:0.5;" x="69.2545893472" xlink:href="#me1a0be12e6" y="384.0"/>
      </g>
     </g>
     <g id="line2d_11">
      <defs>
       <path d="M 0 0 
L 0 4 
" id="m940596f334" style="stroke:#000000;stroke-width:0.5;"/>
      </defs>
      <g>
       <use style="stroke:#000000;stroke-width:0.5;" x="69.2545893472" xlink:href="#m940596f334" y="3.0"/>
      </g>
     </g>
     <g id="text_1">
      <!-- -6 -->
      <defs>
       <path d="M 33.015625 40.375 
Q 26.375 40.375 22.484375 35.828125 
Q 18.609375 31.296875 18.609375 23.390625 
Q 18.609375 15.53125 22.484375 10.953125 
Q 26.375 6.390625 33.015625 6.390625 
Q 39.65625 6.390625 43.53125 10.953125 
Q 47.40625 15.53125 47.40625 23.390625 
Q 47.40625 31.296875 43.53125 35.828125 
Q 39.65625 40.375 33.015625 40.375 
M 52.59375 71.296875 
L 52.59375 62.3125 
Q 48.875 64.0625 45.09375 64.984375 
Q 41.3125 65.921875 37.59375 65.921875 
Q 27.828125 65.921875 22.671875 59.328125 
Q 17.53125 52.734375 16.796875 39.40625 
Q 19.671875 43.65625 24.015625 45.921875 
Q 28.375 48.1875 33.59375 48.1875 
Q 44.578125 48.1875 50.953125 41.515625 
Q 57.328125 34.859375 57.328125 23.390625 
Q 57.328125 12.15625 50.6875 5.359375 
Q 44.046875 -1.421875 33.015625 -1.421875 
Q 20.359375 -1.421875 13.671875 8.265625 
Q 6.984375 17.96875 6.984375 36.375 
Q 6.984375 53.65625 15.1875 63.9375 
Q 23.390625 74.21875 37.203125 74.21875 
Q 40.921875 74.21875 44.703125 73.484375 
Q 48.484375 72.75 52.59375 71.296875 
" id="BitstreamVeraSans-Roman-36"/>
       <path d="M 4.890625 31.390625 
L 31.203125 31.390625 
L 31.203125 23.390625 
L 4.890625 23.390625 
z
" id="BitstreamVeraSans-Roman-2d"/>
      </defs>
      <g transform="translate(59.2842768472 403.196875)scale(0.2 -0.2)">
       <use xlink:href="#BitstreamVeraSans-Roman-2d"/>
       <use x="36.083984375" xlink:href="#BitstreamVeraSans-Roman-36"/>
      </g>
     </g>
    </g>
    <g id="xtick_3">
     <g id="line2d_12">
      <path clip-path="url(#p2462dfb906)" d="M 135.652644 384 
L 135.652644 3 
" style="fill:none;stroke:#000000;stroke-dasharray:1.000000,3.000000;stroke-dashoffset:0.0;stroke-width:0.5;"/>
     </g>
     <g id="line2d_13">
      <g>
       <use style="stroke:#000000;stroke-width:0.5;" x="135.652644101" xlink:href="#me1a0be12e6" y="384.0"/>
      </g>
     </g>
     <g id="line2d_14">
      <g>
       <use style="stroke:#000000;stroke-width:0.5;" x="135.652644101" xlink:href="#m940596f334" y="3.0"/>
      </g>
     </g>
     <g id="text_2">
      <!-- -4 -->
      <defs>
       <path d="M 37.796875 64.3125 
L 12.890625 25.390625 
L 37.796875 25.390625 
z
M 35.203125 72.90625 
L 47.609375 72.90625 
L 47.609375 25.390625 
L 58.015625 25.390625 
L 58.015625 17.1875 
L 47.609375 17.1875 
L 47.609375 0 
L 37.796875 0 
L 37.796875 17.1875 
L 4.890625 17.1875 
L 4.890625 26.703125 
z
" id="BitstreamVeraSans-Roman-34"/>
      </defs>
      <g transform="translate(125.682331601 403.196875)scale(0.2 -0.2)">
       <use xlink:href="#BitstreamVeraSans-Roman-2d"/>
       <use x="36.083984375" xlink:href="#BitstreamVeraSans-Roman-34"/>
      </g>
     </g>
    </g>
    <g id="xtick_4">
     <g id="line2d_15">
      <path clip-path="url(#p2462dfb906)" d="M 202.050699 384 
L 202.050699 3 
" style="fill:none;stroke:#000000;stroke-dasharray:1.000000,3.000000;stroke-dashoffset:0.0;stroke-width:0.5;"/>
     </g>
     <g id="line2d_16">
      <g>
       <use style="stroke:#000000;stroke-width:0.5;" x="202.050698855" xlink:href="#me1a0be12e6" y="384.0"/>
      </g>
     </g>
     <g id="line2d_17">
      <g>
       <use style="stroke:#000000;stroke-width:0.5;" x="202.050698855" xlink:href="#m940596f334" y="3.0"/>
      </g>
     </g>
     <g id="text_3">
      <!-- -2 -->
      <defs>
       <path d="M 19.1875 8.296875 
L 53.609375 8.296875 
L 53.609375 0 
L 7.328125 0 
L 7.328125 8.296875 
Q 12.9375 14.109375 22.625 23.890625 
Q 32.328125 33.6875 34.8125 36.53125 
Q 39.546875 41.84375 41.421875 45.53125 
Q 43.3125 49.21875 43.3125 52.78125 
Q 43.3125 58.59375 39.234375 62.25 
Q 35.15625 65.921875 28.609375 65.921875 
Q 23.96875 65.921875 18.8125 64.3125 
Q 13.671875 62.703125 7.8125 59.421875 
L 7.8125 69.390625 
Q 13.765625 71.78125 18.9375 73 
Q 24.125 74.21875 28.421875 74.21875 
Q 39.75 74.21875 46.484375 68.546875 
Q 53.21875 62.890625 53.21875 53.421875 
Q 53.21875 48.921875 51.53125 44.890625 
Q 49.859375 40.875 45.40625 35.40625 
Q 44.1875 33.984375 37.640625 27.21875 
Q 31.109375 20.453125 19.1875 8.296875 
" id="BitstreamVeraSans-Roman-32"/>
      </defs>
      <g transform="translate(192.080386355 403.196875)scale(0.2 -0.2)">
       <use xlink:href="#BitstreamVeraSans-Roman-2d"/>
       <use x="36.083984375" xlink:href="#BitstreamVeraSans-Roman-32"/>
      </g>
     </g>
    </g>
    <g id="xtick_5">
     <g id="line2d_18">
      <path clip-path="url(#p2462dfb906)" d="M 268.448754 384 
L 268.448754 3 
" style="fill:none;stroke:#000000;stroke-dasharray:1.000000,3.000000;stroke-dashoffset:0.0;stroke-width:0.5;"/>
     </g>
     <g id="line2d_19">
      <g>
       <use style="stroke:#000000;stroke-width:0.5;" x="268.448753608" xlink:href="#me1a0be12e6" y="384.0"/>
      </g>
     </g>
     <g id="line2d_20">
      <g>
       <use style="stroke:#000000;stroke-width:0.5;" x="268.448753608" xlink:href="#m940596f334" y="3.0"/>
      </g>
     </g>
     <g id="text_4">
      <!-- 0 -->
      <defs>
       <path d="M 31.78125 66.40625 
Q 24.171875 66.40625 20.328125 58.90625 
Q 16.5 51.421875 16.5 36.375 
Q 16.5 21.390625 20.328125 13.890625 
Q 24.171875 6.390625 31.78125 6.390625 
Q 39.453125 6.390625 43.28125 13.890625 
Q 47.125 21.390625 47.125 36.375 
Q 47.125 51.421875 43.28125 58.90625 
Q 39.453125 66.40625 31.78125 66.40625 
M 31.78125 74.21875 
Q 44.046875 74.21875 50.515625 64.515625 
Q 56.984375 54.828125 56.984375 36.375 
Q 56.984375 17.96875 50.515625 8.265625 
Q 44.046875 -1.421875 31.78125 -1.421875 
Q 19.53125 -1.421875 13.0625 8.265625 
Q 6.59375 17.96875 6.59375 36.375 
Q 6.59375 54.828125 13.0625 64.515625 
Q 19.53125 74.21875 31.78125 74.21875 
" id="BitstreamVeraSans-Roman-30"/>
      </defs>
      <g transform="translate(262.086253608 403.196875)scale(0.2 -0.2)">
       <use xlink:href="#BitstreamVeraSans-Roman-30"/>
      </g>
     </g>
    </g>
    <g id="xtick_6">
     <g id="line2d_21">
      <path clip-path="url(#p2462dfb906)" d="M 334.846808 384 
L 334.846808 3 
" style="fill:none;stroke:#000000;stroke-dasharray:1.000000,3.000000;stroke-dashoffset:0.0;stroke-width:0.5;"/>
     </g>
     <g id="line2d_22">
      <g>
       <use style="stroke:#000000;stroke-width:0.5;" x="334.846808362" xlink:href="#me1a0be12e6" y="384.0"/>
      </g>
     </g>
     <g id="line2d_23">
      <g>
       <use style="stroke:#000000;stroke-width:0.5;" x="334.846808362" xlink:href="#m940596f334" y="3.0"/>
      </g>
     </g>
     <g id="text_5">
      <!-- 2 -->
      <g transform="translate(328.484308362 403.196875)scale(0.2 -0.2)">
       <use xlink:href="#BitstreamVeraSans-Roman-32"/>
      </g>
     </g>
    </g>
    <g id="xtick_7">
     <g id="line2d_24">
      <path clip-path="url(#p2462dfb906)" d="M 401.244863 384 
L 401.244863 3 
" style="fill:none;stroke:#000000;stroke-dasharray:1.000000,3.000000;stroke-dashoffset:0.0;stroke-width:0.5;"/>
     </g>
     <g id="line2d_25">
      <g>
       <use style="stroke:#000000;stroke-width:0.5;" x="401.244863116" xlink:href="#me1a0be12e6" y="384.0"/>
      </g>
     </g>
     <g id="line2d_26">
      <g>
       <use style="stroke:#000000;stroke-width:0.5;" x="401.244863116" xlink:href="#m940596f334" y="3.0"/>
      </g>
     </g>
     <g id="text_6">
      <!-- 4 -->
      <g transform="translate(394.882363116 403.196875)scale(0.2 -0.2)">
       <use xlink:href="#BitstreamVeraSans-Roman-34"/>
      </g>
     </g>
    </g>
    <g id="xtick_8">
     <g id="line2d_27">
      <path clip-path="url(#p2462dfb906)" d="M 467.642918 384 
L 467.642918 3 
" style="fill:none;stroke:#000000;stroke-dasharray:1.000000,3.000000;stroke-dashoffset:0.0;stroke-width:0.5;"/>
     </g>
     <g id="line2d_28">
      <g>
       <use style="stroke:#000000;stroke-width:0.5;" x="467.642917869" xlink:href="#me1a0be12e6" y="384.0"/>
      </g>
     </g>
     <g id="line2d_29">
      <g>
       <use style="stroke:#000000;stroke-width:0.5;" x="467.642917869" xlink:href="#m940596f334" y="3.0"/>
      </g>
     </g>
     <g id="text_7">
      <!-- 6 -->
      <g transform="translate(461.280417869 403.196875)scale(0.2 -0.2)">
       <use xlink:href="#BitstreamVeraSans-Roman-36"/>
      </g>
     </g>
    </g>
    <g id="xtick_9">
     <g id="line2d_30">
      <path clip-path="url(#p2462dfb906)" d="M 534.040973 384 
L 534.040973 3 
" style="fill:none;stroke:#000000;stroke-dasharray:1.000000,3.000000;stroke-dashoffset:0.0;stroke-width:0.5;"/>
     </g>
     <g id="line2d_31">
      <g>
       <use style="stroke:#000000;stroke-width:0.5;" x="534.040972623" xlink:href="#me1a0be12e6" y="384.0"/>
      </g>
     </g>
     <g id="line2d_32">
      <g>
       <use style="stroke:#000000;stroke-width:0.5;" x="534.040972623" xlink:href="#m940596f334" y="3.0"/>
      </g>
     </g>
     <g id="text_8">
      <!-- 8 -->
      <defs>
       <path d="M 31.78125 34.625 
Q 24.75 34.625 20.71875 30.859375 
Q 16.703125 27.09375 16.703125 20.515625 
Q 16.703125 13.921875 20.71875 10.15625 
Q 24.75 6.390625 31.78125 6.390625 
Q 38.8125 6.390625 42.859375 10.171875 
Q 46.921875 13.96875 46.921875 20.515625 
Q 46.921875 27.09375 42.890625 30.859375 
Q 38.875 34.625 31.78125 34.625 
M 21.921875 38.8125 
Q 15.578125 40.375 12.03125 44.71875 
Q 8.5 49.078125 8.5 55.328125 
Q 8.5 64.0625 14.71875 69.140625 
Q 20.953125 74.21875 31.78125 74.21875 
Q 42.671875 74.21875 48.875 69.140625 
Q 55.078125 64.0625 55.078125 55.328125 
Q 55.078125 49.078125 51.53125 44.71875 
Q 48 40.375 41.703125 38.8125 
Q 48.828125 37.15625 52.796875 32.3125 
Q 56.78125 27.484375 56.78125 20.515625 
Q 56.78125 9.90625 50.3125 4.234375 
Q 43.84375 -1.421875 31.78125 -1.421875 
Q 19.734375 -1.421875 13.25 4.234375 
Q 6.78125 9.90625 6.78125 20.515625 
Q 6.78125 27.484375 10.78125 32.3125 
Q 14.796875 37.15625 21.921875 38.8125 
M 18.3125 54.390625 
Q 18.3125 48.734375 21.84375 45.5625 
Q 25.390625 42.390625 31.78125 42.390625 
Q 38.140625 42.390625 41.71875 45.5625 
Q 45.3125 48.734375 45.3125 54.390625 
Q 45.3125 60.0625 41.71875 63.234375 
Q 38.140625 66.40625 31.78125 66.40625 
Q 25.390625 66.40625 21.84375 63.234375 
Q 18.3125 60.0625 18.3125 54.390625 
" id="BitstreamVeraSans-Roman-38"/>
      </defs>
      <g transform="translate(527.678472623 403.196875)scale(0.2 -0.2)">
       <use xlink:href="#BitstreamVeraSans-Roman-38"/>
      </g>
     </g>
    </g>
    <g id="xtick_10"/>
    <g id="xtick_11">
     <g id="line2d_33">
      <defs>
       <path d="M 0 0 
L 0 -2 
" id="m35f03c4543" style="stroke:#000000;stroke-width:0.5;"/>
      </defs>
      <g>
       <use style="stroke:#000000;stroke-width:0.5;" x="69.2545893472" xlink:href="#m35f03c4543" y="384.0"/>
      </g>
     </g>
     <g id="line2d_34">
      <defs>
       <path d="M 0 0 
L 0 2 
" id="m17d5a7e84b" style="stroke:#000000;stroke-width:0.5;"/>
      </defs>
      <g>
       <use style="stroke:#000000;stroke-width:0.5;" x="69.2545893472" xlink:href="#m17d5a7e84b" y="3.0"/>
      </g>
     </g>
    </g>
    <g id="xtick_12">
     <g id="line2d_35">
      <g>
       <use style="stroke:#000000;stroke-width:0.5;" x="135.652644101" xlink:href="#m35f03c4543" y="384.0"/>
      </g>
     </g>
     <g id="line2d_36">
      <g>
       <use style="stroke:#000000;stroke-width:0.5;" x="135.652644101" xlink:href="#m17d5a7e84b" y="3.0"/>
      </g>
     </g>
    </g>
    <g id="xtick_13">
     <g id="line2d_37">
      <g>
       <use style="stroke:#000000;stroke-width:0.5;" x="202.050698855" xlink:href="#m35f03c4543" y="384.0"/>
      </g>
     </g>
     <g id="line2d_38">
      <g>
       <use style="stroke:#000000;stroke-width:0.5;" x="202.050698855" xlink:href="#m17d5a7e84b" y="3.0"/>
      </g>
     </g>
    </g>
    <g id="xtick_14">
     <g id="line2d_39">
      <g>
       <use style="stroke:#000000;stroke-width:0.5;" x="268.448753608" xlink:href="#m35f03c4543" y="384.0"/>
      </g>
     </g>
     <g id="line2d_40">
      <g>
       <use style="stroke:#000000;stroke-width:0.5;" x="268.448753608" xlink:href="#m17d5a7e84b" y="3.0"/>
      </g>
     </g>
    </g>
    <g id="xtick_15">
     <g id="line2d_41">
      <g>
       <use style="stroke:#000000;stroke-width:0.5;" x="334.846808362" xlink:href="#m35f03c4543" y="384.0"/>
      </g>
     </g>
     <g id="line2d_42">
      <g>
       <use style="stroke:#000000;stroke-width:0.5;" x="334.846808362" xlink:href="#m17d5a7e84b" y="3.0"/>
      </g>
     </g>
    </g>
    <g id="xtick_16">
     <g id="line2d_43">
      <g>
       <use style="stroke:#000000;stroke-width:0.5;" x="401.244863116" xlink:href="#m35f03c4543" y="384.0"/>
      </g>
     </g>
     <g id="line2d_44">
      <g>
       <use style="stroke:#000000;stroke-width:0.5;" x="401.244863116" xlink:href="#m17d5a7e84b" y="3.0"/>
      </g>
     </g>
    </g>
    <g id="xtick_17">
     <g id="line2d_45">
      <g>
       <use style="stroke:#000000;stroke-width:0.5;" x="467.642917869" xlink:href="#m35f03c4543" y="384.0"/>
      </g>
     </g>
     <g id="line2d_46">
      <g>
       <use style="stroke:#000000;stroke-width:0.5;" x="467.642917869" xlink:href="#m17d5a7e84b" y="3.0"/>
      </g>
     </g>
    </g>
    <g id="xtick_18">
     <g id="line2d_47">
      <g>
       <use style="stroke:#000000;stroke-width:0.5;" x="534.040972623" xlink:href="#m35f03c4543" y="384.0"/>
      </g>
     </g>
     <g id="line2d_48">
      <g>
       <use style="stroke:#000000;stroke-width:0.5;" x="534.040972623" xlink:href="#m17d5a7e84b" y="3.0"/>
      </g>
     </g>
    </g>
    <g id="text_9">
     <!-- log10 of Df -->
     <defs>
      <path id="BitstreamVeraSans-Roman-20"/>
      <path d="M 12.40625 8.296875 
L 28.515625 8.296875 
L 28.515625 63.921875 
L 10.984375 60.40625 
L 10.984375 69.390625 
L 28.421875 72.90625 
L 38.28125 72.90625 
L 38.28125 8.296875 
L 54.390625 8.296875 
L 54.390625 0 
L 12.40625 0 
z
" id="BitstreamVeraSans-Roman-31"/>
      <path d="M 30.609375 48.390625 
Q 23.390625 48.390625 19.1875 42.75 
Q 14.984375 37.109375 14.984375 27.296875 
Q 14.984375 17.484375 19.15625 11.84375 
Q 23.34375 6.203125 30.609375 6.203125 
Q 37.796875 6.203125 41.984375 11.859375 
Q 46.1875 17.53125 46.1875 27.296875 
Q 46.1875 37.015625 41.984375 42.703125 
Q 37.796875 48.390625 30.609375 48.390625 
M 30.609375 56 
Q 42.328125 56 49.015625 48.375 
Q 55.71875 40.765625 55.71875 27.296875 
Q 55.71875 13.875 49.015625 6.21875 
Q 42.328125 -1.421875 30.609375 -1.421875 
Q 18.84375 -1.421875 12.171875 6.21875 
Q 5.515625 13.875 5.515625 27.296875 
Q 5.515625 40.765625 12.171875 48.375 
Q 18.84375 56 30.609375 56 
" id="BitstreamVeraSans-Roman-6f"/>
      <path d="M 9.421875 75.984375 
L 18.40625 75.984375 
L 18.40625 0 
L 9.421875 0 
z
" id="BitstreamVeraSans-Roman-6c"/>
      <path d="M 19.671875 64.796875 
L 19.671875 8.109375 
L 31.59375 8.109375 
Q 46.6875 8.109375 53.6875 14.9375 
Q 60.6875 21.78125 60.6875 36.53125 
Q 60.6875 51.171875 53.6875 57.984375 
Q 46.6875 64.796875 31.59375 64.796875 
z
M 9.8125 72.90625 
L 30.078125 72.90625 
Q 51.265625 72.90625 61.171875 64.09375 
Q 71.09375 55.28125 71.09375 36.53125 
Q 71.09375 17.671875 61.125 8.828125 
Q 51.171875 0 30.078125 0 
L 9.8125 0 
z
" id="BitstreamVeraSans-Roman-44"/>
      <path d="M 45.40625 27.984375 
Q 45.40625 37.75 41.375 43.109375 
Q 37.359375 48.484375 30.078125 48.484375 
Q 22.859375 48.484375 18.828125 43.109375 
Q 14.796875 37.75 14.796875 27.984375 
Q 14.796875 18.265625 18.828125 12.890625 
Q 22.859375 7.515625 30.078125 7.515625 
Q 37.359375 7.515625 41.375 12.890625 
Q 45.40625 18.265625 45.40625 27.984375 
M 54.390625 6.78125 
Q 54.390625 -7.171875 48.1875 -13.984375 
Q 42 -20.796875 29.203125 -20.796875 
Q 24.46875 -20.796875 20.265625 -20.09375 
Q 16.0625 -19.390625 12.109375 -17.921875 
L 12.109375 -9.1875 
Q 16.0625 -11.328125 19.921875 -12.34375 
Q 23.78125 -13.375 27.78125 -13.375 
Q 36.625 -13.375 41.015625 -8.765625 
Q 45.40625 -4.15625 45.40625 5.171875 
L 45.40625 9.625 
Q 42.625 4.78125 38.28125 2.390625 
Q 33.9375 0 27.875 0 
Q 17.828125 0 11.671875 7.65625 
Q 5.515625 15.328125 5.515625 27.984375 
Q 5.515625 40.671875 11.671875 48.328125 
Q 17.828125 56 27.875 56 
Q 33.9375 56 38.28125 53.609375 
Q 42.625 51.21875 45.40625 46.390625 
L 45.40625 54.6875 
L 54.390625 54.6875 
z
" id="BitstreamVeraSans-Roman-67"/>
      <path d="M 37.109375 75.984375 
L 37.109375 68.5 
L 28.515625 68.5 
Q 23.6875 68.5 21.796875 66.546875 
Q 19.921875 64.59375 19.921875 59.515625 
L 19.921875 54.6875 
L 34.71875 54.6875 
L 34.71875 47.703125 
L 19.921875 47.703125 
L 19.921875 0 
L 10.890625 0 
L 10.890625 47.703125 
L 2.296875 47.703125 
L 2.296875 54.6875 
L 10.890625 54.6875 
L 10.890625 58.5 
Q 10.890625 67.625 15.140625 71.796875 
Q 19.390625 75.984375 28.609375 75.984375 
z
" id="BitstreamVeraSans-Roman-66"/>
     </defs>
     <g transform="translate(229.9340625 427.553125)scale(0.2 -0.2)">
      <use xlink:href="#BitstreamVeraSans-Roman-6c"/>
      <use x="27.783203125" xlink:href="#BitstreamVeraSans-Roman-6f"/>
      <use x="88.96484375" xlink:href="#BitstreamVeraSans-Roman-67"/>
      <use x="152.44140625" xlink:href="#BitstreamVeraSans-Roman-31"/>
      <use x="216.064453125" xlink:href="#BitstreamVeraSans-Roman-30"/>
      <use x="279.6875" xlink:href="#BitstreamVeraSans-Roman-20"/>
      <use x="311.474609375" xlink:href="#BitstreamVeraSans-Roman-6f"/>
      <use x="372.65625" xlink:href="#BitstreamVeraSans-Roman-66"/>
      <use x="407.861328125" xlink:href="#BitstreamVeraSans-Roman-20"/>
      <use x="439.6484375" xlink:href="#BitstreamVeraSans-Roman-44"/>
      <use x="516.650390625" xlink:href="#BitstreamVeraSans-Roman-66"/>
     </g>
    </g>
   </g>
   <g id="matplotlib.axis_2">
    <g id="ytick_1">
     <g id="line2d_49">
      <path clip-path="url(#p2462dfb906)" d="M 3 384 
L 567.24 384 
" style="fill:none;stroke:#000000;stroke-dasharray:1.000000,3.000000;stroke-dashoffset:0.0;stroke-width:0.5;"/>
     </g>
     <g id="line2d_50">
      <defs>
       <path d="M 0 0 
L 4 0 
" id="m546a11e95e" style="stroke:#000000;stroke-width:0.5;"/>
      </defs>
      <g>
       <use style="stroke:#000000;stroke-width:0.5;" x="3.0" xlink:href="#m546a11e95e" y="384.0"/>
      </g>
     </g>
     <g id="line2d_51">
      <defs>
       <path d="M 0 0 
L -4 0 
" id="mc8b1796a68" style="stroke:#000000;stroke-width:0.5;"/>
      </defs>
      <g>
       <use style="stroke:#000000;stroke-width:0.5;" x="567.24" xlink:href="#mc8b1796a68" y="384.0"/>
      </g>
     </g>
    </g>
    <g id="ytick_2">
     <g id="line2d_52">
      <path clip-path="url(#p2462dfb906)" d="M 3 308.554455 
L 567.24 308.554455 
" style="fill:none;stroke:#000000;stroke-dasharray:1.000000,3.000000;stroke-dashoffset:0.0;stroke-width:0.5;"/>
     </g>
     <g id="line2d_53">
      <g>
       <use style="stroke:#000000;stroke-width:0.5;" x="3.0" xlink:href="#m546a11e95e" y="308.554455446"/>
      </g>
     </g>
     <g id="line2d_54">
      <g>
       <use style="stroke:#000000;stroke-width:0.5;" x="567.24" xlink:href="#mc8b1796a68" y="308.554455446"/>
      </g>
     </g>
    </g>
    <g id="ytick_3">
     <g id="line2d_55">
      <path clip-path="url(#p2462dfb906)" d="M 3 233.108911 
L 567.24 233.108911 
" style="fill:none;stroke:#000000;stroke-dasharray:1.000000,3.000000;stroke-dashoffset:0.0;stroke-width:0.5;"/>
     </g>
     <g id="line2d_56">
      <g>
       <use style="stroke:#000000;stroke-width:0.5;" x="3.0" xlink:href="#m546a11e95e" y="233.108910891"/>
      </g>
     </g>
     <g id="line2d_57">
      <g>
       <use style="stroke:#000000;stroke-width:0.5;" x="567.24" xlink:href="#mc8b1796a68" y="233.108910891"/>
      </g>
     </g>
    </g>
    <g id="ytick_4">
     <g id="line2d_58">
      <path clip-path="url(#p2462dfb906)" d="M 3 157.663366 
L 567.24 157.663366 
" style="fill:none;stroke:#000000;stroke-dasharray:1.000000,3.000000;stroke-dashoffset:0.0;stroke-width:0.5;"/>
     </g>
     <g id="line2d_59">
      <g>
       <use style="stroke:#000000;stroke-width:0.5;" x="3.0" xlink:href="#m546a11e95e" y="157.663366337"/>
      </g>
     </g>
     <g id="line2d_60">
      <g>
       <use style="stroke:#000000;stroke-width:0.5;" x="567.24" xlink:href="#mc8b1796a68" y="157.663366337"/>
      </g>
     </g>
    </g>
    <g id="ytick_5">
     <g id="line2d_61">
      <path clip-path="url(#p2462dfb906)" d="M 3 82.217822 
L 567.24 82.217822 
" style="fill:none;stroke:#000000;stroke-dasharray:1.000000,3.000000;stroke-dashoffset:0.0;stroke-width:0.5;"/>
     </g>
     <g id="line2d_62">
      <g>
       <use style="stroke:#000000;stroke-width:0.5;" x="3.0" xlink:href="#m546a11e95e" y="82.2178217822"/>
      </g>
     </g>
     <g id="line2d_63">
      <g>
       <use style="stroke:#000000;stroke-width:0.5;" x="567.24" xlink:href="#mc8b1796a68" y="82.2178217822"/>
      </g>
     </g>
    </g>
    <g id="ytick_6">
     <g id="line2d_64">
      <path clip-path="url(#p2462dfb906)" d="M 3 6.772277 
L 567.24 6.772277 
" style="fill:none;stroke:#000000;stroke-dasharray:1.000000,3.000000;stroke-dashoffset:0.0;stroke-width:0.5;"/>
     </g>
     <g id="line2d_65">
      <g>
       <use style="stroke:#000000;stroke-width:0.5;" x="3.0" xlink:href="#m546a11e95e" y="6.77227722772"/>
      </g>
     </g>
     <g id="line2d_66">
      <g>
       <use style="stroke:#000000;stroke-width:0.5;" x="567.24" xlink:href="#mc8b1796a68" y="6.77227722772"/>
      </g>
     </g>
    </g>
   </g>
   <g id="text_10">
    <!-- {f20-f24}, 20-D -->
    <defs>
     <path d="M 12.5 -9.28125 
L 15.921875 -9.28125 
Q 22.75 -9.28125 24.828125 -7.171875 
Q 26.90625 -5.078125 26.90625 1.90625 
L 26.90625 14.015625 
Q 26.90625 21.625 29.09375 25.09375 
Q 31.296875 28.5625 36.71875 29.890625 
Q 31.296875 31.109375 29.09375 34.5625 
Q 26.90625 38.03125 26.90625 45.703125 
L 26.90625 57.8125 
Q 26.90625 64.75 24.828125 66.875 
Q 22.75 69 15.921875 69 
L 12.5 69 
L 12.5 75.984375 
L 15.578125 75.984375 
Q 27.734375 75.984375 31.8125 72.390625 
Q 35.890625 68.796875 35.890625 58.015625 
L 35.890625 46.296875 
Q 35.890625 39.015625 38.515625 36.203125 
Q 41.15625 33.40625 48.09375 33.40625 
L 51.125 33.40625 
L 51.125 26.421875 
L 48.09375 26.421875 
Q 41.15625 26.421875 38.515625 23.578125 
Q 35.890625 20.75 35.890625 13.375 
L 35.890625 1.703125 
Q 35.890625 -9.078125 31.8125 -12.6875 
Q 27.734375 -16.3125 15.578125 -16.3125 
L 12.5 -16.3125 
z
" id="BitstreamVeraSans-Roman-7d"/>
     <path d="M 51.125 -9.28125 
L 51.125 -16.3125 
L 48.09375 -16.3125 
Q 35.9375 -16.3125 31.8125 -12.6875 
Q 27.6875 -9.078125 27.6875 1.703125 
L 27.6875 13.375 
Q 27.6875 20.75 25.046875 23.578125 
Q 22.40625 26.421875 15.484375 26.421875 
L 12.5 26.421875 
L 12.5 33.40625 
L 15.484375 33.40625 
Q 22.46875 33.40625 25.078125 36.203125 
Q 27.6875 39.015625 27.6875 46.296875 
L 27.6875 58.015625 
Q 27.6875 68.796875 31.8125 72.390625 
Q 35.9375 75.984375 48.09375 75.984375 
L 51.125 75.984375 
L 51.125 69 
L 47.796875 69 
Q 40.921875 69 38.8125 66.84375 
Q 36.71875 64.703125 36.71875 57.8125 
L 36.71875 45.703125 
Q 36.71875 38.03125 34.5 34.5625 
Q 32.28125 31.109375 26.90625 29.890625 
Q 32.328125 28.5625 34.515625 25.09375 
Q 36.71875 21.625 36.71875 14.015625 
L 36.71875 1.90625 
Q 36.71875 -4.984375 38.8125 -7.125 
Q 40.921875 -9.28125 47.796875 -9.28125 
z
" id="BitstreamVeraSans-Roman-7b"/>
     <path d="M 11.71875 12.40625 
L 22.015625 12.40625 
L 22.015625 4 
L 14.015625 -11.625 
L 7.71875 -11.625 
L 11.71875 4 
z
" id="BitstreamVeraSans-Roman-2c"/>
    </defs>
    <g transform="translate(397.5302 376.38)scale(0.2 -0.2)">
     <use xlink:href="#BitstreamVeraSans-Roman-7b"/>
     <use x="63.623046875" xlink:href="#BitstreamVeraSans-Roman-66"/>
     <use x="98.828125" xlink:href="#BitstreamVeraSans-Roman-32"/>
     <use x="162.451171875" xlink:href="#BitstreamVeraSans-Roman-30"/>
     <use x="226.07421875" xlink:href="#BitstreamVeraSans-Roman-2d"/>
     <use x="262.158203125" xlink:href="#BitstreamVeraSans-Roman-66"/>
     <use x="297.36328125" xlink:href="#BitstreamVeraSans-Roman-32"/>
     <use x="360.986328125" xlink:href="#BitstreamVeraSans-Roman-34"/>
     <use x="424.609375" xlink:href="#BitstreamVeraSans-Roman-7d"/>
     <use x="488.232421875" xlink:href="#BitstreamVeraSans-Roman-2c"/>
     <use x="520.01953125" xlink:href="#BitstreamVeraSans-Roman-20"/>
     <use x="551.806640625" xlink:href="#BitstreamVeraSans-Roman-32"/>
     <use x="615.4296875" xlink:href="#BitstreamVeraSans-Roman-30"/>
     <use x="679.052734375" xlink:href="#BitstreamVeraSans-Roman-2d"/>
     <use x="715.13671875" xlink:href="#BitstreamVeraSans-Roman-44"/>
    </g>
   </g>
   <g id="text_11">
    <!-- v2.2.1.10 -->
    <defs>
     <path d="M 2.984375 54.6875 
L 12.5 54.6875 
L 29.59375 8.796875 
L 46.6875 54.6875 
L 56.203125 54.6875 
L 35.6875 0 
L 23.484375 0 
z
" id="BitstreamVeraSans-Roman-76"/>
     <path d="M 10.6875 12.40625 
L 21 12.40625 
L 21 0 
L 10.6875 0 
z
" id="BitstreamVeraSans-Roman-2e"/>
    </defs>
    <g style="fill:#808080;" transform="translate(261.4871875 378.1103125)scale(0.1 -0.1)">
     <use xlink:href="#BitstreamVeraSans-Roman-76"/>
     <use x="59.1796875" xlink:href="#BitstreamVeraSans-Roman-32"/>
     <use x="122.802734375" xlink:href="#BitstreamVeraSans-Roman-2e"/>
     <use x="154.58984375" xlink:href="#BitstreamVeraSans-Roman-32"/>
     <use x="218.212890625" xlink:href="#BitstreamVeraSans-Roman-2e"/>
     <use x="250.0" xlink:href="#BitstreamVeraSans-Roman-31"/>
     <use x="313.623046875" xlink:href="#BitstreamVeraSans-Roman-2e"/>
     <use x="345.41015625" xlink:href="#BitstreamVeraSans-Roman-31"/>
     <use x="409.033203125" xlink:href="#BitstreamVeraSans-Roman-30"/>
    </g>
   </g>
  </g>
 </g>
 <defs>
  <clipPath id="p2462dfb906">
   <rect height="381.0" width="564.24" x="3.0" y="3.0"/>
  </clipPath>
 </defs>
</svg>
