<?xml version="1.0" encoding="utf-8" standalone="no"?>
<!DOCTYPE svg PUBLIC "-//W3C//DTD SVG 1.1//EN"
  "http://www.w3.org/Graphics/SVG/1.1/DTD/svg11.dtd">
<!-- Created with matplotlib (http://matplotlib.org/) -->
<svg height="432pt" version="1.1" viewBox="0 0 576 432" width="576pt" xmlns="http://www.w3.org/2000/svg" xmlns:xlink="http://www.w3.org/1999/xlink">
 <defs>
  <style type="text/css">
*{stroke-linecap:butt;stroke-linejoin:round;stroke-miterlimit:100000;}
  </style>
 </defs>
 <g id="figure_1">
  <g id="patch_1">
   <path d="M 0 432 
L 576 432 
L 576 0 
L 0 0 
z
" style="fill:#ffffff;"/>
  </g>
  <g id="axes_1">
   <g id="patch_2">
    <path d="M 3 384 
L 567.24 384 
L 567.24 3 
L 3 3 
z
" style="fill:#ffffff;"/>
   </g>
   <g id="line2d_1">
    <path clip-path="url(#p9923ce01a8)" d="M 276.782149 384 
L 276.782149 378.970297 
L 278.521323 378.970297 
L 278.521323 373.940594 
L 280.34011 373.940594 
L 280.34011 368.910891 
L 281.238796 368.910891 
L 281.245678 358.851485 
L 282.121879 358.851485 
L 282.121879 353.821782 
L 283.014885 353.821782 
L 283.014885 348.792079 
L 284.38275 348.792079 
L 284.38275 343.762376 
L 286.503229 343.762376 
L 286.503229 338.732673 
L 289.111076 338.732673 
L 289.111076 333.70297 
L 289.413614 333.70297 
L 289.413614 328.673267 
L 289.590933 328.673267 
L 289.590933 323.643564 
L 289.802981 323.643564 
L 289.851167 313.584158 
L 292.038004 313.584158 
L 292.038004 308.554455 
L 329.802633 308.554455 
L 329.802633 303.524752 
L 334.232029 303.524752 
L 334.232029 298.49505 
L 335.90217 298.49505 
L 335.90217 293.465347 
L 336.491363 293.465347 
L 336.491363 288.435644 
L 336.997119 288.435644 
L 337.064003 278.376238 
L 337.325162 278.376238 
L 337.378126 268.316832 
L 337.441205 268.316832 
L 337.441205 263.287129 
L 337.745819 263.287129 
L 337.745819 258.257426 
L 338.106045 258.257426 
L 338.106045 253.227723 
L 338.502537 253.227723 
L 338.502537 248.19802 
L 339.344496 248.19802 
L 339.344496 243.168317 
L 340.105896 243.168317 
L 340.105896 238.138614 
L 340.473108 238.138614 
L 340.473108 233.108911 
L 341.73518 233.108911 
L 341.73518 228.079208 
L 346.390627 228.079208 
L 346.390627 223.049505 
L 350.952519 223.049505 
L 350.952519 218.019802 
L 351.254173 218.019802 
L 351.254173 212.990099 
L 352.108645 212.990099 
L 352.108645 207.960396 
L 352.41195 207.960396 
L 352.41195 202.930693 
L 353.011016 202.930693 
L 353.036766 192.871287 
L 354.334175 192.871287 
L 354.334175 187.841584 
L 354.495122 187.841584 
L 354.495122 182.811881 
L 354.633434 182.811881 
L 354.633434 177.782178 
L 354.915395 177.782178 
L 354.915395 172.752475 
L 355.106149 172.752475 
L 355.137226 162.693069 
L 355.495516 162.693069 
L 355.495516 157.663366 
L 356.135545 157.663366 
L 356.135545 152.633663 
L 375.381979 152.633663 
L 375.381979 147.60396 
L 381.431788 147.60396 
L 381.431788 142.574257 
L 388.940933 142.574257 
L 388.940933 137.544554 
L 395.026264 137.544554 
L 395.026264 132.514851 
L 404.26968 132.514851 
L 404.26968 127.485149 
L 406.672822 127.485149 
L 406.672822 122.455446 
L 409.300296 122.455446 
L 409.300296 117.425743 
L 411.971836 117.425743 
L 411.971836 112.39604 
L 418.728643 112.39604 
L 418.728643 107.366337 
L 438.631906 107.366337 
L 438.631906 102.336634 
L 442.09863 102.336634 
L 442.09863 97.306931 
L 443.681054 97.306931 
L 443.681054 92.277228 
L 445.350608 92.277228 
L 445.350608 87.247525 
L 445.932668 87.247525 
L 445.932668 82.217822 
L 448.602121 82.217822 
L 448.624076 72.158416 
L 448.822002 72.158416 
L 448.822002 67.128713 
L 448.983076 67.128713 
L 448.983076 62.09901 
L 449.129547 62.09901 
L 449.129547 57.069307 
L 449.408824 57.069307 
L 449.408824 52.039604 
L 449.778142 52.039604 
L 449.778142 47.009901 
L 453.235153 47.009901 
L 453.235153 41.980198 
L 453.463753 41.980198 
L 453.463753 36.950495 
L 453.907726 36.950495 
L 453.907726 31.920792 
L 455.165721 31.920792 
L 455.165721 26.891089 
L 455.71689 26.891089 
L 455.71689 21.861386 
L 458.488146 21.861386 
L 458.488146 16.831683 
L 459.090489 16.831683 
L 459.090489 11.80198 
L 512.972351 11.80198 
L 512.972351 6.772277 
L 512.972351 6.772277 
L 567.24 6.772277 
L 567.24 6.772277 
" style="fill:none;stroke:#ff0000;stroke-linecap:square;stroke-width:3.0;"/>
   </g>
   <g id="line2d_2">
    <path clip-path="url(#p9923ce01a8)" d="M 309.228281 384 
L 309.228281 378.970297 
L 314.395033 378.970297 
L 314.395033 373.940594 
L 319.074495 373.940594 
L 319.074495 368.910891 
L 320.020022 368.910891 
L 320.020022 363.881188 
L 320.434618 363.881188 
L 320.434618 358.851485 
L 321.371417 358.851485 
L 321.371417 353.821782 
L 324.218407 353.821782 
L 324.218407 348.792079 
L 324.42769 348.792079 
L 324.42769 343.762376 
L 325.083084 343.762376 
L 325.083084 338.732673 
L 325.287478 338.732673 
L 325.287478 333.70297 
L 325.411454 333.70297 
L 325.411454 328.673267 
L 325.631939 328.673267 
L 325.631939 323.643564 
L 327.039647 323.643564 
L 327.039647 318.613861 
L 329.940059 318.613861 
L 329.940059 313.584158 
L 332.886941 313.584158 
L 332.886941 308.554455 
L 352.964829 308.554455 
L 352.964829 303.524752 
L 353.757475 303.524752 
L 353.757475 298.49505 
L 373.635006 298.49505 
L 373.635006 293.465347 
L 376.127589 293.465347 
L 376.127589 288.435644 
L 376.310563 288.435644 
L 376.310563 283.405941 
L 377.498295 283.405941 
L 377.498295 278.376238 
L 378.173625 278.376238 
L 378.173625 273.346535 
L 378.292563 273.346535 
L 378.292563 268.316832 
L 378.52216 268.316832 
L 378.52216 263.287129 
L 379.276821 263.287129 
L 379.276821 258.257426 
L 379.418346 258.257426 
L 379.470775 243.168317 
L 380.667408 243.168317 
L 380.667408 238.138614 
L 380.963681 238.138614 
L 381.014623 228.079208 
L 382.149581 228.079208 
L 382.149581 223.049505 
L 417.337477 223.049505 
L 417.337477 218.019802 
L 430.663875 218.019802 
L 430.663875 212.990099 
L 438.052834 212.990099 
L 438.052834 207.960396 
L 442.748768 207.960396 
L 442.748768 202.930693 
L 443.085985 202.930693 
L 443.085985 197.90099 
L 444.034247 197.90099 
L 444.034247 192.871287 
L 448.459583 192.871287 
L 448.459583 187.841584 
L 449.369517 187.841584 
L 449.369517 182.811881 
L 451.366267 182.811881 
L 451.366267 177.782178 
L 458.592095 177.782178 
L 458.592095 172.752475 
L 473.268457 172.752475 
L 473.268457 167.722772 
L 477.521722 167.722772 
L 477.521722 162.693069 
L 478.709108 162.693069 
L 478.709108 157.663366 
L 479.714707 157.663366 
L 479.714707 152.633663 
L 480.972557 152.633663 
L 480.972557 147.60396 
L 482.870893 147.60396 
L 482.870893 142.574257 
L 483.018111 142.574257 
L 483.018111 137.544554 
L 483.388946 137.544554 
L 483.388946 132.514851 
L 484.65979 132.514851 
L 484.65979 127.485149 
L 486.115471 127.485149 
L 486.115471 122.455446 
L 486.856487 122.455446 
L 486.856487 117.425743 
L 488.430919 117.425743 
L 488.430919 112.39604 
L 493.03552 112.39604 
L 493.03552 107.366337 
L 494.156702 107.366337 
L 494.156702 102.336634 
L 496.068433 102.336634 
L 496.068433 97.306931 
L 498.659611 97.306931 
L 498.659611 92.277228 
L 499.836338 92.277228 
L 499.836338 87.247525 
L 501.167051 87.247525 
L 501.167051 82.217822 
L 532.685231 82.217822 
L 532.685231 77.188119 
L 533.404663 77.188119 
L 533.404663 72.158416 
L 541.07791 72.158416 
L 541.07791 67.128713 
L 541.372373 67.128713 
L 541.372373 62.09901 
L 542.247302 62.09901 
L 542.328417 52.039604 
L 544.337257 52.039604 
L 544.337257 47.009901 
L 547.85639 47.009901 
L 547.85639 41.980198 
L 549.18751 41.980198 
L 549.18751 36.950495 
L 551.278966 36.950495 
L 551.360571 26.891089 
L 551.692279 26.891089 
L 551.692279 21.861386 
L 558.737389 21.861386 
L 558.737389 16.831683 
L 558.950523 16.831683 
L 558.950523 11.80198 
L 560.110002 11.80198 
L 560.110002 6.772277 
L 560.110002 6.772277 
L 567.24 6.772277 
L 567.24 6.772277 
" style="fill:none;stroke:#00bfbf;stroke-linecap:square;"/>
   </g>
   <g id="line2d_3">
    <path clip-path="url(#p9923ce01a8)" d="M 309.228281 384 
L 309.228281 378.970297 
L 314.395033 378.970297 
L 314.395033 373.940594 
L 319.074495 373.940594 
L 319.074495 368.910891 
L 320.020022 368.910891 
L 320.020022 363.881188 
L 320.434618 363.881188 
L 320.434618 358.851485 
L 321.371417 358.851485 
L 321.371417 353.821782 
L 321.578152 353.821782 
L 321.578152 348.792079 
L 324.218407 348.792079 
L 324.218407 343.762376 
L 324.42769 343.762376 
L 324.42769 338.732673 
L 324.787979 338.732673 
L 324.787979 333.70297 
L 325.074792 333.70297 
L 325.074792 328.673267 
L 325.287478 328.673267 
L 325.287478 323.643564 
L 325.411454 323.643564 
L 325.411454 318.613861 
L 325.631939 318.613861 
L 325.631939 313.584158 
L 327.039647 313.584158 
L 327.039647 308.554455 
L 352.270993 308.554455 
L 352.270993 303.524752 
L 352.964829 303.524752 
L 352.964829 298.49505 
L 353.757475 298.49505 
L 353.757475 293.465347 
L 373.635006 293.465347 
L 373.635006 288.435644 
L 376.127589 288.435644 
L 376.127589 283.405941 
L 376.310563 283.405941 
L 376.310563 278.376238 
L 377.498295 278.376238 
L 377.498295 273.346535 
L 378.173625 273.346535 
L 378.173625 268.316832 
L 378.292563 268.316832 
L 378.292563 263.287129 
L 378.52216 263.287129 
L 378.52216 258.257426 
L 378.732217 258.257426 
L 378.732217 253.227723 
L 379.276821 253.227723 
L 379.276821 248.19802 
L 379.418346 248.19802 
L 379.470775 238.138614 
L 380.116344 238.138614 
L 380.116344 233.108911 
L 380.667408 233.108911 
L 380.667408 228.079208 
L 381.014623 228.079208 
L 381.014623 223.049505 
L 382.149581 223.049505 
L 382.149581 218.019802 
L 417.337477 218.019802 
L 417.337477 212.990099 
L 430.663875 212.990099 
L 430.663875 207.960396 
L 432.688106 207.960396 
L 432.688106 202.930693 
L 433.456449 202.930693 
L 433.456449 197.90099 
L 438.052834 197.90099 
L 438.052834 192.871287 
L 442.748768 192.871287 
L 442.748768 187.841584 
L 444.034247 187.841584 
L 444.034247 182.811881 
L 447.551458 182.811881 
L 447.551458 177.782178 
L 448.459583 177.782178 
L 448.459583 172.752475 
L 449.369517 172.752475 
L 449.369517 167.722772 
L 458.592095 167.722772 
L 458.592095 162.693069 
L 473.268457 162.693069 
L 473.268457 157.663366 
L 477.521722 157.663366 
L 477.521722 152.633663 
L 479.714707 152.633663 
L 479.714707 147.60396 
L 482.870893 147.60396 
L 482.870893 142.574257 
L 483.018111 142.574257 
L 483.018111 137.544554 
L 483.388946 137.544554 
L 483.388946 132.514851 
L 484.65979 132.514851 
L 484.65979 127.485149 
L 486.115471 127.485149 
L 486.115471 122.455446 
L 486.856487 122.455446 
L 486.856487 117.425743 
L 488.430919 117.425743 
L 488.430919 112.39604 
L 488.715824 112.39604 
L 488.715824 107.366337 
L 489.980963 107.366337 
L 489.980963 102.336634 
L 493.03552 102.336634 
L 493.03552 97.306931 
L 494.156702 97.306931 
L 494.156702 92.277228 
L 497.230676 92.277228 
L 497.230676 87.247525 
L 499.836338 87.247525 
L 499.836338 82.217822 
L 532.685231 82.217822 
L 532.685231 77.188119 
L 533.404663 77.188119 
L 533.404663 72.158416 
L 541.07791 72.158416 
L 541.07791 67.128713 
L 541.372373 67.128713 
L 541.372373 62.09901 
L 542.247302 62.09901 
L 542.328417 52.039604 
L 544.337257 52.039604 
L 544.337257 47.009901 
L 547.85639 47.009901 
L 547.85639 41.980198 
L 549.18751 41.980198 
L 549.18751 36.950495 
L 551.278966 36.950495 
L 551.360571 26.891089 
L 551.692279 26.891089 
L 551.692279 21.861386 
L 556.218524 21.861386 
L 556.218524 16.831683 
L 558.737389 16.831683 
L 558.737389 11.80198 
L 560.110002 11.80198 
L 560.110002 6.772277 
L 560.110002 6.772277 
L 567.24 6.772277 
L 567.24 6.772277 
" style="fill:none;stroke:#bf00bf;stroke-linecap:square;"/>
   </g>
   <g id="line2d_4">
    <path clip-path="url(#p9923ce01a8)" d="M 309.228281 384 
L 309.228281 378.970297 
L 314.395033 378.970297 
L 314.395033 373.940594 
L 319.074495 373.940594 
L 319.074495 368.910891 
L 320.020022 368.910891 
L 320.020022 363.881188 
L 320.434618 363.881188 
L 320.434618 358.851485 
L 321.371417 358.851485 
L 321.371417 353.821782 
L 321.578152 353.821782 
L 321.578152 348.792079 
L 324.218407 348.792079 
L 324.218407 343.762376 
L 324.42769 343.762376 
L 324.42769 338.732673 
L 324.787979 338.732673 
L 324.787979 333.70297 
L 325.074792 333.70297 
L 325.074792 328.673267 
L 325.287478 328.673267 
L 325.287478 323.643564 
L 325.411454 323.643564 
L 325.411454 318.613861 
L 325.631939 318.613861 
L 325.631939 313.584158 
L 327.039647 313.584158 
L 327.039647 308.554455 
L 352.270993 308.554455 
L 352.270993 303.524752 
L 352.964829 303.524752 
L 352.964829 298.49505 
L 353.757475 298.49505 
L 353.757475 293.465347 
L 373.635006 293.465347 
L 373.635006 288.435644 
L 376.127589 288.435644 
L 376.127589 283.405941 
L 376.310563 283.405941 
L 376.310563 278.376238 
L 377.498295 278.376238 
L 377.498295 273.346535 
L 378.173625 273.346535 
L 378.173625 268.316832 
L 378.292563 268.316832 
L 378.292563 263.287129 
L 378.52216 263.287129 
L 378.52216 258.257426 
L 378.732217 258.257426 
L 378.732217 253.227723 
L 379.276821 253.227723 
L 379.276821 248.19802 
L 379.418346 248.19802 
L 379.470775 238.138614 
L 380.116344 238.138614 
L 380.116344 233.108911 
L 380.667408 233.108911 
L 380.667408 228.079208 
L 381.014623 228.079208 
L 381.014623 223.049505 
L 382.149581 223.049505 
L 382.149581 218.019802 
L 417.337477 218.019802 
L 417.337477 212.990099 
L 430.663875 212.990099 
L 430.663875 207.960396 
L 432.688106 207.960396 
L 432.688106 202.930693 
L 433.456449 202.930693 
L 433.456449 197.90099 
L 438.052834 197.90099 
L 438.052834 192.871287 
L 442.748768 192.871287 
L 442.748768 187.841584 
L 444.034247 187.841584 
L 444.034247 182.811881 
L 447.551458 182.811881 
L 447.551458 177.782178 
L 448.459583 177.782178 
L 448.459583 172.752475 
L 449.369517 172.752475 
L 449.369517 167.722772 
L 458.592095 167.722772 
L 458.592095 162.693069 
L 473.268457 162.693069 
L 473.268457 157.663366 
L 477.521722 157.663366 
L 477.521722 152.633663 
L 479.714707 152.633663 
L 479.714707 147.60396 
L 482.870893 147.60396 
L 482.870893 142.574257 
L 483.018111 142.574257 
L 483.018111 137.544554 
L 483.388946 137.544554 
L 483.388946 132.514851 
L 484.65979 132.514851 
L 484.65979 127.485149 
L 486.115471 127.485149 
L 486.115471 122.455446 
L 486.856487 122.455446 
L 486.856487 117.425743 
L 488.430919 117.425743 
L 488.430919 112.39604 
L 488.715824 112.39604 
L 488.715824 107.366337 
L 489.980963 107.366337 
L 489.980963 102.336634 
L 493.03552 102.336634 
L 493.03552 97.306931 
L 494.156702 97.306931 
L 494.156702 92.277228 
L 497.230676 92.277228 
L 497.230676 87.247525 
L 499.836338 87.247525 
L 499.836338 82.217822 
L 532.685231 82.217822 
L 532.685231 77.188119 
L 533.404663 77.188119 
L 533.404663 72.158416 
L 541.07791 72.158416 
L 541.07791 67.128713 
L 541.372373 67.128713 
L 541.372373 62.09901 
L 542.247302 62.09901 
L 542.328417 52.039604 
L 544.337257 52.039604 
L 544.337257 47.009901 
L 547.85639 47.009901 
L 547.85639 41.980198 
L 549.18751 41.980198 
L 549.18751 36.950495 
L 551.278966 36.950495 
L 551.360571 26.891089 
L 551.692279 26.891089 
L 551.692279 21.861386 
L 556.218524 21.861386 
L 556.218524 16.831683 
L 558.737389 16.831683 
L 558.737389 11.80198 
L 560.110002 11.80198 
L 560.110002 6.772277 
L 560.110002 6.772277 
L 567.24 6.772277 
L 567.24 6.772277 
" style="fill:none;stroke:#000000;stroke-linecap:square;"/>
   </g>
   <g id="line2d_5">
    <path clip-path="url(#p9923ce01a8)" d="M 309.228281 384 
L 309.228281 378.970297 
L 314.395033 378.970297 
L 314.395033 373.940594 
L 318.542582 373.940594 
L 318.542582 368.910891 
L 319.074495 368.910891 
L 319.074495 363.881188 
L 320.020022 363.881188 
L 320.069194 353.821782 
L 320.434618 353.821782 
L 320.434618 348.792079 
L 321.371417 348.792079 
L 321.371417 343.762376 
L 321.578152 343.762376 
L 321.578152 338.732673 
L 322.2066 338.732673 
L 322.2066 333.70297 
L 324.218407 333.70297 
L 324.218407 328.673267 
L 324.709531 328.673267 
L 324.787979 318.613861 
L 325.631939 318.613861 
L 325.631939 313.584158 
L 327.039647 313.584158 
L 327.039647 308.554455 
L 350.208768 308.554455 
L 350.208768 303.524752 
L 352.270993 303.524752 
L 352.270993 298.49505 
L 352.964829 298.49505 
L 352.964829 293.465347 
L 353.757475 293.465347 
L 353.757475 288.435644 
L 363.690731 288.435644 
L 363.777624 278.376238 
L 370.44374 278.376238 
L 370.44374 273.346535 
L 370.707713 273.346535 
L 370.78799 263.287129 
L 371.585026 263.287129 
L 371.657951 253.227723 
L 372.201295 253.227723 
L 372.201295 248.19802 
L 372.455357 248.19802 
L 372.455357 243.168317 
L 373.023392 243.168317 
L 373.023392 238.138614 
L 373.314497 238.138614 
L 373.41158 228.079208 
L 373.963497 228.079208 
L 373.963497 223.049505 
L 374.204313 223.049505 
L 374.204313 218.019802 
L 375.178649 218.019802 
L 375.178649 212.990099 
L 388.544901 212.990099 
L 388.544901 207.960396 
L 398.037998 207.960396 
L 398.037998 202.930693 
L 407.30868 202.930693 
L 407.30868 197.90099 
L 427.512733 197.90099 
L 427.512733 192.871287 
L 432.688106 192.871287 
L 432.688106 187.841584 
L 433.456449 187.841584 
L 433.456449 182.811881 
L 435.783266 182.811881 
L 435.783266 177.782178 
L 438.052834 177.782178 
L 438.052834 172.752475 
L 444.034247 172.752475 
L 444.034247 167.722772 
L 444.741527 167.722772 
L 444.741527 162.693069 
L 458.592095 162.693069 
L 458.592095 157.663366 
L 473.268457 157.663366 
L 473.268457 152.633663 
L 475.784372 152.633663 
L 475.784372 147.60396 
L 477.521722 147.60396 
L 477.521722 142.574257 
L 479.714707 142.574257 
L 479.714707 137.544554 
L 480.21465 137.544554 
L 480.21465 132.514851 
L 481.228016 132.514851 
L 481.228016 127.485149 
L 483.018111 127.485149 
L 483.018111 122.455446 
L 483.388946 122.455446 
L 483.388946 117.425743 
L 483.534154 117.425743 
L 483.534154 112.39604 
L 484.65979 112.39604 
L 484.65979 107.366337 
L 484.896333 107.366337 
L 484.896333 102.336634 
L 486.856487 102.336634 
L 486.856487 97.306931 
L 488.430919 97.306931 
L 488.430919 92.277228 
L 490.547124 92.277228 
L 490.547124 87.247525 
L 498.616586 87.247525 
L 498.616586 82.217822 
L 532.685231 82.217822 
L 532.685231 77.188119 
L 533.404663 77.188119 
L 533.404663 72.158416 
L 541.07791 72.158416 
L 541.07791 67.128713 
L 541.372373 67.128713 
L 541.372373 62.09901 
L 542.247302 62.09901 
L 542.328417 52.039604 
L 544.337257 52.039604 
L 544.337257 47.009901 
L 546.428979 47.009901 
L 546.428979 41.980198 
L 547.85639 41.980198 
L 547.85639 36.950495 
L 549.18751 36.950495 
L 549.18751 31.920792 
L 551.278966 31.920792 
L 551.360571 21.861386 
L 551.692279 21.861386 
L 551.692279 16.831683 
L 556.218524 16.831683 
L 556.218524 11.80198 
L 560.110002 11.80198 
L 560.110002 6.772277 
L 560.110002 6.772277 
L 567.24 6.772277 
L 567.24 6.772277 
" style="fill:none;stroke:#00bfbf;stroke-linecap:square;"/>
   </g>
   <g id="line2d_6">
    <path clip-path="url(#p9923ce01a8)" d="M 305.676838 384 
L 305.676838 378.970297 
L 309.228281 378.970297 
L 309.228281 373.940594 
L 310.255876 373.940594 
L 310.255876 368.910891 
L 311.06127 368.910891 
L 311.06127 363.881188 
L 311.60849 363.881188 
L 311.60849 358.851485 
L 314.069538 358.851485 
L 314.069538 353.821782 
L 314.210394 353.821782 
L 314.210394 348.792079 
L 316.437237 348.792079 
L 316.437237 343.762376 
L 316.880285 343.762376 
L 316.880285 338.732673 
L 317.266589 338.732673 
L 317.266589 333.70297 
L 317.580376 333.70297 
L 317.580376 328.673267 
L 318.542582 328.673267 
L 318.542582 323.643564 
L 319.609539 323.643564 
L 319.609539 318.613861 
L 321.095101 318.613861 
L 321.095101 313.584158 
L 322.709448 313.584158 
L 322.709448 308.554455 
L 347.06089 308.554455 
L 347.06089 303.524752 
L 349.351852 303.524752 
L 349.351852 298.49505 
L 350.208768 298.49505 
L 350.309416 288.435644 
L 350.663757 288.435644 
L 350.663757 283.405941 
L 350.951814 283.405941 
L 350.951814 278.376238 
L 352.270993 278.376238 
L 352.270993 273.346535 
L 356.656594 273.346535 
L 356.656594 268.316832 
L 359.319509 268.316832 
L 359.319509 263.287129 
L 359.439726 263.287129 
L 359.439726 258.257426 
L 360.018798 258.257426 
L 360.018798 253.227723 
L 360.535794 253.227723 
L 360.535794 248.19802 
L 363.345589 248.19802 
L 363.345589 243.168317 
L 363.777624 243.168317 
L 363.777624 238.138614 
L 365.356682 238.138614 
L 365.356682 233.108911 
L 365.763938 233.108911 
L 365.763938 228.079208 
L 367.569124 228.079208 
L 367.569124 223.049505 
L 367.795886 223.049505 
L 367.795886 218.019802 
L 368.198443 218.019802 
L 368.198443 212.990099 
L 368.532127 212.990099 
L 368.532127 207.960396 
L 368.990667 207.960396 
L 368.990667 202.930693 
L 369.508626 202.930693 
L 369.508626 197.90099 
L 369.972428 197.90099 
L 369.972428 192.871287 
L 370.44374 192.871287 
L 370.44374 187.841584 
L 370.627947 187.841584 
L 370.627947 182.811881 
L 371.247085 182.811881 
L 371.247085 177.782178 
L 371.567023 177.782178 
L 371.585026 167.722772 
L 394.51515 167.722772 
L 394.51515 162.693069 
L 398.454438 162.693069 
L 398.454438 157.663366 
L 433.872014 157.663366 
L 433.872014 152.633663 
L 463.635733 152.633663 
L 463.635733 147.60396 
L 468.263021 147.60396 
L 468.263021 142.574257 
L 468.611635 142.574257 
L 468.6524 132.514851 
L 470.115287 132.514851 
L 470.115287 127.485149 
L 471.354533 127.485149 
L 471.354533 122.455446 
L 473.268457 122.455446 
L 473.268457 117.425743 
L 474.050822 117.425743 
L 474.050822 112.39604 
L 477.661826 112.39604 
L 477.661826 107.366337 
L 477.888665 107.366337 
L 477.888665 102.336634 
L 478.449933 102.336634 
L 478.449933 97.306931 
L 478.701458 97.306931 
L 478.701458 92.277228 
L 480.056311 92.277228 
L 480.056311 87.247525 
L 480.243429 87.247525 
L 480.243429 82.217822 
L 487.936293 82.217822 
L 487.936293 77.188119 
L 503.097856 77.188119 
L 503.097856 72.158416 
L 517.157772 72.158416 
L 517.157772 67.128713 
L 528.945909 67.128713 
L 528.945909 62.09901 
L 533.404663 62.09901 
L 533.404663 57.069307 
L 540.155303 57.069307 
L 540.155303 52.039604 
L 541.07791 52.039604 
L 541.07791 47.009901 
L 541.289833 47.009901 
L 541.289833 41.980198 
L 541.452816 41.980198 
L 541.452816 36.950495 
L 541.830643 36.950495 
L 541.830643 31.920792 
L 543.155099 31.920792 
L 543.155099 26.891089 
L 543.840448 26.891089 
L 543.840448 21.861386 
L 546.57705 21.861386 
L 546.57705 16.831683 
L 547.318198 16.831683 
L 547.318198 11.80198 
L 549.18751 11.80198 
L 549.18751 6.772277 
L 549.18751 6.772277 
L 567.24 6.772277 
L 567.24 6.772277 
" style="fill:none;stroke:#bf00bf;stroke-linecap:square;"/>
   </g>
   <g id="line2d_7">
    <path clip-path="url(#p9923ce01a8)" d="M 280.34011 384 
L 280.34011 378.970297 
L 282.960377 378.970297 
L 282.960377 373.940594 
L 284.159643 373.940594 
L 284.159643 368.910891 
L 284.38275 368.910891 
L 284.38275 363.881188 
L 286.755706 363.881188 
L 286.755706 358.851485 
L 287.429897 358.851485 
L 287.429897 353.821782 
L 289.111076 353.821782 
L 289.111076 348.792079 
L 289.413614 348.792079 
L 289.413614 343.762376 
L 290.443948 343.762376 
L 290.443948 338.732673 
L 292.400517 338.732673 
L 292.400517 333.70297 
L 293.398368 333.70297 
L 293.40712 323.643564 
L 295.471834 323.643564 
L 295.471834 318.613861 
L 297.268222 318.613861 
L 297.268222 313.584158 
L 298.070272 313.584158 
L 298.070272 308.554455 
L 337.325162 308.554455 
L 337.325162 303.524752 
L 339.373185 303.524752 
L 339.373185 298.49505 
L 340.427113 298.49505 
L 340.427113 293.465347 
L 342.275662 293.465347 
L 342.330977 283.405941 
L 344.309598 283.405941 
L 344.381943 273.346535 
L 344.50297 273.346535 
L 344.50297 268.316832 
L 344.737074 268.316832 
L 344.750365 253.227723 
L 345.765044 253.227723 
L 345.765044 248.19802 
L 346.62898 248.19802 
L 346.62898 243.168317 
L 346.934512 243.168317 
L 346.934512 238.138614 
L 347.596759 238.138614 
L 347.596759 233.108911 
L 350.952519 233.108911 
L 350.952519 228.079208 
L 351.254173 228.079208 
L 351.254173 223.049505 
L 352.108645 223.049505 
L 352.108645 218.019802 
L 352.41195 218.019802 
L 352.41195 212.990099 
L 354.495122 212.990099 
L 354.495122 207.960396 
L 354.633434 207.960396 
L 354.633434 202.930693 
L 355.03072 202.930693 
L 355.03072 197.90099 
L 355.287428 197.90099 
L 355.287428 192.871287 
L 355.470625 192.871287 
L 355.470625 187.841584 
L 356.929567 187.841584 
L 356.929567 182.811881 
L 357.59997 182.811881 
L 357.59997 177.782178 
L 357.893068 177.782178 
L 357.893068 172.752475 
L 358.196682 172.752475 
L 358.196682 167.722772 
L 358.869293 167.722772 
L 358.869293 162.693069 
L 359.945293 162.693069 
L 359.945293 157.663366 
L 397.001876 157.663366 
L 397.001876 152.633663 
L 401.006618 152.633663 
L 401.006618 147.60396 
L 414.675667 147.60396 
L 414.675667 142.574257 
L 419.331584 142.574257 
L 419.331584 137.544554 
L 426.433056 137.544554 
L 426.433056 132.514851 
L 433.872014 132.514851 
L 433.872014 127.485149 
L 445.082577 127.485149 
L 445.082577 122.455446 
L 448.602121 122.455446 
L 448.602121 117.425743 
L 449.129547 117.425743 
L 449.129547 112.39604 
L 449.408824 112.39604 
L 449.408824 107.366337 
L 449.778142 107.366337 
L 449.778142 102.336634 
L 451.151876 102.336634 
L 451.151876 97.306931 
L 455.04809 97.306931 
L 455.04809 92.277228 
L 455.165721 92.277228 
L 455.165721 87.247525 
L 456.242339 87.247525 
L 456.242339 82.217822 
L 456.380102 82.217822 
L 456.380102 77.188119 
L 458.403977 77.188119 
L 458.403977 72.158416 
L 458.747318 72.158416 
L 458.747318 67.128713 
L 459.233616 67.128713 
L 459.233616 62.09901 
L 459.751791 62.09901 
L 459.751791 57.069307 
L 461.587271 57.069307 
L 461.587271 52.039604 
L 462.762191 52.039604 
L 462.762191 47.009901 
L 467.841586 47.009901 
L 467.841586 41.980198 
L 470.850565 41.980198 
L 470.850565 36.950495 
L 472.471771 36.950495 
L 472.471771 31.920792 
L 490.104472 31.920792 
L 490.104472 26.891089 
L 492.824693 26.891089 
L 492.824693 21.861386 
L 499.776526 21.861386 
L 499.776526 16.831683 
L 517.572269 16.831683 
L 517.572269 11.80198 
L 543.155099 11.80198 
L 543.155099 6.772277 
L 543.155099 6.772277 
L 567.24 6.772277 
L 567.24 6.772277 
" style="fill:none;stroke:#000000;stroke-linecap:square;"/>
   </g>
   <g id="line2d_8">
    <path clip-path="url(#p9923ce01a8)" d="M 276.782149 384 
L 276.782149 378.970297 
L 278.521323 378.970297 
L 278.521323 373.940594 
L 280.34011 373.940594 
L 280.34011 368.910891 
L 281.238796 368.910891 
L 281.245678 358.851485 
L 282.121879 358.851485 
L 282.121879 353.821782 
L 283.014885 353.821782 
L 283.014885 348.792079 
L 284.38275 348.792079 
L 284.38275 343.762376 
L 286.503229 343.762376 
L 286.503229 338.732673 
L 289.111076 338.732673 
L 289.111076 333.70297 
L 289.413614 333.70297 
L 289.413614 328.673267 
L 289.590933 328.673267 
L 289.590933 323.643564 
L 289.802981 323.643564 
L 289.851167 313.584158 
L 292.038004 313.584158 
L 292.038004 308.554455 
L 335.90217 308.554455 
L 335.90217 303.524752 
L 336.997119 303.524752 
L 336.997119 298.49505 
L 337.325162 298.49505 
L 337.325162 293.465347 
L 337.441205 293.465347 
L 337.441205 288.435644 
L 337.731053 288.435644 
L 337.745819 278.376238 
L 338.106045 278.376238 
L 338.106045 273.346535 
L 338.502537 273.346535 
L 338.502537 268.316832 
L 339.528771 268.316832 
L 339.528771 263.287129 
L 340.105896 263.287129 
L 340.105896 258.257426 
L 340.815577 258.257426 
L 340.815577 253.227723 
L 341.17654 253.227723 
L 341.17654 248.19802 
L 342.347273 248.19802 
L 342.347273 243.168317 
L 343.041233 243.168317 
L 343.041233 238.138614 
L 343.846998 238.138614 
L 343.846998 233.108911 
L 346.390627 233.108911 
L 346.390627 228.079208 
L 350.952519 228.079208 
L 350.952519 223.049505 
L 351.254173 223.049505 
L 351.254173 218.019802 
L 352.108645 218.019802 
L 352.108645 212.990099 
L 352.41195 212.990099 
L 352.41195 207.960396 
L 353.011016 207.960396 
L 353.036766 197.90099 
L 354.334175 197.90099 
L 354.334175 192.871287 
L 354.495122 192.871287 
L 354.495122 187.841584 
L 354.633434 187.841584 
L 354.633434 182.811881 
L 354.915395 182.811881 
L 354.915395 177.782178 
L 355.106149 177.782178 
L 355.137226 167.722772 
L 355.495516 167.722772 
L 355.495516 162.693069 
L 356.135545 162.693069 
L 356.135545 157.663366 
L 371.363497 157.663366 
L 371.363497 152.633663 
L 381.431788 152.633663 
L 381.431788 147.60396 
L 389.494961 147.60396 
L 389.494961 142.574257 
L 395.026264 142.574257 
L 395.026264 137.544554 
L 397.001876 137.544554 
L 397.001876 132.514851 
L 404.26968 132.514851 
L 404.26968 127.485149 
L 409.766345 127.485149 
L 409.766345 122.455446 
L 411.971836 122.455446 
L 411.971836 117.425743 
L 416.177058 117.425743 
L 416.177058 112.39604 
L 421.416633 112.39604 
L 421.416633 107.366337 
L 438.631906 107.366337 
L 438.631906 102.336634 
L 442.09863 102.336634 
L 442.09863 97.306931 
L 443.681054 97.306931 
L 443.681054 92.277228 
L 445.932668 92.277228 
L 445.932668 87.247525 
L 448.602121 87.247525 
L 448.624076 77.188119 
L 448.822002 77.188119 
L 448.822002 72.158416 
L 448.983076 72.158416 
L 448.983076 67.128713 
L 449.129547 67.128713 
L 449.129547 62.09901 
L 449.408824 62.09901 
L 449.408824 57.069307 
L 449.778142 57.069307 
L 449.778142 52.039604 
L 453.235153 52.039604 
L 453.235153 47.009901 
L 453.463753 47.009901 
L 453.463753 41.980198 
L 454.766661 41.980198 
L 454.766661 36.950495 
L 455.137937 36.950495 
L 455.165721 26.891089 
L 456.119559 26.891089 
L 456.119559 21.861386 
L 458.488146 21.861386 
L 458.488146 16.831683 
L 459.090489 16.831683 
L 459.090489 11.80198 
L 512.972351 11.80198 
L 512.972351 6.772277 
L 512.972351 6.772277 
L 567.24 6.772277 
L 567.24 6.772277 
" style="fill:none;stroke:#00bfbf;stroke-linecap:square;"/>
   </g>
   <g id="patch_3">
    <path d="M 3 3 
L 567.24 3 
" style="fill:none;stroke:#000000;stroke-linecap:square;stroke-linejoin:miter;"/>
   </g>
   <g id="patch_4">
    <path d="M 567.24 384 
L 567.24 3 
" style="fill:none;stroke:#000000;stroke-linecap:square;stroke-linejoin:miter;"/>
   </g>
   <g id="patch_5">
    <path d="M 3 384 
L 567.24 384 
" style="fill:none;stroke:#000000;stroke-linecap:square;stroke-linejoin:miter;"/>
   </g>
   <g id="patch_6">
    <path d="M 3 384 
L 3 3 
" style="fill:none;stroke:#000000;stroke-linecap:square;stroke-linejoin:miter;"/>
   </g>
   <g id="matplotlib.axis_1">
    <g id="xtick_1"/>
    <g id="xtick_2">
     <g id="line2d_9">
      <path clip-path="url(#p9923ce01a8)" d="M 69.254589 384 
L 69.254589 3 
" style="fill:none;stroke:#000000;stroke-dasharray:1.000000,3.000000;stroke-dashoffset:0.0;stroke-width:0.5;"/>
     </g>
     <g id="line2d_10">
      <defs>
       <path d="M 0 0 
L 0 -4 
" id="m17648d8c5c" style="stroke:#000000;stroke-width:0.5;"/>
      </defs>
      <g>
       <use style="stroke:#000000;stroke-width:0.5;" x="69.2545893472" xlink:href="#m17648d8c5c" y="384.0"/>
      </g>
     </g>
     <g id="line2d_11">
      <defs>
       <path d="M 0 0 
L 0 4 
" id="mc2513d0fd7" style="stroke:#000000;stroke-width:0.5;"/>
      </defs>
      <g>
       <use style="stroke:#000000;stroke-width:0.5;" x="69.2545893472" xlink:href="#mc2513d0fd7" y="3.0"/>
      </g>
     </g>
     <g id="text_1">
      <!-- -6 -->
      <defs>
       <path d="M 33.015625 40.375 
Q 26.375 40.375 22.484375 35.828125 
Q 18.609375 31.296875 18.609375 23.390625 
Q 18.609375 15.53125 22.484375 10.953125 
Q 26.375 6.390625 33.015625 6.390625 
Q 39.65625 6.390625 43.53125 10.953125 
Q 47.40625 15.53125 47.40625 23.390625 
Q 47.40625 31.296875 43.53125 35.828125 
Q 39.65625 40.375 33.015625 40.375 
M 52.59375 71.296875 
L 52.59375 62.3125 
Q 48.875 64.0625 45.09375 64.984375 
Q 41.3125 65.921875 37.59375 65.921875 
Q 27.828125 65.921875 22.671875 59.328125 
Q 17.53125 52.734375 16.796875 39.40625 
Q 19.671875 43.65625 24.015625 45.921875 
Q 28.375 48.1875 33.59375 48.1875 
Q 44.578125 48.1875 50.953125 41.515625 
Q 57.328125 34.859375 57.328125 23.390625 
Q 57.328125 12.15625 50.6875 5.359375 
Q 44.046875 -1.421875 33.015625 -1.421875 
Q 20.359375 -1.421875 13.671875 8.265625 
Q 6.984375 17.96875 6.984375 36.375 
Q 6.984375 53.65625 15.1875 63.9375 
Q 23.390625 74.21875 37.203125 74.21875 
Q 40.921875 74.21875 44.703125 73.484375 
Q 48.484375 72.75 52.59375 71.296875 
" id="BitstreamVeraSans-Roman-36"/>
       <path d="M 4.890625 31.390625 
L 31.203125 31.390625 
L 31.203125 23.390625 
L 4.890625 23.390625 
z
" id="BitstreamVeraSans-Roman-2d"/>
      </defs>
      <g transform="translate(59.2842768472 403.196875)scale(0.2 -0.2)">
       <use xlink:href="#BitstreamVeraSans-Roman-2d"/>
       <use x="36.083984375" xlink:href="#BitstreamVeraSans-Roman-36"/>
      </g>
     </g>
    </g>
    <g id="xtick_3">
     <g id="line2d_12">
      <path clip-path="url(#p9923ce01a8)" d="M 135.652644 384 
L 135.652644 3 
" style="fill:none;stroke:#000000;stroke-dasharray:1.000000,3.000000;stroke-dashoffset:0.0;stroke-width:0.5;"/>
     </g>
     <g id="line2d_13">
      <g>
       <use style="stroke:#000000;stroke-width:0.5;" x="135.652644101" xlink:href="#m17648d8c5c" y="384.0"/>
      </g>
     </g>
     <g id="line2d_14">
      <g>
       <use style="stroke:#000000;stroke-width:0.5;" x="135.652644101" xlink:href="#mc2513d0fd7" y="3.0"/>
      </g>
     </g>
     <g id="text_2">
      <!-- -4 -->
      <defs>
       <path d="M 37.796875 64.3125 
L 12.890625 25.390625 
L 37.796875 25.390625 
z
M 35.203125 72.90625 
L 47.609375 72.90625 
L 47.609375 25.390625 
L 58.015625 25.390625 
L 58.015625 17.1875 
L 47.609375 17.1875 
L 47.609375 0 
L 37.796875 0 
L 37.796875 17.1875 
L 4.890625 17.1875 
L 4.890625 26.703125 
z
" id="BitstreamVeraSans-Roman-34"/>
      </defs>
      <g transform="translate(125.682331601 403.196875)scale(0.2 -0.2)">
       <use xlink:href="#BitstreamVeraSans-Roman-2d"/>
       <use x="36.083984375" xlink:href="#BitstreamVeraSans-Roman-34"/>
      </g>
     </g>
    </g>
    <g id="xtick_4">
     <g id="line2d_15">
      <path clip-path="url(#p9923ce01a8)" d="M 202.050699 384 
L 202.050699 3 
" style="fill:none;stroke:#000000;stroke-dasharray:1.000000,3.000000;stroke-dashoffset:0.0;stroke-width:0.5;"/>
     </g>
     <g id="line2d_16">
      <g>
       <use style="stroke:#000000;stroke-width:0.5;" x="202.050698855" xlink:href="#m17648d8c5c" y="384.0"/>
      </g>
     </g>
     <g id="line2d_17">
      <g>
       <use style="stroke:#000000;stroke-width:0.5;" x="202.050698855" xlink:href="#mc2513d0fd7" y="3.0"/>
      </g>
     </g>
     <g id="text_3">
      <!-- -2 -->
      <defs>
       <path d="M 19.1875 8.296875 
L 53.609375 8.296875 
L 53.609375 0 
L 7.328125 0 
L 7.328125 8.296875 
Q 12.9375 14.109375 22.625 23.890625 
Q 32.328125 33.6875 34.8125 36.53125 
Q 39.546875 41.84375 41.421875 45.53125 
Q 43.3125 49.21875 43.3125 52.78125 
Q 43.3125 58.59375 39.234375 62.25 
Q 35.15625 65.921875 28.609375 65.921875 
Q 23.96875 65.921875 18.8125 64.3125 
Q 13.671875 62.703125 7.8125 59.421875 
L 7.8125 69.390625 
Q 13.765625 71.78125 18.9375 73 
Q 24.125 74.21875 28.421875 74.21875 
Q 39.75 74.21875 46.484375 68.546875 
Q 53.21875 62.890625 53.21875 53.421875 
Q 53.21875 48.921875 51.53125 44.890625 
Q 49.859375 40.875 45.40625 35.40625 
Q 44.1875 33.984375 37.640625 27.21875 
Q 31.109375 20.453125 19.1875 8.296875 
" id="BitstreamVeraSans-Roman-32"/>
      </defs>
      <g transform="translate(192.080386355 403.196875)scale(0.2 -0.2)">
       <use xlink:href="#BitstreamVeraSans-Roman-2d"/>
       <use x="36.083984375" xlink:href="#BitstreamVeraSans-Roman-32"/>
      </g>
     </g>
    </g>
    <g id="xtick_5">
     <g id="line2d_18">
      <path clip-path="url(#p9923ce01a8)" d="M 268.448754 384 
L 268.448754 3 
" style="fill:none;stroke:#000000;stroke-dasharray:1.000000,3.000000;stroke-dashoffset:0.0;stroke-width:0.5;"/>
     </g>
     <g id="line2d_19">
      <g>
       <use style="stroke:#000000;stroke-width:0.5;" x="268.448753608" xlink:href="#m17648d8c5c" y="384.0"/>
      </g>
     </g>
     <g id="line2d_20">
      <g>
       <use style="stroke:#000000;stroke-width:0.5;" x="268.448753608" xlink:href="#mc2513d0fd7" y="3.0"/>
      </g>
     </g>
     <g id="text_4">
      <!-- 0 -->
      <defs>
       <path d="M 31.78125 66.40625 
Q 24.171875 66.40625 20.328125 58.90625 
Q 16.5 51.421875 16.5 36.375 
Q 16.5 21.390625 20.328125 13.890625 
Q 24.171875 6.390625 31.78125 6.390625 
Q 39.453125 6.390625 43.28125 13.890625 
Q 47.125 21.390625 47.125 36.375 
Q 47.125 51.421875 43.28125 58.90625 
Q 39.453125 66.40625 31.78125 66.40625 
M 31.78125 74.21875 
Q 44.046875 74.21875 50.515625 64.515625 
Q 56.984375 54.828125 56.984375 36.375 
Q 56.984375 17.96875 50.515625 8.265625 
Q 44.046875 -1.421875 31.78125 -1.421875 
Q 19.53125 -1.421875 13.0625 8.265625 
Q 6.59375 17.96875 6.59375 36.375 
Q 6.59375 54.828125 13.0625 64.515625 
Q 19.53125 74.21875 31.78125 74.21875 
" id="BitstreamVeraSans-Roman-30"/>
      </defs>
      <g transform="translate(262.086253608 403.196875)scale(0.2 -0.2)">
       <use xlink:href="#BitstreamVeraSans-Roman-30"/>
      </g>
     </g>
    </g>
    <g id="xtick_6">
     <g id="line2d_21">
      <path clip-path="url(#p9923ce01a8)" d="M 334.846808 384 
L 334.846808 3 
" style="fill:none;stroke:#000000;stroke-dasharray:1.000000,3.000000;stroke-dashoffset:0.0;stroke-width:0.5;"/>
     </g>
     <g id="line2d_22">
      <g>
       <use style="stroke:#000000;stroke-width:0.5;" x="334.846808362" xlink:href="#m17648d8c5c" y="384.0"/>
      </g>
     </g>
     <g id="line2d_23">
      <g>
       <use style="stroke:#000000;stroke-width:0.5;" x="334.846808362" xlink:href="#mc2513d0fd7" y="3.0"/>
      </g>
     </g>
     <g id="text_5">
      <!-- 2 -->
      <g transform="translate(328.484308362 403.196875)scale(0.2 -0.2)">
       <use xlink:href="#BitstreamVeraSans-Roman-32"/>
      </g>
     </g>
    </g>
    <g id="xtick_7">
     <g id="line2d_24">
      <path clip-path="url(#p9923ce01a8)" d="M 401.244863 384 
L 401.244863 3 
" style="fill:none;stroke:#000000;stroke-dasharray:1.000000,3.000000;stroke-dashoffset:0.0;stroke-width:0.5;"/>
     </g>
     <g id="line2d_25">
      <g>
       <use style="stroke:#000000;stroke-width:0.5;" x="401.244863116" xlink:href="#m17648d8c5c" y="384.0"/>
      </g>
     </g>
     <g id="line2d_26">
      <g>
       <use style="stroke:#000000;stroke-width:0.5;" x="401.244863116" xlink:href="#mc2513d0fd7" y="3.0"/>
      </g>
     </g>
     <g id="text_6">
      <!-- 4 -->
      <g transform="translate(394.882363116 403.196875)scale(0.2 -0.2)">
       <use xlink:href="#BitstreamVeraSans-Roman-34"/>
      </g>
     </g>
    </g>
    <g id="xtick_8">
     <g id="line2d_27">
      <path clip-path="url(#p9923ce01a8)" d="M 467.642918 384 
L 467.642918 3 
" style="fill:none;stroke:#000000;stroke-dasharray:1.000000,3.000000;stroke-dashoffset:0.0;stroke-width:0.5;"/>
     </g>
     <g id="line2d_28">
      <g>
       <use style="stroke:#000000;stroke-width:0.5;" x="467.642917869" xlink:href="#m17648d8c5c" y="384.0"/>
      </g>
     </g>
     <g id="line2d_29">
      <g>
       <use style="stroke:#000000;stroke-width:0.5;" x="467.642917869" xlink:href="#mc2513d0fd7" y="3.0"/>
      </g>
     </g>
     <g id="text_7">
      <!-- 6 -->
      <g transform="translate(461.280417869 403.196875)scale(0.2 -0.2)">
       <use xlink:href="#BitstreamVeraSans-Roman-36"/>
      </g>
     </g>
    </g>
    <g id="xtick_9">
     <g id="line2d_30">
      <path clip-path="url(#p9923ce01a8)" d="M 534.040973 384 
L 534.040973 3 
" style="fill:none;stroke:#000000;stroke-dasharray:1.000000,3.000000;stroke-dashoffset:0.0;stroke-width:0.5;"/>
     </g>
     <g id="line2d_31">
      <g>
       <use style="stroke:#000000;stroke-width:0.5;" x="534.040972623" xlink:href="#m17648d8c5c" y="384.0"/>
      </g>
     </g>
     <g id="line2d_32">
      <g>
       <use style="stroke:#000000;stroke-width:0.5;" x="534.040972623" xlink:href="#mc2513d0fd7" y="3.0"/>
      </g>
     </g>
     <g id="text_8">
      <!-- 8 -->
      <defs>
       <path d="M 31.78125 34.625 
Q 24.75 34.625 20.71875 30.859375 
Q 16.703125 27.09375 16.703125 20.515625 
Q 16.703125 13.921875 20.71875 10.15625 
Q 24.75 6.390625 31.78125 6.390625 
Q 38.8125 6.390625 42.859375 10.171875 
Q 46.921875 13.96875 46.921875 20.515625 
Q 46.921875 27.09375 42.890625 30.859375 
Q 38.875 34.625 31.78125 34.625 
M 21.921875 38.8125 
Q 15.578125 40.375 12.03125 44.71875 
Q 8.5 49.078125 8.5 55.328125 
Q 8.5 64.0625 14.71875 69.140625 
Q 20.953125 74.21875 31.78125 74.21875 
Q 42.671875 74.21875 48.875 69.140625 
Q 55.078125 64.0625 55.078125 55.328125 
Q 55.078125 49.078125 51.53125 44.71875 
Q 48 40.375 41.703125 38.8125 
Q 48.828125 37.15625 52.796875 32.3125 
Q 56.78125 27.484375 56.78125 20.515625 
Q 56.78125 9.90625 50.3125 4.234375 
Q 43.84375 -1.421875 31.78125 -1.421875 
Q 19.734375 -1.421875 13.25 4.234375 
Q 6.78125 9.90625 6.78125 20.515625 
Q 6.78125 27.484375 10.78125 32.3125 
Q 14.796875 37.15625 21.921875 38.8125 
M 18.3125 54.390625 
Q 18.3125 48.734375 21.84375 45.5625 
Q 25.390625 42.390625 31.78125 42.390625 
Q 38.140625 42.390625 41.71875 45.5625 
Q 45.3125 48.734375 45.3125 54.390625 
Q 45.3125 60.0625 41.71875 63.234375 
Q 38.140625 66.40625 31.78125 66.40625 
Q 25.390625 66.40625 21.84375 63.234375 
Q 18.3125 60.0625 18.3125 54.390625 
" id="BitstreamVeraSans-Roman-38"/>
      </defs>
      <g transform="translate(527.678472623 403.196875)scale(0.2 -0.2)">
       <use xlink:href="#BitstreamVeraSans-Roman-38"/>
      </g>
     </g>
    </g>
    <g id="xtick_10"/>
    <g id="xtick_11">
     <g id="line2d_33">
      <defs>
       <path d="M 0 0 
L 0 -2 
" id="mcfdae2f9eb" style="stroke:#000000;stroke-width:0.5;"/>
      </defs>
      <g>
       <use style="stroke:#000000;stroke-width:0.5;" x="69.2545893472" xlink:href="#mcfdae2f9eb" y="384.0"/>
      </g>
     </g>
     <g id="line2d_34">
      <defs>
       <path d="M 0 0 
L 0 2 
" id="m2c242e5425" style="stroke:#000000;stroke-width:0.5;"/>
      </defs>
      <g>
       <use style="stroke:#000000;stroke-width:0.5;" x="69.2545893472" xlink:href="#m2c242e5425" y="3.0"/>
      </g>
     </g>
    </g>
    <g id="xtick_12">
     <g id="line2d_35">
      <g>
       <use style="stroke:#000000;stroke-width:0.5;" x="135.652644101" xlink:href="#mcfdae2f9eb" y="384.0"/>
      </g>
     </g>
     <g id="line2d_36">
      <g>
       <use style="stroke:#000000;stroke-width:0.5;" x="135.652644101" xlink:href="#m2c242e5425" y="3.0"/>
      </g>
     </g>
    </g>
    <g id="xtick_13">
     <g id="line2d_37">
      <g>
       <use style="stroke:#000000;stroke-width:0.5;" x="202.050698855" xlink:href="#mcfdae2f9eb" y="384.0"/>
      </g>
     </g>
     <g id="line2d_38">
      <g>
       <use style="stroke:#000000;stroke-width:0.5;" x="202.050698855" xlink:href="#m2c242e5425" y="3.0"/>
      </g>
     </g>
    </g>
    <g id="xtick_14">
     <g id="line2d_39">
      <g>
       <use style="stroke:#000000;stroke-width:0.5;" x="268.448753608" xlink:href="#mcfdae2f9eb" y="384.0"/>
      </g>
     </g>
     <g id="line2d_40">
      <g>
       <use style="stroke:#000000;stroke-width:0.5;" x="268.448753608" xlink:href="#m2c242e5425" y="3.0"/>
      </g>
     </g>
    </g>
    <g id="xtick_15">
     <g id="line2d_41">
      <g>
       <use style="stroke:#000000;stroke-width:0.5;" x="334.846808362" xlink:href="#mcfdae2f9eb" y="384.0"/>
      </g>
     </g>
     <g id="line2d_42">
      <g>
       <use style="stroke:#000000;stroke-width:0.5;" x="334.846808362" xlink:href="#m2c242e5425" y="3.0"/>
      </g>
     </g>
    </g>
    <g id="xtick_16">
     <g id="line2d_43">
      <g>
       <use style="stroke:#000000;stroke-width:0.5;" x="401.244863116" xlink:href="#mcfdae2f9eb" y="384.0"/>
      </g>
     </g>
     <g id="line2d_44">
      <g>
       <use style="stroke:#000000;stroke-width:0.5;" x="401.244863116" xlink:href="#m2c242e5425" y="3.0"/>
      </g>
     </g>
    </g>
    <g id="xtick_17">
     <g id="line2d_45">
      <g>
       <use style="stroke:#000000;stroke-width:0.5;" x="467.642917869" xlink:href="#mcfdae2f9eb" y="384.0"/>
      </g>
     </g>
     <g id="line2d_46">
      <g>
       <use style="stroke:#000000;stroke-width:0.5;" x="467.642917869" xlink:href="#m2c242e5425" y="3.0"/>
      </g>
     </g>
    </g>
    <g id="xtick_18">
     <g id="line2d_47">
      <g>
       <use style="stroke:#000000;stroke-width:0.5;" x="534.040972623" xlink:href="#mcfdae2f9eb" y="384.0"/>
      </g>
     </g>
     <g id="line2d_48">
      <g>
       <use style="stroke:#000000;stroke-width:0.5;" x="534.040972623" xlink:href="#m2c242e5425" y="3.0"/>
      </g>
     </g>
    </g>
    <g id="text_9">
     <!-- log10 of Df -->
     <defs>
      <path id="BitstreamVeraSans-Roman-20"/>
      <path d="M 12.40625 8.296875 
L 28.515625 8.296875 
L 28.515625 63.921875 
L 10.984375 60.40625 
L 10.984375 69.390625 
L 28.421875 72.90625 
L 38.28125 72.90625 
L 38.28125 8.296875 
L 54.390625 8.296875 
L 54.390625 0 
L 12.40625 0 
z
" id="BitstreamVeraSans-Roman-31"/>
      <path d="M 30.609375 48.390625 
Q 23.390625 48.390625 19.1875 42.75 
Q 14.984375 37.109375 14.984375 27.296875 
Q 14.984375 17.484375 19.15625 11.84375 
Q 23.34375 6.203125 30.609375 6.203125 
Q 37.796875 6.203125 41.984375 11.859375 
Q 46.1875 17.53125 46.1875 27.296875 
Q 46.1875 37.015625 41.984375 42.703125 
Q 37.796875 48.390625 30.609375 48.390625 
M 30.609375 56 
Q 42.328125 56 49.015625 48.375 
Q 55.71875 40.765625 55.71875 27.296875 
Q 55.71875 13.875 49.015625 6.21875 
Q 42.328125 -1.421875 30.609375 -1.421875 
Q 18.84375 -1.421875 12.171875 6.21875 
Q 5.515625 13.875 5.515625 27.296875 
Q 5.515625 40.765625 12.171875 48.375 
Q 18.84375 56 30.609375 56 
" id="BitstreamVeraSans-Roman-6f"/>
      <path d="M 9.421875 75.984375 
L 18.40625 75.984375 
L 18.40625 0 
L 9.421875 0 
z
" id="BitstreamVeraSans-Roman-6c"/>
      <path d="M 19.671875 64.796875 
L 19.671875 8.109375 
L 31.59375 8.109375 
Q 46.6875 8.109375 53.6875 14.9375 
Q 60.6875 21.78125 60.6875 36.53125 
Q 60.6875 51.171875 53.6875 57.984375 
Q 46.6875 64.796875 31.59375 64.796875 
z
M 9.8125 72.90625 
L 30.078125 72.90625 
Q 51.265625 72.90625 61.171875 64.09375 
Q 71.09375 55.28125 71.09375 36.53125 
Q 71.09375 17.671875 61.125 8.828125 
Q 51.171875 0 30.078125 0 
L 9.8125 0 
z
" id="BitstreamVeraSans-Roman-44"/>
      <path d="M 45.40625 27.984375 
Q 45.40625 37.75 41.375 43.109375 
Q 37.359375 48.484375 30.078125 48.484375 
Q 22.859375 48.484375 18.828125 43.109375 
Q 14.796875 37.75 14.796875 27.984375 
Q 14.796875 18.265625 18.828125 12.890625 
Q 22.859375 7.515625 30.078125 7.515625 
Q 37.359375 7.515625 41.375 12.890625 
Q 45.40625 18.265625 45.40625 27.984375 
M 54.390625 6.78125 
Q 54.390625 -7.171875 48.1875 -13.984375 
Q 42 -20.796875 29.203125 -20.796875 
Q 24.46875 -20.796875 20.265625 -20.09375 
Q 16.0625 -19.390625 12.109375 -17.921875 
L 12.109375 -9.1875 
Q 16.0625 -11.328125 19.921875 -12.34375 
Q 23.78125 -13.375 27.78125 -13.375 
Q 36.625 -13.375 41.015625 -8.765625 
Q 45.40625 -4.15625 45.40625 5.171875 
L 45.40625 9.625 
Q 42.625 4.78125 38.28125 2.390625 
Q 33.9375 0 27.875 0 
Q 17.828125 0 11.671875 7.65625 
Q 5.515625 15.328125 5.515625 27.984375 
Q 5.515625 40.671875 11.671875 48.328125 
Q 17.828125 56 27.875 56 
Q 33.9375 56 38.28125 53.609375 
Q 42.625 51.21875 45.40625 46.390625 
L 45.40625 54.6875 
L 54.390625 54.6875 
z
" id="BitstreamVeraSans-Roman-67"/>
      <path d="M 37.109375 75.984375 
L 37.109375 68.5 
L 28.515625 68.5 
Q 23.6875 68.5 21.796875 66.546875 
Q 19.921875 64.59375 19.921875 59.515625 
L 19.921875 54.6875 
L 34.71875 54.6875 
L 34.71875 47.703125 
L 19.921875 47.703125 
L 19.921875 0 
L 10.890625 0 
L 10.890625 47.703125 
L 2.296875 47.703125 
L 2.296875 54.6875 
L 10.890625 54.6875 
L 10.890625 58.5 
Q 10.890625 67.625 15.140625 71.796875 
Q 19.390625 75.984375 28.609375 75.984375 
z
" id="BitstreamVeraSans-Roman-66"/>
     </defs>
     <g transform="translate(229.9340625 427.553125)scale(0.2 -0.2)">
      <use xlink:href="#BitstreamVeraSans-Roman-6c"/>
      <use x="27.783203125" xlink:href="#BitstreamVeraSans-Roman-6f"/>
      <use x="88.96484375" xlink:href="#BitstreamVeraSans-Roman-67"/>
      <use x="152.44140625" xlink:href="#BitstreamVeraSans-Roman-31"/>
      <use x="216.064453125" xlink:href="#BitstreamVeraSans-Roman-30"/>
      <use x="279.6875" xlink:href="#BitstreamVeraSans-Roman-20"/>
      <use x="311.474609375" xlink:href="#BitstreamVeraSans-Roman-6f"/>
      <use x="372.65625" xlink:href="#BitstreamVeraSans-Roman-66"/>
      <use x="407.861328125" xlink:href="#BitstreamVeraSans-Roman-20"/>
      <use x="439.6484375" xlink:href="#BitstreamVeraSans-Roman-44"/>
      <use x="516.650390625" xlink:href="#BitstreamVeraSans-Roman-66"/>
     </g>
    </g>
   </g>
   <g id="matplotlib.axis_2">
    <g id="ytick_1">
     <g id="line2d_49">
      <path clip-path="url(#p9923ce01a8)" d="M 3 384 
L 567.24 384 
" style="fill:none;stroke:#000000;stroke-dasharray:1.000000,3.000000;stroke-dashoffset:0.0;stroke-width:0.5;"/>
     </g>
     <g id="line2d_50">
      <defs>
       <path d="M 0 0 
L 4 0 
" id="m41f9bf5530" style="stroke:#000000;stroke-width:0.5;"/>
      </defs>
      <g>
       <use style="stroke:#000000;stroke-width:0.5;" x="3.0" xlink:href="#m41f9bf5530" y="384.0"/>
      </g>
     </g>
     <g id="line2d_51">
      <defs>
       <path d="M 0 0 
L -4 0 
" id="m78e920266c" style="stroke:#000000;stroke-width:0.5;"/>
      </defs>
      <g>
       <use style="stroke:#000000;stroke-width:0.5;" x="567.24" xlink:href="#m78e920266c" y="384.0"/>
      </g>
     </g>
    </g>
    <g id="ytick_2">
     <g id="line2d_52">
      <path clip-path="url(#p9923ce01a8)" d="M 3 308.554455 
L 567.24 308.554455 
" style="fill:none;stroke:#000000;stroke-dasharray:1.000000,3.000000;stroke-dashoffset:0.0;stroke-width:0.5;"/>
     </g>
     <g id="line2d_53">
      <g>
       <use style="stroke:#000000;stroke-width:0.5;" x="3.0" xlink:href="#m41f9bf5530" y="308.554455446"/>
      </g>
     </g>
     <g id="line2d_54">
      <g>
       <use style="stroke:#000000;stroke-width:0.5;" x="567.24" xlink:href="#m78e920266c" y="308.554455446"/>
      </g>
     </g>
    </g>
    <g id="ytick_3">
     <g id="line2d_55">
      <path clip-path="url(#p9923ce01a8)" d="M 3 233.108911 
L 567.24 233.108911 
" style="fill:none;stroke:#000000;stroke-dasharray:1.000000,3.000000;stroke-dashoffset:0.0;stroke-width:0.5;"/>
     </g>
     <g id="line2d_56">
      <g>
       <use style="stroke:#000000;stroke-width:0.5;" x="3.0" xlink:href="#m41f9bf5530" y="233.108910891"/>
      </g>
     </g>
     <g id="line2d_57">
      <g>
       <use style="stroke:#000000;stroke-width:0.5;" x="567.24" xlink:href="#m78e920266c" y="233.108910891"/>
      </g>
     </g>
    </g>
    <g id="ytick_4">
     <g id="line2d_58">
      <path clip-path="url(#p9923ce01a8)" d="M 3 157.663366 
L 567.24 157.663366 
" style="fill:none;stroke:#000000;stroke-dasharray:1.000000,3.000000;stroke-dashoffset:0.0;stroke-width:0.5;"/>
     </g>
     <g id="line2d_59">
      <g>
       <use style="stroke:#000000;stroke-width:0.5;" x="3.0" xlink:href="#m41f9bf5530" y="157.663366337"/>
      </g>
     </g>
     <g id="line2d_60">
      <g>
       <use style="stroke:#000000;stroke-width:0.5;" x="567.24" xlink:href="#m78e920266c" y="157.663366337"/>
      </g>
     </g>
    </g>
    <g id="ytick_5">
     <g id="line2d_61">
      <path clip-path="url(#p9923ce01a8)" d="M 3 82.217822 
L 567.24 82.217822 
" style="fill:none;stroke:#000000;stroke-dasharray:1.000000,3.000000;stroke-dashoffset:0.0;stroke-width:0.5;"/>
     </g>
     <g id="line2d_62">
      <g>
       <use style="stroke:#000000;stroke-width:0.5;" x="3.0" xlink:href="#m41f9bf5530" y="82.2178217822"/>
      </g>
     </g>
     <g id="line2d_63">
      <g>
       <use style="stroke:#000000;stroke-width:0.5;" x="567.24" xlink:href="#m78e920266c" y="82.2178217822"/>
      </g>
     </g>
    </g>
    <g id="ytick_6">
     <g id="line2d_64">
      <path clip-path="url(#p9923ce01a8)" d="M 3 6.772277 
L 567.24 6.772277 
" style="fill:none;stroke:#000000;stroke-dasharray:1.000000,3.000000;stroke-dashoffset:0.0;stroke-width:0.5;"/>
     </g>
     <g id="line2d_65">
      <g>
       <use style="stroke:#000000;stroke-width:0.5;" x="3.0" xlink:href="#m41f9bf5530" y="6.77227722772"/>
      </g>
     </g>
     <g id="line2d_66">
      <g>
       <use style="stroke:#000000;stroke-width:0.5;" x="567.24" xlink:href="#m78e920266c" y="6.77227722772"/>
      </g>
     </g>
    </g>
   </g>
   <g id="text_10">
    <!-- {f10-f14}, 20-D -->
    <defs>
     <path d="M 12.5 -9.28125 
L 15.921875 -9.28125 
Q 22.75 -9.28125 24.828125 -7.171875 
Q 26.90625 -5.078125 26.90625 1.90625 
L 26.90625 14.015625 
Q 26.90625 21.625 29.09375 25.09375 
Q 31.296875 28.5625 36.71875 29.890625 
Q 31.296875 31.109375 29.09375 34.5625 
Q 26.90625 38.03125 26.90625 45.703125 
L 26.90625 57.8125 
Q 26.90625 64.75 24.828125 66.875 
Q 22.75 69 15.921875 69 
L 12.5 69 
L 12.5 75.984375 
L 15.578125 75.984375 
Q 27.734375 75.984375 31.8125 72.390625 
Q 35.890625 68.796875 35.890625 58.015625 
L 35.890625 46.296875 
Q 35.890625 39.015625 38.515625 36.203125 
Q 41.15625 33.40625 48.09375 33.40625 
L 51.125 33.40625 
L 51.125 26.421875 
L 48.09375 26.421875 
Q 41.15625 26.421875 38.515625 23.578125 
Q 35.890625 20.75 35.890625 13.375 
L 35.890625 1.703125 
Q 35.890625 -9.078125 31.8125 -12.6875 
Q 27.734375 -16.3125 15.578125 -16.3125 
L 12.5 -16.3125 
z
" id="BitstreamVeraSans-Roman-7d"/>
     <path d="M 51.125 -9.28125 
L 51.125 -16.3125 
L 48.09375 -16.3125 
Q 35.9375 -16.3125 31.8125 -12.6875 
Q 27.6875 -9.078125 27.6875 1.703125 
L 27.6875 13.375 
Q 27.6875 20.75 25.046875 23.578125 
Q 22.40625 26.421875 15.484375 26.421875 
L 12.5 26.421875 
L 12.5 33.40625 
L 15.484375 33.40625 
Q 22.46875 33.40625 25.078125 36.203125 
Q 27.6875 39.015625 27.6875 46.296875 
L 27.6875 58.015625 
Q 27.6875 68.796875 31.8125 72.390625 
Q 35.9375 75.984375 48.09375 75.984375 
L 51.125 75.984375 
L 51.125 69 
L 47.796875 69 
Q 40.921875 69 38.8125 66.84375 
Q 36.71875 64.703125 36.71875 57.8125 
L 36.71875 45.703125 
Q 36.71875 38.03125 34.5 34.5625 
Q 32.28125 31.109375 26.90625 29.890625 
Q 32.328125 28.5625 34.515625 25.09375 
Q 36.71875 21.625 36.71875 14.015625 
L 36.71875 1.90625 
Q 36.71875 -4.984375 38.8125 -7.125 
Q 40.921875 -9.28125 47.796875 -9.28125 
z
" id="BitstreamVeraSans-Roman-7b"/>
     <path d="M 11.71875 12.40625 
L 22.015625 12.40625 
L 22.015625 4 
L 14.015625 -11.625 
L 7.71875 -11.625 
L 11.71875 4 
z
" id="BitstreamVeraSans-Roman-2c"/>
    </defs>
    <g transform="translate(397.5302 376.38)scale(0.2 -0.2)">
     <use xlink:href="#BitstreamVeraSans-Roman-7b"/>
     <use x="63.623046875" xlink:href="#BitstreamVeraSans-Roman-66"/>
     <use x="98.828125" xlink:href="#BitstreamVeraSans-Roman-31"/>
     <use x="162.451171875" xlink:href="#BitstreamVeraSans-Roman-30"/>
     <use x="226.07421875" xlink:href="#BitstreamVeraSans-Roman-2d"/>
     <use x="262.158203125" xlink:href="#BitstreamVeraSans-Roman-66"/>
     <use x="297.36328125" xlink:href="#BitstreamVeraSans-Roman-31"/>
     <use x="360.986328125" xlink:href="#BitstreamVeraSans-Roman-34"/>
     <use x="424.609375" xlink:href="#BitstreamVeraSans-Roman-7d"/>
     <use x="488.232421875" xlink:href="#BitstreamVeraSans-Roman-2c"/>
     <use x="520.01953125" xlink:href="#BitstreamVeraSans-Roman-20"/>
     <use x="551.806640625" xlink:href="#BitstreamVeraSans-Roman-32"/>
     <use x="615.4296875" xlink:href="#BitstreamVeraSans-Roman-30"/>
     <use x="679.052734375" xlink:href="#BitstreamVeraSans-Roman-2d"/>
     <use x="715.13671875" xlink:href="#BitstreamVeraSans-Roman-44"/>
    </g>
   </g>
   <g id="text_11">
    <!-- v2.2.1.10 -->
    <defs>
     <path d="M 2.984375 54.6875 
L 12.5 54.6875 
L 29.59375 8.796875 
L 46.6875 54.6875 
L 56.203125 54.6875 
L 35.6875 0 
L 23.484375 0 
z
" id="BitstreamVeraSans-Roman-76"/>
     <path d="M 10.6875 12.40625 
L 21 12.40625 
L 21 0 
L 10.6875 0 
z
" id="BitstreamVeraSans-Roman-2e"/>
    </defs>
    <g style="fill:#808080;" transform="translate(261.4871875 378.1103125)scale(0.1 -0.1)">
     <use xlink:href="#BitstreamVeraSans-Roman-76"/>
     <use x="59.1796875" xlink:href="#BitstreamVeraSans-Roman-32"/>
     <use x="122.802734375" xlink:href="#BitstreamVeraSans-Roman-2e"/>
     <use x="154.58984375" xlink:href="#BitstreamVeraSans-Roman-32"/>
     <use x="218.212890625" xlink:href="#BitstreamVeraSans-Roman-2e"/>
     <use x="250.0" xlink:href="#BitstreamVeraSans-Roman-31"/>
     <use x="313.623046875" xlink:href="#BitstreamVeraSans-Roman-2e"/>
     <use x="345.41015625" xlink:href="#BitstreamVeraSans-Roman-31"/>
     <use x="409.033203125" xlink:href="#BitstreamVeraSans-Roman-30"/>
    </g>
   </g>
  </g>
 </g>
 <defs>
  <clipPath id="p9923ce01a8">
   <rect height="381.0" width="564.24" x="3.0" y="3.0"/>
  </clipPath>
 </defs>
</svg>
