<?xml version="1.0" encoding="utf-8" standalone="no"?>
<!DOCTYPE svg PUBLIC "-//W3C//DTD SVG 1.1//EN"
  "http://www.w3.org/Graphics/SVG/1.1/DTD/svg11.dtd">
<!-- Created with matplotlib (http://matplotlib.org/) -->
<svg height="432pt" version="1.1" viewBox="0 0 576 432" width="576pt" xmlns="http://www.w3.org/2000/svg" xmlns:xlink="http://www.w3.org/1999/xlink">
 <defs>
  <style type="text/css">
*{stroke-linecap:butt;stroke-linejoin:round;stroke-miterlimit:100000;}
  </style>
 </defs>
 <g id="figure_1">
  <g id="patch_1">
   <path d="M 0 432 
L 576 432 
L 576 0 
L 0 0 
z
" style="fill:#ffffff;"/>
  </g>
  <g id="axes_1">
   <g id="patch_2">
    <path d="M 3 384 
L 567.24 384 
L 567.24 3 
L 3 3 
z
" style="fill:#ffffff;"/>
   </g>
   <g id="line2d_1">
    <path clip-path="url(#pbb76fa96ba)" d="M 337.890062 384 
L 337.890062 377.712871 
L 337.890062 377.712871 
L 337.890062 371.425743 
L 337.890062 371.425743 
L 337.890062 365.138614 
L 337.890062 365.138614 
L 337.890062 358.851485 
L 337.890062 358.851485 
L 337.890062 352.564356 
L 337.890062 352.564356 
L 337.890062 346.277228 
L 337.890062 346.277228 
L 337.890062 339.990099 
L 337.890062 339.990099 
L 337.890062 333.70297 
L 337.890062 333.70297 
L 337.890062 327.415842 
L 337.890062 327.415842 
L 337.890062 321.128713 
L 337.890062 321.128713 
L 337.890062 314.841584 
L 337.890062 314.841584 
L 337.890062 308.554455 
L 337.890062 308.554455 
L 337.890062 302.267327 
L 337.890062 302.267327 
L 337.890062 295.980198 
L 337.890062 295.980198 
L 337.890062 289.693069 
L 344.650525 289.693069 
L 344.650525 283.405941 
L 344.753848 283.405941 
L 344.753848 277.118812 
L 344.957658 277.118812 
L 344.957658 270.831683 
L 345.743303 270.831683 
L 345.743303 264.544554 
L 346.06473 264.544554 
L 346.06473 258.257426 
L 346.450701 258.257426 
L 346.450701 251.970297 
L 346.492761 251.970297 
L 346.492761 245.683168 
L 346.895985 245.683168 
L 346.895985 239.39604 
L 346.945359 239.39604 
L 346.945359 233.108911 
L 347.22441 233.108911 
L 347.22441 226.821782 
L 347.273516 226.821782 
L 347.273516 220.534653 
L 347.350674 220.534653 
L 347.350674 214.247525 
L 347.65408 214.247525 
L 347.65408 207.960396 
L 347.825828 207.960396 
L 347.825828 201.673267 
L 348.079553 201.673267 
L 348.079553 195.386139 
L 348.205108 195.386139 
L 348.205108 189.09901 
L 348.262235 189.09901 
L 348.262235 182.811881 
L 349.215949 182.811881 
L 349.215949 176.524752 
L 350.285696 176.524752 
L 350.285696 170.237624 
L 350.535386 170.237624 
L 350.535386 163.950495 
L 351.956854 163.950495 
L 351.956854 157.663366 
L 353.389957 157.663366 
L 353.389957 151.376238 
L 353.469331 151.376238 
L 353.469331 145.089109 
L 354.260278 145.089109 
L 354.260278 138.80198 
L 354.408244 138.80198 
L 354.408244 132.514851 
L 354.411248 132.514851 
L 354.411248 126.227723 
L 354.806962 126.227723 
L 354.806962 119.940594 
L 354.884406 119.940594 
L 354.884406 113.653465 
L 357.521148 113.653465 
L 357.521148 107.366337 
L 358.034234 107.366337 
L 358.034234 101.079208 
L 360.2538 101.079208 
L 360.2538 94.792079 
L 360.581947 94.792079 
L 360.581947 88.50495 
L 362.002218 88.50495 
L 362.002218 82.217822 
L 362.194903 82.217822 
L 362.194903 75.930693 
L 362.889008 75.930693 
L 362.889008 69.643564 
L 363.591073 69.643564 
L 363.591073 63.356436 
L 363.698809 63.356436 
L 363.698809 57.069307 
L 367.797016 57.069307 
L 367.797016 50.782178 
L 369.007486 50.782178 
L 369.007486 44.49505 
L 369.172106 44.49505 
L 369.172106 38.207921 
L 370.439011 38.207921 
L 370.439011 31.920792 
L 370.565521 31.920792 
L 370.565521 25.633663 
L 370.757142 25.633663 
L 370.757142 19.346535 
L 371.284576 19.346535 
L 371.284576 13.059406 
L 371.484507 13.059406 
L 371.484507 6.772277 
L 371.484507 6.772277 
L 371.484507 6.772277 
L 567.24 6.772277 
" style="fill:none;stroke:#ff0000;stroke-linecap:square;stroke-width:3.0;"/>
   </g>
   <g id="line2d_2">
    <path clip-path="url(#pbb76fa96ba)" d="M 337.890062 384 
L 337.890062 377.712871 
L 337.890062 377.712871 
L 337.890062 371.425743 
L 337.890062 371.425743 
L 337.890062 365.138614 
L 337.890062 365.138614 
L 337.890062 358.851485 
L 337.890062 358.851485 
L 337.890062 352.564356 
L 337.890062 352.564356 
L 337.890062 346.277228 
L 337.890062 346.277228 
L 337.890062 339.990099 
L 337.890062 339.990099 
L 337.890062 333.70297 
L 337.890062 333.70297 
L 337.890062 327.415842 
L 337.890062 327.415842 
L 337.890062 321.128713 
L 337.890062 321.128713 
L 337.890062 314.841584 
L 337.890062 314.841584 
L 337.890062 308.554455 
L 337.890062 308.554455 
L 337.890062 302.267327 
L 337.890062 302.267327 
L 337.890062 295.980198 
L 337.890062 295.980198 
L 337.890062 289.693069 
L 357.616556 289.693069 
L 357.616556 283.405941 
L 361.024797 283.405941 
L 361.024797 277.118812 
L 363.170991 277.118812 
L 363.170991 270.831683 
L 364.149553 270.831683 
L 364.149553 264.544554 
L 364.458071 264.544554 
L 364.458071 258.257426 
L 364.75624 258.257426 
L 364.75624 251.970297 
L 365.371979 251.970297 
L 365.371979 245.683168 
L 365.968067 245.683168 
L 365.968067 239.39604 
L 366.530584 239.39604 
L 366.530584 233.108911 
L 367.003103 233.108911 
L 367.003103 226.821782 
L 372.271356 226.821782 
L 372.271356 220.534653 
L 373.122014 220.534653 
L 373.122014 214.247525 
L 373.94824 214.247525 
L 373.94824 207.960396 
L 376.16853 207.960396 
L 376.16853 201.673267 
L 378.259106 201.673267 
L 378.259106 195.386139 
L 414.719885 195.386139 
L 414.719885 189.09901 
L 415.05309 189.09901 
L 415.05309 182.811881 
L 415.861405 182.811881 
L 415.861405 176.524752 
L 419.700527 176.524752 
L 419.700527 170.237624 
L 420.938245 170.237624 
L 420.938245 163.950495 
L 423.552773 163.950495 
L 423.552773 157.663366 
L 424.408308 157.663366 
L 424.408308 151.376238 
L 424.483048 151.376238 
L 424.483048 145.089109 
L 425.771572 145.089109 
L 425.771572 138.80198 
L 425.836302 138.80198 
L 425.836302 132.514851 
L 426.125504 132.514851 
L 426.125504 126.227723 
L 429.113919 126.227723 
L 429.113919 119.940594 
L 430.42149 119.940594 
L 430.42149 113.653465 
L 430.923749 113.653465 
L 430.923749 107.366337 
L 431.819919 107.366337 
L 431.819919 101.079208 
L 438.343262 101.079208 
L 438.343262 94.792079 
L 441.869125 94.792079 
L 441.869125 88.50495 
L 442.901141 88.50495 
L 442.901141 82.217822 
L 449.726744 82.217822 
L 449.726744 75.930693 
L 451.60048 75.930693 
L 451.60048 69.643564 
L 452.956629 69.643564 
L 452.956629 63.356436 
L 454.702005 63.356436 
L 454.702005 57.069307 
L 458.799469 57.069307 
L 458.799469 50.782178 
L 458.829393 50.782178 
L 458.829393 44.49505 
L 459.502913 44.49505 
L 459.502913 38.207921 
L 459.679163 38.207921 
L 459.679163 31.920792 
L 462.362729 31.920792 
L 462.362729 25.633663 
L 463.95568 25.633663 
L 463.95568 19.346535 
L 467.65546 19.346535 
L 467.65546 13.059406 
L 469.262721 13.059406 
L 469.262721 6.772277 
L 469.262721 6.772277 
L 469.262721 6.772277 
L 567.24 6.772277 
" style="fill:none;stroke:#00bfbf;stroke-linecap:square;"/>
   </g>
   <g id="line2d_3">
    <path clip-path="url(#pbb76fa96ba)" d="M 337.890062 384 
L 337.890062 377.712871 
L 337.890062 377.712871 
L 337.890062 371.425743 
L 337.890062 371.425743 
L 337.890062 365.138614 
L 337.890062 365.138614 
L 337.890062 358.851485 
L 337.890062 358.851485 
L 337.890062 352.564356 
L 337.890062 352.564356 
L 337.890062 346.277228 
L 337.890062 346.277228 
L 337.890062 339.990099 
L 337.890062 339.990099 
L 337.890062 333.70297 
L 337.890062 333.70297 
L 337.890062 327.415842 
L 337.890062 327.415842 
L 337.890062 321.128713 
L 337.890062 321.128713 
L 337.890062 314.841584 
L 337.890062 314.841584 
L 337.890062 308.554455 
L 337.890062 308.554455 
L 337.890062 302.267327 
L 337.890062 302.267327 
L 337.890062 295.980198 
L 337.890062 295.980198 
L 337.890062 289.693069 
L 357.616556 289.693069 
L 357.616556 283.405941 
L 361.024797 283.405941 
L 361.024797 277.118812 
L 363.170991 277.118812 
L 363.170991 270.831683 
L 363.556506 270.831683 
L 363.556506 264.544554 
L 364.458071 264.544554 
L 364.458071 258.257426 
L 364.75624 258.257426 
L 364.75624 251.970297 
L 365.371979 251.970297 
L 365.371979 245.683168 
L 365.968067 245.683168 
L 365.968067 239.39604 
L 366.530584 239.39604 
L 366.530584 233.108911 
L 367.003103 233.108911 
L 367.003103 226.821782 
L 367.78711 226.821782 
L 367.78711 220.534653 
L 369.432613 220.534653 
L 369.432613 214.247525 
L 369.849538 214.247525 
L 369.849538 207.960396 
L 372.271356 207.960396 
L 372.271356 201.673267 
L 373.36038 201.673267 
L 373.36038 195.386139 
L 414.719885 195.386139 
L 414.719885 189.09901 
L 415.05309 189.09901 
L 415.05309 182.811881 
L 415.861405 182.811881 
L 415.861405 176.524752 
L 419.700527 176.524752 
L 419.700527 170.237624 
L 420.938245 170.237624 
L 420.938245 163.950495 
L 423.552773 163.950495 
L 423.552773 157.663366 
L 424.408308 157.663366 
L 424.408308 151.376238 
L 424.483048 151.376238 
L 424.483048 145.089109 
L 425.771572 145.089109 
L 425.771572 138.80198 
L 425.836302 138.80198 
L 425.836302 132.514851 
L 426.125504 132.514851 
L 426.125504 126.227723 
L 429.113919 126.227723 
L 429.113919 119.940594 
L 430.42149 119.940594 
L 430.42149 113.653465 
L 430.923749 113.653465 
L 430.923749 107.366337 
L 431.819919 107.366337 
L 431.819919 101.079208 
L 438.343262 101.079208 
L 438.343262 94.792079 
L 441.869125 94.792079 
L 441.869125 88.50495 
L 442.901141 88.50495 
L 442.901141 82.217822 
L 449.726744 82.217822 
L 449.726744 75.930693 
L 451.60048 75.930693 
L 451.60048 69.643564 
L 452.956629 69.643564 
L 452.956629 63.356436 
L 454.702005 63.356436 
L 454.702005 57.069307 
L 456.511419 57.069307 
L 456.511419 50.782178 
L 457.617652 50.782178 
L 457.617652 44.49505 
L 458.799469 44.49505 
L 458.799469 38.207921 
L 459.679163 38.207921 
L 459.679163 31.920792 
L 461.194044 31.920792 
L 461.194044 25.633663 
L 462.362729 25.633663 
L 462.362729 19.346535 
L 467.65546 19.346535 
L 467.65546 13.059406 
L 468.905625 13.059406 
L 468.905625 6.772277 
L 468.905625 6.772277 
L 468.905625 6.772277 
L 567.24 6.772277 
" style="fill:none;stroke:#bf00bf;stroke-linecap:square;"/>
   </g>
   <g id="line2d_4">
    <path clip-path="url(#pbb76fa96ba)" d="M 337.890062 384 
L 337.890062 377.712871 
L 337.890062 377.712871 
L 337.890062 371.425743 
L 337.890062 371.425743 
L 337.890062 365.138614 
L 337.890062 365.138614 
L 337.890062 358.851485 
L 337.890062 358.851485 
L 337.890062 352.564356 
L 337.890062 352.564356 
L 337.890062 346.277228 
L 337.890062 346.277228 
L 337.890062 339.990099 
L 337.890062 339.990099 
L 337.890062 333.70297 
L 337.890062 333.70297 
L 337.890062 327.415842 
L 337.890062 327.415842 
L 337.890062 321.128713 
L 337.890062 321.128713 
L 337.890062 314.841584 
L 337.890062 314.841584 
L 337.890062 308.554455 
L 337.890062 308.554455 
L 337.890062 302.267327 
L 337.890062 302.267327 
L 337.890062 295.980198 
L 337.890062 295.980198 
L 337.890062 289.693069 
L 357.616556 289.693069 
L 357.616556 283.405941 
L 361.024797 283.405941 
L 361.024797 277.118812 
L 363.170991 277.118812 
L 363.170991 270.831683 
L 363.556506 270.831683 
L 363.556506 264.544554 
L 364.458071 264.544554 
L 364.458071 258.257426 
L 364.75624 258.257426 
L 364.75624 251.970297 
L 365.371979 251.970297 
L 365.371979 245.683168 
L 365.968067 245.683168 
L 365.968067 239.39604 
L 366.530584 239.39604 
L 366.530584 233.108911 
L 367.003103 233.108911 
L 367.003103 226.821782 
L 367.78711 226.821782 
L 367.78711 220.534653 
L 369.432613 220.534653 
L 369.432613 214.247525 
L 369.849538 214.247525 
L 369.849538 207.960396 
L 372.271356 207.960396 
L 372.271356 201.673267 
L 373.36038 201.673267 
L 373.36038 195.386139 
L 414.719885 195.386139 
L 414.719885 189.09901 
L 415.05309 189.09901 
L 415.05309 182.811881 
L 415.861405 182.811881 
L 415.861405 176.524752 
L 419.700527 176.524752 
L 419.700527 170.237624 
L 420.938245 170.237624 
L 420.938245 163.950495 
L 423.552773 163.950495 
L 423.552773 157.663366 
L 424.408308 157.663366 
L 424.408308 151.376238 
L 424.483048 151.376238 
L 424.483048 145.089109 
L 425.771572 145.089109 
L 425.771572 138.80198 
L 425.836302 138.80198 
L 425.836302 132.514851 
L 426.125504 132.514851 
L 426.125504 126.227723 
L 429.113919 126.227723 
L 429.113919 119.940594 
L 430.42149 119.940594 
L 430.42149 113.653465 
L 430.923749 113.653465 
L 430.923749 107.366337 
L 431.819919 107.366337 
L 431.819919 101.079208 
L 438.343262 101.079208 
L 438.343262 94.792079 
L 441.869125 94.792079 
L 441.869125 88.50495 
L 442.901141 88.50495 
L 442.901141 82.217822 
L 449.726744 82.217822 
L 449.726744 75.930693 
L 451.60048 75.930693 
L 451.60048 69.643564 
L 452.956629 69.643564 
L 452.956629 63.356436 
L 454.702005 63.356436 
L 454.702005 57.069307 
L 456.511419 57.069307 
L 456.511419 50.782178 
L 457.617652 50.782178 
L 457.617652 44.49505 
L 458.799469 44.49505 
L 458.799469 38.207921 
L 459.679163 38.207921 
L 459.679163 31.920792 
L 461.194044 31.920792 
L 461.194044 25.633663 
L 462.362729 25.633663 
L 462.362729 19.346535 
L 467.65546 19.346535 
L 467.65546 13.059406 
L 468.905625 13.059406 
L 468.905625 6.772277 
L 468.905625 6.772277 
L 468.905625 6.772277 
L 567.24 6.772277 
" style="fill:none;stroke:#000000;stroke-linecap:square;"/>
   </g>
   <g id="line2d_5">
    <path clip-path="url(#pbb76fa96ba)" d="M 337.890062 384 
L 337.890062 377.712871 
L 337.890062 377.712871 
L 337.890062 371.425743 
L 337.890062 371.425743 
L 337.890062 365.138614 
L 337.890062 365.138614 
L 337.890062 358.851485 
L 337.890062 358.851485 
L 337.890062 352.564356 
L 337.890062 352.564356 
L 337.890062 346.277228 
L 337.890062 346.277228 
L 337.890062 339.990099 
L 337.890062 339.990099 
L 337.890062 333.70297 
L 337.890062 333.70297 
L 337.890062 327.415842 
L 337.890062 327.415842 
L 337.890062 321.128713 
L 337.890062 321.128713 
L 337.890062 314.841584 
L 337.890062 314.841584 
L 337.890062 308.554455 
L 337.890062 308.554455 
L 337.890062 302.267327 
L 337.890062 302.267327 
L 337.890062 295.980198 
L 337.890062 295.980198 
L 337.890062 289.693069 
L 357.28218 289.693069 
L 357.28218 283.405941 
L 357.498588 283.405941 
L 357.498588 277.118812 
L 357.607099 277.118812 
L 357.607099 270.831683 
L 360.743712 270.831683 
L 360.743712 264.544554 
L 362.47769 264.544554 
L 362.47769 258.257426 
L 363.556506 258.257426 
L 363.556506 251.970297 
L 364.184704 251.970297 
L 364.184704 245.683168 
L 364.458071 245.683168 
L 364.458071 239.39604 
L 364.75624 239.39604 
L 364.75624 233.108911 
L 365.131284 233.108911 
L 365.131284 226.821782 
L 365.335233 226.821782 
L 365.335233 220.534653 
L 365.968067 220.534653 
L 365.968067 214.247525 
L 366.271968 214.247525 
L 366.271968 207.960396 
L 369.076827 207.960396 
L 369.076827 201.673267 
L 370.4713 201.673267 
L 370.4713 195.386139 
L 414.719885 195.386139 
L 414.719885 189.09901 
L 415.05309 189.09901 
L 415.05309 182.811881 
L 415.861405 182.811881 
L 415.861405 176.524752 
L 418.032243 176.524752 
L 418.032243 170.237624 
L 419.700527 170.237624 
L 419.700527 163.950495 
L 419.797846 163.950495 
L 419.797846 157.663366 
L 420.789971 157.663366 
L 420.789971 151.376238 
L 423.552773 151.376238 
L 423.552773 145.089109 
L 423.791958 145.089109 
L 423.791958 138.80198 
L 423.925965 138.80198 
L 423.925965 132.514851 
L 424.734166 132.514851 
L 424.734166 126.227723 
L 425.836302 126.227723 
L 425.836302 119.940594 
L 427.825529 119.940594 
L 427.825529 113.653465 
L 430.923749 113.653465 
L 430.923749 107.366337 
L 431.819919 107.366337 
L 431.819919 101.079208 
L 438.253978 101.079208 
L 438.253978 94.792079 
L 438.343262 94.792079 
L 438.343262 88.50495 
L 441.869125 88.50495 
L 441.869125 82.217822 
L 442.901141 82.217822 
L 442.901141 75.930693 
L 449.064412 75.930693 
L 449.064412 69.643564 
L 449.726744 69.643564 
L 449.726744 63.356436 
L 450.898739 63.356436 
L 450.898739 57.069307 
L 451.60048 57.069307 
L 451.60048 50.782178 
L 452.956629 50.782178 
L 452.956629 44.49505 
L 454.702005 44.49505 
L 454.702005 38.207921 
L 456.511419 38.207921 
L 456.511419 31.920792 
L 458.799469 31.920792 
L 458.799469 25.633663 
L 459.679163 25.633663 
L 459.679163 19.346535 
L 459.744002 19.346535 
L 459.744002 13.059406 
L 467.65546 13.059406 
L 467.65546 6.772277 
L 467.65546 6.772277 
L 467.65546 6.772277 
L 567.24 6.772277 
" style="fill:none;stroke:#00bfbf;stroke-linecap:square;"/>
   </g>
   <g id="line2d_6">
    <path clip-path="url(#pbb76fa96ba)" d="M 337.890062 384 
L 337.890062 377.712871 
L 337.890062 377.712871 
L 337.890062 371.425743 
L 337.890062 371.425743 
L 337.890062 365.138614 
L 337.890062 365.138614 
L 337.890062 358.851485 
L 337.890062 358.851485 
L 337.890062 352.564356 
L 337.890062 352.564356 
L 337.890062 346.277228 
L 337.890062 346.277228 
L 337.890062 339.990099 
L 337.890062 339.990099 
L 337.890062 333.70297 
L 337.890062 333.70297 
L 337.890062 327.415842 
L 337.890062 327.415842 
L 337.890062 321.128713 
L 337.890062 321.128713 
L 337.890062 314.841584 
L 337.890062 314.841584 
L 337.890062 308.554455 
L 337.890062 308.554455 
L 337.890062 302.267327 
L 337.890062 302.267327 
L 337.890062 295.980198 
L 337.890062 295.980198 
L 337.890062 289.693069 
L 350.542037 289.693069 
L 350.542037 283.405941 
L 356.013999 283.405941 
L 356.013999 277.118812 
L 356.212594 277.118812 
L 356.212594 270.831683 
L 356.601509 270.831683 
L 356.601509 264.544554 
L 357.28218 264.544554 
L 357.28218 258.257426 
L 359.046999 258.257426 
L 359.046999 251.970297 
L 359.45682 251.970297 
L 359.45682 245.683168 
L 362.306929 245.683168 
L 362.306929 239.39604 
L 362.458497 239.39604 
L 362.458497 233.108911 
L 363.343542 233.108911 
L 363.343542 226.821782 
L 363.76967 226.821782 
L 363.76967 220.534653 
L 363.903765 220.534653 
L 363.903765 214.247525 
L 364.782204 214.247525 
L 364.782204 207.960396 
L 365.335233 207.960396 
L 365.335233 201.673267 
L 370.4713 201.673267 
L 370.4713 195.386139 
L 385.000343 195.386139 
L 385.000343 189.09901 
L 387.202069 189.09901 
L 387.202069 182.811881 
L 394.254603 182.811881 
L 394.254603 176.524752 
L 406.421961 176.524752 
L 406.421961 170.237624 
L 407.607375 170.237624 
L 407.607375 163.950495 
L 407.881764 163.950495 
L 407.881764 157.663366 
L 409.510483 157.663366 
L 409.510483 151.376238 
L 409.60372 151.376238 
L 409.60372 145.089109 
L 411.159052 145.089109 
L 411.159052 138.80198 
L 411.326526 138.80198 
L 411.326526 132.514851 
L 412.482761 132.514851 
L 412.482761 126.227723 
L 415.946443 126.227723 
L 415.946443 119.940594 
L 416.594096 119.940594 
L 416.594096 113.653465 
L 418.356167 113.653465 
L 418.356167 107.366337 
L 418.535645 107.366337 
L 418.535645 101.079208 
L 418.804432 101.079208 
L 418.804432 94.792079 
L 421.937259 94.792079 
L 421.937259 88.50495 
L 422.927206 88.50495 
L 422.927206 82.217822 
L 426.296928 82.217822 
L 426.296928 75.930693 
L 426.825446 75.930693 
L 426.825446 69.643564 
L 427.68352 69.643564 
L 427.68352 63.356436 
L 431.891184 63.356436 
L 431.891184 57.069307 
L 433.134704 57.069307 
L 433.134704 50.782178 
L 435.708919 50.782178 
L 435.708919 44.49505 
L 436.177442 44.49505 
L 436.177442 38.207921 
L 438.202424 38.207921 
L 438.202424 31.920792 
L 439.979032 31.920792 
L 439.979032 25.633663 
L 443.967229 25.633663 
L 443.967229 19.346535 
L 446.804452 19.346535 
L 446.804452 13.059406 
L 450.898739 13.059406 
L 450.898739 6.772277 
L 450.898739 6.772277 
L 450.898739 6.772277 
L 567.24 6.772277 
" style="fill:none;stroke:#bf00bf;stroke-linecap:square;"/>
   </g>
   <g id="line2d_7">
    <path clip-path="url(#pbb76fa96ba)" d="M 337.890062 384 
L 337.890062 377.712871 
L 337.890062 377.712871 
L 337.890062 371.425743 
L 337.890062 371.425743 
L 337.890062 365.138614 
L 337.890062 365.138614 
L 337.890062 358.851485 
L 337.890062 358.851485 
L 337.890062 352.564356 
L 337.890062 352.564356 
L 337.890062 346.277228 
L 337.890062 346.277228 
L 337.890062 339.990099 
L 337.890062 339.990099 
L 337.890062 333.70297 
L 337.890062 333.70297 
L 337.890062 327.415842 
L 337.890062 327.415842 
L 337.890062 321.128713 
L 337.890062 321.128713 
L 337.890062 314.841584 
L 337.890062 314.841584 
L 337.890062 308.554455 
L 337.890062 308.554455 
L 337.890062 302.267327 
L 337.890062 302.267327 
L 337.890062 295.980198 
L 337.890062 295.980198 
L 337.890062 289.693069 
L 345.877098 289.693069 
L 345.877098 283.405941 
L 349.677841 283.405941 
L 349.677841 277.118812 
L 350.466901 277.118812 
L 350.466901 270.831683 
L 354.063532 270.831683 
L 354.063532 264.544554 
L 354.260278 264.544554 
L 354.260278 258.257426 
L 354.433108 258.257426 
L 354.433108 251.970297 
L 354.57332 251.970297 
L 354.57332 245.683168 
L 354.965043 245.683168 
L 354.965043 239.39604 
L 356.124455 239.39604 
L 356.124455 233.108911 
L 356.212594 233.108911 
L 356.212594 226.821782 
L 356.601509 226.821782 
L 356.601509 220.534653 
L 357.28218 220.534653 
L 357.28218 214.247525 
L 357.401642 214.247525 
L 357.401642 207.960396 
L 358.555971 207.960396 
L 358.555971 201.673267 
L 358.818318 201.673267 
L 358.818318 195.386139 
L 359.215508 195.386139 
L 359.215508 189.09901 
L 359.875619 189.09901 
L 359.875619 182.811881 
L 360.961637 182.811881 
L 360.961637 176.524752 
L 361.452916 176.524752 
L 361.452916 170.237624 
L 361.793883 170.237624 
L 361.793883 163.950495 
L 361.794174 163.950495 
L 361.794174 157.663366 
L 362.16146 157.663366 
L 362.16146 151.376238 
L 362.306893 151.376238 
L 362.306893 145.089109 
L 362.745884 145.089109 
L 362.745884 138.80198 
L 363.890836 138.80198 
L 363.890836 132.514851 
L 367.719297 132.514851 
L 367.719297 126.227723 
L 368.064488 126.227723 
L 368.064488 119.940594 
L 368.911526 119.940594 
L 368.911526 113.653465 
L 369.836152 113.653465 
L 369.836152 107.366337 
L 370.4713 107.366337 
L 370.4713 101.079208 
L 370.565521 101.079208 
L 370.565521 94.792079 
L 370.711367 94.792079 
L 370.711367 88.50495 
L 371.157003 88.50495 
L 371.157003 82.217822 
L 371.627655 82.217822 
L 371.627655 75.930693 
L 373.300471 75.930693 
L 373.300471 69.643564 
L 373.332434 69.643564 
L 373.332434 63.356436 
L 374.317075 63.356436 
L 374.317075 57.069307 
L 374.94386 57.069307 
L 374.94386 50.782178 
L 375.598487 50.782178 
L 375.598487 44.49505 
L 375.998743 44.49505 
L 375.998743 38.207921 
L 376.203196 38.207921 
L 376.203196 31.920792 
L 376.623448 31.920792 
L 376.623448 25.633663 
L 376.821502 25.633663 
L 376.821502 19.346535 
L 377.485508 19.346535 
L 377.485508 13.059406 
L 377.623579 13.059406 
L 377.623579 6.772277 
L 377.623579 6.772277 
L 377.623579 6.772277 
L 567.24 6.772277 
" style="fill:none;stroke:#000000;stroke-linecap:square;"/>
   </g>
   <g id="line2d_8">
    <path clip-path="url(#pbb76fa96ba)" d="M 337.890062 384 
L 337.890062 377.712871 
L 337.890062 377.712871 
L 337.890062 371.425743 
L 337.890062 371.425743 
L 337.890062 365.138614 
L 337.890062 365.138614 
L 337.890062 358.851485 
L 337.890062 358.851485 
L 337.890062 352.564356 
L 337.890062 352.564356 
L 337.890062 346.277228 
L 337.890062 346.277228 
L 337.890062 339.990099 
L 337.890062 339.990099 
L 337.890062 333.70297 
L 337.890062 333.70297 
L 337.890062 327.415842 
L 337.890062 327.415842 
L 337.890062 321.128713 
L 337.890062 321.128713 
L 337.890062 314.841584 
L 337.890062 314.841584 
L 337.890062 308.554455 
L 337.890062 308.554455 
L 337.890062 302.267327 
L 337.890062 302.267327 
L 337.890062 295.980198 
L 337.890062 295.980198 
L 337.890062 289.693069 
L 345.743303 289.693069 
L 345.743303 283.405941 
L 346.450701 283.405941 
L 346.450701 277.118812 
L 347.22441 277.118812 
L 347.22441 270.831683 
L 347.50768 270.831683 
L 347.50768 264.544554 
L 347.825828 264.544554 
L 347.825828 258.257426 
L 348.079553 258.257426 
L 348.079553 251.970297 
L 349.215762 251.970297 
L 349.215762 245.683168 
L 349.215949 245.683168 
L 349.215949 239.39604 
L 349.677841 239.39604 
L 349.677841 233.108911 
L 350.348668 233.108911 
L 350.348668 226.821782 
L 350.466901 226.821782 
L 350.466901 220.534653 
L 350.541451 220.534653 
L 350.541451 214.247525 
L 350.856995 214.247525 
L 350.856995 207.960396 
L 351.144938 207.960396 
L 351.144938 201.673267 
L 351.410773 201.673267 
L 351.410773 195.386139 
L 353.160264 195.386139 
L 353.160264 189.09901 
L 353.389957 189.09901 
L 353.389957 182.811881 
L 353.469331 182.811881 
L 353.469331 176.524752 
L 353.795908 176.524752 
L 353.795908 170.237624 
L 354.260278 170.237624 
L 354.260278 163.950495 
L 354.408244 163.950495 
L 354.408244 157.663366 
L 354.490276 157.663366 
L 354.490276 151.376238 
L 354.57332 151.376238 
L 354.57332 145.089109 
L 354.806962 145.089109 
L 354.806962 138.80198 
L 354.884406 138.80198 
L 354.884406 132.514851 
L 355.103508 132.514851 
L 355.103508 126.227723 
L 355.988266 126.227723 
L 355.988266 119.940594 
L 357.521148 119.940594 
L 357.521148 113.653465 
L 358.047056 113.653465 
L 358.047056 107.366337 
L 360.2538 107.366337 
L 360.2538 101.079208 
L 360.581947 101.079208 
L 360.581947 94.792079 
L 361.753804 94.792079 
L 361.753804 88.50495 
L 362.002218 88.50495 
L 362.002218 82.217822 
L 362.194903 82.217822 
L 362.194903 75.930693 
L 362.889008 75.930693 
L 362.889008 69.643564 
L 363.591073 69.643564 
L 363.591073 63.356436 
L 363.698809 63.356436 
L 363.698809 57.069307 
L 369.007486 57.069307 
L 369.007486 50.782178 
L 370.439011 50.782178 
L 370.439011 44.49505 
L 370.565521 44.49505 
L 370.565521 38.207921 
L 370.61629 38.207921 
L 370.61629 31.920792 
L 370.757142 31.920792 
L 370.757142 25.633663 
L 371.484507 25.633663 
L 371.484507 19.346535 
L 373.07024 19.346535 
L 373.07024 13.059406 
L 373.910258 13.059406 
L 373.910258 6.772277 
L 373.910258 6.772277 
L 373.910258 6.772277 
L 567.24 6.772277 
" style="fill:none;stroke:#00bfbf;stroke-linecap:square;"/>
   </g>
   <g id="patch_3">
    <path d="M 3 3 
L 567.24 3 
" style="fill:none;stroke:#000000;stroke-linecap:square;stroke-linejoin:miter;"/>
   </g>
   <g id="patch_4">
    <path d="M 567.24 384 
L 567.24 3 
" style="fill:none;stroke:#000000;stroke-linecap:square;stroke-linejoin:miter;"/>
   </g>
   <g id="patch_5">
    <path d="M 3 384 
L 567.24 384 
" style="fill:none;stroke:#000000;stroke-linecap:square;stroke-linejoin:miter;"/>
   </g>
   <g id="patch_6">
    <path d="M 3 384 
L 3 3 
" style="fill:none;stroke:#000000;stroke-linecap:square;stroke-linejoin:miter;"/>
   </g>
   <g id="matplotlib.axis_1">
    <g id="xtick_1"/>
    <g id="xtick_2">
     <g id="line2d_9">
      <path clip-path="url(#pbb76fa96ba)" d="M 69.254589 384 
L 69.254589 3 
" style="fill:none;stroke:#000000;stroke-dasharray:1.000000,3.000000;stroke-dashoffset:0.0;stroke-width:0.5;"/>
     </g>
     <g id="line2d_10">
      <defs>
       <path d="M 0 0 
L 0 -4 
" id="me537b9a59d" style="stroke:#000000;stroke-width:0.5;"/>
      </defs>
      <g>
       <use style="stroke:#000000;stroke-width:0.5;" x="69.2545893472" xlink:href="#me537b9a59d" y="384.0"/>
      </g>
     </g>
     <g id="line2d_11">
      <defs>
       <path d="M 0 0 
L 0 4 
" id="mafe5694704" style="stroke:#000000;stroke-width:0.5;"/>
      </defs>
      <g>
       <use style="stroke:#000000;stroke-width:0.5;" x="69.2545893472" xlink:href="#mafe5694704" y="3.0"/>
      </g>
     </g>
     <g id="text_1">
      <!-- -6 -->
      <defs>
       <path d="M 33.015625 40.375 
Q 26.375 40.375 22.484375 35.828125 
Q 18.609375 31.296875 18.609375 23.390625 
Q 18.609375 15.53125 22.484375 10.953125 
Q 26.375 6.390625 33.015625 6.390625 
Q 39.65625 6.390625 43.53125 10.953125 
Q 47.40625 15.53125 47.40625 23.390625 
Q 47.40625 31.296875 43.53125 35.828125 
Q 39.65625 40.375 33.015625 40.375 
M 52.59375 71.296875 
L 52.59375 62.3125 
Q 48.875 64.0625 45.09375 64.984375 
Q 41.3125 65.921875 37.59375 65.921875 
Q 27.828125 65.921875 22.671875 59.328125 
Q 17.53125 52.734375 16.796875 39.40625 
Q 19.671875 43.65625 24.015625 45.921875 
Q 28.375 48.1875 33.59375 48.1875 
Q 44.578125 48.1875 50.953125 41.515625 
Q 57.328125 34.859375 57.328125 23.390625 
Q 57.328125 12.15625 50.6875 5.359375 
Q 44.046875 -1.421875 33.015625 -1.421875 
Q 20.359375 -1.421875 13.671875 8.265625 
Q 6.984375 17.96875 6.984375 36.375 
Q 6.984375 53.65625 15.1875 63.9375 
Q 23.390625 74.21875 37.203125 74.21875 
Q 40.921875 74.21875 44.703125 73.484375 
Q 48.484375 72.75 52.59375 71.296875 
" id="BitstreamVeraSans-Roman-36"/>
       <path d="M 4.890625 31.390625 
L 31.203125 31.390625 
L 31.203125 23.390625 
L 4.890625 23.390625 
z
" id="BitstreamVeraSans-Roman-2d"/>
      </defs>
      <g transform="translate(59.2842768472 403.196875)scale(0.2 -0.2)">
       <use xlink:href="#BitstreamVeraSans-Roman-2d"/>
       <use x="36.083984375" xlink:href="#BitstreamVeraSans-Roman-36"/>
      </g>
     </g>
    </g>
    <g id="xtick_3">
     <g id="line2d_12">
      <path clip-path="url(#pbb76fa96ba)" d="M 135.652644 384 
L 135.652644 3 
" style="fill:none;stroke:#000000;stroke-dasharray:1.000000,3.000000;stroke-dashoffset:0.0;stroke-width:0.5;"/>
     </g>
     <g id="line2d_13">
      <g>
       <use style="stroke:#000000;stroke-width:0.5;" x="135.652644101" xlink:href="#me537b9a59d" y="384.0"/>
      </g>
     </g>
     <g id="line2d_14">
      <g>
       <use style="stroke:#000000;stroke-width:0.5;" x="135.652644101" xlink:href="#mafe5694704" y="3.0"/>
      </g>
     </g>
     <g id="text_2">
      <!-- -4 -->
      <defs>
       <path d="M 37.796875 64.3125 
L 12.890625 25.390625 
L 37.796875 25.390625 
z
M 35.203125 72.90625 
L 47.609375 72.90625 
L 47.609375 25.390625 
L 58.015625 25.390625 
L 58.015625 17.1875 
L 47.609375 17.1875 
L 47.609375 0 
L 37.796875 0 
L 37.796875 17.1875 
L 4.890625 17.1875 
L 4.890625 26.703125 
z
" id="BitstreamVeraSans-Roman-34"/>
      </defs>
      <g transform="translate(125.682331601 403.196875)scale(0.2 -0.2)">
       <use xlink:href="#BitstreamVeraSans-Roman-2d"/>
       <use x="36.083984375" xlink:href="#BitstreamVeraSans-Roman-34"/>
      </g>
     </g>
    </g>
    <g id="xtick_4">
     <g id="line2d_15">
      <path clip-path="url(#pbb76fa96ba)" d="M 202.050699 384 
L 202.050699 3 
" style="fill:none;stroke:#000000;stroke-dasharray:1.000000,3.000000;stroke-dashoffset:0.0;stroke-width:0.5;"/>
     </g>
     <g id="line2d_16">
      <g>
       <use style="stroke:#000000;stroke-width:0.5;" x="202.050698855" xlink:href="#me537b9a59d" y="384.0"/>
      </g>
     </g>
     <g id="line2d_17">
      <g>
       <use style="stroke:#000000;stroke-width:0.5;" x="202.050698855" xlink:href="#mafe5694704" y="3.0"/>
      </g>
     </g>
     <g id="text_3">
      <!-- -2 -->
      <defs>
       <path d="M 19.1875 8.296875 
L 53.609375 8.296875 
L 53.609375 0 
L 7.328125 0 
L 7.328125 8.296875 
Q 12.9375 14.109375 22.625 23.890625 
Q 32.328125 33.6875 34.8125 36.53125 
Q 39.546875 41.84375 41.421875 45.53125 
Q 43.3125 49.21875 43.3125 52.78125 
Q 43.3125 58.59375 39.234375 62.25 
Q 35.15625 65.921875 28.609375 65.921875 
Q 23.96875 65.921875 18.8125 64.3125 
Q 13.671875 62.703125 7.8125 59.421875 
L 7.8125 69.390625 
Q 13.765625 71.78125 18.9375 73 
Q 24.125 74.21875 28.421875 74.21875 
Q 39.75 74.21875 46.484375 68.546875 
Q 53.21875 62.890625 53.21875 53.421875 
Q 53.21875 48.921875 51.53125 44.890625 
Q 49.859375 40.875 45.40625 35.40625 
Q 44.1875 33.984375 37.640625 27.21875 
Q 31.109375 20.453125 19.1875 8.296875 
" id="BitstreamVeraSans-Roman-32"/>
      </defs>
      <g transform="translate(192.080386355 403.196875)scale(0.2 -0.2)">
       <use xlink:href="#BitstreamVeraSans-Roman-2d"/>
       <use x="36.083984375" xlink:href="#BitstreamVeraSans-Roman-32"/>
      </g>
     </g>
    </g>
    <g id="xtick_5">
     <g id="line2d_18">
      <path clip-path="url(#pbb76fa96ba)" d="M 268.448754 384 
L 268.448754 3 
" style="fill:none;stroke:#000000;stroke-dasharray:1.000000,3.000000;stroke-dashoffset:0.0;stroke-width:0.5;"/>
     </g>
     <g id="line2d_19">
      <g>
       <use style="stroke:#000000;stroke-width:0.5;" x="268.448753608" xlink:href="#me537b9a59d" y="384.0"/>
      </g>
     </g>
     <g id="line2d_20">
      <g>
       <use style="stroke:#000000;stroke-width:0.5;" x="268.448753608" xlink:href="#mafe5694704" y="3.0"/>
      </g>
     </g>
     <g id="text_4">
      <!-- 0 -->
      <defs>
       <path d="M 31.78125 66.40625 
Q 24.171875 66.40625 20.328125 58.90625 
Q 16.5 51.421875 16.5 36.375 
Q 16.5 21.390625 20.328125 13.890625 
Q 24.171875 6.390625 31.78125 6.390625 
Q 39.453125 6.390625 43.28125 13.890625 
Q 47.125 21.390625 47.125 36.375 
Q 47.125 51.421875 43.28125 58.90625 
Q 39.453125 66.40625 31.78125 66.40625 
M 31.78125 74.21875 
Q 44.046875 74.21875 50.515625 64.515625 
Q 56.984375 54.828125 56.984375 36.375 
Q 56.984375 17.96875 50.515625 8.265625 
Q 44.046875 -1.421875 31.78125 -1.421875 
Q 19.53125 -1.421875 13.0625 8.265625 
Q 6.59375 17.96875 6.59375 36.375 
Q 6.59375 54.828125 13.0625 64.515625 
Q 19.53125 74.21875 31.78125 74.21875 
" id="BitstreamVeraSans-Roman-30"/>
      </defs>
      <g transform="translate(262.086253608 403.196875)scale(0.2 -0.2)">
       <use xlink:href="#BitstreamVeraSans-Roman-30"/>
      </g>
     </g>
    </g>
    <g id="xtick_6">
     <g id="line2d_21">
      <path clip-path="url(#pbb76fa96ba)" d="M 334.846808 384 
L 334.846808 3 
" style="fill:none;stroke:#000000;stroke-dasharray:1.000000,3.000000;stroke-dashoffset:0.0;stroke-width:0.5;"/>
     </g>
     <g id="line2d_22">
      <g>
       <use style="stroke:#000000;stroke-width:0.5;" x="334.846808362" xlink:href="#me537b9a59d" y="384.0"/>
      </g>
     </g>
     <g id="line2d_23">
      <g>
       <use style="stroke:#000000;stroke-width:0.5;" x="334.846808362" xlink:href="#mafe5694704" y="3.0"/>
      </g>
     </g>
     <g id="text_5">
      <!-- 2 -->
      <g transform="translate(328.484308362 403.196875)scale(0.2 -0.2)">
       <use xlink:href="#BitstreamVeraSans-Roman-32"/>
      </g>
     </g>
    </g>
    <g id="xtick_7">
     <g id="line2d_24">
      <path clip-path="url(#pbb76fa96ba)" d="M 401.244863 384 
L 401.244863 3 
" style="fill:none;stroke:#000000;stroke-dasharray:1.000000,3.000000;stroke-dashoffset:0.0;stroke-width:0.5;"/>
     </g>
     <g id="line2d_25">
      <g>
       <use style="stroke:#000000;stroke-width:0.5;" x="401.244863116" xlink:href="#me537b9a59d" y="384.0"/>
      </g>
     </g>
     <g id="line2d_26">
      <g>
       <use style="stroke:#000000;stroke-width:0.5;" x="401.244863116" xlink:href="#mafe5694704" y="3.0"/>
      </g>
     </g>
     <g id="text_6">
      <!-- 4 -->
      <g transform="translate(394.882363116 403.196875)scale(0.2 -0.2)">
       <use xlink:href="#BitstreamVeraSans-Roman-34"/>
      </g>
     </g>
    </g>
    <g id="xtick_8">
     <g id="line2d_27">
      <path clip-path="url(#pbb76fa96ba)" d="M 467.642918 384 
L 467.642918 3 
" style="fill:none;stroke:#000000;stroke-dasharray:1.000000,3.000000;stroke-dashoffset:0.0;stroke-width:0.5;"/>
     </g>
     <g id="line2d_28">
      <g>
       <use style="stroke:#000000;stroke-width:0.5;" x="467.642917869" xlink:href="#me537b9a59d" y="384.0"/>
      </g>
     </g>
     <g id="line2d_29">
      <g>
       <use style="stroke:#000000;stroke-width:0.5;" x="467.642917869" xlink:href="#mafe5694704" y="3.0"/>
      </g>
     </g>
     <g id="text_7">
      <!-- 6 -->
      <g transform="translate(461.280417869 403.196875)scale(0.2 -0.2)">
       <use xlink:href="#BitstreamVeraSans-Roman-36"/>
      </g>
     </g>
    </g>
    <g id="xtick_9">
     <g id="line2d_30">
      <path clip-path="url(#pbb76fa96ba)" d="M 534.040973 384 
L 534.040973 3 
" style="fill:none;stroke:#000000;stroke-dasharray:1.000000,3.000000;stroke-dashoffset:0.0;stroke-width:0.5;"/>
     </g>
     <g id="line2d_31">
      <g>
       <use style="stroke:#000000;stroke-width:0.5;" x="534.040972623" xlink:href="#me537b9a59d" y="384.0"/>
      </g>
     </g>
     <g id="line2d_32">
      <g>
       <use style="stroke:#000000;stroke-width:0.5;" x="534.040972623" xlink:href="#mafe5694704" y="3.0"/>
      </g>
     </g>
     <g id="text_8">
      <!-- 8 -->
      <defs>
       <path d="M 31.78125 34.625 
Q 24.75 34.625 20.71875 30.859375 
Q 16.703125 27.09375 16.703125 20.515625 
Q 16.703125 13.921875 20.71875 10.15625 
Q 24.75 6.390625 31.78125 6.390625 
Q 38.8125 6.390625 42.859375 10.171875 
Q 46.921875 13.96875 46.921875 20.515625 
Q 46.921875 27.09375 42.890625 30.859375 
Q 38.875 34.625 31.78125 34.625 
M 21.921875 38.8125 
Q 15.578125 40.375 12.03125 44.71875 
Q 8.5 49.078125 8.5 55.328125 
Q 8.5 64.0625 14.71875 69.140625 
Q 20.953125 74.21875 31.78125 74.21875 
Q 42.671875 74.21875 48.875 69.140625 
Q 55.078125 64.0625 55.078125 55.328125 
Q 55.078125 49.078125 51.53125 44.71875 
Q 48 40.375 41.703125 38.8125 
Q 48.828125 37.15625 52.796875 32.3125 
Q 56.78125 27.484375 56.78125 20.515625 
Q 56.78125 9.90625 50.3125 4.234375 
Q 43.84375 -1.421875 31.78125 -1.421875 
Q 19.734375 -1.421875 13.25 4.234375 
Q 6.78125 9.90625 6.78125 20.515625 
Q 6.78125 27.484375 10.78125 32.3125 
Q 14.796875 37.15625 21.921875 38.8125 
M 18.3125 54.390625 
Q 18.3125 48.734375 21.84375 45.5625 
Q 25.390625 42.390625 31.78125 42.390625 
Q 38.140625 42.390625 41.71875 45.5625 
Q 45.3125 48.734375 45.3125 54.390625 
Q 45.3125 60.0625 41.71875 63.234375 
Q 38.140625 66.40625 31.78125 66.40625 
Q 25.390625 66.40625 21.84375 63.234375 
Q 18.3125 60.0625 18.3125 54.390625 
" id="BitstreamVeraSans-Roman-38"/>
      </defs>
      <g transform="translate(527.678472623 403.196875)scale(0.2 -0.2)">
       <use xlink:href="#BitstreamVeraSans-Roman-38"/>
      </g>
     </g>
    </g>
    <g id="xtick_10"/>
    <g id="xtick_11">
     <g id="line2d_33">
      <defs>
       <path d="M 0 0 
L 0 -2 
" id="m2c4726b2d9" style="stroke:#000000;stroke-width:0.5;"/>
      </defs>
      <g>
       <use style="stroke:#000000;stroke-width:0.5;" x="69.2545893472" xlink:href="#m2c4726b2d9" y="384.0"/>
      </g>
     </g>
     <g id="line2d_34">
      <defs>
       <path d="M 0 0 
L 0 2 
" id="mb474015a3b" style="stroke:#000000;stroke-width:0.5;"/>
      </defs>
      <g>
       <use style="stroke:#000000;stroke-width:0.5;" x="69.2545893472" xlink:href="#mb474015a3b" y="3.0"/>
      </g>
     </g>
    </g>
    <g id="xtick_12">
     <g id="line2d_35">
      <g>
       <use style="stroke:#000000;stroke-width:0.5;" x="135.652644101" xlink:href="#m2c4726b2d9" y="384.0"/>
      </g>
     </g>
     <g id="line2d_36">
      <g>
       <use style="stroke:#000000;stroke-width:0.5;" x="135.652644101" xlink:href="#mb474015a3b" y="3.0"/>
      </g>
     </g>
    </g>
    <g id="xtick_13">
     <g id="line2d_37">
      <g>
       <use style="stroke:#000000;stroke-width:0.5;" x="202.050698855" xlink:href="#m2c4726b2d9" y="384.0"/>
      </g>
     </g>
     <g id="line2d_38">
      <g>
       <use style="stroke:#000000;stroke-width:0.5;" x="202.050698855" xlink:href="#mb474015a3b" y="3.0"/>
      </g>
     </g>
    </g>
    <g id="xtick_14">
     <g id="line2d_39">
      <g>
       <use style="stroke:#000000;stroke-width:0.5;" x="268.448753608" xlink:href="#m2c4726b2d9" y="384.0"/>
      </g>
     </g>
     <g id="line2d_40">
      <g>
       <use style="stroke:#000000;stroke-width:0.5;" x="268.448753608" xlink:href="#mb474015a3b" y="3.0"/>
      </g>
     </g>
    </g>
    <g id="xtick_15">
     <g id="line2d_41">
      <g>
       <use style="stroke:#000000;stroke-width:0.5;" x="334.846808362" xlink:href="#m2c4726b2d9" y="384.0"/>
      </g>
     </g>
     <g id="line2d_42">
      <g>
       <use style="stroke:#000000;stroke-width:0.5;" x="334.846808362" xlink:href="#mb474015a3b" y="3.0"/>
      </g>
     </g>
    </g>
    <g id="xtick_16">
     <g id="line2d_43">
      <g>
       <use style="stroke:#000000;stroke-width:0.5;" x="401.244863116" xlink:href="#m2c4726b2d9" y="384.0"/>
      </g>
     </g>
     <g id="line2d_44">
      <g>
       <use style="stroke:#000000;stroke-width:0.5;" x="401.244863116" xlink:href="#mb474015a3b" y="3.0"/>
      </g>
     </g>
    </g>
    <g id="xtick_17">
     <g id="line2d_45">
      <g>
       <use style="stroke:#000000;stroke-width:0.5;" x="467.642917869" xlink:href="#m2c4726b2d9" y="384.0"/>
      </g>
     </g>
     <g id="line2d_46">
      <g>
       <use style="stroke:#000000;stroke-width:0.5;" x="467.642917869" xlink:href="#mb474015a3b" y="3.0"/>
      </g>
     </g>
    </g>
    <g id="xtick_18">
     <g id="line2d_47">
      <g>
       <use style="stroke:#000000;stroke-width:0.5;" x="534.040972623" xlink:href="#m2c4726b2d9" y="384.0"/>
      </g>
     </g>
     <g id="line2d_48">
      <g>
       <use style="stroke:#000000;stroke-width:0.5;" x="534.040972623" xlink:href="#mb474015a3b" y="3.0"/>
      </g>
     </g>
    </g>
    <g id="text_9">
     <!-- log10 of Df -->
     <defs>
      <path id="BitstreamVeraSans-Roman-20"/>
      <path d="M 12.40625 8.296875 
L 28.515625 8.296875 
L 28.515625 63.921875 
L 10.984375 60.40625 
L 10.984375 69.390625 
L 28.421875 72.90625 
L 38.28125 72.90625 
L 38.28125 8.296875 
L 54.390625 8.296875 
L 54.390625 0 
L 12.40625 0 
z
" id="BitstreamVeraSans-Roman-31"/>
      <path d="M 30.609375 48.390625 
Q 23.390625 48.390625 19.1875 42.75 
Q 14.984375 37.109375 14.984375 27.296875 
Q 14.984375 17.484375 19.15625 11.84375 
Q 23.34375 6.203125 30.609375 6.203125 
Q 37.796875 6.203125 41.984375 11.859375 
Q 46.1875 17.53125 46.1875 27.296875 
Q 46.1875 37.015625 41.984375 42.703125 
Q 37.796875 48.390625 30.609375 48.390625 
M 30.609375 56 
Q 42.328125 56 49.015625 48.375 
Q 55.71875 40.765625 55.71875 27.296875 
Q 55.71875 13.875 49.015625 6.21875 
Q 42.328125 -1.421875 30.609375 -1.421875 
Q 18.84375 -1.421875 12.171875 6.21875 
Q 5.515625 13.875 5.515625 27.296875 
Q 5.515625 40.765625 12.171875 48.375 
Q 18.84375 56 30.609375 56 
" id="BitstreamVeraSans-Roman-6f"/>
      <path d="M 9.421875 75.984375 
L 18.40625 75.984375 
L 18.40625 0 
L 9.421875 0 
z
" id="BitstreamVeraSans-Roman-6c"/>
      <path d="M 19.671875 64.796875 
L 19.671875 8.109375 
L 31.59375 8.109375 
Q 46.6875 8.109375 53.6875 14.9375 
Q 60.6875 21.78125 60.6875 36.53125 
Q 60.6875 51.171875 53.6875 57.984375 
Q 46.6875 64.796875 31.59375 64.796875 
z
M 9.8125 72.90625 
L 30.078125 72.90625 
Q 51.265625 72.90625 61.171875 64.09375 
Q 71.09375 55.28125 71.09375 36.53125 
Q 71.09375 17.671875 61.125 8.828125 
Q 51.171875 0 30.078125 0 
L 9.8125 0 
z
" id="BitstreamVeraSans-Roman-44"/>
      <path d="M 45.40625 27.984375 
Q 45.40625 37.75 41.375 43.109375 
Q 37.359375 48.484375 30.078125 48.484375 
Q 22.859375 48.484375 18.828125 43.109375 
Q 14.796875 37.75 14.796875 27.984375 
Q 14.796875 18.265625 18.828125 12.890625 
Q 22.859375 7.515625 30.078125 7.515625 
Q 37.359375 7.515625 41.375 12.890625 
Q 45.40625 18.265625 45.40625 27.984375 
M 54.390625 6.78125 
Q 54.390625 -7.171875 48.1875 -13.984375 
Q 42 -20.796875 29.203125 -20.796875 
Q 24.46875 -20.796875 20.265625 -20.09375 
Q 16.0625 -19.390625 12.109375 -17.921875 
L 12.109375 -9.1875 
Q 16.0625 -11.328125 19.921875 -12.34375 
Q 23.78125 -13.375 27.78125 -13.375 
Q 36.625 -13.375 41.015625 -8.765625 
Q 45.40625 -4.15625 45.40625 5.171875 
L 45.40625 9.625 
Q 42.625 4.78125 38.28125 2.390625 
Q 33.9375 0 27.875 0 
Q 17.828125 0 11.671875 7.65625 
Q 5.515625 15.328125 5.515625 27.984375 
Q 5.515625 40.671875 11.671875 48.328125 
Q 17.828125 56 27.875 56 
Q 33.9375 56 38.28125 53.609375 
Q 42.625 51.21875 45.40625 46.390625 
L 45.40625 54.6875 
L 54.390625 54.6875 
z
" id="BitstreamVeraSans-Roman-67"/>
      <path d="M 37.109375 75.984375 
L 37.109375 68.5 
L 28.515625 68.5 
Q 23.6875 68.5 21.796875 66.546875 
Q 19.921875 64.59375 19.921875 59.515625 
L 19.921875 54.6875 
L 34.71875 54.6875 
L 34.71875 47.703125 
L 19.921875 47.703125 
L 19.921875 0 
L 10.890625 0 
L 10.890625 47.703125 
L 2.296875 47.703125 
L 2.296875 54.6875 
L 10.890625 54.6875 
L 10.890625 58.5 
Q 10.890625 67.625 15.140625 71.796875 
Q 19.390625 75.984375 28.609375 75.984375 
z
" id="BitstreamVeraSans-Roman-66"/>
     </defs>
     <g transform="translate(229.9340625 427.553125)scale(0.2 -0.2)">
      <use xlink:href="#BitstreamVeraSans-Roman-6c"/>
      <use x="27.783203125" xlink:href="#BitstreamVeraSans-Roman-6f"/>
      <use x="88.96484375" xlink:href="#BitstreamVeraSans-Roman-67"/>
      <use x="152.44140625" xlink:href="#BitstreamVeraSans-Roman-31"/>
      <use x="216.064453125" xlink:href="#BitstreamVeraSans-Roman-30"/>
      <use x="279.6875" xlink:href="#BitstreamVeraSans-Roman-20"/>
      <use x="311.474609375" xlink:href="#BitstreamVeraSans-Roman-6f"/>
      <use x="372.65625" xlink:href="#BitstreamVeraSans-Roman-66"/>
      <use x="407.861328125" xlink:href="#BitstreamVeraSans-Roman-20"/>
      <use x="439.6484375" xlink:href="#BitstreamVeraSans-Roman-44"/>
      <use x="516.650390625" xlink:href="#BitstreamVeraSans-Roman-66"/>
     </g>
    </g>
   </g>
   <g id="matplotlib.axis_2">
    <g id="ytick_1">
     <g id="line2d_49">
      <path clip-path="url(#pbb76fa96ba)" d="M 3 384 
L 567.24 384 
" style="fill:none;stroke:#000000;stroke-dasharray:1.000000,3.000000;stroke-dashoffset:0.0;stroke-width:0.5;"/>
     </g>
     <g id="line2d_50">
      <defs>
       <path d="M 0 0 
L 4 0 
" id="m611eee67e5" style="stroke:#000000;stroke-width:0.5;"/>
      </defs>
      <g>
       <use style="stroke:#000000;stroke-width:0.5;" x="3.0" xlink:href="#m611eee67e5" y="384.0"/>
      </g>
     </g>
     <g id="line2d_51">
      <defs>
       <path d="M 0 0 
L -4 0 
" id="m4e28990915" style="stroke:#000000;stroke-width:0.5;"/>
      </defs>
      <g>
       <use style="stroke:#000000;stroke-width:0.5;" x="567.24" xlink:href="#m4e28990915" y="384.0"/>
      </g>
     </g>
    </g>
    <g id="ytick_2">
     <g id="line2d_52">
      <path clip-path="url(#pbb76fa96ba)" d="M 3 308.554455 
L 567.24 308.554455 
" style="fill:none;stroke:#000000;stroke-dasharray:1.000000,3.000000;stroke-dashoffset:0.0;stroke-width:0.5;"/>
     </g>
     <g id="line2d_53">
      <g>
       <use style="stroke:#000000;stroke-width:0.5;" x="3.0" xlink:href="#m611eee67e5" y="308.554455446"/>
      </g>
     </g>
     <g id="line2d_54">
      <g>
       <use style="stroke:#000000;stroke-width:0.5;" x="567.24" xlink:href="#m4e28990915" y="308.554455446"/>
      </g>
     </g>
    </g>
    <g id="ytick_3">
     <g id="line2d_55">
      <path clip-path="url(#pbb76fa96ba)" d="M 3 233.108911 
L 567.24 233.108911 
" style="fill:none;stroke:#000000;stroke-dasharray:1.000000,3.000000;stroke-dashoffset:0.0;stroke-width:0.5;"/>
     </g>
     <g id="line2d_56">
      <g>
       <use style="stroke:#000000;stroke-width:0.5;" x="3.0" xlink:href="#m611eee67e5" y="233.108910891"/>
      </g>
     </g>
     <g id="line2d_57">
      <g>
       <use style="stroke:#000000;stroke-width:0.5;" x="567.24" xlink:href="#m4e28990915" y="233.108910891"/>
      </g>
     </g>
    </g>
    <g id="ytick_4">
     <g id="line2d_58">
      <path clip-path="url(#pbb76fa96ba)" d="M 3 157.663366 
L 567.24 157.663366 
" style="fill:none;stroke:#000000;stroke-dasharray:1.000000,3.000000;stroke-dashoffset:0.0;stroke-width:0.5;"/>
     </g>
     <g id="line2d_59">
      <g>
       <use style="stroke:#000000;stroke-width:0.5;" x="3.0" xlink:href="#m611eee67e5" y="157.663366337"/>
      </g>
     </g>
     <g id="line2d_60">
      <g>
       <use style="stroke:#000000;stroke-width:0.5;" x="567.24" xlink:href="#m4e28990915" y="157.663366337"/>
      </g>
     </g>
    </g>
    <g id="ytick_5">
     <g id="line2d_61">
      <path clip-path="url(#pbb76fa96ba)" d="M 3 82.217822 
L 567.24 82.217822 
" style="fill:none;stroke:#000000;stroke-dasharray:1.000000,3.000000;stroke-dashoffset:0.0;stroke-width:0.5;"/>
     </g>
     <g id="line2d_62">
      <g>
       <use style="stroke:#000000;stroke-width:0.5;" x="3.0" xlink:href="#m611eee67e5" y="82.2178217822"/>
      </g>
     </g>
     <g id="line2d_63">
      <g>
       <use style="stroke:#000000;stroke-width:0.5;" x="567.24" xlink:href="#m4e28990915" y="82.2178217822"/>
      </g>
     </g>
    </g>
    <g id="ytick_6">
     <g id="line2d_64">
      <path clip-path="url(#pbb76fa96ba)" d="M 3 6.772277 
L 567.24 6.772277 
" style="fill:none;stroke:#000000;stroke-dasharray:1.000000,3.000000;stroke-dashoffset:0.0;stroke-width:0.5;"/>
     </g>
     <g id="line2d_65">
      <g>
       <use style="stroke:#000000;stroke-width:0.5;" x="3.0" xlink:href="#m611eee67e5" y="6.77227722772"/>
      </g>
     </g>
     <g id="line2d_66">
      <g>
       <use style="stroke:#000000;stroke-width:0.5;" x="567.24" xlink:href="#m4e28990915" y="6.77227722772"/>
      </g>
     </g>
    </g>
   </g>
   <g id="text_10">
    <!-- {f6-f9}, 20-D -->
    <defs>
     <path d="M 12.5 -9.28125 
L 15.921875 -9.28125 
Q 22.75 -9.28125 24.828125 -7.171875 
Q 26.90625 -5.078125 26.90625 1.90625 
L 26.90625 14.015625 
Q 26.90625 21.625 29.09375 25.09375 
Q 31.296875 28.5625 36.71875 29.890625 
Q 31.296875 31.109375 29.09375 34.5625 
Q 26.90625 38.03125 26.90625 45.703125 
L 26.90625 57.8125 
Q 26.90625 64.75 24.828125 66.875 
Q 22.75 69 15.921875 69 
L 12.5 69 
L 12.5 75.984375 
L 15.578125 75.984375 
Q 27.734375 75.984375 31.8125 72.390625 
Q 35.890625 68.796875 35.890625 58.015625 
L 35.890625 46.296875 
Q 35.890625 39.015625 38.515625 36.203125 
Q 41.15625 33.40625 48.09375 33.40625 
L 51.125 33.40625 
L 51.125 26.421875 
L 48.09375 26.421875 
Q 41.15625 26.421875 38.515625 23.578125 
Q 35.890625 20.75 35.890625 13.375 
L 35.890625 1.703125 
Q 35.890625 -9.078125 31.8125 -12.6875 
Q 27.734375 -16.3125 15.578125 -16.3125 
L 12.5 -16.3125 
z
" id="BitstreamVeraSans-Roman-7d"/>
     <path d="M 10.984375 1.515625 
L 10.984375 10.5 
Q 14.703125 8.734375 18.5 7.8125 
Q 22.3125 6.890625 25.984375 6.890625 
Q 35.75 6.890625 40.890625 13.453125 
Q 46.046875 20.015625 46.78125 33.40625 
Q 43.953125 29.203125 39.59375 26.953125 
Q 35.25 24.703125 29.984375 24.703125 
Q 19.046875 24.703125 12.671875 31.3125 
Q 6.296875 37.9375 6.296875 49.421875 
Q 6.296875 60.640625 12.9375 67.421875 
Q 19.578125 74.21875 30.609375 74.21875 
Q 43.265625 74.21875 49.921875 64.515625 
Q 56.59375 54.828125 56.59375 36.375 
Q 56.59375 19.140625 48.40625 8.859375 
Q 40.234375 -1.421875 26.421875 -1.421875 
Q 22.703125 -1.421875 18.890625 -0.6875 
Q 15.09375 0.046875 10.984375 1.515625 
M 30.609375 32.421875 
Q 37.25 32.421875 41.125 36.953125 
Q 45.015625 41.5 45.015625 49.421875 
Q 45.015625 57.28125 41.125 61.84375 
Q 37.25 66.40625 30.609375 66.40625 
Q 23.96875 66.40625 20.09375 61.84375 
Q 16.21875 57.28125 16.21875 49.421875 
Q 16.21875 41.5 20.09375 36.953125 
Q 23.96875 32.421875 30.609375 32.421875 
" id="BitstreamVeraSans-Roman-39"/>
     <path d="M 51.125 -9.28125 
L 51.125 -16.3125 
L 48.09375 -16.3125 
Q 35.9375 -16.3125 31.8125 -12.6875 
Q 27.6875 -9.078125 27.6875 1.703125 
L 27.6875 13.375 
Q 27.6875 20.75 25.046875 23.578125 
Q 22.40625 26.421875 15.484375 26.421875 
L 12.5 26.421875 
L 12.5 33.40625 
L 15.484375 33.40625 
Q 22.46875 33.40625 25.078125 36.203125 
Q 27.6875 39.015625 27.6875 46.296875 
L 27.6875 58.015625 
Q 27.6875 68.796875 31.8125 72.390625 
Q 35.9375 75.984375 48.09375 75.984375 
L 51.125 75.984375 
L 51.125 69 
L 47.796875 69 
Q 40.921875 69 38.8125 66.84375 
Q 36.71875 64.703125 36.71875 57.8125 
L 36.71875 45.703125 
Q 36.71875 38.03125 34.5 34.5625 
Q 32.28125 31.109375 26.90625 29.890625 
Q 32.328125 28.5625 34.515625 25.09375 
Q 36.71875 21.625 36.71875 14.015625 
L 36.71875 1.90625 
Q 36.71875 -4.984375 38.8125 -7.125 
Q 40.921875 -9.28125 47.796875 -9.28125 
z
" id="BitstreamVeraSans-Roman-7b"/>
     <path d="M 11.71875 12.40625 
L 22.015625 12.40625 
L 22.015625 4 
L 14.015625 -11.625 
L 7.71875 -11.625 
L 11.71875 4 
z
" id="BitstreamVeraSans-Roman-2c"/>
    </defs>
    <g transform="translate(422.9802 376.38)scale(0.2 -0.2)">
     <use xlink:href="#BitstreamVeraSans-Roman-7b"/>
     <use x="63.623046875" xlink:href="#BitstreamVeraSans-Roman-66"/>
     <use x="98.828125" xlink:href="#BitstreamVeraSans-Roman-36"/>
     <use x="162.451171875" xlink:href="#BitstreamVeraSans-Roman-2d"/>
     <use x="198.53515625" xlink:href="#BitstreamVeraSans-Roman-66"/>
     <use x="233.740234375" xlink:href="#BitstreamVeraSans-Roman-39"/>
     <use x="297.36328125" xlink:href="#BitstreamVeraSans-Roman-7d"/>
     <use x="360.986328125" xlink:href="#BitstreamVeraSans-Roman-2c"/>
     <use x="392.7734375" xlink:href="#BitstreamVeraSans-Roman-20"/>
     <use x="424.560546875" xlink:href="#BitstreamVeraSans-Roman-32"/>
     <use x="488.18359375" xlink:href="#BitstreamVeraSans-Roman-30"/>
     <use x="551.806640625" xlink:href="#BitstreamVeraSans-Roman-2d"/>
     <use x="587.890625" xlink:href="#BitstreamVeraSans-Roman-44"/>
    </g>
   </g>
   <g id="text_11">
    <!-- v2.2.1.10 -->
    <defs>
     <path d="M 2.984375 54.6875 
L 12.5 54.6875 
L 29.59375 8.796875 
L 46.6875 54.6875 
L 56.203125 54.6875 
L 35.6875 0 
L 23.484375 0 
z
" id="BitstreamVeraSans-Roman-76"/>
     <path d="M 10.6875 12.40625 
L 21 12.40625 
L 21 0 
L 10.6875 0 
z
" id="BitstreamVeraSans-Roman-2e"/>
    </defs>
    <g style="fill:#808080;" transform="translate(261.4871875 378.1103125)scale(0.1 -0.1)">
     <use xlink:href="#BitstreamVeraSans-Roman-76"/>
     <use x="59.1796875" xlink:href="#BitstreamVeraSans-Roman-32"/>
     <use x="122.802734375" xlink:href="#BitstreamVeraSans-Roman-2e"/>
     <use x="154.58984375" xlink:href="#BitstreamVeraSans-Roman-32"/>
     <use x="218.212890625" xlink:href="#BitstreamVeraSans-Roman-2e"/>
     <use x="250.0" xlink:href="#BitstreamVeraSans-Roman-31"/>
     <use x="313.623046875" xlink:href="#BitstreamVeraSans-Roman-2e"/>
     <use x="345.41015625" xlink:href="#BitstreamVeraSans-Roman-31"/>
     <use x="409.033203125" xlink:href="#BitstreamVeraSans-Roman-30"/>
    </g>
   </g>
  </g>
 </g>
 <defs>
  <clipPath id="pbb76fa96ba">
   <rect height="381.0" width="564.24" x="3.0" y="3.0"/>
  </clipPath>
 </defs>
</svg>
