<?xml version="1.0" encoding="utf-8" standalone="no"?>
<!DOCTYPE svg PUBLIC "-//W3C//DTD SVG 1.1//EN"
  "http://www.w3.org/Graphics/SVG/1.1/DTD/svg11.dtd">
<!-- Created with matplotlib (http://matplotlib.org/) -->
<svg height="432pt" version="1.1" viewBox="0 0 576 432" width="576pt" xmlns="http://www.w3.org/2000/svg" xmlns:xlink="http://www.w3.org/1999/xlink">
 <defs>
  <style type="text/css">
*{stroke-linecap:butt;stroke-linejoin:round;stroke-miterlimit:100000;}
  </style>
 </defs>
 <g id="figure_1">
  <g id="patch_1">
   <path d="M 0 432 
L 576 432 
L 576 0 
L 0 0 
z
" style="fill:#ffffff;"/>
  </g>
  <g id="axes_1">
   <g id="patch_2">
    <path d="M 3 384 
L 567.24 384 
L 567.24 3 
L 3 3 
z
" style="fill:#ffffff;"/>
   </g>
   <g id="line2d_1">
    <path clip-path="url(#p43c2c90982)" d="M 271.07419 384 
L 271.07419 377.712871 
L 272.561307 377.712871 
L 272.561307 371.425743 
L 276.259214 371.425743 
L 276.259214 365.138614 
L 276.600382 365.138614 
L 276.600382 358.851485 
L 276.809035 358.851485 
L 276.809035 352.564356 
L 277.751361 352.564356 
L 277.751361 346.277228 
L 279.135237 346.277228 
L 279.135237 339.990099 
L 279.86931 339.990099 
L 279.86931 333.70297 
L 280.843172 333.70297 
L 280.843172 327.415842 
L 282.784637 327.415842 
L 282.784637 321.128713 
L 283.54838 321.128713 
L 283.54838 314.841584 
L 284.270819 314.841584 
L 284.270819 308.554455 
L 284.631484 308.554455 
L 284.631484 302.267327 
L 285.061703 302.267327 
L 285.061703 295.980198 
L 285.546538 295.980198 
L 285.546538 289.693069 
L 285.640173 289.693069 
L 285.640173 283.405941 
L 286.207029 283.405941 
L 286.207029 277.118812 
L 286.92911 277.118812 
L 286.92911 270.831683 
L 287.623173 270.831683 
L 287.623173 264.544554 
L 287.933686 264.544554 
L 287.933686 258.257426 
L 288.193617 258.257426 
L 288.193617 251.970297 
L 288.624936 251.970297 
L 288.624936 245.683168 
L 288.717195 245.683168 
L 288.717195 239.39604 
L 290.093726 239.39604 
L 290.093726 233.108911 
L 290.85869 233.108911 
L 290.85869 226.821782 
L 291.125932 226.821782 
L 291.125932 220.534653 
L 291.478338 220.534653 
L 291.478338 214.247525 
L 291.552429 214.247525 
L 291.552429 207.960396 
L 291.763412 207.960396 
L 291.763412 201.673267 
L 292.72426 201.673267 
L 292.72426 195.386139 
L 292.808299 195.386139 
L 292.808299 189.09901 
L 293.102235 189.09901 
L 293.102235 182.811881 
L 293.155967 182.811881 
L 293.155967 176.524752 
L 293.42219 176.524752 
L 293.42219 170.237624 
L 293.848851 170.237624 
L 293.848851 163.950495 
L 294.379057 163.950495 
L 294.379057 157.663366 
L 294.445516 157.663366 
L 294.445516 151.376238 
L 294.747282 151.376238 
L 294.747282 145.089109 
L 294.775171 145.089109 
L 294.775171 138.80198 
L 294.862079 138.80198 
L 294.862079 132.514851 
L 294.902054 132.514851 
L 294.902054 126.227723 
L 295.588445 126.227723 
L 295.588445 119.940594 
L 296.197432 119.940594 
L 296.197432 113.653465 
L 296.264304 113.653465 
L 296.264304 107.366337 
L 297.308435 107.366337 
L 297.308435 101.079208 
L 297.723281 101.079208 
L 297.723281 94.792079 
L 297.997662 94.792079 
L 297.997662 88.50495 
L 300.106441 88.50495 
L 300.106441 82.217822 
L 300.596169 82.217822 
L 300.596169 75.930693 
L 301.826146 75.930693 
L 301.826146 69.643564 
L 303.160715 69.643564 
L 303.160715 63.356436 
L 304.118811 63.356436 
L 304.118811 57.069307 
L 304.261748 57.069307 
L 304.261748 50.782178 
L 304.739885 50.782178 
L 304.739885 44.49505 
L 304.886096 44.49505 
L 304.886096 38.207921 
L 306.53533 38.207921 
L 306.53533 31.920792 
L 307.662289 31.920792 
L 307.662289 25.633663 
L 310.669032 25.633663 
L 310.669032 19.346535 
L 311.004257 19.346535 
L 311.004257 13.059406 
L 314.146166 13.059406 
L 314.146166 6.772277 
L 314.146166 6.772277 
L 314.146166 6.772277 
L 567.24 6.772277 
" style="fill:none;stroke:#ff0000;stroke-linecap:square;stroke-width:3.0;"/>
   </g>
   <g id="line2d_2">
    <path clip-path="url(#p43c2c90982)" d="M 305.557728 384 
L 305.557728 377.712871 
L 309.991739 377.712871 
L 309.991739 371.425743 
L 315.424493 371.425743 
L 315.424493 365.138614 
L 315.424493 365.138614 
L 315.424493 358.851485 
L 315.424493 358.851485 
L 315.424493 352.564356 
L 315.424493 352.564356 
L 315.424493 346.277228 
L 315.424493 346.277228 
L 315.424493 339.990099 
L 315.424493 339.990099 
L 315.424493 333.70297 
L 315.424493 333.70297 
L 315.424493 327.415842 
L 315.424493 327.415842 
L 315.424493 321.128713 
L 315.424493 321.128713 
L 315.424493 314.841584 
L 315.424493 314.841584 
L 315.424493 308.554455 
L 315.424493 308.554455 
L 315.424493 302.267327 
L 315.424493 302.267327 
L 315.424493 295.980198 
L 315.424493 295.980198 
L 315.424493 289.693069 
L 315.424493 289.693069 
L 315.424493 283.405941 
L 315.424493 283.405941 
L 315.424493 277.118812 
L 318.724258 277.118812 
L 318.724258 270.831683 
L 321.712264 270.831683 
L 321.712264 264.544554 
L 323.520268 264.544554 
L 323.520268 258.257426 
L 330.886288 258.257426 
L 330.886288 251.970297 
L 332.289104 251.970297 
L 332.289104 245.683168 
L 336.903264 245.683168 
L 336.903264 239.39604 
L 340.816599 239.39604 
L 340.816599 233.108911 
L 341.178937 233.108911 
L 341.178937 226.821782 
L 343.008287 226.821782 
L 343.008287 220.534653 
L 343.648051 220.534653 
L 343.648051 214.247525 
L 344.924295 214.247525 
L 344.924295 207.960396 
L 345.897892 207.960396 
L 345.897892 201.673267 
L 349.727859 201.673267 
L 349.727859 195.386139 
L 356.988685 195.386139 
L 356.988685 189.09901 
L 365.868154 189.09901 
L 365.868154 182.811881 
L 372.125653 182.811881 
L 372.125653 176.524752 
L 381.690101 176.524752 
L 381.690101 170.237624 
L 387.720286 170.237624 
L 387.720286 163.950495 
L 388.733672 163.950495 
L 388.733672 157.663366 
L 391.445516 157.663366 
L 391.445516 151.376238 
L 391.667693 151.376238 
L 391.667693 145.089109 
L 394.219929 145.089109 
L 394.219929 138.80198 
L 397.235031 138.80198 
L 397.235031 132.514851 
L 403.222055 132.514851 
L 403.222055 126.227723 
L 404.728806 126.227723 
L 404.728806 119.940594 
L 406.588107 119.940594 
L 406.588107 113.653465 
L 407.723203 113.653465 
L 407.723203 107.366337 
L 408.246681 107.366337 
L 408.246681 101.079208 
L 409.792821 101.079208 
L 409.792821 94.792079 
L 413.999867 94.792079 
L 413.999867 88.50495 
L 422.589538 88.50495 
L 422.589538 82.217822 
L 423.318568 82.217822 
L 423.318568 75.930693 
L 425.841476 75.930693 
L 425.841476 69.643564 
L 427.908037 69.643564 
L 427.908037 63.356436 
L 428.07227 63.356436 
L 428.07227 57.069307 
L 431.098939 57.069307 
L 431.098939 50.782178 
L 433.584524 50.782178 
L 433.584524 44.49505 
L 436.191934 44.49505 
L 436.191934 38.207921 
L 441.352124 38.207921 
L 441.352124 31.920792 
L 442.363398 31.920792 
L 442.363398 25.633663 
L 443.69627 25.633663 
L 443.69627 19.346535 
L 449.792027 19.346535 
L 449.792027 13.059406 
L 459.755728 13.059406 
L 459.755728 6.772277 
L 459.755728 6.772277 
L 459.755728 6.772277 
L 567.24 6.772277 
" style="fill:none;stroke:#00bfbf;stroke-linecap:square;"/>
   </g>
   <g id="line2d_3">
    <path clip-path="url(#p43c2c90982)" d="M 305.557728 384 
L 305.557728 377.712871 
L 309.991739 377.712871 
L 309.991739 371.425743 
L 310.549347 371.425743 
L 310.549347 365.138614 
L 315.424493 365.138614 
L 315.424493 358.851485 
L 315.424493 358.851485 
L 315.424493 352.564356 
L 315.424493 352.564356 
L 315.424493 346.277228 
L 315.424493 346.277228 
L 315.424493 339.990099 
L 315.424493 339.990099 
L 315.424493 333.70297 
L 315.424493 333.70297 
L 315.424493 327.415842 
L 315.424493 327.415842 
L 315.424493 321.128713 
L 315.424493 321.128713 
L 315.424493 314.841584 
L 315.424493 314.841584 
L 315.424493 308.554455 
L 315.424493 308.554455 
L 315.424493 302.267327 
L 315.424493 302.267327 
L 315.424493 295.980198 
L 315.424493 295.980198 
L 315.424493 289.693069 
L 315.424493 289.693069 
L 315.424493 283.405941 
L 315.424493 283.405941 
L 315.424493 277.118812 
L 315.424493 277.118812 
L 315.424493 270.831683 
L 318.724258 270.831683 
L 318.724258 264.544554 
L 321.712264 264.544554 
L 321.712264 258.257426 
L 323.364466 258.257426 
L 323.364466 251.970297 
L 323.520268 251.970297 
L 323.520268 245.683168 
L 330.305151 245.683168 
L 330.305151 239.39604 
L 330.886288 239.39604 
L 330.886288 233.108911 
L 332.289104 233.108911 
L 332.289104 226.821782 
L 336.903264 226.821782 
L 336.903264 220.534653 
L 338.46419 220.534653 
L 338.46419 214.247525 
L 341.178937 214.247525 
L 341.178937 207.960396 
L 343.648051 207.960396 
L 343.648051 201.673267 
L 345.753707 201.673267 
L 345.753707 195.386139 
L 349.807632 195.386139 
L 349.807632 189.09901 
L 365.868154 189.09901 
L 365.868154 182.811881 
L 372.125653 182.811881 
L 372.125653 176.524752 
L 381.690101 176.524752 
L 381.690101 170.237624 
L 387.720286 170.237624 
L 387.720286 163.950495 
L 388.733672 163.950495 
L 388.733672 157.663366 
L 391.445516 157.663366 
L 391.445516 151.376238 
L 391.667693 151.376238 
L 391.667693 145.089109 
L 394.219929 145.089109 
L 394.219929 138.80198 
L 397.235031 138.80198 
L 397.235031 132.514851 
L 397.665163 132.514851 
L 397.665163 126.227723 
L 398.947704 126.227723 
L 398.947704 119.940594 
L 401.204014 119.940594 
L 401.204014 113.653465 
L 403.222055 113.653465 
L 403.222055 107.366337 
L 404.728806 107.366337 
L 404.728806 101.079208 
L 405.965177 101.079208 
L 405.965177 94.792079 
L 407.723203 94.792079 
L 407.723203 88.50495 
L 407.914689 88.50495 
L 407.914689 82.217822 
L 413.641454 82.217822 
L 413.641454 75.930693 
L 413.999867 75.930693 
L 413.999867 69.643564 
L 419.192327 69.643564 
L 419.192327 63.356436 
L 423.318568 63.356436 
L 423.318568 57.069307 
L 425.197055 57.069307 
L 425.197055 50.782178 
L 425.841476 50.782178 
L 425.841476 44.49505 
L 428.07227 44.49505 
L 428.07227 38.207921 
L 431.098939 38.207921 
L 431.098939 31.920792 
L 441.352124 31.920792 
L 441.352124 25.633663 
L 443.69627 25.633663 
L 443.69627 19.346535 
L 449.736941 19.346535 
L 449.736941 13.059406 
L 459.727871 13.059406 
L 459.727871 6.772277 
L 459.727871 6.772277 
L 459.727871 6.772277 
L 567.24 6.772277 
" style="fill:none;stroke:#bf00bf;stroke-linecap:square;"/>
   </g>
   <g id="line2d_4">
    <path clip-path="url(#p43c2c90982)" d="M 304.691032 384 
L 304.691032 377.712871 
L 305.557728 377.712871 
L 305.557728 371.425743 
L 309.991739 371.425743 
L 309.991739 365.138614 
L 310.549347 365.138614 
L 310.549347 358.851485 
L 315.232691 358.851485 
L 315.232691 352.564356 
L 315.424493 352.564356 
L 315.424493 346.277228 
L 315.424493 346.277228 
L 315.424493 339.990099 
L 315.424493 339.990099 
L 315.424493 333.70297 
L 315.424493 333.70297 
L 315.424493 327.415842 
L 315.424493 327.415842 
L 315.424493 321.128713 
L 315.424493 321.128713 
L 315.424493 314.841584 
L 315.424493 314.841584 
L 315.424493 308.554455 
L 315.424493 308.554455 
L 315.424493 302.267327 
L 315.424493 302.267327 
L 315.424493 295.980198 
L 315.424493 295.980198 
L 315.424493 289.693069 
L 315.424493 289.693069 
L 315.424493 283.405941 
L 315.424493 283.405941 
L 315.424493 277.118812 
L 315.424493 277.118812 
L 315.424493 270.831683 
L 315.424493 270.831683 
L 315.424493 264.544554 
L 315.424493 264.544554 
L 315.424493 258.257426 
L 319.765805 258.257426 
L 319.765805 251.970297 
L 321.712264 251.970297 
L 321.712264 245.683168 
L 323.364466 245.683168 
L 323.364466 239.39604 
L 323.520268 239.39604 
L 323.520268 233.108911 
L 328.664709 233.108911 
L 328.664709 226.821782 
L 330.886288 226.821782 
L 330.886288 220.534653 
L 331.217903 220.534653 
L 331.217903 214.247525 
L 332.289104 214.247525 
L 332.289104 207.960396 
L 333.379429 207.960396 
L 333.379429 201.673267 
L 334.452404 201.673267 
L 334.452404 195.386139 
L 336.912092 195.386139 
L 336.912092 189.09901 
L 338.46419 189.09901 
L 338.46419 182.811881 
L 338.698658 182.811881 
L 338.698658 176.524752 
L 341.70881 176.524752 
L 341.70881 170.237624 
L 354.542926 170.237624 
L 354.542926 163.950495 
L 361.933154 163.950495 
L 361.933154 157.663366 
L 372.125653 157.663366 
L 372.125653 151.376238 
L 374.034738 151.376238 
L 374.034738 145.089109 
L 381.690101 145.089109 
L 381.690101 138.80198 
L 387.720286 138.80198 
L 387.720286 132.514851 
L 388.733672 132.514851 
L 388.733672 126.227723 
L 390.199849 126.227723 
L 390.199849 119.940594 
L 391.445516 119.940594 
L 391.445516 113.653465 
L 391.667693 113.653465 
L 391.667693 107.366337 
L 394.219929 107.366337 
L 394.219929 101.079208 
L 397.235031 101.079208 
L 397.235031 94.792079 
L 397.665163 94.792079 
L 397.665163 88.50495 
L 399.76537 88.50495 
L 399.76537 82.217822 
L 401.204014 82.217822 
L 401.204014 75.930693 
L 404.728806 75.930693 
L 404.728806 69.643564 
L 407.714608 69.643564 
L 407.714608 63.356436 
L 407.914689 63.356436 
L 407.914689 57.069307 
L 411.905445 57.069307 
L 411.905445 50.782178 
L 412.807288 50.782178 
L 412.807288 44.49505 
L 413.641454 44.49505 
L 413.641454 38.207921 
L 427.619961 38.207921 
L 427.619961 31.920792 
L 428.07227 31.920792 
L 428.07227 25.633663 
L 431.950293 25.633663 
L 431.950293 19.346535 
L 437.321638 19.346535 
L 437.321638 13.059406 
L 443.69627 13.059406 
L 443.69627 6.772277 
L 443.69627 6.772277 
L 443.69627 6.772277 
L 567.24 6.772277 
" style="fill:none;stroke:#000000;stroke-linecap:square;"/>
   </g>
   <g id="line2d_5">
    <path clip-path="url(#p43c2c90982)" d="M 304.691032 384 
L 304.691032 377.712871 
L 305.557728 377.712871 
L 305.557728 371.425743 
L 309.991739 371.425743 
L 309.991739 365.138614 
L 310.488707 365.138614 
L 310.488707 358.851485 
L 315.232691 358.851485 
L 315.232691 352.564356 
L 315.424493 352.564356 
L 315.424493 346.277228 
L 315.424493 346.277228 
L 315.424493 339.990099 
L 315.424493 339.990099 
L 315.424493 333.70297 
L 315.424493 333.70297 
L 315.424493 327.415842 
L 315.424493 327.415842 
L 315.424493 321.128713 
L 315.424493 321.128713 
L 315.424493 314.841584 
L 315.424493 314.841584 
L 315.424493 308.554455 
L 315.424493 308.554455 
L 315.424493 302.267327 
L 315.424493 302.267327 
L 315.424493 295.980198 
L 315.424493 295.980198 
L 315.424493 289.693069 
L 315.424493 289.693069 
L 315.424493 283.405941 
L 315.424493 283.405941 
L 315.424493 277.118812 
L 315.424493 277.118812 
L 315.424493 270.831683 
L 315.424493 270.831683 
L 315.424493 264.544554 
L 315.424493 264.544554 
L 315.424493 258.257426 
L 319.765805 258.257426 
L 319.765805 251.970297 
L 321.712264 251.970297 
L 321.712264 245.683168 
L 323.364466 245.683168 
L 323.364466 239.39604 
L 323.520268 239.39604 
L 323.520268 233.108911 
L 327.342516 233.108911 
L 327.342516 226.821782 
L 328.664709 226.821782 
L 328.664709 220.534653 
L 329.953863 220.534653 
L 329.953863 214.247525 
L 330.886288 214.247525 
L 330.886288 207.960396 
L 331.038851 207.960396 
L 331.038851 201.673267 
L 333.379429 201.673267 
L 333.379429 195.386139 
L 333.936174 195.386139 
L 333.936174 189.09901 
L 336.912092 189.09901 
L 336.912092 182.811881 
L 338.698658 182.811881 
L 338.698658 176.524752 
L 341.70881 176.524752 
L 341.70881 170.237624 
L 354.542926 170.237624 
L 354.542926 163.950495 
L 361.933154 163.950495 
L 361.933154 157.663366 
L 372.125653 157.663366 
L 372.125653 151.376238 
L 374.034738 151.376238 
L 374.034738 145.089109 
L 376.229319 145.089109 
L 376.229319 138.80198 
L 381.690101 138.80198 
L 381.690101 132.514851 
L 387.720286 132.514851 
L 387.720286 126.227723 
L 388.733672 126.227723 
L 388.733672 119.940594 
L 390.199849 119.940594 
L 390.199849 113.653465 
L 391.445516 113.653465 
L 391.445516 107.366337 
L 391.667693 107.366337 
L 391.667693 101.079208 
L 394.219929 101.079208 
L 394.219929 94.792079 
L 397.235031 94.792079 
L 397.235031 88.50495 
L 397.665163 88.50495 
L 397.665163 82.217822 
L 399.76537 82.217822 
L 399.76537 75.930693 
L 401.204014 75.930693 
L 401.204014 69.643564 
L 404.728806 69.643564 
L 404.728806 63.356436 
L 407.714608 63.356436 
L 407.714608 57.069307 
L 407.914689 57.069307 
L 407.914689 50.782178 
L 410.616191 50.782178 
L 410.616191 44.49505 
L 411.905445 44.49505 
L 411.905445 38.207921 
L 413.641454 38.207921 
L 413.641454 31.920792 
L 422.459011 31.920792 
L 422.459011 25.633663 
L 427.9746 25.633663 
L 427.9746 19.346535 
L 437.321638 19.346535 
L 437.321638 13.059406 
L 443.69627 13.059406 
L 443.69627 6.772277 
L 443.69627 6.772277 
L 443.69627 6.772277 
L 567.24 6.772277 
" style="fill:none;stroke:#00bfbf;stroke-linecap:square;"/>
   </g>
   <g id="line2d_6">
    <path clip-path="url(#p43c2c90982)" d="M 291.900611 384 
L 291.900611 377.712871 
L 300.590788 377.712871 
L 300.590788 371.425743 
L 301.164395 371.425743 
L 301.164395 365.138614 
L 303.001869 365.138614 
L 303.001869 358.851485 
L 304.691032 358.851485 
L 304.691032 352.564356 
L 305.557728 352.564356 
L 305.557728 346.277228 
L 306.037264 346.277228 
L 306.037264 339.990099 
L 312.299125 339.990099 
L 312.299125 333.70297 
L 313.10808 333.70297 
L 313.10808 327.415842 
L 313.374986 327.415842 
L 313.374986 321.128713 
L 313.549965 321.128713 
L 313.549965 314.841584 
L 315.232691 314.841584 
L 315.232691 308.554455 
L 315.387663 308.554455 
L 315.387663 302.267327 
L 315.424493 302.267327 
L 315.424493 295.980198 
L 315.424493 295.980198 
L 315.424493 289.693069 
L 315.424493 289.693069 
L 315.424493 283.405941 
L 315.424493 283.405941 
L 315.424493 277.118812 
L 315.424493 277.118812 
L 315.424493 270.831683 
L 315.424493 270.831683 
L 315.424493 264.544554 
L 315.424493 264.544554 
L 315.424493 258.257426 
L 315.424493 258.257426 
L 315.424493 251.970297 
L 315.424493 251.970297 
L 315.424493 245.683168 
L 315.424493 245.683168 
L 315.424493 239.39604 
L 315.424493 239.39604 
L 315.424493 233.108911 
L 315.424493 233.108911 
L 315.424493 226.821782 
L 315.424493 226.821782 
L 315.424493 220.534653 
L 315.424493 220.534653 
L 315.424493 214.247525 
L 315.424493 214.247525 
L 315.424493 207.960396 
L 318.20973 207.960396 
L 318.20973 201.673267 
L 319.064092 201.673267 
L 319.064092 195.386139 
L 327.746583 195.386139 
L 327.746583 189.09901 
L 328.171777 189.09901 
L 328.171777 182.811881 
L 328.632448 182.811881 
L 328.632448 176.524752 
L 331.191253 176.524752 
L 331.191253 170.237624 
L 333.02641 170.237624 
L 333.02641 163.950495 
L 334.648376 163.950495 
L 334.648376 157.663366 
L 335.590241 157.663366 
L 335.590241 151.376238 
L 336.490197 151.376238 
L 336.490197 145.089109 
L 336.850669 145.089109 
L 336.850669 138.80198 
L 337.171641 138.80198 
L 337.171641 132.514851 
L 337.354139 132.514851 
L 337.354139 126.227723 
L 342.861305 126.227723 
L 342.861305 119.940594 
L 351.033232 119.940594 
L 351.033232 113.653465 
L 353.491719 113.653465 
L 353.491719 107.366337 
L 353.935936 107.366337 
L 353.935936 101.079208 
L 355.714229 101.079208 
L 355.714229 94.792079 
L 361.933154 94.792079 
L 361.933154 88.50495 
L 362.924752 88.50495 
L 362.924752 82.217822 
L 363.483657 82.217822 
L 363.483657 75.930693 
L 371.252738 75.930693 
L 371.252738 69.643564 
L 372.334608 69.643564 
L 372.334608 63.356436 
L 372.718297 63.356436 
L 372.718297 57.069307 
L 373.807257 57.069307 
L 373.807257 50.782178 
L 375.157016 50.782178 
L 375.157016 44.49505 
L 378.579138 44.49505 
L 378.579138 38.207921 
L 388.00379 38.207921 
L 388.00379 31.920792 
L 389.200664 31.920792 
L 389.200664 25.633663 
L 403.443852 25.633663 
L 403.443852 19.346535 
L 411.143525 19.346535 
L 411.143525 13.059406 
L 411.905445 13.059406 
L 411.905445 6.772277 
L 411.905445 6.772277 
L 411.905445 6.772277 
L 567.24 6.772277 
" style="fill:none;stroke:#bf00bf;stroke-linecap:square;"/>
   </g>
   <g id="line2d_7">
    <path clip-path="url(#p43c2c90982)" d="M 276.600382 384 
L 276.600382 377.712871 
L 283.191977 377.712871 
L 283.191977 371.425743 
L 290.623491 371.425743 
L 290.623491 365.138614 
L 291.900611 365.138614 
L 291.900611 358.851485 
L 295.156354 358.851485 
L 295.156354 352.564356 
L 299.364014 352.564356 
L 299.364014 346.277228 
L 300.269612 346.277228 
L 300.269612 339.990099 
L 301.058263 339.990099 
L 301.058263 333.70297 
L 304.46751 333.70297 
L 304.46751 327.415842 
L 304.691032 327.415842 
L 304.691032 321.128713 
L 304.997959 321.128713 
L 304.997959 314.841584 
L 305.088475 314.841584 
L 305.088475 308.554455 
L 305.557728 308.554455 
L 305.557728 302.267327 
L 306.014181 302.267327 
L 306.014181 295.980198 
L 309.584366 295.980198 
L 309.584366 289.693069 
L 309.855523 289.693069 
L 309.855523 283.405941 
L 309.906477 283.405941 
L 309.906477 277.118812 
L 312.348803 277.118812 
L 312.348803 270.831683 
L 313.10808 270.831683 
L 313.10808 264.544554 
L 313.549965 264.544554 
L 313.549965 258.257426 
L 313.88927 258.257426 
L 313.88927 251.970297 
L 313.995013 251.970297 
L 313.995013 245.683168 
L 315.424493 245.683168 
L 315.424493 239.39604 
L 315.424493 239.39604 
L 315.424493 233.108911 
L 315.424493 233.108911 
L 315.424493 226.821782 
L 315.424493 226.821782 
L 315.424493 220.534653 
L 315.424493 220.534653 
L 315.424493 214.247525 
L 315.424493 214.247525 
L 315.424493 207.960396 
L 315.424493 207.960396 
L 315.424493 201.673267 
L 315.424493 201.673267 
L 315.424493 195.386139 
L 315.424493 195.386139 
L 315.424493 189.09901 
L 315.424493 189.09901 
L 315.424493 182.811881 
L 315.424493 182.811881 
L 315.424493 176.524752 
L 315.424493 176.524752 
L 315.424493 170.237624 
L 315.424493 170.237624 
L 315.424493 163.950495 
L 315.424493 163.950495 
L 315.424493 157.663366 
L 319.685148 157.663366 
L 319.685148 151.376238 
L 319.891621 151.376238 
L 319.891621 145.089109 
L 320.881988 145.089109 
L 320.881988 138.80198 
L 322.819195 138.80198 
L 322.819195 132.514851 
L 323.123825 132.514851 
L 323.123825 126.227723 
L 327.446527 126.227723 
L 327.446527 119.940594 
L 328.230382 119.940594 
L 328.230382 113.653465 
L 329.834581 113.653465 
L 329.834581 107.366337 
L 332.033101 107.366337 
L 332.033101 101.079208 
L 333.368607 101.079208 
L 333.368607 94.792079 
L 334.433912 94.792079 
L 334.433912 88.50495 
L 334.595145 88.50495 
L 334.595145 82.217822 
L 334.882035 82.217822 
L 334.882035 75.930693 
L 340.252749 75.930693 
L 340.252749 69.643564 
L 341.245639 69.643564 
L 341.245639 63.356436 
L 341.289356 63.356436 
L 341.289356 57.069307 
L 343.138637 57.069307 
L 343.138637 50.782178 
L 343.180414 50.782178 
L 343.180414 44.49505 
L 344.473443 44.49505 
L 344.473443 38.207921 
L 349.994662 38.207921 
L 349.994662 31.920792 
L 353.606428 31.920792 
L 353.606428 25.633663 
L 355.328485 25.633663 
L 355.328485 19.346535 
L 357.013623 19.346535 
L 357.013623 13.059406 
L 411.905445 13.059406 
L 411.905445 6.772277 
L 411.905445 6.772277 
L 411.905445 6.772277 
L 567.24 6.772277 
" style="fill:none;stroke:#000000;stroke-linecap:square;"/>
   </g>
   <g id="line2d_8">
    <path clip-path="url(#p43c2c90982)" d="M 271.07419 384 
L 271.07419 377.712871 
L 272.561307 377.712871 
L 272.561307 371.425743 
L 276.600382 371.425743 
L 276.600382 365.138614 
L 276.809035 365.138614 
L 276.809035 358.851485 
L 279.86931 358.851485 
L 279.86931 352.564356 
L 280.843172 352.564356 
L 280.843172 346.277228 
L 283.54838 346.277228 
L 283.54838 339.990099 
L 284.270819 339.990099 
L 284.270819 333.70297 
L 285.061703 333.70297 
L 285.061703 327.415842 
L 285.546538 327.415842 
L 285.546538 321.128713 
L 285.640173 321.128713 
L 285.640173 314.841584 
L 286.207029 314.841584 
L 286.207029 308.554455 
L 286.92911 308.554455 
L 286.92911 302.267327 
L 288.193617 302.267327 
L 288.193617 295.980198 
L 288.717195 295.980198 
L 288.717195 289.693069 
L 290.623491 289.693069 
L 290.623491 283.405941 
L 290.85869 283.405941 
L 290.85869 277.118812 
L 290.860839 277.118812 
L 290.860839 270.831683 
L 291.125932 270.831683 
L 291.125932 264.544554 
L 291.370085 264.544554 
L 291.370085 258.257426 
L 291.478338 258.257426 
L 291.478338 251.970297 
L 291.552429 251.970297 
L 291.552429 245.683168 
L 291.697445 245.683168 
L 291.697445 239.39604 
L 291.763412 239.39604 
L 291.763412 233.108911 
L 292.72426 233.108911 
L 292.72426 226.821782 
L 292.808299 226.821782 
L 292.808299 220.534653 
L 293.155967 220.534653 
L 293.155967 214.247525 
L 293.42219 214.247525 
L 293.42219 207.960396 
L 293.848851 207.960396 
L 293.848851 201.673267 
L 294.379057 201.673267 
L 294.379057 195.386139 
L 294.775171 195.386139 
L 294.775171 189.09901 
L 294.862079 189.09901 
L 294.862079 182.811881 
L 295.588445 182.811881 
L 295.588445 176.524752 
L 296.197432 176.524752 
L 296.197432 170.237624 
L 296.264304 170.237624 
L 296.264304 163.950495 
L 296.466803 163.950495 
L 296.466803 157.663366 
L 297.308435 157.663366 
L 297.308435 151.376238 
L 297.723281 151.376238 
L 297.723281 145.089109 
L 297.969191 145.089109 
L 297.969191 138.80198 
L 297.997662 138.80198 
L 297.997662 132.514851 
L 299.443168 132.514851 
L 299.443168 126.227723 
L 299.942167 126.227723 
L 299.942167 119.940594 
L 300.106441 119.940594 
L 300.106441 113.653465 
L 300.866267 113.653465 
L 300.866267 107.366337 
L 301.82328 107.366337 
L 301.82328 101.079208 
L 301.915676 101.079208 
L 301.915676 94.792079 
L 302.159364 94.792079 
L 302.159364 88.50495 
L 302.452902 88.50495 
L 302.452902 82.217822 
L 304.261748 82.217822 
L 304.261748 75.930693 
L 304.539288 75.930693 
L 304.539288 69.643564 
L 305.442054 69.643564 
L 305.442054 63.356436 
L 306.53533 63.356436 
L 306.53533 57.069307 
L 307.662289 57.069307 
L 307.662289 50.782178 
L 308.561849 50.782178 
L 308.561849 44.49505 
L 310.669032 44.49505 
L 310.669032 38.207921 
L 311.403596 38.207921 
L 311.403596 31.920792 
L 313.390402 31.920792 
L 313.390402 25.633663 
L 314.116342 25.633663 
L 314.116342 19.346535 
L 314.336061 19.346535 
L 314.336061 13.059406 
L 320.881988 13.059406 
L 320.881988 6.772277 
L 320.881988 6.772277 
L 320.881988 6.772277 
L 567.24 6.772277 
" style="fill:none;stroke:#00bfbf;stroke-linecap:square;"/>
   </g>
   <g id="patch_3">
    <path d="M 3 3 
L 567.24 3 
" style="fill:none;stroke:#000000;stroke-linecap:square;stroke-linejoin:miter;"/>
   </g>
   <g id="patch_4">
    <path d="M 567.24 384 
L 567.24 3 
" style="fill:none;stroke:#000000;stroke-linecap:square;stroke-linejoin:miter;"/>
   </g>
   <g id="patch_5">
    <path d="M 3 384 
L 567.24 384 
" style="fill:none;stroke:#000000;stroke-linecap:square;stroke-linejoin:miter;"/>
   </g>
   <g id="patch_6">
    <path d="M 3 384 
L 3 3 
" style="fill:none;stroke:#000000;stroke-linecap:square;stroke-linejoin:miter;"/>
   </g>
   <g id="matplotlib.axis_1">
    <g id="xtick_1"/>
    <g id="xtick_2">
     <g id="line2d_9">
      <path clip-path="url(#p43c2c90982)" d="M 69.254589 384 
L 69.254589 3 
" style="fill:none;stroke:#000000;stroke-dasharray:1.000000,3.000000;stroke-dashoffset:0.0;stroke-width:0.5;"/>
     </g>
     <g id="line2d_10">
      <defs>
       <path d="M 0 0 
L 0 -4 
" id="m2f84d2e63c" style="stroke:#000000;stroke-width:0.5;"/>
      </defs>
      <g>
       <use style="stroke:#000000;stroke-width:0.5;" x="69.2545893472" xlink:href="#m2f84d2e63c" y="384.0"/>
      </g>
     </g>
     <g id="line2d_11">
      <defs>
       <path d="M 0 0 
L 0 4 
" id="mc946841ae9" style="stroke:#000000;stroke-width:0.5;"/>
      </defs>
      <g>
       <use style="stroke:#000000;stroke-width:0.5;" x="69.2545893472" xlink:href="#mc946841ae9" y="3.0"/>
      </g>
     </g>
     <g id="text_1">
      <!-- -6 -->
      <defs>
       <path d="M 33.015625 40.375 
Q 26.375 40.375 22.484375 35.828125 
Q 18.609375 31.296875 18.609375 23.390625 
Q 18.609375 15.53125 22.484375 10.953125 
Q 26.375 6.390625 33.015625 6.390625 
Q 39.65625 6.390625 43.53125 10.953125 
Q 47.40625 15.53125 47.40625 23.390625 
Q 47.40625 31.296875 43.53125 35.828125 
Q 39.65625 40.375 33.015625 40.375 
M 52.59375 71.296875 
L 52.59375 62.3125 
Q 48.875 64.0625 45.09375 64.984375 
Q 41.3125 65.921875 37.59375 65.921875 
Q 27.828125 65.921875 22.671875 59.328125 
Q 17.53125 52.734375 16.796875 39.40625 
Q 19.671875 43.65625 24.015625 45.921875 
Q 28.375 48.1875 33.59375 48.1875 
Q 44.578125 48.1875 50.953125 41.515625 
Q 57.328125 34.859375 57.328125 23.390625 
Q 57.328125 12.15625 50.6875 5.359375 
Q 44.046875 -1.421875 33.015625 -1.421875 
Q 20.359375 -1.421875 13.671875 8.265625 
Q 6.984375 17.96875 6.984375 36.375 
Q 6.984375 53.65625 15.1875 63.9375 
Q 23.390625 74.21875 37.203125 74.21875 
Q 40.921875 74.21875 44.703125 73.484375 
Q 48.484375 72.75 52.59375 71.296875 
" id="BitstreamVeraSans-Roman-36"/>
       <path d="M 4.890625 31.390625 
L 31.203125 31.390625 
L 31.203125 23.390625 
L 4.890625 23.390625 
z
" id="BitstreamVeraSans-Roman-2d"/>
      </defs>
      <g transform="translate(59.2842768472 403.196875)scale(0.2 -0.2)">
       <use xlink:href="#BitstreamVeraSans-Roman-2d"/>
       <use x="36.083984375" xlink:href="#BitstreamVeraSans-Roman-36"/>
      </g>
     </g>
    </g>
    <g id="xtick_3">
     <g id="line2d_12">
      <path clip-path="url(#p43c2c90982)" d="M 135.652644 384 
L 135.652644 3 
" style="fill:none;stroke:#000000;stroke-dasharray:1.000000,3.000000;stroke-dashoffset:0.0;stroke-width:0.5;"/>
     </g>
     <g id="line2d_13">
      <g>
       <use style="stroke:#000000;stroke-width:0.5;" x="135.652644101" xlink:href="#m2f84d2e63c" y="384.0"/>
      </g>
     </g>
     <g id="line2d_14">
      <g>
       <use style="stroke:#000000;stroke-width:0.5;" x="135.652644101" xlink:href="#mc946841ae9" y="3.0"/>
      </g>
     </g>
     <g id="text_2">
      <!-- -4 -->
      <defs>
       <path d="M 37.796875 64.3125 
L 12.890625 25.390625 
L 37.796875 25.390625 
z
M 35.203125 72.90625 
L 47.609375 72.90625 
L 47.609375 25.390625 
L 58.015625 25.390625 
L 58.015625 17.1875 
L 47.609375 17.1875 
L 47.609375 0 
L 37.796875 0 
L 37.796875 17.1875 
L 4.890625 17.1875 
L 4.890625 26.703125 
z
" id="BitstreamVeraSans-Roman-34"/>
      </defs>
      <g transform="translate(125.682331601 403.196875)scale(0.2 -0.2)">
       <use xlink:href="#BitstreamVeraSans-Roman-2d"/>
       <use x="36.083984375" xlink:href="#BitstreamVeraSans-Roman-34"/>
      </g>
     </g>
    </g>
    <g id="xtick_4">
     <g id="line2d_15">
      <path clip-path="url(#p43c2c90982)" d="M 202.050699 384 
L 202.050699 3 
" style="fill:none;stroke:#000000;stroke-dasharray:1.000000,3.000000;stroke-dashoffset:0.0;stroke-width:0.5;"/>
     </g>
     <g id="line2d_16">
      <g>
       <use style="stroke:#000000;stroke-width:0.5;" x="202.050698855" xlink:href="#m2f84d2e63c" y="384.0"/>
      </g>
     </g>
     <g id="line2d_17">
      <g>
       <use style="stroke:#000000;stroke-width:0.5;" x="202.050698855" xlink:href="#mc946841ae9" y="3.0"/>
      </g>
     </g>
     <g id="text_3">
      <!-- -2 -->
      <defs>
       <path d="M 19.1875 8.296875 
L 53.609375 8.296875 
L 53.609375 0 
L 7.328125 0 
L 7.328125 8.296875 
Q 12.9375 14.109375 22.625 23.890625 
Q 32.328125 33.6875 34.8125 36.53125 
Q 39.546875 41.84375 41.421875 45.53125 
Q 43.3125 49.21875 43.3125 52.78125 
Q 43.3125 58.59375 39.234375 62.25 
Q 35.15625 65.921875 28.609375 65.921875 
Q 23.96875 65.921875 18.8125 64.3125 
Q 13.671875 62.703125 7.8125 59.421875 
L 7.8125 69.390625 
Q 13.765625 71.78125 18.9375 73 
Q 24.125 74.21875 28.421875 74.21875 
Q 39.75 74.21875 46.484375 68.546875 
Q 53.21875 62.890625 53.21875 53.421875 
Q 53.21875 48.921875 51.53125 44.890625 
Q 49.859375 40.875 45.40625 35.40625 
Q 44.1875 33.984375 37.640625 27.21875 
Q 31.109375 20.453125 19.1875 8.296875 
" id="BitstreamVeraSans-Roman-32"/>
      </defs>
      <g transform="translate(192.080386355 403.196875)scale(0.2 -0.2)">
       <use xlink:href="#BitstreamVeraSans-Roman-2d"/>
       <use x="36.083984375" xlink:href="#BitstreamVeraSans-Roman-32"/>
      </g>
     </g>
    </g>
    <g id="xtick_5">
     <g id="line2d_18">
      <path clip-path="url(#p43c2c90982)" d="M 268.448754 384 
L 268.448754 3 
" style="fill:none;stroke:#000000;stroke-dasharray:1.000000,3.000000;stroke-dashoffset:0.0;stroke-width:0.5;"/>
     </g>
     <g id="line2d_19">
      <g>
       <use style="stroke:#000000;stroke-width:0.5;" x="268.448753608" xlink:href="#m2f84d2e63c" y="384.0"/>
      </g>
     </g>
     <g id="line2d_20">
      <g>
       <use style="stroke:#000000;stroke-width:0.5;" x="268.448753608" xlink:href="#mc946841ae9" y="3.0"/>
      </g>
     </g>
     <g id="text_4">
      <!-- 0 -->
      <defs>
       <path d="M 31.78125 66.40625 
Q 24.171875 66.40625 20.328125 58.90625 
Q 16.5 51.421875 16.5 36.375 
Q 16.5 21.390625 20.328125 13.890625 
Q 24.171875 6.390625 31.78125 6.390625 
Q 39.453125 6.390625 43.28125 13.890625 
Q 47.125 21.390625 47.125 36.375 
Q 47.125 51.421875 43.28125 58.90625 
Q 39.453125 66.40625 31.78125 66.40625 
M 31.78125 74.21875 
Q 44.046875 74.21875 50.515625 64.515625 
Q 56.984375 54.828125 56.984375 36.375 
Q 56.984375 17.96875 50.515625 8.265625 
Q 44.046875 -1.421875 31.78125 -1.421875 
Q 19.53125 -1.421875 13.0625 8.265625 
Q 6.59375 17.96875 6.59375 36.375 
Q 6.59375 54.828125 13.0625 64.515625 
Q 19.53125 74.21875 31.78125 74.21875 
" id="BitstreamVeraSans-Roman-30"/>
      </defs>
      <g transform="translate(262.086253608 403.196875)scale(0.2 -0.2)">
       <use xlink:href="#BitstreamVeraSans-Roman-30"/>
      </g>
     </g>
    </g>
    <g id="xtick_6">
     <g id="line2d_21">
      <path clip-path="url(#p43c2c90982)" d="M 334.846808 384 
L 334.846808 3 
" style="fill:none;stroke:#000000;stroke-dasharray:1.000000,3.000000;stroke-dashoffset:0.0;stroke-width:0.5;"/>
     </g>
     <g id="line2d_22">
      <g>
       <use style="stroke:#000000;stroke-width:0.5;" x="334.846808362" xlink:href="#m2f84d2e63c" y="384.0"/>
      </g>
     </g>
     <g id="line2d_23">
      <g>
       <use style="stroke:#000000;stroke-width:0.5;" x="334.846808362" xlink:href="#mc946841ae9" y="3.0"/>
      </g>
     </g>
     <g id="text_5">
      <!-- 2 -->
      <g transform="translate(328.484308362 403.196875)scale(0.2 -0.2)">
       <use xlink:href="#BitstreamVeraSans-Roman-32"/>
      </g>
     </g>
    </g>
    <g id="xtick_7">
     <g id="line2d_24">
      <path clip-path="url(#p43c2c90982)" d="M 401.244863 384 
L 401.244863 3 
" style="fill:none;stroke:#000000;stroke-dasharray:1.000000,3.000000;stroke-dashoffset:0.0;stroke-width:0.5;"/>
     </g>
     <g id="line2d_25">
      <g>
       <use style="stroke:#000000;stroke-width:0.5;" x="401.244863116" xlink:href="#m2f84d2e63c" y="384.0"/>
      </g>
     </g>
     <g id="line2d_26">
      <g>
       <use style="stroke:#000000;stroke-width:0.5;" x="401.244863116" xlink:href="#mc946841ae9" y="3.0"/>
      </g>
     </g>
     <g id="text_6">
      <!-- 4 -->
      <g transform="translate(394.882363116 403.196875)scale(0.2 -0.2)">
       <use xlink:href="#BitstreamVeraSans-Roman-34"/>
      </g>
     </g>
    </g>
    <g id="xtick_8">
     <g id="line2d_27">
      <path clip-path="url(#p43c2c90982)" d="M 467.642918 384 
L 467.642918 3 
" style="fill:none;stroke:#000000;stroke-dasharray:1.000000,3.000000;stroke-dashoffset:0.0;stroke-width:0.5;"/>
     </g>
     <g id="line2d_28">
      <g>
       <use style="stroke:#000000;stroke-width:0.5;" x="467.642917869" xlink:href="#m2f84d2e63c" y="384.0"/>
      </g>
     </g>
     <g id="line2d_29">
      <g>
       <use style="stroke:#000000;stroke-width:0.5;" x="467.642917869" xlink:href="#mc946841ae9" y="3.0"/>
      </g>
     </g>
     <g id="text_7">
      <!-- 6 -->
      <g transform="translate(461.280417869 403.196875)scale(0.2 -0.2)">
       <use xlink:href="#BitstreamVeraSans-Roman-36"/>
      </g>
     </g>
    </g>
    <g id="xtick_9">
     <g id="line2d_30">
      <path clip-path="url(#p43c2c90982)" d="M 534.040973 384 
L 534.040973 3 
" style="fill:none;stroke:#000000;stroke-dasharray:1.000000,3.000000;stroke-dashoffset:0.0;stroke-width:0.5;"/>
     </g>
     <g id="line2d_31">
      <g>
       <use style="stroke:#000000;stroke-width:0.5;" x="534.040972623" xlink:href="#m2f84d2e63c" y="384.0"/>
      </g>
     </g>
     <g id="line2d_32">
      <g>
       <use style="stroke:#000000;stroke-width:0.5;" x="534.040972623" xlink:href="#mc946841ae9" y="3.0"/>
      </g>
     </g>
     <g id="text_8">
      <!-- 8 -->
      <defs>
       <path d="M 31.78125 34.625 
Q 24.75 34.625 20.71875 30.859375 
Q 16.703125 27.09375 16.703125 20.515625 
Q 16.703125 13.921875 20.71875 10.15625 
Q 24.75 6.390625 31.78125 6.390625 
Q 38.8125 6.390625 42.859375 10.171875 
Q 46.921875 13.96875 46.921875 20.515625 
Q 46.921875 27.09375 42.890625 30.859375 
Q 38.875 34.625 31.78125 34.625 
M 21.921875 38.8125 
Q 15.578125 40.375 12.03125 44.71875 
Q 8.5 49.078125 8.5 55.328125 
Q 8.5 64.0625 14.71875 69.140625 
Q 20.953125 74.21875 31.78125 74.21875 
Q 42.671875 74.21875 48.875 69.140625 
Q 55.078125 64.0625 55.078125 55.328125 
Q 55.078125 49.078125 51.53125 44.71875 
Q 48 40.375 41.703125 38.8125 
Q 48.828125 37.15625 52.796875 32.3125 
Q 56.78125 27.484375 56.78125 20.515625 
Q 56.78125 9.90625 50.3125 4.234375 
Q 43.84375 -1.421875 31.78125 -1.421875 
Q 19.734375 -1.421875 13.25 4.234375 
Q 6.78125 9.90625 6.78125 20.515625 
Q 6.78125 27.484375 10.78125 32.3125 
Q 14.796875 37.15625 21.921875 38.8125 
M 18.3125 54.390625 
Q 18.3125 48.734375 21.84375 45.5625 
Q 25.390625 42.390625 31.78125 42.390625 
Q 38.140625 42.390625 41.71875 45.5625 
Q 45.3125 48.734375 45.3125 54.390625 
Q 45.3125 60.0625 41.71875 63.234375 
Q 38.140625 66.40625 31.78125 66.40625 
Q 25.390625 66.40625 21.84375 63.234375 
Q 18.3125 60.0625 18.3125 54.390625 
" id="BitstreamVeraSans-Roman-38"/>
      </defs>
      <g transform="translate(527.678472623 403.196875)scale(0.2 -0.2)">
       <use xlink:href="#BitstreamVeraSans-Roman-38"/>
      </g>
     </g>
    </g>
    <g id="xtick_10"/>
    <g id="xtick_11">
     <g id="line2d_33">
      <defs>
       <path d="M 0 0 
L 0 -2 
" id="meb42fa0055" style="stroke:#000000;stroke-width:0.5;"/>
      </defs>
      <g>
       <use style="stroke:#000000;stroke-width:0.5;" x="69.2545893472" xlink:href="#meb42fa0055" y="384.0"/>
      </g>
     </g>
     <g id="line2d_34">
      <defs>
       <path d="M 0 0 
L 0 2 
" id="mf38de656eb" style="stroke:#000000;stroke-width:0.5;"/>
      </defs>
      <g>
       <use style="stroke:#000000;stroke-width:0.5;" x="69.2545893472" xlink:href="#mf38de656eb" y="3.0"/>
      </g>
     </g>
    </g>
    <g id="xtick_12">
     <g id="line2d_35">
      <g>
       <use style="stroke:#000000;stroke-width:0.5;" x="135.652644101" xlink:href="#meb42fa0055" y="384.0"/>
      </g>
     </g>
     <g id="line2d_36">
      <g>
       <use style="stroke:#000000;stroke-width:0.5;" x="135.652644101" xlink:href="#mf38de656eb" y="3.0"/>
      </g>
     </g>
    </g>
    <g id="xtick_13">
     <g id="line2d_37">
      <g>
       <use style="stroke:#000000;stroke-width:0.5;" x="202.050698855" xlink:href="#meb42fa0055" y="384.0"/>
      </g>
     </g>
     <g id="line2d_38">
      <g>
       <use style="stroke:#000000;stroke-width:0.5;" x="202.050698855" xlink:href="#mf38de656eb" y="3.0"/>
      </g>
     </g>
    </g>
    <g id="xtick_14">
     <g id="line2d_39">
      <g>
       <use style="stroke:#000000;stroke-width:0.5;" x="268.448753608" xlink:href="#meb42fa0055" y="384.0"/>
      </g>
     </g>
     <g id="line2d_40">
      <g>
       <use style="stroke:#000000;stroke-width:0.5;" x="268.448753608" xlink:href="#mf38de656eb" y="3.0"/>
      </g>
     </g>
    </g>
    <g id="xtick_15">
     <g id="line2d_41">
      <g>
       <use style="stroke:#000000;stroke-width:0.5;" x="334.846808362" xlink:href="#meb42fa0055" y="384.0"/>
      </g>
     </g>
     <g id="line2d_42">
      <g>
       <use style="stroke:#000000;stroke-width:0.5;" x="334.846808362" xlink:href="#mf38de656eb" y="3.0"/>
      </g>
     </g>
    </g>
    <g id="xtick_16">
     <g id="line2d_43">
      <g>
       <use style="stroke:#000000;stroke-width:0.5;" x="401.244863116" xlink:href="#meb42fa0055" y="384.0"/>
      </g>
     </g>
     <g id="line2d_44">
      <g>
       <use style="stroke:#000000;stroke-width:0.5;" x="401.244863116" xlink:href="#mf38de656eb" y="3.0"/>
      </g>
     </g>
    </g>
    <g id="xtick_17">
     <g id="line2d_45">
      <g>
       <use style="stroke:#000000;stroke-width:0.5;" x="467.642917869" xlink:href="#meb42fa0055" y="384.0"/>
      </g>
     </g>
     <g id="line2d_46">
      <g>
       <use style="stroke:#000000;stroke-width:0.5;" x="467.642917869" xlink:href="#mf38de656eb" y="3.0"/>
      </g>
     </g>
    </g>
    <g id="xtick_18">
     <g id="line2d_47">
      <g>
       <use style="stroke:#000000;stroke-width:0.5;" x="534.040972623" xlink:href="#meb42fa0055" y="384.0"/>
      </g>
     </g>
     <g id="line2d_48">
      <g>
       <use style="stroke:#000000;stroke-width:0.5;" x="534.040972623" xlink:href="#mf38de656eb" y="3.0"/>
      </g>
     </g>
    </g>
    <g id="text_9">
     <!-- log10 of Df -->
     <defs>
      <path id="BitstreamVeraSans-Roman-20"/>
      <path d="M 12.40625 8.296875 
L 28.515625 8.296875 
L 28.515625 63.921875 
L 10.984375 60.40625 
L 10.984375 69.390625 
L 28.421875 72.90625 
L 38.28125 72.90625 
L 38.28125 8.296875 
L 54.390625 8.296875 
L 54.390625 0 
L 12.40625 0 
z
" id="BitstreamVeraSans-Roman-31"/>
      <path d="M 30.609375 48.390625 
Q 23.390625 48.390625 19.1875 42.75 
Q 14.984375 37.109375 14.984375 27.296875 
Q 14.984375 17.484375 19.15625 11.84375 
Q 23.34375 6.203125 30.609375 6.203125 
Q 37.796875 6.203125 41.984375 11.859375 
Q 46.1875 17.53125 46.1875 27.296875 
Q 46.1875 37.015625 41.984375 42.703125 
Q 37.796875 48.390625 30.609375 48.390625 
M 30.609375 56 
Q 42.328125 56 49.015625 48.375 
Q 55.71875 40.765625 55.71875 27.296875 
Q 55.71875 13.875 49.015625 6.21875 
Q 42.328125 -1.421875 30.609375 -1.421875 
Q 18.84375 -1.421875 12.171875 6.21875 
Q 5.515625 13.875 5.515625 27.296875 
Q 5.515625 40.765625 12.171875 48.375 
Q 18.84375 56 30.609375 56 
" id="BitstreamVeraSans-Roman-6f"/>
      <path d="M 9.421875 75.984375 
L 18.40625 75.984375 
L 18.40625 0 
L 9.421875 0 
z
" id="BitstreamVeraSans-Roman-6c"/>
      <path d="M 19.671875 64.796875 
L 19.671875 8.109375 
L 31.59375 8.109375 
Q 46.6875 8.109375 53.6875 14.9375 
Q 60.6875 21.78125 60.6875 36.53125 
Q 60.6875 51.171875 53.6875 57.984375 
Q 46.6875 64.796875 31.59375 64.796875 
z
M 9.8125 72.90625 
L 30.078125 72.90625 
Q 51.265625 72.90625 61.171875 64.09375 
Q 71.09375 55.28125 71.09375 36.53125 
Q 71.09375 17.671875 61.125 8.828125 
Q 51.171875 0 30.078125 0 
L 9.8125 0 
z
" id="BitstreamVeraSans-Roman-44"/>
      <path d="M 45.40625 27.984375 
Q 45.40625 37.75 41.375 43.109375 
Q 37.359375 48.484375 30.078125 48.484375 
Q 22.859375 48.484375 18.828125 43.109375 
Q 14.796875 37.75 14.796875 27.984375 
Q 14.796875 18.265625 18.828125 12.890625 
Q 22.859375 7.515625 30.078125 7.515625 
Q 37.359375 7.515625 41.375 12.890625 
Q 45.40625 18.265625 45.40625 27.984375 
M 54.390625 6.78125 
Q 54.390625 -7.171875 48.1875 -13.984375 
Q 42 -20.796875 29.203125 -20.796875 
Q 24.46875 -20.796875 20.265625 -20.09375 
Q 16.0625 -19.390625 12.109375 -17.921875 
L 12.109375 -9.1875 
Q 16.0625 -11.328125 19.921875 -12.34375 
Q 23.78125 -13.375 27.78125 -13.375 
Q 36.625 -13.375 41.015625 -8.765625 
Q 45.40625 -4.15625 45.40625 5.171875 
L 45.40625 9.625 
Q 42.625 4.78125 38.28125 2.390625 
Q 33.9375 0 27.875 0 
Q 17.828125 0 11.671875 7.65625 
Q 5.515625 15.328125 5.515625 27.984375 
Q 5.515625 40.671875 11.671875 48.328125 
Q 17.828125 56 27.875 56 
Q 33.9375 56 38.28125 53.609375 
Q 42.625 51.21875 45.40625 46.390625 
L 45.40625 54.6875 
L 54.390625 54.6875 
z
" id="BitstreamVeraSans-Roman-67"/>
      <path d="M 37.109375 75.984375 
L 37.109375 68.5 
L 28.515625 68.5 
Q 23.6875 68.5 21.796875 66.546875 
Q 19.921875 64.59375 19.921875 59.515625 
L 19.921875 54.6875 
L 34.71875 54.6875 
L 34.71875 47.703125 
L 19.921875 47.703125 
L 19.921875 0 
L 10.890625 0 
L 10.890625 47.703125 
L 2.296875 47.703125 
L 2.296875 54.6875 
L 10.890625 54.6875 
L 10.890625 58.5 
Q 10.890625 67.625 15.140625 71.796875 
Q 19.390625 75.984375 28.609375 75.984375 
z
" id="BitstreamVeraSans-Roman-66"/>
     </defs>
     <g transform="translate(229.9340625 427.553125)scale(0.2 -0.2)">
      <use xlink:href="#BitstreamVeraSans-Roman-6c"/>
      <use x="27.783203125" xlink:href="#BitstreamVeraSans-Roman-6f"/>
      <use x="88.96484375" xlink:href="#BitstreamVeraSans-Roman-67"/>
      <use x="152.44140625" xlink:href="#BitstreamVeraSans-Roman-31"/>
      <use x="216.064453125" xlink:href="#BitstreamVeraSans-Roman-30"/>
      <use x="279.6875" xlink:href="#BitstreamVeraSans-Roman-20"/>
      <use x="311.474609375" xlink:href="#BitstreamVeraSans-Roman-6f"/>
      <use x="372.65625" xlink:href="#BitstreamVeraSans-Roman-66"/>
      <use x="407.861328125" xlink:href="#BitstreamVeraSans-Roman-20"/>
      <use x="439.6484375" xlink:href="#BitstreamVeraSans-Roman-44"/>
      <use x="516.650390625" xlink:href="#BitstreamVeraSans-Roman-66"/>
     </g>
    </g>
   </g>
   <g id="matplotlib.axis_2">
    <g id="ytick_1">
     <g id="line2d_49">
      <path clip-path="url(#p43c2c90982)" d="M 3 384 
L 567.24 384 
" style="fill:none;stroke:#000000;stroke-dasharray:1.000000,3.000000;stroke-dashoffset:0.0;stroke-width:0.5;"/>
     </g>
     <g id="line2d_50">
      <defs>
       <path d="M 0 0 
L 4 0 
" id="m26b5d7c8a9" style="stroke:#000000;stroke-width:0.5;"/>
      </defs>
      <g>
       <use style="stroke:#000000;stroke-width:0.5;" x="3.0" xlink:href="#m26b5d7c8a9" y="384.0"/>
      </g>
     </g>
     <g id="line2d_51">
      <defs>
       <path d="M 0 0 
L -4 0 
" id="mf79adad2f8" style="stroke:#000000;stroke-width:0.5;"/>
      </defs>
      <g>
       <use style="stroke:#000000;stroke-width:0.5;" x="567.24" xlink:href="#mf79adad2f8" y="384.0"/>
      </g>
     </g>
    </g>
    <g id="ytick_2">
     <g id="line2d_52">
      <path clip-path="url(#p43c2c90982)" d="M 3 308.554455 
L 567.24 308.554455 
" style="fill:none;stroke:#000000;stroke-dasharray:1.000000,3.000000;stroke-dashoffset:0.0;stroke-width:0.5;"/>
     </g>
     <g id="line2d_53">
      <g>
       <use style="stroke:#000000;stroke-width:0.5;" x="3.0" xlink:href="#m26b5d7c8a9" y="308.554455446"/>
      </g>
     </g>
     <g id="line2d_54">
      <g>
       <use style="stroke:#000000;stroke-width:0.5;" x="567.24" xlink:href="#mf79adad2f8" y="308.554455446"/>
      </g>
     </g>
    </g>
    <g id="ytick_3">
     <g id="line2d_55">
      <path clip-path="url(#p43c2c90982)" d="M 3 233.108911 
L 567.24 233.108911 
" style="fill:none;stroke:#000000;stroke-dasharray:1.000000,3.000000;stroke-dashoffset:0.0;stroke-width:0.5;"/>
     </g>
     <g id="line2d_56">
      <g>
       <use style="stroke:#000000;stroke-width:0.5;" x="3.0" xlink:href="#m26b5d7c8a9" y="233.108910891"/>
      </g>
     </g>
     <g id="line2d_57">
      <g>
       <use style="stroke:#000000;stroke-width:0.5;" x="567.24" xlink:href="#mf79adad2f8" y="233.108910891"/>
      </g>
     </g>
    </g>
    <g id="ytick_4">
     <g id="line2d_58">
      <path clip-path="url(#p43c2c90982)" d="M 3 157.663366 
L 567.24 157.663366 
" style="fill:none;stroke:#000000;stroke-dasharray:1.000000,3.000000;stroke-dashoffset:0.0;stroke-width:0.5;"/>
     </g>
     <g id="line2d_59">
      <g>
       <use style="stroke:#000000;stroke-width:0.5;" x="3.0" xlink:href="#m26b5d7c8a9" y="157.663366337"/>
      </g>
     </g>
     <g id="line2d_60">
      <g>
       <use style="stroke:#000000;stroke-width:0.5;" x="567.24" xlink:href="#mf79adad2f8" y="157.663366337"/>
      </g>
     </g>
    </g>
    <g id="ytick_5">
     <g id="line2d_61">
      <path clip-path="url(#p43c2c90982)" d="M 3 82.217822 
L 567.24 82.217822 
" style="fill:none;stroke:#000000;stroke-dasharray:1.000000,3.000000;stroke-dashoffset:0.0;stroke-width:0.5;"/>
     </g>
     <g id="line2d_62">
      <g>
       <use style="stroke:#000000;stroke-width:0.5;" x="3.0" xlink:href="#m26b5d7c8a9" y="82.2178217822"/>
      </g>
     </g>
     <g id="line2d_63">
      <g>
       <use style="stroke:#000000;stroke-width:0.5;" x="567.24" xlink:href="#mf79adad2f8" y="82.2178217822"/>
      </g>
     </g>
    </g>
    <g id="ytick_6">
     <g id="line2d_64">
      <path clip-path="url(#p43c2c90982)" d="M 3 6.772277 
L 567.24 6.772277 
" style="fill:none;stroke:#000000;stroke-dasharray:1.000000,3.000000;stroke-dashoffset:0.0;stroke-width:0.5;"/>
     </g>
     <g id="line2d_65">
      <g>
       <use style="stroke:#000000;stroke-width:0.5;" x="3.0" xlink:href="#m26b5d7c8a9" y="6.77227722772"/>
      </g>
     </g>
     <g id="line2d_66">
      <g>
       <use style="stroke:#000000;stroke-width:0.5;" x="567.24" xlink:href="#mf79adad2f8" y="6.77227722772"/>
      </g>
     </g>
    </g>
   </g>
   <g id="text_10">
    <!-- {f6-f9}, 5-D -->
    <defs>
     <path d="M 12.5 -9.28125 
L 15.921875 -9.28125 
Q 22.75 -9.28125 24.828125 -7.171875 
Q 26.90625 -5.078125 26.90625 1.90625 
L 26.90625 14.015625 
Q 26.90625 21.625 29.09375 25.09375 
Q 31.296875 28.5625 36.71875 29.890625 
Q 31.296875 31.109375 29.09375 34.5625 
Q 26.90625 38.03125 26.90625 45.703125 
L 26.90625 57.8125 
Q 26.90625 64.75 24.828125 66.875 
Q 22.75 69 15.921875 69 
L 12.5 69 
L 12.5 75.984375 
L 15.578125 75.984375 
Q 27.734375 75.984375 31.8125 72.390625 
Q 35.890625 68.796875 35.890625 58.015625 
L 35.890625 46.296875 
Q 35.890625 39.015625 38.515625 36.203125 
Q 41.15625 33.40625 48.09375 33.40625 
L 51.125 33.40625 
L 51.125 26.421875 
L 48.09375 26.421875 
Q 41.15625 26.421875 38.515625 23.578125 
Q 35.890625 20.75 35.890625 13.375 
L 35.890625 1.703125 
Q 35.890625 -9.078125 31.8125 -12.6875 
Q 27.734375 -16.3125 15.578125 -16.3125 
L 12.5 -16.3125 
z
" id="BitstreamVeraSans-Roman-7d"/>
     <path d="M 10.984375 1.515625 
L 10.984375 10.5 
Q 14.703125 8.734375 18.5 7.8125 
Q 22.3125 6.890625 25.984375 6.890625 
Q 35.75 6.890625 40.890625 13.453125 
Q 46.046875 20.015625 46.78125 33.40625 
Q 43.953125 29.203125 39.59375 26.953125 
Q 35.25 24.703125 29.984375 24.703125 
Q 19.046875 24.703125 12.671875 31.3125 
Q 6.296875 37.9375 6.296875 49.421875 
Q 6.296875 60.640625 12.9375 67.421875 
Q 19.578125 74.21875 30.609375 74.21875 
Q 43.265625 74.21875 49.921875 64.515625 
Q 56.59375 54.828125 56.59375 36.375 
Q 56.59375 19.140625 48.40625 8.859375 
Q 40.234375 -1.421875 26.421875 -1.421875 
Q 22.703125 -1.421875 18.890625 -0.6875 
Q 15.09375 0.046875 10.984375 1.515625 
M 30.609375 32.421875 
Q 37.25 32.421875 41.125 36.953125 
Q 45.015625 41.5 45.015625 49.421875 
Q 45.015625 57.28125 41.125 61.84375 
Q 37.25 66.40625 30.609375 66.40625 
Q 23.96875 66.40625 20.09375 61.84375 
Q 16.21875 57.28125 16.21875 49.421875 
Q 16.21875 41.5 20.09375 36.953125 
Q 23.96875 32.421875 30.609375 32.421875 
" id="BitstreamVeraSans-Roman-39"/>
     <path d="M 51.125 -9.28125 
L 51.125 -16.3125 
L 48.09375 -16.3125 
Q 35.9375 -16.3125 31.8125 -12.6875 
Q 27.6875 -9.078125 27.6875 1.703125 
L 27.6875 13.375 
Q 27.6875 20.75 25.046875 23.578125 
Q 22.40625 26.421875 15.484375 26.421875 
L 12.5 26.421875 
L 12.5 33.40625 
L 15.484375 33.40625 
Q 22.46875 33.40625 25.078125 36.203125 
Q 27.6875 39.015625 27.6875 46.296875 
L 27.6875 58.015625 
Q 27.6875 68.796875 31.8125 72.390625 
Q 35.9375 75.984375 48.09375 75.984375 
L 51.125 75.984375 
L 51.125 69 
L 47.796875 69 
Q 40.921875 69 38.8125 66.84375 
Q 36.71875 64.703125 36.71875 57.8125 
L 36.71875 45.703125 
Q 36.71875 38.03125 34.5 34.5625 
Q 32.28125 31.109375 26.90625 29.890625 
Q 32.328125 28.5625 34.515625 25.09375 
Q 36.71875 21.625 36.71875 14.015625 
L 36.71875 1.90625 
Q 36.71875 -4.984375 38.8125 -7.125 
Q 40.921875 -9.28125 47.796875 -9.28125 
z
" id="BitstreamVeraSans-Roman-7b"/>
     <path d="M 11.71875 12.40625 
L 22.015625 12.40625 
L 22.015625 4 
L 14.015625 -11.625 
L 7.71875 -11.625 
L 11.71875 4 
z
" id="BitstreamVeraSans-Roman-2c"/>
     <path d="M 10.796875 72.90625 
L 49.515625 72.90625 
L 49.515625 64.59375 
L 19.828125 64.59375 
L 19.828125 46.734375 
Q 21.96875 47.46875 24.109375 47.828125 
Q 26.265625 48.1875 28.421875 48.1875 
Q 40.625 48.1875 47.75 41.5 
Q 54.890625 34.8125 54.890625 23.390625 
Q 54.890625 11.625 47.5625 5.09375 
Q 40.234375 -1.421875 26.90625 -1.421875 
Q 22.3125 -1.421875 17.546875 -0.640625 
Q 12.796875 0.140625 7.71875 1.703125 
L 7.71875 11.625 
Q 12.109375 9.234375 16.796875 8.0625 
Q 21.484375 6.890625 26.703125 6.890625 
Q 35.15625 6.890625 40.078125 11.328125 
Q 45.015625 15.765625 45.015625 23.390625 
Q 45.015625 31 40.078125 35.4375 
Q 35.15625 39.890625 26.703125 39.890625 
Q 22.75 39.890625 18.8125 39.015625 
Q 14.890625 38.140625 10.796875 36.28125 
z
" id="BitstreamVeraSans-Roman-35"/>
    </defs>
    <g transform="translate(435.7052 376.38)scale(0.2 -0.2)">
     <use xlink:href="#BitstreamVeraSans-Roman-7b"/>
     <use x="63.623046875" xlink:href="#BitstreamVeraSans-Roman-66"/>
     <use x="98.828125" xlink:href="#BitstreamVeraSans-Roman-36"/>
     <use x="162.451171875" xlink:href="#BitstreamVeraSans-Roman-2d"/>
     <use x="198.53515625" xlink:href="#BitstreamVeraSans-Roman-66"/>
     <use x="233.740234375" xlink:href="#BitstreamVeraSans-Roman-39"/>
     <use x="297.36328125" xlink:href="#BitstreamVeraSans-Roman-7d"/>
     <use x="360.986328125" xlink:href="#BitstreamVeraSans-Roman-2c"/>
     <use x="392.7734375" xlink:href="#BitstreamVeraSans-Roman-20"/>
     <use x="424.560546875" xlink:href="#BitstreamVeraSans-Roman-35"/>
     <use x="488.18359375" xlink:href="#BitstreamVeraSans-Roman-2d"/>
     <use x="524.267578125" xlink:href="#BitstreamVeraSans-Roman-44"/>
    </g>
   </g>
   <g id="text_11">
    <!-- v2.2.1.10 -->
    <defs>
     <path d="M 2.984375 54.6875 
L 12.5 54.6875 
L 29.59375 8.796875 
L 46.6875 54.6875 
L 56.203125 54.6875 
L 35.6875 0 
L 23.484375 0 
z
" id="BitstreamVeraSans-Roman-76"/>
     <path d="M 10.6875 12.40625 
L 21 12.40625 
L 21 0 
L 10.6875 0 
z
" id="BitstreamVeraSans-Roman-2e"/>
    </defs>
    <g style="fill:#808080;" transform="translate(261.4871875 378.1103125)scale(0.1 -0.1)">
     <use xlink:href="#BitstreamVeraSans-Roman-76"/>
     <use x="59.1796875" xlink:href="#BitstreamVeraSans-Roman-32"/>
     <use x="122.802734375" xlink:href="#BitstreamVeraSans-Roman-2e"/>
     <use x="154.58984375" xlink:href="#BitstreamVeraSans-Roman-32"/>
     <use x="218.212890625" xlink:href="#BitstreamVeraSans-Roman-2e"/>
     <use x="250.0" xlink:href="#BitstreamVeraSans-Roman-31"/>
     <use x="313.623046875" xlink:href="#BitstreamVeraSans-Roman-2e"/>
     <use x="345.41015625" xlink:href="#BitstreamVeraSans-Roman-31"/>
     <use x="409.033203125" xlink:href="#BitstreamVeraSans-Roman-30"/>
    </g>
   </g>
  </g>
 </g>
 <defs>
  <clipPath id="p43c2c90982">
   <rect height="381.0" width="564.24" x="3.0" y="3.0"/>
  </clipPath>
 </defs>
</svg>
