<?xml version="1.0" encoding="utf-8" standalone="no"?>
<!DOCTYPE svg PUBLIC "-//W3C//DTD SVG 1.1//EN"
  "http://www.w3.org/Graphics/SVG/1.1/DTD/svg11.dtd">
<!-- Created with matplotlib (http://matplotlib.org/) -->
<svg height="432pt" version="1.1" viewBox="0 0 576 432" width="576pt" xmlns="http://www.w3.org/2000/svg" xmlns:xlink="http://www.w3.org/1999/xlink">
 <defs>
  <style type="text/css">
*{stroke-linecap:butt;stroke-linejoin:round;stroke-miterlimit:100000;}
  </style>
 </defs>
 <g id="figure_1">
  <g id="patch_1">
   <path d="M 0 432 
L 576 432 
L 576 0 
L 0 0 
z
" style="fill:#ffffff;"/>
  </g>
  <g id="axes_1">
   <g id="patch_2">
    <path d="M 3 384 
L 567.24 384 
L 567.24 3 
L 3 3 
z
" style="fill:#ffffff;"/>
   </g>
   <g id="line2d_1">
    <path clip-path="url(#p8dbc6e0537)" d="M -1 308.554455 
L 2.856535 308.554455 
L 2.856535 233.108911 
L 352.843646 233.108911 
L 352.861803 223.049505 
L 354.27801 223.049505 
L 354.381736 212.990099 
L 354.694017 212.990099 
L 354.699282 202.930693 
L 355.061827 202.930693 
L 355.102932 192.871287 
L 355.174816 192.871287 
L 355.190829 182.811881 
L 355.683505 182.811881 
L 355.771428 167.722772 
L 356.679563 167.722772 
L 356.679563 162.693069 
L 357.121816 162.693069 
L 357.21056 147.60396 
L 357.279168 147.60396 
L 357.279168 142.574257 
L 357.695981 142.574257 
L 357.695981 137.544554 
L 357.853359 137.544554 
L 357.887413 127.485149 
L 358.55743 127.485149 
L 358.604555 117.425743 
L 358.728247 117.425743 
L 358.728247 112.39604 
L 359.002385 112.39604 
L 359.002385 107.366337 
L 359.749135 107.366337 
L 359.749135 102.336634 
L 359.975892 102.336634 
L 359.975892 97.306931 
L 360.442955 97.306931 
L 360.442955 92.277228 
L 360.572875 92.277228 
L 360.572875 87.247525 
L 361.649123 87.247525 
L 361.649123 82.217822 
L 437.288592 82.217822 
L 437.288592 77.188119 
L 440.563896 77.188119 
L 440.563896 72.158416 
L 443.15091 72.158416 
L 443.15091 67.128713 
L 448.603607 67.128713 
L 448.603607 62.09901 
L 449.637942 62.09901 
L 449.637942 57.069307 
L 449.757241 57.069307 
L 449.757241 52.039604 
L 450.211924 52.039604 
L 450.310501 41.980198 
L 450.642674 41.980198 
L 450.642674 36.950495 
L 450.763913 36.950495 
L 450.763913 31.920792 
L 450.971544 31.920792 
L 450.971544 26.891089 
L 451.736804 26.891089 
L 451.736804 21.861386 
L 452.141742 21.861386 
L 452.141742 16.831683 
L 453.337476 16.831683 
L 453.337476 11.80198 
L 457.281173 11.80198 
L 457.281173 6.772277 
L 457.281173 6.772277 
L 567.24 6.772277 
L 567.24 6.772277 
" style="fill:none;stroke:#ff0000;stroke-linecap:square;stroke-width:3.0;"/>
   </g>
   <g id="line2d_2">
    <path clip-path="url(#p8dbc6e0537)" d="M 330.105184 384 
L 330.105184 378.970297 
L 333.016335 378.970297 
L 333.016335 373.940594 
L 333.291263 373.940594 
L 333.291263 368.910891 
L 333.68288 368.910891 
L 333.68288 363.881188 
L 334.376709 363.881188 
L 334.474759 353.821782 
L 334.882974 353.821782 
L 334.882974 348.792079 
L 335.962562 348.792079 
L 336.031162 338.732673 
L 336.175534 338.732673 
L 336.175534 333.70297 
L 337.851133 333.70297 
L 337.851133 328.673267 
L 338.418127 328.673267 
L 338.418127 323.643564 
L 338.591102 323.643564 
L 338.591102 318.613861 
L 338.920465 318.613861 
L 338.920465 313.584158 
L 340.368478 313.584158 
L 340.368478 308.554455 
L 347.854265 308.554455 
L 347.854265 303.524752 
L 349.1683 303.524752 
L 349.175432 293.465347 
L 349.843654 293.465347 
L 349.902813 283.405941 
L 350.132128 283.405941 
L 350.132128 278.376238 
L 351.28414 278.376238 
L 351.28414 273.346535 
L 351.651021 273.346535 
L 351.703862 258.257426 
L 351.988274 258.257426 
L 351.988274 253.227723 
L 352.183155 253.227723 
L 352.183155 248.19802 
L 352.377758 248.19802 
L 352.377758 243.168317 
L 352.788424 243.168317 
L 352.85516 233.108911 
L 357.875456 233.108911 
L 357.875456 228.079208 
L 358.729914 228.079208 
L 358.837526 218.019802 
L 359.351849 218.019802 
L 359.351849 212.990099 
L 359.975892 212.990099 
L 359.975892 207.960396 
L 360.768416 207.960396 
L 360.768416 202.930693 
L 361.106914 202.930693 
L 361.106914 197.90099 
L 361.375719 197.90099 
L 361.472143 187.841584 
L 361.604403 187.841584 
L 361.689781 177.782178 
L 361.720621 177.782178 
L 361.720621 172.752475 
L 362.382081 172.752475 
L 362.382081 167.722772 
L 362.775431 167.722772 
L 362.776513 157.663366 
L 362.980271 157.663366 
L 362.980271 152.633663 
L 363.18551 152.633663 
L 363.204896 142.574257 
L 363.349963 142.574257 
L 363.349963 137.544554 
L 363.67483 137.544554 
L 363.758675 127.485149 
L 364.459088 127.485149 
L 364.459088 122.455446 
L 365.078302 122.455446 
L 365.078302 117.425743 
L 365.259344 117.425743 
L 365.259344 112.39604 
L 365.536705 112.39604 
L 365.536705 107.366337 
L 366.724345 107.366337 
L 366.778655 92.277228 
L 367.303724 92.277228 
L 367.303724 87.247525 
L 367.849202 87.247525 
L 367.849202 82.217822 
L 483.538708 82.217822 
L 483.538708 77.188119 
L 486.968942 77.188119 
L 486.968942 72.158416 
L 487.49364 72.158416 
L 487.49364 67.128713 
L 487.811401 67.128713 
L 487.811401 62.09901 
L 488.854937 62.09901 
L 488.854937 57.069307 
L 493.095531 57.069307 
L 493.095531 52.039604 
L 494.983151 52.039604 
L 494.983151 47.009901 
L 496.121281 47.009901 
L 496.121281 41.980198 
L 496.586531 41.980198 
L 496.586531 36.950495 
L 497.467197 36.950495 
L 497.467197 31.920792 
L 501.055663 31.920792 
L 501.055663 26.891089 
L 501.428464 26.891089 
L 501.428464 21.861386 
L 501.834625 21.861386 
L 501.839539 11.80198 
L 502.045577 11.80198 
L 502.045577 6.772277 
L 502.045577 6.772277 
L 567.24 6.772277 
L 567.24 6.772277 
" style="fill:none;stroke:#00bfbf;stroke-linecap:square;"/>
   </g>
   <g id="line2d_3">
    <path clip-path="url(#p8dbc6e0537)" d="M 330.105184 384 
L 330.105184 378.970297 
L 333.016335 378.970297 
L 333.016335 373.940594 
L 333.291263 373.940594 
L 333.291263 368.910891 
L 333.68288 368.910891 
L 333.68288 363.881188 
L 334.376709 363.881188 
L 334.474759 353.821782 
L 334.882974 353.821782 
L 334.882974 348.792079 
L 335.962562 348.792079 
L 336.031162 338.732673 
L 336.175534 338.732673 
L 336.175534 333.70297 
L 337.851133 333.70297 
L 337.851133 328.673267 
L 338.418127 328.673267 
L 338.418127 323.643564 
L 338.591102 323.643564 
L 338.591102 318.613861 
L 338.920465 318.613861 
L 338.920465 313.584158 
L 340.368478 313.584158 
L 340.368478 308.554455 
L 346.63655 308.554455 
L 346.63655 303.524752 
L 347.854265 303.524752 
L 347.854265 298.49505 
L 349.1683 298.49505 
L 349.175432 288.435644 
L 349.700479 288.435644 
L 349.700479 283.405941 
L 349.843654 283.405941 
L 349.902813 273.346535 
L 350.132128 273.346535 
L 350.132128 268.316832 
L 351.077355 268.316832 
L 351.077355 263.287129 
L 351.400172 263.287129 
L 351.400172 258.257426 
L 351.651021 258.257426 
L 351.703862 248.19802 
L 351.988274 248.19802 
L 351.988274 243.168317 
L 352.183155 243.168317 
L 352.229096 233.108911 
L 357.875456 233.108911 
L 357.875456 228.079208 
L 358.729914 228.079208 
L 358.837526 218.019802 
L 359.351849 218.019802 
L 359.351849 212.990099 
L 359.975892 212.990099 
L 359.975892 207.960396 
L 360.768416 207.960396 
L 360.768416 202.930693 
L 361.106914 202.930693 
L 361.106914 197.90099 
L 361.375719 197.90099 
L 361.472143 187.841584 
L 361.604403 187.841584 
L 361.689781 177.782178 
L 361.720621 177.782178 
L 361.720621 172.752475 
L 362.382081 172.752475 
L 362.382081 167.722772 
L 362.775431 167.722772 
L 362.776513 157.663366 
L 362.980271 157.663366 
L 362.980271 152.633663 
L 363.18551 152.633663 
L 363.204896 142.574257 
L 363.349963 142.574257 
L 363.349963 137.544554 
L 363.67483 137.544554 
L 363.758675 127.485149 
L 364.459088 127.485149 
L 364.459088 122.455446 
L 365.078302 122.455446 
L 365.078302 117.425743 
L 365.259344 117.425743 
L 365.259344 112.39604 
L 365.536705 112.39604 
L 365.536705 107.366337 
L 366.724345 107.366337 
L 366.778655 92.277228 
L 367.303724 92.277228 
L 367.303724 87.247525 
L 367.849202 87.247525 
L 367.849202 82.217822 
L 476.62459 82.217822 
L 476.62459 77.188119 
L 478.872833 77.188119 
L 478.872833 72.158416 
L 483.538708 72.158416 
L 483.538708 67.128713 
L 486.968942 67.128713 
L 486.968942 62.09901 
L 487.49364 62.09901 
L 487.49364 57.069307 
L 488.854937 57.069307 
L 488.854937 52.039604 
L 492.109282 52.039604 
L 492.109282 47.009901 
L 493.288056 47.009901 
L 493.288056 41.980198 
L 494.983151 41.980198 
L 494.983151 36.950495 
L 496.121281 36.950495 
L 496.121281 31.920792 
L 496.586531 31.920792 
L 496.586531 26.891089 
L 497.467197 26.891089 
L 497.467197 21.861386 
L 501.055663 21.861386 
L 501.055663 16.831683 
L 501.839539 16.831683 
L 501.839539 11.80198 
L 502.045577 11.80198 
L 502.045577 6.772277 
L 502.045577 6.772277 
L 567.24 6.772277 
L 567.24 6.772277 
" style="fill:none;stroke:#bf00bf;stroke-linecap:square;"/>
   </g>
   <g id="line2d_4">
    <path clip-path="url(#p8dbc6e0537)" d="M 330.105184 384 
L 330.105184 378.970297 
L 333.016335 378.970297 
L 333.016335 373.940594 
L 333.291263 373.940594 
L 333.291263 368.910891 
L 333.68288 368.910891 
L 333.68288 363.881188 
L 334.376709 363.881188 
L 334.474759 353.821782 
L 334.882974 353.821782 
L 334.882974 348.792079 
L 335.962562 348.792079 
L 336.031162 338.732673 
L 336.175534 338.732673 
L 336.175534 333.70297 
L 336.976044 333.70297 
L 336.976044 328.673267 
L 337.589179 328.673267 
L 337.589179 323.643564 
L 337.851133 323.643564 
L 337.851133 318.613861 
L 338.418127 318.613861 
L 338.418127 313.584158 
L 338.591102 313.584158 
L 338.660291 303.524752 
L 338.859935 303.524752 
L 338.920465 293.465347 
L 339.208924 293.465347 
L 339.259788 283.405941 
L 339.704784 283.405941 
L 339.704784 278.376238 
L 339.958133 278.376238 
L 339.958133 273.346535 
L 340.10329 273.346535 
L 340.171837 263.287129 
L 340.303648 263.287129 
L 340.368478 253.227723 
L 341.227597 253.227723 
L 341.278875 243.168317 
L 341.871019 243.168317 
L 341.871019 238.138614 
L 343.427109 238.138614 
L 343.427109 233.108911 
L 357.875456 233.108911 
L 357.875456 228.079208 
L 358.729914 228.079208 
L 358.837526 218.019802 
L 359.351849 218.019802 
L 359.351849 212.990099 
L 359.975892 212.990099 
L 359.975892 207.960396 
L 360.768416 207.960396 
L 360.768416 202.930693 
L 361.106914 202.930693 
L 361.106914 197.90099 
L 361.375719 197.90099 
L 361.472143 187.841584 
L 361.604403 187.841584 
L 361.689781 177.782178 
L 361.720621 177.782178 
L 361.720621 172.752475 
L 362.382081 172.752475 
L 362.382081 167.722772 
L 362.775431 167.722772 
L 362.776513 157.663366 
L 362.980271 157.663366 
L 362.980271 152.633663 
L 363.18551 152.633663 
L 363.204896 142.574257 
L 363.349963 142.574257 
L 363.349963 137.544554 
L 363.67483 137.544554 
L 363.758675 127.485149 
L 364.459088 127.485149 
L 364.459088 122.455446 
L 365.078302 122.455446 
L 365.078302 117.425743 
L 365.259344 117.425743 
L 365.259344 112.39604 
L 365.536705 112.39604 
L 365.536705 107.366337 
L 366.724345 107.366337 
L 366.778655 92.277228 
L 367.303724 92.277228 
L 367.303724 87.247525 
L 367.849202 87.247525 
L 367.849202 82.217822 
L 476.62459 82.217822 
L 476.62459 77.188119 
L 478.872833 77.188119 
L 478.872833 72.158416 
L 483.538708 72.158416 
L 483.538708 67.128713 
L 486.968942 67.128713 
L 486.968942 62.09901 
L 487.49364 62.09901 
L 487.49364 57.069307 
L 488.854937 57.069307 
L 488.854937 52.039604 
L 492.109282 52.039604 
L 492.109282 47.009901 
L 493.288056 47.009901 
L 493.288056 41.980198 
L 494.983151 41.980198 
L 494.983151 36.950495 
L 496.121281 36.950495 
L 496.121281 31.920792 
L 496.586531 31.920792 
L 496.586531 26.891089 
L 497.467197 26.891089 
L 497.467197 21.861386 
L 501.055663 21.861386 
L 501.055663 16.831683 
L 501.839539 16.831683 
L 501.839539 11.80198 
L 502.045577 11.80198 
L 502.045577 6.772277 
L 502.045577 6.772277 
L 567.24 6.772277 
L 567.24 6.772277 
" style="fill:none;stroke:#000000;stroke-linecap:square;"/>
   </g>
   <g id="line2d_5">
    <path clip-path="url(#p8dbc6e0537)" d="M -1 323.643564 
L 84.642508 323.643564 
L 84.642508 318.613861 
L 84.88776 318.613861 
L 84.88776 313.584158 
L 89.033969 313.584158 
L 89.033969 308.554455 
L 321.693306 308.554455 
L 321.693306 303.524752 
L 326.566947 303.524752 
L 326.566947 298.49505 
L 331.71893 298.49505 
L 331.71893 293.465347 
L 332.45764 293.465347 
L 332.522091 283.405941 
L 332.811762 283.405941 
L 332.811762 278.376238 
L 334.833923 278.376238 
L 334.87725 268.316832 
L 335.796633 268.316832 
L 335.796633 263.287129 
L 336.113386 263.287129 
L 336.114059 253.227723 
L 336.300125 253.227723 
L 336.300125 248.19802 
L 336.518864 248.19802 
L 336.518864 243.168317 
L 336.725853 243.168317 
L 336.725853 238.138614 
L 337.072903 238.138614 
L 337.072903 233.108911 
L 357.875456 233.108911 
L 357.875456 228.079208 
L 358.729914 228.079208 
L 358.837526 218.019802 
L 359.351849 218.019802 
L 359.351849 212.990099 
L 359.975892 212.990099 
L 359.975892 207.960396 
L 360.768416 207.960396 
L 360.768416 202.930693 
L 361.106914 202.930693 
L 361.106914 197.90099 
L 361.375719 197.90099 
L 361.472143 187.841584 
L 361.604403 187.841584 
L 361.689781 177.782178 
L 361.720621 177.782178 
L 361.720621 172.752475 
L 362.382081 172.752475 
L 362.382081 167.722772 
L 362.775431 167.722772 
L 362.776513 157.663366 
L 362.980271 157.663366 
L 362.980271 152.633663 
L 363.18551 152.633663 
L 363.204896 142.574257 
L 363.349963 142.574257 
L 363.349963 137.544554 
L 363.67483 137.544554 
L 363.758675 127.485149 
L 364.459088 127.485149 
L 364.459088 122.455446 
L 365.078302 122.455446 
L 365.078302 117.425743 
L 365.259344 117.425743 
L 365.259344 112.39604 
L 365.536705 112.39604 
L 365.536705 107.366337 
L 366.724345 107.366337 
L 366.778655 92.277228 
L 367.303724 92.277228 
L 367.303724 87.247525 
L 367.849202 87.247525 
L 367.849202 82.217822 
L 468.300758 82.217822 
L 468.300758 77.188119 
L 476.62459 77.188119 
L 476.62459 72.158416 
L 478.872833 72.158416 
L 478.872833 67.128713 
L 483.538708 67.128713 
L 483.538708 62.09901 
L 485.493149 62.09901 
L 485.493149 57.069307 
L 486.575263 57.069307 
L 486.575263 52.039604 
L 486.968942 52.039604 
L 486.968942 47.009901 
L 487.49364 47.009901 
L 487.49364 41.980198 
L 490.053937 41.980198 
L 490.053937 36.950495 
L 492.109282 36.950495 
L 492.109282 31.920792 
L 493.288056 31.920792 
L 493.288056 26.891089 
L 494.630013 26.891089 
L 494.630013 21.861386 
L 494.983151 21.861386 
L 494.983151 16.831683 
L 496.583581 16.831683 
L 496.583581 11.80198 
L 497.467197 11.80198 
L 497.467197 6.772277 
L 497.467197 6.772277 
L 567.24 6.772277 
L 567.24 6.772277 
" style="fill:none;stroke:#00bfbf;stroke-linecap:square;"/>
   </g>
   <g id="line2d_6">
    <path clip-path="url(#p8dbc6e0537)" d="M -1 308.554455 
L 310.965043 308.554455 
L 310.965043 303.524752 
L 313.94255 303.524752 
L 313.94255 298.49505 
L 315.207438 298.49505 
L 315.207438 293.465347 
L 317.650485 293.465347 
L 317.650485 288.435644 
L 317.916208 288.435644 
L 317.916208 283.405941 
L 319.306862 283.405941 
L 319.306862 278.376238 
L 320.963181 278.376238 
L 320.963181 273.346535 
L 321.112461 273.346535 
L 321.112461 268.316832 
L 321.779628 268.316832 
L 321.779628 263.287129 
L 322.977702 263.287129 
L 322.977702 258.257426 
L 328.419418 258.257426 
L 328.419418 253.227723 
L 330.505336 253.227723 
L 330.505336 248.19802 
L 330.920306 248.19802 
L 330.920306 243.168317 
L 331.964042 243.168317 
L 331.964042 238.138614 
L 332.305483 238.138614 
L 332.305483 233.108911 
L 357.875456 233.108911 
L 357.875456 228.079208 
L 358.729914 228.079208 
L 358.837526 218.019802 
L 359.351849 218.019802 
L 359.351849 212.990099 
L 359.975892 212.990099 
L 359.975892 207.960396 
L 360.768416 207.960396 
L 360.768416 202.930693 
L 361.106914 202.930693 
L 361.106914 197.90099 
L 361.375719 197.90099 
L 361.472143 182.811881 
L 361.604403 182.811881 
L 361.689781 172.752475 
L 361.720621 172.752475 
L 361.720621 167.722772 
L 361.937175 167.722772 
L 361.937175 162.693069 
L 362.364341 162.693069 
L 362.382081 152.633663 
L 362.746879 152.633663 
L 362.776513 137.544554 
L 362.934059 137.544554 
L 362.980271 127.485149 
L 363.18551 127.485149 
L 363.18551 122.455446 
L 363.652625 122.455446 
L 363.758675 107.366337 
L 364.459088 107.366337 
L 364.459088 102.336634 
L 364.854055 102.336634 
L 364.854055 97.306931 
L 366.724345 97.306931 
L 366.75539 87.247525 
L 367.303724 87.247525 
L 367.303724 82.217822 
L 468.300758 82.217822 
L 468.300758 77.188119 
L 471.178575 77.188119 
L 471.178575 72.158416 
L 474.270494 72.158416 
L 474.270494 67.128713 
L 474.801697 67.128713 
L 474.801697 62.09901 
L 476.008709 62.09901 
L 476.008709 57.069307 
L 476.274335 57.069307 
L 476.274335 52.039604 
L 476.949941 52.039604 
L 476.949941 47.009901 
L 479.575639 47.009901 
L 479.575639 41.980198 
L 480.154686 41.980198 
L 480.154686 36.950495 
L 480.366485 36.950495 
L 480.366485 31.920792 
L 481.837189 31.920792 
L 481.837189 26.891089 
L 482.356625 26.891089 
L 482.356625 21.861386 
L 482.557244 21.861386 
L 482.557244 16.831683 
L 484.089962 16.831683 
L 484.089962 11.80198 
L 487.33947 11.80198 
L 487.33947 6.772277 
L 487.33947 6.772277 
L 567.24 6.772277 
L 567.24 6.772277 
" style="fill:none;stroke:#bf00bf;stroke-linecap:square;"/>
   </g>
   <g id="line2d_7">
    <path clip-path="url(#p8dbc6e0537)" d="M -1 308.554455 
L 2.856535 308.554455 
L 2.856535 233.108911 
L 356.32349 233.108911 
L 356.32349 228.079208 
L 357.774739 228.079208 
L 357.875456 218.019802 
L 358.729914 218.019802 
L 358.837526 207.960396 
L 358.856742 207.960396 
L 358.965446 197.90099 
L 359.351849 197.90099 
L 359.351849 192.871287 
L 359.490872 192.871287 
L 359.490872 187.841584 
L 359.719774 187.841584 
L 359.719774 182.811881 
L 359.975892 182.811881 
L 360.006055 172.752475 
L 360.170268 172.752475 
L 360.170268 167.722772 
L 360.433297 167.722772 
L 360.433297 162.693069 
L 360.723496 162.693069 
L 360.768416 152.633663 
L 361.106914 152.633663 
L 361.106914 147.60396 
L 361.463703 147.60396 
L 361.472143 137.544554 
L 361.604403 137.544554 
L 361.695672 117.425743 
L 361.720621 117.425743 
L 361.720621 112.39604 
L 361.896319 112.39604 
L 361.896319 107.366337 
L 362.077684 107.366337 
L 362.077684 102.336634 
L 362.364341 102.336634 
L 362.382081 92.277228 
L 362.775431 92.277228 
L 362.776513 82.217822 
L 437.288592 82.217822 
L 437.288592 77.188119 
L 448.603607 77.188119 
L 448.603607 72.158416 
L 450.310501 72.158416 
L 450.310501 67.128713 
L 450.971544 67.128713 
L 450.971544 62.09901 
L 454.424555 62.09901 
L 454.424555 57.069307 
L 455.34695 57.069307 
L 455.34695 52.039604 
L 456.132279 52.039604 
L 456.132279 47.009901 
L 456.708787 47.009901 
L 456.708787 41.980198 
L 457.934443 41.980198 
L 457.934443 36.950495 
L 461.625771 36.950495 
L 461.625771 31.920792 
L 462.706694 31.920792 
L 462.706694 26.891089 
L 463.154127 26.891089 
L 463.154127 21.861386 
L 463.711294 21.861386 
L 463.711294 16.831683 
L 464.058931 16.831683 
L 464.058931 11.80198 
L 464.976166 11.80198 
L 464.976166 6.772277 
L 464.976166 6.772277 
L 567.24 6.772277 
L 567.24 6.772277 
" style="fill:none;stroke:#000000;stroke-linecap:square;"/>
   </g>
   <g id="line2d_8">
    <path clip-path="url(#p8dbc6e0537)" d="M -1 308.554455 
L 2.856535 308.554455 
L 2.856535 233.108911 
L 352.843646 233.108911 
L 352.843646 228.079208 
L 353.879517 228.079208 
L 353.879517 223.049505 
L 354.27801 223.049505 
L 354.27801 218.019802 
L 354.699282 218.019802 
L 354.699282 212.990099 
L 355.061827 212.990099 
L 355.061827 207.960396 
L 355.683505 207.960396 
L 355.771428 192.871287 
L 356.070885 192.871287 
L 356.070885 187.841584 
L 356.301477 187.841584 
L 356.350746 177.782178 
L 356.430311 177.782178 
L 356.430311 172.752475 
L 356.679563 172.752475 
L 356.679563 167.722772 
L 357.21056 167.722772 
L 357.298215 157.663366 
L 357.853359 157.663366 
L 357.853359 152.633663 
L 358.043519 152.633663 
L 358.043519 147.60396 
L 358.524655 147.60396 
L 358.524655 142.574257 
L 358.689354 142.574257 
L 358.728247 132.514851 
L 359.282593 132.514851 
L 359.282593 127.485149 
L 359.749135 127.485149 
L 359.749135 122.455446 
L 359.897447 122.455446 
L 359.975892 112.39604 
L 360.359206 112.39604 
L 360.359206 107.366337 
L 360.572875 107.366337 
L 360.572875 102.336634 
L 360.900152 102.336634 
L 360.900152 97.306931 
L 361.30308 97.306931 
L 361.30308 92.277228 
L 361.649123 92.277228 
L 361.649123 87.247525 
L 362.775431 87.247525 
L 362.775431 82.217822 
L 437.288592 82.217822 
L 437.288592 77.188119 
L 443.15091 77.188119 
L 443.15091 72.158416 
L 448.603607 72.158416 
L 448.603607 67.128713 
L 449.637942 67.128713 
L 449.637942 62.09901 
L 449.757241 62.09901 
L 449.757241 57.069307 
L 450.211924 57.069307 
L 450.310501 47.009901 
L 450.642674 47.009901 
L 450.642674 41.980198 
L 450.971544 41.980198 
L 450.971544 36.950495 
L 451.736804 36.950495 
L 451.736804 31.920792 
L 452.141742 31.920792 
L 452.141742 26.891089 
L 453.253317 26.891089 
L 453.337476 16.831683 
L 453.907089 16.831683 
L 453.907089 11.80198 
L 460.128347 11.80198 
L 460.128347 6.772277 
L 460.128347 6.772277 
L 567.24 6.772277 
L 567.24 6.772277 
" style="fill:none;stroke:#00bfbf;stroke-linecap:square;"/>
   </g>
   <g id="patch_3">
    <path d="M 3 3 
L 567.24 3 
" style="fill:none;stroke:#000000;stroke-linecap:square;stroke-linejoin:miter;"/>
   </g>
   <g id="patch_4">
    <path d="M 567.24 384 
L 567.24 3 
" style="fill:none;stroke:#000000;stroke-linecap:square;stroke-linejoin:miter;"/>
   </g>
   <g id="patch_5">
    <path d="M 3 384 
L 567.24 384 
" style="fill:none;stroke:#000000;stroke-linecap:square;stroke-linejoin:miter;"/>
   </g>
   <g id="patch_6">
    <path d="M 3 384 
L 3 3 
" style="fill:none;stroke:#000000;stroke-linecap:square;stroke-linejoin:miter;"/>
   </g>
   <g id="matplotlib.axis_1">
    <g id="xtick_1"/>
    <g id="xtick_2">
     <g id="line2d_9">
      <path clip-path="url(#p8dbc6e0537)" d="M 69.254589 384 
L 69.254589 3 
" style="fill:none;stroke:#000000;stroke-dasharray:1.000000,3.000000;stroke-dashoffset:0.0;stroke-width:0.5;"/>
     </g>
     <g id="line2d_10">
      <defs>
       <path d="M 0 0 
L 0 -4 
" id="m6848cbb9d5" style="stroke:#000000;stroke-width:0.5;"/>
      </defs>
      <g>
       <use style="stroke:#000000;stroke-width:0.5;" x="69.2545893472" xlink:href="#m6848cbb9d5" y="384.0"/>
      </g>
     </g>
     <g id="line2d_11">
      <defs>
       <path d="M 0 0 
L 0 4 
" id="m183b0ef75c" style="stroke:#000000;stroke-width:0.5;"/>
      </defs>
      <g>
       <use style="stroke:#000000;stroke-width:0.5;" x="69.2545893472" xlink:href="#m183b0ef75c" y="3.0"/>
      </g>
     </g>
     <g id="text_1">
      <!-- -6 -->
      <defs>
       <path d="M 33.015625 40.375 
Q 26.375 40.375 22.484375 35.828125 
Q 18.609375 31.296875 18.609375 23.390625 
Q 18.609375 15.53125 22.484375 10.953125 
Q 26.375 6.390625 33.015625 6.390625 
Q 39.65625 6.390625 43.53125 10.953125 
Q 47.40625 15.53125 47.40625 23.390625 
Q 47.40625 31.296875 43.53125 35.828125 
Q 39.65625 40.375 33.015625 40.375 
M 52.59375 71.296875 
L 52.59375 62.3125 
Q 48.875 64.0625 45.09375 64.984375 
Q 41.3125 65.921875 37.59375 65.921875 
Q 27.828125 65.921875 22.671875 59.328125 
Q 17.53125 52.734375 16.796875 39.40625 
Q 19.671875 43.65625 24.015625 45.921875 
Q 28.375 48.1875 33.59375 48.1875 
Q 44.578125 48.1875 50.953125 41.515625 
Q 57.328125 34.859375 57.328125 23.390625 
Q 57.328125 12.15625 50.6875 5.359375 
Q 44.046875 -1.421875 33.015625 -1.421875 
Q 20.359375 -1.421875 13.671875 8.265625 
Q 6.984375 17.96875 6.984375 36.375 
Q 6.984375 53.65625 15.1875 63.9375 
Q 23.390625 74.21875 37.203125 74.21875 
Q 40.921875 74.21875 44.703125 73.484375 
Q 48.484375 72.75 52.59375 71.296875 
" id="BitstreamVeraSans-Roman-36"/>
       <path d="M 4.890625 31.390625 
L 31.203125 31.390625 
L 31.203125 23.390625 
L 4.890625 23.390625 
z
" id="BitstreamVeraSans-Roman-2d"/>
      </defs>
      <g transform="translate(59.2842768472 403.196875)scale(0.2 -0.2)">
       <use xlink:href="#BitstreamVeraSans-Roman-2d"/>
       <use x="36.083984375" xlink:href="#BitstreamVeraSans-Roman-36"/>
      </g>
     </g>
    </g>
    <g id="xtick_3">
     <g id="line2d_12">
      <path clip-path="url(#p8dbc6e0537)" d="M 135.652644 384 
L 135.652644 3 
" style="fill:none;stroke:#000000;stroke-dasharray:1.000000,3.000000;stroke-dashoffset:0.0;stroke-width:0.5;"/>
     </g>
     <g id="line2d_13">
      <g>
       <use style="stroke:#000000;stroke-width:0.5;" x="135.652644101" xlink:href="#m6848cbb9d5" y="384.0"/>
      </g>
     </g>
     <g id="line2d_14">
      <g>
       <use style="stroke:#000000;stroke-width:0.5;" x="135.652644101" xlink:href="#m183b0ef75c" y="3.0"/>
      </g>
     </g>
     <g id="text_2">
      <!-- -4 -->
      <defs>
       <path d="M 37.796875 64.3125 
L 12.890625 25.390625 
L 37.796875 25.390625 
z
M 35.203125 72.90625 
L 47.609375 72.90625 
L 47.609375 25.390625 
L 58.015625 25.390625 
L 58.015625 17.1875 
L 47.609375 17.1875 
L 47.609375 0 
L 37.796875 0 
L 37.796875 17.1875 
L 4.890625 17.1875 
L 4.890625 26.703125 
z
" id="BitstreamVeraSans-Roman-34"/>
      </defs>
      <g transform="translate(125.682331601 403.196875)scale(0.2 -0.2)">
       <use xlink:href="#BitstreamVeraSans-Roman-2d"/>
       <use x="36.083984375" xlink:href="#BitstreamVeraSans-Roman-34"/>
      </g>
     </g>
    </g>
    <g id="xtick_4">
     <g id="line2d_15">
      <path clip-path="url(#p8dbc6e0537)" d="M 202.050699 384 
L 202.050699 3 
" style="fill:none;stroke:#000000;stroke-dasharray:1.000000,3.000000;stroke-dashoffset:0.0;stroke-width:0.5;"/>
     </g>
     <g id="line2d_16">
      <g>
       <use style="stroke:#000000;stroke-width:0.5;" x="202.050698855" xlink:href="#m6848cbb9d5" y="384.0"/>
      </g>
     </g>
     <g id="line2d_17">
      <g>
       <use style="stroke:#000000;stroke-width:0.5;" x="202.050698855" xlink:href="#m183b0ef75c" y="3.0"/>
      </g>
     </g>
     <g id="text_3">
      <!-- -2 -->
      <defs>
       <path d="M 19.1875 8.296875 
L 53.609375 8.296875 
L 53.609375 0 
L 7.328125 0 
L 7.328125 8.296875 
Q 12.9375 14.109375 22.625 23.890625 
Q 32.328125 33.6875 34.8125 36.53125 
Q 39.546875 41.84375 41.421875 45.53125 
Q 43.3125 49.21875 43.3125 52.78125 
Q 43.3125 58.59375 39.234375 62.25 
Q 35.15625 65.921875 28.609375 65.921875 
Q 23.96875 65.921875 18.8125 64.3125 
Q 13.671875 62.703125 7.8125 59.421875 
L 7.8125 69.390625 
Q 13.765625 71.78125 18.9375 73 
Q 24.125 74.21875 28.421875 74.21875 
Q 39.75 74.21875 46.484375 68.546875 
Q 53.21875 62.890625 53.21875 53.421875 
Q 53.21875 48.921875 51.53125 44.890625 
Q 49.859375 40.875 45.40625 35.40625 
Q 44.1875 33.984375 37.640625 27.21875 
Q 31.109375 20.453125 19.1875 8.296875 
" id="BitstreamVeraSans-Roman-32"/>
      </defs>
      <g transform="translate(192.080386355 403.196875)scale(0.2 -0.2)">
       <use xlink:href="#BitstreamVeraSans-Roman-2d"/>
       <use x="36.083984375" xlink:href="#BitstreamVeraSans-Roman-32"/>
      </g>
     </g>
    </g>
    <g id="xtick_5">
     <g id="line2d_18">
      <path clip-path="url(#p8dbc6e0537)" d="M 268.448754 384 
L 268.448754 3 
" style="fill:none;stroke:#000000;stroke-dasharray:1.000000,3.000000;stroke-dashoffset:0.0;stroke-width:0.5;"/>
     </g>
     <g id="line2d_19">
      <g>
       <use style="stroke:#000000;stroke-width:0.5;" x="268.448753608" xlink:href="#m6848cbb9d5" y="384.0"/>
      </g>
     </g>
     <g id="line2d_20">
      <g>
       <use style="stroke:#000000;stroke-width:0.5;" x="268.448753608" xlink:href="#m183b0ef75c" y="3.0"/>
      </g>
     </g>
     <g id="text_4">
      <!-- 0 -->
      <defs>
       <path d="M 31.78125 66.40625 
Q 24.171875 66.40625 20.328125 58.90625 
Q 16.5 51.421875 16.5 36.375 
Q 16.5 21.390625 20.328125 13.890625 
Q 24.171875 6.390625 31.78125 6.390625 
Q 39.453125 6.390625 43.28125 13.890625 
Q 47.125 21.390625 47.125 36.375 
Q 47.125 51.421875 43.28125 58.90625 
Q 39.453125 66.40625 31.78125 66.40625 
M 31.78125 74.21875 
Q 44.046875 74.21875 50.515625 64.515625 
Q 56.984375 54.828125 56.984375 36.375 
Q 56.984375 17.96875 50.515625 8.265625 
Q 44.046875 -1.421875 31.78125 -1.421875 
Q 19.53125 -1.421875 13.0625 8.265625 
Q 6.59375 17.96875 6.59375 36.375 
Q 6.59375 54.828125 13.0625 64.515625 
Q 19.53125 74.21875 31.78125 74.21875 
" id="BitstreamVeraSans-Roman-30"/>
      </defs>
      <g transform="translate(262.086253608 403.196875)scale(0.2 -0.2)">
       <use xlink:href="#BitstreamVeraSans-Roman-30"/>
      </g>
     </g>
    </g>
    <g id="xtick_6">
     <g id="line2d_21">
      <path clip-path="url(#p8dbc6e0537)" d="M 334.846808 384 
L 334.846808 3 
" style="fill:none;stroke:#000000;stroke-dasharray:1.000000,3.000000;stroke-dashoffset:0.0;stroke-width:0.5;"/>
     </g>
     <g id="line2d_22">
      <g>
       <use style="stroke:#000000;stroke-width:0.5;" x="334.846808362" xlink:href="#m6848cbb9d5" y="384.0"/>
      </g>
     </g>
     <g id="line2d_23">
      <g>
       <use style="stroke:#000000;stroke-width:0.5;" x="334.846808362" xlink:href="#m183b0ef75c" y="3.0"/>
      </g>
     </g>
     <g id="text_5">
      <!-- 2 -->
      <g transform="translate(328.484308362 403.196875)scale(0.2 -0.2)">
       <use xlink:href="#BitstreamVeraSans-Roman-32"/>
      </g>
     </g>
    </g>
    <g id="xtick_7">
     <g id="line2d_24">
      <path clip-path="url(#p8dbc6e0537)" d="M 401.244863 384 
L 401.244863 3 
" style="fill:none;stroke:#000000;stroke-dasharray:1.000000,3.000000;stroke-dashoffset:0.0;stroke-width:0.5;"/>
     </g>
     <g id="line2d_25">
      <g>
       <use style="stroke:#000000;stroke-width:0.5;" x="401.244863116" xlink:href="#m6848cbb9d5" y="384.0"/>
      </g>
     </g>
     <g id="line2d_26">
      <g>
       <use style="stroke:#000000;stroke-width:0.5;" x="401.244863116" xlink:href="#m183b0ef75c" y="3.0"/>
      </g>
     </g>
     <g id="text_6">
      <!-- 4 -->
      <g transform="translate(394.882363116 403.196875)scale(0.2 -0.2)">
       <use xlink:href="#BitstreamVeraSans-Roman-34"/>
      </g>
     </g>
    </g>
    <g id="xtick_8">
     <g id="line2d_27">
      <path clip-path="url(#p8dbc6e0537)" d="M 467.642918 384 
L 467.642918 3 
" style="fill:none;stroke:#000000;stroke-dasharray:1.000000,3.000000;stroke-dashoffset:0.0;stroke-width:0.5;"/>
     </g>
     <g id="line2d_28">
      <g>
       <use style="stroke:#000000;stroke-width:0.5;" x="467.642917869" xlink:href="#m6848cbb9d5" y="384.0"/>
      </g>
     </g>
     <g id="line2d_29">
      <g>
       <use style="stroke:#000000;stroke-width:0.5;" x="467.642917869" xlink:href="#m183b0ef75c" y="3.0"/>
      </g>
     </g>
     <g id="text_7">
      <!-- 6 -->
      <g transform="translate(461.280417869 403.196875)scale(0.2 -0.2)">
       <use xlink:href="#BitstreamVeraSans-Roman-36"/>
      </g>
     </g>
    </g>
    <g id="xtick_9">
     <g id="line2d_30">
      <path clip-path="url(#p8dbc6e0537)" d="M 534.040973 384 
L 534.040973 3 
" style="fill:none;stroke:#000000;stroke-dasharray:1.000000,3.000000;stroke-dashoffset:0.0;stroke-width:0.5;"/>
     </g>
     <g id="line2d_31">
      <g>
       <use style="stroke:#000000;stroke-width:0.5;" x="534.040972623" xlink:href="#m6848cbb9d5" y="384.0"/>
      </g>
     </g>
     <g id="line2d_32">
      <g>
       <use style="stroke:#000000;stroke-width:0.5;" x="534.040972623" xlink:href="#m183b0ef75c" y="3.0"/>
      </g>
     </g>
     <g id="text_8">
      <!-- 8 -->
      <defs>
       <path d="M 31.78125 34.625 
Q 24.75 34.625 20.71875 30.859375 
Q 16.703125 27.09375 16.703125 20.515625 
Q 16.703125 13.921875 20.71875 10.15625 
Q 24.75 6.390625 31.78125 6.390625 
Q 38.8125 6.390625 42.859375 10.171875 
Q 46.921875 13.96875 46.921875 20.515625 
Q 46.921875 27.09375 42.890625 30.859375 
Q 38.875 34.625 31.78125 34.625 
M 21.921875 38.8125 
Q 15.578125 40.375 12.03125 44.71875 
Q 8.5 49.078125 8.5 55.328125 
Q 8.5 64.0625 14.71875 69.140625 
Q 20.953125 74.21875 31.78125 74.21875 
Q 42.671875 74.21875 48.875 69.140625 
Q 55.078125 64.0625 55.078125 55.328125 
Q 55.078125 49.078125 51.53125 44.71875 
Q 48 40.375 41.703125 38.8125 
Q 48.828125 37.15625 52.796875 32.3125 
Q 56.78125 27.484375 56.78125 20.515625 
Q 56.78125 9.90625 50.3125 4.234375 
Q 43.84375 -1.421875 31.78125 -1.421875 
Q 19.734375 -1.421875 13.25 4.234375 
Q 6.78125 9.90625 6.78125 20.515625 
Q 6.78125 27.484375 10.78125 32.3125 
Q 14.796875 37.15625 21.921875 38.8125 
M 18.3125 54.390625 
Q 18.3125 48.734375 21.84375 45.5625 
Q 25.390625 42.390625 31.78125 42.390625 
Q 38.140625 42.390625 41.71875 45.5625 
Q 45.3125 48.734375 45.3125 54.390625 
Q 45.3125 60.0625 41.71875 63.234375 
Q 38.140625 66.40625 31.78125 66.40625 
Q 25.390625 66.40625 21.84375 63.234375 
Q 18.3125 60.0625 18.3125 54.390625 
" id="BitstreamVeraSans-Roman-38"/>
      </defs>
      <g transform="translate(527.678472623 403.196875)scale(0.2 -0.2)">
       <use xlink:href="#BitstreamVeraSans-Roman-38"/>
      </g>
     </g>
    </g>
    <g id="xtick_10"/>
    <g id="xtick_11">
     <g id="line2d_33">
      <defs>
       <path d="M 0 0 
L 0 -2 
" id="mccc8e1e378" style="stroke:#000000;stroke-width:0.5;"/>
      </defs>
      <g>
       <use style="stroke:#000000;stroke-width:0.5;" x="69.2545893472" xlink:href="#mccc8e1e378" y="384.0"/>
      </g>
     </g>
     <g id="line2d_34">
      <defs>
       <path d="M 0 0 
L 0 2 
" id="m971f493e7f" style="stroke:#000000;stroke-width:0.5;"/>
      </defs>
      <g>
       <use style="stroke:#000000;stroke-width:0.5;" x="69.2545893472" xlink:href="#m971f493e7f" y="3.0"/>
      </g>
     </g>
    </g>
    <g id="xtick_12">
     <g id="line2d_35">
      <g>
       <use style="stroke:#000000;stroke-width:0.5;" x="135.652644101" xlink:href="#mccc8e1e378" y="384.0"/>
      </g>
     </g>
     <g id="line2d_36">
      <g>
       <use style="stroke:#000000;stroke-width:0.5;" x="135.652644101" xlink:href="#m971f493e7f" y="3.0"/>
      </g>
     </g>
    </g>
    <g id="xtick_13">
     <g id="line2d_37">
      <g>
       <use style="stroke:#000000;stroke-width:0.5;" x="202.050698855" xlink:href="#mccc8e1e378" y="384.0"/>
      </g>
     </g>
     <g id="line2d_38">
      <g>
       <use style="stroke:#000000;stroke-width:0.5;" x="202.050698855" xlink:href="#m971f493e7f" y="3.0"/>
      </g>
     </g>
    </g>
    <g id="xtick_14">
     <g id="line2d_39">
      <g>
       <use style="stroke:#000000;stroke-width:0.5;" x="268.448753608" xlink:href="#mccc8e1e378" y="384.0"/>
      </g>
     </g>
     <g id="line2d_40">
      <g>
       <use style="stroke:#000000;stroke-width:0.5;" x="268.448753608" xlink:href="#m971f493e7f" y="3.0"/>
      </g>
     </g>
    </g>
    <g id="xtick_15">
     <g id="line2d_41">
      <g>
       <use style="stroke:#000000;stroke-width:0.5;" x="334.846808362" xlink:href="#mccc8e1e378" y="384.0"/>
      </g>
     </g>
     <g id="line2d_42">
      <g>
       <use style="stroke:#000000;stroke-width:0.5;" x="334.846808362" xlink:href="#m971f493e7f" y="3.0"/>
      </g>
     </g>
    </g>
    <g id="xtick_16">
     <g id="line2d_43">
      <g>
       <use style="stroke:#000000;stroke-width:0.5;" x="401.244863116" xlink:href="#mccc8e1e378" y="384.0"/>
      </g>
     </g>
     <g id="line2d_44">
      <g>
       <use style="stroke:#000000;stroke-width:0.5;" x="401.244863116" xlink:href="#m971f493e7f" y="3.0"/>
      </g>
     </g>
    </g>
    <g id="xtick_17">
     <g id="line2d_45">
      <g>
       <use style="stroke:#000000;stroke-width:0.5;" x="467.642917869" xlink:href="#mccc8e1e378" y="384.0"/>
      </g>
     </g>
     <g id="line2d_46">
      <g>
       <use style="stroke:#000000;stroke-width:0.5;" x="467.642917869" xlink:href="#m971f493e7f" y="3.0"/>
      </g>
     </g>
    </g>
    <g id="xtick_18">
     <g id="line2d_47">
      <g>
       <use style="stroke:#000000;stroke-width:0.5;" x="534.040972623" xlink:href="#mccc8e1e378" y="384.0"/>
      </g>
     </g>
     <g id="line2d_48">
      <g>
       <use style="stroke:#000000;stroke-width:0.5;" x="534.040972623" xlink:href="#m971f493e7f" y="3.0"/>
      </g>
     </g>
    </g>
    <g id="text_9">
     <!-- log10 of Df -->
     <defs>
      <path id="BitstreamVeraSans-Roman-20"/>
      <path d="M 12.40625 8.296875 
L 28.515625 8.296875 
L 28.515625 63.921875 
L 10.984375 60.40625 
L 10.984375 69.390625 
L 28.421875 72.90625 
L 38.28125 72.90625 
L 38.28125 8.296875 
L 54.390625 8.296875 
L 54.390625 0 
L 12.40625 0 
z
" id="BitstreamVeraSans-Roman-31"/>
      <path d="M 30.609375 48.390625 
Q 23.390625 48.390625 19.1875 42.75 
Q 14.984375 37.109375 14.984375 27.296875 
Q 14.984375 17.484375 19.15625 11.84375 
Q 23.34375 6.203125 30.609375 6.203125 
Q 37.796875 6.203125 41.984375 11.859375 
Q 46.1875 17.53125 46.1875 27.296875 
Q 46.1875 37.015625 41.984375 42.703125 
Q 37.796875 48.390625 30.609375 48.390625 
M 30.609375 56 
Q 42.328125 56 49.015625 48.375 
Q 55.71875 40.765625 55.71875 27.296875 
Q 55.71875 13.875 49.015625 6.21875 
Q 42.328125 -1.421875 30.609375 -1.421875 
Q 18.84375 -1.421875 12.171875 6.21875 
Q 5.515625 13.875 5.515625 27.296875 
Q 5.515625 40.765625 12.171875 48.375 
Q 18.84375 56 30.609375 56 
" id="BitstreamVeraSans-Roman-6f"/>
      <path d="M 9.421875 75.984375 
L 18.40625 75.984375 
L 18.40625 0 
L 9.421875 0 
z
" id="BitstreamVeraSans-Roman-6c"/>
      <path d="M 19.671875 64.796875 
L 19.671875 8.109375 
L 31.59375 8.109375 
Q 46.6875 8.109375 53.6875 14.9375 
Q 60.6875 21.78125 60.6875 36.53125 
Q 60.6875 51.171875 53.6875 57.984375 
Q 46.6875 64.796875 31.59375 64.796875 
z
M 9.8125 72.90625 
L 30.078125 72.90625 
Q 51.265625 72.90625 61.171875 64.09375 
Q 71.09375 55.28125 71.09375 36.53125 
Q 71.09375 17.671875 61.125 8.828125 
Q 51.171875 0 30.078125 0 
L 9.8125 0 
z
" id="BitstreamVeraSans-Roman-44"/>
      <path d="M 45.40625 27.984375 
Q 45.40625 37.75 41.375 43.109375 
Q 37.359375 48.484375 30.078125 48.484375 
Q 22.859375 48.484375 18.828125 43.109375 
Q 14.796875 37.75 14.796875 27.984375 
Q 14.796875 18.265625 18.828125 12.890625 
Q 22.859375 7.515625 30.078125 7.515625 
Q 37.359375 7.515625 41.375 12.890625 
Q 45.40625 18.265625 45.40625 27.984375 
M 54.390625 6.78125 
Q 54.390625 -7.171875 48.1875 -13.984375 
Q 42 -20.796875 29.203125 -20.796875 
Q 24.46875 -20.796875 20.265625 -20.09375 
Q 16.0625 -19.390625 12.109375 -17.921875 
L 12.109375 -9.1875 
Q 16.0625 -11.328125 19.921875 -12.34375 
Q 23.78125 -13.375 27.78125 -13.375 
Q 36.625 -13.375 41.015625 -8.765625 
Q 45.40625 -4.15625 45.40625 5.171875 
L 45.40625 9.625 
Q 42.625 4.78125 38.28125 2.390625 
Q 33.9375 0 27.875 0 
Q 17.828125 0 11.671875 7.65625 
Q 5.515625 15.328125 5.515625 27.984375 
Q 5.515625 40.671875 11.671875 48.328125 
Q 17.828125 56 27.875 56 
Q 33.9375 56 38.28125 53.609375 
Q 42.625 51.21875 45.40625 46.390625 
L 45.40625 54.6875 
L 54.390625 54.6875 
z
" id="BitstreamVeraSans-Roman-67"/>
      <path d="M 37.109375 75.984375 
L 37.109375 68.5 
L 28.515625 68.5 
Q 23.6875 68.5 21.796875 66.546875 
Q 19.921875 64.59375 19.921875 59.515625 
L 19.921875 54.6875 
L 34.71875 54.6875 
L 34.71875 47.703125 
L 19.921875 47.703125 
L 19.921875 0 
L 10.890625 0 
L 10.890625 47.703125 
L 2.296875 47.703125 
L 2.296875 54.6875 
L 10.890625 54.6875 
L 10.890625 58.5 
Q 10.890625 67.625 15.140625 71.796875 
Q 19.390625 75.984375 28.609375 75.984375 
z
" id="BitstreamVeraSans-Roman-66"/>
     </defs>
     <g transform="translate(229.9340625 427.553125)scale(0.2 -0.2)">
      <use xlink:href="#BitstreamVeraSans-Roman-6c"/>
      <use x="27.783203125" xlink:href="#BitstreamVeraSans-Roman-6f"/>
      <use x="88.96484375" xlink:href="#BitstreamVeraSans-Roman-67"/>
      <use x="152.44140625" xlink:href="#BitstreamVeraSans-Roman-31"/>
      <use x="216.064453125" xlink:href="#BitstreamVeraSans-Roman-30"/>
      <use x="279.6875" xlink:href="#BitstreamVeraSans-Roman-20"/>
      <use x="311.474609375" xlink:href="#BitstreamVeraSans-Roman-6f"/>
      <use x="372.65625" xlink:href="#BitstreamVeraSans-Roman-66"/>
      <use x="407.861328125" xlink:href="#BitstreamVeraSans-Roman-20"/>
      <use x="439.6484375" xlink:href="#BitstreamVeraSans-Roman-44"/>
      <use x="516.650390625" xlink:href="#BitstreamVeraSans-Roman-66"/>
     </g>
    </g>
   </g>
   <g id="matplotlib.axis_2">
    <g id="ytick_1">
     <g id="line2d_49">
      <path clip-path="url(#p8dbc6e0537)" d="M 3 384 
L 567.24 384 
" style="fill:none;stroke:#000000;stroke-dasharray:1.000000,3.000000;stroke-dashoffset:0.0;stroke-width:0.5;"/>
     </g>
     <g id="line2d_50">
      <defs>
       <path d="M 0 0 
L 4 0 
" id="m6cc55ef1d3" style="stroke:#000000;stroke-width:0.5;"/>
      </defs>
      <g>
       <use style="stroke:#000000;stroke-width:0.5;" x="3.0" xlink:href="#m6cc55ef1d3" y="384.0"/>
      </g>
     </g>
     <g id="line2d_51">
      <defs>
       <path d="M 0 0 
L -4 0 
" id="ma804e1327b" style="stroke:#000000;stroke-width:0.5;"/>
      </defs>
      <g>
       <use style="stroke:#000000;stroke-width:0.5;" x="567.24" xlink:href="#ma804e1327b" y="384.0"/>
      </g>
     </g>
    </g>
    <g id="ytick_2">
     <g id="line2d_52">
      <path clip-path="url(#p8dbc6e0537)" d="M 3 308.554455 
L 567.24 308.554455 
" style="fill:none;stroke:#000000;stroke-dasharray:1.000000,3.000000;stroke-dashoffset:0.0;stroke-width:0.5;"/>
     </g>
     <g id="line2d_53">
      <g>
       <use style="stroke:#000000;stroke-width:0.5;" x="3.0" xlink:href="#m6cc55ef1d3" y="308.554455446"/>
      </g>
     </g>
     <g id="line2d_54">
      <g>
       <use style="stroke:#000000;stroke-width:0.5;" x="567.24" xlink:href="#ma804e1327b" y="308.554455446"/>
      </g>
     </g>
    </g>
    <g id="ytick_3">
     <g id="line2d_55">
      <path clip-path="url(#p8dbc6e0537)" d="M 3 233.108911 
L 567.24 233.108911 
" style="fill:none;stroke:#000000;stroke-dasharray:1.000000,3.000000;stroke-dashoffset:0.0;stroke-width:0.5;"/>
     </g>
     <g id="line2d_56">
      <g>
       <use style="stroke:#000000;stroke-width:0.5;" x="3.0" xlink:href="#m6cc55ef1d3" y="233.108910891"/>
      </g>
     </g>
     <g id="line2d_57">
      <g>
       <use style="stroke:#000000;stroke-width:0.5;" x="567.24" xlink:href="#ma804e1327b" y="233.108910891"/>
      </g>
     </g>
    </g>
    <g id="ytick_4">
     <g id="line2d_58">
      <path clip-path="url(#p8dbc6e0537)" d="M 3 157.663366 
L 567.24 157.663366 
" style="fill:none;stroke:#000000;stroke-dasharray:1.000000,3.000000;stroke-dashoffset:0.0;stroke-width:0.5;"/>
     </g>
     <g id="line2d_59">
      <g>
       <use style="stroke:#000000;stroke-width:0.5;" x="3.0" xlink:href="#m6cc55ef1d3" y="157.663366337"/>
      </g>
     </g>
     <g id="line2d_60">
      <g>
       <use style="stroke:#000000;stroke-width:0.5;" x="567.24" xlink:href="#ma804e1327b" y="157.663366337"/>
      </g>
     </g>
    </g>
    <g id="ytick_5">
     <g id="line2d_61">
      <path clip-path="url(#p8dbc6e0537)" d="M 3 82.217822 
L 567.24 82.217822 
" style="fill:none;stroke:#000000;stroke-dasharray:1.000000,3.000000;stroke-dashoffset:0.0;stroke-width:0.5;"/>
     </g>
     <g id="line2d_62">
      <g>
       <use style="stroke:#000000;stroke-width:0.5;" x="3.0" xlink:href="#m6cc55ef1d3" y="82.2178217822"/>
      </g>
     </g>
     <g id="line2d_63">
      <g>
       <use style="stroke:#000000;stroke-width:0.5;" x="567.24" xlink:href="#ma804e1327b" y="82.2178217822"/>
      </g>
     </g>
    </g>
    <g id="ytick_6">
     <g id="line2d_64">
      <path clip-path="url(#p8dbc6e0537)" d="M 3 6.772277 
L 567.24 6.772277 
" style="fill:none;stroke:#000000;stroke-dasharray:1.000000,3.000000;stroke-dashoffset:0.0;stroke-width:0.5;"/>
     </g>
     <g id="line2d_65">
      <g>
       <use style="stroke:#000000;stroke-width:0.5;" x="3.0" xlink:href="#m6cc55ef1d3" y="6.77227722772"/>
      </g>
     </g>
     <g id="line2d_66">
      <g>
       <use style="stroke:#000000;stroke-width:0.5;" x="567.24" xlink:href="#ma804e1327b" y="6.77227722772"/>
      </g>
     </g>
    </g>
   </g>
   <g id="text_10">
    <!-- {f1-f5}, 20-D -->
    <defs>
     <path d="M 12.5 -9.28125 
L 15.921875 -9.28125 
Q 22.75 -9.28125 24.828125 -7.171875 
Q 26.90625 -5.078125 26.90625 1.90625 
L 26.90625 14.015625 
Q 26.90625 21.625 29.09375 25.09375 
Q 31.296875 28.5625 36.71875 29.890625 
Q 31.296875 31.109375 29.09375 34.5625 
Q 26.90625 38.03125 26.90625 45.703125 
L 26.90625 57.8125 
Q 26.90625 64.75 24.828125 66.875 
Q 22.75 69 15.921875 69 
L 12.5 69 
L 12.5 75.984375 
L 15.578125 75.984375 
Q 27.734375 75.984375 31.8125 72.390625 
Q 35.890625 68.796875 35.890625 58.015625 
L 35.890625 46.296875 
Q 35.890625 39.015625 38.515625 36.203125 
Q 41.15625 33.40625 48.09375 33.40625 
L 51.125 33.40625 
L 51.125 26.421875 
L 48.09375 26.421875 
Q 41.15625 26.421875 38.515625 23.578125 
Q 35.890625 20.75 35.890625 13.375 
L 35.890625 1.703125 
Q 35.890625 -9.078125 31.8125 -12.6875 
Q 27.734375 -16.3125 15.578125 -16.3125 
L 12.5 -16.3125 
z
" id="BitstreamVeraSans-Roman-7d"/>
     <path d="M 51.125 -9.28125 
L 51.125 -16.3125 
L 48.09375 -16.3125 
Q 35.9375 -16.3125 31.8125 -12.6875 
Q 27.6875 -9.078125 27.6875 1.703125 
L 27.6875 13.375 
Q 27.6875 20.75 25.046875 23.578125 
Q 22.40625 26.421875 15.484375 26.421875 
L 12.5 26.421875 
L 12.5 33.40625 
L 15.484375 33.40625 
Q 22.46875 33.40625 25.078125 36.203125 
Q 27.6875 39.015625 27.6875 46.296875 
L 27.6875 58.015625 
Q 27.6875 68.796875 31.8125 72.390625 
Q 35.9375 75.984375 48.09375 75.984375 
L 51.125 75.984375 
L 51.125 69 
L 47.796875 69 
Q 40.921875 69 38.8125 66.84375 
Q 36.71875 64.703125 36.71875 57.8125 
L 36.71875 45.703125 
Q 36.71875 38.03125 34.5 34.5625 
Q 32.28125 31.109375 26.90625 29.890625 
Q 32.328125 28.5625 34.515625 25.09375 
Q 36.71875 21.625 36.71875 14.015625 
L 36.71875 1.90625 
Q 36.71875 -4.984375 38.8125 -7.125 
Q 40.921875 -9.28125 47.796875 -9.28125 
z
" id="BitstreamVeraSans-Roman-7b"/>
     <path d="M 11.71875 12.40625 
L 22.015625 12.40625 
L 22.015625 4 
L 14.015625 -11.625 
L 7.71875 -11.625 
L 11.71875 4 
z
" id="BitstreamVeraSans-Roman-2c"/>
     <path d="M 10.796875 72.90625 
L 49.515625 72.90625 
L 49.515625 64.59375 
L 19.828125 64.59375 
L 19.828125 46.734375 
Q 21.96875 47.46875 24.109375 47.828125 
Q 26.265625 48.1875 28.421875 48.1875 
Q 40.625 48.1875 47.75 41.5 
Q 54.890625 34.8125 54.890625 23.390625 
Q 54.890625 11.625 47.5625 5.09375 
Q 40.234375 -1.421875 26.90625 -1.421875 
Q 22.3125 -1.421875 17.546875 -0.640625 
Q 12.796875 0.140625 7.71875 1.703125 
L 7.71875 11.625 
Q 12.109375 9.234375 16.796875 8.0625 
Q 21.484375 6.890625 26.703125 6.890625 
Q 35.15625 6.890625 40.078125 11.328125 
Q 45.015625 15.765625 45.015625 23.390625 
Q 45.015625 31 40.078125 35.4375 
Q 35.15625 39.890625 26.703125 39.890625 
Q 22.75 39.890625 18.8125 39.015625 
Q 14.890625 38.140625 10.796875 36.28125 
z
" id="BitstreamVeraSans-Roman-35"/>
    </defs>
    <g transform="translate(422.9802 376.38)scale(0.2 -0.2)">
     <use xlink:href="#BitstreamVeraSans-Roman-7b"/>
     <use x="63.623046875" xlink:href="#BitstreamVeraSans-Roman-66"/>
     <use x="98.828125" xlink:href="#BitstreamVeraSans-Roman-31"/>
     <use x="162.451171875" xlink:href="#BitstreamVeraSans-Roman-2d"/>
     <use x="198.53515625" xlink:href="#BitstreamVeraSans-Roman-66"/>
     <use x="233.740234375" xlink:href="#BitstreamVeraSans-Roman-35"/>
     <use x="297.36328125" xlink:href="#BitstreamVeraSans-Roman-7d"/>
     <use x="360.986328125" xlink:href="#BitstreamVeraSans-Roman-2c"/>
     <use x="392.7734375" xlink:href="#BitstreamVeraSans-Roman-20"/>
     <use x="424.560546875" xlink:href="#BitstreamVeraSans-Roman-32"/>
     <use x="488.18359375" xlink:href="#BitstreamVeraSans-Roman-30"/>
     <use x="551.806640625" xlink:href="#BitstreamVeraSans-Roman-2d"/>
     <use x="587.890625" xlink:href="#BitstreamVeraSans-Roman-44"/>
    </g>
   </g>
   <g id="text_11">
    <!-- v2.2.1.10 -->
    <defs>
     <path d="M 2.984375 54.6875 
L 12.5 54.6875 
L 29.59375 8.796875 
L 46.6875 54.6875 
L 56.203125 54.6875 
L 35.6875 0 
L 23.484375 0 
z
" id="BitstreamVeraSans-Roman-76"/>
     <path d="M 10.6875 12.40625 
L 21 12.40625 
L 21 0 
L 10.6875 0 
z
" id="BitstreamVeraSans-Roman-2e"/>
    </defs>
    <g style="fill:#808080;" transform="translate(261.4871875 378.1103125)scale(0.1 -0.1)">
     <use xlink:href="#BitstreamVeraSans-Roman-76"/>
     <use x="59.1796875" xlink:href="#BitstreamVeraSans-Roman-32"/>
     <use x="122.802734375" xlink:href="#BitstreamVeraSans-Roman-2e"/>
     <use x="154.58984375" xlink:href="#BitstreamVeraSans-Roman-32"/>
     <use x="218.212890625" xlink:href="#BitstreamVeraSans-Roman-2e"/>
     <use x="250.0" xlink:href="#BitstreamVeraSans-Roman-31"/>
     <use x="313.623046875" xlink:href="#BitstreamVeraSans-Roman-2e"/>
     <use x="345.41015625" xlink:href="#BitstreamVeraSans-Roman-31"/>
     <use x="409.033203125" xlink:href="#BitstreamVeraSans-Roman-30"/>
    </g>
   </g>
  </g>
 </g>
 <defs>
  <clipPath id="p8dbc6e0537">
   <rect height="381.0" width="564.24" x="3.0" y="3.0"/>
  </clipPath>
 </defs>
</svg>
