<?xml version="1.0" encoding="utf-8" standalone="no"?>
<!DOCTYPE svg PUBLIC "-//W3C//DTD SVG 1.1//EN"
  "http://www.w3.org/Graphics/SVG/1.1/DTD/svg11.dtd">
<!-- Created with matplotlib (http://matplotlib.org/) -->
<svg height="432pt" version="1.1" viewBox="0 0 576 432" width="576pt" xmlns="http://www.w3.org/2000/svg" xmlns:xlink="http://www.w3.org/1999/xlink">
 <defs>
  <style type="text/css">
*{stroke-linecap:butt;stroke-linejoin:round;stroke-miterlimit:100000;}
  </style>
 </defs>
 <g id="figure_1">
  <g id="patch_1">
   <path d="M 0 432 
L 576 432 
L 576 0 
L 0 0 
z
" style="fill:#ffffff;"/>
  </g>
  <g id="axes_1">
   <g id="patch_2">
    <path d="M 3 384 
L 567.24 384 
L 567.24 3 
L 3 3 
z
" style="fill:#ffffff;"/>
   </g>
   <g id="line2d_1">
    <path clip-path="url(#pa2b1d2c092)" d="M -1 308.554455 
L 2.856535 308.554455 
L 2.856535 233.108911 
L 303.583942 233.108911 
L 303.583942 228.079208 
L 305.919307 228.079208 
L 305.919307 223.049505 
L 307.528045 223.049505 
L 307.528045 218.019802 
L 312.164816 218.019802 
L 312.164816 212.990099 
L 313.451125 212.990099 
L 313.451125 207.960396 
L 313.663558 207.960396 
L 313.663558 202.930693 
L 313.808681 202.930693 
L 313.808681 197.90099 
L 314.57533 197.90099 
L 314.57533 192.871287 
L 314.782234 192.871287 
L 314.782234 187.841584 
L 315.61662 187.841584 
L 315.61662 182.811881 
L 315.779573 182.811881 
L 315.779573 177.782178 
L 315.896838 177.782178 
L 315.896838 172.752475 
L 316.251451 172.752475 
L 316.251451 167.722772 
L 316.666658 167.722772 
L 316.666658 162.693069 
L 316.849334 162.693069 
L 316.849334 157.663366 
L 317.564904 157.663366 
L 317.564904 152.633663 
L 317.732571 152.633663 
L 317.732571 147.60396 
L 318.118122 147.60396 
L 318.118122 142.574257 
L 318.395468 142.574257 
L 318.395468 137.544554 
L 318.75696 137.544554 
L 318.75696 132.514851 
L 319.034241 132.514851 
L 319.034241 127.485149 
L 319.278414 127.485149 
L 319.278414 122.455446 
L 319.510657 122.455446 
L 319.510657 117.425743 
L 319.934051 117.425743 
L 319.934051 112.39604 
L 320.411279 112.39604 
L 320.411279 107.366337 
L 321.926295 107.366337 
L 321.926295 102.336634 
L 322.321163 102.336634 
L 322.321163 97.306931 
L 322.772076 97.306931 
L 322.871418 87.247525 
L 324.89137 87.247525 
L 324.89137 82.217822 
L 347.239751 82.217822 
L 347.239751 77.188119 
L 348.094196 77.188119 
L 348.094196 72.158416 
L 350.265451 72.158416 
L 350.265451 67.128713 
L 350.997686 67.128713 
L 350.997686 62.09901 
L 354.810442 62.09901 
L 354.810442 57.069307 
L 355.438442 57.069307 
L 355.438442 52.039604 
L 357.04 52.039604 
L 357.04 47.009901 
L 358.272858 47.009901 
L 358.272858 41.980198 
L 360.873808 41.980198 
L 360.873808 36.950495 
L 361.990454 36.950495 
L 361.990454 31.920792 
L 365.942747 31.920792 
L 365.942747 26.891089 
L 367.018441 26.891089 
L 367.018441 21.861386 
L 370.100344 21.861386 
L 370.100344 16.831683 
L 372.309381 16.831683 
L 372.309381 11.80198 
L 374.207929 11.80198 
L 374.207929 6.772277 
L 374.207929 6.772277 
L 567.24 6.772277 
L 567.24 6.772277 
" style="fill:none;stroke:#ff0000;stroke-linecap:square;stroke-width:3.0;"/>
   </g>
   <g id="line2d_2">
    <path clip-path="url(#pa2b1d2c092)" d="M 305.234029 384 
L 305.234029 378.970297 
L 305.822531 378.970297 
L 305.822531 373.940594 
L 308.205956 373.940594 
L 308.205956 368.910891 
L 308.947226 368.910891 
L 308.947226 363.881188 
L 309.778103 363.881188 
L 309.778103 358.851485 
L 311.374311 358.851485 
L 311.374311 353.821782 
L 312.947037 353.821782 
L 312.947037 348.792079 
L 315.197123 348.792079 
L 315.197123 343.762376 
L 316.021865 343.762376 
L 316.021865 338.732673 
L 317.956674 338.732673 
L 317.956674 333.70297 
L 319.135834 333.70297 
L 319.135834 328.673267 
L 319.387315 328.673267 
L 319.387315 323.643564 
L 320.131355 323.643564 
L 320.131355 318.613861 
L 320.962993 318.613861 
L 320.962993 313.584158 
L 323.271454 313.584158 
L 323.271454 308.554455 
L 323.577455 308.554455 
L 323.577455 303.524752 
L 325.134893 303.524752 
L 325.134893 298.49505 
L 325.963107 298.49505 
L 325.963107 293.465347 
L 328.614667 293.465347 
L 328.614667 288.435644 
L 329.529714 288.435644 
L 329.529714 283.405941 
L 331.692844 283.405941 
L 331.75162 273.346535 
L 333.281919 273.346535 
L 333.281919 268.316832 
L 333.891373 268.316832 
L 333.983591 253.227723 
L 334.137406 253.227723 
L 334.137406 248.19802 
L 335.032803 248.19802 
L 335.032803 243.168317 
L 335.431157 243.168317 
L 335.431157 238.138614 
L 335.932374 238.138614 
L 335.932374 202.930693 
L 337.256536 202.930693 
L 337.284774 192.871287 
L 337.64084 192.871287 
L 337.64084 187.841584 
L 338.155078 187.841584 
L 338.182071 172.752475 
L 338.302852 172.752475 
L 338.362094 162.693069 
L 338.904038 162.693069 
L 338.904038 157.663366 
L 342.705491 157.663366 
L 342.705491 152.633663 
L 343.85066 152.633663 
L 343.85066 147.60396 
L 344.243423 147.60396 
L 344.243423 142.574257 
L 344.620925 142.574257 
L 344.620925 137.544554 
L 344.959843 137.544554 
L 344.959843 132.514851 
L 345.900376 132.514851 
L 345.900376 127.485149 
L 346.023725 127.485149 
L 346.023725 122.455446 
L 347.344083 122.455446 
L 347.344083 117.425743 
L 347.80898 117.425743 
L 347.80898 112.39604 
L 348.072044 112.39604 
L 348.072044 107.366337 
L 348.404133 107.366337 
L 348.404133 102.336634 
L 348.517187 102.336634 
L 348.517187 97.306931 
L 348.721114 97.306931 
L 348.721114 92.277228 
L 355.733407 92.277228 
L 355.733407 87.247525 
L 356.583506 87.247525 
L 356.583506 82.217822 
L 405.886907 82.217822 
L 405.886907 77.188119 
L 435.555114 77.188119 
L 435.555114 72.158416 
L 452.611482 72.158416 
L 452.611482 67.128713 
L 452.879978 67.128713 
L 452.879978 62.09901 
L 455.564508 62.09901 
L 455.564508 57.069307 
L 460.816219 57.069307 
L 460.816219 52.039604 
L 477.57082 52.039604 
L 477.57082 47.009901 
L 479.433277 47.009901 
L 479.433277 41.980198 
L 484.13995 41.980198 
L 484.13995 36.950495 
L 484.252202 36.950495 
L 484.252202 31.920792 
L 486.407506 31.920792 
L 486.407506 26.891089 
L 493.524757 26.891089 
L 493.524757 21.861386 
L 498.76614 21.861386 
L 498.76614 16.831683 
L 502.812005 16.831683 
L 502.812005 11.80198 
L 503.823879 11.80198 
L 503.823879 6.772277 
L 503.823879 6.772277 
L 567.24 6.772277 
L 567.24 6.772277 
" style="fill:none;stroke:#00bfbf;stroke-linecap:square;"/>
   </g>
   <g id="line2d_3">
    <path clip-path="url(#pa2b1d2c092)" d="M 300.658112 384 
L 300.658112 378.970297 
L 305.234029 378.970297 
L 305.234029 373.940594 
L 305.822531 373.940594 
L 305.822531 368.910891 
L 308.205956 368.910891 
L 308.205956 363.881188 
L 308.947226 363.881188 
L 308.947226 358.851485 
L 310.272956 358.851485 
L 310.272956 353.821782 
L 311.374311 353.821782 
L 311.374311 348.792079 
L 312.598592 348.792079 
L 312.598592 343.762376 
L 312.947037 343.762376 
L 312.947037 338.732673 
L 315.197123 338.732673 
L 315.197123 333.70297 
L 317.956674 333.70297 
L 317.956674 328.673267 
L 319.135834 328.673267 
L 319.135834 323.643564 
L 319.387315 323.643564 
L 319.387315 318.613861 
L 320.962993 318.613861 
L 320.962993 313.584158 
L 321.385376 313.584158 
L 321.385376 308.554455 
L 323.271454 308.554455 
L 323.271454 303.524752 
L 323.577455 303.524752 
L 323.577455 298.49505 
L 325.134893 298.49505 
L 325.134893 293.465347 
L 325.536664 293.465347 
L 325.536664 288.435644 
L 325.963107 288.435644 
L 325.963107 283.405941 
L 327.845702 283.405941 
L 327.928691 273.346535 
L 327.960117 273.346535 
L 327.960117 268.316832 
L 328.614667 268.316832 
L 328.614667 263.287129 
L 329.529714 263.287129 
L 329.529714 258.257426 
L 330.196187 258.257426 
L 330.196187 253.227723 
L 331.501197 253.227723 
L 331.501197 248.19802 
L 331.692844 248.19802 
L 331.75162 238.138614 
L 333.891373 238.138614 
L 333.983591 218.019802 
L 334.137406 218.019802 
L 334.137406 212.990099 
L 334.725885 212.990099 
L 334.803831 202.930693 
L 334.898825 202.930693 
L 334.898825 197.90099 
L 335.259982 197.90099 
L 335.259982 192.871287 
L 335.932374 192.871287 
L 335.932374 182.811881 
L 336.061101 182.811881 
L 336.061101 177.782178 
L 337.08485 177.782178 
L 337.08485 172.752475 
L 337.64084 172.752475 
L 337.64084 167.722772 
L 338.155078 167.722772 
L 338.182071 152.633663 
L 338.302852 152.633663 
L 338.362094 142.574257 
L 340.262311 142.574257 
L 340.262311 137.544554 
L 342.129286 137.544554 
L 342.129286 132.514851 
L 342.705491 132.514851 
L 342.705491 127.485149 
L 344.243423 127.485149 
L 344.243423 122.455446 
L 344.406845 122.455446 
L 344.406845 117.425743 
L 344.620925 117.425743 
L 344.620925 112.39604 
L 345.900376 112.39604 
L 345.92188 102.336634 
L 347.344083 102.336634 
L 347.344083 97.306931 
L 347.80898 97.306931 
L 347.80898 92.277228 
L 348.072044 92.277228 
L 348.072044 87.247525 
L 348.721114 87.247525 
L 348.721114 82.217822 
L 405.886907 82.217822 
L 405.886907 77.188119 
L 412.447951 77.188119 
L 412.447951 72.158416 
L 430.303189 72.158416 
L 430.303189 67.128713 
L 435.555114 67.128713 
L 435.555114 62.09901 
L 436.374821 62.09901 
L 436.374821 57.069307 
L 452.533707 57.069307 
L 452.611482 47.009901 
L 452.879978 47.009901 
L 452.879978 41.980198 
L 455.564508 41.980198 
L 455.564508 36.950495 
L 456.319687 36.950495 
L 456.319687 31.920792 
L 457.107253 31.920792 
L 457.107253 26.891089 
L 460.816219 26.891089 
L 460.816219 21.861386 
L 477.57082 21.861386 
L 477.57082 16.831683 
L 484.252202 16.831683 
L 484.252202 11.80198 
L 493.320017 11.80198 
L 493.320017 6.772277 
L 493.320017 6.772277 
L 567.24 6.772277 
L 567.24 6.772277 
" style="fill:none;stroke:#bf00bf;stroke-linecap:square;"/>
   </g>
   <g id="line2d_4">
    <path clip-path="url(#pa2b1d2c092)" d="M 292.259107 384 
L 292.259107 378.970297 
L 293.925973 378.970297 
L 293.925973 373.940594 
L 300.658112 373.940594 
L 300.658112 368.910891 
L 305.234029 368.910891 
L 305.234029 363.881188 
L 305.822531 363.881188 
L 305.822531 358.851485 
L 306.290718 358.851485 
L 306.290718 353.821782 
L 306.866308 353.821782 
L 306.866308 348.792079 
L 307.959823 348.792079 
L 307.959823 343.762376 
L 308.947226 343.762376 
L 308.947226 338.732673 
L 309.786908 338.732673 
L 309.786908 333.70297 
L 310.272956 333.70297 
L 310.272956 328.673267 
L 311.374311 328.673267 
L 311.374311 323.643564 
L 315.197123 323.643564 
L 315.197123 318.613861 
L 317.956674 318.613861 
L 317.956674 313.584158 
L 318.312824 313.584158 
L 318.312824 308.554455 
L 318.958898 308.554455 
L 318.958898 303.524752 
L 319.135834 303.524752 
L 319.135834 298.49505 
L 319.291138 298.49505 
L 319.291138 293.465347 
L 321.385376 293.465347 
L 321.385376 288.435644 
L 322.224647 288.435644 
L 322.224647 283.405941 
L 323.555338 283.405941 
L 323.577455 273.346535 
L 324.527989 273.346535 
L 324.527989 268.316832 
L 324.968558 268.316832 
L 325.01013 258.257426 
L 325.536664 258.257426 
L 325.536664 253.227723 
L 325.77286 253.227723 
L 325.77286 248.19802 
L 325.956328 248.19802 
L 325.956328 243.168317 
L 327.928691 243.168317 
L 327.928691 238.138614 
L 328.540851 238.138614 
L 328.614667 223.049505 
L 329.011331 223.049505 
L 329.011331 218.019802 
L 329.529714 218.019802 
L 329.529714 212.990099 
L 330.840382 212.990099 
L 330.840382 207.960396 
L 331.501197 207.960396 
L 331.501197 202.930693 
L 332.452663 202.930693 
L 332.452663 197.90099 
L 333.740601 197.90099 
L 333.740601 192.871287 
L 333.905753 192.871287 
L 333.983591 177.782178 
L 334.725885 177.782178 
L 334.803831 167.722772 
L 335.09397 167.722772 
L 335.09397 162.693069 
L 335.286495 162.693069 
L 335.286495 157.663366 
L 335.743242 157.663366 
L 335.743242 152.633663 
L 336.061101 152.633663 
L 336.061101 147.60396 
L 337.08485 147.60396 
L 337.08485 142.574257 
L 337.513948 142.574257 
L 337.513948 137.544554 
L 337.64084 137.544554 
L 337.64084 132.514851 
L 338.155078 132.514851 
L 338.155078 127.485149 
L 338.302852 127.485149 
L 338.302852 122.455446 
L 340.262311 122.455446 
L 340.262311 117.425743 
L 341.607133 117.425743 
L 341.607133 112.39604 
L 342.129286 112.39604 
L 342.129286 107.366337 
L 342.705491 107.366337 
L 342.705491 102.336634 
L 344.243423 102.336634 
L 344.307282 92.277228 
L 347.344083 92.277228 
L 347.344083 87.247525 
L 348.072044 87.247525 
L 348.072044 82.217822 
L 405.886907 82.217822 
L 405.886907 77.188119 
L 412.447951 77.188119 
L 412.447951 72.158416 
L 416.476669 72.158416 
L 416.476669 67.128713 
L 430.303189 67.128713 
L 430.303189 62.09901 
L 435.555114 62.09901 
L 435.555114 57.069307 
L 436.374821 57.069307 
L 436.374821 52.039604 
L 436.622437 52.039604 
L 436.622437 47.009901 
L 437.304433 47.009901 
L 437.304433 41.980198 
L 446.414928 41.980198 
L 446.50872 31.920792 
L 452.533707 31.920792 
L 452.533707 26.891089 
L 452.879978 26.891089 
L 452.879978 21.861386 
L 456.319687 21.861386 
L 456.319687 16.831683 
L 463.010257 16.831683 
L 463.010257 11.80198 
L 484.252202 11.80198 
L 484.252202 6.772277 
L 484.252202 6.772277 
L 567.24 6.772277 
L 567.24 6.772277 
" style="fill:none;stroke:#000000;stroke-linecap:square;"/>
   </g>
   <g id="line2d_5">
    <path clip-path="url(#pa2b1d2c092)" d="M -1 338.732673 
L 70.961426 338.732673 
L 70.961426 333.70297 
L 71.645822 333.70297 
L 71.645822 328.673267 
L 74.832663 328.673267 
L 74.832663 323.643564 
L 75.143085 323.643564 
L 75.143085 318.613861 
L 79.642444 318.613861 
L 79.642444 313.584158 
L 80.165345 313.584158 
L 80.165345 308.554455 
L 279.450589 308.554455 
L 279.450589 303.524752 
L 306.577525 303.524752 
L 306.577525 298.49505 
L 307.224064 298.49505 
L 307.224064 293.465347 
L 309.058713 293.465347 
L 309.058713 288.435644 
L 312.971755 288.435644 
L 312.971755 283.405941 
L 313.470052 283.405941 
L 313.470052 278.376238 
L 315.477135 278.376238 
L 315.477135 273.346535 
L 316.223292 273.346535 
L 316.223292 268.316832 
L 316.34537 268.316832 
L 316.34537 263.287129 
L 317.22422 263.287129 
L 317.22422 258.257426 
L 318.958898 258.257426 
L 318.958898 253.227723 
L 319.291138 253.227723 
L 319.291138 248.19802 
L 319.470512 248.19802 
L 319.470512 243.168317 
L 320.097 243.168317 
L 320.139788 233.108911 
L 322.058308 233.108911 
L 322.058308 228.079208 
L 323.577455 228.079208 
L 323.577455 223.049505 
L 328.540851 223.049505 
L 328.614667 212.990099 
L 329.011331 212.990099 
L 329.011331 207.960396 
L 330.840382 207.960396 
L 330.840382 202.930693 
L 332.452663 202.930693 
L 332.452663 197.90099 
L 333.740601 197.90099 
L 333.740601 192.871287 
L 333.905753 192.871287 
L 333.983591 177.782178 
L 334.725885 177.782178 
L 334.803831 167.722772 
L 335.09397 167.722772 
L 335.09397 162.693069 
L 335.286495 162.693069 
L 335.286495 157.663366 
L 335.743242 157.663366 
L 335.743242 152.633663 
L 336.061101 152.633663 
L 336.061101 147.60396 
L 337.08485 147.60396 
L 337.08485 142.574257 
L 337.513948 142.574257 
L 337.513948 137.544554 
L 337.64084 137.544554 
L 337.64084 132.514851 
L 338.155078 132.514851 
L 338.155078 127.485149 
L 338.302852 127.485149 
L 338.302852 122.455446 
L 340.262311 122.455446 
L 340.262311 117.425743 
L 341.607133 117.425743 
L 341.607133 112.39604 
L 342.129286 112.39604 
L 342.129286 107.366337 
L 342.705491 107.366337 
L 342.705491 102.336634 
L 344.243423 102.336634 
L 344.307282 92.277228 
L 347.344083 92.277228 
L 347.344083 87.247525 
L 348.072044 87.247525 
L 348.072044 82.217822 
L 405.886907 82.217822 
L 405.886907 77.188119 
L 412.447951 77.188119 
L 412.447951 72.158416 
L 416.476669 72.158416 
L 416.476669 67.128713 
L 430.303189 67.128713 
L 430.303189 62.09901 
L 435.555114 62.09901 
L 435.555114 57.069307 
L 436.374821 57.069307 
L 436.374821 52.039604 
L 436.622437 52.039604 
L 436.622437 47.009901 
L 437.304433 47.009901 
L 437.304433 41.980198 
L 446.414928 41.980198 
L 446.50872 31.920792 
L 452.533707 31.920792 
L 452.533707 26.891089 
L 452.879978 26.891089 
L 452.879978 21.861386 
L 456.319687 21.861386 
L 456.319687 16.831683 
L 463.010257 16.831683 
L 463.010257 11.80198 
L 484.252202 11.80198 
L 484.252202 6.772277 
L 484.252202 6.772277 
L 567.24 6.772277 
L 567.24 6.772277 
" style="fill:none;stroke:#00bfbf;stroke-linecap:square;"/>
   </g>
   <g id="line2d_6">
    <path clip-path="url(#pa2b1d2c092)" d="M -1 308.554455 
L 2.856535 308.554455 
L 2.856535 298.49505 
L 279.450589 298.49505 
L 279.450589 293.465347 
L 290.098033 293.465347 
L 290.158204 283.405941 
L 298.03984 283.405941 
L 298.111628 273.346535 
L 299.070993 273.346535 
L 299.070993 268.316832 
L 299.208715 268.316832 
L 299.208715 263.287129 
L 300.850636 263.287129 
L 300.850636 258.257426 
L 302.109597 258.257426 
L 302.109597 253.227723 
L 302.803755 253.227723 
L 302.803755 248.19802 
L 303.445635 248.19802 
L 303.445635 243.168317 
L 303.758173 243.168317 
L 303.758173 238.138614 
L 304.968294 238.138614 
L 304.968294 233.108911 
L 319.291138 233.108911 
L 319.291138 228.079208 
L 323.577455 228.079208 
L 323.577455 223.049505 
L 325.182985 223.049505 
L 325.182985 218.019802 
L 325.488678 218.019802 
L 325.488678 212.990099 
L 325.695579 212.990099 
L 325.695579 207.960396 
L 326.244251 207.960396 
L 326.244251 202.930693 
L 326.497173 202.930693 
L 326.497173 197.90099 
L 327.83662 197.90099 
L 327.83662 192.871287 
L 328.104592 192.871287 
L 328.104592 187.841584 
L 328.614667 187.841584 
L 328.614667 182.811881 
L 328.815865 182.811881 
L 328.815865 177.782178 
L 329.011331 177.782178 
L 329.088367 167.722772 
L 329.170137 167.722772 
L 329.170137 162.693069 
L 330.957338 162.693069 
L 330.960312 152.633663 
L 331.152141 152.633663 
L 331.235488 142.574257 
L 331.326293 142.574257 
L 331.326293 137.544554 
L 332.002437 137.544554 
L 332.002437 132.514851 
L 332.45045 132.514851 
L 332.45045 127.485149 
L 333.224258 127.485149 
L 333.224258 122.455446 
L 333.458053 122.455446 
L 333.458053 117.425743 
L 333.6524 117.425743 
L 333.739661 107.366337 
L 333.983591 107.366337 
L 333.983591 102.336634 
L 334.558121 102.336634 
L 334.558121 97.306931 
L 334.803831 97.306931 
L 334.803831 92.277228 
L 336.806009 92.277228 
L 336.806009 87.247525 
L 338.214671 87.247525 
L 338.214671 82.217822 
L 384.781365 82.217822 
L 384.781365 77.188119 
L 402.289996 77.188119 
L 402.357288 67.128713 
L 402.544575 67.128713 
L 402.544575 62.09901 
L 405.886907 62.09901 
L 405.886907 57.069307 
L 408.564303 57.069307 
L 408.564303 52.039604 
L 411.403899 52.039604 
L 411.403899 47.009901 
L 426.775132 47.009901 
L 426.775132 41.980198 
L 427.769418 41.980198 
L 427.769418 36.950495 
L 429.537909 36.950495 
L 429.537909 31.920792 
L 431.516908 31.920792 
L 431.516908 26.891089 
L 433.019094 26.891089 
L 433.019094 21.861386 
L 438.074713 21.861386 
L 438.074713 16.831683 
L 438.379368 16.831683 
L 438.379368 11.80198 
L 443.182106 11.80198 
L 443.182106 6.772277 
L 443.182106 6.772277 
L 567.24 6.772277 
L 567.24 6.772277 
" style="fill:none;stroke:#bf00bf;stroke-linecap:square;"/>
   </g>
   <g id="line2d_7">
    <path clip-path="url(#pa2b1d2c092)" d="M -1 308.554455 
L 2.856535 308.554455 
L 2.856535 233.108911 
L 315.125492 233.108911 
L 315.125492 228.079208 
L 319.099942 228.079208 
L 319.099942 223.049505 
L 319.278414 223.049505 
L 319.291138 212.990099 
L 319.688581 212.990099 
L 319.688581 207.960396 
L 320.03518 207.960396 
L 320.03518 202.930693 
L 320.208936 202.930693 
L 320.300037 192.871287 
L 322.363922 192.871287 
L 322.363922 187.841584 
L 322.865041 187.841584 
L 322.934454 177.782178 
L 323.817737 177.782178 
L 323.817737 172.752475 
L 324.149443 172.752475 
L 324.25784 162.693069 
L 324.462569 162.693069 
L 324.462569 157.663366 
L 324.827276 157.663366 
L 324.827276 152.633663 
L 325.337807 152.633663 
L 325.339805 142.574257 
L 325.965622 142.574257 
L 325.965622 137.544554 
L 326.882663 137.544554 
L 326.882663 132.514851 
L 327.97192 132.514851 
L 327.97192 127.485149 
L 328.614667 127.485149 
L 328.614667 122.455446 
L 328.996139 122.455446 
L 328.996139 117.425743 
L 329.297752 117.425743 
L 329.297752 112.39604 
L 329.506311 112.39604 
L 329.506311 107.366337 
L 330.311311 107.366337 
L 330.311311 102.336634 
L 330.960312 102.336634 
L 330.960312 97.306931 
L 332.73147 97.306931 
L 332.741231 87.247525 
L 333.131973 87.247525 
L 333.131973 82.217822 
L 363.956626 82.217822 
L 363.956626 77.188119 
L 370.155923 77.188119 
L 370.155923 72.158416 
L 377.569069 72.158416 
L 377.569069 67.128713 
L 382.701528 67.128713 
L 382.701528 62.09901 
L 389.201205 62.09901 
L 389.201205 57.069307 
L 389.34912 57.069307 
L 389.34912 52.039604 
L 395.150006 52.039604 
L 395.150006 47.009901 
L 395.955066 47.009901 
L 395.955066 41.980198 
L 397.758498 41.980198 
L 397.758498 36.950495 
L 398.699627 36.950495 
L 398.699627 31.920792 
L 401.434244 31.920792 
L 401.434244 26.891089 
L 401.97523 26.891089 
L 401.97523 21.861386 
L 402.465272 21.861386 
L 402.465272 16.831683 
L 404.462811 16.831683 
L 404.462811 11.80198 
L 417.975453 11.80198 
L 417.975453 6.772277 
L 417.975453 6.772277 
L 567.24 6.772277 
L 567.24 6.772277 
" style="fill:none;stroke:#000000;stroke-linecap:square;"/>
   </g>
   <g id="line2d_8">
    <path clip-path="url(#pa2b1d2c092)" d="M -1 308.554455 
L 2.856535 308.554455 
L 2.856535 233.108911 
L 305.919307 233.108911 
L 305.919307 228.079208 
L 307.528045 228.079208 
L 307.528045 223.049505 
L 312.839944 223.049505 
L 312.839944 218.019802 
L 313.451125 218.019802 
L 313.451125 212.990099 
L 313.663558 212.990099 
L 313.663558 207.960396 
L 314.57533 207.960396 
L 314.57533 202.930693 
L 315.61662 202.930693 
L 315.61662 197.90099 
L 316.251451 197.90099 
L 316.251451 192.871287 
L 316.849334 192.871287 
L 316.849334 187.841584 
L 317.564904 187.841584 
L 317.564904 182.811881 
L 317.732571 182.811881 
L 317.818169 172.752475 
L 318.118122 172.752475 
L 318.118122 167.722772 
L 319.278414 167.722772 
L 319.322057 157.663366 
L 319.510657 157.663366 
L 319.510657 152.633663 
L 320.208936 152.633663 
L 320.300037 142.574257 
L 320.458299 142.574257 
L 320.458299 137.544554 
L 320.856369 137.544554 
L 320.856369 132.514851 
L 321.482272 132.514851 
L 321.482272 127.485149 
L 321.926295 127.485149 
L 321.926295 122.455446 
L 322.321163 122.455446 
L 322.321163 117.425743 
L 322.772076 117.425743 
L 322.772076 112.39604 
L 322.934454 112.39604 
L 322.934454 107.366337 
L 323.587312 107.366337 
L 323.587312 102.336634 
L 325.11188 102.336634 
L 325.11188 97.306931 
L 325.817725 97.306931 
L 325.817725 92.277228 
L 327.074485 92.277228 
L 327.074485 87.247525 
L 328.248078 87.247525 
L 328.248078 82.217822 
L 347.239751 82.217822 
L 347.239751 77.188119 
L 348.094196 77.188119 
L 348.094196 72.158416 
L 350.265451 72.158416 
L 350.265451 67.128713 
L 350.997686 67.128713 
L 350.997686 62.09901 
L 354.810442 62.09901 
L 354.810442 57.069307 
L 358.272858 57.069307 
L 358.272858 52.039604 
L 360.873808 52.039604 
L 360.873808 47.009901 
L 365.942747 47.009901 
L 365.942747 41.980198 
L 370.155923 41.980198 
L 370.155923 36.950495 
L 371.786457 36.950495 
L 371.786457 31.920792 
L 372.309381 31.920792 
L 372.309381 26.891089 
L 374.207929 26.891089 
L 374.207929 21.861386 
L 377.746007 21.861386 
L 377.746007 16.831683 
L 378.463711 16.831683 
L 378.463711 11.80198 
L 386.375231 11.80198 
L 386.375231 6.772277 
L 386.375231 6.772277 
L 567.24 6.772277 
L 567.24 6.772277 
" style="fill:none;stroke:#00bfbf;stroke-linecap:square;"/>
   </g>
   <g id="patch_3">
    <path d="M 3 3 
L 567.24 3 
" style="fill:none;stroke:#000000;stroke-linecap:square;stroke-linejoin:miter;"/>
   </g>
   <g id="patch_4">
    <path d="M 567.24 384 
L 567.24 3 
" style="fill:none;stroke:#000000;stroke-linecap:square;stroke-linejoin:miter;"/>
   </g>
   <g id="patch_5">
    <path d="M 3 384 
L 567.24 384 
" style="fill:none;stroke:#000000;stroke-linecap:square;stroke-linejoin:miter;"/>
   </g>
   <g id="patch_6">
    <path d="M 3 384 
L 3 3 
" style="fill:none;stroke:#000000;stroke-linecap:square;stroke-linejoin:miter;"/>
   </g>
   <g id="matplotlib.axis_1">
    <g id="xtick_1"/>
    <g id="xtick_2">
     <g id="line2d_9">
      <path clip-path="url(#pa2b1d2c092)" d="M 69.254589 384 
L 69.254589 3 
" style="fill:none;stroke:#000000;stroke-dasharray:1.000000,3.000000;stroke-dashoffset:0.0;stroke-width:0.5;"/>
     </g>
     <g id="line2d_10">
      <defs>
       <path d="M 0 0 
L 0 -4 
" id="m90b16278d6" style="stroke:#000000;stroke-width:0.5;"/>
      </defs>
      <g>
       <use style="stroke:#000000;stroke-width:0.5;" x="69.2545893472" xlink:href="#m90b16278d6" y="384.0"/>
      </g>
     </g>
     <g id="line2d_11">
      <defs>
       <path d="M 0 0 
L 0 4 
" id="m4ee36846a0" style="stroke:#000000;stroke-width:0.5;"/>
      </defs>
      <g>
       <use style="stroke:#000000;stroke-width:0.5;" x="69.2545893472" xlink:href="#m4ee36846a0" y="3.0"/>
      </g>
     </g>
     <g id="text_1">
      <!-- -6 -->
      <defs>
       <path d="M 33.015625 40.375 
Q 26.375 40.375 22.484375 35.828125 
Q 18.609375 31.296875 18.609375 23.390625 
Q 18.609375 15.53125 22.484375 10.953125 
Q 26.375 6.390625 33.015625 6.390625 
Q 39.65625 6.390625 43.53125 10.953125 
Q 47.40625 15.53125 47.40625 23.390625 
Q 47.40625 31.296875 43.53125 35.828125 
Q 39.65625 40.375 33.015625 40.375 
M 52.59375 71.296875 
L 52.59375 62.3125 
Q 48.875 64.0625 45.09375 64.984375 
Q 41.3125 65.921875 37.59375 65.921875 
Q 27.828125 65.921875 22.671875 59.328125 
Q 17.53125 52.734375 16.796875 39.40625 
Q 19.671875 43.65625 24.015625 45.921875 
Q 28.375 48.1875 33.59375 48.1875 
Q 44.578125 48.1875 50.953125 41.515625 
Q 57.328125 34.859375 57.328125 23.390625 
Q 57.328125 12.15625 50.6875 5.359375 
Q 44.046875 -1.421875 33.015625 -1.421875 
Q 20.359375 -1.421875 13.671875 8.265625 
Q 6.984375 17.96875 6.984375 36.375 
Q 6.984375 53.65625 15.1875 63.9375 
Q 23.390625 74.21875 37.203125 74.21875 
Q 40.921875 74.21875 44.703125 73.484375 
Q 48.484375 72.75 52.59375 71.296875 
" id="BitstreamVeraSans-Roman-36"/>
       <path d="M 4.890625 31.390625 
L 31.203125 31.390625 
L 31.203125 23.390625 
L 4.890625 23.390625 
z
" id="BitstreamVeraSans-Roman-2d"/>
      </defs>
      <g transform="translate(59.2842768472 403.196875)scale(0.2 -0.2)">
       <use xlink:href="#BitstreamVeraSans-Roman-2d"/>
       <use x="36.083984375" xlink:href="#BitstreamVeraSans-Roman-36"/>
      </g>
     </g>
    </g>
    <g id="xtick_3">
     <g id="line2d_12">
      <path clip-path="url(#pa2b1d2c092)" d="M 135.652644 384 
L 135.652644 3 
" style="fill:none;stroke:#000000;stroke-dasharray:1.000000,3.000000;stroke-dashoffset:0.0;stroke-width:0.5;"/>
     </g>
     <g id="line2d_13">
      <g>
       <use style="stroke:#000000;stroke-width:0.5;" x="135.652644101" xlink:href="#m90b16278d6" y="384.0"/>
      </g>
     </g>
     <g id="line2d_14">
      <g>
       <use style="stroke:#000000;stroke-width:0.5;" x="135.652644101" xlink:href="#m4ee36846a0" y="3.0"/>
      </g>
     </g>
     <g id="text_2">
      <!-- -4 -->
      <defs>
       <path d="M 37.796875 64.3125 
L 12.890625 25.390625 
L 37.796875 25.390625 
z
M 35.203125 72.90625 
L 47.609375 72.90625 
L 47.609375 25.390625 
L 58.015625 25.390625 
L 58.015625 17.1875 
L 47.609375 17.1875 
L 47.609375 0 
L 37.796875 0 
L 37.796875 17.1875 
L 4.890625 17.1875 
L 4.890625 26.703125 
z
" id="BitstreamVeraSans-Roman-34"/>
      </defs>
      <g transform="translate(125.682331601 403.196875)scale(0.2 -0.2)">
       <use xlink:href="#BitstreamVeraSans-Roman-2d"/>
       <use x="36.083984375" xlink:href="#BitstreamVeraSans-Roman-34"/>
      </g>
     </g>
    </g>
    <g id="xtick_4">
     <g id="line2d_15">
      <path clip-path="url(#pa2b1d2c092)" d="M 202.050699 384 
L 202.050699 3 
" style="fill:none;stroke:#000000;stroke-dasharray:1.000000,3.000000;stroke-dashoffset:0.0;stroke-width:0.5;"/>
     </g>
     <g id="line2d_16">
      <g>
       <use style="stroke:#000000;stroke-width:0.5;" x="202.050698855" xlink:href="#m90b16278d6" y="384.0"/>
      </g>
     </g>
     <g id="line2d_17">
      <g>
       <use style="stroke:#000000;stroke-width:0.5;" x="202.050698855" xlink:href="#m4ee36846a0" y="3.0"/>
      </g>
     </g>
     <g id="text_3">
      <!-- -2 -->
      <defs>
       <path d="M 19.1875 8.296875 
L 53.609375 8.296875 
L 53.609375 0 
L 7.328125 0 
L 7.328125 8.296875 
Q 12.9375 14.109375 22.625 23.890625 
Q 32.328125 33.6875 34.8125 36.53125 
Q 39.546875 41.84375 41.421875 45.53125 
Q 43.3125 49.21875 43.3125 52.78125 
Q 43.3125 58.59375 39.234375 62.25 
Q 35.15625 65.921875 28.609375 65.921875 
Q 23.96875 65.921875 18.8125 64.3125 
Q 13.671875 62.703125 7.8125 59.421875 
L 7.8125 69.390625 
Q 13.765625 71.78125 18.9375 73 
Q 24.125 74.21875 28.421875 74.21875 
Q 39.75 74.21875 46.484375 68.546875 
Q 53.21875 62.890625 53.21875 53.421875 
Q 53.21875 48.921875 51.53125 44.890625 
Q 49.859375 40.875 45.40625 35.40625 
Q 44.1875 33.984375 37.640625 27.21875 
Q 31.109375 20.453125 19.1875 8.296875 
" id="BitstreamVeraSans-Roman-32"/>
      </defs>
      <g transform="translate(192.080386355 403.196875)scale(0.2 -0.2)">
       <use xlink:href="#BitstreamVeraSans-Roman-2d"/>
       <use x="36.083984375" xlink:href="#BitstreamVeraSans-Roman-32"/>
      </g>
     </g>
    </g>
    <g id="xtick_5">
     <g id="line2d_18">
      <path clip-path="url(#pa2b1d2c092)" d="M 268.448754 384 
L 268.448754 3 
" style="fill:none;stroke:#000000;stroke-dasharray:1.000000,3.000000;stroke-dashoffset:0.0;stroke-width:0.5;"/>
     </g>
     <g id="line2d_19">
      <g>
       <use style="stroke:#000000;stroke-width:0.5;" x="268.448753608" xlink:href="#m90b16278d6" y="384.0"/>
      </g>
     </g>
     <g id="line2d_20">
      <g>
       <use style="stroke:#000000;stroke-width:0.5;" x="268.448753608" xlink:href="#m4ee36846a0" y="3.0"/>
      </g>
     </g>
     <g id="text_4">
      <!-- 0 -->
      <defs>
       <path d="M 31.78125 66.40625 
Q 24.171875 66.40625 20.328125 58.90625 
Q 16.5 51.421875 16.5 36.375 
Q 16.5 21.390625 20.328125 13.890625 
Q 24.171875 6.390625 31.78125 6.390625 
Q 39.453125 6.390625 43.28125 13.890625 
Q 47.125 21.390625 47.125 36.375 
Q 47.125 51.421875 43.28125 58.90625 
Q 39.453125 66.40625 31.78125 66.40625 
M 31.78125 74.21875 
Q 44.046875 74.21875 50.515625 64.515625 
Q 56.984375 54.828125 56.984375 36.375 
Q 56.984375 17.96875 50.515625 8.265625 
Q 44.046875 -1.421875 31.78125 -1.421875 
Q 19.53125 -1.421875 13.0625 8.265625 
Q 6.59375 17.96875 6.59375 36.375 
Q 6.59375 54.828125 13.0625 64.515625 
Q 19.53125 74.21875 31.78125 74.21875 
" id="BitstreamVeraSans-Roman-30"/>
      </defs>
      <g transform="translate(262.086253608 403.196875)scale(0.2 -0.2)">
       <use xlink:href="#BitstreamVeraSans-Roman-30"/>
      </g>
     </g>
    </g>
    <g id="xtick_6">
     <g id="line2d_21">
      <path clip-path="url(#pa2b1d2c092)" d="M 334.846808 384 
L 334.846808 3 
" style="fill:none;stroke:#000000;stroke-dasharray:1.000000,3.000000;stroke-dashoffset:0.0;stroke-width:0.5;"/>
     </g>
     <g id="line2d_22">
      <g>
       <use style="stroke:#000000;stroke-width:0.5;" x="334.846808362" xlink:href="#m90b16278d6" y="384.0"/>
      </g>
     </g>
     <g id="line2d_23">
      <g>
       <use style="stroke:#000000;stroke-width:0.5;" x="334.846808362" xlink:href="#m4ee36846a0" y="3.0"/>
      </g>
     </g>
     <g id="text_5">
      <!-- 2 -->
      <g transform="translate(328.484308362 403.196875)scale(0.2 -0.2)">
       <use xlink:href="#BitstreamVeraSans-Roman-32"/>
      </g>
     </g>
    </g>
    <g id="xtick_7">
     <g id="line2d_24">
      <path clip-path="url(#pa2b1d2c092)" d="M 401.244863 384 
L 401.244863 3 
" style="fill:none;stroke:#000000;stroke-dasharray:1.000000,3.000000;stroke-dashoffset:0.0;stroke-width:0.5;"/>
     </g>
     <g id="line2d_25">
      <g>
       <use style="stroke:#000000;stroke-width:0.5;" x="401.244863116" xlink:href="#m90b16278d6" y="384.0"/>
      </g>
     </g>
     <g id="line2d_26">
      <g>
       <use style="stroke:#000000;stroke-width:0.5;" x="401.244863116" xlink:href="#m4ee36846a0" y="3.0"/>
      </g>
     </g>
     <g id="text_6">
      <!-- 4 -->
      <g transform="translate(394.882363116 403.196875)scale(0.2 -0.2)">
       <use xlink:href="#BitstreamVeraSans-Roman-34"/>
      </g>
     </g>
    </g>
    <g id="xtick_8">
     <g id="line2d_27">
      <path clip-path="url(#pa2b1d2c092)" d="M 467.642918 384 
L 467.642918 3 
" style="fill:none;stroke:#000000;stroke-dasharray:1.000000,3.000000;stroke-dashoffset:0.0;stroke-width:0.5;"/>
     </g>
     <g id="line2d_28">
      <g>
       <use style="stroke:#000000;stroke-width:0.5;" x="467.642917869" xlink:href="#m90b16278d6" y="384.0"/>
      </g>
     </g>
     <g id="line2d_29">
      <g>
       <use style="stroke:#000000;stroke-width:0.5;" x="467.642917869" xlink:href="#m4ee36846a0" y="3.0"/>
      </g>
     </g>
     <g id="text_7">
      <!-- 6 -->
      <g transform="translate(461.280417869 403.196875)scale(0.2 -0.2)">
       <use xlink:href="#BitstreamVeraSans-Roman-36"/>
      </g>
     </g>
    </g>
    <g id="xtick_9">
     <g id="line2d_30">
      <path clip-path="url(#pa2b1d2c092)" d="M 534.040973 384 
L 534.040973 3 
" style="fill:none;stroke:#000000;stroke-dasharray:1.000000,3.000000;stroke-dashoffset:0.0;stroke-width:0.5;"/>
     </g>
     <g id="line2d_31">
      <g>
       <use style="stroke:#000000;stroke-width:0.5;" x="534.040972623" xlink:href="#m90b16278d6" y="384.0"/>
      </g>
     </g>
     <g id="line2d_32">
      <g>
       <use style="stroke:#000000;stroke-width:0.5;" x="534.040972623" xlink:href="#m4ee36846a0" y="3.0"/>
      </g>
     </g>
     <g id="text_8">
      <!-- 8 -->
      <defs>
       <path d="M 31.78125 34.625 
Q 24.75 34.625 20.71875 30.859375 
Q 16.703125 27.09375 16.703125 20.515625 
Q 16.703125 13.921875 20.71875 10.15625 
Q 24.75 6.390625 31.78125 6.390625 
Q 38.8125 6.390625 42.859375 10.171875 
Q 46.921875 13.96875 46.921875 20.515625 
Q 46.921875 27.09375 42.890625 30.859375 
Q 38.875 34.625 31.78125 34.625 
M 21.921875 38.8125 
Q 15.578125 40.375 12.03125 44.71875 
Q 8.5 49.078125 8.5 55.328125 
Q 8.5 64.0625 14.71875 69.140625 
Q 20.953125 74.21875 31.78125 74.21875 
Q 42.671875 74.21875 48.875 69.140625 
Q 55.078125 64.0625 55.078125 55.328125 
Q 55.078125 49.078125 51.53125 44.71875 
Q 48 40.375 41.703125 38.8125 
Q 48.828125 37.15625 52.796875 32.3125 
Q 56.78125 27.484375 56.78125 20.515625 
Q 56.78125 9.90625 50.3125 4.234375 
Q 43.84375 -1.421875 31.78125 -1.421875 
Q 19.734375 -1.421875 13.25 4.234375 
Q 6.78125 9.90625 6.78125 20.515625 
Q 6.78125 27.484375 10.78125 32.3125 
Q 14.796875 37.15625 21.921875 38.8125 
M 18.3125 54.390625 
Q 18.3125 48.734375 21.84375 45.5625 
Q 25.390625 42.390625 31.78125 42.390625 
Q 38.140625 42.390625 41.71875 45.5625 
Q 45.3125 48.734375 45.3125 54.390625 
Q 45.3125 60.0625 41.71875 63.234375 
Q 38.140625 66.40625 31.78125 66.40625 
Q 25.390625 66.40625 21.84375 63.234375 
Q 18.3125 60.0625 18.3125 54.390625 
" id="BitstreamVeraSans-Roman-38"/>
      </defs>
      <g transform="translate(527.678472623 403.196875)scale(0.2 -0.2)">
       <use xlink:href="#BitstreamVeraSans-Roman-38"/>
      </g>
     </g>
    </g>
    <g id="xtick_10"/>
    <g id="xtick_11">
     <g id="line2d_33">
      <defs>
       <path d="M 0 0 
L 0 -2 
" id="m45eef7dd8c" style="stroke:#000000;stroke-width:0.5;"/>
      </defs>
      <g>
       <use style="stroke:#000000;stroke-width:0.5;" x="69.2545893472" xlink:href="#m45eef7dd8c" y="384.0"/>
      </g>
     </g>
     <g id="line2d_34">
      <defs>
       <path d="M 0 0 
L 0 2 
" id="m725b76a441" style="stroke:#000000;stroke-width:0.5;"/>
      </defs>
      <g>
       <use style="stroke:#000000;stroke-width:0.5;" x="69.2545893472" xlink:href="#m725b76a441" y="3.0"/>
      </g>
     </g>
    </g>
    <g id="xtick_12">
     <g id="line2d_35">
      <g>
       <use style="stroke:#000000;stroke-width:0.5;" x="135.652644101" xlink:href="#m45eef7dd8c" y="384.0"/>
      </g>
     </g>
     <g id="line2d_36">
      <g>
       <use style="stroke:#000000;stroke-width:0.5;" x="135.652644101" xlink:href="#m725b76a441" y="3.0"/>
      </g>
     </g>
    </g>
    <g id="xtick_13">
     <g id="line2d_37">
      <g>
       <use style="stroke:#000000;stroke-width:0.5;" x="202.050698855" xlink:href="#m45eef7dd8c" y="384.0"/>
      </g>
     </g>
     <g id="line2d_38">
      <g>
       <use style="stroke:#000000;stroke-width:0.5;" x="202.050698855" xlink:href="#m725b76a441" y="3.0"/>
      </g>
     </g>
    </g>
    <g id="xtick_14">
     <g id="line2d_39">
      <g>
       <use style="stroke:#000000;stroke-width:0.5;" x="268.448753608" xlink:href="#m45eef7dd8c" y="384.0"/>
      </g>
     </g>
     <g id="line2d_40">
      <g>
       <use style="stroke:#000000;stroke-width:0.5;" x="268.448753608" xlink:href="#m725b76a441" y="3.0"/>
      </g>
     </g>
    </g>
    <g id="xtick_15">
     <g id="line2d_41">
      <g>
       <use style="stroke:#000000;stroke-width:0.5;" x="334.846808362" xlink:href="#m45eef7dd8c" y="384.0"/>
      </g>
     </g>
     <g id="line2d_42">
      <g>
       <use style="stroke:#000000;stroke-width:0.5;" x="334.846808362" xlink:href="#m725b76a441" y="3.0"/>
      </g>
     </g>
    </g>
    <g id="xtick_16">
     <g id="line2d_43">
      <g>
       <use style="stroke:#000000;stroke-width:0.5;" x="401.244863116" xlink:href="#m45eef7dd8c" y="384.0"/>
      </g>
     </g>
     <g id="line2d_44">
      <g>
       <use style="stroke:#000000;stroke-width:0.5;" x="401.244863116" xlink:href="#m725b76a441" y="3.0"/>
      </g>
     </g>
    </g>
    <g id="xtick_17">
     <g id="line2d_45">
      <g>
       <use style="stroke:#000000;stroke-width:0.5;" x="467.642917869" xlink:href="#m45eef7dd8c" y="384.0"/>
      </g>
     </g>
     <g id="line2d_46">
      <g>
       <use style="stroke:#000000;stroke-width:0.5;" x="467.642917869" xlink:href="#m725b76a441" y="3.0"/>
      </g>
     </g>
    </g>
    <g id="xtick_18">
     <g id="line2d_47">
      <g>
       <use style="stroke:#000000;stroke-width:0.5;" x="534.040972623" xlink:href="#m45eef7dd8c" y="384.0"/>
      </g>
     </g>
     <g id="line2d_48">
      <g>
       <use style="stroke:#000000;stroke-width:0.5;" x="534.040972623" xlink:href="#m725b76a441" y="3.0"/>
      </g>
     </g>
    </g>
    <g id="text_9">
     <!-- log10 of Df -->
     <defs>
      <path id="BitstreamVeraSans-Roman-20"/>
      <path d="M 12.40625 8.296875 
L 28.515625 8.296875 
L 28.515625 63.921875 
L 10.984375 60.40625 
L 10.984375 69.390625 
L 28.421875 72.90625 
L 38.28125 72.90625 
L 38.28125 8.296875 
L 54.390625 8.296875 
L 54.390625 0 
L 12.40625 0 
z
" id="BitstreamVeraSans-Roman-31"/>
      <path d="M 30.609375 48.390625 
Q 23.390625 48.390625 19.1875 42.75 
Q 14.984375 37.109375 14.984375 27.296875 
Q 14.984375 17.484375 19.15625 11.84375 
Q 23.34375 6.203125 30.609375 6.203125 
Q 37.796875 6.203125 41.984375 11.859375 
Q 46.1875 17.53125 46.1875 27.296875 
Q 46.1875 37.015625 41.984375 42.703125 
Q 37.796875 48.390625 30.609375 48.390625 
M 30.609375 56 
Q 42.328125 56 49.015625 48.375 
Q 55.71875 40.765625 55.71875 27.296875 
Q 55.71875 13.875 49.015625 6.21875 
Q 42.328125 -1.421875 30.609375 -1.421875 
Q 18.84375 -1.421875 12.171875 6.21875 
Q 5.515625 13.875 5.515625 27.296875 
Q 5.515625 40.765625 12.171875 48.375 
Q 18.84375 56 30.609375 56 
" id="BitstreamVeraSans-Roman-6f"/>
      <path d="M 9.421875 75.984375 
L 18.40625 75.984375 
L 18.40625 0 
L 9.421875 0 
z
" id="BitstreamVeraSans-Roman-6c"/>
      <path d="M 19.671875 64.796875 
L 19.671875 8.109375 
L 31.59375 8.109375 
Q 46.6875 8.109375 53.6875 14.9375 
Q 60.6875 21.78125 60.6875 36.53125 
Q 60.6875 51.171875 53.6875 57.984375 
Q 46.6875 64.796875 31.59375 64.796875 
z
M 9.8125 72.90625 
L 30.078125 72.90625 
Q 51.265625 72.90625 61.171875 64.09375 
Q 71.09375 55.28125 71.09375 36.53125 
Q 71.09375 17.671875 61.125 8.828125 
Q 51.171875 0 30.078125 0 
L 9.8125 0 
z
" id="BitstreamVeraSans-Roman-44"/>
      <path d="M 45.40625 27.984375 
Q 45.40625 37.75 41.375 43.109375 
Q 37.359375 48.484375 30.078125 48.484375 
Q 22.859375 48.484375 18.828125 43.109375 
Q 14.796875 37.75 14.796875 27.984375 
Q 14.796875 18.265625 18.828125 12.890625 
Q 22.859375 7.515625 30.078125 7.515625 
Q 37.359375 7.515625 41.375 12.890625 
Q 45.40625 18.265625 45.40625 27.984375 
M 54.390625 6.78125 
Q 54.390625 -7.171875 48.1875 -13.984375 
Q 42 -20.796875 29.203125 -20.796875 
Q 24.46875 -20.796875 20.265625 -20.09375 
Q 16.0625 -19.390625 12.109375 -17.921875 
L 12.109375 -9.1875 
Q 16.0625 -11.328125 19.921875 -12.34375 
Q 23.78125 -13.375 27.78125 -13.375 
Q 36.625 -13.375 41.015625 -8.765625 
Q 45.40625 -4.15625 45.40625 5.171875 
L 45.40625 9.625 
Q 42.625 4.78125 38.28125 2.390625 
Q 33.9375 0 27.875 0 
Q 17.828125 0 11.671875 7.65625 
Q 5.515625 15.328125 5.515625 27.984375 
Q 5.515625 40.671875 11.671875 48.328125 
Q 17.828125 56 27.875 56 
Q 33.9375 56 38.28125 53.609375 
Q 42.625 51.21875 45.40625 46.390625 
L 45.40625 54.6875 
L 54.390625 54.6875 
z
" id="BitstreamVeraSans-Roman-67"/>
      <path d="M 37.109375 75.984375 
L 37.109375 68.5 
L 28.515625 68.5 
Q 23.6875 68.5 21.796875 66.546875 
Q 19.921875 64.59375 19.921875 59.515625 
L 19.921875 54.6875 
L 34.71875 54.6875 
L 34.71875 47.703125 
L 19.921875 47.703125 
L 19.921875 0 
L 10.890625 0 
L 10.890625 47.703125 
L 2.296875 47.703125 
L 2.296875 54.6875 
L 10.890625 54.6875 
L 10.890625 58.5 
Q 10.890625 67.625 15.140625 71.796875 
Q 19.390625 75.984375 28.609375 75.984375 
z
" id="BitstreamVeraSans-Roman-66"/>
     </defs>
     <g transform="translate(229.9340625 427.553125)scale(0.2 -0.2)">
      <use xlink:href="#BitstreamVeraSans-Roman-6c"/>
      <use x="27.783203125" xlink:href="#BitstreamVeraSans-Roman-6f"/>
      <use x="88.96484375" xlink:href="#BitstreamVeraSans-Roman-67"/>
      <use x="152.44140625" xlink:href="#BitstreamVeraSans-Roman-31"/>
      <use x="216.064453125" xlink:href="#BitstreamVeraSans-Roman-30"/>
      <use x="279.6875" xlink:href="#BitstreamVeraSans-Roman-20"/>
      <use x="311.474609375" xlink:href="#BitstreamVeraSans-Roman-6f"/>
      <use x="372.65625" xlink:href="#BitstreamVeraSans-Roman-66"/>
      <use x="407.861328125" xlink:href="#BitstreamVeraSans-Roman-20"/>
      <use x="439.6484375" xlink:href="#BitstreamVeraSans-Roman-44"/>
      <use x="516.650390625" xlink:href="#BitstreamVeraSans-Roman-66"/>
     </g>
    </g>
   </g>
   <g id="matplotlib.axis_2">
    <g id="ytick_1">
     <g id="line2d_49">
      <path clip-path="url(#pa2b1d2c092)" d="M 3 384 
L 567.24 384 
" style="fill:none;stroke:#000000;stroke-dasharray:1.000000,3.000000;stroke-dashoffset:0.0;stroke-width:0.5;"/>
     </g>
     <g id="line2d_50">
      <defs>
       <path d="M 0 0 
L 4 0 
" id="m98f5d3c76c" style="stroke:#000000;stroke-width:0.5;"/>
      </defs>
      <g>
       <use style="stroke:#000000;stroke-width:0.5;" x="3.0" xlink:href="#m98f5d3c76c" y="384.0"/>
      </g>
     </g>
     <g id="line2d_51">
      <defs>
       <path d="M 0 0 
L -4 0 
" id="me7ca48c471" style="stroke:#000000;stroke-width:0.5;"/>
      </defs>
      <g>
       <use style="stroke:#000000;stroke-width:0.5;" x="567.24" xlink:href="#me7ca48c471" y="384.0"/>
      </g>
     </g>
    </g>
    <g id="ytick_2">
     <g id="line2d_52">
      <path clip-path="url(#pa2b1d2c092)" d="M 3 308.554455 
L 567.24 308.554455 
" style="fill:none;stroke:#000000;stroke-dasharray:1.000000,3.000000;stroke-dashoffset:0.0;stroke-width:0.5;"/>
     </g>
     <g id="line2d_53">
      <g>
       <use style="stroke:#000000;stroke-width:0.5;" x="3.0" xlink:href="#m98f5d3c76c" y="308.554455446"/>
      </g>
     </g>
     <g id="line2d_54">
      <g>
       <use style="stroke:#000000;stroke-width:0.5;" x="567.24" xlink:href="#me7ca48c471" y="308.554455446"/>
      </g>
     </g>
    </g>
    <g id="ytick_3">
     <g id="line2d_55">
      <path clip-path="url(#pa2b1d2c092)" d="M 3 233.108911 
L 567.24 233.108911 
" style="fill:none;stroke:#000000;stroke-dasharray:1.000000,3.000000;stroke-dashoffset:0.0;stroke-width:0.5;"/>
     </g>
     <g id="line2d_56">
      <g>
       <use style="stroke:#000000;stroke-width:0.5;" x="3.0" xlink:href="#m98f5d3c76c" y="233.108910891"/>
      </g>
     </g>
     <g id="line2d_57">
      <g>
       <use style="stroke:#000000;stroke-width:0.5;" x="567.24" xlink:href="#me7ca48c471" y="233.108910891"/>
      </g>
     </g>
    </g>
    <g id="ytick_4">
     <g id="line2d_58">
      <path clip-path="url(#pa2b1d2c092)" d="M 3 157.663366 
L 567.24 157.663366 
" style="fill:none;stroke:#000000;stroke-dasharray:1.000000,3.000000;stroke-dashoffset:0.0;stroke-width:0.5;"/>
     </g>
     <g id="line2d_59">
      <g>
       <use style="stroke:#000000;stroke-width:0.5;" x="3.0" xlink:href="#m98f5d3c76c" y="157.663366337"/>
      </g>
     </g>
     <g id="line2d_60">
      <g>
       <use style="stroke:#000000;stroke-width:0.5;" x="567.24" xlink:href="#me7ca48c471" y="157.663366337"/>
      </g>
     </g>
    </g>
    <g id="ytick_5">
     <g id="line2d_61">
      <path clip-path="url(#pa2b1d2c092)" d="M 3 82.217822 
L 567.24 82.217822 
" style="fill:none;stroke:#000000;stroke-dasharray:1.000000,3.000000;stroke-dashoffset:0.0;stroke-width:0.5;"/>
     </g>
     <g id="line2d_62">
      <g>
       <use style="stroke:#000000;stroke-width:0.5;" x="3.0" xlink:href="#m98f5d3c76c" y="82.2178217822"/>
      </g>
     </g>
     <g id="line2d_63">
      <g>
       <use style="stroke:#000000;stroke-width:0.5;" x="567.24" xlink:href="#me7ca48c471" y="82.2178217822"/>
      </g>
     </g>
    </g>
    <g id="ytick_6">
     <g id="line2d_64">
      <path clip-path="url(#pa2b1d2c092)" d="M 3 6.772277 
L 567.24 6.772277 
" style="fill:none;stroke:#000000;stroke-dasharray:1.000000,3.000000;stroke-dashoffset:0.0;stroke-width:0.5;"/>
     </g>
     <g id="line2d_65">
      <g>
       <use style="stroke:#000000;stroke-width:0.5;" x="3.0" xlink:href="#m98f5d3c76c" y="6.77227722772"/>
      </g>
     </g>
     <g id="line2d_66">
      <g>
       <use style="stroke:#000000;stroke-width:0.5;" x="567.24" xlink:href="#me7ca48c471" y="6.77227722772"/>
      </g>
     </g>
    </g>
   </g>
   <g id="text_10">
    <!-- {f1-f5}, 5-D -->
    <defs>
     <path d="M 12.5 -9.28125 
L 15.921875 -9.28125 
Q 22.75 -9.28125 24.828125 -7.171875 
Q 26.90625 -5.078125 26.90625 1.90625 
L 26.90625 14.015625 
Q 26.90625 21.625 29.09375 25.09375 
Q 31.296875 28.5625 36.71875 29.890625 
Q 31.296875 31.109375 29.09375 34.5625 
Q 26.90625 38.03125 26.90625 45.703125 
L 26.90625 57.8125 
Q 26.90625 64.75 24.828125 66.875 
Q 22.75 69 15.921875 69 
L 12.5 69 
L 12.5 75.984375 
L 15.578125 75.984375 
Q 27.734375 75.984375 31.8125 72.390625 
Q 35.890625 68.796875 35.890625 58.015625 
L 35.890625 46.296875 
Q 35.890625 39.015625 38.515625 36.203125 
Q 41.15625 33.40625 48.09375 33.40625 
L 51.125 33.40625 
L 51.125 26.421875 
L 48.09375 26.421875 
Q 41.15625 26.421875 38.515625 23.578125 
Q 35.890625 20.75 35.890625 13.375 
L 35.890625 1.703125 
Q 35.890625 -9.078125 31.8125 -12.6875 
Q 27.734375 -16.3125 15.578125 -16.3125 
L 12.5 -16.3125 
z
" id="BitstreamVeraSans-Roman-7d"/>
     <path d="M 51.125 -9.28125 
L 51.125 -16.3125 
L 48.09375 -16.3125 
Q 35.9375 -16.3125 31.8125 -12.6875 
Q 27.6875 -9.078125 27.6875 1.703125 
L 27.6875 13.375 
Q 27.6875 20.75 25.046875 23.578125 
Q 22.40625 26.421875 15.484375 26.421875 
L 12.5 26.421875 
L 12.5 33.40625 
L 15.484375 33.40625 
Q 22.46875 33.40625 25.078125 36.203125 
Q 27.6875 39.015625 27.6875 46.296875 
L 27.6875 58.015625 
Q 27.6875 68.796875 31.8125 72.390625 
Q 35.9375 75.984375 48.09375 75.984375 
L 51.125 75.984375 
L 51.125 69 
L 47.796875 69 
Q 40.921875 69 38.8125 66.84375 
Q 36.71875 64.703125 36.71875 57.8125 
L 36.71875 45.703125 
Q 36.71875 38.03125 34.5 34.5625 
Q 32.28125 31.109375 26.90625 29.890625 
Q 32.328125 28.5625 34.515625 25.09375 
Q 36.71875 21.625 36.71875 14.015625 
L 36.71875 1.90625 
Q 36.71875 -4.984375 38.8125 -7.125 
Q 40.921875 -9.28125 47.796875 -9.28125 
z
" id="BitstreamVeraSans-Roman-7b"/>
     <path d="M 11.71875 12.40625 
L 22.015625 12.40625 
L 22.015625 4 
L 14.015625 -11.625 
L 7.71875 -11.625 
L 11.71875 4 
z
" id="BitstreamVeraSans-Roman-2c"/>
     <path d="M 10.796875 72.90625 
L 49.515625 72.90625 
L 49.515625 64.59375 
L 19.828125 64.59375 
L 19.828125 46.734375 
Q 21.96875 47.46875 24.109375 47.828125 
Q 26.265625 48.1875 28.421875 48.1875 
Q 40.625 48.1875 47.75 41.5 
Q 54.890625 34.8125 54.890625 23.390625 
Q 54.890625 11.625 47.5625 5.09375 
Q 40.234375 -1.421875 26.90625 -1.421875 
Q 22.3125 -1.421875 17.546875 -0.640625 
Q 12.796875 0.140625 7.71875 1.703125 
L 7.71875 11.625 
Q 12.109375 9.234375 16.796875 8.0625 
Q 21.484375 6.890625 26.703125 6.890625 
Q 35.15625 6.890625 40.078125 11.328125 
Q 45.015625 15.765625 45.015625 23.390625 
Q 45.015625 31 40.078125 35.4375 
Q 35.15625 39.890625 26.703125 39.890625 
Q 22.75 39.890625 18.8125 39.015625 
Q 14.890625 38.140625 10.796875 36.28125 
z
" id="BitstreamVeraSans-Roman-35"/>
    </defs>
    <g transform="translate(435.7052 376.38)scale(0.2 -0.2)">
     <use xlink:href="#BitstreamVeraSans-Roman-7b"/>
     <use x="63.623046875" xlink:href="#BitstreamVeraSans-Roman-66"/>
     <use x="98.828125" xlink:href="#BitstreamVeraSans-Roman-31"/>
     <use x="162.451171875" xlink:href="#BitstreamVeraSans-Roman-2d"/>
     <use x="198.53515625" xlink:href="#BitstreamVeraSans-Roman-66"/>
     <use x="233.740234375" xlink:href="#BitstreamVeraSans-Roman-35"/>
     <use x="297.36328125" xlink:href="#BitstreamVeraSans-Roman-7d"/>
     <use x="360.986328125" xlink:href="#BitstreamVeraSans-Roman-2c"/>
     <use x="392.7734375" xlink:href="#BitstreamVeraSans-Roman-20"/>
     <use x="424.560546875" xlink:href="#BitstreamVeraSans-Roman-35"/>
     <use x="488.18359375" xlink:href="#BitstreamVeraSans-Roman-2d"/>
     <use x="524.267578125" xlink:href="#BitstreamVeraSans-Roman-44"/>
    </g>
   </g>
   <g id="text_11">
    <!-- v2.2.1.10 -->
    <defs>
     <path d="M 2.984375 54.6875 
L 12.5 54.6875 
L 29.59375 8.796875 
L 46.6875 54.6875 
L 56.203125 54.6875 
L 35.6875 0 
L 23.484375 0 
z
" id="BitstreamVeraSans-Roman-76"/>
     <path d="M 10.6875 12.40625 
L 21 12.40625 
L 21 0 
L 10.6875 0 
z
" id="BitstreamVeraSans-Roman-2e"/>
    </defs>
    <g style="fill:#808080;" transform="translate(261.4871875 378.1103125)scale(0.1 -0.1)">
     <use xlink:href="#BitstreamVeraSans-Roman-76"/>
     <use x="59.1796875" xlink:href="#BitstreamVeraSans-Roman-32"/>
     <use x="122.802734375" xlink:href="#BitstreamVeraSans-Roman-2e"/>
     <use x="154.58984375" xlink:href="#BitstreamVeraSans-Roman-32"/>
     <use x="218.212890625" xlink:href="#BitstreamVeraSans-Roman-2e"/>
     <use x="250.0" xlink:href="#BitstreamVeraSans-Roman-31"/>
     <use x="313.623046875" xlink:href="#BitstreamVeraSans-Roman-2e"/>
     <use x="345.41015625" xlink:href="#BitstreamVeraSans-Roman-31"/>
     <use x="409.033203125" xlink:href="#BitstreamVeraSans-Roman-30"/>
    </g>
   </g>
  </g>
 </g>
 <defs>
  <clipPath id="pa2b1d2c092">
   <rect height="381.0" width="564.24" x="3.0" y="3.0"/>
  </clipPath>
 </defs>
</svg>
