<?xml version="1.0" encoding="utf-8" standalone="no"?>
<!DOCTYPE svg PUBLIC "-//W3C//DTD SVG 1.1//EN"
  "http://www.w3.org/Graphics/SVG/1.1/DTD/svg11.dtd">
<!-- Created with matplotlib (http://matplotlib.org/) -->
<svg height="432pt" version="1.1" viewBox="0 0 576 432" width="576pt" xmlns="http://www.w3.org/2000/svg" xmlns:xlink="http://www.w3.org/1999/xlink">
 <defs>
  <style type="text/css">
*{stroke-linecap:butt;stroke-linejoin:round;stroke-miterlimit:100000;}
  </style>
 </defs>
 <g id="figure_1">
  <g id="patch_1">
   <path d="M 0 432 
L 576 432 
L 576 0 
L 0 0 
z
" style="fill:#ffffff;"/>
  </g>
  <g id="axes_1">
   <g id="patch_2">
    <path d="M 3 384 
L 567.24 384 
L 567.24 3 
L 3 3 
z
" style="fill:#ffffff;"/>
   </g>
   <g id="line2d_1">
    <path clip-path="url(#p7b21e80b6b)" d="M 209.77524 384 
L 209.77524 378.970297 
L 221.065807 378.970297 
L 221.065807 373.940594 
L 225.313535 373.940594 
L 225.313535 368.910891 
L 226.033251 368.910891 
L 226.033251 363.881188 
L 230.2208 363.881188 
L 230.2208 358.851485 
L 231.958614 358.851485 
L 231.958614 353.821782 
L 233.310377 353.821782 
L 233.310377 348.792079 
L 235.337894 348.792079 
L 235.337894 343.762376 
L 237.452965 343.762376 
L 237.452965 338.732673 
L 238.385912 338.732673 
L 238.385912 333.70297 
L 240.953576 333.70297 
L 240.953576 328.673267 
L 241.227131 328.673267 
L 241.227131 323.643564 
L 242.192985 323.643564 
L 242.192985 318.613861 
L 251.120742 318.613861 
L 251.120742 313.584158 
L 251.992064 313.584158 
L 251.992064 308.554455 
L 255.663416 308.554455 
L 255.663416 303.524752 
L 256.058671 303.524752 
L 256.058671 298.49505 
L 256.30375 298.49505 
L 256.376933 288.435644 
L 257.313372 288.435644 
L 257.313372 283.405941 
L 257.935538 283.405941 
L 257.935538 278.376238 
L 258.11221 278.376238 
L 258.11221 273.346535 
L 261.147296 273.346535 
L 261.147296 268.316832 
L 263.935461 268.316832 
L 263.935461 263.287129 
L 265.584265 263.287129 
L 265.584265 258.257426 
L 266.470321 258.257426 
L 266.470321 253.227723 
L 267.099878 253.227723 
L 267.113307 243.168317 
L 268.344962 243.168317 
L 268.344962 238.138614 
L 268.580737 238.138614 
L 268.580737 233.108911 
L 269.125388 233.108911 
L 269.125388 228.079208 
L 269.476896 228.079208 
L 269.476896 223.049505 
L 269.89911 223.049505 
L 269.89911 218.019802 
L 270.887811 218.019802 
L 270.887811 212.990099 
L 271.402101 212.990099 
L 271.402101 207.960396 
L 271.889306 207.960396 
L 271.889306 202.930693 
L 272.339666 202.930693 
L 272.339666 197.90099 
L 272.475823 197.90099 
L 272.475823 192.871287 
L 272.625826 192.871287 
L 272.625826 187.841584 
L 273.329419 187.841584 
L 273.329419 182.811881 
L 273.639599 182.811881 
L 273.639599 177.782178 
L 273.810791 177.782178 
L 273.810791 172.752475 
L 274.478487 172.752475 
L 274.478487 167.722772 
L 275.058389 167.722772 
L 275.159038 152.633663 
L 275.326547 152.633663 
L 275.326547 147.60396 
L 275.659504 147.60396 
L 275.710245 132.514851 
L 275.812417 132.514851 
L 275.841521 122.455446 
L 275.935231 122.455446 
L 275.935231 117.425743 
L 276.178759 117.425743 
L 276.178759 112.39604 
L 276.363815 112.39604 
L 276.363815 107.366337 
L 277.64648 107.366337 
L 277.64648 102.336634 
L 277.909662 102.336634 
L 277.953124 92.277228 
L 278.061615 92.277228 
L 278.061615 87.247525 
L 278.858598 87.247525 
L 278.858598 82.217822 
L 307.092383 82.217822 
L 307.092383 77.188119 
L 307.683032 77.188119 
L 307.760624 67.128713 
L 308.410367 67.128713 
L 308.410367 62.09901 
L 311.001319 62.09901 
L 311.001319 57.069307 
L 311.321543 57.069307 
L 311.321543 52.039604 
L 312.085857 52.039604 
L 312.085857 47.009901 
L 313.162134 47.009901 
L 313.162134 41.980198 
L 313.281576 41.980198 
L 313.281576 36.950495 
L 314.088566 36.950495 
L 314.088566 31.920792 
L 314.290418 31.920792 
L 314.290418 26.891089 
L 314.440618 26.891089 
L 314.495785 16.831683 
L 315.449996 16.831683 
L 315.449996 11.80198 
L 316.864479 11.80198 
L 316.864479 6.772277 
L 316.864479 6.772277 
L 567.24 6.772277 
L 567.24 6.772277 
" style="fill:none;stroke:#ff0000;stroke-linecap:square;stroke-width:3.0;"/>
   </g>
   <g id="line2d_2">
    <path clip-path="url(#p7b21e80b6b)" d="M 295.783623 384 
L 295.783623 378.970297 
L 295.91004 378.970297 
L 295.91004 373.940594 
L 298.642737 373.940594 
L 298.642737 368.910891 
L 300.225393 368.910891 
L 300.225393 363.881188 
L 302.518936 363.881188 
L 302.518936 358.851485 
L 303.670235 358.851485 
L 303.670235 353.821782 
L 305.276396 353.821782 
L 305.360441 343.762376 
L 305.979372 343.762376 
L 305.979372 338.732673 
L 306.226118 338.732673 
L 306.226118 333.70297 
L 306.440784 333.70297 
L 306.440784 328.673267 
L 307.500483 328.673267 
L 307.500483 323.643564 
L 308.054342 323.643564 
L 308.147997 313.584158 
L 311.778277 313.584158 
L 311.854607 303.524752 
L 312.038769 303.524752 
L 312.038769 298.49505 
L 313.113882 298.49505 
L 313.113882 293.465347 
L 315.089595 293.465347 
L 315.089595 288.435644 
L 315.915165 288.435644 
L 315.915165 283.405941 
L 316.031025 283.405941 
L 316.031025 278.376238 
L 316.610384 278.376238 
L 316.610384 273.346535 
L 316.886789 273.346535 
L 316.886789 268.316832 
L 319.340871 268.316832 
L 319.340871 263.287129 
L 319.521551 263.287129 
L 319.521551 258.257426 
L 320.965151 258.257426 
L 320.965151 253.227723 
L 323.112173 253.227723 
L 323.112173 248.19802 
L 323.893881 248.19802 
L 323.893881 243.168317 
L 324.241246 243.168317 
L 324.241246 238.138614 
L 324.573575 238.138614 
L 324.573575 233.108911 
L 325.677185 233.108911 
L 325.677185 228.079208 
L 326.428781 228.079208 
L 326.428781 223.049505 
L 326.70395 223.049505 
L 326.70395 218.019802 
L 327.154915 218.019802 
L 327.154915 212.990099 
L 327.375343 212.990099 
L 327.375343 207.960396 
L 327.83176 207.960396 
L 327.83176 202.930693 
L 328.082492 202.930693 
L 328.082492 197.90099 
L 328.290549 197.90099 
L 328.290549 192.871287 
L 328.863588 192.871287 
L 328.863588 187.841584 
L 329.353892 187.841584 
L 329.425846 177.782178 
L 329.466392 177.782178 
L 329.573108 167.722772 
L 329.581597 167.722772 
L 329.653011 157.663366 
L 330.309129 157.663366 
L 330.309129 152.633663 
L 330.451293 152.633663 
L 330.451293 147.60396 
L 330.664335 147.60396 
L 330.719766 132.514851 
L 330.890391 132.514851 
L 330.890391 127.485149 
L 331.304547 127.485149 
L 331.304547 122.455446 
L 331.548837 122.455446 
L 331.548837 117.425743 
L 331.678518 117.425743 
L 331.732159 107.366337 
L 333.679309 107.366337 
L 333.679309 102.336634 
L 334.113809 102.336634 
L 334.204829 92.277228 
L 334.303477 92.277228 
L 334.303477 87.247525 
L 335.385764 87.247525 
L 335.385764 82.217822 
L 390.002579 82.217822 
L 390.002579 77.188119 
L 391.130654 77.188119 
L 391.130654 72.158416 
L 395.237842 72.158416 
L 395.237842 6.772277 
L 395.237842 6.772277 
L 567.24 6.772277 
L 567.24 6.772277 
" style="fill:none;stroke:#00bfbf;stroke-linecap:square;"/>
   </g>
   <g id="line2d_3">
    <path clip-path="url(#p7b21e80b6b)" d="M 280.635906 384 
L 280.635906 378.970297 
L 290.274804 378.970297 
L 290.274804 373.940594 
L 291.880707 373.940594 
L 291.880707 368.910891 
L 294.952156 368.910891 
L 294.952156 363.881188 
L 295.502628 363.881188 
L 295.510215 353.821782 
L 295.783623 353.821782 
L 295.783623 348.792079 
L 295.91004 348.792079 
L 295.91004 343.762376 
L 296.420634 343.762376 
L 296.420634 338.732673 
L 298.870014 338.732673 
L 298.870014 333.70297 
L 299.651112 333.70297 
L 299.651112 328.673267 
L 302.518936 328.673267 
L 302.518936 323.643564 
L 302.967548 323.643564 
L 302.967548 318.613861 
L 303.215102 318.613861 
L 303.215102 313.584158 
L 305.276396 313.584158 
L 305.276396 308.554455 
L 305.9208 308.554455 
L 305.979372 298.49505 
L 307.500483 298.49505 
L 307.500483 293.465347 
L 308.147997 293.465347 
L 308.147997 288.435644 
L 308.828153 288.435644 
L 308.828153 283.405941 
L 309.635167 283.405941 
L 309.635167 278.376238 
L 312.038769 278.376238 
L 312.038769 273.346535 
L 313.009245 273.346535 
L 313.009245 268.316832 
L 313.813689 268.316832 
L 313.813689 263.287129 
L 314.207774 263.287129 
L 314.207774 258.257426 
L 315.915165 258.257426 
L 315.915165 253.227723 
L 316.031025 253.227723 
L 316.031025 248.19802 
L 316.610384 248.19802 
L 316.610384 243.168317 
L 317.653175 243.168317 
L 317.653175 238.138614 
L 318.887119 238.138614 
L 318.887119 233.108911 
L 319.169645 233.108911 
L 319.169645 228.079208 
L 319.340871 228.079208 
L 319.340871 223.049505 
L 319.521551 223.049505 
L 319.521551 218.019802 
L 320.965151 218.019802 
L 320.965151 212.990099 
L 321.216635 212.990099 
L 321.216635 207.960396 
L 323.574275 207.960396 
L 323.574275 202.930693 
L 323.893881 202.930693 
L 323.893881 197.90099 
L 324.648033 197.90099 
L 324.648033 192.871287 
L 326.39545 192.871287 
L 326.39545 187.841584 
L 326.70395 187.841584 
L 326.70395 182.811881 
L 327.154915 182.811881 
L 327.154915 177.782178 
L 327.279575 177.782178 
L 327.375343 162.693069 
L 327.691135 162.693069 
L 327.691135 157.663366 
L 327.83176 157.663366 
L 327.83176 152.633663 
L 328.290549 152.633663 
L 328.290549 147.60396 
L 328.410436 147.60396 
L 328.410436 142.574257 
L 328.834792 142.574257 
L 328.834792 137.544554 
L 329.124206 137.544554 
L 329.124206 132.514851 
L 329.425846 132.514851 
L 329.466392 122.455446 
L 329.573108 122.455446 
L 329.573108 117.425743 
L 330.152813 117.425743 
L 330.152813 112.39604 
L 330.70856 112.39604 
L 330.70856 107.366337 
L 331.304547 107.366337 
L 331.304547 102.336634 
L 331.548837 102.336634 
L 331.548837 97.306931 
L 331.755957 97.306931 
L 331.755957 92.277228 
L 333.718769 92.277228 
L 333.718769 87.247525 
L 334.204829 87.247525 
L 334.303477 77.188119 
L 335.385764 77.188119 
L 335.385764 72.158416 
L 381.609439 72.158416 
L 381.609439 67.128713 
L 382.215578 67.128713 
L 382.215578 62.09901 
L 390.002579 62.09901 
L 390.002579 57.069307 
L 391.130654 57.069307 
L 391.130654 52.039604 
L 393.112703 52.039604 
L 393.112703 47.009901 
L 394.892147 47.009901 
L 394.892147 41.980198 
L 395.237842 41.980198 
L 395.237842 6.772277 
L 395.237842 6.772277 
L 567.24 6.772277 
L 567.24 6.772277 
" style="fill:none;stroke:#bf00bf;stroke-linecap:square;"/>
   </g>
   <g id="line2d_4">
    <path clip-path="url(#p7b21e80b6b)" d="M 280.635906 384 
L 280.635906 378.970297 
L 290.274804 378.970297 
L 290.274804 373.940594 
L 291.880707 373.940594 
L 291.880707 368.910891 
L 292.743307 368.910891 
L 292.743307 363.881188 
L 294.032313 363.881188 
L 294.032313 358.851485 
L 294.952156 358.851485 
L 294.952156 353.821782 
L 295.510215 353.821782 
L 295.510215 348.792079 
L 295.656183 348.792079 
L 295.727049 338.732673 
L 295.783623 338.732673 
L 295.783623 333.70297 
L 295.91004 333.70297 
L 295.91004 328.673267 
L 296.14084 328.673267 
L 296.14084 323.643564 
L 296.420634 323.643564 
L 296.420634 318.613861 
L 298.870014 318.613861 
L 298.870014 313.584158 
L 299.646623 313.584158 
L 299.651112 303.524752 
L 301.446086 303.524752 
L 301.487558 293.465347 
L 302.454227 293.465347 
L 302.518936 283.405941 
L 303.349909 283.405941 
L 303.349909 278.376238 
L 305.9208 278.376238 
L 305.9208 273.346535 
L 307.500483 273.346535 
L 307.500483 268.316832 
L 308.147997 268.316832 
L 308.147997 263.287129 
L 308.828153 263.287129 
L 308.828153 258.257426 
L 311.843367 258.257426 
L 311.843367 253.227723 
L 312.038769 253.227723 
L 312.038769 248.19802 
L 312.761417 248.19802 
L 312.761417 243.168317 
L 313.009245 243.168317 
L 313.009245 238.138614 
L 313.432104 238.138614 
L 313.432104 233.108911 
L 314.207774 233.108911 
L 314.207774 228.079208 
L 314.701354 228.079208 
L 314.701354 223.049505 
L 316.031025 223.049505 
L 316.031025 218.019802 
L 316.610384 218.019802 
L 316.610384 212.990099 
L 317.162103 212.990099 
L 317.162103 207.960396 
L 317.653175 207.960396 
L 317.653175 202.930693 
L 319.169645 202.930693 
L 319.169645 197.90099 
L 319.41501 197.90099 
L 319.41501 192.871287 
L 320.965151 192.871287 
L 320.965151 187.841584 
L 323.018261 187.841584 
L 323.018261 182.811881 
L 323.499478 182.811881 
L 323.499478 177.782178 
L 324.648033 177.782178 
L 324.648033 172.752475 
L 326.39545 172.752475 
L 326.39545 167.722772 
L 326.542377 167.722772 
L 326.542377 162.693069 
L 326.70395 162.693069 
L 326.70395 157.663366 
L 327.154915 157.663366 
L 327.154915 152.633663 
L 327.329519 152.633663 
L 327.375343 142.574257 
L 327.691135 142.574257 
L 327.691135 137.544554 
L 327.83176 137.544554 
L 327.83176 132.514851 
L 328.243589 132.514851 
L 328.243589 127.485149 
L 328.461248 127.485149 
L 328.461248 122.455446 
L 328.834792 122.455446 
L 328.834792 117.425743 
L 329.425846 117.425743 
L 329.466392 102.336634 
L 330.70856 102.336634 
L 330.70856 97.306931 
L 331.304547 97.306931 
L 331.352075 87.247525 
L 331.478377 87.247525 
L 331.478377 82.217822 
L 331.755957 82.217822 
L 331.755957 77.188119 
L 335.385764 77.188119 
L 335.385764 72.158416 
L 358.187154 72.158416 
L 358.187154 67.128713 
L 375.079045 67.128713 
L 375.079045 62.09901 
L 382.215578 62.09901 
L 382.215578 57.069307 
L 383.713381 57.069307 
L 383.713381 52.039604 
L 388.052931 52.039604 
L 388.052931 47.009901 
L 390.002579 47.009901 
L 390.002579 41.980198 
L 390.688349 41.980198 
L 390.688349 36.950495 
L 393.112703 36.950495 
L 393.112703 31.920792 
L 395.237842 31.920792 
L 395.237842 6.772277 
L 395.237842 6.772277 
L 567.24 6.772277 
L 567.24 6.772277 
" style="fill:none;stroke:#000000;stroke-linecap:square;"/>
   </g>
   <g id="line2d_5">
    <path clip-path="url(#p7b21e80b6b)" d="M 280.635906 384 
L 280.635906 378.970297 
L 290.274804 378.970297 
L 290.274804 373.940594 
L 291.880707 373.940594 
L 291.880707 368.910891 
L 292.743307 368.910891 
L 292.743307 363.881188 
L 294.032313 363.881188 
L 294.032313 358.851485 
L 294.952156 358.851485 
L 294.952156 353.821782 
L 295.510215 353.821782 
L 295.510215 348.792079 
L 295.656183 348.792079 
L 295.727049 338.732673 
L 295.783623 338.732673 
L 295.783623 333.70297 
L 295.91004 333.70297 
L 295.91004 328.673267 
L 296.14084 328.673267 
L 296.14084 323.643564 
L 296.420634 323.643564 
L 296.420634 318.613861 
L 298.870014 318.613861 
L 298.870014 313.584158 
L 299.029222 313.584158 
L 299.029222 308.554455 
L 299.646623 308.554455 
L 299.651112 298.49505 
L 301.446086 298.49505 
L 301.487558 288.435644 
L 302.288907 288.435644 
L 302.288907 283.405941 
L 302.518936 283.405941 
L 302.518936 278.376238 
L 303.349909 278.376238 
L 303.349909 273.346535 
L 304.46561 273.346535 
L 304.46561 268.316832 
L 304.692941 268.316832 
L 304.692941 263.287129 
L 305.9208 263.287129 
L 305.9208 258.257426 
L 307.500483 258.257426 
L 307.500483 253.227723 
L 308.147997 253.227723 
L 308.147997 248.19802 
L 308.828153 248.19802 
L 308.828153 243.168317 
L 311.266507 243.168317 
L 311.266507 238.138614 
L 311.843367 238.138614 
L 311.843367 233.108911 
L 312.038769 233.108911 
L 312.038769 228.079208 
L 313.432104 228.079208 
L 313.432104 223.049505 
L 314.207774 223.049505 
L 314.207774 218.019802 
L 314.368498 218.019802 
L 314.368498 212.990099 
L 315.768358 212.990099 
L 315.768358 207.960396 
L 316.610384 207.960396 
L 316.610384 202.930693 
L 317.162103 202.930693 
L 317.162103 197.90099 
L 317.653175 197.90099 
L 317.653175 192.871287 
L 319.169645 192.871287 
L 319.169645 187.841584 
L 319.41501 187.841584 
L 319.41501 182.811881 
L 320.965151 182.811881 
L 320.965151 177.782178 
L 321.741886 177.782178 
L 321.741886 172.752475 
L 323.018261 172.752475 
L 323.018261 167.722772 
L 323.499478 167.722772 
L 323.499478 162.693069 
L 326.542377 162.693069 
L 326.542377 157.663366 
L 326.70395 157.663366 
L 326.70395 152.633663 
L 327.154915 152.633663 
L 327.154915 147.60396 
L 327.375343 147.60396 
L 327.375343 142.574257 
L 327.691135 142.574257 
L 327.691135 137.544554 
L 327.83176 137.544554 
L 327.83176 132.514851 
L 328.243589 132.514851 
L 328.243589 127.485149 
L 328.461248 127.485149 
L 328.461248 122.455446 
L 328.834792 122.455446 
L 328.834792 117.425743 
L 329.425846 117.425743 
L 329.466392 102.336634 
L 330.70856 102.336634 
L 330.70856 97.306931 
L 331.304547 97.306931 
L 331.352075 87.247525 
L 331.478377 87.247525 
L 331.478377 82.217822 
L 331.755957 82.217822 
L 331.814246 72.158416 
L 358.187154 72.158416 
L 358.187154 67.128713 
L 363.869434 67.128713 
L 363.869434 62.09901 
L 365.126249 62.09901 
L 365.126249 57.069307 
L 372.376585 57.069307 
L 372.376585 52.039604 
L 380.906827 52.039604 
L 380.906827 47.009901 
L 382.215578 47.009901 
L 382.215578 41.980198 
L 384.657541 41.980198 
L 384.657541 36.950495 
L 386.272658 36.950495 
L 386.272658 31.920792 
L 388.052931 31.920792 
L 388.052931 26.891089 
L 388.469474 26.891089 
L 388.469474 21.861386 
L 390.002579 21.861386 
L 390.002579 16.831683 
L 395.237842 16.831683 
L 395.237842 6.772277 
L 395.237842 6.772277 
L 567.24 6.772277 
L 567.24 6.772277 
" style="fill:none;stroke:#00bfbf;stroke-linecap:square;"/>
   </g>
   <g id="line2d_6">
    <path clip-path="url(#p7b21e80b6b)" d="M 276.369037 384 
L 276.369037 378.970297 
L 277.946405 378.970297 
L 277.946405 373.940594 
L 278.358287 373.940594 
L 278.358287 368.910891 
L 278.77023 368.910891 
L 278.77023 363.881188 
L 279.101399 363.881188 
L 279.101399 358.851485 
L 281.378409 358.851485 
L 281.378409 353.821782 
L 281.673918 353.821782 
L 281.673918 348.792079 
L 282.483525 348.792079 
L 282.483525 343.762376 
L 283.835804 343.762376 
L 283.923098 333.70297 
L 284.300976 333.70297 
L 284.300976 328.673267 
L 285.812059 328.673267 
L 285.812059 323.643564 
L 286.270502 323.643564 
L 286.270502 318.613861 
L 286.717565 318.613861 
L 286.717565 313.584158 
L 287.052763 313.584158 
L 287.052763 308.554455 
L 287.333364 308.554455 
L 287.333364 303.524752 
L 288.094765 303.524752 
L 288.094765 298.49505 
L 288.250852 298.49505 
L 288.250852 293.465347 
L 288.847617 293.465347 
L 288.847617 288.435644 
L 290.932218 288.435644 
L 290.932218 283.405941 
L 291.387399 283.405941 
L 291.387399 278.376238 
L 291.550717 278.376238 
L 291.550717 273.346535 
L 292.875878 273.346535 
L 292.875878 268.316832 
L 293.111556 268.316832 
L 293.111556 263.287129 
L 293.495302 263.287129 
L 293.495302 258.257426 
L 293.958565 258.257426 
L 293.977289 248.19802 
L 294.777074 248.19802 
L 294.777074 243.168317 
L 295.727049 243.168317 
L 295.783623 233.108911 
L 296.709118 233.108911 
L 296.709118 228.079208 
L 297.164462 228.079208 
L 297.164462 223.049505 
L 297.348743 223.049505 
L 297.348743 218.019802 
L 297.721954 218.019802 
L 297.721954 212.990099 
L 298.477697 212.990099 
L 298.477697 207.960396 
L 299.646623 207.960396 
L 299.646623 202.930693 
L 300.471074 202.930693 
L 300.471074 197.90099 
L 301.569715 197.90099 
L 301.569715 192.871287 
L 302.384304 192.871287 
L 302.384304 187.841584 
L 302.663421 187.841584 
L 302.700753 177.782178 
L 303.954087 177.782178 
L 303.954087 172.752475 
L 307.809587 172.752475 
L 307.811711 162.693069 
L 310.314143 162.693069 
L 310.314143 157.663366 
L 311.194951 157.663366 
L 311.194951 152.633663 
L 312.870618 152.633663 
L 312.870618 147.60396 
L 314.387891 147.60396 
L 314.387891 142.574257 
L 320.891484 142.574257 
L 320.891484 137.544554 
L 321.225423 137.544554 
L 321.225423 132.514851 
L 321.422377 132.514851 
L 321.500463 122.455446 
L 324.847021 122.455446 
L 324.847021 117.425743 
L 325.007286 117.425743 
L 325.007286 112.39604 
L 325.349317 112.39604 
L 325.349317 107.366337 
L 326.075001 107.366337 
L 326.147072 97.306931 
L 326.542377 97.306931 
L 326.542377 92.277228 
L 326.764137 92.277228 
L 326.764137 87.247525 
L 326.913672 87.247525 
L 326.913672 82.217822 
L 327.375343 82.217822 
L 327.375343 77.188119 
L 327.497512 77.188119 
L 327.58286 57.069307 
L 329.435806 57.069307 
L 329.435806 52.039604 
L 337.162515 52.039604 
L 337.162515 47.009901 
L 340.8227 47.009901 
L 340.8227 41.980198 
L 340.95456 41.980198 
L 340.95456 36.950495 
L 343.920656 36.950495 
L 343.920656 31.920792 
L 347.291253 31.920792 
L 347.384478 21.861386 
L 347.795955 21.861386 
L 347.795955 16.831683 
L 355.70789 16.831683 
L 355.70789 11.80198 
L 358.187154 11.80198 
L 358.187154 6.772277 
L 358.187154 6.772277 
L 567.24 6.772277 
L 567.24 6.772277 
" style="fill:none;stroke:#bf00bf;stroke-linecap:square;"/>
   </g>
   <g id="line2d_7">
    <path clip-path="url(#p7b21e80b6b)" d="M 258.11221 384 
L 258.11221 378.970297 
L 258.739538 378.970297 
L 258.739538 373.940594 
L 272.828735 373.940594 
L 272.828735 368.910891 
L 276.369037 368.910891 
L 276.369037 363.881188 
L 277.009796 363.881188 
L 277.009796 358.851485 
L 277.616585 358.851485 
L 277.616585 353.821782 
L 277.946405 353.821782 
L 277.946405 348.792079 
L 278.153121 348.792079 
L 278.263785 328.673267 
L 278.311858 328.673267 
L 278.344906 318.613861 
L 278.496397 318.613861 
L 278.591355 303.524752 
L 278.612379 303.524752 
L 278.612379 298.49505 
L 278.804036 298.49505 
L 278.804036 293.465347 
L 279.27615 293.465347 
L 279.27615 288.435644 
L 279.455913 288.435644 
L 279.455913 283.405941 
L 279.98536 283.405941 
L 279.98536 278.376238 
L 280.381676 278.376238 
L 280.381676 273.346535 
L 280.678922 273.346535 
L 280.678922 268.316832 
L 281.370752 268.316832 
L 281.471518 258.257426 
L 281.673918 258.257426 
L 281.756856 248.19802 
L 281.810396 248.19802 
L 281.810396 243.168317 
L 282.29419 243.168317 
L 282.29419 238.138614 
L 282.483525 238.138614 
L 282.483525 233.108911 
L 283.147964 233.108911 
L 283.232931 218.019802 
L 283.424655 218.019802 
L 283.424655 212.990099 
L 283.827336 212.990099 
L 283.923098 202.930693 
L 284.060535 202.930693 
L 284.130418 192.871287 
L 284.300976 192.871287 
L 284.300976 187.841584 
L 284.452335 187.841584 
L 284.509585 177.782178 
L 284.716578 177.782178 
L 284.716578 172.752475 
L 285.150473 172.752475 
L 285.150473 167.722772 
L 285.442286 167.722772 
L 285.442286 162.693069 
L 285.850208 162.693069 
L 285.850208 157.663366 
L 286.205561 157.663366 
L 286.205561 152.633663 
L 286.468537 152.633663 
L 286.468537 147.60396 
L 286.62644 147.60396 
L 286.62644 142.574257 
L 287.052763 142.574257 
L 287.052763 137.544554 
L 287.322774 137.544554 
L 287.322774 132.514851 
L 287.435689 132.514851 
L 287.435689 127.485149 
L 287.915181 127.485149 
L 287.915181 122.455446 
L 288.094765 122.455446 
L 288.094765 117.425743 
L 288.370333 117.425743 
L 288.370333 112.39604 
L 288.827935 112.39604 
L 288.827935 107.366337 
L 289.024239 107.366337 
L 289.024239 102.336634 
L 290.632667 102.336634 
L 290.632667 97.306931 
L 293.211277 97.306931 
L 293.211277 92.277228 
L 297.651615 92.277228 
L 297.651615 87.247525 
L 299.542226 87.247525 
L 299.542226 82.217822 
L 313.162134 82.217822 
L 313.162134 77.188119 
L 314.571799 77.188119 
L 314.571799 72.158416 
L 316.12641 72.158416 
L 316.12641 67.128713 
L 317.065106 67.128713 
L 317.065106 62.09901 
L 320.283995 62.09901 
L 320.283995 57.069307 
L 320.758347 57.069307 
L 320.758347 52.039604 
L 320.891484 52.039604 
L 320.954563 41.980198 
L 321.372667 41.980198 
L 321.47271 26.891089 
L 322.387521 26.891089 
L 322.453483 16.831683 
L 322.686782 16.831683 
L 322.686782 11.80198 
L 326.957276 11.80198 
L 326.957276 6.772277 
L 326.957276 6.772277 
L 567.24 6.772277 
L 567.24 6.772277 
" style="fill:none;stroke:#000000;stroke-linecap:square;"/>
   </g>
   <g id="line2d_8">
    <path clip-path="url(#p7b21e80b6b)" d="M 222.652449 384 
L 222.652449 378.970297 
L 230.2208 378.970297 
L 230.2208 373.940594 
L 231.958614 373.940594 
L 231.958614 368.910891 
L 233.310377 368.910891 
L 233.310377 363.881188 
L 235.337894 363.881188 
L 235.337894 358.851485 
L 237.452965 358.851485 
L 237.452965 353.821782 
L 241.227131 353.821782 
L 241.227131 348.792079 
L 251.120742 348.792079 
L 251.120742 343.762376 
L 251.992064 343.762376 
L 251.992064 338.732673 
L 253.774782 338.732673 
L 253.774782 333.70297 
L 256.058671 333.70297 
L 256.058671 328.673267 
L 257.935538 328.673267 
L 257.935538 323.643564 
L 258.082624 323.643564 
L 258.11221 313.584158 
L 258.447372 313.584158 
L 258.447372 308.554455 
L 258.68539 308.554455 
L 258.68539 303.524752 
L 260.550061 303.524752 
L 260.550061 298.49505 
L 264.163954 298.49505 
L 264.163954 293.465347 
L 264.791282 293.465347 
L 264.791282 288.435644 
L 265.584265 288.435644 
L 265.584265 283.405941 
L 266.470321 283.405941 
L 266.470321 278.376238 
L 267.088858 278.376238 
L 267.113307 263.287129 
L 268.61131 263.287129 
L 268.61131 258.257426 
L 269.125388 258.257426 
L 269.127632 248.19802 
L 271.308187 248.19802 
L 271.402101 238.138614 
L 272.339666 238.138614 
L 272.339666 233.108911 
L 272.515483 233.108911 
L 272.515483 228.079208 
L 272.673834 228.079208 
L 272.673834 223.049505 
L 273.329419 223.049505 
L 273.329419 218.019802 
L 273.532556 218.019802 
L 273.639599 207.960396 
L 273.810791 207.960396 
L 273.810791 202.930693 
L 273.958758 202.930693 
L 273.958758 197.90099 
L 274.809447 197.90099 
L 274.809447 192.871287 
L 275.058389 192.871287 
L 275.159038 182.811881 
L 275.326547 182.811881 
L 275.356498 172.752475 
L 275.5126 172.752475 
L 275.5126 167.722772 
L 275.673995 167.722772 
L 275.710245 157.663366 
L 275.812417 157.663366 
L 275.841521 147.60396 
L 275.935231 147.60396 
L 275.935231 142.574257 
L 276.178759 142.574257 
L 276.178759 137.544554 
L 276.363815 137.544554 
L 276.369037 127.485149 
L 276.684586 127.485149 
L 276.684586 122.455446 
L 277.953124 122.455446 
L 278.061615 107.366337 
L 278.199689 107.366337 
L 278.199689 102.336634 
L 278.593729 102.336634 
L 278.593729 97.306931 
L 278.78924 97.306931 
L 278.858598 87.247525 
L 282.344989 87.247525 
L 282.344989 82.217822 
L 307.683032 82.217822 
L 307.683032 77.188119 
L 311.001319 77.188119 
L 311.001319 72.158416 
L 311.676404 72.158416 
L 311.676404 67.128713 
L 313.162134 67.128713 
L 313.162134 62.09901 
L 313.281576 62.09901 
L 313.281576 57.069307 
L 313.78558 57.069307 
L 313.78558 52.039604 
L 314.088566 52.039604 
L 314.088566 47.009901 
L 314.639892 47.009901 
L 314.639892 41.980198 
L 314.999165 41.980198 
L 315.073641 31.920792 
L 315.449996 31.920792 
L 315.449996 26.891089 
L 315.998688 26.891089 
L 315.998688 21.861386 
L 317.208812 21.861386 
L 317.208812 16.831683 
L 317.366829 16.831683 
L 317.366829 11.80198 
L 318.761401 11.80198 
L 318.761401 6.772277 
L 318.761401 6.772277 
L 567.24 6.772277 
L 567.24 6.772277 
" style="fill:none;stroke:#00bfbf;stroke-linecap:square;"/>
   </g>
   <g id="patch_3">
    <path d="M 3 3 
L 567.24 3 
" style="fill:none;stroke:#000000;stroke-linecap:square;stroke-linejoin:miter;"/>
   </g>
   <g id="patch_4">
    <path d="M 567.24 384 
L 567.24 3 
" style="fill:none;stroke:#000000;stroke-linecap:square;stroke-linejoin:miter;"/>
   </g>
   <g id="patch_5">
    <path d="M 3 384 
L 567.24 384 
" style="fill:none;stroke:#000000;stroke-linecap:square;stroke-linejoin:miter;"/>
   </g>
   <g id="patch_6">
    <path d="M 3 384 
L 3 3 
" style="fill:none;stroke:#000000;stroke-linecap:square;stroke-linejoin:miter;"/>
   </g>
   <g id="matplotlib.axis_1">
    <g id="xtick_1"/>
    <g id="xtick_2">
     <g id="line2d_9">
      <path clip-path="url(#p7b21e80b6b)" d="M 69.254589 384 
L 69.254589 3 
" style="fill:none;stroke:#000000;stroke-dasharray:1.000000,3.000000;stroke-dashoffset:0.0;stroke-width:0.5;"/>
     </g>
     <g id="line2d_10">
      <defs>
       <path d="M 0 0 
L 0 -4 
" id="maad6289ff8" style="stroke:#000000;stroke-width:0.5;"/>
      </defs>
      <g>
       <use style="stroke:#000000;stroke-width:0.5;" x="69.2545893472" xlink:href="#maad6289ff8" y="384.0"/>
      </g>
     </g>
     <g id="line2d_11">
      <defs>
       <path d="M 0 0 
L 0 4 
" id="m4854014edb" style="stroke:#000000;stroke-width:0.5;"/>
      </defs>
      <g>
       <use style="stroke:#000000;stroke-width:0.5;" x="69.2545893472" xlink:href="#m4854014edb" y="3.0"/>
      </g>
     </g>
     <g id="text_1">
      <!-- -6 -->
      <defs>
       <path d="M 33.015625 40.375 
Q 26.375 40.375 22.484375 35.828125 
Q 18.609375 31.296875 18.609375 23.390625 
Q 18.609375 15.53125 22.484375 10.953125 
Q 26.375 6.390625 33.015625 6.390625 
Q 39.65625 6.390625 43.53125 10.953125 
Q 47.40625 15.53125 47.40625 23.390625 
Q 47.40625 31.296875 43.53125 35.828125 
Q 39.65625 40.375 33.015625 40.375 
M 52.59375 71.296875 
L 52.59375 62.3125 
Q 48.875 64.0625 45.09375 64.984375 
Q 41.3125 65.921875 37.59375 65.921875 
Q 27.828125 65.921875 22.671875 59.328125 
Q 17.53125 52.734375 16.796875 39.40625 
Q 19.671875 43.65625 24.015625 45.921875 
Q 28.375 48.1875 33.59375 48.1875 
Q 44.578125 48.1875 50.953125 41.515625 
Q 57.328125 34.859375 57.328125 23.390625 
Q 57.328125 12.15625 50.6875 5.359375 
Q 44.046875 -1.421875 33.015625 -1.421875 
Q 20.359375 -1.421875 13.671875 8.265625 
Q 6.984375 17.96875 6.984375 36.375 
Q 6.984375 53.65625 15.1875 63.9375 
Q 23.390625 74.21875 37.203125 74.21875 
Q 40.921875 74.21875 44.703125 73.484375 
Q 48.484375 72.75 52.59375 71.296875 
" id="BitstreamVeraSans-Roman-36"/>
       <path d="M 4.890625 31.390625 
L 31.203125 31.390625 
L 31.203125 23.390625 
L 4.890625 23.390625 
z
" id="BitstreamVeraSans-Roman-2d"/>
      </defs>
      <g transform="translate(59.2842768472 403.196875)scale(0.2 -0.2)">
       <use xlink:href="#BitstreamVeraSans-Roman-2d"/>
       <use x="36.083984375" xlink:href="#BitstreamVeraSans-Roman-36"/>
      </g>
     </g>
    </g>
    <g id="xtick_3">
     <g id="line2d_12">
      <path clip-path="url(#p7b21e80b6b)" d="M 135.652644 384 
L 135.652644 3 
" style="fill:none;stroke:#000000;stroke-dasharray:1.000000,3.000000;stroke-dashoffset:0.0;stroke-width:0.5;"/>
     </g>
     <g id="line2d_13">
      <g>
       <use style="stroke:#000000;stroke-width:0.5;" x="135.652644101" xlink:href="#maad6289ff8" y="384.0"/>
      </g>
     </g>
     <g id="line2d_14">
      <g>
       <use style="stroke:#000000;stroke-width:0.5;" x="135.652644101" xlink:href="#m4854014edb" y="3.0"/>
      </g>
     </g>
     <g id="text_2">
      <!-- -4 -->
      <defs>
       <path d="M 37.796875 64.3125 
L 12.890625 25.390625 
L 37.796875 25.390625 
z
M 35.203125 72.90625 
L 47.609375 72.90625 
L 47.609375 25.390625 
L 58.015625 25.390625 
L 58.015625 17.1875 
L 47.609375 17.1875 
L 47.609375 0 
L 37.796875 0 
L 37.796875 17.1875 
L 4.890625 17.1875 
L 4.890625 26.703125 
z
" id="BitstreamVeraSans-Roman-34"/>
      </defs>
      <g transform="translate(125.682331601 403.196875)scale(0.2 -0.2)">
       <use xlink:href="#BitstreamVeraSans-Roman-2d"/>
       <use x="36.083984375" xlink:href="#BitstreamVeraSans-Roman-34"/>
      </g>
     </g>
    </g>
    <g id="xtick_4">
     <g id="line2d_15">
      <path clip-path="url(#p7b21e80b6b)" d="M 202.050699 384 
L 202.050699 3 
" style="fill:none;stroke:#000000;stroke-dasharray:1.000000,3.000000;stroke-dashoffset:0.0;stroke-width:0.5;"/>
     </g>
     <g id="line2d_16">
      <g>
       <use style="stroke:#000000;stroke-width:0.5;" x="202.050698855" xlink:href="#maad6289ff8" y="384.0"/>
      </g>
     </g>
     <g id="line2d_17">
      <g>
       <use style="stroke:#000000;stroke-width:0.5;" x="202.050698855" xlink:href="#m4854014edb" y="3.0"/>
      </g>
     </g>
     <g id="text_3">
      <!-- -2 -->
      <defs>
       <path d="M 19.1875 8.296875 
L 53.609375 8.296875 
L 53.609375 0 
L 7.328125 0 
L 7.328125 8.296875 
Q 12.9375 14.109375 22.625 23.890625 
Q 32.328125 33.6875 34.8125 36.53125 
Q 39.546875 41.84375 41.421875 45.53125 
Q 43.3125 49.21875 43.3125 52.78125 
Q 43.3125 58.59375 39.234375 62.25 
Q 35.15625 65.921875 28.609375 65.921875 
Q 23.96875 65.921875 18.8125 64.3125 
Q 13.671875 62.703125 7.8125 59.421875 
L 7.8125 69.390625 
Q 13.765625 71.78125 18.9375 73 
Q 24.125 74.21875 28.421875 74.21875 
Q 39.75 74.21875 46.484375 68.546875 
Q 53.21875 62.890625 53.21875 53.421875 
Q 53.21875 48.921875 51.53125 44.890625 
Q 49.859375 40.875 45.40625 35.40625 
Q 44.1875 33.984375 37.640625 27.21875 
Q 31.109375 20.453125 19.1875 8.296875 
" id="BitstreamVeraSans-Roman-32"/>
      </defs>
      <g transform="translate(192.080386355 403.196875)scale(0.2 -0.2)">
       <use xlink:href="#BitstreamVeraSans-Roman-2d"/>
       <use x="36.083984375" xlink:href="#BitstreamVeraSans-Roman-32"/>
      </g>
     </g>
    </g>
    <g id="xtick_5">
     <g id="line2d_18">
      <path clip-path="url(#p7b21e80b6b)" d="M 268.448754 384 
L 268.448754 3 
" style="fill:none;stroke:#000000;stroke-dasharray:1.000000,3.000000;stroke-dashoffset:0.0;stroke-width:0.5;"/>
     </g>
     <g id="line2d_19">
      <g>
       <use style="stroke:#000000;stroke-width:0.5;" x="268.448753608" xlink:href="#maad6289ff8" y="384.0"/>
      </g>
     </g>
     <g id="line2d_20">
      <g>
       <use style="stroke:#000000;stroke-width:0.5;" x="268.448753608" xlink:href="#m4854014edb" y="3.0"/>
      </g>
     </g>
     <g id="text_4">
      <!-- 0 -->
      <defs>
       <path d="M 31.78125 66.40625 
Q 24.171875 66.40625 20.328125 58.90625 
Q 16.5 51.421875 16.5 36.375 
Q 16.5 21.390625 20.328125 13.890625 
Q 24.171875 6.390625 31.78125 6.390625 
Q 39.453125 6.390625 43.28125 13.890625 
Q 47.125 21.390625 47.125 36.375 
Q 47.125 51.421875 43.28125 58.90625 
Q 39.453125 66.40625 31.78125 66.40625 
M 31.78125 74.21875 
Q 44.046875 74.21875 50.515625 64.515625 
Q 56.984375 54.828125 56.984375 36.375 
Q 56.984375 17.96875 50.515625 8.265625 
Q 44.046875 -1.421875 31.78125 -1.421875 
Q 19.53125 -1.421875 13.0625 8.265625 
Q 6.59375 17.96875 6.59375 36.375 
Q 6.59375 54.828125 13.0625 64.515625 
Q 19.53125 74.21875 31.78125 74.21875 
" id="BitstreamVeraSans-Roman-30"/>
      </defs>
      <g transform="translate(262.086253608 403.196875)scale(0.2 -0.2)">
       <use xlink:href="#BitstreamVeraSans-Roman-30"/>
      </g>
     </g>
    </g>
    <g id="xtick_6">
     <g id="line2d_21">
      <path clip-path="url(#p7b21e80b6b)" d="M 334.846808 384 
L 334.846808 3 
" style="fill:none;stroke:#000000;stroke-dasharray:1.000000,3.000000;stroke-dashoffset:0.0;stroke-width:0.5;"/>
     </g>
     <g id="line2d_22">
      <g>
       <use style="stroke:#000000;stroke-width:0.5;" x="334.846808362" xlink:href="#maad6289ff8" y="384.0"/>
      </g>
     </g>
     <g id="line2d_23">
      <g>
       <use style="stroke:#000000;stroke-width:0.5;" x="334.846808362" xlink:href="#m4854014edb" y="3.0"/>
      </g>
     </g>
     <g id="text_5">
      <!-- 2 -->
      <g transform="translate(328.484308362 403.196875)scale(0.2 -0.2)">
       <use xlink:href="#BitstreamVeraSans-Roman-32"/>
      </g>
     </g>
    </g>
    <g id="xtick_7">
     <g id="line2d_24">
      <path clip-path="url(#p7b21e80b6b)" d="M 401.244863 384 
L 401.244863 3 
" style="fill:none;stroke:#000000;stroke-dasharray:1.000000,3.000000;stroke-dashoffset:0.0;stroke-width:0.5;"/>
     </g>
     <g id="line2d_25">
      <g>
       <use style="stroke:#000000;stroke-width:0.5;" x="401.244863116" xlink:href="#maad6289ff8" y="384.0"/>
      </g>
     </g>
     <g id="line2d_26">
      <g>
       <use style="stroke:#000000;stroke-width:0.5;" x="401.244863116" xlink:href="#m4854014edb" y="3.0"/>
      </g>
     </g>
     <g id="text_6">
      <!-- 4 -->
      <g transform="translate(394.882363116 403.196875)scale(0.2 -0.2)">
       <use xlink:href="#BitstreamVeraSans-Roman-34"/>
      </g>
     </g>
    </g>
    <g id="xtick_8">
     <g id="line2d_27">
      <path clip-path="url(#p7b21e80b6b)" d="M 467.642918 384 
L 467.642918 3 
" style="fill:none;stroke:#000000;stroke-dasharray:1.000000,3.000000;stroke-dashoffset:0.0;stroke-width:0.5;"/>
     </g>
     <g id="line2d_28">
      <g>
       <use style="stroke:#000000;stroke-width:0.5;" x="467.642917869" xlink:href="#maad6289ff8" y="384.0"/>
      </g>
     </g>
     <g id="line2d_29">
      <g>
       <use style="stroke:#000000;stroke-width:0.5;" x="467.642917869" xlink:href="#m4854014edb" y="3.0"/>
      </g>
     </g>
     <g id="text_7">
      <!-- 6 -->
      <g transform="translate(461.280417869 403.196875)scale(0.2 -0.2)">
       <use xlink:href="#BitstreamVeraSans-Roman-36"/>
      </g>
     </g>
    </g>
    <g id="xtick_9">
     <g id="line2d_30">
      <path clip-path="url(#p7b21e80b6b)" d="M 534.040973 384 
L 534.040973 3 
" style="fill:none;stroke:#000000;stroke-dasharray:1.000000,3.000000;stroke-dashoffset:0.0;stroke-width:0.5;"/>
     </g>
     <g id="line2d_31">
      <g>
       <use style="stroke:#000000;stroke-width:0.5;" x="534.040972623" xlink:href="#maad6289ff8" y="384.0"/>
      </g>
     </g>
     <g id="line2d_32">
      <g>
       <use style="stroke:#000000;stroke-width:0.5;" x="534.040972623" xlink:href="#m4854014edb" y="3.0"/>
      </g>
     </g>
     <g id="text_8">
      <!-- 8 -->
      <defs>
       <path d="M 31.78125 34.625 
Q 24.75 34.625 20.71875 30.859375 
Q 16.703125 27.09375 16.703125 20.515625 
Q 16.703125 13.921875 20.71875 10.15625 
Q 24.75 6.390625 31.78125 6.390625 
Q 38.8125 6.390625 42.859375 10.171875 
Q 46.921875 13.96875 46.921875 20.515625 
Q 46.921875 27.09375 42.890625 30.859375 
Q 38.875 34.625 31.78125 34.625 
M 21.921875 38.8125 
Q 15.578125 40.375 12.03125 44.71875 
Q 8.5 49.078125 8.5 55.328125 
Q 8.5 64.0625 14.71875 69.140625 
Q 20.953125 74.21875 31.78125 74.21875 
Q 42.671875 74.21875 48.875 69.140625 
Q 55.078125 64.0625 55.078125 55.328125 
Q 55.078125 49.078125 51.53125 44.71875 
Q 48 40.375 41.703125 38.8125 
Q 48.828125 37.15625 52.796875 32.3125 
Q 56.78125 27.484375 56.78125 20.515625 
Q 56.78125 9.90625 50.3125 4.234375 
Q 43.84375 -1.421875 31.78125 -1.421875 
Q 19.734375 -1.421875 13.25 4.234375 
Q 6.78125 9.90625 6.78125 20.515625 
Q 6.78125 27.484375 10.78125 32.3125 
Q 14.796875 37.15625 21.921875 38.8125 
M 18.3125 54.390625 
Q 18.3125 48.734375 21.84375 45.5625 
Q 25.390625 42.390625 31.78125 42.390625 
Q 38.140625 42.390625 41.71875 45.5625 
Q 45.3125 48.734375 45.3125 54.390625 
Q 45.3125 60.0625 41.71875 63.234375 
Q 38.140625 66.40625 31.78125 66.40625 
Q 25.390625 66.40625 21.84375 63.234375 
Q 18.3125 60.0625 18.3125 54.390625 
" id="BitstreamVeraSans-Roman-38"/>
      </defs>
      <g transform="translate(527.678472623 403.196875)scale(0.2 -0.2)">
       <use xlink:href="#BitstreamVeraSans-Roman-38"/>
      </g>
     </g>
    </g>
    <g id="xtick_10"/>
    <g id="xtick_11">
     <g id="line2d_33">
      <defs>
       <path d="M 0 0 
L 0 -2 
" id="m809b147443" style="stroke:#000000;stroke-width:0.5;"/>
      </defs>
      <g>
       <use style="stroke:#000000;stroke-width:0.5;" x="69.2545893472" xlink:href="#m809b147443" y="384.0"/>
      </g>
     </g>
     <g id="line2d_34">
      <defs>
       <path d="M 0 0 
L 0 2 
" id="me59db28274" style="stroke:#000000;stroke-width:0.5;"/>
      </defs>
      <g>
       <use style="stroke:#000000;stroke-width:0.5;" x="69.2545893472" xlink:href="#me59db28274" y="3.0"/>
      </g>
     </g>
    </g>
    <g id="xtick_12">
     <g id="line2d_35">
      <g>
       <use style="stroke:#000000;stroke-width:0.5;" x="135.652644101" xlink:href="#m809b147443" y="384.0"/>
      </g>
     </g>
     <g id="line2d_36">
      <g>
       <use style="stroke:#000000;stroke-width:0.5;" x="135.652644101" xlink:href="#me59db28274" y="3.0"/>
      </g>
     </g>
    </g>
    <g id="xtick_13">
     <g id="line2d_37">
      <g>
       <use style="stroke:#000000;stroke-width:0.5;" x="202.050698855" xlink:href="#m809b147443" y="384.0"/>
      </g>
     </g>
     <g id="line2d_38">
      <g>
       <use style="stroke:#000000;stroke-width:0.5;" x="202.050698855" xlink:href="#me59db28274" y="3.0"/>
      </g>
     </g>
    </g>
    <g id="xtick_14">
     <g id="line2d_39">
      <g>
       <use style="stroke:#000000;stroke-width:0.5;" x="268.448753608" xlink:href="#m809b147443" y="384.0"/>
      </g>
     </g>
     <g id="line2d_40">
      <g>
       <use style="stroke:#000000;stroke-width:0.5;" x="268.448753608" xlink:href="#me59db28274" y="3.0"/>
      </g>
     </g>
    </g>
    <g id="xtick_15">
     <g id="line2d_41">
      <g>
       <use style="stroke:#000000;stroke-width:0.5;" x="334.846808362" xlink:href="#m809b147443" y="384.0"/>
      </g>
     </g>
     <g id="line2d_42">
      <g>
       <use style="stroke:#000000;stroke-width:0.5;" x="334.846808362" xlink:href="#me59db28274" y="3.0"/>
      </g>
     </g>
    </g>
    <g id="xtick_16">
     <g id="line2d_43">
      <g>
       <use style="stroke:#000000;stroke-width:0.5;" x="401.244863116" xlink:href="#m809b147443" y="384.0"/>
      </g>
     </g>
     <g id="line2d_44">
      <g>
       <use style="stroke:#000000;stroke-width:0.5;" x="401.244863116" xlink:href="#me59db28274" y="3.0"/>
      </g>
     </g>
    </g>
    <g id="xtick_17">
     <g id="line2d_45">
      <g>
       <use style="stroke:#000000;stroke-width:0.5;" x="467.642917869" xlink:href="#m809b147443" y="384.0"/>
      </g>
     </g>
     <g id="line2d_46">
      <g>
       <use style="stroke:#000000;stroke-width:0.5;" x="467.642917869" xlink:href="#me59db28274" y="3.0"/>
      </g>
     </g>
    </g>
    <g id="xtick_18">
     <g id="line2d_47">
      <g>
       <use style="stroke:#000000;stroke-width:0.5;" x="534.040972623" xlink:href="#m809b147443" y="384.0"/>
      </g>
     </g>
     <g id="line2d_48">
      <g>
       <use style="stroke:#000000;stroke-width:0.5;" x="534.040972623" xlink:href="#me59db28274" y="3.0"/>
      </g>
     </g>
    </g>
    <g id="text_9">
     <!-- log10 of Df -->
     <defs>
      <path id="BitstreamVeraSans-Roman-20"/>
      <path d="M 12.40625 8.296875 
L 28.515625 8.296875 
L 28.515625 63.921875 
L 10.984375 60.40625 
L 10.984375 69.390625 
L 28.421875 72.90625 
L 38.28125 72.90625 
L 38.28125 8.296875 
L 54.390625 8.296875 
L 54.390625 0 
L 12.40625 0 
z
" id="BitstreamVeraSans-Roman-31"/>
      <path d="M 30.609375 48.390625 
Q 23.390625 48.390625 19.1875 42.75 
Q 14.984375 37.109375 14.984375 27.296875 
Q 14.984375 17.484375 19.15625 11.84375 
Q 23.34375 6.203125 30.609375 6.203125 
Q 37.796875 6.203125 41.984375 11.859375 
Q 46.1875 17.53125 46.1875 27.296875 
Q 46.1875 37.015625 41.984375 42.703125 
Q 37.796875 48.390625 30.609375 48.390625 
M 30.609375 56 
Q 42.328125 56 49.015625 48.375 
Q 55.71875 40.765625 55.71875 27.296875 
Q 55.71875 13.875 49.015625 6.21875 
Q 42.328125 -1.421875 30.609375 -1.421875 
Q 18.84375 -1.421875 12.171875 6.21875 
Q 5.515625 13.875 5.515625 27.296875 
Q 5.515625 40.765625 12.171875 48.375 
Q 18.84375 56 30.609375 56 
" id="BitstreamVeraSans-Roman-6f"/>
      <path d="M 9.421875 75.984375 
L 18.40625 75.984375 
L 18.40625 0 
L 9.421875 0 
z
" id="BitstreamVeraSans-Roman-6c"/>
      <path d="M 19.671875 64.796875 
L 19.671875 8.109375 
L 31.59375 8.109375 
Q 46.6875 8.109375 53.6875 14.9375 
Q 60.6875 21.78125 60.6875 36.53125 
Q 60.6875 51.171875 53.6875 57.984375 
Q 46.6875 64.796875 31.59375 64.796875 
z
M 9.8125 72.90625 
L 30.078125 72.90625 
Q 51.265625 72.90625 61.171875 64.09375 
Q 71.09375 55.28125 71.09375 36.53125 
Q 71.09375 17.671875 61.125 8.828125 
Q 51.171875 0 30.078125 0 
L 9.8125 0 
z
" id="BitstreamVeraSans-Roman-44"/>
      <path d="M 45.40625 27.984375 
Q 45.40625 37.75 41.375 43.109375 
Q 37.359375 48.484375 30.078125 48.484375 
Q 22.859375 48.484375 18.828125 43.109375 
Q 14.796875 37.75 14.796875 27.984375 
Q 14.796875 18.265625 18.828125 12.890625 
Q 22.859375 7.515625 30.078125 7.515625 
Q 37.359375 7.515625 41.375 12.890625 
Q 45.40625 18.265625 45.40625 27.984375 
M 54.390625 6.78125 
Q 54.390625 -7.171875 48.1875 -13.984375 
Q 42 -20.796875 29.203125 -20.796875 
Q 24.46875 -20.796875 20.265625 -20.09375 
Q 16.0625 -19.390625 12.109375 -17.921875 
L 12.109375 -9.1875 
Q 16.0625 -11.328125 19.921875 -12.34375 
Q 23.78125 -13.375 27.78125 -13.375 
Q 36.625 -13.375 41.015625 -8.765625 
Q 45.40625 -4.15625 45.40625 5.171875 
L 45.40625 9.625 
Q 42.625 4.78125 38.28125 2.390625 
Q 33.9375 0 27.875 0 
Q 17.828125 0 11.671875 7.65625 
Q 5.515625 15.328125 5.515625 27.984375 
Q 5.515625 40.671875 11.671875 48.328125 
Q 17.828125 56 27.875 56 
Q 33.9375 56 38.28125 53.609375 
Q 42.625 51.21875 45.40625 46.390625 
L 45.40625 54.6875 
L 54.390625 54.6875 
z
" id="BitstreamVeraSans-Roman-67"/>
      <path d="M 37.109375 75.984375 
L 37.109375 68.5 
L 28.515625 68.5 
Q 23.6875 68.5 21.796875 66.546875 
Q 19.921875 64.59375 19.921875 59.515625 
L 19.921875 54.6875 
L 34.71875 54.6875 
L 34.71875 47.703125 
L 19.921875 47.703125 
L 19.921875 0 
L 10.890625 0 
L 10.890625 47.703125 
L 2.296875 47.703125 
L 2.296875 54.6875 
L 10.890625 54.6875 
L 10.890625 58.5 
Q 10.890625 67.625 15.140625 71.796875 
Q 19.390625 75.984375 28.609375 75.984375 
z
" id="BitstreamVeraSans-Roman-66"/>
     </defs>
     <g transform="translate(229.9340625 427.553125)scale(0.2 -0.2)">
      <use xlink:href="#BitstreamVeraSans-Roman-6c"/>
      <use x="27.783203125" xlink:href="#BitstreamVeraSans-Roman-6f"/>
      <use x="88.96484375" xlink:href="#BitstreamVeraSans-Roman-67"/>
      <use x="152.44140625" xlink:href="#BitstreamVeraSans-Roman-31"/>
      <use x="216.064453125" xlink:href="#BitstreamVeraSans-Roman-30"/>
      <use x="279.6875" xlink:href="#BitstreamVeraSans-Roman-20"/>
      <use x="311.474609375" xlink:href="#BitstreamVeraSans-Roman-6f"/>
      <use x="372.65625" xlink:href="#BitstreamVeraSans-Roman-66"/>
      <use x="407.861328125" xlink:href="#BitstreamVeraSans-Roman-20"/>
      <use x="439.6484375" xlink:href="#BitstreamVeraSans-Roman-44"/>
      <use x="516.650390625" xlink:href="#BitstreamVeraSans-Roman-66"/>
     </g>
    </g>
   </g>
   <g id="matplotlib.axis_2">
    <g id="ytick_1">
     <g id="line2d_49">
      <path clip-path="url(#p7b21e80b6b)" d="M 3 384 
L 567.24 384 
" style="fill:none;stroke:#000000;stroke-dasharray:1.000000,3.000000;stroke-dashoffset:0.0;stroke-width:0.5;"/>
     </g>
     <g id="line2d_50">
      <defs>
       <path d="M 0 0 
L 4 0 
" id="m46d68a78f1" style="stroke:#000000;stroke-width:0.5;"/>
      </defs>
      <g>
       <use style="stroke:#000000;stroke-width:0.5;" x="3.0" xlink:href="#m46d68a78f1" y="384.0"/>
      </g>
     </g>
     <g id="line2d_51">
      <defs>
       <path d="M 0 0 
L -4 0 
" id="m37327f41c2" style="stroke:#000000;stroke-width:0.5;"/>
      </defs>
      <g>
       <use style="stroke:#000000;stroke-width:0.5;" x="567.24" xlink:href="#m37327f41c2" y="384.0"/>
      </g>
     </g>
    </g>
    <g id="ytick_2">
     <g id="line2d_52">
      <path clip-path="url(#p7b21e80b6b)" d="M 3 308.554455 
L 567.24 308.554455 
" style="fill:none;stroke:#000000;stroke-dasharray:1.000000,3.000000;stroke-dashoffset:0.0;stroke-width:0.5;"/>
     </g>
     <g id="line2d_53">
      <g>
       <use style="stroke:#000000;stroke-width:0.5;" x="3.0" xlink:href="#m46d68a78f1" y="308.554455446"/>
      </g>
     </g>
     <g id="line2d_54">
      <g>
       <use style="stroke:#000000;stroke-width:0.5;" x="567.24" xlink:href="#m37327f41c2" y="308.554455446"/>
      </g>
     </g>
    </g>
    <g id="ytick_3">
     <g id="line2d_55">
      <path clip-path="url(#p7b21e80b6b)" d="M 3 233.108911 
L 567.24 233.108911 
" style="fill:none;stroke:#000000;stroke-dasharray:1.000000,3.000000;stroke-dashoffset:0.0;stroke-width:0.5;"/>
     </g>
     <g id="line2d_56">
      <g>
       <use style="stroke:#000000;stroke-width:0.5;" x="3.0" xlink:href="#m46d68a78f1" y="233.108910891"/>
      </g>
     </g>
     <g id="line2d_57">
      <g>
       <use style="stroke:#000000;stroke-width:0.5;" x="567.24" xlink:href="#m37327f41c2" y="233.108910891"/>
      </g>
     </g>
    </g>
    <g id="ytick_4">
     <g id="line2d_58">
      <path clip-path="url(#p7b21e80b6b)" d="M 3 157.663366 
L 567.24 157.663366 
" style="fill:none;stroke:#000000;stroke-dasharray:1.000000,3.000000;stroke-dashoffset:0.0;stroke-width:0.5;"/>
     </g>
     <g id="line2d_59">
      <g>
       <use style="stroke:#000000;stroke-width:0.5;" x="3.0" xlink:href="#m46d68a78f1" y="157.663366337"/>
      </g>
     </g>
     <g id="line2d_60">
      <g>
       <use style="stroke:#000000;stroke-width:0.5;" x="567.24" xlink:href="#m37327f41c2" y="157.663366337"/>
      </g>
     </g>
    </g>
    <g id="ytick_5">
     <g id="line2d_61">
      <path clip-path="url(#p7b21e80b6b)" d="M 3 82.217822 
L 567.24 82.217822 
" style="fill:none;stroke:#000000;stroke-dasharray:1.000000,3.000000;stroke-dashoffset:0.0;stroke-width:0.5;"/>
     </g>
     <g id="line2d_62">
      <g>
       <use style="stroke:#000000;stroke-width:0.5;" x="3.0" xlink:href="#m46d68a78f1" y="82.2178217822"/>
      </g>
     </g>
     <g id="line2d_63">
      <g>
       <use style="stroke:#000000;stroke-width:0.5;" x="567.24" xlink:href="#m37327f41c2" y="82.2178217822"/>
      </g>
     </g>
    </g>
    <g id="ytick_6">
     <g id="line2d_64">
      <path clip-path="url(#p7b21e80b6b)" d="M 3 6.772277 
L 567.24 6.772277 
" style="fill:none;stroke:#000000;stroke-dasharray:1.000000,3.000000;stroke-dashoffset:0.0;stroke-width:0.5;"/>
     </g>
     <g id="line2d_65">
      <g>
       <use style="stroke:#000000;stroke-width:0.5;" x="3.0" xlink:href="#m46d68a78f1" y="6.77227722772"/>
      </g>
     </g>
     <g id="line2d_66">
      <g>
       <use style="stroke:#000000;stroke-width:0.5;" x="567.24" xlink:href="#m37327f41c2" y="6.77227722772"/>
      </g>
     </g>
    </g>
   </g>
   <g id="text_10">
    <!-- {f20-f24}, 5-D -->
    <defs>
     <path d="M 12.5 -9.28125 
L 15.921875 -9.28125 
Q 22.75 -9.28125 24.828125 -7.171875 
Q 26.90625 -5.078125 26.90625 1.90625 
L 26.90625 14.015625 
Q 26.90625 21.625 29.09375 25.09375 
Q 31.296875 28.5625 36.71875 29.890625 
Q 31.296875 31.109375 29.09375 34.5625 
Q 26.90625 38.03125 26.90625 45.703125 
L 26.90625 57.8125 
Q 26.90625 64.75 24.828125 66.875 
Q 22.75 69 15.921875 69 
L 12.5 69 
L 12.5 75.984375 
L 15.578125 75.984375 
Q 27.734375 75.984375 31.8125 72.390625 
Q 35.890625 68.796875 35.890625 58.015625 
L 35.890625 46.296875 
Q 35.890625 39.015625 38.515625 36.203125 
Q 41.15625 33.40625 48.09375 33.40625 
L 51.125 33.40625 
L 51.125 26.421875 
L 48.09375 26.421875 
Q 41.15625 26.421875 38.515625 23.578125 
Q 35.890625 20.75 35.890625 13.375 
L 35.890625 1.703125 
Q 35.890625 -9.078125 31.8125 -12.6875 
Q 27.734375 -16.3125 15.578125 -16.3125 
L 12.5 -16.3125 
z
" id="BitstreamVeraSans-Roman-7d"/>
     <path d="M 51.125 -9.28125 
L 51.125 -16.3125 
L 48.09375 -16.3125 
Q 35.9375 -16.3125 31.8125 -12.6875 
Q 27.6875 -9.078125 27.6875 1.703125 
L 27.6875 13.375 
Q 27.6875 20.75 25.046875 23.578125 
Q 22.40625 26.421875 15.484375 26.421875 
L 12.5 26.421875 
L 12.5 33.40625 
L 15.484375 33.40625 
Q 22.46875 33.40625 25.078125 36.203125 
Q 27.6875 39.015625 27.6875 46.296875 
L 27.6875 58.015625 
Q 27.6875 68.796875 31.8125 72.390625 
Q 35.9375 75.984375 48.09375 75.984375 
L 51.125 75.984375 
L 51.125 69 
L 47.796875 69 
Q 40.921875 69 38.8125 66.84375 
Q 36.71875 64.703125 36.71875 57.8125 
L 36.71875 45.703125 
Q 36.71875 38.03125 34.5 34.5625 
Q 32.28125 31.109375 26.90625 29.890625 
Q 32.328125 28.5625 34.515625 25.09375 
Q 36.71875 21.625 36.71875 14.015625 
L 36.71875 1.90625 
Q 36.71875 -4.984375 38.8125 -7.125 
Q 40.921875 -9.28125 47.796875 -9.28125 
z
" id="BitstreamVeraSans-Roman-7b"/>
     <path d="M 11.71875 12.40625 
L 22.015625 12.40625 
L 22.015625 4 
L 14.015625 -11.625 
L 7.71875 -11.625 
L 11.71875 4 
z
" id="BitstreamVeraSans-Roman-2c"/>
     <path d="M 10.796875 72.90625 
L 49.515625 72.90625 
L 49.515625 64.59375 
L 19.828125 64.59375 
L 19.828125 46.734375 
Q 21.96875 47.46875 24.109375 47.828125 
Q 26.265625 48.1875 28.421875 48.1875 
Q 40.625 48.1875 47.75 41.5 
Q 54.890625 34.8125 54.890625 23.390625 
Q 54.890625 11.625 47.5625 5.09375 
Q 40.234375 -1.421875 26.90625 -1.421875 
Q 22.3125 -1.421875 17.546875 -0.640625 
Q 12.796875 0.140625 7.71875 1.703125 
L 7.71875 11.625 
Q 12.109375 9.234375 16.796875 8.0625 
Q 21.484375 6.890625 26.703125 6.890625 
Q 35.15625 6.890625 40.078125 11.328125 
Q 45.015625 15.765625 45.015625 23.390625 
Q 45.015625 31 40.078125 35.4375 
Q 35.15625 39.890625 26.703125 39.890625 
Q 22.75 39.890625 18.8125 39.015625 
Q 14.890625 38.140625 10.796875 36.28125 
z
" id="BitstreamVeraSans-Roman-35"/>
    </defs>
    <g transform="translate(410.2552 376.38)scale(0.2 -0.2)">
     <use xlink:href="#BitstreamVeraSans-Roman-7b"/>
     <use x="63.623046875" xlink:href="#BitstreamVeraSans-Roman-66"/>
     <use x="98.828125" xlink:href="#BitstreamVeraSans-Roman-32"/>
     <use x="162.451171875" xlink:href="#BitstreamVeraSans-Roman-30"/>
     <use x="226.07421875" xlink:href="#BitstreamVeraSans-Roman-2d"/>
     <use x="262.158203125" xlink:href="#BitstreamVeraSans-Roman-66"/>
     <use x="297.36328125" xlink:href="#BitstreamVeraSans-Roman-32"/>
     <use x="360.986328125" xlink:href="#BitstreamVeraSans-Roman-34"/>
     <use x="424.609375" xlink:href="#BitstreamVeraSans-Roman-7d"/>
     <use x="488.232421875" xlink:href="#BitstreamVeraSans-Roman-2c"/>
     <use x="520.01953125" xlink:href="#BitstreamVeraSans-Roman-20"/>
     <use x="551.806640625" xlink:href="#BitstreamVeraSans-Roman-35"/>
     <use x="615.4296875" xlink:href="#BitstreamVeraSans-Roman-2d"/>
     <use x="651.513671875" xlink:href="#BitstreamVeraSans-Roman-44"/>
    </g>
   </g>
   <g id="text_11">
    <!-- v2.2.1.10 -->
    <defs>
     <path d="M 2.984375 54.6875 
L 12.5 54.6875 
L 29.59375 8.796875 
L 46.6875 54.6875 
L 56.203125 54.6875 
L 35.6875 0 
L 23.484375 0 
z
" id="BitstreamVeraSans-Roman-76"/>
     <path d="M 10.6875 12.40625 
L 21 12.40625 
L 21 0 
L 10.6875 0 
z
" id="BitstreamVeraSans-Roman-2e"/>
    </defs>
    <g style="fill:#808080;" transform="translate(261.4871875 378.1103125)scale(0.1 -0.1)">
     <use xlink:href="#BitstreamVeraSans-Roman-76"/>
     <use x="59.1796875" xlink:href="#BitstreamVeraSans-Roman-32"/>
     <use x="122.802734375" xlink:href="#BitstreamVeraSans-Roman-2e"/>
     <use x="154.58984375" xlink:href="#BitstreamVeraSans-Roman-32"/>
     <use x="218.212890625" xlink:href="#BitstreamVeraSans-Roman-2e"/>
     <use x="250.0" xlink:href="#BitstreamVeraSans-Roman-31"/>
     <use x="313.623046875" xlink:href="#BitstreamVeraSans-Roman-2e"/>
     <use x="345.41015625" xlink:href="#BitstreamVeraSans-Roman-31"/>
     <use x="409.033203125" xlink:href="#BitstreamVeraSans-Roman-30"/>
    </g>
   </g>
  </g>
 </g>
 <defs>
  <clipPath id="p7b21e80b6b">
   <rect height="381.0" width="564.24" x="3.0" y="3.0"/>
  </clipPath>
 </defs>
</svg>
