<?xml version="1.0" encoding="utf-8" standalone="no"?>
<!DOCTYPE svg PUBLIC "-//W3C//DTD SVG 1.1//EN"
  "http://www.w3.org/Graphics/SVG/1.1/DTD/svg11.dtd">
<!-- Created with matplotlib (http://matplotlib.org/) -->
<svg height="432pt" version="1.1" viewBox="0 0 576 432" width="576pt" xmlns="http://www.w3.org/2000/svg" xmlns:xlink="http://www.w3.org/1999/xlink">
 <defs>
  <style type="text/css">
*{stroke-linecap:butt;stroke-linejoin:round;stroke-miterlimit:100000;}
  </style>
 </defs>
 <g id="figure_1">
  <g id="patch_1">
   <path d="M 0 432 
L 576 432 
L 576 0 
L 0 0 
z
" style="fill:#ffffff;"/>
  </g>
  <g id="axes_1">
   <g id="patch_2">
    <path d="M 55.425 384 
L 567.24 384 
L 567.24 7.678218 
L 55.425 7.678218 
z
" style="fill:#ffffff;"/>
   </g>
   <g id="line2d_1">
    <path clip-path="url(#p30f11bebe5)" d="M 326.958648 384 
L 326.958648 377.79007 
L 331.043974 377.79007 
L 331.043974 371.580139 
L 332.591765 371.580139 
L 332.591765 365.370209 
L 332.591765 365.370209 
L 332.591765 359.160278 
L 333.348615 359.160278 
L 333.348615 352.950348 
L 333.598455 352.950348 
L 333.598455 346.740418 
L 333.847093 346.740418 
L 333.847093 340.530487 
L 335.072648 340.530487 
L 335.072648 334.320557 
L 335.794268 334.320557 
L 335.794268 328.110626 
L 336.032586 328.110626 
L 336.032586 321.900696 
L 336.032586 321.900696 
L 336.032586 315.690766 
L 336.26981 315.690766 
L 336.26981 309.480835 
L 336.26981 309.480835 
L 336.26981 303.270905 
L 336.975016 303.270905 
L 336.975016 297.060974 
L 336.975016 297.060974 
L 336.975016 290.851044 
L 338.584009 290.851044 
L 338.584009 284.641114 
L 339.034668 284.641114 
L 339.034668 278.431183 
L 339.258532 278.431183 
L 339.258532 272.221253 
L 339.48143 272.221253 
L 339.48143 266.011322 
L 339.703371 266.011322 
L 339.703371 259.801392 
L 340.363531 259.801392 
L 340.363531 253.591462 
L 340.363531 253.591462 
L 340.363531 247.381531 
L 340.581723 247.381531 
L 340.581723 241.171601 
L 344.359397 241.171601 
L 344.359397 234.96167 
L 346.344602 234.96167 
L 346.344602 228.75174 
L 346.732653 228.75174 
L 346.732653 222.54181 
L 370.363627 222.54181 
L 370.363627 216.331879 
L 374.622953 216.331879 
L 374.622953 210.121949 
L 379.224693 210.121949 
L 379.224693 203.912018 
L 389.41514 203.912018 
L 389.41514 197.702088 
L 389.41514 197.702088 
L 389.41514 197.702088 
L 567.24 197.702088 
" style="fill:none;stroke:#f5deb3;stroke-linecap:square;"/>
   </g>
   <g id="line2d_2"/>
   <g id="line2d_3">
    <path clip-path="url(#p30f11bebe5)" d="M 327.788681 384 
L 327.788681 377.79007 
L 336.472281 377.79007 
L 336.472281 371.580139 
L 340.685301 371.580139 
L 340.685301 365.370209 
L 347.418434 365.370209 
L 347.418434 359.160278 
L 348.229536 359.160278 
L 348.229536 352.950348 
L 348.648105 352.950348 
L 348.648105 346.740418 
L 348.683572 346.740418 
L 348.683572 340.530487 
L 348.825196 340.530487 
L 348.825196 334.320557 
L 349.996305 334.320557 
L 349.996305 328.110626 
L 350.836291 328.110626 
L 350.836291 321.900696 
L 351.073801 321.900696 
L 351.073801 315.690766 
L 351.503622 315.690766 
L 351.503622 309.480835 
L 351.771499 309.480835 
L 351.771499 303.270905 
L 351.838252 303.270905 
L 351.838252 297.060974 
L 351.879929 297.060974 
L 351.879929 290.851044 
L 351.921573 290.851044 
L 351.921573 284.641114 
L 352.054606 284.641114 
L 352.054606 278.431183 
L 354.313012 278.431183 
L 354.313012 272.221253 
L 355.109668 272.221253 
L 355.109668 266.011322 
L 355.871096 266.011322 
L 355.871096 259.801392 
L 356.514936 259.801392 
L 356.514936 253.591462 
L 357.801334 253.591462 
L 357.801334 247.381531 
L 358.38499 247.381531 
L 358.38499 241.171601 
L 367.752582 241.171601 
L 367.752582 234.96167 
L 368.711918 234.96167 
L 368.711918 228.75174 
L 369.292174 228.75174 
L 369.292174 222.54181 
L 370.188536 222.54181 
L 370.188536 216.331879 
L 370.276156 216.331879 
L 370.276156 210.121949 
L 370.311162 210.121949 
L 370.311162 203.912018 
L 372.082662 203.912018 
L 372.082662 197.702088 
L 372.257079 197.702088 
L 372.257079 191.492158 
L 373.593317 191.492158 
L 373.593317 185.282227 
L 374.397109 185.282227 
L 374.397109 179.072297 
L 374.542407 179.072297 
L 374.542407 172.862366 
L 375.506037 172.862366 
L 375.506037 166.652436 
L 376.213245 166.652436 
L 376.213245 160.442506 
L 377.796438 160.442506 
L 377.796438 154.232575 
L 380.905177 154.232575 
L 380.905177 148.022645 
L 383.41827 148.022645 
L 383.41827 141.812714 
L 392.606919 141.812714 
L 392.606919 135.602784 
L 396.298265 135.602784 
L 396.298265 129.392854 
L 396.5481 129.392854 
L 396.5481 123.182923 
L 397.943734 123.182923 
L 397.943734 116.972993 
L 398.358907 116.972993 
L 398.358907 110.763062 
L 398.972129 110.763062 
L 398.972129 104.553132 
L 398.972129 104.553132 
L 398.972129 104.553132 
L 567.24 104.553132 
" style="fill:none;stroke:#f5deb3;stroke-linecap:square;"/>
   </g>
   <g id="line2d_4">
    <path clip-path="url(#p30f11bebe5)" d="M 393.712613 384 
L 393.712613 377.79007 
L 399.792888 377.79007 
L 399.792888 371.580139 
L 403.46064 371.580139 
L 403.46064 365.370209 
L 404.101514 365.370209 
L 404.101514 359.160278 
L 408.324915 359.160278 
L 408.324915 352.950348 
L 408.350063 352.950348 
L 408.350063 346.740418 
L 410.511145 346.740418 
L 410.511145 340.530487 
L 411.440436 340.530487 
L 411.440436 334.320557 
L 411.461483 334.320557 
L 411.461483 328.110626 
L 412.018724 328.110626 
L 412.018724 321.900696 
L 412.747356 321.900696 
L 412.747356 315.690766 
L 413.252878 315.690766 
L 413.252878 309.480835 
L 414.765112 309.480835 
L 414.765112 303.270905 
L 415.300229 303.270905 
L 415.300229 297.060974 
L 415.534131 297.060974 
L 415.534131 290.851044 
L 418.484559 290.851044 
L 418.484559 284.641114 
L 420.156309 284.641114 
L 420.156309 278.431183 
L 420.860615 278.431183 
L 420.860615 272.221253 
L 421.3256 272.221253 
L 421.3256 266.011322 
L 425.310139 266.011322 
L 425.310139 259.801392 
L 436.232347 259.801392 
L 436.232347 253.591462 
L 439.97911 253.591462 
L 439.97911 247.381531 
L 444.541538 247.381531 
L 444.541538 241.171601 
L 447.588112 241.171601 
L 447.588112 234.96167 
L 449.449811 234.96167 
L 449.449811 228.75174 
L 453.460449 228.75174 
L 453.460449 222.54181 
L 457.661973 222.54181 
L 457.661973 216.331879 
L 463.507492 216.331879 
L 463.507492 210.121949 
L 464.323392 210.121949 
L 464.323392 203.912018 
L 466.61699 203.912018 
L 466.61699 197.702088 
L 466.61699 197.702088 
L 466.61699 197.702088 
L 567.24 197.702088 
" style="fill:none;stroke:#f5deb3;stroke-linecap:square;"/>
   </g>
   <g id="line2d_5">
    <path clip-path="url(#p30f11bebe5)" d="M 378.830525 384 
L 378.830525 377.79007 
L 381.772103 377.79007 
L 381.772103 371.580139 
L 384.692278 371.580139 
L 384.692278 365.370209 
L 384.921378 365.370209 
L 384.921378 359.160278 
L 387.048618 359.160278 
L 387.048618 352.950348 
L 387.610857 352.950348 
L 387.610857 346.740418 
L 389.900469 346.740418 
L 389.900469 340.530487 
L 390.460327 340.530487 
L 390.460327 334.320557 
L 390.543193 334.320557 
L 390.543193 328.110626 
L 390.606241 328.110626 
L 390.606241 321.900696 
L 391.395667 321.900696 
L 391.395667 315.690766 
L 393.530586 315.690766 
L 393.530586 309.480835 
L 393.912474 309.480835 
L 393.912474 303.270905 
L 394.57315 303.270905 
L 394.57315 297.060974 
L 394.580443 297.060974 
L 394.580443 290.851044 
L 394.932953 290.851044 
L 394.932953 284.641114 
L 395.074008 284.641114 
L 395.074008 278.431183 
L 395.634412 278.431183 
L 395.634412 272.221253 
L 395.794944 272.221253 
L 395.794944 266.011322 
L 396.093275 266.011322 
L 396.093275 259.801392 
L 396.14283 259.801392 
L 396.14283 253.591462 
L 396.245329 253.591462 
L 396.245329 247.381531 
L 396.775767 247.381531 
L 396.775767 241.171601 
L 396.922344 241.171601 
L 396.922344 234.96167 
L 397.4804 234.96167 
L 397.4804 228.75174 
L 399.102593 228.75174 
L 399.102593 222.54181 
L 399.654243 222.54181 
L 399.654243 216.331879 
L 399.782997 216.331879 
L 399.782997 210.121949 
L 400.04939 210.121949 
L 400.04939 203.912018 
L 400.594323 203.912018 
L 400.594323 197.702088 
L 402.687184 197.702088 
L 402.687184 191.492158 
L 403.742383 191.492158 
L 403.742383 185.282227 
L 403.900952 185.282227 
L 403.900952 179.072297 
L 404.925927 179.072297 
L 404.925927 172.862366 
L 405.268059 172.862366 
L 405.268059 166.652436 
L 409.101624 166.652436 
L 409.101624 160.442506 
L 409.192401 160.442506 
L 409.192401 154.232575 
L 409.850553 154.232575 
L 409.850553 148.022645 
L 436.123113 148.022645 
L 436.123113 141.812714 
L 437.347253 141.812714 
L 437.347253 135.602784 
L 451.417 135.602784 
L 451.417 129.392854 
L 452.533837 129.392854 
L 452.533837 123.182923 
L 458.584245 123.182923 
L 458.584245 116.972993 
L 461.557402 116.972993 
L 461.557402 110.763062 
L 468.904916 110.763062 
L 468.904916 104.553132 
L 468.904916 104.553132 
L 468.904916 104.553132 
L 567.24 104.553132 
" style="fill:none;stroke:#f5deb3;stroke-linecap:square;"/>
   </g>
   <g id="line2d_6"/>
   <g id="line2d_7">
    <path clip-path="url(#p30f11bebe5)" d="M 373.898927 384 
L 373.898927 377.79007 
L 374.4725 377.79007 
L 374.4725 371.580139 
L 376.880098 371.580139 
L 376.880098 365.370209 
L 377.619529 365.370209 
L 377.619529 359.160278 
L 378.033053 359.160278 
L 378.033053 352.950348 
L 378.388451 352.950348 
L 378.388451 346.740418 
L 379.293364 346.740418 
L 379.293364 340.530487 
L 379.727796 340.530487 
L 379.727796 334.320557 
L 380.11038 334.320557 
L 380.11038 328.110626 
L 381.45811 328.110626 
L 381.45811 321.900696 
L 381.533267 321.900696 
L 381.533267 315.690766 
L 382.6477 315.690766 
L 382.6477 309.480835 
L 384.497628 309.480835 
L 384.497628 303.270905 
L 384.701108 303.270905 
L 384.701108 297.060974 
L 387.124499 297.060974 
L 387.124499 290.851044 
L 413.844006 290.851044 
L 413.844006 284.641114 
L 416.289477 284.641114 
L 416.289477 278.431183 
L 416.951225 278.431183 
L 416.951225 272.221253 
L 418.265972 272.221253 
L 418.265972 266.011322 
L 418.42023 266.011322 
L 418.42023 259.801392 
L 419.259382 259.801392 
L 419.259382 253.591462 
L 419.525598 253.591462 
L 419.525598 247.381531 
L 421.693735 247.381531 
L 421.693735 241.171601 
L 422.1898 241.171601 
L 422.1898 234.96167 
L 423.3688 234.96167 
L 423.3688 228.75174 
L 423.479398 228.75174 
L 423.479398 222.54181 
L 423.608476 222.54181 
L 423.608476 216.331879 
L 423.681201 216.331879 
L 423.681201 210.121949 
L 425.631054 210.121949 
L 425.631054 203.912018 
L 426.615372 203.912018 
L 426.615372 197.702088 
L 426.922457 197.702088 
L 426.922457 191.492158 
L 428.525705 191.492158 
L 428.525705 185.282227 
L 428.744548 185.282227 
L 428.744548 179.072297 
L 429.429022 179.072297 
L 429.429022 172.862366 
L 429.605213 172.862366 
L 429.605213 166.652436 
L 430.196151 166.652436 
L 430.196151 160.442506 
L 430.99353 160.442506 
L 430.99353 154.232575 
L 432.081468 154.232575 
L 432.081468 148.022645 
L 432.350789 148.022645 
L 432.350789 141.812714 
L 433.695552 141.812714 
L 433.695552 135.602784 
L 434.145186 135.602784 
L 434.145186 129.392854 
L 434.478177 129.392854 
L 434.478177 123.182923 
L 435.2707 123.182923 
L 435.2707 116.972993 
L 471.186162 116.972993 
L 471.186162 110.763062 
L 504.887576 110.763062 
L 504.887576 104.553132 
L 577 104.553132 
" style="fill:none;stroke:#f5deb3;stroke-linecap:square;"/>
   </g>
   <g id="line2d_8">
    <path clip-path="url(#p30f11bebe5)" d="M 541.56948 384 
L 541.56948 377.79007 
L 541.661026 377.79007 
L 541.661026 371.580139 
L 541.731905 371.580139 
L 541.731905 365.370209 
L 542.336646 365.370209 
L 542.336646 359.160278 
L 542.356077 359.160278 
L 542.356077 352.950348 
L 542.397213 352.950348 
L 542.397213 346.740418 
L 542.483971 346.740418 
L 542.483971 340.530487 
L 542.48668 340.530487 
L 542.48668 334.320557 
L 542.511053 334.320557 
L 542.511053 328.110626 
L 542.635448 328.110626 
L 542.635448 321.900696 
L 542.703344 321.900696 
L 542.703344 315.690766 
L 543.316166 315.690766 
L 543.316166 309.480835 
L 543.318216 309.480835 
L 543.318216 303.270905 
L 543.56409 303.270905 
L 543.56409 297.060974 
L 545.064643 297.060974 
L 545.064643 290.851044 
L 545.064643 290.851044 
L 545.064643 290.851044 
L 567.24 290.851044 
" style="fill:none;stroke:#f5deb3;stroke-linecap:square;"/>
   </g>
   <g id="line2d_9">
    <path clip-path="url(#p30f11bebe5)" d="M 372.615314 384 
L 372.615314 377.79007 
L 375.653515 377.79007 
L 375.653515 371.580139 
L 375.837273 371.580139 
L 375.837273 365.370209 
L 378.26359 365.370209 
L 378.26359 359.160278 
L 378.622377 359.160278 
L 378.622377 352.950348 
L 378.726556 352.950348 
L 378.726556 346.740418 
L 379.091997 346.740418 
L 379.091997 340.530487 
L 379.611005 340.530487 
L 379.611005 334.320557 
L 380.538025 334.320557 
L 380.538025 328.110626 
L 380.729079 328.110626 
L 380.729079 321.900696 
L 381.170567 321.900696 
L 381.170567 315.690766 
L 383.277781 315.690766 
L 383.277781 309.480835 
L 383.801535 309.480835 
L 383.801535 303.270905 
L 385.105681 303.270905 
L 385.105681 297.060974 
L 388.030628 297.060974 
L 388.030628 290.851044 
L 389.221343 290.851044 
L 389.221343 284.641114 
L 409.148408 284.641114 
L 409.148408 278.431183 
L 409.439165 278.431183 
L 409.439165 272.221253 
L 410.129301 272.221253 
L 410.129301 266.011322 
L 410.134698 266.011322 
L 410.134698 259.801392 
L 410.930067 259.801392 
L 410.930067 253.591462 
L 411.049516 253.591462 
L 411.049516 247.381531 
L 412.464359 247.381531 
L 412.464359 241.171601 
L 412.980306 241.171601 
L 412.980306 234.96167 
L 413.08492 234.96167 
L 413.08492 228.75174 
L 413.186778 228.75174 
L 413.186778 222.54181 
L 413.245255 222.54181 
L 413.245255 216.331879 
L 413.438017 216.331879 
L 413.438017 210.121949 
L 413.766082 210.121949 
L 413.766082 203.912018 
L 414.4905 203.912018 
L 414.4905 197.702088 
L 414.653959 197.702088 
L 414.653959 191.492158 
L 415.400254 191.492158 
L 415.400254 185.282227 
L 416.008418 185.282227 
L 416.008418 179.072297 
L 416.626171 179.072297 
L 416.626171 172.862366 
L 416.668996 172.862366 
L 416.668996 166.652436 
L 417.189561 166.652436 
L 417.189561 160.442506 
L 417.888754 160.442506 
L 417.888754 154.232575 
L 419.412962 154.232575 
L 419.412962 148.022645 
L 420.09848 148.022645 
L 420.09848 141.812714 
L 421.34081 141.812714 
L 421.34081 135.602784 
L 422.048552 135.602784 
L 422.048552 129.392854 
L 424.533755 129.392854 
L 424.533755 123.182923 
L 425.575037 123.182923 
L 425.575037 116.972993 
L 425.623055 116.972993 
L 425.623055 110.763062 
L 434.637993 110.763062 
L 434.637993 104.553132 
L 437.245144 104.553132 
L 437.245144 98.343202 
L 439.080682 98.343202 
L 439.080682 92.133271 
L 439.380364 92.133271 
L 439.380364 85.923341 
L 439.772695 85.923341 
L 439.772695 79.71341 
L 440.078986 79.71341 
L 440.078986 73.50348 
L 442.013711 73.50348 
L 442.013711 67.29355 
L 442.786992 67.29355 
L 442.786992 61.083619 
L 444.199271 61.083619 
L 444.199271 54.873689 
L 445.286366 54.873689 
L 445.286366 48.663758 
L 446.950131 48.663758 
L 446.950131 42.453828 
L 448.459259 42.453828 
L 448.459259 36.243898 
L 448.802625 36.243898 
L 448.802625 30.033967 
L 449.790437 30.033967 
L 449.790437 23.824037 
L 449.935557 23.824037 
L 449.935557 17.614106 
L 459.059703 17.614106 
L 459.059703 11.404176 
L 459.059703 11.404176 
L 459.059703 11.404176 
L 567.24 11.404176 
" style="fill:none;stroke:#f5deb3;stroke-linecap:square;"/>
   </g>
   <g id="line2d_10">
    <path clip-path="url(#p30f11bebe5)" d="M 633.398573 384 
" style="fill:none;stroke:#f5deb3;stroke-linecap:square;"/>
   </g>
   <g id="line2d_11">
    <path clip-path="url(#p30f11bebe5)" d="M 386.743973 384 
L 386.743973 377.79007 
L 390.865501 377.79007 
L 390.865501 371.580139 
L 396.695323 371.580139 
L 396.695323 365.370209 
L 405.419065 365.370209 
L 405.419065 359.160278 
L 406.675009 359.160278 
L 406.675009 352.950348 
L 407.328771 352.950348 
L 407.328771 346.740418 
L 411.739547 346.740418 
L 411.739547 340.530487 
L 411.807523 340.530487 
L 411.807523 334.320557 
L 412.536542 334.320557 
L 412.536542 328.110626 
L 426.920507 328.110626 
L 426.920507 321.900696 
L 427.652484 321.900696 
L 427.652484 315.690766 
L 431.47969 315.690766 
L 431.47969 309.480835 
L 433.842454 309.480835 
L 433.842454 303.270905 
L 451.465536 303.270905 
L 451.465536 297.060974 
L 562.884569 297.060974 
L 562.884569 290.851044 
L 577 290.851044 
" style="fill:none;stroke:#f5deb3;stroke-linecap:square;"/>
   </g>
   <g id="line2d_12">
    <path clip-path="url(#p30f11bebe5)" d="M 330.9691 384 
L 330.9691 377.79007 
L 337.373712 377.79007 
L 337.373712 371.580139 
L 337.604872 371.580139 
L 337.604872 365.370209 
L 339.640056 365.370209 
L 339.640056 359.160278 
L 340.081637 359.160278 
L 340.081637 352.950348 
L 340.953637 352.950348 
L 340.953637 346.740418 
L 341.598114 346.740418 
L 341.598114 340.530487 
L 341.598114 340.530487 
L 341.598114 334.320557 
L 342.023343 334.320557 
L 342.023343 328.110626 
L 342.023343 328.110626 
L 342.023343 321.900696 
L 342.234653 321.900696 
L 342.234653 315.690766 
L 342.445102 315.690766 
L 342.445102 309.480835 
L 342.654697 309.480835 
L 342.654697 303.270905 
L 342.863446 303.270905 
L 342.863446 297.060974 
L 342.863446 297.060974 
L 342.863446 290.851044 
L 343.484679 290.851044 
L 343.484679 284.641114 
L 343.484679 284.641114 
L 343.484679 278.431183 
L 343.484679 278.431183 
L 343.484679 272.221253 
L 344.098533 272.221253 
L 344.098533 266.011322 
L 344.098533 266.011322 
L 344.098533 259.801392 
L 344.098533 259.801392 
L 344.098533 253.591462 
L 344.70518 253.591462 
L 344.70518 247.381531 
L 344.905823 247.381531 
L 344.905823 241.171601 
L 348.39024 241.171601 
L 348.39024 234.96167 
L 354.392439 234.96167 
L 354.392439 228.75174 
L 376.441667 228.75174 
L 376.441667 222.54181 
L 380.115204 222.54181 
L 380.115204 216.331879 
L 380.619309 216.331879 
L 380.619309 210.121949 
L 381.217815 210.121949 
L 381.217815 203.912018 
L 393.982612 203.912018 
L 393.982612 197.702088 
L 393.982612 197.702088 
L 393.982612 197.702088 
L 567.24 197.702088 
" style="fill:none;stroke:#f5deb3;stroke-linecap:square;"/>
   </g>
   <g id="line2d_13"/>
   <g id="line2d_14"/>
   <g id="line2d_15"/>
   <g id="line2d_16">
    <path clip-path="url(#p30f11bebe5)" d="M 519.518405 384 
L 519.518405 377.79007 
L 520.662907 377.79007 
L 520.662907 371.580139 
L 528.442289 371.580139 
L 528.442289 365.370209 
L 554.790642 365.370209 
L 554.790642 359.160278 
L 554.9094 359.160278 
L 554.9094 352.950348 
L 555.385293 352.950348 
L 555.385293 346.740418 
L 573.95234 346.740418 
L 573.95234 340.530487 
L 577 340.530487 
" style="fill:none;stroke:#f5deb3;stroke-linecap:square;"/>
   </g>
   <g id="line2d_17">
    <path clip-path="url(#p30f11bebe5)" d="M 522.459977 384 
L 522.459977 377.79007 
L 525.836022 377.79007 
L 525.836022 371.580139 
L 528.437094 371.580139 
L 528.437094 365.370209 
L 528.730511 365.370209 
L 528.730511 359.160278 
L 533.967003 359.160278 
L 533.967003 352.950348 
L 535.151192 352.950348 
L 535.151192 346.740418 
L 535.228462 346.740418 
L 535.228462 340.530487 
L 541.695949 340.530487 
L 541.695949 334.320557 
L 542.625682 334.320557 
L 542.625682 328.110626 
L 542.729275 328.110626 
L 542.729275 321.900696 
L 545.128829 321.900696 
L 545.128829 315.690766 
L 547.884193 315.690766 
L 547.884193 309.480835 
L 548.334399 309.480835 
L 548.334399 303.270905 
L 558.059262 303.270905 
L 558.059262 297.060974 
L 565.324513 297.060974 
L 565.324513 290.851044 
L 577 290.851044 
" style="fill:none;stroke:#f5deb3;stroke-linecap:square;"/>
   </g>
   <g id="line2d_18">
    <path clip-path="url(#p30f11bebe5)" d="M 299.346355 384 
L 299.346355 377.79007 
L 311.079584 377.79007 
L 311.079584 371.580139 
L 311.281047 371.580139 
L 311.281047 365.370209 
L 312.061133 365.370209 
L 312.061133 359.160278 
L 312.348417 359.160278 
L 312.348417 352.950348 
L 315.794127 352.950348 
L 315.794127 346.740418 
L 315.911247 346.740418 
L 315.911247 340.530487 
L 316.028102 340.530487 
L 316.028102 334.320557 
L 316.094759 334.320557 
L 316.094759 328.110626 
L 316.641415 328.110626 
L 316.641415 321.900696 
L 317.051733 321.900696 
L 317.051733 315.690766 
L 317.214952 315.690766 
L 317.214952 309.480835 
L 317.263818 309.480835 
L 317.263818 303.270905 
L 317.507454 303.270905 
L 317.507454 297.060974 
L 317.910979 297.060974 
L 317.910979 290.851044 
L 318.103558 290.851044 
L 318.103558 284.641114 
L 319.525464 284.641114 
L 319.525464 278.431183 
L 319.959973 278.431183 
L 319.959973 272.221253 
L 319.99087 272.221253 
L 319.99087 266.011322 
L 320.068031 266.011322 
L 320.068031 259.801392 
L 321.181665 259.801392 
L 321.181665 253.591462 
L 324.001009 253.591462 
L 324.001009 247.381531 
L 324.357047 247.381531 
L 324.357047 241.171601 
L 330.743827 241.171601 
L 330.743827 234.96167 
L 348.966433 234.96167 
L 348.966433 228.75174 
L 354.724705 228.75174 
L 354.724705 222.54181 
L 356.954857 222.54181 
L 356.954857 216.331879 
L 358.237851 216.331879 
L 358.237851 210.121949 
L 360.37385 210.121949 
L 360.37385 203.912018 
L 360.845322 203.912018 
L 360.845322 197.702088 
L 361.754912 197.702088 
L 361.754912 191.492158 
L 362.302613 191.492158 
L 362.302613 185.282227 
L 363.567312 185.282227 
L 363.567312 179.072297 
L 365.874186 179.072297 
L 365.874186 172.862366 
L 371.567237 172.862366 
L 371.567237 166.652436 
L 373.888043 166.652436 
L 373.888043 160.442506 
L 377.325025 160.442506 
L 377.325025 154.232575 
L 377.892221 154.232575 
L 377.892221 148.022645 
L 382.181635 148.022645 
L 382.181635 141.812714 
L 382.606339 141.812714 
L 382.606339 135.602784 
L 384.908188 135.602784 
L 384.908188 129.392854 
L 393.127105 129.392854 
L 393.127105 123.182923 
L 408.126094 123.182923 
L 408.126094 116.972993 
L 410.714359 116.972993 
L 410.714359 110.763062 
L 419.575081 110.763062 
L 419.575081 104.553132 
L 419.575081 104.553132 
L 419.575081 104.553132 
L 567.24 104.553132 
" style="fill:none;stroke:#f5deb3;stroke-linecap:square;"/>
   </g>
   <g id="line2d_19"/>
   <g id="line2d_20">
    <path clip-path="url(#p30f11bebe5)" d="M 404.052964 384 
L 404.052964 377.79007 
L 409.118141 377.79007 
L 409.118141 371.580139 
L 414.63912 371.580139 
L 414.63912 365.370209 
L 419.962548 365.370209 
L 419.962548 359.160278 
L 422.483894 359.160278 
L 422.483894 352.950348 
L 424.411065 352.950348 
L 424.411065 346.740418 
L 426.867824 346.740418 
L 426.867824 340.530487 
L 427.964953 340.530487 
L 427.964953 334.320557 
L 429.706945 334.320557 
L 429.706945 328.110626 
L 430.186998 328.110626 
L 430.186998 321.900696 
L 430.468169 321.900696 
L 430.468169 315.690766 
L 434.562352 315.690766 
L 434.562352 309.480835 
L 434.631274 309.480835 
L 434.631274 303.270905 
L 436.686367 303.270905 
L 436.686367 297.060974 
L 437.403009 297.060974 
L 437.403009 290.851044 
L 438.701677 290.851044 
L 438.701677 284.641114 
L 441.280406 284.641114 
L 441.280406 278.431183 
L 441.467654 278.431183 
L 441.467654 272.221253 
L 444.288534 272.221253 
L 444.288534 266.011322 
L 448.184723 266.011322 
L 448.184723 259.801392 
L 455.114048 259.801392 
L 455.114048 253.591462 
L 458.164068 253.591462 
L 458.164068 247.381531 
L 472.734395 247.381531 
L 472.734395 241.171601 
L 485.316827 241.171601 
L 485.316827 234.96167 
L 489.677642 234.96167 
L 489.677642 228.75174 
L 489.746494 228.75174 
L 489.746494 222.54181 
L 491.83717 222.54181 
L 491.83717 216.331879 
L 496.493444 216.331879 
L 496.493444 210.121949 
L 535.269929 210.121949 
L 535.269929 203.912018 
L 536.295934 203.912018 
L 536.295934 197.702088 
L 536.295934 197.702088 
L 536.295934 197.702088 
L 567.24 197.702088 
" style="fill:none;stroke:#f5deb3;stroke-linecap:square;"/>
   </g>
   <g id="line2d_21"/>
   <g id="line2d_22">
    <path clip-path="url(#p30f11bebe5)" d="M 409.804401 384 
L 409.804401 377.79007 
L 410.115804 377.79007 
L 410.115804 371.580139 
L 411.810136 371.580139 
L 411.810136 365.370209 
L 412.957314 365.370209 
L 412.957314 359.160278 
L 413.463326 359.160278 
L 413.463326 352.950348 
L 413.574543 352.950348 
L 413.574543 346.740418 
L 414.14954 346.740418 
L 414.14954 340.530487 
L 414.649013 340.530487 
L 414.649013 334.320557 
L 415.358804 334.320557 
L 415.358804 328.110626 
L 415.873351 328.110626 
L 415.873351 321.900696 
L 417.010322 321.900696 
L 417.010322 315.690766 
L 418.169038 315.690766 
L 418.169038 309.480835 
L 418.291329 309.480835 
L 418.291329 303.270905 
L 419.886627 303.270905 
L 419.886627 297.060974 
L 420.26512 297.060974 
L 420.26512 290.851044 
L 420.99202 290.851044 
L 420.99202 284.641114 
L 421.029191 284.641114 
L 421.029191 278.431183 
L 421.353844 278.431183 
L 421.353844 272.221253 
L 422.420102 272.221253 
L 422.420102 266.011322 
L 423.527319 266.011322 
L 423.527319 259.801392 
L 424.03505 259.801392 
L 424.03505 253.591462 
L 424.58275 253.591462 
L 424.58275 247.381531 
L 425.460816 247.381531 
L 425.460816 241.171601 
L 427.544695 241.171601 
L 427.544695 234.96167 
L 428.986833 234.96167 
L 428.986833 228.75174 
L 430.168687 228.75174 
L 430.168687 222.54181 
L 430.174181 222.54181 
L 430.174181 216.331879 
L 434.246832 216.331879 
L 434.246832 210.121949 
L 435.507427 210.121949 
L 435.507427 203.912018 
L 437.051541 203.912018 
L 437.051541 197.702088 
L 455.872439 197.702088 
L 455.872439 191.492158 
L 459.682089 191.492158 
L 459.682089 185.282227 
L 460.795583 185.282227 
L 460.795583 179.072297 
L 461.515483 179.072297 
L 461.515483 172.862366 
L 463.621691 172.862366 
L 463.621691 166.652436 
L 464.650502 166.652436 
L 464.650502 160.442506 
L 465.431107 160.442506 
L 465.431107 154.232575 
L 482.349334 154.232575 
L 482.349334 148.022645 
L 485.353981 148.022645 
L 485.353981 141.812714 
L 492.234875 141.812714 
L 492.234875 135.602784 
L 497.879742 135.602784 
L 497.879742 129.392854 
L 508.597866 129.392854 
L 508.597866 123.182923 
L 516.546762 123.182923 
L 516.546762 116.972993 
L 526.517686 116.972993 
L 526.517686 110.763062 
L 526.517686 110.763062 
L 526.517686 110.763062 
L 567.24 110.763062 
" style="fill:none;stroke:#f5deb3;stroke-linecap:square;"/>
   </g>
   <g id="line2d_23">
    <path clip-path="url(#p30f11bebe5)" d="M 588.221589 384 
" style="fill:none;stroke:#f5deb3;stroke-linecap:square;"/>
   </g>
   <g id="line2d_24">
    <path clip-path="url(#p30f11bebe5)" d="M 386.107766 384 
L 386.107766 377.79007 
L 397.669667 377.79007 
L 397.669667 371.580139 
L 399.707104 371.580139 
L 399.707104 365.370209 
L 402.160841 365.370209 
L 402.160841 359.160278 
L 402.208055 359.160278 
L 402.208055 352.950348 
L 403.18044 352.950348 
L 403.18044 346.740418 
L 404.159108 346.740418 
L 404.159108 340.530487 
L 408.681431 340.530487 
L 408.681431 334.320557 
L 409.785385 334.320557 
L 409.785385 328.110626 
L 410.17786 328.110626 
L 410.17786 321.900696 
L 411.51669 321.900696 
L 411.51669 315.690766 
L 412.078538 315.690766 
L 412.078538 309.480835 
L 412.099327 309.480835 
L 412.099327 303.270905 
L 414.4905 303.270905 
L 414.4905 297.060974 
L 414.7108 297.060974 
L 414.7108 290.851044 
L 488.481065 290.851044 
L 488.481065 284.641114 
L 488.773538 284.641114 
L 488.773538 278.431183 
L 489.331421 278.431183 
L 489.331421 272.221253 
L 491.155823 272.221253 
L 491.155823 266.011322 
L 491.189008 266.011322 
L 491.189008 259.801392 
L 491.665306 259.801392 
L 491.665306 253.591462 
L 492.307558 253.591462 
L 492.307558 247.381531 
L 492.56224 247.381531 
L 492.56224 241.171601 
L 492.736609 241.171601 
L 492.736609 234.96167 
L 492.820032 234.96167 
L 492.820032 228.75174 
L 493.616905 228.75174 
L 493.616905 222.54181 
L 494.008118 222.54181 
L 494.008118 216.331879 
L 494.015039 216.331879 
L 494.015039 210.121949 
L 494.138398 210.121949 
L 494.138398 203.912018 
L 494.281063 203.912018 
L 494.281063 197.702088 
L 494.289537 197.702088 
L 494.289537 191.492158 
L 494.538874 191.492158 
L 494.538874 185.282227 
L 494.615757 185.282227 
L 494.615757 179.072297 
L 494.912732 179.072297 
L 494.912732 172.862366 
L 495.109598 172.862366 
L 495.109598 166.652436 
L 495.154923 166.652436 
L 495.154923 160.442506 
L 495.285463 160.442506 
L 495.285463 154.232575 
L 495.853183 154.232575 
L 495.853183 148.022645 
L 496.135999 148.022645 
L 496.135999 141.812714 
L 497.190491 141.812714 
L 497.190491 135.602784 
L 497.896535 135.602784 
L 497.896535 129.392854 
L 498.404652 129.392854 
L 498.404652 123.182923 
L 499.087653 123.182923 
L 499.087653 116.972993 
L 501.502592 116.972993 
L 501.502592 110.763062 
L 503.253969 110.763062 
L 503.253969 104.553132 
L 510.160179 104.553132 
L 510.160179 98.343202 
L 513.261498 98.343202 
L 513.261498 92.133271 
L 514.193917 92.133271 
L 514.193917 85.923341 
L 514.506393 85.923341 
L 514.506393 79.71341 
L 515.091402 79.71341 
L 515.091402 73.50348 
L 515.304456 73.50348 
L 515.304456 67.29355 
L 516.691133 67.29355 
L 516.691133 61.083619 
L 518.127441 61.083619 
L 518.127441 54.873689 
L 518.206504 54.873689 
L 518.206504 48.663758 
L 518.78856 48.663758 
L 518.78856 42.453828 
L 519.166224 42.453828 
L 519.166224 36.243898 
L 519.989108 36.243898 
L 519.989108 30.033967 
L 520.718504 30.033967 
L 520.718504 23.824037 
L 521.346545 23.824037 
L 521.346545 17.614106 
L 522.491589 17.614106 
L 522.491589 11.404176 
L 522.491589 11.404176 
L 522.491589 11.404176 
L 567.24 11.404176 
" style="fill:none;stroke:#f5deb3;stroke-linecap:square;"/>
   </g>
   <g id="line2d_25">
    <path clip-path="url(#p30f11bebe5)" d="M 549.564653 384 
L 549.564653 377.79007 
L 550.29121 377.79007 
L 550.29121 371.580139 
L 550.523415 371.580139 
L 550.523415 365.370209 
L 550.525555 365.370209 
L 550.525555 359.160278 
L 551.640424 359.160278 
L 551.640424 352.950348 
L 552.022477 352.950348 
L 552.022477 346.740418 
L 552.228414 346.740418 
L 552.228414 340.530487 
L 552.6089 340.530487 
L 552.6089 334.320557 
L 553.23852 334.320557 
L 553.23852 328.110626 
L 553.52608 328.110626 
L 553.52608 321.900696 
L 553.7717 321.900696 
L 553.7717 315.690766 
L 554.265271 315.690766 
L 554.265271 309.480835 
L 554.629786 309.480835 
L 554.629786 303.270905 
L 555.334456 303.270905 
L 555.334456 297.060974 
L 556.93884 297.060974 
L 556.93884 290.851044 
L 556.93884 290.851044 
L 556.93884 290.851044 
L 567.24 290.851044 
" style="fill:none;stroke:#f5deb3;stroke-linecap:square;"/>
   </g>
   <g id="line2d_26">
    <path clip-path="url(#p30f11bebe5)" d="M 429.117831 384 
L 429.117831 377.79007 
L 434.189257 377.79007 
L 434.189257 371.580139 
L 435.915421 371.580139 
L 435.915421 365.370209 
L 437.328123 365.370209 
L 437.328123 359.160278 
L 437.839008 359.160278 
L 437.839008 352.950348 
L 438.974222 352.950348 
L 438.974222 346.740418 
L 439.231509 346.740418 
L 439.231509 340.530487 
L 440.908326 340.530487 
L 440.908326 334.320557 
L 443.327874 334.320557 
L 443.327874 328.110626 
L 443.8027 328.110626 
L 443.8027 321.900696 
L 446.004437 321.900696 
L 446.004437 315.690766 
L 447.627317 315.690766 
L 447.627317 309.480835 
L 449.823 309.480835 
L 449.823 303.270905 
L 450.095218 303.270905 
L 450.095218 297.060974 
L 452.315972 297.060974 
L 452.315972 290.851044 
L 452.337442 290.851044 
L 452.337442 284.641114 
L 453.762956 284.641114 
L 453.762956 278.431183 
L 454.754541 278.431183 
L 454.754541 272.221253 
L 455.992578 272.221253 
L 455.992578 266.011322 
L 460.370622 266.011322 
L 460.370622 259.801392 
L 461.35548 259.801392 
L 461.35548 253.591462 
L 462.087429 253.591462 
L 462.087429 247.381531 
L 462.148617 247.381531 
L 462.148617 241.171601 
L 463.164339 241.171601 
L 463.164339 234.96167 
L 463.265787 234.96167 
L 463.265787 228.75174 
L 464.208839 228.75174 
L 464.208839 222.54181 
L 464.264727 222.54181 
L 464.264727 216.331879 
L 464.936319 216.331879 
L 464.936319 210.121949 
L 465.227069 210.121949 
L 465.227069 203.912018 
L 465.9945 203.912018 
L 465.9945 197.702088 
L 467.565316 197.702088 
L 467.565316 191.492158 
L 467.607043 191.492158 
L 467.607043 185.282227 
L 467.690396 185.282227 
L 467.690396 179.072297 
L 467.735563 179.072297 
L 467.735563 172.862366 
L 467.909662 172.862366 
L 467.909662 166.652436 
L 468.771467 166.652436 
L 468.771467 160.442506 
L 469.306643 160.442506 
L 469.306643 154.232575 
L 470.384204 154.232575 
L 470.384204 148.022645 
L 475.043081 148.022645 
L 475.043081 141.812714 
L 521.306377 141.812714 
L 521.306377 135.602784 
L 535.414444 135.602784 
L 535.414444 129.392854 
L 536.312844 129.392854 
L 536.312844 123.182923 
L 537.001396 123.182923 
L 537.001396 116.972993 
L 541.639426 116.972993 
L 541.639426 110.763062 
L 547.610929 110.763062 
L 547.610929 104.553132 
L 577 104.553132 
" style="fill:none;stroke:#f5deb3;stroke-linecap:square;"/>
   </g>
   <g id="line2d_27"/>
   <g id="line2d_28">
    <path clip-path="url(#p30f11bebe5)" d="M 355.561663 384 
L 355.561663 377.79007 
L 358.304115 377.79007 
L 358.304115 371.580139 
L 359.575982 371.580139 
L 359.575982 365.370209 
L 360.225185 365.370209 
L 360.225185 359.160278 
L 362.999337 359.160278 
L 362.999337 352.950348 
L 363.267397 352.950348 
L 363.267397 346.740418 
L 363.766292 346.740418 
L 363.766292 340.530487 
L 364.240742 340.530487 
L 364.240742 334.320557 
L 430.611815 334.320557 
L 430.611815 328.110626 
L 430.689834 328.110626 
L 430.689834 321.900696 
L 430.935821 321.900696 
L 430.935821 315.690766 
L 431.094367 315.690766 
L 431.094367 309.480835 
L 431.586711 309.480835 
L 431.586711 303.270905 
L 445.201549 303.270905 
L 445.201549 297.060974 
L 447.399512 297.060974 
L 447.399512 290.851044 
L 447.762999 290.851044 
L 447.762999 284.641114 
L 447.872329 284.641114 
L 447.872329 278.431183 
L 448.037187 278.431183 
L 448.037187 272.221253 
L 448.594059 272.221253 
L 448.594059 266.011322 
L 449.394293 266.011322 
L 449.394293 259.801392 
L 450.056595 259.801392 
L 450.056595 253.591462 
L 450.338746 253.591462 
L 450.338746 247.381531 
L 451.061298 247.381531 
L 451.061298 241.171601 
L 451.653184 241.171601 
L 451.653184 234.96167 
L 451.760623 234.96167 
L 451.760623 228.75174 
L 451.806427 228.75174 
L 451.806427 222.54181 
L 452.590831 222.54181 
L 452.590831 216.331879 
L 452.970366 216.331879 
L 452.970366 210.121949 
L 453.022173 210.121949 
L 453.022173 203.912018 
L 453.244119 203.912018 
L 453.244119 197.702088 
L 454.267446 197.702088 
L 454.267446 191.492158 
L 454.63833 191.492158 
L 454.63833 185.282227 
L 454.792083 185.282227 
L 454.792083 179.072297 
L 454.88071 179.072297 
L 454.88071 172.862366 
L 454.915891 172.862366 
L 454.915891 166.652436 
L 455.990356 166.652436 
L 455.990356 160.442506 
L 456.462652 160.442506 
L 456.462652 154.232575 
L 456.538568 154.232575 
L 456.538568 148.022645 
L 456.617666 148.022645 
L 456.617666 141.812714 
L 456.745943 141.812714 
L 456.745943 135.602784 
L 456.8881 135.602784 
L 456.8881 129.392854 
L 457.476607 129.392854 
L 457.476607 123.182923 
L 459.516297 123.182923 
L 459.516297 116.972993 
L 461.389522 116.972993 
L 461.389522 110.763062 
L 461.591312 110.763062 
L 461.591312 104.553132 
L 464.092132 104.553132 
L 464.092132 98.343202 
L 464.197465 98.343202 
L 464.197465 92.133271 
L 464.541381 92.133271 
L 464.541381 85.923341 
L 465.343099 85.923341 
L 465.343099 79.71341 
L 466.760624 79.71341 
L 466.760624 73.50348 
L 467.526222 73.50348 
L 467.526222 67.29355 
L 468.851231 67.29355 
L 468.851231 61.083619 
L 469.298914 61.083619 
L 469.298914 54.873689 
L 470.572248 54.873689 
L 470.572248 48.663758 
L 472.134642 48.663758 
L 472.134642 42.453828 
L 475.829398 42.453828 
L 475.829398 36.243898 
L 477.628651 36.243898 
L 477.628651 30.033967 
L 478.16678 30.033967 
L 478.16678 23.824037 
L 503.568213 23.824037 
L 503.568213 17.614106 
L 505.460237 17.614106 
L 505.460237 11.404176 
L 505.460237 11.404176 
L 505.460237 11.404176 
L 567.24 11.404176 
" style="fill:none;stroke:#f5deb3;stroke-linecap:square;"/>
   </g>
   <g id="line2d_29">
    <path clip-path="url(#p30f11bebe5)" d="M 307.587717 384 
L 307.587717 377.79007 
L 307.587717 377.79007 
L 307.587717 371.580139 
L 307.587717 371.580139 
L 307.587717 365.370209 
L 322.537107 365.370209 
L 322.537107 359.160278 
L 322.537107 359.160278 
L 322.537107 352.950348 
L 322.537107 352.950348 
L 322.537107 346.740418 
L 346.787851 346.740418 
L 346.787851 340.530487 
L 346.787851 340.530487 
L 346.787851 334.320557 
L 346.787851 334.320557 
L 346.787851 328.110626 
L 347.663104 328.110626 
L 347.663104 321.900696 
L 347.663104 321.900696 
L 347.663104 315.690766 
L 347.663104 315.690766 
L 347.663104 309.480835 
L 363.320843 309.480835 
L 363.320843 303.270905 
L 363.320843 303.270905 
L 363.320843 297.060974 
L 363.320843 297.060974 
L 363.320843 290.851044 
L 365.369661 290.851044 
L 365.369661 284.641114 
L 365.369661 284.641114 
L 365.369661 278.431183 
L 365.369661 278.431183 
L 365.369661 272.221253 
L 365.80423 272.221253 
L 365.80423 266.011322 
L 365.80423 266.011322 
L 365.80423 259.801392 
L 365.80423 259.801392 
L 365.80423 253.591462 
L 367.253777 253.591462 
L 367.253777 247.381531 
L 367.253777 247.381531 
L 367.253777 241.171601 
L 367.253777 241.171601 
L 367.253777 234.96167 
L 367.327979 234.96167 
L 367.327979 228.75174 
L 367.327979 228.75174 
L 367.327979 222.54181 
L 367.327979 222.54181 
L 367.327979 216.331879 
L 394.008428 216.331879 
L 394.008428 210.121949 
L 394.008428 210.121949 
L 394.008428 203.912018 
L 394.008428 203.912018 
L 394.008428 197.702088 
L 394.008428 197.702088 
L 394.008428 197.702088 
L 567.24 197.702088 
" style="fill:none;stroke:#f5deb3;stroke-linecap:square;"/>
   </g>
   <g id="line2d_30"/>
   <g id="line2d_31"/>
   <g id="line2d_32"/>
   <g id="line2d_33"/>
   <g id="line2d_34"/>
   <g id="line2d_35">
    <path clip-path="url(#p30f11bebe5)" d="M 567.196359 384 
L 567.196359 7.678218 
" style="fill:none;stroke:#000000;stroke-linecap:square;"/>
   </g>
   <g id="patch_3">
    <path d="M 55.425 7.678218 
L 567.24 7.678218 
" style="fill:none;stroke:#000000;stroke-linecap:square;stroke-linejoin:miter;"/>
   </g>
   <g id="patch_4">
    <path d="M 567.24 384 
L 567.24 7.678218 
" style="fill:none;stroke:#000000;stroke-linecap:square;stroke-linejoin:miter;"/>
   </g>
   <g id="patch_5">
    <path d="M 55.425 384 
L 567.24 384 
" style="fill:none;stroke:#000000;stroke-linecap:square;stroke-linejoin:miter;"/>
   </g>
   <g id="patch_6">
    <path d="M 55.425 384 
L 55.425 7.678218 
" style="fill:none;stroke:#000000;stroke-linecap:square;stroke-linejoin:miter;"/>
   </g>
   <g id="matplotlib.axis_1">
    <g id="xtick_1">
     <g id="line2d_36">
      <path clip-path="url(#p30f11bebe5)" d="M 174.411442 384 
L 174.411442 7.678218 
" style="fill:none;stroke:#000000;stroke-dasharray:1.000000,3.000000;stroke-dashoffset:0.0;stroke-width:0.5;"/>
     </g>
     <g id="line2d_37">
      <defs>
       <path d="M 0 0 
L 0 -4 
" id="mc9db1cbb7d" style="stroke:#000000;stroke-width:0.5;"/>
      </defs>
      <g>
       <use style="stroke:#000000;stroke-width:0.5;" x="174.411441527" xlink:href="#mc9db1cbb7d" y="384.0"/>
      </g>
     </g>
     <g id="line2d_38">
      <defs>
       <path d="M 0 0 
L 0 4 
" id="m134fda58fb" style="stroke:#000000;stroke-width:0.5;"/>
      </defs>
      <g>
       <use style="stroke:#000000;stroke-width:0.5;" x="174.411441527" xlink:href="#m134fda58fb" y="7.67821782178"/>
      </g>
     </g>
     <g id="text_1">
      <!-- 1 -->
      <defs>
       <path d="M 12.40625 8.296875 
L 28.515625 8.296875 
L 28.515625 63.921875 
L 10.984375 60.40625 
L 10.984375 69.390625 
L 28.421875 72.90625 
L 38.28125 72.90625 
L 38.28125 8.296875 
L 54.390625 8.296875 
L 54.390625 0 
L 12.40625 0 
z
" id="BitstreamVeraSans-Roman-31"/>
      </defs>
      <g transform="translate(168.048941527 403.196875)scale(0.2 -0.2)">
       <use xlink:href="#BitstreamVeraSans-Roman-31"/>
      </g>
     </g>
    </g>
    <g id="xtick_2">
     <g id="line2d_39">
      <path clip-path="url(#p30f11bebe5)" d="M 293.397883 384 
L 293.397883 7.678218 
" style="fill:none;stroke:#000000;stroke-dasharray:1.000000,3.000000;stroke-dashoffset:0.0;stroke-width:0.5;"/>
     </g>
     <g id="line2d_40">
      <g>
       <use style="stroke:#000000;stroke-width:0.5;" x="293.397883054" xlink:href="#mc9db1cbb7d" y="384.0"/>
      </g>
     </g>
     <g id="line2d_41">
      <g>
       <use style="stroke:#000000;stroke-width:0.5;" x="293.397883054" xlink:href="#m134fda58fb" y="7.67821782178"/>
      </g>
     </g>
     <g id="text_2">
      <!-- 2 -->
      <defs>
       <path d="M 19.1875 8.296875 
L 53.609375 8.296875 
L 53.609375 0 
L 7.328125 0 
L 7.328125 8.296875 
Q 12.9375 14.109375 22.625 23.890625 
Q 32.328125 33.6875 34.8125 36.53125 
Q 39.546875 41.84375 41.421875 45.53125 
Q 43.3125 49.21875 43.3125 52.78125 
Q 43.3125 58.59375 39.234375 62.25 
Q 35.15625 65.921875 28.609375 65.921875 
Q 23.96875 65.921875 18.8125 64.3125 
Q 13.671875 62.703125 7.8125 59.421875 
L 7.8125 69.390625 
Q 13.765625 71.78125 18.9375 73 
Q 24.125 74.21875 28.421875 74.21875 
Q 39.75 74.21875 46.484375 68.546875 
Q 53.21875 62.890625 53.21875 53.421875 
Q 53.21875 48.921875 51.53125 44.890625 
Q 49.859375 40.875 45.40625 35.40625 
Q 44.1875 33.984375 37.640625 27.21875 
Q 31.109375 20.453125 19.1875 8.296875 
" id="BitstreamVeraSans-Roman-32"/>
      </defs>
      <g transform="translate(287.035383054 403.196875)scale(0.2 -0.2)">
       <use xlink:href="#BitstreamVeraSans-Roman-32"/>
      </g>
     </g>
    </g>
    <g id="xtick_3">
     <g id="line2d_42">
      <path clip-path="url(#p30f11bebe5)" d="M 412.384325 384 
L 412.384325 7.678218 
" style="fill:none;stroke:#000000;stroke-dasharray:1.000000,3.000000;stroke-dashoffset:0.0;stroke-width:0.5;"/>
     </g>
     <g id="line2d_43">
      <g>
       <use style="stroke:#000000;stroke-width:0.5;" x="412.384324581" xlink:href="#mc9db1cbb7d" y="384.0"/>
      </g>
     </g>
     <g id="line2d_44">
      <g>
       <use style="stroke:#000000;stroke-width:0.5;" x="412.384324581" xlink:href="#m134fda58fb" y="7.67821782178"/>
      </g>
     </g>
     <g id="text_3">
      <!-- 3 -->
      <defs>
       <path d="M 40.578125 39.3125 
Q 47.65625 37.796875 51.625 33 
Q 55.609375 28.21875 55.609375 21.1875 
Q 55.609375 10.40625 48.1875 4.484375 
Q 40.765625 -1.421875 27.09375 -1.421875 
Q 22.515625 -1.421875 17.65625 -0.515625 
Q 12.796875 0.390625 7.625 2.203125 
L 7.625 11.71875 
Q 11.71875 9.328125 16.59375 8.109375 
Q 21.484375 6.890625 26.8125 6.890625 
Q 36.078125 6.890625 40.9375 10.546875 
Q 45.796875 14.203125 45.796875 21.1875 
Q 45.796875 27.640625 41.28125 31.265625 
Q 36.765625 34.90625 28.71875 34.90625 
L 20.21875 34.90625 
L 20.21875 43.015625 
L 29.109375 43.015625 
Q 36.375 43.015625 40.234375 45.921875 
Q 44.09375 48.828125 44.09375 54.296875 
Q 44.09375 59.90625 40.109375 62.90625 
Q 36.140625 65.921875 28.71875 65.921875 
Q 24.65625 65.921875 20.015625 65.03125 
Q 15.375 64.15625 9.8125 62.3125 
L 9.8125 71.09375 
Q 15.4375 72.65625 20.34375 73.4375 
Q 25.25 74.21875 29.59375 74.21875 
Q 40.828125 74.21875 47.359375 69.109375 
Q 53.90625 64.015625 53.90625 55.328125 
Q 53.90625 49.265625 50.4375 45.09375 
Q 46.96875 40.921875 40.578125 39.3125 
" id="BitstreamVeraSans-Roman-33"/>
      </defs>
      <g transform="translate(406.021824581 403.196875)scale(0.2 -0.2)">
       <use xlink:href="#BitstreamVeraSans-Roman-33"/>
      </g>
     </g>
    </g>
    <g id="xtick_4">
     <g id="line2d_45">
      <path clip-path="url(#p30f11bebe5)" d="M 531.370766 384 
L 531.370766 7.678218 
" style="fill:none;stroke:#000000;stroke-dasharray:1.000000,3.000000;stroke-dashoffset:0.0;stroke-width:0.5;"/>
     </g>
     <g id="line2d_46">
      <g>
       <use style="stroke:#000000;stroke-width:0.5;" x="531.370766108" xlink:href="#mc9db1cbb7d" y="384.0"/>
      </g>
     </g>
     <g id="line2d_47">
      <g>
       <use style="stroke:#000000;stroke-width:0.5;" x="531.370766108" xlink:href="#m134fda58fb" y="7.67821782178"/>
      </g>
     </g>
     <g id="text_4">
      <!-- 4 -->
      <defs>
       <path d="M 37.796875 64.3125 
L 12.890625 25.390625 
L 37.796875 25.390625 
z
M 35.203125 72.90625 
L 47.609375 72.90625 
L 47.609375 25.390625 
L 58.015625 25.390625 
L 58.015625 17.1875 
L 47.609375 17.1875 
L 47.609375 0 
L 37.796875 0 
L 37.796875 17.1875 
L 4.890625 17.1875 
L 4.890625 26.703125 
z
" id="BitstreamVeraSans-Roman-34"/>
      </defs>
      <g transform="translate(525.008266108 403.196875)scale(0.2 -0.2)">
       <use xlink:href="#BitstreamVeraSans-Roman-34"/>
      </g>
     </g>
    </g>
    <g id="xtick_5">
     <g id="line2d_48">
      <defs>
       <path d="M 0 0 
L 0 -2 
" id="m9b398f8812" style="stroke:#000000;stroke-width:0.5;"/>
      </defs>
      <g>
       <use style="stroke:#000000;stroke-width:0.5;" x="91.243487977" xlink:href="#m9b398f8812" y="384.0"/>
      </g>
     </g>
     <g id="line2d_49">
      <defs>
       <path d="M 0 0 
L 0 2 
" id="md96762cf8c" style="stroke:#000000;stroke-width:0.5;"/>
      </defs>
      <g>
       <use style="stroke:#000000;stroke-width:0.5;" x="91.243487977" xlink:href="#md96762cf8c" y="7.67821782178"/>
      </g>
     </g>
    </g>
    <g id="xtick_6">
     <g id="line2d_50">
      <g>
       <use style="stroke:#000000;stroke-width:0.5;" x="112.195960276" xlink:href="#m9b398f8812" y="384.0"/>
      </g>
     </g>
     <g id="line2d_51">
      <g>
       <use style="stroke:#000000;stroke-width:0.5;" x="112.195960276" xlink:href="#md96762cf8c" y="7.67821782178"/>
      </g>
     </g>
    </g>
    <g id="xtick_7">
     <g id="line2d_52">
      <g>
       <use style="stroke:#000000;stroke-width:0.5;" x="127.061975954" xlink:href="#m9b398f8812" y="384.0"/>
      </g>
     </g>
     <g id="line2d_53">
      <g>
       <use style="stroke:#000000;stroke-width:0.5;" x="127.061975954" xlink:href="#md96762cf8c" y="7.67821782178"/>
      </g>
     </g>
    </g>
    <g id="xtick_8">
     <g id="line2d_54">
      <g>
       <use style="stroke:#000000;stroke-width:0.5;" x="138.59295355" xlink:href="#m9b398f8812" y="384.0"/>
      </g>
     </g>
     <g id="line2d_55">
      <g>
       <use style="stroke:#000000;stroke-width:0.5;" x="138.59295355" xlink:href="#md96762cf8c" y="7.67821782178"/>
      </g>
     </g>
    </g>
    <g id="xtick_9">
     <g id="line2d_56">
      <g>
       <use style="stroke:#000000;stroke-width:0.5;" x="148.014448253" xlink:href="#m9b398f8812" y="384.0"/>
      </g>
     </g>
     <g id="line2d_57">
      <g>
       <use style="stroke:#000000;stroke-width:0.5;" x="148.014448253" xlink:href="#md96762cf8c" y="7.67821782178"/>
      </g>
     </g>
    </g>
    <g id="xtick_10">
     <g id="line2d_58">
      <g>
       <use style="stroke:#000000;stroke-width:0.5;" x="155.980208523" xlink:href="#m9b398f8812" y="384.0"/>
      </g>
     </g>
     <g id="line2d_59">
      <g>
       <use style="stroke:#000000;stroke-width:0.5;" x="155.980208523" xlink:href="#md96762cf8c" y="7.67821782178"/>
      </g>
     </g>
    </g>
    <g id="xtick_11">
     <g id="line2d_60">
      <g>
       <use style="stroke:#000000;stroke-width:0.5;" x="162.880463931" xlink:href="#m9b398f8812" y="384.0"/>
      </g>
     </g>
     <g id="line2d_61">
      <g>
       <use style="stroke:#000000;stroke-width:0.5;" x="162.880463931" xlink:href="#md96762cf8c" y="7.67821782178"/>
      </g>
     </g>
    </g>
    <g id="xtick_12">
     <g id="line2d_62">
      <g>
       <use style="stroke:#000000;stroke-width:0.5;" x="168.966920552" xlink:href="#m9b398f8812" y="384.0"/>
      </g>
     </g>
     <g id="line2d_63">
      <g>
       <use style="stroke:#000000;stroke-width:0.5;" x="168.966920552" xlink:href="#md96762cf8c" y="7.67821782178"/>
      </g>
     </g>
    </g>
    <g id="xtick_13">
     <g id="line2d_64">
      <g>
       <use style="stroke:#000000;stroke-width:0.5;" x="210.229929504" xlink:href="#m9b398f8812" y="384.0"/>
      </g>
     </g>
     <g id="line2d_65">
      <g>
       <use style="stroke:#000000;stroke-width:0.5;" x="210.229929504" xlink:href="#md96762cf8c" y="7.67821782178"/>
      </g>
     </g>
    </g>
    <g id="xtick_14">
     <g id="line2d_66">
      <g>
       <use style="stroke:#000000;stroke-width:0.5;" x="231.182401803" xlink:href="#m9b398f8812" y="384.0"/>
      </g>
     </g>
     <g id="line2d_67">
      <g>
       <use style="stroke:#000000;stroke-width:0.5;" x="231.182401803" xlink:href="#md96762cf8c" y="7.67821782178"/>
      </g>
     </g>
    </g>
    <g id="xtick_15">
     <g id="line2d_68">
      <g>
       <use style="stroke:#000000;stroke-width:0.5;" x="246.048417481" xlink:href="#m9b398f8812" y="384.0"/>
      </g>
     </g>
     <g id="line2d_69">
      <g>
       <use style="stroke:#000000;stroke-width:0.5;" x="246.048417481" xlink:href="#md96762cf8c" y="7.67821782178"/>
      </g>
     </g>
    </g>
    <g id="xtick_16">
     <g id="line2d_70">
      <g>
       <use style="stroke:#000000;stroke-width:0.5;" x="257.579395077" xlink:href="#m9b398f8812" y="384.0"/>
      </g>
     </g>
     <g id="line2d_71">
      <g>
       <use style="stroke:#000000;stroke-width:0.5;" x="257.579395077" xlink:href="#md96762cf8c" y="7.67821782178"/>
      </g>
     </g>
    </g>
    <g id="xtick_17">
     <g id="line2d_72">
      <g>
       <use style="stroke:#000000;stroke-width:0.5;" x="267.00088978" xlink:href="#m9b398f8812" y="384.0"/>
      </g>
     </g>
     <g id="line2d_73">
      <g>
       <use style="stroke:#000000;stroke-width:0.5;" x="267.00088978" xlink:href="#md96762cf8c" y="7.67821782178"/>
      </g>
     </g>
    </g>
    <g id="xtick_18">
     <g id="line2d_74">
      <g>
       <use style="stroke:#000000;stroke-width:0.5;" x="274.96665005" xlink:href="#m9b398f8812" y="384.0"/>
      </g>
     </g>
     <g id="line2d_75">
      <g>
       <use style="stroke:#000000;stroke-width:0.5;" x="274.96665005" xlink:href="#md96762cf8c" y="7.67821782178"/>
      </g>
     </g>
    </g>
    <g id="xtick_19">
     <g id="line2d_76">
      <g>
       <use style="stroke:#000000;stroke-width:0.5;" x="281.866905458" xlink:href="#m9b398f8812" y="384.0"/>
      </g>
     </g>
     <g id="line2d_77">
      <g>
       <use style="stroke:#000000;stroke-width:0.5;" x="281.866905458" xlink:href="#md96762cf8c" y="7.67821782178"/>
      </g>
     </g>
    </g>
    <g id="xtick_20">
     <g id="line2d_78">
      <g>
       <use style="stroke:#000000;stroke-width:0.5;" x="287.953362079" xlink:href="#m9b398f8812" y="384.0"/>
      </g>
     </g>
     <g id="line2d_79">
      <g>
       <use style="stroke:#000000;stroke-width:0.5;" x="287.953362079" xlink:href="#md96762cf8c" y="7.67821782178"/>
      </g>
     </g>
    </g>
    <g id="xtick_21">
     <g id="line2d_80">
      <g>
       <use style="stroke:#000000;stroke-width:0.5;" x="329.216371031" xlink:href="#m9b398f8812" y="384.0"/>
      </g>
     </g>
     <g id="line2d_81">
      <g>
       <use style="stroke:#000000;stroke-width:0.5;" x="329.216371031" xlink:href="#md96762cf8c" y="7.67821782178"/>
      </g>
     </g>
    </g>
    <g id="xtick_22">
     <g id="line2d_82">
      <g>
       <use style="stroke:#000000;stroke-width:0.5;" x="350.16884333" xlink:href="#m9b398f8812" y="384.0"/>
      </g>
     </g>
     <g id="line2d_83">
      <g>
       <use style="stroke:#000000;stroke-width:0.5;" x="350.16884333" xlink:href="#md96762cf8c" y="7.67821782178"/>
      </g>
     </g>
    </g>
    <g id="xtick_23">
     <g id="line2d_84">
      <g>
       <use style="stroke:#000000;stroke-width:0.5;" x="365.034859008" xlink:href="#m9b398f8812" y="384.0"/>
      </g>
     </g>
     <g id="line2d_85">
      <g>
       <use style="stroke:#000000;stroke-width:0.5;" x="365.034859008" xlink:href="#md96762cf8c" y="7.67821782178"/>
      </g>
     </g>
    </g>
    <g id="xtick_24">
     <g id="line2d_86">
      <g>
       <use style="stroke:#000000;stroke-width:0.5;" x="376.565836604" xlink:href="#m9b398f8812" y="384.0"/>
      </g>
     </g>
     <g id="line2d_87">
      <g>
       <use style="stroke:#000000;stroke-width:0.5;" x="376.565836604" xlink:href="#md96762cf8c" y="7.67821782178"/>
      </g>
     </g>
    </g>
    <g id="xtick_25">
     <g id="line2d_88">
      <g>
       <use style="stroke:#000000;stroke-width:0.5;" x="385.987331307" xlink:href="#m9b398f8812" y="384.0"/>
      </g>
     </g>
     <g id="line2d_89">
      <g>
       <use style="stroke:#000000;stroke-width:0.5;" x="385.987331307" xlink:href="#md96762cf8c" y="7.67821782178"/>
      </g>
     </g>
    </g>
    <g id="xtick_26">
     <g id="line2d_90">
      <g>
       <use style="stroke:#000000;stroke-width:0.5;" x="393.953091577" xlink:href="#m9b398f8812" y="384.0"/>
      </g>
     </g>
     <g id="line2d_91">
      <g>
       <use style="stroke:#000000;stroke-width:0.5;" x="393.953091577" xlink:href="#md96762cf8c" y="7.67821782178"/>
      </g>
     </g>
    </g>
    <g id="xtick_27">
     <g id="line2d_92">
      <g>
       <use style="stroke:#000000;stroke-width:0.5;" x="400.853346985" xlink:href="#m9b398f8812" y="384.0"/>
      </g>
     </g>
     <g id="line2d_93">
      <g>
       <use style="stroke:#000000;stroke-width:0.5;" x="400.853346985" xlink:href="#md96762cf8c" y="7.67821782178"/>
      </g>
     </g>
    </g>
    <g id="xtick_28">
     <g id="line2d_94">
      <g>
       <use style="stroke:#000000;stroke-width:0.5;" x="406.939803606" xlink:href="#m9b398f8812" y="384.0"/>
      </g>
     </g>
     <g id="line2d_95">
      <g>
       <use style="stroke:#000000;stroke-width:0.5;" x="406.939803606" xlink:href="#md96762cf8c" y="7.67821782178"/>
      </g>
     </g>
    </g>
    <g id="xtick_29">
     <g id="line2d_96">
      <g>
       <use style="stroke:#000000;stroke-width:0.5;" x="448.202812558" xlink:href="#m9b398f8812" y="384.0"/>
      </g>
     </g>
     <g id="line2d_97">
      <g>
       <use style="stroke:#000000;stroke-width:0.5;" x="448.202812558" xlink:href="#md96762cf8c" y="7.67821782178"/>
      </g>
     </g>
    </g>
    <g id="xtick_30">
     <g id="line2d_98">
      <g>
       <use style="stroke:#000000;stroke-width:0.5;" x="469.155284857" xlink:href="#m9b398f8812" y="384.0"/>
      </g>
     </g>
     <g id="line2d_99">
      <g>
       <use style="stroke:#000000;stroke-width:0.5;" x="469.155284857" xlink:href="#md96762cf8c" y="7.67821782178"/>
      </g>
     </g>
    </g>
    <g id="xtick_31">
     <g id="line2d_100">
      <g>
       <use style="stroke:#000000;stroke-width:0.5;" x="484.021300535" xlink:href="#m9b398f8812" y="384.0"/>
      </g>
     </g>
     <g id="line2d_101">
      <g>
       <use style="stroke:#000000;stroke-width:0.5;" x="484.021300535" xlink:href="#md96762cf8c" y="7.67821782178"/>
      </g>
     </g>
    </g>
    <g id="xtick_32">
     <g id="line2d_102">
      <g>
       <use style="stroke:#000000;stroke-width:0.5;" x="495.552278131" xlink:href="#m9b398f8812" y="384.0"/>
      </g>
     </g>
     <g id="line2d_103">
      <g>
       <use style="stroke:#000000;stroke-width:0.5;" x="495.552278131" xlink:href="#md96762cf8c" y="7.67821782178"/>
      </g>
     </g>
    </g>
    <g id="xtick_33">
     <g id="line2d_104">
      <g>
       <use style="stroke:#000000;stroke-width:0.5;" x="504.973772834" xlink:href="#m9b398f8812" y="384.0"/>
      </g>
     </g>
     <g id="line2d_105">
      <g>
       <use style="stroke:#000000;stroke-width:0.5;" x="504.973772834" xlink:href="#md96762cf8c" y="7.67821782178"/>
      </g>
     </g>
    </g>
    <g id="xtick_34">
     <g id="line2d_106">
      <g>
       <use style="stroke:#000000;stroke-width:0.5;" x="512.939533104" xlink:href="#m9b398f8812" y="384.0"/>
      </g>
     </g>
     <g id="line2d_107">
      <g>
       <use style="stroke:#000000;stroke-width:0.5;" x="512.939533104" xlink:href="#md96762cf8c" y="7.67821782178"/>
      </g>
     </g>
    </g>
    <g id="xtick_35">
     <g id="line2d_108">
      <g>
       <use style="stroke:#000000;stroke-width:0.5;" x="519.839788512" xlink:href="#m9b398f8812" y="384.0"/>
      </g>
     </g>
     <g id="line2d_109">
      <g>
       <use style="stroke:#000000;stroke-width:0.5;" x="519.839788512" xlink:href="#md96762cf8c" y="7.67821782178"/>
      </g>
     </g>
    </g>
    <g id="xtick_36">
     <g id="line2d_110">
      <g>
       <use style="stroke:#000000;stroke-width:0.5;" x="525.926245133" xlink:href="#m9b398f8812" y="384.0"/>
      </g>
     </g>
     <g id="line2d_111">
      <g>
       <use style="stroke:#000000;stroke-width:0.5;" x="525.926245133" xlink:href="#md96762cf8c" y="7.67821782178"/>
      </g>
     </g>
    </g>
    <g id="xtick_37">
     <g id="line2d_112">
      <g>
       <use style="stroke:#000000;stroke-width:0.5;" x="567.189254085" xlink:href="#m9b398f8812" y="384.0"/>
      </g>
     </g>
     <g id="line2d_113">
      <g>
       <use style="stroke:#000000;stroke-width:0.5;" x="567.189254085" xlink:href="#md96762cf8c" y="7.67821782178"/>
      </g>
     </g>
    </g>
    <g id="text_5">
     <!-- log10 of FEvals / DIM -->
     <defs>
      <path id="BitstreamVeraSans-Roman-20"/>
      <path d="M 31.78125 66.40625 
Q 24.171875 66.40625 20.328125 58.90625 
Q 16.5 51.421875 16.5 36.375 
Q 16.5 21.390625 20.328125 13.890625 
Q 24.171875 6.390625 31.78125 6.390625 
Q 39.453125 6.390625 43.28125 13.890625 
Q 47.125 21.390625 47.125 36.375 
Q 47.125 51.421875 43.28125 58.90625 
Q 39.453125 66.40625 31.78125 66.40625 
M 31.78125 74.21875 
Q 44.046875 74.21875 50.515625 64.515625 
Q 56.984375 54.828125 56.984375 36.375 
Q 56.984375 17.96875 50.515625 8.265625 
Q 44.046875 -1.421875 31.78125 -1.421875 
Q 19.53125 -1.421875 13.0625 8.265625 
Q 6.59375 17.96875 6.59375 36.375 
Q 6.59375 54.828125 13.0625 64.515625 
Q 19.53125 74.21875 31.78125 74.21875 
" id="BitstreamVeraSans-Roman-30"/>
      <path d="M 9.8125 72.90625 
L 24.515625 72.90625 
L 43.109375 23.296875 
L 61.8125 72.90625 
L 76.515625 72.90625 
L 76.515625 0 
L 66.890625 0 
L 66.890625 64.015625 
L 48.09375 14.015625 
L 38.1875 14.015625 
L 19.390625 64.015625 
L 19.390625 0 
L 9.8125 0 
z
" id="BitstreamVeraSans-Roman-4d"/>
      <path d="M 30.609375 48.390625 
Q 23.390625 48.390625 19.1875 42.75 
Q 14.984375 37.109375 14.984375 27.296875 
Q 14.984375 17.484375 19.15625 11.84375 
Q 23.34375 6.203125 30.609375 6.203125 
Q 37.796875 6.203125 41.984375 11.859375 
Q 46.1875 17.53125 46.1875 27.296875 
Q 46.1875 37.015625 41.984375 42.703125 
Q 37.796875 48.390625 30.609375 48.390625 
M 30.609375 56 
Q 42.328125 56 49.015625 48.375 
Q 55.71875 40.765625 55.71875 27.296875 
Q 55.71875 13.875 49.015625 6.21875 
Q 42.328125 -1.421875 30.609375 -1.421875 
Q 18.84375 -1.421875 12.171875 6.21875 
Q 5.515625 13.875 5.515625 27.296875 
Q 5.515625 40.765625 12.171875 48.375 
Q 18.84375 56 30.609375 56 
" id="BitstreamVeraSans-Roman-6f"/>
      <path d="M 9.421875 75.984375 
L 18.40625 75.984375 
L 18.40625 0 
L 9.421875 0 
z
" id="BitstreamVeraSans-Roman-6c"/>
      <path d="M 9.8125 72.90625 
L 51.703125 72.90625 
L 51.703125 64.59375 
L 19.671875 64.59375 
L 19.671875 43.109375 
L 48.578125 43.109375 
L 48.578125 34.8125 
L 19.671875 34.8125 
L 19.671875 0 
L 9.8125 0 
z
" id="BitstreamVeraSans-Roman-46"/>
      <path d="M 9.8125 72.90625 
L 55.90625 72.90625 
L 55.90625 64.59375 
L 19.671875 64.59375 
L 19.671875 43.015625 
L 54.390625 43.015625 
L 54.390625 34.71875 
L 19.671875 34.71875 
L 19.671875 8.296875 
L 56.78125 8.296875 
L 56.78125 0 
L 9.8125 0 
z
" id="BitstreamVeraSans-Roman-45"/>
      <path d="M 19.671875 64.796875 
L 19.671875 8.109375 
L 31.59375 8.109375 
Q 46.6875 8.109375 53.6875 14.9375 
Q 60.6875 21.78125 60.6875 36.53125 
Q 60.6875 51.171875 53.6875 57.984375 
Q 46.6875 64.796875 31.59375 64.796875 
z
M 9.8125 72.90625 
L 30.078125 72.90625 
Q 51.265625 72.90625 61.171875 64.09375 
Q 71.09375 55.28125 71.09375 36.53125 
Q 71.09375 17.671875 61.125 8.828125 
Q 51.171875 0 30.078125 0 
L 9.8125 0 
z
" id="BitstreamVeraSans-Roman-44"/>
      <path d="M 25.390625 72.90625 
L 33.6875 72.90625 
L 8.296875 -9.28125 
L 0 -9.28125 
z
" id="BitstreamVeraSans-Roman-2f"/>
      <path d="M 2.984375 54.6875 
L 12.5 54.6875 
L 29.59375 8.796875 
L 46.6875 54.6875 
L 56.203125 54.6875 
L 35.6875 0 
L 23.484375 0 
z
" id="BitstreamVeraSans-Roman-76"/>
      <path d="M 45.40625 27.984375 
Q 45.40625 37.75 41.375 43.109375 
Q 37.359375 48.484375 30.078125 48.484375 
Q 22.859375 48.484375 18.828125 43.109375 
Q 14.796875 37.75 14.796875 27.984375 
Q 14.796875 18.265625 18.828125 12.890625 
Q 22.859375 7.515625 30.078125 7.515625 
Q 37.359375 7.515625 41.375 12.890625 
Q 45.40625 18.265625 45.40625 27.984375 
M 54.390625 6.78125 
Q 54.390625 -7.171875 48.1875 -13.984375 
Q 42 -20.796875 29.203125 -20.796875 
Q 24.46875 -20.796875 20.265625 -20.09375 
Q 16.0625 -19.390625 12.109375 -17.921875 
L 12.109375 -9.1875 
Q 16.0625 -11.328125 19.921875 -12.34375 
Q 23.78125 -13.375 27.78125 -13.375 
Q 36.625 -13.375 41.015625 -8.765625 
Q 45.40625 -4.15625 45.40625 5.171875 
L 45.40625 9.625 
Q 42.625 4.78125 38.28125 2.390625 
Q 33.9375 0 27.875 0 
Q 17.828125 0 11.671875 7.65625 
Q 5.515625 15.328125 5.515625 27.984375 
Q 5.515625 40.671875 11.671875 48.328125 
Q 17.828125 56 27.875 56 
Q 33.9375 56 38.28125 53.609375 
Q 42.625 51.21875 45.40625 46.390625 
L 45.40625 54.6875 
L 54.390625 54.6875 
z
" id="BitstreamVeraSans-Roman-67"/>
      <path d="M 37.109375 75.984375 
L 37.109375 68.5 
L 28.515625 68.5 
Q 23.6875 68.5 21.796875 66.546875 
Q 19.921875 64.59375 19.921875 59.515625 
L 19.921875 54.6875 
L 34.71875 54.6875 
L 34.71875 47.703125 
L 19.921875 47.703125 
L 19.921875 0 
L 10.890625 0 
L 10.890625 47.703125 
L 2.296875 47.703125 
L 2.296875 54.6875 
L 10.890625 54.6875 
L 10.890625 58.5 
Q 10.890625 67.625 15.140625 71.796875 
Q 19.390625 75.984375 28.609375 75.984375 
z
" id="BitstreamVeraSans-Roman-66"/>
      <path d="M 34.28125 27.484375 
Q 23.390625 27.484375 19.1875 25 
Q 14.984375 22.515625 14.984375 16.5 
Q 14.984375 11.71875 18.140625 8.90625 
Q 21.296875 6.109375 26.703125 6.109375 
Q 34.1875 6.109375 38.703125 11.40625 
Q 43.21875 16.703125 43.21875 25.484375 
L 43.21875 27.484375 
z
M 52.203125 31.203125 
L 52.203125 0 
L 43.21875 0 
L 43.21875 8.296875 
Q 40.140625 3.328125 35.546875 0.953125 
Q 30.953125 -1.421875 24.3125 -1.421875 
Q 15.921875 -1.421875 10.953125 3.296875 
Q 6 8.015625 6 15.921875 
Q 6 25.140625 12.171875 29.828125 
Q 18.359375 34.515625 30.609375 34.515625 
L 43.21875 34.515625 
L 43.21875 35.40625 
Q 43.21875 41.609375 39.140625 45 
Q 35.0625 48.390625 27.6875 48.390625 
Q 23 48.390625 18.546875 47.265625 
Q 14.109375 46.140625 10.015625 43.890625 
L 10.015625 52.203125 
Q 14.9375 54.109375 19.578125 55.046875 
Q 24.21875 56 28.609375 56 
Q 40.484375 56 46.34375 49.84375 
Q 52.203125 43.703125 52.203125 31.203125 
" id="BitstreamVeraSans-Roman-61"/>
      <path d="M 44.28125 53.078125 
L 44.28125 44.578125 
Q 40.484375 46.53125 36.375 47.5 
Q 32.28125 48.484375 27.875 48.484375 
Q 21.1875 48.484375 17.84375 46.4375 
Q 14.5 44.390625 14.5 40.28125 
Q 14.5 37.15625 16.890625 35.375 
Q 19.28125 33.59375 26.515625 31.984375 
L 29.59375 31.296875 
Q 39.15625 29.25 43.1875 25.515625 
Q 47.21875 21.78125 47.21875 15.09375 
Q 47.21875 7.46875 41.1875 3.015625 
Q 35.15625 -1.421875 24.609375 -1.421875 
Q 20.21875 -1.421875 15.453125 -0.5625 
Q 10.6875 0.296875 5.421875 2 
L 5.421875 11.28125 
Q 10.40625 8.6875 15.234375 7.390625 
Q 20.0625 6.109375 24.8125 6.109375 
Q 31.15625 6.109375 34.5625 8.28125 
Q 37.984375 10.453125 37.984375 14.40625 
Q 37.984375 18.0625 35.515625 20.015625 
Q 33.0625 21.96875 24.703125 23.78125 
L 21.578125 24.515625 
Q 13.234375 26.265625 9.515625 29.90625 
Q 5.8125 33.546875 5.8125 39.890625 
Q 5.8125 47.609375 11.28125 51.796875 
Q 16.75 56 26.8125 56 
Q 31.78125 56 36.171875 55.265625 
Q 40.578125 54.546875 44.28125 53.078125 
" id="BitstreamVeraSans-Roman-73"/>
      <path d="M 9.8125 72.90625 
L 19.671875 72.90625 
L 19.671875 0 
L 9.8125 0 
z
" id="BitstreamVeraSans-Roman-49"/>
     </defs>
     <g transform="translate(206.2590625 427.553125)scale(0.2 -0.2)">
      <use xlink:href="#BitstreamVeraSans-Roman-6c"/>
      <use x="27.783203125" xlink:href="#BitstreamVeraSans-Roman-6f"/>
      <use x="88.96484375" xlink:href="#BitstreamVeraSans-Roman-67"/>
      <use x="152.44140625" xlink:href="#BitstreamVeraSans-Roman-31"/>
      <use x="216.064453125" xlink:href="#BitstreamVeraSans-Roman-30"/>
      <use x="279.6875" xlink:href="#BitstreamVeraSans-Roman-20"/>
      <use x="311.474609375" xlink:href="#BitstreamVeraSans-Roman-6f"/>
      <use x="372.65625" xlink:href="#BitstreamVeraSans-Roman-66"/>
      <use x="407.861328125" xlink:href="#BitstreamVeraSans-Roman-20"/>
      <use x="439.6484375" xlink:href="#BitstreamVeraSans-Roman-46"/>
      <use x="497.16796875" xlink:href="#BitstreamVeraSans-Roman-45"/>
      <use x="560.3515625" xlink:href="#BitstreamVeraSans-Roman-76"/>
      <use x="619.53125" xlink:href="#BitstreamVeraSans-Roman-61"/>
      <use x="680.810546875" xlink:href="#BitstreamVeraSans-Roman-6c"/>
      <use x="708.59375" xlink:href="#BitstreamVeraSans-Roman-73"/>
      <use x="760.693359375" xlink:href="#BitstreamVeraSans-Roman-20"/>
      <use x="792.48046875" xlink:href="#BitstreamVeraSans-Roman-2f"/>
      <use x="826.171875" xlink:href="#BitstreamVeraSans-Roman-20"/>
      <use x="857.958984375" xlink:href="#BitstreamVeraSans-Roman-44"/>
      <use x="934.9609375" xlink:href="#BitstreamVeraSans-Roman-49"/>
      <use x="964.453125" xlink:href="#BitstreamVeraSans-Roman-4d"/>
     </g>
    </g>
   </g>
   <g id="matplotlib.axis_2">
    <g id="ytick_1">
     <g id="line2d_114">
      <path clip-path="url(#p30f11bebe5)" d="M 55.425 384 
L 567.24 384 
" style="fill:none;stroke:#000000;stroke-dasharray:1.000000,3.000000;stroke-dashoffset:0.0;stroke-width:0.5;"/>
     </g>
     <g id="line2d_115">
      <defs>
       <path d="M 0 0 
L 4 0 
" id="m36a8eb7677" style="stroke:#000000;stroke-width:0.5;"/>
      </defs>
      <g>
       <use style="stroke:#000000;stroke-width:0.5;" x="55.425" xlink:href="#m36a8eb7677" y="384.0"/>
      </g>
     </g>
     <g id="line2d_116">
      <defs>
       <path d="M 0 0 
L -4 0 
" id="m89a4d83f0d" style="stroke:#000000;stroke-width:0.5;"/>
      </defs>
      <g>
       <use style="stroke:#000000;stroke-width:0.5;" x="567.24" xlink:href="#m89a4d83f0d" y="384.0"/>
      </g>
     </g>
     <g id="text_6">
      <!-- 0.0 -->
      <defs>
       <path d="M 10.6875 12.40625 
L 21 12.40625 
L 21 0 
L 10.6875 0 
z
" id="BitstreamVeraSans-Roman-2e"/>
      </defs>
      <g transform="translate(25.98 388.415)scale(0.16 -0.16)">
       <use xlink:href="#BitstreamVeraSans-Roman-30"/>
       <use x="63.623046875" xlink:href="#BitstreamVeraSans-Roman-2e"/>
       <use x="95.41015625" xlink:href="#BitstreamVeraSans-Roman-30"/>
      </g>
     </g>
    </g>
    <g id="ytick_2">
     <g id="line2d_117">
      <path clip-path="url(#p30f11bebe5)" d="M 55.425 309.480835 
L 567.24 309.480835 
" style="fill:none;stroke:#000000;stroke-dasharray:1.000000,3.000000;stroke-dashoffset:0.0;stroke-width:0.5;"/>
     </g>
     <g id="line2d_118">
      <g>
       <use style="stroke:#000000;stroke-width:0.5;" x="55.425" xlink:href="#m36a8eb7677" y="309.480835212"/>
      </g>
     </g>
     <g id="line2d_119">
      <g>
       <use style="stroke:#000000;stroke-width:0.5;" x="567.24" xlink:href="#m89a4d83f0d" y="309.480835212"/>
      </g>
     </g>
     <g id="text_7">
      <!-- 0.2 -->
      <g transform="translate(25.98 313.895835212)scale(0.16 -0.16)">
       <use xlink:href="#BitstreamVeraSans-Roman-30"/>
       <use x="63.623046875" xlink:href="#BitstreamVeraSans-Roman-2e"/>
       <use x="95.41015625" xlink:href="#BitstreamVeraSans-Roman-32"/>
      </g>
     </g>
    </g>
    <g id="ytick_3">
     <g id="line2d_120">
      <path clip-path="url(#p30f11bebe5)" d="M 55.425 234.96167 
L 567.24 234.96167 
" style="fill:none;stroke:#000000;stroke-dasharray:1.000000,3.000000;stroke-dashoffset:0.0;stroke-width:0.5;"/>
     </g>
     <g id="line2d_121">
      <g>
       <use style="stroke:#000000;stroke-width:0.5;" x="55.425" xlink:href="#m36a8eb7677" y="234.961670424"/>
      </g>
     </g>
     <g id="line2d_122">
      <g>
       <use style="stroke:#000000;stroke-width:0.5;" x="567.24" xlink:href="#m89a4d83f0d" y="234.961670424"/>
      </g>
     </g>
     <g id="text_8">
      <!-- 0.4 -->
      <g transform="translate(25.98 239.376670424)scale(0.16 -0.16)">
       <use xlink:href="#BitstreamVeraSans-Roman-30"/>
       <use x="63.623046875" xlink:href="#BitstreamVeraSans-Roman-2e"/>
       <use x="95.41015625" xlink:href="#BitstreamVeraSans-Roman-34"/>
      </g>
     </g>
    </g>
    <g id="ytick_4">
     <g id="line2d_123">
      <path clip-path="url(#p30f11bebe5)" d="M 55.425 160.442506 
L 567.24 160.442506 
" style="fill:none;stroke:#000000;stroke-dasharray:1.000000,3.000000;stroke-dashoffset:0.0;stroke-width:0.5;"/>
     </g>
     <g id="line2d_124">
      <g>
       <use style="stroke:#000000;stroke-width:0.5;" x="55.425" xlink:href="#m36a8eb7677" y="160.442505637"/>
      </g>
     </g>
     <g id="line2d_125">
      <g>
       <use style="stroke:#000000;stroke-width:0.5;" x="567.24" xlink:href="#m89a4d83f0d" y="160.442505637"/>
      </g>
     </g>
     <g id="text_9">
      <!-- 0.6 -->
      <defs>
       <path d="M 33.015625 40.375 
Q 26.375 40.375 22.484375 35.828125 
Q 18.609375 31.296875 18.609375 23.390625 
Q 18.609375 15.53125 22.484375 10.953125 
Q 26.375 6.390625 33.015625 6.390625 
Q 39.65625 6.390625 43.53125 10.953125 
Q 47.40625 15.53125 47.40625 23.390625 
Q 47.40625 31.296875 43.53125 35.828125 
Q 39.65625 40.375 33.015625 40.375 
M 52.59375 71.296875 
L 52.59375 62.3125 
Q 48.875 64.0625 45.09375 64.984375 
Q 41.3125 65.921875 37.59375 65.921875 
Q 27.828125 65.921875 22.671875 59.328125 
Q 17.53125 52.734375 16.796875 39.40625 
Q 19.671875 43.65625 24.015625 45.921875 
Q 28.375 48.1875 33.59375 48.1875 
Q 44.578125 48.1875 50.953125 41.515625 
Q 57.328125 34.859375 57.328125 23.390625 
Q 57.328125 12.15625 50.6875 5.359375 
Q 44.046875 -1.421875 33.015625 -1.421875 
Q 20.359375 -1.421875 13.671875 8.265625 
Q 6.984375 17.96875 6.984375 36.375 
Q 6.984375 53.65625 15.1875 63.9375 
Q 23.390625 74.21875 37.203125 74.21875 
Q 40.921875 74.21875 44.703125 73.484375 
Q 48.484375 72.75 52.59375 71.296875 
" id="BitstreamVeraSans-Roman-36"/>
      </defs>
      <g transform="translate(25.98 164.857505637)scale(0.16 -0.16)">
       <use xlink:href="#BitstreamVeraSans-Roman-30"/>
       <use x="63.623046875" xlink:href="#BitstreamVeraSans-Roman-2e"/>
       <use x="95.41015625" xlink:href="#BitstreamVeraSans-Roman-36"/>
      </g>
     </g>
    </g>
    <g id="ytick_5">
     <g id="line2d_126">
      <path clip-path="url(#p30f11bebe5)" d="M 55.425 85.923341 
L 567.24 85.923341 
" style="fill:none;stroke:#000000;stroke-dasharray:1.000000,3.000000;stroke-dashoffset:0.0;stroke-width:0.5;"/>
     </g>
     <g id="line2d_127">
      <g>
       <use style="stroke:#000000;stroke-width:0.5;" x="55.425" xlink:href="#m36a8eb7677" y="85.9233408489"/>
      </g>
     </g>
     <g id="line2d_128">
      <g>
       <use style="stroke:#000000;stroke-width:0.5;" x="567.24" xlink:href="#m89a4d83f0d" y="85.9233408489"/>
      </g>
     </g>
     <g id="text_10">
      <!-- 0.8 -->
      <defs>
       <path d="M 31.78125 34.625 
Q 24.75 34.625 20.71875 30.859375 
Q 16.703125 27.09375 16.703125 20.515625 
Q 16.703125 13.921875 20.71875 10.15625 
Q 24.75 6.390625 31.78125 6.390625 
Q 38.8125 6.390625 42.859375 10.171875 
Q 46.921875 13.96875 46.921875 20.515625 
Q 46.921875 27.09375 42.890625 30.859375 
Q 38.875 34.625 31.78125 34.625 
M 21.921875 38.8125 
Q 15.578125 40.375 12.03125 44.71875 
Q 8.5 49.078125 8.5 55.328125 
Q 8.5 64.0625 14.71875 69.140625 
Q 20.953125 74.21875 31.78125 74.21875 
Q 42.671875 74.21875 48.875 69.140625 
Q 55.078125 64.0625 55.078125 55.328125 
Q 55.078125 49.078125 51.53125 44.71875 
Q 48 40.375 41.703125 38.8125 
Q 48.828125 37.15625 52.796875 32.3125 
Q 56.78125 27.484375 56.78125 20.515625 
Q 56.78125 9.90625 50.3125 4.234375 
Q 43.84375 -1.421875 31.78125 -1.421875 
Q 19.734375 -1.421875 13.25 4.234375 
Q 6.78125 9.90625 6.78125 20.515625 
Q 6.78125 27.484375 10.78125 32.3125 
Q 14.796875 37.15625 21.921875 38.8125 
M 18.3125 54.390625 
Q 18.3125 48.734375 21.84375 45.5625 
Q 25.390625 42.390625 31.78125 42.390625 
Q 38.140625 42.390625 41.71875 45.5625 
Q 45.3125 48.734375 45.3125 54.390625 
Q 45.3125 60.0625 41.71875 63.234375 
Q 38.140625 66.40625 31.78125 66.40625 
Q 25.390625 66.40625 21.84375 63.234375 
Q 18.3125 60.0625 18.3125 54.390625 
" id="BitstreamVeraSans-Roman-38"/>
      </defs>
      <g transform="translate(25.98 90.3383408489)scale(0.16 -0.16)">
       <use xlink:href="#BitstreamVeraSans-Roman-30"/>
       <use x="63.623046875" xlink:href="#BitstreamVeraSans-Roman-2e"/>
       <use x="95.41015625" xlink:href="#BitstreamVeraSans-Roman-38"/>
      </g>
     </g>
    </g>
    <g id="ytick_6">
     <g id="line2d_129">
      <path clip-path="url(#p30f11bebe5)" d="M 55.425 11.404176 
L 567.24 11.404176 
" style="fill:none;stroke:#000000;stroke-dasharray:1.000000,3.000000;stroke-dashoffset:0.0;stroke-width:0.5;"/>
     </g>
     <g id="line2d_130">
      <g>
       <use style="stroke:#000000;stroke-width:0.5;" x="55.425" xlink:href="#m36a8eb7677" y="11.4041760612"/>
      </g>
     </g>
     <g id="line2d_131">
      <g>
       <use style="stroke:#000000;stroke-width:0.5;" x="567.24" xlink:href="#m89a4d83f0d" y="11.4041760612"/>
      </g>
     </g>
     <g id="text_11">
      <!-- 1.0 -->
      <g transform="translate(25.98 15.8191760612)scale(0.16 -0.16)">
       <use xlink:href="#BitstreamVeraSans-Roman-31"/>
       <use x="63.623046875" xlink:href="#BitstreamVeraSans-Roman-2e"/>
       <use x="95.41015625" xlink:href="#BitstreamVeraSans-Roman-30"/>
      </g>
     </g>
    </g>
    <g id="text_12">
     <!-- proportion of trials -->
     <defs>
      <path d="M 54.890625 33.015625 
L 54.890625 0 
L 45.90625 0 
L 45.90625 32.71875 
Q 45.90625 40.484375 42.875 44.328125 
Q 39.84375 48.1875 33.796875 48.1875 
Q 26.515625 48.1875 22.3125 43.546875 
Q 18.109375 38.921875 18.109375 30.90625 
L 18.109375 0 
L 9.078125 0 
L 9.078125 54.6875 
L 18.109375 54.6875 
L 18.109375 46.1875 
Q 21.34375 51.125 25.703125 53.5625 
Q 30.078125 56 35.796875 56 
Q 45.21875 56 50.046875 50.171875 
Q 54.890625 44.34375 54.890625 33.015625 
" id="BitstreamVeraSans-Roman-6e"/>
      <path d="M 9.421875 54.6875 
L 18.40625 54.6875 
L 18.40625 0 
L 9.421875 0 
z
M 9.421875 75.984375 
L 18.40625 75.984375 
L 18.40625 64.59375 
L 9.421875 64.59375 
z
" id="BitstreamVeraSans-Roman-69"/>
      <path d="M 18.3125 70.21875 
L 18.3125 54.6875 
L 36.8125 54.6875 
L 36.8125 47.703125 
L 18.3125 47.703125 
L 18.3125 18.015625 
Q 18.3125 11.328125 20.140625 9.421875 
Q 21.96875 7.515625 27.59375 7.515625 
L 36.8125 7.515625 
L 36.8125 0 
L 27.59375 0 
Q 17.1875 0 13.234375 3.875 
Q 9.28125 7.765625 9.28125 18.015625 
L 9.28125 47.703125 
L 2.6875 47.703125 
L 2.6875 54.6875 
L 9.28125 54.6875 
L 9.28125 70.21875 
z
" id="BitstreamVeraSans-Roman-74"/>
      <path d="M 41.109375 46.296875 
Q 39.59375 47.171875 37.8125 47.578125 
Q 36.03125 48 33.890625 48 
Q 26.265625 48 22.1875 43.046875 
Q 18.109375 38.09375 18.109375 28.8125 
L 18.109375 0 
L 9.078125 0 
L 9.078125 54.6875 
L 18.109375 54.6875 
L 18.109375 46.1875 
Q 20.953125 51.171875 25.484375 53.578125 
Q 30.03125 56 36.53125 56 
Q 37.453125 56 38.578125 55.875 
Q 39.703125 55.765625 41.0625 55.515625 
z
" id="BitstreamVeraSans-Roman-72"/>
      <path d="M 18.109375 8.203125 
L 18.109375 -20.796875 
L 9.078125 -20.796875 
L 9.078125 54.6875 
L 18.109375 54.6875 
L 18.109375 46.390625 
Q 20.953125 51.265625 25.265625 53.625 
Q 29.59375 56 35.59375 56 
Q 45.5625 56 51.78125 48.09375 
Q 58.015625 40.1875 58.015625 27.296875 
Q 58.015625 14.40625 51.78125 6.484375 
Q 45.5625 -1.421875 35.59375 -1.421875 
Q 29.59375 -1.421875 25.265625 0.953125 
Q 20.953125 3.328125 18.109375 8.203125 
M 48.6875 27.296875 
Q 48.6875 37.203125 44.609375 42.84375 
Q 40.53125 48.484375 33.40625 48.484375 
Q 26.265625 48.484375 22.1875 42.84375 
Q 18.109375 37.203125 18.109375 27.296875 
Q 18.109375 17.390625 22.1875 11.75 
Q 26.265625 6.109375 33.40625 6.109375 
Q 40.53125 6.109375 44.609375 11.75 
Q 48.6875 17.390625 48.6875 27.296875 
" id="BitstreamVeraSans-Roman-70"/>
     </defs>
     <g transform="translate(16.820625 289.067233911)rotate(-90.0)scale(0.2 -0.2)">
      <use xlink:href="#BitstreamVeraSans-Roman-70"/>
      <use x="63.4765625" xlink:href="#BitstreamVeraSans-Roman-72"/>
      <use x="104.55859375" xlink:href="#BitstreamVeraSans-Roman-6f"/>
      <use x="165.740234375" xlink:href="#BitstreamVeraSans-Roman-70"/>
      <use x="229.216796875" xlink:href="#BitstreamVeraSans-Roman-6f"/>
      <use x="290.3984375" xlink:href="#BitstreamVeraSans-Roman-72"/>
      <use x="331.51171875" xlink:href="#BitstreamVeraSans-Roman-74"/>
      <use x="370.720703125" xlink:href="#BitstreamVeraSans-Roman-69"/>
      <use x="398.50390625" xlink:href="#BitstreamVeraSans-Roman-6f"/>
      <use x="459.685546875" xlink:href="#BitstreamVeraSans-Roman-6e"/>
      <use x="523.064453125" xlink:href="#BitstreamVeraSans-Roman-20"/>
      <use x="554.8515625" xlink:href="#BitstreamVeraSans-Roman-6f"/>
      <use x="616.033203125" xlink:href="#BitstreamVeraSans-Roman-66"/>
      <use x="651.23828125" xlink:href="#BitstreamVeraSans-Roman-20"/>
      <use x="683.025390625" xlink:href="#BitstreamVeraSans-Roman-74"/>
      <use x="722.234375" xlink:href="#BitstreamVeraSans-Roman-72"/>
      <use x="763.34765625" xlink:href="#BitstreamVeraSans-Roman-69"/>
      <use x="791.130859375" xlink:href="#BitstreamVeraSans-Roman-61"/>
      <use x="852.41015625" xlink:href="#BitstreamVeraSans-Roman-6c"/>
      <use x="880.193359375" xlink:href="#BitstreamVeraSans-Roman-73"/>
     </g>
    </g>
   </g>
   <g id="text_13">
    <!-- {f6-f9}, 20-D -->
    <defs>
     <path d="M 11.71875 12.40625 
L 22.015625 12.40625 
L 22.015625 4 
L 14.015625 -11.625 
L 7.71875 -11.625 
L 11.71875 4 
z
" id="BitstreamVeraSans-Roman-2c"/>
     <path d="M 12.5 -9.28125 
L 15.921875 -9.28125 
Q 22.75 -9.28125 24.828125 -7.171875 
Q 26.90625 -5.078125 26.90625 1.90625 
L 26.90625 14.015625 
Q 26.90625 21.625 29.09375 25.09375 
Q 31.296875 28.5625 36.71875 29.890625 
Q 31.296875 31.109375 29.09375 34.5625 
Q 26.90625 38.03125 26.90625 45.703125 
L 26.90625 57.8125 
Q 26.90625 64.75 24.828125 66.875 
Q 22.75 69 15.921875 69 
L 12.5 69 
L 12.5 75.984375 
L 15.578125 75.984375 
Q 27.734375 75.984375 31.8125 72.390625 
Q 35.890625 68.796875 35.890625 58.015625 
L 35.890625 46.296875 
Q 35.890625 39.015625 38.515625 36.203125 
Q 41.15625 33.40625 48.09375 33.40625 
L 51.125 33.40625 
L 51.125 26.421875 
L 48.09375 26.421875 
Q 41.15625 26.421875 38.515625 23.578125 
Q 35.890625 20.75 35.890625 13.375 
L 35.890625 1.703125 
Q 35.890625 -9.078125 31.8125 -12.6875 
Q 27.734375 -16.3125 15.578125 -16.3125 
L 12.5 -16.3125 
z
" id="BitstreamVeraSans-Roman-7d"/>
     <path d="M 10.984375 1.515625 
L 10.984375 10.5 
Q 14.703125 8.734375 18.5 7.8125 
Q 22.3125 6.890625 25.984375 6.890625 
Q 35.75 6.890625 40.890625 13.453125 
Q 46.046875 20.015625 46.78125 33.40625 
Q 43.953125 29.203125 39.59375 26.953125 
Q 35.25 24.703125 29.984375 24.703125 
Q 19.046875 24.703125 12.671875 31.3125 
Q 6.296875 37.9375 6.296875 49.421875 
Q 6.296875 60.640625 12.9375 67.421875 
Q 19.578125 74.21875 30.609375 74.21875 
Q 43.265625 74.21875 49.921875 64.515625 
Q 56.59375 54.828125 56.59375 36.375 
Q 56.59375 19.140625 48.40625 8.859375 
Q 40.234375 -1.421875 26.421875 -1.421875 
Q 22.703125 -1.421875 18.890625 -0.6875 
Q 15.09375 0.046875 10.984375 1.515625 
M 30.609375 32.421875 
Q 37.25 32.421875 41.125 36.953125 
Q 45.015625 41.5 45.015625 49.421875 
Q 45.015625 57.28125 41.125 61.84375 
Q 37.25 66.40625 30.609375 66.40625 
Q 23.96875 66.40625 20.09375 61.84375 
Q 16.21875 57.28125 16.21875 49.421875 
Q 16.21875 41.5 20.09375 36.953125 
Q 23.96875 32.421875 30.609375 32.421875 
" id="BitstreamVeraSans-Roman-39"/>
     <path d="M 51.125 -9.28125 
L 51.125 -16.3125 
L 48.09375 -16.3125 
Q 35.9375 -16.3125 31.8125 -12.6875 
Q 27.6875 -9.078125 27.6875 1.703125 
L 27.6875 13.375 
Q 27.6875 20.75 25.046875 23.578125 
Q 22.40625 26.421875 15.484375 26.421875 
L 12.5 26.421875 
L 12.5 33.40625 
L 15.484375 33.40625 
Q 22.46875 33.40625 25.078125 36.203125 
Q 27.6875 39.015625 27.6875 46.296875 
L 27.6875 58.015625 
Q 27.6875 68.796875 31.8125 72.390625 
Q 35.9375 75.984375 48.09375 75.984375 
L 51.125 75.984375 
L 51.125 69 
L 47.796875 69 
Q 40.921875 69 38.8125 66.84375 
Q 36.71875 64.703125 36.71875 57.8125 
L 36.71875 45.703125 
Q 36.71875 38.03125 34.5 34.5625 
Q 32.28125 31.109375 26.90625 29.890625 
Q 32.328125 28.5625 34.515625 25.09375 
Q 36.71875 21.625 36.71875 14.015625 
L 36.71875 1.90625 
Q 36.71875 -4.984375 38.8125 -7.125 
Q 40.921875 -9.28125 47.796875 -9.28125 
z
" id="BitstreamVeraSans-Roman-7b"/>
     <path d="M 4.890625 31.390625 
L 31.203125 31.390625 
L 31.203125 23.390625 
L 4.890625 23.390625 
z
" id="BitstreamVeraSans-Roman-2d"/>
    </defs>
    <g transform="translate(244.845 30.4015284653)scale(0.2 -0.2)">
     <use xlink:href="#BitstreamVeraSans-Roman-7b"/>
     <use x="63.623046875" xlink:href="#BitstreamVeraSans-Roman-66"/>
     <use x="98.828125" xlink:href="#BitstreamVeraSans-Roman-36"/>
     <use x="162.451171875" xlink:href="#BitstreamVeraSans-Roman-2d"/>
     <use x="198.53515625" xlink:href="#BitstreamVeraSans-Roman-66"/>
     <use x="233.740234375" xlink:href="#BitstreamVeraSans-Roman-39"/>
     <use x="297.36328125" xlink:href="#BitstreamVeraSans-Roman-7d"/>
     <use x="360.986328125" xlink:href="#BitstreamVeraSans-Roman-2c"/>
     <use x="392.7734375" xlink:href="#BitstreamVeraSans-Roman-20"/>
     <use x="424.560546875" xlink:href="#BitstreamVeraSans-Roman-32"/>
     <use x="488.18359375" xlink:href="#BitstreamVeraSans-Roman-30"/>
     <use x="551.806640625" xlink:href="#BitstreamVeraSans-Roman-2d"/>
     <use x="587.890625" xlink:href="#BitstreamVeraSans-Roman-44"/>
    </g>
   </g>
   <g id="text_14">
    <!-- absolute targets -->
    <defs>
     <path d="M 56.203125 29.59375 
L 56.203125 25.203125 
L 14.890625 25.203125 
Q 15.484375 15.921875 20.484375 11.0625 
Q 25.484375 6.203125 34.421875 6.203125 
Q 39.59375 6.203125 44.453125 7.46875 
Q 49.3125 8.734375 54.109375 11.28125 
L 54.109375 2.78125 
Q 49.265625 0.734375 44.1875 -0.34375 
Q 39.109375 -1.421875 33.890625 -1.421875 
Q 20.796875 -1.421875 13.15625 6.1875 
Q 5.515625 13.8125 5.515625 26.8125 
Q 5.515625 40.234375 12.765625 48.109375 
Q 20.015625 56 32.328125 56 
Q 43.359375 56 49.78125 48.890625 
Q 56.203125 41.796875 56.203125 29.59375 
M 47.21875 32.234375 
Q 47.125 39.59375 43.09375 43.984375 
Q 39.0625 48.390625 32.421875 48.390625 
Q 24.90625 48.390625 20.390625 44.140625 
Q 15.875 39.890625 15.1875 32.171875 
z
" id="BitstreamVeraSans-Roman-65"/>
     <path d="M 8.5 21.578125 
L 8.5 54.6875 
L 17.484375 54.6875 
L 17.484375 21.921875 
Q 17.484375 14.15625 20.5 10.265625 
Q 23.53125 6.390625 29.59375 6.390625 
Q 36.859375 6.390625 41.078125 11.03125 
Q 45.3125 15.671875 45.3125 23.6875 
L 45.3125 54.6875 
L 54.296875 54.6875 
L 54.296875 0 
L 45.3125 0 
L 45.3125 8.40625 
Q 42.046875 3.421875 37.71875 1 
Q 33.40625 -1.421875 27.6875 -1.421875 
Q 18.265625 -1.421875 13.375 4.4375 
Q 8.5 10.296875 8.5 21.578125 
" id="BitstreamVeraSans-Roman-75"/>
     <path d="M 48.6875 27.296875 
Q 48.6875 37.203125 44.609375 42.84375 
Q 40.53125 48.484375 33.40625 48.484375 
Q 26.265625 48.484375 22.1875 42.84375 
Q 18.109375 37.203125 18.109375 27.296875 
Q 18.109375 17.390625 22.1875 11.75 
Q 26.265625 6.109375 33.40625 6.109375 
Q 40.53125 6.109375 44.609375 11.75 
Q 48.6875 17.390625 48.6875 27.296875 
M 18.109375 46.390625 
Q 20.953125 51.265625 25.265625 53.625 
Q 29.59375 56 35.59375 56 
Q 45.5625 56 51.78125 48.09375 
Q 58.015625 40.1875 58.015625 27.296875 
Q 58.015625 14.40625 51.78125 6.484375 
Q 45.5625 -1.421875 35.59375 -1.421875 
Q 29.59375 -1.421875 25.265625 0.953125 
Q 20.953125 3.328125 18.109375 8.203125 
L 18.109375 0 
L 9.078125 0 
L 9.078125 75.984375 
L 18.109375 75.984375 
z
" id="BitstreamVeraSans-Roman-62"/>
    </defs>
    <g transform="translate(55.425 384.0)scale(0.14 -0.14)">
     <use xlink:href="#BitstreamVeraSans-Roman-61"/>
     <use x="61.279296875" xlink:href="#BitstreamVeraSans-Roman-62"/>
     <use x="124.755859375" xlink:href="#BitstreamVeraSans-Roman-73"/>
     <use x="176.85546875" xlink:href="#BitstreamVeraSans-Roman-6f"/>
     <use x="238.037109375" xlink:href="#BitstreamVeraSans-Roman-6c"/>
     <use x="265.8203125" xlink:href="#BitstreamVeraSans-Roman-75"/>
     <use x="329.19921875" xlink:href="#BitstreamVeraSans-Roman-74"/>
     <use x="368.408203125" xlink:href="#BitstreamVeraSans-Roman-65"/>
     <use x="429.931640625" xlink:href="#BitstreamVeraSans-Roman-20"/>
     <use x="461.71875" xlink:href="#BitstreamVeraSans-Roman-74"/>
     <use x="500.927734375" xlink:href="#BitstreamVeraSans-Roman-61"/>
     <use x="562.20703125" xlink:href="#BitstreamVeraSans-Roman-72"/>
     <use x="603.3046875" xlink:href="#BitstreamVeraSans-Roman-67"/>
     <use x="666.78125" xlink:href="#BitstreamVeraSans-Roman-65"/>
     <use x="728.3046875" xlink:href="#BitstreamVeraSans-Roman-74"/>
     <use x="767.513671875" xlink:href="#BitstreamVeraSans-Roman-73"/>
    </g>
   </g>
   <g id="text_15">
    <!-- v2.2.1.10 -->
    <g style="fill:#808080;" transform="translate(287.6996875 378.157094678)scale(0.1 -0.1)">
     <use xlink:href="#BitstreamVeraSans-Roman-76"/>
     <use x="59.1796875" xlink:href="#BitstreamVeraSans-Roman-32"/>
     <use x="122.802734375" xlink:href="#BitstreamVeraSans-Roman-2e"/>
     <use x="154.58984375" xlink:href="#BitstreamVeraSans-Roman-32"/>
     <use x="218.212890625" xlink:href="#BitstreamVeraSans-Roman-2e"/>
     <use x="250.0" xlink:href="#BitstreamVeraSans-Roman-31"/>
     <use x="313.623046875" xlink:href="#BitstreamVeraSans-Roman-2e"/>
     <use x="345.41015625" xlink:href="#BitstreamVeraSans-Roman-31"/>
     <use x="409.033203125" xlink:href="#BitstreamVeraSans-Roman-30"/>
    </g>
   </g>
   <g id="legend_1">
    <g id="patch_7">
     <path d="M 65.425 141.103218 
L 202.646875 141.103218 
L 202.646875 17.678218 
L 65.425 17.678218 
z
" style="fill:#ffffff;opacity:0.2;stroke:#000000;stroke-linejoin:miter;"/>
    </g>
    <g id="line2d_132">
     <path d="M 79.425 33.875093 
L 107.425 33.875093 
" style="fill:none;stroke:#000000;stroke-linecap:square;"/>
    </g>
    <g id="line2d_133"/>
    <g id="text_16">
     <!-- 1: 0/4 -->
     <defs>
      <path d="M 11.71875 12.40625 
L 22.015625 12.40625 
L 22.015625 0 
L 11.71875 0 
z
M 11.71875 51.703125 
L 22.015625 51.703125 
L 22.015625 39.3125 
L 11.71875 39.3125 
z
" id="BitstreamVeraSans-Roman-3a"/>
     </defs>
     <g transform="translate(129.425 40.8750928218)scale(0.2 -0.2)">
      <use xlink:href="#BitstreamVeraSans-Roman-31"/>
      <use x="63.623046875" xlink:href="#BitstreamVeraSans-Roman-3a"/>
      <use x="97.314453125" xlink:href="#BitstreamVeraSans-Roman-20"/>
      <use x="129.1015625" xlink:href="#BitstreamVeraSans-Roman-30"/>
      <use x="192.724609375" xlink:href="#BitstreamVeraSans-Roman-2f"/>
      <use x="226.416015625" xlink:href="#BitstreamVeraSans-Roman-34"/>
     </g>
    </g>
    <g id="line2d_134">
     <path d="M 79.425 63.231343 
L 107.425 63.231343 
" style="fill:none;stroke:#00bfbf;stroke-linecap:square;"/>
    </g>
    <g id="line2d_135"/>
    <g id="text_17">
     <!-- -1: 0/4 -->
     <g transform="translate(129.425 70.2313428218)scale(0.2 -0.2)">
      <use xlink:href="#BitstreamVeraSans-Roman-2d"/>
      <use x="36.083984375" xlink:href="#BitstreamVeraSans-Roman-31"/>
      <use x="99.70703125" xlink:href="#BitstreamVeraSans-Roman-3a"/>
      <use x="133.3984375" xlink:href="#BitstreamVeraSans-Roman-20"/>
      <use x="165.185546875" xlink:href="#BitstreamVeraSans-Roman-30"/>
      <use x="228.80859375" xlink:href="#BitstreamVeraSans-Roman-2f"/>
      <use x="262.5" xlink:href="#BitstreamVeraSans-Roman-34"/>
     </g>
    </g>
    <g id="line2d_136">
     <path d="M 79.425 92.587593 
L 107.425 92.587593 
" style="fill:none;stroke:#bf00bf;stroke-linecap:square;"/>
    </g>
    <g id="line2d_137"/>
    <g id="text_18">
     <!-- -4: 0/4 -->
     <g transform="translate(129.425 99.5875928218)scale(0.2 -0.2)">
      <use xlink:href="#BitstreamVeraSans-Roman-2d"/>
      <use x="36.083984375" xlink:href="#BitstreamVeraSans-Roman-34"/>
      <use x="99.70703125" xlink:href="#BitstreamVeraSans-Roman-3a"/>
      <use x="133.3984375" xlink:href="#BitstreamVeraSans-Roman-20"/>
      <use x="165.185546875" xlink:href="#BitstreamVeraSans-Roman-30"/>
      <use x="228.80859375" xlink:href="#BitstreamVeraSans-Roman-2f"/>
      <use x="262.5" xlink:href="#BitstreamVeraSans-Roman-34"/>
     </g>
    </g>
    <g id="line2d_138">
     <path d="M 79.425 121.943843 
L 107.425 121.943843 
" style="fill:none;stroke:#ff0000;stroke-linecap:square;stroke-width:3.0;"/>
    </g>
    <g id="line2d_139"/>
    <g id="text_19">
     <!-- -8: 0/4 -->
     <g transform="translate(129.425 128.943842822)scale(0.2 -0.2)">
      <use xlink:href="#BitstreamVeraSans-Roman-2d"/>
      <use x="36.083984375" xlink:href="#BitstreamVeraSans-Roman-38"/>
      <use x="99.70703125" xlink:href="#BitstreamVeraSans-Roman-3a"/>
      <use x="133.3984375" xlink:href="#BitstreamVeraSans-Roman-20"/>
      <use x="165.185546875" xlink:href="#BitstreamVeraSans-Roman-30"/>
      <use x="228.80859375" xlink:href="#BitstreamVeraSans-Roman-2f"/>
      <use x="262.5" xlink:href="#BitstreamVeraSans-Roman-34"/>
     </g>
    </g>
   </g>
  </g>
 </g>
 <defs>
  <clipPath id="p30f11bebe5">
   <rect height="376.321782178" width="511.815" x="55.425" y="7.67821782178"/>
  </clipPath>
 </defs>
</svg>
