<?xml version="1.0" encoding="utf-8" standalone="no"?>
<!DOCTYPE svg PUBLIC "-//W3C//DTD SVG 1.1//EN"
  "http://www.w3.org/Graphics/SVG/1.1/DTD/svg11.dtd">
<!-- Created with matplotlib (http://matplotlib.org/) -->
<svg height="432pt" version="1.1" viewBox="0 0 576 432" width="576pt" xmlns="http://www.w3.org/2000/svg" xmlns:xlink="http://www.w3.org/1999/xlink">
 <defs>
  <style type="text/css">
*{stroke-linecap:butt;stroke-linejoin:round;stroke-miterlimit:100000;}
  </style>
 </defs>
 <g id="figure_1">
  <g id="patch_1">
   <path d="M 0 432 
L 576 432 
L 576 0 
L 0 0 
z
" style="fill:#ffffff;"/>
  </g>
  <g id="axes_1">
   <g id="patch_2">
    <path d="M 55.425 384 
L 567.24 384 
L 567.24 7.678218 
L 55.425 7.678218 
z
" style="fill:#ffffff;"/>
   </g>
   <g id="line2d_1">
    <path clip-path="url(#p664bc7450f)" d="M 281.873587 384 
L 281.873587 379.032056 
L 286.68132 379.032056 
L 286.68132 374.064111 
L 288.189389 374.064111 
L 288.189389 369.096167 
L 289.98702 369.096167 
L 289.98702 364.128223 
L 290.20739 364.128223 
L 290.20739 359.160278 
L 290.64533 359.160278 
L 290.64533 354.192334 
L 296.610688 354.192334 
L 296.610688 349.22439 
L 299.261355 349.22439 
L 299.261355 344.256445 
L 302.826678 344.256445 
L 302.826678 339.288501 
L 308.064238 339.288501 
L 308.064238 334.320557 
L 309.522178 334.320557 
L 309.522178 329.352612 
L 318.335087 329.352612 
L 318.335087 324.384668 
L 328.443428 324.384668 
L 328.443428 319.416724 
L 335.540252 319.416724 
L 335.540252 314.44878 
L 336.581516 314.44878 
L 336.581516 309.480835 
L 337.558253 309.480835 
L 337.558253 304.512891 
L 338.560023 304.512891 
L 338.560023 299.544947 
L 338.946794 299.544947 
L 338.946794 294.577002 
L 342.703 294.577002 
L 342.703 289.609058 
L 343.922682 289.609058 
L 343.922682 284.641114 
L 361.62611 284.641114 
L 361.62611 279.673169 
L 362.961358 279.673169 
L 362.961358 274.705225 
L 364.602866 274.705225 
L 364.602866 269.737281 
L 368.079509 269.737281 
L 368.079509 264.769336 
L 380.533261 264.769336 
L 380.533261 259.801392 
L 386.065942 259.801392 
L 386.065942 254.833448 
L 390.292188 254.833448 
L 390.292188 249.865503 
L 405.800597 249.865503 
L 405.800597 244.897559 
L 405.800597 244.897559 
L 405.800597 244.897559 
L 567.24 244.897559 
" style="fill:none;stroke:#f5deb3;stroke-linecap:square;"/>
   </g>
   <g id="line2d_2">
    <path clip-path="url(#p664bc7450f)" d="M 382.817892 384 
L 382.817892 369.096167 
L 407.064886 369.096167 
L 407.064886 354.192334 
L 425.167913 354.192334 
L 425.167913 339.288501 
L 483.17417 339.288501 
L 483.17417 324.384668 
L 525.289518 324.384668 
L 525.289518 309.480835 
L 525.289518 309.480835 
L 525.289518 309.480835 
L 567.24 309.480835 
" style="fill:none;stroke:#f5deb3;stroke-linecap:square;"/>
   </g>
   <g id="line2d_3">
    <path clip-path="url(#p664bc7450f)" d="M 230.841923 384 
L 230.841923 379.032056 
L 237.044038 379.032056 
L 237.044038 374.064111 
L 285.850678 374.064111 
L 285.850678 369.096167 
L 287.845259 369.096167 
L 287.845259 364.128223 
L 290.862917 364.128223 
L 290.862917 359.160278 
L 299.629163 359.160278 
L 299.629163 354.192334 
L 304.936223 354.192334 
L 304.936223 349.22439 
L 309.522178 349.22439 
L 309.522178 344.256445 
L 313.384248 344.256445 
L 313.384248 339.288501 
L 314.012331 339.288501 
L 314.012331 334.320557 
L 319.844002 334.320557 
L 319.844002 329.352612 
L 322.73576 329.352612 
L 322.73576 324.384668 
L 331.251246 324.384668 
L 331.251246 319.416724 
L 333.725215 319.416724 
L 333.725215 314.44878 
L 342.782564 314.44878 
L 342.782564 309.480835 
L 353.60948 309.480835 
L 353.60948 304.512891 
L 365.276018 304.512891 
L 365.276018 299.544947 
L 379.703328 299.544947 
L 379.703328 294.577002 
L 380.57154 294.577002 
L 380.57154 289.609058 
L 383.310141 289.609058 
L 383.310141 284.641114 
L 388.452736 284.641114 
L 388.452736 279.673169 
L 394.095793 279.673169 
L 394.095793 274.705225 
L 395.289505 274.705225 
L 395.289505 269.737281 
L 412.837377 269.737281 
L 412.837377 264.769336 
L 417.357741 264.769336 
L 417.357741 259.801392 
L 457.060228 259.801392 
L 457.060228 254.833448 
L 460.214876 254.833448 
L 460.214876 249.865503 
L 460.975349 249.865503 
L 460.975349 244.897559 
L 474.990097 244.897559 
L 474.990097 239.929615 
L 496.893704 239.929615 
L 496.893704 234.96167 
L 496.893704 234.96167 
L 496.893704 234.96167 
L 567.24 234.96167 
" style="fill:none;stroke:#f5deb3;stroke-linecap:square;"/>
   </g>
   <g id="line2d_4">
    <path clip-path="url(#p664bc7450f)" d="M 270.824482 384 
L 270.824482 379.032056 
L 297.668294 379.032056 
L 297.668294 374.064111 
L 297.763376 374.064111 
L 297.763376 369.096167 
L 301.429926 369.096167 
L 301.429926 364.128223 
L 342.303333 364.128223 
L 342.303333 359.160278 
L 343.805898 359.160278 
L 343.805898 354.192334 
L 349.379027 354.192334 
L 349.379027 349.22439 
L 349.727724 349.22439 
L 349.727724 344.256445 
L 354.914597 344.256445 
L 354.914597 339.288501 
L 369.568438 339.288501 
L 369.568438 334.320557 
L 371.496809 334.320557 
L 371.496809 329.352612 
L 375.573472 329.352612 
L 375.573472 324.384668 
L 375.720789 324.384668 
L 375.720789 319.416724 
L 380.914781 319.416724 
L 380.914781 314.44878 
L 381.893749 314.44878 
L 381.893749 309.480835 
L 383.815717 309.480835 
L 383.815717 304.512891 
L 390.165218 304.512891 
L 390.165218 299.544947 
L 409.972152 299.544947 
L 409.972152 294.577002 
L 423.826861 294.577002 
L 423.826861 289.609058 
L 424.428095 289.609058 
L 424.428095 284.641114 
L 431.453275 284.641114 
L 431.453275 279.673169 
L 433.800714 279.673169 
L 433.800714 274.705225 
L 447.011957 274.705225 
L 447.011957 269.737281 
L 451.371595 269.737281 
L 451.371595 264.769336 
L 456.416096 264.769336 
L 456.416096 259.801392 
L 461.401501 259.801392 
L 461.401501 254.833448 
L 477.875237 254.833448 
L 477.875237 249.865503 
L 484.253108 249.865503 
L 484.253108 244.897559 
L 505.007705 244.897559 
L 505.007705 239.929615 
L 506.195805 239.929615 
L 506.195805 234.96167 
L 508.480193 234.96167 
L 508.480193 229.993726 
L 512.667285 229.993726 
L 512.667285 225.025782 
L 520.75763 225.025782 
L 520.75763 220.057837 
L 520.75763 220.057837 
L 520.75763 220.057837 
L 567.24 220.057837 
" style="fill:none;stroke:#f5deb3;stroke-linecap:square;"/>
   </g>
   <g id="line2d_5">
    <path clip-path="url(#p664bc7450f)" d="M 283.651339 384 
L 283.651339 379.032056 
L 295.827693 379.032056 
L 295.827693 374.064111 
L 342.34344 374.064111 
L 342.34344 369.096167 
L 359.484349 369.096167 
L 359.484349 364.128223 
L 391.684079 364.128223 
L 391.684079 359.160278 
L 412.146213 359.160278 
L 412.146213 354.192334 
L 419.029793 354.192334 
L 419.029793 349.22439 
L 420.322451 349.22439 
L 420.322451 344.256445 
L 420.860433 344.256445 
L 420.860433 339.288501 
L 432.071399 339.288501 
L 432.071399 334.320557 
L 435.592916 334.320557 
L 435.592916 329.352612 
L 435.606108 329.352612 
L 435.606108 324.384668 
L 439.517201 324.384668 
L 439.517201 319.416724 
L 443.669063 319.416724 
L 443.669063 314.44878 
L 446.990796 314.44878 
L 446.990796 309.480835 
L 450.627328 309.480835 
L 450.627328 304.512891 
L 450.779992 304.512891 
L 450.779992 299.544947 
L 452.833448 299.544947 
L 452.833448 294.577002 
L 457.463632 294.577002 
L 457.463632 289.609058 
L 463.269134 289.609058 
L 463.269134 284.641114 
L 470.079247 284.641114 
L 470.079247 279.673169 
L 474.638007 279.673169 
L 474.638007 274.705225 
L 475.165246 274.705225 
L 475.165246 269.737281 
L 491.220419 269.737281 
L 491.220419 264.769336 
L 491.806162 264.769336 
L 491.806162 259.801392 
L 493.339317 259.801392 
L 493.339317 254.833448 
L 497.002379 254.833448 
L 497.002379 249.865503 
L 500.230603 249.865503 
L 500.230603 244.897559 
L 501.653739 244.897559 
L 501.653739 239.929615 
L 508.150712 239.929615 
L 508.150712 234.96167 
L 577 234.96167 
" style="fill:none;stroke:#f5deb3;stroke-linecap:square;"/>
   </g>
   <g id="line2d_6"/>
   <g id="line2d_7">
    <path clip-path="url(#p664bc7450f)" d="M 302.133021 384 
L 302.133021 379.032056 
L 311.16048 379.032056 
L 311.16048 374.064111 
L 313.803817 374.064111 
L 313.803817 369.096167 
L 319.283309 369.096167 
L 319.283309 364.128223 
L 330.701755 364.128223 
L 330.701755 359.160278 
L 405.210135 359.160278 
L 405.210135 354.192334 
L 424.329741 354.192334 
L 424.329741 349.22439 
L 429.046553 349.22439 
L 429.046553 344.256445 
L 430.179745 344.256445 
L 430.179745 339.288501 
L 435.869262 339.288501 
L 435.869262 334.320557 
L 450.171587 334.320557 
L 450.171587 329.352612 
L 453.397456 329.352612 
L 453.397456 324.384668 
L 455.067039 324.384668 
L 455.067039 319.416724 
L 455.364888 319.416724 
L 455.364888 314.44878 
L 457.342508 314.44878 
L 457.342508 309.480835 
L 459.766387 309.480835 
L 459.766387 304.512891 
L 466.138294 304.512891 
L 466.138294 299.544947 
L 467.770741 299.544947 
L 467.770741 294.577002 
L 469.466352 294.577002 
L 469.466352 289.609058 
L 477.857769 289.609058 
L 477.857769 284.641114 
L 479.971623 284.641114 
L 479.971623 279.673169 
L 482.058802 279.673169 
L 482.058802 274.705225 
L 487.852896 274.705225 
L 487.852896 269.737281 
L 492.641898 269.737281 
L 492.641898 264.769336 
L 497.609947 264.769336 
L 497.609947 259.801392 
L 513.222525 259.801392 
L 513.222525 254.833448 
L 513.407263 254.833448 
L 513.407263 249.865503 
L 520.374088 249.865503 
L 520.374088 244.897559 
L 541.867901 244.897559 
L 541.867901 239.929615 
L 544.877691 239.929615 
L 544.877691 234.96167 
L 547.21681 234.96167 
L 547.21681 229.993726 
L 557.094442 229.993726 
L 557.094442 225.025782 
L 560.430128 225.025782 
L 560.430128 220.057837 
L 561.36601 220.057837 
L 561.36601 215.089893 
L 573.961407 215.089893 
L 573.961407 210.121949 
L 577 210.121949 
" style="fill:none;stroke:#f5deb3;stroke-linecap:square;"/>
   </g>
   <g id="line2d_8">
    <path clip-path="url(#p664bc7450f)" d="M 474.885338 384 
L 474.885338 379.032056 
L 483.907184 379.032056 
L 483.907184 374.064111 
L 487.634054 374.064111 
L 487.634054 369.096167 
L 490.868477 369.096167 
L 490.868477 364.128223 
L 491.69489 364.128223 
L 491.69489 359.160278 
L 492.947226 359.160278 
L 492.947226 354.192334 
L 498.451454 354.192334 
L 498.451454 349.22439 
L 530.647839 349.22439 
L 530.647839 344.256445 
L 530.893622 344.256445 
L 530.893622 339.288501 
L 530.919701 339.288501 
L 530.919701 334.320557 
L 532.176601 334.320557 
L 532.176601 329.352612 
L 533.301179 329.352612 
L 533.301179 324.384668 
L 534.226998 324.384668 
L 534.226998 319.416724 
L 570.562903 319.416724 
L 570.562903 314.44878 
L 571.111061 314.44878 
L 571.111061 309.480835 
L 571.177618 309.480835 
L 571.177618 304.512891 
L 572.386006 304.512891 
L 572.386006 299.544947 
L 572.78183 299.544947 
L 572.78183 294.577002 
L 577 294.577002 
" style="fill:none;stroke:#f5deb3;stroke-linecap:square;"/>
   </g>
   <g id="line2d_9">
    <path clip-path="url(#p664bc7450f)" d="M 289.876481 384 
L 289.876481 379.032056 
L 296.122708 379.032056 
L 296.122708 374.064111 
L 312.81947 374.064111 
L 312.81947 369.096167 
L 314.150875 369.096167 
L 314.150875 364.128223 
L 364.524627 364.128223 
L 364.524627 359.160278 
L 370.622862 359.160278 
L 370.622862 354.192334 
L 376.781607 354.192334 
L 376.781607 349.22439 
L 381.500627 349.22439 
L 381.500627 344.256445 
L 389.412904 344.256445 
L 389.412904 339.288501 
L 409.010088 339.288501 
L 409.010088 334.320557 
L 410.756858 334.320557 
L 410.756858 329.352612 
L 410.799513 329.352612 
L 410.799513 324.384668 
L 425.937069 324.384668 
L 425.937069 319.416724 
L 429.907974 319.416724 
L 429.907974 314.44878 
L 444.157668 314.44878 
L 444.157668 309.480835 
L 449.852163 309.480835 
L 449.852163 304.512891 
L 453.266404 304.512891 
L 453.266404 299.544947 
L 455.346885 299.544947 
L 455.346885 294.577002 
L 460.756894 294.577002 
L 460.756894 289.609058 
L 464.11179 289.609058 
L 464.11179 284.641114 
L 468.655085 284.641114 
L 468.655085 279.673169 
L 468.658564 279.673169 
L 468.658564 274.705225 
L 472.512318 274.705225 
L 472.512318 269.737281 
L 479.66605 269.737281 
L 479.66605 264.769336 
L 483.147891 264.769336 
L 483.147891 259.801392 
L 486.695337 259.801392 
L 486.695337 254.833448 
L 491.370841 254.833448 
L 491.370841 249.865503 
L 502.650912 249.865503 
L 502.650912 244.897559 
L 504.615355 244.897559 
L 504.615355 239.929615 
L 506.536275 239.929615 
L 506.536275 234.96167 
L 517.234094 234.96167 
L 517.234094 229.993726 
L 519.883198 229.993726 
L 519.883198 225.025782 
L 526.65632 225.025782 
L 526.65632 220.057837 
L 541.52334 220.057837 
L 541.52334 215.089893 
L 541.744563 215.089893 
L 541.744563 210.121949 
L 543.875384 210.121949 
L 543.875384 205.154005 
L 548.956809 205.154005 
L 548.956809 200.18606 
L 552.783836 200.18606 
L 552.783836 195.218116 
L 554.3183 195.218116 
L 554.3183 190.250172 
L 554.553832 190.250172 
L 554.553832 185.282227 
L 560.422469 185.282227 
L 560.422469 180.314283 
L 560.747294 180.314283 
L 560.747294 175.346339 
L 564.512875 175.346339 
L 564.512875 170.378394 
L 565.788841 170.378394 
L 565.788841 165.41045 
L 577 165.41045 
" style="fill:none;stroke:#f5deb3;stroke-linecap:square;"/>
   </g>
   <g id="line2d_10">
    <path clip-path="url(#p664bc7450f)" d="M 452.591869 384 
L 452.591869 379.032056 
L 475.011638 379.032056 
L 475.011638 374.064111 
L 481.151577 374.064111 
L 481.151577 369.096167 
L 485.9289 369.096167 
L 485.9289 364.128223 
L 501.047554 364.128223 
L 501.047554 359.160278 
L 504.267187 359.160278 
L 504.267187 354.192334 
L 505.981655 354.192334 
L 505.981655 349.22439 
L 507.273222 349.22439 
L 507.273222 344.256445 
L 512.024904 344.256445 
L 512.024904 339.288501 
L 551.19114 339.288501 
L 551.19114 334.320557 
L 562.692297 334.320557 
L 562.692297 329.352612 
L 567.402929 329.352612 
L 567.402929 324.384668 
L 573.322218 324.384668 
L 573.322218 319.416724 
L 577 319.416724 
" style="fill:none;stroke:#f5deb3;stroke-linecap:square;"/>
   </g>
   <g id="line2d_11">
    <path clip-path="url(#p664bc7450f)" d="M 378.602109 384 
L 378.602109 379.032056 
L 422.108639 379.032056 
L 422.108639 374.064111 
L 441.737429 374.064111 
L 441.737429 369.096167 
L 451.04485 369.096167 
L 451.04485 364.128223 
L 455.513171 364.128223 
L 455.513171 359.160278 
L 460.198486 359.160278 
L 460.198486 354.192334 
L 461.962972 354.192334 
L 461.962972 349.22439 
L 463.65003 349.22439 
L 463.65003 344.256445 
L 476.757096 344.256445 
L 476.757096 339.288501 
L 479.040893 339.288501 
L 479.040893 334.320557 
L 479.120518 334.320557 
L 479.120518 329.352612 
L 482.2945 329.352612 
L 482.2945 324.384668 
L 490.884321 324.384668 
L 490.884321 319.416724 
L 491.480575 319.416724 
L 491.480575 314.44878 
L 495.554929 314.44878 
L 495.554929 309.480835 
L 496.499355 309.480835 
L 496.499355 304.512891 
L 497.255067 304.512891 
L 497.255067 299.544947 
L 497.859689 299.544947 
L 497.859689 294.577002 
L 498.972699 294.577002 
L 498.972699 289.609058 
L 505.136684 289.609058 
L 505.136684 284.641114 
L 521.002067 284.641114 
L 521.002067 279.673169 
L 521.885258 279.673169 
L 521.885258 274.705225 
L 524.724752 274.705225 
L 524.724752 269.737281 
L 530.39456 269.737281 
L 530.39456 264.769336 
L 532.21323 264.769336 
L 532.21323 259.801392 
L 534.845433 259.801392 
L 534.845433 254.833448 
L 548.071688 254.833448 
L 548.071688 249.865503 
L 549.669824 249.865503 
L 549.669824 244.897559 
L 549.824855 244.897559 
L 549.824855 239.929615 
L 553.470552 239.929615 
L 553.470552 234.96167 
L 559.204415 234.96167 
L 559.204415 229.993726 
L 577 229.993726 
" style="fill:none;stroke:#f5deb3;stroke-linecap:square;"/>
   </g>
   <g id="line2d_12">
    <path clip-path="url(#p664bc7450f)" d="M 294.529467 384 
L 294.529467 379.032056 
L 299.168993 379.032056 
L 299.168993 374.064111 
L 301.341363 374.064111 
L 301.341363 369.096167 
L 320.275929 369.096167 
L 320.275929 364.128223 
L 320.643301 364.128223 
L 320.643301 359.160278 
L 340.465565 359.160278 
L 340.465565 354.192334 
L 343.139093 354.192334 
L 343.139093 349.22439 
L 345.00012 349.22439 
L 345.00012 344.256445 
L 346.130122 344.256445 
L 346.130122 339.288501 
L 352.633192 339.288501 
L 352.633192 334.320557 
L 361.653707 334.320557 
L 361.653707 329.352612 
L 364.393965 329.352612 
L 364.393965 324.384668 
L 366.395596 324.384668 
L 366.395596 319.416724 
L 368.901326 319.416724 
L 368.901326 314.44878 
L 369.045005 314.44878 
L 369.045005 309.480835 
L 369.331171 309.480835 
L 369.331171 304.512891 
L 371.837761 304.512891 
L 371.837761 299.544947 
L 377.618908 299.544947 
L 377.618908 294.577002 
L 388.633109 294.577002 
L 388.633109 289.609058 
L 399.964339 289.609058 
L 399.964339 284.641114 
L 411.697709 284.641114 
L 411.697709 279.673169 
L 417.685313 279.673169 
L 417.685313 274.705225 
L 422.746998 274.705225 
L 422.746998 269.737281 
L 426.183017 269.737281 
L 426.183017 264.769336 
L 442.533767 264.769336 
L 442.533767 259.801392 
L 449.636436 259.801392 
L 449.636436 254.833448 
L 457.666311 254.833448 
L 457.666311 249.865503 
L 458.587686 249.865503 
L 458.587686 244.897559 
L 474.860658 244.897559 
L 474.860658 239.929615 
L 475.522914 239.929615 
L 475.522914 234.96167 
L 475.522914 234.96167 
L 475.522914 234.96167 
L 567.24 234.96167 
" style="fill:none;stroke:#f5deb3;stroke-linecap:square;"/>
   </g>
   <g id="line2d_13">
    <path clip-path="url(#p664bc7450f)" d="M 378.82028 384 
L 378.82028 379.032056 
L 396.694891 379.032056 
L 396.694891 374.064111 
L 403.47091 374.064111 
L 403.47091 369.096167 
L 405.007831 369.096167 
L 405.007831 364.128223 
L 412.000615 364.128223 
L 412.000615 359.160278 
L 417.629305 359.160278 
L 417.629305 354.192334 
L 422.262566 354.192334 
L 422.262566 349.22439 
L 422.628435 349.22439 
L 422.628435 344.256445 
L 422.628435 344.256445 
L 422.628435 339.288501 
L 425.913205 339.288501 
L 425.913205 334.320557 
L 444.680446 334.320557 
L 444.680446 329.352612 
L 444.680446 329.352612 
L 444.680446 329.352612 
L 567.24 329.352612 
" style="fill:none;stroke:#f5deb3;stroke-linecap:square;"/>
   </g>
   <g id="line2d_14">
    <path clip-path="url(#p664bc7450f)" d="M 247.581543 384 
L 247.581543 379.032056 
L 262.13347 379.032056 
L 262.13347 374.064111 
L 339.458027 374.064111 
L 339.458027 369.096167 
L 388.796539 369.096167 
L 388.796539 364.128223 
L 400.86354 364.128223 
L 400.86354 359.160278 
L 406.950176 359.160278 
L 406.950176 354.192334 
L 408.577923 354.192334 
L 408.577923 349.22439 
L 418.417145 349.22439 
L 418.417145 344.256445 
L 419.599313 344.256445 
L 419.599313 339.288501 
L 426.000651 339.288501 
L 426.000651 334.320557 
L 429.575505 334.320557 
L 429.575505 329.352612 
L 430.289516 329.352612 
L 430.289516 324.384668 
L 430.690028 324.384668 
L 430.690028 319.416724 
L 433.341058 319.416724 
L 433.341058 314.44878 
L 437.29313 314.44878 
L 437.29313 309.480835 
L 442.406712 309.480835 
L 442.406712 304.512891 
L 447.344115 304.512891 
L 447.344115 299.544947 
L 472.185137 299.544947 
L 472.185137 294.577002 
L 472.917602 294.577002 
L 472.917602 289.609058 
L 474.749452 289.609058 
L 474.749452 284.641114 
L 475.926509 284.641114 
L 475.926509 279.673169 
L 490.065433 279.673169 
L 490.065433 274.705225 
L 494.853449 274.705225 
L 494.853449 269.737281 
L 500.76234 269.737281 
L 500.76234 264.769336 
L 504.129012 264.769336 
L 504.129012 259.801392 
L 508.612042 259.801392 
L 508.612042 254.833448 
L 522.376037 254.833448 
L 522.376037 249.865503 
L 522.376037 249.865503 
L 522.376037 249.865503 
L 567.24 249.865503 
" style="fill:none;stroke:#f5deb3;stroke-linecap:square;"/>
   </g>
   <g id="line2d_15">
    <path clip-path="url(#p664bc7450f)" d="M 546.965898 384 
L 546.965898 379.032056 
L 549.305049 379.032056 
L 549.305049 374.064111 
L 552.982237 374.064111 
L 552.982237 369.096167 
L 557.209945 369.096167 
L 557.209945 364.128223 
L 560.584256 364.128223 
L 560.584256 359.160278 
L 565.854657 359.160278 
L 565.854657 354.192334 
L 569.492846 354.192334 
L 569.492846 349.22439 
L 575.558385 349.22439 
L 575.558385 344.256445 
L 577 344.256445 
" style="fill:none;stroke:#f5deb3;stroke-linecap:square;"/>
   </g>
   <g id="line2d_16">
    <path clip-path="url(#p664bc7450f)" d="M 386.528338 384 
L 386.528338 379.032056 
L 491.857266 379.032056 
L 491.857266 374.064111 
L 525.911412 374.064111 
L 525.911412 369.096167 
L 527.079296 369.096167 
L 527.079296 364.128223 
L 537.590739 364.128223 
L 537.590739 359.160278 
L 547.13534 359.160278 
L 547.13534 354.192334 
L 569.71041 354.192334 
L 569.71041 349.22439 
L 577 349.22439 
" style="fill:none;stroke:#f5deb3;stroke-linecap:square;"/>
   </g>
   <g id="line2d_17">
    <path clip-path="url(#p664bc7450f)" d="M 398.861543 384 
L 398.861543 379.032056 
L 401.950165 379.032056 
L 401.950165 374.064111 
L 426.482913 374.064111 
L 426.482913 369.096167 
L 520.139505 369.096167 
L 520.139505 364.128223 
L 569.617281 364.128223 
L 569.617281 359.160278 
L 569.617281 359.160278 
" style="fill:none;stroke:#f5deb3;stroke-linecap:square;"/>
   </g>
   <g id="line2d_18">
    <path clip-path="url(#p664bc7450f)" d="M 260.791143 384 
L 260.791143 379.032056 
L 285.249081 379.032056 
L 285.249081 374.064111 
L 295.431701 374.064111 
L 295.431701 369.096167 
L 297.573038 369.096167 
L 297.573038 364.128223 
L 298.047575 364.128223 
L 298.047575 359.160278 
L 313.803817 359.160278 
L 313.803817 354.192334 
L 323.491875 354.192334 
L 323.491875 349.22439 
L 325.362985 349.22439 
L 325.362985 344.256445 
L 329.120993 344.256445 
L 329.120993 339.288501 
L 334.384126 339.288501 
L 334.384126 334.320557 
L 345.568209 334.320557 
L 345.568209 329.352612 
L 346.722835 329.352612 
L 346.722835 324.384668 
L 348.922175 324.384668 
L 348.922175 319.416724 
L 349.69296 319.416724 
L 349.69296 314.44878 
L 364.810925 314.44878 
L 364.810925 309.480835 
L 367.09563 309.480835 
L 367.09563 304.512891 
L 367.63908 304.512891 
L 367.63908 299.544947 
L 368.274057 299.544947 
L 368.274057 294.577002 
L 369.568438 294.577002 
L 369.568438 289.609058 
L 384.671075 289.609058 
L 384.671075 284.641114 
L 385.616727 284.641114 
L 385.616727 279.673169 
L 393.084534 279.673169 
L 393.084534 274.705225 
L 396.974225 274.705225 
L 396.974225 269.737281 
L 405.600596 269.737281 
L 405.600596 264.769336 
L 418.902376 264.769336 
L 418.902376 259.801392 
L 423.835145 259.801392 
L 423.835145 254.833448 
L 428.079051 254.833448 
L 428.079051 249.865503 
L 434.032418 249.865503 
L 434.032418 244.897559 
L 455.1168 244.897559 
L 455.1168 239.929615 
L 463.377147 239.929615 
L 463.377147 234.96167 
L 463.377147 234.96167 
L 463.377147 234.96167 
L 567.24 234.96167 
" style="fill:none;stroke:#f5deb3;stroke-linecap:square;"/>
   </g>
   <g id="line2d_19">
    <path clip-path="url(#p664bc7450f)" d="M 450.121807 384 
L 450.121807 382.182459 
L 450.121807 382.182459 
L 450.121807 382.182459 
L 450.121807 380.364919 
L 450.121807 380.364919 
L 450.121807 380.364919 
L 450.121807 378.547378 
L 454.835701 378.547378 
L 454.835701 373.094756 
L 459.347312 373.094756 
L 459.347312 367.642135 
L 464.940926 367.642135 
L 464.940926 362.189513 
L 466.309705 362.189513 
L 466.309705 356.736891 
L 466.737567 356.736891 
L 466.737567 351.284269 
L 470.948573 351.284269 
L 470.948573 345.831647 
L 471.144577 345.831647 
L 471.144577 340.379025 
L 472.100576 340.379025 
L 472.100576 334.926404 
L 474.22418 334.926404 
L 474.22418 329.473782 
L 476.896711 329.473782 
L 476.896711 324.02116 
L 477.808243 324.02116 
L 477.808243 318.568538 
L 478.032185 318.568538 
L 478.032185 313.115916 
L 478.586395 313.115916 
L 478.586395 307.663295 
L 481.328855 307.663295 
L 481.328855 302.210673 
L 490.326878 302.210673 
L 490.326878 296.758051 
L 492.299536 296.758051 
L 492.299536 291.305429 
L 499.632234 291.305429 
L 499.632234 285.852807 
L 504.895662 285.852807 
L 504.895662 280.400186 
L 506.54129 280.400186 
L 506.54129 274.947564 
L 507.528035 274.947564 
L 507.528035 269.494942 
L 508.01443 269.494942 
L 508.017679 258.589698 
L 511.540098 258.589698 
L 511.638636 247.684455 
L 513.505228 247.684455 
L 513.505228 242.231833 
L 517.471389 242.231833 
L 517.471389 236.779211 
L 521.530039 236.779211 
L 521.530039 231.326589 
L 523.218093 231.326589 
L 523.218093 225.873967 
L 523.436727 225.873967 
L 523.436727 220.421346 
L 535.902625 220.421346 
L 535.902625 214.968724 
L 538.093322 214.968724 
L 538.13506 204.06348 
L 539.838978 204.06348 
L 539.838978 198.610858 
L 541.800355 198.610858 
L 541.800355 193.158237 
L 543.755124 193.158237 
L 543.755124 187.705615 
L 544.215952 187.705615 
L 544.215952 182.252993 
L 547.707473 182.252993 
L 547.707473 176.800371 
L 548.265886 176.800371 
L 548.265886 171.347749 
L 549.799531 171.347749 
L 549.799531 165.895127 
L 550.080291 165.895127 
L 550.080291 160.442506 
L 564.071121 160.442506 
L 564.071121 154.989884 
L 565.899725 154.989884 
L 565.899725 149.537262 
L 573.3213 149.537262 
L 573.3213 144.08464 
L 577 144.08464 
L 577 144.08464 
" style="fill:none;stroke:#f5deb3;stroke-linecap:square;"/>
   </g>
   <g id="line2d_20">
    <path clip-path="url(#p664bc7450f)" d="M 254.607279 384 
L 254.607279 379.032056 
L 254.607279 379.032056 
L 254.607279 374.064111 
L 260.008148 374.064111 
L 260.008148 369.096167 
L 262.885144 369.096167 
L 262.885144 364.128223 
L 279.898442 364.128223 
L 279.898442 359.160278 
L 303.511147 359.160278 
L 303.511147 354.192334 
L 309.446461 354.192334 
L 309.446461 349.22439 
L 318.526128 349.22439 
L 318.526128 344.256445 
L 329.68746 344.256445 
L 329.68746 339.288501 
L 342.423558 339.288501 
L 342.423558 334.320557 
L 344.15546 334.320557 
L 344.15546 329.352612 
L 346.833216 329.352612 
L 346.833216 324.384668 
L 348.922175 324.384668 
L 348.922175 319.416724 
L 353.350935 319.416724 
L 353.350935 314.44878 
L 353.480369 314.44878 
L 353.480369 309.480835 
L 362.202589 309.480835 
L 362.202589 304.512891 
L 366.320027 304.512891 
L 366.320027 299.544947 
L 367.244411 299.544947 
L 367.244411 294.577002 
L 368.176874 294.577002 
L 368.176874 289.609058 
L 369.497372 289.609058 
L 369.497372 284.641114 
L 373.641007 284.641114 
L 373.641007 279.673169 
L 378.482717 279.673169 
L 378.482717 274.705225 
L 386.630533 274.705225 
L 386.630533 269.737281 
L 386.647546 269.737281 
L 386.647546 264.769336 
L 388.747565 264.769336 
L 388.747565 259.801392 
L 403.039189 259.801392 
L 403.039189 254.833448 
L 404.528674 254.833448 
L 404.528674 249.865503 
L 406.511942 249.865503 
L 406.511942 244.897559 
L 431.993653 244.897559 
L 431.993653 239.929615 
L 434.215681 239.929615 
L 434.215681 234.96167 
L 563.247022 234.96167 
L 563.247022 229.993726 
L 563.247022 229.993726 
L 563.247022 229.993726 
L 567.24 229.993726 
" style="fill:none;stroke:#f5deb3;stroke-linecap:square;"/>
   </g>
   <g id="line2d_21">
    <path clip-path="url(#p664bc7450f)" d="M 479.963237 384 
L 479.963237 379.032056 
L 507.040329 379.032056 
L 507.040329 374.064111 
L 516.124113 374.064111 
L 516.124113 369.096167 
L 516.124113 369.096167 
L 516.124113 369.096167 
L 567.24 369.096167 
" style="fill:none;stroke:#f5deb3;stroke-linecap:square;"/>
   </g>
   <g id="line2d_22">
    <path clip-path="url(#p664bc7450f)" d="M 235.482691 384 
L 235.482691 379.032056 
L 243.403375 379.032056 
L 243.403375 374.064111 
L 253.723896 374.064111 
L 253.723896 369.096167 
L 255.043372 369.096167 
L 255.043372 364.128223 
L 262.885144 364.128223 
L 262.885144 359.160278 
L 267.179102 359.160278 
L 267.179102 354.192334 
L 332.137999 354.192334 
L 332.137999 349.22439 
L 364.602866 349.22439 
L 364.602866 344.256445 
L 367.244411 344.256445 
L 367.244411 339.288501 
L 372.131443 339.288501 
L 372.131443 334.320557 
L 375.213944 334.320557 
L 375.213944 329.352612 
L 384.935497 329.352612 
L 384.935497 324.384668 
L 389.36451 324.384668 
L 389.36451 319.416724 
L 399.35606 319.416724 
L 399.35606 314.44878 
L 405.031673 314.44878 
L 405.031673 309.480835 
L 411.107714 309.480835 
L 411.107714 304.512891 
L 436.683085 304.512891 
L 436.683085 299.544947 
L 437.433383 299.544947 
L 437.433383 294.577002 
L 441.731571 294.577002 
L 441.731571 289.609058 
L 443.420181 289.609058 
L 443.420181 284.641114 
L 447.532965 284.641114 
L 447.532965 279.673169 
L 459.567646 279.673169 
L 459.567646 274.705225 
L 472.63166 274.705225 
L 472.63166 269.737281 
L 481.023011 269.737281 
L 481.023011 264.769336 
L 482.115146 264.769336 
L 482.115146 259.801392 
L 483.076872 259.801392 
L 483.076872 254.833448 
L 500.969417 254.833448 
L 500.969417 249.865503 
L 514.524953 249.865503 
L 514.524953 244.897559 
L 523.070202 244.897559 
L 523.070202 239.929615 
L 536.156746 239.929615 
L 536.156746 234.96167 
L 540.265461 234.96167 
L 540.265461 229.993726 
L 546.018455 229.993726 
L 546.018455 225.025782 
L 553.821901 225.025782 
L 553.821901 220.057837 
L 558.310493 220.057837 
L 558.310493 215.089893 
L 561.757951 215.089893 
L 561.757951 210.121949 
L 577 210.121949 
" style="fill:none;stroke:#f5deb3;stroke-linecap:square;"/>
   </g>
   <g id="line2d_23">
    <path clip-path="url(#p664bc7450f)" d="M 389.573891 384 
L 389.573891 379.032056 
L 397.679767 379.032056 
L 397.679767 374.064111 
L 401.39053 374.064111 
L 401.39053 369.096167 
L 402.391041 369.096167 
L 402.391041 364.128223 
L 404.28742 364.128223 
L 404.28742 359.160278 
L 408.074738 359.160278 
L 408.074738 354.192334 
L 427.534475 354.192334 
L 427.534475 349.22439 
L 432.528438 349.22439 
L 432.528438 344.256445 
L 432.814659 344.256445 
L 432.814659 339.288501 
L 434.928938 339.288501 
L 434.928938 334.320557 
L 444.491966 334.320557 
L 444.491966 329.352612 
L 448.126478 329.352612 
L 448.126478 324.384668 
L 456.270385 324.384668 
L 456.270385 319.416724 
L 464.441268 319.416724 
L 464.441268 314.44878 
L 467.806124 314.44878 
L 467.806124 309.480835 
L 474.183553 309.480835 
L 474.183553 304.512891 
L 491.355146 304.512891 
L 491.355146 299.544947 
L 491.402218 299.544947 
L 491.402218 294.577002 
L 494.945579 294.577002 
L 494.945579 289.609058 
L 501.209035 289.609058 
L 501.209035 284.641114 
L 522.743835 284.641114 
L 522.743835 279.673169 
L 522.743835 279.673169 
L 522.743835 279.673169 
L 567.24 279.673169 
" style="fill:none;stroke:#f5deb3;stroke-linecap:square;"/>
   </g>
   <g id="line2d_24">
    <path clip-path="url(#p664bc7450f)" d="M 334.570853 384 
L 334.570853 379.032056 
L 336.311898 379.032056 
L 336.311898 374.064111 
L 344.541109 374.064111 
L 344.541109 369.096167 
L 345.943496 369.096167 
L 345.943496 364.128223 
L 353.802544 364.128223 
L 353.802544 359.160278 
L 354.977425 359.160278 
L 354.977425 354.192334 
L 366.771793 354.192334 
L 366.771793 349.22439 
L 397.666025 349.22439 
L 397.666025 344.256445 
L 431.752603 344.256445 
L 431.752603 339.288501 
L 432.939818 339.288501 
L 432.939818 334.320557 
L 434.701228 334.320557 
L 434.701228 329.352612 
L 436.450015 329.352612 
L 436.450015 324.384668 
L 438.784361 324.384668 
L 438.784361 319.416724 
L 439.882797 319.416724 
L 439.882797 314.44878 
L 440.179459 314.44878 
L 440.179459 309.480835 
L 443.590003 309.480835 
L 443.590003 304.512891 
L 454.971907 304.512891 
L 454.971907 299.544947 
L 455.906525 299.544947 
L 455.906525 294.577002 
L 457.333846 294.577002 
L 457.333846 289.609058 
L 469.702155 289.609058 
L 469.702155 284.641114 
L 476.798723 284.641114 
L 476.798723 279.673169 
L 478.240711 279.673169 
L 478.240711 274.705225 
L 479.898898 274.705225 
L 479.898898 269.737281 
L 480.127915 269.737281 
L 480.127915 264.769336 
L 483.436222 264.769336 
L 483.436222 259.801392 
L 491.828387 259.801392 
L 491.828387 254.833448 
L 494.040225 254.833448 
L 494.040225 249.865503 
L 494.868117 249.865503 
L 494.868117 244.897559 
L 502.488457 244.897559 
L 502.488457 239.929615 
L 507.281462 239.929615 
L 507.281462 234.96167 
L 509.555651 234.96167 
L 509.555651 229.993726 
L 515.206482 229.993726 
L 515.206482 225.025782 
L 517.26806 225.025782 
L 517.26806 220.057837 
L 523.065346 220.057837 
L 523.065346 215.089893 
L 531.017638 215.089893 
L 531.017638 210.121949 
L 532.892239 210.121949 
L 532.892239 205.154005 
L 539.754664 205.154005 
L 539.754664 200.18606 
L 560.239482 200.18606 
L 560.239482 195.218116 
L 563.418012 195.218116 
L 563.418012 190.250172 
L 566.577869 190.250172 
L 566.577869 185.282227 
L 577 185.282227 
" style="fill:none;stroke:#f5deb3;stroke-linecap:square;"/>
   </g>
   <g id="line2d_25">
    <path clip-path="url(#p664bc7450f)" d="M 505.494416 384 
L 505.494416 379.032056 
L 509.015143 379.032056 
L 509.015143 374.064111 
L 514.200248 374.064111 
L 514.200248 369.096167 
L 515.553033 369.096167 
L 515.553033 364.128223 
L 515.595136 364.128223 
L 515.595136 359.160278 
L 516.695819 359.160278 
L 516.695819 354.192334 
L 516.904143 354.192334 
L 516.904143 349.22439 
L 517.699519 349.22439 
L 517.699519 344.256445 
L 519.162891 344.256445 
L 519.162891 339.288501 
L 520.703012 339.288501 
L 520.703012 334.320557 
L 521.294375 334.320557 
L 521.294375 329.352612 
L 521.374722 329.352612 
L 521.374722 324.384668 
L 521.448681 324.384668 
L 521.448681 319.416724 
L 521.535041 319.416724 
L 521.535041 314.44878 
L 522.03905 314.44878 
L 522.03905 309.480835 
L 522.731617 309.480835 
L 522.731617 304.512891 
L 523.067774 304.512891 
L 523.067774 299.544947 
L 523.87602 299.544947 
L 523.87602 294.577002 
L 525.295332 294.577002 
L 525.295332 289.609058 
L 525.817107 289.609058 
L 525.817107 284.641114 
L 527.414086 284.641114 
L 527.414086 279.673169 
L 527.544502 279.673169 
L 527.544502 274.705225 
L 529.984165 274.705225 
L 529.984165 269.737281 
L 530.244741 269.737281 
L 530.244741 264.769336 
L 544.854601 264.769336 
L 544.854601 259.801392 
L 546.306529 259.801392 
L 546.306529 254.833448 
L 547.60941 254.833448 
L 547.60941 249.865503 
L 548.043993 249.865503 
L 548.043993 244.897559 
L 548.703137 244.897559 
L 548.703137 239.929615 
L 549.412346 239.929615 
L 549.412346 234.96167 
L 549.44369 234.96167 
L 549.44369 229.993726 
L 549.825578 229.993726 
L 549.825578 225.025782 
L 550.74753 225.025782 
L 550.74753 220.057837 
L 550.758898 220.057837 
L 550.758898 215.089893 
L 550.883777 215.089893 
L 550.883777 210.121949 
L 552.797496 210.121949 
L 552.797496 205.154005 
L 553.222569 205.154005 
L 553.222569 200.18606 
L 553.222569 200.18606 
L 553.222569 200.18606 
L 567.24 200.18606 
" style="fill:none;stroke:#f5deb3;stroke-linecap:square;"/>
   </g>
   <g id="line2d_26">
    <path clip-path="url(#p664bc7450f)" d="M 354.914597 384 
L 354.914597 379.032056 
L 356.797324 379.032056 
L 356.797324 374.064111 
L 357.249969 374.064111 
L 357.249969 369.096167 
L 357.847394 369.096167 
L 357.847394 364.128223 
L 358.084443 364.128223 
L 358.084443 359.160278 
L 359.42677 359.160278 
L 359.42677 354.192334 
L 360.396985 354.192334 
L 360.396985 349.22439 
L 360.73511 349.22439 
L 360.73511 344.256445 
L 364.888732 344.256445 
L 364.888732 339.288501 
L 377.150875 339.288501 
L 377.150875 334.320557 
L 378.343078 334.320557 
L 378.343078 329.352612 
L 379.80052 329.352612 
L 379.80052 324.384668 
L 380.341439 324.384668 
L 380.341439 319.416724 
L 384.19168 319.416724 
L 384.19168 314.44878 
L 394.404136 314.44878 
L 394.404136 309.480835 
L 395.361408 309.480835 
L 395.361408 304.512891 
L 395.390141 304.512891 
L 395.390141 299.544947 
L 396.117492 299.544947 
L 396.117492 294.577002 
L 398.362247 294.577002 
L 398.362247 289.609058 
L 398.700137 289.609058 
L 398.700137 284.641114 
L 399.898568 284.641114 
L 399.898568 279.673169 
L 414.391832 279.673169 
L 414.391832 274.705225 
L 417.89945 274.705225 
L 417.89945 269.737281 
L 418.029361 269.737281 
L 418.029361 264.769336 
L 419.256545 264.769336 
L 419.256545 259.801392 
L 421.305962 259.801392 
L 421.305962 254.833448 
L 428.292245 254.833448 
L 428.292245 249.865503 
L 428.557507 249.865503 
L 428.557507 244.897559 
L 432.849456 244.897559 
L 432.849456 239.929615 
L 434.175012 239.929615 
L 434.175012 234.96167 
L 447.117636 234.96167 
L 447.117636 229.993726 
L 448.677412 229.993726 
L 448.677412 225.025782 
L 453.830367 225.025782 
L 453.830367 220.057837 
L 457.39878 220.057837 
L 457.39878 215.089893 
L 482.03195 215.089893 
L 482.03195 210.121949 
L 484.917769 210.121949 
L 484.917769 205.154005 
L 519.296267 205.154005 
L 519.296267 200.18606 
L 519.762979 200.18606 
L 519.762979 195.218116 
L 540.301133 195.218116 
L 540.301133 190.250172 
L 546.203442 190.250172 
L 546.203442 185.282227 
L 550.191739 185.282227 
L 550.191739 180.314283 
L 550.830598 180.314283 
L 550.830598 175.346339 
L 554.867089 175.346339 
L 554.867089 170.378394 
L 555.430883 170.378394 
L 555.430883 165.41045 
L 555.96162 165.41045 
L 555.96162 160.442506 
L 559.079987 160.442506 
L 559.079987 155.474561 
L 561.317965 155.474561 
L 561.317965 150.506617 
L 561.415743 150.506617 
L 561.415743 145.538673 
L 561.503528 145.538673 
L 561.503528 140.570728 
L 569.246056 140.570728 
L 569.246056 135.602784 
L 569.246056 135.602784 
" style="fill:none;stroke:#f5deb3;stroke-linecap:square;"/>
   </g>
   <g id="line2d_27">
    <path clip-path="url(#p664bc7450f)" d="M 415.726764 384 
L 415.726764 379.032056 
L 415.726764 379.032056 
L 415.726764 379.032056 
L 567.24 379.032056 
" style="fill:none;stroke:#f5deb3;stroke-linecap:square;"/>
   </g>
   <g id="line2d_28">
    <path clip-path="url(#p664bc7450f)" d="M 304.770593 384 
L 304.770593 379.032056 
L 305.593487 379.032056 
L 305.593487 374.064111 
L 316.384792 374.064111 
L 316.384792 369.096167 
L 328.705082 369.096167 
L 328.705082 364.128223 
L 353.673915 364.128223 
L 353.673915 359.160278 
L 384.82989 359.160278 
L 384.82989 354.192334 
L 403.384854 354.192334 
L 403.384854 349.22439 
L 433.499311 349.22439 
L 433.499311 344.256445 
L 436.527822 344.256445 
L 436.527822 339.288501 
L 439.179785 339.288501 
L 439.179785 334.320557 
L 439.222851 334.320557 
L 439.222851 329.352612 
L 441.602526 329.352612 
L 441.602526 324.384668 
L 442.093519 324.384668 
L 442.093519 319.416724 
L 445.378456 319.416724 
L 445.378456 314.44878 
L 451.999743 314.44878 
L 451.999743 309.480835 
L 453.802546 309.480835 
L 453.802546 304.512891 
L 476.302977 304.512891 
L 476.302977 299.544947 
L 477.857769 299.544947 
L 477.857769 294.577002 
L 478.63518 294.577002 
L 478.63518 289.609058 
L 479.075033 289.609058 
L 479.075033 284.641114 
L 479.95485 284.641114 
L 479.95485 279.673169 
L 481.337023 279.673169 
L 481.337023 274.705225 
L 482.730907 274.705225 
L 482.730907 269.737281 
L 483.386534 269.737281 
L 483.386534 264.769336 
L 484.235095 264.769336 
L 484.235095 259.801392 
L 490.329166 259.801392 
L 490.329166 254.833448 
L 490.443414 254.833448 
L 490.443414 249.865503 
L 496.138783 249.865503 
L 496.138783 244.897559 
L 497.56224 244.897559 
L 497.56224 239.929615 
L 497.744878 239.929615 
L 497.744878 234.96167 
L 502.374435 234.96167 
L 502.374435 229.993726 
L 502.744542 229.993726 
L 502.744542 225.025782 
L 519.029169 225.025782 
L 519.029169 220.057837 
L 524.344784 220.057837 
L 524.344784 215.089893 
L 528.84825 215.089893 
L 528.84825 210.121949 
L 531.328969 210.121949 
L 531.328969 205.154005 
L 532.315855 205.154005 
L 532.315855 200.18606 
L 535.73188 200.18606 
L 535.73188 195.218116 
L 546.807403 195.218116 
L 546.807403 190.250172 
L 554.941176 190.250172 
L 554.941176 185.282227 
L 558.935857 185.282227 
L 558.935857 180.314283 
L 560.752564 180.314283 
L 560.752564 175.346339 
L 564.13258 175.346339 
L 564.13258 170.378394 
L 577 170.378394 
" style="fill:none;stroke:#f5deb3;stroke-linecap:square;"/>
   </g>
   <g id="line2d_29">
    <path clip-path="url(#p664bc7450f)" d="M 299.537456 384 
L 299.537456 379.032056 
L 299.537456 379.032056 
L 299.537456 374.064111 
L 299.537456 374.064111 
L 299.537456 369.096167 
L 335.768405 369.096167 
L 335.768405 364.128223 
L 335.768405 364.128223 
L 335.768405 359.160278 
L 335.768405 359.160278 
L 335.768405 354.192334 
L 343.37542 354.192334 
L 343.37542 349.22439 
L 343.37542 349.22439 
L 343.37542 344.256445 
L 343.37542 344.256445 
L 343.37542 339.288501 
L 388.698543 339.288501 
L 388.698543 334.320557 
L 388.698543 334.320557 
L 388.698543 329.352612 
L 388.698543 329.352612 
L 388.698543 324.384668 
L 437.870813 324.384668 
L 437.870813 319.416724 
L 437.870813 319.416724 
L 437.870813 314.44878 
L 437.870813 314.44878 
L 437.870813 309.480835 
L 457.528403 309.480835 
L 457.528403 304.512891 
L 457.528403 304.512891 
L 457.528403 299.544947 
L 457.528403 299.544947 
L 457.528403 294.577002 
L 467.813198 294.577002 
L 467.813198 289.609058 
L 467.813198 289.609058 
L 467.813198 284.641114 
L 467.813198 284.641114 
L 467.813198 279.673169 
L 471.098135 279.673169 
L 471.098135 274.705225 
L 472.185137 274.705225 
L 472.185137 269.737281 
L 486.269018 269.737281 
L 486.269018 264.769336 
L 487.679823 264.769336 
L 487.679823 259.801392 
L 488.015823 259.801392 
L 488.015823 254.833448 
L 498.749674 254.833448 
L 498.749674 249.865503 
L 502.595013 249.865503 
L 502.595013 244.897559 
L 507.514914 244.897559 
L 507.514914 239.929615 
L 526.827055 239.929615 
L 526.827055 234.96167 
L 526.827055 234.96167 
L 526.827055 234.96167 
L 567.24 234.96167 
" style="fill:none;stroke:#f5deb3;stroke-linecap:square;"/>
   </g>
   <g id="line2d_30">
    <path clip-path="url(#p664bc7450f)" d="M 426.467172 384 
L 426.467172 379.032056 
L 429.693961 379.032056 
L 429.693961 374.064111 
L 484.15009 374.064111 
L 484.15009 369.096167 
L 499.246764 369.096167 
L 499.246764 364.128223 
L 520.455877 364.128223 
L 520.455877 359.160278 
L 527.85196 359.160278 
L 527.85196 354.192334 
L 529.457964 354.192334 
L 529.457964 349.22439 
L 529.875734 349.22439 
L 529.875734 344.256445 
L 530.301766 344.256445 
L 530.301766 339.288501 
L 530.747339 339.288501 
L 530.747339 334.320557 
L 530.747339 334.320557 
L 530.747339 334.320557 
L 567.24 334.320557 
" style="fill:none;stroke:#f5deb3;stroke-linecap:square;"/>
   </g>
   <g id="line2d_31">
    <path clip-path="url(#p664bc7450f)" d="M 8.074137 384 
L 8.074137 379.032056 
L 8.074137 379.032056 
L 8.074137 374.064111 
L 8.074137 374.064111 
L 8.074137 369.096167 
L 43.893682 369.096167 
L 43.893682 364.128223 
L 64.846773 364.128223 
L 64.846773 359.160278 
L 64.846773 359.160278 
L 64.846773 354.192334 
L 79.713227 354.192334 
L 79.713227 349.22439 
L 79.713227 349.22439 
L 79.713227 344.256445 
L 79.713227 344.256445 
L 79.713227 339.288501 
L 91.244545 339.288501 
L 91.244545 334.320557 
L 91.244545 334.320557 
L 91.244545 329.352612 
L 121.619408 329.352612 
L 121.619408 324.384668 
L 121.619408 324.384668 
L 121.619408 319.416724 
L 127.06409 319.416724 
L 127.06409 314.44878 
L 131.989403 314.44878 
L 131.989403 309.480835 
L 136.485863 309.480835 
L 136.485863 304.512891 
L 136.485863 304.512891 
L 136.485863 299.544947 
L 148.01718 299.544947 
L 148.01718 294.577002 
L 172.305407 294.577002 
L 172.305407 289.609058 
L 212.261294 289.609058 
L 212.261294 284.641114 
L 217.005603 284.641114 
L 217.005603 279.673169 
L 246.568243 279.673169 
L 246.568243 274.705225 
L 247.077376 274.705225 
L 247.077376 269.737281 
L 253.276476 269.737281 
L 253.276476 264.769336 
L 253.276476 264.769336 
L 253.276476 259.801392 
L 254.607279 259.801392 
L 254.607279 254.833448 
L 263.44181 254.833448 
L 263.44181 249.865503 
L 264.897588 249.865503 
L 264.897588 244.897559 
L 283.651339 244.897559 
L 283.651339 239.929615 
L 283.900384 239.929615 
L 283.900384 234.96167 
L 295.431701 234.96167 
L 295.431701 229.993726 
L 305.183678 229.993726 
L 305.183678 225.025782 
L 305.67506 225.025782 
L 305.67506 220.057837 
L 311.379915 220.057837 
L 311.379915 215.089893 
L 318.589652 215.089893 
L 318.589652 210.121949 
L 320.214446 210.121949 
L 320.214446 205.154005 
L 322.027849 205.154005 
L 322.027849 200.18606 
L 323.779769 200.18606 
L 323.779769 195.218116 
L 330.450042 195.218116 
L 330.450042 190.250172 
L 330.65151 190.250172 
L 330.65151 185.282227 
L 331.251246 185.282227 
L 331.251246 180.314283 
L 331.251246 180.314283 
L 331.251246 175.346339 
L 331.350529 175.346339 
L 331.350529 170.378394 
L 340.920869 170.378394 
L 340.920869 165.41045 
L 348.49685 165.41045 
L 348.49685 160.442506 
L 353.898806 160.442506 
L 353.898806 155.474561 
L 357.429923 155.474561 
L 357.429923 150.506617 
L 372.221472 150.506617 
L 372.221472 145.538673 
L 379.46932 145.538673 
L 379.46932 140.570728 
L 383.851641 140.570728 
L 383.851641 135.602784 
L 386.851265 135.602784 
L 386.851265 130.63484 
L 398.753995 130.63484 
L 398.753995 125.666895 
L 400.811837 125.666895 
L 400.811837 120.698951 
L 407.041964 120.698951 
L 407.041964 115.731007 
L 413.680972 115.731007 
L 413.680972 110.763062 
L 420.2426 110.763062 
L 420.2426 105.795118 
L 421.730431 105.795118 
L 421.730431 100.827174 
L 423.293935 100.827174 
L 423.293935 95.859229 
L 435.162302 95.859229 
L 435.162302 90.891285 
L 435.744431 90.891285 
L 435.744431 85.923341 
L 435.744431 85.923341 
L 435.744431 85.923341 
L 567.24 85.923341 
" style="fill:none;stroke:#000000;stroke-linecap:square;"/>
   </g>
   <g id="line2d_32">
    <path clip-path="url(#p664bc7450f)" d="M -35760.550738 756.595824 
" style="fill:none;stroke:#000000;stroke-linecap:square;"/>
   </g>
   <g id="line2d_33">
    <path clip-path="url(#p664bc7450f)" d="M 527.97355 384 
L 527.97355 379.032056 
L 547.172665 379.032056 
L 547.172665 374.064111 
L 550.797955 374.064111 
L 550.797955 369.096167 
L 552.809787 369.096167 
L 552.809787 364.128223 
L 577 364.128223 
" style="fill:none;stroke:#00bfbf;stroke-linecap:square;"/>
   </g>
   <g id="line2d_34">
    <path clip-path="url(#p664bc7450f)" d="M -35760.550738 756.595824 
" style="fill:none;stroke:#00bfbf;stroke-linecap:square;"/>
   </g>
   <g id="line2d_35"/>
   <g id="line2d_36"/>
   <g id="line2d_37">
    <path clip-path="url(#p664bc7450f)" d="M 567.226055 384 
L 567.226055 7.678218 
" style="fill:none;stroke:#000000;stroke-linecap:square;"/>
   </g>
   <g id="patch_3">
    <path d="M 55.425 7.678218 
L 567.24 7.678218 
" style="fill:none;stroke:#000000;stroke-linecap:square;stroke-linejoin:miter;"/>
   </g>
   <g id="patch_4">
    <path d="M 567.24 384 
L 567.24 7.678218 
" style="fill:none;stroke:#000000;stroke-linecap:square;stroke-linejoin:miter;"/>
   </g>
   <g id="patch_5">
    <path d="M 55.425 384 
L 567.24 384 
" style="fill:none;stroke:#000000;stroke-linecap:square;stroke-linejoin:miter;"/>
   </g>
   <g id="patch_6">
    <path d="M 55.425 384 
L 55.425 7.678218 
" style="fill:none;stroke:#000000;stroke-linecap:square;stroke-linejoin:miter;"/>
   </g>
   <g id="matplotlib.axis_1">
    <g id="xtick_1">
     <g id="line2d_38">
      <path clip-path="url(#p664bc7450f)" d="M 55.425 384 
L 55.425 7.678218 
" style="fill:none;stroke:#000000;stroke-dasharray:1.000000,3.000000;stroke-dashoffset:0.0;stroke-width:0.5;"/>
     </g>
     <g id="line2d_39">
      <defs>
       <path d="M 0 0 
L 0 -4 
" id="m2a9b226453" style="stroke:#000000;stroke-width:0.5;"/>
      </defs>
      <g>
       <use style="stroke:#000000;stroke-width:0.5;" x="55.425" xlink:href="#m2a9b226453" y="384.0"/>
      </g>
     </g>
     <g id="line2d_40">
      <defs>
       <path d="M 0 0 
L 0 4 
" id="m5dbc8f0fd3" style="stroke:#000000;stroke-width:0.5;"/>
      </defs>
      <g>
       <use style="stroke:#000000;stroke-width:0.5;" x="55.425" xlink:href="#m5dbc8f0fd3" y="7.67821782178"/>
      </g>
     </g>
     <g id="text_1">
      <!-- 0 -->
      <defs>
       <path d="M 31.78125 66.40625 
Q 24.171875 66.40625 20.328125 58.90625 
Q 16.5 51.421875 16.5 36.375 
Q 16.5 21.390625 20.328125 13.890625 
Q 24.171875 6.390625 31.78125 6.390625 
Q 39.453125 6.390625 43.28125 13.890625 
Q 47.125 21.390625 47.125 36.375 
Q 47.125 51.421875 43.28125 58.90625 
Q 39.453125 66.40625 31.78125 66.40625 
M 31.78125 74.21875 
Q 44.046875 74.21875 50.515625 64.515625 
Q 56.984375 54.828125 56.984375 36.375 
Q 56.984375 17.96875 50.515625 8.265625 
Q 44.046875 -1.421875 31.78125 -1.421875 
Q 19.53125 -1.421875 13.0625 8.265625 
Q 6.59375 17.96875 6.59375 36.375 
Q 6.59375 54.828125 13.0625 64.515625 
Q 19.53125 74.21875 31.78125 74.21875 
" id="BitstreamVeraSans-Roman-30"/>
      </defs>
      <g transform="translate(49.0625 403.196875)scale(0.2 -0.2)">
       <use xlink:href="#BitstreamVeraSans-Roman-30"/>
      </g>
     </g>
    </g>
    <g id="xtick_2">
     <g id="line2d_41">
      <path clip-path="url(#p664bc7450f)" d="M 174.414953 384 
L 174.414953 7.678218 
" style="fill:none;stroke:#000000;stroke-dasharray:1.000000,3.000000;stroke-dashoffset:0.0;stroke-width:0.5;"/>
     </g>
     <g id="line2d_42">
      <g>
       <use style="stroke:#000000;stroke-width:0.5;" x="174.414952617" xlink:href="#m2a9b226453" y="384.0"/>
      </g>
     </g>
     <g id="line2d_43">
      <g>
       <use style="stroke:#000000;stroke-width:0.5;" x="174.414952617" xlink:href="#m5dbc8f0fd3" y="7.67821782178"/>
      </g>
     </g>
     <g id="text_2">
      <!-- 1 -->
      <defs>
       <path d="M 12.40625 8.296875 
L 28.515625 8.296875 
L 28.515625 63.921875 
L 10.984375 60.40625 
L 10.984375 69.390625 
L 28.421875 72.90625 
L 38.28125 72.90625 
L 38.28125 8.296875 
L 54.390625 8.296875 
L 54.390625 0 
L 12.40625 0 
z
" id="BitstreamVeraSans-Roman-31"/>
      </defs>
      <g transform="translate(168.052452617 403.196875)scale(0.2 -0.2)">
       <use xlink:href="#BitstreamVeraSans-Roman-31"/>
      </g>
     </g>
    </g>
    <g id="xtick_3">
     <g id="line2d_44">
      <path clip-path="url(#p664bc7450f)" d="M 293.404905 384 
L 293.404905 7.678218 
" style="fill:none;stroke:#000000;stroke-dasharray:1.000000,3.000000;stroke-dashoffset:0.0;stroke-width:0.5;"/>
     </g>
     <g id="line2d_45">
      <g>
       <use style="stroke:#000000;stroke-width:0.5;" x="293.404905233" xlink:href="#m2a9b226453" y="384.0"/>
      </g>
     </g>
     <g id="line2d_46">
      <g>
       <use style="stroke:#000000;stroke-width:0.5;" x="293.404905233" xlink:href="#m5dbc8f0fd3" y="7.67821782178"/>
      </g>
     </g>
     <g id="text_3">
      <!-- 2 -->
      <defs>
       <path d="M 19.1875 8.296875 
L 53.609375 8.296875 
L 53.609375 0 
L 7.328125 0 
L 7.328125 8.296875 
Q 12.9375 14.109375 22.625 23.890625 
Q 32.328125 33.6875 34.8125 36.53125 
Q 39.546875 41.84375 41.421875 45.53125 
Q 43.3125 49.21875 43.3125 52.78125 
Q 43.3125 58.59375 39.234375 62.25 
Q 35.15625 65.921875 28.609375 65.921875 
Q 23.96875 65.921875 18.8125 64.3125 
Q 13.671875 62.703125 7.8125 59.421875 
L 7.8125 69.390625 
Q 13.765625 71.78125 18.9375 73 
Q 24.125 74.21875 28.421875 74.21875 
Q 39.75 74.21875 46.484375 68.546875 
Q 53.21875 62.890625 53.21875 53.421875 
Q 53.21875 48.921875 51.53125 44.890625 
Q 49.859375 40.875 45.40625 35.40625 
Q 44.1875 33.984375 37.640625 27.21875 
Q 31.109375 20.453125 19.1875 8.296875 
" id="BitstreamVeraSans-Roman-32"/>
      </defs>
      <g transform="translate(287.042405233 403.196875)scale(0.2 -0.2)">
       <use xlink:href="#BitstreamVeraSans-Roman-32"/>
      </g>
     </g>
    </g>
    <g id="xtick_4">
     <g id="line2d_47">
      <path clip-path="url(#p664bc7450f)" d="M 412.394858 384 
L 412.394858 7.678218 
" style="fill:none;stroke:#000000;stroke-dasharray:1.000000,3.000000;stroke-dashoffset:0.0;stroke-width:0.5;"/>
     </g>
     <g id="line2d_48">
      <g>
       <use style="stroke:#000000;stroke-width:0.5;" x="412.39485785" xlink:href="#m2a9b226453" y="384.0"/>
      </g>
     </g>
     <g id="line2d_49">
      <g>
       <use style="stroke:#000000;stroke-width:0.5;" x="412.39485785" xlink:href="#m5dbc8f0fd3" y="7.67821782178"/>
      </g>
     </g>
     <g id="text_4">
      <!-- 3 -->
      <defs>
       <path d="M 40.578125 39.3125 
Q 47.65625 37.796875 51.625 33 
Q 55.609375 28.21875 55.609375 21.1875 
Q 55.609375 10.40625 48.1875 4.484375 
Q 40.765625 -1.421875 27.09375 -1.421875 
Q 22.515625 -1.421875 17.65625 -0.515625 
Q 12.796875 0.390625 7.625 2.203125 
L 7.625 11.71875 
Q 11.71875 9.328125 16.59375 8.109375 
Q 21.484375 6.890625 26.8125 6.890625 
Q 36.078125 6.890625 40.9375 10.546875 
Q 45.796875 14.203125 45.796875 21.1875 
Q 45.796875 27.640625 41.28125 31.265625 
Q 36.765625 34.90625 28.71875 34.90625 
L 20.21875 34.90625 
L 20.21875 43.015625 
L 29.109375 43.015625 
Q 36.375 43.015625 40.234375 45.921875 
Q 44.09375 48.828125 44.09375 54.296875 
Q 44.09375 59.90625 40.109375 62.90625 
Q 36.140625 65.921875 28.71875 65.921875 
Q 24.65625 65.921875 20.015625 65.03125 
Q 15.375 64.15625 9.8125 62.3125 
L 9.8125 71.09375 
Q 15.4375 72.65625 20.34375 73.4375 
Q 25.25 74.21875 29.59375 74.21875 
Q 40.828125 74.21875 47.359375 69.109375 
Q 53.90625 64.015625 53.90625 55.328125 
Q 53.90625 49.265625 50.4375 45.09375 
Q 46.96875 40.921875 40.578125 39.3125 
" id="BitstreamVeraSans-Roman-33"/>
      </defs>
      <g transform="translate(406.03235785 403.196875)scale(0.2 -0.2)">
       <use xlink:href="#BitstreamVeraSans-Roman-33"/>
      </g>
     </g>
    </g>
    <g id="xtick_5">
     <g id="line2d_50">
      <path clip-path="url(#p664bc7450f)" d="M 531.38481 384 
L 531.38481 7.678218 
" style="fill:none;stroke:#000000;stroke-dasharray:1.000000,3.000000;stroke-dashoffset:0.0;stroke-width:0.5;"/>
     </g>
     <g id="line2d_51">
      <g>
       <use style="stroke:#000000;stroke-width:0.5;" x="531.384810467" xlink:href="#m2a9b226453" y="384.0"/>
      </g>
     </g>
     <g id="line2d_52">
      <g>
       <use style="stroke:#000000;stroke-width:0.5;" x="531.384810467" xlink:href="#m5dbc8f0fd3" y="7.67821782178"/>
      </g>
     </g>
     <g id="text_5">
      <!-- 4 -->
      <defs>
       <path d="M 37.796875 64.3125 
L 12.890625 25.390625 
L 37.796875 25.390625 
z
M 35.203125 72.90625 
L 47.609375 72.90625 
L 47.609375 25.390625 
L 58.015625 25.390625 
L 58.015625 17.1875 
L 47.609375 17.1875 
L 47.609375 0 
L 37.796875 0 
L 37.796875 17.1875 
L 4.890625 17.1875 
L 4.890625 26.703125 
z
" id="BitstreamVeraSans-Roman-34"/>
      </defs>
      <g transform="translate(525.022310467 403.196875)scale(0.2 -0.2)">
       <use xlink:href="#BitstreamVeraSans-Roman-34"/>
      </g>
     </g>
    </g>
    <g id="xtick_6">
     <g id="line2d_53">
      <defs>
       <path d="M 0 0 
L 0 -2 
" id="m7e21e74b57" style="stroke:#000000;stroke-width:0.5;"/>
      </defs>
      <g>
       <use style="stroke:#000000;stroke-width:0.5;" x="91.2445449203" xlink:href="#m7e21e74b57" y="384.0"/>
      </g>
     </g>
     <g id="line2d_54">
      <defs>
       <path d="M 0 0 
L 0 2 
" id="mef12a61a85" style="stroke:#000000;stroke-width:0.5;"/>
      </defs>
      <g>
       <use style="stroke:#000000;stroke-width:0.5;" x="91.2445449203" xlink:href="#mef12a61a85" y="7.67821782178"/>
      </g>
     </g>
    </g>
    <g id="xtick_7">
     <g id="line2d_55">
      <g>
       <use style="stroke:#000000;stroke-width:0.5;" x="112.197635491" xlink:href="#m7e21e74b57" y="384.0"/>
      </g>
     </g>
     <g id="line2d_56">
      <g>
       <use style="stroke:#000000;stroke-width:0.5;" x="112.197635491" xlink:href="#mef12a61a85" y="7.67821782178"/>
      </g>
     </g>
    </g>
    <g id="xtick_8">
     <g id="line2d_57">
      <g>
       <use style="stroke:#000000;stroke-width:0.5;" x="127.064089841" xlink:href="#m7e21e74b57" y="384.0"/>
      </g>
     </g>
     <g id="line2d_58">
      <g>
       <use style="stroke:#000000;stroke-width:0.5;" x="127.064089841" xlink:href="#mef12a61a85" y="7.67821782178"/>
      </g>
     </g>
    </g>
    <g id="xtick_9">
     <g id="line2d_59">
      <g>
       <use style="stroke:#000000;stroke-width:0.5;" x="138.595407696" xlink:href="#m7e21e74b57" y="384.0"/>
      </g>
     </g>
     <g id="line2d_60">
      <g>
       <use style="stroke:#000000;stroke-width:0.5;" x="138.595407696" xlink:href="#mef12a61a85" y="7.67821782178"/>
      </g>
     </g>
    </g>
    <g id="xtick_10">
     <g id="line2d_61">
      <g>
       <use style="stroke:#000000;stroke-width:0.5;" x="148.017180412" xlink:href="#m7e21e74b57" y="384.0"/>
      </g>
     </g>
     <g id="line2d_62">
      <g>
       <use style="stroke:#000000;stroke-width:0.5;" x="148.017180412" xlink:href="#mef12a61a85" y="7.67821782178"/>
      </g>
     </g>
    </g>
    <g id="xtick_11">
     <g id="line2d_63">
      <g>
       <use style="stroke:#000000;stroke-width:0.5;" x="155.983175738" xlink:href="#m7e21e74b57" y="384.0"/>
      </g>
     </g>
     <g id="line2d_64">
      <g>
       <use style="stroke:#000000;stroke-width:0.5;" x="155.983175738" xlink:href="#mef12a61a85" y="7.67821782178"/>
      </g>
     </g>
    </g>
    <g id="xtick_12">
     <g id="line2d_65">
      <g>
       <use style="stroke:#000000;stroke-width:0.5;" x="162.883634761" xlink:href="#m7e21e74b57" y="384.0"/>
      </g>
     </g>
     <g id="line2d_66">
      <g>
       <use style="stroke:#000000;stroke-width:0.5;" x="162.883634761" xlink:href="#mef12a61a85" y="7.67821782178"/>
      </g>
     </g>
    </g>
    <g id="xtick_13">
     <g id="line2d_67">
      <g>
       <use style="stroke:#000000;stroke-width:0.5;" x="168.970270983" xlink:href="#m7e21e74b57" y="384.0"/>
      </g>
     </g>
     <g id="line2d_68">
      <g>
       <use style="stroke:#000000;stroke-width:0.5;" x="168.970270983" xlink:href="#mef12a61a85" y="7.67821782178"/>
      </g>
     </g>
    </g>
    <g id="xtick_14">
     <g id="line2d_69">
      <g>
       <use style="stroke:#000000;stroke-width:0.5;" x="210.234497537" xlink:href="#m7e21e74b57" y="384.0"/>
      </g>
     </g>
     <g id="line2d_70">
      <g>
       <use style="stroke:#000000;stroke-width:0.5;" x="210.234497537" xlink:href="#mef12a61a85" y="7.67821782178"/>
      </g>
     </g>
    </g>
    <g id="xtick_15">
     <g id="line2d_71">
      <g>
       <use style="stroke:#000000;stroke-width:0.5;" x="231.187588108" xlink:href="#m7e21e74b57" y="384.0"/>
      </g>
     </g>
     <g id="line2d_72">
      <g>
       <use style="stroke:#000000;stroke-width:0.5;" x="231.187588108" xlink:href="#mef12a61a85" y="7.67821782178"/>
      </g>
     </g>
    </g>
    <g id="xtick_16">
     <g id="line2d_73">
      <g>
       <use style="stroke:#000000;stroke-width:0.5;" x="246.054042457" xlink:href="#m7e21e74b57" y="384.0"/>
      </g>
     </g>
     <g id="line2d_74">
      <g>
       <use style="stroke:#000000;stroke-width:0.5;" x="246.054042457" xlink:href="#mef12a61a85" y="7.67821782178"/>
      </g>
     </g>
    </g>
    <g id="xtick_17">
     <g id="line2d_75">
      <g>
       <use style="stroke:#000000;stroke-width:0.5;" x="257.585360313" xlink:href="#m7e21e74b57" y="384.0"/>
      </g>
     </g>
     <g id="line2d_76">
      <g>
       <use style="stroke:#000000;stroke-width:0.5;" x="257.585360313" xlink:href="#mef12a61a85" y="7.67821782178"/>
      </g>
     </g>
    </g>
    <g id="xtick_18">
     <g id="line2d_77">
      <g>
       <use style="stroke:#000000;stroke-width:0.5;" x="267.007133028" xlink:href="#m7e21e74b57" y="384.0"/>
      </g>
     </g>
     <g id="line2d_78">
      <g>
       <use style="stroke:#000000;stroke-width:0.5;" x="267.007133028" xlink:href="#mef12a61a85" y="7.67821782178"/>
      </g>
     </g>
    </g>
    <g id="xtick_19">
     <g id="line2d_79">
      <g>
       <use style="stroke:#000000;stroke-width:0.5;" x="274.973128354" xlink:href="#m7e21e74b57" y="384.0"/>
      </g>
     </g>
     <g id="line2d_80">
      <g>
       <use style="stroke:#000000;stroke-width:0.5;" x="274.973128354" xlink:href="#mef12a61a85" y="7.67821782178"/>
      </g>
     </g>
    </g>
    <g id="xtick_20">
     <g id="line2d_81">
      <g>
       <use style="stroke:#000000;stroke-width:0.5;" x="281.873587377" xlink:href="#m7e21e74b57" y="384.0"/>
      </g>
     </g>
     <g id="line2d_82">
      <g>
       <use style="stroke:#000000;stroke-width:0.5;" x="281.873587377" xlink:href="#mef12a61a85" y="7.67821782178"/>
      </g>
     </g>
    </g>
    <g id="xtick_21">
     <g id="line2d_83">
      <g>
       <use style="stroke:#000000;stroke-width:0.5;" x="287.9602236" xlink:href="#m7e21e74b57" y="384.0"/>
      </g>
     </g>
     <g id="line2d_84">
      <g>
       <use style="stroke:#000000;stroke-width:0.5;" x="287.9602236" xlink:href="#mef12a61a85" y="7.67821782178"/>
      </g>
     </g>
    </g>
    <g id="xtick_22">
     <g id="line2d_85">
      <g>
       <use style="stroke:#000000;stroke-width:0.5;" x="329.224450154" xlink:href="#m7e21e74b57" y="384.0"/>
      </g>
     </g>
     <g id="line2d_86">
      <g>
       <use style="stroke:#000000;stroke-width:0.5;" x="329.224450154" xlink:href="#mef12a61a85" y="7.67821782178"/>
      </g>
     </g>
    </g>
    <g id="xtick_23">
     <g id="line2d_87">
      <g>
       <use style="stroke:#000000;stroke-width:0.5;" x="350.177540725" xlink:href="#m7e21e74b57" y="384.0"/>
      </g>
     </g>
     <g id="line2d_88">
      <g>
       <use style="stroke:#000000;stroke-width:0.5;" x="350.177540725" xlink:href="#mef12a61a85" y="7.67821782178"/>
      </g>
     </g>
    </g>
    <g id="xtick_24">
     <g id="line2d_89">
      <g>
       <use style="stroke:#000000;stroke-width:0.5;" x="365.043995074" xlink:href="#m7e21e74b57" y="384.0"/>
      </g>
     </g>
     <g id="line2d_90">
      <g>
       <use style="stroke:#000000;stroke-width:0.5;" x="365.043995074" xlink:href="#mef12a61a85" y="7.67821782178"/>
      </g>
     </g>
    </g>
    <g id="xtick_25">
     <g id="line2d_91">
      <g>
       <use style="stroke:#000000;stroke-width:0.5;" x="376.57531293" xlink:href="#m7e21e74b57" y="384.0"/>
      </g>
     </g>
     <g id="line2d_92">
      <g>
       <use style="stroke:#000000;stroke-width:0.5;" x="376.57531293" xlink:href="#mef12a61a85" y="7.67821782178"/>
      </g>
     </g>
    </g>
    <g id="xtick_26">
     <g id="line2d_93">
      <g>
       <use style="stroke:#000000;stroke-width:0.5;" x="385.997085645" xlink:href="#m7e21e74b57" y="384.0"/>
      </g>
     </g>
     <g id="line2d_94">
      <g>
       <use style="stroke:#000000;stroke-width:0.5;" x="385.997085645" xlink:href="#mef12a61a85" y="7.67821782178"/>
      </g>
     </g>
    </g>
    <g id="xtick_27">
     <g id="line2d_95">
      <g>
       <use style="stroke:#000000;stroke-width:0.5;" x="393.963080971" xlink:href="#m7e21e74b57" y="384.0"/>
      </g>
     </g>
     <g id="line2d_96">
      <g>
       <use style="stroke:#000000;stroke-width:0.5;" x="393.963080971" xlink:href="#mef12a61a85" y="7.67821782178"/>
      </g>
     </g>
    </g>
    <g id="xtick_28">
     <g id="line2d_97">
      <g>
       <use style="stroke:#000000;stroke-width:0.5;" x="400.863539994" xlink:href="#m7e21e74b57" y="384.0"/>
      </g>
     </g>
     <g id="line2d_98">
      <g>
       <use style="stroke:#000000;stroke-width:0.5;" x="400.863539994" xlink:href="#mef12a61a85" y="7.67821782178"/>
      </g>
     </g>
    </g>
    <g id="xtick_29">
     <g id="line2d_99">
      <g>
       <use style="stroke:#000000;stroke-width:0.5;" x="406.950176216" xlink:href="#m7e21e74b57" y="384.0"/>
      </g>
     </g>
     <g id="line2d_100">
      <g>
       <use style="stroke:#000000;stroke-width:0.5;" x="406.950176216" xlink:href="#mef12a61a85" y="7.67821782178"/>
      </g>
     </g>
    </g>
    <g id="xtick_30">
     <g id="line2d_101">
      <g>
       <use style="stroke:#000000;stroke-width:0.5;" x="448.21440277" xlink:href="#m7e21e74b57" y="384.0"/>
      </g>
     </g>
     <g id="line2d_102">
      <g>
       <use style="stroke:#000000;stroke-width:0.5;" x="448.21440277" xlink:href="#mef12a61a85" y="7.67821782178"/>
      </g>
     </g>
    </g>
    <g id="xtick_31">
     <g id="line2d_103">
      <g>
       <use style="stroke:#000000;stroke-width:0.5;" x="469.167493341" xlink:href="#m7e21e74b57" y="384.0"/>
      </g>
     </g>
     <g id="line2d_104">
      <g>
       <use style="stroke:#000000;stroke-width:0.5;" x="469.167493341" xlink:href="#mef12a61a85" y="7.67821782178"/>
      </g>
     </g>
    </g>
    <g id="xtick_32">
     <g id="line2d_105">
      <g>
       <use style="stroke:#000000;stroke-width:0.5;" x="484.03394769" xlink:href="#m7e21e74b57" y="384.0"/>
      </g>
     </g>
     <g id="line2d_106">
      <g>
       <use style="stroke:#000000;stroke-width:0.5;" x="484.03394769" xlink:href="#mef12a61a85" y="7.67821782178"/>
      </g>
     </g>
    </g>
    <g id="xtick_33">
     <g id="line2d_107">
      <g>
       <use style="stroke:#000000;stroke-width:0.5;" x="495.565265546" xlink:href="#m7e21e74b57" y="384.0"/>
      </g>
     </g>
     <g id="line2d_108">
      <g>
       <use style="stroke:#000000;stroke-width:0.5;" x="495.565265546" xlink:href="#mef12a61a85" y="7.67821782178"/>
      </g>
     </g>
    </g>
    <g id="xtick_34">
     <g id="line2d_109">
      <g>
       <use style="stroke:#000000;stroke-width:0.5;" x="504.987038262" xlink:href="#m7e21e74b57" y="384.0"/>
      </g>
     </g>
     <g id="line2d_110">
      <g>
       <use style="stroke:#000000;stroke-width:0.5;" x="504.987038262" xlink:href="#mef12a61a85" y="7.67821782178"/>
      </g>
     </g>
    </g>
    <g id="xtick_35">
     <g id="line2d_111">
      <g>
       <use style="stroke:#000000;stroke-width:0.5;" x="512.953033588" xlink:href="#m7e21e74b57" y="384.0"/>
      </g>
     </g>
     <g id="line2d_112">
      <g>
       <use style="stroke:#000000;stroke-width:0.5;" x="512.953033588" xlink:href="#mef12a61a85" y="7.67821782178"/>
      </g>
     </g>
    </g>
    <g id="xtick_36">
     <g id="line2d_113">
      <g>
       <use style="stroke:#000000;stroke-width:0.5;" x="519.853492611" xlink:href="#m7e21e74b57" y="384.0"/>
      </g>
     </g>
     <g id="line2d_114">
      <g>
       <use style="stroke:#000000;stroke-width:0.5;" x="519.853492611" xlink:href="#mef12a61a85" y="7.67821782178"/>
      </g>
     </g>
    </g>
    <g id="xtick_37">
     <g id="line2d_115">
      <g>
       <use style="stroke:#000000;stroke-width:0.5;" x="525.940128833" xlink:href="#m7e21e74b57" y="384.0"/>
      </g>
     </g>
     <g id="line2d_116">
      <g>
       <use style="stroke:#000000;stroke-width:0.5;" x="525.940128833" xlink:href="#mef12a61a85" y="7.67821782178"/>
      </g>
     </g>
    </g>
    <g id="xtick_38">
     <g id="line2d_117">
      <g>
       <use style="stroke:#000000;stroke-width:0.5;" x="567.204355387" xlink:href="#m7e21e74b57" y="384.0"/>
      </g>
     </g>
     <g id="line2d_118">
      <g>
       <use style="stroke:#000000;stroke-width:0.5;" x="567.204355387" xlink:href="#mef12a61a85" y="7.67821782178"/>
      </g>
     </g>
    </g>
    <g id="text_6">
     <!-- log10 of FEvals / DIM -->
     <defs>
      <path id="BitstreamVeraSans-Roman-20"/>
      <path d="M 9.8125 72.90625 
L 24.515625 72.90625 
L 43.109375 23.296875 
L 61.8125 72.90625 
L 76.515625 72.90625 
L 76.515625 0 
L 66.890625 0 
L 66.890625 64.015625 
L 48.09375 14.015625 
L 38.1875 14.015625 
L 19.390625 64.015625 
L 19.390625 0 
L 9.8125 0 
z
" id="BitstreamVeraSans-Roman-4d"/>
      <path d="M 30.609375 48.390625 
Q 23.390625 48.390625 19.1875 42.75 
Q 14.984375 37.109375 14.984375 27.296875 
Q 14.984375 17.484375 19.15625 11.84375 
Q 23.34375 6.203125 30.609375 6.203125 
Q 37.796875 6.203125 41.984375 11.859375 
Q 46.1875 17.53125 46.1875 27.296875 
Q 46.1875 37.015625 41.984375 42.703125 
Q 37.796875 48.390625 30.609375 48.390625 
M 30.609375 56 
Q 42.328125 56 49.015625 48.375 
Q 55.71875 40.765625 55.71875 27.296875 
Q 55.71875 13.875 49.015625 6.21875 
Q 42.328125 -1.421875 30.609375 -1.421875 
Q 18.84375 -1.421875 12.171875 6.21875 
Q 5.515625 13.875 5.515625 27.296875 
Q 5.515625 40.765625 12.171875 48.375 
Q 18.84375 56 30.609375 56 
" id="BitstreamVeraSans-Roman-6f"/>
      <path d="M 9.421875 75.984375 
L 18.40625 75.984375 
L 18.40625 0 
L 9.421875 0 
z
" id="BitstreamVeraSans-Roman-6c"/>
      <path d="M 9.8125 72.90625 
L 51.703125 72.90625 
L 51.703125 64.59375 
L 19.671875 64.59375 
L 19.671875 43.109375 
L 48.578125 43.109375 
L 48.578125 34.8125 
L 19.671875 34.8125 
L 19.671875 0 
L 9.8125 0 
z
" id="BitstreamVeraSans-Roman-46"/>
      <path d="M 9.8125 72.90625 
L 55.90625 72.90625 
L 55.90625 64.59375 
L 19.671875 64.59375 
L 19.671875 43.015625 
L 54.390625 43.015625 
L 54.390625 34.71875 
L 19.671875 34.71875 
L 19.671875 8.296875 
L 56.78125 8.296875 
L 56.78125 0 
L 9.8125 0 
z
" id="BitstreamVeraSans-Roman-45"/>
      <path d="M 19.671875 64.796875 
L 19.671875 8.109375 
L 31.59375 8.109375 
Q 46.6875 8.109375 53.6875 14.9375 
Q 60.6875 21.78125 60.6875 36.53125 
Q 60.6875 51.171875 53.6875 57.984375 
Q 46.6875 64.796875 31.59375 64.796875 
z
M 9.8125 72.90625 
L 30.078125 72.90625 
Q 51.265625 72.90625 61.171875 64.09375 
Q 71.09375 55.28125 71.09375 36.53125 
Q 71.09375 17.671875 61.125 8.828125 
Q 51.171875 0 30.078125 0 
L 9.8125 0 
z
" id="BitstreamVeraSans-Roman-44"/>
      <path d="M 25.390625 72.90625 
L 33.6875 72.90625 
L 8.296875 -9.28125 
L 0 -9.28125 
z
" id="BitstreamVeraSans-Roman-2f"/>
      <path d="M 2.984375 54.6875 
L 12.5 54.6875 
L 29.59375 8.796875 
L 46.6875 54.6875 
L 56.203125 54.6875 
L 35.6875 0 
L 23.484375 0 
z
" id="BitstreamVeraSans-Roman-76"/>
      <path d="M 45.40625 27.984375 
Q 45.40625 37.75 41.375 43.109375 
Q 37.359375 48.484375 30.078125 48.484375 
Q 22.859375 48.484375 18.828125 43.109375 
Q 14.796875 37.75 14.796875 27.984375 
Q 14.796875 18.265625 18.828125 12.890625 
Q 22.859375 7.515625 30.078125 7.515625 
Q 37.359375 7.515625 41.375 12.890625 
Q 45.40625 18.265625 45.40625 27.984375 
M 54.390625 6.78125 
Q 54.390625 -7.171875 48.1875 -13.984375 
Q 42 -20.796875 29.203125 -20.796875 
Q 24.46875 -20.796875 20.265625 -20.09375 
Q 16.0625 -19.390625 12.109375 -17.921875 
L 12.109375 -9.1875 
Q 16.0625 -11.328125 19.921875 -12.34375 
Q 23.78125 -13.375 27.78125 -13.375 
Q 36.625 -13.375 41.015625 -8.765625 
Q 45.40625 -4.15625 45.40625 5.171875 
L 45.40625 9.625 
Q 42.625 4.78125 38.28125 2.390625 
Q 33.9375 0 27.875 0 
Q 17.828125 0 11.671875 7.65625 
Q 5.515625 15.328125 5.515625 27.984375 
Q 5.515625 40.671875 11.671875 48.328125 
Q 17.828125 56 27.875 56 
Q 33.9375 56 38.28125 53.609375 
Q 42.625 51.21875 45.40625 46.390625 
L 45.40625 54.6875 
L 54.390625 54.6875 
z
" id="BitstreamVeraSans-Roman-67"/>
      <path d="M 37.109375 75.984375 
L 37.109375 68.5 
L 28.515625 68.5 
Q 23.6875 68.5 21.796875 66.546875 
Q 19.921875 64.59375 19.921875 59.515625 
L 19.921875 54.6875 
L 34.71875 54.6875 
L 34.71875 47.703125 
L 19.921875 47.703125 
L 19.921875 0 
L 10.890625 0 
L 10.890625 47.703125 
L 2.296875 47.703125 
L 2.296875 54.6875 
L 10.890625 54.6875 
L 10.890625 58.5 
Q 10.890625 67.625 15.140625 71.796875 
Q 19.390625 75.984375 28.609375 75.984375 
z
" id="BitstreamVeraSans-Roman-66"/>
      <path d="M 34.28125 27.484375 
Q 23.390625 27.484375 19.1875 25 
Q 14.984375 22.515625 14.984375 16.5 
Q 14.984375 11.71875 18.140625 8.90625 
Q 21.296875 6.109375 26.703125 6.109375 
Q 34.1875 6.109375 38.703125 11.40625 
Q 43.21875 16.703125 43.21875 25.484375 
L 43.21875 27.484375 
z
M 52.203125 31.203125 
L 52.203125 0 
L 43.21875 0 
L 43.21875 8.296875 
Q 40.140625 3.328125 35.546875 0.953125 
Q 30.953125 -1.421875 24.3125 -1.421875 
Q 15.921875 -1.421875 10.953125 3.296875 
Q 6 8.015625 6 15.921875 
Q 6 25.140625 12.171875 29.828125 
Q 18.359375 34.515625 30.609375 34.515625 
L 43.21875 34.515625 
L 43.21875 35.40625 
Q 43.21875 41.609375 39.140625 45 
Q 35.0625 48.390625 27.6875 48.390625 
Q 23 48.390625 18.546875 47.265625 
Q 14.109375 46.140625 10.015625 43.890625 
L 10.015625 52.203125 
Q 14.9375 54.109375 19.578125 55.046875 
Q 24.21875 56 28.609375 56 
Q 40.484375 56 46.34375 49.84375 
Q 52.203125 43.703125 52.203125 31.203125 
" id="BitstreamVeraSans-Roman-61"/>
      <path d="M 44.28125 53.078125 
L 44.28125 44.578125 
Q 40.484375 46.53125 36.375 47.5 
Q 32.28125 48.484375 27.875 48.484375 
Q 21.1875 48.484375 17.84375 46.4375 
Q 14.5 44.390625 14.5 40.28125 
Q 14.5 37.15625 16.890625 35.375 
Q 19.28125 33.59375 26.515625 31.984375 
L 29.59375 31.296875 
Q 39.15625 29.25 43.1875 25.515625 
Q 47.21875 21.78125 47.21875 15.09375 
Q 47.21875 7.46875 41.1875 3.015625 
Q 35.15625 -1.421875 24.609375 -1.421875 
Q 20.21875 -1.421875 15.453125 -0.5625 
Q 10.6875 0.296875 5.421875 2 
L 5.421875 11.28125 
Q 10.40625 8.6875 15.234375 7.390625 
Q 20.0625 6.109375 24.8125 6.109375 
Q 31.15625 6.109375 34.5625 8.28125 
Q 37.984375 10.453125 37.984375 14.40625 
Q 37.984375 18.0625 35.515625 20.015625 
Q 33.0625 21.96875 24.703125 23.78125 
L 21.578125 24.515625 
Q 13.234375 26.265625 9.515625 29.90625 
Q 5.8125 33.546875 5.8125 39.890625 
Q 5.8125 47.609375 11.28125 51.796875 
Q 16.75 56 26.8125 56 
Q 31.78125 56 36.171875 55.265625 
Q 40.578125 54.546875 44.28125 53.078125 
" id="BitstreamVeraSans-Roman-73"/>
      <path d="M 9.8125 72.90625 
L 19.671875 72.90625 
L 19.671875 0 
L 9.8125 0 
z
" id="BitstreamVeraSans-Roman-49"/>
     </defs>
     <g transform="translate(206.2590625 427.553125)scale(0.2 -0.2)">
      <use xlink:href="#BitstreamVeraSans-Roman-6c"/>
      <use x="27.783203125" xlink:href="#BitstreamVeraSans-Roman-6f"/>
      <use x="88.96484375" xlink:href="#BitstreamVeraSans-Roman-67"/>
      <use x="152.44140625" xlink:href="#BitstreamVeraSans-Roman-31"/>
      <use x="216.064453125" xlink:href="#BitstreamVeraSans-Roman-30"/>
      <use x="279.6875" xlink:href="#BitstreamVeraSans-Roman-20"/>
      <use x="311.474609375" xlink:href="#BitstreamVeraSans-Roman-6f"/>
      <use x="372.65625" xlink:href="#BitstreamVeraSans-Roman-66"/>
      <use x="407.861328125" xlink:href="#BitstreamVeraSans-Roman-20"/>
      <use x="439.6484375" xlink:href="#BitstreamVeraSans-Roman-46"/>
      <use x="497.16796875" xlink:href="#BitstreamVeraSans-Roman-45"/>
      <use x="560.3515625" xlink:href="#BitstreamVeraSans-Roman-76"/>
      <use x="619.53125" xlink:href="#BitstreamVeraSans-Roman-61"/>
      <use x="680.810546875" xlink:href="#BitstreamVeraSans-Roman-6c"/>
      <use x="708.59375" xlink:href="#BitstreamVeraSans-Roman-73"/>
      <use x="760.693359375" xlink:href="#BitstreamVeraSans-Roman-20"/>
      <use x="792.48046875" xlink:href="#BitstreamVeraSans-Roman-2f"/>
      <use x="826.171875" xlink:href="#BitstreamVeraSans-Roman-20"/>
      <use x="857.958984375" xlink:href="#BitstreamVeraSans-Roman-44"/>
      <use x="934.9609375" xlink:href="#BitstreamVeraSans-Roman-49"/>
      <use x="964.453125" xlink:href="#BitstreamVeraSans-Roman-4d"/>
     </g>
    </g>
   </g>
   <g id="matplotlib.axis_2">
    <g id="ytick_1">
     <g id="line2d_119">
      <path clip-path="url(#p664bc7450f)" d="M 55.425 384 
L 567.24 384 
" style="fill:none;stroke:#000000;stroke-dasharray:1.000000,3.000000;stroke-dashoffset:0.0;stroke-width:0.5;"/>
     </g>
     <g id="line2d_120">
      <defs>
       <path d="M 0 0 
L 4 0 
" id="m63cdd89781" style="stroke:#000000;stroke-width:0.5;"/>
      </defs>
      <g>
       <use style="stroke:#000000;stroke-width:0.5;" x="55.425" xlink:href="#m63cdd89781" y="384.0"/>
      </g>
     </g>
     <g id="line2d_121">
      <defs>
       <path d="M 0 0 
L -4 0 
" id="md1bfaf6a00" style="stroke:#000000;stroke-width:0.5;"/>
      </defs>
      <g>
       <use style="stroke:#000000;stroke-width:0.5;" x="567.24" xlink:href="#md1bfaf6a00" y="384.0"/>
      </g>
     </g>
     <g id="text_7">
      <!-- 0.0 -->
      <defs>
       <path d="M 10.6875 12.40625 
L 21 12.40625 
L 21 0 
L 10.6875 0 
z
" id="BitstreamVeraSans-Roman-2e"/>
      </defs>
      <g transform="translate(25.98 388.415)scale(0.16 -0.16)">
       <use xlink:href="#BitstreamVeraSans-Roman-30"/>
       <use x="63.623046875" xlink:href="#BitstreamVeraSans-Roman-2e"/>
       <use x="95.41015625" xlink:href="#BitstreamVeraSans-Roman-30"/>
      </g>
     </g>
    </g>
    <g id="ytick_2">
     <g id="line2d_122">
      <path clip-path="url(#p664bc7450f)" d="M 55.425 309.480835 
L 567.24 309.480835 
" style="fill:none;stroke:#000000;stroke-dasharray:1.000000,3.000000;stroke-dashoffset:0.0;stroke-width:0.5;"/>
     </g>
     <g id="line2d_123">
      <g>
       <use style="stroke:#000000;stroke-width:0.5;" x="55.425" xlink:href="#m63cdd89781" y="309.480835212"/>
      </g>
     </g>
     <g id="line2d_124">
      <g>
       <use style="stroke:#000000;stroke-width:0.5;" x="567.24" xlink:href="#md1bfaf6a00" y="309.480835212"/>
      </g>
     </g>
     <g id="text_8">
      <!-- 0.2 -->
      <g transform="translate(25.98 313.895835212)scale(0.16 -0.16)">
       <use xlink:href="#BitstreamVeraSans-Roman-30"/>
       <use x="63.623046875" xlink:href="#BitstreamVeraSans-Roman-2e"/>
       <use x="95.41015625" xlink:href="#BitstreamVeraSans-Roman-32"/>
      </g>
     </g>
    </g>
    <g id="ytick_3">
     <g id="line2d_125">
      <path clip-path="url(#p664bc7450f)" d="M 55.425 234.96167 
L 567.24 234.96167 
" style="fill:none;stroke:#000000;stroke-dasharray:1.000000,3.000000;stroke-dashoffset:0.0;stroke-width:0.5;"/>
     </g>
     <g id="line2d_126">
      <g>
       <use style="stroke:#000000;stroke-width:0.5;" x="55.425" xlink:href="#m63cdd89781" y="234.961670424"/>
      </g>
     </g>
     <g id="line2d_127">
      <g>
       <use style="stroke:#000000;stroke-width:0.5;" x="567.24" xlink:href="#md1bfaf6a00" y="234.961670424"/>
      </g>
     </g>
     <g id="text_9">
      <!-- 0.4 -->
      <g transform="translate(25.98 239.376670424)scale(0.16 -0.16)">
       <use xlink:href="#BitstreamVeraSans-Roman-30"/>
       <use x="63.623046875" xlink:href="#BitstreamVeraSans-Roman-2e"/>
       <use x="95.41015625" xlink:href="#BitstreamVeraSans-Roman-34"/>
      </g>
     </g>
    </g>
    <g id="ytick_4">
     <g id="line2d_128">
      <path clip-path="url(#p664bc7450f)" d="M 55.425 160.442506 
L 567.24 160.442506 
" style="fill:none;stroke:#000000;stroke-dasharray:1.000000,3.000000;stroke-dashoffset:0.0;stroke-width:0.5;"/>
     </g>
     <g id="line2d_129">
      <g>
       <use style="stroke:#000000;stroke-width:0.5;" x="55.425" xlink:href="#m63cdd89781" y="160.442505637"/>
      </g>
     </g>
     <g id="line2d_130">
      <g>
       <use style="stroke:#000000;stroke-width:0.5;" x="567.24" xlink:href="#md1bfaf6a00" y="160.442505637"/>
      </g>
     </g>
     <g id="text_10">
      <!-- 0.6 -->
      <defs>
       <path d="M 33.015625 40.375 
Q 26.375 40.375 22.484375 35.828125 
Q 18.609375 31.296875 18.609375 23.390625 
Q 18.609375 15.53125 22.484375 10.953125 
Q 26.375 6.390625 33.015625 6.390625 
Q 39.65625 6.390625 43.53125 10.953125 
Q 47.40625 15.53125 47.40625 23.390625 
Q 47.40625 31.296875 43.53125 35.828125 
Q 39.65625 40.375 33.015625 40.375 
M 52.59375 71.296875 
L 52.59375 62.3125 
Q 48.875 64.0625 45.09375 64.984375 
Q 41.3125 65.921875 37.59375 65.921875 
Q 27.828125 65.921875 22.671875 59.328125 
Q 17.53125 52.734375 16.796875 39.40625 
Q 19.671875 43.65625 24.015625 45.921875 
Q 28.375 48.1875 33.59375 48.1875 
Q 44.578125 48.1875 50.953125 41.515625 
Q 57.328125 34.859375 57.328125 23.390625 
Q 57.328125 12.15625 50.6875 5.359375 
Q 44.046875 -1.421875 33.015625 -1.421875 
Q 20.359375 -1.421875 13.671875 8.265625 
Q 6.984375 17.96875 6.984375 36.375 
Q 6.984375 53.65625 15.1875 63.9375 
Q 23.390625 74.21875 37.203125 74.21875 
Q 40.921875 74.21875 44.703125 73.484375 
Q 48.484375 72.75 52.59375 71.296875 
" id="BitstreamVeraSans-Roman-36"/>
      </defs>
      <g transform="translate(25.98 164.857505637)scale(0.16 -0.16)">
       <use xlink:href="#BitstreamVeraSans-Roman-30"/>
       <use x="63.623046875" xlink:href="#BitstreamVeraSans-Roman-2e"/>
       <use x="95.41015625" xlink:href="#BitstreamVeraSans-Roman-36"/>
      </g>
     </g>
    </g>
    <g id="ytick_5">
     <g id="line2d_131">
      <path clip-path="url(#p664bc7450f)" d="M 55.425 85.923341 
L 567.24 85.923341 
" style="fill:none;stroke:#000000;stroke-dasharray:1.000000,3.000000;stroke-dashoffset:0.0;stroke-width:0.5;"/>
     </g>
     <g id="line2d_132">
      <g>
       <use style="stroke:#000000;stroke-width:0.5;" x="55.425" xlink:href="#m63cdd89781" y="85.9233408489"/>
      </g>
     </g>
     <g id="line2d_133">
      <g>
       <use style="stroke:#000000;stroke-width:0.5;" x="567.24" xlink:href="#md1bfaf6a00" y="85.9233408489"/>
      </g>
     </g>
     <g id="text_11">
      <!-- 0.8 -->
      <defs>
       <path d="M 31.78125 34.625 
Q 24.75 34.625 20.71875 30.859375 
Q 16.703125 27.09375 16.703125 20.515625 
Q 16.703125 13.921875 20.71875 10.15625 
Q 24.75 6.390625 31.78125 6.390625 
Q 38.8125 6.390625 42.859375 10.171875 
Q 46.921875 13.96875 46.921875 20.515625 
Q 46.921875 27.09375 42.890625 30.859375 
Q 38.875 34.625 31.78125 34.625 
M 21.921875 38.8125 
Q 15.578125 40.375 12.03125 44.71875 
Q 8.5 49.078125 8.5 55.328125 
Q 8.5 64.0625 14.71875 69.140625 
Q 20.953125 74.21875 31.78125 74.21875 
Q 42.671875 74.21875 48.875 69.140625 
Q 55.078125 64.0625 55.078125 55.328125 
Q 55.078125 49.078125 51.53125 44.71875 
Q 48 40.375 41.703125 38.8125 
Q 48.828125 37.15625 52.796875 32.3125 
Q 56.78125 27.484375 56.78125 20.515625 
Q 56.78125 9.90625 50.3125 4.234375 
Q 43.84375 -1.421875 31.78125 -1.421875 
Q 19.734375 -1.421875 13.25 4.234375 
Q 6.78125 9.90625 6.78125 20.515625 
Q 6.78125 27.484375 10.78125 32.3125 
Q 14.796875 37.15625 21.921875 38.8125 
M 18.3125 54.390625 
Q 18.3125 48.734375 21.84375 45.5625 
Q 25.390625 42.390625 31.78125 42.390625 
Q 38.140625 42.390625 41.71875 45.5625 
Q 45.3125 48.734375 45.3125 54.390625 
Q 45.3125 60.0625 41.71875 63.234375 
Q 38.140625 66.40625 31.78125 66.40625 
Q 25.390625 66.40625 21.84375 63.234375 
Q 18.3125 60.0625 18.3125 54.390625 
" id="BitstreamVeraSans-Roman-38"/>
      </defs>
      <g transform="translate(25.98 90.3383408489)scale(0.16 -0.16)">
       <use xlink:href="#BitstreamVeraSans-Roman-30"/>
       <use x="63.623046875" xlink:href="#BitstreamVeraSans-Roman-2e"/>
       <use x="95.41015625" xlink:href="#BitstreamVeraSans-Roman-38"/>
      </g>
     </g>
    </g>
    <g id="ytick_6">
     <g id="line2d_134">
      <path clip-path="url(#p664bc7450f)" d="M 55.425 11.404176 
L 567.24 11.404176 
" style="fill:none;stroke:#000000;stroke-dasharray:1.000000,3.000000;stroke-dashoffset:0.0;stroke-width:0.5;"/>
     </g>
     <g id="line2d_135">
      <g>
       <use style="stroke:#000000;stroke-width:0.5;" x="55.425" xlink:href="#m63cdd89781" y="11.4041760612"/>
      </g>
     </g>
     <g id="line2d_136">
      <g>
       <use style="stroke:#000000;stroke-width:0.5;" x="567.24" xlink:href="#md1bfaf6a00" y="11.4041760612"/>
      </g>
     </g>
     <g id="text_12">
      <!-- 1.0 -->
      <g transform="translate(25.98 15.8191760612)scale(0.16 -0.16)">
       <use xlink:href="#BitstreamVeraSans-Roman-31"/>
       <use x="63.623046875" xlink:href="#BitstreamVeraSans-Roman-2e"/>
       <use x="95.41015625" xlink:href="#BitstreamVeraSans-Roman-30"/>
      </g>
     </g>
    </g>
    <g id="text_13">
     <!-- proportion of trials -->
     <defs>
      <path d="M 54.890625 33.015625 
L 54.890625 0 
L 45.90625 0 
L 45.90625 32.71875 
Q 45.90625 40.484375 42.875 44.328125 
Q 39.84375 48.1875 33.796875 48.1875 
Q 26.515625 48.1875 22.3125 43.546875 
Q 18.109375 38.921875 18.109375 30.90625 
L 18.109375 0 
L 9.078125 0 
L 9.078125 54.6875 
L 18.109375 54.6875 
L 18.109375 46.1875 
Q 21.34375 51.125 25.703125 53.5625 
Q 30.078125 56 35.796875 56 
Q 45.21875 56 50.046875 50.171875 
Q 54.890625 44.34375 54.890625 33.015625 
" id="BitstreamVeraSans-Roman-6e"/>
      <path d="M 9.421875 54.6875 
L 18.40625 54.6875 
L 18.40625 0 
L 9.421875 0 
z
M 9.421875 75.984375 
L 18.40625 75.984375 
L 18.40625 64.59375 
L 9.421875 64.59375 
z
" id="BitstreamVeraSans-Roman-69"/>
      <path d="M 18.3125 70.21875 
L 18.3125 54.6875 
L 36.8125 54.6875 
L 36.8125 47.703125 
L 18.3125 47.703125 
L 18.3125 18.015625 
Q 18.3125 11.328125 20.140625 9.421875 
Q 21.96875 7.515625 27.59375 7.515625 
L 36.8125 7.515625 
L 36.8125 0 
L 27.59375 0 
Q 17.1875 0 13.234375 3.875 
Q 9.28125 7.765625 9.28125 18.015625 
L 9.28125 47.703125 
L 2.6875 47.703125 
L 2.6875 54.6875 
L 9.28125 54.6875 
L 9.28125 70.21875 
z
" id="BitstreamVeraSans-Roman-74"/>
      <path d="M 41.109375 46.296875 
Q 39.59375 47.171875 37.8125 47.578125 
Q 36.03125 48 33.890625 48 
Q 26.265625 48 22.1875 43.046875 
Q 18.109375 38.09375 18.109375 28.8125 
L 18.109375 0 
L 9.078125 0 
L 9.078125 54.6875 
L 18.109375 54.6875 
L 18.109375 46.1875 
Q 20.953125 51.171875 25.484375 53.578125 
Q 30.03125 56 36.53125 56 
Q 37.453125 56 38.578125 55.875 
Q 39.703125 55.765625 41.0625 55.515625 
z
" id="BitstreamVeraSans-Roman-72"/>
      <path d="M 18.109375 8.203125 
L 18.109375 -20.796875 
L 9.078125 -20.796875 
L 9.078125 54.6875 
L 18.109375 54.6875 
L 18.109375 46.390625 
Q 20.953125 51.265625 25.265625 53.625 
Q 29.59375 56 35.59375 56 
Q 45.5625 56 51.78125 48.09375 
Q 58.015625 40.1875 58.015625 27.296875 
Q 58.015625 14.40625 51.78125 6.484375 
Q 45.5625 -1.421875 35.59375 -1.421875 
Q 29.59375 -1.421875 25.265625 0.953125 
Q 20.953125 3.328125 18.109375 8.203125 
M 48.6875 27.296875 
Q 48.6875 37.203125 44.609375 42.84375 
Q 40.53125 48.484375 33.40625 48.484375 
Q 26.265625 48.484375 22.1875 42.84375 
Q 18.109375 37.203125 18.109375 27.296875 
Q 18.109375 17.390625 22.1875 11.75 
Q 26.265625 6.109375 33.40625 6.109375 
Q 40.53125 6.109375 44.609375 11.75 
Q 48.6875 17.390625 48.6875 27.296875 
" id="BitstreamVeraSans-Roman-70"/>
     </defs>
     <g transform="translate(16.820625 289.067233911)rotate(-90.0)scale(0.2 -0.2)">
      <use xlink:href="#BitstreamVeraSans-Roman-70"/>
      <use x="63.4765625" xlink:href="#BitstreamVeraSans-Roman-72"/>
      <use x="104.55859375" xlink:href="#BitstreamVeraSans-Roman-6f"/>
      <use x="165.740234375" xlink:href="#BitstreamVeraSans-Roman-70"/>
      <use x="229.216796875" xlink:href="#BitstreamVeraSans-Roman-6f"/>
      <use x="290.3984375" xlink:href="#BitstreamVeraSans-Roman-72"/>
      <use x="331.51171875" xlink:href="#BitstreamVeraSans-Roman-74"/>
      <use x="370.720703125" xlink:href="#BitstreamVeraSans-Roman-69"/>
      <use x="398.50390625" xlink:href="#BitstreamVeraSans-Roman-6f"/>
      <use x="459.685546875" xlink:href="#BitstreamVeraSans-Roman-6e"/>
      <use x="523.064453125" xlink:href="#BitstreamVeraSans-Roman-20"/>
      <use x="554.8515625" xlink:href="#BitstreamVeraSans-Roman-6f"/>
      <use x="616.033203125" xlink:href="#BitstreamVeraSans-Roman-66"/>
      <use x="651.23828125" xlink:href="#BitstreamVeraSans-Roman-20"/>
      <use x="683.025390625" xlink:href="#BitstreamVeraSans-Roman-74"/>
      <use x="722.234375" xlink:href="#BitstreamVeraSans-Roman-72"/>
      <use x="763.34765625" xlink:href="#BitstreamVeraSans-Roman-69"/>
      <use x="791.130859375" xlink:href="#BitstreamVeraSans-Roman-61"/>
      <use x="852.41015625" xlink:href="#BitstreamVeraSans-Roman-6c"/>
      <use x="880.193359375" xlink:href="#BitstreamVeraSans-Roman-73"/>
     </g>
    </g>
   </g>
   <g id="text_14">
    <!-- {f20-f24}, 5-D -->
    <defs>
     <path d="M 11.71875 12.40625 
L 22.015625 12.40625 
L 22.015625 4 
L 14.015625 -11.625 
L 7.71875 -11.625 
L 11.71875 4 
z
" id="BitstreamVeraSans-Roman-2c"/>
     <path d="M 12.5 -9.28125 
L 15.921875 -9.28125 
Q 22.75 -9.28125 24.828125 -7.171875 
Q 26.90625 -5.078125 26.90625 1.90625 
L 26.90625 14.015625 
Q 26.90625 21.625 29.09375 25.09375 
Q 31.296875 28.5625 36.71875 29.890625 
Q 31.296875 31.109375 29.09375 34.5625 
Q 26.90625 38.03125 26.90625 45.703125 
L 26.90625 57.8125 
Q 26.90625 64.75 24.828125 66.875 
Q 22.75 69 15.921875 69 
L 12.5 69 
L 12.5 75.984375 
L 15.578125 75.984375 
Q 27.734375 75.984375 31.8125 72.390625 
Q 35.890625 68.796875 35.890625 58.015625 
L 35.890625 46.296875 
Q 35.890625 39.015625 38.515625 36.203125 
Q 41.15625 33.40625 48.09375 33.40625 
L 51.125 33.40625 
L 51.125 26.421875 
L 48.09375 26.421875 
Q 41.15625 26.421875 38.515625 23.578125 
Q 35.890625 20.75 35.890625 13.375 
L 35.890625 1.703125 
Q 35.890625 -9.078125 31.8125 -12.6875 
Q 27.734375 -16.3125 15.578125 -16.3125 
L 12.5 -16.3125 
z
" id="BitstreamVeraSans-Roman-7d"/>
     <path d="M 51.125 -9.28125 
L 51.125 -16.3125 
L 48.09375 -16.3125 
Q 35.9375 -16.3125 31.8125 -12.6875 
Q 27.6875 -9.078125 27.6875 1.703125 
L 27.6875 13.375 
Q 27.6875 20.75 25.046875 23.578125 
Q 22.40625 26.421875 15.484375 26.421875 
L 12.5 26.421875 
L 12.5 33.40625 
L 15.484375 33.40625 
Q 22.46875 33.40625 25.078125 36.203125 
Q 27.6875 39.015625 27.6875 46.296875 
L 27.6875 58.015625 
Q 27.6875 68.796875 31.8125 72.390625 
Q 35.9375 75.984375 48.09375 75.984375 
L 51.125 75.984375 
L 51.125 69 
L 47.796875 69 
Q 40.921875 69 38.8125 66.84375 
Q 36.71875 64.703125 36.71875 57.8125 
L 36.71875 45.703125 
Q 36.71875 38.03125 34.5 34.5625 
Q 32.28125 31.109375 26.90625 29.890625 
Q 32.328125 28.5625 34.515625 25.09375 
Q 36.71875 21.625 36.71875 14.015625 
L 36.71875 1.90625 
Q 36.71875 -4.984375 38.8125 -7.125 
Q 40.921875 -9.28125 47.796875 -9.28125 
z
" id="BitstreamVeraSans-Roman-7b"/>
     <path d="M 4.890625 31.390625 
L 31.203125 31.390625 
L 31.203125 23.390625 
L 4.890625 23.390625 
z
" id="BitstreamVeraSans-Roman-2d"/>
     <path d="M 10.796875 72.90625 
L 49.515625 72.90625 
L 49.515625 64.59375 
L 19.828125 64.59375 
L 19.828125 46.734375 
Q 21.96875 47.46875 24.109375 47.828125 
Q 26.265625 48.1875 28.421875 48.1875 
Q 40.625 48.1875 47.75 41.5 
Q 54.890625 34.8125 54.890625 23.390625 
Q 54.890625 11.625 47.5625 5.09375 
Q 40.234375 -1.421875 26.90625 -1.421875 
Q 22.3125 -1.421875 17.546875 -0.640625 
Q 12.796875 0.140625 7.71875 1.703125 
L 7.71875 11.625 
Q 12.109375 9.234375 16.796875 8.0625 
Q 21.484375 6.890625 26.703125 6.890625 
Q 35.15625 6.890625 40.078125 11.328125 
Q 45.015625 15.765625 45.015625 23.390625 
Q 45.015625 31 40.078125 35.4375 
Q 35.15625 39.890625 26.703125 39.890625 
Q 22.75 39.890625 18.8125 39.015625 
Q 14.890625 38.140625 10.796875 36.28125 
z
" id="BitstreamVeraSans-Roman-35"/>
    </defs>
    <g transform="translate(238.4825 30.4015284653)scale(0.2 -0.2)">
     <use xlink:href="#BitstreamVeraSans-Roman-7b"/>
     <use x="63.623046875" xlink:href="#BitstreamVeraSans-Roman-66"/>
     <use x="98.828125" xlink:href="#BitstreamVeraSans-Roman-32"/>
     <use x="162.451171875" xlink:href="#BitstreamVeraSans-Roman-30"/>
     <use x="226.07421875" xlink:href="#BitstreamVeraSans-Roman-2d"/>
     <use x="262.158203125" xlink:href="#BitstreamVeraSans-Roman-66"/>
     <use x="297.36328125" xlink:href="#BitstreamVeraSans-Roman-32"/>
     <use x="360.986328125" xlink:href="#BitstreamVeraSans-Roman-34"/>
     <use x="424.609375" xlink:href="#BitstreamVeraSans-Roman-7d"/>
     <use x="488.232421875" xlink:href="#BitstreamVeraSans-Roman-2c"/>
     <use x="520.01953125" xlink:href="#BitstreamVeraSans-Roman-20"/>
     <use x="551.806640625" xlink:href="#BitstreamVeraSans-Roman-35"/>
     <use x="615.4296875" xlink:href="#BitstreamVeraSans-Roman-2d"/>
     <use x="651.513671875" xlink:href="#BitstreamVeraSans-Roman-44"/>
    </g>
   </g>
   <g id="text_15">
    <!-- absolute targets -->
    <defs>
     <path d="M 56.203125 29.59375 
L 56.203125 25.203125 
L 14.890625 25.203125 
Q 15.484375 15.921875 20.484375 11.0625 
Q 25.484375 6.203125 34.421875 6.203125 
Q 39.59375 6.203125 44.453125 7.46875 
Q 49.3125 8.734375 54.109375 11.28125 
L 54.109375 2.78125 
Q 49.265625 0.734375 44.1875 -0.34375 
Q 39.109375 -1.421875 33.890625 -1.421875 
Q 20.796875 -1.421875 13.15625 6.1875 
Q 5.515625 13.8125 5.515625 26.8125 
Q 5.515625 40.234375 12.765625 48.109375 
Q 20.015625 56 32.328125 56 
Q 43.359375 56 49.78125 48.890625 
Q 56.203125 41.796875 56.203125 29.59375 
M 47.21875 32.234375 
Q 47.125 39.59375 43.09375 43.984375 
Q 39.0625 48.390625 32.421875 48.390625 
Q 24.90625 48.390625 20.390625 44.140625 
Q 15.875 39.890625 15.1875 32.171875 
z
" id="BitstreamVeraSans-Roman-65"/>
     <path d="M 8.5 21.578125 
L 8.5 54.6875 
L 17.484375 54.6875 
L 17.484375 21.921875 
Q 17.484375 14.15625 20.5 10.265625 
Q 23.53125 6.390625 29.59375 6.390625 
Q 36.859375 6.390625 41.078125 11.03125 
Q 45.3125 15.671875 45.3125 23.6875 
L 45.3125 54.6875 
L 54.296875 54.6875 
L 54.296875 0 
L 45.3125 0 
L 45.3125 8.40625 
Q 42.046875 3.421875 37.71875 1 
Q 33.40625 -1.421875 27.6875 -1.421875 
Q 18.265625 -1.421875 13.375 4.4375 
Q 8.5 10.296875 8.5 21.578125 
" id="BitstreamVeraSans-Roman-75"/>
     <path d="M 48.6875 27.296875 
Q 48.6875 37.203125 44.609375 42.84375 
Q 40.53125 48.484375 33.40625 48.484375 
Q 26.265625 48.484375 22.1875 42.84375 
Q 18.109375 37.203125 18.109375 27.296875 
Q 18.109375 17.390625 22.1875 11.75 
Q 26.265625 6.109375 33.40625 6.109375 
Q 40.53125 6.109375 44.609375 11.75 
Q 48.6875 17.390625 48.6875 27.296875 
M 18.109375 46.390625 
Q 20.953125 51.265625 25.265625 53.625 
Q 29.59375 56 35.59375 56 
Q 45.5625 56 51.78125 48.09375 
Q 58.015625 40.1875 58.015625 27.296875 
Q 58.015625 14.40625 51.78125 6.484375 
Q 45.5625 -1.421875 35.59375 -1.421875 
Q 29.59375 -1.421875 25.265625 0.953125 
Q 20.953125 3.328125 18.109375 8.203125 
L 18.109375 0 
L 9.078125 0 
L 9.078125 75.984375 
L 18.109375 75.984375 
z
" id="BitstreamVeraSans-Roman-62"/>
    </defs>
    <g transform="translate(55.425 756.595823939)scale(0.14 -0.14)">
     <use xlink:href="#BitstreamVeraSans-Roman-61"/>
     <use x="61.279296875" xlink:href="#BitstreamVeraSans-Roman-62"/>
     <use x="124.755859375" xlink:href="#BitstreamVeraSans-Roman-73"/>
     <use x="176.85546875" xlink:href="#BitstreamVeraSans-Roman-6f"/>
     <use x="238.037109375" xlink:href="#BitstreamVeraSans-Roman-6c"/>
     <use x="265.8203125" xlink:href="#BitstreamVeraSans-Roman-75"/>
     <use x="329.19921875" xlink:href="#BitstreamVeraSans-Roman-74"/>
     <use x="368.408203125" xlink:href="#BitstreamVeraSans-Roman-65"/>
     <use x="429.931640625" xlink:href="#BitstreamVeraSans-Roman-20"/>
     <use x="461.71875" xlink:href="#BitstreamVeraSans-Roman-74"/>
     <use x="500.927734375" xlink:href="#BitstreamVeraSans-Roman-61"/>
     <use x="562.20703125" xlink:href="#BitstreamVeraSans-Roman-72"/>
     <use x="603.3046875" xlink:href="#BitstreamVeraSans-Roman-67"/>
     <use x="666.78125" xlink:href="#BitstreamVeraSans-Roman-65"/>
     <use x="728.3046875" xlink:href="#BitstreamVeraSans-Roman-74"/>
     <use x="767.513671875" xlink:href="#BitstreamVeraSans-Roman-73"/>
    </g>
   </g>
   <g id="text_16">
    <!-- v2.2.1.10 -->
    <g style="fill:#808080;" transform="translate(287.6996875 378.157094678)scale(0.1 -0.1)">
     <use xlink:href="#BitstreamVeraSans-Roman-76"/>
     <use x="59.1796875" xlink:href="#BitstreamVeraSans-Roman-32"/>
     <use x="122.802734375" xlink:href="#BitstreamVeraSans-Roman-2e"/>
     <use x="154.58984375" xlink:href="#BitstreamVeraSans-Roman-32"/>
     <use x="218.212890625" xlink:href="#BitstreamVeraSans-Roman-2e"/>
     <use x="250.0" xlink:href="#BitstreamVeraSans-Roman-31"/>
     <use x="313.623046875" xlink:href="#BitstreamVeraSans-Roman-2e"/>
     <use x="345.41015625" xlink:href="#BitstreamVeraSans-Roman-31"/>
     <use x="409.033203125" xlink:href="#BitstreamVeraSans-Roman-30"/>
    </g>
   </g>
   <g id="legend_1">
    <g id="patch_7">
     <path d="M 65.425 141.103218 
L 202.646875 141.103218 
L 202.646875 17.678218 
L 65.425 17.678218 
z
" style="fill:#ffffff;opacity:0.2;stroke:#000000;stroke-linejoin:miter;"/>
    </g>
    <g id="line2d_137">
     <path d="M 79.425 33.875093 
L 107.425 33.875093 
" style="fill:none;stroke:#000000;stroke-linecap:square;"/>
    </g>
    <g id="line2d_138"/>
    <g id="text_17">
     <!-- 1: 4/5 -->
     <defs>
      <path d="M 11.71875 12.40625 
L 22.015625 12.40625 
L 22.015625 0 
L 11.71875 0 
z
M 11.71875 51.703125 
L 22.015625 51.703125 
L 22.015625 39.3125 
L 11.71875 39.3125 
z
" id="BitstreamVeraSans-Roman-3a"/>
     </defs>
     <g transform="translate(129.425 40.8750928218)scale(0.2 -0.2)">
      <use xlink:href="#BitstreamVeraSans-Roman-31"/>
      <use x="63.623046875" xlink:href="#BitstreamVeraSans-Roman-3a"/>
      <use x="97.314453125" xlink:href="#BitstreamVeraSans-Roman-20"/>
      <use x="129.1015625" xlink:href="#BitstreamVeraSans-Roman-34"/>
      <use x="192.724609375" xlink:href="#BitstreamVeraSans-Roman-2f"/>
      <use x="226.416015625" xlink:href="#BitstreamVeraSans-Roman-35"/>
     </g>
    </g>
    <g id="line2d_139">
     <path d="M 79.425 63.231343 
L 107.425 63.231343 
" style="fill:none;stroke:#00bfbf;stroke-linecap:square;"/>
    </g>
    <g id="line2d_140"/>
    <g id="text_18">
     <!-- -1: 2/5 -->
     <g transform="translate(129.425 70.2313428218)scale(0.2 -0.2)">
      <use xlink:href="#BitstreamVeraSans-Roman-2d"/>
      <use x="36.083984375" xlink:href="#BitstreamVeraSans-Roman-31"/>
      <use x="99.70703125" xlink:href="#BitstreamVeraSans-Roman-3a"/>
      <use x="133.3984375" xlink:href="#BitstreamVeraSans-Roman-20"/>
      <use x="165.185546875" xlink:href="#BitstreamVeraSans-Roman-32"/>
      <use x="228.80859375" xlink:href="#BitstreamVeraSans-Roman-2f"/>
      <use x="262.5" xlink:href="#BitstreamVeraSans-Roman-35"/>
     </g>
    </g>
    <g id="line2d_141">
     <path d="M 79.425 92.587593 
L 107.425 92.587593 
" style="fill:none;stroke:#bf00bf;stroke-linecap:square;"/>
    </g>
    <g id="line2d_142"/>
    <g id="text_19">
     <!-- -4: 0/5 -->
     <g transform="translate(129.425 99.5875928218)scale(0.2 -0.2)">
      <use xlink:href="#BitstreamVeraSans-Roman-2d"/>
      <use x="36.083984375" xlink:href="#BitstreamVeraSans-Roman-34"/>
      <use x="99.70703125" xlink:href="#BitstreamVeraSans-Roman-3a"/>
      <use x="133.3984375" xlink:href="#BitstreamVeraSans-Roman-20"/>
      <use x="165.185546875" xlink:href="#BitstreamVeraSans-Roman-30"/>
      <use x="228.80859375" xlink:href="#BitstreamVeraSans-Roman-2f"/>
      <use x="262.5" xlink:href="#BitstreamVeraSans-Roman-35"/>
     </g>
    </g>
    <g id="line2d_143">
     <path d="M 79.425 121.943843 
L 107.425 121.943843 
" style="fill:none;stroke:#ff0000;stroke-linecap:square;stroke-width:3.0;"/>
    </g>
    <g id="line2d_144"/>
    <g id="text_20">
     <!-- -8: 0/5 -->
     <g transform="translate(129.425 128.943842822)scale(0.2 -0.2)">
      <use xlink:href="#BitstreamVeraSans-Roman-2d"/>
      <use x="36.083984375" xlink:href="#BitstreamVeraSans-Roman-38"/>
      <use x="99.70703125" xlink:href="#BitstreamVeraSans-Roman-3a"/>
      <use x="133.3984375" xlink:href="#BitstreamVeraSans-Roman-20"/>
      <use x="165.185546875" xlink:href="#BitstreamVeraSans-Roman-30"/>
      <use x="228.80859375" xlink:href="#BitstreamVeraSans-Roman-2f"/>
      <use x="262.5" xlink:href="#BitstreamVeraSans-Roman-35"/>
     </g>
    </g>
   </g>
  </g>
 </g>
 <defs>
  <clipPath id="p664bc7450f">
   <rect height="376.321782178" width="511.815" x="55.425" y="7.67821782178"/>
  </clipPath>
 </defs>
</svg>
