<?xml version="1.0" encoding="utf-8" standalone="no"?>
<!DOCTYPE svg PUBLIC "-//W3C//DTD SVG 1.1//EN"
  "http://www.w3.org/Graphics/SVG/1.1/DTD/svg11.dtd">
<!-- Created with matplotlib (http://matplotlib.org/) -->
<svg height="432pt" version="1.1" viewBox="0 0 576 432" width="576pt" xmlns="http://www.w3.org/2000/svg" xmlns:xlink="http://www.w3.org/1999/xlink">
 <defs>
  <style type="text/css">
*{stroke-linecap:butt;stroke-linejoin:round;stroke-miterlimit:100000;}
  </style>
 </defs>
 <g id="figure_1">
  <g id="patch_1">
   <path d="M 0 432 
L 576 432 
L 576 0 
L 0 0 
z
" style="fill:#ffffff;"/>
  </g>
  <g id="axes_1">
   <g id="patch_2">
    <path d="M 55.425 384 
L 567.24 384 
L 567.24 7.678218 
L 55.425 7.678218 
z
" style="fill:#ffffff;"/>
   </g>
   <g id="line2d_1"/>
   <g id="line2d_2"/>
   <g id="line2d_3"/>
   <g id="line2d_4">
    <path clip-path="url(#pb7db080fa4)" d="M 401.322744 384 
L 401.322744 379.032056 
L 401.322744 379.032056 
L 401.322744 379.032056 
L 401.348342 379.032056 
L 401.348342 374.064111 
L 402.496691 374.064111 
L 402.496691 369.096167 
L 403.31919 369.096167 
L 403.31919 364.128223 
L 403.861355 364.128223 
L 403.861355 359.160278 
L 404.367725 359.160278 
L 404.412966 349.22439 
L 404.554463 349.22439 
L 404.554463 344.256445 
L 405.436802 344.256445 
L 405.498831 329.352612 
L 407.507966 329.352612 
L 407.507966 324.384668 
L 408.18498 324.384668 
L 408.18498 319.416724 
L 409.27753 319.416724 
L 409.27753 314.44878 
L 409.466511 314.44878 
L 409.466511 309.480835 
L 410.607504 309.480835 
L 410.607504 304.512891 
L 411.366705 304.512891 
L 411.366705 299.544947 
L 412.469518 299.544947 
L 412.469518 294.577002 
L 412.721693 294.577002 
L 412.721693 289.609058 
L 413.382291 289.609058 
L 413.382291 284.641114 
L 413.97696 284.641114 
L 413.97696 279.673169 
L 416.43302 279.673169 
L 416.480778 269.737281 
L 418.353518 269.737281 
L 418.353518 264.769336 
L 419.882158 264.769336 
L 419.882158 259.801392 
L 421.624639 259.801392 
L 421.708837 249.865503 
L 422.594279 249.865503 
L 422.594279 244.897559 
L 423.027169 244.897559 
L 423.027169 239.929615 
L 426.967291 239.929615 
L 426.967291 234.96167 
L 429.952127 234.96167 
L 429.952127 229.993726 
L 430.903331 229.993726 
L 430.903331 225.025782 
L 431.146508 225.025782 
L 431.146508 220.057837 
L 432.513811 220.057837 
L 432.513811 215.089893 
L 433.072579 215.089893 
L 433.072579 210.121949 
L 434.575807 210.121949 
L 434.575807 205.154005 
L 434.875958 205.154005 
L 434.885988 195.218116 
L 435.205949 195.218116 
L 435.205949 190.250172 
L 435.726631 190.250172 
L 435.726631 185.282227 
L 435.839988 185.282227 
L 435.839988 180.314283 
L 436.308837 180.314283 
L 436.308837 175.346339 
L 436.841116 175.346339 
L 436.899028 165.41045 
L 437.468246 165.41045 
L 437.468246 160.442506 
L 438.421442 160.442506 
L 438.421442 155.474561 
L 440.585971 155.474561 
L 440.585971 150.506617 
L 443.820984 150.506617 
L 443.820984 145.538673 
L 453.853365 145.538673 
L 453.853365 140.570728 
L 454.577843 140.570728 
L 454.577843 135.602784 
L 454.722666 135.602784 
L 454.722666 130.63484 
L 455.23145 130.63484 
L 455.23145 125.666895 
L 459.021994 125.666895 
L 459.021994 120.698951 
L 467.84875 120.698951 
L 467.84875 115.731007 
L 474.058526 115.731007 
L 474.058526 110.763062 
L 479.605009 110.763062 
L 479.605009 105.795118 
L 480.228118 105.795118 
L 480.228118 100.827174 
L 480.575214 100.827174 
L 480.575214 95.859229 
L 480.781257 95.859229 
L 480.781257 90.891285 
L 481.850552 90.891285 
L 481.850552 85.923341 
L 483.403985 85.923341 
L 483.403985 80.955397 
L 506.992227 80.955397 
L 506.992227 75.987452 
L 522.97987 75.987452 
L 522.97987 71.019508 
L 526.187405 71.019508 
L 526.187405 66.051564 
L 526.187405 66.051564 
L 567.24 66.051564 
L 567.24 66.051564 
" style="fill:none;stroke:#f5deb3;stroke-linecap:square;"/>
   </g>
   <g id="line2d_5">
    <path clip-path="url(#pb7db080fa4)" d="M 391.457683 384 
L 391.457683 379.032056 
L 391.770504 379.032056 
L 391.770504 374.064111 
L 392.299135 374.064111 
L 392.299135 369.096167 
L 393.332975 369.096167 
L 393.332975 364.128223 
L 394.445345 364.128223 
L 394.445345 359.160278 
L 399.730214 359.160278 
L 399.730214 354.192334 
L 402.506076 354.192334 
L 402.506076 349.22439 
L 404.295258 349.22439 
L 404.295258 344.256445 
L 408.78957 344.256445 
L 408.78957 339.288501 
L 409.159409 339.288501 
L 409.159409 334.320557 
L 416.809118 334.320557 
L 416.809118 329.352612 
L 417.893399 329.352612 
L 417.893399 324.384668 
L 420.702486 324.384668 
L 420.702486 319.416724 
L 422.997721 319.416724 
L 422.997721 314.44878 
L 424.904144 314.44878 
L 424.904144 309.480835 
L 500.683267 309.480835 
L 500.683267 304.512891 
L 505.610605 304.512891 
L 505.610605 299.544947 
L 506.569749 299.544947 
L 506.569749 294.577002 
L 506.591873 294.577002 
L 506.591873 289.609058 
L 506.937948 289.609058 
L 506.937948 284.641114 
L 507.179489 284.641114 
L 507.179489 279.673169 
L 508.280947 279.673169 
L 508.280947 274.705225 
L 509.115159 274.705225 
L 509.115159 269.737281 
L 509.464537 269.737281 
L 509.464537 264.769336 
L 509.70951 264.769336 
L 509.70951 259.801392 
L 510.945268 259.801392 
L 510.945268 254.833448 
L 511.890659 254.833448 
L 511.890659 249.865503 
L 513.13663 249.865503 
L 513.13663 244.897559 
L 513.315025 244.897559 
L 513.315025 239.929615 
L 516.204162 239.929615 
L 516.204162 234.96167 
L 529.421175 234.96167 
L 529.421175 229.993726 
L 558.017161 229.993726 
L 558.017161 225.025782 
L 562.420682 225.025782 
L 562.420682 220.057837 
L 563.882044 220.057837 
L 563.882044 215.089893 
L 566.813375 215.089893 
L 566.813375 210.121949 
L 568.464492 210.121949 
L 568.464492 205.154005 
L 568.63336 205.154005 
L 568.63336 200.18606 
L 570.299177 200.18606 
L 570.299177 195.218116 
L 570.738019 195.218116 
L 570.738019 190.250172 
L 571.088417 190.250172 
L 571.088417 185.282227 
L 571.248579 185.282227 
L 571.248579 180.314283 
L 571.252998 180.314283 
L 571.252998 175.346339 
L 577 175.346339 
" style="fill:none;stroke:#f5deb3;stroke-linecap:square;"/>
   </g>
   <g id="line2d_6"/>
   <g id="line2d_7">
    <path clip-path="url(#pb7db080fa4)" d="M 400.075626 384 
L 400.075626 379.032056 
L 400.075626 379.032056 
L 400.075626 379.032056 
L 400.134609 379.032056 
L 400.2393 369.096167 
L 400.526114 369.096167 
L 400.526114 364.128223 
L 400.982374 364.128223 
L 400.982374 359.160278 
L 401.271511 359.160278 
L 401.271511 354.192334 
L 401.644987 354.192334 
L 401.644987 349.22439 
L 401.895646 349.22439 
L 401.952588 339.288501 
L 402.5561 339.288501 
L 402.606076 329.352612 
L 402.674714 329.352612 
L 402.774389 319.416724 
L 404.881134 319.416724 
L 404.881134 314.44878 
L 414.653959 314.44878 
L 414.653959 309.480835 
L 414.883413 309.480835 
L 414.883413 304.512891 
L 415.131456 304.512891 
L 415.131456 299.544947 
L 415.742773 299.544947 
L 415.742773 294.577002 
L 415.914391 294.577002 
L 415.96022 284.641114 
L 416.521339 284.641114 
L 416.521339 279.673169 
L 417.653628 279.673169 
L 417.653628 274.705225 
L 418.337402 274.705225 
L 418.337402 269.737281 
L 419.752377 269.737281 
L 419.853098 259.801392 
L 420.709085 259.801392 
L 420.709085 254.833448 
L 421.427641 254.833448 
L 421.427641 249.865503 
L 421.741185 249.865503 
L 421.741185 244.897559 
L 423.643812 244.897559 
L 423.643812 239.929615 
L 424.306548 239.929615 
L 424.357808 229.993726 
L 426.071065 229.993726 
L 426.071065 225.025782 
L 426.391244 225.025782 
L 426.391244 220.057837 
L 427.181178 220.057837 
L 427.181178 215.089893 
L 427.850153 215.089893 
L 427.850153 210.121949 
L 429.603362 210.121949 
L 429.603362 205.154005 
L 429.8011 205.154005 
L 429.8011 200.18606 
L 430.349679 200.18606 
L 430.349679 195.218116 
L 432.554049 195.218116 
L 432.554049 190.250172 
L 433.572243 190.250172 
L 433.572243 185.282227 
L 434.024646 185.282227 
L 434.024646 180.314283 
L 436.258399 180.314283 
L 436.258399 175.346339 
L 436.865254 175.346339 
L 436.939207 165.41045 
L 438.938687 165.41045 
L 438.938687 160.442506 
L 440.016965 160.442506 
L 440.016965 155.474561 
L 452.343404 155.474561 
L 452.343404 150.506617 
L 462.763367 150.506617 
L 462.763367 145.538673 
L 470.153252 145.538673 
L 470.153252 140.570728 
L 475.221833 140.570728 
L 475.221833 135.602784 
L 487.550764 135.602784 
L 487.550764 130.63484 
L 488.434827 130.63484 
L 488.434827 125.666895 
L 489.277186 125.666895 
L 489.277186 120.698951 
L 490.874866 120.698951 
L 490.874866 115.731007 
L 491.684802 115.731007 
L 491.684802 110.763062 
L 491.961955 110.763062 
L 491.961955 105.795118 
L 508.206166 105.795118 
L 508.206166 100.827174 
L 512.870094 100.827174 
L 512.870094 95.859229 
L 513.328948 95.859229 
L 513.328948 90.891285 
L 513.871927 90.891285 
L 513.871927 85.923341 
L 577 85.923341 
L 577 85.923341 
" style="fill:none;stroke:#f5deb3;stroke-linecap:square;"/>
   </g>
   <g id="line2d_8"/>
   <g id="line2d_9">
    <path clip-path="url(#pb7db080fa4)" d="M 397.813734 384 
L 397.813734 379.032056 
L 398.257124 379.032056 
L 398.257124 374.064111 
L 398.490926 374.064111 
L 398.490926 369.096167 
L 398.72704 369.096167 
L 398.72704 364.128223 
L 399.192721 364.128223 
L 399.192721 359.160278 
L 399.465484 359.160278 
L 399.465484 354.192334 
L 399.950886 354.192334 
L 399.950886 349.22439 
L 400.131334 349.22439 
L 400.131334 344.256445 
L 400.340519 344.256445 
L 400.382906 334.320557 
L 400.50986 334.320557 
L 400.613795 319.416724 
L 400.623528 319.416724 
L 400.623528 314.44878 
L 401.18494 314.44878 
L 401.18494 309.480835 
L 404.75251 309.480835 
L 404.75251 304.512891 
L 409.755489 304.512891 
L 409.755489 299.544947 
L 410.377014 299.544947 
L 410.473624 284.641114 
L 410.773036 284.641114 
L 410.773036 279.673169 
L 410.895507 279.673169 
L 410.895507 274.705225 
L 411.131643 274.705225 
L 411.195136 259.801392 
L 411.3298 259.801392 
L 411.3298 254.833448 
L 411.508807 254.833448 
L 411.508807 249.865503 
L 412.280871 249.865503 
L 412.280871 244.897559 
L 412.562297 244.897559 
L 412.562297 239.929615 
L 413.090017 239.929615 
L 413.090017 234.96167 
L 413.26812 234.96167 
L 413.26812 229.993726 
L 413.700635 229.993726 
L 413.700635 225.025782 
L 415.001443 225.025782 
L 415.001443 220.057837 
L 415.251366 220.057837 
L 415.251366 215.089893 
L 416.492711 215.089893 
L 416.492711 210.121949 
L 417.704935 210.121949 
L 417.704935 205.154005 
L 418.53046 205.154005 
L 418.53046 200.18606 
L 418.738796 200.18606 
L 418.738796 195.218116 
L 419.139363 195.218116 
L 419.214125 185.282227 
L 419.324935 185.282227 
L 419.324935 180.314283 
L 419.799404 180.314283 
L 419.799404 175.346339 
L 420.194086 175.346339 
L 420.27621 165.41045 
L 420.318332 165.41045 
L 420.318332 160.442506 
L 420.66508 160.442506 
L 420.724478 150.506617 
L 420.965766 150.506617 
L 420.965766 145.538673 
L 421.229889 145.538673 
L 421.229889 140.570728 
L 421.514326 140.570728 
L 421.514326 135.602784 
L 426.709452 135.602784 
L 426.76034 125.666895 
L 431.488617 125.666895 
L 431.488617 120.698951 
L 432.05852 120.698951 
L 432.05852 115.731007 
L 437.512751 115.731007 
L 437.512751 110.763062 
L 440.690658 110.763062 
L 440.790661 100.827174 
L 445.847829 100.827174 
L 445.847829 95.859229 
L 447.80728 95.859229 
L 447.80728 90.891285 
L 452.75552 90.891285 
L 452.75552 85.923341 
L 456.797383 85.923341 
L 456.797383 80.955397 
L 462.656043 80.955397 
L 462.656043 75.987452 
L 464.867118 75.987452 
L 464.867118 71.019508 
L 465.129403 71.019508 
L 465.129403 66.051564 
L 465.93587 66.051564 
L 465.93587 61.083619 
L 466.323061 61.083619 
L 466.323061 56.115675 
L 482.418008 56.115675 
L 482.418008 51.147731 
L 495.462803 51.147731 
L 495.462803 46.179786 
L 512.033598 46.179786 
L 512.033598 41.211842 
L 515.356262 41.211842 
L 515.356262 36.243898 
L 516.249189 36.243898 
L 516.249189 31.275953 
L 516.749798 31.275953 
L 516.749798 26.308009 
L 517.790491 26.308009 
L 517.790491 21.340065 
L 520.630475 21.340065 
L 520.630475 16.37212 
L 521.544417 16.37212 
L 521.544417 11.404176 
L 521.544417 11.404176 
L 567.24 11.404176 
L 567.24 11.404176 
" style="fill:none;stroke:#f5deb3;stroke-linecap:square;"/>
   </g>
   <g id="line2d_10"/>
   <g id="line2d_11">
    <path clip-path="url(#pb7db080fa4)" d="M 659.495004 384 
" style="fill:none;stroke:#f5deb3;stroke-linecap:square;"/>
   </g>
   <g id="line2d_12">
    <path clip-path="url(#pb7db080fa4)" d="M 505.967515 384 
L 505.967515 379.032056 
L 505.967515 379.032056 
L 505.967515 379.032056 
L 567.24 379.032056 
" style="fill:none;stroke:#f5deb3;stroke-linecap:square;"/>
   </g>
   <g id="line2d_13"/>
   <g id="line2d_14"/>
   <g id="line2d_15"/>
   <g id="line2d_16">
    <path clip-path="url(#pb7db080fa4)" d="M 743.436746 384 
" style="fill:none;stroke:#f5deb3;stroke-linecap:square;"/>
   </g>
   <g id="line2d_17">
    <path clip-path="url(#pb7db080fa4)" d="M 551.163125 384 
L 551.163125 379.032056 
L 554.910055 379.032056 
L 554.910055 374.064111 
L 560.818676 374.064111 
L 560.818676 369.096167 
L 561.092688 369.096167 
L 561.092688 364.128223 
L 561.8855 364.128223 
L 561.8855 359.160278 
L 561.955024 359.160278 
L 561.955024 354.192334 
L 562.187666 354.192334 
L 562.187666 349.22439 
L 563.074336 349.22439 
L 563.074336 344.256445 
L 563.614854 344.256445 
L 563.614854 339.288501 
L 564.160875 339.288501 
L 564.160875 334.320557 
L 564.827644 334.320557 
L 564.827644 329.352612 
L 565.087979 329.352612 
L 565.087979 324.384668 
L 565.974678 324.384668 
L 565.974678 319.416724 
L 566.019494 319.416724 
L 566.019494 314.44878 
L 566.099777 314.44878 
L 566.099777 309.480835 
L 566.478375 309.480835 
L 566.478375 304.512891 
L 566.971761 304.512891 
L 566.971761 299.544947 
L 567.735662 299.544947 
L 567.735662 294.577002 
L 569.000893 294.577002 
L 569.000893 289.609058 
L 570.401499 289.609058 
L 570.401499 284.641114 
L 570.452705 284.641114 
L 570.452705 279.673169 
L 572.344802 279.673169 
L 572.344802 274.705225 
L 573.995957 274.705225 
L 573.995957 269.737281 
L 574.518869 269.737281 
L 574.518869 264.769336 
L 574.895842 264.769336 
L 574.895842 259.801392 
L 575.69525 259.801392 
L 575.69525 254.833448 
L 577 254.833448 
" style="fill:none;stroke:#f5deb3;stroke-linecap:square;"/>
   </g>
   <g id="line2d_18">
    <path clip-path="url(#pb7db080fa4)" d="M 369.005851 384 
L 369.005851 379.032056 
L 376.802997 379.032056 
L 376.802997 374.064111 
L 378.736467 374.064111 
L 378.736467 369.096167 
L 379.926706 369.096167 
L 379.926706 364.128223 
L 380.336656 364.128223 
L 380.336656 359.160278 
L 382.684437 359.160278 
L 382.684437 354.192334 
L 389.30218 354.192334 
L 389.30218 349.22439 
L 395.135374 349.22439 
L 395.135374 344.256445 
L 395.437526 344.256445 
L 395.437526 339.288501 
L 395.505626 339.288501 
L 395.505626 334.320557 
L 401.829133 334.320557 
L 401.829133 329.352612 
L 407.757236 329.352612 
L 407.757236 324.384668 
L 411.395683 324.384668 
L 411.395683 319.416724 
L 415.385628 319.416724 
L 415.385628 314.44878 
L 425.18928 314.44878 
L 425.18928 309.480835 
L 490.78144 309.480835 
L 490.78144 304.512891 
L 491.776054 304.512891 
L 491.776054 299.544947 
L 493.697313 299.544947 
L 493.697313 294.577002 
L 494.058142 294.577002 
L 494.058142 289.609058 
L 496.072091 289.609058 
L 496.072091 284.641114 
L 496.364397 284.641114 
L 496.364397 279.673169 
L 496.655566 279.673169 
L 496.655566 274.705225 
L 497.252531 274.705225 
L 497.252531 269.737281 
L 497.326482 269.737281 
L 497.326482 264.769336 
L 497.980418 264.769336 
L 497.980418 259.801392 
L 498.598908 259.801392 
L 498.598908 254.833448 
L 498.757967 254.833448 
L 498.757967 249.865503 
L 498.941708 249.865503 
L 498.941708 244.897559 
L 499.007966 244.897559 
L 499.007966 239.929615 
L 499.452639 239.929615 
L 499.452639 234.96167 
L 499.537864 234.96167 
L 499.537864 229.993726 
L 499.999835 229.993726 
L 499.999835 225.025782 
L 500.318418 225.025782 
L 500.318418 220.057837 
L 500.352335 220.057837 
L 500.352335 215.089893 
L 501.518249 215.089893 
L 501.518249 210.121949 
L 501.556908 210.121949 
L 501.556908 205.154005 
L 507.02245 205.154005 
L 507.02245 200.18606 
L 513.486598 200.18606 
L 513.486598 195.218116 
L 527.710046 195.218116 
L 527.710046 190.250172 
L 536.41301 190.250172 
L 536.41301 185.282227 
L 537.129368 185.282227 
L 537.129368 180.314283 
L 540.042074 180.314283 
L 540.042074 175.346339 
L 561.141943 175.346339 
L 561.141943 170.378394 
L 577 170.378394 
" style="fill:none;stroke:#f5deb3;stroke-linecap:square;"/>
   </g>
   <g id="line2d_19"/>
   <g id="line2d_20"/>
   <g id="line2d_21"/>
   <g id="line2d_22"/>
   <g id="line2d_23"/>
   <g id="line2d_24">
    <path clip-path="url(#pb7db080fa4)" d="M 424.082459 384 
L 424.082459 379.032056 
L 425.788774 379.032056 
L 425.788774 374.064111 
L 426.949752 374.064111 
L 426.949752 369.096167 
L 427.82333 369.096167 
L 427.82333 364.128223 
L 428.591833 364.128223 
L 428.591833 359.160278 
L 431.227314 359.160278 
L 431.227314 354.192334 
L 432.051457 354.192334 
L 432.051457 349.22439 
L 432.559295 349.22439 
L 432.639669 339.288501 
L 433.592815 339.288501 
L 433.592815 334.320557 
L 434.636313 334.320557 
L 434.636313 329.352612 
L 436.126377 329.352612 
L 436.193245 319.416724 
L 436.897421 319.416724 
L 436.916711 309.480835 
L 437.850058 309.480835 
L 437.850058 304.512891 
L 439.139218 304.512891 
L 439.217676 294.577002 
L 439.501281 294.577002 
L 439.52268 284.641114 
L 440.839845 284.641114 
L 440.839845 279.673169 
L 441.222768 279.673169 
L 441.222768 274.705225 
L 442.009342 274.705225 
L 442.050105 264.769336 
L 442.163488 264.769336 
L 442.163488 259.801392 
L 442.603033 259.801392 
L 442.603033 254.833448 
L 443.725274 254.833448 
L 443.725274 249.865503 
L 443.84629 249.865503 
L 443.931955 239.929615 
L 444.465211 239.929615 
L 444.465211 234.96167 
L 444.711825 234.96167 
L 444.711825 229.993726 
L 446.515498 229.993726 
L 446.515498 225.025782 
L 447.229971 225.025782 
L 447.229971 220.057837 
L 447.729112 220.057837 
L 447.729112 215.089893 
L 447.967154 215.089893 
L 447.967154 210.121949 
L 448.127829 210.121949 
L 448.127829 205.154005 
L 448.612006 205.154005 
L 448.612006 200.18606 
L 451.03073 200.18606 
L 451.050296 190.250172 
L 451.775092 190.250172 
L 451.775092 185.282227 
L 452.935014 185.282227 
L 452.935014 180.314283 
L 454.166251 180.314283 
L 454.243315 170.378394 
L 454.838688 170.378394 
L 454.838688 165.41045 
L 455.476682 165.41045 
L 455.476682 160.442506 
L 463.265787 160.442506 
L 463.265787 155.474561 
L 463.590048 155.474561 
L 463.590048 150.506617 
L 464.389547 150.506617 
L 464.389547 145.538673 
L 464.759392 145.538673 
L 464.775331 135.602784 
L 465.626043 135.602784 
L 465.626043 130.63484 
L 465.888184 130.63484 
L 465.888184 125.666895 
L 466.613371 125.666895 
L 466.613371 120.698951 
L 467.569757 120.698951 
L 467.609705 110.763062 
L 468.923087 110.763062 
L 468.923087 105.795118 
L 469.120823 105.795118 
L 469.157007 95.859229 
L 471.386165 95.859229 
L 471.386165 90.891285 
L 477.123998 90.891285 
L 477.123998 85.923341 
L 488.726381 85.923341 
L 488.726381 80.955397 
L 500.253349 80.955397 
L 500.253349 75.987452 
L 501.10314 75.987452 
L 501.10314 71.019508 
L 504.797778 71.019508 
L 504.875497 61.083619 
L 505.577416 61.083619 
L 505.577416 56.115675 
L 505.917222 56.115675 
L 505.917222 51.147731 
L 506.381937 51.147731 
L 506.381937 46.179786 
L 506.815922 46.179786 
L 506.831295 36.243898 
L 507.320828 36.243898 
L 507.320828 31.275953 
L 512.129671 31.275953 
L 512.129671 26.308009 
L 512.422417 26.308009 
L 512.422417 21.340065 
L 513.526757 21.340065 
L 513.526757 16.37212 
L 514.564728 16.37212 
L 514.564728 11.404176 
L 514.564728 11.404176 
L 567.24 11.404176 
L 567.24 11.404176 
" style="fill:none;stroke:#f5deb3;stroke-linecap:square;"/>
   </g>
   <g id="line2d_25"/>
   <g id="line2d_26">
    <path clip-path="url(#pb7db080fa4)" d="M 430.635414 384 
L 430.635414 379.032056 
L 452.451799 379.032056 
L 452.451799 374.064111 
L 452.562342 374.064111 
L 452.562342 369.096167 
L 458.900302 369.096167 
L 458.900302 364.128223 
L 462.317986 364.128223 
L 462.317986 359.160278 
L 463.148863 359.160278 
L 463.148863 354.192334 
L 464.914821 354.192334 
L 464.914821 349.22439 
L 465.159188 349.22439 
L 465.159188 344.256445 
L 465.227069 344.256445 
L 465.227069 339.288501 
L 465.811978 339.288501 
L 465.811978 334.320557 
L 465.955115 334.320557 
L 465.955115 329.352612 
L 466.728138 329.352612 
L 466.728138 324.384668 
L 466.866962 324.384668 
L 466.866962 319.416724 
L 466.949719 319.416724 
L 466.949719 314.44878 
L 467.040419 314.44878 
L 467.040419 309.480835 
L 467.589291 309.480835 
L 467.589291 304.512891 
L 467.742644 304.512891 
L 467.742644 299.544947 
L 467.879656 299.544947 
L 467.879656 294.577002 
L 468.746298 294.577002 
L 468.746298 289.609058 
L 469.646441 289.609058 
L 469.646441 284.641114 
L 470.375793 284.641114 
L 470.375793 279.673169 
L 470.387568 279.673169 
L 470.387568 274.705225 
L 470.48167 274.705225 
L 470.48167 269.737281 
L 471.763397 269.737281 
L 471.763397 264.769336 
L 471.889348 264.769336 
L 471.889348 259.801392 
L 471.960367 259.801392 
L 471.960367 254.833448 
L 472.124072 254.833448 
L 472.124072 249.865503 
L 473.623541 249.865503 
L 473.623541 244.897559 
L 474.150089 244.897559 
L 474.150089 239.929615 
L 476.650883 239.929615 
L 476.650883 234.96167 
L 477.283934 234.96167 
L 477.283934 229.993726 
L 478.637032 229.993726 
L 478.637032 225.025782 
L 481.530928 225.025782 
L 481.530928 220.057837 
L 481.65347 220.057837 
L 481.65347 215.089893 
L 489.153927 215.089893 
L 489.153927 210.121949 
L 493.95698 210.121949 
L 493.95698 205.154005 
L 504.844423 205.154005 
L 504.844423 200.18606 
L 511.671723 200.18606 
L 511.671723 195.218116 
L 514.685483 195.218116 
L 514.685483 190.250172 
L 516.697312 190.250172 
L 516.697312 185.282227 
L 516.808053 185.282227 
L 516.808053 180.314283 
L 518.70147 180.314283 
L 518.70147 175.346339 
L 518.808003 175.346339 
L 518.808003 170.378394 
L 519.152807 170.378394 
L 519.152807 165.41045 
L 521.273404 165.41045 
L 521.273404 160.442506 
L 531.20514 160.442506 
L 531.20514 155.474561 
L 531.728153 155.474561 
L 531.728153 150.506617 
L 532.488974 150.506617 
L 532.488974 145.538673 
L 542.503972 145.538673 
L 542.503972 140.570728 
L 543.537759 140.570728 
L 543.537759 135.602784 
L 544.533648 135.602784 
L 544.533648 130.63484 
L 545.354431 130.63484 
L 545.354431 125.666895 
L 561.238573 125.666895 
L 561.238573 120.698951 
L 571.932535 120.698951 
L 571.932535 115.731007 
L 577 115.731007 
" style="fill:none;stroke:#f5deb3;stroke-linecap:square;"/>
   </g>
   <g id="line2d_27"/>
   <g id="line2d_28">
    <path clip-path="url(#pb7db080fa4)" d="M 398.131315 384 
L 398.131315 379.032056 
L 398.131315 379.032056 
L 398.131315 379.032056 
L 398.223152 379.032056 
L 398.223152 374.064111 
L 398.402951 374.064111 
L 398.402951 369.096167 
L 398.831261 369.096167 
L 398.905097 359.160278 
L 399.269373 359.160278 
L 399.269373 354.192334 
L 399.472119 354.192334 
L 399.472119 349.22439 
L 400.320943 349.22439 
L 400.320943 344.256445 
L 400.477337 344.256445 
L 400.545611 334.320557 
L 401.47614 334.320557 
L 401.47614 329.352612 
L 401.971555 329.352612 
L 401.971555 324.384668 
L 402.68095 324.384668 
L 402.780612 309.480835 
L 402.988661 309.480835 
L 402.988661 304.512891 
L 403.383813 304.512891 
L 403.383813 299.544947 
L 404.104547 299.544947 
L 404.104547 294.577002 
L 404.740529 294.577002 
L 404.740529 289.609058 
L 404.952784 289.609058 
L 404.952784 284.641114 
L 406.004101 284.641114 
L 406.004101 279.673169 
L 406.411751 279.673169 
L 406.411751 274.705225 
L 407.077421 274.705225 
L 407.077421 269.737281 
L 407.536353 269.737281 
L 407.536353 264.769336 
L 408.291365 264.769336 
L 408.291365 259.801392 
L 409.945441 259.801392 
L 409.999586 249.865503 
L 410.500427 249.865503 
L 410.500427 244.897559 
L 410.684996 244.897559 
L 410.684996 239.929615 
L 411.616439 239.929615 
L 411.616439 234.96167 
L 412.888276 234.96167 
L 412.944536 225.025782 
L 413.756019 225.025782 
L 413.861586 205.154005 
L 415.146154 205.154005 
L 415.146154 200.18606 
L 415.473321 200.18606 
L 415.473321 195.218116 
L 415.989144 195.218116 
L 415.989144 190.250172 
L 416.416294 190.250172 
L 416.416294 185.282227 
L 416.991418 185.282227 
L 417.007959 175.346339 
L 418.470781 175.346339 
L 418.470781 170.378394 
L 419.184686 170.378394 
L 419.184686 165.41045 
L 421.055414 165.41045 
L 421.055414 160.442506 
L 431.545712 160.442506 
L 431.545712 155.474561 
L 432.150252 155.474561 
L 432.150252 150.506617 
L 433.520777 150.506617 
L 433.520777 145.538673 
L 434.14349 145.538673 
L 434.14349 140.570728 
L 434.403989 140.570728 
L 434.403989 135.602784 
L 435.441319 135.602784 
L 435.441319 130.63484 
L 435.807156 130.63484 
L 435.807156 125.666895 
L 436.438772 125.666895 
L 436.438772 120.698951 
L 437.347253 120.698951 
L 437.347253 115.731007 
L 437.693556 115.731007 
L 437.693556 110.763062 
L 439.286804 110.763062 
L 439.286804 105.795118 
L 441.949596 105.795118 
L 441.949596 100.827174 
L 442.147513 100.827174 
L 442.147513 95.859229 
L 446.944837 95.859229 
L 446.944837 90.891285 
L 448.197645 90.891285 
L 448.197645 85.923341 
L 453.476783 85.923341 
L 453.476783 80.955397 
L 455.246107 80.955397 
L 455.246107 75.987452 
L 462.517169 75.987452 
L 462.517169 71.019508 
L 463.698322 71.019508 
L 463.698322 66.051564 
L 465.074443 66.051564 
L 465.182445 56.115675 
L 465.281868 56.115675 
L 465.281868 51.147731 
L 465.85239 51.147731 
L 465.85239 46.179786 
L 466.044832 46.179786 
L 466.044832 41.211842 
L 468.029511 41.211842 
L 468.107791 31.275953 
L 470.838034 31.275953 
L 470.838034 26.308009 
L 472.411135 26.308009 
L 472.411135 21.340065 
L 474.206356 21.340065 
L 474.206356 16.37212 
L 475.513564 16.37212 
L 475.513564 11.404176 
L 475.513564 11.404176 
L 567.24 11.404176 
L 567.24 11.404176 
" style="fill:none;stroke:#f5deb3;stroke-linecap:square;"/>
   </g>
   <g id="line2d_29"/>
   <g id="line2d_30"/>
   <g id="line2d_31">
    <path clip-path="url(#pb7db080fa4)" d="M 383.562892 384 
L 383.562892 379.032056 
L 391.16244 379.032056 
L 391.16244 374.064111 
L 393.07457 374.064111 
L 393.07457 369.096167 
L 398.318218 369.096167 
L 398.318218 364.128223 
L 411.880629 364.128223 
L 411.880629 359.160278 
L 414.500421 359.160278 
L 414.500421 354.192334 
L 415.077528 354.192334 
L 415.077528 349.22439 
L 415.653111 349.22439 
L 415.653111 344.256445 
L 424.392636 344.256445 
L 424.392636 339.288501 
L 426.341963 339.288501 
L 426.341963 334.320557 
L 427.631328 334.320557 
L 427.631328 329.352612 
L 428.30783 329.352612 
L 428.30783 324.384668 
L 428.806636 324.384668 
L 428.806636 319.416724 
L 430.062355 319.416724 
L 430.062355 314.44878 
L 430.252863 314.44878 
L 430.252863 309.480835 
L 430.252863 309.480835 
L 430.252863 309.480835 
L 567.24 309.480835 
" style="fill:none;stroke:#000000;stroke-linecap:square;"/>
   </g>
   <g id="line2d_32">
    <path clip-path="url(#pb7db080fa4)" d="M -35759.4939 756.595824 
" style="fill:none;stroke:#000000;stroke-linecap:square;"/>
   </g>
   <g id="line2d_33"/>
   <g id="line2d_34"/>
   <g id="line2d_35"/>
   <g id="line2d_36">
    <path clip-path="url(#pb7db080fa4)" d="M 567.191192 384 
L 567.191192 7.678218 
" style="fill:none;stroke:#000000;stroke-linecap:square;"/>
   </g>
   <g id="patch_3">
    <path d="M 55.425 7.678218 
L 567.24 7.678218 
" style="fill:none;stroke:#000000;stroke-linecap:square;stroke-linejoin:miter;"/>
   </g>
   <g id="patch_4">
    <path d="M 567.24 384 
L 567.24 7.678218 
" style="fill:none;stroke:#000000;stroke-linecap:square;stroke-linejoin:miter;"/>
   </g>
   <g id="patch_5">
    <path d="M 55.425 384 
L 567.24 384 
" style="fill:none;stroke:#000000;stroke-linecap:square;stroke-linejoin:miter;"/>
   </g>
   <g id="patch_6">
    <path d="M 55.425 384 
L 55.425 7.678218 
" style="fill:none;stroke:#000000;stroke-linecap:square;stroke-linejoin:miter;"/>
   </g>
   <g id="matplotlib.axis_1">
    <g id="xtick_1">
     <g id="line2d_37">
      <path clip-path="url(#pb7db080fa4)" d="M 174.411442 384 
L 174.411442 7.678218 
" style="fill:none;stroke:#000000;stroke-dasharray:1.000000,3.000000;stroke-dashoffset:0.0;stroke-width:0.5;"/>
     </g>
     <g id="line2d_38">
      <defs>
       <path d="M 0 0 
L 0 -4 
" id="md69c264250" style="stroke:#000000;stroke-width:0.5;"/>
      </defs>
      <g>
       <use style="stroke:#000000;stroke-width:0.5;" x="174.411441527" xlink:href="#md69c264250" y="384.0"/>
      </g>
     </g>
     <g id="line2d_39">
      <defs>
       <path d="M 0 0 
L 0 4 
" id="md4204f2868" style="stroke:#000000;stroke-width:0.5;"/>
      </defs>
      <g>
       <use style="stroke:#000000;stroke-width:0.5;" x="174.411441527" xlink:href="#md4204f2868" y="7.67821782178"/>
      </g>
     </g>
     <g id="text_1">
      <!-- 1 -->
      <defs>
       <path d="M 12.40625 8.296875 
L 28.515625 8.296875 
L 28.515625 63.921875 
L 10.984375 60.40625 
L 10.984375 69.390625 
L 28.421875 72.90625 
L 38.28125 72.90625 
L 38.28125 8.296875 
L 54.390625 8.296875 
L 54.390625 0 
L 12.40625 0 
z
" id="BitstreamVeraSans-Roman-31"/>
      </defs>
      <g transform="translate(168.048941527 403.196875)scale(0.2 -0.2)">
       <use xlink:href="#BitstreamVeraSans-Roman-31"/>
      </g>
     </g>
    </g>
    <g id="xtick_2">
     <g id="line2d_40">
      <path clip-path="url(#pb7db080fa4)" d="M 293.397883 384 
L 293.397883 7.678218 
" style="fill:none;stroke:#000000;stroke-dasharray:1.000000,3.000000;stroke-dashoffset:0.0;stroke-width:0.5;"/>
     </g>
     <g id="line2d_41">
      <g>
       <use style="stroke:#000000;stroke-width:0.5;" x="293.397883054" xlink:href="#md69c264250" y="384.0"/>
      </g>
     </g>
     <g id="line2d_42">
      <g>
       <use style="stroke:#000000;stroke-width:0.5;" x="293.397883054" xlink:href="#md4204f2868" y="7.67821782178"/>
      </g>
     </g>
     <g id="text_2">
      <!-- 2 -->
      <defs>
       <path d="M 19.1875 8.296875 
L 53.609375 8.296875 
L 53.609375 0 
L 7.328125 0 
L 7.328125 8.296875 
Q 12.9375 14.109375 22.625 23.890625 
Q 32.328125 33.6875 34.8125 36.53125 
Q 39.546875 41.84375 41.421875 45.53125 
Q 43.3125 49.21875 43.3125 52.78125 
Q 43.3125 58.59375 39.234375 62.25 
Q 35.15625 65.921875 28.609375 65.921875 
Q 23.96875 65.921875 18.8125 64.3125 
Q 13.671875 62.703125 7.8125 59.421875 
L 7.8125 69.390625 
Q 13.765625 71.78125 18.9375 73 
Q 24.125 74.21875 28.421875 74.21875 
Q 39.75 74.21875 46.484375 68.546875 
Q 53.21875 62.890625 53.21875 53.421875 
Q 53.21875 48.921875 51.53125 44.890625 
Q 49.859375 40.875 45.40625 35.40625 
Q 44.1875 33.984375 37.640625 27.21875 
Q 31.109375 20.453125 19.1875 8.296875 
" id="BitstreamVeraSans-Roman-32"/>
      </defs>
      <g transform="translate(287.035383054 403.196875)scale(0.2 -0.2)">
       <use xlink:href="#BitstreamVeraSans-Roman-32"/>
      </g>
     </g>
    </g>
    <g id="xtick_3">
     <g id="line2d_43">
      <path clip-path="url(#pb7db080fa4)" d="M 412.384325 384 
L 412.384325 7.678218 
" style="fill:none;stroke:#000000;stroke-dasharray:1.000000,3.000000;stroke-dashoffset:0.0;stroke-width:0.5;"/>
     </g>
     <g id="line2d_44">
      <g>
       <use style="stroke:#000000;stroke-width:0.5;" x="412.384324581" xlink:href="#md69c264250" y="384.0"/>
      </g>
     </g>
     <g id="line2d_45">
      <g>
       <use style="stroke:#000000;stroke-width:0.5;" x="412.384324581" xlink:href="#md4204f2868" y="7.67821782178"/>
      </g>
     </g>
     <g id="text_3">
      <!-- 3 -->
      <defs>
       <path d="M 40.578125 39.3125 
Q 47.65625 37.796875 51.625 33 
Q 55.609375 28.21875 55.609375 21.1875 
Q 55.609375 10.40625 48.1875 4.484375 
Q 40.765625 -1.421875 27.09375 -1.421875 
Q 22.515625 -1.421875 17.65625 -0.515625 
Q 12.796875 0.390625 7.625 2.203125 
L 7.625 11.71875 
Q 11.71875 9.328125 16.59375 8.109375 
Q 21.484375 6.890625 26.8125 6.890625 
Q 36.078125 6.890625 40.9375 10.546875 
Q 45.796875 14.203125 45.796875 21.1875 
Q 45.796875 27.640625 41.28125 31.265625 
Q 36.765625 34.90625 28.71875 34.90625 
L 20.21875 34.90625 
L 20.21875 43.015625 
L 29.109375 43.015625 
Q 36.375 43.015625 40.234375 45.921875 
Q 44.09375 48.828125 44.09375 54.296875 
Q 44.09375 59.90625 40.109375 62.90625 
Q 36.140625 65.921875 28.71875 65.921875 
Q 24.65625 65.921875 20.015625 65.03125 
Q 15.375 64.15625 9.8125 62.3125 
L 9.8125 71.09375 
Q 15.4375 72.65625 20.34375 73.4375 
Q 25.25 74.21875 29.59375 74.21875 
Q 40.828125 74.21875 47.359375 69.109375 
Q 53.90625 64.015625 53.90625 55.328125 
Q 53.90625 49.265625 50.4375 45.09375 
Q 46.96875 40.921875 40.578125 39.3125 
" id="BitstreamVeraSans-Roman-33"/>
      </defs>
      <g transform="translate(406.021824581 403.196875)scale(0.2 -0.2)">
       <use xlink:href="#BitstreamVeraSans-Roman-33"/>
      </g>
     </g>
    </g>
    <g id="xtick_4">
     <g id="line2d_46">
      <path clip-path="url(#pb7db080fa4)" d="M 531.370766 384 
L 531.370766 7.678218 
" style="fill:none;stroke:#000000;stroke-dasharray:1.000000,3.000000;stroke-dashoffset:0.0;stroke-width:0.5;"/>
     </g>
     <g id="line2d_47">
      <g>
       <use style="stroke:#000000;stroke-width:0.5;" x="531.370766108" xlink:href="#md69c264250" y="384.0"/>
      </g>
     </g>
     <g id="line2d_48">
      <g>
       <use style="stroke:#000000;stroke-width:0.5;" x="531.370766108" xlink:href="#md4204f2868" y="7.67821782178"/>
      </g>
     </g>
     <g id="text_4">
      <!-- 4 -->
      <defs>
       <path d="M 37.796875 64.3125 
L 12.890625 25.390625 
L 37.796875 25.390625 
z
M 35.203125 72.90625 
L 47.609375 72.90625 
L 47.609375 25.390625 
L 58.015625 25.390625 
L 58.015625 17.1875 
L 47.609375 17.1875 
L 47.609375 0 
L 37.796875 0 
L 37.796875 17.1875 
L 4.890625 17.1875 
L 4.890625 26.703125 
z
" id="BitstreamVeraSans-Roman-34"/>
      </defs>
      <g transform="translate(525.008266108 403.196875)scale(0.2 -0.2)">
       <use xlink:href="#BitstreamVeraSans-Roman-34"/>
      </g>
     </g>
    </g>
    <g id="xtick_5">
     <g id="line2d_49">
      <defs>
       <path d="M 0 0 
L 0 -2 
" id="m293aa48522" style="stroke:#000000;stroke-width:0.5;"/>
      </defs>
      <g>
       <use style="stroke:#000000;stroke-width:0.5;" x="91.243487977" xlink:href="#m293aa48522" y="384.0"/>
      </g>
     </g>
     <g id="line2d_50">
      <defs>
       <path d="M 0 0 
L 0 2 
" id="mf9e1b0491c" style="stroke:#000000;stroke-width:0.5;"/>
      </defs>
      <g>
       <use style="stroke:#000000;stroke-width:0.5;" x="91.243487977" xlink:href="#mf9e1b0491c" y="7.67821782178"/>
      </g>
     </g>
    </g>
    <g id="xtick_6">
     <g id="line2d_51">
      <g>
       <use style="stroke:#000000;stroke-width:0.5;" x="112.195960276" xlink:href="#m293aa48522" y="384.0"/>
      </g>
     </g>
     <g id="line2d_52">
      <g>
       <use style="stroke:#000000;stroke-width:0.5;" x="112.195960276" xlink:href="#mf9e1b0491c" y="7.67821782178"/>
      </g>
     </g>
    </g>
    <g id="xtick_7">
     <g id="line2d_53">
      <g>
       <use style="stroke:#000000;stroke-width:0.5;" x="127.061975954" xlink:href="#m293aa48522" y="384.0"/>
      </g>
     </g>
     <g id="line2d_54">
      <g>
       <use style="stroke:#000000;stroke-width:0.5;" x="127.061975954" xlink:href="#mf9e1b0491c" y="7.67821782178"/>
      </g>
     </g>
    </g>
    <g id="xtick_8">
     <g id="line2d_55">
      <g>
       <use style="stroke:#000000;stroke-width:0.5;" x="138.59295355" xlink:href="#m293aa48522" y="384.0"/>
      </g>
     </g>
     <g id="line2d_56">
      <g>
       <use style="stroke:#000000;stroke-width:0.5;" x="138.59295355" xlink:href="#mf9e1b0491c" y="7.67821782178"/>
      </g>
     </g>
    </g>
    <g id="xtick_9">
     <g id="line2d_57">
      <g>
       <use style="stroke:#000000;stroke-width:0.5;" x="148.014448253" xlink:href="#m293aa48522" y="384.0"/>
      </g>
     </g>
     <g id="line2d_58">
      <g>
       <use style="stroke:#000000;stroke-width:0.5;" x="148.014448253" xlink:href="#mf9e1b0491c" y="7.67821782178"/>
      </g>
     </g>
    </g>
    <g id="xtick_10">
     <g id="line2d_59">
      <g>
       <use style="stroke:#000000;stroke-width:0.5;" x="155.980208523" xlink:href="#m293aa48522" y="384.0"/>
      </g>
     </g>
     <g id="line2d_60">
      <g>
       <use style="stroke:#000000;stroke-width:0.5;" x="155.980208523" xlink:href="#mf9e1b0491c" y="7.67821782178"/>
      </g>
     </g>
    </g>
    <g id="xtick_11">
     <g id="line2d_61">
      <g>
       <use style="stroke:#000000;stroke-width:0.5;" x="162.880463931" xlink:href="#m293aa48522" y="384.0"/>
      </g>
     </g>
     <g id="line2d_62">
      <g>
       <use style="stroke:#000000;stroke-width:0.5;" x="162.880463931" xlink:href="#mf9e1b0491c" y="7.67821782178"/>
      </g>
     </g>
    </g>
    <g id="xtick_12">
     <g id="line2d_63">
      <g>
       <use style="stroke:#000000;stroke-width:0.5;" x="168.966920552" xlink:href="#m293aa48522" y="384.0"/>
      </g>
     </g>
     <g id="line2d_64">
      <g>
       <use style="stroke:#000000;stroke-width:0.5;" x="168.966920552" xlink:href="#mf9e1b0491c" y="7.67821782178"/>
      </g>
     </g>
    </g>
    <g id="xtick_13">
     <g id="line2d_65">
      <g>
       <use style="stroke:#000000;stroke-width:0.5;" x="210.229929504" xlink:href="#m293aa48522" y="384.0"/>
      </g>
     </g>
     <g id="line2d_66">
      <g>
       <use style="stroke:#000000;stroke-width:0.5;" x="210.229929504" xlink:href="#mf9e1b0491c" y="7.67821782178"/>
      </g>
     </g>
    </g>
    <g id="xtick_14">
     <g id="line2d_67">
      <g>
       <use style="stroke:#000000;stroke-width:0.5;" x="231.182401803" xlink:href="#m293aa48522" y="384.0"/>
      </g>
     </g>
     <g id="line2d_68">
      <g>
       <use style="stroke:#000000;stroke-width:0.5;" x="231.182401803" xlink:href="#mf9e1b0491c" y="7.67821782178"/>
      </g>
     </g>
    </g>
    <g id="xtick_15">
     <g id="line2d_69">
      <g>
       <use style="stroke:#000000;stroke-width:0.5;" x="246.048417481" xlink:href="#m293aa48522" y="384.0"/>
      </g>
     </g>
     <g id="line2d_70">
      <g>
       <use style="stroke:#000000;stroke-width:0.5;" x="246.048417481" xlink:href="#mf9e1b0491c" y="7.67821782178"/>
      </g>
     </g>
    </g>
    <g id="xtick_16">
     <g id="line2d_71">
      <g>
       <use style="stroke:#000000;stroke-width:0.5;" x="257.579395077" xlink:href="#m293aa48522" y="384.0"/>
      </g>
     </g>
     <g id="line2d_72">
      <g>
       <use style="stroke:#000000;stroke-width:0.5;" x="257.579395077" xlink:href="#mf9e1b0491c" y="7.67821782178"/>
      </g>
     </g>
    </g>
    <g id="xtick_17">
     <g id="line2d_73">
      <g>
       <use style="stroke:#000000;stroke-width:0.5;" x="267.00088978" xlink:href="#m293aa48522" y="384.0"/>
      </g>
     </g>
     <g id="line2d_74">
      <g>
       <use style="stroke:#000000;stroke-width:0.5;" x="267.00088978" xlink:href="#mf9e1b0491c" y="7.67821782178"/>
      </g>
     </g>
    </g>
    <g id="xtick_18">
     <g id="line2d_75">
      <g>
       <use style="stroke:#000000;stroke-width:0.5;" x="274.96665005" xlink:href="#m293aa48522" y="384.0"/>
      </g>
     </g>
     <g id="line2d_76">
      <g>
       <use style="stroke:#000000;stroke-width:0.5;" x="274.96665005" xlink:href="#mf9e1b0491c" y="7.67821782178"/>
      </g>
     </g>
    </g>
    <g id="xtick_19">
     <g id="line2d_77">
      <g>
       <use style="stroke:#000000;stroke-width:0.5;" x="281.866905458" xlink:href="#m293aa48522" y="384.0"/>
      </g>
     </g>
     <g id="line2d_78">
      <g>
       <use style="stroke:#000000;stroke-width:0.5;" x="281.866905458" xlink:href="#mf9e1b0491c" y="7.67821782178"/>
      </g>
     </g>
    </g>
    <g id="xtick_20">
     <g id="line2d_79">
      <g>
       <use style="stroke:#000000;stroke-width:0.5;" x="287.953362079" xlink:href="#m293aa48522" y="384.0"/>
      </g>
     </g>
     <g id="line2d_80">
      <g>
       <use style="stroke:#000000;stroke-width:0.5;" x="287.953362079" xlink:href="#mf9e1b0491c" y="7.67821782178"/>
      </g>
     </g>
    </g>
    <g id="xtick_21">
     <g id="line2d_81">
      <g>
       <use style="stroke:#000000;stroke-width:0.5;" x="329.216371031" xlink:href="#m293aa48522" y="384.0"/>
      </g>
     </g>
     <g id="line2d_82">
      <g>
       <use style="stroke:#000000;stroke-width:0.5;" x="329.216371031" xlink:href="#mf9e1b0491c" y="7.67821782178"/>
      </g>
     </g>
    </g>
    <g id="xtick_22">
     <g id="line2d_83">
      <g>
       <use style="stroke:#000000;stroke-width:0.5;" x="350.16884333" xlink:href="#m293aa48522" y="384.0"/>
      </g>
     </g>
     <g id="line2d_84">
      <g>
       <use style="stroke:#000000;stroke-width:0.5;" x="350.16884333" xlink:href="#mf9e1b0491c" y="7.67821782178"/>
      </g>
     </g>
    </g>
    <g id="xtick_23">
     <g id="line2d_85">
      <g>
       <use style="stroke:#000000;stroke-width:0.5;" x="365.034859008" xlink:href="#m293aa48522" y="384.0"/>
      </g>
     </g>
     <g id="line2d_86">
      <g>
       <use style="stroke:#000000;stroke-width:0.5;" x="365.034859008" xlink:href="#mf9e1b0491c" y="7.67821782178"/>
      </g>
     </g>
    </g>
    <g id="xtick_24">
     <g id="line2d_87">
      <g>
       <use style="stroke:#000000;stroke-width:0.5;" x="376.565836604" xlink:href="#m293aa48522" y="384.0"/>
      </g>
     </g>
     <g id="line2d_88">
      <g>
       <use style="stroke:#000000;stroke-width:0.5;" x="376.565836604" xlink:href="#mf9e1b0491c" y="7.67821782178"/>
      </g>
     </g>
    </g>
    <g id="xtick_25">
     <g id="line2d_89">
      <g>
       <use style="stroke:#000000;stroke-width:0.5;" x="385.987331307" xlink:href="#m293aa48522" y="384.0"/>
      </g>
     </g>
     <g id="line2d_90">
      <g>
       <use style="stroke:#000000;stroke-width:0.5;" x="385.987331307" xlink:href="#mf9e1b0491c" y="7.67821782178"/>
      </g>
     </g>
    </g>
    <g id="xtick_26">
     <g id="line2d_91">
      <g>
       <use style="stroke:#000000;stroke-width:0.5;" x="393.953091577" xlink:href="#m293aa48522" y="384.0"/>
      </g>
     </g>
     <g id="line2d_92">
      <g>
       <use style="stroke:#000000;stroke-width:0.5;" x="393.953091577" xlink:href="#mf9e1b0491c" y="7.67821782178"/>
      </g>
     </g>
    </g>
    <g id="xtick_27">
     <g id="line2d_93">
      <g>
       <use style="stroke:#000000;stroke-width:0.5;" x="400.853346985" xlink:href="#m293aa48522" y="384.0"/>
      </g>
     </g>
     <g id="line2d_94">
      <g>
       <use style="stroke:#000000;stroke-width:0.5;" x="400.853346985" xlink:href="#mf9e1b0491c" y="7.67821782178"/>
      </g>
     </g>
    </g>
    <g id="xtick_28">
     <g id="line2d_95">
      <g>
       <use style="stroke:#000000;stroke-width:0.5;" x="406.939803606" xlink:href="#m293aa48522" y="384.0"/>
      </g>
     </g>
     <g id="line2d_96">
      <g>
       <use style="stroke:#000000;stroke-width:0.5;" x="406.939803606" xlink:href="#mf9e1b0491c" y="7.67821782178"/>
      </g>
     </g>
    </g>
    <g id="xtick_29">
     <g id="line2d_97">
      <g>
       <use style="stroke:#000000;stroke-width:0.5;" x="448.202812558" xlink:href="#m293aa48522" y="384.0"/>
      </g>
     </g>
     <g id="line2d_98">
      <g>
       <use style="stroke:#000000;stroke-width:0.5;" x="448.202812558" xlink:href="#mf9e1b0491c" y="7.67821782178"/>
      </g>
     </g>
    </g>
    <g id="xtick_30">
     <g id="line2d_99">
      <g>
       <use style="stroke:#000000;stroke-width:0.5;" x="469.155284857" xlink:href="#m293aa48522" y="384.0"/>
      </g>
     </g>
     <g id="line2d_100">
      <g>
       <use style="stroke:#000000;stroke-width:0.5;" x="469.155284857" xlink:href="#mf9e1b0491c" y="7.67821782178"/>
      </g>
     </g>
    </g>
    <g id="xtick_31">
     <g id="line2d_101">
      <g>
       <use style="stroke:#000000;stroke-width:0.5;" x="484.021300535" xlink:href="#m293aa48522" y="384.0"/>
      </g>
     </g>
     <g id="line2d_102">
      <g>
       <use style="stroke:#000000;stroke-width:0.5;" x="484.021300535" xlink:href="#mf9e1b0491c" y="7.67821782178"/>
      </g>
     </g>
    </g>
    <g id="xtick_32">
     <g id="line2d_103">
      <g>
       <use style="stroke:#000000;stroke-width:0.5;" x="495.552278131" xlink:href="#m293aa48522" y="384.0"/>
      </g>
     </g>
     <g id="line2d_104">
      <g>
       <use style="stroke:#000000;stroke-width:0.5;" x="495.552278131" xlink:href="#mf9e1b0491c" y="7.67821782178"/>
      </g>
     </g>
    </g>
    <g id="xtick_33">
     <g id="line2d_105">
      <g>
       <use style="stroke:#000000;stroke-width:0.5;" x="504.973772834" xlink:href="#m293aa48522" y="384.0"/>
      </g>
     </g>
     <g id="line2d_106">
      <g>
       <use style="stroke:#000000;stroke-width:0.5;" x="504.973772834" xlink:href="#mf9e1b0491c" y="7.67821782178"/>
      </g>
     </g>
    </g>
    <g id="xtick_34">
     <g id="line2d_107">
      <g>
       <use style="stroke:#000000;stroke-width:0.5;" x="512.939533104" xlink:href="#m293aa48522" y="384.0"/>
      </g>
     </g>
     <g id="line2d_108">
      <g>
       <use style="stroke:#000000;stroke-width:0.5;" x="512.939533104" xlink:href="#mf9e1b0491c" y="7.67821782178"/>
      </g>
     </g>
    </g>
    <g id="xtick_35">
     <g id="line2d_109">
      <g>
       <use style="stroke:#000000;stroke-width:0.5;" x="519.839788512" xlink:href="#m293aa48522" y="384.0"/>
      </g>
     </g>
     <g id="line2d_110">
      <g>
       <use style="stroke:#000000;stroke-width:0.5;" x="519.839788512" xlink:href="#mf9e1b0491c" y="7.67821782178"/>
      </g>
     </g>
    </g>
    <g id="xtick_36">
     <g id="line2d_111">
      <g>
       <use style="stroke:#000000;stroke-width:0.5;" x="525.926245133" xlink:href="#m293aa48522" y="384.0"/>
      </g>
     </g>
     <g id="line2d_112">
      <g>
       <use style="stroke:#000000;stroke-width:0.5;" x="525.926245133" xlink:href="#mf9e1b0491c" y="7.67821782178"/>
      </g>
     </g>
    </g>
    <g id="xtick_37">
     <g id="line2d_113">
      <g>
       <use style="stroke:#000000;stroke-width:0.5;" x="567.189254085" xlink:href="#m293aa48522" y="384.0"/>
      </g>
     </g>
     <g id="line2d_114">
      <g>
       <use style="stroke:#000000;stroke-width:0.5;" x="567.189254085" xlink:href="#mf9e1b0491c" y="7.67821782178"/>
      </g>
     </g>
    </g>
    <g id="text_5">
     <!-- log10 of FEvals / DIM -->
     <defs>
      <path id="BitstreamVeraSans-Roman-20"/>
      <path d="M 31.78125 66.40625 
Q 24.171875 66.40625 20.328125 58.90625 
Q 16.5 51.421875 16.5 36.375 
Q 16.5 21.390625 20.328125 13.890625 
Q 24.171875 6.390625 31.78125 6.390625 
Q 39.453125 6.390625 43.28125 13.890625 
Q 47.125 21.390625 47.125 36.375 
Q 47.125 51.421875 43.28125 58.90625 
Q 39.453125 66.40625 31.78125 66.40625 
M 31.78125 74.21875 
Q 44.046875 74.21875 50.515625 64.515625 
Q 56.984375 54.828125 56.984375 36.375 
Q 56.984375 17.96875 50.515625 8.265625 
Q 44.046875 -1.421875 31.78125 -1.421875 
Q 19.53125 -1.421875 13.0625 8.265625 
Q 6.59375 17.96875 6.59375 36.375 
Q 6.59375 54.828125 13.0625 64.515625 
Q 19.53125 74.21875 31.78125 74.21875 
" id="BitstreamVeraSans-Roman-30"/>
      <path d="M 9.8125 72.90625 
L 24.515625 72.90625 
L 43.109375 23.296875 
L 61.8125 72.90625 
L 76.515625 72.90625 
L 76.515625 0 
L 66.890625 0 
L 66.890625 64.015625 
L 48.09375 14.015625 
L 38.1875 14.015625 
L 19.390625 64.015625 
L 19.390625 0 
L 9.8125 0 
z
" id="BitstreamVeraSans-Roman-4d"/>
      <path d="M 30.609375 48.390625 
Q 23.390625 48.390625 19.1875 42.75 
Q 14.984375 37.109375 14.984375 27.296875 
Q 14.984375 17.484375 19.15625 11.84375 
Q 23.34375 6.203125 30.609375 6.203125 
Q 37.796875 6.203125 41.984375 11.859375 
Q 46.1875 17.53125 46.1875 27.296875 
Q 46.1875 37.015625 41.984375 42.703125 
Q 37.796875 48.390625 30.609375 48.390625 
M 30.609375 56 
Q 42.328125 56 49.015625 48.375 
Q 55.71875 40.765625 55.71875 27.296875 
Q 55.71875 13.875 49.015625 6.21875 
Q 42.328125 -1.421875 30.609375 -1.421875 
Q 18.84375 -1.421875 12.171875 6.21875 
Q 5.515625 13.875 5.515625 27.296875 
Q 5.515625 40.765625 12.171875 48.375 
Q 18.84375 56 30.609375 56 
" id="BitstreamVeraSans-Roman-6f"/>
      <path d="M 9.421875 75.984375 
L 18.40625 75.984375 
L 18.40625 0 
L 9.421875 0 
z
" id="BitstreamVeraSans-Roman-6c"/>
      <path d="M 9.8125 72.90625 
L 51.703125 72.90625 
L 51.703125 64.59375 
L 19.671875 64.59375 
L 19.671875 43.109375 
L 48.578125 43.109375 
L 48.578125 34.8125 
L 19.671875 34.8125 
L 19.671875 0 
L 9.8125 0 
z
" id="BitstreamVeraSans-Roman-46"/>
      <path d="M 9.8125 72.90625 
L 55.90625 72.90625 
L 55.90625 64.59375 
L 19.671875 64.59375 
L 19.671875 43.015625 
L 54.390625 43.015625 
L 54.390625 34.71875 
L 19.671875 34.71875 
L 19.671875 8.296875 
L 56.78125 8.296875 
L 56.78125 0 
L 9.8125 0 
z
" id="BitstreamVeraSans-Roman-45"/>
      <path d="M 19.671875 64.796875 
L 19.671875 8.109375 
L 31.59375 8.109375 
Q 46.6875 8.109375 53.6875 14.9375 
Q 60.6875 21.78125 60.6875 36.53125 
Q 60.6875 51.171875 53.6875 57.984375 
Q 46.6875 64.796875 31.59375 64.796875 
z
M 9.8125 72.90625 
L 30.078125 72.90625 
Q 51.265625 72.90625 61.171875 64.09375 
Q 71.09375 55.28125 71.09375 36.53125 
Q 71.09375 17.671875 61.125 8.828125 
Q 51.171875 0 30.078125 0 
L 9.8125 0 
z
" id="BitstreamVeraSans-Roman-44"/>
      <path d="M 25.390625 72.90625 
L 33.6875 72.90625 
L 8.296875 -9.28125 
L 0 -9.28125 
z
" id="BitstreamVeraSans-Roman-2f"/>
      <path d="M 2.984375 54.6875 
L 12.5 54.6875 
L 29.59375 8.796875 
L 46.6875 54.6875 
L 56.203125 54.6875 
L 35.6875 0 
L 23.484375 0 
z
" id="BitstreamVeraSans-Roman-76"/>
      <path d="M 45.40625 27.984375 
Q 45.40625 37.75 41.375 43.109375 
Q 37.359375 48.484375 30.078125 48.484375 
Q 22.859375 48.484375 18.828125 43.109375 
Q 14.796875 37.75 14.796875 27.984375 
Q 14.796875 18.265625 18.828125 12.890625 
Q 22.859375 7.515625 30.078125 7.515625 
Q 37.359375 7.515625 41.375 12.890625 
Q 45.40625 18.265625 45.40625 27.984375 
M 54.390625 6.78125 
Q 54.390625 -7.171875 48.1875 -13.984375 
Q 42 -20.796875 29.203125 -20.796875 
Q 24.46875 -20.796875 20.265625 -20.09375 
Q 16.0625 -19.390625 12.109375 -17.921875 
L 12.109375 -9.1875 
Q 16.0625 -11.328125 19.921875 -12.34375 
Q 23.78125 -13.375 27.78125 -13.375 
Q 36.625 -13.375 41.015625 -8.765625 
Q 45.40625 -4.15625 45.40625 5.171875 
L 45.40625 9.625 
Q 42.625 4.78125 38.28125 2.390625 
Q 33.9375 0 27.875 0 
Q 17.828125 0 11.671875 7.65625 
Q 5.515625 15.328125 5.515625 27.984375 
Q 5.515625 40.671875 11.671875 48.328125 
Q 17.828125 56 27.875 56 
Q 33.9375 56 38.28125 53.609375 
Q 42.625 51.21875 45.40625 46.390625 
L 45.40625 54.6875 
L 54.390625 54.6875 
z
" id="BitstreamVeraSans-Roman-67"/>
      <path d="M 37.109375 75.984375 
L 37.109375 68.5 
L 28.515625 68.5 
Q 23.6875 68.5 21.796875 66.546875 
Q 19.921875 64.59375 19.921875 59.515625 
L 19.921875 54.6875 
L 34.71875 54.6875 
L 34.71875 47.703125 
L 19.921875 47.703125 
L 19.921875 0 
L 10.890625 0 
L 10.890625 47.703125 
L 2.296875 47.703125 
L 2.296875 54.6875 
L 10.890625 54.6875 
L 10.890625 58.5 
Q 10.890625 67.625 15.140625 71.796875 
Q 19.390625 75.984375 28.609375 75.984375 
z
" id="BitstreamVeraSans-Roman-66"/>
      <path d="M 34.28125 27.484375 
Q 23.390625 27.484375 19.1875 25 
Q 14.984375 22.515625 14.984375 16.5 
Q 14.984375 11.71875 18.140625 8.90625 
Q 21.296875 6.109375 26.703125 6.109375 
Q 34.1875 6.109375 38.703125 11.40625 
Q 43.21875 16.703125 43.21875 25.484375 
L 43.21875 27.484375 
z
M 52.203125 31.203125 
L 52.203125 0 
L 43.21875 0 
L 43.21875 8.296875 
Q 40.140625 3.328125 35.546875 0.953125 
Q 30.953125 -1.421875 24.3125 -1.421875 
Q 15.921875 -1.421875 10.953125 3.296875 
Q 6 8.015625 6 15.921875 
Q 6 25.140625 12.171875 29.828125 
Q 18.359375 34.515625 30.609375 34.515625 
L 43.21875 34.515625 
L 43.21875 35.40625 
Q 43.21875 41.609375 39.140625 45 
Q 35.0625 48.390625 27.6875 48.390625 
Q 23 48.390625 18.546875 47.265625 
Q 14.109375 46.140625 10.015625 43.890625 
L 10.015625 52.203125 
Q 14.9375 54.109375 19.578125 55.046875 
Q 24.21875 56 28.609375 56 
Q 40.484375 56 46.34375 49.84375 
Q 52.203125 43.703125 52.203125 31.203125 
" id="BitstreamVeraSans-Roman-61"/>
      <path d="M 44.28125 53.078125 
L 44.28125 44.578125 
Q 40.484375 46.53125 36.375 47.5 
Q 32.28125 48.484375 27.875 48.484375 
Q 21.1875 48.484375 17.84375 46.4375 
Q 14.5 44.390625 14.5 40.28125 
Q 14.5 37.15625 16.890625 35.375 
Q 19.28125 33.59375 26.515625 31.984375 
L 29.59375 31.296875 
Q 39.15625 29.25 43.1875 25.515625 
Q 47.21875 21.78125 47.21875 15.09375 
Q 47.21875 7.46875 41.1875 3.015625 
Q 35.15625 -1.421875 24.609375 -1.421875 
Q 20.21875 -1.421875 15.453125 -0.5625 
Q 10.6875 0.296875 5.421875 2 
L 5.421875 11.28125 
Q 10.40625 8.6875 15.234375 7.390625 
Q 20.0625 6.109375 24.8125 6.109375 
Q 31.15625 6.109375 34.5625 8.28125 
Q 37.984375 10.453125 37.984375 14.40625 
Q 37.984375 18.0625 35.515625 20.015625 
Q 33.0625 21.96875 24.703125 23.78125 
L 21.578125 24.515625 
Q 13.234375 26.265625 9.515625 29.90625 
Q 5.8125 33.546875 5.8125 39.890625 
Q 5.8125 47.609375 11.28125 51.796875 
Q 16.75 56 26.8125 56 
Q 31.78125 56 36.171875 55.265625 
Q 40.578125 54.546875 44.28125 53.078125 
" id="BitstreamVeraSans-Roman-73"/>
      <path d="M 9.8125 72.90625 
L 19.671875 72.90625 
L 19.671875 0 
L 9.8125 0 
z
" id="BitstreamVeraSans-Roman-49"/>
     </defs>
     <g transform="translate(206.2590625 427.553125)scale(0.2 -0.2)">
      <use xlink:href="#BitstreamVeraSans-Roman-6c"/>
      <use x="27.783203125" xlink:href="#BitstreamVeraSans-Roman-6f"/>
      <use x="88.96484375" xlink:href="#BitstreamVeraSans-Roman-67"/>
      <use x="152.44140625" xlink:href="#BitstreamVeraSans-Roman-31"/>
      <use x="216.064453125" xlink:href="#BitstreamVeraSans-Roman-30"/>
      <use x="279.6875" xlink:href="#BitstreamVeraSans-Roman-20"/>
      <use x="311.474609375" xlink:href="#BitstreamVeraSans-Roman-6f"/>
      <use x="372.65625" xlink:href="#BitstreamVeraSans-Roman-66"/>
      <use x="407.861328125" xlink:href="#BitstreamVeraSans-Roman-20"/>
      <use x="439.6484375" xlink:href="#BitstreamVeraSans-Roman-46"/>
      <use x="497.16796875" xlink:href="#BitstreamVeraSans-Roman-45"/>
      <use x="560.3515625" xlink:href="#BitstreamVeraSans-Roman-76"/>
      <use x="619.53125" xlink:href="#BitstreamVeraSans-Roman-61"/>
      <use x="680.810546875" xlink:href="#BitstreamVeraSans-Roman-6c"/>
      <use x="708.59375" xlink:href="#BitstreamVeraSans-Roman-73"/>
      <use x="760.693359375" xlink:href="#BitstreamVeraSans-Roman-20"/>
      <use x="792.48046875" xlink:href="#BitstreamVeraSans-Roman-2f"/>
      <use x="826.171875" xlink:href="#BitstreamVeraSans-Roman-20"/>
      <use x="857.958984375" xlink:href="#BitstreamVeraSans-Roman-44"/>
      <use x="934.9609375" xlink:href="#BitstreamVeraSans-Roman-49"/>
      <use x="964.453125" xlink:href="#BitstreamVeraSans-Roman-4d"/>
     </g>
    </g>
   </g>
   <g id="matplotlib.axis_2">
    <g id="ytick_1">
     <g id="line2d_115">
      <path clip-path="url(#pb7db080fa4)" d="M 55.425 384 
L 567.24 384 
" style="fill:none;stroke:#000000;stroke-dasharray:1.000000,3.000000;stroke-dashoffset:0.0;stroke-width:0.5;"/>
     </g>
     <g id="line2d_116">
      <defs>
       <path d="M 0 0 
L 4 0 
" id="m8ed62900fc" style="stroke:#000000;stroke-width:0.5;"/>
      </defs>
      <g>
       <use style="stroke:#000000;stroke-width:0.5;" x="55.425" xlink:href="#m8ed62900fc" y="384.0"/>
      </g>
     </g>
     <g id="line2d_117">
      <defs>
       <path d="M 0 0 
L -4 0 
" id="m64ef515d69" style="stroke:#000000;stroke-width:0.5;"/>
      </defs>
      <g>
       <use style="stroke:#000000;stroke-width:0.5;" x="567.24" xlink:href="#m64ef515d69" y="384.0"/>
      </g>
     </g>
     <g id="text_6">
      <!-- 0.0 -->
      <defs>
       <path d="M 10.6875 12.40625 
L 21 12.40625 
L 21 0 
L 10.6875 0 
z
" id="BitstreamVeraSans-Roman-2e"/>
      </defs>
      <g transform="translate(25.98 388.415)scale(0.16 -0.16)">
       <use xlink:href="#BitstreamVeraSans-Roman-30"/>
       <use x="63.623046875" xlink:href="#BitstreamVeraSans-Roman-2e"/>
       <use x="95.41015625" xlink:href="#BitstreamVeraSans-Roman-30"/>
      </g>
     </g>
    </g>
    <g id="ytick_2">
     <g id="line2d_118">
      <path clip-path="url(#pb7db080fa4)" d="M 55.425 309.480835 
L 567.24 309.480835 
" style="fill:none;stroke:#000000;stroke-dasharray:1.000000,3.000000;stroke-dashoffset:0.0;stroke-width:0.5;"/>
     </g>
     <g id="line2d_119">
      <g>
       <use style="stroke:#000000;stroke-width:0.5;" x="55.425" xlink:href="#m8ed62900fc" y="309.480835212"/>
      </g>
     </g>
     <g id="line2d_120">
      <g>
       <use style="stroke:#000000;stroke-width:0.5;" x="567.24" xlink:href="#m64ef515d69" y="309.480835212"/>
      </g>
     </g>
     <g id="text_7">
      <!-- 0.2 -->
      <g transform="translate(25.98 313.895835212)scale(0.16 -0.16)">
       <use xlink:href="#BitstreamVeraSans-Roman-30"/>
       <use x="63.623046875" xlink:href="#BitstreamVeraSans-Roman-2e"/>
       <use x="95.41015625" xlink:href="#BitstreamVeraSans-Roman-32"/>
      </g>
     </g>
    </g>
    <g id="ytick_3">
     <g id="line2d_121">
      <path clip-path="url(#pb7db080fa4)" d="M 55.425 234.96167 
L 567.24 234.96167 
" style="fill:none;stroke:#000000;stroke-dasharray:1.000000,3.000000;stroke-dashoffset:0.0;stroke-width:0.5;"/>
     </g>
     <g id="line2d_122">
      <g>
       <use style="stroke:#000000;stroke-width:0.5;" x="55.425" xlink:href="#m8ed62900fc" y="234.961670424"/>
      </g>
     </g>
     <g id="line2d_123">
      <g>
       <use style="stroke:#000000;stroke-width:0.5;" x="567.24" xlink:href="#m64ef515d69" y="234.961670424"/>
      </g>
     </g>
     <g id="text_8">
      <!-- 0.4 -->
      <g transform="translate(25.98 239.376670424)scale(0.16 -0.16)">
       <use xlink:href="#BitstreamVeraSans-Roman-30"/>
       <use x="63.623046875" xlink:href="#BitstreamVeraSans-Roman-2e"/>
       <use x="95.41015625" xlink:href="#BitstreamVeraSans-Roman-34"/>
      </g>
     </g>
    </g>
    <g id="ytick_4">
     <g id="line2d_124">
      <path clip-path="url(#pb7db080fa4)" d="M 55.425 160.442506 
L 567.24 160.442506 
" style="fill:none;stroke:#000000;stroke-dasharray:1.000000,3.000000;stroke-dashoffset:0.0;stroke-width:0.5;"/>
     </g>
     <g id="line2d_125">
      <g>
       <use style="stroke:#000000;stroke-width:0.5;" x="55.425" xlink:href="#m8ed62900fc" y="160.442505637"/>
      </g>
     </g>
     <g id="line2d_126">
      <g>
       <use style="stroke:#000000;stroke-width:0.5;" x="567.24" xlink:href="#m64ef515d69" y="160.442505637"/>
      </g>
     </g>
     <g id="text_9">
      <!-- 0.6 -->
      <defs>
       <path d="M 33.015625 40.375 
Q 26.375 40.375 22.484375 35.828125 
Q 18.609375 31.296875 18.609375 23.390625 
Q 18.609375 15.53125 22.484375 10.953125 
Q 26.375 6.390625 33.015625 6.390625 
Q 39.65625 6.390625 43.53125 10.953125 
Q 47.40625 15.53125 47.40625 23.390625 
Q 47.40625 31.296875 43.53125 35.828125 
Q 39.65625 40.375 33.015625 40.375 
M 52.59375 71.296875 
L 52.59375 62.3125 
Q 48.875 64.0625 45.09375 64.984375 
Q 41.3125 65.921875 37.59375 65.921875 
Q 27.828125 65.921875 22.671875 59.328125 
Q 17.53125 52.734375 16.796875 39.40625 
Q 19.671875 43.65625 24.015625 45.921875 
Q 28.375 48.1875 33.59375 48.1875 
Q 44.578125 48.1875 50.953125 41.515625 
Q 57.328125 34.859375 57.328125 23.390625 
Q 57.328125 12.15625 50.6875 5.359375 
Q 44.046875 -1.421875 33.015625 -1.421875 
Q 20.359375 -1.421875 13.671875 8.265625 
Q 6.984375 17.96875 6.984375 36.375 
Q 6.984375 53.65625 15.1875 63.9375 
Q 23.390625 74.21875 37.203125 74.21875 
Q 40.921875 74.21875 44.703125 73.484375 
Q 48.484375 72.75 52.59375 71.296875 
" id="BitstreamVeraSans-Roman-36"/>
      </defs>
      <g transform="translate(25.98 164.857505637)scale(0.16 -0.16)">
       <use xlink:href="#BitstreamVeraSans-Roman-30"/>
       <use x="63.623046875" xlink:href="#BitstreamVeraSans-Roman-2e"/>
       <use x="95.41015625" xlink:href="#BitstreamVeraSans-Roman-36"/>
      </g>
     </g>
    </g>
    <g id="ytick_5">
     <g id="line2d_127">
      <path clip-path="url(#pb7db080fa4)" d="M 55.425 85.923341 
L 567.24 85.923341 
" style="fill:none;stroke:#000000;stroke-dasharray:1.000000,3.000000;stroke-dashoffset:0.0;stroke-width:0.5;"/>
     </g>
     <g id="line2d_128">
      <g>
       <use style="stroke:#000000;stroke-width:0.5;" x="55.425" xlink:href="#m8ed62900fc" y="85.9233408489"/>
      </g>
     </g>
     <g id="line2d_129">
      <g>
       <use style="stroke:#000000;stroke-width:0.5;" x="567.24" xlink:href="#m64ef515d69" y="85.9233408489"/>
      </g>
     </g>
     <g id="text_10">
      <!-- 0.8 -->
      <defs>
       <path d="M 31.78125 34.625 
Q 24.75 34.625 20.71875 30.859375 
Q 16.703125 27.09375 16.703125 20.515625 
Q 16.703125 13.921875 20.71875 10.15625 
Q 24.75 6.390625 31.78125 6.390625 
Q 38.8125 6.390625 42.859375 10.171875 
Q 46.921875 13.96875 46.921875 20.515625 
Q 46.921875 27.09375 42.890625 30.859375 
Q 38.875 34.625 31.78125 34.625 
M 21.921875 38.8125 
Q 15.578125 40.375 12.03125 44.71875 
Q 8.5 49.078125 8.5 55.328125 
Q 8.5 64.0625 14.71875 69.140625 
Q 20.953125 74.21875 31.78125 74.21875 
Q 42.671875 74.21875 48.875 69.140625 
Q 55.078125 64.0625 55.078125 55.328125 
Q 55.078125 49.078125 51.53125 44.71875 
Q 48 40.375 41.703125 38.8125 
Q 48.828125 37.15625 52.796875 32.3125 
Q 56.78125 27.484375 56.78125 20.515625 
Q 56.78125 9.90625 50.3125 4.234375 
Q 43.84375 -1.421875 31.78125 -1.421875 
Q 19.734375 -1.421875 13.25 4.234375 
Q 6.78125 9.90625 6.78125 20.515625 
Q 6.78125 27.484375 10.78125 32.3125 
Q 14.796875 37.15625 21.921875 38.8125 
M 18.3125 54.390625 
Q 18.3125 48.734375 21.84375 45.5625 
Q 25.390625 42.390625 31.78125 42.390625 
Q 38.140625 42.390625 41.71875 45.5625 
Q 45.3125 48.734375 45.3125 54.390625 
Q 45.3125 60.0625 41.71875 63.234375 
Q 38.140625 66.40625 31.78125 66.40625 
Q 25.390625 66.40625 21.84375 63.234375 
Q 18.3125 60.0625 18.3125 54.390625 
" id="BitstreamVeraSans-Roman-38"/>
      </defs>
      <g transform="translate(25.98 90.3383408489)scale(0.16 -0.16)">
       <use xlink:href="#BitstreamVeraSans-Roman-30"/>
       <use x="63.623046875" xlink:href="#BitstreamVeraSans-Roman-2e"/>
       <use x="95.41015625" xlink:href="#BitstreamVeraSans-Roman-38"/>
      </g>
     </g>
    </g>
    <g id="ytick_6">
     <g id="line2d_130">
      <path clip-path="url(#pb7db080fa4)" d="M 55.425 11.404176 
L 567.24 11.404176 
" style="fill:none;stroke:#000000;stroke-dasharray:1.000000,3.000000;stroke-dashoffset:0.0;stroke-width:0.5;"/>
     </g>
     <g id="line2d_131">
      <g>
       <use style="stroke:#000000;stroke-width:0.5;" x="55.425" xlink:href="#m8ed62900fc" y="11.4041760612"/>
      </g>
     </g>
     <g id="line2d_132">
      <g>
       <use style="stroke:#000000;stroke-width:0.5;" x="567.24" xlink:href="#m64ef515d69" y="11.4041760612"/>
      </g>
     </g>
     <g id="text_11">
      <!-- 1.0 -->
      <g transform="translate(25.98 15.8191760612)scale(0.16 -0.16)">
       <use xlink:href="#BitstreamVeraSans-Roman-31"/>
       <use x="63.623046875" xlink:href="#BitstreamVeraSans-Roman-2e"/>
       <use x="95.41015625" xlink:href="#BitstreamVeraSans-Roman-30"/>
      </g>
     </g>
    </g>
    <g id="text_12">
     <!-- proportion of trials -->
     <defs>
      <path d="M 54.890625 33.015625 
L 54.890625 0 
L 45.90625 0 
L 45.90625 32.71875 
Q 45.90625 40.484375 42.875 44.328125 
Q 39.84375 48.1875 33.796875 48.1875 
Q 26.515625 48.1875 22.3125 43.546875 
Q 18.109375 38.921875 18.109375 30.90625 
L 18.109375 0 
L 9.078125 0 
L 9.078125 54.6875 
L 18.109375 54.6875 
L 18.109375 46.1875 
Q 21.34375 51.125 25.703125 53.5625 
Q 30.078125 56 35.796875 56 
Q 45.21875 56 50.046875 50.171875 
Q 54.890625 44.34375 54.890625 33.015625 
" id="BitstreamVeraSans-Roman-6e"/>
      <path d="M 9.421875 54.6875 
L 18.40625 54.6875 
L 18.40625 0 
L 9.421875 0 
z
M 9.421875 75.984375 
L 18.40625 75.984375 
L 18.40625 64.59375 
L 9.421875 64.59375 
z
" id="BitstreamVeraSans-Roman-69"/>
      <path d="M 18.3125 70.21875 
L 18.3125 54.6875 
L 36.8125 54.6875 
L 36.8125 47.703125 
L 18.3125 47.703125 
L 18.3125 18.015625 
Q 18.3125 11.328125 20.140625 9.421875 
Q 21.96875 7.515625 27.59375 7.515625 
L 36.8125 7.515625 
L 36.8125 0 
L 27.59375 0 
Q 17.1875 0 13.234375 3.875 
Q 9.28125 7.765625 9.28125 18.015625 
L 9.28125 47.703125 
L 2.6875 47.703125 
L 2.6875 54.6875 
L 9.28125 54.6875 
L 9.28125 70.21875 
z
" id="BitstreamVeraSans-Roman-74"/>
      <path d="M 41.109375 46.296875 
Q 39.59375 47.171875 37.8125 47.578125 
Q 36.03125 48 33.890625 48 
Q 26.265625 48 22.1875 43.046875 
Q 18.109375 38.09375 18.109375 28.8125 
L 18.109375 0 
L 9.078125 0 
L 9.078125 54.6875 
L 18.109375 54.6875 
L 18.109375 46.1875 
Q 20.953125 51.171875 25.484375 53.578125 
Q 30.03125 56 36.53125 56 
Q 37.453125 56 38.578125 55.875 
Q 39.703125 55.765625 41.0625 55.515625 
z
" id="BitstreamVeraSans-Roman-72"/>
      <path d="M 18.109375 8.203125 
L 18.109375 -20.796875 
L 9.078125 -20.796875 
L 9.078125 54.6875 
L 18.109375 54.6875 
L 18.109375 46.390625 
Q 20.953125 51.265625 25.265625 53.625 
Q 29.59375 56 35.59375 56 
Q 45.5625 56 51.78125 48.09375 
Q 58.015625 40.1875 58.015625 27.296875 
Q 58.015625 14.40625 51.78125 6.484375 
Q 45.5625 -1.421875 35.59375 -1.421875 
Q 29.59375 -1.421875 25.265625 0.953125 
Q 20.953125 3.328125 18.109375 8.203125 
M 48.6875 27.296875 
Q 48.6875 37.203125 44.609375 42.84375 
Q 40.53125 48.484375 33.40625 48.484375 
Q 26.265625 48.484375 22.1875 42.84375 
Q 18.109375 37.203125 18.109375 27.296875 
Q 18.109375 17.390625 22.1875 11.75 
Q 26.265625 6.109375 33.40625 6.109375 
Q 40.53125 6.109375 44.609375 11.75 
Q 48.6875 17.390625 48.6875 27.296875 
" id="BitstreamVeraSans-Roman-70"/>
     </defs>
     <g transform="translate(16.820625 289.067233911)rotate(-90.0)scale(0.2 -0.2)">
      <use xlink:href="#BitstreamVeraSans-Roman-70"/>
      <use x="63.4765625" xlink:href="#BitstreamVeraSans-Roman-72"/>
      <use x="104.55859375" xlink:href="#BitstreamVeraSans-Roman-6f"/>
      <use x="165.740234375" xlink:href="#BitstreamVeraSans-Roman-70"/>
      <use x="229.216796875" xlink:href="#BitstreamVeraSans-Roman-6f"/>
      <use x="290.3984375" xlink:href="#BitstreamVeraSans-Roman-72"/>
      <use x="331.51171875" xlink:href="#BitstreamVeraSans-Roman-74"/>
      <use x="370.720703125" xlink:href="#BitstreamVeraSans-Roman-69"/>
      <use x="398.50390625" xlink:href="#BitstreamVeraSans-Roman-6f"/>
      <use x="459.685546875" xlink:href="#BitstreamVeraSans-Roman-6e"/>
      <use x="523.064453125" xlink:href="#BitstreamVeraSans-Roman-20"/>
      <use x="554.8515625" xlink:href="#BitstreamVeraSans-Roman-6f"/>
      <use x="616.033203125" xlink:href="#BitstreamVeraSans-Roman-66"/>
      <use x="651.23828125" xlink:href="#BitstreamVeraSans-Roman-20"/>
      <use x="683.025390625" xlink:href="#BitstreamVeraSans-Roman-74"/>
      <use x="722.234375" xlink:href="#BitstreamVeraSans-Roman-72"/>
      <use x="763.34765625" xlink:href="#BitstreamVeraSans-Roman-69"/>
      <use x="791.130859375" xlink:href="#BitstreamVeraSans-Roman-61"/>
      <use x="852.41015625" xlink:href="#BitstreamVeraSans-Roman-6c"/>
      <use x="880.193359375" xlink:href="#BitstreamVeraSans-Roman-73"/>
     </g>
    </g>
   </g>
   <g id="text_13">
    <!-- {f10-f14}, 20-D -->
    <defs>
     <path d="M 11.71875 12.40625 
L 22.015625 12.40625 
L 22.015625 4 
L 14.015625 -11.625 
L 7.71875 -11.625 
L 11.71875 4 
z
" id="BitstreamVeraSans-Roman-2c"/>
     <path d="M 12.5 -9.28125 
L 15.921875 -9.28125 
Q 22.75 -9.28125 24.828125 -7.171875 
Q 26.90625 -5.078125 26.90625 1.90625 
L 26.90625 14.015625 
Q 26.90625 21.625 29.09375 25.09375 
Q 31.296875 28.5625 36.71875 29.890625 
Q 31.296875 31.109375 29.09375 34.5625 
Q 26.90625 38.03125 26.90625 45.703125 
L 26.90625 57.8125 
Q 26.90625 64.75 24.828125 66.875 
Q 22.75 69 15.921875 69 
L 12.5 69 
L 12.5 75.984375 
L 15.578125 75.984375 
Q 27.734375 75.984375 31.8125 72.390625 
Q 35.890625 68.796875 35.890625 58.015625 
L 35.890625 46.296875 
Q 35.890625 39.015625 38.515625 36.203125 
Q 41.15625 33.40625 48.09375 33.40625 
L 51.125 33.40625 
L 51.125 26.421875 
L 48.09375 26.421875 
Q 41.15625 26.421875 38.515625 23.578125 
Q 35.890625 20.75 35.890625 13.375 
L 35.890625 1.703125 
Q 35.890625 -9.078125 31.8125 -12.6875 
Q 27.734375 -16.3125 15.578125 -16.3125 
L 12.5 -16.3125 
z
" id="BitstreamVeraSans-Roman-7d"/>
     <path d="M 51.125 -9.28125 
L 51.125 -16.3125 
L 48.09375 -16.3125 
Q 35.9375 -16.3125 31.8125 -12.6875 
Q 27.6875 -9.078125 27.6875 1.703125 
L 27.6875 13.375 
Q 27.6875 20.75 25.046875 23.578125 
Q 22.40625 26.421875 15.484375 26.421875 
L 12.5 26.421875 
L 12.5 33.40625 
L 15.484375 33.40625 
Q 22.46875 33.40625 25.078125 36.203125 
Q 27.6875 39.015625 27.6875 46.296875 
L 27.6875 58.015625 
Q 27.6875 68.796875 31.8125 72.390625 
Q 35.9375 75.984375 48.09375 75.984375 
L 51.125 75.984375 
L 51.125 69 
L 47.796875 69 
Q 40.921875 69 38.8125 66.84375 
Q 36.71875 64.703125 36.71875 57.8125 
L 36.71875 45.703125 
Q 36.71875 38.03125 34.5 34.5625 
Q 32.28125 31.109375 26.90625 29.890625 
Q 32.328125 28.5625 34.515625 25.09375 
Q 36.71875 21.625 36.71875 14.015625 
L 36.71875 1.90625 
Q 36.71875 -4.984375 38.8125 -7.125 
Q 40.921875 -9.28125 47.796875 -9.28125 
z
" id="BitstreamVeraSans-Roman-7b"/>
     <path d="M 4.890625 31.390625 
L 31.203125 31.390625 
L 31.203125 23.390625 
L 4.890625 23.390625 
z
" id="BitstreamVeraSans-Roman-2d"/>
    </defs>
    <g transform="translate(232.12 30.4015284653)scale(0.2 -0.2)">
     <use xlink:href="#BitstreamVeraSans-Roman-7b"/>
     <use x="63.623046875" xlink:href="#BitstreamVeraSans-Roman-66"/>
     <use x="98.828125" xlink:href="#BitstreamVeraSans-Roman-31"/>
     <use x="162.451171875" xlink:href="#BitstreamVeraSans-Roman-30"/>
     <use x="226.07421875" xlink:href="#BitstreamVeraSans-Roman-2d"/>
     <use x="262.158203125" xlink:href="#BitstreamVeraSans-Roman-66"/>
     <use x="297.36328125" xlink:href="#BitstreamVeraSans-Roman-31"/>
     <use x="360.986328125" xlink:href="#BitstreamVeraSans-Roman-34"/>
     <use x="424.609375" xlink:href="#BitstreamVeraSans-Roman-7d"/>
     <use x="488.232421875" xlink:href="#BitstreamVeraSans-Roman-2c"/>
     <use x="520.01953125" xlink:href="#BitstreamVeraSans-Roman-20"/>
     <use x="551.806640625" xlink:href="#BitstreamVeraSans-Roman-32"/>
     <use x="615.4296875" xlink:href="#BitstreamVeraSans-Roman-30"/>
     <use x="679.052734375" xlink:href="#BitstreamVeraSans-Roman-2d"/>
     <use x="715.13671875" xlink:href="#BitstreamVeraSans-Roman-44"/>
    </g>
   </g>
   <g id="text_14">
    <!-- absolute targets -->
    <defs>
     <path d="M 56.203125 29.59375 
L 56.203125 25.203125 
L 14.890625 25.203125 
Q 15.484375 15.921875 20.484375 11.0625 
Q 25.484375 6.203125 34.421875 6.203125 
Q 39.59375 6.203125 44.453125 7.46875 
Q 49.3125 8.734375 54.109375 11.28125 
L 54.109375 2.78125 
Q 49.265625 0.734375 44.1875 -0.34375 
Q 39.109375 -1.421875 33.890625 -1.421875 
Q 20.796875 -1.421875 13.15625 6.1875 
Q 5.515625 13.8125 5.515625 26.8125 
Q 5.515625 40.234375 12.765625 48.109375 
Q 20.015625 56 32.328125 56 
Q 43.359375 56 49.78125 48.890625 
Q 56.203125 41.796875 56.203125 29.59375 
M 47.21875 32.234375 
Q 47.125 39.59375 43.09375 43.984375 
Q 39.0625 48.390625 32.421875 48.390625 
Q 24.90625 48.390625 20.390625 44.140625 
Q 15.875 39.890625 15.1875 32.171875 
z
" id="BitstreamVeraSans-Roman-65"/>
     <path d="M 8.5 21.578125 
L 8.5 54.6875 
L 17.484375 54.6875 
L 17.484375 21.921875 
Q 17.484375 14.15625 20.5 10.265625 
Q 23.53125 6.390625 29.59375 6.390625 
Q 36.859375 6.390625 41.078125 11.03125 
Q 45.3125 15.671875 45.3125 23.6875 
L 45.3125 54.6875 
L 54.296875 54.6875 
L 54.296875 0 
L 45.3125 0 
L 45.3125 8.40625 
Q 42.046875 3.421875 37.71875 1 
Q 33.40625 -1.421875 27.6875 -1.421875 
Q 18.265625 -1.421875 13.375 4.4375 
Q 8.5 10.296875 8.5 21.578125 
" id="BitstreamVeraSans-Roman-75"/>
     <path d="M 48.6875 27.296875 
Q 48.6875 37.203125 44.609375 42.84375 
Q 40.53125 48.484375 33.40625 48.484375 
Q 26.265625 48.484375 22.1875 42.84375 
Q 18.109375 37.203125 18.109375 27.296875 
Q 18.109375 17.390625 22.1875 11.75 
Q 26.265625 6.109375 33.40625 6.109375 
Q 40.53125 6.109375 44.609375 11.75 
Q 48.6875 17.390625 48.6875 27.296875 
M 18.109375 46.390625 
Q 20.953125 51.265625 25.265625 53.625 
Q 29.59375 56 35.59375 56 
Q 45.5625 56 51.78125 48.09375 
Q 58.015625 40.1875 58.015625 27.296875 
Q 58.015625 14.40625 51.78125 6.484375 
Q 45.5625 -1.421875 35.59375 -1.421875 
Q 29.59375 -1.421875 25.265625 0.953125 
Q 20.953125 3.328125 18.109375 8.203125 
L 18.109375 0 
L 9.078125 0 
L 9.078125 75.984375 
L 18.109375 75.984375 
z
" id="BitstreamVeraSans-Roman-62"/>
    </defs>
    <g transform="translate(55.425 756.595823939)scale(0.14 -0.14)">
     <use xlink:href="#BitstreamVeraSans-Roman-61"/>
     <use x="61.279296875" xlink:href="#BitstreamVeraSans-Roman-62"/>
     <use x="124.755859375" xlink:href="#BitstreamVeraSans-Roman-73"/>
     <use x="176.85546875" xlink:href="#BitstreamVeraSans-Roman-6f"/>
     <use x="238.037109375" xlink:href="#BitstreamVeraSans-Roman-6c"/>
     <use x="265.8203125" xlink:href="#BitstreamVeraSans-Roman-75"/>
     <use x="329.19921875" xlink:href="#BitstreamVeraSans-Roman-74"/>
     <use x="368.408203125" xlink:href="#BitstreamVeraSans-Roman-65"/>
     <use x="429.931640625" xlink:href="#BitstreamVeraSans-Roman-20"/>
     <use x="461.71875" xlink:href="#BitstreamVeraSans-Roman-74"/>
     <use x="500.927734375" xlink:href="#BitstreamVeraSans-Roman-61"/>
     <use x="562.20703125" xlink:href="#BitstreamVeraSans-Roman-72"/>
     <use x="603.3046875" xlink:href="#BitstreamVeraSans-Roman-67"/>
     <use x="666.78125" xlink:href="#BitstreamVeraSans-Roman-65"/>
     <use x="728.3046875" xlink:href="#BitstreamVeraSans-Roman-74"/>
     <use x="767.513671875" xlink:href="#BitstreamVeraSans-Roman-73"/>
    </g>
   </g>
   <g id="text_15">
    <!-- v2.2.1.10 -->
    <g style="fill:#808080;" transform="translate(287.6996875 378.157094678)scale(0.1 -0.1)">
     <use xlink:href="#BitstreamVeraSans-Roman-76"/>
     <use x="59.1796875" xlink:href="#BitstreamVeraSans-Roman-32"/>
     <use x="122.802734375" xlink:href="#BitstreamVeraSans-Roman-2e"/>
     <use x="154.58984375" xlink:href="#BitstreamVeraSans-Roman-32"/>
     <use x="218.212890625" xlink:href="#BitstreamVeraSans-Roman-2e"/>
     <use x="250.0" xlink:href="#BitstreamVeraSans-Roman-31"/>
     <use x="313.623046875" xlink:href="#BitstreamVeraSans-Roman-2e"/>
     <use x="345.41015625" xlink:href="#BitstreamVeraSans-Roman-31"/>
     <use x="409.033203125" xlink:href="#BitstreamVeraSans-Roman-30"/>
    </g>
   </g>
   <g id="legend_1">
    <g id="patch_7">
     <path d="M 65.425 141.103218 
L 202.646875 141.103218 
L 202.646875 17.678218 
L 65.425 17.678218 
z
" style="fill:#ffffff;opacity:0.2;stroke:#000000;stroke-linejoin:miter;"/>
    </g>
    <g id="line2d_133">
     <path d="M 79.425 33.875093 
L 107.425 33.875093 
" style="fill:none;stroke:#000000;stroke-linecap:square;"/>
    </g>
    <g id="line2d_134"/>
    <g id="text_16">
     <!-- 1: 1/5 -->
     <defs>
      <path d="M 11.71875 12.40625 
L 22.015625 12.40625 
L 22.015625 0 
L 11.71875 0 
z
M 11.71875 51.703125 
L 22.015625 51.703125 
L 22.015625 39.3125 
L 11.71875 39.3125 
z
" id="BitstreamVeraSans-Roman-3a"/>
      <path d="M 10.796875 72.90625 
L 49.515625 72.90625 
L 49.515625 64.59375 
L 19.828125 64.59375 
L 19.828125 46.734375 
Q 21.96875 47.46875 24.109375 47.828125 
Q 26.265625 48.1875 28.421875 48.1875 
Q 40.625 48.1875 47.75 41.5 
Q 54.890625 34.8125 54.890625 23.390625 
Q 54.890625 11.625 47.5625 5.09375 
Q 40.234375 -1.421875 26.90625 -1.421875 
Q 22.3125 -1.421875 17.546875 -0.640625 
Q 12.796875 0.140625 7.71875 1.703125 
L 7.71875 11.625 
Q 12.109375 9.234375 16.796875 8.0625 
Q 21.484375 6.890625 26.703125 6.890625 
Q 35.15625 6.890625 40.078125 11.328125 
Q 45.015625 15.765625 45.015625 23.390625 
Q 45.015625 31 40.078125 35.4375 
Q 35.15625 39.890625 26.703125 39.890625 
Q 22.75 39.890625 18.8125 39.015625 
Q 14.890625 38.140625 10.796875 36.28125 
z
" id="BitstreamVeraSans-Roman-35"/>
     </defs>
     <g transform="translate(129.425 40.8750928218)scale(0.2 -0.2)">
      <use xlink:href="#BitstreamVeraSans-Roman-31"/>
      <use x="63.623046875" xlink:href="#BitstreamVeraSans-Roman-3a"/>
      <use x="97.314453125" xlink:href="#BitstreamVeraSans-Roman-20"/>
      <use x="129.1015625" xlink:href="#BitstreamVeraSans-Roman-31"/>
      <use x="192.724609375" xlink:href="#BitstreamVeraSans-Roman-2f"/>
      <use x="226.416015625" xlink:href="#BitstreamVeraSans-Roman-35"/>
     </g>
    </g>
    <g id="line2d_135">
     <path d="M 79.425 63.231343 
L 107.425 63.231343 
" style="fill:none;stroke:#00bfbf;stroke-linecap:square;"/>
    </g>
    <g id="line2d_136"/>
    <g id="text_17">
     <!-- -1: 0/5 -->
     <g transform="translate(129.425 70.2313428218)scale(0.2 -0.2)">
      <use xlink:href="#BitstreamVeraSans-Roman-2d"/>
      <use x="36.083984375" xlink:href="#BitstreamVeraSans-Roman-31"/>
      <use x="99.70703125" xlink:href="#BitstreamVeraSans-Roman-3a"/>
      <use x="133.3984375" xlink:href="#BitstreamVeraSans-Roman-20"/>
      <use x="165.185546875" xlink:href="#BitstreamVeraSans-Roman-30"/>
      <use x="228.80859375" xlink:href="#BitstreamVeraSans-Roman-2f"/>
      <use x="262.5" xlink:href="#BitstreamVeraSans-Roman-35"/>
     </g>
    </g>
    <g id="line2d_137">
     <path d="M 79.425 92.587593 
L 107.425 92.587593 
" style="fill:none;stroke:#bf00bf;stroke-linecap:square;"/>
    </g>
    <g id="line2d_138"/>
    <g id="text_18">
     <!-- -4: 0/5 -->
     <g transform="translate(129.425 99.5875928218)scale(0.2 -0.2)">
      <use xlink:href="#BitstreamVeraSans-Roman-2d"/>
      <use x="36.083984375" xlink:href="#BitstreamVeraSans-Roman-34"/>
      <use x="99.70703125" xlink:href="#BitstreamVeraSans-Roman-3a"/>
      <use x="133.3984375" xlink:href="#BitstreamVeraSans-Roman-20"/>
      <use x="165.185546875" xlink:href="#BitstreamVeraSans-Roman-30"/>
      <use x="228.80859375" xlink:href="#BitstreamVeraSans-Roman-2f"/>
      <use x="262.5" xlink:href="#BitstreamVeraSans-Roman-35"/>
     </g>
    </g>
    <g id="line2d_139">
     <path d="M 79.425 121.943843 
L 107.425 121.943843 
" style="fill:none;stroke:#ff0000;stroke-linecap:square;stroke-width:3.0;"/>
    </g>
    <g id="line2d_140"/>
    <g id="text_19">
     <!-- -8: 0/5 -->
     <g transform="translate(129.425 128.943842822)scale(0.2 -0.2)">
      <use xlink:href="#BitstreamVeraSans-Roman-2d"/>
      <use x="36.083984375" xlink:href="#BitstreamVeraSans-Roman-38"/>
      <use x="99.70703125" xlink:href="#BitstreamVeraSans-Roman-3a"/>
      <use x="133.3984375" xlink:href="#BitstreamVeraSans-Roman-20"/>
      <use x="165.185546875" xlink:href="#BitstreamVeraSans-Roman-30"/>
      <use x="228.80859375" xlink:href="#BitstreamVeraSans-Roman-2f"/>
      <use x="262.5" xlink:href="#BitstreamVeraSans-Roman-35"/>
     </g>
    </g>
   </g>
  </g>
 </g>
 <defs>
  <clipPath id="pb7db080fa4">
   <rect height="376.321782178" width="511.815" x="55.425" y="7.67821782178"/>
  </clipPath>
 </defs>
</svg>
