<?xml version="1.0" encoding="utf-8" standalone="no"?>
<!DOCTYPE svg PUBLIC "-//W3C//DTD SVG 1.1//EN"
  "http://www.w3.org/Graphics/SVG/1.1/DTD/svg11.dtd">
<!-- Created with matplotlib (http://matplotlib.org/) -->
<svg height="432pt" version="1.1" viewBox="0 0 576 432" width="576pt" xmlns="http://www.w3.org/2000/svg" xmlns:xlink="http://www.w3.org/1999/xlink">
 <defs>
  <style type="text/css">
*{stroke-linecap:butt;stroke-linejoin:round;stroke-miterlimit:100000;}
  </style>
 </defs>
 <g id="figure_1">
  <g id="patch_1">
   <path d="M 0 432 
L 576 432 
L 576 0 
L 0 0 
z
" style="fill:#ffffff;"/>
  </g>
  <g id="axes_1">
   <g id="patch_2">
    <path d="M 3 384 
L 567.24 384 
L 567.24 3 
L 3 3 
z
" style="fill:#ffffff;"/>
   </g>
   <g id="line2d_1">
    <path clip-path="url(#p99ba304a03)" d="M 327.164719 384 
L 327.164719 377.712871 
L 329.141827 377.712871 
L 329.141827 371.425743 
L 331.550164 371.425743 
L 331.550164 365.138614 
L 337.135306 365.138614 
L 337.135306 358.851485 
L 337.890062 358.851485 
L 337.890062 352.564356 
L 337.890062 352.564356 
L 337.890062 346.277228 
L 337.890062 346.277228 
L 337.890062 339.990099 
L 337.890062 339.990099 
L 337.890062 333.70297 
L 337.890062 333.70297 
L 337.890062 327.415842 
L 337.890062 327.415842 
L 337.890062 321.128713 
L 337.890062 321.128713 
L 337.890062 314.841584 
L 337.890062 314.841584 
L 337.890062 308.554455 
L 337.890062 308.554455 
L 337.890062 302.267327 
L 337.890062 302.267327 
L 337.890062 295.980198 
L 337.890062 295.980198 
L 337.890062 289.693069 
L 337.890062 289.693069 
L 337.890062 283.405941 
L 337.890062 283.405941 
L 337.890062 277.118812 
L 337.890062 277.118812 
L 337.890062 270.831683 
L 337.890062 270.831683 
L 337.890062 264.544554 
L 337.958397 264.544554 
L 337.958397 258.257426 
L 338.481169 258.257426 
L 338.481169 251.970297 
L 341.709561 251.970297 
L 341.709561 245.683168 
L 342.766677 245.683168 
L 342.766677 239.39604 
L 344.002301 239.39604 
L 344.002301 233.108911 
L 345.025074 233.108911 
L 345.025074 226.821782 
L 345.353297 226.821782 
L 345.353297 220.534653 
L 345.467118 220.534653 
L 345.467118 214.247525 
L 345.519049 214.247525 
L 345.519049 207.960396 
L 345.686902 207.960396 
L 345.686902 201.673267 
L 345.687461 201.673267 
L 345.687461 195.386139 
L 345.848661 195.386139 
L 345.848661 189.09901 
L 346.361912 189.09901 
L 346.361912 182.811881 
L 347.214557 182.811881 
L 347.214557 176.524752 
L 347.484354 176.524752 
L 347.484354 170.237624 
L 348.517697 170.237624 
L 348.517697 163.950495 
L 348.55624 163.950495 
L 348.55624 157.663366 
L 348.616925 157.663366 
L 348.616925 151.376238 
L 348.631158 151.376238 
L 348.631158 145.089109 
L 348.794893 145.089109 
L 348.794893 138.80198 
L 348.898674 138.80198 
L 348.898674 132.514851 
L 349.459415 132.514851 
L 349.459415 126.227723 
L 350.037085 126.227723 
L 350.037085 119.940594 
L 350.079173 119.940594 
L 350.079173 113.653465 
L 350.36838 113.653465 
L 350.36838 107.366337 
L 350.873428 107.366337 
L 350.873428 101.079208 
L 351.127678 101.079208 
L 351.127678 94.792079 
L 351.200962 94.792079 
L 351.200962 88.50495 
L 351.217128 88.50495 
L 351.217128 82.217822 
L 351.614537 82.217822 
L 351.614537 75.930693 
L 351.646343 75.930693 
L 351.646343 69.643564 
L 351.916993 69.643564 
L 351.916993 63.356436 
L 352.311273 63.356436 
L 352.311273 57.069307 
L 352.62501 57.069307 
L 352.62501 50.782178 
L 352.780341 50.782178 
L 352.780341 44.49505 
L 353.361271 44.49505 
L 353.361271 38.207921 
L 353.820913 38.207921 
L 353.820913 31.920792 
L 354.975673 31.920792 
L 354.975673 25.633663 
L 355.02453 25.633663 
L 355.02453 19.346535 
L 355.999518 19.346535 
L 355.999518 13.059406 
L 356.692052 13.059406 
L 356.692052 6.772277 
L 356.692052 6.772277 
L 356.692052 6.772277 
L 567.24 6.772277 
" style="fill:none;stroke:#ff0000;stroke-linecap:square;stroke-width:3.0;"/>
   </g>
   <g id="line2d_2">
    <path clip-path="url(#p99ba304a03)" d="M 337.890062 384 
L 337.890062 377.712871 
L 337.890062 377.712871 
L 337.890062 371.425743 
L 337.890062 371.425743 
L 337.890062 365.138614 
L 337.890062 365.138614 
L 337.890062 358.851485 
L 337.890062 358.851485 
L 337.890062 352.564356 
L 337.890062 352.564356 
L 337.890062 346.277228 
L 337.890062 346.277228 
L 337.890062 339.990099 
L 337.890062 339.990099 
L 337.890062 333.70297 
L 337.890062 333.70297 
L 337.890062 327.415842 
L 337.890062 327.415842 
L 337.890062 321.128713 
L 337.890062 321.128713 
L 337.890062 314.841584 
L 337.890062 314.841584 
L 337.890062 308.554455 
L 337.890062 308.554455 
L 337.890062 302.267327 
L 337.890062 302.267327 
L 337.890062 295.980198 
L 337.890062 295.980198 
L 337.890062 289.693069 
L 357.616556 289.693069 
L 357.616556 283.405941 
L 358.168375 283.405941 
L 358.168375 277.118812 
L 361.024797 277.118812 
L 361.024797 270.831683 
L 363.170991 270.831683 
L 363.170991 264.544554 
L 364.458071 264.544554 
L 364.458071 258.257426 
L 364.75624 258.257426 
L 364.75624 251.970297 
L 365.371979 251.970297 
L 365.371979 245.683168 
L 365.946324 245.683168 
L 365.946324 239.39604 
L 365.968067 239.39604 
L 365.968067 233.108911 
L 367.003103 233.108911 
L 367.003103 226.821782 
L 367.794853 226.821782 
L 367.794853 220.534653 
L 372.567414 220.534653 
L 372.567414 214.247525 
L 373.122014 214.247525 
L 373.122014 207.960396 
L 373.866758 207.960396 
L 373.866758 201.673267 
L 375.157195 201.673267 
L 375.157195 195.386139 
L 414.719885 195.386139 
L 414.719885 189.09901 
L 415.05309 189.09901 
L 415.05309 182.811881 
L 415.861405 182.811881 
L 415.861405 176.524752 
L 419.700527 176.524752 
L 419.700527 170.237624 
L 420.938245 170.237624 
L 420.938245 163.950495 
L 423.552773 163.950495 
L 423.552773 157.663366 
L 424.408308 157.663366 
L 424.408308 151.376238 
L 424.483048 151.376238 
L 424.483048 145.089109 
L 425.771572 145.089109 
L 425.771572 138.80198 
L 425.836302 138.80198 
L 425.836302 132.514851 
L 426.125504 132.514851 
L 426.125504 126.227723 
L 429.113919 126.227723 
L 429.113919 119.940594 
L 430.42149 119.940594 
L 430.42149 113.653465 
L 430.923749 113.653465 
L 430.923749 107.366337 
L 431.819919 107.366337 
L 431.819919 101.079208 
L 438.343262 101.079208 
L 438.343262 94.792079 
L 441.869125 94.792079 
L 441.869125 88.50495 
L 449.726744 88.50495 
L 449.726744 82.217822 
L 451.60048 82.217822 
L 451.60048 75.930693 
L 452.956629 75.930693 
L 452.956629 69.643564 
L 453.60571 69.643564 
L 453.60571 63.356436 
L 453.894728 63.356436 
L 453.894728 57.069307 
L 454.702005 57.069307 
L 454.702005 50.782178 
L 455.430208 50.782178 
L 455.430208 44.49505 
L 459.502913 44.49505 
L 459.502913 38.207921 
L 459.830589 38.207921 
L 459.830589 31.920792 
L 462.362729 31.920792 
L 462.362729 25.633663 
L 463.95568 25.633663 
L 463.95568 19.346535 
L 467.65546 19.346535 
L 467.65546 13.059406 
L 469.262721 13.059406 
L 469.262721 6.772277 
L 469.262721 6.772277 
L 469.262721 6.772277 
L 567.24 6.772277 
" style="fill:none;stroke:#00bfbf;stroke-linecap:square;"/>
   </g>
   <g id="line2d_3">
    <path clip-path="url(#p99ba304a03)" d="M 337.890062 384 
L 337.890062 377.712871 
L 337.890062 377.712871 
L 337.890062 371.425743 
L 337.890062 371.425743 
L 337.890062 365.138614 
L 337.890062 365.138614 
L 337.890062 358.851485 
L 337.890062 358.851485 
L 337.890062 352.564356 
L 337.890062 352.564356 
L 337.890062 346.277228 
L 337.890062 346.277228 
L 337.890062 339.990099 
L 337.890062 339.990099 
L 337.890062 333.70297 
L 337.890062 333.70297 
L 337.890062 327.415842 
L 337.890062 327.415842 
L 337.890062 321.128713 
L 337.890062 321.128713 
L 337.890062 314.841584 
L 337.890062 314.841584 
L 337.890062 308.554455 
L 337.890062 308.554455 
L 337.890062 302.267327 
L 337.890062 302.267327 
L 337.890062 295.980198 
L 337.890062 295.980198 
L 337.890062 289.693069 
L 357.616556 289.693069 
L 357.616556 283.405941 
L 358.168375 283.405941 
L 358.168375 277.118812 
L 361.024797 277.118812 
L 361.024797 270.831683 
L 362.620519 270.831683 
L 362.620519 264.544554 
L 363.170991 264.544554 
L 363.170991 258.257426 
L 364.75624 258.257426 
L 364.75624 251.970297 
L 365.371979 251.970297 
L 365.371979 245.683168 
L 365.946324 245.683168 
L 365.946324 239.39604 
L 365.968067 239.39604 
L 365.968067 233.108911 
L 367.003103 233.108911 
L 367.003103 226.821782 
L 367.794853 226.821782 
L 367.794853 220.534653 
L 372.567414 220.534653 
L 372.567414 214.247525 
L 373.122014 214.247525 
L 373.122014 207.960396 
L 373.866758 207.960396 
L 373.866758 201.673267 
L 375.157195 201.673267 
L 375.157195 195.386139 
L 414.719885 195.386139 
L 414.719885 189.09901 
L 415.05309 189.09901 
L 415.05309 182.811881 
L 415.861405 182.811881 
L 415.861405 176.524752 
L 419.700527 176.524752 
L 419.700527 170.237624 
L 420.938245 170.237624 
L 420.938245 163.950495 
L 423.552773 163.950495 
L 423.552773 157.663366 
L 424.408308 157.663366 
L 424.408308 151.376238 
L 424.483048 151.376238 
L 424.483048 145.089109 
L 425.771572 145.089109 
L 425.771572 138.80198 
L 425.836302 138.80198 
L 425.836302 132.514851 
L 426.125504 132.514851 
L 426.125504 126.227723 
L 429.113919 126.227723 
L 429.113919 119.940594 
L 430.42149 119.940594 
L 430.42149 113.653465 
L 430.923749 113.653465 
L 430.923749 107.366337 
L 431.819919 107.366337 
L 431.819919 101.079208 
L 437.78092 101.079208 
L 437.78092 94.792079 
L 441.869125 94.792079 
L 441.869125 88.50495 
L 449.726744 88.50495 
L 449.726744 82.217822 
L 450.621064 82.217822 
L 450.621064 75.930693 
L 450.869025 75.930693 
L 450.869025 69.643564 
L 451.60048 69.643564 
L 451.60048 63.356436 
L 452.357808 63.356436 
L 452.357808 57.069307 
L 453.894728 57.069307 
L 453.894728 50.782178 
L 454.702005 50.782178 
L 454.702005 44.49505 
L 459.502913 44.49505 
L 459.502913 38.207921 
L 459.662944 38.207921 
L 459.662944 31.920792 
L 459.830589 31.920792 
L 459.830589 25.633663 
L 463.95568 25.633663 
L 463.95568 19.346535 
L 467.65546 19.346535 
L 467.65546 13.059406 
L 469.262721 13.059406 
L 469.262721 6.772277 
L 469.262721 6.772277 
L 469.262721 6.772277 
L 567.24 6.772277 
" style="fill:none;stroke:#bf00bf;stroke-linecap:square;"/>
   </g>
   <g id="line2d_4">
    <path clip-path="url(#p99ba304a03)" d="M 337.890062 384 
L 337.890062 377.712871 
L 337.890062 377.712871 
L 337.890062 371.425743 
L 337.890062 371.425743 
L 337.890062 365.138614 
L 337.890062 365.138614 
L 337.890062 358.851485 
L 337.890062 358.851485 
L 337.890062 352.564356 
L 337.890062 352.564356 
L 337.890062 346.277228 
L 337.890062 346.277228 
L 337.890062 339.990099 
L 337.890062 339.990099 
L 337.890062 333.70297 
L 337.890062 333.70297 
L 337.890062 327.415842 
L 337.890062 327.415842 
L 337.890062 321.128713 
L 337.890062 321.128713 
L 337.890062 314.841584 
L 337.890062 314.841584 
L 337.890062 308.554455 
L 337.890062 308.554455 
L 337.890062 302.267327 
L 337.890062 302.267327 
L 337.890062 295.980198 
L 337.890062 295.980198 
L 337.890062 289.693069 
L 357.616556 289.693069 
L 357.616556 283.405941 
L 358.168375 283.405941 
L 358.168375 277.118812 
L 361.024797 277.118812 
L 361.024797 270.831683 
L 362.620519 270.831683 
L 362.620519 264.544554 
L 363.170991 264.544554 
L 363.170991 258.257426 
L 364.75624 258.257426 
L 364.75624 251.970297 
L 365.371979 251.970297 
L 365.371979 245.683168 
L 365.946324 245.683168 
L 365.946324 239.39604 
L 365.968067 239.39604 
L 365.968067 233.108911 
L 367.003103 233.108911 
L 367.003103 226.821782 
L 367.794853 226.821782 
L 367.794853 220.534653 
L 372.567414 220.534653 
L 372.567414 214.247525 
L 373.122014 214.247525 
L 373.122014 207.960396 
L 373.866758 207.960396 
L 373.866758 201.673267 
L 375.157195 201.673267 
L 375.157195 195.386139 
L 414.719885 195.386139 
L 414.719885 189.09901 
L 415.05309 189.09901 
L 415.05309 182.811881 
L 415.861405 182.811881 
L 415.861405 176.524752 
L 419.700527 176.524752 
L 419.700527 170.237624 
L 420.938245 170.237624 
L 420.938245 163.950495 
L 423.552773 163.950495 
L 423.552773 157.663366 
L 424.408308 157.663366 
L 424.408308 151.376238 
L 424.483048 151.376238 
L 424.483048 145.089109 
L 425.771572 145.089109 
L 425.771572 138.80198 
L 425.836302 138.80198 
L 425.836302 132.514851 
L 426.125504 132.514851 
L 426.125504 126.227723 
L 429.113919 126.227723 
L 429.113919 119.940594 
L 430.42149 119.940594 
L 430.42149 113.653465 
L 430.923749 113.653465 
L 430.923749 107.366337 
L 431.819919 107.366337 
L 431.819919 101.079208 
L 437.78092 101.079208 
L 437.78092 94.792079 
L 441.869125 94.792079 
L 441.869125 88.50495 
L 449.726744 88.50495 
L 449.726744 82.217822 
L 450.621064 82.217822 
L 450.621064 75.930693 
L 450.869025 75.930693 
L 450.869025 69.643564 
L 451.60048 69.643564 
L 451.60048 63.356436 
L 452.357808 63.356436 
L 452.357808 57.069307 
L 453.894728 57.069307 
L 453.894728 50.782178 
L 454.702005 50.782178 
L 454.702005 44.49505 
L 459.502913 44.49505 
L 459.502913 38.207921 
L 459.662944 38.207921 
L 459.662944 31.920792 
L 459.830589 31.920792 
L 459.830589 25.633663 
L 463.95568 25.633663 
L 463.95568 19.346535 
L 467.65546 19.346535 
L 467.65546 13.059406 
L 469.262721 13.059406 
L 469.262721 6.772277 
L 469.262721 6.772277 
L 469.262721 6.772277 
L 567.24 6.772277 
" style="fill:none;stroke:#000000;stroke-linecap:square;"/>
   </g>
   <g id="line2d_5">
    <path clip-path="url(#p99ba304a03)" d="M 337.890062 384 
L 337.890062 377.712871 
L 337.890062 377.712871 
L 337.890062 371.425743 
L 337.890062 371.425743 
L 337.890062 365.138614 
L 337.890062 365.138614 
L 337.890062 358.851485 
L 337.890062 358.851485 
L 337.890062 352.564356 
L 337.890062 352.564356 
L 337.890062 346.277228 
L 337.890062 346.277228 
L 337.890062 339.990099 
L 337.890062 339.990099 
L 337.890062 333.70297 
L 337.890062 333.70297 
L 337.890062 327.415842 
L 337.890062 327.415842 
L 337.890062 321.128713 
L 337.890062 321.128713 
L 337.890062 314.841584 
L 337.890062 314.841584 
L 337.890062 308.554455 
L 337.890062 308.554455 
L 337.890062 302.267327 
L 337.890062 302.267327 
L 337.890062 295.980198 
L 337.890062 295.980198 
L 337.890062 289.693069 
L 355.153626 289.693069 
L 355.153626 283.405941 
L 355.975192 283.405941 
L 355.975192 277.118812 
L 357.616556 277.118812 
L 357.616556 270.831683 
L 358.168375 270.831683 
L 358.168375 264.544554 
L 358.715608 264.544554 
L 358.715608 258.257426 
L 361.024797 258.257426 
L 361.024797 251.970297 
L 362.620519 251.970297 
L 362.620519 245.683168 
L 362.645065 245.683168 
L 362.645065 239.39604 
L 363.170991 239.39604 
L 363.170991 233.108911 
L 363.992912 233.108911 
L 363.992912 226.821782 
L 364.522373 226.821782 
L 364.522373 220.534653 
L 365.968067 220.534653 
L 365.968067 214.247525 
L 366.737329 214.247525 
L 366.737329 207.960396 
L 367.003103 207.960396 
L 367.003103 201.673267 
L 371.42911 201.673267 
L 371.42911 195.386139 
L 408.51756 195.386139 
L 408.51756 189.09901 
L 409.411451 189.09901 
L 409.411451 182.811881 
L 410.305686 182.811881 
L 410.305686 176.524752 
L 414.719885 176.524752 
L 414.719885 170.237624 
L 415.05309 170.237624 
L 415.05309 163.950495 
L 415.861405 163.950495 
L 415.861405 157.663366 
L 418.239436 157.663366 
L 418.239436 151.376238 
L 418.680729 151.376238 
L 418.680729 145.089109 
L 419.700527 145.089109 
L 419.700527 138.80198 
L 421.539619 138.80198 
L 421.539619 132.514851 
L 421.648699 132.514851 
L 421.648699 126.227723 
L 423.552773 126.227723 
L 423.552773 119.940594 
L 424.408308 119.940594 
L 424.408308 113.653465 
L 425.836302 113.653465 
L 425.836302 107.366337 
L 429.355857 107.366337 
L 429.355857 101.079208 
L 430.702481 101.079208 
L 430.702481 94.792079 
L 436.026207 94.792079 
L 436.026207 88.50495 
L 436.841741 88.50495 
L 436.841741 82.217822 
L 441.869125 82.217822 
L 441.869125 75.930693 
L 447.895982 75.930693 
L 447.895982 69.643564 
L 449.726744 69.643564 
L 449.726744 63.356436 
L 450.621064 63.356436 
L 450.621064 57.069307 
L 450.869025 57.069307 
L 450.869025 50.782178 
L 451.60048 50.782178 
L 451.60048 44.49505 
L 452.357808 44.49505 
L 452.357808 38.207921 
L 453.117151 38.207921 
L 453.117151 31.920792 
L 454.702005 31.920792 
L 454.702005 25.633663 
L 459.61538 25.633663 
L 459.61538 19.346535 
L 459.662944 19.346535 
L 459.662944 13.059406 
L 459.709179 13.059406 
L 459.709179 6.772277 
L 459.709179 6.772277 
L 459.709179 6.772277 
L 567.24 6.772277 
" style="fill:none;stroke:#00bfbf;stroke-linecap:square;"/>
   </g>
   <g id="line2d_6">
    <path clip-path="url(#p99ba304a03)" d="M 337.890062 384 
L 337.890062 377.712871 
L 337.890062 377.712871 
L 337.890062 371.425743 
L 337.890062 371.425743 
L 337.890062 365.138614 
L 337.890062 365.138614 
L 337.890062 358.851485 
L 337.890062 358.851485 
L 337.890062 352.564356 
L 337.890062 352.564356 
L 337.890062 346.277228 
L 337.890062 346.277228 
L 337.890062 339.990099 
L 337.890062 339.990099 
L 337.890062 333.70297 
L 337.890062 333.70297 
L 337.890062 327.415842 
L 337.890062 327.415842 
L 337.890062 321.128713 
L 337.890062 321.128713 
L 337.890062 314.841584 
L 337.890062 314.841584 
L 337.890062 308.554455 
L 337.890062 308.554455 
L 337.890062 302.267327 
L 337.890062 302.267327 
L 337.890062 295.980198 
L 337.890062 295.980198 
L 337.890062 289.693069 
L 348.898674 289.693069 
L 348.898674 283.405941 
L 349.701766 283.405941 
L 349.701766 277.118812 
L 355.153626 277.118812 
L 355.153626 270.831683 
L 355.169459 270.831683 
L 355.169459 264.544554 
L 357.616556 264.544554 
L 357.616556 258.257426 
L 357.874692 258.257426 
L 357.874692 251.970297 
L 358.14321 251.970297 
L 358.14321 245.683168 
L 358.168375 245.683168 
L 358.168375 239.39604 
L 359.136198 239.39604 
L 359.136198 233.108911 
L 360.274413 233.108911 
L 360.274413 226.821782 
L 360.577243 226.821782 
L 360.577243 220.534653 
L 361.475842 220.534653 
L 361.475842 214.247525 
L 361.672053 214.247525 
L 361.672053 207.960396 
L 361.87611 207.960396 
L 361.87611 201.673267 
L 362.135056 201.673267 
L 362.135056 195.386139 
L 363.170991 195.386139 
L 363.170991 189.09901 
L 364.419854 189.09901 
L 364.419854 182.811881 
L 380.277641 182.811881 
L 380.277641 176.524752 
L 389.113269 176.524752 
L 389.113269 170.237624 
L 392.469386 170.237624 
L 392.469386 163.950495 
L 400.715974 163.950495 
L 400.715974 157.663366 
L 403.756589 157.663366 
L 403.756589 151.376238 
L 405.625989 151.376238 
L 405.625989 145.089109 
L 406.71069 145.089109 
L 406.71069 138.80198 
L 408.51756 138.80198 
L 408.51756 132.514851 
L 408.674231 132.514851 
L 408.674231 126.227723 
L 410.305686 126.227723 
L 410.305686 119.940594 
L 410.856796 119.940594 
L 410.856796 113.653465 
L 415.494056 113.653465 
L 415.494056 107.366337 
L 415.60367 107.366337 
L 415.60367 101.079208 
L 415.861405 101.079208 
L 415.861405 94.792079 
L 416.29012 94.792079 
L 416.29012 88.50495 
L 416.510017 88.50495 
L 416.510017 82.217822 
L 417.632211 82.217822 
L 417.632211 75.930693 
L 422.358838 75.930693 
L 422.358838 69.643564 
L 423.603779 69.643564 
L 423.603779 63.356436 
L 424.740935 63.356436 
L 424.740935 57.069307 
L 424.78697 57.069307 
L 424.78697 50.782178 
L 427.955578 50.782178 
L 427.955578 44.49505 
L 429.406347 44.49505 
L 429.406347 38.207921 
L 433.699112 38.207921 
L 433.699112 31.920792 
L 434.966072 31.920792 
L 434.966072 25.633663 
L 436.082643 25.633663 
L 436.082643 19.346535 
L 437.588125 19.346535 
L 437.588125 13.059406 
L 444.238802 13.059406 
L 444.238802 6.772277 
L 444.238802 6.772277 
L 444.238802 6.772277 
L 567.24 6.772277 
" style="fill:none;stroke:#bf00bf;stroke-linecap:square;"/>
   </g>
   <g id="line2d_7">
    <path clip-path="url(#p99ba304a03)" d="M 337.890062 384 
L 337.890062 377.712871 
L 337.890062 377.712871 
L 337.890062 371.425743 
L 337.890062 371.425743 
L 337.890062 365.138614 
L 337.890062 365.138614 
L 337.890062 358.851485 
L 337.890062 358.851485 
L 337.890062 352.564356 
L 337.890062 352.564356 
L 337.890062 346.277228 
L 337.890062 346.277228 
L 337.890062 339.990099 
L 337.890062 339.990099 
L 337.890062 333.70297 
L 337.890062 333.70297 
L 337.890062 327.415842 
L 337.890062 327.415842 
L 337.890062 321.128713 
L 337.890062 321.128713 
L 337.890062 314.841584 
L 337.890062 314.841584 
L 337.890062 308.554455 
L 337.890062 308.554455 
L 337.890062 302.267327 
L 337.890062 302.267327 
L 337.890062 295.980198 
L 337.890062 295.980198 
L 337.890062 289.693069 
L 345.9769 289.693069 
L 345.9769 283.405941 
L 348.898674 283.405941 
L 348.898674 277.118812 
L 350.873428 277.118812 
L 350.873428 270.831683 
L 351.751987 270.831683 
L 351.751987 264.544554 
L 352.303452 264.544554 
L 352.303452 258.257426 
L 352.539673 258.257426 
L 352.539673 251.970297 
L 352.800736 251.970297 
L 352.800736 245.683168 
L 353.512268 245.683168 
L 353.512268 239.39604 
L 353.602761 239.39604 
L 353.602761 233.108911 
L 353.761379 233.108911 
L 353.761379 226.821782 
L 353.820913 226.821782 
L 353.820913 220.534653 
L 354.266062 220.534653 
L 354.266062 214.247525 
L 354.297874 214.247525 
L 354.297874 207.960396 
L 354.975673 207.960396 
L 354.975673 201.673267 
L 355.169459 201.673267 
L 355.169459 195.386139 
L 356.143641 195.386139 
L 356.143641 189.09901 
L 356.322191 189.09901 
L 356.322191 182.811881 
L 356.692052 182.811881 
L 356.692052 176.524752 
L 356.722164 176.524752 
L 356.722164 170.237624 
L 357.351941 170.237624 
L 357.351941 163.950495 
L 357.515835 163.950495 
L 357.515835 157.663366 
L 357.874692 157.663366 
L 357.874692 151.376238 
L 358.168375 151.376238 
L 358.168375 145.089109 
L 358.320135 145.089109 
L 358.320135 138.80198 
L 358.710451 138.80198 
L 358.710451 132.514851 
L 361.183398 132.514851 
L 361.183398 126.227723 
L 366.272224 126.227723 
L 366.272224 119.940594 
L 366.67354 119.940594 
L 366.67354 113.653465 
L 371.223534 113.653465 
L 371.223534 107.366337 
L 374.513083 107.366337 
L 374.513083 101.079208 
L 375.466157 101.079208 
L 375.466157 94.792079 
L 375.508876 94.792079 
L 375.508876 88.50495 
L 376.890595 88.50495 
L 376.890595 82.217822 
L 376.932952 82.217822 
L 376.932952 75.930693 
L 377.63576 75.930693 
L 377.63576 69.643564 
L 380.033973 69.643564 
L 380.033973 63.356436 
L 380.277641 63.356436 
L 380.277641 57.069307 
L 380.632172 57.069307 
L 380.632172 50.782178 
L 381.408378 50.782178 
L 381.408378 44.49505 
L 382.511556 44.49505 
L 382.511556 38.207921 
L 384.023401 38.207921 
L 384.023401 31.920792 
L 384.608937 31.920792 
L 384.608937 25.633663 
L 386.17995 25.633663 
L 386.17995 19.346535 
L 387.12548 19.346535 
L 387.12548 13.059406 
L 402.303969 13.059406 
L 402.303969 6.772277 
L 402.303969 6.772277 
L 402.303969 6.772277 
L 567.24 6.772277 
" style="fill:none;stroke:#000000;stroke-linecap:square;"/>
   </g>
   <g id="line2d_8">
    <path clip-path="url(#p99ba304a03)" d="M 327.164719 384 
L 327.164719 377.712871 
L 329.141827 377.712871 
L 329.141827 371.425743 
L 331.550164 371.425743 
L 331.550164 365.138614 
L 337.135306 365.138614 
L 337.135306 358.851485 
L 337.890062 358.851485 
L 337.890062 352.564356 
L 337.890062 352.564356 
L 337.890062 346.277228 
L 337.890062 346.277228 
L 337.890062 339.990099 
L 337.890062 339.990099 
L 337.890062 333.70297 
L 337.890062 333.70297 
L 337.890062 327.415842 
L 337.890062 327.415842 
L 337.890062 321.128713 
L 337.890062 321.128713 
L 337.890062 314.841584 
L 337.890062 314.841584 
L 337.890062 308.554455 
L 337.890062 308.554455 
L 337.890062 302.267327 
L 337.890062 302.267327 
L 337.890062 295.980198 
L 337.890062 295.980198 
L 337.890062 289.693069 
L 337.890062 289.693069 
L 337.890062 283.405941 
L 337.890062 283.405941 
L 337.890062 277.118812 
L 337.890062 277.118812 
L 337.890062 270.831683 
L 337.890062 270.831683 
L 337.890062 264.544554 
L 337.958397 264.544554 
L 337.958397 258.257426 
L 338.481169 258.257426 
L 338.481169 251.970297 
L 341.709561 251.970297 
L 341.709561 245.683168 
L 342.766677 245.683168 
L 342.766677 239.39604 
L 344.002301 239.39604 
L 344.002301 233.108911 
L 345.025074 233.108911 
L 345.025074 226.821782 
L 345.353297 226.821782 
L 345.353297 220.534653 
L 345.467118 220.534653 
L 345.467118 214.247525 
L 345.519049 214.247525 
L 345.519049 207.960396 
L 345.686902 207.960396 
L 345.686902 201.673267 
L 345.687461 201.673267 
L 345.687461 195.386139 
L 345.848661 195.386139 
L 345.848661 189.09901 
L 346.361912 189.09901 
L 346.361912 182.811881 
L 347.214557 182.811881 
L 347.214557 176.524752 
L 347.484354 176.524752 
L 347.484354 170.237624 
L 348.517697 170.237624 
L 348.517697 163.950495 
L 348.55624 163.950495 
L 348.55624 157.663366 
L 348.616925 157.663366 
L 348.616925 151.376238 
L 348.631158 151.376238 
L 348.631158 145.089109 
L 348.794893 145.089109 
L 348.794893 138.80198 
L 348.898674 138.80198 
L 348.898674 132.514851 
L 349.459415 132.514851 
L 349.459415 126.227723 
L 350.037085 126.227723 
L 350.037085 119.940594 
L 350.079173 119.940594 
L 350.079173 113.653465 
L 350.36838 113.653465 
L 350.36838 107.366337 
L 350.873428 107.366337 
L 350.873428 101.079208 
L 351.127678 101.079208 
L 351.127678 94.792079 
L 351.200962 94.792079 
L 351.200962 88.50495 
L 351.217128 88.50495 
L 351.217128 82.217822 
L 351.614537 82.217822 
L 351.614537 75.930693 
L 351.646343 75.930693 
L 351.646343 69.643564 
L 351.916993 69.643564 
L 351.916993 63.356436 
L 352.311273 63.356436 
L 352.311273 57.069307 
L 352.62501 57.069307 
L 352.62501 50.782178 
L 352.780341 50.782178 
L 352.780341 44.49505 
L 353.361271 44.49505 
L 353.361271 38.207921 
L 353.820913 38.207921 
L 353.820913 31.920792 
L 354.975673 31.920792 
L 354.975673 25.633663 
L 355.02453 25.633663 
L 355.02453 19.346535 
L 355.999518 19.346535 
L 355.999518 13.059406 
L 356.692052 13.059406 
L 356.692052 6.772277 
L 356.692052 6.772277 
L 356.692052 6.772277 
L 567.24 6.772277 
" style="fill:none;stroke:#00bfbf;stroke-linecap:square;"/>
   </g>
   <g id="patch_3">
    <path d="M 3 3 
L 567.24 3 
" style="fill:none;stroke:#000000;stroke-linecap:square;stroke-linejoin:miter;"/>
   </g>
   <g id="patch_4">
    <path d="M 567.24 384 
L 567.24 3 
" style="fill:none;stroke:#000000;stroke-linecap:square;stroke-linejoin:miter;"/>
   </g>
   <g id="patch_5">
    <path d="M 3 384 
L 567.24 384 
" style="fill:none;stroke:#000000;stroke-linecap:square;stroke-linejoin:miter;"/>
   </g>
   <g id="patch_6">
    <path d="M 3 384 
L 3 3 
" style="fill:none;stroke:#000000;stroke-linecap:square;stroke-linejoin:miter;"/>
   </g>
   <g id="matplotlib.axis_1">
    <g id="xtick_1"/>
    <g id="xtick_2">
     <g id="line2d_9">
      <path clip-path="url(#p99ba304a03)" d="M 69.254589 384 
L 69.254589 3 
" style="fill:none;stroke:#000000;stroke-dasharray:1.000000,3.000000;stroke-dashoffset:0.0;stroke-width:0.5;"/>
     </g>
     <g id="line2d_10">
      <defs>
       <path d="M 0 0 
L 0 -4 
" id="m20d2ce738d" style="stroke:#000000;stroke-width:0.5;"/>
      </defs>
      <g>
       <use style="stroke:#000000;stroke-width:0.5;" x="69.2545893472" xlink:href="#m20d2ce738d" y="384.0"/>
      </g>
     </g>
     <g id="line2d_11">
      <defs>
       <path d="M 0 0 
L 0 4 
" id="m3ea875045d" style="stroke:#000000;stroke-width:0.5;"/>
      </defs>
      <g>
       <use style="stroke:#000000;stroke-width:0.5;" x="69.2545893472" xlink:href="#m3ea875045d" y="3.0"/>
      </g>
     </g>
     <g id="text_1">
      <!-- -6 -->
      <defs>
       <path d="M 33.015625 40.375 
Q 26.375 40.375 22.484375 35.828125 
Q 18.609375 31.296875 18.609375 23.390625 
Q 18.609375 15.53125 22.484375 10.953125 
Q 26.375 6.390625 33.015625 6.390625 
Q 39.65625 6.390625 43.53125 10.953125 
Q 47.40625 15.53125 47.40625 23.390625 
Q 47.40625 31.296875 43.53125 35.828125 
Q 39.65625 40.375 33.015625 40.375 
M 52.59375 71.296875 
L 52.59375 62.3125 
Q 48.875 64.0625 45.09375 64.984375 
Q 41.3125 65.921875 37.59375 65.921875 
Q 27.828125 65.921875 22.671875 59.328125 
Q 17.53125 52.734375 16.796875 39.40625 
Q 19.671875 43.65625 24.015625 45.921875 
Q 28.375 48.1875 33.59375 48.1875 
Q 44.578125 48.1875 50.953125 41.515625 
Q 57.328125 34.859375 57.328125 23.390625 
Q 57.328125 12.15625 50.6875 5.359375 
Q 44.046875 -1.421875 33.015625 -1.421875 
Q 20.359375 -1.421875 13.671875 8.265625 
Q 6.984375 17.96875 6.984375 36.375 
Q 6.984375 53.65625 15.1875 63.9375 
Q 23.390625 74.21875 37.203125 74.21875 
Q 40.921875 74.21875 44.703125 73.484375 
Q 48.484375 72.75 52.59375 71.296875 
" id="BitstreamVeraSans-Roman-36"/>
       <path d="M 4.890625 31.390625 
L 31.203125 31.390625 
L 31.203125 23.390625 
L 4.890625 23.390625 
z
" id="BitstreamVeraSans-Roman-2d"/>
      </defs>
      <g transform="translate(59.2842768472 403.196875)scale(0.2 -0.2)">
       <use xlink:href="#BitstreamVeraSans-Roman-2d"/>
       <use x="36.083984375" xlink:href="#BitstreamVeraSans-Roman-36"/>
      </g>
     </g>
    </g>
    <g id="xtick_3">
     <g id="line2d_12">
      <path clip-path="url(#p99ba304a03)" d="M 135.652644 384 
L 135.652644 3 
" style="fill:none;stroke:#000000;stroke-dasharray:1.000000,3.000000;stroke-dashoffset:0.0;stroke-width:0.5;"/>
     </g>
     <g id="line2d_13">
      <g>
       <use style="stroke:#000000;stroke-width:0.5;" x="135.652644101" xlink:href="#m20d2ce738d" y="384.0"/>
      </g>
     </g>
     <g id="line2d_14">
      <g>
       <use style="stroke:#000000;stroke-width:0.5;" x="135.652644101" xlink:href="#m3ea875045d" y="3.0"/>
      </g>
     </g>
     <g id="text_2">
      <!-- -4 -->
      <defs>
       <path d="M 37.796875 64.3125 
L 12.890625 25.390625 
L 37.796875 25.390625 
z
M 35.203125 72.90625 
L 47.609375 72.90625 
L 47.609375 25.390625 
L 58.015625 25.390625 
L 58.015625 17.1875 
L 47.609375 17.1875 
L 47.609375 0 
L 37.796875 0 
L 37.796875 17.1875 
L 4.890625 17.1875 
L 4.890625 26.703125 
z
" id="BitstreamVeraSans-Roman-34"/>
      </defs>
      <g transform="translate(125.682331601 403.196875)scale(0.2 -0.2)">
       <use xlink:href="#BitstreamVeraSans-Roman-2d"/>
       <use x="36.083984375" xlink:href="#BitstreamVeraSans-Roman-34"/>
      </g>
     </g>
    </g>
    <g id="xtick_4">
     <g id="line2d_15">
      <path clip-path="url(#p99ba304a03)" d="M 202.050699 384 
L 202.050699 3 
" style="fill:none;stroke:#000000;stroke-dasharray:1.000000,3.000000;stroke-dashoffset:0.0;stroke-width:0.5;"/>
     </g>
     <g id="line2d_16">
      <g>
       <use style="stroke:#000000;stroke-width:0.5;" x="202.050698855" xlink:href="#m20d2ce738d" y="384.0"/>
      </g>
     </g>
     <g id="line2d_17">
      <g>
       <use style="stroke:#000000;stroke-width:0.5;" x="202.050698855" xlink:href="#m3ea875045d" y="3.0"/>
      </g>
     </g>
     <g id="text_3">
      <!-- -2 -->
      <defs>
       <path d="M 19.1875 8.296875 
L 53.609375 8.296875 
L 53.609375 0 
L 7.328125 0 
L 7.328125 8.296875 
Q 12.9375 14.109375 22.625 23.890625 
Q 32.328125 33.6875 34.8125 36.53125 
Q 39.546875 41.84375 41.421875 45.53125 
Q 43.3125 49.21875 43.3125 52.78125 
Q 43.3125 58.59375 39.234375 62.25 
Q 35.15625 65.921875 28.609375 65.921875 
Q 23.96875 65.921875 18.8125 64.3125 
Q 13.671875 62.703125 7.8125 59.421875 
L 7.8125 69.390625 
Q 13.765625 71.78125 18.9375 73 
Q 24.125 74.21875 28.421875 74.21875 
Q 39.75 74.21875 46.484375 68.546875 
Q 53.21875 62.890625 53.21875 53.421875 
Q 53.21875 48.921875 51.53125 44.890625 
Q 49.859375 40.875 45.40625 35.40625 
Q 44.1875 33.984375 37.640625 27.21875 
Q 31.109375 20.453125 19.1875 8.296875 
" id="BitstreamVeraSans-Roman-32"/>
      </defs>
      <g transform="translate(192.080386355 403.196875)scale(0.2 -0.2)">
       <use xlink:href="#BitstreamVeraSans-Roman-2d"/>
       <use x="36.083984375" xlink:href="#BitstreamVeraSans-Roman-32"/>
      </g>
     </g>
    </g>
    <g id="xtick_5">
     <g id="line2d_18">
      <path clip-path="url(#p99ba304a03)" d="M 268.448754 384 
L 268.448754 3 
" style="fill:none;stroke:#000000;stroke-dasharray:1.000000,3.000000;stroke-dashoffset:0.0;stroke-width:0.5;"/>
     </g>
     <g id="line2d_19">
      <g>
       <use style="stroke:#000000;stroke-width:0.5;" x="268.448753608" xlink:href="#m20d2ce738d" y="384.0"/>
      </g>
     </g>
     <g id="line2d_20">
      <g>
       <use style="stroke:#000000;stroke-width:0.5;" x="268.448753608" xlink:href="#m3ea875045d" y="3.0"/>
      </g>
     </g>
     <g id="text_4">
      <!-- 0 -->
      <defs>
       <path d="M 31.78125 66.40625 
Q 24.171875 66.40625 20.328125 58.90625 
Q 16.5 51.421875 16.5 36.375 
Q 16.5 21.390625 20.328125 13.890625 
Q 24.171875 6.390625 31.78125 6.390625 
Q 39.453125 6.390625 43.28125 13.890625 
Q 47.125 21.390625 47.125 36.375 
Q 47.125 51.421875 43.28125 58.90625 
Q 39.453125 66.40625 31.78125 66.40625 
M 31.78125 74.21875 
Q 44.046875 74.21875 50.515625 64.515625 
Q 56.984375 54.828125 56.984375 36.375 
Q 56.984375 17.96875 50.515625 8.265625 
Q 44.046875 -1.421875 31.78125 -1.421875 
Q 19.53125 -1.421875 13.0625 8.265625 
Q 6.59375 17.96875 6.59375 36.375 
Q 6.59375 54.828125 13.0625 64.515625 
Q 19.53125 74.21875 31.78125 74.21875 
" id="BitstreamVeraSans-Roman-30"/>
      </defs>
      <g transform="translate(262.086253608 403.196875)scale(0.2 -0.2)">
       <use xlink:href="#BitstreamVeraSans-Roman-30"/>
      </g>
     </g>
    </g>
    <g id="xtick_6">
     <g id="line2d_21">
      <path clip-path="url(#p99ba304a03)" d="M 334.846808 384 
L 334.846808 3 
" style="fill:none;stroke:#000000;stroke-dasharray:1.000000,3.000000;stroke-dashoffset:0.0;stroke-width:0.5;"/>
     </g>
     <g id="line2d_22">
      <g>
       <use style="stroke:#000000;stroke-width:0.5;" x="334.846808362" xlink:href="#m20d2ce738d" y="384.0"/>
      </g>
     </g>
     <g id="line2d_23">
      <g>
       <use style="stroke:#000000;stroke-width:0.5;" x="334.846808362" xlink:href="#m3ea875045d" y="3.0"/>
      </g>
     </g>
     <g id="text_5">
      <!-- 2 -->
      <g transform="translate(328.484308362 403.196875)scale(0.2 -0.2)">
       <use xlink:href="#BitstreamVeraSans-Roman-32"/>
      </g>
     </g>
    </g>
    <g id="xtick_7">
     <g id="line2d_24">
      <path clip-path="url(#p99ba304a03)" d="M 401.244863 384 
L 401.244863 3 
" style="fill:none;stroke:#000000;stroke-dasharray:1.000000,3.000000;stroke-dashoffset:0.0;stroke-width:0.5;"/>
     </g>
     <g id="line2d_25">
      <g>
       <use style="stroke:#000000;stroke-width:0.5;" x="401.244863116" xlink:href="#m20d2ce738d" y="384.0"/>
      </g>
     </g>
     <g id="line2d_26">
      <g>
       <use style="stroke:#000000;stroke-width:0.5;" x="401.244863116" xlink:href="#m3ea875045d" y="3.0"/>
      </g>
     </g>
     <g id="text_6">
      <!-- 4 -->
      <g transform="translate(394.882363116 403.196875)scale(0.2 -0.2)">
       <use xlink:href="#BitstreamVeraSans-Roman-34"/>
      </g>
     </g>
    </g>
    <g id="xtick_8">
     <g id="line2d_27">
      <path clip-path="url(#p99ba304a03)" d="M 467.642918 384 
L 467.642918 3 
" style="fill:none;stroke:#000000;stroke-dasharray:1.000000,3.000000;stroke-dashoffset:0.0;stroke-width:0.5;"/>
     </g>
     <g id="line2d_28">
      <g>
       <use style="stroke:#000000;stroke-width:0.5;" x="467.642917869" xlink:href="#m20d2ce738d" y="384.0"/>
      </g>
     </g>
     <g id="line2d_29">
      <g>
       <use style="stroke:#000000;stroke-width:0.5;" x="467.642917869" xlink:href="#m3ea875045d" y="3.0"/>
      </g>
     </g>
     <g id="text_7">
      <!-- 6 -->
      <g transform="translate(461.280417869 403.196875)scale(0.2 -0.2)">
       <use xlink:href="#BitstreamVeraSans-Roman-36"/>
      </g>
     </g>
    </g>
    <g id="xtick_9">
     <g id="line2d_30">
      <path clip-path="url(#p99ba304a03)" d="M 534.040973 384 
L 534.040973 3 
" style="fill:none;stroke:#000000;stroke-dasharray:1.000000,3.000000;stroke-dashoffset:0.0;stroke-width:0.5;"/>
     </g>
     <g id="line2d_31">
      <g>
       <use style="stroke:#000000;stroke-width:0.5;" x="534.040972623" xlink:href="#m20d2ce738d" y="384.0"/>
      </g>
     </g>
     <g id="line2d_32">
      <g>
       <use style="stroke:#000000;stroke-width:0.5;" x="534.040972623" xlink:href="#m3ea875045d" y="3.0"/>
      </g>
     </g>
     <g id="text_8">
      <!-- 8 -->
      <defs>
       <path d="M 31.78125 34.625 
Q 24.75 34.625 20.71875 30.859375 
Q 16.703125 27.09375 16.703125 20.515625 
Q 16.703125 13.921875 20.71875 10.15625 
Q 24.75 6.390625 31.78125 6.390625 
Q 38.8125 6.390625 42.859375 10.171875 
Q 46.921875 13.96875 46.921875 20.515625 
Q 46.921875 27.09375 42.890625 30.859375 
Q 38.875 34.625 31.78125 34.625 
M 21.921875 38.8125 
Q 15.578125 40.375 12.03125 44.71875 
Q 8.5 49.078125 8.5 55.328125 
Q 8.5 64.0625 14.71875 69.140625 
Q 20.953125 74.21875 31.78125 74.21875 
Q 42.671875 74.21875 48.875 69.140625 
Q 55.078125 64.0625 55.078125 55.328125 
Q 55.078125 49.078125 51.53125 44.71875 
Q 48 40.375 41.703125 38.8125 
Q 48.828125 37.15625 52.796875 32.3125 
Q 56.78125 27.484375 56.78125 20.515625 
Q 56.78125 9.90625 50.3125 4.234375 
Q 43.84375 -1.421875 31.78125 -1.421875 
Q 19.734375 -1.421875 13.25 4.234375 
Q 6.78125 9.90625 6.78125 20.515625 
Q 6.78125 27.484375 10.78125 32.3125 
Q 14.796875 37.15625 21.921875 38.8125 
M 18.3125 54.390625 
Q 18.3125 48.734375 21.84375 45.5625 
Q 25.390625 42.390625 31.78125 42.390625 
Q 38.140625 42.390625 41.71875 45.5625 
Q 45.3125 48.734375 45.3125 54.390625 
Q 45.3125 60.0625 41.71875 63.234375 
Q 38.140625 66.40625 31.78125 66.40625 
Q 25.390625 66.40625 21.84375 63.234375 
Q 18.3125 60.0625 18.3125 54.390625 
" id="BitstreamVeraSans-Roman-38"/>
      </defs>
      <g transform="translate(527.678472623 403.196875)scale(0.2 -0.2)">
       <use xlink:href="#BitstreamVeraSans-Roman-38"/>
      </g>
     </g>
    </g>
    <g id="xtick_10"/>
    <g id="xtick_11">
     <g id="line2d_33">
      <defs>
       <path d="M 0 0 
L 0 -2 
" id="m1ffd599192" style="stroke:#000000;stroke-width:0.5;"/>
      </defs>
      <g>
       <use style="stroke:#000000;stroke-width:0.5;" x="69.2545893472" xlink:href="#m1ffd599192" y="384.0"/>
      </g>
     </g>
     <g id="line2d_34">
      <defs>
       <path d="M 0 0 
L 0 2 
" id="m306ec14cd0" style="stroke:#000000;stroke-width:0.5;"/>
      </defs>
      <g>
       <use style="stroke:#000000;stroke-width:0.5;" x="69.2545893472" xlink:href="#m306ec14cd0" y="3.0"/>
      </g>
     </g>
    </g>
    <g id="xtick_12">
     <g id="line2d_35">
      <g>
       <use style="stroke:#000000;stroke-width:0.5;" x="135.652644101" xlink:href="#m1ffd599192" y="384.0"/>
      </g>
     </g>
     <g id="line2d_36">
      <g>
       <use style="stroke:#000000;stroke-width:0.5;" x="135.652644101" xlink:href="#m306ec14cd0" y="3.0"/>
      </g>
     </g>
    </g>
    <g id="xtick_13">
     <g id="line2d_37">
      <g>
       <use style="stroke:#000000;stroke-width:0.5;" x="202.050698855" xlink:href="#m1ffd599192" y="384.0"/>
      </g>
     </g>
     <g id="line2d_38">
      <g>
       <use style="stroke:#000000;stroke-width:0.5;" x="202.050698855" xlink:href="#m306ec14cd0" y="3.0"/>
      </g>
     </g>
    </g>
    <g id="xtick_14">
     <g id="line2d_39">
      <g>
       <use style="stroke:#000000;stroke-width:0.5;" x="268.448753608" xlink:href="#m1ffd599192" y="384.0"/>
      </g>
     </g>
     <g id="line2d_40">
      <g>
       <use style="stroke:#000000;stroke-width:0.5;" x="268.448753608" xlink:href="#m306ec14cd0" y="3.0"/>
      </g>
     </g>
    </g>
    <g id="xtick_15">
     <g id="line2d_41">
      <g>
       <use style="stroke:#000000;stroke-width:0.5;" x="334.846808362" xlink:href="#m1ffd599192" y="384.0"/>
      </g>
     </g>
     <g id="line2d_42">
      <g>
       <use style="stroke:#000000;stroke-width:0.5;" x="334.846808362" xlink:href="#m306ec14cd0" y="3.0"/>
      </g>
     </g>
    </g>
    <g id="xtick_16">
     <g id="line2d_43">
      <g>
       <use style="stroke:#000000;stroke-width:0.5;" x="401.244863116" xlink:href="#m1ffd599192" y="384.0"/>
      </g>
     </g>
     <g id="line2d_44">
      <g>
       <use style="stroke:#000000;stroke-width:0.5;" x="401.244863116" xlink:href="#m306ec14cd0" y="3.0"/>
      </g>
     </g>
    </g>
    <g id="xtick_17">
     <g id="line2d_45">
      <g>
       <use style="stroke:#000000;stroke-width:0.5;" x="467.642917869" xlink:href="#m1ffd599192" y="384.0"/>
      </g>
     </g>
     <g id="line2d_46">
      <g>
       <use style="stroke:#000000;stroke-width:0.5;" x="467.642917869" xlink:href="#m306ec14cd0" y="3.0"/>
      </g>
     </g>
    </g>
    <g id="xtick_18">
     <g id="line2d_47">
      <g>
       <use style="stroke:#000000;stroke-width:0.5;" x="534.040972623" xlink:href="#m1ffd599192" y="384.0"/>
      </g>
     </g>
     <g id="line2d_48">
      <g>
       <use style="stroke:#000000;stroke-width:0.5;" x="534.040972623" xlink:href="#m306ec14cd0" y="3.0"/>
      </g>
     </g>
    </g>
    <g id="text_9">
     <!-- log10 of Df -->
     <defs>
      <path id="BitstreamVeraSans-Roman-20"/>
      <path d="M 12.40625 8.296875 
L 28.515625 8.296875 
L 28.515625 63.921875 
L 10.984375 60.40625 
L 10.984375 69.390625 
L 28.421875 72.90625 
L 38.28125 72.90625 
L 38.28125 8.296875 
L 54.390625 8.296875 
L 54.390625 0 
L 12.40625 0 
z
" id="BitstreamVeraSans-Roman-31"/>
      <path d="M 30.609375 48.390625 
Q 23.390625 48.390625 19.1875 42.75 
Q 14.984375 37.109375 14.984375 27.296875 
Q 14.984375 17.484375 19.15625 11.84375 
Q 23.34375 6.203125 30.609375 6.203125 
Q 37.796875 6.203125 41.984375 11.859375 
Q 46.1875 17.53125 46.1875 27.296875 
Q 46.1875 37.015625 41.984375 42.703125 
Q 37.796875 48.390625 30.609375 48.390625 
M 30.609375 56 
Q 42.328125 56 49.015625 48.375 
Q 55.71875 40.765625 55.71875 27.296875 
Q 55.71875 13.875 49.015625 6.21875 
Q 42.328125 -1.421875 30.609375 -1.421875 
Q 18.84375 -1.421875 12.171875 6.21875 
Q 5.515625 13.875 5.515625 27.296875 
Q 5.515625 40.765625 12.171875 48.375 
Q 18.84375 56 30.609375 56 
" id="BitstreamVeraSans-Roman-6f"/>
      <path d="M 9.421875 75.984375 
L 18.40625 75.984375 
L 18.40625 0 
L 9.421875 0 
z
" id="BitstreamVeraSans-Roman-6c"/>
      <path d="M 19.671875 64.796875 
L 19.671875 8.109375 
L 31.59375 8.109375 
Q 46.6875 8.109375 53.6875 14.9375 
Q 60.6875 21.78125 60.6875 36.53125 
Q 60.6875 51.171875 53.6875 57.984375 
Q 46.6875 64.796875 31.59375 64.796875 
z
M 9.8125 72.90625 
L 30.078125 72.90625 
Q 51.265625 72.90625 61.171875 64.09375 
Q 71.09375 55.28125 71.09375 36.53125 
Q 71.09375 17.671875 61.125 8.828125 
Q 51.171875 0 30.078125 0 
L 9.8125 0 
z
" id="BitstreamVeraSans-Roman-44"/>
      <path d="M 45.40625 27.984375 
Q 45.40625 37.75 41.375 43.109375 
Q 37.359375 48.484375 30.078125 48.484375 
Q 22.859375 48.484375 18.828125 43.109375 
Q 14.796875 37.75 14.796875 27.984375 
Q 14.796875 18.265625 18.828125 12.890625 
Q 22.859375 7.515625 30.078125 7.515625 
Q 37.359375 7.515625 41.375 12.890625 
Q 45.40625 18.265625 45.40625 27.984375 
M 54.390625 6.78125 
Q 54.390625 -7.171875 48.1875 -13.984375 
Q 42 -20.796875 29.203125 -20.796875 
Q 24.46875 -20.796875 20.265625 -20.09375 
Q 16.0625 -19.390625 12.109375 -17.921875 
L 12.109375 -9.1875 
Q 16.0625 -11.328125 19.921875 -12.34375 
Q 23.78125 -13.375 27.78125 -13.375 
Q 36.625 -13.375 41.015625 -8.765625 
Q 45.40625 -4.15625 45.40625 5.171875 
L 45.40625 9.625 
Q 42.625 4.78125 38.28125 2.390625 
Q 33.9375 0 27.875 0 
Q 17.828125 0 11.671875 7.65625 
Q 5.515625 15.328125 5.515625 27.984375 
Q 5.515625 40.671875 11.671875 48.328125 
Q 17.828125 56 27.875 56 
Q 33.9375 56 38.28125 53.609375 
Q 42.625 51.21875 45.40625 46.390625 
L 45.40625 54.6875 
L 54.390625 54.6875 
z
" id="BitstreamVeraSans-Roman-67"/>
      <path d="M 37.109375 75.984375 
L 37.109375 68.5 
L 28.515625 68.5 
Q 23.6875 68.5 21.796875 66.546875 
Q 19.921875 64.59375 19.921875 59.515625 
L 19.921875 54.6875 
L 34.71875 54.6875 
L 34.71875 47.703125 
L 19.921875 47.703125 
L 19.921875 0 
L 10.890625 0 
L 10.890625 47.703125 
L 2.296875 47.703125 
L 2.296875 54.6875 
L 10.890625 54.6875 
L 10.890625 58.5 
Q 10.890625 67.625 15.140625 71.796875 
Q 19.390625 75.984375 28.609375 75.984375 
z
" id="BitstreamVeraSans-Roman-66"/>
     </defs>
     <g transform="translate(229.9340625 427.553125)scale(0.2 -0.2)">
      <use xlink:href="#BitstreamVeraSans-Roman-6c"/>
      <use x="27.783203125" xlink:href="#BitstreamVeraSans-Roman-6f"/>
      <use x="88.96484375" xlink:href="#BitstreamVeraSans-Roman-67"/>
      <use x="152.44140625" xlink:href="#BitstreamVeraSans-Roman-31"/>
      <use x="216.064453125" xlink:href="#BitstreamVeraSans-Roman-30"/>
      <use x="279.6875" xlink:href="#BitstreamVeraSans-Roman-20"/>
      <use x="311.474609375" xlink:href="#BitstreamVeraSans-Roman-6f"/>
      <use x="372.65625" xlink:href="#BitstreamVeraSans-Roman-66"/>
      <use x="407.861328125" xlink:href="#BitstreamVeraSans-Roman-20"/>
      <use x="439.6484375" xlink:href="#BitstreamVeraSans-Roman-44"/>
      <use x="516.650390625" xlink:href="#BitstreamVeraSans-Roman-66"/>
     </g>
    </g>
   </g>
   <g id="matplotlib.axis_2">
    <g id="ytick_1">
     <g id="line2d_49">
      <path clip-path="url(#p99ba304a03)" d="M 3 384 
L 567.24 384 
" style="fill:none;stroke:#000000;stroke-dasharray:1.000000,3.000000;stroke-dashoffset:0.0;stroke-width:0.5;"/>
     </g>
     <g id="line2d_50">
      <defs>
       <path d="M 0 0 
L 4 0 
" id="m23ff813abe" style="stroke:#000000;stroke-width:0.5;"/>
      </defs>
      <g>
       <use style="stroke:#000000;stroke-width:0.5;" x="3.0" xlink:href="#m23ff813abe" y="384.0"/>
      </g>
     </g>
     <g id="line2d_51">
      <defs>
       <path d="M 0 0 
L -4 0 
" id="mc453f8b2b3" style="stroke:#000000;stroke-width:0.5;"/>
      </defs>
      <g>
       <use style="stroke:#000000;stroke-width:0.5;" x="567.24" xlink:href="#mc453f8b2b3" y="384.0"/>
      </g>
     </g>
    </g>
    <g id="ytick_2">
     <g id="line2d_52">
      <path clip-path="url(#p99ba304a03)" d="M 3 308.554455 
L 567.24 308.554455 
" style="fill:none;stroke:#000000;stroke-dasharray:1.000000,3.000000;stroke-dashoffset:0.0;stroke-width:0.5;"/>
     </g>
     <g id="line2d_53">
      <g>
       <use style="stroke:#000000;stroke-width:0.5;" x="3.0" xlink:href="#m23ff813abe" y="308.554455446"/>
      </g>
     </g>
     <g id="line2d_54">
      <g>
       <use style="stroke:#000000;stroke-width:0.5;" x="567.24" xlink:href="#mc453f8b2b3" y="308.554455446"/>
      </g>
     </g>
    </g>
    <g id="ytick_3">
     <g id="line2d_55">
      <path clip-path="url(#p99ba304a03)" d="M 3 233.108911 
L 567.24 233.108911 
" style="fill:none;stroke:#000000;stroke-dasharray:1.000000,3.000000;stroke-dashoffset:0.0;stroke-width:0.5;"/>
     </g>
     <g id="line2d_56">
      <g>
       <use style="stroke:#000000;stroke-width:0.5;" x="3.0" xlink:href="#m23ff813abe" y="233.108910891"/>
      </g>
     </g>
     <g id="line2d_57">
      <g>
       <use style="stroke:#000000;stroke-width:0.5;" x="567.24" xlink:href="#mc453f8b2b3" y="233.108910891"/>
      </g>
     </g>
    </g>
    <g id="ytick_4">
     <g id="line2d_58">
      <path clip-path="url(#p99ba304a03)" d="M 3 157.663366 
L 567.24 157.663366 
" style="fill:none;stroke:#000000;stroke-dasharray:1.000000,3.000000;stroke-dashoffset:0.0;stroke-width:0.5;"/>
     </g>
     <g id="line2d_59">
      <g>
       <use style="stroke:#000000;stroke-width:0.5;" x="3.0" xlink:href="#m23ff813abe" y="157.663366337"/>
      </g>
     </g>
     <g id="line2d_60">
      <g>
       <use style="stroke:#000000;stroke-width:0.5;" x="567.24" xlink:href="#mc453f8b2b3" y="157.663366337"/>
      </g>
     </g>
    </g>
    <g id="ytick_5">
     <g id="line2d_61">
      <path clip-path="url(#p99ba304a03)" d="M 3 82.217822 
L 567.24 82.217822 
" style="fill:none;stroke:#000000;stroke-dasharray:1.000000,3.000000;stroke-dashoffset:0.0;stroke-width:0.5;"/>
     </g>
     <g id="line2d_62">
      <g>
       <use style="stroke:#000000;stroke-width:0.5;" x="3.0" xlink:href="#m23ff813abe" y="82.2178217822"/>
      </g>
     </g>
     <g id="line2d_63">
      <g>
       <use style="stroke:#000000;stroke-width:0.5;" x="567.24" xlink:href="#mc453f8b2b3" y="82.2178217822"/>
      </g>
     </g>
    </g>
    <g id="ytick_6">
     <g id="line2d_64">
      <path clip-path="url(#p99ba304a03)" d="M 3 6.772277 
L 567.24 6.772277 
" style="fill:none;stroke:#000000;stroke-dasharray:1.000000,3.000000;stroke-dashoffset:0.0;stroke-width:0.5;"/>
     </g>
     <g id="line2d_65">
      <g>
       <use style="stroke:#000000;stroke-width:0.5;" x="3.0" xlink:href="#m23ff813abe" y="6.77227722772"/>
      </g>
     </g>
     <g id="line2d_66">
      <g>
       <use style="stroke:#000000;stroke-width:0.5;" x="567.24" xlink:href="#mc453f8b2b3" y="6.77227722772"/>
      </g>
     </g>
    </g>
   </g>
   <g id="text_10">
    <!-- {f6-f9}, 20-D -->
    <defs>
     <path d="M 12.5 -9.28125 
L 15.921875 -9.28125 
Q 22.75 -9.28125 24.828125 -7.171875 
Q 26.90625 -5.078125 26.90625 1.90625 
L 26.90625 14.015625 
Q 26.90625 21.625 29.09375 25.09375 
Q 31.296875 28.5625 36.71875 29.890625 
Q 31.296875 31.109375 29.09375 34.5625 
Q 26.90625 38.03125 26.90625 45.703125 
L 26.90625 57.8125 
Q 26.90625 64.75 24.828125 66.875 
Q 22.75 69 15.921875 69 
L 12.5 69 
L 12.5 75.984375 
L 15.578125 75.984375 
Q 27.734375 75.984375 31.8125 72.390625 
Q 35.890625 68.796875 35.890625 58.015625 
L 35.890625 46.296875 
Q 35.890625 39.015625 38.515625 36.203125 
Q 41.15625 33.40625 48.09375 33.40625 
L 51.125 33.40625 
L 51.125 26.421875 
L 48.09375 26.421875 
Q 41.15625 26.421875 38.515625 23.578125 
Q 35.890625 20.75 35.890625 13.375 
L 35.890625 1.703125 
Q 35.890625 -9.078125 31.8125 -12.6875 
Q 27.734375 -16.3125 15.578125 -16.3125 
L 12.5 -16.3125 
z
" id="BitstreamVeraSans-Roman-7d"/>
     <path d="M 10.984375 1.515625 
L 10.984375 10.5 
Q 14.703125 8.734375 18.5 7.8125 
Q 22.3125 6.890625 25.984375 6.890625 
Q 35.75 6.890625 40.890625 13.453125 
Q 46.046875 20.015625 46.78125 33.40625 
Q 43.953125 29.203125 39.59375 26.953125 
Q 35.25 24.703125 29.984375 24.703125 
Q 19.046875 24.703125 12.671875 31.3125 
Q 6.296875 37.9375 6.296875 49.421875 
Q 6.296875 60.640625 12.9375 67.421875 
Q 19.578125 74.21875 30.609375 74.21875 
Q 43.265625 74.21875 49.921875 64.515625 
Q 56.59375 54.828125 56.59375 36.375 
Q 56.59375 19.140625 48.40625 8.859375 
Q 40.234375 -1.421875 26.421875 -1.421875 
Q 22.703125 -1.421875 18.890625 -0.6875 
Q 15.09375 0.046875 10.984375 1.515625 
M 30.609375 32.421875 
Q 37.25 32.421875 41.125 36.953125 
Q 45.015625 41.5 45.015625 49.421875 
Q 45.015625 57.28125 41.125 61.84375 
Q 37.25 66.40625 30.609375 66.40625 
Q 23.96875 66.40625 20.09375 61.84375 
Q 16.21875 57.28125 16.21875 49.421875 
Q 16.21875 41.5 20.09375 36.953125 
Q 23.96875 32.421875 30.609375 32.421875 
" id="BitstreamVeraSans-Roman-39"/>
     <path d="M 51.125 -9.28125 
L 51.125 -16.3125 
L 48.09375 -16.3125 
Q 35.9375 -16.3125 31.8125 -12.6875 
Q 27.6875 -9.078125 27.6875 1.703125 
L 27.6875 13.375 
Q 27.6875 20.75 25.046875 23.578125 
Q 22.40625 26.421875 15.484375 26.421875 
L 12.5 26.421875 
L 12.5 33.40625 
L 15.484375 33.40625 
Q 22.46875 33.40625 25.078125 36.203125 
Q 27.6875 39.015625 27.6875 46.296875 
L 27.6875 58.015625 
Q 27.6875 68.796875 31.8125 72.390625 
Q 35.9375 75.984375 48.09375 75.984375 
L 51.125 75.984375 
L 51.125 69 
L 47.796875 69 
Q 40.921875 69 38.8125 66.84375 
Q 36.71875 64.703125 36.71875 57.8125 
L 36.71875 45.703125 
Q 36.71875 38.03125 34.5 34.5625 
Q 32.28125 31.109375 26.90625 29.890625 
Q 32.328125 28.5625 34.515625 25.09375 
Q 36.71875 21.625 36.71875 14.015625 
L 36.71875 1.90625 
Q 36.71875 -4.984375 38.8125 -7.125 
Q 40.921875 -9.28125 47.796875 -9.28125 
z
" id="BitstreamVeraSans-Roman-7b"/>
     <path d="M 11.71875 12.40625 
L 22.015625 12.40625 
L 22.015625 4 
L 14.015625 -11.625 
L 7.71875 -11.625 
L 11.71875 4 
z
" id="BitstreamVeraSans-Roman-2c"/>
    </defs>
    <g transform="translate(422.9802 376.38)scale(0.2 -0.2)">
     <use xlink:href="#BitstreamVeraSans-Roman-7b"/>
     <use x="63.623046875" xlink:href="#BitstreamVeraSans-Roman-66"/>
     <use x="98.828125" xlink:href="#BitstreamVeraSans-Roman-36"/>
     <use x="162.451171875" xlink:href="#BitstreamVeraSans-Roman-2d"/>
     <use x="198.53515625" xlink:href="#BitstreamVeraSans-Roman-66"/>
     <use x="233.740234375" xlink:href="#BitstreamVeraSans-Roman-39"/>
     <use x="297.36328125" xlink:href="#BitstreamVeraSans-Roman-7d"/>
     <use x="360.986328125" xlink:href="#BitstreamVeraSans-Roman-2c"/>
     <use x="392.7734375" xlink:href="#BitstreamVeraSans-Roman-20"/>
     <use x="424.560546875" xlink:href="#BitstreamVeraSans-Roman-32"/>
     <use x="488.18359375" xlink:href="#BitstreamVeraSans-Roman-30"/>
     <use x="551.806640625" xlink:href="#BitstreamVeraSans-Roman-2d"/>
     <use x="587.890625" xlink:href="#BitstreamVeraSans-Roman-44"/>
    </g>
   </g>
   <g id="text_11">
    <!-- v2.2.1.10 -->
    <defs>
     <path d="M 2.984375 54.6875 
L 12.5 54.6875 
L 29.59375 8.796875 
L 46.6875 54.6875 
L 56.203125 54.6875 
L 35.6875 0 
L 23.484375 0 
z
" id="BitstreamVeraSans-Roman-76"/>
     <path d="M 10.6875 12.40625 
L 21 12.40625 
L 21 0 
L 10.6875 0 
z
" id="BitstreamVeraSans-Roman-2e"/>
    </defs>
    <g style="fill:#808080;" transform="translate(261.4871875 378.1103125)scale(0.1 -0.1)">
     <use xlink:href="#BitstreamVeraSans-Roman-76"/>
     <use x="59.1796875" xlink:href="#BitstreamVeraSans-Roman-32"/>
     <use x="122.802734375" xlink:href="#BitstreamVeraSans-Roman-2e"/>
     <use x="154.58984375" xlink:href="#BitstreamVeraSans-Roman-32"/>
     <use x="218.212890625" xlink:href="#BitstreamVeraSans-Roman-2e"/>
     <use x="250.0" xlink:href="#BitstreamVeraSans-Roman-31"/>
     <use x="313.623046875" xlink:href="#BitstreamVeraSans-Roman-2e"/>
     <use x="345.41015625" xlink:href="#BitstreamVeraSans-Roman-31"/>
     <use x="409.033203125" xlink:href="#BitstreamVeraSans-Roman-30"/>
    </g>
   </g>
  </g>
 </g>
 <defs>
  <clipPath id="p99ba304a03">
   <rect height="381.0" width="564.24" x="3.0" y="3.0"/>
  </clipPath>
 </defs>
</svg>
