<?xml version="1.0" encoding="utf-8" standalone="no"?>
<!DOCTYPE svg PUBLIC "-//W3C//DTD SVG 1.1//EN"
  "http://www.w3.org/Graphics/SVG/1.1/DTD/svg11.dtd">
<!-- Created with matplotlib (http://matplotlib.org/) -->
<svg height="432pt" version="1.1" viewBox="0 0 576 432" width="576pt" xmlns="http://www.w3.org/2000/svg" xmlns:xlink="http://www.w3.org/1999/xlink">
 <defs>
  <style type="text/css">
*{stroke-linecap:butt;stroke-linejoin:round;stroke-miterlimit:100000;}
  </style>
 </defs>
 <g id="figure_1">
  <g id="patch_1">
   <path d="M 0 432 
L 576 432 
L 576 0 
L 0 0 
z
" style="fill:#ffffff;"/>
  </g>
  <g id="axes_1">
   <g id="patch_2">
    <path d="M 3 384 
L 567.24 384 
L 567.24 3 
L 3 3 
z
" style="fill:#ffffff;"/>
   </g>
   <g id="line2d_1">
    <path clip-path="url(#p6c2f642ccc)" d="M 189.729165 384 
L 189.729165 378.970297 
L 243.071871 378.970297 
L 243.071871 373.940594 
L 243.477727 373.940594 
L 243.477727 368.910891 
L 244.609089 368.910891 
L 244.609089 363.881188 
L 246.732115 363.881188 
L 246.732115 358.851485 
L 254.350591 358.851485 
L 254.350591 353.821782 
L 256.857646 353.821782 
L 256.857646 348.792079 
L 258.394915 348.792079 
L 258.438134 338.732673 
L 258.579313 338.732673 
L 258.579313 333.70297 
L 258.695818 333.70297 
L 258.695818 328.673267 
L 260.295917 328.673267 
L 260.295917 323.643564 
L 260.784314 323.643564 
L 260.784314 318.613861 
L 263.138314 318.613861 
L 263.138314 313.584158 
L 263.633047 313.584158 
L 263.633047 308.554455 
L 264.105965 308.554455 
L 264.105965 303.524752 
L 265.030892 303.524752 
L 265.030892 298.49505 
L 265.910889 298.49505 
L 265.910889 293.465347 
L 267.914054 293.465347 
L 267.943486 283.405941 
L 268.284964 283.405941 
L 268.284964 278.376238 
L 268.396129 278.376238 
L 268.396129 273.346535 
L 268.661576 273.346535 
L 268.661576 268.316832 
L 269.028863 268.316832 
L 269.028863 263.287129 
L 269.168242 263.287129 
L 269.271432 253.227723 
L 269.591827 253.227723 
L 269.591827 248.19802 
L 271.611267 248.19802 
L 271.611267 243.168317 
L 272.215945 243.168317 
L 272.215945 238.138614 
L 272.775673 238.138614 
L 272.775673 233.108911 
L 272.952117 233.108911 
L 272.952117 228.079208 
L 273.864621 228.079208 
L 273.864621 223.049505 
L 274.970314 223.049505 
L 274.970314 218.019802 
L 275.336404 218.019802 
L 275.336404 212.990099 
L 275.650012 212.990099 
L 275.760431 202.930693 
L 276.010701 202.930693 
L 276.053874 187.841584 
L 276.285396 187.841584 
L 276.285396 182.811881 
L 277.32476 182.811881 
L 277.32476 177.782178 
L 277.817843 177.782178 
L 277.817843 172.752475 
L 277.974413 172.752475 
L 277.990945 162.693069 
L 278.179621 162.693069 
L 278.246068 142.574257 
L 278.297785 142.574257 
L 278.36049 132.514851 
L 278.640804 132.514851 
L 278.640804 127.485149 
L 279.213695 127.485149 
L 279.213695 122.455446 
L 279.681399 122.455446 
L 279.681399 117.425743 
L 279.959837 117.425743 
L 279.959837 112.39604 
L 280.324421 112.39604 
L 280.324421 107.366337 
L 280.564119 107.366337 
L 280.564119 102.336634 
L 280.890385 102.336634 
L 280.890385 97.306931 
L 281.060379 97.306931 
L 281.060379 92.277228 
L 281.303913 92.277228 
L 281.320421 82.217822 
L 306.656744 82.217822 
L 306.656744 77.188119 
L 313.810789 77.188119 
L 313.810789 72.158416 
L 314.047521 72.158416 
L 314.047521 67.128713 
L 314.946693 67.128713 
L 314.946693 62.09901 
L 315.518648 62.09901 
L 315.549232 52.039604 
L 316.532497 52.039604 
L 316.532497 47.009901 
L 316.898908 47.009901 
L 316.898908 41.980198 
L 317.302096 41.980198 
L 317.302096 36.950495 
L 317.621837 36.950495 
L 317.621837 31.920792 
L 318.766395 31.920792 
L 318.766395 26.891089 
L 319.252423 26.891089 
L 319.327485 16.831683 
L 319.808895 16.831683 
L 319.808895 11.80198 
L 321.034945 11.80198 
L 321.034945 6.772277 
L 321.034945 6.772277 
L 567.24 6.772277 
L 567.24 6.772277 
" style="fill:none;stroke:#ff0000;stroke-linecap:square;stroke-width:3.0;"/>
   </g>
   <g id="line2d_2">
    <path clip-path="url(#p6c2f642ccc)" d="M 286.356516 384 
L 286.356516 378.970297 
L 291.75315 378.970297 
L 291.75315 373.940594 
L 295.783623 373.940594 
L 295.783623 368.910891 
L 295.91004 368.910891 
L 295.91004 363.881188 
L 297.626975 363.881188 
L 297.626975 358.851485 
L 300.225393 358.851485 
L 300.225393 353.821782 
L 302.518936 353.821782 
L 302.518936 348.792079 
L 302.774061 348.792079 
L 302.774061 343.762376 
L 303.670235 343.762376 
L 303.670235 338.732673 
L 306.440784 338.732673 
L 306.440784 333.70297 
L 307.500483 333.70297 
L 307.500483 328.673267 
L 308.816794 328.673267 
L 308.816794 323.643564 
L 311.778277 323.643564 
L 311.854607 313.584158 
L 312.291448 313.584158 
L 312.291448 308.554455 
L 313.113882 308.554455 
L 313.113882 303.524752 
L 313.242906 303.524752 
L 313.242906 298.49505 
L 313.370356 298.49505 
L 313.370356 293.465347 
L 315.316653 293.465347 
L 315.316653 288.435644 
L 315.915165 288.435644 
L 315.915165 283.405941 
L 316.73968 283.405941 
L 316.73968 278.376238 
L 317.651442 278.376238 
L 317.651442 273.346535 
L 318.38244 273.346535 
L 318.38244 268.316832 
L 318.995745 268.316832 
L 318.995745 263.287129 
L 319.340871 263.287129 
L 319.340871 258.257426 
L 319.521551 258.257426 
L 319.521551 253.227723 
L 322.020449 253.227723 
L 322.020449 248.19802 
L 322.588804 248.19802 
L 322.588804 243.168317 
L 323.112173 243.168317 
L 323.112173 238.138614 
L 323.895232 238.138614 
L 323.895232 233.108911 
L 324.474519 233.108911 
L 324.573575 223.049505 
L 324.991298 223.049505 
L 324.991298 218.019802 
L 326.70395 218.019802 
L 326.70395 212.990099 
L 327.154915 212.990099 
L 327.154915 207.960396 
L 327.375343 207.960396 
L 327.375343 202.930693 
L 327.83176 202.930693 
L 327.83176 197.90099 
L 328.0596 197.90099 
L 328.082492 187.841584 
L 329.388334 187.841584 
L 329.466392 167.722772 
L 329.573108 167.722772 
L 329.581597 157.663366 
L 330.204653 157.663366 
L 330.309129 147.60396 
L 330.451293 147.60396 
L 330.451293 142.574257 
L 330.664335 142.574257 
L 330.719766 127.485149 
L 331.304547 127.485149 
L 331.304547 122.455446 
L 331.548837 122.455446 
L 331.548837 117.425743 
L 331.678518 117.425743 
L 331.678518 112.39604 
L 333.632361 112.39604 
L 333.679309 102.336634 
L 334.113809 102.336634 
L 334.204829 92.277228 
L 334.303477 92.277228 
L 334.303477 87.247525 
L 335.385764 87.247525 
L 335.385764 82.217822 
L 378.314703 82.217822 
L 378.314703 77.188119 
L 395.232799 77.188119 
L 395.237842 6.772277 
L 395.237842 6.772277 
L 567.24 6.772277 
L 567.24 6.772277 
" style="fill:none;stroke:#00bfbf;stroke-linecap:square;"/>
   </g>
   <g id="line2d_3">
    <path clip-path="url(#p6c2f642ccc)" d="M 286.356516 384 
L 286.356516 378.970297 
L 287.606723 378.970297 
L 287.606723 373.940594 
L 287.736594 373.940594 
L 287.736594 368.910891 
L 291.75315 368.910891 
L 291.75315 363.881188 
L 294.551404 363.881188 
L 294.551404 358.851485 
L 295.089697 358.851485 
L 295.089697 353.821782 
L 295.474762 353.821782 
L 295.474762 348.792079 
L 295.783623 348.792079 
L 295.783623 343.762376 
L 295.91004 343.762376 
L 295.91004 338.732673 
L 296.738549 338.732673 
L 296.738549 333.70297 
L 297.626975 333.70297 
L 297.626975 328.673267 
L 300.225393 328.673267 
L 300.225393 323.643564 
L 302.518936 323.643564 
L 302.518936 318.613861 
L 303.670235 318.613861 
L 303.670235 313.584158 
L 304.30976 313.584158 
L 304.30976 308.554455 
L 307.500483 308.554455 
L 307.500483 303.524752 
L 309.395536 303.524752 
L 309.395536 298.49505 
L 311.34935 298.49505 
L 311.34935 293.465347 
L 311.778277 293.465347 
L 311.778277 288.435644 
L 312.291448 288.435644 
L 312.291448 283.405941 
L 313.242906 283.405941 
L 313.242906 278.376238 
L 315.686719 278.376238 
L 315.686719 273.346535 
L 315.915165 273.346535 
L 315.915165 268.316832 
L 316.73968 268.316832 
L 316.73968 263.287129 
L 317.651442 263.287129 
L 317.651442 258.257426 
L 318.38244 258.257426 
L 318.38244 253.227723 
L 318.617876 253.227723 
L 318.617876 248.19802 
L 318.995745 248.19802 
L 318.995745 243.168317 
L 319.521551 243.168317 
L 319.521551 238.138614 
L 320.207876 238.138614 
L 320.207876 233.108911 
L 321.285182 233.108911 
L 321.285182 228.079208 
L 321.856923 228.079208 
L 321.856923 223.049505 
L 322.77738 223.049505 
L 322.77738 218.019802 
L 323.895232 218.019802 
L 323.895232 212.990099 
L 324.474519 212.990099 
L 324.474519 207.960396 
L 324.623407 207.960396 
L 324.623407 202.930693 
L 325.153448 202.930693 
L 325.153448 197.90099 
L 326.206598 197.90099 
L 326.206598 192.871287 
L 326.70395 192.871287 
L 326.70395 187.841584 
L 326.918403 187.841584 
L 326.918403 182.811881 
L 327.154915 182.811881 
L 327.154915 177.782178 
L 327.375343 177.782178 
L 327.375343 172.752475 
L 327.585177 172.752475 
L 327.585177 167.722772 
L 327.83176 167.722772 
L 327.83176 162.693069 
L 328.082492 162.693069 
L 328.082492 157.663366 
L 329.270215 157.663366 
L 329.356296 147.60396 
L 329.425846 147.60396 
L 329.466392 132.514851 
L 329.573108 132.514851 
L 329.663901 122.455446 
L 329.684359 122.455446 
L 329.684359 117.425743 
L 330.194138 117.425743 
L 330.194138 112.39604 
L 330.975935 112.39604 
L 330.975935 107.366337 
L 331.304547 107.366337 
L 331.304547 102.336634 
L 331.548837 102.336634 
L 331.548837 97.306931 
L 331.678518 97.306931 
L 331.678518 92.277228 
L 334.204829 92.277228 
L 334.303477 82.217822 
L 378.314703 82.217822 
L 378.314703 77.188119 
L 379.949046 77.188119 
L 379.949046 72.158416 
L 382.858699 72.158416 
L 382.858699 67.128713 
L 392.429259 67.128713 
L 392.429259 62.09901 
L 395.232799 62.09901 
L 395.237842 6.772277 
L 395.237842 6.772277 
L 567.24 6.772277 
L 567.24 6.772277 
" style="fill:none;stroke:#bf00bf;stroke-linecap:square;"/>
   </g>
   <g id="line2d_4">
    <path clip-path="url(#p6c2f642ccc)" d="M 286.356516 384 
L 286.356516 378.970297 
L 287.606723 378.970297 
L 287.606723 373.940594 
L 287.736594 373.940594 
L 287.736594 368.910891 
L 288.546643 368.910891 
L 288.546643 363.881188 
L 289.653443 363.881188 
L 289.653443 358.851485 
L 291.75315 358.851485 
L 291.75315 353.821782 
L 292.651299 353.821782 
L 292.651299 348.792079 
L 294.551404 348.792079 
L 294.551404 343.762376 
L 295.089697 343.762376 
L 295.089697 338.732673 
L 295.381719 338.732673 
L 295.474762 328.673267 
L 295.783623 328.673267 
L 295.783623 323.643564 
L 295.91004 323.643564 
L 295.91004 318.613861 
L 297.020171 318.613861 
L 297.020171 313.584158 
L 297.798314 313.584158 
L 297.798314 308.554455 
L 298.165129 308.554455 
L 298.165129 303.524752 
L 301.050903 303.524752 
L 301.050903 298.49505 
L 302.078931 298.49505 
L 302.078931 293.465347 
L 306.077343 293.465347 
L 306.077343 288.435644 
L 307.250177 288.435644 
L 307.250177 283.405941 
L 307.500483 283.405941 
L 307.500483 278.376238 
L 311.778277 278.376238 
L 311.778277 273.346535 
L 313.242906 273.346535 
L 313.242906 268.316832 
L 313.912486 268.316832 
L 313.912486 263.287129 
L 314.834818 263.287129 
L 314.834818 258.257426 
L 315.686719 258.257426 
L 315.686719 253.227723 
L 315.915165 253.227723 
L 315.915165 248.19802 
L 316.73968 248.19802 
L 316.815507 238.138614 
L 317.07871 238.138614 
L 317.07871 233.108911 
L 317.46318 233.108911 
L 317.46318 228.079208 
L 317.651442 228.079208 
L 317.651442 223.049505 
L 318.617876 223.049505 
L 318.617876 218.019802 
L 320.32372 218.019802 
L 320.32372 212.990099 
L 322.588624 212.990099 
L 322.588624 207.960396 
L 323.895232 207.960396 
L 323.895232 202.930693 
L 324.036487 202.930693 
L 324.036487 197.90099 
L 324.623407 197.90099 
L 324.623407 192.871287 
L 324.964949 192.871287 
L 324.964949 187.841584 
L 325.153448 187.841584 
L 325.153448 182.811881 
L 325.273559 182.811881 
L 325.273559 177.782178 
L 325.663344 177.782178 
L 325.663344 172.752475 
L 326.025214 172.752475 
L 326.025214 167.722772 
L 326.206598 167.722772 
L 326.206598 162.693069 
L 326.70395 162.693069 
L 326.70395 157.663366 
L 327.154915 157.663366 
L 327.154915 152.633663 
L 327.558427 152.633663 
L 327.558427 147.60396 
L 327.83176 147.60396 
L 327.928344 137.544554 
L 328.027193 137.544554 
L 328.027193 132.514851 
L 329.161867 132.514851 
L 329.184835 122.455446 
L 329.358472 122.455446 
L 329.466392 107.366337 
L 329.573108 107.366337 
L 329.663901 97.306931 
L 330.32388 97.306931 
L 330.32388 92.277228 
L 330.476483 92.277228 
L 330.476483 87.247525 
L 331.546063 87.247525 
L 331.546063 82.217822 
L 340.196472 82.217822 
L 340.196472 77.188119 
L 363.854757 77.188119 
L 363.854757 72.158416 
L 375.290412 72.158416 
L 375.298817 62.09901 
L 379.949046 62.09901 
L 379.949046 57.069307 
L 382.379146 57.069307 
L 382.379146 52.039604 
L 382.858699 52.039604 
L 382.858699 47.009901 
L 388.816085 47.009901 
L 388.816085 41.980198 
L 392.429259 41.980198 
L 392.429259 36.950495 
L 393.814188 36.950495 
L 393.814188 31.920792 
L 395.232799 31.920792 
L 395.237842 6.772277 
L 395.237842 6.772277 
L 567.24 6.772277 
L 567.24 6.772277 
" style="fill:none;stroke:#000000;stroke-linecap:square;"/>
   </g>
   <g id="line2d_5">
    <path clip-path="url(#p6c2f642ccc)" d="M 286.356516 384 
L 286.356516 378.970297 
L 287.606723 378.970297 
L 287.606723 373.940594 
L 287.736594 373.940594 
L 287.736594 368.910891 
L 288.546643 368.910891 
L 288.546643 363.881188 
L 289.42646 363.881188 
L 289.42646 358.851485 
L 289.653443 358.851485 
L 289.653443 353.821782 
L 291.75315 353.821782 
L 291.75315 348.792079 
L 292.651299 348.792079 
L 292.651299 343.762376 
L 293.602678 343.762376 
L 293.652768 333.70297 
L 294.551404 333.70297 
L 294.551404 328.673267 
L 295.089697 328.673267 
L 295.089697 323.643564 
L 295.381719 323.643564 
L 295.381719 318.613861 
L 295.783623 318.613861 
L 295.783623 313.584158 
L 295.91004 313.584158 
L 295.91004 308.554455 
L 297.020171 308.554455 
L 297.020171 303.524752 
L 297.798314 303.524752 
L 297.798314 298.49505 
L 298.165129 298.49505 
L 298.165129 293.465347 
L 300.724973 293.465347 
L 300.828932 283.405941 
L 301.050903 283.405941 
L 301.050903 278.376238 
L 306.077343 278.376238 
L 306.077343 273.346535 
L 307.250177 273.346535 
L 307.250177 268.316832 
L 307.500483 268.316832 
L 307.500483 263.287129 
L 311.434223 263.287129 
L 311.434223 258.257426 
L 311.778277 258.257426 
L 311.778277 253.227723 
L 313.626718 253.227723 
L 313.626718 248.19802 
L 314.834818 248.19802 
L 314.834818 243.168317 
L 315.686719 243.168317 
L 315.686719 238.138614 
L 315.915165 238.138614 
L 315.915165 233.108911 
L 316.73968 233.108911 
L 316.815507 223.049505 
L 317.651442 223.049505 
L 317.651442 218.019802 
L 318.304388 218.019802 
L 318.379674 207.960396 
L 318.617876 207.960396 
L 318.617876 202.930693 
L 319.550705 202.930693 
L 319.550705 197.90099 
L 320.127614 197.90099 
L 320.127614 192.871287 
L 322.483167 192.871287 
L 322.483167 187.841584 
L 323.156047 187.841584 
L 323.156047 182.811881 
L 324.036487 182.811881 
L 324.036487 177.782178 
L 324.623407 177.782178 
L 324.623407 172.752475 
L 325.153448 172.752475 
L 325.153448 167.722772 
L 325.273559 167.722772 
L 325.273559 162.693069 
L 326.025214 162.693069 
L 326.025214 157.663366 
L 326.206598 157.663366 
L 326.206598 152.633663 
L 326.70395 152.633663 
L 326.70395 147.60396 
L 327.154915 147.60396 
L 327.154915 142.574257 
L 327.558427 142.574257 
L 327.558427 137.544554 
L 327.928344 137.544554 
L 328.027193 127.485149 
L 329.063574 127.485149 
L 329.161867 117.425743 
L 329.184835 117.425743 
L 329.184835 112.39604 
L 329.425846 112.39604 
L 329.466392 102.336634 
L 329.573108 102.336634 
L 329.573108 97.306931 
L 330.32388 97.306931 
L 330.32388 92.277228 
L 330.476483 92.277228 
L 330.476483 87.247525 
L 331.546063 87.247525 
L 331.546063 82.217822 
L 340.196472 82.217822 
L 340.196472 77.188119 
L 348.795823 77.188119 
L 348.795823 72.158416 
L 349.109084 72.158416 
L 349.109084 67.128713 
L 363.854757 67.128713 
L 363.854757 62.09901 
L 375.298817 62.09901 
L 375.298817 57.069307 
L 378.654722 57.069307 
L 378.654722 52.039604 
L 379.949046 52.039604 
L 379.949046 47.009901 
L 380.590924 47.009901 
L 380.590924 41.980198 
L 382.379146 41.980198 
L 382.379146 36.950495 
L 385.983846 36.950495 
L 385.983846 31.920792 
L 388.816085 31.920792 
L 388.816085 26.891089 
L 390.287042 26.891089 
L 390.287042 21.861386 
L 392.417581 21.861386 
L 392.417581 16.831683 
L 395.237842 16.831683 
L 395.237842 6.772277 
L 395.237842 6.772277 
L 567.24 6.772277 
L 567.24 6.772277 
" style="fill:none;stroke:#00bfbf;stroke-linecap:square;"/>
   </g>
   <g id="line2d_6">
    <path clip-path="url(#p6c2f642ccc)" d="M 275.574548 384 
L 275.574548 378.970297 
L 279.393719 378.970297 
L 279.393719 373.940594 
L 279.727784 373.940594 
L 279.820796 363.881188 
L 282.475883 363.881188 
L 282.475883 358.851485 
L 282.61548 358.851485 
L 282.61548 353.821782 
L 283.563804 353.821782 
L 283.563804 348.792079 
L 284.341028 348.792079 
L 284.341028 343.762376 
L 284.620687 343.762376 
L 284.620687 338.732673 
L 286.356516 338.732673 
L 286.356516 333.70297 
L 287.606723 333.70297 
L 287.606723 328.673267 
L 287.736594 328.673267 
L 287.736594 323.643564 
L 288.253952 323.643564 
L 288.253952 318.613861 
L 288.392113 318.613861 
L 288.392113 313.584158 
L 288.546643 313.584158 
L 288.546643 308.554455 
L 289.42646 308.554455 
L 289.463341 298.49505 
L 289.570225 298.49505 
L 289.570225 293.465347 
L 290.268025 293.465347 
L 290.34269 283.405941 
L 290.499878 283.405941 
L 290.499878 278.376238 
L 292.483959 278.376238 
L 292.492086 268.316832 
L 292.921888 268.316832 
L 292.921888 263.287129 
L 293.602678 263.287129 
L 293.602678 258.257426 
L 293.730176 258.257426 
L 293.730176 253.227723 
L 294.064978 253.227723 
L 294.064978 248.19802 
L 294.28784 248.19802 
L 294.28784 243.168317 
L 294.551404 243.168317 
L 294.551404 238.138614 
L 295.5821 238.138614 
L 295.5821 233.108911 
L 295.783623 233.108911 
L 295.783623 228.079208 
L 296.479056 228.079208 
L 296.479056 223.049505 
L 297.447619 223.049505 
L 297.447619 218.019802 
L 298.86263 218.019802 
L 298.86263 212.990099 
L 298.98991 212.990099 
L 298.98991 207.960396 
L 299.568224 207.960396 
L 299.568224 202.930693 
L 300.42088 202.930693 
L 300.42088 197.90099 
L 300.625975 197.90099 
L 300.625975 192.871287 
L 301.721745 192.871287 
L 301.721745 187.841584 
L 303.398423 187.841584 
L 303.398423 182.811881 
L 303.722723 182.811881 
L 303.783863 172.752475 
L 303.900183 172.752475 
L 303.978031 162.693069 
L 305.855433 162.693069 
L 305.855433 157.663366 
L 310.438427 157.663366 
L 310.438427 152.633663 
L 312.15527 152.633663 
L 312.15527 147.60396 
L 312.880016 147.60396 
L 312.880016 142.574257 
L 313.203135 142.574257 
L 313.203135 137.544554 
L 313.690585 137.544554 
L 313.690585 132.514851 
L 315.511443 132.514851 
L 315.511443 127.485149 
L 319.832834 127.485149 
L 319.935678 117.425743 
L 320.909928 117.425743 
L 320.909928 112.39604 
L 321.432085 112.39604 
L 321.432085 107.366337 
L 322.765963 107.366337 
L 322.765963 102.336634 
L 323.209305 102.336634 
L 323.209305 97.306931 
L 324.036487 97.306931 
L 324.036487 92.277228 
L 324.623407 92.277228 
L 324.631766 82.217822 
L 324.87376 82.217822 
L 324.87376 77.188119 
L 325.153448 77.188119 
L 325.153448 72.158416 
L 325.273559 72.158416 
L 325.273559 67.128713 
L 326.391506 67.128713 
L 326.391506 62.09901 
L 326.894831 62.09901 
L 326.947044 52.039604 
L 329.296254 52.039604 
L 329.296254 47.009901 
L 329.859649 47.009901 
L 329.859649 41.980198 
L 333.410615 41.980198 
L 333.410615 36.950495 
L 334.078114 36.950495 
L 334.078114 31.920792 
L 335.14886 31.920792 
L 335.14886 26.891089 
L 340.196472 26.891089 
L 340.196472 21.861386 
L 346.872774 21.861386 
L 346.872774 16.831683 
L 350.650131 16.831683 
L 350.650131 11.80198 
L 354.847008 11.80198 
L 354.847008 6.772277 
L 354.847008 6.772277 
L 567.24 6.772277 
L 567.24 6.772277 
" style="fill:none;stroke:#bf00bf;stroke-linecap:square;"/>
   </g>
   <g id="line2d_7">
    <path clip-path="url(#p6c2f642ccc)" d="M 244.609089 384 
L 244.609089 378.970297 
L 260.784314 378.970297 
L 260.784314 373.940594 
L 269.028863 373.940594 
L 269.028863 368.910891 
L 269.168242 368.910891 
L 269.168242 363.881188 
L 271.679299 363.881188 
L 271.679299 358.851485 
L 272.410812 358.851485 
L 272.410812 353.821782 
L 274.443463 353.821782 
L 274.443463 348.792079 
L 275.279752 348.792079 
L 275.279752 343.762376 
L 275.760431 343.762376 
L 275.760431 338.732673 
L 276.413926 338.732673 
L 276.413926 333.70297 
L 276.69643 333.70297 
L 276.69643 328.673267 
L 277.32476 328.673267 
L 277.32476 323.643564 
L 277.735985 323.643564 
L 277.735985 318.613861 
L 277.998982 318.613861 
L 278.098932 308.554455 
L 278.40479 308.554455 
L 278.40479 303.524752 
L 278.525594 303.524752 
L 278.525594 298.49505 
L 278.653926 298.49505 
L 278.653926 293.465347 
L 279.165333 293.465347 
L 279.165333 288.435644 
L 279.391363 288.435644 
L 279.432684 273.346535 
L 279.820796 273.346535 
L 279.820796 268.316832 
L 280.672005 268.316832 
L 280.731419 258.257426 
L 281.975031 258.257426 
L 282.024825 248.19802 
L 282.134917 248.19802 
L 282.134917 243.168317 
L 282.24674 243.168317 
L 282.24674 238.138614 
L 282.363955 238.138614 
L 282.363955 233.108911 
L 282.61548 233.108911 
L 282.634407 223.049505 
L 283.121418 223.049505 
L 283.121418 218.019802 
L 283.324423 218.019802 
L 283.324423 212.990099 
L 283.448985 212.990099 
L 283.448985 207.960396 
L 283.564558 207.960396 
L 283.564558 202.930693 
L 284.140776 202.930693 
L 284.140776 197.90099 
L 284.620687 197.90099 
L 284.620687 192.871287 
L 284.773194 192.871287 
L 284.773194 187.841584 
L 285.082888 187.841584 
L 285.16816 172.752475 
L 285.556804 172.752475 
L 285.633138 162.693069 
L 286.106429 162.693069 
L 286.171447 152.633663 
L 286.397996 152.633663 
L 286.397996 147.60396 
L 287.274137 147.60396 
L 287.301927 137.544554 
L 287.776371 137.544554 
L 287.776371 132.514851 
L 288.169826 132.514851 
L 288.169826 127.485149 
L 288.50469 127.485149 
L 288.50469 122.455446 
L 289.471467 122.455446 
L 289.471467 117.425743 
L 290.135686 117.425743 
L 290.135686 112.39604 
L 291.790707 112.39604 
L 291.790707 107.366337 
L 293.691387 107.366337 
L 293.691387 102.336634 
L 293.854518 102.336634 
L 293.854518 97.306931 
L 296.798946 97.306931 
L 296.798946 92.277228 
L 297.109536 92.277228 
L 297.109536 87.247525 
L 301.945264 87.247525 
L 301.945264 82.217822 
L 314.946693 82.217822 
L 314.946693 77.188119 
L 315.549232 77.188119 
L 315.549232 72.158416 
L 317.302096 72.158416 
L 317.302096 67.128713 
L 318.339547 67.128713 
L 318.339547 62.09901 
L 318.766395 62.09901 
L 318.766395 57.069307 
L 319.395395 57.069307 
L 319.395395 52.039604 
L 319.935678 52.039604 
L 319.935678 47.009901 
L 320.577776 47.009901 
L 320.577776 41.980198 
L 321.432085 41.980198 
L 321.432085 36.950495 
L 322.129649 36.950495 
L 322.129649 31.920792 
L 322.249453 31.920792 
L 322.249453 26.891089 
L 322.591746 26.891089 
L 322.591746 21.861386 
L 323.706129 21.861386 
L 323.706129 16.831683 
L 324.036487 16.831683 
L 324.036487 11.80198 
L 324.87376 11.80198 
L 324.87376 6.772277 
L 324.87376 6.772277 
L 567.24 6.772277 
L 567.24 6.772277 
" style="fill:none;stroke:#000000;stroke-linecap:square;"/>
   </g>
   <g id="line2d_8">
    <path clip-path="url(#p6c2f642ccc)" d="M 189.729165 384 
L 189.729165 378.970297 
L 243.071871 378.970297 
L 243.071871 373.940594 
L 243.477727 373.940594 
L 243.477727 368.910891 
L 244.609089 368.910891 
L 244.609089 363.881188 
L 246.732115 363.881188 
L 246.732115 358.851485 
L 254.350591 358.851485 
L 254.350591 353.821782 
L 256.857646 353.821782 
L 256.857646 348.792079 
L 258.394915 348.792079 
L 258.438134 338.732673 
L 258.579313 338.732673 
L 258.579313 333.70297 
L 258.695818 333.70297 
L 258.695818 328.673267 
L 260.295917 328.673267 
L 260.295917 323.643564 
L 260.784314 323.643564 
L 260.784314 318.613861 
L 263.138314 318.613861 
L 263.138314 313.584158 
L 263.633047 313.584158 
L 263.633047 308.554455 
L 264.105965 308.554455 
L 264.105965 303.524752 
L 265.030892 303.524752 
L 265.030892 298.49505 
L 265.910889 298.49505 
L 265.910889 293.465347 
L 267.914054 293.465347 
L 267.943486 283.405941 
L 268.284964 283.405941 
L 268.284964 278.376238 
L 268.396129 278.376238 
L 268.396129 273.346535 
L 268.661576 273.346535 
L 268.661576 268.316832 
L 269.028863 268.316832 
L 269.028863 263.287129 
L 269.168242 263.287129 
L 269.271432 253.227723 
L 269.591827 253.227723 
L 269.591827 248.19802 
L 271.611267 248.19802 
L 271.611267 243.168317 
L 272.215945 243.168317 
L 272.215945 238.138614 
L 272.775673 238.138614 
L 272.775673 233.108911 
L 272.952117 233.108911 
L 272.952117 228.079208 
L 273.864621 228.079208 
L 273.864621 223.049505 
L 274.970314 223.049505 
L 274.970314 218.019802 
L 275.336404 218.019802 
L 275.336404 212.990099 
L 275.650012 212.990099 
L 275.760431 202.930693 
L 276.010701 202.930693 
L 276.053874 187.841584 
L 276.285396 187.841584 
L 276.285396 182.811881 
L 277.32476 182.811881 
L 277.32476 177.782178 
L 277.817843 177.782178 
L 277.817843 172.752475 
L 277.974413 172.752475 
L 277.990945 162.693069 
L 278.179621 162.693069 
L 278.246068 142.574257 
L 278.297785 142.574257 
L 278.36049 132.514851 
L 278.640804 132.514851 
L 278.640804 127.485149 
L 279.213695 127.485149 
L 279.213695 122.455446 
L 279.681399 122.455446 
L 279.681399 117.425743 
L 279.959837 117.425743 
L 279.959837 112.39604 
L 280.324421 112.39604 
L 280.324421 107.366337 
L 280.564119 107.366337 
L 280.564119 102.336634 
L 280.890385 102.336634 
L 280.890385 97.306931 
L 281.060379 97.306931 
L 281.060379 92.277228 
L 281.303913 92.277228 
L 281.320421 82.217822 
L 306.656744 82.217822 
L 306.656744 77.188119 
L 313.810789 77.188119 
L 313.810789 72.158416 
L 314.047521 72.158416 
L 314.047521 67.128713 
L 314.946693 67.128713 
L 314.946693 62.09901 
L 315.518648 62.09901 
L 315.549232 52.039604 
L 316.532497 52.039604 
L 316.532497 47.009901 
L 316.898908 47.009901 
L 316.898908 41.980198 
L 317.302096 41.980198 
L 317.302096 36.950495 
L 317.621837 36.950495 
L 317.621837 31.920792 
L 318.766395 31.920792 
L 318.766395 26.891089 
L 319.252423 26.891089 
L 319.327485 16.831683 
L 319.808895 16.831683 
L 319.808895 11.80198 
L 321.034945 11.80198 
L 321.034945 6.772277 
L 321.034945 6.772277 
L 567.24 6.772277 
L 567.24 6.772277 
" style="fill:none;stroke:#00bfbf;stroke-linecap:square;"/>
   </g>
   <g id="patch_3">
    <path d="M 3 3 
L 567.24 3 
" style="fill:none;stroke:#000000;stroke-linecap:square;stroke-linejoin:miter;"/>
   </g>
   <g id="patch_4">
    <path d="M 567.24 384 
L 567.24 3 
" style="fill:none;stroke:#000000;stroke-linecap:square;stroke-linejoin:miter;"/>
   </g>
   <g id="patch_5">
    <path d="M 3 384 
L 567.24 384 
" style="fill:none;stroke:#000000;stroke-linecap:square;stroke-linejoin:miter;"/>
   </g>
   <g id="patch_6">
    <path d="M 3 384 
L 3 3 
" style="fill:none;stroke:#000000;stroke-linecap:square;stroke-linejoin:miter;"/>
   </g>
   <g id="matplotlib.axis_1">
    <g id="xtick_1"/>
    <g id="xtick_2">
     <g id="line2d_9">
      <path clip-path="url(#p6c2f642ccc)" d="M 69.254589 384 
L 69.254589 3 
" style="fill:none;stroke:#000000;stroke-dasharray:1.000000,3.000000;stroke-dashoffset:0.0;stroke-width:0.5;"/>
     </g>
     <g id="line2d_10">
      <defs>
       <path d="M 0 0 
L 0 -4 
" id="mdfa3ac47cb" style="stroke:#000000;stroke-width:0.5;"/>
      </defs>
      <g>
       <use style="stroke:#000000;stroke-width:0.5;" x="69.2545893472" xlink:href="#mdfa3ac47cb" y="384.0"/>
      </g>
     </g>
     <g id="line2d_11">
      <defs>
       <path d="M 0 0 
L 0 4 
" id="m27c443bdd9" style="stroke:#000000;stroke-width:0.5;"/>
      </defs>
      <g>
       <use style="stroke:#000000;stroke-width:0.5;" x="69.2545893472" xlink:href="#m27c443bdd9" y="3.0"/>
      </g>
     </g>
     <g id="text_1">
      <!-- -6 -->
      <defs>
       <path d="M 33.015625 40.375 
Q 26.375 40.375 22.484375 35.828125 
Q 18.609375 31.296875 18.609375 23.390625 
Q 18.609375 15.53125 22.484375 10.953125 
Q 26.375 6.390625 33.015625 6.390625 
Q 39.65625 6.390625 43.53125 10.953125 
Q 47.40625 15.53125 47.40625 23.390625 
Q 47.40625 31.296875 43.53125 35.828125 
Q 39.65625 40.375 33.015625 40.375 
M 52.59375 71.296875 
L 52.59375 62.3125 
Q 48.875 64.0625 45.09375 64.984375 
Q 41.3125 65.921875 37.59375 65.921875 
Q 27.828125 65.921875 22.671875 59.328125 
Q 17.53125 52.734375 16.796875 39.40625 
Q 19.671875 43.65625 24.015625 45.921875 
Q 28.375 48.1875 33.59375 48.1875 
Q 44.578125 48.1875 50.953125 41.515625 
Q 57.328125 34.859375 57.328125 23.390625 
Q 57.328125 12.15625 50.6875 5.359375 
Q 44.046875 -1.421875 33.015625 -1.421875 
Q 20.359375 -1.421875 13.671875 8.265625 
Q 6.984375 17.96875 6.984375 36.375 
Q 6.984375 53.65625 15.1875 63.9375 
Q 23.390625 74.21875 37.203125 74.21875 
Q 40.921875 74.21875 44.703125 73.484375 
Q 48.484375 72.75 52.59375 71.296875 
" id="BitstreamVeraSans-Roman-36"/>
       <path d="M 4.890625 31.390625 
L 31.203125 31.390625 
L 31.203125 23.390625 
L 4.890625 23.390625 
z
" id="BitstreamVeraSans-Roman-2d"/>
      </defs>
      <g transform="translate(59.2842768472 403.196875)scale(0.2 -0.2)">
       <use xlink:href="#BitstreamVeraSans-Roman-2d"/>
       <use x="36.083984375" xlink:href="#BitstreamVeraSans-Roman-36"/>
      </g>
     </g>
    </g>
    <g id="xtick_3">
     <g id="line2d_12">
      <path clip-path="url(#p6c2f642ccc)" d="M 135.652644 384 
L 135.652644 3 
" style="fill:none;stroke:#000000;stroke-dasharray:1.000000,3.000000;stroke-dashoffset:0.0;stroke-width:0.5;"/>
     </g>
     <g id="line2d_13">
      <g>
       <use style="stroke:#000000;stroke-width:0.5;" x="135.652644101" xlink:href="#mdfa3ac47cb" y="384.0"/>
      </g>
     </g>
     <g id="line2d_14">
      <g>
       <use style="stroke:#000000;stroke-width:0.5;" x="135.652644101" xlink:href="#m27c443bdd9" y="3.0"/>
      </g>
     </g>
     <g id="text_2">
      <!-- -4 -->
      <defs>
       <path d="M 37.796875 64.3125 
L 12.890625 25.390625 
L 37.796875 25.390625 
z
M 35.203125 72.90625 
L 47.609375 72.90625 
L 47.609375 25.390625 
L 58.015625 25.390625 
L 58.015625 17.1875 
L 47.609375 17.1875 
L 47.609375 0 
L 37.796875 0 
L 37.796875 17.1875 
L 4.890625 17.1875 
L 4.890625 26.703125 
z
" id="BitstreamVeraSans-Roman-34"/>
      </defs>
      <g transform="translate(125.682331601 403.196875)scale(0.2 -0.2)">
       <use xlink:href="#BitstreamVeraSans-Roman-2d"/>
       <use x="36.083984375" xlink:href="#BitstreamVeraSans-Roman-34"/>
      </g>
     </g>
    </g>
    <g id="xtick_4">
     <g id="line2d_15">
      <path clip-path="url(#p6c2f642ccc)" d="M 202.050699 384 
L 202.050699 3 
" style="fill:none;stroke:#000000;stroke-dasharray:1.000000,3.000000;stroke-dashoffset:0.0;stroke-width:0.5;"/>
     </g>
     <g id="line2d_16">
      <g>
       <use style="stroke:#000000;stroke-width:0.5;" x="202.050698855" xlink:href="#mdfa3ac47cb" y="384.0"/>
      </g>
     </g>
     <g id="line2d_17">
      <g>
       <use style="stroke:#000000;stroke-width:0.5;" x="202.050698855" xlink:href="#m27c443bdd9" y="3.0"/>
      </g>
     </g>
     <g id="text_3">
      <!-- -2 -->
      <defs>
       <path d="M 19.1875 8.296875 
L 53.609375 8.296875 
L 53.609375 0 
L 7.328125 0 
L 7.328125 8.296875 
Q 12.9375 14.109375 22.625 23.890625 
Q 32.328125 33.6875 34.8125 36.53125 
Q 39.546875 41.84375 41.421875 45.53125 
Q 43.3125 49.21875 43.3125 52.78125 
Q 43.3125 58.59375 39.234375 62.25 
Q 35.15625 65.921875 28.609375 65.921875 
Q 23.96875 65.921875 18.8125 64.3125 
Q 13.671875 62.703125 7.8125 59.421875 
L 7.8125 69.390625 
Q 13.765625 71.78125 18.9375 73 
Q 24.125 74.21875 28.421875 74.21875 
Q 39.75 74.21875 46.484375 68.546875 
Q 53.21875 62.890625 53.21875 53.421875 
Q 53.21875 48.921875 51.53125 44.890625 
Q 49.859375 40.875 45.40625 35.40625 
Q 44.1875 33.984375 37.640625 27.21875 
Q 31.109375 20.453125 19.1875 8.296875 
" id="BitstreamVeraSans-Roman-32"/>
      </defs>
      <g transform="translate(192.080386355 403.196875)scale(0.2 -0.2)">
       <use xlink:href="#BitstreamVeraSans-Roman-2d"/>
       <use x="36.083984375" xlink:href="#BitstreamVeraSans-Roman-32"/>
      </g>
     </g>
    </g>
    <g id="xtick_5">
     <g id="line2d_18">
      <path clip-path="url(#p6c2f642ccc)" d="M 268.448754 384 
L 268.448754 3 
" style="fill:none;stroke:#000000;stroke-dasharray:1.000000,3.000000;stroke-dashoffset:0.0;stroke-width:0.5;"/>
     </g>
     <g id="line2d_19">
      <g>
       <use style="stroke:#000000;stroke-width:0.5;" x="268.448753608" xlink:href="#mdfa3ac47cb" y="384.0"/>
      </g>
     </g>
     <g id="line2d_20">
      <g>
       <use style="stroke:#000000;stroke-width:0.5;" x="268.448753608" xlink:href="#m27c443bdd9" y="3.0"/>
      </g>
     </g>
     <g id="text_4">
      <!-- 0 -->
      <defs>
       <path d="M 31.78125 66.40625 
Q 24.171875 66.40625 20.328125 58.90625 
Q 16.5 51.421875 16.5 36.375 
Q 16.5 21.390625 20.328125 13.890625 
Q 24.171875 6.390625 31.78125 6.390625 
Q 39.453125 6.390625 43.28125 13.890625 
Q 47.125 21.390625 47.125 36.375 
Q 47.125 51.421875 43.28125 58.90625 
Q 39.453125 66.40625 31.78125 66.40625 
M 31.78125 74.21875 
Q 44.046875 74.21875 50.515625 64.515625 
Q 56.984375 54.828125 56.984375 36.375 
Q 56.984375 17.96875 50.515625 8.265625 
Q 44.046875 -1.421875 31.78125 -1.421875 
Q 19.53125 -1.421875 13.0625 8.265625 
Q 6.59375 17.96875 6.59375 36.375 
Q 6.59375 54.828125 13.0625 64.515625 
Q 19.53125 74.21875 31.78125 74.21875 
" id="BitstreamVeraSans-Roman-30"/>
      </defs>
      <g transform="translate(262.086253608 403.196875)scale(0.2 -0.2)">
       <use xlink:href="#BitstreamVeraSans-Roman-30"/>
      </g>
     </g>
    </g>
    <g id="xtick_6">
     <g id="line2d_21">
      <path clip-path="url(#p6c2f642ccc)" d="M 334.846808 384 
L 334.846808 3 
" style="fill:none;stroke:#000000;stroke-dasharray:1.000000,3.000000;stroke-dashoffset:0.0;stroke-width:0.5;"/>
     </g>
     <g id="line2d_22">
      <g>
       <use style="stroke:#000000;stroke-width:0.5;" x="334.846808362" xlink:href="#mdfa3ac47cb" y="384.0"/>
      </g>
     </g>
     <g id="line2d_23">
      <g>
       <use style="stroke:#000000;stroke-width:0.5;" x="334.846808362" xlink:href="#m27c443bdd9" y="3.0"/>
      </g>
     </g>
     <g id="text_5">
      <!-- 2 -->
      <g transform="translate(328.484308362 403.196875)scale(0.2 -0.2)">
       <use xlink:href="#BitstreamVeraSans-Roman-32"/>
      </g>
     </g>
    </g>
    <g id="xtick_7">
     <g id="line2d_24">
      <path clip-path="url(#p6c2f642ccc)" d="M 401.244863 384 
L 401.244863 3 
" style="fill:none;stroke:#000000;stroke-dasharray:1.000000,3.000000;stroke-dashoffset:0.0;stroke-width:0.5;"/>
     </g>
     <g id="line2d_25">
      <g>
       <use style="stroke:#000000;stroke-width:0.5;" x="401.244863116" xlink:href="#mdfa3ac47cb" y="384.0"/>
      </g>
     </g>
     <g id="line2d_26">
      <g>
       <use style="stroke:#000000;stroke-width:0.5;" x="401.244863116" xlink:href="#m27c443bdd9" y="3.0"/>
      </g>
     </g>
     <g id="text_6">
      <!-- 4 -->
      <g transform="translate(394.882363116 403.196875)scale(0.2 -0.2)">
       <use xlink:href="#BitstreamVeraSans-Roman-34"/>
      </g>
     </g>
    </g>
    <g id="xtick_8">
     <g id="line2d_27">
      <path clip-path="url(#p6c2f642ccc)" d="M 467.642918 384 
L 467.642918 3 
" style="fill:none;stroke:#000000;stroke-dasharray:1.000000,3.000000;stroke-dashoffset:0.0;stroke-width:0.5;"/>
     </g>
     <g id="line2d_28">
      <g>
       <use style="stroke:#000000;stroke-width:0.5;" x="467.642917869" xlink:href="#mdfa3ac47cb" y="384.0"/>
      </g>
     </g>
     <g id="line2d_29">
      <g>
       <use style="stroke:#000000;stroke-width:0.5;" x="467.642917869" xlink:href="#m27c443bdd9" y="3.0"/>
      </g>
     </g>
     <g id="text_7">
      <!-- 6 -->
      <g transform="translate(461.280417869 403.196875)scale(0.2 -0.2)">
       <use xlink:href="#BitstreamVeraSans-Roman-36"/>
      </g>
     </g>
    </g>
    <g id="xtick_9">
     <g id="line2d_30">
      <path clip-path="url(#p6c2f642ccc)" d="M 534.040973 384 
L 534.040973 3 
" style="fill:none;stroke:#000000;stroke-dasharray:1.000000,3.000000;stroke-dashoffset:0.0;stroke-width:0.5;"/>
     </g>
     <g id="line2d_31">
      <g>
       <use style="stroke:#000000;stroke-width:0.5;" x="534.040972623" xlink:href="#mdfa3ac47cb" y="384.0"/>
      </g>
     </g>
     <g id="line2d_32">
      <g>
       <use style="stroke:#000000;stroke-width:0.5;" x="534.040972623" xlink:href="#m27c443bdd9" y="3.0"/>
      </g>
     </g>
     <g id="text_8">
      <!-- 8 -->
      <defs>
       <path d="M 31.78125 34.625 
Q 24.75 34.625 20.71875 30.859375 
Q 16.703125 27.09375 16.703125 20.515625 
Q 16.703125 13.921875 20.71875 10.15625 
Q 24.75 6.390625 31.78125 6.390625 
Q 38.8125 6.390625 42.859375 10.171875 
Q 46.921875 13.96875 46.921875 20.515625 
Q 46.921875 27.09375 42.890625 30.859375 
Q 38.875 34.625 31.78125 34.625 
M 21.921875 38.8125 
Q 15.578125 40.375 12.03125 44.71875 
Q 8.5 49.078125 8.5 55.328125 
Q 8.5 64.0625 14.71875 69.140625 
Q 20.953125 74.21875 31.78125 74.21875 
Q 42.671875 74.21875 48.875 69.140625 
Q 55.078125 64.0625 55.078125 55.328125 
Q 55.078125 49.078125 51.53125 44.71875 
Q 48 40.375 41.703125 38.8125 
Q 48.828125 37.15625 52.796875 32.3125 
Q 56.78125 27.484375 56.78125 20.515625 
Q 56.78125 9.90625 50.3125 4.234375 
Q 43.84375 -1.421875 31.78125 -1.421875 
Q 19.734375 -1.421875 13.25 4.234375 
Q 6.78125 9.90625 6.78125 20.515625 
Q 6.78125 27.484375 10.78125 32.3125 
Q 14.796875 37.15625 21.921875 38.8125 
M 18.3125 54.390625 
Q 18.3125 48.734375 21.84375 45.5625 
Q 25.390625 42.390625 31.78125 42.390625 
Q 38.140625 42.390625 41.71875 45.5625 
Q 45.3125 48.734375 45.3125 54.390625 
Q 45.3125 60.0625 41.71875 63.234375 
Q 38.140625 66.40625 31.78125 66.40625 
Q 25.390625 66.40625 21.84375 63.234375 
Q 18.3125 60.0625 18.3125 54.390625 
" id="BitstreamVeraSans-Roman-38"/>
      </defs>
      <g transform="translate(527.678472623 403.196875)scale(0.2 -0.2)">
       <use xlink:href="#BitstreamVeraSans-Roman-38"/>
      </g>
     </g>
    </g>
    <g id="xtick_10"/>
    <g id="xtick_11">
     <g id="line2d_33">
      <defs>
       <path d="M 0 0 
L 0 -2 
" id="mae3e1e7206" style="stroke:#000000;stroke-width:0.5;"/>
      </defs>
      <g>
       <use style="stroke:#000000;stroke-width:0.5;" x="69.2545893472" xlink:href="#mae3e1e7206" y="384.0"/>
      </g>
     </g>
     <g id="line2d_34">
      <defs>
       <path d="M 0 0 
L 0 2 
" id="mf069352834" style="stroke:#000000;stroke-width:0.5;"/>
      </defs>
      <g>
       <use style="stroke:#000000;stroke-width:0.5;" x="69.2545893472" xlink:href="#mf069352834" y="3.0"/>
      </g>
     </g>
    </g>
    <g id="xtick_12">
     <g id="line2d_35">
      <g>
       <use style="stroke:#000000;stroke-width:0.5;" x="135.652644101" xlink:href="#mae3e1e7206" y="384.0"/>
      </g>
     </g>
     <g id="line2d_36">
      <g>
       <use style="stroke:#000000;stroke-width:0.5;" x="135.652644101" xlink:href="#mf069352834" y="3.0"/>
      </g>
     </g>
    </g>
    <g id="xtick_13">
     <g id="line2d_37">
      <g>
       <use style="stroke:#000000;stroke-width:0.5;" x="202.050698855" xlink:href="#mae3e1e7206" y="384.0"/>
      </g>
     </g>
     <g id="line2d_38">
      <g>
       <use style="stroke:#000000;stroke-width:0.5;" x="202.050698855" xlink:href="#mf069352834" y="3.0"/>
      </g>
     </g>
    </g>
    <g id="xtick_14">
     <g id="line2d_39">
      <g>
       <use style="stroke:#000000;stroke-width:0.5;" x="268.448753608" xlink:href="#mae3e1e7206" y="384.0"/>
      </g>
     </g>
     <g id="line2d_40">
      <g>
       <use style="stroke:#000000;stroke-width:0.5;" x="268.448753608" xlink:href="#mf069352834" y="3.0"/>
      </g>
     </g>
    </g>
    <g id="xtick_15">
     <g id="line2d_41">
      <g>
       <use style="stroke:#000000;stroke-width:0.5;" x="334.846808362" xlink:href="#mae3e1e7206" y="384.0"/>
      </g>
     </g>
     <g id="line2d_42">
      <g>
       <use style="stroke:#000000;stroke-width:0.5;" x="334.846808362" xlink:href="#mf069352834" y="3.0"/>
      </g>
     </g>
    </g>
    <g id="xtick_16">
     <g id="line2d_43">
      <g>
       <use style="stroke:#000000;stroke-width:0.5;" x="401.244863116" xlink:href="#mae3e1e7206" y="384.0"/>
      </g>
     </g>
     <g id="line2d_44">
      <g>
       <use style="stroke:#000000;stroke-width:0.5;" x="401.244863116" xlink:href="#mf069352834" y="3.0"/>
      </g>
     </g>
    </g>
    <g id="xtick_17">
     <g id="line2d_45">
      <g>
       <use style="stroke:#000000;stroke-width:0.5;" x="467.642917869" xlink:href="#mae3e1e7206" y="384.0"/>
      </g>
     </g>
     <g id="line2d_46">
      <g>
       <use style="stroke:#000000;stroke-width:0.5;" x="467.642917869" xlink:href="#mf069352834" y="3.0"/>
      </g>
     </g>
    </g>
    <g id="xtick_18">
     <g id="line2d_47">
      <g>
       <use style="stroke:#000000;stroke-width:0.5;" x="534.040972623" xlink:href="#mae3e1e7206" y="384.0"/>
      </g>
     </g>
     <g id="line2d_48">
      <g>
       <use style="stroke:#000000;stroke-width:0.5;" x="534.040972623" xlink:href="#mf069352834" y="3.0"/>
      </g>
     </g>
    </g>
    <g id="text_9">
     <!-- log10 of Df -->
     <defs>
      <path id="BitstreamVeraSans-Roman-20"/>
      <path d="M 12.40625 8.296875 
L 28.515625 8.296875 
L 28.515625 63.921875 
L 10.984375 60.40625 
L 10.984375 69.390625 
L 28.421875 72.90625 
L 38.28125 72.90625 
L 38.28125 8.296875 
L 54.390625 8.296875 
L 54.390625 0 
L 12.40625 0 
z
" id="BitstreamVeraSans-Roman-31"/>
      <path d="M 30.609375 48.390625 
Q 23.390625 48.390625 19.1875 42.75 
Q 14.984375 37.109375 14.984375 27.296875 
Q 14.984375 17.484375 19.15625 11.84375 
Q 23.34375 6.203125 30.609375 6.203125 
Q 37.796875 6.203125 41.984375 11.859375 
Q 46.1875 17.53125 46.1875 27.296875 
Q 46.1875 37.015625 41.984375 42.703125 
Q 37.796875 48.390625 30.609375 48.390625 
M 30.609375 56 
Q 42.328125 56 49.015625 48.375 
Q 55.71875 40.765625 55.71875 27.296875 
Q 55.71875 13.875 49.015625 6.21875 
Q 42.328125 -1.421875 30.609375 -1.421875 
Q 18.84375 -1.421875 12.171875 6.21875 
Q 5.515625 13.875 5.515625 27.296875 
Q 5.515625 40.765625 12.171875 48.375 
Q 18.84375 56 30.609375 56 
" id="BitstreamVeraSans-Roman-6f"/>
      <path d="M 9.421875 75.984375 
L 18.40625 75.984375 
L 18.40625 0 
L 9.421875 0 
z
" id="BitstreamVeraSans-Roman-6c"/>
      <path d="M 19.671875 64.796875 
L 19.671875 8.109375 
L 31.59375 8.109375 
Q 46.6875 8.109375 53.6875 14.9375 
Q 60.6875 21.78125 60.6875 36.53125 
Q 60.6875 51.171875 53.6875 57.984375 
Q 46.6875 64.796875 31.59375 64.796875 
z
M 9.8125 72.90625 
L 30.078125 72.90625 
Q 51.265625 72.90625 61.171875 64.09375 
Q 71.09375 55.28125 71.09375 36.53125 
Q 71.09375 17.671875 61.125 8.828125 
Q 51.171875 0 30.078125 0 
L 9.8125 0 
z
" id="BitstreamVeraSans-Roman-44"/>
      <path d="M 45.40625 27.984375 
Q 45.40625 37.75 41.375 43.109375 
Q 37.359375 48.484375 30.078125 48.484375 
Q 22.859375 48.484375 18.828125 43.109375 
Q 14.796875 37.75 14.796875 27.984375 
Q 14.796875 18.265625 18.828125 12.890625 
Q 22.859375 7.515625 30.078125 7.515625 
Q 37.359375 7.515625 41.375 12.890625 
Q 45.40625 18.265625 45.40625 27.984375 
M 54.390625 6.78125 
Q 54.390625 -7.171875 48.1875 -13.984375 
Q 42 -20.796875 29.203125 -20.796875 
Q 24.46875 -20.796875 20.265625 -20.09375 
Q 16.0625 -19.390625 12.109375 -17.921875 
L 12.109375 -9.1875 
Q 16.0625 -11.328125 19.921875 -12.34375 
Q 23.78125 -13.375 27.78125 -13.375 
Q 36.625 -13.375 41.015625 -8.765625 
Q 45.40625 -4.15625 45.40625 5.171875 
L 45.40625 9.625 
Q 42.625 4.78125 38.28125 2.390625 
Q 33.9375 0 27.875 0 
Q 17.828125 0 11.671875 7.65625 
Q 5.515625 15.328125 5.515625 27.984375 
Q 5.515625 40.671875 11.671875 48.328125 
Q 17.828125 56 27.875 56 
Q 33.9375 56 38.28125 53.609375 
Q 42.625 51.21875 45.40625 46.390625 
L 45.40625 54.6875 
L 54.390625 54.6875 
z
" id="BitstreamVeraSans-Roman-67"/>
      <path d="M 37.109375 75.984375 
L 37.109375 68.5 
L 28.515625 68.5 
Q 23.6875 68.5 21.796875 66.546875 
Q 19.921875 64.59375 19.921875 59.515625 
L 19.921875 54.6875 
L 34.71875 54.6875 
L 34.71875 47.703125 
L 19.921875 47.703125 
L 19.921875 0 
L 10.890625 0 
L 10.890625 47.703125 
L 2.296875 47.703125 
L 2.296875 54.6875 
L 10.890625 54.6875 
L 10.890625 58.5 
Q 10.890625 67.625 15.140625 71.796875 
Q 19.390625 75.984375 28.609375 75.984375 
z
" id="BitstreamVeraSans-Roman-66"/>
     </defs>
     <g transform="translate(229.9340625 427.553125)scale(0.2 -0.2)">
      <use xlink:href="#BitstreamVeraSans-Roman-6c"/>
      <use x="27.783203125" xlink:href="#BitstreamVeraSans-Roman-6f"/>
      <use x="88.96484375" xlink:href="#BitstreamVeraSans-Roman-67"/>
      <use x="152.44140625" xlink:href="#BitstreamVeraSans-Roman-31"/>
      <use x="216.064453125" xlink:href="#BitstreamVeraSans-Roman-30"/>
      <use x="279.6875" xlink:href="#BitstreamVeraSans-Roman-20"/>
      <use x="311.474609375" xlink:href="#BitstreamVeraSans-Roman-6f"/>
      <use x="372.65625" xlink:href="#BitstreamVeraSans-Roman-66"/>
      <use x="407.861328125" xlink:href="#BitstreamVeraSans-Roman-20"/>
      <use x="439.6484375" xlink:href="#BitstreamVeraSans-Roman-44"/>
      <use x="516.650390625" xlink:href="#BitstreamVeraSans-Roman-66"/>
     </g>
    </g>
   </g>
   <g id="matplotlib.axis_2">
    <g id="ytick_1">
     <g id="line2d_49">
      <path clip-path="url(#p6c2f642ccc)" d="M 3 384 
L 567.24 384 
" style="fill:none;stroke:#000000;stroke-dasharray:1.000000,3.000000;stroke-dashoffset:0.0;stroke-width:0.5;"/>
     </g>
     <g id="line2d_50">
      <defs>
       <path d="M 0 0 
L 4 0 
" id="m540f8dcb03" style="stroke:#000000;stroke-width:0.5;"/>
      </defs>
      <g>
       <use style="stroke:#000000;stroke-width:0.5;" x="3.0" xlink:href="#m540f8dcb03" y="384.0"/>
      </g>
     </g>
     <g id="line2d_51">
      <defs>
       <path d="M 0 0 
L -4 0 
" id="m671e34fba5" style="stroke:#000000;stroke-width:0.5;"/>
      </defs>
      <g>
       <use style="stroke:#000000;stroke-width:0.5;" x="567.24" xlink:href="#m671e34fba5" y="384.0"/>
      </g>
     </g>
    </g>
    <g id="ytick_2">
     <g id="line2d_52">
      <path clip-path="url(#p6c2f642ccc)" d="M 3 308.554455 
L 567.24 308.554455 
" style="fill:none;stroke:#000000;stroke-dasharray:1.000000,3.000000;stroke-dashoffset:0.0;stroke-width:0.5;"/>
     </g>
     <g id="line2d_53">
      <g>
       <use style="stroke:#000000;stroke-width:0.5;" x="3.0" xlink:href="#m540f8dcb03" y="308.554455446"/>
      </g>
     </g>
     <g id="line2d_54">
      <g>
       <use style="stroke:#000000;stroke-width:0.5;" x="567.24" xlink:href="#m671e34fba5" y="308.554455446"/>
      </g>
     </g>
    </g>
    <g id="ytick_3">
     <g id="line2d_55">
      <path clip-path="url(#p6c2f642ccc)" d="M 3 233.108911 
L 567.24 233.108911 
" style="fill:none;stroke:#000000;stroke-dasharray:1.000000,3.000000;stroke-dashoffset:0.0;stroke-width:0.5;"/>
     </g>
     <g id="line2d_56">
      <g>
       <use style="stroke:#000000;stroke-width:0.5;" x="3.0" xlink:href="#m540f8dcb03" y="233.108910891"/>
      </g>
     </g>
     <g id="line2d_57">
      <g>
       <use style="stroke:#000000;stroke-width:0.5;" x="567.24" xlink:href="#m671e34fba5" y="233.108910891"/>
      </g>
     </g>
    </g>
    <g id="ytick_4">
     <g id="line2d_58">
      <path clip-path="url(#p6c2f642ccc)" d="M 3 157.663366 
L 567.24 157.663366 
" style="fill:none;stroke:#000000;stroke-dasharray:1.000000,3.000000;stroke-dashoffset:0.0;stroke-width:0.5;"/>
     </g>
     <g id="line2d_59">
      <g>
       <use style="stroke:#000000;stroke-width:0.5;" x="3.0" xlink:href="#m540f8dcb03" y="157.663366337"/>
      </g>
     </g>
     <g id="line2d_60">
      <g>
       <use style="stroke:#000000;stroke-width:0.5;" x="567.24" xlink:href="#m671e34fba5" y="157.663366337"/>
      </g>
     </g>
    </g>
    <g id="ytick_5">
     <g id="line2d_61">
      <path clip-path="url(#p6c2f642ccc)" d="M 3 82.217822 
L 567.24 82.217822 
" style="fill:none;stroke:#000000;stroke-dasharray:1.000000,3.000000;stroke-dashoffset:0.0;stroke-width:0.5;"/>
     </g>
     <g id="line2d_62">
      <g>
       <use style="stroke:#000000;stroke-width:0.5;" x="3.0" xlink:href="#m540f8dcb03" y="82.2178217822"/>
      </g>
     </g>
     <g id="line2d_63">
      <g>
       <use style="stroke:#000000;stroke-width:0.5;" x="567.24" xlink:href="#m671e34fba5" y="82.2178217822"/>
      </g>
     </g>
    </g>
    <g id="ytick_6">
     <g id="line2d_64">
      <path clip-path="url(#p6c2f642ccc)" d="M 3 6.772277 
L 567.24 6.772277 
" style="fill:none;stroke:#000000;stroke-dasharray:1.000000,3.000000;stroke-dashoffset:0.0;stroke-width:0.5;"/>
     </g>
     <g id="line2d_65">
      <g>
       <use style="stroke:#000000;stroke-width:0.5;" x="3.0" xlink:href="#m540f8dcb03" y="6.77227722772"/>
      </g>
     </g>
     <g id="line2d_66">
      <g>
       <use style="stroke:#000000;stroke-width:0.5;" x="567.24" xlink:href="#m671e34fba5" y="6.77227722772"/>
      </g>
     </g>
    </g>
   </g>
   <g id="text_10">
    <!-- {f20-f24}, 5-D -->
    <defs>
     <path d="M 12.5 -9.28125 
L 15.921875 -9.28125 
Q 22.75 -9.28125 24.828125 -7.171875 
Q 26.90625 -5.078125 26.90625 1.90625 
L 26.90625 14.015625 
Q 26.90625 21.625 29.09375 25.09375 
Q 31.296875 28.5625 36.71875 29.890625 
Q 31.296875 31.109375 29.09375 34.5625 
Q 26.90625 38.03125 26.90625 45.703125 
L 26.90625 57.8125 
Q 26.90625 64.75 24.828125 66.875 
Q 22.75 69 15.921875 69 
L 12.5 69 
L 12.5 75.984375 
L 15.578125 75.984375 
Q 27.734375 75.984375 31.8125 72.390625 
Q 35.890625 68.796875 35.890625 58.015625 
L 35.890625 46.296875 
Q 35.890625 39.015625 38.515625 36.203125 
Q 41.15625 33.40625 48.09375 33.40625 
L 51.125 33.40625 
L 51.125 26.421875 
L 48.09375 26.421875 
Q 41.15625 26.421875 38.515625 23.578125 
Q 35.890625 20.75 35.890625 13.375 
L 35.890625 1.703125 
Q 35.890625 -9.078125 31.8125 -12.6875 
Q 27.734375 -16.3125 15.578125 -16.3125 
L 12.5 -16.3125 
z
" id="BitstreamVeraSans-Roman-7d"/>
     <path d="M 51.125 -9.28125 
L 51.125 -16.3125 
L 48.09375 -16.3125 
Q 35.9375 -16.3125 31.8125 -12.6875 
Q 27.6875 -9.078125 27.6875 1.703125 
L 27.6875 13.375 
Q 27.6875 20.75 25.046875 23.578125 
Q 22.40625 26.421875 15.484375 26.421875 
L 12.5 26.421875 
L 12.5 33.40625 
L 15.484375 33.40625 
Q 22.46875 33.40625 25.078125 36.203125 
Q 27.6875 39.015625 27.6875 46.296875 
L 27.6875 58.015625 
Q 27.6875 68.796875 31.8125 72.390625 
Q 35.9375 75.984375 48.09375 75.984375 
L 51.125 75.984375 
L 51.125 69 
L 47.796875 69 
Q 40.921875 69 38.8125 66.84375 
Q 36.71875 64.703125 36.71875 57.8125 
L 36.71875 45.703125 
Q 36.71875 38.03125 34.5 34.5625 
Q 32.28125 31.109375 26.90625 29.890625 
Q 32.328125 28.5625 34.515625 25.09375 
Q 36.71875 21.625 36.71875 14.015625 
L 36.71875 1.90625 
Q 36.71875 -4.984375 38.8125 -7.125 
Q 40.921875 -9.28125 47.796875 -9.28125 
z
" id="BitstreamVeraSans-Roman-7b"/>
     <path d="M 11.71875 12.40625 
L 22.015625 12.40625 
L 22.015625 4 
L 14.015625 -11.625 
L 7.71875 -11.625 
L 11.71875 4 
z
" id="BitstreamVeraSans-Roman-2c"/>
     <path d="M 10.796875 72.90625 
L 49.515625 72.90625 
L 49.515625 64.59375 
L 19.828125 64.59375 
L 19.828125 46.734375 
Q 21.96875 47.46875 24.109375 47.828125 
Q 26.265625 48.1875 28.421875 48.1875 
Q 40.625 48.1875 47.75 41.5 
Q 54.890625 34.8125 54.890625 23.390625 
Q 54.890625 11.625 47.5625 5.09375 
Q 40.234375 -1.421875 26.90625 -1.421875 
Q 22.3125 -1.421875 17.546875 -0.640625 
Q 12.796875 0.140625 7.71875 1.703125 
L 7.71875 11.625 
Q 12.109375 9.234375 16.796875 8.0625 
Q 21.484375 6.890625 26.703125 6.890625 
Q 35.15625 6.890625 40.078125 11.328125 
Q 45.015625 15.765625 45.015625 23.390625 
Q 45.015625 31 40.078125 35.4375 
Q 35.15625 39.890625 26.703125 39.890625 
Q 22.75 39.890625 18.8125 39.015625 
Q 14.890625 38.140625 10.796875 36.28125 
z
" id="BitstreamVeraSans-Roman-35"/>
    </defs>
    <g transform="translate(410.2552 376.38)scale(0.2 -0.2)">
     <use xlink:href="#BitstreamVeraSans-Roman-7b"/>
     <use x="63.623046875" xlink:href="#BitstreamVeraSans-Roman-66"/>
     <use x="98.828125" xlink:href="#BitstreamVeraSans-Roman-32"/>
     <use x="162.451171875" xlink:href="#BitstreamVeraSans-Roman-30"/>
     <use x="226.07421875" xlink:href="#BitstreamVeraSans-Roman-2d"/>
     <use x="262.158203125" xlink:href="#BitstreamVeraSans-Roman-66"/>
     <use x="297.36328125" xlink:href="#BitstreamVeraSans-Roman-32"/>
     <use x="360.986328125" xlink:href="#BitstreamVeraSans-Roman-34"/>
     <use x="424.609375" xlink:href="#BitstreamVeraSans-Roman-7d"/>
     <use x="488.232421875" xlink:href="#BitstreamVeraSans-Roman-2c"/>
     <use x="520.01953125" xlink:href="#BitstreamVeraSans-Roman-20"/>
     <use x="551.806640625" xlink:href="#BitstreamVeraSans-Roman-35"/>
     <use x="615.4296875" xlink:href="#BitstreamVeraSans-Roman-2d"/>
     <use x="651.513671875" xlink:href="#BitstreamVeraSans-Roman-44"/>
    </g>
   </g>
   <g id="text_11">
    <!-- v2.2.1.10 -->
    <defs>
     <path d="M 2.984375 54.6875 
L 12.5 54.6875 
L 29.59375 8.796875 
L 46.6875 54.6875 
L 56.203125 54.6875 
L 35.6875 0 
L 23.484375 0 
z
" id="BitstreamVeraSans-Roman-76"/>
     <path d="M 10.6875 12.40625 
L 21 12.40625 
L 21 0 
L 10.6875 0 
z
" id="BitstreamVeraSans-Roman-2e"/>
    </defs>
    <g style="fill:#808080;" transform="translate(261.4871875 378.1103125)scale(0.1 -0.1)">
     <use xlink:href="#BitstreamVeraSans-Roman-76"/>
     <use x="59.1796875" xlink:href="#BitstreamVeraSans-Roman-32"/>
     <use x="122.802734375" xlink:href="#BitstreamVeraSans-Roman-2e"/>
     <use x="154.58984375" xlink:href="#BitstreamVeraSans-Roman-32"/>
     <use x="218.212890625" xlink:href="#BitstreamVeraSans-Roman-2e"/>
     <use x="250.0" xlink:href="#BitstreamVeraSans-Roman-31"/>
     <use x="313.623046875" xlink:href="#BitstreamVeraSans-Roman-2e"/>
     <use x="345.41015625" xlink:href="#BitstreamVeraSans-Roman-31"/>
     <use x="409.033203125" xlink:href="#BitstreamVeraSans-Roman-30"/>
    </g>
   </g>
  </g>
 </g>
 <defs>
  <clipPath id="p6c2f642ccc">
   <rect height="381.0" width="564.24" x="3.0" y="3.0"/>
  </clipPath>
 </defs>
</svg>
