<?xml version="1.0" encoding="utf-8" standalone="no"?>
<!DOCTYPE svg PUBLIC "-//W3C//DTD SVG 1.1//EN"
  "http://www.w3.org/Graphics/SVG/1.1/DTD/svg11.dtd">
<!-- Created with matplotlib (http://matplotlib.org/) -->
<svg height="432pt" version="1.1" viewBox="0 0 576 432" width="576pt" xmlns="http://www.w3.org/2000/svg" xmlns:xlink="http://www.w3.org/1999/xlink">
 <defs>
  <style type="text/css">
*{stroke-linecap:butt;stroke-linejoin:round;stroke-miterlimit:100000;}
  </style>
 </defs>
 <g id="figure_1">
  <g id="patch_1">
   <path d="M 0 432 
L 576 432 
L 576 0 
L 0 0 
z
" style="fill:#ffffff;"/>
  </g>
  <g id="axes_1">
   <g id="patch_2">
    <path d="M 3 384 
L 567.24 384 
L 567.24 3 
L 3 3 
z
" style="fill:#ffffff;"/>
   </g>
   <g id="line2d_1">
    <path clip-path="url(#p66e82541b3)" d="M -1 308.554455 
L 2.856535 308.554455 
L 2.856535 233.108911 
L 352.530945 233.108911 
L 352.530945 228.079208 
L 352.995071 228.079208 
L 352.995071 223.049505 
L 353.848741 223.049505 
L 353.848741 218.019802 
L 354.12625 218.019802 
L 354.186091 207.960396 
L 354.27395 207.960396 
L 354.383911 192.871287 
L 354.749678 192.871287 
L 354.78486 182.811881 
L 355.062131 182.811881 
L 355.062131 177.782178 
L 355.329412 177.782178 
L 355.329412 172.752475 
L 355.464707 172.752475 
L 355.564239 162.693069 
L 355.862605 162.693069 
L 355.862605 157.663366 
L 357.375088 157.663366 
L 357.375088 152.633663 
L 358.493875 152.633663 
L 358.572142 142.574257 
L 358.681118 142.574257 
L 358.681118 137.544554 
L 358.996193 137.544554 
L 359.010725 127.485149 
L 359.483772 127.485149 
L 359.483772 122.455446 
L 360.766915 122.455446 
L 360.766915 117.425743 
L 361.118323 117.425743 
L 361.118323 112.39604 
L 361.580001 112.39604 
L 361.689781 97.306931 
L 361.750061 97.306931 
L 361.750061 92.277228 
L 361.980133 92.277228 
L 361.980133 87.247525 
L 362.592561 87.247525 
L 362.592561 82.217822 
L 437.907961 82.217822 
L 437.907961 77.188119 
L 439.280568 77.188119 
L 439.280568 72.158416 
L 440.805838 72.158416 
L 440.805838 67.128713 
L 441.402742 67.128713 
L 441.402742 62.09901 
L 444.515687 62.09901 
L 444.515687 57.069307 
L 444.763556 57.069307 
L 444.763556 52.039604 
L 445.130869 52.039604 
L 445.130869 47.009901 
L 445.246834 47.009901 
L 445.246834 41.980198 
L 447.188557 41.980198 
L 447.268865 31.920792 
L 447.320785 31.920792 
L 447.320785 26.891089 
L 449.775414 26.891089 
L 449.775414 21.861386 
L 450.580225 21.861386 
L 450.649896 11.80198 
L 450.756581 11.80198 
L 450.756581 6.772277 
L 450.756581 6.772277 
L 567.24 6.772277 
L 567.24 6.772277 
" style="fill:none;stroke:#ff0000;stroke-linecap:square;stroke-width:3.0;"/>
   </g>
   <g id="line2d_2">
    <path clip-path="url(#p66e82541b3)" d="M 330.105184 384 
L 330.105184 378.970297 
L 333.016335 378.970297 
L 333.016335 373.940594 
L 333.291263 373.940594 
L 333.291263 368.910891 
L 333.68288 368.910891 
L 333.68288 363.881188 
L 334.376709 363.881188 
L 334.474759 353.821782 
L 334.719609 353.821782 
L 334.719609 348.792079 
L 334.882974 348.792079 
L 334.882974 343.762376 
L 335.962562 343.762376 
L 335.962562 338.732673 
L 336.175534 338.732673 
L 336.175534 333.70297 
L 337.851133 333.70297 
L 337.851133 328.673267 
L 338.418127 328.673267 
L 338.418127 323.643564 
L 338.591102 323.643564 
L 338.591102 318.613861 
L 338.920465 318.613861 
L 338.920465 313.584158 
L 340.368478 313.584158 
L 340.368478 308.554455 
L 347.190423 308.554455 
L 347.190423 303.524752 
L 349.754221 303.524752 
L 349.830638 288.435644 
L 350.098079 288.435644 
L 350.098079 283.405941 
L 350.233009 283.405941 
L 350.233009 278.376238 
L 350.784691 278.376238 
L 350.784691 273.346535 
L 351.298268 273.346535 
L 351.337652 263.287129 
L 351.55271 263.287129 
L 351.55271 258.257426 
L 351.895863 258.257426 
L 351.895863 253.227723 
L 352.39746 253.227723 
L 352.39746 248.19802 
L 352.575022 248.19802 
L 352.575022 243.168317 
L 352.699725 243.168317 
L 352.699725 238.138614 
L 353.053786 238.138614 
L 353.053786 233.108911 
L 357.875456 233.108911 
L 357.875456 228.079208 
L 358.729914 228.079208 
L 358.837526 212.990099 
L 359.351849 212.990099 
L 359.351849 207.960396 
L 359.975892 207.960396 
L 359.975892 202.930693 
L 360.768416 202.930693 
L 360.768416 197.90099 
L 361.106914 197.90099 
L 361.106914 192.871287 
L 361.375719 192.871287 
L 361.472143 182.811881 
L 361.604403 182.811881 
L 361.689781 172.752475 
L 361.720621 172.752475 
L 361.720621 167.722772 
L 362.382081 167.722772 
L 362.382081 162.693069 
L 362.775431 162.693069 
L 362.776513 152.633663 
L 362.980271 152.633663 
L 362.980271 147.60396 
L 363.18551 147.60396 
L 363.204896 137.544554 
L 363.349963 137.544554 
L 363.349963 132.514851 
L 363.67483 132.514851 
L 363.67483 127.485149 
L 364.17046 127.485149 
L 364.17046 122.455446 
L 364.459088 122.455446 
L 364.459088 117.425743 
L 365.078302 117.425743 
L 365.078302 112.39604 
L 365.259344 112.39604 
L 365.259344 107.366337 
L 366.279614 107.366337 
L 366.279614 102.336634 
L 366.724345 102.336634 
L 366.778655 87.247525 
L 367.303724 87.247525 
L 367.303724 82.217822 
L 480.257057 82.217822 
L 480.257057 77.188119 
L 487.49364 77.188119 
L 487.49364 72.158416 
L 487.811401 72.158416 
L 487.811401 67.128713 
L 490.353316 67.128713 
L 490.353316 62.09901 
L 490.704682 62.09901 
L 490.704682 57.069307 
L 492.019987 57.069307 
L 492.019987 52.039604 
L 493.016142 52.039604 
L 493.016142 47.009901 
L 496.689358 47.009901 
L 496.689358 41.980198 
L 497.150942 41.980198 
L 497.150942 36.950495 
L 501.839539 36.950495 
L 501.839539 31.920792 
L 502.228509 31.920792 
L 502.228509 26.891089 
L 503.706523 26.891089 
L 503.706523 21.861386 
L 504.062999 21.861386 
L 504.062999 16.831683 
L 505.224509 16.831683 
L 505.224509 11.80198 
L 506.48139 11.80198 
L 506.48139 6.772277 
L 506.48139 6.772277 
L 567.24 6.772277 
L 567.24 6.772277 
" style="fill:none;stroke:#00bfbf;stroke-linecap:square;"/>
   </g>
   <g id="line2d_3">
    <path clip-path="url(#p66e82541b3)" d="M 330.105184 384 
L 330.105184 378.970297 
L 333.016335 378.970297 
L 333.016335 373.940594 
L 333.291263 373.940594 
L 333.291263 368.910891 
L 333.68288 368.910891 
L 333.68288 363.881188 
L 334.376709 363.881188 
L 334.474759 353.821782 
L 334.719609 353.821782 
L 334.719609 348.792079 
L 334.882974 348.792079 
L 334.882974 343.762376 
L 335.962562 343.762376 
L 335.962562 338.732673 
L 336.175534 338.732673 
L 336.175534 333.70297 
L 337.851133 333.70297 
L 337.851133 328.673267 
L 338.418127 328.673267 
L 338.418127 323.643564 
L 338.591102 323.643564 
L 338.591102 318.613861 
L 338.920465 318.613861 
L 338.920465 313.584158 
L 340.368478 313.584158 
L 340.368478 308.554455 
L 347.190423 308.554455 
L 347.190423 303.524752 
L 348.333644 303.524752 
L 348.333644 298.49505 
L 348.655734 298.49505 
L 348.655734 293.465347 
L 349.804336 293.465347 
L 349.830638 278.376238 
L 349.945918 278.376238 
L 349.945918 273.346535 
L 350.233009 273.346535 
L 350.233009 268.316832 
L 350.784691 268.316832 
L 350.784691 263.287129 
L 351.063317 263.287129 
L 351.068977 253.227723 
L 351.298268 253.227723 
L 351.298268 248.19802 
L 351.470721 248.19802 
L 351.470721 243.168317 
L 351.765871 243.168317 
L 351.765871 238.138614 
L 352.575022 238.138614 
L 352.575022 233.108911 
L 357.875456 233.108911 
L 357.875456 228.079208 
L 358.729914 228.079208 
L 358.837526 212.990099 
L 359.351849 212.990099 
L 359.351849 207.960396 
L 359.826772 207.960396 
L 359.826772 202.930693 
L 359.975892 202.930693 
L 359.975892 197.90099 
L 360.768416 197.90099 
L 360.768416 192.871287 
L 361.106914 192.871287 
L 361.106914 187.841584 
L 361.375719 187.841584 
L 361.472143 177.782178 
L 361.604403 177.782178 
L 361.689781 167.722772 
L 361.720621 167.722772 
L 361.720621 162.693069 
L 362.382081 162.693069 
L 362.382081 157.663366 
L 362.775431 157.663366 
L 362.776513 147.60396 
L 362.980271 147.60396 
L 362.980271 142.574257 
L 363.18551 142.574257 
L 363.18551 137.544554 
L 363.349963 137.544554 
L 363.349963 132.514851 
L 363.67483 132.514851 
L 363.67483 127.485149 
L 364.17046 127.485149 
L 364.17046 122.455446 
L 364.459088 122.455446 
L 364.459088 117.425743 
L 365.078302 117.425743 
L 365.078302 112.39604 
L 365.259344 112.39604 
L 365.259344 107.366337 
L 366.279614 107.366337 
L 366.279614 102.336634 
L 366.724345 102.336634 
L 366.778655 87.247525 
L 367.303724 87.247525 
L 367.303724 82.217822 
L 476.957261 82.217822 
L 476.957261 77.188119 
L 477.146878 77.188119 
L 477.146878 72.158416 
L 480.257057 72.158416 
L 480.257057 67.128713 
L 487.40865 67.128713 
L 487.40865 62.09901 
L 487.811401 62.09901 
L 487.811401 57.069307 
L 490.704682 57.069307 
L 490.704682 52.039604 
L 492.019987 52.039604 
L 492.019987 47.009901 
L 493.016142 47.009901 
L 493.016142 41.980198 
L 494.449438 41.980198 
L 494.449438 36.950495 
L 496.689358 36.950495 
L 496.689358 31.920792 
L 497.150942 31.920792 
L 497.150942 26.891089 
L 498.527319 26.891089 
L 498.527319 21.861386 
L 502.228509 21.861386 
L 502.228509 16.831683 
L 504.062999 16.831683 
L 504.062999 11.80198 
L 506.48139 11.80198 
L 506.48139 6.772277 
L 506.48139 6.772277 
L 567.24 6.772277 
L 567.24 6.772277 
" style="fill:none;stroke:#bf00bf;stroke-linecap:square;"/>
   </g>
   <g id="line2d_4">
    <path clip-path="url(#p66e82541b3)" d="M 330.105184 384 
L 330.105184 378.970297 
L 332.542312 378.970297 
L 332.542312 373.940594 
L 332.84947 373.940594 
L 332.84947 368.910891 
L 333.016335 368.910891 
L 333.016335 363.881188 
L 333.291263 363.881188 
L 333.291263 358.851485 
L 333.68288 358.851485 
L 333.68288 353.821782 
L 334.008787 353.821782 
L 334.008787 348.792079 
L 334.234967 348.792079 
L 334.234967 343.762376 
L 334.376709 343.762376 
L 334.474759 333.70297 
L 334.719609 333.70297 
L 334.719609 328.673267 
L 334.882974 328.673267 
L 334.882974 323.643564 
L 335.962562 323.643564 
L 335.962562 318.613861 
L 336.175534 318.613861 
L 336.175534 313.584158 
L 336.764318 313.584158 
L 336.764318 308.554455 
L 336.921365 308.554455 
L 336.921365 303.524752 
L 337.1568 303.524752 
L 337.1568 298.49505 
L 337.851133 298.49505 
L 337.851133 293.465347 
L 338.418127 293.465347 
L 338.469262 283.405941 
L 338.591102 283.405941 
L 338.591102 278.376238 
L 338.760057 278.376238 
L 338.760057 273.346535 
L 338.920465 273.346535 
L 338.920465 268.316832 
L 339.296048 268.316832 
L 339.342921 258.257426 
L 340.368478 258.257426 
L 340.368478 253.227723 
L 340.678611 253.227723 
L 340.781033 243.168317 
L 340.813727 243.168317 
L 340.813727 238.138614 
L 342.38479 238.138614 
L 342.38479 233.108911 
L 357.875456 233.108911 
L 357.875456 228.079208 
L 358.729914 228.079208 
L 358.837526 212.990099 
L 359.351849 212.990099 
L 359.351849 207.960396 
L 359.826772 207.960396 
L 359.826772 202.930693 
L 359.975892 202.930693 
L 359.975892 197.90099 
L 360.768416 197.90099 
L 360.768416 192.871287 
L 361.106914 192.871287 
L 361.106914 187.841584 
L 361.375719 187.841584 
L 361.472143 177.782178 
L 361.604403 177.782178 
L 361.689781 167.722772 
L 361.720621 167.722772 
L 361.720621 162.693069 
L 362.382081 162.693069 
L 362.382081 157.663366 
L 362.775431 157.663366 
L 362.776513 147.60396 
L 362.980271 147.60396 
L 362.980271 142.574257 
L 363.18551 142.574257 
L 363.18551 137.544554 
L 363.349963 137.544554 
L 363.349963 132.514851 
L 363.67483 132.514851 
L 363.67483 127.485149 
L 364.17046 127.485149 
L 364.17046 122.455446 
L 364.459088 122.455446 
L 364.459088 117.425743 
L 365.078302 117.425743 
L 365.078302 112.39604 
L 365.259344 112.39604 
L 365.259344 107.366337 
L 366.279614 107.366337 
L 366.279614 102.336634 
L 366.724345 102.336634 
L 366.778655 87.247525 
L 367.303724 87.247525 
L 367.303724 82.217822 
L 476.957261 82.217822 
L 476.957261 77.188119 
L 477.146878 77.188119 
L 477.146878 72.158416 
L 480.257057 72.158416 
L 480.257057 67.128713 
L 487.40865 67.128713 
L 487.40865 62.09901 
L 487.811401 62.09901 
L 487.811401 57.069307 
L 490.704682 57.069307 
L 490.704682 52.039604 
L 492.019987 52.039604 
L 492.019987 47.009901 
L 493.016142 47.009901 
L 493.016142 41.980198 
L 494.449438 41.980198 
L 494.449438 36.950495 
L 496.689358 36.950495 
L 496.689358 31.920792 
L 497.150942 31.920792 
L 497.150942 26.891089 
L 498.527319 26.891089 
L 498.527319 21.861386 
L 502.228509 21.861386 
L 502.228509 16.831683 
L 504.062999 16.831683 
L 504.062999 11.80198 
L 506.48139 11.80198 
L 506.48139 6.772277 
L 506.48139 6.772277 
L 567.24 6.772277 
L 567.24 6.772277 
" style="fill:none;stroke:#000000;stroke-linecap:square;"/>
   </g>
   <g id="line2d_5">
    <path clip-path="url(#p66e82541b3)" d="M -1 333.70297 
L 85.329351 333.70297 
L 85.329351 328.673267 
L 85.780613 328.673267 
L 85.780613 323.643564 
L 85.985794 323.643564 
L 85.985794 318.613861 
L 86.147668 318.613861 
L 86.147668 313.584158 
L 88.814974 313.584158 
L 88.814974 308.554455 
L 319.042056 308.554455 
L 319.042056 303.524752 
L 322.711186 303.524752 
L 322.711186 298.49505 
L 331.636768 298.49505 
L 331.636768 293.465347 
L 332.542312 293.465347 
L 332.542312 288.435644 
L 332.84947 288.435644 
L 332.84947 283.405941 
L 334.008787 283.405941 
L 334.008787 278.376238 
L 334.650361 278.376238 
L 334.650361 273.346535 
L 335.015604 273.346535 
L 335.015604 268.316832 
L 335.338429 268.316832 
L 335.374095 258.257426 
L 336.099302 258.257426 
L 336.099302 253.227723 
L 336.442949 253.227723 
L 336.442949 248.19802 
L 337.04937 248.19802 
L 337.04937 243.168317 
L 338.372402 243.168317 
L 338.372402 238.138614 
L 340.136834 238.138614 
L 340.136834 233.108911 
L 357.875456 233.108911 
L 357.875456 228.079208 
L 358.729914 228.079208 
L 358.837526 212.990099 
L 359.351849 212.990099 
L 359.351849 207.960396 
L 359.826772 207.960396 
L 359.826772 202.930693 
L 359.975892 202.930693 
L 359.975892 197.90099 
L 360.768416 197.90099 
L 360.768416 192.871287 
L 361.106914 192.871287 
L 361.106914 187.841584 
L 361.375719 187.841584 
L 361.472143 177.782178 
L 361.604403 177.782178 
L 361.689781 167.722772 
L 361.720621 167.722772 
L 361.720621 162.693069 
L 362.382081 162.693069 
L 362.382081 157.663366 
L 362.775431 157.663366 
L 362.776513 147.60396 
L 362.980271 147.60396 
L 362.980271 142.574257 
L 363.18551 142.574257 
L 363.18551 137.544554 
L 363.349963 137.544554 
L 363.349963 132.514851 
L 363.67483 132.514851 
L 363.67483 127.485149 
L 364.17046 127.485149 
L 364.17046 122.455446 
L 364.459088 122.455446 
L 364.459088 117.425743 
L 365.078302 117.425743 
L 365.078302 112.39604 
L 365.259344 112.39604 
L 365.259344 107.366337 
L 366.279614 107.366337 
L 366.279614 102.336634 
L 366.724345 102.336634 
L 366.778655 87.247525 
L 367.303724 87.247525 
L 367.303724 82.217822 
L 472.935461 82.217822 
L 472.935461 77.188119 
L 476.957261 77.188119 
L 476.957261 72.158416 
L 477.146878 72.158416 
L 477.146878 67.128713 
L 480.257057 67.128713 
L 480.257057 62.09901 
L 482.948665 62.09901 
L 482.961732 52.039604 
L 485.606659 52.039604 
L 485.606659 47.009901 
L 486.425581 47.009901 
L 486.425581 41.980198 
L 487.40865 41.980198 
L 487.40865 36.950495 
L 487.811401 36.950495 
L 487.811401 31.920792 
L 492.019987 31.920792 
L 492.019987 26.891089 
L 492.186386 26.891089 
L 492.186386 21.861386 
L 494.449438 21.861386 
L 494.449438 16.831683 
L 495.030426 16.831683 
L 495.030426 11.80198 
L 497.970902 11.80198 
L 497.970902 6.772277 
L 497.970902 6.772277 
L 567.24 6.772277 
L 567.24 6.772277 
" style="fill:none;stroke:#00bfbf;stroke-linecap:square;"/>
   </g>
   <g id="line2d_6">
    <path clip-path="url(#p66e82541b3)" d="M -1 308.554455 
L 314.349497 308.554455 
L 314.349497 303.524752 
L 317.389837 303.524752 
L 317.389837 298.49505 
L 319.042056 298.49505 
L 319.042056 293.465347 
L 320.458795 293.465347 
L 320.528024 283.405941 
L 320.641194 283.405941 
L 320.641194 278.376238 
L 321.396201 278.376238 
L 321.396201 273.346535 
L 322.5461 273.346535 
L 322.58643 263.287129 
L 324.554031 263.287129 
L 324.554031 258.257426 
L 325.445456 258.257426 
L 325.445456 253.227723 
L 326.516469 253.227723 
L 326.516469 248.19802 
L 328.971137 248.19802 
L 328.971137 243.168317 
L 329.629733 243.168317 
L 329.629733 238.138614 
L 329.748569 238.138614 
L 329.748569 233.108911 
L 356.089069 233.108911 
L 356.089069 228.079208 
L 357.676066 228.079208 
L 357.676066 223.049505 
L 357.875456 223.049505 
L 357.875456 218.019802 
L 358.674673 218.019802 
L 358.729914 207.960396 
L 358.837526 207.960396 
L 358.837526 202.930693 
L 359.351849 202.930693 
L 359.351849 197.90099 
L 359.826772 197.90099 
L 359.826772 192.871287 
L 359.975892 192.871287 
L 359.975892 187.841584 
L 360.767809 187.841584 
L 360.768416 177.782178 
L 361.106914 177.782178 
L 361.106914 172.752475 
L 361.375719 172.752475 
L 361.472143 162.693069 
L 361.604403 162.693069 
L 361.689781 152.633663 
L 361.720621 152.633663 
L 361.720621 147.60396 
L 361.902277 147.60396 
L 361.902277 142.574257 
L 362.775431 142.574257 
L 362.776513 132.514851 
L 362.980271 132.514851 
L 362.980271 127.485149 
L 363.336481 127.485149 
L 363.349963 117.425743 
L 363.67483 117.425743 
L 363.780439 107.366337 
L 363.92018 107.366337 
L 363.92018 102.336634 
L 364.459088 102.336634 
L 364.510047 87.247525 
L 364.993023 87.247525 
L 364.993023 82.217822 
L 464.123984 82.217822 
L 464.123984 77.188119 
L 465.975824 77.188119 
L 465.975824 72.158416 
L 467.991029 72.158416 
L 467.991029 67.128713 
L 472.935461 67.128713 
L 472.935461 62.09901 
L 473.106791 62.09901 
L 473.106791 57.069307 
L 473.676459 57.069307 
L 473.676459 52.039604 
L 473.999287 52.039604 
L 473.999287 47.009901 
L 474.523981 47.009901 
L 474.523981 41.980198 
L 476.031891 41.980198 
L 476.031891 36.950495 
L 477.075281 36.950495 
L 477.075281 31.920792 
L 478.292634 31.920792 
L 478.292634 26.891089 
L 478.782606 26.891089 
L 478.782606 21.861386 
L 480.504058 21.861386 
L 480.504058 16.831683 
L 481.226736 16.831683 
L 481.226736 11.80198 
L 482.211103 11.80198 
L 482.211103 6.772277 
L 482.211103 6.772277 
L 567.24 6.772277 
L 567.24 6.772277 
" style="fill:none;stroke:#bf00bf;stroke-linecap:square;"/>
   </g>
   <g id="line2d_7">
    <path clip-path="url(#p66e82541b3)" d="M -1 308.554455 
L 2.856535 308.554455 
L 2.856535 273.346535 
L 227.384178 273.346535 
L 227.384178 268.316832 
L 242.296915 268.316832 
L 242.296915 263.287129 
L 251.054407 263.287129 
L 251.054407 258.257426 
L 255.916873 258.257426 
L 255.916873 253.227723 
L 258.939765 253.227723 
L 258.939765 248.19802 
L 263.968187 248.19802 
L 263.968187 243.168317 
L 268.317705 243.168317 
L 268.317705 238.138614 
L 268.755089 238.138614 
L 268.755089 233.108911 
L 353.848741 233.108911 
L 353.848741 228.079208 
L 355.464831 228.079208 
L 355.464831 223.049505 
L 356.089069 223.049505 
L 356.157565 212.990099 
L 356.348659 212.990099 
L 356.348659 207.960396 
L 356.690321 207.960396 
L 356.690321 202.930693 
L 357.153307 202.930693 
L 357.153307 197.90099 
L 357.27823 197.90099 
L 357.337805 187.841584 
L 357.638122 187.841584 
L 357.638122 182.811881 
L 357.875456 182.811881 
L 357.875456 177.782178 
L 358.280754 177.782178 
L 358.280754 172.752475 
L 358.69309 172.752475 
L 358.729914 162.693069 
L 359.351849 162.693069 
L 359.351849 157.663366 
L 359.826772 157.663366 
L 359.826772 152.633663 
L 359.975892 152.633663 
L 360.059311 142.574257 
L 360.768416 142.574257 
L 360.768416 137.544554 
L 361.106914 137.544554 
L 361.106914 132.514851 
L 361.472143 132.514851 
L 361.580001 122.455446 
L 361.604403 122.455446 
L 361.689781 112.39604 
L 361.902277 112.39604 
L 361.902277 107.366337 
L 362.297407 107.366337 
L 362.297407 102.336634 
L 362.592561 102.336634 
L 362.592561 97.306931 
L 362.775431 97.306931 
L 362.776513 87.247525 
L 363.349963 87.247525 
L 363.349963 82.217822 
L 448.104571 82.217822 
L 448.104571 77.188119 
L 452.057955 77.188119 
L 452.057955 72.158416 
L 455.709769 72.158416 
L 455.709769 67.128713 
L 456.503132 67.128713 
L 456.503132 62.09901 
L 456.85936 62.09901 
L 456.85936 57.069307 
L 459.377583 57.069307 
L 459.377583 52.039604 
L 460.336659 52.039604 
L 460.336659 47.009901 
L 461.20907 47.009901 
L 461.20907 41.980198 
L 462.459515 41.980198 
L 462.459515 36.950495 
L 462.639773 36.950495 
L 462.639773 31.920792 
L 466.192734 31.920792 
L 466.192734 26.891089 
L 466.431829 26.891089 
L 466.431829 21.861386 
L 467.588854 21.861386 
L 467.588854 16.831683 
L 467.991029 16.831683 
L 467.991029 11.80198 
L 468.820554 11.80198 
L 468.820554 6.772277 
L 468.820554 6.772277 
L 567.24 6.772277 
L 567.24 6.772277 
" style="fill:none;stroke:#000000;stroke-linecap:square;"/>
   </g>
   <g id="line2d_8">
    <path clip-path="url(#p66e82541b3)" d="M -1 308.554455 
L 2.856535 308.554455 
L 2.856535 233.108911 
L 352.530945 233.108911 
L 352.530945 228.079208 
L 352.995071 228.079208 
L 352.995071 223.049505 
L 353.848741 223.049505 
L 353.848741 218.019802 
L 354.12625 218.019802 
L 354.186091 207.960396 
L 354.27395 207.960396 
L 354.383911 192.871287 
L 354.749678 192.871287 
L 354.78486 182.811881 
L 355.062131 182.811881 
L 355.062131 177.782178 
L 355.329412 177.782178 
L 355.329412 172.752475 
L 355.464707 172.752475 
L 355.564239 162.693069 
L 355.862605 162.693069 
L 355.862605 157.663366 
L 357.375088 157.663366 
L 357.375088 152.633663 
L 358.493875 152.633663 
L 358.572142 142.574257 
L 358.681118 142.574257 
L 358.681118 137.544554 
L 358.996193 137.544554 
L 359.010725 127.485149 
L 359.483772 127.485149 
L 359.483772 122.455446 
L 360.766915 122.455446 
L 360.766915 117.425743 
L 361.118323 117.425743 
L 361.118323 112.39604 
L 361.580001 112.39604 
L 361.689781 97.306931 
L 361.750061 97.306931 
L 361.750061 92.277228 
L 361.980133 92.277228 
L 361.980133 87.247525 
L 362.592561 87.247525 
L 362.592561 82.217822 
L 437.907961 82.217822 
L 437.907961 77.188119 
L 439.280568 77.188119 
L 439.280568 72.158416 
L 440.805838 72.158416 
L 440.805838 67.128713 
L 441.402742 67.128713 
L 441.402742 62.09901 
L 444.515687 62.09901 
L 444.515687 57.069307 
L 444.763556 57.069307 
L 444.763556 52.039604 
L 445.130869 52.039604 
L 445.130869 47.009901 
L 445.246834 47.009901 
L 445.246834 41.980198 
L 447.188557 41.980198 
L 447.268865 31.920792 
L 447.320785 31.920792 
L 447.320785 26.891089 
L 449.775414 26.891089 
L 449.775414 21.861386 
L 450.580225 21.861386 
L 450.649896 11.80198 
L 450.756581 11.80198 
L 450.756581 6.772277 
L 450.756581 6.772277 
L 567.24 6.772277 
L 567.24 6.772277 
" style="fill:none;stroke:#00bfbf;stroke-linecap:square;"/>
   </g>
   <g id="patch_3">
    <path d="M 3 3 
L 567.24 3 
" style="fill:none;stroke:#000000;stroke-linecap:square;stroke-linejoin:miter;"/>
   </g>
   <g id="patch_4">
    <path d="M 567.24 384 
L 567.24 3 
" style="fill:none;stroke:#000000;stroke-linecap:square;stroke-linejoin:miter;"/>
   </g>
   <g id="patch_5">
    <path d="M 3 384 
L 567.24 384 
" style="fill:none;stroke:#000000;stroke-linecap:square;stroke-linejoin:miter;"/>
   </g>
   <g id="patch_6">
    <path d="M 3 384 
L 3 3 
" style="fill:none;stroke:#000000;stroke-linecap:square;stroke-linejoin:miter;"/>
   </g>
   <g id="matplotlib.axis_1">
    <g id="xtick_1"/>
    <g id="xtick_2">
     <g id="line2d_9">
      <path clip-path="url(#p66e82541b3)" d="M 69.254589 384 
L 69.254589 3 
" style="fill:none;stroke:#000000;stroke-dasharray:1.000000,3.000000;stroke-dashoffset:0.0;stroke-width:0.5;"/>
     </g>
     <g id="line2d_10">
      <defs>
       <path d="M 0 0 
L 0 -4 
" id="m83edf9724e" style="stroke:#000000;stroke-width:0.5;"/>
      </defs>
      <g>
       <use style="stroke:#000000;stroke-width:0.5;" x="69.2545893472" xlink:href="#m83edf9724e" y="384.0"/>
      </g>
     </g>
     <g id="line2d_11">
      <defs>
       <path d="M 0 0 
L 0 4 
" id="m0b6b23f077" style="stroke:#000000;stroke-width:0.5;"/>
      </defs>
      <g>
       <use style="stroke:#000000;stroke-width:0.5;" x="69.2545893472" xlink:href="#m0b6b23f077" y="3.0"/>
      </g>
     </g>
     <g id="text_1">
      <!-- -6 -->
      <defs>
       <path d="M 33.015625 40.375 
Q 26.375 40.375 22.484375 35.828125 
Q 18.609375 31.296875 18.609375 23.390625 
Q 18.609375 15.53125 22.484375 10.953125 
Q 26.375 6.390625 33.015625 6.390625 
Q 39.65625 6.390625 43.53125 10.953125 
Q 47.40625 15.53125 47.40625 23.390625 
Q 47.40625 31.296875 43.53125 35.828125 
Q 39.65625 40.375 33.015625 40.375 
M 52.59375 71.296875 
L 52.59375 62.3125 
Q 48.875 64.0625 45.09375 64.984375 
Q 41.3125 65.921875 37.59375 65.921875 
Q 27.828125 65.921875 22.671875 59.328125 
Q 17.53125 52.734375 16.796875 39.40625 
Q 19.671875 43.65625 24.015625 45.921875 
Q 28.375 48.1875 33.59375 48.1875 
Q 44.578125 48.1875 50.953125 41.515625 
Q 57.328125 34.859375 57.328125 23.390625 
Q 57.328125 12.15625 50.6875 5.359375 
Q 44.046875 -1.421875 33.015625 -1.421875 
Q 20.359375 -1.421875 13.671875 8.265625 
Q 6.984375 17.96875 6.984375 36.375 
Q 6.984375 53.65625 15.1875 63.9375 
Q 23.390625 74.21875 37.203125 74.21875 
Q 40.921875 74.21875 44.703125 73.484375 
Q 48.484375 72.75 52.59375 71.296875 
" id="BitstreamVeraSans-Roman-36"/>
       <path d="M 4.890625 31.390625 
L 31.203125 31.390625 
L 31.203125 23.390625 
L 4.890625 23.390625 
z
" id="BitstreamVeraSans-Roman-2d"/>
      </defs>
      <g transform="translate(59.2842768472 403.196875)scale(0.2 -0.2)">
       <use xlink:href="#BitstreamVeraSans-Roman-2d"/>
       <use x="36.083984375" xlink:href="#BitstreamVeraSans-Roman-36"/>
      </g>
     </g>
    </g>
    <g id="xtick_3">
     <g id="line2d_12">
      <path clip-path="url(#p66e82541b3)" d="M 135.652644 384 
L 135.652644 3 
" style="fill:none;stroke:#000000;stroke-dasharray:1.000000,3.000000;stroke-dashoffset:0.0;stroke-width:0.5;"/>
     </g>
     <g id="line2d_13">
      <g>
       <use style="stroke:#000000;stroke-width:0.5;" x="135.652644101" xlink:href="#m83edf9724e" y="384.0"/>
      </g>
     </g>
     <g id="line2d_14">
      <g>
       <use style="stroke:#000000;stroke-width:0.5;" x="135.652644101" xlink:href="#m0b6b23f077" y="3.0"/>
      </g>
     </g>
     <g id="text_2">
      <!-- -4 -->
      <defs>
       <path d="M 37.796875 64.3125 
L 12.890625 25.390625 
L 37.796875 25.390625 
z
M 35.203125 72.90625 
L 47.609375 72.90625 
L 47.609375 25.390625 
L 58.015625 25.390625 
L 58.015625 17.1875 
L 47.609375 17.1875 
L 47.609375 0 
L 37.796875 0 
L 37.796875 17.1875 
L 4.890625 17.1875 
L 4.890625 26.703125 
z
" id="BitstreamVeraSans-Roman-34"/>
      </defs>
      <g transform="translate(125.682331601 403.196875)scale(0.2 -0.2)">
       <use xlink:href="#BitstreamVeraSans-Roman-2d"/>
       <use x="36.083984375" xlink:href="#BitstreamVeraSans-Roman-34"/>
      </g>
     </g>
    </g>
    <g id="xtick_4">
     <g id="line2d_15">
      <path clip-path="url(#p66e82541b3)" d="M 202.050699 384 
L 202.050699 3 
" style="fill:none;stroke:#000000;stroke-dasharray:1.000000,3.000000;stroke-dashoffset:0.0;stroke-width:0.5;"/>
     </g>
     <g id="line2d_16">
      <g>
       <use style="stroke:#000000;stroke-width:0.5;" x="202.050698855" xlink:href="#m83edf9724e" y="384.0"/>
      </g>
     </g>
     <g id="line2d_17">
      <g>
       <use style="stroke:#000000;stroke-width:0.5;" x="202.050698855" xlink:href="#m0b6b23f077" y="3.0"/>
      </g>
     </g>
     <g id="text_3">
      <!-- -2 -->
      <defs>
       <path d="M 19.1875 8.296875 
L 53.609375 8.296875 
L 53.609375 0 
L 7.328125 0 
L 7.328125 8.296875 
Q 12.9375 14.109375 22.625 23.890625 
Q 32.328125 33.6875 34.8125 36.53125 
Q 39.546875 41.84375 41.421875 45.53125 
Q 43.3125 49.21875 43.3125 52.78125 
Q 43.3125 58.59375 39.234375 62.25 
Q 35.15625 65.921875 28.609375 65.921875 
Q 23.96875 65.921875 18.8125 64.3125 
Q 13.671875 62.703125 7.8125 59.421875 
L 7.8125 69.390625 
Q 13.765625 71.78125 18.9375 73 
Q 24.125 74.21875 28.421875 74.21875 
Q 39.75 74.21875 46.484375 68.546875 
Q 53.21875 62.890625 53.21875 53.421875 
Q 53.21875 48.921875 51.53125 44.890625 
Q 49.859375 40.875 45.40625 35.40625 
Q 44.1875 33.984375 37.640625 27.21875 
Q 31.109375 20.453125 19.1875 8.296875 
" id="BitstreamVeraSans-Roman-32"/>
      </defs>
      <g transform="translate(192.080386355 403.196875)scale(0.2 -0.2)">
       <use xlink:href="#BitstreamVeraSans-Roman-2d"/>
       <use x="36.083984375" xlink:href="#BitstreamVeraSans-Roman-32"/>
      </g>
     </g>
    </g>
    <g id="xtick_5">
     <g id="line2d_18">
      <path clip-path="url(#p66e82541b3)" d="M 268.448754 384 
L 268.448754 3 
" style="fill:none;stroke:#000000;stroke-dasharray:1.000000,3.000000;stroke-dashoffset:0.0;stroke-width:0.5;"/>
     </g>
     <g id="line2d_19">
      <g>
       <use style="stroke:#000000;stroke-width:0.5;" x="268.448753608" xlink:href="#m83edf9724e" y="384.0"/>
      </g>
     </g>
     <g id="line2d_20">
      <g>
       <use style="stroke:#000000;stroke-width:0.5;" x="268.448753608" xlink:href="#m0b6b23f077" y="3.0"/>
      </g>
     </g>
     <g id="text_4">
      <!-- 0 -->
      <defs>
       <path d="M 31.78125 66.40625 
Q 24.171875 66.40625 20.328125 58.90625 
Q 16.5 51.421875 16.5 36.375 
Q 16.5 21.390625 20.328125 13.890625 
Q 24.171875 6.390625 31.78125 6.390625 
Q 39.453125 6.390625 43.28125 13.890625 
Q 47.125 21.390625 47.125 36.375 
Q 47.125 51.421875 43.28125 58.90625 
Q 39.453125 66.40625 31.78125 66.40625 
M 31.78125 74.21875 
Q 44.046875 74.21875 50.515625 64.515625 
Q 56.984375 54.828125 56.984375 36.375 
Q 56.984375 17.96875 50.515625 8.265625 
Q 44.046875 -1.421875 31.78125 -1.421875 
Q 19.53125 -1.421875 13.0625 8.265625 
Q 6.59375 17.96875 6.59375 36.375 
Q 6.59375 54.828125 13.0625 64.515625 
Q 19.53125 74.21875 31.78125 74.21875 
" id="BitstreamVeraSans-Roman-30"/>
      </defs>
      <g transform="translate(262.086253608 403.196875)scale(0.2 -0.2)">
       <use xlink:href="#BitstreamVeraSans-Roman-30"/>
      </g>
     </g>
    </g>
    <g id="xtick_6">
     <g id="line2d_21">
      <path clip-path="url(#p66e82541b3)" d="M 334.846808 384 
L 334.846808 3 
" style="fill:none;stroke:#000000;stroke-dasharray:1.000000,3.000000;stroke-dashoffset:0.0;stroke-width:0.5;"/>
     </g>
     <g id="line2d_22">
      <g>
       <use style="stroke:#000000;stroke-width:0.5;" x="334.846808362" xlink:href="#m83edf9724e" y="384.0"/>
      </g>
     </g>
     <g id="line2d_23">
      <g>
       <use style="stroke:#000000;stroke-width:0.5;" x="334.846808362" xlink:href="#m0b6b23f077" y="3.0"/>
      </g>
     </g>
     <g id="text_5">
      <!-- 2 -->
      <g transform="translate(328.484308362 403.196875)scale(0.2 -0.2)">
       <use xlink:href="#BitstreamVeraSans-Roman-32"/>
      </g>
     </g>
    </g>
    <g id="xtick_7">
     <g id="line2d_24">
      <path clip-path="url(#p66e82541b3)" d="M 401.244863 384 
L 401.244863 3 
" style="fill:none;stroke:#000000;stroke-dasharray:1.000000,3.000000;stroke-dashoffset:0.0;stroke-width:0.5;"/>
     </g>
     <g id="line2d_25">
      <g>
       <use style="stroke:#000000;stroke-width:0.5;" x="401.244863116" xlink:href="#m83edf9724e" y="384.0"/>
      </g>
     </g>
     <g id="line2d_26">
      <g>
       <use style="stroke:#000000;stroke-width:0.5;" x="401.244863116" xlink:href="#m0b6b23f077" y="3.0"/>
      </g>
     </g>
     <g id="text_6">
      <!-- 4 -->
      <g transform="translate(394.882363116 403.196875)scale(0.2 -0.2)">
       <use xlink:href="#BitstreamVeraSans-Roman-34"/>
      </g>
     </g>
    </g>
    <g id="xtick_8">
     <g id="line2d_27">
      <path clip-path="url(#p66e82541b3)" d="M 467.642918 384 
L 467.642918 3 
" style="fill:none;stroke:#000000;stroke-dasharray:1.000000,3.000000;stroke-dashoffset:0.0;stroke-width:0.5;"/>
     </g>
     <g id="line2d_28">
      <g>
       <use style="stroke:#000000;stroke-width:0.5;" x="467.642917869" xlink:href="#m83edf9724e" y="384.0"/>
      </g>
     </g>
     <g id="line2d_29">
      <g>
       <use style="stroke:#000000;stroke-width:0.5;" x="467.642917869" xlink:href="#m0b6b23f077" y="3.0"/>
      </g>
     </g>
     <g id="text_7">
      <!-- 6 -->
      <g transform="translate(461.280417869 403.196875)scale(0.2 -0.2)">
       <use xlink:href="#BitstreamVeraSans-Roman-36"/>
      </g>
     </g>
    </g>
    <g id="xtick_9">
     <g id="line2d_30">
      <path clip-path="url(#p66e82541b3)" d="M 534.040973 384 
L 534.040973 3 
" style="fill:none;stroke:#000000;stroke-dasharray:1.000000,3.000000;stroke-dashoffset:0.0;stroke-width:0.5;"/>
     </g>
     <g id="line2d_31">
      <g>
       <use style="stroke:#000000;stroke-width:0.5;" x="534.040972623" xlink:href="#m83edf9724e" y="384.0"/>
      </g>
     </g>
     <g id="line2d_32">
      <g>
       <use style="stroke:#000000;stroke-width:0.5;" x="534.040972623" xlink:href="#m0b6b23f077" y="3.0"/>
      </g>
     </g>
     <g id="text_8">
      <!-- 8 -->
      <defs>
       <path d="M 31.78125 34.625 
Q 24.75 34.625 20.71875 30.859375 
Q 16.703125 27.09375 16.703125 20.515625 
Q 16.703125 13.921875 20.71875 10.15625 
Q 24.75 6.390625 31.78125 6.390625 
Q 38.8125 6.390625 42.859375 10.171875 
Q 46.921875 13.96875 46.921875 20.515625 
Q 46.921875 27.09375 42.890625 30.859375 
Q 38.875 34.625 31.78125 34.625 
M 21.921875 38.8125 
Q 15.578125 40.375 12.03125 44.71875 
Q 8.5 49.078125 8.5 55.328125 
Q 8.5 64.0625 14.71875 69.140625 
Q 20.953125 74.21875 31.78125 74.21875 
Q 42.671875 74.21875 48.875 69.140625 
Q 55.078125 64.0625 55.078125 55.328125 
Q 55.078125 49.078125 51.53125 44.71875 
Q 48 40.375 41.703125 38.8125 
Q 48.828125 37.15625 52.796875 32.3125 
Q 56.78125 27.484375 56.78125 20.515625 
Q 56.78125 9.90625 50.3125 4.234375 
Q 43.84375 -1.421875 31.78125 -1.421875 
Q 19.734375 -1.421875 13.25 4.234375 
Q 6.78125 9.90625 6.78125 20.515625 
Q 6.78125 27.484375 10.78125 32.3125 
Q 14.796875 37.15625 21.921875 38.8125 
M 18.3125 54.390625 
Q 18.3125 48.734375 21.84375 45.5625 
Q 25.390625 42.390625 31.78125 42.390625 
Q 38.140625 42.390625 41.71875 45.5625 
Q 45.3125 48.734375 45.3125 54.390625 
Q 45.3125 60.0625 41.71875 63.234375 
Q 38.140625 66.40625 31.78125 66.40625 
Q 25.390625 66.40625 21.84375 63.234375 
Q 18.3125 60.0625 18.3125 54.390625 
" id="BitstreamVeraSans-Roman-38"/>
      </defs>
      <g transform="translate(527.678472623 403.196875)scale(0.2 -0.2)">
       <use xlink:href="#BitstreamVeraSans-Roman-38"/>
      </g>
     </g>
    </g>
    <g id="xtick_10"/>
    <g id="xtick_11">
     <g id="line2d_33">
      <defs>
       <path d="M 0 0 
L 0 -2 
" id="mc9a77d02bc" style="stroke:#000000;stroke-width:0.5;"/>
      </defs>
      <g>
       <use style="stroke:#000000;stroke-width:0.5;" x="69.2545893472" xlink:href="#mc9a77d02bc" y="384.0"/>
      </g>
     </g>
     <g id="line2d_34">
      <defs>
       <path d="M 0 0 
L 0 2 
" id="m94617b5ac8" style="stroke:#000000;stroke-width:0.5;"/>
      </defs>
      <g>
       <use style="stroke:#000000;stroke-width:0.5;" x="69.2545893472" xlink:href="#m94617b5ac8" y="3.0"/>
      </g>
     </g>
    </g>
    <g id="xtick_12">
     <g id="line2d_35">
      <g>
       <use style="stroke:#000000;stroke-width:0.5;" x="135.652644101" xlink:href="#mc9a77d02bc" y="384.0"/>
      </g>
     </g>
     <g id="line2d_36">
      <g>
       <use style="stroke:#000000;stroke-width:0.5;" x="135.652644101" xlink:href="#m94617b5ac8" y="3.0"/>
      </g>
     </g>
    </g>
    <g id="xtick_13">
     <g id="line2d_37">
      <g>
       <use style="stroke:#000000;stroke-width:0.5;" x="202.050698855" xlink:href="#mc9a77d02bc" y="384.0"/>
      </g>
     </g>
     <g id="line2d_38">
      <g>
       <use style="stroke:#000000;stroke-width:0.5;" x="202.050698855" xlink:href="#m94617b5ac8" y="3.0"/>
      </g>
     </g>
    </g>
    <g id="xtick_14">
     <g id="line2d_39">
      <g>
       <use style="stroke:#000000;stroke-width:0.5;" x="268.448753608" xlink:href="#mc9a77d02bc" y="384.0"/>
      </g>
     </g>
     <g id="line2d_40">
      <g>
       <use style="stroke:#000000;stroke-width:0.5;" x="268.448753608" xlink:href="#m94617b5ac8" y="3.0"/>
      </g>
     </g>
    </g>
    <g id="xtick_15">
     <g id="line2d_41">
      <g>
       <use style="stroke:#000000;stroke-width:0.5;" x="334.846808362" xlink:href="#mc9a77d02bc" y="384.0"/>
      </g>
     </g>
     <g id="line2d_42">
      <g>
       <use style="stroke:#000000;stroke-width:0.5;" x="334.846808362" xlink:href="#m94617b5ac8" y="3.0"/>
      </g>
     </g>
    </g>
    <g id="xtick_16">
     <g id="line2d_43">
      <g>
       <use style="stroke:#000000;stroke-width:0.5;" x="401.244863116" xlink:href="#mc9a77d02bc" y="384.0"/>
      </g>
     </g>
     <g id="line2d_44">
      <g>
       <use style="stroke:#000000;stroke-width:0.5;" x="401.244863116" xlink:href="#m94617b5ac8" y="3.0"/>
      </g>
     </g>
    </g>
    <g id="xtick_17">
     <g id="line2d_45">
      <g>
       <use style="stroke:#000000;stroke-width:0.5;" x="467.642917869" xlink:href="#mc9a77d02bc" y="384.0"/>
      </g>
     </g>
     <g id="line2d_46">
      <g>
       <use style="stroke:#000000;stroke-width:0.5;" x="467.642917869" xlink:href="#m94617b5ac8" y="3.0"/>
      </g>
     </g>
    </g>
    <g id="xtick_18">
     <g id="line2d_47">
      <g>
       <use style="stroke:#000000;stroke-width:0.5;" x="534.040972623" xlink:href="#mc9a77d02bc" y="384.0"/>
      </g>
     </g>
     <g id="line2d_48">
      <g>
       <use style="stroke:#000000;stroke-width:0.5;" x="534.040972623" xlink:href="#m94617b5ac8" y="3.0"/>
      </g>
     </g>
    </g>
    <g id="text_9">
     <!-- log10 of Df -->
     <defs>
      <path id="BitstreamVeraSans-Roman-20"/>
      <path d="M 12.40625 8.296875 
L 28.515625 8.296875 
L 28.515625 63.921875 
L 10.984375 60.40625 
L 10.984375 69.390625 
L 28.421875 72.90625 
L 38.28125 72.90625 
L 38.28125 8.296875 
L 54.390625 8.296875 
L 54.390625 0 
L 12.40625 0 
z
" id="BitstreamVeraSans-Roman-31"/>
      <path d="M 30.609375 48.390625 
Q 23.390625 48.390625 19.1875 42.75 
Q 14.984375 37.109375 14.984375 27.296875 
Q 14.984375 17.484375 19.15625 11.84375 
Q 23.34375 6.203125 30.609375 6.203125 
Q 37.796875 6.203125 41.984375 11.859375 
Q 46.1875 17.53125 46.1875 27.296875 
Q 46.1875 37.015625 41.984375 42.703125 
Q 37.796875 48.390625 30.609375 48.390625 
M 30.609375 56 
Q 42.328125 56 49.015625 48.375 
Q 55.71875 40.765625 55.71875 27.296875 
Q 55.71875 13.875 49.015625 6.21875 
Q 42.328125 -1.421875 30.609375 -1.421875 
Q 18.84375 -1.421875 12.171875 6.21875 
Q 5.515625 13.875 5.515625 27.296875 
Q 5.515625 40.765625 12.171875 48.375 
Q 18.84375 56 30.609375 56 
" id="BitstreamVeraSans-Roman-6f"/>
      <path d="M 9.421875 75.984375 
L 18.40625 75.984375 
L 18.40625 0 
L 9.421875 0 
z
" id="BitstreamVeraSans-Roman-6c"/>
      <path d="M 19.671875 64.796875 
L 19.671875 8.109375 
L 31.59375 8.109375 
Q 46.6875 8.109375 53.6875 14.9375 
Q 60.6875 21.78125 60.6875 36.53125 
Q 60.6875 51.171875 53.6875 57.984375 
Q 46.6875 64.796875 31.59375 64.796875 
z
M 9.8125 72.90625 
L 30.078125 72.90625 
Q 51.265625 72.90625 61.171875 64.09375 
Q 71.09375 55.28125 71.09375 36.53125 
Q 71.09375 17.671875 61.125 8.828125 
Q 51.171875 0 30.078125 0 
L 9.8125 0 
z
" id="BitstreamVeraSans-Roman-44"/>
      <path d="M 45.40625 27.984375 
Q 45.40625 37.75 41.375 43.109375 
Q 37.359375 48.484375 30.078125 48.484375 
Q 22.859375 48.484375 18.828125 43.109375 
Q 14.796875 37.75 14.796875 27.984375 
Q 14.796875 18.265625 18.828125 12.890625 
Q 22.859375 7.515625 30.078125 7.515625 
Q 37.359375 7.515625 41.375 12.890625 
Q 45.40625 18.265625 45.40625 27.984375 
M 54.390625 6.78125 
Q 54.390625 -7.171875 48.1875 -13.984375 
Q 42 -20.796875 29.203125 -20.796875 
Q 24.46875 -20.796875 20.265625 -20.09375 
Q 16.0625 -19.390625 12.109375 -17.921875 
L 12.109375 -9.1875 
Q 16.0625 -11.328125 19.921875 -12.34375 
Q 23.78125 -13.375 27.78125 -13.375 
Q 36.625 -13.375 41.015625 -8.765625 
Q 45.40625 -4.15625 45.40625 5.171875 
L 45.40625 9.625 
Q 42.625 4.78125 38.28125 2.390625 
Q 33.9375 0 27.875 0 
Q 17.828125 0 11.671875 7.65625 
Q 5.515625 15.328125 5.515625 27.984375 
Q 5.515625 40.671875 11.671875 48.328125 
Q 17.828125 56 27.875 56 
Q 33.9375 56 38.28125 53.609375 
Q 42.625 51.21875 45.40625 46.390625 
L 45.40625 54.6875 
L 54.390625 54.6875 
z
" id="BitstreamVeraSans-Roman-67"/>
      <path d="M 37.109375 75.984375 
L 37.109375 68.5 
L 28.515625 68.5 
Q 23.6875 68.5 21.796875 66.546875 
Q 19.921875 64.59375 19.921875 59.515625 
L 19.921875 54.6875 
L 34.71875 54.6875 
L 34.71875 47.703125 
L 19.921875 47.703125 
L 19.921875 0 
L 10.890625 0 
L 10.890625 47.703125 
L 2.296875 47.703125 
L 2.296875 54.6875 
L 10.890625 54.6875 
L 10.890625 58.5 
Q 10.890625 67.625 15.140625 71.796875 
Q 19.390625 75.984375 28.609375 75.984375 
z
" id="BitstreamVeraSans-Roman-66"/>
     </defs>
     <g transform="translate(229.9340625 427.553125)scale(0.2 -0.2)">
      <use xlink:href="#BitstreamVeraSans-Roman-6c"/>
      <use x="27.783203125" xlink:href="#BitstreamVeraSans-Roman-6f"/>
      <use x="88.96484375" xlink:href="#BitstreamVeraSans-Roman-67"/>
      <use x="152.44140625" xlink:href="#BitstreamVeraSans-Roman-31"/>
      <use x="216.064453125" xlink:href="#BitstreamVeraSans-Roman-30"/>
      <use x="279.6875" xlink:href="#BitstreamVeraSans-Roman-20"/>
      <use x="311.474609375" xlink:href="#BitstreamVeraSans-Roman-6f"/>
      <use x="372.65625" xlink:href="#BitstreamVeraSans-Roman-66"/>
      <use x="407.861328125" xlink:href="#BitstreamVeraSans-Roman-20"/>
      <use x="439.6484375" xlink:href="#BitstreamVeraSans-Roman-44"/>
      <use x="516.650390625" xlink:href="#BitstreamVeraSans-Roman-66"/>
     </g>
    </g>
   </g>
   <g id="matplotlib.axis_2">
    <g id="ytick_1">
     <g id="line2d_49">
      <path clip-path="url(#p66e82541b3)" d="M 3 384 
L 567.24 384 
" style="fill:none;stroke:#000000;stroke-dasharray:1.000000,3.000000;stroke-dashoffset:0.0;stroke-width:0.5;"/>
     </g>
     <g id="line2d_50">
      <defs>
       <path d="M 0 0 
L 4 0 
" id="mdedf0cc907" style="stroke:#000000;stroke-width:0.5;"/>
      </defs>
      <g>
       <use style="stroke:#000000;stroke-width:0.5;" x="3.0" xlink:href="#mdedf0cc907" y="384.0"/>
      </g>
     </g>
     <g id="line2d_51">
      <defs>
       <path d="M 0 0 
L -4 0 
" id="mce8d04d6c3" style="stroke:#000000;stroke-width:0.5;"/>
      </defs>
      <g>
       <use style="stroke:#000000;stroke-width:0.5;" x="567.24" xlink:href="#mce8d04d6c3" y="384.0"/>
      </g>
     </g>
    </g>
    <g id="ytick_2">
     <g id="line2d_52">
      <path clip-path="url(#p66e82541b3)" d="M 3 308.554455 
L 567.24 308.554455 
" style="fill:none;stroke:#000000;stroke-dasharray:1.000000,3.000000;stroke-dashoffset:0.0;stroke-width:0.5;"/>
     </g>
     <g id="line2d_53">
      <g>
       <use style="stroke:#000000;stroke-width:0.5;" x="3.0" xlink:href="#mdedf0cc907" y="308.554455446"/>
      </g>
     </g>
     <g id="line2d_54">
      <g>
       <use style="stroke:#000000;stroke-width:0.5;" x="567.24" xlink:href="#mce8d04d6c3" y="308.554455446"/>
      </g>
     </g>
    </g>
    <g id="ytick_3">
     <g id="line2d_55">
      <path clip-path="url(#p66e82541b3)" d="M 3 233.108911 
L 567.24 233.108911 
" style="fill:none;stroke:#000000;stroke-dasharray:1.000000,3.000000;stroke-dashoffset:0.0;stroke-width:0.5;"/>
     </g>
     <g id="line2d_56">
      <g>
       <use style="stroke:#000000;stroke-width:0.5;" x="3.0" xlink:href="#mdedf0cc907" y="233.108910891"/>
      </g>
     </g>
     <g id="line2d_57">
      <g>
       <use style="stroke:#000000;stroke-width:0.5;" x="567.24" xlink:href="#mce8d04d6c3" y="233.108910891"/>
      </g>
     </g>
    </g>
    <g id="ytick_4">
     <g id="line2d_58">
      <path clip-path="url(#p66e82541b3)" d="M 3 157.663366 
L 567.24 157.663366 
" style="fill:none;stroke:#000000;stroke-dasharray:1.000000,3.000000;stroke-dashoffset:0.0;stroke-width:0.5;"/>
     </g>
     <g id="line2d_59">
      <g>
       <use style="stroke:#000000;stroke-width:0.5;" x="3.0" xlink:href="#mdedf0cc907" y="157.663366337"/>
      </g>
     </g>
     <g id="line2d_60">
      <g>
       <use style="stroke:#000000;stroke-width:0.5;" x="567.24" xlink:href="#mce8d04d6c3" y="157.663366337"/>
      </g>
     </g>
    </g>
    <g id="ytick_5">
     <g id="line2d_61">
      <path clip-path="url(#p66e82541b3)" d="M 3 82.217822 
L 567.24 82.217822 
" style="fill:none;stroke:#000000;stroke-dasharray:1.000000,3.000000;stroke-dashoffset:0.0;stroke-width:0.5;"/>
     </g>
     <g id="line2d_62">
      <g>
       <use style="stroke:#000000;stroke-width:0.5;" x="3.0" xlink:href="#mdedf0cc907" y="82.2178217822"/>
      </g>
     </g>
     <g id="line2d_63">
      <g>
       <use style="stroke:#000000;stroke-width:0.5;" x="567.24" xlink:href="#mce8d04d6c3" y="82.2178217822"/>
      </g>
     </g>
    </g>
    <g id="ytick_6">
     <g id="line2d_64">
      <path clip-path="url(#p66e82541b3)" d="M 3 6.772277 
L 567.24 6.772277 
" style="fill:none;stroke:#000000;stroke-dasharray:1.000000,3.000000;stroke-dashoffset:0.0;stroke-width:0.5;"/>
     </g>
     <g id="line2d_65">
      <g>
       <use style="stroke:#000000;stroke-width:0.5;" x="3.0" xlink:href="#mdedf0cc907" y="6.77227722772"/>
      </g>
     </g>
     <g id="line2d_66">
      <g>
       <use style="stroke:#000000;stroke-width:0.5;" x="567.24" xlink:href="#mce8d04d6c3" y="6.77227722772"/>
      </g>
     </g>
    </g>
   </g>
   <g id="text_10">
    <!-- {f1-f5}, 20-D -->
    <defs>
     <path d="M 12.5 -9.28125 
L 15.921875 -9.28125 
Q 22.75 -9.28125 24.828125 -7.171875 
Q 26.90625 -5.078125 26.90625 1.90625 
L 26.90625 14.015625 
Q 26.90625 21.625 29.09375 25.09375 
Q 31.296875 28.5625 36.71875 29.890625 
Q 31.296875 31.109375 29.09375 34.5625 
Q 26.90625 38.03125 26.90625 45.703125 
L 26.90625 57.8125 
Q 26.90625 64.75 24.828125 66.875 
Q 22.75 69 15.921875 69 
L 12.5 69 
L 12.5 75.984375 
L 15.578125 75.984375 
Q 27.734375 75.984375 31.8125 72.390625 
Q 35.890625 68.796875 35.890625 58.015625 
L 35.890625 46.296875 
Q 35.890625 39.015625 38.515625 36.203125 
Q 41.15625 33.40625 48.09375 33.40625 
L 51.125 33.40625 
L 51.125 26.421875 
L 48.09375 26.421875 
Q 41.15625 26.421875 38.515625 23.578125 
Q 35.890625 20.75 35.890625 13.375 
L 35.890625 1.703125 
Q 35.890625 -9.078125 31.8125 -12.6875 
Q 27.734375 -16.3125 15.578125 -16.3125 
L 12.5 -16.3125 
z
" id="BitstreamVeraSans-Roman-7d"/>
     <path d="M 51.125 -9.28125 
L 51.125 -16.3125 
L 48.09375 -16.3125 
Q 35.9375 -16.3125 31.8125 -12.6875 
Q 27.6875 -9.078125 27.6875 1.703125 
L 27.6875 13.375 
Q 27.6875 20.75 25.046875 23.578125 
Q 22.40625 26.421875 15.484375 26.421875 
L 12.5 26.421875 
L 12.5 33.40625 
L 15.484375 33.40625 
Q 22.46875 33.40625 25.078125 36.203125 
Q 27.6875 39.015625 27.6875 46.296875 
L 27.6875 58.015625 
Q 27.6875 68.796875 31.8125 72.390625 
Q 35.9375 75.984375 48.09375 75.984375 
L 51.125 75.984375 
L 51.125 69 
L 47.796875 69 
Q 40.921875 69 38.8125 66.84375 
Q 36.71875 64.703125 36.71875 57.8125 
L 36.71875 45.703125 
Q 36.71875 38.03125 34.5 34.5625 
Q 32.28125 31.109375 26.90625 29.890625 
Q 32.328125 28.5625 34.515625 25.09375 
Q 36.71875 21.625 36.71875 14.015625 
L 36.71875 1.90625 
Q 36.71875 -4.984375 38.8125 -7.125 
Q 40.921875 -9.28125 47.796875 -9.28125 
z
" id="BitstreamVeraSans-Roman-7b"/>
     <path d="M 11.71875 12.40625 
L 22.015625 12.40625 
L 22.015625 4 
L 14.015625 -11.625 
L 7.71875 -11.625 
L 11.71875 4 
z
" id="BitstreamVeraSans-Roman-2c"/>
     <path d="M 10.796875 72.90625 
L 49.515625 72.90625 
L 49.515625 64.59375 
L 19.828125 64.59375 
L 19.828125 46.734375 
Q 21.96875 47.46875 24.109375 47.828125 
Q 26.265625 48.1875 28.421875 48.1875 
Q 40.625 48.1875 47.75 41.5 
Q 54.890625 34.8125 54.890625 23.390625 
Q 54.890625 11.625 47.5625 5.09375 
Q 40.234375 -1.421875 26.90625 -1.421875 
Q 22.3125 -1.421875 17.546875 -0.640625 
Q 12.796875 0.140625 7.71875 1.703125 
L 7.71875 11.625 
Q 12.109375 9.234375 16.796875 8.0625 
Q 21.484375 6.890625 26.703125 6.890625 
Q 35.15625 6.890625 40.078125 11.328125 
Q 45.015625 15.765625 45.015625 23.390625 
Q 45.015625 31 40.078125 35.4375 
Q 35.15625 39.890625 26.703125 39.890625 
Q 22.75 39.890625 18.8125 39.015625 
Q 14.890625 38.140625 10.796875 36.28125 
z
" id="BitstreamVeraSans-Roman-35"/>
    </defs>
    <g transform="translate(422.9802 376.38)scale(0.2 -0.2)">
     <use xlink:href="#BitstreamVeraSans-Roman-7b"/>
     <use x="63.623046875" xlink:href="#BitstreamVeraSans-Roman-66"/>
     <use x="98.828125" xlink:href="#BitstreamVeraSans-Roman-31"/>
     <use x="162.451171875" xlink:href="#BitstreamVeraSans-Roman-2d"/>
     <use x="198.53515625" xlink:href="#BitstreamVeraSans-Roman-66"/>
     <use x="233.740234375" xlink:href="#BitstreamVeraSans-Roman-35"/>
     <use x="297.36328125" xlink:href="#BitstreamVeraSans-Roman-7d"/>
     <use x="360.986328125" xlink:href="#BitstreamVeraSans-Roman-2c"/>
     <use x="392.7734375" xlink:href="#BitstreamVeraSans-Roman-20"/>
     <use x="424.560546875" xlink:href="#BitstreamVeraSans-Roman-32"/>
     <use x="488.18359375" xlink:href="#BitstreamVeraSans-Roman-30"/>
     <use x="551.806640625" xlink:href="#BitstreamVeraSans-Roman-2d"/>
     <use x="587.890625" xlink:href="#BitstreamVeraSans-Roman-44"/>
    </g>
   </g>
   <g id="text_11">
    <!-- v2.2.1.10 -->
    <defs>
     <path d="M 2.984375 54.6875 
L 12.5 54.6875 
L 29.59375 8.796875 
L 46.6875 54.6875 
L 56.203125 54.6875 
L 35.6875 0 
L 23.484375 0 
z
" id="BitstreamVeraSans-Roman-76"/>
     <path d="M 10.6875 12.40625 
L 21 12.40625 
L 21 0 
L 10.6875 0 
z
" id="BitstreamVeraSans-Roman-2e"/>
    </defs>
    <g style="fill:#808080;" transform="translate(261.4871875 378.1103125)scale(0.1 -0.1)">
     <use xlink:href="#BitstreamVeraSans-Roman-76"/>
     <use x="59.1796875" xlink:href="#BitstreamVeraSans-Roman-32"/>
     <use x="122.802734375" xlink:href="#BitstreamVeraSans-Roman-2e"/>
     <use x="154.58984375" xlink:href="#BitstreamVeraSans-Roman-32"/>
     <use x="218.212890625" xlink:href="#BitstreamVeraSans-Roman-2e"/>
     <use x="250.0" xlink:href="#BitstreamVeraSans-Roman-31"/>
     <use x="313.623046875" xlink:href="#BitstreamVeraSans-Roman-2e"/>
     <use x="345.41015625" xlink:href="#BitstreamVeraSans-Roman-31"/>
     <use x="409.033203125" xlink:href="#BitstreamVeraSans-Roman-30"/>
    </g>
   </g>
  </g>
 </g>
 <defs>
  <clipPath id="p66e82541b3">
   <rect height="381.0" width="564.24" x="3.0" y="3.0"/>
  </clipPath>
 </defs>
</svg>
