<?xml version="1.0" encoding="utf-8" standalone="no"?>
<!DOCTYPE svg PUBLIC "-//W3C//DTD SVG 1.1//EN"
  "http://www.w3.org/Graphics/SVG/1.1/DTD/svg11.dtd">
<!-- Created with matplotlib (http://matplotlib.org/) -->
<svg height="432pt" version="1.1" viewBox="0 0 576 432" width="576pt" xmlns="http://www.w3.org/2000/svg" xmlns:xlink="http://www.w3.org/1999/xlink">
 <defs>
  <style type="text/css">
*{stroke-linecap:butt;stroke-linejoin:round;stroke-miterlimit:100000;}
  </style>
 </defs>
 <g id="figure_1">
  <g id="patch_1">
   <path d="M 0 432 
L 576 432 
L 576 0 
L 0 0 
z
" style="fill:#ffffff;"/>
  </g>
  <g id="axes_1">
   <g id="patch_2">
    <path d="M 3 384 
L 567.24 384 
L 567.24 3 
L 3 3 
z
" style="fill:#ffffff;"/>
   </g>
   <g id="line2d_1">
    <path clip-path="url(#p6c152892a2)" d="M -1 308.554455 
L 2.856535 308.554455 
L 2.856535 233.108911 
L 312.59822 233.108911 
L 312.59822 228.079208 
L 313.477521 228.079208 
L 313.477521 223.049505 
L 315.168689 223.049505 
L 315.168689 218.019802 
L 315.408103 218.019802 
L 315.408103 212.990099 
L 316.161427 212.990099 
L 316.161427 207.960396 
L 316.715471 207.960396 
L 316.715471 202.930693 
L 317.674469 202.930693 
L 317.674469 197.90099 
L 317.807901 197.90099 
L 317.807901 192.871287 
L 318.287191 192.871287 
L 318.287191 187.841584 
L 319.053392 187.841584 
L 319.053392 182.811881 
L 319.898031 182.811881 
L 319.913894 167.722772 
L 320.442497 167.722772 
L 320.462427 157.663366 
L 320.906055 157.663366 
L 320.906055 152.633663 
L 321.2461 152.633663 
L 321.2461 147.60396 
L 321.575604 147.60396 
L 321.575604 142.574257 
L 321.736407 142.574257 
L 321.736407 137.544554 
L 321.985925 137.544554 
L 321.985925 132.514851 
L 323.102696 132.514851 
L 323.102696 127.485149 
L 323.226902 127.485149 
L 323.226902 122.455446 
L 323.826102 122.455446 
L 323.826102 117.425743 
L 324.075454 117.425743 
L 324.075454 112.39604 
L 324.265677 112.39604 
L 324.265677 107.366337 
L 324.9789 107.366337 
L 324.9789 102.336634 
L 326.265774 102.336634 
L 326.265774 97.306931 
L 326.694128 97.306931 
L 326.694128 92.277228 
L 327.932256 92.277228 
L 327.932256 87.247525 
L 328.71168 87.247525 
L 328.71168 82.217822 
L 350.362163 82.217822 
L 350.362163 77.188119 
L 353.658515 77.188119 
L 353.658515 72.158416 
L 358.553715 72.158416 
L 358.553715 67.128713 
L 367.695074 67.128713 
L 367.695074 62.09901 
L 369.139653 62.09901 
L 369.139653 57.069307 
L 371.214009 57.069307 
L 371.225176 47.009901 
L 374.369723 47.009901 
L 374.369723 41.980198 
L 375.349277 41.980198 
L 375.349277 36.950495 
L 377.38087 36.950495 
L 377.38087 31.920792 
L 378.910653 31.920792 
L 378.910653 26.891089 
L 381.107664 26.891089 
L 381.107664 21.861386 
L 382.907634 21.861386 
L 382.907634 16.831683 
L 384.129352 16.831683 
L 384.129352 11.80198 
L 386.400812 11.80198 
L 386.400812 6.772277 
L 386.400812 6.772277 
L 567.24 6.772277 
L 567.24 6.772277 
" style="fill:none;stroke:#ff0000;stroke-linecap:square;stroke-width:3.0;"/>
   </g>
   <g id="line2d_2">
    <path clip-path="url(#p6c152892a2)" d="M 298.441676 384 
L 298.441676 378.970297 
L 305.234029 378.970297 
L 305.234029 373.940594 
L 305.822531 373.940594 
L 305.822531 368.910891 
L 307.146893 368.910891 
L 307.146893 363.881188 
L 308.947226 363.881188 
L 308.947226 358.851485 
L 312.947037 358.851485 
L 312.947037 353.821782 
L 313.888476 353.821782 
L 313.888476 348.792079 
L 315.197123 348.792079 
L 315.197123 343.762376 
L 316.021865 343.762376 
L 316.021865 338.732673 
L 317.956674 338.732673 
L 317.956674 333.70297 
L 319.387315 333.70297 
L 319.387315 328.673267 
L 320.131355 328.673267 
L 320.131355 323.643564 
L 320.962993 323.643564 
L 320.962993 318.613861 
L 321.832796 318.613861 
L 321.832796 313.584158 
L 323.271454 313.584158 
L 323.271454 308.554455 
L 324.024033 308.554455 
L 324.024033 303.524752 
L 326.355901 303.524752 
L 326.355901 298.49505 
L 326.729472 298.49505 
L 326.729472 293.465347 
L 328.106296 293.465347 
L 328.106296 288.435644 
L 328.71113 288.435644 
L 328.71113 283.405941 
L 331.585066 283.405941 
L 331.585066 278.376238 
L 332.844627 278.376238 
L 332.844627 273.346535 
L 333.039386 273.346535 
L 333.039386 268.316832 
L 333.891373 268.316832 
L 333.983591 253.227723 
L 334.137406 253.227723 
L 334.137406 248.19802 
L 334.82021 248.19802 
L 334.82021 243.168317 
L 335.102169 243.168317 
L 335.102169 238.138614 
L 335.841903 238.138614 
L 335.932374 207.960396 
L 337.256536 207.960396 
L 337.256536 202.930693 
L 337.64084 202.930693 
L 337.64084 197.90099 
L 338.155078 197.90099 
L 338.182071 182.811881 
L 338.302852 182.811881 
L 338.362094 172.752475 
L 338.904038 172.752475 
L 338.904038 167.722772 
L 342.475379 167.722772 
L 342.475379 162.693069 
L 342.705491 162.693069 
L 342.705491 157.663366 
L 343.85066 157.663366 
L 343.85066 152.633663 
L 344.002704 152.633663 
L 344.002704 147.60396 
L 344.243423 147.60396 
L 344.243423 142.574257 
L 345.900376 142.574257 
L 345.900376 137.544554 
L 346.023725 137.544554 
L 346.023725 132.514851 
L 347.344083 132.514851 
L 347.344083 127.485149 
L 347.80898 127.485149 
L 347.80898 122.455446 
L 348.072044 122.455446 
L 348.072044 117.425743 
L 348.404133 117.425743 
L 348.404133 112.39604 
L 348.517187 112.39604 
L 348.517187 107.366337 
L 349.168686 107.366337 
L 349.168686 102.336634 
L 355.687326 102.336634 
L 355.733407 92.277228 
L 355.883644 92.277228 
L 355.883644 87.247525 
L 356.583506 87.247525 
L 356.583506 82.217822 
L 405.886907 82.217822 
L 405.886907 77.188119 
L 435.555114 77.188119 
L 435.555114 72.158416 
L 451.679818 72.158416 
L 451.679818 67.128713 
L 452.879978 67.128713 
L 452.879978 62.09901 
L 477.57082 62.09901 
L 477.57082 57.069307 
L 479.433277 57.069307 
L 479.433277 52.039604 
L 483.643726 52.039604 
L 483.643726 47.009901 
L 484.13995 47.009901 
L 484.13995 41.980198 
L 487.640682 41.980198 
L 487.640682 36.950495 
L 491.088722 36.950495 
L 491.088722 31.920792 
L 493.511837 31.920792 
L 493.511837 26.891089 
L 498.76614 26.891089 
L 498.76614 21.861386 
L 500.916078 21.861386 
L 500.916078 16.831683 
L 503.823879 16.831683 
L 503.823879 11.80198 
L 504.675591 11.80198 
L 504.675591 6.772277 
L 504.675591 6.772277 
L 567.24 6.772277 
L 567.24 6.772277 
" style="fill:none;stroke:#00bfbf;stroke-linecap:square;"/>
   </g>
   <g id="line2d_3">
    <path clip-path="url(#p6c152892a2)" d="M 298.441676 384 
L 298.441676 378.970297 
L 302.935055 378.970297 
L 302.935055 373.940594 
L 305.234029 373.940594 
L 305.234029 368.910891 
L 305.822531 368.910891 
L 305.822531 363.881188 
L 307.146893 363.881188 
L 307.146893 358.851485 
L 312.947037 358.851485 
L 312.947037 353.821782 
L 313.888476 353.821782 
L 313.888476 348.792079 
L 315.197123 348.792079 
L 315.197123 343.762376 
L 316.021865 343.762376 
L 316.021865 338.732673 
L 317.956674 338.732673 
L 317.956674 333.70297 
L 319.387315 333.70297 
L 319.387315 328.673267 
L 320.09297 328.673267 
L 320.131355 318.613861 
L 320.962993 318.613861 
L 320.962993 313.584158 
L 321.33169 313.584158 
L 321.33169 308.554455 
L 321.832796 308.554455 
L 321.832796 303.524752 
L 323.379986 303.524752 
L 323.379986 298.49505 
L 324.024033 298.49505 
L 324.024033 293.465347 
L 325.71757 293.465347 
L 325.731747 283.405941 
L 326.355901 283.405941 
L 326.355901 278.376238 
L 326.729472 278.376238 
L 326.729472 273.346535 
L 327.013888 273.346535 
L 327.103741 263.287129 
L 328.106296 263.287129 
L 328.106296 258.257426 
L 328.71113 258.257426 
L 328.71113 253.227723 
L 328.951695 253.227723 
L 328.951695 248.19802 
L 329.639402 248.19802 
L 329.639402 243.168317 
L 331.585066 243.168317 
L 331.585066 238.138614 
L 333.039386 238.138614 
L 333.039386 233.108911 
L 333.327414 233.108911 
L 333.327414 228.079208 
L 333.699591 228.079208 
L 333.699591 223.049505 
L 333.842436 223.049505 
L 333.905753 207.960396 
L 333.983591 207.960396 
L 333.983591 202.930693 
L 334.137406 202.930693 
L 334.137406 197.90099 
L 334.340185 197.90099 
L 334.416629 187.841584 
L 335.199741 187.841584 
L 335.199741 182.811881 
L 337.256536 182.811881 
L 337.256536 177.782178 
L 337.64084 177.782178 
L 337.64084 172.752475 
L 337.863643 172.752475 
L 337.863643 167.722772 
L 338.155078 167.722772 
L 338.155078 162.693069 
L 338.302852 162.693069 
L 338.302852 157.663366 
L 338.904038 157.663366 
L 338.904038 152.633663 
L 339.385909 152.633663 
L 339.385909 147.60396 
L 340.156037 147.60396 
L 340.156037 142.574257 
L 341.940104 142.574257 
L 341.940104 137.544554 
L 342.28477 137.544554 
L 342.28477 132.514851 
L 342.404314 132.514851 
L 342.404314 127.485149 
L 342.693343 127.485149 
L 342.705491 117.425743 
L 344.002704 117.425743 
L 344.002704 112.39604 
L 344.243423 112.39604 
L 344.243423 107.366337 
L 345.900376 107.366337 
L 345.900376 102.336634 
L 347.115219 102.336634 
L 347.115219 97.306931 
L 348.404133 97.306931 
L 348.404133 92.277228 
L 348.517187 92.277228 
L 348.517187 87.247525 
L 349.325486 87.247525 
L 349.325486 82.217822 
L 405.886907 82.217822 
L 405.886907 77.188119 
L 435.555114 77.188119 
L 435.555114 72.158416 
L 436.867234 72.158416 
L 436.867234 67.128713 
L 449.2759 67.128713 
L 449.2759 62.09901 
L 451.679818 62.09901 
L 451.679818 57.069307 
L 452.879978 57.069307 
L 452.879978 52.039604 
L 453.265324 52.039604 
L 453.265324 47.009901 
L 472.175208 47.009901 
L 472.175208 41.980198 
L 475.473789 41.980198 
L 475.473789 36.950495 
L 477.57082 36.950495 
L 477.57082 31.920792 
L 478.067459 31.920792 
L 478.067459 26.891089 
L 478.379801 26.891089 
L 478.379801 21.861386 
L 478.619931 21.861386 
L 478.619931 16.831683 
L 479.279746 16.831683 
L 479.279746 11.80198 
L 480.188273 11.80198 
L 480.188273 6.772277 
L 480.188273 6.772277 
L 567.24 6.772277 
L 567.24 6.772277 
" style="fill:none;stroke:#bf00bf;stroke-linecap:square;"/>
   </g>
   <g id="line2d_4">
    <path clip-path="url(#p6c152892a2)" d="M 298.441676 384 
L 298.441676 378.970297 
L 302.935055 378.970297 
L 302.935055 373.940594 
L 305.234029 373.940594 
L 305.234029 368.910891 
L 305.822531 368.910891 
L 305.822531 363.881188 
L 307.146893 363.881188 
L 307.146893 358.851485 
L 309.636863 358.851485 
L 309.636863 353.821782 
L 310.587512 353.821782 
L 310.587512 348.792079 
L 310.790002 348.792079 
L 310.790002 343.762376 
L 312.947037 343.762376 
L 312.947037 338.732673 
L 313.888476 338.732673 
L 313.888476 333.70297 
L 315.014844 333.70297 
L 315.058798 323.643564 
L 317.956674 323.643564 
L 317.956674 318.613861 
L 320.09297 318.613861 
L 320.09297 313.584158 
L 320.962993 313.584158 
L 320.962993 308.554455 
L 321.33169 308.554455 
L 321.33169 303.524752 
L 321.772597 303.524752 
L 321.793752 293.465347 
L 323.379986 293.465347 
L 323.379986 288.435644 
L 323.49394 288.435644 
L 323.49394 283.405941 
L 324.024033 283.405941 
L 324.024033 278.376238 
L 325.71757 278.376238 
L 325.731747 268.316832 
L 326.729472 268.316832 
L 326.729472 263.287129 
L 327.013888 263.287129 
L 327.013888 258.257426 
L 328.106296 258.257426 
L 328.106296 253.227723 
L 328.71113 253.227723 
L 328.71113 248.19802 
L 329.251435 248.19802 
L 329.251435 243.168317 
L 329.639402 243.168317 
L 329.639402 238.138614 
L 331.144261 238.138614 
L 331.144261 233.108911 
L 331.575156 233.108911 
L 331.585066 223.049505 
L 331.873776 223.049505 
L 331.873776 218.019802 
L 333.038588 218.019802 
L 333.038588 212.990099 
L 333.327414 212.990099 
L 333.327414 207.960396 
L 333.699591 207.960396 
L 333.699591 202.930693 
L 333.891373 202.930693 
L 333.983591 187.841584 
L 334.137406 187.841584 
L 334.137406 182.811881 
L 334.839813 182.811881 
L 334.839813 177.782178 
L 335.199741 177.782178 
L 335.199741 172.752475 
L 337.256536 172.752475 
L 337.256536 167.722772 
L 337.510651 167.722772 
L 337.510651 162.693069 
L 337.64084 162.693069 
L 337.64084 157.663366 
L 337.863643 157.663366 
L 337.863643 152.633663 
L 338.155078 152.633663 
L 338.155078 147.60396 
L 338.904038 147.60396 
L 338.904038 142.574257 
L 339.173456 142.574257 
L 339.173456 137.544554 
L 340.07225 137.544554 
L 340.156037 127.485149 
L 340.650524 127.485149 
L 340.650524 122.455446 
L 341.940104 122.455446 
L 341.940104 117.425743 
L 342.28477 117.425743 
L 342.28477 112.39604 
L 342.404314 112.39604 
L 342.404314 107.366337 
L 342.693343 107.366337 
L 342.693343 102.336634 
L 343.46542 102.336634 
L 343.46542 97.306931 
L 346.72647 97.306931 
L 346.72647 92.277228 
L 347.5843 92.277228 
L 347.5843 87.247525 
L 347.979254 87.247525 
L 347.979254 82.217822 
L 405.886907 82.217822 
L 405.886907 77.188119 
L 435.555114 77.188119 
L 435.555114 72.158416 
L 436.867234 72.158416 
L 436.867234 67.128713 
L 449.2759 67.128713 
L 449.2759 62.09901 
L 451.679818 62.09901 
L 451.679818 57.069307 
L 452.510064 57.069307 
L 452.510064 52.039604 
L 452.879978 52.039604 
L 452.879978 47.009901 
L 453.265324 47.009901 
L 453.265324 41.980198 
L 457.997424 41.980198 
L 457.997424 36.950495 
L 458.331993 36.950495 
L 458.331993 31.920792 
L 459.161475 31.920792 
L 459.161475 26.891089 
L 461.088226 26.891089 
L 461.088226 21.861386 
L 466.448695 21.861386 
L 466.448695 16.831683 
L 473.319664 16.831683 
L 473.319664 11.80198 
L 478.379801 11.80198 
L 478.379801 6.772277 
L 478.379801 6.772277 
L 567.24 6.772277 
L 567.24 6.772277 
" style="fill:none;stroke:#000000;stroke-linecap:square;"/>
   </g>
   <g id="line2d_5">
    <path clip-path="url(#p6c152892a2)" d="M -1 343.762376 
L 69.755103 343.762376 
L 69.836248 333.70297 
L 71.11741 333.70297 
L 71.11741 328.673267 
L 74.649003 328.673267 
L 74.649003 323.643564 
L 75.174668 323.643564 
L 75.174668 318.613861 
L 75.425367 318.613861 
L 75.425367 313.584158 
L 76.545583 313.584158 
L 76.545583 308.554455 
L 301.140697 308.554455 
L 301.140697 303.524752 
L 305.061871 303.524752 
L 305.061871 298.49505 
L 307.81578 298.49505 
L 307.81578 293.465347 
L 308.693828 293.465347 
L 308.693828 288.435644 
L 309.894794 288.435644 
L 309.894794 283.405941 
L 310.300507 283.405941 
L 310.300507 278.376238 
L 311.490704 278.376238 
L 311.490704 273.346535 
L 314.425369 273.346535 
L 314.491946 263.287129 
L 315.003871 263.287129 
L 315.003871 258.257426 
L 315.217413 258.257426 
L 315.217413 253.227723 
L 318.200164 253.227723 
L 318.200164 248.19802 
L 318.427464 248.19802 
L 318.427464 243.168317 
L 320.149802 243.168317 
L 320.149802 238.138614 
L 322.872058 238.138614 
L 322.872058 233.108911 
L 329.251435 233.108911 
L 329.251435 228.079208 
L 329.639402 228.079208 
L 329.639402 223.049505 
L 331.585066 223.049505 
L 331.585066 218.019802 
L 333.038588 218.019802 
L 333.038588 212.990099 
L 333.327414 212.990099 
L 333.327414 207.960396 
L 333.699591 207.960396 
L 333.699591 202.930693 
L 333.891373 202.930693 
L 333.983591 187.841584 
L 334.137406 187.841584 
L 334.137406 182.811881 
L 334.839813 182.811881 
L 334.839813 177.782178 
L 335.199741 177.782178 
L 335.199741 172.752475 
L 336.730298 172.752475 
L 336.730298 167.722772 
L 337.256536 167.722772 
L 337.256536 162.693069 
L 337.510651 162.693069 
L 337.510651 157.663366 
L 337.64084 157.663366 
L 337.64084 152.633663 
L 337.863643 152.633663 
L 337.863643 147.60396 
L 338.155078 147.60396 
L 338.155078 142.574257 
L 338.904038 142.574257 
L 338.904038 137.544554 
L 339.173456 137.544554 
L 339.173456 132.514851 
L 340.07225 132.514851 
L 340.156037 122.455446 
L 340.650524 122.455446 
L 340.650524 117.425743 
L 341.27135 117.425743 
L 341.27135 112.39604 
L 341.940104 112.39604 
L 341.940104 107.366337 
L 342.404314 107.366337 
L 342.404314 102.336634 
L 342.693343 102.336634 
L 342.693343 97.306931 
L 343.46542 97.306931 
L 343.46542 92.277228 
L 347.5843 92.277228 
L 347.5843 87.247525 
L 347.979254 87.247525 
L 347.979254 82.217822 
L 405.886907 82.217822 
L 405.886907 77.188119 
L 435.555114 77.188119 
L 435.555114 72.158416 
L 436.867234 72.158416 
L 436.867234 67.128713 
L 449.2759 67.128713 
L 449.2759 62.09901 
L 451.679818 62.09901 
L 451.679818 57.069307 
L 452.510064 57.069307 
L 452.510064 52.039604 
L 452.879978 52.039604 
L 452.879978 47.009901 
L 453.265324 47.009901 
L 453.265324 41.980198 
L 457.997424 41.980198 
L 457.997424 36.950495 
L 458.331993 36.950495 
L 458.331993 31.920792 
L 459.161475 31.920792 
L 459.161475 26.891089 
L 461.088226 26.891089 
L 461.088226 21.861386 
L 462.112128 21.861386 
L 462.112128 16.831683 
L 466.448695 16.831683 
L 466.448695 11.80198 
L 478.379801 11.80198 
L 478.379801 6.772277 
L 478.379801 6.772277 
L 567.24 6.772277 
L 567.24 6.772277 
" style="fill:none;stroke:#00bfbf;stroke-linecap:square;"/>
   </g>
   <g id="line2d_6">
    <path clip-path="url(#p6c152892a2)" d="M -1 308.554455 
L 271.569072 308.554455 
L 271.569072 303.524752 
L 272.432645 303.524752 
L 272.432645 298.49505 
L 279.615733 298.49505 
L 279.615733 293.465347 
L 288.953183 293.465347 
L 288.953183 288.435644 
L 290.858387 288.435644 
L 290.858387 283.405941 
L 291.684508 283.405941 
L 291.684508 278.376238 
L 296.106788 278.376238 
L 296.106788 273.346535 
L 297.736911 273.346535 
L 297.736911 268.316832 
L 300.394579 268.316832 
L 300.394579 263.287129 
L 301.140697 263.287129 
L 301.140697 258.257426 
L 304.241731 258.257426 
L 304.321661 243.168317 
L 306.22323 243.168317 
L 306.22323 238.138614 
L 306.469131 238.138614 
L 306.469131 233.108911 
L 315.408103 233.108911 
L 315.408103 228.079208 
L 320.232561 228.079208 
L 320.232561 223.049505 
L 324.895536 223.049505 
L 324.895536 218.019802 
L 325.265649 218.019802 
L 325.265649 212.990099 
L 326.064415 212.990099 
L 326.064415 207.960396 
L 326.422631 207.960396 
L 326.422631 202.930693 
L 326.591854 202.930693 
L 326.591854 197.90099 
L 328.075743 197.90099 
L 328.127349 182.811881 
L 328.825055 182.811881 
L 328.825055 177.782178 
L 329.639402 177.782178 
L 329.639402 172.752475 
L 330.027534 172.752475 
L 330.133036 162.693069 
L 330.22516 162.693069 
L 330.22516 157.663366 
L 331.002835 157.663366 
L 331.002835 152.633663 
L 331.467145 152.633663 
L 331.467145 147.60396 
L 332.568786 147.60396 
L 332.568786 142.574257 
L 333.248428 142.574257 
L 333.327414 132.514851 
L 333.550769 132.514851 
L 333.550769 127.485149 
L 333.981128 127.485149 
L 334.018182 112.39604 
L 334.471462 112.39604 
L 334.471462 107.366337 
L 335.755687 107.366337 
L 335.755687 102.336634 
L 335.919334 102.336634 
L 335.919334 97.306931 
L 336.248154 97.306931 
L 336.248154 92.277228 
L 337.256536 92.277228 
L 337.256536 87.247525 
L 338.176181 87.247525 
L 338.176181 82.217822 
L 379.547177 82.217822 
L 379.547177 77.188119 
L 389.685549 77.188119 
L 389.685549 72.158416 
L 391.313586 72.158416 
L 391.313586 67.128713 
L 405.886907 67.128713 
L 405.886907 62.09901 
L 408.98218 62.09901 
L 408.98218 57.069307 
L 412.163255 57.069307 
L 412.163255 52.039604 
L 414.959156 52.039604 
L 414.959156 47.009901 
L 423.133897 47.009901 
L 423.133897 41.980198 
L 424.347474 41.980198 
L 424.347474 36.950495 
L 427.175152 36.950495 
L 427.175152 31.920792 
L 428.976289 31.920792 
L 428.976289 26.891089 
L 429.26785 26.891089 
L 429.26785 21.861386 
L 432.615714 21.861386 
L 432.615714 16.831683 
L 433.10648 16.831683 
L 433.10648 11.80198 
L 444.096473 11.80198 
L 444.096473 6.772277 
L 444.096473 6.772277 
L 567.24 6.772277 
L 567.24 6.772277 
" style="fill:none;stroke:#bf00bf;stroke-linecap:square;"/>
   </g>
   <g id="line2d_7">
    <path clip-path="url(#p6c152892a2)" d="M -1 308.554455 
L 2.856535 308.554455 
L 2.856535 233.108911 
L 315.408103 233.108911 
L 315.408103 228.079208 
L 320.221956 228.079208 
L 320.232561 218.019802 
L 321.965689 218.019802 
L 321.985925 207.960396 
L 322.23501 207.960396 
L 322.23501 202.930693 
L 322.51525 202.930693 
L 322.51525 197.90099 
L 323.243093 197.90099 
L 323.243093 192.871287 
L 323.634882 192.871287 
L 323.734522 182.811881 
L 324.075454 182.811881 
L 324.075454 177.782178 
L 324.895536 177.782178 
L 324.958283 167.722772 
L 325.032466 167.722772 
L 325.101221 157.663366 
L 325.390112 157.663366 
L 325.390112 152.633663 
L 326.422631 152.633663 
L 326.475551 142.574257 
L 326.742901 142.574257 
L 326.742901 137.544554 
L 326.999233 137.544554 
L 326.999233 132.514851 
L 327.520855 132.514851 
L 327.520855 127.485149 
L 328.285102 127.485149 
L 328.285102 122.455446 
L 328.71168 122.455446 
L 328.71168 117.425743 
L 329.164896 117.425743 
L 329.16921 107.366337 
L 329.509788 107.366337 
L 329.509788 102.336634 
L 330.027534 102.336634 
L 330.027534 97.306931 
L 330.520083 97.306931 
L 330.520083 92.277228 
L 330.760483 92.277228 
L 330.760483 87.247525 
L 333.414191 87.247525 
L 333.414191 82.217822 
L 379.350019 82.217822 
L 379.350019 77.188119 
L 383.162996 77.188119 
L 383.162996 72.158416 
L 387.470047 72.158416 
L 387.470047 67.128713 
L 389.685549 67.128713 
L 389.685549 62.09901 
L 391.313586 62.09901 
L 391.313586 57.069307 
L 393.882113 57.069307 
L 393.882113 52.039604 
L 395.192214 52.039604 
L 395.192214 47.009901 
L 396.673925 47.009901 
L 396.673925 41.980198 
L 397.395035 41.980198 
L 397.395035 36.950495 
L 398.506484 36.950495 
L 398.506484 31.920792 
L 402.027028 31.920792 
L 402.027028 26.891089 
L 402.83068 26.891089 
L 402.83068 21.861386 
L 405.472886 21.861386 
L 405.472886 16.831683 
L 406.90393 16.831683 
L 406.90393 11.80198 
L 408.935735 11.80198 
L 408.935735 6.772277 
L 408.935735 6.772277 
L 567.24 6.772277 
L 567.24 6.772277 
" style="fill:none;stroke:#000000;stroke-linecap:square;"/>
   </g>
   <g id="line2d_8">
    <path clip-path="url(#p6c152892a2)" d="M -1 308.554455 
L 2.856535 308.554455 
L 2.856535 233.108911 
L 312.59822 233.108911 
L 312.59822 228.079208 
L 313.477521 228.079208 
L 313.477521 223.049505 
L 315.168689 223.049505 
L 315.168689 218.019802 
L 315.408103 218.019802 
L 315.408103 212.990099 
L 316.161427 212.990099 
L 316.161427 207.960396 
L 316.715471 207.960396 
L 316.715471 202.930693 
L 317.674469 202.930693 
L 317.674469 197.90099 
L 317.807901 197.90099 
L 317.807901 192.871287 
L 318.287191 192.871287 
L 318.287191 187.841584 
L 319.053392 187.841584 
L 319.053392 182.811881 
L 319.898031 182.811881 
L 319.913894 167.722772 
L 320.442497 167.722772 
L 320.462427 157.663366 
L 320.906055 157.663366 
L 320.906055 152.633663 
L 321.2461 152.633663 
L 321.2461 147.60396 
L 321.575604 147.60396 
L 321.575604 142.574257 
L 321.736407 142.574257 
L 321.736407 137.544554 
L 321.985925 137.544554 
L 321.985925 132.514851 
L 323.102696 132.514851 
L 323.102696 127.485149 
L 323.226902 127.485149 
L 323.226902 122.455446 
L 323.826102 122.455446 
L 323.826102 117.425743 
L 324.075454 117.425743 
L 324.075454 112.39604 
L 324.265677 112.39604 
L 324.265677 107.366337 
L 324.9789 107.366337 
L 324.9789 102.336634 
L 326.265774 102.336634 
L 326.265774 97.306931 
L 326.694128 97.306931 
L 326.694128 92.277228 
L 327.932256 92.277228 
L 327.932256 87.247525 
L 328.71168 87.247525 
L 328.71168 82.217822 
L 350.362163 82.217822 
L 350.362163 77.188119 
L 353.658515 77.188119 
L 353.658515 72.158416 
L 358.553715 72.158416 
L 358.553715 67.128713 
L 367.695074 67.128713 
L 367.695074 62.09901 
L 369.139653 62.09901 
L 369.139653 57.069307 
L 371.214009 57.069307 
L 371.225176 47.009901 
L 374.369723 47.009901 
L 374.369723 41.980198 
L 375.349277 41.980198 
L 375.349277 36.950495 
L 377.38087 36.950495 
L 377.38087 31.920792 
L 378.910653 31.920792 
L 378.910653 26.891089 
L 381.107664 26.891089 
L 381.107664 21.861386 
L 382.907634 21.861386 
L 382.907634 16.831683 
L 384.129352 16.831683 
L 384.129352 11.80198 
L 386.400812 11.80198 
L 386.400812 6.772277 
L 386.400812 6.772277 
L 567.24 6.772277 
L 567.24 6.772277 
" style="fill:none;stroke:#00bfbf;stroke-linecap:square;"/>
   </g>
   <g id="patch_3">
    <path d="M 3 3 
L 567.24 3 
" style="fill:none;stroke:#000000;stroke-linecap:square;stroke-linejoin:miter;"/>
   </g>
   <g id="patch_4">
    <path d="M 567.24 384 
L 567.24 3 
" style="fill:none;stroke:#000000;stroke-linecap:square;stroke-linejoin:miter;"/>
   </g>
   <g id="patch_5">
    <path d="M 3 384 
L 567.24 384 
" style="fill:none;stroke:#000000;stroke-linecap:square;stroke-linejoin:miter;"/>
   </g>
   <g id="patch_6">
    <path d="M 3 384 
L 3 3 
" style="fill:none;stroke:#000000;stroke-linecap:square;stroke-linejoin:miter;"/>
   </g>
   <g id="matplotlib.axis_1">
    <g id="xtick_1"/>
    <g id="xtick_2">
     <g id="line2d_9">
      <path clip-path="url(#p6c152892a2)" d="M 69.254589 384 
L 69.254589 3 
" style="fill:none;stroke:#000000;stroke-dasharray:1.000000,3.000000;stroke-dashoffset:0.0;stroke-width:0.5;"/>
     </g>
     <g id="line2d_10">
      <defs>
       <path d="M 0 0 
L 0 -4 
" id="m5318b5c0ff" style="stroke:#000000;stroke-width:0.5;"/>
      </defs>
      <g>
       <use style="stroke:#000000;stroke-width:0.5;" x="69.2545893472" xlink:href="#m5318b5c0ff" y="384.0"/>
      </g>
     </g>
     <g id="line2d_11">
      <defs>
       <path d="M 0 0 
L 0 4 
" id="m1944634c71" style="stroke:#000000;stroke-width:0.5;"/>
      </defs>
      <g>
       <use style="stroke:#000000;stroke-width:0.5;" x="69.2545893472" xlink:href="#m1944634c71" y="3.0"/>
      </g>
     </g>
     <g id="text_1">
      <!-- -6 -->
      <defs>
       <path d="M 33.015625 40.375 
Q 26.375 40.375 22.484375 35.828125 
Q 18.609375 31.296875 18.609375 23.390625 
Q 18.609375 15.53125 22.484375 10.953125 
Q 26.375 6.390625 33.015625 6.390625 
Q 39.65625 6.390625 43.53125 10.953125 
Q 47.40625 15.53125 47.40625 23.390625 
Q 47.40625 31.296875 43.53125 35.828125 
Q 39.65625 40.375 33.015625 40.375 
M 52.59375 71.296875 
L 52.59375 62.3125 
Q 48.875 64.0625 45.09375 64.984375 
Q 41.3125 65.921875 37.59375 65.921875 
Q 27.828125 65.921875 22.671875 59.328125 
Q 17.53125 52.734375 16.796875 39.40625 
Q 19.671875 43.65625 24.015625 45.921875 
Q 28.375 48.1875 33.59375 48.1875 
Q 44.578125 48.1875 50.953125 41.515625 
Q 57.328125 34.859375 57.328125 23.390625 
Q 57.328125 12.15625 50.6875 5.359375 
Q 44.046875 -1.421875 33.015625 -1.421875 
Q 20.359375 -1.421875 13.671875 8.265625 
Q 6.984375 17.96875 6.984375 36.375 
Q 6.984375 53.65625 15.1875 63.9375 
Q 23.390625 74.21875 37.203125 74.21875 
Q 40.921875 74.21875 44.703125 73.484375 
Q 48.484375 72.75 52.59375 71.296875 
" id="BitstreamVeraSans-Roman-36"/>
       <path d="M 4.890625 31.390625 
L 31.203125 31.390625 
L 31.203125 23.390625 
L 4.890625 23.390625 
z
" id="BitstreamVeraSans-Roman-2d"/>
      </defs>
      <g transform="translate(59.2842768472 403.196875)scale(0.2 -0.2)">
       <use xlink:href="#BitstreamVeraSans-Roman-2d"/>
       <use x="36.083984375" xlink:href="#BitstreamVeraSans-Roman-36"/>
      </g>
     </g>
    </g>
    <g id="xtick_3">
     <g id="line2d_12">
      <path clip-path="url(#p6c152892a2)" d="M 135.652644 384 
L 135.652644 3 
" style="fill:none;stroke:#000000;stroke-dasharray:1.000000,3.000000;stroke-dashoffset:0.0;stroke-width:0.5;"/>
     </g>
     <g id="line2d_13">
      <g>
       <use style="stroke:#000000;stroke-width:0.5;" x="135.652644101" xlink:href="#m5318b5c0ff" y="384.0"/>
      </g>
     </g>
     <g id="line2d_14">
      <g>
       <use style="stroke:#000000;stroke-width:0.5;" x="135.652644101" xlink:href="#m1944634c71" y="3.0"/>
      </g>
     </g>
     <g id="text_2">
      <!-- -4 -->
      <defs>
       <path d="M 37.796875 64.3125 
L 12.890625 25.390625 
L 37.796875 25.390625 
z
M 35.203125 72.90625 
L 47.609375 72.90625 
L 47.609375 25.390625 
L 58.015625 25.390625 
L 58.015625 17.1875 
L 47.609375 17.1875 
L 47.609375 0 
L 37.796875 0 
L 37.796875 17.1875 
L 4.890625 17.1875 
L 4.890625 26.703125 
z
" id="BitstreamVeraSans-Roman-34"/>
      </defs>
      <g transform="translate(125.682331601 403.196875)scale(0.2 -0.2)">
       <use xlink:href="#BitstreamVeraSans-Roman-2d"/>
       <use x="36.083984375" xlink:href="#BitstreamVeraSans-Roman-34"/>
      </g>
     </g>
    </g>
    <g id="xtick_4">
     <g id="line2d_15">
      <path clip-path="url(#p6c152892a2)" d="M 202.050699 384 
L 202.050699 3 
" style="fill:none;stroke:#000000;stroke-dasharray:1.000000,3.000000;stroke-dashoffset:0.0;stroke-width:0.5;"/>
     </g>
     <g id="line2d_16">
      <g>
       <use style="stroke:#000000;stroke-width:0.5;" x="202.050698855" xlink:href="#m5318b5c0ff" y="384.0"/>
      </g>
     </g>
     <g id="line2d_17">
      <g>
       <use style="stroke:#000000;stroke-width:0.5;" x="202.050698855" xlink:href="#m1944634c71" y="3.0"/>
      </g>
     </g>
     <g id="text_3">
      <!-- -2 -->
      <defs>
       <path d="M 19.1875 8.296875 
L 53.609375 8.296875 
L 53.609375 0 
L 7.328125 0 
L 7.328125 8.296875 
Q 12.9375 14.109375 22.625 23.890625 
Q 32.328125 33.6875 34.8125 36.53125 
Q 39.546875 41.84375 41.421875 45.53125 
Q 43.3125 49.21875 43.3125 52.78125 
Q 43.3125 58.59375 39.234375 62.25 
Q 35.15625 65.921875 28.609375 65.921875 
Q 23.96875 65.921875 18.8125 64.3125 
Q 13.671875 62.703125 7.8125 59.421875 
L 7.8125 69.390625 
Q 13.765625 71.78125 18.9375 73 
Q 24.125 74.21875 28.421875 74.21875 
Q 39.75 74.21875 46.484375 68.546875 
Q 53.21875 62.890625 53.21875 53.421875 
Q 53.21875 48.921875 51.53125 44.890625 
Q 49.859375 40.875 45.40625 35.40625 
Q 44.1875 33.984375 37.640625 27.21875 
Q 31.109375 20.453125 19.1875 8.296875 
" id="BitstreamVeraSans-Roman-32"/>
      </defs>
      <g transform="translate(192.080386355 403.196875)scale(0.2 -0.2)">
       <use xlink:href="#BitstreamVeraSans-Roman-2d"/>
       <use x="36.083984375" xlink:href="#BitstreamVeraSans-Roman-32"/>
      </g>
     </g>
    </g>
    <g id="xtick_5">
     <g id="line2d_18">
      <path clip-path="url(#p6c152892a2)" d="M 268.448754 384 
L 268.448754 3 
" style="fill:none;stroke:#000000;stroke-dasharray:1.000000,3.000000;stroke-dashoffset:0.0;stroke-width:0.5;"/>
     </g>
     <g id="line2d_19">
      <g>
       <use style="stroke:#000000;stroke-width:0.5;" x="268.448753608" xlink:href="#m5318b5c0ff" y="384.0"/>
      </g>
     </g>
     <g id="line2d_20">
      <g>
       <use style="stroke:#000000;stroke-width:0.5;" x="268.448753608" xlink:href="#m1944634c71" y="3.0"/>
      </g>
     </g>
     <g id="text_4">
      <!-- 0 -->
      <defs>
       <path d="M 31.78125 66.40625 
Q 24.171875 66.40625 20.328125 58.90625 
Q 16.5 51.421875 16.5 36.375 
Q 16.5 21.390625 20.328125 13.890625 
Q 24.171875 6.390625 31.78125 6.390625 
Q 39.453125 6.390625 43.28125 13.890625 
Q 47.125 21.390625 47.125 36.375 
Q 47.125 51.421875 43.28125 58.90625 
Q 39.453125 66.40625 31.78125 66.40625 
M 31.78125 74.21875 
Q 44.046875 74.21875 50.515625 64.515625 
Q 56.984375 54.828125 56.984375 36.375 
Q 56.984375 17.96875 50.515625 8.265625 
Q 44.046875 -1.421875 31.78125 -1.421875 
Q 19.53125 -1.421875 13.0625 8.265625 
Q 6.59375 17.96875 6.59375 36.375 
Q 6.59375 54.828125 13.0625 64.515625 
Q 19.53125 74.21875 31.78125 74.21875 
" id="BitstreamVeraSans-Roman-30"/>
      </defs>
      <g transform="translate(262.086253608 403.196875)scale(0.2 -0.2)">
       <use xlink:href="#BitstreamVeraSans-Roman-30"/>
      </g>
     </g>
    </g>
    <g id="xtick_6">
     <g id="line2d_21">
      <path clip-path="url(#p6c152892a2)" d="M 334.846808 384 
L 334.846808 3 
" style="fill:none;stroke:#000000;stroke-dasharray:1.000000,3.000000;stroke-dashoffset:0.0;stroke-width:0.5;"/>
     </g>
     <g id="line2d_22">
      <g>
       <use style="stroke:#000000;stroke-width:0.5;" x="334.846808362" xlink:href="#m5318b5c0ff" y="384.0"/>
      </g>
     </g>
     <g id="line2d_23">
      <g>
       <use style="stroke:#000000;stroke-width:0.5;" x="334.846808362" xlink:href="#m1944634c71" y="3.0"/>
      </g>
     </g>
     <g id="text_5">
      <!-- 2 -->
      <g transform="translate(328.484308362 403.196875)scale(0.2 -0.2)">
       <use xlink:href="#BitstreamVeraSans-Roman-32"/>
      </g>
     </g>
    </g>
    <g id="xtick_7">
     <g id="line2d_24">
      <path clip-path="url(#p6c152892a2)" d="M 401.244863 384 
L 401.244863 3 
" style="fill:none;stroke:#000000;stroke-dasharray:1.000000,3.000000;stroke-dashoffset:0.0;stroke-width:0.5;"/>
     </g>
     <g id="line2d_25">
      <g>
       <use style="stroke:#000000;stroke-width:0.5;" x="401.244863116" xlink:href="#m5318b5c0ff" y="384.0"/>
      </g>
     </g>
     <g id="line2d_26">
      <g>
       <use style="stroke:#000000;stroke-width:0.5;" x="401.244863116" xlink:href="#m1944634c71" y="3.0"/>
      </g>
     </g>
     <g id="text_6">
      <!-- 4 -->
      <g transform="translate(394.882363116 403.196875)scale(0.2 -0.2)">
       <use xlink:href="#BitstreamVeraSans-Roman-34"/>
      </g>
     </g>
    </g>
    <g id="xtick_8">
     <g id="line2d_27">
      <path clip-path="url(#p6c152892a2)" d="M 467.642918 384 
L 467.642918 3 
" style="fill:none;stroke:#000000;stroke-dasharray:1.000000,3.000000;stroke-dashoffset:0.0;stroke-width:0.5;"/>
     </g>
     <g id="line2d_28">
      <g>
       <use style="stroke:#000000;stroke-width:0.5;" x="467.642917869" xlink:href="#m5318b5c0ff" y="384.0"/>
      </g>
     </g>
     <g id="line2d_29">
      <g>
       <use style="stroke:#000000;stroke-width:0.5;" x="467.642917869" xlink:href="#m1944634c71" y="3.0"/>
      </g>
     </g>
     <g id="text_7">
      <!-- 6 -->
      <g transform="translate(461.280417869 403.196875)scale(0.2 -0.2)">
       <use xlink:href="#BitstreamVeraSans-Roman-36"/>
      </g>
     </g>
    </g>
    <g id="xtick_9">
     <g id="line2d_30">
      <path clip-path="url(#p6c152892a2)" d="M 534.040973 384 
L 534.040973 3 
" style="fill:none;stroke:#000000;stroke-dasharray:1.000000,3.000000;stroke-dashoffset:0.0;stroke-width:0.5;"/>
     </g>
     <g id="line2d_31">
      <g>
       <use style="stroke:#000000;stroke-width:0.5;" x="534.040972623" xlink:href="#m5318b5c0ff" y="384.0"/>
      </g>
     </g>
     <g id="line2d_32">
      <g>
       <use style="stroke:#000000;stroke-width:0.5;" x="534.040972623" xlink:href="#m1944634c71" y="3.0"/>
      </g>
     </g>
     <g id="text_8">
      <!-- 8 -->
      <defs>
       <path d="M 31.78125 34.625 
Q 24.75 34.625 20.71875 30.859375 
Q 16.703125 27.09375 16.703125 20.515625 
Q 16.703125 13.921875 20.71875 10.15625 
Q 24.75 6.390625 31.78125 6.390625 
Q 38.8125 6.390625 42.859375 10.171875 
Q 46.921875 13.96875 46.921875 20.515625 
Q 46.921875 27.09375 42.890625 30.859375 
Q 38.875 34.625 31.78125 34.625 
M 21.921875 38.8125 
Q 15.578125 40.375 12.03125 44.71875 
Q 8.5 49.078125 8.5 55.328125 
Q 8.5 64.0625 14.71875 69.140625 
Q 20.953125 74.21875 31.78125 74.21875 
Q 42.671875 74.21875 48.875 69.140625 
Q 55.078125 64.0625 55.078125 55.328125 
Q 55.078125 49.078125 51.53125 44.71875 
Q 48 40.375 41.703125 38.8125 
Q 48.828125 37.15625 52.796875 32.3125 
Q 56.78125 27.484375 56.78125 20.515625 
Q 56.78125 9.90625 50.3125 4.234375 
Q 43.84375 -1.421875 31.78125 -1.421875 
Q 19.734375 -1.421875 13.25 4.234375 
Q 6.78125 9.90625 6.78125 20.515625 
Q 6.78125 27.484375 10.78125 32.3125 
Q 14.796875 37.15625 21.921875 38.8125 
M 18.3125 54.390625 
Q 18.3125 48.734375 21.84375 45.5625 
Q 25.390625 42.390625 31.78125 42.390625 
Q 38.140625 42.390625 41.71875 45.5625 
Q 45.3125 48.734375 45.3125 54.390625 
Q 45.3125 60.0625 41.71875 63.234375 
Q 38.140625 66.40625 31.78125 66.40625 
Q 25.390625 66.40625 21.84375 63.234375 
Q 18.3125 60.0625 18.3125 54.390625 
" id="BitstreamVeraSans-Roman-38"/>
      </defs>
      <g transform="translate(527.678472623 403.196875)scale(0.2 -0.2)">
       <use xlink:href="#BitstreamVeraSans-Roman-38"/>
      </g>
     </g>
    </g>
    <g id="xtick_10"/>
    <g id="xtick_11">
     <g id="line2d_33">
      <defs>
       <path d="M 0 0 
L 0 -2 
" id="me153669257" style="stroke:#000000;stroke-width:0.5;"/>
      </defs>
      <g>
       <use style="stroke:#000000;stroke-width:0.5;" x="69.2545893472" xlink:href="#me153669257" y="384.0"/>
      </g>
     </g>
     <g id="line2d_34">
      <defs>
       <path d="M 0 0 
L 0 2 
" id="m47c63d368e" style="stroke:#000000;stroke-width:0.5;"/>
      </defs>
      <g>
       <use style="stroke:#000000;stroke-width:0.5;" x="69.2545893472" xlink:href="#m47c63d368e" y="3.0"/>
      </g>
     </g>
    </g>
    <g id="xtick_12">
     <g id="line2d_35">
      <g>
       <use style="stroke:#000000;stroke-width:0.5;" x="135.652644101" xlink:href="#me153669257" y="384.0"/>
      </g>
     </g>
     <g id="line2d_36">
      <g>
       <use style="stroke:#000000;stroke-width:0.5;" x="135.652644101" xlink:href="#m47c63d368e" y="3.0"/>
      </g>
     </g>
    </g>
    <g id="xtick_13">
     <g id="line2d_37">
      <g>
       <use style="stroke:#000000;stroke-width:0.5;" x="202.050698855" xlink:href="#me153669257" y="384.0"/>
      </g>
     </g>
     <g id="line2d_38">
      <g>
       <use style="stroke:#000000;stroke-width:0.5;" x="202.050698855" xlink:href="#m47c63d368e" y="3.0"/>
      </g>
     </g>
    </g>
    <g id="xtick_14">
     <g id="line2d_39">
      <g>
       <use style="stroke:#000000;stroke-width:0.5;" x="268.448753608" xlink:href="#me153669257" y="384.0"/>
      </g>
     </g>
     <g id="line2d_40">
      <g>
       <use style="stroke:#000000;stroke-width:0.5;" x="268.448753608" xlink:href="#m47c63d368e" y="3.0"/>
      </g>
     </g>
    </g>
    <g id="xtick_15">
     <g id="line2d_41">
      <g>
       <use style="stroke:#000000;stroke-width:0.5;" x="334.846808362" xlink:href="#me153669257" y="384.0"/>
      </g>
     </g>
     <g id="line2d_42">
      <g>
       <use style="stroke:#000000;stroke-width:0.5;" x="334.846808362" xlink:href="#m47c63d368e" y="3.0"/>
      </g>
     </g>
    </g>
    <g id="xtick_16">
     <g id="line2d_43">
      <g>
       <use style="stroke:#000000;stroke-width:0.5;" x="401.244863116" xlink:href="#me153669257" y="384.0"/>
      </g>
     </g>
     <g id="line2d_44">
      <g>
       <use style="stroke:#000000;stroke-width:0.5;" x="401.244863116" xlink:href="#m47c63d368e" y="3.0"/>
      </g>
     </g>
    </g>
    <g id="xtick_17">
     <g id="line2d_45">
      <g>
       <use style="stroke:#000000;stroke-width:0.5;" x="467.642917869" xlink:href="#me153669257" y="384.0"/>
      </g>
     </g>
     <g id="line2d_46">
      <g>
       <use style="stroke:#000000;stroke-width:0.5;" x="467.642917869" xlink:href="#m47c63d368e" y="3.0"/>
      </g>
     </g>
    </g>
    <g id="xtick_18">
     <g id="line2d_47">
      <g>
       <use style="stroke:#000000;stroke-width:0.5;" x="534.040972623" xlink:href="#me153669257" y="384.0"/>
      </g>
     </g>
     <g id="line2d_48">
      <g>
       <use style="stroke:#000000;stroke-width:0.5;" x="534.040972623" xlink:href="#m47c63d368e" y="3.0"/>
      </g>
     </g>
    </g>
    <g id="text_9">
     <!-- log10 of Df -->
     <defs>
      <path id="BitstreamVeraSans-Roman-20"/>
      <path d="M 12.40625 8.296875 
L 28.515625 8.296875 
L 28.515625 63.921875 
L 10.984375 60.40625 
L 10.984375 69.390625 
L 28.421875 72.90625 
L 38.28125 72.90625 
L 38.28125 8.296875 
L 54.390625 8.296875 
L 54.390625 0 
L 12.40625 0 
z
" id="BitstreamVeraSans-Roman-31"/>
      <path d="M 30.609375 48.390625 
Q 23.390625 48.390625 19.1875 42.75 
Q 14.984375 37.109375 14.984375 27.296875 
Q 14.984375 17.484375 19.15625 11.84375 
Q 23.34375 6.203125 30.609375 6.203125 
Q 37.796875 6.203125 41.984375 11.859375 
Q 46.1875 17.53125 46.1875 27.296875 
Q 46.1875 37.015625 41.984375 42.703125 
Q 37.796875 48.390625 30.609375 48.390625 
M 30.609375 56 
Q 42.328125 56 49.015625 48.375 
Q 55.71875 40.765625 55.71875 27.296875 
Q 55.71875 13.875 49.015625 6.21875 
Q 42.328125 -1.421875 30.609375 -1.421875 
Q 18.84375 -1.421875 12.171875 6.21875 
Q 5.515625 13.875 5.515625 27.296875 
Q 5.515625 40.765625 12.171875 48.375 
Q 18.84375 56 30.609375 56 
" id="BitstreamVeraSans-Roman-6f"/>
      <path d="M 9.421875 75.984375 
L 18.40625 75.984375 
L 18.40625 0 
L 9.421875 0 
z
" id="BitstreamVeraSans-Roman-6c"/>
      <path d="M 19.671875 64.796875 
L 19.671875 8.109375 
L 31.59375 8.109375 
Q 46.6875 8.109375 53.6875 14.9375 
Q 60.6875 21.78125 60.6875 36.53125 
Q 60.6875 51.171875 53.6875 57.984375 
Q 46.6875 64.796875 31.59375 64.796875 
z
M 9.8125 72.90625 
L 30.078125 72.90625 
Q 51.265625 72.90625 61.171875 64.09375 
Q 71.09375 55.28125 71.09375 36.53125 
Q 71.09375 17.671875 61.125 8.828125 
Q 51.171875 0 30.078125 0 
L 9.8125 0 
z
" id="BitstreamVeraSans-Roman-44"/>
      <path d="M 45.40625 27.984375 
Q 45.40625 37.75 41.375 43.109375 
Q 37.359375 48.484375 30.078125 48.484375 
Q 22.859375 48.484375 18.828125 43.109375 
Q 14.796875 37.75 14.796875 27.984375 
Q 14.796875 18.265625 18.828125 12.890625 
Q 22.859375 7.515625 30.078125 7.515625 
Q 37.359375 7.515625 41.375 12.890625 
Q 45.40625 18.265625 45.40625 27.984375 
M 54.390625 6.78125 
Q 54.390625 -7.171875 48.1875 -13.984375 
Q 42 -20.796875 29.203125 -20.796875 
Q 24.46875 -20.796875 20.265625 -20.09375 
Q 16.0625 -19.390625 12.109375 -17.921875 
L 12.109375 -9.1875 
Q 16.0625 -11.328125 19.921875 -12.34375 
Q 23.78125 -13.375 27.78125 -13.375 
Q 36.625 -13.375 41.015625 -8.765625 
Q 45.40625 -4.15625 45.40625 5.171875 
L 45.40625 9.625 
Q 42.625 4.78125 38.28125 2.390625 
Q 33.9375 0 27.875 0 
Q 17.828125 0 11.671875 7.65625 
Q 5.515625 15.328125 5.515625 27.984375 
Q 5.515625 40.671875 11.671875 48.328125 
Q 17.828125 56 27.875 56 
Q 33.9375 56 38.28125 53.609375 
Q 42.625 51.21875 45.40625 46.390625 
L 45.40625 54.6875 
L 54.390625 54.6875 
z
" id="BitstreamVeraSans-Roman-67"/>
      <path d="M 37.109375 75.984375 
L 37.109375 68.5 
L 28.515625 68.5 
Q 23.6875 68.5 21.796875 66.546875 
Q 19.921875 64.59375 19.921875 59.515625 
L 19.921875 54.6875 
L 34.71875 54.6875 
L 34.71875 47.703125 
L 19.921875 47.703125 
L 19.921875 0 
L 10.890625 0 
L 10.890625 47.703125 
L 2.296875 47.703125 
L 2.296875 54.6875 
L 10.890625 54.6875 
L 10.890625 58.5 
Q 10.890625 67.625 15.140625 71.796875 
Q 19.390625 75.984375 28.609375 75.984375 
z
" id="BitstreamVeraSans-Roman-66"/>
     </defs>
     <g transform="translate(229.9340625 427.553125)scale(0.2 -0.2)">
      <use xlink:href="#BitstreamVeraSans-Roman-6c"/>
      <use x="27.783203125" xlink:href="#BitstreamVeraSans-Roman-6f"/>
      <use x="88.96484375" xlink:href="#BitstreamVeraSans-Roman-67"/>
      <use x="152.44140625" xlink:href="#BitstreamVeraSans-Roman-31"/>
      <use x="216.064453125" xlink:href="#BitstreamVeraSans-Roman-30"/>
      <use x="279.6875" xlink:href="#BitstreamVeraSans-Roman-20"/>
      <use x="311.474609375" xlink:href="#BitstreamVeraSans-Roman-6f"/>
      <use x="372.65625" xlink:href="#BitstreamVeraSans-Roman-66"/>
      <use x="407.861328125" xlink:href="#BitstreamVeraSans-Roman-20"/>
      <use x="439.6484375" xlink:href="#BitstreamVeraSans-Roman-44"/>
      <use x="516.650390625" xlink:href="#BitstreamVeraSans-Roman-66"/>
     </g>
    </g>
   </g>
   <g id="matplotlib.axis_2">
    <g id="ytick_1">
     <g id="line2d_49">
      <path clip-path="url(#p6c152892a2)" d="M 3 384 
L 567.24 384 
" style="fill:none;stroke:#000000;stroke-dasharray:1.000000,3.000000;stroke-dashoffset:0.0;stroke-width:0.5;"/>
     </g>
     <g id="line2d_50">
      <defs>
       <path d="M 0 0 
L 4 0 
" id="m843049b41b" style="stroke:#000000;stroke-width:0.5;"/>
      </defs>
      <g>
       <use style="stroke:#000000;stroke-width:0.5;" x="3.0" xlink:href="#m843049b41b" y="384.0"/>
      </g>
     </g>
     <g id="line2d_51">
      <defs>
       <path d="M 0 0 
L -4 0 
" id="m5da776fe83" style="stroke:#000000;stroke-width:0.5;"/>
      </defs>
      <g>
       <use style="stroke:#000000;stroke-width:0.5;" x="567.24" xlink:href="#m5da776fe83" y="384.0"/>
      </g>
     </g>
    </g>
    <g id="ytick_2">
     <g id="line2d_52">
      <path clip-path="url(#p6c152892a2)" d="M 3 308.554455 
L 567.24 308.554455 
" style="fill:none;stroke:#000000;stroke-dasharray:1.000000,3.000000;stroke-dashoffset:0.0;stroke-width:0.5;"/>
     </g>
     <g id="line2d_53">
      <g>
       <use style="stroke:#000000;stroke-width:0.5;" x="3.0" xlink:href="#m843049b41b" y="308.554455446"/>
      </g>
     </g>
     <g id="line2d_54">
      <g>
       <use style="stroke:#000000;stroke-width:0.5;" x="567.24" xlink:href="#m5da776fe83" y="308.554455446"/>
      </g>
     </g>
    </g>
    <g id="ytick_3">
     <g id="line2d_55">
      <path clip-path="url(#p6c152892a2)" d="M 3 233.108911 
L 567.24 233.108911 
" style="fill:none;stroke:#000000;stroke-dasharray:1.000000,3.000000;stroke-dashoffset:0.0;stroke-width:0.5;"/>
     </g>
     <g id="line2d_56">
      <g>
       <use style="stroke:#000000;stroke-width:0.5;" x="3.0" xlink:href="#m843049b41b" y="233.108910891"/>
      </g>
     </g>
     <g id="line2d_57">
      <g>
       <use style="stroke:#000000;stroke-width:0.5;" x="567.24" xlink:href="#m5da776fe83" y="233.108910891"/>
      </g>
     </g>
    </g>
    <g id="ytick_4">
     <g id="line2d_58">
      <path clip-path="url(#p6c152892a2)" d="M 3 157.663366 
L 567.24 157.663366 
" style="fill:none;stroke:#000000;stroke-dasharray:1.000000,3.000000;stroke-dashoffset:0.0;stroke-width:0.5;"/>
     </g>
     <g id="line2d_59">
      <g>
       <use style="stroke:#000000;stroke-width:0.5;" x="3.0" xlink:href="#m843049b41b" y="157.663366337"/>
      </g>
     </g>
     <g id="line2d_60">
      <g>
       <use style="stroke:#000000;stroke-width:0.5;" x="567.24" xlink:href="#m5da776fe83" y="157.663366337"/>
      </g>
     </g>
    </g>
    <g id="ytick_5">
     <g id="line2d_61">
      <path clip-path="url(#p6c152892a2)" d="M 3 82.217822 
L 567.24 82.217822 
" style="fill:none;stroke:#000000;stroke-dasharray:1.000000,3.000000;stroke-dashoffset:0.0;stroke-width:0.5;"/>
     </g>
     <g id="line2d_62">
      <g>
       <use style="stroke:#000000;stroke-width:0.5;" x="3.0" xlink:href="#m843049b41b" y="82.2178217822"/>
      </g>
     </g>
     <g id="line2d_63">
      <g>
       <use style="stroke:#000000;stroke-width:0.5;" x="567.24" xlink:href="#m5da776fe83" y="82.2178217822"/>
      </g>
     </g>
    </g>
    <g id="ytick_6">
     <g id="line2d_64">
      <path clip-path="url(#p6c152892a2)" d="M 3 6.772277 
L 567.24 6.772277 
" style="fill:none;stroke:#000000;stroke-dasharray:1.000000,3.000000;stroke-dashoffset:0.0;stroke-width:0.5;"/>
     </g>
     <g id="line2d_65">
      <g>
       <use style="stroke:#000000;stroke-width:0.5;" x="3.0" xlink:href="#m843049b41b" y="6.77227722772"/>
      </g>
     </g>
     <g id="line2d_66">
      <g>
       <use style="stroke:#000000;stroke-width:0.5;" x="567.24" xlink:href="#m5da776fe83" y="6.77227722772"/>
      </g>
     </g>
    </g>
   </g>
   <g id="text_10">
    <!-- {f1-f5}, 5-D -->
    <defs>
     <path d="M 12.5 -9.28125 
L 15.921875 -9.28125 
Q 22.75 -9.28125 24.828125 -7.171875 
Q 26.90625 -5.078125 26.90625 1.90625 
L 26.90625 14.015625 
Q 26.90625 21.625 29.09375 25.09375 
Q 31.296875 28.5625 36.71875 29.890625 
Q 31.296875 31.109375 29.09375 34.5625 
Q 26.90625 38.03125 26.90625 45.703125 
L 26.90625 57.8125 
Q 26.90625 64.75 24.828125 66.875 
Q 22.75 69 15.921875 69 
L 12.5 69 
L 12.5 75.984375 
L 15.578125 75.984375 
Q 27.734375 75.984375 31.8125 72.390625 
Q 35.890625 68.796875 35.890625 58.015625 
L 35.890625 46.296875 
Q 35.890625 39.015625 38.515625 36.203125 
Q 41.15625 33.40625 48.09375 33.40625 
L 51.125 33.40625 
L 51.125 26.421875 
L 48.09375 26.421875 
Q 41.15625 26.421875 38.515625 23.578125 
Q 35.890625 20.75 35.890625 13.375 
L 35.890625 1.703125 
Q 35.890625 -9.078125 31.8125 -12.6875 
Q 27.734375 -16.3125 15.578125 -16.3125 
L 12.5 -16.3125 
z
" id="BitstreamVeraSans-Roman-7d"/>
     <path d="M 51.125 -9.28125 
L 51.125 -16.3125 
L 48.09375 -16.3125 
Q 35.9375 -16.3125 31.8125 -12.6875 
Q 27.6875 -9.078125 27.6875 1.703125 
L 27.6875 13.375 
Q 27.6875 20.75 25.046875 23.578125 
Q 22.40625 26.421875 15.484375 26.421875 
L 12.5 26.421875 
L 12.5 33.40625 
L 15.484375 33.40625 
Q 22.46875 33.40625 25.078125 36.203125 
Q 27.6875 39.015625 27.6875 46.296875 
L 27.6875 58.015625 
Q 27.6875 68.796875 31.8125 72.390625 
Q 35.9375 75.984375 48.09375 75.984375 
L 51.125 75.984375 
L 51.125 69 
L 47.796875 69 
Q 40.921875 69 38.8125 66.84375 
Q 36.71875 64.703125 36.71875 57.8125 
L 36.71875 45.703125 
Q 36.71875 38.03125 34.5 34.5625 
Q 32.28125 31.109375 26.90625 29.890625 
Q 32.328125 28.5625 34.515625 25.09375 
Q 36.71875 21.625 36.71875 14.015625 
L 36.71875 1.90625 
Q 36.71875 -4.984375 38.8125 -7.125 
Q 40.921875 -9.28125 47.796875 -9.28125 
z
" id="BitstreamVeraSans-Roman-7b"/>
     <path d="M 11.71875 12.40625 
L 22.015625 12.40625 
L 22.015625 4 
L 14.015625 -11.625 
L 7.71875 -11.625 
L 11.71875 4 
z
" id="BitstreamVeraSans-Roman-2c"/>
     <path d="M 10.796875 72.90625 
L 49.515625 72.90625 
L 49.515625 64.59375 
L 19.828125 64.59375 
L 19.828125 46.734375 
Q 21.96875 47.46875 24.109375 47.828125 
Q 26.265625 48.1875 28.421875 48.1875 
Q 40.625 48.1875 47.75 41.5 
Q 54.890625 34.8125 54.890625 23.390625 
Q 54.890625 11.625 47.5625 5.09375 
Q 40.234375 -1.421875 26.90625 -1.421875 
Q 22.3125 -1.421875 17.546875 -0.640625 
Q 12.796875 0.140625 7.71875 1.703125 
L 7.71875 11.625 
Q 12.109375 9.234375 16.796875 8.0625 
Q 21.484375 6.890625 26.703125 6.890625 
Q 35.15625 6.890625 40.078125 11.328125 
Q 45.015625 15.765625 45.015625 23.390625 
Q 45.015625 31 40.078125 35.4375 
Q 35.15625 39.890625 26.703125 39.890625 
Q 22.75 39.890625 18.8125 39.015625 
Q 14.890625 38.140625 10.796875 36.28125 
z
" id="BitstreamVeraSans-Roman-35"/>
    </defs>
    <g transform="translate(435.7052 376.38)scale(0.2 -0.2)">
     <use xlink:href="#BitstreamVeraSans-Roman-7b"/>
     <use x="63.623046875" xlink:href="#BitstreamVeraSans-Roman-66"/>
     <use x="98.828125" xlink:href="#BitstreamVeraSans-Roman-31"/>
     <use x="162.451171875" xlink:href="#BitstreamVeraSans-Roman-2d"/>
     <use x="198.53515625" xlink:href="#BitstreamVeraSans-Roman-66"/>
     <use x="233.740234375" xlink:href="#BitstreamVeraSans-Roman-35"/>
     <use x="297.36328125" xlink:href="#BitstreamVeraSans-Roman-7d"/>
     <use x="360.986328125" xlink:href="#BitstreamVeraSans-Roman-2c"/>
     <use x="392.7734375" xlink:href="#BitstreamVeraSans-Roman-20"/>
     <use x="424.560546875" xlink:href="#BitstreamVeraSans-Roman-35"/>
     <use x="488.18359375" xlink:href="#BitstreamVeraSans-Roman-2d"/>
     <use x="524.267578125" xlink:href="#BitstreamVeraSans-Roman-44"/>
    </g>
   </g>
   <g id="text_11">
    <!-- v2.2.1.10 -->
    <defs>
     <path d="M 2.984375 54.6875 
L 12.5 54.6875 
L 29.59375 8.796875 
L 46.6875 54.6875 
L 56.203125 54.6875 
L 35.6875 0 
L 23.484375 0 
z
" id="BitstreamVeraSans-Roman-76"/>
     <path d="M 10.6875 12.40625 
L 21 12.40625 
L 21 0 
L 10.6875 0 
z
" id="BitstreamVeraSans-Roman-2e"/>
    </defs>
    <g style="fill:#808080;" transform="translate(261.4871875 378.1103125)scale(0.1 -0.1)">
     <use xlink:href="#BitstreamVeraSans-Roman-76"/>
     <use x="59.1796875" xlink:href="#BitstreamVeraSans-Roman-32"/>
     <use x="122.802734375" xlink:href="#BitstreamVeraSans-Roman-2e"/>
     <use x="154.58984375" xlink:href="#BitstreamVeraSans-Roman-32"/>
     <use x="218.212890625" xlink:href="#BitstreamVeraSans-Roman-2e"/>
     <use x="250.0" xlink:href="#BitstreamVeraSans-Roman-31"/>
     <use x="313.623046875" xlink:href="#BitstreamVeraSans-Roman-2e"/>
     <use x="345.41015625" xlink:href="#BitstreamVeraSans-Roman-31"/>
     <use x="409.033203125" xlink:href="#BitstreamVeraSans-Roman-30"/>
    </g>
   </g>
  </g>
 </g>
 <defs>
  <clipPath id="p6c152892a2">
   <rect height="381.0" width="564.24" x="3.0" y="3.0"/>
  </clipPath>
 </defs>
</svg>
