<?xml version="1.0" encoding="utf-8" standalone="no"?>
<!DOCTYPE svg PUBLIC "-//W3C//DTD SVG 1.1//EN"
  "http://www.w3.org/Graphics/SVG/1.1/DTD/svg11.dtd">
<!-- Created with matplotlib (http://matplotlib.org/) -->
<svg height="432pt" version="1.1" viewBox="0 0 576 432" width="576pt" xmlns="http://www.w3.org/2000/svg" xmlns:xlink="http://www.w3.org/1999/xlink">
 <defs>
  <style type="text/css">
*{stroke-linecap:butt;stroke-linejoin:round;stroke-miterlimit:100000;}
  </style>
 </defs>
 <g id="figure_1">
  <g id="patch_1">
   <path d="M 0 432 
L 576 432 
L 576 0 
L 0 0 
z
" style="fill:#ffffff;"/>
  </g>
  <g id="axes_1">
   <g id="patch_2">
    <path d="M 3 384 
L 567.24 384 
L 567.24 3 
L 3 3 
z
" style="fill:#ffffff;"/>
   </g>
   <g id="line2d_1">
    <path clip-path="url(#pb2e5ca04d9)" d="M 248.482486 384 
L 248.482486 378.970297 
L 248.482486 378.970297 
L 248.482486 378.970297 
L 248.482486 373.940594 
L 248.482486 373.940594 
L 248.482486 373.940594 
L 248.482486 368.910891 
L 248.482486 368.910891 
L 248.482486 368.910891 
L 248.482486 363.881188 
L 248.482486 363.881188 
L 248.482486 363.881188 
L 248.482486 358.851485 
L 248.482486 358.851485 
L 248.482486 358.851485 
L 248.482486 353.821782 
L 248.482486 353.821782 
L 248.482486 353.821782 
L 248.482486 348.792079 
L 248.482486 348.792079 
L 248.482486 348.792079 
L 248.482486 343.762376 
L 248.482486 343.762376 
L 248.482486 343.762376 
L 248.482486 338.732673 
L 248.482486 338.732673 
L 248.482486 338.732673 
L 248.482486 333.70297 
L 248.482486 333.70297 
L 248.482486 333.70297 
L 248.482486 328.673267 
L 248.482486 328.673267 
L 248.482486 328.673267 
L 248.482486 323.643564 
L 248.482486 323.643564 
L 248.482486 323.643564 
L 248.482486 318.613861 
L 248.482486 318.613861 
L 248.482486 318.613861 
L 248.482486 313.584158 
L 248.482486 313.584158 
L 248.482486 313.584158 
L 248.482486 308.554455 
L 297.089444 308.554455 
L 297.089444 303.524752 
L 297.60837 303.524752 
L 297.698483 293.465347 
L 298.435403 293.465347 
L 298.435403 288.435644 
L 298.645057 288.435644 
L 298.691152 278.376238 
L 298.856901 278.376238 
L 298.856901 273.346535 
L 298.981454 273.346535 
L 298.981454 268.316832 
L 299.176758 268.316832 
L 299.283055 258.257426 
L 299.787864 258.257426 
L 299.787864 253.227723 
L 300.723843 253.227723 
L 300.831664 243.168317 
L 301.04626 243.168317 
L 301.04626 238.138614 
L 302.061097 238.138614 
L 302.061097 233.108911 
L 312.175014 233.108911 
L 312.175014 228.079208 
L 312.721822 228.079208 
L 312.798899 218.019802 
L 313.274846 218.019802 
L 313.274846 212.990099 
L 313.454239 212.990099 
L 313.454239 207.960396 
L 313.823464 207.960396 
L 313.823464 202.930693 
L 313.949674 202.930693 
L 313.949674 197.90099 
L 314.433122 197.90099 
L 314.433122 192.871287 
L 314.867328 192.871287 
L 314.867328 187.841584 
L 315.192984 187.841584 
L 315.287632 177.782178 
L 316.116164 177.782178 
L 316.116164 172.752475 
L 316.433594 172.752475 
L 316.433594 167.722772 
L 316.954813 167.722772 
L 316.954813 162.693069 
L 317.19199 162.693069 
L 317.19199 157.663366 
L 317.351722 157.663366 
L 317.462739 137.544554 
L 317.522028 137.544554 
L 317.522028 132.514851 
L 318.538408 132.514851 
L 318.646021 122.455446 
L 318.713183 122.455446 
L 318.713183 117.425743 
L 319.032189 117.425743 
L 319.032189 112.39604 
L 319.301179 112.39604 
L 319.301179 107.366337 
L 319.819435 107.366337 
L 319.819435 102.336634 
L 320.475448 102.336634 
L 320.475448 97.306931 
L 320.629156 97.306931 
L 320.629156 92.277228 
L 321.58733 92.277228 
L 321.58733 87.247525 
L 322.296471 87.247525 
L 322.296471 82.217822 
L 350.268791 82.217822 
L 350.268791 77.188119 
L 351.592609 77.188119 
L 351.592609 72.158416 
L 351.814481 72.158416 
L 351.814481 67.128713 
L 352.917416 67.128713 
L 352.917416 62.09901 
L 353.121829 62.09901 
L 353.197701 52.039604 
L 353.257657 52.039604 
L 353.257657 47.009901 
L 353.850844 47.009901 
L 353.860161 36.950495 
L 355.156014 36.950495 
L 355.156014 31.920792 
L 355.536096 31.920792 
L 355.621032 16.831683 
L 356.282804 16.831683 
L 356.282804 11.80198 
L 356.4717 11.80198 
L 356.4717 6.772277 
L 356.4717 6.772277 
L 567.24 6.772277 
L 567.24 6.772277 
" style="fill:none;stroke:#ff0000;stroke-linecap:square;stroke-width:3.0;"/>
   </g>
   <g id="line2d_2">
    <path clip-path="url(#pb2e5ca04d9)" d="M 248.482486 384 
L 248.482486 378.970297 
L 248.482486 378.970297 
L 248.482486 378.970297 
L 248.482486 373.940594 
L 248.482486 373.940594 
L 248.482486 373.940594 
L 248.482486 368.910891 
L 248.482486 368.910891 
L 248.482486 368.910891 
L 248.482486 363.881188 
L 248.482486 363.881188 
L 248.482486 363.881188 
L 248.482486 358.851485 
L 248.482486 358.851485 
L 248.482486 358.851485 
L 248.482486 353.821782 
L 248.482486 353.821782 
L 248.482486 353.821782 
L 248.482486 348.792079 
L 248.482486 348.792079 
L 248.482486 348.792079 
L 248.482486 343.762376 
L 248.482486 343.762376 
L 248.482486 343.762376 
L 248.482486 338.732673 
L 248.482486 338.732673 
L 248.482486 338.732673 
L 248.482486 333.70297 
L 248.482486 333.70297 
L 248.482486 333.70297 
L 248.482486 328.673267 
L 248.482486 328.673267 
L 248.482486 328.673267 
L 248.482486 323.643564 
L 248.482486 323.643564 
L 248.482486 323.643564 
L 248.482486 318.613861 
L 248.482486 318.613861 
L 248.482486 318.613861 
L 248.482486 313.584158 
L 248.482486 313.584158 
L 248.482486 313.584158 
L 248.482486 308.554455 
L 304.714529 308.554455 
L 304.8111 298.49505 
L 306.912784 298.49505 
L 306.964568 283.405941 
L 307.520627 283.405941 
L 307.520627 278.376238 
L 307.917935 278.376238 
L 307.917935 273.346535 
L 308.195969 273.346535 
L 308.195969 268.316832 
L 308.391847 268.316832 
L 308.446538 258.257426 
L 308.903386 258.257426 
L 308.903386 253.227723 
L 311.340816 253.227723 
L 311.340816 248.19802 
L 313.646823 248.19802 
L 313.646823 243.168317 
L 320.001619 243.168317 
L 320.001619 238.138614 
L 320.539432 238.138614 
L 320.539432 233.108911 
L 321.534683 233.108911 
L 321.534683 228.079208 
L 321.940588 228.079208 
L 321.940588 223.049505 
L 322.178228 223.049505 
L 322.178228 218.019802 
L 323.313182 218.019802 
L 323.315568 207.960396 
L 323.909529 207.960396 
L 323.909529 202.930693 
L 324.288369 202.930693 
L 324.338705 187.841584 
L 324.588765 187.841584 
L 324.588765 182.811881 
L 324.981944 182.811881 
L 325.018055 167.722772 
L 325.181589 167.722772 
L 325.181589 162.693069 
L 325.508006 162.693069 
L 325.508006 157.663366 
L 326.226496 157.663366 
L 326.241513 147.60396 
L 326.345385 147.60396 
L 326.389521 137.544554 
L 326.72874 137.544554 
L 326.72874 132.514851 
L 327.001398 132.514851 
L 327.001398 127.485149 
L 327.334495 127.485149 
L 327.334495 122.455446 
L 329.231964 122.455446 
L 329.231964 117.425743 
L 330.198476 117.425743 
L 330.198476 112.39604 
L 331.378126 112.39604 
L 331.378126 107.366337 
L 331.892925 107.366337 
L 331.903302 97.306931 
L 334.986508 97.306931 
L 334.986508 92.277228 
L 337.635758 92.277228 
L 337.635758 87.247525 
L 341.458129 87.247525 
L 341.458129 82.217822 
L 359.276017 82.217822 
L 359.276017 77.188119 
L 360.286521 77.188119 
L 360.286521 72.158416 
L 360.574838 72.158416 
L 360.574838 67.128713 
L 360.942235 67.128713 
L 360.942235 62.09901 
L 361.198541 62.09901 
L 361.198541 57.069307 
L 361.664654 57.069307 
L 361.664654 52.039604 
L 361.831519 52.039604 
L 361.831519 47.009901 
L 362.347084 47.009901 
L 362.347084 41.980198 
L 362.986823 41.980198 
L 362.986823 36.950495 
L 363.745168 36.950495 
L 363.745168 31.920792 
L 364.195856 31.920792 
L 364.195856 26.891089 
L 365.662201 26.891089 
L 365.662201 21.861386 
L 366.747503 21.861386 
L 366.747503 16.831683 
L 368.586773 16.831683 
L 368.586773 11.80198 
L 377.29401 11.80198 
L 377.29401 6.772277 
L 377.29401 6.772277 
L 567.24 6.772277 
L 567.24 6.772277 
" style="fill:none;stroke:#00bfbf;stroke-linecap:square;"/>
   </g>
   <g id="line2d_3">
    <path clip-path="url(#pb2e5ca04d9)" d="M 248.482486 384 
L 248.482486 378.970297 
L 248.482486 378.970297 
L 248.482486 378.970297 
L 248.482486 373.940594 
L 248.482486 373.940594 
L 248.482486 373.940594 
L 248.482486 368.910891 
L 248.482486 368.910891 
L 248.482486 368.910891 
L 248.482486 363.881188 
L 248.482486 363.881188 
L 248.482486 363.881188 
L 248.482486 358.851485 
L 248.482486 358.851485 
L 248.482486 358.851485 
L 248.482486 353.821782 
L 248.482486 353.821782 
L 248.482486 353.821782 
L 248.482486 348.792079 
L 248.482486 348.792079 
L 248.482486 348.792079 
L 248.482486 343.762376 
L 248.482486 343.762376 
L 248.482486 343.762376 
L 248.482486 338.732673 
L 248.482486 338.732673 
L 248.482486 338.732673 
L 248.482486 333.70297 
L 248.482486 333.70297 
L 248.482486 333.70297 
L 248.482486 328.673267 
L 248.482486 328.673267 
L 248.482486 328.673267 
L 248.482486 323.643564 
L 248.482486 323.643564 
L 248.482486 323.643564 
L 248.482486 318.613861 
L 248.482486 318.613861 
L 248.482486 318.613861 
L 248.482486 313.584158 
L 248.482486 313.584158 
L 248.482486 313.584158 
L 248.482486 308.554455 
L 304.714529 308.554455 
L 304.8111 298.49505 
L 306.181338 298.49505 
L 306.181338 293.465347 
L 306.912784 293.465347 
L 306.964568 278.376238 
L 307.520627 278.376238 
L 307.520627 273.346535 
L 308.195969 273.346535 
L 308.195969 268.316832 
L 308.391847 268.316832 
L 308.446538 258.257426 
L 308.903386 258.257426 
L 308.903386 253.227723 
L 310.172246 253.227723 
L 310.172246 248.19802 
L 311.340816 248.19802 
L 311.340816 243.168317 
L 320.001619 243.168317 
L 320.001619 238.138614 
L 320.211131 238.138614 
L 320.211131 233.108911 
L 320.52075 233.108911 
L 320.52075 228.079208 
L 320.867702 228.079208 
L 320.867702 223.049505 
L 321.178169 223.049505 
L 321.178169 218.019802 
L 321.534683 218.019802 
L 321.534683 212.990099 
L 321.712852 212.990099 
L 321.712852 207.960396 
L 321.940588 207.960396 
L 321.969201 197.90099 
L 322.178228 197.90099 
L 322.178228 192.871287 
L 323.313182 192.871287 
L 323.315568 182.811881 
L 323.571122 182.811881 
L 323.571122 177.782178 
L 323.909529 177.782178 
L 323.909529 172.752475 
L 324.278203 172.752475 
L 324.338705 157.663366 
L 324.981944 157.663366 
L 325.018055 147.60396 
L 325.508006 147.60396 
L 325.508006 142.574257 
L 326.226496 142.574257 
L 326.226496 137.544554 
L 326.345385 137.544554 
L 326.389521 127.485149 
L 326.72874 127.485149 
L 326.72874 122.455446 
L 327.334495 122.455446 
L 327.334495 117.425743 
L 329.231964 117.425743 
L 329.231964 112.39604 
L 330.198476 112.39604 
L 330.198476 107.366337 
L 330.609522 107.366337 
L 330.609522 102.336634 
L 331.015337 102.336634 
L 331.015337 97.306931 
L 334.986508 97.306931 
L 334.986508 92.277228 
L 337.635758 92.277228 
L 337.635758 87.247525 
L 341.458129 87.247525 
L 341.458129 82.217822 
L 359.276017 82.217822 
L 359.276017 77.188119 
L 360.286521 77.188119 
L 360.286521 72.158416 
L 360.574838 72.158416 
L 360.574838 67.128713 
L 360.942235 67.128713 
L 360.942235 62.09901 
L 361.198541 62.09901 
L 361.198541 57.069307 
L 361.664654 57.069307 
L 361.664654 52.039604 
L 361.831519 52.039604 
L 361.831519 47.009901 
L 362.347084 47.009901 
L 362.347084 41.980198 
L 362.986823 41.980198 
L 362.986823 36.950495 
L 363.745168 36.950495 
L 363.745168 31.920792 
L 364.195856 31.920792 
L 364.195856 26.891089 
L 365.662201 26.891089 
L 365.662201 21.861386 
L 366.747503 21.861386 
L 366.747503 16.831683 
L 368.586773 16.831683 
L 368.586773 11.80198 
L 374.978581 11.80198 
L 374.978581 6.772277 
L 374.978581 6.772277 
L 567.24 6.772277 
L 567.24 6.772277 
" style="fill:none;stroke:#bf00bf;stroke-linecap:square;"/>
   </g>
   <g id="line2d_4">
    <path clip-path="url(#pb2e5ca04d9)" d="M 248.482486 384 
L 248.482486 378.970297 
L 248.482486 378.970297 
L 248.482486 378.970297 
L 248.482486 373.940594 
L 248.482486 373.940594 
L 248.482486 373.940594 
L 248.482486 368.910891 
L 248.482486 368.910891 
L 248.482486 368.910891 
L 248.482486 363.881188 
L 248.482486 363.881188 
L 248.482486 363.881188 
L 248.482486 358.851485 
L 248.482486 358.851485 
L 248.482486 358.851485 
L 248.482486 353.821782 
L 248.482486 353.821782 
L 248.482486 353.821782 
L 248.482486 348.792079 
L 248.482486 348.792079 
L 248.482486 348.792079 
L 248.482486 343.762376 
L 248.482486 343.762376 
L 248.482486 343.762376 
L 248.482486 338.732673 
L 248.482486 338.732673 
L 248.482486 338.732673 
L 248.482486 333.70297 
L 248.482486 333.70297 
L 248.482486 333.70297 
L 248.482486 328.673267 
L 248.482486 328.673267 
L 248.482486 328.673267 
L 248.482486 323.643564 
L 248.482486 323.643564 
L 248.482486 323.643564 
L 248.482486 318.613861 
L 248.482486 318.613861 
L 248.482486 318.613861 
L 248.482486 313.584158 
L 248.482486 313.584158 
L 248.482486 313.584158 
L 248.482486 308.554455 
L 304.714529 308.554455 
L 304.8111 298.49505 
L 306.181338 298.49505 
L 306.181338 293.465347 
L 306.912784 293.465347 
L 306.964568 278.376238 
L 307.520627 278.376238 
L 307.520627 273.346535 
L 308.195969 273.346535 
L 308.195969 268.316832 
L 308.391847 268.316832 
L 308.446538 258.257426 
L 308.903386 258.257426 
L 308.903386 253.227723 
L 310.172246 253.227723 
L 310.172246 248.19802 
L 311.340816 248.19802 
L 311.340816 243.168317 
L 320.001619 243.168317 
L 320.001619 238.138614 
L 320.211131 238.138614 
L 320.211131 233.108911 
L 320.52075 233.108911 
L 320.52075 228.079208 
L 320.867702 228.079208 
L 320.867702 223.049505 
L 321.178169 223.049505 
L 321.178169 218.019802 
L 321.534683 218.019802 
L 321.534683 212.990099 
L 321.712852 212.990099 
L 321.712852 207.960396 
L 321.940588 207.960396 
L 321.969201 197.90099 
L 322.178228 197.90099 
L 322.178228 192.871287 
L 323.313182 192.871287 
L 323.315568 182.811881 
L 323.571122 182.811881 
L 323.571122 177.782178 
L 323.909529 177.782178 
L 323.909529 172.752475 
L 324.278203 172.752475 
L 324.338705 157.663366 
L 324.981944 157.663366 
L 325.018055 147.60396 
L 325.508006 147.60396 
L 325.508006 142.574257 
L 326.226496 142.574257 
L 326.226496 137.544554 
L 326.345385 137.544554 
L 326.389521 127.485149 
L 326.72874 127.485149 
L 326.72874 122.455446 
L 327.334495 122.455446 
L 327.334495 117.425743 
L 329.231964 117.425743 
L 329.231964 112.39604 
L 330.198476 112.39604 
L 330.198476 107.366337 
L 330.609522 107.366337 
L 330.609522 102.336634 
L 331.015337 102.336634 
L 331.015337 97.306931 
L 334.986508 97.306931 
L 334.986508 92.277228 
L 337.635758 92.277228 
L 337.635758 87.247525 
L 341.458129 87.247525 
L 341.458129 82.217822 
L 359.276017 82.217822 
L 359.276017 77.188119 
L 360.286521 77.188119 
L 360.286521 72.158416 
L 360.574838 72.158416 
L 360.574838 67.128713 
L 360.942235 67.128713 
L 360.942235 62.09901 
L 361.198541 62.09901 
L 361.198541 57.069307 
L 361.664654 57.069307 
L 361.664654 52.039604 
L 361.831519 52.039604 
L 361.831519 47.009901 
L 362.347084 47.009901 
L 362.347084 41.980198 
L 362.986823 41.980198 
L 362.986823 36.950495 
L 363.745168 36.950495 
L 363.745168 31.920792 
L 364.195856 31.920792 
L 364.195856 26.891089 
L 365.662201 26.891089 
L 365.662201 21.861386 
L 366.747503 21.861386 
L 366.747503 16.831683 
L 368.586773 16.831683 
L 368.586773 11.80198 
L 374.978581 11.80198 
L 374.978581 6.772277 
L 374.978581 6.772277 
L 567.24 6.772277 
L 567.24 6.772277 
" style="fill:none;stroke:#000000;stroke-linecap:square;"/>
   </g>
   <g id="line2d_5">
    <path clip-path="url(#pb2e5ca04d9)" d="M 248.482486 384 
L 248.482486 378.970297 
L 248.482486 378.970297 
L 248.482486 378.970297 
L 248.482486 373.940594 
L 248.482486 373.940594 
L 248.482486 373.940594 
L 248.482486 368.910891 
L 248.482486 368.910891 
L 248.482486 368.910891 
L 248.482486 363.881188 
L 248.482486 363.881188 
L 248.482486 363.881188 
L 248.482486 358.851485 
L 248.482486 358.851485 
L 248.482486 358.851485 
L 248.482486 353.821782 
L 248.482486 353.821782 
L 248.482486 353.821782 
L 248.482486 348.792079 
L 248.482486 348.792079 
L 248.482486 348.792079 
L 248.482486 343.762376 
L 248.482486 343.762376 
L 248.482486 343.762376 
L 248.482486 338.732673 
L 248.482486 338.732673 
L 248.482486 338.732673 
L 248.482486 333.70297 
L 248.482486 333.70297 
L 248.482486 333.70297 
L 248.482486 328.673267 
L 248.482486 328.673267 
L 248.482486 328.673267 
L 248.482486 323.643564 
L 248.482486 323.643564 
L 248.482486 323.643564 
L 248.482486 318.613861 
L 248.482486 318.613861 
L 248.482486 318.613861 
L 248.482486 313.584158 
L 248.482486 313.584158 
L 248.482486 313.584158 
L 248.482486 308.554455 
L 304.714529 308.554455 
L 304.8111 298.49505 
L 306.181338 298.49505 
L 306.181338 293.465347 
L 306.791772 293.465347 
L 306.791772 288.435644 
L 306.912784 288.435644 
L 306.964568 273.346535 
L 308.195969 273.346535 
L 308.195969 268.316832 
L 308.391847 268.316832 
L 308.446538 258.257426 
L 308.903386 258.257426 
L 308.903386 253.227723 
L 310.172246 253.227723 
L 310.172246 248.19802 
L 311.340816 248.19802 
L 311.340816 243.168317 
L 314.466485 243.168317 
L 314.466485 238.138614 
L 320.001619 238.138614 
L 320.001619 233.108911 
L 320.211131 233.108911 
L 320.211131 228.079208 
L 320.867702 228.079208 
L 320.867702 223.049505 
L 321.178169 223.049505 
L 321.178169 218.019802 
L 321.534683 218.019802 
L 321.534683 212.990099 
L 321.712852 212.990099 
L 321.712852 207.960396 
L 321.940588 207.960396 
L 321.969201 197.90099 
L 322.178228 197.90099 
L 322.178228 192.871287 
L 323.313182 192.871287 
L 323.315568 182.811881 
L 323.571122 182.811881 
L 323.571122 177.782178 
L 323.909529 177.782178 
L 323.909529 172.752475 
L 324.278203 172.752475 
L 324.338705 157.663366 
L 324.981944 157.663366 
L 325.018055 147.60396 
L 325.508006 147.60396 
L 325.508006 142.574257 
L 326.226496 142.574257 
L 326.226496 137.544554 
L 326.345385 137.544554 
L 326.389521 127.485149 
L 326.72874 127.485149 
L 326.72874 122.455446 
L 327.334495 122.455446 
L 327.334495 117.425743 
L 329.231964 117.425743 
L 329.231964 112.39604 
L 330.198476 112.39604 
L 330.198476 107.366337 
L 330.609522 107.366337 
L 330.609522 102.336634 
L 331.015337 102.336634 
L 331.015337 97.306931 
L 334.986508 97.306931 
L 334.986508 92.277228 
L 336.912644 92.277228 
L 336.912644 87.247525 
L 337.635758 87.247525 
L 337.635758 82.217822 
L 359.276017 82.217822 
L 359.276017 77.188119 
L 360.286521 77.188119 
L 360.286521 72.158416 
L 360.574838 72.158416 
L 360.574838 67.128713 
L 360.942235 67.128713 
L 360.942235 62.09901 
L 361.198541 62.09901 
L 361.198541 57.069307 
L 361.664654 57.069307 
L 361.664654 52.039604 
L 361.831519 52.039604 
L 361.831519 47.009901 
L 362.347084 47.009901 
L 362.347084 41.980198 
L 362.986823 41.980198 
L 362.986823 36.950495 
L 363.745168 36.950495 
L 363.745168 31.920792 
L 364.195856 31.920792 
L 364.195856 26.891089 
L 365.662201 26.891089 
L 365.662201 21.861386 
L 366.747503 21.861386 
L 366.747503 16.831683 
L 368.586773 16.831683 
L 368.586773 11.80198 
L 374.978581 11.80198 
L 374.978581 6.772277 
L 374.978581 6.772277 
L 567.24 6.772277 
L 567.24 6.772277 
" style="fill:none;stroke:#00bfbf;stroke-linecap:square;"/>
   </g>
   <g id="line2d_6">
    <path clip-path="url(#pb2e5ca04d9)" d="M 248.482486 384 
L 248.482486 378.970297 
L 248.482486 378.970297 
L 248.482486 378.970297 
L 248.482486 373.940594 
L 248.482486 373.940594 
L 248.482486 373.940594 
L 248.482486 368.910891 
L 248.482486 368.910891 
L 248.482486 368.910891 
L 248.482486 363.881188 
L 248.482486 363.881188 
L 248.482486 363.881188 
L 248.482486 358.851485 
L 248.482486 358.851485 
L 248.482486 358.851485 
L 248.482486 353.821782 
L 248.482486 353.821782 
L 248.482486 353.821782 
L 248.482486 348.792079 
L 248.482486 348.792079 
L 248.482486 348.792079 
L 248.482486 343.762376 
L 248.482486 343.762376 
L 248.482486 343.762376 
L 248.482486 338.732673 
L 248.482486 338.732673 
L 248.482486 338.732673 
L 248.482486 333.70297 
L 248.482486 333.70297 
L 248.482486 333.70297 
L 248.482486 328.673267 
L 248.482486 328.673267 
L 248.482486 328.673267 
L 248.482486 323.643564 
L 248.482486 323.643564 
L 248.482486 323.643564 
L 248.482486 318.613861 
L 248.482486 318.613861 
L 248.482486 318.613861 
L 248.482486 313.584158 
L 248.482486 313.584158 
L 248.482486 313.584158 
L 248.482486 308.554455 
L 301.641949 308.554455 
L 301.641949 303.524752 
L 302.189802 303.524752 
L 302.189802 298.49505 
L 303.240971 298.49505 
L 303.295377 288.435644 
L 303.515873 288.435644 
L 303.515873 283.405941 
L 303.786212 283.405941 
L 303.786212 278.376238 
L 304.8111 278.376238 
L 304.8111 273.346535 
L 305.819938 273.346535 
L 305.819938 268.316832 
L 306.767345 268.316832 
L 306.797676 258.257426 
L 306.912784 258.257426 
L 306.913486 248.19802 
L 308.022889 248.19802 
L 308.022889 243.168317 
L 311.34569 243.168317 
L 311.34569 238.138614 
L 313.050252 238.138614 
L 313.050252 233.108911 
L 316.116449 233.108911 
L 316.116449 228.079208 
L 320.211131 228.079208 
L 320.211131 223.049505 
L 320.786543 223.049505 
L 320.827907 212.990099 
L 321.178169 212.990099 
L 321.193597 202.930693 
L 321.412281 202.930693 
L 321.412281 197.90099 
L 321.534683 197.90099 
L 321.534683 192.871287 
L 321.712852 192.871287 
L 321.724632 182.811881 
L 321.940588 182.811881 
L 321.969201 172.752475 
L 322.062113 172.752475 
L 322.099624 162.693069 
L 322.178228 162.693069 
L 322.178228 157.663366 
L 322.371936 157.663366 
L 322.371936 152.633663 
L 322.755378 152.633663 
L 322.755378 147.60396 
L 323.087592 147.60396 
L 323.087592 142.574257 
L 323.313182 142.574257 
L 323.313182 137.544554 
L 324.031616 137.544554 
L 324.031616 132.514851 
L 324.154843 132.514851 
L 324.154843 127.485149 
L 324.338705 127.485149 
L 324.338705 122.455446 
L 325.23161 122.455446 
L 325.23161 117.425743 
L 325.422525 117.425743 
L 325.422525 112.39604 
L 325.91242 112.39604 
L 325.91242 107.366337 
L 327.093242 107.366337 
L 327.093242 102.336634 
L 330.315535 102.336634 
L 330.381679 92.277228 
L 331.724655 92.277228 
L 331.724655 87.247525 
L 334.315472 87.247525 
L 334.315472 82.217822 
L 354.022428 82.217822 
L 354.022428 77.188119 
L 358.568386 77.188119 
L 358.568386 72.158416 
L 359.155813 72.158416 
L 359.155813 67.128713 
L 359.276017 67.128713 
L 359.276017 62.09901 
L 359.869024 62.09901 
L 359.869024 57.069307 
L 360.286521 57.069307 
L 360.286521 52.039604 
L 360.934846 52.039604 
L 360.942235 41.980198 
L 361.198541 41.980198 
L 361.198541 36.950495 
L 361.657624 36.950495 
L 361.657624 31.920792 
L 362.347084 31.920792 
L 362.347084 26.891089 
L 362.986823 26.891089 
L 362.986823 21.861386 
L 363.2873 21.861386 
L 363.2873 16.831683 
L 363.745168 16.831683 
L 363.745168 11.80198 
L 363.958376 11.80198 
L 363.958376 6.772277 
L 363.958376 6.772277 
L 567.24 6.772277 
L 567.24 6.772277 
" style="fill:none;stroke:#bf00bf;stroke-linecap:square;"/>
   </g>
   <g id="line2d_7">
    <path clip-path="url(#pb2e5ca04d9)" d="M 248.482486 384 
L 248.482486 378.970297 
L 248.482486 378.970297 
L 248.482486 378.970297 
L 248.482486 373.940594 
L 248.482486 373.940594 
L 248.482486 373.940594 
L 248.482486 368.910891 
L 248.482486 368.910891 
L 248.482486 368.910891 
L 248.482486 363.881188 
L 248.482486 363.881188 
L 248.482486 363.881188 
L 248.482486 358.851485 
L 248.482486 358.851485 
L 248.482486 358.851485 
L 248.482486 353.821782 
L 248.482486 353.821782 
L 248.482486 353.821782 
L 248.482486 348.792079 
L 248.482486 348.792079 
L 248.482486 348.792079 
L 248.482486 343.762376 
L 248.482486 343.762376 
L 248.482486 343.762376 
L 248.482486 338.732673 
L 248.482486 338.732673 
L 248.482486 338.732673 
L 248.482486 333.70297 
L 248.482486 333.70297 
L 248.482486 333.70297 
L 248.482486 328.673267 
L 248.482486 328.673267 
L 248.482486 328.673267 
L 248.482486 323.643564 
L 248.482486 323.643564 
L 248.482486 323.643564 
L 248.482486 318.613861 
L 248.482486 318.613861 
L 248.482486 318.613861 
L 248.482486 313.584158 
L 248.482486 313.584158 
L 248.482486 313.584158 
L 248.482486 308.554455 
L 299.787864 308.554455 
L 299.787864 303.524752 
L 300.591072 303.524752 
L 300.605884 293.465347 
L 300.888325 293.465347 
L 300.888325 288.435644 
L 301.04626 288.435644 
L 301.106174 278.376238 
L 301.378081 278.376238 
L 301.378081 273.346535 
L 302.378782 273.346535 
L 302.378782 268.316832 
L 303.515873 268.316832 
L 303.515873 263.287129 
L 303.700702 263.287129 
L 303.700702 258.257426 
L 304.596622 258.257426 
L 304.678113 248.19802 
L 304.89823 248.19802 
L 304.89823 243.168317 
L 305.111449 243.168317 
L 305.111449 238.138614 
L 305.717271 238.138614 
L 305.717271 233.108911 
L 314.433122 233.108911 
L 314.433122 228.079208 
L 315.653297 228.079208 
L 315.653297 223.049505 
L 316.031806 223.049505 
L 316.116449 207.960396 
L 316.571345 207.960396 
L 316.571345 202.930693 
L 317.058411 202.930693 
L 317.058411 197.90099 
L 317.457543 197.90099 
L 317.54781 187.841584 
L 317.72798 187.841584 
L 317.72798 182.811881 
L 318.126095 182.811881 
L 318.126095 177.782178 
L 318.319224 177.782178 
L 318.319224 172.752475 
L 318.706003 172.752475 
L 318.706003 167.722772 
L 319.491659 167.722772 
L 319.491659 162.693069 
L 319.960848 162.693069 
L 319.960848 157.663366 
L 320.077112 157.663366 
L 320.077112 152.633663 
L 320.475448 152.633663 
L 320.475448 147.60396 
L 320.765097 147.60396 
L 320.765097 142.574257 
L 321.406843 142.574257 
L 321.50493 132.514851 
L 321.546172 132.514851 
L 321.546172 127.485149 
L 322.004213 127.485149 
L 322.004213 122.455446 
L 322.178228 122.455446 
L 322.178228 117.425743 
L 322.324784 117.425743 
L 322.371936 107.366337 
L 323.122772 107.366337 
L 323.122772 102.336634 
L 323.707366 102.336634 
L 323.707366 97.306931 
L 324.028031 97.306931 
L 324.028031 92.277228 
L 324.747198 92.277228 
L 324.747198 87.247525 
L 327.252347 87.247525 
L 327.252347 82.217822 
L 353.708701 82.217822 
L 353.708701 77.188119 
L 354.022428 77.188119 
L 354.022428 72.158416 
L 356.247283 72.158416 
L 356.247283 67.128713 
L 357.885052 67.128713 
L 357.90158 57.069307 
L 358.568386 57.069307 
L 358.642971 47.009901 
L 358.806875 47.009901 
L 358.806875 41.980198 
L 359.03595 41.980198 
L 359.03595 36.950495 
L 359.198133 36.950495 
L 359.251076 26.891089 
L 359.715325 26.891089 
L 359.715325 21.861386 
L 360.527257 21.861386 
L 360.527257 16.831683 
L 360.942235 16.831683 
L 360.942235 11.80198 
L 361.198541 11.80198 
L 361.198541 6.772277 
L 361.198541 6.772277 
L 567.24 6.772277 
L 567.24 6.772277 
" style="fill:none;stroke:#000000;stroke-linecap:square;"/>
   </g>
   <g id="line2d_8">
    <path clip-path="url(#pb2e5ca04d9)" d="M 248.482486 384 
L 248.482486 378.970297 
L 248.482486 378.970297 
L 248.482486 378.970297 
L 248.482486 373.940594 
L 248.482486 373.940594 
L 248.482486 373.940594 
L 248.482486 368.910891 
L 248.482486 368.910891 
L 248.482486 368.910891 
L 248.482486 363.881188 
L 248.482486 363.881188 
L 248.482486 363.881188 
L 248.482486 358.851485 
L 248.482486 358.851485 
L 248.482486 358.851485 
L 248.482486 353.821782 
L 248.482486 353.821782 
L 248.482486 353.821782 
L 248.482486 348.792079 
L 248.482486 348.792079 
L 248.482486 348.792079 
L 248.482486 343.762376 
L 248.482486 343.762376 
L 248.482486 343.762376 
L 248.482486 338.732673 
L 248.482486 338.732673 
L 248.482486 338.732673 
L 248.482486 333.70297 
L 248.482486 333.70297 
L 248.482486 333.70297 
L 248.482486 328.673267 
L 248.482486 328.673267 
L 248.482486 328.673267 
L 248.482486 323.643564 
L 248.482486 323.643564 
L 248.482486 323.643564 
L 248.482486 318.613861 
L 248.482486 318.613861 
L 248.482486 318.613861 
L 248.482486 313.584158 
L 248.482486 313.584158 
L 248.482486 313.584158 
L 248.482486 308.554455 
L 297.089444 308.554455 
L 297.089444 303.524752 
L 297.60837 303.524752 
L 297.698483 293.465347 
L 298.435403 293.465347 
L 298.435403 288.435644 
L 298.645057 288.435644 
L 298.691152 278.376238 
L 298.856901 278.376238 
L 298.856901 273.346535 
L 298.981454 273.346535 
L 298.981454 268.316832 
L 299.176758 268.316832 
L 299.283055 258.257426 
L 299.787864 258.257426 
L 299.787864 253.227723 
L 300.723843 253.227723 
L 300.831664 243.168317 
L 301.04626 243.168317 
L 301.04626 238.138614 
L 302.061097 238.138614 
L 302.061097 233.108911 
L 312.175014 233.108911 
L 312.175014 228.079208 
L 312.721822 228.079208 
L 312.798899 218.019802 
L 313.274846 218.019802 
L 313.274846 212.990099 
L 313.454239 212.990099 
L 313.454239 207.960396 
L 313.823464 207.960396 
L 313.823464 202.930693 
L 313.949674 202.930693 
L 313.949674 197.90099 
L 314.433122 197.90099 
L 314.433122 192.871287 
L 314.867328 192.871287 
L 314.867328 187.841584 
L 315.192984 187.841584 
L 315.287632 177.782178 
L 316.116164 177.782178 
L 316.116164 172.752475 
L 316.433594 172.752475 
L 316.433594 167.722772 
L 316.954813 167.722772 
L 316.954813 162.693069 
L 317.19199 162.693069 
L 317.19199 157.663366 
L 317.351722 157.663366 
L 317.462739 137.544554 
L 317.522028 137.544554 
L 317.522028 132.514851 
L 318.538408 132.514851 
L 318.646021 122.455446 
L 318.713183 122.455446 
L 318.713183 117.425743 
L 319.032189 117.425743 
L 319.032189 112.39604 
L 319.301179 112.39604 
L 319.301179 107.366337 
L 319.819435 107.366337 
L 319.819435 102.336634 
L 320.475448 102.336634 
L 320.475448 97.306931 
L 320.629156 97.306931 
L 320.629156 92.277228 
L 321.58733 92.277228 
L 321.58733 87.247525 
L 322.296471 87.247525 
L 322.296471 82.217822 
L 350.268791 82.217822 
L 350.268791 77.188119 
L 351.592609 77.188119 
L 351.592609 72.158416 
L 351.814481 72.158416 
L 351.814481 67.128713 
L 352.917416 67.128713 
L 352.917416 62.09901 
L 353.121829 62.09901 
L 353.197701 52.039604 
L 353.257657 52.039604 
L 353.257657 47.009901 
L 353.850844 47.009901 
L 353.860161 36.950495 
L 355.156014 36.950495 
L 355.156014 31.920792 
L 355.536096 31.920792 
L 355.621032 16.831683 
L 356.282804 16.831683 
L 356.282804 11.80198 
L 356.4717 11.80198 
L 356.4717 6.772277 
L 356.4717 6.772277 
L 567.24 6.772277 
L 567.24 6.772277 
" style="fill:none;stroke:#00bfbf;stroke-linecap:square;"/>
   </g>
   <g id="patch_3">
    <path d="M 3 3 
L 567.24 3 
" style="fill:none;stroke:#000000;stroke-linecap:square;stroke-linejoin:miter;"/>
   </g>
   <g id="patch_4">
    <path d="M 567.24 384 
L 567.24 3 
" style="fill:none;stroke:#000000;stroke-linecap:square;stroke-linejoin:miter;"/>
   </g>
   <g id="patch_5">
    <path d="M 3 384 
L 567.24 384 
" style="fill:none;stroke:#000000;stroke-linecap:square;stroke-linejoin:miter;"/>
   </g>
   <g id="patch_6">
    <path d="M 3 384 
L 3 3 
" style="fill:none;stroke:#000000;stroke-linecap:square;stroke-linejoin:miter;"/>
   </g>
   <g id="matplotlib.axis_1">
    <g id="xtick_1"/>
    <g id="xtick_2">
     <g id="line2d_9">
      <path clip-path="url(#pb2e5ca04d9)" d="M 69.254589 384 
L 69.254589 3 
" style="fill:none;stroke:#000000;stroke-dasharray:1.000000,3.000000;stroke-dashoffset:0.0;stroke-width:0.5;"/>
     </g>
     <g id="line2d_10">
      <defs>
       <path d="M 0 0 
L 0 -4 
" id="ma76ca2dd02" style="stroke:#000000;stroke-width:0.5;"/>
      </defs>
      <g>
       <use style="stroke:#000000;stroke-width:0.5;" x="69.2545893472" xlink:href="#ma76ca2dd02" y="384.0"/>
      </g>
     </g>
     <g id="line2d_11">
      <defs>
       <path d="M 0 0 
L 0 4 
" id="m67f5676657" style="stroke:#000000;stroke-width:0.5;"/>
      </defs>
      <g>
       <use style="stroke:#000000;stroke-width:0.5;" x="69.2545893472" xlink:href="#m67f5676657" y="3.0"/>
      </g>
     </g>
     <g id="text_1">
      <!-- -6 -->
      <defs>
       <path d="M 33.015625 40.375 
Q 26.375 40.375 22.484375 35.828125 
Q 18.609375 31.296875 18.609375 23.390625 
Q 18.609375 15.53125 22.484375 10.953125 
Q 26.375 6.390625 33.015625 6.390625 
Q 39.65625 6.390625 43.53125 10.953125 
Q 47.40625 15.53125 47.40625 23.390625 
Q 47.40625 31.296875 43.53125 35.828125 
Q 39.65625 40.375 33.015625 40.375 
M 52.59375 71.296875 
L 52.59375 62.3125 
Q 48.875 64.0625 45.09375 64.984375 
Q 41.3125 65.921875 37.59375 65.921875 
Q 27.828125 65.921875 22.671875 59.328125 
Q 17.53125 52.734375 16.796875 39.40625 
Q 19.671875 43.65625 24.015625 45.921875 
Q 28.375 48.1875 33.59375 48.1875 
Q 44.578125 48.1875 50.953125 41.515625 
Q 57.328125 34.859375 57.328125 23.390625 
Q 57.328125 12.15625 50.6875 5.359375 
Q 44.046875 -1.421875 33.015625 -1.421875 
Q 20.359375 -1.421875 13.671875 8.265625 
Q 6.984375 17.96875 6.984375 36.375 
Q 6.984375 53.65625 15.1875 63.9375 
Q 23.390625 74.21875 37.203125 74.21875 
Q 40.921875 74.21875 44.703125 73.484375 
Q 48.484375 72.75 52.59375 71.296875 
" id="BitstreamVeraSans-Roman-36"/>
       <path d="M 4.890625 31.390625 
L 31.203125 31.390625 
L 31.203125 23.390625 
L 4.890625 23.390625 
z
" id="BitstreamVeraSans-Roman-2d"/>
      </defs>
      <g transform="translate(59.2842768472 403.196875)scale(0.2 -0.2)">
       <use xlink:href="#BitstreamVeraSans-Roman-2d"/>
       <use x="36.083984375" xlink:href="#BitstreamVeraSans-Roman-36"/>
      </g>
     </g>
    </g>
    <g id="xtick_3">
     <g id="line2d_12">
      <path clip-path="url(#pb2e5ca04d9)" d="M 135.652644 384 
L 135.652644 3 
" style="fill:none;stroke:#000000;stroke-dasharray:1.000000,3.000000;stroke-dashoffset:0.0;stroke-width:0.5;"/>
     </g>
     <g id="line2d_13">
      <g>
       <use style="stroke:#000000;stroke-width:0.5;" x="135.652644101" xlink:href="#ma76ca2dd02" y="384.0"/>
      </g>
     </g>
     <g id="line2d_14">
      <g>
       <use style="stroke:#000000;stroke-width:0.5;" x="135.652644101" xlink:href="#m67f5676657" y="3.0"/>
      </g>
     </g>
     <g id="text_2">
      <!-- -4 -->
      <defs>
       <path d="M 37.796875 64.3125 
L 12.890625 25.390625 
L 37.796875 25.390625 
z
M 35.203125 72.90625 
L 47.609375 72.90625 
L 47.609375 25.390625 
L 58.015625 25.390625 
L 58.015625 17.1875 
L 47.609375 17.1875 
L 47.609375 0 
L 37.796875 0 
L 37.796875 17.1875 
L 4.890625 17.1875 
L 4.890625 26.703125 
z
" id="BitstreamVeraSans-Roman-34"/>
      </defs>
      <g transform="translate(125.682331601 403.196875)scale(0.2 -0.2)">
       <use xlink:href="#BitstreamVeraSans-Roman-2d"/>
       <use x="36.083984375" xlink:href="#BitstreamVeraSans-Roman-34"/>
      </g>
     </g>
    </g>
    <g id="xtick_4">
     <g id="line2d_15">
      <path clip-path="url(#pb2e5ca04d9)" d="M 202.050699 384 
L 202.050699 3 
" style="fill:none;stroke:#000000;stroke-dasharray:1.000000,3.000000;stroke-dashoffset:0.0;stroke-width:0.5;"/>
     </g>
     <g id="line2d_16">
      <g>
       <use style="stroke:#000000;stroke-width:0.5;" x="202.050698855" xlink:href="#ma76ca2dd02" y="384.0"/>
      </g>
     </g>
     <g id="line2d_17">
      <g>
       <use style="stroke:#000000;stroke-width:0.5;" x="202.050698855" xlink:href="#m67f5676657" y="3.0"/>
      </g>
     </g>
     <g id="text_3">
      <!-- -2 -->
      <defs>
       <path d="M 19.1875 8.296875 
L 53.609375 8.296875 
L 53.609375 0 
L 7.328125 0 
L 7.328125 8.296875 
Q 12.9375 14.109375 22.625 23.890625 
Q 32.328125 33.6875 34.8125 36.53125 
Q 39.546875 41.84375 41.421875 45.53125 
Q 43.3125 49.21875 43.3125 52.78125 
Q 43.3125 58.59375 39.234375 62.25 
Q 35.15625 65.921875 28.609375 65.921875 
Q 23.96875 65.921875 18.8125 64.3125 
Q 13.671875 62.703125 7.8125 59.421875 
L 7.8125 69.390625 
Q 13.765625 71.78125 18.9375 73 
Q 24.125 74.21875 28.421875 74.21875 
Q 39.75 74.21875 46.484375 68.546875 
Q 53.21875 62.890625 53.21875 53.421875 
Q 53.21875 48.921875 51.53125 44.890625 
Q 49.859375 40.875 45.40625 35.40625 
Q 44.1875 33.984375 37.640625 27.21875 
Q 31.109375 20.453125 19.1875 8.296875 
" id="BitstreamVeraSans-Roman-32"/>
      </defs>
      <g transform="translate(192.080386355 403.196875)scale(0.2 -0.2)">
       <use xlink:href="#BitstreamVeraSans-Roman-2d"/>
       <use x="36.083984375" xlink:href="#BitstreamVeraSans-Roman-32"/>
      </g>
     </g>
    </g>
    <g id="xtick_5">
     <g id="line2d_18">
      <path clip-path="url(#pb2e5ca04d9)" d="M 268.448754 384 
L 268.448754 3 
" style="fill:none;stroke:#000000;stroke-dasharray:1.000000,3.000000;stroke-dashoffset:0.0;stroke-width:0.5;"/>
     </g>
     <g id="line2d_19">
      <g>
       <use style="stroke:#000000;stroke-width:0.5;" x="268.448753608" xlink:href="#ma76ca2dd02" y="384.0"/>
      </g>
     </g>
     <g id="line2d_20">
      <g>
       <use style="stroke:#000000;stroke-width:0.5;" x="268.448753608" xlink:href="#m67f5676657" y="3.0"/>
      </g>
     </g>
     <g id="text_4">
      <!-- 0 -->
      <defs>
       <path d="M 31.78125 66.40625 
Q 24.171875 66.40625 20.328125 58.90625 
Q 16.5 51.421875 16.5 36.375 
Q 16.5 21.390625 20.328125 13.890625 
Q 24.171875 6.390625 31.78125 6.390625 
Q 39.453125 6.390625 43.28125 13.890625 
Q 47.125 21.390625 47.125 36.375 
Q 47.125 51.421875 43.28125 58.90625 
Q 39.453125 66.40625 31.78125 66.40625 
M 31.78125 74.21875 
Q 44.046875 74.21875 50.515625 64.515625 
Q 56.984375 54.828125 56.984375 36.375 
Q 56.984375 17.96875 50.515625 8.265625 
Q 44.046875 -1.421875 31.78125 -1.421875 
Q 19.53125 -1.421875 13.0625 8.265625 
Q 6.59375 17.96875 6.59375 36.375 
Q 6.59375 54.828125 13.0625 64.515625 
Q 19.53125 74.21875 31.78125 74.21875 
" id="BitstreamVeraSans-Roman-30"/>
      </defs>
      <g transform="translate(262.086253608 403.196875)scale(0.2 -0.2)">
       <use xlink:href="#BitstreamVeraSans-Roman-30"/>
      </g>
     </g>
    </g>
    <g id="xtick_6">
     <g id="line2d_21">
      <path clip-path="url(#pb2e5ca04d9)" d="M 334.846808 384 
L 334.846808 3 
" style="fill:none;stroke:#000000;stroke-dasharray:1.000000,3.000000;stroke-dashoffset:0.0;stroke-width:0.5;"/>
     </g>
     <g id="line2d_22">
      <g>
       <use style="stroke:#000000;stroke-width:0.5;" x="334.846808362" xlink:href="#ma76ca2dd02" y="384.0"/>
      </g>
     </g>
     <g id="line2d_23">
      <g>
       <use style="stroke:#000000;stroke-width:0.5;" x="334.846808362" xlink:href="#m67f5676657" y="3.0"/>
      </g>
     </g>
     <g id="text_5">
      <!-- 2 -->
      <g transform="translate(328.484308362 403.196875)scale(0.2 -0.2)">
       <use xlink:href="#BitstreamVeraSans-Roman-32"/>
      </g>
     </g>
    </g>
    <g id="xtick_7">
     <g id="line2d_24">
      <path clip-path="url(#pb2e5ca04d9)" d="M 401.244863 384 
L 401.244863 3 
" style="fill:none;stroke:#000000;stroke-dasharray:1.000000,3.000000;stroke-dashoffset:0.0;stroke-width:0.5;"/>
     </g>
     <g id="line2d_25">
      <g>
       <use style="stroke:#000000;stroke-width:0.5;" x="401.244863116" xlink:href="#ma76ca2dd02" y="384.0"/>
      </g>
     </g>
     <g id="line2d_26">
      <g>
       <use style="stroke:#000000;stroke-width:0.5;" x="401.244863116" xlink:href="#m67f5676657" y="3.0"/>
      </g>
     </g>
     <g id="text_6">
      <!-- 4 -->
      <g transform="translate(394.882363116 403.196875)scale(0.2 -0.2)">
       <use xlink:href="#BitstreamVeraSans-Roman-34"/>
      </g>
     </g>
    </g>
    <g id="xtick_8">
     <g id="line2d_27">
      <path clip-path="url(#pb2e5ca04d9)" d="M 467.642918 384 
L 467.642918 3 
" style="fill:none;stroke:#000000;stroke-dasharray:1.000000,3.000000;stroke-dashoffset:0.0;stroke-width:0.5;"/>
     </g>
     <g id="line2d_28">
      <g>
       <use style="stroke:#000000;stroke-width:0.5;" x="467.642917869" xlink:href="#ma76ca2dd02" y="384.0"/>
      </g>
     </g>
     <g id="line2d_29">
      <g>
       <use style="stroke:#000000;stroke-width:0.5;" x="467.642917869" xlink:href="#m67f5676657" y="3.0"/>
      </g>
     </g>
     <g id="text_7">
      <!-- 6 -->
      <g transform="translate(461.280417869 403.196875)scale(0.2 -0.2)">
       <use xlink:href="#BitstreamVeraSans-Roman-36"/>
      </g>
     </g>
    </g>
    <g id="xtick_9">
     <g id="line2d_30">
      <path clip-path="url(#pb2e5ca04d9)" d="M 534.040973 384 
L 534.040973 3 
" style="fill:none;stroke:#000000;stroke-dasharray:1.000000,3.000000;stroke-dashoffset:0.0;stroke-width:0.5;"/>
     </g>
     <g id="line2d_31">
      <g>
       <use style="stroke:#000000;stroke-width:0.5;" x="534.040972623" xlink:href="#ma76ca2dd02" y="384.0"/>
      </g>
     </g>
     <g id="line2d_32">
      <g>
       <use style="stroke:#000000;stroke-width:0.5;" x="534.040972623" xlink:href="#m67f5676657" y="3.0"/>
      </g>
     </g>
     <g id="text_8">
      <!-- 8 -->
      <defs>
       <path d="M 31.78125 34.625 
Q 24.75 34.625 20.71875 30.859375 
Q 16.703125 27.09375 16.703125 20.515625 
Q 16.703125 13.921875 20.71875 10.15625 
Q 24.75 6.390625 31.78125 6.390625 
Q 38.8125 6.390625 42.859375 10.171875 
Q 46.921875 13.96875 46.921875 20.515625 
Q 46.921875 27.09375 42.890625 30.859375 
Q 38.875 34.625 31.78125 34.625 
M 21.921875 38.8125 
Q 15.578125 40.375 12.03125 44.71875 
Q 8.5 49.078125 8.5 55.328125 
Q 8.5 64.0625 14.71875 69.140625 
Q 20.953125 74.21875 31.78125 74.21875 
Q 42.671875 74.21875 48.875 69.140625 
Q 55.078125 64.0625 55.078125 55.328125 
Q 55.078125 49.078125 51.53125 44.71875 
Q 48 40.375 41.703125 38.8125 
Q 48.828125 37.15625 52.796875 32.3125 
Q 56.78125 27.484375 56.78125 20.515625 
Q 56.78125 9.90625 50.3125 4.234375 
Q 43.84375 -1.421875 31.78125 -1.421875 
Q 19.734375 -1.421875 13.25 4.234375 
Q 6.78125 9.90625 6.78125 20.515625 
Q 6.78125 27.484375 10.78125 32.3125 
Q 14.796875 37.15625 21.921875 38.8125 
M 18.3125 54.390625 
Q 18.3125 48.734375 21.84375 45.5625 
Q 25.390625 42.390625 31.78125 42.390625 
Q 38.140625 42.390625 41.71875 45.5625 
Q 45.3125 48.734375 45.3125 54.390625 
Q 45.3125 60.0625 41.71875 63.234375 
Q 38.140625 66.40625 31.78125 66.40625 
Q 25.390625 66.40625 21.84375 63.234375 
Q 18.3125 60.0625 18.3125 54.390625 
" id="BitstreamVeraSans-Roman-38"/>
      </defs>
      <g transform="translate(527.678472623 403.196875)scale(0.2 -0.2)">
       <use xlink:href="#BitstreamVeraSans-Roman-38"/>
      </g>
     </g>
    </g>
    <g id="xtick_10"/>
    <g id="xtick_11">
     <g id="line2d_33">
      <defs>
       <path d="M 0 0 
L 0 -2 
" id="m581c8bcf91" style="stroke:#000000;stroke-width:0.5;"/>
      </defs>
      <g>
       <use style="stroke:#000000;stroke-width:0.5;" x="69.2545893472" xlink:href="#m581c8bcf91" y="384.0"/>
      </g>
     </g>
     <g id="line2d_34">
      <defs>
       <path d="M 0 0 
L 0 2 
" id="ma8e7fbfffe" style="stroke:#000000;stroke-width:0.5;"/>
      </defs>
      <g>
       <use style="stroke:#000000;stroke-width:0.5;" x="69.2545893472" xlink:href="#ma8e7fbfffe" y="3.0"/>
      </g>
     </g>
    </g>
    <g id="xtick_12">
     <g id="line2d_35">
      <g>
       <use style="stroke:#000000;stroke-width:0.5;" x="135.652644101" xlink:href="#m581c8bcf91" y="384.0"/>
      </g>
     </g>
     <g id="line2d_36">
      <g>
       <use style="stroke:#000000;stroke-width:0.5;" x="135.652644101" xlink:href="#ma8e7fbfffe" y="3.0"/>
      </g>
     </g>
    </g>
    <g id="xtick_13">
     <g id="line2d_37">
      <g>
       <use style="stroke:#000000;stroke-width:0.5;" x="202.050698855" xlink:href="#m581c8bcf91" y="384.0"/>
      </g>
     </g>
     <g id="line2d_38">
      <g>
       <use style="stroke:#000000;stroke-width:0.5;" x="202.050698855" xlink:href="#ma8e7fbfffe" y="3.0"/>
      </g>
     </g>
    </g>
    <g id="xtick_14">
     <g id="line2d_39">
      <g>
       <use style="stroke:#000000;stroke-width:0.5;" x="268.448753608" xlink:href="#m581c8bcf91" y="384.0"/>
      </g>
     </g>
     <g id="line2d_40">
      <g>
       <use style="stroke:#000000;stroke-width:0.5;" x="268.448753608" xlink:href="#ma8e7fbfffe" y="3.0"/>
      </g>
     </g>
    </g>
    <g id="xtick_15">
     <g id="line2d_41">
      <g>
       <use style="stroke:#000000;stroke-width:0.5;" x="334.846808362" xlink:href="#m581c8bcf91" y="384.0"/>
      </g>
     </g>
     <g id="line2d_42">
      <g>
       <use style="stroke:#000000;stroke-width:0.5;" x="334.846808362" xlink:href="#ma8e7fbfffe" y="3.0"/>
      </g>
     </g>
    </g>
    <g id="xtick_16">
     <g id="line2d_43">
      <g>
       <use style="stroke:#000000;stroke-width:0.5;" x="401.244863116" xlink:href="#m581c8bcf91" y="384.0"/>
      </g>
     </g>
     <g id="line2d_44">
      <g>
       <use style="stroke:#000000;stroke-width:0.5;" x="401.244863116" xlink:href="#ma8e7fbfffe" y="3.0"/>
      </g>
     </g>
    </g>
    <g id="xtick_17">
     <g id="line2d_45">
      <g>
       <use style="stroke:#000000;stroke-width:0.5;" x="467.642917869" xlink:href="#m581c8bcf91" y="384.0"/>
      </g>
     </g>
     <g id="line2d_46">
      <g>
       <use style="stroke:#000000;stroke-width:0.5;" x="467.642917869" xlink:href="#ma8e7fbfffe" y="3.0"/>
      </g>
     </g>
    </g>
    <g id="xtick_18">
     <g id="line2d_47">
      <g>
       <use style="stroke:#000000;stroke-width:0.5;" x="534.040972623" xlink:href="#m581c8bcf91" y="384.0"/>
      </g>
     </g>
     <g id="line2d_48">
      <g>
       <use style="stroke:#000000;stroke-width:0.5;" x="534.040972623" xlink:href="#ma8e7fbfffe" y="3.0"/>
      </g>
     </g>
    </g>
    <g id="text_9">
     <!-- log10 of Df -->
     <defs>
      <path id="BitstreamVeraSans-Roman-20"/>
      <path d="M 12.40625 8.296875 
L 28.515625 8.296875 
L 28.515625 63.921875 
L 10.984375 60.40625 
L 10.984375 69.390625 
L 28.421875 72.90625 
L 38.28125 72.90625 
L 38.28125 8.296875 
L 54.390625 8.296875 
L 54.390625 0 
L 12.40625 0 
z
" id="BitstreamVeraSans-Roman-31"/>
      <path d="M 30.609375 48.390625 
Q 23.390625 48.390625 19.1875 42.75 
Q 14.984375 37.109375 14.984375 27.296875 
Q 14.984375 17.484375 19.15625 11.84375 
Q 23.34375 6.203125 30.609375 6.203125 
Q 37.796875 6.203125 41.984375 11.859375 
Q 46.1875 17.53125 46.1875 27.296875 
Q 46.1875 37.015625 41.984375 42.703125 
Q 37.796875 48.390625 30.609375 48.390625 
M 30.609375 56 
Q 42.328125 56 49.015625 48.375 
Q 55.71875 40.765625 55.71875 27.296875 
Q 55.71875 13.875 49.015625 6.21875 
Q 42.328125 -1.421875 30.609375 -1.421875 
Q 18.84375 -1.421875 12.171875 6.21875 
Q 5.515625 13.875 5.515625 27.296875 
Q 5.515625 40.765625 12.171875 48.375 
Q 18.84375 56 30.609375 56 
" id="BitstreamVeraSans-Roman-6f"/>
      <path d="M 9.421875 75.984375 
L 18.40625 75.984375 
L 18.40625 0 
L 9.421875 0 
z
" id="BitstreamVeraSans-Roman-6c"/>
      <path d="M 19.671875 64.796875 
L 19.671875 8.109375 
L 31.59375 8.109375 
Q 46.6875 8.109375 53.6875 14.9375 
Q 60.6875 21.78125 60.6875 36.53125 
Q 60.6875 51.171875 53.6875 57.984375 
Q 46.6875 64.796875 31.59375 64.796875 
z
M 9.8125 72.90625 
L 30.078125 72.90625 
Q 51.265625 72.90625 61.171875 64.09375 
Q 71.09375 55.28125 71.09375 36.53125 
Q 71.09375 17.671875 61.125 8.828125 
Q 51.171875 0 30.078125 0 
L 9.8125 0 
z
" id="BitstreamVeraSans-Roman-44"/>
      <path d="M 45.40625 27.984375 
Q 45.40625 37.75 41.375 43.109375 
Q 37.359375 48.484375 30.078125 48.484375 
Q 22.859375 48.484375 18.828125 43.109375 
Q 14.796875 37.75 14.796875 27.984375 
Q 14.796875 18.265625 18.828125 12.890625 
Q 22.859375 7.515625 30.078125 7.515625 
Q 37.359375 7.515625 41.375 12.890625 
Q 45.40625 18.265625 45.40625 27.984375 
M 54.390625 6.78125 
Q 54.390625 -7.171875 48.1875 -13.984375 
Q 42 -20.796875 29.203125 -20.796875 
Q 24.46875 -20.796875 20.265625 -20.09375 
Q 16.0625 -19.390625 12.109375 -17.921875 
L 12.109375 -9.1875 
Q 16.0625 -11.328125 19.921875 -12.34375 
Q 23.78125 -13.375 27.78125 -13.375 
Q 36.625 -13.375 41.015625 -8.765625 
Q 45.40625 -4.15625 45.40625 5.171875 
L 45.40625 9.625 
Q 42.625 4.78125 38.28125 2.390625 
Q 33.9375 0 27.875 0 
Q 17.828125 0 11.671875 7.65625 
Q 5.515625 15.328125 5.515625 27.984375 
Q 5.515625 40.671875 11.671875 48.328125 
Q 17.828125 56 27.875 56 
Q 33.9375 56 38.28125 53.609375 
Q 42.625 51.21875 45.40625 46.390625 
L 45.40625 54.6875 
L 54.390625 54.6875 
z
" id="BitstreamVeraSans-Roman-67"/>
      <path d="M 37.109375 75.984375 
L 37.109375 68.5 
L 28.515625 68.5 
Q 23.6875 68.5 21.796875 66.546875 
Q 19.921875 64.59375 19.921875 59.515625 
L 19.921875 54.6875 
L 34.71875 54.6875 
L 34.71875 47.703125 
L 19.921875 47.703125 
L 19.921875 0 
L 10.890625 0 
L 10.890625 47.703125 
L 2.296875 47.703125 
L 2.296875 54.6875 
L 10.890625 54.6875 
L 10.890625 58.5 
Q 10.890625 67.625 15.140625 71.796875 
Q 19.390625 75.984375 28.609375 75.984375 
z
" id="BitstreamVeraSans-Roman-66"/>
     </defs>
     <g transform="translate(229.9340625 427.553125)scale(0.2 -0.2)">
      <use xlink:href="#BitstreamVeraSans-Roman-6c"/>
      <use x="27.783203125" xlink:href="#BitstreamVeraSans-Roman-6f"/>
      <use x="88.96484375" xlink:href="#BitstreamVeraSans-Roman-67"/>
      <use x="152.44140625" xlink:href="#BitstreamVeraSans-Roman-31"/>
      <use x="216.064453125" xlink:href="#BitstreamVeraSans-Roman-30"/>
      <use x="279.6875" xlink:href="#BitstreamVeraSans-Roman-20"/>
      <use x="311.474609375" xlink:href="#BitstreamVeraSans-Roman-6f"/>
      <use x="372.65625" xlink:href="#BitstreamVeraSans-Roman-66"/>
      <use x="407.861328125" xlink:href="#BitstreamVeraSans-Roman-20"/>
      <use x="439.6484375" xlink:href="#BitstreamVeraSans-Roman-44"/>
      <use x="516.650390625" xlink:href="#BitstreamVeraSans-Roman-66"/>
     </g>
    </g>
   </g>
   <g id="matplotlib.axis_2">
    <g id="ytick_1">
     <g id="line2d_49">
      <path clip-path="url(#pb2e5ca04d9)" d="M 3 384 
L 567.24 384 
" style="fill:none;stroke:#000000;stroke-dasharray:1.000000,3.000000;stroke-dashoffset:0.0;stroke-width:0.5;"/>
     </g>
     <g id="line2d_50">
      <defs>
       <path d="M 0 0 
L 4 0 
" id="medea2e7767" style="stroke:#000000;stroke-width:0.5;"/>
      </defs>
      <g>
       <use style="stroke:#000000;stroke-width:0.5;" x="3.0" xlink:href="#medea2e7767" y="384.0"/>
      </g>
     </g>
     <g id="line2d_51">
      <defs>
       <path d="M 0 0 
L -4 0 
" id="mec96ccfade" style="stroke:#000000;stroke-width:0.5;"/>
      </defs>
      <g>
       <use style="stroke:#000000;stroke-width:0.5;" x="567.24" xlink:href="#mec96ccfade" y="384.0"/>
      </g>
     </g>
    </g>
    <g id="ytick_2">
     <g id="line2d_52">
      <path clip-path="url(#pb2e5ca04d9)" d="M 3 308.554455 
L 567.24 308.554455 
" style="fill:none;stroke:#000000;stroke-dasharray:1.000000,3.000000;stroke-dashoffset:0.0;stroke-width:0.5;"/>
     </g>
     <g id="line2d_53">
      <g>
       <use style="stroke:#000000;stroke-width:0.5;" x="3.0" xlink:href="#medea2e7767" y="308.554455446"/>
      </g>
     </g>
     <g id="line2d_54">
      <g>
       <use style="stroke:#000000;stroke-width:0.5;" x="567.24" xlink:href="#mec96ccfade" y="308.554455446"/>
      </g>
     </g>
    </g>
    <g id="ytick_3">
     <g id="line2d_55">
      <path clip-path="url(#pb2e5ca04d9)" d="M 3 233.108911 
L 567.24 233.108911 
" style="fill:none;stroke:#000000;stroke-dasharray:1.000000,3.000000;stroke-dashoffset:0.0;stroke-width:0.5;"/>
     </g>
     <g id="line2d_56">
      <g>
       <use style="stroke:#000000;stroke-width:0.5;" x="3.0" xlink:href="#medea2e7767" y="233.108910891"/>
      </g>
     </g>
     <g id="line2d_57">
      <g>
       <use style="stroke:#000000;stroke-width:0.5;" x="567.24" xlink:href="#mec96ccfade" y="233.108910891"/>
      </g>
     </g>
    </g>
    <g id="ytick_4">
     <g id="line2d_58">
      <path clip-path="url(#pb2e5ca04d9)" d="M 3 157.663366 
L 567.24 157.663366 
" style="fill:none;stroke:#000000;stroke-dasharray:1.000000,3.000000;stroke-dashoffset:0.0;stroke-width:0.5;"/>
     </g>
     <g id="line2d_59">
      <g>
       <use style="stroke:#000000;stroke-width:0.5;" x="3.0" xlink:href="#medea2e7767" y="157.663366337"/>
      </g>
     </g>
     <g id="line2d_60">
      <g>
       <use style="stroke:#000000;stroke-width:0.5;" x="567.24" xlink:href="#mec96ccfade" y="157.663366337"/>
      </g>
     </g>
    </g>
    <g id="ytick_5">
     <g id="line2d_61">
      <path clip-path="url(#pb2e5ca04d9)" d="M 3 82.217822 
L 567.24 82.217822 
" style="fill:none;stroke:#000000;stroke-dasharray:1.000000,3.000000;stroke-dashoffset:0.0;stroke-width:0.5;"/>
     </g>
     <g id="line2d_62">
      <g>
       <use style="stroke:#000000;stroke-width:0.5;" x="3.0" xlink:href="#medea2e7767" y="82.2178217822"/>
      </g>
     </g>
     <g id="line2d_63">
      <g>
       <use style="stroke:#000000;stroke-width:0.5;" x="567.24" xlink:href="#mec96ccfade" y="82.2178217822"/>
      </g>
     </g>
    </g>
    <g id="ytick_6">
     <g id="line2d_64">
      <path clip-path="url(#pb2e5ca04d9)" d="M 3 6.772277 
L 567.24 6.772277 
" style="fill:none;stroke:#000000;stroke-dasharray:1.000000,3.000000;stroke-dashoffset:0.0;stroke-width:0.5;"/>
     </g>
     <g id="line2d_65">
      <g>
       <use style="stroke:#000000;stroke-width:0.5;" x="3.0" xlink:href="#medea2e7767" y="6.77227722772"/>
      </g>
     </g>
     <g id="line2d_66">
      <g>
       <use style="stroke:#000000;stroke-width:0.5;" x="567.24" xlink:href="#mec96ccfade" y="6.77227722772"/>
      </g>
     </g>
    </g>
   </g>
   <g id="text_10">
    <!-- {f15-f19}, 20-D -->
    <defs>
     <path d="M 12.5 -9.28125 
L 15.921875 -9.28125 
Q 22.75 -9.28125 24.828125 -7.171875 
Q 26.90625 -5.078125 26.90625 1.90625 
L 26.90625 14.015625 
Q 26.90625 21.625 29.09375 25.09375 
Q 31.296875 28.5625 36.71875 29.890625 
Q 31.296875 31.109375 29.09375 34.5625 
Q 26.90625 38.03125 26.90625 45.703125 
L 26.90625 57.8125 
Q 26.90625 64.75 24.828125 66.875 
Q 22.75 69 15.921875 69 
L 12.5 69 
L 12.5 75.984375 
L 15.578125 75.984375 
Q 27.734375 75.984375 31.8125 72.390625 
Q 35.890625 68.796875 35.890625 58.015625 
L 35.890625 46.296875 
Q 35.890625 39.015625 38.515625 36.203125 
Q 41.15625 33.40625 48.09375 33.40625 
L 51.125 33.40625 
L 51.125 26.421875 
L 48.09375 26.421875 
Q 41.15625 26.421875 38.515625 23.578125 
Q 35.890625 20.75 35.890625 13.375 
L 35.890625 1.703125 
Q 35.890625 -9.078125 31.8125 -12.6875 
Q 27.734375 -16.3125 15.578125 -16.3125 
L 12.5 -16.3125 
z
" id="BitstreamVeraSans-Roman-7d"/>
     <path d="M 10.984375 1.515625 
L 10.984375 10.5 
Q 14.703125 8.734375 18.5 7.8125 
Q 22.3125 6.890625 25.984375 6.890625 
Q 35.75 6.890625 40.890625 13.453125 
Q 46.046875 20.015625 46.78125 33.40625 
Q 43.953125 29.203125 39.59375 26.953125 
Q 35.25 24.703125 29.984375 24.703125 
Q 19.046875 24.703125 12.671875 31.3125 
Q 6.296875 37.9375 6.296875 49.421875 
Q 6.296875 60.640625 12.9375 67.421875 
Q 19.578125 74.21875 30.609375 74.21875 
Q 43.265625 74.21875 49.921875 64.515625 
Q 56.59375 54.828125 56.59375 36.375 
Q 56.59375 19.140625 48.40625 8.859375 
Q 40.234375 -1.421875 26.421875 -1.421875 
Q 22.703125 -1.421875 18.890625 -0.6875 
Q 15.09375 0.046875 10.984375 1.515625 
M 30.609375 32.421875 
Q 37.25 32.421875 41.125 36.953125 
Q 45.015625 41.5 45.015625 49.421875 
Q 45.015625 57.28125 41.125 61.84375 
Q 37.25 66.40625 30.609375 66.40625 
Q 23.96875 66.40625 20.09375 61.84375 
Q 16.21875 57.28125 16.21875 49.421875 
Q 16.21875 41.5 20.09375 36.953125 
Q 23.96875 32.421875 30.609375 32.421875 
" id="BitstreamVeraSans-Roman-39"/>
     <path d="M 51.125 -9.28125 
L 51.125 -16.3125 
L 48.09375 -16.3125 
Q 35.9375 -16.3125 31.8125 -12.6875 
Q 27.6875 -9.078125 27.6875 1.703125 
L 27.6875 13.375 
Q 27.6875 20.75 25.046875 23.578125 
Q 22.40625 26.421875 15.484375 26.421875 
L 12.5 26.421875 
L 12.5 33.40625 
L 15.484375 33.40625 
Q 22.46875 33.40625 25.078125 36.203125 
Q 27.6875 39.015625 27.6875 46.296875 
L 27.6875 58.015625 
Q 27.6875 68.796875 31.8125 72.390625 
Q 35.9375 75.984375 48.09375 75.984375 
L 51.125 75.984375 
L 51.125 69 
L 47.796875 69 
Q 40.921875 69 38.8125 66.84375 
Q 36.71875 64.703125 36.71875 57.8125 
L 36.71875 45.703125 
Q 36.71875 38.03125 34.5 34.5625 
Q 32.28125 31.109375 26.90625 29.890625 
Q 32.328125 28.5625 34.515625 25.09375 
Q 36.71875 21.625 36.71875 14.015625 
L 36.71875 1.90625 
Q 36.71875 -4.984375 38.8125 -7.125 
Q 40.921875 -9.28125 47.796875 -9.28125 
z
" id="BitstreamVeraSans-Roman-7b"/>
     <path d="M 11.71875 12.40625 
L 22.015625 12.40625 
L 22.015625 4 
L 14.015625 -11.625 
L 7.71875 -11.625 
L 11.71875 4 
z
" id="BitstreamVeraSans-Roman-2c"/>
     <path d="M 10.796875 72.90625 
L 49.515625 72.90625 
L 49.515625 64.59375 
L 19.828125 64.59375 
L 19.828125 46.734375 
Q 21.96875 47.46875 24.109375 47.828125 
Q 26.265625 48.1875 28.421875 48.1875 
Q 40.625 48.1875 47.75 41.5 
Q 54.890625 34.8125 54.890625 23.390625 
Q 54.890625 11.625 47.5625 5.09375 
Q 40.234375 -1.421875 26.90625 -1.421875 
Q 22.3125 -1.421875 17.546875 -0.640625 
Q 12.796875 0.140625 7.71875 1.703125 
L 7.71875 11.625 
Q 12.109375 9.234375 16.796875 8.0625 
Q 21.484375 6.890625 26.703125 6.890625 
Q 35.15625 6.890625 40.078125 11.328125 
Q 45.015625 15.765625 45.015625 23.390625 
Q 45.015625 31 40.078125 35.4375 
Q 35.15625 39.890625 26.703125 39.890625 
Q 22.75 39.890625 18.8125 39.015625 
Q 14.890625 38.140625 10.796875 36.28125 
z
" id="BitstreamVeraSans-Roman-35"/>
    </defs>
    <g transform="translate(397.5302 376.38)scale(0.2 -0.2)">
     <use xlink:href="#BitstreamVeraSans-Roman-7b"/>
     <use x="63.623046875" xlink:href="#BitstreamVeraSans-Roman-66"/>
     <use x="98.828125" xlink:href="#BitstreamVeraSans-Roman-31"/>
     <use x="162.451171875" xlink:href="#BitstreamVeraSans-Roman-35"/>
     <use x="226.07421875" xlink:href="#BitstreamVeraSans-Roman-2d"/>
     <use x="262.158203125" xlink:href="#BitstreamVeraSans-Roman-66"/>
     <use x="297.36328125" xlink:href="#BitstreamVeraSans-Roman-31"/>
     <use x="360.986328125" xlink:href="#BitstreamVeraSans-Roman-39"/>
     <use x="424.609375" xlink:href="#BitstreamVeraSans-Roman-7d"/>
     <use x="488.232421875" xlink:href="#BitstreamVeraSans-Roman-2c"/>
     <use x="520.01953125" xlink:href="#BitstreamVeraSans-Roman-20"/>
     <use x="551.806640625" xlink:href="#BitstreamVeraSans-Roman-32"/>
     <use x="615.4296875" xlink:href="#BitstreamVeraSans-Roman-30"/>
     <use x="679.052734375" xlink:href="#BitstreamVeraSans-Roman-2d"/>
     <use x="715.13671875" xlink:href="#BitstreamVeraSans-Roman-44"/>
    </g>
   </g>
   <g id="text_11">
    <!-- v2.2.1.10 -->
    <defs>
     <path d="M 2.984375 54.6875 
L 12.5 54.6875 
L 29.59375 8.796875 
L 46.6875 54.6875 
L 56.203125 54.6875 
L 35.6875 0 
L 23.484375 0 
z
" id="BitstreamVeraSans-Roman-76"/>
     <path d="M 10.6875 12.40625 
L 21 12.40625 
L 21 0 
L 10.6875 0 
z
" id="BitstreamVeraSans-Roman-2e"/>
    </defs>
    <g style="fill:#808080;" transform="translate(261.4871875 378.1103125)scale(0.1 -0.1)">
     <use xlink:href="#BitstreamVeraSans-Roman-76"/>
     <use x="59.1796875" xlink:href="#BitstreamVeraSans-Roman-32"/>
     <use x="122.802734375" xlink:href="#BitstreamVeraSans-Roman-2e"/>
     <use x="154.58984375" xlink:href="#BitstreamVeraSans-Roman-32"/>
     <use x="218.212890625" xlink:href="#BitstreamVeraSans-Roman-2e"/>
     <use x="250.0" xlink:href="#BitstreamVeraSans-Roman-31"/>
     <use x="313.623046875" xlink:href="#BitstreamVeraSans-Roman-2e"/>
     <use x="345.41015625" xlink:href="#BitstreamVeraSans-Roman-31"/>
     <use x="409.033203125" xlink:href="#BitstreamVeraSans-Roman-30"/>
    </g>
   </g>
  </g>
 </g>
 <defs>
  <clipPath id="pb2e5ca04d9">
   <rect height="381.0" width="564.24" x="3.0" y="3.0"/>
  </clipPath>
 </defs>
</svg>
