<?xml version="1.0" encoding="utf-8" standalone="no"?>
<!DOCTYPE svg PUBLIC "-//W3C//DTD SVG 1.1//EN"
  "http://www.w3.org/Graphics/SVG/1.1/DTD/svg11.dtd">
<!-- Created with matplotlib (http://matplotlib.org/) -->
<svg height="432pt" version="1.1" viewBox="0 0 576 432" width="576pt" xmlns="http://www.w3.org/2000/svg" xmlns:xlink="http://www.w3.org/1999/xlink">
 <defs>
  <style type="text/css">
*{stroke-linecap:butt;stroke-linejoin:round;stroke-miterlimit:100000;}
  </style>
 </defs>
 <g id="figure_1">
  <g id="patch_1">
   <path d="M 0 432 
L 576 432 
L 576 0 
L 0 0 
z
" style="fill:#ffffff;"/>
  </g>
  <g id="axes_1">
   <g id="patch_2">
    <path d="M 3 384 
L 567.24 384 
L 567.24 3 
L 3 3 
z
" style="fill:#ffffff;"/>
   </g>
   <g id="line2d_1">
    <path clip-path="url(#pe249b48eb6)" d="M 248.482486 384 
L 248.482486 378.970297 
L 248.482486 378.970297 
L 248.482486 378.970297 
L 248.482486 373.940594 
L 248.482486 373.940594 
L 248.482486 373.940594 
L 248.482486 368.910891 
L 248.482486 368.910891 
L 248.482486 368.910891 
L 248.482486 363.881188 
L 248.482486 363.881188 
L 248.482486 363.881188 
L 248.482486 358.851485 
L 248.482486 358.851485 
L 248.482486 358.851485 
L 248.482486 353.821782 
L 248.482486 353.821782 
L 248.482486 353.821782 
L 248.482486 348.792079 
L 248.482486 348.792079 
L 248.482486 348.792079 
L 248.482486 343.762376 
L 248.482486 343.762376 
L 248.482486 343.762376 
L 248.482486 338.732673 
L 248.482486 338.732673 
L 248.482486 338.732673 
L 248.482486 333.70297 
L 248.482486 333.70297 
L 248.482486 333.70297 
L 248.482486 328.673267 
L 248.482486 328.673267 
L 248.482486 328.673267 
L 248.482486 323.643564 
L 248.482486 323.643564 
L 248.482486 323.643564 
L 248.482486 318.613861 
L 248.482486 318.613861 
L 248.482486 318.613861 
L 248.482486 313.584158 
L 248.482486 313.584158 
L 248.482486 313.584158 
L 248.482486 308.554455 
L 269.962491 308.554455 
L 269.962491 303.524752 
L 273.473326 303.524752 
L 273.568223 293.465347 
L 274.752329 293.465347 
L 274.752329 288.435644 
L 275.933196 288.435644 
L 275.933196 283.405941 
L 276.778699 283.405941 
L 276.778699 278.376238 
L 278.178292 278.376238 
L 278.178292 273.346535 
L 279.243476 273.346535 
L 279.243476 268.316832 
L 279.977336 268.316832 
L 280.056276 253.227723 
L 281.915724 253.227723 
L 281.915724 248.19802 
L 282.0287 248.19802 
L 282.0287 243.168317 
L 282.366519 243.168317 
L 282.366519 238.138614 
L 282.971551 238.138614 
L 282.971551 233.108911 
L 283.644126 233.108911 
L 283.644126 228.079208 
L 283.795102 228.079208 
L 283.795102 223.049505 
L 287.703901 223.049505 
L 287.703901 218.019802 
L 288.15257 218.019802 
L 288.15257 212.990099 
L 288.5241 212.990099 
L 288.5241 207.960396 
L 289.652792 207.960396 
L 289.652792 202.930693 
L 290.278635 202.930693 
L 290.278635 197.90099 
L 291.149623 197.90099 
L 291.149623 192.871287 
L 292.102554 192.871287 
L 292.106855 182.811881 
L 293.35031 182.811881 
L 293.35031 177.782178 
L 293.711098 177.782178 
L 293.711098 172.752475 
L 294.248514 172.752475 
L 294.248514 167.722772 
L 294.909323 167.722772 
L 294.909323 162.693069 
L 295.747281 162.693069 
L 295.747281 157.663366 
L 296.113312 157.663366 
L 296.204048 147.60396 
L 296.458699 147.60396 
L 296.458699 142.574257 
L 296.969515 142.574257 
L 296.969515 137.544554 
L 297.577088 137.544554 
L 297.577088 132.514851 
L 298.151714 132.514851 
L 298.151714 127.485149 
L 299.311526 127.485149 
L 299.419358 117.425743 
L 301.077166 117.425743 
L 301.077166 112.39604 
L 301.822785 112.39604 
L 301.822785 107.366337 
L 301.937148 107.366337 
L 301.997623 97.306931 
L 302.970508 97.306931 
L 302.970508 92.277228 
L 305.725144 92.277228 
L 305.725144 87.247525 
L 306.501709 87.247525 
L 306.501709 82.217822 
L 306.806837 82.217822 
L 306.806837 77.188119 
L 311.963076 77.188119 
L 311.963076 72.158416 
L 313.46611 72.158416 
L 313.46611 67.128713 
L 314.319592 67.128713 
L 314.319592 62.09901 
L 314.88207 62.09901 
L 314.88207 57.069307 
L 315.907104 57.069307 
L 315.907104 52.039604 
L 317.769625 52.039604 
L 317.81464 41.980198 
L 318.487647 41.980198 
L 318.487647 36.950495 
L 318.758793 36.950495 
L 318.758793 31.920792 
L 319.108046 31.920792 
L 319.108046 26.891089 
L 319.611996 26.891089 
L 319.611996 21.861386 
L 320.488602 21.861386 
L 320.488602 16.831683 
L 321.486143 16.831683 
L 321.486143 11.80198 
L 323.068107 11.80198 
L 323.068107 6.772277 
L 323.068107 6.772277 
L 567.24 6.772277 
L 567.24 6.772277 
" style="fill:none;stroke:#ff0000;stroke-linecap:square;stroke-width:3.0;"/>
   </g>
   <g id="line2d_2">
    <path clip-path="url(#pe249b48eb6)" d="M 248.482486 384 
L 248.482486 378.970297 
L 248.482486 378.970297 
L 248.482486 378.970297 
L 248.482486 373.940594 
L 248.482486 373.940594 
L 248.482486 373.940594 
L 248.482486 368.910891 
L 248.482486 368.910891 
L 248.482486 368.910891 
L 248.482486 363.881188 
L 248.482486 363.881188 
L 248.482486 363.881188 
L 248.482486 358.851485 
L 248.482486 358.851485 
L 248.482486 358.851485 
L 248.482486 353.821782 
L 248.482486 353.821782 
L 248.482486 353.821782 
L 248.482486 348.792079 
L 248.482486 348.792079 
L 248.482486 348.792079 
L 248.482486 343.762376 
L 248.482486 343.762376 
L 248.482486 343.762376 
L 248.482486 338.732673 
L 248.482486 338.732673 
L 248.482486 338.732673 
L 248.482486 333.70297 
L 248.482486 333.70297 
L 248.482486 333.70297 
L 248.482486 328.673267 
L 248.482486 328.673267 
L 248.482486 328.673267 
L 248.482486 323.643564 
L 248.482486 323.643564 
L 248.482486 323.643564 
L 248.482486 318.613861 
L 248.482486 318.613861 
L 248.482486 318.613861 
L 248.482486 313.584158 
L 248.482486 313.584158 
L 248.482486 313.584158 
L 248.482486 308.554455 
L 296.939989 308.554455 
L 296.939989 303.524752 
L 297.603537 303.524752 
L 297.603537 298.49505 
L 301.178329 298.49505 
L 301.178329 293.465347 
L 302.099604 293.465347 
L 302.099604 288.435644 
L 304.925783 288.435644 
L 304.925783 283.405941 
L 305.714185 283.405941 
L 305.714185 278.376238 
L 306.881984 278.376238 
L 306.881984 273.346535 
L 308.70294 273.346535 
L 308.70294 268.316832 
L 308.825837 268.316832 
L 308.825837 263.287129 
L 310.656436 263.287129 
L 310.656436 258.257426 
L 310.77325 258.257426 
L 310.786203 248.19802 
L 311.857327 248.19802 
L 311.857327 243.168317 
L 314.784162 243.168317 
L 314.784162 238.138614 
L 315.288056 238.138614 
L 315.288056 233.108911 
L 315.934725 233.108911 
L 315.934725 228.079208 
L 318.14125 228.079208 
L 318.14125 223.049505 
L 318.278748 223.049505 
L 318.278748 218.019802 
L 319.463966 218.019802 
L 319.463966 212.990099 
L 320.213981 212.990099 
L 320.213981 207.960396 
L 320.485442 207.960396 
L 320.485442 202.930693 
L 321.429496 202.930693 
L 321.429496 197.90099 
L 321.674104 197.90099 
L 321.674104 192.871287 
L 322.566506 192.871287 
L 322.566506 187.841584 
L 323.071858 187.841584 
L 323.071858 182.811881 
L 323.404833 182.811881 
L 323.404833 177.782178 
L 324.455166 177.782178 
L 324.455166 172.752475 
L 325.730025 172.752475 
L 325.730025 167.722772 
L 326.625067 167.722772 
L 326.625067 162.693069 
L 327.660364 162.693069 
L 327.660364 157.663366 
L 328.631538 157.663366 
L 328.712602 147.60396 
L 329.494157 147.60396 
L 329.494157 142.574257 
L 329.968724 142.574257 
L 329.968724 137.544554 
L 330.889373 137.544554 
L 330.889373 132.514851 
L 331.076537 132.514851 
L 331.076537 127.485149 
L 331.578853 127.485149 
L 331.578853 122.455446 
L 334.092165 122.455446 
L 334.092165 117.425743 
L 334.330326 117.425743 
L 334.330326 112.39604 
L 335.133031 112.39604 
L 335.133031 107.366337 
L 335.289868 107.366337 
L 335.289868 102.336634 
L 335.592097 102.336634 
L 335.592097 97.306931 
L 336.048474 97.306931 
L 336.048474 92.277228 
L 336.200281 92.277228 
L 336.200281 87.247525 
L 336.425607 87.247525 
L 336.425607 82.217822 
L 337.20932 82.217822 
L 337.20932 77.188119 
L 338.834606 77.188119 
L 338.858436 67.128713 
L 339.005237 67.128713 
L 339.005237 62.09901 
L 339.917051 62.09901 
L 339.917051 57.069307 
L 340.048791 57.069307 
L 340.048791 52.039604 
L 340.27084 52.039604 
L 340.336384 41.980198 
L 340.708773 41.980198 
L 340.799763 31.920792 
L 341.394331 31.920792 
L 341.394331 26.891089 
L 342.939423 26.891089 
L 342.939423 21.861386 
L 344.15 21.861386 
L 344.15 16.831683 
L 354.22085 16.831683 
L 354.22085 11.80198 
L 355.616875 11.80198 
L 355.616875 6.772277 
L 355.616875 6.772277 
L 567.24 6.772277 
L 567.24 6.772277 
" style="fill:none;stroke:#00bfbf;stroke-linecap:square;"/>
   </g>
   <g id="line2d_3">
    <path clip-path="url(#pe249b48eb6)" d="M 248.482486 384 
L 248.482486 378.970297 
L 248.482486 378.970297 
L 248.482486 378.970297 
L 248.482486 373.940594 
L 248.482486 373.940594 
L 248.482486 373.940594 
L 248.482486 368.910891 
L 248.482486 368.910891 
L 248.482486 368.910891 
L 248.482486 363.881188 
L 248.482486 363.881188 
L 248.482486 363.881188 
L 248.482486 358.851485 
L 248.482486 358.851485 
L 248.482486 358.851485 
L 248.482486 353.821782 
L 248.482486 353.821782 
L 248.482486 353.821782 
L 248.482486 348.792079 
L 248.482486 348.792079 
L 248.482486 348.792079 
L 248.482486 343.762376 
L 248.482486 343.762376 
L 248.482486 343.762376 
L 248.482486 338.732673 
L 248.482486 338.732673 
L 248.482486 338.732673 
L 248.482486 333.70297 
L 248.482486 333.70297 
L 248.482486 333.70297 
L 248.482486 328.673267 
L 248.482486 328.673267 
L 248.482486 328.673267 
L 248.482486 323.643564 
L 248.482486 323.643564 
L 248.482486 323.643564 
L 248.482486 318.613861 
L 248.482486 318.613861 
L 248.482486 318.613861 
L 248.482486 313.584158 
L 248.482486 313.584158 
L 248.482486 313.584158 
L 248.482486 308.554455 
L 296.939989 308.554455 
L 296.939989 303.524752 
L 297.603537 303.524752 
L 297.603537 298.49505 
L 299.816444 298.49505 
L 299.816444 293.465347 
L 301.178329 293.465347 
L 301.178329 288.435644 
L 301.375301 288.435644 
L 301.375301 283.405941 
L 301.595125 283.405941 
L 301.595125 278.376238 
L 304.925783 278.376238 
L 304.925783 273.346535 
L 305.623852 273.346535 
L 305.714185 263.287129 
L 306.409678 263.287129 
L 306.409678 258.257426 
L 306.881984 258.257426 
L 306.881984 253.227723 
L 307.753992 253.227723 
L 307.753992 248.19802 
L 308.70294 248.19802 
L 308.70294 243.168317 
L 308.91226 243.168317 
L 308.91226 238.138614 
L 310.656436 238.138614 
L 310.656436 233.108911 
L 311.857327 233.108911 
L 311.857327 228.079208 
L 314.317671 228.079208 
L 314.317671 223.049505 
L 314.739043 223.049505 
L 314.784162 212.990099 
L 315.288056 212.990099 
L 315.288056 207.960396 
L 315.68887 207.960396 
L 315.68887 202.930693 
L 315.934725 202.930693 
L 315.934725 197.90099 
L 318.14125 197.90099 
L 318.14125 192.871287 
L 318.278748 192.871287 
L 318.278748 187.841584 
L 318.930417 187.841584 
L 318.930417 182.811881 
L 319.488206 182.811881 
L 319.488206 177.782178 
L 319.879403 177.782178 
L 319.943127 167.722772 
L 321.228621 167.722772 
L 321.293555 157.663366 
L 321.399153 157.663366 
L 321.399153 152.633663 
L 322.566506 152.633663 
L 322.566506 147.60396 
L 322.803474 147.60396 
L 322.803474 142.574257 
L 323.071858 142.574257 
L 323.071858 137.544554 
L 325.082364 137.544554 
L 325.082364 132.514851 
L 325.310679 132.514851 
L 325.310679 127.485149 
L 325.44276 127.485149 
L 325.44276 122.455446 
L 326.457688 122.455446 
L 326.457688 117.425743 
L 327.249542 117.425743 
L 327.249542 112.39604 
L 327.436984 112.39604 
L 327.436984 107.366337 
L 328.53744 107.366337 
L 328.53744 102.336634 
L 329.199466 102.336634 
L 329.199466 97.306931 
L 331.076537 97.306931 
L 331.076537 92.277228 
L 332.493751 92.277228 
L 332.493751 87.247525 
L 333.860967 87.247525 
L 333.860967 82.217822 
L 336.200281 82.217822 
L 336.200281 77.188119 
L 336.425607 77.188119 
L 336.425607 72.158416 
L 337.20932 72.158416 
L 337.20932 67.128713 
L 337.92732 67.128713 
L 337.92732 62.09901 
L 338.834606 62.09901 
L 338.834606 57.069307 
L 339.173116 57.069307 
L 339.173116 52.039604 
L 339.917051 52.039604 
L 339.917051 47.009901 
L 340.048791 47.009901 
L 340.048791 41.980198 
L 340.336384 41.980198 
L 340.336384 36.950495 
L 340.708773 36.950495 
L 340.708773 31.920792 
L 341.394331 31.920792 
L 341.394331 26.891089 
L 342.939423 26.891089 
L 342.939423 21.861386 
L 343.447136 21.861386 
L 343.447136 16.831683 
L 344.15 16.831683 
L 344.15 11.80198 
L 355.616875 11.80198 
L 355.616875 6.772277 
L 355.616875 6.772277 
L 567.24 6.772277 
L 567.24 6.772277 
" style="fill:none;stroke:#bf00bf;stroke-linecap:square;"/>
   </g>
   <g id="line2d_4">
    <path clip-path="url(#pe249b48eb6)" d="M 248.482486 384 
L 248.482486 378.970297 
L 248.482486 378.970297 
L 248.482486 378.970297 
L 248.482486 373.940594 
L 248.482486 373.940594 
L 248.482486 373.940594 
L 248.482486 368.910891 
L 248.482486 368.910891 
L 248.482486 368.910891 
L 248.482486 363.881188 
L 248.482486 363.881188 
L 248.482486 363.881188 
L 248.482486 358.851485 
L 248.482486 358.851485 
L 248.482486 358.851485 
L 248.482486 353.821782 
L 248.482486 353.821782 
L 248.482486 353.821782 
L 248.482486 348.792079 
L 248.482486 348.792079 
L 248.482486 348.792079 
L 248.482486 343.762376 
L 248.482486 343.762376 
L 248.482486 343.762376 
L 248.482486 338.732673 
L 248.482486 338.732673 
L 248.482486 338.732673 
L 248.482486 333.70297 
L 248.482486 333.70297 
L 248.482486 333.70297 
L 248.482486 328.673267 
L 248.482486 328.673267 
L 248.482486 328.673267 
L 248.482486 323.643564 
L 248.482486 323.643564 
L 248.482486 323.643564 
L 248.482486 318.613861 
L 248.482486 318.613861 
L 248.482486 318.613861 
L 248.482486 313.584158 
L 248.482486 313.584158 
L 248.482486 313.584158 
L 248.482486 308.554455 
L 282.403723 308.554455 
L 282.403723 303.524752 
L 291.529798 303.524752 
L 291.529798 298.49505 
L 292.89272 298.49505 
L 292.89272 293.465347 
L 294.994145 293.465347 
L 294.994145 288.435644 
L 296.052841 288.435644 
L 296.052841 283.405941 
L 297.603537 283.405941 
L 297.603537 278.376238 
L 298.495657 278.376238 
L 298.495657 273.346535 
L 299.214455 273.346535 
L 299.214455 268.316832 
L 299.554692 268.316832 
L 299.624707 258.257426 
L 300.849491 258.257426 
L 300.849491 253.227723 
L 302.004716 253.227723 
L 302.004716 248.19802 
L 305.863249 248.19802 
L 305.863249 243.168317 
L 306.48172 243.168317 
L 306.48172 238.138614 
L 307.753992 238.138614 
L 307.753992 233.108911 
L 308.70294 233.108911 
L 308.70294 228.079208 
L 308.836106 228.079208 
L 308.91226 218.019802 
L 313.870379 218.019802 
L 313.870379 212.990099 
L 314.317671 212.990099 
L 314.317671 207.960396 
L 314.739043 207.960396 
L 314.810287 192.871287 
L 315.288056 192.871287 
L 315.288056 187.841584 
L 315.68887 187.841584 
L 315.68887 182.811881 
L 315.934725 182.811881 
L 315.934725 177.782178 
L 316.316442 177.782178 
L 316.316442 172.752475 
L 318.278748 172.752475 
L 318.278748 167.722772 
L 318.448962 167.722772 
L 318.448962 162.693069 
L 318.930417 162.693069 
L 318.930417 157.663366 
L 319.594354 157.663366 
L 319.594354 152.633663 
L 319.879403 152.633663 
L 319.879403 147.60396 
L 320.109659 147.60396 
L 320.109659 142.574257 
L 320.872663 142.574257 
L 320.872663 137.544554 
L 321.228621 137.544554 
L 321.228621 132.514851 
L 322.566506 132.514851 
L 322.566506 127.485149 
L 322.803474 127.485149 
L 322.803474 122.455446 
L 323.375242 122.455446 
L 323.375242 117.425743 
L 324.412036 117.425743 
L 324.472663 107.366337 
L 324.822911 107.366337 
L 324.822911 102.336634 
L 325.688906 102.336634 
L 325.688906 97.306931 
L 325.809046 97.306931 
L 325.809046 92.277228 
L 328.206329 92.277228 
L 328.206329 87.247525 
L 328.480797 87.247525 
L 328.480797 82.217822 
L 329.199466 82.217822 
L 329.199466 77.188119 
L 331.727114 77.188119 
L 331.727114 72.158416 
L 332.250497 72.158416 
L 332.250497 67.128713 
L 336.06775 67.128713 
L 336.06775 62.09901 
L 336.217023 62.09901 
L 336.217023 57.069307 
L 337.20932 57.069307 
L 337.20932 52.039604 
L 337.592975 52.039604 
L 337.667706 41.980198 
L 337.92732 41.980198 
L 337.92732 36.950495 
L 340.048791 36.950495 
L 340.048791 31.920792 
L 340.336384 31.920792 
L 340.336384 26.891089 
L 340.708773 26.891089 
L 340.708773 21.861386 
L 342.939423 21.861386 
L 342.939423 16.831683 
L 344.15 16.831683 
L 344.15 11.80198 
L 347.537842 11.80198 
L 347.537842 6.772277 
L 347.537842 6.772277 
L 567.24 6.772277 
L 567.24 6.772277 
" style="fill:none;stroke:#000000;stroke-linecap:square;"/>
   </g>
   <g id="line2d_5">
    <path clip-path="url(#pe249b48eb6)" d="M 248.482486 384 
L 248.482486 378.970297 
L 248.482486 378.970297 
L 248.482486 378.970297 
L 248.482486 373.940594 
L 248.482486 373.940594 
L 248.482486 373.940594 
L 248.482486 368.910891 
L 248.482486 368.910891 
L 248.482486 368.910891 
L 248.482486 363.881188 
L 248.482486 363.881188 
L 248.482486 363.881188 
L 248.482486 358.851485 
L 248.482486 358.851485 
L 248.482486 358.851485 
L 248.482486 353.821782 
L 248.482486 353.821782 
L 248.482486 353.821782 
L 248.482486 348.792079 
L 248.482486 348.792079 
L 248.482486 348.792079 
L 248.482486 343.762376 
L 248.482486 343.762376 
L 248.482486 343.762376 
L 248.482486 338.732673 
L 248.482486 338.732673 
L 248.482486 338.732673 
L 248.482486 333.70297 
L 248.482486 333.70297 
L 248.482486 333.70297 
L 248.482486 328.673267 
L 248.482486 328.673267 
L 248.482486 328.673267 
L 248.482486 323.643564 
L 248.482486 323.643564 
L 248.482486 323.643564 
L 248.482486 318.613861 
L 248.482486 318.613861 
L 248.482486 318.613861 
L 248.482486 313.584158 
L 248.482486 313.584158 
L 248.482486 313.584158 
L 248.482486 308.554455 
L 282.403723 308.554455 
L 282.403723 303.524752 
L 291.529798 303.524752 
L 291.529798 298.49505 
L 292.89272 298.49505 
L 292.89272 293.465347 
L 294.994145 293.465347 
L 294.994145 288.435644 
L 296.052841 288.435644 
L 296.052841 283.405941 
L 297.603537 283.405941 
L 297.686656 273.346535 
L 298.495657 273.346535 
L 298.495657 268.316832 
L 299.05177 268.316832 
L 299.05177 263.287129 
L 299.214455 263.287129 
L 299.214455 258.257426 
L 299.554692 258.257426 
L 299.624707 248.19802 
L 302.004716 248.19802 
L 302.004716 243.168317 
L 302.435042 243.168317 
L 302.435042 238.138614 
L 306.48172 238.138614 
L 306.48172 233.108911 
L 307.753992 233.108911 
L 307.753992 228.079208 
L 308.836106 228.079208 
L 308.91226 218.019802 
L 312.738193 218.019802 
L 312.738193 212.990099 
L 313.870379 212.990099 
L 313.870379 207.960396 
L 314.317671 207.960396 
L 314.317671 202.930693 
L 314.739043 202.930693 
L 314.810287 187.841584 
L 315.288056 187.841584 
L 315.288056 182.811881 
L 315.68887 182.811881 
L 315.68887 177.782178 
L 315.934725 177.782178 
L 315.934725 172.752475 
L 316.316442 172.752475 
L 316.316442 167.722772 
L 318.278748 167.722772 
L 318.278748 162.693069 
L 318.448962 162.693069 
L 318.448962 157.663366 
L 318.930417 157.663366 
L 318.930417 152.633663 
L 319.594354 152.633663 
L 319.594354 147.60396 
L 319.879403 147.60396 
L 319.879403 142.574257 
L 320.109659 142.574257 
L 320.109659 137.544554 
L 320.872663 137.544554 
L 320.872663 132.514851 
L 321.228621 132.514851 
L 321.228621 127.485149 
L 322.566506 127.485149 
L 322.566506 122.455446 
L 322.803474 122.455446 
L 322.803474 117.425743 
L 323.375242 117.425743 
L 323.375242 112.39604 
L 324.412036 112.39604 
L 324.412036 107.366337 
L 324.822911 107.366337 
L 324.822911 102.336634 
L 325.688906 102.336634 
L 325.688906 97.306931 
L 325.809046 97.306931 
L 325.809046 92.277228 
L 328.206329 92.277228 
L 328.206329 87.247525 
L 328.480797 87.247525 
L 328.480797 82.217822 
L 329.199466 82.217822 
L 329.199466 77.188119 
L 331.727114 77.188119 
L 331.727114 72.158416 
L 332.250497 72.158416 
L 332.250497 67.128713 
L 336.06775 67.128713 
L 336.06775 62.09901 
L 336.217023 62.09901 
L 336.217023 57.069307 
L 337.20932 57.069307 
L 337.20932 52.039604 
L 337.592975 52.039604 
L 337.667706 41.980198 
L 337.92732 41.980198 
L 337.92732 36.950495 
L 340.048791 36.950495 
L 340.048791 31.920792 
L 340.336384 31.920792 
L 340.336384 26.891089 
L 340.708773 26.891089 
L 340.708773 21.861386 
L 342.939423 21.861386 
L 342.939423 16.831683 
L 344.15 16.831683 
L 344.15 11.80198 
L 347.537842 11.80198 
L 347.537842 6.772277 
L 347.537842 6.772277 
L 567.24 6.772277 
L 567.24 6.772277 
" style="fill:none;stroke:#00bfbf;stroke-linecap:square;"/>
   </g>
   <g id="line2d_6">
    <path clip-path="url(#pe249b48eb6)" d="M 248.482486 384 
L 248.482486 378.970297 
L 248.482486 378.970297 
L 248.482486 378.970297 
L 248.482486 373.940594 
L 248.482486 373.940594 
L 248.482486 373.940594 
L 248.482486 368.910891 
L 248.482486 368.910891 
L 248.482486 368.910891 
L 248.482486 363.881188 
L 248.482486 363.881188 
L 248.482486 363.881188 
L 248.482486 358.851485 
L 248.482486 358.851485 
L 248.482486 358.851485 
L 248.482486 353.821782 
L 248.482486 353.821782 
L 248.482486 353.821782 
L 248.482486 348.792079 
L 248.482486 348.792079 
L 248.482486 348.792079 
L 248.482486 343.762376 
L 248.482486 343.762376 
L 248.482486 343.762376 
L 248.482486 338.732673 
L 248.482486 338.732673 
L 248.482486 338.732673 
L 248.482486 333.70297 
L 248.482486 333.70297 
L 248.482486 333.70297 
L 248.482486 328.673267 
L 248.482486 328.673267 
L 248.482486 328.673267 
L 248.482486 323.643564 
L 248.482486 323.643564 
L 248.482486 323.643564 
L 248.482486 318.613861 
L 248.482486 318.613861 
L 248.482486 318.613861 
L 248.482486 313.584158 
L 248.482486 313.584158 
L 248.482486 313.584158 
L 248.482486 308.554455 
L 277.186405 308.554455 
L 277.186405 303.524752 
L 282.403723 303.524752 
L 282.403723 298.49505 
L 283.377502 298.49505 
L 283.377502 293.465347 
L 290.039966 293.465347 
L 290.039966 288.435644 
L 290.539338 288.435644 
L 290.539338 283.405941 
L 291.310608 283.405941 
L 291.310608 278.376238 
L 291.529798 278.376238 
L 291.529798 273.346535 
L 292.043917 273.346535 
L 292.043917 268.316832 
L 292.265219 268.316832 
L 292.265219 263.287129 
L 292.866604 263.287129 
L 292.89272 253.227723 
L 293.445533 253.227723 
L 293.445533 248.19802 
L 295.415235 248.19802 
L 295.415235 243.168317 
L 295.93708 243.168317 
L 295.93708 238.138614 
L 298.495657 238.138614 
L 298.495657 233.108911 
L 299.214455 233.108911 
L 299.214455 228.079208 
L 300.29699 228.079208 
L 300.29699 223.049505 
L 301.536431 223.049505 
L 301.536431 218.019802 
L 303.4911 218.019802 
L 303.4911 212.990099 
L 303.743188 212.990099 
L 303.743188 207.960396 
L 304.74027 207.960396 
L 304.74027 202.930693 
L 307.315893 202.930693 
L 307.315893 197.90099 
L 307.831857 197.90099 
L 307.831857 192.871287 
L 308.91226 192.871287 
L 308.91226 187.841584 
L 309.680194 187.841584 
L 309.680194 182.811881 
L 310.472933 182.811881 
L 310.472933 177.782178 
L 310.759144 177.782178 
L 310.759144 172.752475 
L 312.264537 172.752475 
L 312.264537 167.722772 
L 312.380616 167.722772 
L 312.380616 162.693069 
L 313.005223 162.693069 
L 313.005223 157.663366 
L 313.32545 157.663366 
L 313.32545 152.633663 
L 314.01776 152.633663 
L 314.11346 142.574257 
L 314.488963 142.574257 
L 314.488963 137.544554 
L 314.739043 137.544554 
L 314.739043 132.514851 
L 314.953376 132.514851 
L 314.953376 127.485149 
L 315.288056 127.485149 
L 315.288056 122.455446 
L 315.636441 122.455446 
L 315.68887 112.39604 
L 316.783844 112.39604 
L 316.783844 107.366337 
L 317.161522 107.366337 
L 317.161522 102.336634 
L 317.351139 102.336634 
L 317.351139 97.306931 
L 318.315573 97.306931 
L 318.315573 92.277228 
L 319.278204 92.277228 
L 319.278204 87.247525 
L 321.764119 87.247525 
L 321.832713 77.188119 
L 323.853879 77.188119 
L 323.853879 72.158416 
L 324.410639 72.158416 
L 324.410639 67.128713 
L 325.147228 67.128713 
L 325.147228 62.09901 
L 328.158808 62.09901 
L 328.206329 52.039604 
L 329.217329 52.039604 
L 329.217329 47.009901 
L 330.139216 47.009901 
L 330.139216 41.980198 
L 330.290521 41.980198 
L 330.368695 31.920792 
L 331.160325 31.920792 
L 331.160325 26.891089 
L 333.458137 26.891089 
L 333.458137 21.861386 
L 333.846974 21.861386 
L 333.905538 11.80198 
L 337.667706 11.80198 
L 337.667706 6.772277 
L 337.667706 6.772277 
L 567.24 6.772277 
L 567.24 6.772277 
" style="fill:none;stroke:#bf00bf;stroke-linecap:square;"/>
   </g>
   <g id="line2d_7">
    <path clip-path="url(#pe249b48eb6)" d="M 248.482486 384 
L 248.482486 378.970297 
L 248.482486 378.970297 
L 248.482486 378.970297 
L 248.482486 373.940594 
L 248.482486 373.940594 
L 248.482486 373.940594 
L 248.482486 368.910891 
L 248.482486 368.910891 
L 248.482486 368.910891 
L 248.482486 363.881188 
L 248.482486 363.881188 
L 248.482486 363.881188 
L 248.482486 358.851485 
L 248.482486 358.851485 
L 248.482486 358.851485 
L 248.482486 353.821782 
L 248.482486 353.821782 
L 248.482486 353.821782 
L 248.482486 348.792079 
L 248.482486 348.792079 
L 248.482486 348.792079 
L 248.482486 343.762376 
L 248.482486 343.762376 
L 248.482486 343.762376 
L 248.482486 338.732673 
L 248.482486 338.732673 
L 248.482486 338.732673 
L 248.482486 333.70297 
L 248.482486 333.70297 
L 248.482486 333.70297 
L 248.482486 328.673267 
L 248.482486 328.673267 
L 248.482486 328.673267 
L 248.482486 323.643564 
L 248.482486 323.643564 
L 248.482486 323.643564 
L 248.482486 318.613861 
L 248.482486 318.613861 
L 248.482486 318.613861 
L 248.482486 313.584158 
L 248.482486 313.584158 
L 248.482486 313.584158 
L 248.482486 308.554455 
L 274.752329 308.554455 
L 274.752329 303.524752 
L 278.880813 303.524752 
L 278.880813 298.49505 
L 280.029621 298.49505 
L 280.029621 293.465347 
L 280.22407 293.465347 
L 280.22407 288.435644 
L 282.0287 288.435644 
L 282.0287 283.405941 
L 283.377502 283.405941 
L 283.377502 278.376238 
L 284.906829 278.376238 
L 284.906829 273.346535 
L 285.088424 273.346535 
L 285.088424 268.316832 
L 286.34748 268.316832 
L 286.34748 263.287129 
L 287.477721 263.287129 
L 287.477721 258.257426 
L 287.812639 258.257426 
L 287.812639 253.227723 
L 289.289837 253.227723 
L 289.289837 248.19802 
L 289.976802 248.19802 
L 290.037008 238.138614 
L 290.477055 238.138614 
L 290.477055 233.108911 
L 291.149623 233.108911 
L 291.149623 228.079208 
L 292.866604 228.079208 
L 292.866604 223.049505 
L 293.304769 223.049505 
L 293.304769 218.019802 
L 293.774219 218.019802 
L 293.774219 212.990099 
L 294.248514 212.990099 
L 294.248514 207.960396 
L 296.306082 207.960396 
L 296.306082 202.930693 
L 297.577088 202.930693 
L 297.577088 197.90099 
L 297.926756 197.90099 
L 297.926756 192.871287 
L 298.643087 192.871287 
L 298.643087 187.841584 
L 298.754473 187.841584 
L 298.754473 182.811881 
L 299.214455 182.811881 
L 299.214455 177.782178 
L 299.394191 177.782178 
L 299.394191 172.752475 
L 301.033388 172.752475 
L 301.077166 162.693069 
L 301.536431 162.693069 
L 301.536431 157.663366 
L 301.937148 157.663366 
L 301.937148 152.633663 
L 302.553025 152.633663 
L 302.553025 147.60396 
L 303.45131 147.60396 
L 303.45131 142.574257 
L 303.743188 142.574257 
L 303.743188 137.544554 
L 303.964949 137.544554 
L 303.964949 132.514851 
L 304.304049 132.514851 
L 304.304049 127.485149 
L 305.054055 127.485149 
L 305.056226 117.425743 
L 305.219433 117.425743 
L 305.219433 112.39604 
L 305.725144 112.39604 
L 305.725144 107.366337 
L 305.988566 107.366337 
L 305.988566 102.336634 
L 307.315893 102.336634 
L 307.315893 97.306931 
L 307.976665 97.306931 
L 307.976665 92.277228 
L 308.386023 92.277228 
L 308.386023 87.247525 
L 308.624088 87.247525 
L 308.624088 82.217822 
L 319.278204 82.217822 
L 319.278204 77.188119 
L 320.488602 77.188119 
L 320.488602 72.158416 
L 321.509034 72.158416 
L 321.588713 62.09901 
L 321.776338 62.09901 
L 321.832713 52.039604 
L 322.55898 52.039604 
L 322.55898 47.009901 
L 323.207423 47.009901 
L 323.207423 41.980198 
L 323.853879 41.980198 
L 323.853879 36.950495 
L 324.642223 36.950495 
L 324.642223 31.920792 
L 324.768901 31.920792 
L 324.768901 26.891089 
L 326.314656 26.891089 
L 326.418336 16.831683 
L 327.868189 16.831683 
L 327.868189 11.80198 
L 329.095322 11.80198 
L 329.095322 6.772277 
L 329.095322 6.772277 
L 567.24 6.772277 
L 567.24 6.772277 
" style="fill:none;stroke:#000000;stroke-linecap:square;"/>
   </g>
   <g id="line2d_8">
    <path clip-path="url(#pe249b48eb6)" d="M 248.482486 384 
L 248.482486 378.970297 
L 248.482486 378.970297 
L 248.482486 378.970297 
L 248.482486 373.940594 
L 248.482486 373.940594 
L 248.482486 373.940594 
L 248.482486 368.910891 
L 248.482486 368.910891 
L 248.482486 368.910891 
L 248.482486 363.881188 
L 248.482486 363.881188 
L 248.482486 363.881188 
L 248.482486 358.851485 
L 248.482486 358.851485 
L 248.482486 358.851485 
L 248.482486 353.821782 
L 248.482486 353.821782 
L 248.482486 353.821782 
L 248.482486 348.792079 
L 248.482486 348.792079 
L 248.482486 348.792079 
L 248.482486 343.762376 
L 248.482486 343.762376 
L 248.482486 343.762376 
L 248.482486 338.732673 
L 248.482486 338.732673 
L 248.482486 338.732673 
L 248.482486 333.70297 
L 248.482486 333.70297 
L 248.482486 333.70297 
L 248.482486 328.673267 
L 248.482486 328.673267 
L 248.482486 328.673267 
L 248.482486 323.643564 
L 248.482486 323.643564 
L 248.482486 323.643564 
L 248.482486 318.613861 
L 248.482486 318.613861 
L 248.482486 318.613861 
L 248.482486 313.584158 
L 248.482486 313.584158 
L 248.482486 313.584158 
L 248.482486 308.554455 
L 269.962491 308.554455 
L 269.962491 303.524752 
L 273.473326 303.524752 
L 273.568223 293.465347 
L 274.752329 293.465347 
L 274.752329 288.435644 
L 275.933196 288.435644 
L 275.933196 283.405941 
L 276.778699 283.405941 
L 276.778699 278.376238 
L 278.178292 278.376238 
L 278.178292 273.346535 
L 279.243476 273.346535 
L 279.243476 268.316832 
L 279.977336 268.316832 
L 280.056276 253.227723 
L 281.915724 253.227723 
L 281.915724 248.19802 
L 282.0287 248.19802 
L 282.0287 243.168317 
L 282.366519 243.168317 
L 282.366519 238.138614 
L 282.971551 238.138614 
L 282.971551 233.108911 
L 283.644126 233.108911 
L 283.644126 228.079208 
L 283.795102 228.079208 
L 283.795102 223.049505 
L 287.703901 223.049505 
L 287.703901 218.019802 
L 288.15257 218.019802 
L 288.15257 212.990099 
L 288.5241 212.990099 
L 288.5241 207.960396 
L 289.652792 207.960396 
L 289.652792 202.930693 
L 290.278635 202.930693 
L 290.278635 197.90099 
L 291.149623 197.90099 
L 291.149623 192.871287 
L 292.102554 192.871287 
L 292.106855 182.811881 
L 293.35031 182.811881 
L 293.35031 177.782178 
L 293.711098 177.782178 
L 293.711098 172.752475 
L 294.248514 172.752475 
L 294.248514 167.722772 
L 294.909323 167.722772 
L 294.909323 162.693069 
L 295.747281 162.693069 
L 295.747281 157.663366 
L 296.113312 157.663366 
L 296.204048 147.60396 
L 296.458699 147.60396 
L 296.458699 142.574257 
L 296.969515 142.574257 
L 296.969515 137.544554 
L 297.577088 137.544554 
L 297.577088 132.514851 
L 298.151714 132.514851 
L 298.151714 127.485149 
L 299.311526 127.485149 
L 299.419358 117.425743 
L 301.077166 117.425743 
L 301.077166 112.39604 
L 301.822785 112.39604 
L 301.822785 107.366337 
L 301.937148 107.366337 
L 301.997623 97.306931 
L 302.970508 97.306931 
L 302.970508 92.277228 
L 305.725144 92.277228 
L 305.725144 87.247525 
L 306.501709 87.247525 
L 306.501709 82.217822 
L 306.806837 82.217822 
L 306.806837 77.188119 
L 311.963076 77.188119 
L 311.963076 72.158416 
L 313.46611 72.158416 
L 313.46611 67.128713 
L 314.319592 67.128713 
L 314.319592 62.09901 
L 314.88207 62.09901 
L 314.88207 57.069307 
L 315.907104 57.069307 
L 315.907104 52.039604 
L 317.769625 52.039604 
L 317.81464 41.980198 
L 318.487647 41.980198 
L 318.487647 36.950495 
L 318.758793 36.950495 
L 318.758793 31.920792 
L 319.108046 31.920792 
L 319.108046 26.891089 
L 319.611996 26.891089 
L 319.611996 21.861386 
L 320.488602 21.861386 
L 320.488602 16.831683 
L 321.486143 16.831683 
L 321.486143 11.80198 
L 323.068107 11.80198 
L 323.068107 6.772277 
L 323.068107 6.772277 
L 567.24 6.772277 
L 567.24 6.772277 
" style="fill:none;stroke:#00bfbf;stroke-linecap:square;"/>
   </g>
   <g id="patch_3">
    <path d="M 3 3 
L 567.24 3 
" style="fill:none;stroke:#000000;stroke-linecap:square;stroke-linejoin:miter;"/>
   </g>
   <g id="patch_4">
    <path d="M 567.24 384 
L 567.24 3 
" style="fill:none;stroke:#000000;stroke-linecap:square;stroke-linejoin:miter;"/>
   </g>
   <g id="patch_5">
    <path d="M 3 384 
L 567.24 384 
" style="fill:none;stroke:#000000;stroke-linecap:square;stroke-linejoin:miter;"/>
   </g>
   <g id="patch_6">
    <path d="M 3 384 
L 3 3 
" style="fill:none;stroke:#000000;stroke-linecap:square;stroke-linejoin:miter;"/>
   </g>
   <g id="matplotlib.axis_1">
    <g id="xtick_1"/>
    <g id="xtick_2">
     <g id="line2d_9">
      <path clip-path="url(#pe249b48eb6)" d="M 69.254589 384 
L 69.254589 3 
" style="fill:none;stroke:#000000;stroke-dasharray:1.000000,3.000000;stroke-dashoffset:0.0;stroke-width:0.5;"/>
     </g>
     <g id="line2d_10">
      <defs>
       <path d="M 0 0 
L 0 -4 
" id="m7e4c07f6ed" style="stroke:#000000;stroke-width:0.5;"/>
      </defs>
      <g>
       <use style="stroke:#000000;stroke-width:0.5;" x="69.2545893472" xlink:href="#m7e4c07f6ed" y="384.0"/>
      </g>
     </g>
     <g id="line2d_11">
      <defs>
       <path d="M 0 0 
L 0 4 
" id="m3b2f9eb047" style="stroke:#000000;stroke-width:0.5;"/>
      </defs>
      <g>
       <use style="stroke:#000000;stroke-width:0.5;" x="69.2545893472" xlink:href="#m3b2f9eb047" y="3.0"/>
      </g>
     </g>
     <g id="text_1">
      <!-- -6 -->
      <defs>
       <path d="M 33.015625 40.375 
Q 26.375 40.375 22.484375 35.828125 
Q 18.609375 31.296875 18.609375 23.390625 
Q 18.609375 15.53125 22.484375 10.953125 
Q 26.375 6.390625 33.015625 6.390625 
Q 39.65625 6.390625 43.53125 10.953125 
Q 47.40625 15.53125 47.40625 23.390625 
Q 47.40625 31.296875 43.53125 35.828125 
Q 39.65625 40.375 33.015625 40.375 
M 52.59375 71.296875 
L 52.59375 62.3125 
Q 48.875 64.0625 45.09375 64.984375 
Q 41.3125 65.921875 37.59375 65.921875 
Q 27.828125 65.921875 22.671875 59.328125 
Q 17.53125 52.734375 16.796875 39.40625 
Q 19.671875 43.65625 24.015625 45.921875 
Q 28.375 48.1875 33.59375 48.1875 
Q 44.578125 48.1875 50.953125 41.515625 
Q 57.328125 34.859375 57.328125 23.390625 
Q 57.328125 12.15625 50.6875 5.359375 
Q 44.046875 -1.421875 33.015625 -1.421875 
Q 20.359375 -1.421875 13.671875 8.265625 
Q 6.984375 17.96875 6.984375 36.375 
Q 6.984375 53.65625 15.1875 63.9375 
Q 23.390625 74.21875 37.203125 74.21875 
Q 40.921875 74.21875 44.703125 73.484375 
Q 48.484375 72.75 52.59375 71.296875 
" id="BitstreamVeraSans-Roman-36"/>
       <path d="M 4.890625 31.390625 
L 31.203125 31.390625 
L 31.203125 23.390625 
L 4.890625 23.390625 
z
" id="BitstreamVeraSans-Roman-2d"/>
      </defs>
      <g transform="translate(59.2842768472 403.196875)scale(0.2 -0.2)">
       <use xlink:href="#BitstreamVeraSans-Roman-2d"/>
       <use x="36.083984375" xlink:href="#BitstreamVeraSans-Roman-36"/>
      </g>
     </g>
    </g>
    <g id="xtick_3">
     <g id="line2d_12">
      <path clip-path="url(#pe249b48eb6)" d="M 135.652644 384 
L 135.652644 3 
" style="fill:none;stroke:#000000;stroke-dasharray:1.000000,3.000000;stroke-dashoffset:0.0;stroke-width:0.5;"/>
     </g>
     <g id="line2d_13">
      <g>
       <use style="stroke:#000000;stroke-width:0.5;" x="135.652644101" xlink:href="#m7e4c07f6ed" y="384.0"/>
      </g>
     </g>
     <g id="line2d_14">
      <g>
       <use style="stroke:#000000;stroke-width:0.5;" x="135.652644101" xlink:href="#m3b2f9eb047" y="3.0"/>
      </g>
     </g>
     <g id="text_2">
      <!-- -4 -->
      <defs>
       <path d="M 37.796875 64.3125 
L 12.890625 25.390625 
L 37.796875 25.390625 
z
M 35.203125 72.90625 
L 47.609375 72.90625 
L 47.609375 25.390625 
L 58.015625 25.390625 
L 58.015625 17.1875 
L 47.609375 17.1875 
L 47.609375 0 
L 37.796875 0 
L 37.796875 17.1875 
L 4.890625 17.1875 
L 4.890625 26.703125 
z
" id="BitstreamVeraSans-Roman-34"/>
      </defs>
      <g transform="translate(125.682331601 403.196875)scale(0.2 -0.2)">
       <use xlink:href="#BitstreamVeraSans-Roman-2d"/>
       <use x="36.083984375" xlink:href="#BitstreamVeraSans-Roman-34"/>
      </g>
     </g>
    </g>
    <g id="xtick_4">
     <g id="line2d_15">
      <path clip-path="url(#pe249b48eb6)" d="M 202.050699 384 
L 202.050699 3 
" style="fill:none;stroke:#000000;stroke-dasharray:1.000000,3.000000;stroke-dashoffset:0.0;stroke-width:0.5;"/>
     </g>
     <g id="line2d_16">
      <g>
       <use style="stroke:#000000;stroke-width:0.5;" x="202.050698855" xlink:href="#m7e4c07f6ed" y="384.0"/>
      </g>
     </g>
     <g id="line2d_17">
      <g>
       <use style="stroke:#000000;stroke-width:0.5;" x="202.050698855" xlink:href="#m3b2f9eb047" y="3.0"/>
      </g>
     </g>
     <g id="text_3">
      <!-- -2 -->
      <defs>
       <path d="M 19.1875 8.296875 
L 53.609375 8.296875 
L 53.609375 0 
L 7.328125 0 
L 7.328125 8.296875 
Q 12.9375 14.109375 22.625 23.890625 
Q 32.328125 33.6875 34.8125 36.53125 
Q 39.546875 41.84375 41.421875 45.53125 
Q 43.3125 49.21875 43.3125 52.78125 
Q 43.3125 58.59375 39.234375 62.25 
Q 35.15625 65.921875 28.609375 65.921875 
Q 23.96875 65.921875 18.8125 64.3125 
Q 13.671875 62.703125 7.8125 59.421875 
L 7.8125 69.390625 
Q 13.765625 71.78125 18.9375 73 
Q 24.125 74.21875 28.421875 74.21875 
Q 39.75 74.21875 46.484375 68.546875 
Q 53.21875 62.890625 53.21875 53.421875 
Q 53.21875 48.921875 51.53125 44.890625 
Q 49.859375 40.875 45.40625 35.40625 
Q 44.1875 33.984375 37.640625 27.21875 
Q 31.109375 20.453125 19.1875 8.296875 
" id="BitstreamVeraSans-Roman-32"/>
      </defs>
      <g transform="translate(192.080386355 403.196875)scale(0.2 -0.2)">
       <use xlink:href="#BitstreamVeraSans-Roman-2d"/>
       <use x="36.083984375" xlink:href="#BitstreamVeraSans-Roman-32"/>
      </g>
     </g>
    </g>
    <g id="xtick_5">
     <g id="line2d_18">
      <path clip-path="url(#pe249b48eb6)" d="M 268.448754 384 
L 268.448754 3 
" style="fill:none;stroke:#000000;stroke-dasharray:1.000000,3.000000;stroke-dashoffset:0.0;stroke-width:0.5;"/>
     </g>
     <g id="line2d_19">
      <g>
       <use style="stroke:#000000;stroke-width:0.5;" x="268.448753608" xlink:href="#m7e4c07f6ed" y="384.0"/>
      </g>
     </g>
     <g id="line2d_20">
      <g>
       <use style="stroke:#000000;stroke-width:0.5;" x="268.448753608" xlink:href="#m3b2f9eb047" y="3.0"/>
      </g>
     </g>
     <g id="text_4">
      <!-- 0 -->
      <defs>
       <path d="M 31.78125 66.40625 
Q 24.171875 66.40625 20.328125 58.90625 
Q 16.5 51.421875 16.5 36.375 
Q 16.5 21.390625 20.328125 13.890625 
Q 24.171875 6.390625 31.78125 6.390625 
Q 39.453125 6.390625 43.28125 13.890625 
Q 47.125 21.390625 47.125 36.375 
Q 47.125 51.421875 43.28125 58.90625 
Q 39.453125 66.40625 31.78125 66.40625 
M 31.78125 74.21875 
Q 44.046875 74.21875 50.515625 64.515625 
Q 56.984375 54.828125 56.984375 36.375 
Q 56.984375 17.96875 50.515625 8.265625 
Q 44.046875 -1.421875 31.78125 -1.421875 
Q 19.53125 -1.421875 13.0625 8.265625 
Q 6.59375 17.96875 6.59375 36.375 
Q 6.59375 54.828125 13.0625 64.515625 
Q 19.53125 74.21875 31.78125 74.21875 
" id="BitstreamVeraSans-Roman-30"/>
      </defs>
      <g transform="translate(262.086253608 403.196875)scale(0.2 -0.2)">
       <use xlink:href="#BitstreamVeraSans-Roman-30"/>
      </g>
     </g>
    </g>
    <g id="xtick_6">
     <g id="line2d_21">
      <path clip-path="url(#pe249b48eb6)" d="M 334.846808 384 
L 334.846808 3 
" style="fill:none;stroke:#000000;stroke-dasharray:1.000000,3.000000;stroke-dashoffset:0.0;stroke-width:0.5;"/>
     </g>
     <g id="line2d_22">
      <g>
       <use style="stroke:#000000;stroke-width:0.5;" x="334.846808362" xlink:href="#m7e4c07f6ed" y="384.0"/>
      </g>
     </g>
     <g id="line2d_23">
      <g>
       <use style="stroke:#000000;stroke-width:0.5;" x="334.846808362" xlink:href="#m3b2f9eb047" y="3.0"/>
      </g>
     </g>
     <g id="text_5">
      <!-- 2 -->
      <g transform="translate(328.484308362 403.196875)scale(0.2 -0.2)">
       <use xlink:href="#BitstreamVeraSans-Roman-32"/>
      </g>
     </g>
    </g>
    <g id="xtick_7">
     <g id="line2d_24">
      <path clip-path="url(#pe249b48eb6)" d="M 401.244863 384 
L 401.244863 3 
" style="fill:none;stroke:#000000;stroke-dasharray:1.000000,3.000000;stroke-dashoffset:0.0;stroke-width:0.5;"/>
     </g>
     <g id="line2d_25">
      <g>
       <use style="stroke:#000000;stroke-width:0.5;" x="401.244863116" xlink:href="#m7e4c07f6ed" y="384.0"/>
      </g>
     </g>
     <g id="line2d_26">
      <g>
       <use style="stroke:#000000;stroke-width:0.5;" x="401.244863116" xlink:href="#m3b2f9eb047" y="3.0"/>
      </g>
     </g>
     <g id="text_6">
      <!-- 4 -->
      <g transform="translate(394.882363116 403.196875)scale(0.2 -0.2)">
       <use xlink:href="#BitstreamVeraSans-Roman-34"/>
      </g>
     </g>
    </g>
    <g id="xtick_8">
     <g id="line2d_27">
      <path clip-path="url(#pe249b48eb6)" d="M 467.642918 384 
L 467.642918 3 
" style="fill:none;stroke:#000000;stroke-dasharray:1.000000,3.000000;stroke-dashoffset:0.0;stroke-width:0.5;"/>
     </g>
     <g id="line2d_28">
      <g>
       <use style="stroke:#000000;stroke-width:0.5;" x="467.642917869" xlink:href="#m7e4c07f6ed" y="384.0"/>
      </g>
     </g>
     <g id="line2d_29">
      <g>
       <use style="stroke:#000000;stroke-width:0.5;" x="467.642917869" xlink:href="#m3b2f9eb047" y="3.0"/>
      </g>
     </g>
     <g id="text_7">
      <!-- 6 -->
      <g transform="translate(461.280417869 403.196875)scale(0.2 -0.2)">
       <use xlink:href="#BitstreamVeraSans-Roman-36"/>
      </g>
     </g>
    </g>
    <g id="xtick_9">
     <g id="line2d_30">
      <path clip-path="url(#pe249b48eb6)" d="M 534.040973 384 
L 534.040973 3 
" style="fill:none;stroke:#000000;stroke-dasharray:1.000000,3.000000;stroke-dashoffset:0.0;stroke-width:0.5;"/>
     </g>
     <g id="line2d_31">
      <g>
       <use style="stroke:#000000;stroke-width:0.5;" x="534.040972623" xlink:href="#m7e4c07f6ed" y="384.0"/>
      </g>
     </g>
     <g id="line2d_32">
      <g>
       <use style="stroke:#000000;stroke-width:0.5;" x="534.040972623" xlink:href="#m3b2f9eb047" y="3.0"/>
      </g>
     </g>
     <g id="text_8">
      <!-- 8 -->
      <defs>
       <path d="M 31.78125 34.625 
Q 24.75 34.625 20.71875 30.859375 
Q 16.703125 27.09375 16.703125 20.515625 
Q 16.703125 13.921875 20.71875 10.15625 
Q 24.75 6.390625 31.78125 6.390625 
Q 38.8125 6.390625 42.859375 10.171875 
Q 46.921875 13.96875 46.921875 20.515625 
Q 46.921875 27.09375 42.890625 30.859375 
Q 38.875 34.625 31.78125 34.625 
M 21.921875 38.8125 
Q 15.578125 40.375 12.03125 44.71875 
Q 8.5 49.078125 8.5 55.328125 
Q 8.5 64.0625 14.71875 69.140625 
Q 20.953125 74.21875 31.78125 74.21875 
Q 42.671875 74.21875 48.875 69.140625 
Q 55.078125 64.0625 55.078125 55.328125 
Q 55.078125 49.078125 51.53125 44.71875 
Q 48 40.375 41.703125 38.8125 
Q 48.828125 37.15625 52.796875 32.3125 
Q 56.78125 27.484375 56.78125 20.515625 
Q 56.78125 9.90625 50.3125 4.234375 
Q 43.84375 -1.421875 31.78125 -1.421875 
Q 19.734375 -1.421875 13.25 4.234375 
Q 6.78125 9.90625 6.78125 20.515625 
Q 6.78125 27.484375 10.78125 32.3125 
Q 14.796875 37.15625 21.921875 38.8125 
M 18.3125 54.390625 
Q 18.3125 48.734375 21.84375 45.5625 
Q 25.390625 42.390625 31.78125 42.390625 
Q 38.140625 42.390625 41.71875 45.5625 
Q 45.3125 48.734375 45.3125 54.390625 
Q 45.3125 60.0625 41.71875 63.234375 
Q 38.140625 66.40625 31.78125 66.40625 
Q 25.390625 66.40625 21.84375 63.234375 
Q 18.3125 60.0625 18.3125 54.390625 
" id="BitstreamVeraSans-Roman-38"/>
      </defs>
      <g transform="translate(527.678472623 403.196875)scale(0.2 -0.2)">
       <use xlink:href="#BitstreamVeraSans-Roman-38"/>
      </g>
     </g>
    </g>
    <g id="xtick_10"/>
    <g id="xtick_11">
     <g id="line2d_33">
      <defs>
       <path d="M 0 0 
L 0 -2 
" id="m43a353387a" style="stroke:#000000;stroke-width:0.5;"/>
      </defs>
      <g>
       <use style="stroke:#000000;stroke-width:0.5;" x="69.2545893472" xlink:href="#m43a353387a" y="384.0"/>
      </g>
     </g>
     <g id="line2d_34">
      <defs>
       <path d="M 0 0 
L 0 2 
" id="m0de32a8b1f" style="stroke:#000000;stroke-width:0.5;"/>
      </defs>
      <g>
       <use style="stroke:#000000;stroke-width:0.5;" x="69.2545893472" xlink:href="#m0de32a8b1f" y="3.0"/>
      </g>
     </g>
    </g>
    <g id="xtick_12">
     <g id="line2d_35">
      <g>
       <use style="stroke:#000000;stroke-width:0.5;" x="135.652644101" xlink:href="#m43a353387a" y="384.0"/>
      </g>
     </g>
     <g id="line2d_36">
      <g>
       <use style="stroke:#000000;stroke-width:0.5;" x="135.652644101" xlink:href="#m0de32a8b1f" y="3.0"/>
      </g>
     </g>
    </g>
    <g id="xtick_13">
     <g id="line2d_37">
      <g>
       <use style="stroke:#000000;stroke-width:0.5;" x="202.050698855" xlink:href="#m43a353387a" y="384.0"/>
      </g>
     </g>
     <g id="line2d_38">
      <g>
       <use style="stroke:#000000;stroke-width:0.5;" x="202.050698855" xlink:href="#m0de32a8b1f" y="3.0"/>
      </g>
     </g>
    </g>
    <g id="xtick_14">
     <g id="line2d_39">
      <g>
       <use style="stroke:#000000;stroke-width:0.5;" x="268.448753608" xlink:href="#m43a353387a" y="384.0"/>
      </g>
     </g>
     <g id="line2d_40">
      <g>
       <use style="stroke:#000000;stroke-width:0.5;" x="268.448753608" xlink:href="#m0de32a8b1f" y="3.0"/>
      </g>
     </g>
    </g>
    <g id="xtick_15">
     <g id="line2d_41">
      <g>
       <use style="stroke:#000000;stroke-width:0.5;" x="334.846808362" xlink:href="#m43a353387a" y="384.0"/>
      </g>
     </g>
     <g id="line2d_42">
      <g>
       <use style="stroke:#000000;stroke-width:0.5;" x="334.846808362" xlink:href="#m0de32a8b1f" y="3.0"/>
      </g>
     </g>
    </g>
    <g id="xtick_16">
     <g id="line2d_43">
      <g>
       <use style="stroke:#000000;stroke-width:0.5;" x="401.244863116" xlink:href="#m43a353387a" y="384.0"/>
      </g>
     </g>
     <g id="line2d_44">
      <g>
       <use style="stroke:#000000;stroke-width:0.5;" x="401.244863116" xlink:href="#m0de32a8b1f" y="3.0"/>
      </g>
     </g>
    </g>
    <g id="xtick_17">
     <g id="line2d_45">
      <g>
       <use style="stroke:#000000;stroke-width:0.5;" x="467.642917869" xlink:href="#m43a353387a" y="384.0"/>
      </g>
     </g>
     <g id="line2d_46">
      <g>
       <use style="stroke:#000000;stroke-width:0.5;" x="467.642917869" xlink:href="#m0de32a8b1f" y="3.0"/>
      </g>
     </g>
    </g>
    <g id="xtick_18">
     <g id="line2d_47">
      <g>
       <use style="stroke:#000000;stroke-width:0.5;" x="534.040972623" xlink:href="#m43a353387a" y="384.0"/>
      </g>
     </g>
     <g id="line2d_48">
      <g>
       <use style="stroke:#000000;stroke-width:0.5;" x="534.040972623" xlink:href="#m0de32a8b1f" y="3.0"/>
      </g>
     </g>
    </g>
    <g id="text_9">
     <!-- log10 of Df -->
     <defs>
      <path id="BitstreamVeraSans-Roman-20"/>
      <path d="M 12.40625 8.296875 
L 28.515625 8.296875 
L 28.515625 63.921875 
L 10.984375 60.40625 
L 10.984375 69.390625 
L 28.421875 72.90625 
L 38.28125 72.90625 
L 38.28125 8.296875 
L 54.390625 8.296875 
L 54.390625 0 
L 12.40625 0 
z
" id="BitstreamVeraSans-Roman-31"/>
      <path d="M 30.609375 48.390625 
Q 23.390625 48.390625 19.1875 42.75 
Q 14.984375 37.109375 14.984375 27.296875 
Q 14.984375 17.484375 19.15625 11.84375 
Q 23.34375 6.203125 30.609375 6.203125 
Q 37.796875 6.203125 41.984375 11.859375 
Q 46.1875 17.53125 46.1875 27.296875 
Q 46.1875 37.015625 41.984375 42.703125 
Q 37.796875 48.390625 30.609375 48.390625 
M 30.609375 56 
Q 42.328125 56 49.015625 48.375 
Q 55.71875 40.765625 55.71875 27.296875 
Q 55.71875 13.875 49.015625 6.21875 
Q 42.328125 -1.421875 30.609375 -1.421875 
Q 18.84375 -1.421875 12.171875 6.21875 
Q 5.515625 13.875 5.515625 27.296875 
Q 5.515625 40.765625 12.171875 48.375 
Q 18.84375 56 30.609375 56 
" id="BitstreamVeraSans-Roman-6f"/>
      <path d="M 9.421875 75.984375 
L 18.40625 75.984375 
L 18.40625 0 
L 9.421875 0 
z
" id="BitstreamVeraSans-Roman-6c"/>
      <path d="M 19.671875 64.796875 
L 19.671875 8.109375 
L 31.59375 8.109375 
Q 46.6875 8.109375 53.6875 14.9375 
Q 60.6875 21.78125 60.6875 36.53125 
Q 60.6875 51.171875 53.6875 57.984375 
Q 46.6875 64.796875 31.59375 64.796875 
z
M 9.8125 72.90625 
L 30.078125 72.90625 
Q 51.265625 72.90625 61.171875 64.09375 
Q 71.09375 55.28125 71.09375 36.53125 
Q 71.09375 17.671875 61.125 8.828125 
Q 51.171875 0 30.078125 0 
L 9.8125 0 
z
" id="BitstreamVeraSans-Roman-44"/>
      <path d="M 45.40625 27.984375 
Q 45.40625 37.75 41.375 43.109375 
Q 37.359375 48.484375 30.078125 48.484375 
Q 22.859375 48.484375 18.828125 43.109375 
Q 14.796875 37.75 14.796875 27.984375 
Q 14.796875 18.265625 18.828125 12.890625 
Q 22.859375 7.515625 30.078125 7.515625 
Q 37.359375 7.515625 41.375 12.890625 
Q 45.40625 18.265625 45.40625 27.984375 
M 54.390625 6.78125 
Q 54.390625 -7.171875 48.1875 -13.984375 
Q 42 -20.796875 29.203125 -20.796875 
Q 24.46875 -20.796875 20.265625 -20.09375 
Q 16.0625 -19.390625 12.109375 -17.921875 
L 12.109375 -9.1875 
Q 16.0625 -11.328125 19.921875 -12.34375 
Q 23.78125 -13.375 27.78125 -13.375 
Q 36.625 -13.375 41.015625 -8.765625 
Q 45.40625 -4.15625 45.40625 5.171875 
L 45.40625 9.625 
Q 42.625 4.78125 38.28125 2.390625 
Q 33.9375 0 27.875 0 
Q 17.828125 0 11.671875 7.65625 
Q 5.515625 15.328125 5.515625 27.984375 
Q 5.515625 40.671875 11.671875 48.328125 
Q 17.828125 56 27.875 56 
Q 33.9375 56 38.28125 53.609375 
Q 42.625 51.21875 45.40625 46.390625 
L 45.40625 54.6875 
L 54.390625 54.6875 
z
" id="BitstreamVeraSans-Roman-67"/>
      <path d="M 37.109375 75.984375 
L 37.109375 68.5 
L 28.515625 68.5 
Q 23.6875 68.5 21.796875 66.546875 
Q 19.921875 64.59375 19.921875 59.515625 
L 19.921875 54.6875 
L 34.71875 54.6875 
L 34.71875 47.703125 
L 19.921875 47.703125 
L 19.921875 0 
L 10.890625 0 
L 10.890625 47.703125 
L 2.296875 47.703125 
L 2.296875 54.6875 
L 10.890625 54.6875 
L 10.890625 58.5 
Q 10.890625 67.625 15.140625 71.796875 
Q 19.390625 75.984375 28.609375 75.984375 
z
" id="BitstreamVeraSans-Roman-66"/>
     </defs>
     <g transform="translate(229.9340625 427.553125)scale(0.2 -0.2)">
      <use xlink:href="#BitstreamVeraSans-Roman-6c"/>
      <use x="27.783203125" xlink:href="#BitstreamVeraSans-Roman-6f"/>
      <use x="88.96484375" xlink:href="#BitstreamVeraSans-Roman-67"/>
      <use x="152.44140625" xlink:href="#BitstreamVeraSans-Roman-31"/>
      <use x="216.064453125" xlink:href="#BitstreamVeraSans-Roman-30"/>
      <use x="279.6875" xlink:href="#BitstreamVeraSans-Roman-20"/>
      <use x="311.474609375" xlink:href="#BitstreamVeraSans-Roman-6f"/>
      <use x="372.65625" xlink:href="#BitstreamVeraSans-Roman-66"/>
      <use x="407.861328125" xlink:href="#BitstreamVeraSans-Roman-20"/>
      <use x="439.6484375" xlink:href="#BitstreamVeraSans-Roman-44"/>
      <use x="516.650390625" xlink:href="#BitstreamVeraSans-Roman-66"/>
     </g>
    </g>
   </g>
   <g id="matplotlib.axis_2">
    <g id="ytick_1">
     <g id="line2d_49">
      <path clip-path="url(#pe249b48eb6)" d="M 3 384 
L 567.24 384 
" style="fill:none;stroke:#000000;stroke-dasharray:1.000000,3.000000;stroke-dashoffset:0.0;stroke-width:0.5;"/>
     </g>
     <g id="line2d_50">
      <defs>
       <path d="M 0 0 
L 4 0 
" id="me66989f940" style="stroke:#000000;stroke-width:0.5;"/>
      </defs>
      <g>
       <use style="stroke:#000000;stroke-width:0.5;" x="3.0" xlink:href="#me66989f940" y="384.0"/>
      </g>
     </g>
     <g id="line2d_51">
      <defs>
       <path d="M 0 0 
L -4 0 
" id="m2fedbc4243" style="stroke:#000000;stroke-width:0.5;"/>
      </defs>
      <g>
       <use style="stroke:#000000;stroke-width:0.5;" x="567.24" xlink:href="#m2fedbc4243" y="384.0"/>
      </g>
     </g>
    </g>
    <g id="ytick_2">
     <g id="line2d_52">
      <path clip-path="url(#pe249b48eb6)" d="M 3 308.554455 
L 567.24 308.554455 
" style="fill:none;stroke:#000000;stroke-dasharray:1.000000,3.000000;stroke-dashoffset:0.0;stroke-width:0.5;"/>
     </g>
     <g id="line2d_53">
      <g>
       <use style="stroke:#000000;stroke-width:0.5;" x="3.0" xlink:href="#me66989f940" y="308.554455446"/>
      </g>
     </g>
     <g id="line2d_54">
      <g>
       <use style="stroke:#000000;stroke-width:0.5;" x="567.24" xlink:href="#m2fedbc4243" y="308.554455446"/>
      </g>
     </g>
    </g>
    <g id="ytick_3">
     <g id="line2d_55">
      <path clip-path="url(#pe249b48eb6)" d="M 3 233.108911 
L 567.24 233.108911 
" style="fill:none;stroke:#000000;stroke-dasharray:1.000000,3.000000;stroke-dashoffset:0.0;stroke-width:0.5;"/>
     </g>
     <g id="line2d_56">
      <g>
       <use style="stroke:#000000;stroke-width:0.5;" x="3.0" xlink:href="#me66989f940" y="233.108910891"/>
      </g>
     </g>
     <g id="line2d_57">
      <g>
       <use style="stroke:#000000;stroke-width:0.5;" x="567.24" xlink:href="#m2fedbc4243" y="233.108910891"/>
      </g>
     </g>
    </g>
    <g id="ytick_4">
     <g id="line2d_58">
      <path clip-path="url(#pe249b48eb6)" d="M 3 157.663366 
L 567.24 157.663366 
" style="fill:none;stroke:#000000;stroke-dasharray:1.000000,3.000000;stroke-dashoffset:0.0;stroke-width:0.5;"/>
     </g>
     <g id="line2d_59">
      <g>
       <use style="stroke:#000000;stroke-width:0.5;" x="3.0" xlink:href="#me66989f940" y="157.663366337"/>
      </g>
     </g>
     <g id="line2d_60">
      <g>
       <use style="stroke:#000000;stroke-width:0.5;" x="567.24" xlink:href="#m2fedbc4243" y="157.663366337"/>
      </g>
     </g>
    </g>
    <g id="ytick_5">
     <g id="line2d_61">
      <path clip-path="url(#pe249b48eb6)" d="M 3 82.217822 
L 567.24 82.217822 
" style="fill:none;stroke:#000000;stroke-dasharray:1.000000,3.000000;stroke-dashoffset:0.0;stroke-width:0.5;"/>
     </g>
     <g id="line2d_62">
      <g>
       <use style="stroke:#000000;stroke-width:0.5;" x="3.0" xlink:href="#me66989f940" y="82.2178217822"/>
      </g>
     </g>
     <g id="line2d_63">
      <g>
       <use style="stroke:#000000;stroke-width:0.5;" x="567.24" xlink:href="#m2fedbc4243" y="82.2178217822"/>
      </g>
     </g>
    </g>
    <g id="ytick_6">
     <g id="line2d_64">
      <path clip-path="url(#pe249b48eb6)" d="M 3 6.772277 
L 567.24 6.772277 
" style="fill:none;stroke:#000000;stroke-dasharray:1.000000,3.000000;stroke-dashoffset:0.0;stroke-width:0.5;"/>
     </g>
     <g id="line2d_65">
      <g>
       <use style="stroke:#000000;stroke-width:0.5;" x="3.0" xlink:href="#me66989f940" y="6.77227722772"/>
      </g>
     </g>
     <g id="line2d_66">
      <g>
       <use style="stroke:#000000;stroke-width:0.5;" x="567.24" xlink:href="#m2fedbc4243" y="6.77227722772"/>
      </g>
     </g>
    </g>
   </g>
   <g id="text_10">
    <!-- {f15-f19}, 5-D -->
    <defs>
     <path d="M 12.5 -9.28125 
L 15.921875 -9.28125 
Q 22.75 -9.28125 24.828125 -7.171875 
Q 26.90625 -5.078125 26.90625 1.90625 
L 26.90625 14.015625 
Q 26.90625 21.625 29.09375 25.09375 
Q 31.296875 28.5625 36.71875 29.890625 
Q 31.296875 31.109375 29.09375 34.5625 
Q 26.90625 38.03125 26.90625 45.703125 
L 26.90625 57.8125 
Q 26.90625 64.75 24.828125 66.875 
Q 22.75 69 15.921875 69 
L 12.5 69 
L 12.5 75.984375 
L 15.578125 75.984375 
Q 27.734375 75.984375 31.8125 72.390625 
Q 35.890625 68.796875 35.890625 58.015625 
L 35.890625 46.296875 
Q 35.890625 39.015625 38.515625 36.203125 
Q 41.15625 33.40625 48.09375 33.40625 
L 51.125 33.40625 
L 51.125 26.421875 
L 48.09375 26.421875 
Q 41.15625 26.421875 38.515625 23.578125 
Q 35.890625 20.75 35.890625 13.375 
L 35.890625 1.703125 
Q 35.890625 -9.078125 31.8125 -12.6875 
Q 27.734375 -16.3125 15.578125 -16.3125 
L 12.5 -16.3125 
z
" id="BitstreamVeraSans-Roman-7d"/>
     <path d="M 10.984375 1.515625 
L 10.984375 10.5 
Q 14.703125 8.734375 18.5 7.8125 
Q 22.3125 6.890625 25.984375 6.890625 
Q 35.75 6.890625 40.890625 13.453125 
Q 46.046875 20.015625 46.78125 33.40625 
Q 43.953125 29.203125 39.59375 26.953125 
Q 35.25 24.703125 29.984375 24.703125 
Q 19.046875 24.703125 12.671875 31.3125 
Q 6.296875 37.9375 6.296875 49.421875 
Q 6.296875 60.640625 12.9375 67.421875 
Q 19.578125 74.21875 30.609375 74.21875 
Q 43.265625 74.21875 49.921875 64.515625 
Q 56.59375 54.828125 56.59375 36.375 
Q 56.59375 19.140625 48.40625 8.859375 
Q 40.234375 -1.421875 26.421875 -1.421875 
Q 22.703125 -1.421875 18.890625 -0.6875 
Q 15.09375 0.046875 10.984375 1.515625 
M 30.609375 32.421875 
Q 37.25 32.421875 41.125 36.953125 
Q 45.015625 41.5 45.015625 49.421875 
Q 45.015625 57.28125 41.125 61.84375 
Q 37.25 66.40625 30.609375 66.40625 
Q 23.96875 66.40625 20.09375 61.84375 
Q 16.21875 57.28125 16.21875 49.421875 
Q 16.21875 41.5 20.09375 36.953125 
Q 23.96875 32.421875 30.609375 32.421875 
" id="BitstreamVeraSans-Roman-39"/>
     <path d="M 51.125 -9.28125 
L 51.125 -16.3125 
L 48.09375 -16.3125 
Q 35.9375 -16.3125 31.8125 -12.6875 
Q 27.6875 -9.078125 27.6875 1.703125 
L 27.6875 13.375 
Q 27.6875 20.75 25.046875 23.578125 
Q 22.40625 26.421875 15.484375 26.421875 
L 12.5 26.421875 
L 12.5 33.40625 
L 15.484375 33.40625 
Q 22.46875 33.40625 25.078125 36.203125 
Q 27.6875 39.015625 27.6875 46.296875 
L 27.6875 58.015625 
Q 27.6875 68.796875 31.8125 72.390625 
Q 35.9375 75.984375 48.09375 75.984375 
L 51.125 75.984375 
L 51.125 69 
L 47.796875 69 
Q 40.921875 69 38.8125 66.84375 
Q 36.71875 64.703125 36.71875 57.8125 
L 36.71875 45.703125 
Q 36.71875 38.03125 34.5 34.5625 
Q 32.28125 31.109375 26.90625 29.890625 
Q 32.328125 28.5625 34.515625 25.09375 
Q 36.71875 21.625 36.71875 14.015625 
L 36.71875 1.90625 
Q 36.71875 -4.984375 38.8125 -7.125 
Q 40.921875 -9.28125 47.796875 -9.28125 
z
" id="BitstreamVeraSans-Roman-7b"/>
     <path d="M 11.71875 12.40625 
L 22.015625 12.40625 
L 22.015625 4 
L 14.015625 -11.625 
L 7.71875 -11.625 
L 11.71875 4 
z
" id="BitstreamVeraSans-Roman-2c"/>
     <path d="M 10.796875 72.90625 
L 49.515625 72.90625 
L 49.515625 64.59375 
L 19.828125 64.59375 
L 19.828125 46.734375 
Q 21.96875 47.46875 24.109375 47.828125 
Q 26.265625 48.1875 28.421875 48.1875 
Q 40.625 48.1875 47.75 41.5 
Q 54.890625 34.8125 54.890625 23.390625 
Q 54.890625 11.625 47.5625 5.09375 
Q 40.234375 -1.421875 26.90625 -1.421875 
Q 22.3125 -1.421875 17.546875 -0.640625 
Q 12.796875 0.140625 7.71875 1.703125 
L 7.71875 11.625 
Q 12.109375 9.234375 16.796875 8.0625 
Q 21.484375 6.890625 26.703125 6.890625 
Q 35.15625 6.890625 40.078125 11.328125 
Q 45.015625 15.765625 45.015625 23.390625 
Q 45.015625 31 40.078125 35.4375 
Q 35.15625 39.890625 26.703125 39.890625 
Q 22.75 39.890625 18.8125 39.015625 
Q 14.890625 38.140625 10.796875 36.28125 
z
" id="BitstreamVeraSans-Roman-35"/>
    </defs>
    <g transform="translate(410.2552 376.38)scale(0.2 -0.2)">
     <use xlink:href="#BitstreamVeraSans-Roman-7b"/>
     <use x="63.623046875" xlink:href="#BitstreamVeraSans-Roman-66"/>
     <use x="98.828125" xlink:href="#BitstreamVeraSans-Roman-31"/>
     <use x="162.451171875" xlink:href="#BitstreamVeraSans-Roman-35"/>
     <use x="226.07421875" xlink:href="#BitstreamVeraSans-Roman-2d"/>
     <use x="262.158203125" xlink:href="#BitstreamVeraSans-Roman-66"/>
     <use x="297.36328125" xlink:href="#BitstreamVeraSans-Roman-31"/>
     <use x="360.986328125" xlink:href="#BitstreamVeraSans-Roman-39"/>
     <use x="424.609375" xlink:href="#BitstreamVeraSans-Roman-7d"/>
     <use x="488.232421875" xlink:href="#BitstreamVeraSans-Roman-2c"/>
     <use x="520.01953125" xlink:href="#BitstreamVeraSans-Roman-20"/>
     <use x="551.806640625" xlink:href="#BitstreamVeraSans-Roman-35"/>
     <use x="615.4296875" xlink:href="#BitstreamVeraSans-Roman-2d"/>
     <use x="651.513671875" xlink:href="#BitstreamVeraSans-Roman-44"/>
    </g>
   </g>
   <g id="text_11">
    <!-- v2.2.1.10 -->
    <defs>
     <path d="M 2.984375 54.6875 
L 12.5 54.6875 
L 29.59375 8.796875 
L 46.6875 54.6875 
L 56.203125 54.6875 
L 35.6875 0 
L 23.484375 0 
z
" id="BitstreamVeraSans-Roman-76"/>
     <path d="M 10.6875 12.40625 
L 21 12.40625 
L 21 0 
L 10.6875 0 
z
" id="BitstreamVeraSans-Roman-2e"/>
    </defs>
    <g style="fill:#808080;" transform="translate(261.4871875 378.1103125)scale(0.1 -0.1)">
     <use xlink:href="#BitstreamVeraSans-Roman-76"/>
     <use x="59.1796875" xlink:href="#BitstreamVeraSans-Roman-32"/>
     <use x="122.802734375" xlink:href="#BitstreamVeraSans-Roman-2e"/>
     <use x="154.58984375" xlink:href="#BitstreamVeraSans-Roman-32"/>
     <use x="218.212890625" xlink:href="#BitstreamVeraSans-Roman-2e"/>
     <use x="250.0" xlink:href="#BitstreamVeraSans-Roman-31"/>
     <use x="313.623046875" xlink:href="#BitstreamVeraSans-Roman-2e"/>
     <use x="345.41015625" xlink:href="#BitstreamVeraSans-Roman-31"/>
     <use x="409.033203125" xlink:href="#BitstreamVeraSans-Roman-30"/>
    </g>
   </g>
  </g>
 </g>
 <defs>
  <clipPath id="pe249b48eb6">
   <rect height="381.0" width="564.24" x="3.0" y="3.0"/>
  </clipPath>
 </defs>
</svg>
