<?xml version="1.0" encoding="utf-8" standalone="no"?>
<!DOCTYPE svg PUBLIC "-//W3C//DTD SVG 1.1//EN"
  "http://www.w3.org/Graphics/SVG/1.1/DTD/svg11.dtd">
<!-- Created with matplotlib (http://matplotlib.org/) -->
<svg height="432pt" version="1.1" viewBox="0 0 576 432" width="576pt" xmlns="http://www.w3.org/2000/svg" xmlns:xlink="http://www.w3.org/1999/xlink">
 <defs>
  <style type="text/css">
*{stroke-linecap:butt;stroke-linejoin:round;stroke-miterlimit:100000;}
  </style>
 </defs>
 <g id="figure_1">
  <g id="patch_1">
   <path d="M 0 432 
L 576 432 
L 576 0 
L 0 0 
z
" style="fill:#ffffff;"/>
  </g>
  <g id="axes_1">
   <g id="patch_2">
    <path d="M 3 384 
L 567.24 384 
L 567.24 3 
L 3 3 
z
" style="fill:#ffffff;"/>
   </g>
   <g id="line2d_1">
    <path clip-path="url(#p12f2afc61f)" d="M 263.138302 384 
L 263.138302 378.970297 
L 263.894 378.970297 
L 263.894 373.940594 
L 264.523074 373.940594 
L 264.523074 368.910891 
L 265.616538 368.910891 
L 265.616538 363.881188 
L 265.760857 363.881188 
L 265.760857 358.851485 
L 266.251554 358.851485 
L 266.251554 353.821782 
L 268.687454 353.821782 
L 268.687454 348.792079 
L 269.387262 348.792079 
L 269.387262 343.762376 
L 271.627708 343.762376 
L 271.627708 338.732673 
L 272.120764 338.732673 
L 272.120764 333.70297 
L 272.364343 333.70297 
L 272.364343 328.673267 
L 276.249438 328.673267 
L 276.249438 323.643564 
L 277.094037 323.643564 
L 277.094037 318.613861 
L 277.997008 318.613861 
L 277.997008 313.584158 
L 278.231217 313.584158 
L 278.269446 303.524752 
L 278.566432 303.524752 
L 278.658121 288.435644 
L 278.931746 288.435644 
L 278.931746 283.405941 
L 279.375801 283.405941 
L 279.375801 278.376238 
L 279.597408 278.376238 
L 279.597408 273.346535 
L 280.02657 273.346535 
L 280.02657 268.316832 
L 280.823365 268.316832 
L 280.863827 258.257426 
L 281.110665 258.257426 
L 281.110665 253.227723 
L 282.20198 253.227723 
L 282.20198 248.19802 
L 282.430178 248.19802 
L 282.430178 243.168317 
L 282.541633 243.168317 
L 282.541633 238.138614 
L 283.513337 238.138614 
L 283.513337 233.108911 
L 283.90404 233.108911 
L 283.953476 223.049505 
L 284.108919 223.049505 
L 284.204009 212.990099 
L 284.714362 212.990099 
L 284.714362 207.960396 
L 284.830457 207.960396 
L 284.886228 197.90099 
L 285.035682 197.90099 
L 285.056908 187.841584 
L 285.923972 187.841584 
L 285.923972 182.811881 
L 286.444772 182.811881 
L 286.465128 172.752475 
L 288.581496 172.752475 
L 288.581496 167.722772 
L 294.6553 167.722772 
L 294.67646 157.663366 
L 317.241375 157.663366 
L 317.241375 152.633663 
L 325.361296 152.633663 
L 325.361296 147.60396 
L 326.341022 147.60396 
L 326.341022 142.574257 
L 329.404962 142.574257 
L 329.404962 137.544554 
L 330.060355 137.544554 
L 330.060355 132.514851 
L 332.598147 132.514851 
L 332.598147 127.485149 
L 333.400846 127.485149 
L 333.400846 122.455446 
L 335.058037 122.455446 
L 335.058037 117.425743 
L 336.805084 117.425743 
L 336.805084 112.39604 
L 339.892947 112.39604 
L 339.892947 107.366337 
L 341.802195 107.366337 
L 341.802195 102.336634 
L 343.391721 102.336634 
L 343.391721 97.306931 
L 343.84826 97.306931 
L 343.84826 92.277228 
L 345.029939 92.277228 
L 345.029939 87.247525 
L 345.225754 87.247525 
L 345.225754 82.217822 
L 348.953534 82.217822 
L 348.953534 77.188119 
L 349.06676 77.188119 
L 349.06676 72.158416 
L 350.503181 72.158416 
L 350.503181 67.128713 
L 351.077494 67.128713 
L 351.077494 62.09901 
L 351.303578 62.09901 
L 351.303578 57.069307 
L 351.514644 57.069307 
L 351.514644 52.039604 
L 351.934276 52.039604 
L 351.934276 47.009901 
L 352.337967 47.009901 
L 352.408507 36.950495 
L 352.586737 36.950495 
L 352.675252 26.891089 
L 352.846158 26.891089 
L 352.846158 21.861386 
L 353.022007 21.861386 
L 353.022007 16.831683 
L 353.631062 16.831683 
L 353.631062 11.80198 
L 354.531265 11.80198 
L 354.531265 6.772277 
L 354.531265 6.772277 
L 567.24 6.772277 
L 567.24 6.772277 
" style="fill:none;stroke:#ff0000;stroke-linecap:square;stroke-width:3.0;"/>
   </g>
   <g id="line2d_2">
    <path clip-path="url(#p12f2afc61f)" d="M 291.697787 384 
L 291.697787 378.970297 
L 291.829232 378.970297 
L 291.829232 373.940594 
L 294.679538 373.940594 
L 294.679538 368.910891 
L 294.925003 368.910891 
L 294.925003 363.881188 
L 296.376776 363.881188 
L 296.376776 358.851485 
L 298.111875 358.851485 
L 298.116716 348.792079 
L 298.67691 348.792079 
L 298.67691 343.762376 
L 299.518717 343.762376 
L 299.518717 338.732673 
L 299.738335 338.732673 
L 299.738335 333.70297 
L 300.146253 333.70297 
L 300.238655 323.643564 
L 300.735874 323.643564 
L 300.735874 318.613861 
L 300.989464 318.613861 
L 300.989464 313.584158 
L 304.113933 313.584158 
L 304.113933 308.554455 
L 329.40429 308.554455 
L 329.495406 298.49505 
L 329.865377 298.49505 
L 329.865377 293.465347 
L 330.307121 293.465347 
L 330.40484 278.376238 
L 330.744998 278.376238 
L 330.795312 268.316832 
L 330.993547 268.316832 
L 330.994321 258.257426 
L 331.106431 258.257426 
L 331.180293 248.19802 
L 331.39054 248.19802 
L 331.39054 243.168317 
L 331.534677 243.168317 
L 331.539835 228.079208 
L 331.646019 228.079208 
L 331.74877 207.960396 
L 331.840383 207.960396 
L 331.946446 187.841584 
L 332.122134 187.841584 
L 332.138728 172.752475 
L 332.277857 172.752475 
L 332.28477 162.693069 
L 332.482044 162.693069 
L 332.482044 157.663366 
L 348.953534 157.663366 
L 348.953534 152.633663 
L 349.06676 152.633663 
L 349.06676 147.60396 
L 350.503181 147.60396 
L 350.503181 142.574257 
L 351.077494 142.574257 
L 351.077494 137.544554 
L 351.303578 137.544554 
L 351.303578 132.514851 
L 351.514644 132.514851 
L 351.514644 127.485149 
L 351.934276 127.485149 
L 351.934276 122.455446 
L 352.337967 122.455446 
L 352.408507 112.39604 
L 352.586737 112.39604 
L 352.675252 102.336634 
L 352.846158 102.336634 
L 352.846158 97.306931 
L 353.022007 97.306931 
L 353.022007 92.277228 
L 354.140759 92.277228 
L 354.140759 87.247525 
L 354.745346 87.247525 
L 354.745346 82.217822 
L 409.973432 82.217822 
L 409.973432 6.772277 
L 409.973432 6.772277 
L 567.24 6.772277 
L 567.24 6.772277 
" style="fill:none;stroke:#00bfbf;stroke-linecap:square;"/>
   </g>
   <g id="line2d_3">
    <path clip-path="url(#p12f2afc61f)" d="M 291.697787 384 
L 291.697787 378.970297 
L 291.829232 378.970297 
L 291.829232 373.940594 
L 294.679538 373.940594 
L 294.679538 368.910891 
L 294.925003 368.910891 
L 294.925003 363.881188 
L 295.672626 363.881188 
L 295.672626 358.851485 
L 296.376776 358.851485 
L 296.376776 353.821782 
L 297.30419 353.821782 
L 297.30419 348.792079 
L 298.116716 348.792079 
L 298.116716 343.762376 
L 298.67691 343.762376 
L 298.67691 338.732673 
L 299.518717 338.732673 
L 299.518717 333.70297 
L 300.146253 333.70297 
L 300.238655 323.643564 
L 300.735874 323.643564 
L 300.735874 318.613861 
L 300.989464 318.613861 
L 300.989464 313.584158 
L 303.453489 313.584158 
L 303.453489 308.554455 
L 329.40429 308.554455 
L 329.495406 298.49505 
L 329.865377 298.49505 
L 329.865377 293.465347 
L 330.307121 293.465347 
L 330.40484 278.376238 
L 330.744998 278.376238 
L 330.847023 263.287129 
L 330.993547 263.287129 
L 330.994321 253.227723 
L 331.106431 253.227723 
L 331.180293 243.168317 
L 331.39054 243.168317 
L 331.39054 238.138614 
L 331.528266 238.138614 
L 331.539835 218.019802 
L 331.669653 218.019802 
L 331.74877 202.930693 
L 331.840383 202.930693 
L 331.917886 187.841584 
L 332.081358 187.841584 
L 332.129575 172.752475 
L 332.277857 172.752475 
L 332.28477 162.693069 
L 332.482044 162.693069 
L 332.482044 157.663366 
L 348.953534 157.663366 
L 348.953534 152.633663 
L 349.06676 152.633663 
L 349.06676 147.60396 
L 350.503181 147.60396 
L 350.503181 142.574257 
L 351.077494 142.574257 
L 351.077494 137.544554 
L 351.303578 137.544554 
L 351.303578 132.514851 
L 351.514644 132.514851 
L 351.514644 127.485149 
L 351.934276 127.485149 
L 351.934276 122.455446 
L 352.337967 122.455446 
L 352.408507 112.39604 
L 352.586737 112.39604 
L 352.675252 102.336634 
L 352.846158 102.336634 
L 352.846158 97.306931 
L 353.022007 97.306931 
L 353.022007 92.277228 
L 354.140759 92.277228 
L 354.140759 87.247525 
L 354.745346 87.247525 
L 354.745346 82.217822 
L 409.973432 82.217822 
L 409.973432 6.772277 
L 409.973432 6.772277 
L 567.24 6.772277 
L 567.24 6.772277 
" style="fill:none;stroke:#bf00bf;stroke-linecap:square;"/>
   </g>
   <g id="line2d_4">
    <path clip-path="url(#p12f2afc61f)" d="M 291.697787 384 
L 291.697787 378.970297 
L 291.829232 378.970297 
L 291.829232 373.940594 
L 294.679538 373.940594 
L 294.679538 368.910891 
L 294.925003 368.910891 
L 294.925003 363.881188 
L 295.672626 363.881188 
L 295.672626 358.851485 
L 296.376776 358.851485 
L 296.376776 353.821782 
L 297.30419 353.821782 
L 297.30419 348.792079 
L 298.116716 348.792079 
L 298.116716 343.762376 
L 298.67691 343.762376 
L 298.67691 338.732673 
L 299.518717 338.732673 
L 299.518717 333.70297 
L 300.146253 333.70297 
L 300.238655 323.643564 
L 300.735874 323.643564 
L 300.735874 318.613861 
L 300.989464 318.613861 
L 300.989464 313.584158 
L 303.453489 313.584158 
L 303.453489 308.554455 
L 329.40429 308.554455 
L 329.495406 298.49505 
L 329.865377 298.49505 
L 329.865377 293.465347 
L 330.307121 293.465347 
L 330.40484 278.376238 
L 330.744998 278.376238 
L 330.847023 263.287129 
L 330.993547 263.287129 
L 330.994321 253.227723 
L 331.106431 253.227723 
L 331.180293 243.168317 
L 331.39054 243.168317 
L 331.39054 238.138614 
L 331.528266 238.138614 
L 331.539835 218.019802 
L 331.669653 218.019802 
L 331.74877 202.930693 
L 331.840383 202.930693 
L 331.917886 187.841584 
L 332.081358 187.841584 
L 332.129575 172.752475 
L 332.277857 172.752475 
L 332.28477 162.693069 
L 332.482044 162.693069 
L 332.482044 157.663366 
L 348.953534 157.663366 
L 348.953534 152.633663 
L 349.06676 152.633663 
L 349.06676 147.60396 
L 350.503181 147.60396 
L 350.503181 142.574257 
L 351.077494 142.574257 
L 351.077494 137.544554 
L 351.303578 137.544554 
L 351.303578 132.514851 
L 351.514644 132.514851 
L 351.514644 127.485149 
L 351.934276 127.485149 
L 351.934276 122.455446 
L 352.337967 122.455446 
L 352.408507 112.39604 
L 352.586737 112.39604 
L 352.675252 102.336634 
L 352.846158 102.336634 
L 352.846158 97.306931 
L 353.022007 97.306931 
L 353.022007 92.277228 
L 354.140759 92.277228 
L 354.140759 87.247525 
L 354.745346 87.247525 
L 354.745346 82.217822 
L 409.973432 82.217822 
L 409.973432 6.772277 
L 409.973432 6.772277 
L 567.24 6.772277 
L 567.24 6.772277 
" style="fill:none;stroke:#000000;stroke-linecap:square;"/>
   </g>
   <g id="line2d_5">
    <path clip-path="url(#p12f2afc61f)" d="M 291.697787 384 
L 291.697787 378.970297 
L 291.829232 378.970297 
L 291.829232 373.940594 
L 294.679538 373.940594 
L 294.679538 368.910891 
L 294.925003 368.910891 
L 294.925003 363.881188 
L 295.672626 363.881188 
L 295.672626 358.851485 
L 296.376776 358.851485 
L 296.376776 353.821782 
L 297.30419 353.821782 
L 297.30419 348.792079 
L 298.116716 348.792079 
L 298.116716 343.762376 
L 298.67691 343.762376 
L 298.67691 338.732673 
L 299.518717 338.732673 
L 299.518717 333.70297 
L 300.146253 333.70297 
L 300.238655 323.643564 
L 300.735874 323.643564 
L 300.735874 318.613861 
L 300.989464 318.613861 
L 300.989464 313.584158 
L 303.453489 313.584158 
L 303.453489 308.554455 
L 318.09074 308.554455 
L 318.09074 303.524752 
L 319.409837 303.524752 
L 319.409837 298.49505 
L 324.033207 298.49505 
L 324.033207 293.465347 
L 325.819344 293.465347 
L 325.819344 288.435644 
L 328.407428 288.435644 
L 328.407428 283.405941 
L 329.495406 283.405941 
L 329.495406 278.376238 
L 329.865377 278.376238 
L 329.865377 273.346535 
L 329.985573 273.346535 
L 329.985573 268.316832 
L 330.307121 268.316832 
L 330.40484 253.227723 
L 330.795312 253.227723 
L 330.795312 248.19802 
L 330.993547 248.19802 
L 330.993547 243.168317 
L 331.106431 243.168317 
L 331.202343 228.079208 
L 331.39054 228.079208 
L 331.39054 223.049505 
L 331.536706 223.049505 
L 331.539835 212.990099 
L 331.669653 212.990099 
L 331.74877 197.90099 
L 331.840383 197.90099 
L 331.917886 187.841584 
L 332.081358 187.841584 
L 332.129575 172.752475 
L 332.277857 172.752475 
L 332.28477 162.693069 
L 332.482044 162.693069 
L 332.482044 157.663366 
L 348.953534 157.663366 
L 348.953534 152.633663 
L 349.06676 152.633663 
L 349.06676 147.60396 
L 350.503181 147.60396 
L 350.503181 142.574257 
L 351.077494 142.574257 
L 351.077494 137.544554 
L 351.303578 137.544554 
L 351.303578 132.514851 
L 351.514644 132.514851 
L 351.514644 127.485149 
L 351.934276 127.485149 
L 351.934276 122.455446 
L 352.337967 122.455446 
L 352.408507 112.39604 
L 352.586737 112.39604 
L 352.675252 102.336634 
L 352.846158 102.336634 
L 352.846158 97.306931 
L 353.022007 97.306931 
L 353.022007 92.277228 
L 354.140759 92.277228 
L 354.140759 87.247525 
L 354.745346 87.247525 
L 354.745346 82.217822 
L 386.864844 82.217822 
L 386.864844 77.188119 
L 405.34398 77.188119 
L 405.34398 72.158416 
L 409.973432 72.158416 
L 409.973432 6.772277 
L 409.973432 6.772277 
L 567.24 6.772277 
L 567.24 6.772277 
" style="fill:none;stroke:#00bfbf;stroke-linecap:square;"/>
   </g>
   <g id="line2d_6">
    <path clip-path="url(#p12f2afc61f)" d="M 263.138941 384 
L 263.138941 378.970297 
L 278.501855 378.970297 
L 278.501855 373.940594 
L 283.400841 373.940594 
L 283.400841 368.910891 
L 287.291674 368.910891 
L 287.291674 363.881188 
L 291.09701 363.881188 
L 291.09701 358.851485 
L 291.553758 358.851485 
L 291.558682 348.792079 
L 291.697787 348.792079 
L 291.697787 343.762376 
L 291.829232 343.762376 
L 291.829232 338.732673 
L 292.95709 338.732673 
L 292.95709 333.70297 
L 293.095555 333.70297 
L 293.095555 328.673267 
L 293.262759 328.673267 
L 293.370276 313.584158 
L 293.89972 313.584158 
L 293.89972 308.554455 
L 294.106523 308.554455 
L 294.106523 303.524752 
L 294.737729 303.524752 
L 294.737729 298.49505 
L 294.925003 298.49505 
L 294.925003 293.465347 
L 296.159854 293.465347 
L 296.159854 288.435644 
L 296.860075 288.435644 
L 296.894315 278.376238 
L 297.30419 278.376238 
L 297.30419 273.346535 
L 298.095079 273.346535 
L 298.095079 268.316832 
L 298.337219 268.316832 
L 298.337219 263.287129 
L 301.206877 263.287129 
L 301.206877 258.257426 
L 302.25432 258.257426 
L 302.25432 253.227723 
L 303.863248 253.227723 
L 303.863248 248.19802 
L 304.745694 248.19802 
L 304.745694 243.168317 
L 306.273868 243.168317 
L 306.273868 238.138614 
L 307.089181 238.138614 
L 307.089968 228.079208 
L 309.489976 228.079208 
L 309.489976 223.049505 
L 310.484947 223.049505 
L 310.484947 218.019802 
L 312.042397 218.019802 
L 312.042397 212.990099 
L 312.817515 212.990099 
L 312.870626 202.930693 
L 313.134805 202.930693 
L 313.134805 197.90099 
L 313.545395 197.90099 
L 313.545395 192.871287 
L 314.739071 192.871287 
L 314.739071 187.841584 
L 315.131496 187.841584 
L 315.131496 182.811881 
L 315.336215 182.811881 
L 315.336215 177.782178 
L 315.647522 177.782178 
L 315.647522 172.752475 
L 315.860081 172.752475 
L 315.860081 167.722772 
L 321.182429 167.722772 
L 321.182429 162.693069 
L 331.606448 162.693069 
L 331.606448 157.663366 
L 348.953534 157.663366 
L 348.953534 152.633663 
L 349.06676 152.633663 
L 349.06676 147.60396 
L 350.503181 147.60396 
L 350.503181 142.574257 
L 351.077494 142.574257 
L 351.077494 137.544554 
L 351.303578 137.544554 
L 351.303578 132.514851 
L 351.514644 132.514851 
L 351.514644 127.485149 
L 351.934276 127.485149 
L 351.934276 122.455446 
L 352.337967 122.455446 
L 352.408507 112.39604 
L 352.586737 112.39604 
L 352.675252 102.336634 
L 352.846158 102.336634 
L 352.846158 97.306931 
L 353.022007 97.306931 
L 353.022007 92.277228 
L 354.140759 92.277228 
L 354.140759 87.247525 
L 354.745346 87.247525 
L 354.745346 82.217822 
L 383.351512 82.217822 
L 383.38476 72.158416 
L 386.864844 72.158416 
L 386.864844 67.128713 
L 392.715994 67.128713 
L 392.715994 62.09901 
L 392.908357 62.09901 
L 392.981074 52.039604 
L 395.815436 52.039604 
L 395.815436 47.009901 
L 397.124656 47.009901 
L 397.124656 41.980198 
L 400.078554 41.980198 
L 400.078554 36.950495 
L 401.080783 36.950495 
L 401.080783 31.920792 
L 403.765357 31.920792 
L 403.765357 26.891089 
L 404.671188 26.891089 
L 404.671188 21.861386 
L 406.85795 21.861386 
L 406.85795 16.831683 
L 408.518565 16.831683 
L 408.518565 11.80198 
L 409.973432 11.80198 
L 409.973432 6.772277 
L 409.973432 6.772277 
L 567.24 6.772277 
L 567.24 6.772277 
" style="fill:none;stroke:#bf00bf;stroke-linecap:square;"/>
   </g>
   <g id="line2d_7">
    <path clip-path="url(#p12f2afc61f)" d="M 263.138941 384 
L 263.138941 378.970297 
L 272.017966 378.970297 
L 272.017966 373.940594 
L 275.394509 373.940594 
L 275.394509 368.910891 
L 276.973849 368.910891 
L 276.973849 363.881188 
L 277.139753 363.881188 
L 277.139753 358.851485 
L 278.371677 358.851485 
L 278.371677 353.821782 
L 278.501855 353.821782 
L 278.501855 348.792079 
L 278.732314 348.792079 
L 278.732314 343.762376 
L 279.881764 343.762376 
L 279.881764 338.732673 
L 282.331256 338.732673 
L 282.354479 328.673267 
L 282.524795 328.673267 
L 282.524795 323.643564 
L 282.795523 323.643564 
L 282.795523 318.613861 
L 283.347106 318.613861 
L 283.347106 313.584158 
L 283.953476 313.584158 
L 283.953476 308.554455 
L 285.65506 308.554455 
L 285.716331 298.49505 
L 286.801094 298.49505 
L 286.801094 293.465347 
L 287.291674 293.465347 
L 287.291674 288.435644 
L 287.406519 288.435644 
L 287.406519 283.405941 
L 288.062108 283.405941 
L 288.062108 278.376238 
L 288.74845 278.376238 
L 288.74845 273.346535 
L 288.944842 273.346535 
L 288.945124 263.287129 
L 289.060995 263.287129 
L 289.060995 258.257426 
L 289.582794 258.257426 
L 289.644186 248.19802 
L 289.788564 248.19802 
L 289.788564 243.168317 
L 290.194135 243.168317 
L 290.194135 238.138614 
L 290.805853 238.138614 
L 290.805853 233.108911 
L 291.898849 233.108911 
L 291.898849 228.079208 
L 292.914769 228.079208 
L 292.914769 223.049505 
L 293.661109 223.049505 
L 293.661109 218.019802 
L 293.972038 218.019802 
L 293.972038 212.990099 
L 295.263659 212.990099 
L 295.263659 207.960396 
L 296.809755 207.960396 
L 296.809755 202.930693 
L 297.05409 202.930693 
L 297.05409 197.90099 
L 301.412118 197.90099 
L 301.412118 192.871287 
L 303.07155 192.871287 
L 303.07155 187.841584 
L 306.082617 187.841584 
L 306.082617 182.811881 
L 306.201797 182.811881 
L 306.201797 177.782178 
L 307.089158 177.782178 
L 307.089158 172.752475 
L 307.768322 172.752475 
L 307.768322 167.722772 
L 310.157453 167.722772 
L 310.157453 162.693069 
L 312.870617 162.693069 
L 312.870617 157.663366 
L 338.667138 157.663366 
L 338.667138 152.633663 
L 345.873449 152.633663 
L 345.873449 147.60396 
L 348.953534 147.60396 
L 348.953534 142.574257 
L 349.06676 142.574257 
L 349.06676 137.544554 
L 350.503181 137.544554 
L 350.503181 132.514851 
L 351.077494 132.514851 
L 351.077494 127.485149 
L 351.303578 127.485149 
L 351.303578 122.455446 
L 351.514644 122.455446 
L 351.514644 117.425743 
L 351.934276 117.425743 
L 351.934276 112.39604 
L 352.337967 112.39604 
L 352.408507 102.336634 
L 352.586737 102.336634 
L 352.675252 92.277228 
L 352.846158 92.277228 
L 352.846158 87.247525 
L 353.022007 87.247525 
L 353.022007 82.217822 
L 353.792559 82.217822 
L 353.792559 77.188119 
L 354.140759 77.188119 
L 354.140759 72.158416 
L 354.349105 72.158416 
L 354.349105 67.128713 
L 354.745346 67.128713 
L 354.745346 62.09901 
L 355.449453 62.09901 
L 355.449453 57.069307 
L 356.166877 57.069307 
L 356.166877 52.039604 
L 358.295096 52.039604 
L 358.295096 47.009901 
L 359.127564 47.009901 
L 359.127564 41.980198 
L 361.116702 41.980198 
L 361.116702 36.950495 
L 363.853358 36.950495 
L 363.883827 26.891089 
L 365.9927 26.891089 
L 365.9927 21.861386 
L 366.679291 21.861386 
L 366.679291 16.831683 
L 368.064052 16.831683 
L 368.064052 11.80198 
L 370.650086 11.80198 
L 370.650086 6.772277 
L 370.650086 6.772277 
L 567.24 6.772277 
L 567.24 6.772277 
" style="fill:none;stroke:#000000;stroke-linecap:square;"/>
   </g>
   <g id="line2d_8">
    <path clip-path="url(#p12f2afc61f)" d="M 263.138302 384 
L 263.138302 378.970297 
L 263.894 378.970297 
L 263.894 373.940594 
L 264.523074 373.940594 
L 264.523074 368.910891 
L 265.616538 368.910891 
L 265.616538 363.881188 
L 265.760857 363.881188 
L 265.760857 358.851485 
L 266.251554 358.851485 
L 266.251554 353.821782 
L 268.687454 353.821782 
L 268.687454 348.792079 
L 269.387262 348.792079 
L 269.387262 343.762376 
L 271.627708 343.762376 
L 271.627708 338.732673 
L 272.120764 338.732673 
L 272.120764 333.70297 
L 272.364343 333.70297 
L 272.364343 328.673267 
L 276.249438 328.673267 
L 276.249438 323.643564 
L 277.094037 323.643564 
L 277.094037 318.613861 
L 277.997008 318.613861 
L 277.997008 313.584158 
L 278.231217 313.584158 
L 278.269446 303.524752 
L 278.566432 303.524752 
L 278.658121 288.435644 
L 278.931746 288.435644 
L 278.931746 283.405941 
L 279.375801 283.405941 
L 279.375801 278.376238 
L 279.597408 278.376238 
L 279.597408 273.346535 
L 280.02657 273.346535 
L 280.02657 268.316832 
L 280.823365 268.316832 
L 280.863827 258.257426 
L 281.110665 258.257426 
L 281.110665 253.227723 
L 282.20198 253.227723 
L 282.20198 248.19802 
L 282.430178 248.19802 
L 282.430178 243.168317 
L 282.541633 243.168317 
L 282.541633 238.138614 
L 283.513337 238.138614 
L 283.513337 233.108911 
L 283.90404 233.108911 
L 283.953476 223.049505 
L 284.108919 223.049505 
L 284.204009 212.990099 
L 284.714362 212.990099 
L 284.714362 207.960396 
L 284.830457 207.960396 
L 284.886228 197.90099 
L 285.035682 197.90099 
L 285.056908 187.841584 
L 285.923972 187.841584 
L 285.923972 182.811881 
L 286.444772 182.811881 
L 286.465128 172.752475 
L 288.581496 172.752475 
L 288.581496 167.722772 
L 294.6553 167.722772 
L 294.67646 157.663366 
L 317.241375 157.663366 
L 317.241375 152.633663 
L 325.361296 152.633663 
L 325.361296 147.60396 
L 326.341022 147.60396 
L 326.341022 142.574257 
L 329.404962 142.574257 
L 329.404962 137.544554 
L 330.060355 137.544554 
L 330.060355 132.514851 
L 332.598147 132.514851 
L 332.598147 127.485149 
L 333.400846 127.485149 
L 333.400846 122.455446 
L 335.058037 122.455446 
L 335.058037 117.425743 
L 336.805084 117.425743 
L 336.805084 112.39604 
L 339.892947 112.39604 
L 339.892947 107.366337 
L 341.802195 107.366337 
L 341.802195 102.336634 
L 343.391721 102.336634 
L 343.391721 97.306931 
L 343.84826 97.306931 
L 343.84826 92.277228 
L 345.029939 92.277228 
L 345.029939 87.247525 
L 345.225754 87.247525 
L 345.225754 82.217822 
L 348.953534 82.217822 
L 348.953534 77.188119 
L 349.06676 77.188119 
L 349.06676 72.158416 
L 350.503181 72.158416 
L 350.503181 67.128713 
L 351.077494 67.128713 
L 351.077494 62.09901 
L 351.303578 62.09901 
L 351.303578 57.069307 
L 351.514644 57.069307 
L 351.514644 52.039604 
L 351.934276 52.039604 
L 351.934276 47.009901 
L 352.337967 47.009901 
L 352.408507 36.950495 
L 352.586737 36.950495 
L 352.675252 26.891089 
L 352.846158 26.891089 
L 352.846158 21.861386 
L 353.022007 21.861386 
L 353.022007 16.831683 
L 353.631062 16.831683 
L 353.631062 11.80198 
L 354.531265 11.80198 
L 354.531265 6.772277 
L 354.531265 6.772277 
L 567.24 6.772277 
L 567.24 6.772277 
" style="fill:none;stroke:#00bfbf;stroke-linecap:square;"/>
   </g>
   <g id="patch_3">
    <path d="M 3 3 
L 567.24 3 
" style="fill:none;stroke:#000000;stroke-linecap:square;stroke-linejoin:miter;"/>
   </g>
   <g id="patch_4">
    <path d="M 567.24 384 
L 567.24 3 
" style="fill:none;stroke:#000000;stroke-linecap:square;stroke-linejoin:miter;"/>
   </g>
   <g id="patch_5">
    <path d="M 3 384 
L 567.24 384 
" style="fill:none;stroke:#000000;stroke-linecap:square;stroke-linejoin:miter;"/>
   </g>
   <g id="patch_6">
    <path d="M 3 384 
L 3 3 
" style="fill:none;stroke:#000000;stroke-linecap:square;stroke-linejoin:miter;"/>
   </g>
   <g id="matplotlib.axis_1">
    <g id="xtick_1"/>
    <g id="xtick_2">
     <g id="line2d_9">
      <path clip-path="url(#p12f2afc61f)" d="M 69.254589 384 
L 69.254589 3 
" style="fill:none;stroke:#000000;stroke-dasharray:1.000000,3.000000;stroke-dashoffset:0.0;stroke-width:0.5;"/>
     </g>
     <g id="line2d_10">
      <defs>
       <path d="M 0 0 
L 0 -4 
" id="ma537e6e353" style="stroke:#000000;stroke-width:0.5;"/>
      </defs>
      <g>
       <use style="stroke:#000000;stroke-width:0.5;" x="69.2545893472" xlink:href="#ma537e6e353" y="384.0"/>
      </g>
     </g>
     <g id="line2d_11">
      <defs>
       <path d="M 0 0 
L 0 4 
" id="m2dba256daf" style="stroke:#000000;stroke-width:0.5;"/>
      </defs>
      <g>
       <use style="stroke:#000000;stroke-width:0.5;" x="69.2545893472" xlink:href="#m2dba256daf" y="3.0"/>
      </g>
     </g>
     <g id="text_1">
      <!-- -6 -->
      <defs>
       <path d="M 33.015625 40.375 
Q 26.375 40.375 22.484375 35.828125 
Q 18.609375 31.296875 18.609375 23.390625 
Q 18.609375 15.53125 22.484375 10.953125 
Q 26.375 6.390625 33.015625 6.390625 
Q 39.65625 6.390625 43.53125 10.953125 
Q 47.40625 15.53125 47.40625 23.390625 
Q 47.40625 31.296875 43.53125 35.828125 
Q 39.65625 40.375 33.015625 40.375 
M 52.59375 71.296875 
L 52.59375 62.3125 
Q 48.875 64.0625 45.09375 64.984375 
Q 41.3125 65.921875 37.59375 65.921875 
Q 27.828125 65.921875 22.671875 59.328125 
Q 17.53125 52.734375 16.796875 39.40625 
Q 19.671875 43.65625 24.015625 45.921875 
Q 28.375 48.1875 33.59375 48.1875 
Q 44.578125 48.1875 50.953125 41.515625 
Q 57.328125 34.859375 57.328125 23.390625 
Q 57.328125 12.15625 50.6875 5.359375 
Q 44.046875 -1.421875 33.015625 -1.421875 
Q 20.359375 -1.421875 13.671875 8.265625 
Q 6.984375 17.96875 6.984375 36.375 
Q 6.984375 53.65625 15.1875 63.9375 
Q 23.390625 74.21875 37.203125 74.21875 
Q 40.921875 74.21875 44.703125 73.484375 
Q 48.484375 72.75 52.59375 71.296875 
" id="BitstreamVeraSans-Roman-36"/>
       <path d="M 4.890625 31.390625 
L 31.203125 31.390625 
L 31.203125 23.390625 
L 4.890625 23.390625 
z
" id="BitstreamVeraSans-Roman-2d"/>
      </defs>
      <g transform="translate(59.2842768472 403.196875)scale(0.2 -0.2)">
       <use xlink:href="#BitstreamVeraSans-Roman-2d"/>
       <use x="36.083984375" xlink:href="#BitstreamVeraSans-Roman-36"/>
      </g>
     </g>
    </g>
    <g id="xtick_3">
     <g id="line2d_12">
      <path clip-path="url(#p12f2afc61f)" d="M 135.652644 384 
L 135.652644 3 
" style="fill:none;stroke:#000000;stroke-dasharray:1.000000,3.000000;stroke-dashoffset:0.0;stroke-width:0.5;"/>
     </g>
     <g id="line2d_13">
      <g>
       <use style="stroke:#000000;stroke-width:0.5;" x="135.652644101" xlink:href="#ma537e6e353" y="384.0"/>
      </g>
     </g>
     <g id="line2d_14">
      <g>
       <use style="stroke:#000000;stroke-width:0.5;" x="135.652644101" xlink:href="#m2dba256daf" y="3.0"/>
      </g>
     </g>
     <g id="text_2">
      <!-- -4 -->
      <defs>
       <path d="M 37.796875 64.3125 
L 12.890625 25.390625 
L 37.796875 25.390625 
z
M 35.203125 72.90625 
L 47.609375 72.90625 
L 47.609375 25.390625 
L 58.015625 25.390625 
L 58.015625 17.1875 
L 47.609375 17.1875 
L 47.609375 0 
L 37.796875 0 
L 37.796875 17.1875 
L 4.890625 17.1875 
L 4.890625 26.703125 
z
" id="BitstreamVeraSans-Roman-34"/>
      </defs>
      <g transform="translate(125.682331601 403.196875)scale(0.2 -0.2)">
       <use xlink:href="#BitstreamVeraSans-Roman-2d"/>
       <use x="36.083984375" xlink:href="#BitstreamVeraSans-Roman-34"/>
      </g>
     </g>
    </g>
    <g id="xtick_4">
     <g id="line2d_15">
      <path clip-path="url(#p12f2afc61f)" d="M 202.050699 384 
L 202.050699 3 
" style="fill:none;stroke:#000000;stroke-dasharray:1.000000,3.000000;stroke-dashoffset:0.0;stroke-width:0.5;"/>
     </g>
     <g id="line2d_16">
      <g>
       <use style="stroke:#000000;stroke-width:0.5;" x="202.050698855" xlink:href="#ma537e6e353" y="384.0"/>
      </g>
     </g>
     <g id="line2d_17">
      <g>
       <use style="stroke:#000000;stroke-width:0.5;" x="202.050698855" xlink:href="#m2dba256daf" y="3.0"/>
      </g>
     </g>
     <g id="text_3">
      <!-- -2 -->
      <defs>
       <path d="M 19.1875 8.296875 
L 53.609375 8.296875 
L 53.609375 0 
L 7.328125 0 
L 7.328125 8.296875 
Q 12.9375 14.109375 22.625 23.890625 
Q 32.328125 33.6875 34.8125 36.53125 
Q 39.546875 41.84375 41.421875 45.53125 
Q 43.3125 49.21875 43.3125 52.78125 
Q 43.3125 58.59375 39.234375 62.25 
Q 35.15625 65.921875 28.609375 65.921875 
Q 23.96875 65.921875 18.8125 64.3125 
Q 13.671875 62.703125 7.8125 59.421875 
L 7.8125 69.390625 
Q 13.765625 71.78125 18.9375 73 
Q 24.125 74.21875 28.421875 74.21875 
Q 39.75 74.21875 46.484375 68.546875 
Q 53.21875 62.890625 53.21875 53.421875 
Q 53.21875 48.921875 51.53125 44.890625 
Q 49.859375 40.875 45.40625 35.40625 
Q 44.1875 33.984375 37.640625 27.21875 
Q 31.109375 20.453125 19.1875 8.296875 
" id="BitstreamVeraSans-Roman-32"/>
      </defs>
      <g transform="translate(192.080386355 403.196875)scale(0.2 -0.2)">
       <use xlink:href="#BitstreamVeraSans-Roman-2d"/>
       <use x="36.083984375" xlink:href="#BitstreamVeraSans-Roman-32"/>
      </g>
     </g>
    </g>
    <g id="xtick_5">
     <g id="line2d_18">
      <path clip-path="url(#p12f2afc61f)" d="M 268.448754 384 
L 268.448754 3 
" style="fill:none;stroke:#000000;stroke-dasharray:1.000000,3.000000;stroke-dashoffset:0.0;stroke-width:0.5;"/>
     </g>
     <g id="line2d_19">
      <g>
       <use style="stroke:#000000;stroke-width:0.5;" x="268.448753608" xlink:href="#ma537e6e353" y="384.0"/>
      </g>
     </g>
     <g id="line2d_20">
      <g>
       <use style="stroke:#000000;stroke-width:0.5;" x="268.448753608" xlink:href="#m2dba256daf" y="3.0"/>
      </g>
     </g>
     <g id="text_4">
      <!-- 0 -->
      <defs>
       <path d="M 31.78125 66.40625 
Q 24.171875 66.40625 20.328125 58.90625 
Q 16.5 51.421875 16.5 36.375 
Q 16.5 21.390625 20.328125 13.890625 
Q 24.171875 6.390625 31.78125 6.390625 
Q 39.453125 6.390625 43.28125 13.890625 
Q 47.125 21.390625 47.125 36.375 
Q 47.125 51.421875 43.28125 58.90625 
Q 39.453125 66.40625 31.78125 66.40625 
M 31.78125 74.21875 
Q 44.046875 74.21875 50.515625 64.515625 
Q 56.984375 54.828125 56.984375 36.375 
Q 56.984375 17.96875 50.515625 8.265625 
Q 44.046875 -1.421875 31.78125 -1.421875 
Q 19.53125 -1.421875 13.0625 8.265625 
Q 6.59375 17.96875 6.59375 36.375 
Q 6.59375 54.828125 13.0625 64.515625 
Q 19.53125 74.21875 31.78125 74.21875 
" id="BitstreamVeraSans-Roman-30"/>
      </defs>
      <g transform="translate(262.086253608 403.196875)scale(0.2 -0.2)">
       <use xlink:href="#BitstreamVeraSans-Roman-30"/>
      </g>
     </g>
    </g>
    <g id="xtick_6">
     <g id="line2d_21">
      <path clip-path="url(#p12f2afc61f)" d="M 334.846808 384 
L 334.846808 3 
" style="fill:none;stroke:#000000;stroke-dasharray:1.000000,3.000000;stroke-dashoffset:0.0;stroke-width:0.5;"/>
     </g>
     <g id="line2d_22">
      <g>
       <use style="stroke:#000000;stroke-width:0.5;" x="334.846808362" xlink:href="#ma537e6e353" y="384.0"/>
      </g>
     </g>
     <g id="line2d_23">
      <g>
       <use style="stroke:#000000;stroke-width:0.5;" x="334.846808362" xlink:href="#m2dba256daf" y="3.0"/>
      </g>
     </g>
     <g id="text_5">
      <!-- 2 -->
      <g transform="translate(328.484308362 403.196875)scale(0.2 -0.2)">
       <use xlink:href="#BitstreamVeraSans-Roman-32"/>
      </g>
     </g>
    </g>
    <g id="xtick_7">
     <g id="line2d_24">
      <path clip-path="url(#p12f2afc61f)" d="M 401.244863 384 
L 401.244863 3 
" style="fill:none;stroke:#000000;stroke-dasharray:1.000000,3.000000;stroke-dashoffset:0.0;stroke-width:0.5;"/>
     </g>
     <g id="line2d_25">
      <g>
       <use style="stroke:#000000;stroke-width:0.5;" x="401.244863116" xlink:href="#ma537e6e353" y="384.0"/>
      </g>
     </g>
     <g id="line2d_26">
      <g>
       <use style="stroke:#000000;stroke-width:0.5;" x="401.244863116" xlink:href="#m2dba256daf" y="3.0"/>
      </g>
     </g>
     <g id="text_6">
      <!-- 4 -->
      <g transform="translate(394.882363116 403.196875)scale(0.2 -0.2)">
       <use xlink:href="#BitstreamVeraSans-Roman-34"/>
      </g>
     </g>
    </g>
    <g id="xtick_8">
     <g id="line2d_27">
      <path clip-path="url(#p12f2afc61f)" d="M 467.642918 384 
L 467.642918 3 
" style="fill:none;stroke:#000000;stroke-dasharray:1.000000,3.000000;stroke-dashoffset:0.0;stroke-width:0.5;"/>
     </g>
     <g id="line2d_28">
      <g>
       <use style="stroke:#000000;stroke-width:0.5;" x="467.642917869" xlink:href="#ma537e6e353" y="384.0"/>
      </g>
     </g>
     <g id="line2d_29">
      <g>
       <use style="stroke:#000000;stroke-width:0.5;" x="467.642917869" xlink:href="#m2dba256daf" y="3.0"/>
      </g>
     </g>
     <g id="text_7">
      <!-- 6 -->
      <g transform="translate(461.280417869 403.196875)scale(0.2 -0.2)">
       <use xlink:href="#BitstreamVeraSans-Roman-36"/>
      </g>
     </g>
    </g>
    <g id="xtick_9">
     <g id="line2d_30">
      <path clip-path="url(#p12f2afc61f)" d="M 534.040973 384 
L 534.040973 3 
" style="fill:none;stroke:#000000;stroke-dasharray:1.000000,3.000000;stroke-dashoffset:0.0;stroke-width:0.5;"/>
     </g>
     <g id="line2d_31">
      <g>
       <use style="stroke:#000000;stroke-width:0.5;" x="534.040972623" xlink:href="#ma537e6e353" y="384.0"/>
      </g>
     </g>
     <g id="line2d_32">
      <g>
       <use style="stroke:#000000;stroke-width:0.5;" x="534.040972623" xlink:href="#m2dba256daf" y="3.0"/>
      </g>
     </g>
     <g id="text_8">
      <!-- 8 -->
      <defs>
       <path d="M 31.78125 34.625 
Q 24.75 34.625 20.71875 30.859375 
Q 16.703125 27.09375 16.703125 20.515625 
Q 16.703125 13.921875 20.71875 10.15625 
Q 24.75 6.390625 31.78125 6.390625 
Q 38.8125 6.390625 42.859375 10.171875 
Q 46.921875 13.96875 46.921875 20.515625 
Q 46.921875 27.09375 42.890625 30.859375 
Q 38.875 34.625 31.78125 34.625 
M 21.921875 38.8125 
Q 15.578125 40.375 12.03125 44.71875 
Q 8.5 49.078125 8.5 55.328125 
Q 8.5 64.0625 14.71875 69.140625 
Q 20.953125 74.21875 31.78125 74.21875 
Q 42.671875 74.21875 48.875 69.140625 
Q 55.078125 64.0625 55.078125 55.328125 
Q 55.078125 49.078125 51.53125 44.71875 
Q 48 40.375 41.703125 38.8125 
Q 48.828125 37.15625 52.796875 32.3125 
Q 56.78125 27.484375 56.78125 20.515625 
Q 56.78125 9.90625 50.3125 4.234375 
Q 43.84375 -1.421875 31.78125 -1.421875 
Q 19.734375 -1.421875 13.25 4.234375 
Q 6.78125 9.90625 6.78125 20.515625 
Q 6.78125 27.484375 10.78125 32.3125 
Q 14.796875 37.15625 21.921875 38.8125 
M 18.3125 54.390625 
Q 18.3125 48.734375 21.84375 45.5625 
Q 25.390625 42.390625 31.78125 42.390625 
Q 38.140625 42.390625 41.71875 45.5625 
Q 45.3125 48.734375 45.3125 54.390625 
Q 45.3125 60.0625 41.71875 63.234375 
Q 38.140625 66.40625 31.78125 66.40625 
Q 25.390625 66.40625 21.84375 63.234375 
Q 18.3125 60.0625 18.3125 54.390625 
" id="BitstreamVeraSans-Roman-38"/>
      </defs>
      <g transform="translate(527.678472623 403.196875)scale(0.2 -0.2)">
       <use xlink:href="#BitstreamVeraSans-Roman-38"/>
      </g>
     </g>
    </g>
    <g id="xtick_10"/>
    <g id="xtick_11">
     <g id="line2d_33">
      <defs>
       <path d="M 0 0 
L 0 -2 
" id="m7f9f94d50d" style="stroke:#000000;stroke-width:0.5;"/>
      </defs>
      <g>
       <use style="stroke:#000000;stroke-width:0.5;" x="69.2545893472" xlink:href="#m7f9f94d50d" y="384.0"/>
      </g>
     </g>
     <g id="line2d_34">
      <defs>
       <path d="M 0 0 
L 0 2 
" id="m86b9119288" style="stroke:#000000;stroke-width:0.5;"/>
      </defs>
      <g>
       <use style="stroke:#000000;stroke-width:0.5;" x="69.2545893472" xlink:href="#m86b9119288" y="3.0"/>
      </g>
     </g>
    </g>
    <g id="xtick_12">
     <g id="line2d_35">
      <g>
       <use style="stroke:#000000;stroke-width:0.5;" x="135.652644101" xlink:href="#m7f9f94d50d" y="384.0"/>
      </g>
     </g>
     <g id="line2d_36">
      <g>
       <use style="stroke:#000000;stroke-width:0.5;" x="135.652644101" xlink:href="#m86b9119288" y="3.0"/>
      </g>
     </g>
    </g>
    <g id="xtick_13">
     <g id="line2d_37">
      <g>
       <use style="stroke:#000000;stroke-width:0.5;" x="202.050698855" xlink:href="#m7f9f94d50d" y="384.0"/>
      </g>
     </g>
     <g id="line2d_38">
      <g>
       <use style="stroke:#000000;stroke-width:0.5;" x="202.050698855" xlink:href="#m86b9119288" y="3.0"/>
      </g>
     </g>
    </g>
    <g id="xtick_14">
     <g id="line2d_39">
      <g>
       <use style="stroke:#000000;stroke-width:0.5;" x="268.448753608" xlink:href="#m7f9f94d50d" y="384.0"/>
      </g>
     </g>
     <g id="line2d_40">
      <g>
       <use style="stroke:#000000;stroke-width:0.5;" x="268.448753608" xlink:href="#m86b9119288" y="3.0"/>
      </g>
     </g>
    </g>
    <g id="xtick_15">
     <g id="line2d_41">
      <g>
       <use style="stroke:#000000;stroke-width:0.5;" x="334.846808362" xlink:href="#m7f9f94d50d" y="384.0"/>
      </g>
     </g>
     <g id="line2d_42">
      <g>
       <use style="stroke:#000000;stroke-width:0.5;" x="334.846808362" xlink:href="#m86b9119288" y="3.0"/>
      </g>
     </g>
    </g>
    <g id="xtick_16">
     <g id="line2d_43">
      <g>
       <use style="stroke:#000000;stroke-width:0.5;" x="401.244863116" xlink:href="#m7f9f94d50d" y="384.0"/>
      </g>
     </g>
     <g id="line2d_44">
      <g>
       <use style="stroke:#000000;stroke-width:0.5;" x="401.244863116" xlink:href="#m86b9119288" y="3.0"/>
      </g>
     </g>
    </g>
    <g id="xtick_17">
     <g id="line2d_45">
      <g>
       <use style="stroke:#000000;stroke-width:0.5;" x="467.642917869" xlink:href="#m7f9f94d50d" y="384.0"/>
      </g>
     </g>
     <g id="line2d_46">
      <g>
       <use style="stroke:#000000;stroke-width:0.5;" x="467.642917869" xlink:href="#m86b9119288" y="3.0"/>
      </g>
     </g>
    </g>
    <g id="xtick_18">
     <g id="line2d_47">
      <g>
       <use style="stroke:#000000;stroke-width:0.5;" x="534.040972623" xlink:href="#m7f9f94d50d" y="384.0"/>
      </g>
     </g>
     <g id="line2d_48">
      <g>
       <use style="stroke:#000000;stroke-width:0.5;" x="534.040972623" xlink:href="#m86b9119288" y="3.0"/>
      </g>
     </g>
    </g>
    <g id="text_9">
     <!-- log10 of Df -->
     <defs>
      <path id="BitstreamVeraSans-Roman-20"/>
      <path d="M 12.40625 8.296875 
L 28.515625 8.296875 
L 28.515625 63.921875 
L 10.984375 60.40625 
L 10.984375 69.390625 
L 28.421875 72.90625 
L 38.28125 72.90625 
L 38.28125 8.296875 
L 54.390625 8.296875 
L 54.390625 0 
L 12.40625 0 
z
" id="BitstreamVeraSans-Roman-31"/>
      <path d="M 30.609375 48.390625 
Q 23.390625 48.390625 19.1875 42.75 
Q 14.984375 37.109375 14.984375 27.296875 
Q 14.984375 17.484375 19.15625 11.84375 
Q 23.34375 6.203125 30.609375 6.203125 
Q 37.796875 6.203125 41.984375 11.859375 
Q 46.1875 17.53125 46.1875 27.296875 
Q 46.1875 37.015625 41.984375 42.703125 
Q 37.796875 48.390625 30.609375 48.390625 
M 30.609375 56 
Q 42.328125 56 49.015625 48.375 
Q 55.71875 40.765625 55.71875 27.296875 
Q 55.71875 13.875 49.015625 6.21875 
Q 42.328125 -1.421875 30.609375 -1.421875 
Q 18.84375 -1.421875 12.171875 6.21875 
Q 5.515625 13.875 5.515625 27.296875 
Q 5.515625 40.765625 12.171875 48.375 
Q 18.84375 56 30.609375 56 
" id="BitstreamVeraSans-Roman-6f"/>
      <path d="M 9.421875 75.984375 
L 18.40625 75.984375 
L 18.40625 0 
L 9.421875 0 
z
" id="BitstreamVeraSans-Roman-6c"/>
      <path d="M 19.671875 64.796875 
L 19.671875 8.109375 
L 31.59375 8.109375 
Q 46.6875 8.109375 53.6875 14.9375 
Q 60.6875 21.78125 60.6875 36.53125 
Q 60.6875 51.171875 53.6875 57.984375 
Q 46.6875 64.796875 31.59375 64.796875 
z
M 9.8125 72.90625 
L 30.078125 72.90625 
Q 51.265625 72.90625 61.171875 64.09375 
Q 71.09375 55.28125 71.09375 36.53125 
Q 71.09375 17.671875 61.125 8.828125 
Q 51.171875 0 30.078125 0 
L 9.8125 0 
z
" id="BitstreamVeraSans-Roman-44"/>
      <path d="M 45.40625 27.984375 
Q 45.40625 37.75 41.375 43.109375 
Q 37.359375 48.484375 30.078125 48.484375 
Q 22.859375 48.484375 18.828125 43.109375 
Q 14.796875 37.75 14.796875 27.984375 
Q 14.796875 18.265625 18.828125 12.890625 
Q 22.859375 7.515625 30.078125 7.515625 
Q 37.359375 7.515625 41.375 12.890625 
Q 45.40625 18.265625 45.40625 27.984375 
M 54.390625 6.78125 
Q 54.390625 -7.171875 48.1875 -13.984375 
Q 42 -20.796875 29.203125 -20.796875 
Q 24.46875 -20.796875 20.265625 -20.09375 
Q 16.0625 -19.390625 12.109375 -17.921875 
L 12.109375 -9.1875 
Q 16.0625 -11.328125 19.921875 -12.34375 
Q 23.78125 -13.375 27.78125 -13.375 
Q 36.625 -13.375 41.015625 -8.765625 
Q 45.40625 -4.15625 45.40625 5.171875 
L 45.40625 9.625 
Q 42.625 4.78125 38.28125 2.390625 
Q 33.9375 0 27.875 0 
Q 17.828125 0 11.671875 7.65625 
Q 5.515625 15.328125 5.515625 27.984375 
Q 5.515625 40.671875 11.671875 48.328125 
Q 17.828125 56 27.875 56 
Q 33.9375 56 38.28125 53.609375 
Q 42.625 51.21875 45.40625 46.390625 
L 45.40625 54.6875 
L 54.390625 54.6875 
z
" id="BitstreamVeraSans-Roman-67"/>
      <path d="M 37.109375 75.984375 
L 37.109375 68.5 
L 28.515625 68.5 
Q 23.6875 68.5 21.796875 66.546875 
Q 19.921875 64.59375 19.921875 59.515625 
L 19.921875 54.6875 
L 34.71875 54.6875 
L 34.71875 47.703125 
L 19.921875 47.703125 
L 19.921875 0 
L 10.890625 0 
L 10.890625 47.703125 
L 2.296875 47.703125 
L 2.296875 54.6875 
L 10.890625 54.6875 
L 10.890625 58.5 
Q 10.890625 67.625 15.140625 71.796875 
Q 19.390625 75.984375 28.609375 75.984375 
z
" id="BitstreamVeraSans-Roman-66"/>
     </defs>
     <g transform="translate(229.9340625 427.553125)scale(0.2 -0.2)">
      <use xlink:href="#BitstreamVeraSans-Roman-6c"/>
      <use x="27.783203125" xlink:href="#BitstreamVeraSans-Roman-6f"/>
      <use x="88.96484375" xlink:href="#BitstreamVeraSans-Roman-67"/>
      <use x="152.44140625" xlink:href="#BitstreamVeraSans-Roman-31"/>
      <use x="216.064453125" xlink:href="#BitstreamVeraSans-Roman-30"/>
      <use x="279.6875" xlink:href="#BitstreamVeraSans-Roman-20"/>
      <use x="311.474609375" xlink:href="#BitstreamVeraSans-Roman-6f"/>
      <use x="372.65625" xlink:href="#BitstreamVeraSans-Roman-66"/>
      <use x="407.861328125" xlink:href="#BitstreamVeraSans-Roman-20"/>
      <use x="439.6484375" xlink:href="#BitstreamVeraSans-Roman-44"/>
      <use x="516.650390625" xlink:href="#BitstreamVeraSans-Roman-66"/>
     </g>
    </g>
   </g>
   <g id="matplotlib.axis_2">
    <g id="ytick_1">
     <g id="line2d_49">
      <path clip-path="url(#p12f2afc61f)" d="M 3 384 
L 567.24 384 
" style="fill:none;stroke:#000000;stroke-dasharray:1.000000,3.000000;stroke-dashoffset:0.0;stroke-width:0.5;"/>
     </g>
     <g id="line2d_50">
      <defs>
       <path d="M 0 0 
L 4 0 
" id="md648341697" style="stroke:#000000;stroke-width:0.5;"/>
      </defs>
      <g>
       <use style="stroke:#000000;stroke-width:0.5;" x="3.0" xlink:href="#md648341697" y="384.0"/>
      </g>
     </g>
     <g id="line2d_51">
      <defs>
       <path d="M 0 0 
L -4 0 
" id="m38d470e002" style="stroke:#000000;stroke-width:0.5;"/>
      </defs>
      <g>
       <use style="stroke:#000000;stroke-width:0.5;" x="567.24" xlink:href="#m38d470e002" y="384.0"/>
      </g>
     </g>
    </g>
    <g id="ytick_2">
     <g id="line2d_52">
      <path clip-path="url(#p12f2afc61f)" d="M 3 308.554455 
L 567.24 308.554455 
" style="fill:none;stroke:#000000;stroke-dasharray:1.000000,3.000000;stroke-dashoffset:0.0;stroke-width:0.5;"/>
     </g>
     <g id="line2d_53">
      <g>
       <use style="stroke:#000000;stroke-width:0.5;" x="3.0" xlink:href="#md648341697" y="308.554455446"/>
      </g>
     </g>
     <g id="line2d_54">
      <g>
       <use style="stroke:#000000;stroke-width:0.5;" x="567.24" xlink:href="#m38d470e002" y="308.554455446"/>
      </g>
     </g>
    </g>
    <g id="ytick_3">
     <g id="line2d_55">
      <path clip-path="url(#p12f2afc61f)" d="M 3 233.108911 
L 567.24 233.108911 
" style="fill:none;stroke:#000000;stroke-dasharray:1.000000,3.000000;stroke-dashoffset:0.0;stroke-width:0.5;"/>
     </g>
     <g id="line2d_56">
      <g>
       <use style="stroke:#000000;stroke-width:0.5;" x="3.0" xlink:href="#md648341697" y="233.108910891"/>
      </g>
     </g>
     <g id="line2d_57">
      <g>
       <use style="stroke:#000000;stroke-width:0.5;" x="567.24" xlink:href="#m38d470e002" y="233.108910891"/>
      </g>
     </g>
    </g>
    <g id="ytick_4">
     <g id="line2d_58">
      <path clip-path="url(#p12f2afc61f)" d="M 3 157.663366 
L 567.24 157.663366 
" style="fill:none;stroke:#000000;stroke-dasharray:1.000000,3.000000;stroke-dashoffset:0.0;stroke-width:0.5;"/>
     </g>
     <g id="line2d_59">
      <g>
       <use style="stroke:#000000;stroke-width:0.5;" x="3.0" xlink:href="#md648341697" y="157.663366337"/>
      </g>
     </g>
     <g id="line2d_60">
      <g>
       <use style="stroke:#000000;stroke-width:0.5;" x="567.24" xlink:href="#m38d470e002" y="157.663366337"/>
      </g>
     </g>
    </g>
    <g id="ytick_5">
     <g id="line2d_61">
      <path clip-path="url(#p12f2afc61f)" d="M 3 82.217822 
L 567.24 82.217822 
" style="fill:none;stroke:#000000;stroke-dasharray:1.000000,3.000000;stroke-dashoffset:0.0;stroke-width:0.5;"/>
     </g>
     <g id="line2d_62">
      <g>
       <use style="stroke:#000000;stroke-width:0.5;" x="3.0" xlink:href="#md648341697" y="82.2178217822"/>
      </g>
     </g>
     <g id="line2d_63">
      <g>
       <use style="stroke:#000000;stroke-width:0.5;" x="567.24" xlink:href="#m38d470e002" y="82.2178217822"/>
      </g>
     </g>
    </g>
    <g id="ytick_6">
     <g id="line2d_64">
      <path clip-path="url(#p12f2afc61f)" d="M 3 6.772277 
L 567.24 6.772277 
" style="fill:none;stroke:#000000;stroke-dasharray:1.000000,3.000000;stroke-dashoffset:0.0;stroke-width:0.5;"/>
     </g>
     <g id="line2d_65">
      <g>
       <use style="stroke:#000000;stroke-width:0.5;" x="3.0" xlink:href="#md648341697" y="6.77227722772"/>
      </g>
     </g>
     <g id="line2d_66">
      <g>
       <use style="stroke:#000000;stroke-width:0.5;" x="567.24" xlink:href="#m38d470e002" y="6.77227722772"/>
      </g>
     </g>
    </g>
   </g>
   <g id="text_10">
    <!-- {f20-f24}, 20-D -->
    <defs>
     <path d="M 12.5 -9.28125 
L 15.921875 -9.28125 
Q 22.75 -9.28125 24.828125 -7.171875 
Q 26.90625 -5.078125 26.90625 1.90625 
L 26.90625 14.015625 
Q 26.90625 21.625 29.09375 25.09375 
Q 31.296875 28.5625 36.71875 29.890625 
Q 31.296875 31.109375 29.09375 34.5625 
Q 26.90625 38.03125 26.90625 45.703125 
L 26.90625 57.8125 
Q 26.90625 64.75 24.828125 66.875 
Q 22.75 69 15.921875 69 
L 12.5 69 
L 12.5 75.984375 
L 15.578125 75.984375 
Q 27.734375 75.984375 31.8125 72.390625 
Q 35.890625 68.796875 35.890625 58.015625 
L 35.890625 46.296875 
Q 35.890625 39.015625 38.515625 36.203125 
Q 41.15625 33.40625 48.09375 33.40625 
L 51.125 33.40625 
L 51.125 26.421875 
L 48.09375 26.421875 
Q 41.15625 26.421875 38.515625 23.578125 
Q 35.890625 20.75 35.890625 13.375 
L 35.890625 1.703125 
Q 35.890625 -9.078125 31.8125 -12.6875 
Q 27.734375 -16.3125 15.578125 -16.3125 
L 12.5 -16.3125 
z
" id="BitstreamVeraSans-Roman-7d"/>
     <path d="M 51.125 -9.28125 
L 51.125 -16.3125 
L 48.09375 -16.3125 
Q 35.9375 -16.3125 31.8125 -12.6875 
Q 27.6875 -9.078125 27.6875 1.703125 
L 27.6875 13.375 
Q 27.6875 20.75 25.046875 23.578125 
Q 22.40625 26.421875 15.484375 26.421875 
L 12.5 26.421875 
L 12.5 33.40625 
L 15.484375 33.40625 
Q 22.46875 33.40625 25.078125 36.203125 
Q 27.6875 39.015625 27.6875 46.296875 
L 27.6875 58.015625 
Q 27.6875 68.796875 31.8125 72.390625 
Q 35.9375 75.984375 48.09375 75.984375 
L 51.125 75.984375 
L 51.125 69 
L 47.796875 69 
Q 40.921875 69 38.8125 66.84375 
Q 36.71875 64.703125 36.71875 57.8125 
L 36.71875 45.703125 
Q 36.71875 38.03125 34.5 34.5625 
Q 32.28125 31.109375 26.90625 29.890625 
Q 32.328125 28.5625 34.515625 25.09375 
Q 36.71875 21.625 36.71875 14.015625 
L 36.71875 1.90625 
Q 36.71875 -4.984375 38.8125 -7.125 
Q 40.921875 -9.28125 47.796875 -9.28125 
z
" id="BitstreamVeraSans-Roman-7b"/>
     <path d="M 11.71875 12.40625 
L 22.015625 12.40625 
L 22.015625 4 
L 14.015625 -11.625 
L 7.71875 -11.625 
L 11.71875 4 
z
" id="BitstreamVeraSans-Roman-2c"/>
    </defs>
    <g transform="translate(397.5302 376.38)scale(0.2 -0.2)">
     <use xlink:href="#BitstreamVeraSans-Roman-7b"/>
     <use x="63.623046875" xlink:href="#BitstreamVeraSans-Roman-66"/>
     <use x="98.828125" xlink:href="#BitstreamVeraSans-Roman-32"/>
     <use x="162.451171875" xlink:href="#BitstreamVeraSans-Roman-30"/>
     <use x="226.07421875" xlink:href="#BitstreamVeraSans-Roman-2d"/>
     <use x="262.158203125" xlink:href="#BitstreamVeraSans-Roman-66"/>
     <use x="297.36328125" xlink:href="#BitstreamVeraSans-Roman-32"/>
     <use x="360.986328125" xlink:href="#BitstreamVeraSans-Roman-34"/>
     <use x="424.609375" xlink:href="#BitstreamVeraSans-Roman-7d"/>
     <use x="488.232421875" xlink:href="#BitstreamVeraSans-Roman-2c"/>
     <use x="520.01953125" xlink:href="#BitstreamVeraSans-Roman-20"/>
     <use x="551.806640625" xlink:href="#BitstreamVeraSans-Roman-32"/>
     <use x="615.4296875" xlink:href="#BitstreamVeraSans-Roman-30"/>
     <use x="679.052734375" xlink:href="#BitstreamVeraSans-Roman-2d"/>
     <use x="715.13671875" xlink:href="#BitstreamVeraSans-Roman-44"/>
    </g>
   </g>
   <g id="text_11">
    <!-- v2.2.1.10 -->
    <defs>
     <path d="M 2.984375 54.6875 
L 12.5 54.6875 
L 29.59375 8.796875 
L 46.6875 54.6875 
L 56.203125 54.6875 
L 35.6875 0 
L 23.484375 0 
z
" id="BitstreamVeraSans-Roman-76"/>
     <path d="M 10.6875 12.40625 
L 21 12.40625 
L 21 0 
L 10.6875 0 
z
" id="BitstreamVeraSans-Roman-2e"/>
    </defs>
    <g style="fill:#808080;" transform="translate(261.4871875 378.1103125)scale(0.1 -0.1)">
     <use xlink:href="#BitstreamVeraSans-Roman-76"/>
     <use x="59.1796875" xlink:href="#BitstreamVeraSans-Roman-32"/>
     <use x="122.802734375" xlink:href="#BitstreamVeraSans-Roman-2e"/>
     <use x="154.58984375" xlink:href="#BitstreamVeraSans-Roman-32"/>
     <use x="218.212890625" xlink:href="#BitstreamVeraSans-Roman-2e"/>
     <use x="250.0" xlink:href="#BitstreamVeraSans-Roman-31"/>
     <use x="313.623046875" xlink:href="#BitstreamVeraSans-Roman-2e"/>
     <use x="345.41015625" xlink:href="#BitstreamVeraSans-Roman-31"/>
     <use x="409.033203125" xlink:href="#BitstreamVeraSans-Roman-30"/>
    </g>
   </g>
  </g>
 </g>
 <defs>
  <clipPath id="p12f2afc61f">
   <rect height="381.0" width="564.24" x="3.0" y="3.0"/>
  </clipPath>
 </defs>
</svg>
