<?xml version="1.0" encoding="utf-8" standalone="no"?>
<!DOCTYPE svg PUBLIC "-//W3C//DTD SVG 1.1//EN"
  "http://www.w3.org/Graphics/SVG/1.1/DTD/svg11.dtd">
<!-- Created with matplotlib (http://matplotlib.org/) -->
<svg height="432pt" version="1.1" viewBox="0 0 576 432" width="576pt" xmlns="http://www.w3.org/2000/svg" xmlns:xlink="http://www.w3.org/1999/xlink">
 <defs>
  <style type="text/css">
*{stroke-linecap:butt;stroke-linejoin:round;stroke-miterlimit:100000;}
  </style>
 </defs>
 <g id="figure_1">
  <g id="patch_1">
   <path d="M 0 432 
L 576 432 
L 576 0 
L 0 0 
z
" style="fill:#ffffff;"/>
  </g>
  <g id="axes_1">
   <g id="patch_2">
    <path d="M 3 384 
L 567.24 384 
L 567.24 3 
L 3 3 
z
" style="fill:#ffffff;"/>
   </g>
   <g id="line2d_1">
    <path clip-path="url(#pa76c6657f0)" d="M 276.953085 384 
L 276.953085 378.970297 
L 279.869436 378.970297 
L 279.869436 373.940594 
L 280.735613 373.940594 
L 280.735613 368.910891 
L 281.876346 368.910891 
L 281.876346 363.881188 
L 282.430527 363.881188 
L 282.430527 358.851485 
L 282.857396 358.851485 
L 282.857396 353.821782 
L 283.390408 353.821782 
L 283.390408 348.792079 
L 283.69933 348.792079 
L 283.69933 343.762376 
L 284.125767 343.762376 
L 284.125767 338.732673 
L 285.505869 338.732673 
L 285.571707 328.673267 
L 286.283687 328.673267 
L 286.283687 323.643564 
L 286.941295 323.643564 
L 287.047994 313.584158 
L 287.109121 313.584158 
L 287.109121 308.554455 
L 336.750714 308.554455 
L 336.750714 303.524752 
L 338.017169 303.524752 
L 338.017169 298.49505 
L 338.557743 298.49505 
L 338.557743 293.465347 
L 339.3308 293.465347 
L 339.3308 288.435644 
L 339.587185 288.435644 
L 339.587185 283.405941 
L 339.979036 283.405941 
L 339.979036 278.376238 
L 340.319141 278.376238 
L 340.330308 268.316832 
L 340.546453 268.316832 
L 340.546453 263.287129 
L 340.678435 263.287129 
L 340.716953 253.227723 
L 341.340537 253.227723 
L 341.340537 248.19802 
L 343.22937 248.19802 
L 343.22937 243.168317 
L 343.518832 243.168317 
L 343.518832 238.138614 
L 343.766282 238.138614 
L 343.845054 228.079208 
L 345.426189 228.079208 
L 345.517588 218.019802 
L 346.104156 218.019802 
L 346.104156 212.990099 
L 346.359035 212.990099 
L 346.359035 207.960396 
L 346.881271 207.960396 
L 346.881271 202.930693 
L 347.417016 202.930693 
L 347.417016 197.90099 
L 347.771426 197.90099 
L 347.771426 192.871287 
L 347.947325 192.871287 
L 347.947325 187.841584 
L 348.060672 187.841584 
L 348.060672 182.811881 
L 348.40397 182.811881 
L 348.40397 177.782178 
L 348.903831 177.782178 
L 348.912183 167.722772 
L 349.280998 167.722772 
L 349.382087 157.663366 
L 409.739493 157.663366 
L 409.739493 152.633663 
L 419.415262 152.633663 
L 419.415262 147.60396 
L 430.697689 147.60396 
L 430.697689 142.574257 
L 437.084373 142.574257 
L 437.084373 137.544554 
L 438.93946 137.544554 
L 438.93946 132.514851 
L 440.263463 132.514851 
L 440.263463 127.485149 
L 445.451753 127.485149 
L 445.451753 122.455446 
L 446.541457 122.455446 
L 446.541457 117.425743 
L 446.792569 117.425743 
L 446.792569 112.39604 
L 447.352348 112.39604 
L 447.352348 107.366337 
L 447.585641 107.366337 
L 447.650175 97.306931 
L 448.899174 97.306931 
L 448.899174 92.277228 
L 449.777812 92.277228 
L 449.777812 87.247525 
L 450.124638 87.247525 
L 450.124638 82.217822 
L 450.553384 82.217822 
L 450.595145 72.158416 
L 450.757481 72.158416 
L 450.757481 67.128713 
L 453.104513 67.128713 
L 453.104513 62.09901 
L 484.749615 62.09901 
L 484.749615 57.069307 
L 492.83439 57.069307 
L 492.83439 52.039604 
L 499.985442 52.039604 
L 499.985442 47.009901 
L 508.562297 47.009901 
L 508.562297 41.980198 
L 509.432116 41.980198 
L 509.432116 36.950495 
L 519.502948 36.950495 
L 519.502948 31.920792 
L 520.817207 31.920792 
L 520.817207 26.891089 
L 524.41654 26.891089 
L 524.41654 21.861386 
L 525.732674 21.861386 
L 525.732674 16.831683 
L 527.212086 16.831683 
L 527.212086 11.80198 
L 527.341655 11.80198 
L 527.341655 6.772277 
L 527.341655 6.772277 
L 567.24 6.772277 
L 567.24 6.772277 
" style="fill:none;stroke:#ff0000;stroke-linecap:square;stroke-width:3.0;"/>
   </g>
   <g id="line2d_2">
    <path clip-path="url(#pa76c6657f0)" d="M 309.228281 384 
L 309.228281 378.970297 
L 314.395033 378.970297 
L 314.395033 373.940594 
L 319.074495 373.940594 
L 319.074495 368.910891 
L 320.020022 368.910891 
L 320.020022 363.881188 
L 320.434618 363.881188 
L 320.434618 358.851485 
L 321.371417 358.851485 
L 321.371417 353.821782 
L 324.218407 353.821782 
L 324.218407 348.792079 
L 325.083084 348.792079 
L 325.083084 343.762376 
L 325.287478 343.762376 
L 325.287478 338.732673 
L 325.411454 338.732673 
L 325.411454 333.70297 
L 325.631939 333.70297 
L 325.631939 328.673267 
L 325.809864 328.673267 
L 325.809864 323.643564 
L 326.085601 323.643564 
L 326.085601 318.613861 
L 329.940059 318.613861 
L 329.940059 313.584158 
L 330.6858 313.584158 
L 330.6858 308.554455 
L 364.130363 308.554455 
L 364.130363 303.524752 
L 373.635006 303.524752 
L 373.635006 298.49505 
L 376.127589 298.49505 
L 376.127589 293.465347 
L 376.310563 293.465347 
L 376.310563 288.435644 
L 377.498295 288.435644 
L 377.498295 283.405941 
L 378.173625 283.405941 
L 378.173625 278.376238 
L 378.292563 278.376238 
L 378.292563 273.346535 
L 378.52216 273.346535 
L 378.52216 268.316832 
L 379.418346 268.316832 
L 379.470775 253.227723 
L 379.974304 253.227723 
L 379.974304 248.19802 
L 380.667408 248.19802 
L 380.667408 243.168317 
L 380.963681 243.168317 
L 381.014623 233.108911 
L 382.149581 233.108911 
L 382.149581 228.079208 
L 405.544556 228.079208 
L 405.544556 223.049505 
L 417.337477 223.049505 
L 417.337477 218.019802 
L 423.898478 218.019802 
L 423.898478 212.990099 
L 424.212473 212.990099 
L 424.212473 207.960396 
L 426.726689 207.960396 
L 426.726689 202.930693 
L 435.671504 202.930693 
L 435.671504 197.90099 
L 436.326248 197.90099 
L 436.326248 192.871287 
L 436.829039 192.871287 
L 436.829039 187.841584 
L 437.413833 187.841584 
L 437.413833 182.811881 
L 440.574235 182.811881 
L 440.574235 177.782178 
L 453.505165 177.782178 
L 453.505165 172.752475 
L 457.289126 172.752475 
L 457.289126 167.722772 
L 460.132038 167.722772 
L 460.132038 162.693069 
L 473.268457 162.693069 
L 473.268457 157.663366 
L 477.051138 157.663366 
L 477.051138 152.633663 
L 477.521722 152.633663 
L 477.521722 147.60396 
L 479.714707 147.60396 
L 479.714707 142.574257 
L 482.661424 142.574257 
L 482.661424 137.544554 
L 484.142376 137.544554 
L 484.142376 132.514851 
L 484.65979 132.514851 
L 484.65979 127.485149 
L 485.743704 127.485149 
L 485.743704 122.455446 
L 485.939534 122.455446 
L 485.939534 117.425743 
L 486.235022 117.425743 
L 486.235022 112.39604 
L 486.856487 112.39604 
L 486.856487 107.366337 
L 489.595791 107.366337 
L 489.595791 102.336634 
L 492.401981 102.336634 
L 492.401981 97.306931 
L 496.388413 97.306931 
L 496.388413 92.277228 
L 499.836338 92.277228 
L 499.836338 87.247525 
L 500.09529 87.247525 
L 500.09529 82.217822 
L 532.685231 82.217822 
L 532.685231 77.188119 
L 533.404663 77.188119 
L 533.404663 72.158416 
L 541.07791 72.158416 
L 541.07791 67.128713 
L 541.372373 67.128713 
L 541.372373 62.09901 
L 542.328417 62.09901 
L 542.328417 57.069307 
L 542.56367 57.069307 
L 542.56367 52.039604 
L 544.337257 52.039604 
L 544.337257 47.009901 
L 548.287726 47.009901 
L 548.287726 41.980198 
L 548.805488 41.980198 
L 548.805488 36.950495 
L 549.18751 36.950495 
L 549.18751 31.920792 
L 551.353594 31.920792 
L 551.353594 26.891089 
L 551.692279 26.891089 
L 551.692279 21.861386 
L 556.177711 21.861386 
L 556.177711 16.831683 
L 558.058345 16.831683 
L 558.058345 11.80198 
L 560.110002 11.80198 
L 560.110002 6.772277 
L 560.110002 6.772277 
L 567.24 6.772277 
L 567.24 6.772277 
" style="fill:none;stroke:#00bfbf;stroke-linecap:square;"/>
   </g>
   <g id="line2d_3">
    <path clip-path="url(#pa76c6657f0)" d="M 309.228281 384 
L 309.228281 378.970297 
L 314.395033 378.970297 
L 314.395033 373.940594 
L 319.074495 373.940594 
L 319.074495 368.910891 
L 320.020022 368.910891 
L 320.020022 363.881188 
L 320.434618 363.881188 
L 320.434618 358.851485 
L 321.371417 358.851485 
L 321.371417 353.821782 
L 324.218407 353.821782 
L 324.218407 348.792079 
L 325.083084 348.792079 
L 325.083084 343.762376 
L 325.241398 343.762376 
L 325.241398 338.732673 
L 325.411454 338.732673 
L 325.411454 333.70297 
L 325.631939 333.70297 
L 325.631939 328.673267 
L 325.809864 328.673267 
L 325.809864 323.643564 
L 326.085601 323.643564 
L 326.085601 318.613861 
L 329.940059 318.613861 
L 329.940059 313.584158 
L 330.6858 313.584158 
L 330.6858 308.554455 
L 348.850211 308.554455 
L 348.850211 303.524752 
L 364.130363 303.524752 
L 364.130363 298.49505 
L 373.635006 298.49505 
L 373.635006 293.465347 
L 376.127589 293.465347 
L 376.127589 288.435644 
L 376.310563 288.435644 
L 376.310563 283.405941 
L 377.498295 283.405941 
L 377.498295 278.376238 
L 378.173625 278.376238 
L 378.173625 273.346535 
L 378.292563 273.346535 
L 378.340412 263.287129 
L 378.52216 263.287129 
L 378.52216 258.257426 
L 379.22761 258.257426 
L 379.22761 253.227723 
L 379.418346 253.227723 
L 379.470775 238.138614 
L 379.974304 238.138614 
L 379.974304 233.108911 
L 380.667408 233.108911 
L 380.667408 228.079208 
L 382.149581 228.079208 
L 382.149581 223.049505 
L 405.544556 223.049505 
L 405.544556 218.019802 
L 417.337477 218.019802 
L 417.337477 212.990099 
L 423.898478 212.990099 
L 423.898478 207.960396 
L 426.726689 207.960396 
L 426.726689 202.930693 
L 430.441537 202.930693 
L 430.441537 197.90099 
L 430.93497 197.90099 
L 430.93497 192.871287 
L 436.251663 192.871287 
L 436.251663 187.841584 
L 437.413833 187.841584 
L 437.413833 182.811881 
L 440.574235 182.811881 
L 440.574235 177.782178 
L 453.505165 177.782178 
L 453.505165 172.752475 
L 457.289126 172.752475 
L 457.289126 167.722772 
L 460.132038 167.722772 
L 460.132038 162.693069 
L 464.181643 162.693069 
L 464.181643 157.663366 
L 473.268457 157.663366 
L 473.268457 152.633663 
L 476.199073 152.633663 
L 476.199073 147.60396 
L 477.051138 147.60396 
L 477.051138 142.574257 
L 477.521722 142.574257 
L 477.521722 137.544554 
L 479.545269 137.544554 
L 479.545269 132.514851 
L 479.714707 132.514851 
L 479.714707 127.485149 
L 482.661424 127.485149 
L 482.661424 122.455446 
L 484.142376 122.455446 
L 484.142376 117.425743 
L 484.65979 117.425743 
L 484.65979 112.39604 
L 485.743704 112.39604 
L 485.743704 107.366337 
L 485.939534 107.366337 
L 485.939534 102.336634 
L 486.941442 102.336634 
L 486.941442 97.306931 
L 488.615224 97.306931 
L 488.615224 92.277228 
L 496.388413 92.277228 
L 496.388413 87.247525 
L 500.09529 87.247525 
L 500.09529 82.217822 
L 532.685231 82.217822 
L 532.685231 77.188119 
L 533.404663 77.188119 
L 533.404663 72.158416 
L 541.07791 72.158416 
L 541.07791 67.128713 
L 541.372373 67.128713 
L 541.372373 62.09901 
L 542.328417 62.09901 
L 542.328417 57.069307 
L 542.56367 57.069307 
L 542.56367 52.039604 
L 544.337257 52.039604 
L 544.337257 47.009901 
L 546.97566 47.009901 
L 546.97566 41.980198 
L 547.09993 41.980198 
L 547.09993 36.950495 
L 548.287726 36.950495 
L 548.287726 31.920792 
L 549.18751 31.920792 
L 549.18751 26.891089 
L 550.275795 26.891089 
L 550.275795 21.861386 
L 556.177711 21.861386 
L 556.177711 16.831683 
L 558.058345 16.831683 
L 558.058345 11.80198 
L 560.110002 11.80198 
L 560.110002 6.772277 
L 560.110002 6.772277 
L 567.24 6.772277 
L 567.24 6.772277 
" style="fill:none;stroke:#bf00bf;stroke-linecap:square;"/>
   </g>
   <g id="line2d_4">
    <path clip-path="url(#pa76c6657f0)" d="M 309.228281 384 
L 309.228281 378.970297 
L 314.395033 378.970297 
L 314.395033 373.940594 
L 319.074495 373.940594 
L 319.074495 368.910891 
L 320.020022 368.910891 
L 320.020022 363.881188 
L 320.434618 363.881188 
L 320.434618 358.851485 
L 321.371417 358.851485 
L 321.371417 353.821782 
L 324.218407 353.821782 
L 324.218407 348.792079 
L 325.083084 348.792079 
L 325.083084 343.762376 
L 325.241398 343.762376 
L 325.241398 338.732673 
L 325.411454 338.732673 
L 325.411454 333.70297 
L 325.631939 333.70297 
L 325.631939 328.673267 
L 325.809864 328.673267 
L 325.809864 323.643564 
L 326.085601 323.643564 
L 326.085601 318.613861 
L 329.940059 318.613861 
L 329.940059 313.584158 
L 330.6858 313.584158 
L 330.6858 308.554455 
L 348.850211 308.554455 
L 348.850211 303.524752 
L 364.130363 303.524752 
L 364.130363 298.49505 
L 373.635006 298.49505 
L 373.635006 293.465347 
L 376.127589 293.465347 
L 376.127589 288.435644 
L 376.310563 288.435644 
L 376.310563 283.405941 
L 377.498295 283.405941 
L 377.498295 278.376238 
L 378.173625 278.376238 
L 378.173625 273.346535 
L 378.292563 273.346535 
L 378.340412 263.287129 
L 378.52216 263.287129 
L 378.52216 258.257426 
L 379.22761 258.257426 
L 379.22761 253.227723 
L 379.418346 253.227723 
L 379.470775 238.138614 
L 379.974304 238.138614 
L 379.974304 233.108911 
L 380.667408 233.108911 
L 380.667408 228.079208 
L 382.149581 228.079208 
L 382.149581 223.049505 
L 405.544556 223.049505 
L 405.544556 218.019802 
L 417.337477 218.019802 
L 417.337477 212.990099 
L 423.898478 212.990099 
L 423.898478 207.960396 
L 426.726689 207.960396 
L 426.726689 202.930693 
L 430.441537 202.930693 
L 430.441537 197.90099 
L 430.93497 197.90099 
L 430.93497 192.871287 
L 436.251663 192.871287 
L 436.251663 187.841584 
L 437.413833 187.841584 
L 437.413833 182.811881 
L 440.574235 182.811881 
L 440.574235 177.782178 
L 453.505165 177.782178 
L 453.505165 172.752475 
L 457.289126 172.752475 
L 457.289126 167.722772 
L 460.132038 167.722772 
L 460.132038 162.693069 
L 464.181643 162.693069 
L 464.181643 157.663366 
L 473.268457 157.663366 
L 473.268457 152.633663 
L 476.199073 152.633663 
L 476.199073 147.60396 
L 477.051138 147.60396 
L 477.051138 142.574257 
L 477.521722 142.574257 
L 477.521722 137.544554 
L 479.545269 137.544554 
L 479.545269 132.514851 
L 479.714707 132.514851 
L 479.714707 127.485149 
L 482.661424 127.485149 
L 482.661424 122.455446 
L 484.142376 122.455446 
L 484.142376 117.425743 
L 484.65979 117.425743 
L 484.65979 112.39604 
L 485.743704 112.39604 
L 485.743704 107.366337 
L 485.939534 107.366337 
L 485.939534 102.336634 
L 486.941442 102.336634 
L 486.941442 97.306931 
L 488.615224 97.306931 
L 488.615224 92.277228 
L 496.388413 92.277228 
L 496.388413 87.247525 
L 500.09529 87.247525 
L 500.09529 82.217822 
L 532.685231 82.217822 
L 532.685231 77.188119 
L 533.404663 77.188119 
L 533.404663 72.158416 
L 541.07791 72.158416 
L 541.07791 67.128713 
L 541.372373 67.128713 
L 541.372373 62.09901 
L 542.328417 62.09901 
L 542.328417 57.069307 
L 542.56367 57.069307 
L 542.56367 52.039604 
L 544.337257 52.039604 
L 544.337257 47.009901 
L 546.97566 47.009901 
L 546.97566 41.980198 
L 547.09993 41.980198 
L 547.09993 36.950495 
L 548.287726 36.950495 
L 548.287726 31.920792 
L 549.18751 31.920792 
L 549.18751 26.891089 
L 550.275795 26.891089 
L 550.275795 21.861386 
L 556.177711 21.861386 
L 556.177711 16.831683 
L 558.058345 16.831683 
L 558.058345 11.80198 
L 560.110002 11.80198 
L 560.110002 6.772277 
L 560.110002 6.772277 
L 567.24 6.772277 
L 567.24 6.772277 
" style="fill:none;stroke:#000000;stroke-linecap:square;"/>
   </g>
   <g id="line2d_5">
    <path clip-path="url(#pa76c6657f0)" d="M 309.228281 384 
L 309.228281 378.970297 
L 312.932291 378.970297 
L 312.932291 373.940594 
L 314.395033 373.940594 
L 314.395033 368.910891 
L 314.939558 368.910891 
L 314.939558 363.881188 
L 318.141669 363.881188 
L 318.160668 353.821782 
L 318.416471 353.821782 
L 318.416471 348.792079 
L 320.020022 348.792079 
L 320.020022 343.762376 
L 320.434618 343.762376 
L 320.434618 338.732673 
L 323.323491 338.732673 
L 323.323491 333.70297 
L 324.023558 333.70297 
L 324.023558 328.673267 
L 324.218407 328.673267 
L 324.218407 323.643564 
L 325.411454 323.643564 
L 325.411454 318.613861 
L 325.809864 318.613861 
L 325.809864 313.584158 
L 326.085601 313.584158 
L 326.085601 308.554455 
L 348.850211 308.554455 
L 348.850211 303.524752 
L 355.875564 303.524752 
L 355.875564 298.49505 
L 356.727183 298.49505 
L 356.727183 293.465347 
L 364.130363 293.465347 
L 364.130363 288.435644 
L 364.43458 288.435644 
L 364.43458 283.405941 
L 370.699521 283.405941 
L 370.699521 278.376238 
L 371.731625 278.376238 
L 371.731625 273.346535 
L 372.342202 273.346535 
L 372.342202 268.316832 
L 372.466786 268.316832 
L 372.466786 263.287129 
L 372.917426 263.287129 
L 372.917426 258.257426 
L 373.066208 258.257426 
L 373.066208 253.227723 
L 373.583709 253.227723 
L 373.583709 248.19802 
L 373.780916 248.19802 
L 373.87137 238.138614 
L 374.171427 238.138614 
L 374.171427 233.108911 
L 374.704518 233.108911 
L 374.739033 223.049505 
L 376.98388 223.049505 
L 376.98388 218.019802 
L 405.544556 218.019802 
L 405.544556 212.990099 
L 406.89434 212.990099 
L 406.89434 207.960396 
L 417.337477 207.960396 
L 417.337477 202.930693 
L 420.479593 202.930693 
L 420.479593 197.90099 
L 426.726689 197.90099 
L 426.726689 192.871287 
L 429.457809 192.871287 
L 429.457809 187.841584 
L 430.441537 187.841584 
L 430.441537 182.811881 
L 430.707188 182.811881 
L 430.707188 177.782178 
L 430.93497 177.782178 
L 430.93497 172.752475 
L 436.251663 172.752475 
L 436.251663 167.722772 
L 437.683051 167.722772 
L 437.683051 162.693069 
L 457.289126 162.693069 
L 457.289126 157.663366 
L 464.181643 157.663366 
L 464.181643 152.633663 
L 473.268457 152.633663 
L 473.268457 147.60396 
L 475.835017 147.60396 
L 475.835017 142.574257 
L 476.199073 142.574257 
L 476.199073 137.544554 
L 477.022362 137.544554 
L 477.022362 132.514851 
L 477.420513 132.514851 
L 477.420513 127.485149 
L 479.175147 127.485149 
L 479.175147 122.455446 
L 479.545269 122.455446 
L 479.545269 117.425743 
L 479.714707 117.425743 
L 479.714707 112.39604 
L 482.661424 112.39604 
L 482.661424 107.366337 
L 484.142376 107.366337 
L 484.142376 102.336634 
L 484.65979 102.336634 
L 484.65979 97.306931 
L 488.615224 97.306931 
L 488.615224 92.277228 
L 491.833037 92.277228 
L 491.833037 87.247525 
L 500.09529 87.247525 
L 500.09529 82.217822 
L 532.685231 82.217822 
L 532.685231 77.188119 
L 533.404663 77.188119 
L 533.404663 72.158416 
L 538.599032 72.158416 
L 538.599032 67.128713 
L 541.07791 67.128713 
L 541.07791 62.09901 
L 541.372373 62.09901 
L 541.372373 57.069307 
L 542.328417 57.069307 
L 542.328417 52.039604 
L 542.56367 52.039604 
L 542.56367 47.009901 
L 543.957779 47.009901 
L 543.957779 41.980198 
L 544.701765 41.980198 
L 544.701765 36.950495 
L 546.97566 36.950495 
L 546.97566 31.920792 
L 547.09993 31.920792 
L 547.09993 26.891089 
L 548.011667 26.891089 
L 548.011667 21.861386 
L 550.275795 21.861386 
L 550.275795 16.831683 
L 556.177711 16.831683 
L 556.177711 11.80198 
L 560.110002 11.80198 
L 560.110002 6.772277 
L 560.110002 6.772277 
L 567.24 6.772277 
L 567.24 6.772277 
" style="fill:none;stroke:#00bfbf;stroke-linecap:square;"/>
   </g>
   <g id="line2d_6">
    <path clip-path="url(#pa76c6657f0)" d="M 308.289247 384 
L 308.289247 378.970297 
L 309.228281 378.970297 
L 309.228281 373.940594 
L 310.11594 373.940594 
L 310.11594 368.910891 
L 312.932291 368.910891 
L 312.932291 363.881188 
L 313.761558 363.881188 
L 313.761558 358.851485 
L 314.445929 358.851485 
L 314.445929 353.821782 
L 314.699635 353.821782 
L 314.699635 348.792079 
L 316.222689 348.792079 
L 316.222689 343.762376 
L 318.160668 343.762376 
L 318.160668 338.732673 
L 319.782423 338.732673 
L 319.884919 328.673267 
L 320.046815 328.673267 
L 320.046815 323.643564 
L 320.223896 323.643564 
L 320.223896 318.613861 
L 321.959692 318.613861 
L 321.959692 313.584158 
L 324.910664 313.584158 
L 324.910664 308.554455 
L 347.381309 308.554455 
L 347.381309 303.524752 
L 348.903949 303.524752 
L 348.903949 298.49505 
L 350.566439 298.49505 
L 350.566439 293.465347 
L 352.356899 293.465347 
L 352.356899 288.435644 
L 354.953074 288.435644 
L 354.953074 283.405941 
L 355.875564 283.405941 
L 355.875564 278.376238 
L 356.727183 278.376238 
L 356.727183 273.346535 
L 359.380554 273.346535 
L 359.380554 268.316832 
L 360.56144 268.316832 
L 360.56144 263.287129 
L 361.480057 263.287129 
L 361.545508 248.19802 
L 362.448374 248.19802 
L 362.448374 243.168317 
L 363.474141 243.168317 
L 363.474141 238.138614 
L 364.43458 238.138614 
L 364.536909 228.079208 
L 365.249271 228.079208 
L 365.249271 223.049505 
L 366.140028 223.049505 
L 366.140028 218.019802 
L 367.172196 218.019802 
L 367.172196 212.990099 
L 369.861445 212.990099 
L 369.962822 202.930693 
L 370.003085 202.930693 
L 370.003085 197.90099 
L 370.130698 197.90099 
L 370.130698 192.871287 
L 370.655833 192.871287 
L 370.655833 187.841584 
L 371.474633 187.841584 
L 371.474633 182.811881 
L 372.194285 182.811881 
L 372.194285 177.782178 
L 372.471168 177.782178 
L 372.471168 172.752475 
L 373.995588 172.752475 
L 373.995588 167.722772 
L 383.31744 167.722772 
L 383.31744 162.693069 
L 407.973533 162.693069 
L 407.973533 157.663366 
L 457.826365 157.663366 
L 457.826365 152.633663 
L 464.181643 152.633663 
L 464.181643 147.60396 
L 464.48257 147.60396 
L 464.48257 142.574257 
L 466.723271 142.574257 
L 466.723271 137.544554 
L 467.638084 137.544554 
L 467.638084 132.514851 
L 469.284134 132.514851 
L 469.284134 127.485149 
L 472.190007 127.485149 
L 472.190007 122.455446 
L 473.627275 122.455446 
L 473.627275 117.425743 
L 473.743085 117.425743 
L 473.743085 112.39604 
L 476.199073 112.39604 
L 476.199073 107.366337 
L 477.789769 107.366337 
L 477.804398 97.306931 
L 478.28361 97.306931 
L 478.28361 92.277228 
L 481.376168 92.277228 
L 481.376168 87.247525 
L 494.104784 87.247525 
L 494.104784 82.217822 
L 532.685231 82.217822 
L 532.685231 77.188119 
L 533.404663 77.188119 
L 533.404663 72.158416 
L 535.160885 72.158416 
L 535.160885 67.128713 
L 535.387653 67.128713 
L 535.387653 62.09901 
L 535.903442 62.09901 
L 535.903442 57.069307 
L 537.915734 57.069307 
L 537.915734 52.039604 
L 539.590049 52.039604 
L 539.590049 47.009901 
L 540.842216 47.009901 
L 540.842216 41.980198 
L 541.140137 41.980198 
L 541.140137 36.950495 
L 542.213232 36.950495 
L 542.213232 31.920792 
L 542.328417 31.920792 
L 542.328417 26.891089 
L 542.56367 26.891089 
L 542.56367 21.861386 
L 542.747934 21.861386 
L 542.747934 16.831683 
L 547.145467 16.831683 
L 547.145467 11.80198 
L 548.607873 11.80198 
L 548.607873 6.772277 
L 548.607873 6.772277 
L 567.24 6.772277 
L 567.24 6.772277 
" style="fill:none;stroke:#bf00bf;stroke-linecap:square;"/>
   </g>
   <g id="line2d_7">
    <path clip-path="url(#pa76c6657f0)" d="M 293.653102 384 
L 293.653102 378.970297 
L 294.595802 378.970297 
L 294.595802 373.940594 
L 295.113226 373.940594 
L 295.113226 368.910891 
L 296.588966 368.910891 
L 296.588966 363.881188 
L 296.869315 363.881188 
L 296.869315 358.851485 
L 297.401776 358.851485 
L 297.470408 348.792079 
L 297.576388 348.792079 
L 297.576388 343.762376 
L 299.600692 343.762376 
L 299.600692 338.732673 
L 299.90912 338.732673 
L 299.90912 333.70297 
L 300.084039 333.70297 
L 300.084039 328.673267 
L 300.249413 328.673267 
L 300.360154 318.613861 
L 300.776768 318.613861 
L 300.776768 313.584158 
L 303.765006 313.584158 
L 303.765006 308.554455 
L 340.612251 308.554455 
L 340.716953 298.49505 
L 342.366937 298.49505 
L 342.366937 293.465347 
L 344.787705 293.465347 
L 344.787705 288.435644 
L 344.972005 288.435644 
L 344.982587 273.346535 
L 345.339846 273.346535 
L 345.339846 268.316832 
L 345.529956 268.316832 
L 345.529956 263.287129 
L 346.057126 263.287129 
L 346.057126 258.257426 
L 346.91315 258.257426 
L 346.91315 253.227723 
L 348.284652 253.227723 
L 348.284652 248.19802 
L 349.225032 248.19802 
L 349.225032 243.168317 
L 350.373462 243.168317 
L 350.373462 238.138614 
L 350.783537 238.138614 
L 350.783537 233.108911 
L 356.200379 233.108911 
L 356.200379 228.079208 
L 356.346902 228.079208 
L 356.346902 223.049505 
L 356.727183 223.049505 
L 356.727183 218.019802 
L 357.234082 218.019802 
L 357.234082 212.990099 
L 357.494475 212.990099 
L 357.494475 207.960396 
L 357.943504 207.960396 
L 357.943504 202.930693 
L 358.402497 202.930693 
L 358.441773 192.871287 
L 359.227369 192.871287 
L 359.227369 187.841584 
L 359.380554 187.841584 
L 359.380554 182.811881 
L 359.62533 182.811881 
L 359.62533 177.782178 
L 360.003836 177.782178 
L 360.003836 172.752475 
L 360.481394 172.752475 
L 360.481394 167.722772 
L 361.273455 167.722772 
L 361.273455 162.693069 
L 361.942242 162.693069 
L 361.942242 157.663366 
L 453.003971 157.663366 
L 453.003971 152.633663 
L 458.259282 152.633663 
L 458.259282 147.60396 
L 458.751415 147.60396 
L 458.770847 137.544554 
L 460.251059 137.544554 
L 460.260539 127.485149 
L 461.209852 127.485149 
L 461.209852 122.455446 
L 461.690072 122.455446 
L 461.705813 112.39604 
L 462.132863 112.39604 
L 462.132863 107.366337 
L 462.444679 107.366337 
L 462.444679 102.336634 
L 463.32134 102.336634 
L 463.32134 97.306931 
L 463.487313 97.306931 
L 463.487313 92.277228 
L 464.831169 92.277228 
L 464.831169 87.247525 
L 465.932473 87.247525 
L 465.932473 82.217822 
L 498.917485 82.217822 
L 498.917485 77.188119 
L 523.117715 77.188119 
L 523.117715 72.158416 
L 524.964778 72.158416 
L 524.964778 67.128713 
L 526.011274 67.128713 
L 526.011274 62.09901 
L 526.951057 62.09901 
L 526.951057 57.069307 
L 529.645564 57.069307 
L 529.700157 47.009901 
L 531.697825 47.009901 
L 531.697825 41.980198 
L 533.068009 41.980198 
L 533.157476 31.920792 
L 534.175688 31.920792 
L 534.175688 26.891089 
L 534.352657 26.891089 
L 534.352657 21.861386 
L 534.598561 21.861386 
L 534.598561 16.831683 
L 535.222037 16.831683 
L 535.222037 11.80198 
L 538.39144 11.80198 
L 538.39144 6.772277 
L 538.39144 6.772277 
L 567.24 6.772277 
L 567.24 6.772277 
" style="fill:none;stroke:#000000;stroke-linecap:square;"/>
   </g>
   <g id="line2d_8">
    <path clip-path="url(#pa76c6657f0)" d="M 276.953085 384 
L 276.953085 378.970297 
L 279.869436 378.970297 
L 279.869436 373.940594 
L 280.735613 373.940594 
L 280.735613 368.910891 
L 281.876346 368.910891 
L 281.876346 363.881188 
L 282.430527 363.881188 
L 282.430527 358.851485 
L 282.857396 358.851485 
L 282.857396 353.821782 
L 283.390408 353.821782 
L 283.390408 348.792079 
L 283.69933 348.792079 
L 283.69933 343.762376 
L 284.125767 343.762376 
L 284.125767 338.732673 
L 285.505869 338.732673 
L 285.571707 328.673267 
L 286.283687 328.673267 
L 286.283687 323.643564 
L 286.941295 323.643564 
L 287.047994 313.584158 
L 287.109121 313.584158 
L 287.109121 308.554455 
L 336.750714 308.554455 
L 336.750714 303.524752 
L 338.017169 303.524752 
L 338.017169 298.49505 
L 338.557743 298.49505 
L 338.557743 293.465347 
L 339.3308 293.465347 
L 339.3308 288.435644 
L 339.587185 288.435644 
L 339.587185 283.405941 
L 339.979036 283.405941 
L 339.979036 278.376238 
L 340.319141 278.376238 
L 340.330308 268.316832 
L 340.546453 268.316832 
L 340.546453 263.287129 
L 340.678435 263.287129 
L 340.716953 253.227723 
L 341.340537 253.227723 
L 341.340537 248.19802 
L 343.22937 248.19802 
L 343.22937 243.168317 
L 343.518832 243.168317 
L 343.518832 238.138614 
L 343.766282 238.138614 
L 343.845054 228.079208 
L 345.426189 228.079208 
L 345.517588 218.019802 
L 346.104156 218.019802 
L 346.104156 212.990099 
L 346.359035 212.990099 
L 346.359035 207.960396 
L 346.881271 207.960396 
L 346.881271 202.930693 
L 347.417016 202.930693 
L 347.417016 197.90099 
L 347.771426 197.90099 
L 347.771426 192.871287 
L 347.947325 192.871287 
L 347.947325 187.841584 
L 348.060672 187.841584 
L 348.060672 182.811881 
L 348.40397 182.811881 
L 348.40397 177.782178 
L 348.903831 177.782178 
L 348.912183 167.722772 
L 349.280998 167.722772 
L 349.382087 157.663366 
L 409.739493 157.663366 
L 409.739493 152.633663 
L 419.415262 152.633663 
L 419.415262 147.60396 
L 430.697689 147.60396 
L 430.697689 142.574257 
L 437.084373 142.574257 
L 437.084373 137.544554 
L 438.93946 137.544554 
L 438.93946 132.514851 
L 440.263463 132.514851 
L 440.263463 127.485149 
L 445.451753 127.485149 
L 445.451753 122.455446 
L 446.541457 122.455446 
L 446.541457 117.425743 
L 446.792569 117.425743 
L 446.792569 112.39604 
L 447.352348 112.39604 
L 447.352348 107.366337 
L 447.585641 107.366337 
L 447.650175 97.306931 
L 448.899174 97.306931 
L 448.899174 92.277228 
L 449.777812 92.277228 
L 449.777812 87.247525 
L 450.124638 87.247525 
L 450.124638 82.217822 
L 450.553384 82.217822 
L 450.595145 72.158416 
L 450.757481 72.158416 
L 450.757481 67.128713 
L 453.104513 67.128713 
L 453.104513 62.09901 
L 484.749615 62.09901 
L 484.749615 57.069307 
L 492.83439 57.069307 
L 492.83439 52.039604 
L 499.985442 52.039604 
L 499.985442 47.009901 
L 508.562297 47.009901 
L 508.562297 41.980198 
L 509.432116 41.980198 
L 509.432116 36.950495 
L 519.502948 36.950495 
L 519.502948 31.920792 
L 520.817207 31.920792 
L 520.817207 26.891089 
L 524.41654 26.891089 
L 524.41654 21.861386 
L 525.732674 21.861386 
L 525.732674 16.831683 
L 527.212086 16.831683 
L 527.212086 11.80198 
L 527.341655 11.80198 
L 527.341655 6.772277 
L 527.341655 6.772277 
L 567.24 6.772277 
L 567.24 6.772277 
" style="fill:none;stroke:#00bfbf;stroke-linecap:square;"/>
   </g>
   <g id="patch_3">
    <path d="M 3 3 
L 567.24 3 
" style="fill:none;stroke:#000000;stroke-linecap:square;stroke-linejoin:miter;"/>
   </g>
   <g id="patch_4">
    <path d="M 567.24 384 
L 567.24 3 
" style="fill:none;stroke:#000000;stroke-linecap:square;stroke-linejoin:miter;"/>
   </g>
   <g id="patch_5">
    <path d="M 3 384 
L 567.24 384 
" style="fill:none;stroke:#000000;stroke-linecap:square;stroke-linejoin:miter;"/>
   </g>
   <g id="patch_6">
    <path d="M 3 384 
L 3 3 
" style="fill:none;stroke:#000000;stroke-linecap:square;stroke-linejoin:miter;"/>
   </g>
   <g id="matplotlib.axis_1">
    <g id="xtick_1"/>
    <g id="xtick_2">
     <g id="line2d_9">
      <path clip-path="url(#pa76c6657f0)" d="M 69.254589 384 
L 69.254589 3 
" style="fill:none;stroke:#000000;stroke-dasharray:1.000000,3.000000;stroke-dashoffset:0.0;stroke-width:0.5;"/>
     </g>
     <g id="line2d_10">
      <defs>
       <path d="M 0 0 
L 0 -4 
" id="macf40f8c5c" style="stroke:#000000;stroke-width:0.5;"/>
      </defs>
      <g>
       <use style="stroke:#000000;stroke-width:0.5;" x="69.2545893472" xlink:href="#macf40f8c5c" y="384.0"/>
      </g>
     </g>
     <g id="line2d_11">
      <defs>
       <path d="M 0 0 
L 0 4 
" id="m57e6aa5f03" style="stroke:#000000;stroke-width:0.5;"/>
      </defs>
      <g>
       <use style="stroke:#000000;stroke-width:0.5;" x="69.2545893472" xlink:href="#m57e6aa5f03" y="3.0"/>
      </g>
     </g>
     <g id="text_1">
      <!-- -6 -->
      <defs>
       <path d="M 33.015625 40.375 
Q 26.375 40.375 22.484375 35.828125 
Q 18.609375 31.296875 18.609375 23.390625 
Q 18.609375 15.53125 22.484375 10.953125 
Q 26.375 6.390625 33.015625 6.390625 
Q 39.65625 6.390625 43.53125 10.953125 
Q 47.40625 15.53125 47.40625 23.390625 
Q 47.40625 31.296875 43.53125 35.828125 
Q 39.65625 40.375 33.015625 40.375 
M 52.59375 71.296875 
L 52.59375 62.3125 
Q 48.875 64.0625 45.09375 64.984375 
Q 41.3125 65.921875 37.59375 65.921875 
Q 27.828125 65.921875 22.671875 59.328125 
Q 17.53125 52.734375 16.796875 39.40625 
Q 19.671875 43.65625 24.015625 45.921875 
Q 28.375 48.1875 33.59375 48.1875 
Q 44.578125 48.1875 50.953125 41.515625 
Q 57.328125 34.859375 57.328125 23.390625 
Q 57.328125 12.15625 50.6875 5.359375 
Q 44.046875 -1.421875 33.015625 -1.421875 
Q 20.359375 -1.421875 13.671875 8.265625 
Q 6.984375 17.96875 6.984375 36.375 
Q 6.984375 53.65625 15.1875 63.9375 
Q 23.390625 74.21875 37.203125 74.21875 
Q 40.921875 74.21875 44.703125 73.484375 
Q 48.484375 72.75 52.59375 71.296875 
" id="BitstreamVeraSans-Roman-36"/>
       <path d="M 4.890625 31.390625 
L 31.203125 31.390625 
L 31.203125 23.390625 
L 4.890625 23.390625 
z
" id="BitstreamVeraSans-Roman-2d"/>
      </defs>
      <g transform="translate(59.2842768472 403.196875)scale(0.2 -0.2)">
       <use xlink:href="#BitstreamVeraSans-Roman-2d"/>
       <use x="36.083984375" xlink:href="#BitstreamVeraSans-Roman-36"/>
      </g>
     </g>
    </g>
    <g id="xtick_3">
     <g id="line2d_12">
      <path clip-path="url(#pa76c6657f0)" d="M 135.652644 384 
L 135.652644 3 
" style="fill:none;stroke:#000000;stroke-dasharray:1.000000,3.000000;stroke-dashoffset:0.0;stroke-width:0.5;"/>
     </g>
     <g id="line2d_13">
      <g>
       <use style="stroke:#000000;stroke-width:0.5;" x="135.652644101" xlink:href="#macf40f8c5c" y="384.0"/>
      </g>
     </g>
     <g id="line2d_14">
      <g>
       <use style="stroke:#000000;stroke-width:0.5;" x="135.652644101" xlink:href="#m57e6aa5f03" y="3.0"/>
      </g>
     </g>
     <g id="text_2">
      <!-- -4 -->
      <defs>
       <path d="M 37.796875 64.3125 
L 12.890625 25.390625 
L 37.796875 25.390625 
z
M 35.203125 72.90625 
L 47.609375 72.90625 
L 47.609375 25.390625 
L 58.015625 25.390625 
L 58.015625 17.1875 
L 47.609375 17.1875 
L 47.609375 0 
L 37.796875 0 
L 37.796875 17.1875 
L 4.890625 17.1875 
L 4.890625 26.703125 
z
" id="BitstreamVeraSans-Roman-34"/>
      </defs>
      <g transform="translate(125.682331601 403.196875)scale(0.2 -0.2)">
       <use xlink:href="#BitstreamVeraSans-Roman-2d"/>
       <use x="36.083984375" xlink:href="#BitstreamVeraSans-Roman-34"/>
      </g>
     </g>
    </g>
    <g id="xtick_4">
     <g id="line2d_15">
      <path clip-path="url(#pa76c6657f0)" d="M 202.050699 384 
L 202.050699 3 
" style="fill:none;stroke:#000000;stroke-dasharray:1.000000,3.000000;stroke-dashoffset:0.0;stroke-width:0.5;"/>
     </g>
     <g id="line2d_16">
      <g>
       <use style="stroke:#000000;stroke-width:0.5;" x="202.050698855" xlink:href="#macf40f8c5c" y="384.0"/>
      </g>
     </g>
     <g id="line2d_17">
      <g>
       <use style="stroke:#000000;stroke-width:0.5;" x="202.050698855" xlink:href="#m57e6aa5f03" y="3.0"/>
      </g>
     </g>
     <g id="text_3">
      <!-- -2 -->
      <defs>
       <path d="M 19.1875 8.296875 
L 53.609375 8.296875 
L 53.609375 0 
L 7.328125 0 
L 7.328125 8.296875 
Q 12.9375 14.109375 22.625 23.890625 
Q 32.328125 33.6875 34.8125 36.53125 
Q 39.546875 41.84375 41.421875 45.53125 
Q 43.3125 49.21875 43.3125 52.78125 
Q 43.3125 58.59375 39.234375 62.25 
Q 35.15625 65.921875 28.609375 65.921875 
Q 23.96875 65.921875 18.8125 64.3125 
Q 13.671875 62.703125 7.8125 59.421875 
L 7.8125 69.390625 
Q 13.765625 71.78125 18.9375 73 
Q 24.125 74.21875 28.421875 74.21875 
Q 39.75 74.21875 46.484375 68.546875 
Q 53.21875 62.890625 53.21875 53.421875 
Q 53.21875 48.921875 51.53125 44.890625 
Q 49.859375 40.875 45.40625 35.40625 
Q 44.1875 33.984375 37.640625 27.21875 
Q 31.109375 20.453125 19.1875 8.296875 
" id="BitstreamVeraSans-Roman-32"/>
      </defs>
      <g transform="translate(192.080386355 403.196875)scale(0.2 -0.2)">
       <use xlink:href="#BitstreamVeraSans-Roman-2d"/>
       <use x="36.083984375" xlink:href="#BitstreamVeraSans-Roman-32"/>
      </g>
     </g>
    </g>
    <g id="xtick_5">
     <g id="line2d_18">
      <path clip-path="url(#pa76c6657f0)" d="M 268.448754 384 
L 268.448754 3 
" style="fill:none;stroke:#000000;stroke-dasharray:1.000000,3.000000;stroke-dashoffset:0.0;stroke-width:0.5;"/>
     </g>
     <g id="line2d_19">
      <g>
       <use style="stroke:#000000;stroke-width:0.5;" x="268.448753608" xlink:href="#macf40f8c5c" y="384.0"/>
      </g>
     </g>
     <g id="line2d_20">
      <g>
       <use style="stroke:#000000;stroke-width:0.5;" x="268.448753608" xlink:href="#m57e6aa5f03" y="3.0"/>
      </g>
     </g>
     <g id="text_4">
      <!-- 0 -->
      <defs>
       <path d="M 31.78125 66.40625 
Q 24.171875 66.40625 20.328125 58.90625 
Q 16.5 51.421875 16.5 36.375 
Q 16.5 21.390625 20.328125 13.890625 
Q 24.171875 6.390625 31.78125 6.390625 
Q 39.453125 6.390625 43.28125 13.890625 
Q 47.125 21.390625 47.125 36.375 
Q 47.125 51.421875 43.28125 58.90625 
Q 39.453125 66.40625 31.78125 66.40625 
M 31.78125 74.21875 
Q 44.046875 74.21875 50.515625 64.515625 
Q 56.984375 54.828125 56.984375 36.375 
Q 56.984375 17.96875 50.515625 8.265625 
Q 44.046875 -1.421875 31.78125 -1.421875 
Q 19.53125 -1.421875 13.0625 8.265625 
Q 6.59375 17.96875 6.59375 36.375 
Q 6.59375 54.828125 13.0625 64.515625 
Q 19.53125 74.21875 31.78125 74.21875 
" id="BitstreamVeraSans-Roman-30"/>
      </defs>
      <g transform="translate(262.086253608 403.196875)scale(0.2 -0.2)">
       <use xlink:href="#BitstreamVeraSans-Roman-30"/>
      </g>
     </g>
    </g>
    <g id="xtick_6">
     <g id="line2d_21">
      <path clip-path="url(#pa76c6657f0)" d="M 334.846808 384 
L 334.846808 3 
" style="fill:none;stroke:#000000;stroke-dasharray:1.000000,3.000000;stroke-dashoffset:0.0;stroke-width:0.5;"/>
     </g>
     <g id="line2d_22">
      <g>
       <use style="stroke:#000000;stroke-width:0.5;" x="334.846808362" xlink:href="#macf40f8c5c" y="384.0"/>
      </g>
     </g>
     <g id="line2d_23">
      <g>
       <use style="stroke:#000000;stroke-width:0.5;" x="334.846808362" xlink:href="#m57e6aa5f03" y="3.0"/>
      </g>
     </g>
     <g id="text_5">
      <!-- 2 -->
      <g transform="translate(328.484308362 403.196875)scale(0.2 -0.2)">
       <use xlink:href="#BitstreamVeraSans-Roman-32"/>
      </g>
     </g>
    </g>
    <g id="xtick_7">
     <g id="line2d_24">
      <path clip-path="url(#pa76c6657f0)" d="M 401.244863 384 
L 401.244863 3 
" style="fill:none;stroke:#000000;stroke-dasharray:1.000000,3.000000;stroke-dashoffset:0.0;stroke-width:0.5;"/>
     </g>
     <g id="line2d_25">
      <g>
       <use style="stroke:#000000;stroke-width:0.5;" x="401.244863116" xlink:href="#macf40f8c5c" y="384.0"/>
      </g>
     </g>
     <g id="line2d_26">
      <g>
       <use style="stroke:#000000;stroke-width:0.5;" x="401.244863116" xlink:href="#m57e6aa5f03" y="3.0"/>
      </g>
     </g>
     <g id="text_6">
      <!-- 4 -->
      <g transform="translate(394.882363116 403.196875)scale(0.2 -0.2)">
       <use xlink:href="#BitstreamVeraSans-Roman-34"/>
      </g>
     </g>
    </g>
    <g id="xtick_8">
     <g id="line2d_27">
      <path clip-path="url(#pa76c6657f0)" d="M 467.642918 384 
L 467.642918 3 
" style="fill:none;stroke:#000000;stroke-dasharray:1.000000,3.000000;stroke-dashoffset:0.0;stroke-width:0.5;"/>
     </g>
     <g id="line2d_28">
      <g>
       <use style="stroke:#000000;stroke-width:0.5;" x="467.642917869" xlink:href="#macf40f8c5c" y="384.0"/>
      </g>
     </g>
     <g id="line2d_29">
      <g>
       <use style="stroke:#000000;stroke-width:0.5;" x="467.642917869" xlink:href="#m57e6aa5f03" y="3.0"/>
      </g>
     </g>
     <g id="text_7">
      <!-- 6 -->
      <g transform="translate(461.280417869 403.196875)scale(0.2 -0.2)">
       <use xlink:href="#BitstreamVeraSans-Roman-36"/>
      </g>
     </g>
    </g>
    <g id="xtick_9">
     <g id="line2d_30">
      <path clip-path="url(#pa76c6657f0)" d="M 534.040973 384 
L 534.040973 3 
" style="fill:none;stroke:#000000;stroke-dasharray:1.000000,3.000000;stroke-dashoffset:0.0;stroke-width:0.5;"/>
     </g>
     <g id="line2d_31">
      <g>
       <use style="stroke:#000000;stroke-width:0.5;" x="534.040972623" xlink:href="#macf40f8c5c" y="384.0"/>
      </g>
     </g>
     <g id="line2d_32">
      <g>
       <use style="stroke:#000000;stroke-width:0.5;" x="534.040972623" xlink:href="#m57e6aa5f03" y="3.0"/>
      </g>
     </g>
     <g id="text_8">
      <!-- 8 -->
      <defs>
       <path d="M 31.78125 34.625 
Q 24.75 34.625 20.71875 30.859375 
Q 16.703125 27.09375 16.703125 20.515625 
Q 16.703125 13.921875 20.71875 10.15625 
Q 24.75 6.390625 31.78125 6.390625 
Q 38.8125 6.390625 42.859375 10.171875 
Q 46.921875 13.96875 46.921875 20.515625 
Q 46.921875 27.09375 42.890625 30.859375 
Q 38.875 34.625 31.78125 34.625 
M 21.921875 38.8125 
Q 15.578125 40.375 12.03125 44.71875 
Q 8.5 49.078125 8.5 55.328125 
Q 8.5 64.0625 14.71875 69.140625 
Q 20.953125 74.21875 31.78125 74.21875 
Q 42.671875 74.21875 48.875 69.140625 
Q 55.078125 64.0625 55.078125 55.328125 
Q 55.078125 49.078125 51.53125 44.71875 
Q 48 40.375 41.703125 38.8125 
Q 48.828125 37.15625 52.796875 32.3125 
Q 56.78125 27.484375 56.78125 20.515625 
Q 56.78125 9.90625 50.3125 4.234375 
Q 43.84375 -1.421875 31.78125 -1.421875 
Q 19.734375 -1.421875 13.25 4.234375 
Q 6.78125 9.90625 6.78125 20.515625 
Q 6.78125 27.484375 10.78125 32.3125 
Q 14.796875 37.15625 21.921875 38.8125 
M 18.3125 54.390625 
Q 18.3125 48.734375 21.84375 45.5625 
Q 25.390625 42.390625 31.78125 42.390625 
Q 38.140625 42.390625 41.71875 45.5625 
Q 45.3125 48.734375 45.3125 54.390625 
Q 45.3125 60.0625 41.71875 63.234375 
Q 38.140625 66.40625 31.78125 66.40625 
Q 25.390625 66.40625 21.84375 63.234375 
Q 18.3125 60.0625 18.3125 54.390625 
" id="BitstreamVeraSans-Roman-38"/>
      </defs>
      <g transform="translate(527.678472623 403.196875)scale(0.2 -0.2)">
       <use xlink:href="#BitstreamVeraSans-Roman-38"/>
      </g>
     </g>
    </g>
    <g id="xtick_10"/>
    <g id="xtick_11">
     <g id="line2d_33">
      <defs>
       <path d="M 0 0 
L 0 -2 
" id="mbfec506897" style="stroke:#000000;stroke-width:0.5;"/>
      </defs>
      <g>
       <use style="stroke:#000000;stroke-width:0.5;" x="69.2545893472" xlink:href="#mbfec506897" y="384.0"/>
      </g>
     </g>
     <g id="line2d_34">
      <defs>
       <path d="M 0 0 
L 0 2 
" id="m5f2b76c529" style="stroke:#000000;stroke-width:0.5;"/>
      </defs>
      <g>
       <use style="stroke:#000000;stroke-width:0.5;" x="69.2545893472" xlink:href="#m5f2b76c529" y="3.0"/>
      </g>
     </g>
    </g>
    <g id="xtick_12">
     <g id="line2d_35">
      <g>
       <use style="stroke:#000000;stroke-width:0.5;" x="135.652644101" xlink:href="#mbfec506897" y="384.0"/>
      </g>
     </g>
     <g id="line2d_36">
      <g>
       <use style="stroke:#000000;stroke-width:0.5;" x="135.652644101" xlink:href="#m5f2b76c529" y="3.0"/>
      </g>
     </g>
    </g>
    <g id="xtick_13">
     <g id="line2d_37">
      <g>
       <use style="stroke:#000000;stroke-width:0.5;" x="202.050698855" xlink:href="#mbfec506897" y="384.0"/>
      </g>
     </g>
     <g id="line2d_38">
      <g>
       <use style="stroke:#000000;stroke-width:0.5;" x="202.050698855" xlink:href="#m5f2b76c529" y="3.0"/>
      </g>
     </g>
    </g>
    <g id="xtick_14">
     <g id="line2d_39">
      <g>
       <use style="stroke:#000000;stroke-width:0.5;" x="268.448753608" xlink:href="#mbfec506897" y="384.0"/>
      </g>
     </g>
     <g id="line2d_40">
      <g>
       <use style="stroke:#000000;stroke-width:0.5;" x="268.448753608" xlink:href="#m5f2b76c529" y="3.0"/>
      </g>
     </g>
    </g>
    <g id="xtick_15">
     <g id="line2d_41">
      <g>
       <use style="stroke:#000000;stroke-width:0.5;" x="334.846808362" xlink:href="#mbfec506897" y="384.0"/>
      </g>
     </g>
     <g id="line2d_42">
      <g>
       <use style="stroke:#000000;stroke-width:0.5;" x="334.846808362" xlink:href="#m5f2b76c529" y="3.0"/>
      </g>
     </g>
    </g>
    <g id="xtick_16">
     <g id="line2d_43">
      <g>
       <use style="stroke:#000000;stroke-width:0.5;" x="401.244863116" xlink:href="#mbfec506897" y="384.0"/>
      </g>
     </g>
     <g id="line2d_44">
      <g>
       <use style="stroke:#000000;stroke-width:0.5;" x="401.244863116" xlink:href="#m5f2b76c529" y="3.0"/>
      </g>
     </g>
    </g>
    <g id="xtick_17">
     <g id="line2d_45">
      <g>
       <use style="stroke:#000000;stroke-width:0.5;" x="467.642917869" xlink:href="#mbfec506897" y="384.0"/>
      </g>
     </g>
     <g id="line2d_46">
      <g>
       <use style="stroke:#000000;stroke-width:0.5;" x="467.642917869" xlink:href="#m5f2b76c529" y="3.0"/>
      </g>
     </g>
    </g>
    <g id="xtick_18">
     <g id="line2d_47">
      <g>
       <use style="stroke:#000000;stroke-width:0.5;" x="534.040972623" xlink:href="#mbfec506897" y="384.0"/>
      </g>
     </g>
     <g id="line2d_48">
      <g>
       <use style="stroke:#000000;stroke-width:0.5;" x="534.040972623" xlink:href="#m5f2b76c529" y="3.0"/>
      </g>
     </g>
    </g>
    <g id="text_9">
     <!-- log10 of Df -->
     <defs>
      <path id="BitstreamVeraSans-Roman-20"/>
      <path d="M 12.40625 8.296875 
L 28.515625 8.296875 
L 28.515625 63.921875 
L 10.984375 60.40625 
L 10.984375 69.390625 
L 28.421875 72.90625 
L 38.28125 72.90625 
L 38.28125 8.296875 
L 54.390625 8.296875 
L 54.390625 0 
L 12.40625 0 
z
" id="BitstreamVeraSans-Roman-31"/>
      <path d="M 30.609375 48.390625 
Q 23.390625 48.390625 19.1875 42.75 
Q 14.984375 37.109375 14.984375 27.296875 
Q 14.984375 17.484375 19.15625 11.84375 
Q 23.34375 6.203125 30.609375 6.203125 
Q 37.796875 6.203125 41.984375 11.859375 
Q 46.1875 17.53125 46.1875 27.296875 
Q 46.1875 37.015625 41.984375 42.703125 
Q 37.796875 48.390625 30.609375 48.390625 
M 30.609375 56 
Q 42.328125 56 49.015625 48.375 
Q 55.71875 40.765625 55.71875 27.296875 
Q 55.71875 13.875 49.015625 6.21875 
Q 42.328125 -1.421875 30.609375 -1.421875 
Q 18.84375 -1.421875 12.171875 6.21875 
Q 5.515625 13.875 5.515625 27.296875 
Q 5.515625 40.765625 12.171875 48.375 
Q 18.84375 56 30.609375 56 
" id="BitstreamVeraSans-Roman-6f"/>
      <path d="M 9.421875 75.984375 
L 18.40625 75.984375 
L 18.40625 0 
L 9.421875 0 
z
" id="BitstreamVeraSans-Roman-6c"/>
      <path d="M 19.671875 64.796875 
L 19.671875 8.109375 
L 31.59375 8.109375 
Q 46.6875 8.109375 53.6875 14.9375 
Q 60.6875 21.78125 60.6875 36.53125 
Q 60.6875 51.171875 53.6875 57.984375 
Q 46.6875 64.796875 31.59375 64.796875 
z
M 9.8125 72.90625 
L 30.078125 72.90625 
Q 51.265625 72.90625 61.171875 64.09375 
Q 71.09375 55.28125 71.09375 36.53125 
Q 71.09375 17.671875 61.125 8.828125 
Q 51.171875 0 30.078125 0 
L 9.8125 0 
z
" id="BitstreamVeraSans-Roman-44"/>
      <path d="M 45.40625 27.984375 
Q 45.40625 37.75 41.375 43.109375 
Q 37.359375 48.484375 30.078125 48.484375 
Q 22.859375 48.484375 18.828125 43.109375 
Q 14.796875 37.75 14.796875 27.984375 
Q 14.796875 18.265625 18.828125 12.890625 
Q 22.859375 7.515625 30.078125 7.515625 
Q 37.359375 7.515625 41.375 12.890625 
Q 45.40625 18.265625 45.40625 27.984375 
M 54.390625 6.78125 
Q 54.390625 -7.171875 48.1875 -13.984375 
Q 42 -20.796875 29.203125 -20.796875 
Q 24.46875 -20.796875 20.265625 -20.09375 
Q 16.0625 -19.390625 12.109375 -17.921875 
L 12.109375 -9.1875 
Q 16.0625 -11.328125 19.921875 -12.34375 
Q 23.78125 -13.375 27.78125 -13.375 
Q 36.625 -13.375 41.015625 -8.765625 
Q 45.40625 -4.15625 45.40625 5.171875 
L 45.40625 9.625 
Q 42.625 4.78125 38.28125 2.390625 
Q 33.9375 0 27.875 0 
Q 17.828125 0 11.671875 7.65625 
Q 5.515625 15.328125 5.515625 27.984375 
Q 5.515625 40.671875 11.671875 48.328125 
Q 17.828125 56 27.875 56 
Q 33.9375 56 38.28125 53.609375 
Q 42.625 51.21875 45.40625 46.390625 
L 45.40625 54.6875 
L 54.390625 54.6875 
z
" id="BitstreamVeraSans-Roman-67"/>
      <path d="M 37.109375 75.984375 
L 37.109375 68.5 
L 28.515625 68.5 
Q 23.6875 68.5 21.796875 66.546875 
Q 19.921875 64.59375 19.921875 59.515625 
L 19.921875 54.6875 
L 34.71875 54.6875 
L 34.71875 47.703125 
L 19.921875 47.703125 
L 19.921875 0 
L 10.890625 0 
L 10.890625 47.703125 
L 2.296875 47.703125 
L 2.296875 54.6875 
L 10.890625 54.6875 
L 10.890625 58.5 
Q 10.890625 67.625 15.140625 71.796875 
Q 19.390625 75.984375 28.609375 75.984375 
z
" id="BitstreamVeraSans-Roman-66"/>
     </defs>
     <g transform="translate(229.9340625 427.553125)scale(0.2 -0.2)">
      <use xlink:href="#BitstreamVeraSans-Roman-6c"/>
      <use x="27.783203125" xlink:href="#BitstreamVeraSans-Roman-6f"/>
      <use x="88.96484375" xlink:href="#BitstreamVeraSans-Roman-67"/>
      <use x="152.44140625" xlink:href="#BitstreamVeraSans-Roman-31"/>
      <use x="216.064453125" xlink:href="#BitstreamVeraSans-Roman-30"/>
      <use x="279.6875" xlink:href="#BitstreamVeraSans-Roman-20"/>
      <use x="311.474609375" xlink:href="#BitstreamVeraSans-Roman-6f"/>
      <use x="372.65625" xlink:href="#BitstreamVeraSans-Roman-66"/>
      <use x="407.861328125" xlink:href="#BitstreamVeraSans-Roman-20"/>
      <use x="439.6484375" xlink:href="#BitstreamVeraSans-Roman-44"/>
      <use x="516.650390625" xlink:href="#BitstreamVeraSans-Roman-66"/>
     </g>
    </g>
   </g>
   <g id="matplotlib.axis_2">
    <g id="ytick_1">
     <g id="line2d_49">
      <path clip-path="url(#pa76c6657f0)" d="M 3 384 
L 567.24 384 
" style="fill:none;stroke:#000000;stroke-dasharray:1.000000,3.000000;stroke-dashoffset:0.0;stroke-width:0.5;"/>
     </g>
     <g id="line2d_50">
      <defs>
       <path d="M 0 0 
L 4 0 
" id="mf36885bac3" style="stroke:#000000;stroke-width:0.5;"/>
      </defs>
      <g>
       <use style="stroke:#000000;stroke-width:0.5;" x="3.0" xlink:href="#mf36885bac3" y="384.0"/>
      </g>
     </g>
     <g id="line2d_51">
      <defs>
       <path d="M 0 0 
L -4 0 
" id="m74caca6486" style="stroke:#000000;stroke-width:0.5;"/>
      </defs>
      <g>
       <use style="stroke:#000000;stroke-width:0.5;" x="567.24" xlink:href="#m74caca6486" y="384.0"/>
      </g>
     </g>
    </g>
    <g id="ytick_2">
     <g id="line2d_52">
      <path clip-path="url(#pa76c6657f0)" d="M 3 308.554455 
L 567.24 308.554455 
" style="fill:none;stroke:#000000;stroke-dasharray:1.000000,3.000000;stroke-dashoffset:0.0;stroke-width:0.5;"/>
     </g>
     <g id="line2d_53">
      <g>
       <use style="stroke:#000000;stroke-width:0.5;" x="3.0" xlink:href="#mf36885bac3" y="308.554455446"/>
      </g>
     </g>
     <g id="line2d_54">
      <g>
       <use style="stroke:#000000;stroke-width:0.5;" x="567.24" xlink:href="#m74caca6486" y="308.554455446"/>
      </g>
     </g>
    </g>
    <g id="ytick_3">
     <g id="line2d_55">
      <path clip-path="url(#pa76c6657f0)" d="M 3 233.108911 
L 567.24 233.108911 
" style="fill:none;stroke:#000000;stroke-dasharray:1.000000,3.000000;stroke-dashoffset:0.0;stroke-width:0.5;"/>
     </g>
     <g id="line2d_56">
      <g>
       <use style="stroke:#000000;stroke-width:0.5;" x="3.0" xlink:href="#mf36885bac3" y="233.108910891"/>
      </g>
     </g>
     <g id="line2d_57">
      <g>
       <use style="stroke:#000000;stroke-width:0.5;" x="567.24" xlink:href="#m74caca6486" y="233.108910891"/>
      </g>
     </g>
    </g>
    <g id="ytick_4">
     <g id="line2d_58">
      <path clip-path="url(#pa76c6657f0)" d="M 3 157.663366 
L 567.24 157.663366 
" style="fill:none;stroke:#000000;stroke-dasharray:1.000000,3.000000;stroke-dashoffset:0.0;stroke-width:0.5;"/>
     </g>
     <g id="line2d_59">
      <g>
       <use style="stroke:#000000;stroke-width:0.5;" x="3.0" xlink:href="#mf36885bac3" y="157.663366337"/>
      </g>
     </g>
     <g id="line2d_60">
      <g>
       <use style="stroke:#000000;stroke-width:0.5;" x="567.24" xlink:href="#m74caca6486" y="157.663366337"/>
      </g>
     </g>
    </g>
    <g id="ytick_5">
     <g id="line2d_61">
      <path clip-path="url(#pa76c6657f0)" d="M 3 82.217822 
L 567.24 82.217822 
" style="fill:none;stroke:#000000;stroke-dasharray:1.000000,3.000000;stroke-dashoffset:0.0;stroke-width:0.5;"/>
     </g>
     <g id="line2d_62">
      <g>
       <use style="stroke:#000000;stroke-width:0.5;" x="3.0" xlink:href="#mf36885bac3" y="82.2178217822"/>
      </g>
     </g>
     <g id="line2d_63">
      <g>
       <use style="stroke:#000000;stroke-width:0.5;" x="567.24" xlink:href="#m74caca6486" y="82.2178217822"/>
      </g>
     </g>
    </g>
    <g id="ytick_6">
     <g id="line2d_64">
      <path clip-path="url(#pa76c6657f0)" d="M 3 6.772277 
L 567.24 6.772277 
" style="fill:none;stroke:#000000;stroke-dasharray:1.000000,3.000000;stroke-dashoffset:0.0;stroke-width:0.5;"/>
     </g>
     <g id="line2d_65">
      <g>
       <use style="stroke:#000000;stroke-width:0.5;" x="3.0" xlink:href="#mf36885bac3" y="6.77227722772"/>
      </g>
     </g>
     <g id="line2d_66">
      <g>
       <use style="stroke:#000000;stroke-width:0.5;" x="567.24" xlink:href="#m74caca6486" y="6.77227722772"/>
      </g>
     </g>
    </g>
   </g>
   <g id="text_10">
    <!-- {f10-f14}, 20-D -->
    <defs>
     <path d="M 12.5 -9.28125 
L 15.921875 -9.28125 
Q 22.75 -9.28125 24.828125 -7.171875 
Q 26.90625 -5.078125 26.90625 1.90625 
L 26.90625 14.015625 
Q 26.90625 21.625 29.09375 25.09375 
Q 31.296875 28.5625 36.71875 29.890625 
Q 31.296875 31.109375 29.09375 34.5625 
Q 26.90625 38.03125 26.90625 45.703125 
L 26.90625 57.8125 
Q 26.90625 64.75 24.828125 66.875 
Q 22.75 69 15.921875 69 
L 12.5 69 
L 12.5 75.984375 
L 15.578125 75.984375 
Q 27.734375 75.984375 31.8125 72.390625 
Q 35.890625 68.796875 35.890625 58.015625 
L 35.890625 46.296875 
Q 35.890625 39.015625 38.515625 36.203125 
Q 41.15625 33.40625 48.09375 33.40625 
L 51.125 33.40625 
L 51.125 26.421875 
L 48.09375 26.421875 
Q 41.15625 26.421875 38.515625 23.578125 
Q 35.890625 20.75 35.890625 13.375 
L 35.890625 1.703125 
Q 35.890625 -9.078125 31.8125 -12.6875 
Q 27.734375 -16.3125 15.578125 -16.3125 
L 12.5 -16.3125 
z
" id="BitstreamVeraSans-Roman-7d"/>
     <path d="M 51.125 -9.28125 
L 51.125 -16.3125 
L 48.09375 -16.3125 
Q 35.9375 -16.3125 31.8125 -12.6875 
Q 27.6875 -9.078125 27.6875 1.703125 
L 27.6875 13.375 
Q 27.6875 20.75 25.046875 23.578125 
Q 22.40625 26.421875 15.484375 26.421875 
L 12.5 26.421875 
L 12.5 33.40625 
L 15.484375 33.40625 
Q 22.46875 33.40625 25.078125 36.203125 
Q 27.6875 39.015625 27.6875 46.296875 
L 27.6875 58.015625 
Q 27.6875 68.796875 31.8125 72.390625 
Q 35.9375 75.984375 48.09375 75.984375 
L 51.125 75.984375 
L 51.125 69 
L 47.796875 69 
Q 40.921875 69 38.8125 66.84375 
Q 36.71875 64.703125 36.71875 57.8125 
L 36.71875 45.703125 
Q 36.71875 38.03125 34.5 34.5625 
Q 32.28125 31.109375 26.90625 29.890625 
Q 32.328125 28.5625 34.515625 25.09375 
Q 36.71875 21.625 36.71875 14.015625 
L 36.71875 1.90625 
Q 36.71875 -4.984375 38.8125 -7.125 
Q 40.921875 -9.28125 47.796875 -9.28125 
z
" id="BitstreamVeraSans-Roman-7b"/>
     <path d="M 11.71875 12.40625 
L 22.015625 12.40625 
L 22.015625 4 
L 14.015625 -11.625 
L 7.71875 -11.625 
L 11.71875 4 
z
" id="BitstreamVeraSans-Roman-2c"/>
    </defs>
    <g transform="translate(397.5302 376.38)scale(0.2 -0.2)">
     <use xlink:href="#BitstreamVeraSans-Roman-7b"/>
     <use x="63.623046875" xlink:href="#BitstreamVeraSans-Roman-66"/>
     <use x="98.828125" xlink:href="#BitstreamVeraSans-Roman-31"/>
     <use x="162.451171875" xlink:href="#BitstreamVeraSans-Roman-30"/>
     <use x="226.07421875" xlink:href="#BitstreamVeraSans-Roman-2d"/>
     <use x="262.158203125" xlink:href="#BitstreamVeraSans-Roman-66"/>
     <use x="297.36328125" xlink:href="#BitstreamVeraSans-Roman-31"/>
     <use x="360.986328125" xlink:href="#BitstreamVeraSans-Roman-34"/>
     <use x="424.609375" xlink:href="#BitstreamVeraSans-Roman-7d"/>
     <use x="488.232421875" xlink:href="#BitstreamVeraSans-Roman-2c"/>
     <use x="520.01953125" xlink:href="#BitstreamVeraSans-Roman-20"/>
     <use x="551.806640625" xlink:href="#BitstreamVeraSans-Roman-32"/>
     <use x="615.4296875" xlink:href="#BitstreamVeraSans-Roman-30"/>
     <use x="679.052734375" xlink:href="#BitstreamVeraSans-Roman-2d"/>
     <use x="715.13671875" xlink:href="#BitstreamVeraSans-Roman-44"/>
    </g>
   </g>
   <g id="text_11">
    <!-- v2.2.1.10 -->
    <defs>
     <path d="M 2.984375 54.6875 
L 12.5 54.6875 
L 29.59375 8.796875 
L 46.6875 54.6875 
L 56.203125 54.6875 
L 35.6875 0 
L 23.484375 0 
z
" id="BitstreamVeraSans-Roman-76"/>
     <path d="M 10.6875 12.40625 
L 21 12.40625 
L 21 0 
L 10.6875 0 
z
" id="BitstreamVeraSans-Roman-2e"/>
    </defs>
    <g style="fill:#808080;" transform="translate(261.4871875 378.1103125)scale(0.1 -0.1)">
     <use xlink:href="#BitstreamVeraSans-Roman-76"/>
     <use x="59.1796875" xlink:href="#BitstreamVeraSans-Roman-32"/>
     <use x="122.802734375" xlink:href="#BitstreamVeraSans-Roman-2e"/>
     <use x="154.58984375" xlink:href="#BitstreamVeraSans-Roman-32"/>
     <use x="218.212890625" xlink:href="#BitstreamVeraSans-Roman-2e"/>
     <use x="250.0" xlink:href="#BitstreamVeraSans-Roman-31"/>
     <use x="313.623046875" xlink:href="#BitstreamVeraSans-Roman-2e"/>
     <use x="345.41015625" xlink:href="#BitstreamVeraSans-Roman-31"/>
     <use x="409.033203125" xlink:href="#BitstreamVeraSans-Roman-30"/>
    </g>
   </g>
  </g>
 </g>
 <defs>
  <clipPath id="pa76c6657f0">
   <rect height="381.0" width="564.24" x="3.0" y="3.0"/>
  </clipPath>
 </defs>
</svg>
