<?xml version="1.0" encoding="utf-8" standalone="no"?>
<!DOCTYPE svg PUBLIC "-//W3C//DTD SVG 1.1//EN"
  "http://www.w3.org/Graphics/SVG/1.1/DTD/svg11.dtd">
<!-- Created with matplotlib (http://matplotlib.org/) -->
<svg height="432pt" version="1.1" viewBox="0 0 576 432" width="576pt" xmlns="http://www.w3.org/2000/svg" xmlns:xlink="http://www.w3.org/1999/xlink">
 <defs>
  <style type="text/css">
*{stroke-linecap:butt;stroke-linejoin:round;stroke-miterlimit:100000;}
  </style>
 </defs>
 <g id="figure_1">
  <g id="patch_1">
   <path d="M 0 432 
L 576 432 
L 576 0 
L 0 0 
z
" style="fill:#ffffff;"/>
  </g>
  <g id="axes_1">
   <g id="patch_2">
    <path d="M 3 384 
L 567.24 384 
L 567.24 3 
L 3 3 
z
" style="fill:#ffffff;"/>
   </g>
   <g id="line2d_1">
    <path clip-path="url(#p1f818869d2)" d="M 262.785124 384 
L 262.785124 377.712871 
L 278.423377 377.712871 
L 278.423377 371.425743 
L 281.30067 371.425743 
L 281.30067 365.138614 
L 281.739079 365.138614 
L 281.739079 358.851485 
L 283.813435 358.851485 
L 283.813435 352.564356 
L 285.639404 352.564356 
L 285.639404 346.277228 
L 286.453467 346.277228 
L 286.453467 339.990099 
L 286.925614 339.990099 
L 286.925614 333.70297 
L 288.742759 333.70297 
L 288.742759 327.415842 
L 289.916717 327.415842 
L 289.916717 321.128713 
L 292.047012 321.128713 
L 292.047012 314.841584 
L 293.195562 314.841584 
L 293.195562 308.554455 
L 293.658003 308.554455 
L 293.658003 302.267327 
L 293.71464 302.267327 
L 293.71464 295.980198 
L 294.117806 295.980198 
L 294.117806 289.693069 
L 294.696402 289.693069 
L 294.696402 283.405941 
L 294.984926 283.405941 
L 294.984926 277.118812 
L 295.406077 277.118812 
L 295.406077 270.831683 
L 295.452183 270.831683 
L 295.452183 264.544554 
L 295.848768 264.544554 
L 295.848768 258.257426 
L 296.050509 258.257426 
L 296.050509 251.970297 
L 296.165625 251.970297 
L 296.165625 245.683168 
L 296.631635 245.683168 
L 296.631635 239.39604 
L 296.681674 239.39604 
L 296.681674 233.108911 
L 296.859292 233.108911 
L 296.859292 226.821782 
L 297.462774 226.821782 
L 297.462774 220.534653 
L 297.633437 220.534653 
L 297.633437 214.247525 
L 298.505512 214.247525 
L 298.505512 207.960396 
L 298.937516 207.960396 
L 298.937516 201.673267 
L 299.828506 201.673267 
L 299.828506 195.386139 
L 300.291616 195.386139 
L 300.291616 189.09901 
L 300.426907 189.09901 
L 300.426907 182.811881 
L 301.360468 182.811881 
L 301.360468 176.524752 
L 302.289511 176.524752 
L 302.289511 170.237624 
L 302.38903 170.237624 
L 302.38903 163.950495 
L 303.502539 163.950495 
L 303.502539 157.663366 
L 304.050268 157.663366 
L 304.050268 151.376238 
L 304.23559 151.376238 
L 304.23559 145.089109 
L 304.776448 145.089109 
L 304.776448 138.80198 
L 305.24249 138.80198 
L 305.24249 132.514851 
L 305.312296 132.514851 
L 305.312296 126.227723 
L 305.687297 126.227723 
L 305.687297 119.940594 
L 305.930853 119.940594 
L 305.930853 113.653465 
L 306.171936 113.653465 
L 306.171936 107.366337 
L 307.081694 107.366337 
L 307.081694 101.079208 
L 307.376687 101.079208 
L 307.376687 94.792079 
L 308.208227 94.792079 
L 308.208227 88.50495 
L 308.761413 88.50495 
L 308.761413 82.217822 
L 308.970958 82.217822 
L 308.970958 75.930693 
L 309.352779 75.930693 
L 309.352779 69.643564 
L 309.949989 69.643564 
L 309.949989 63.356436 
L 312.419505 63.356436 
L 312.419505 57.069307 
L 313.412715 57.069307 
L 313.412715 50.782178 
L 313.507041 50.782178 
L 313.507041 44.49505 
L 313.570807 44.49505 
L 313.570807 38.207921 
L 313.853881 38.207921 
L 313.853881 31.920792 
L 314.627291 31.920792 
L 314.627291 25.633663 
L 315.424493 25.633663 
L 315.424493 19.346535 
L 315.902283 19.346535 
L 315.902283 13.059406 
L 321.03465 13.059406 
L 321.03465 6.772277 
L 321.03465 6.772277 
L 321.03465 6.772277 
L 567.24 6.772277 
" style="fill:none;stroke:#ff0000;stroke-linecap:square;stroke-width:3.0;"/>
   </g>
   <g id="line2d_2">
    <path clip-path="url(#p1f818869d2)" d="M 305.557728 384 
L 305.557728 377.712871 
L 309.991739 377.712871 
L 309.991739 371.425743 
L 315.424493 371.425743 
L 315.424493 365.138614 
L 315.424493 365.138614 
L 315.424493 358.851485 
L 315.424493 358.851485 
L 315.424493 352.564356 
L 315.424493 352.564356 
L 315.424493 346.277228 
L 315.424493 346.277228 
L 315.424493 339.990099 
L 315.424493 339.990099 
L 315.424493 333.70297 
L 315.424493 333.70297 
L 315.424493 327.415842 
L 315.424493 327.415842 
L 315.424493 321.128713 
L 315.424493 321.128713 
L 315.424493 314.841584 
L 315.424493 314.841584 
L 315.424493 308.554455 
L 315.424493 308.554455 
L 315.424493 302.267327 
L 315.424493 302.267327 
L 315.424493 295.980198 
L 315.424493 295.980198 
L 315.424493 289.693069 
L 315.424493 289.693069 
L 315.424493 283.405941 
L 315.424493 283.405941 
L 315.424493 277.118812 
L 318.330695 277.118812 
L 318.330695 270.831683 
L 318.724258 270.831683 
L 318.724258 264.544554 
L 321.712264 264.544554 
L 321.712264 258.257426 
L 323.520268 258.257426 
L 323.520268 251.970297 
L 332.289104 251.970297 
L 332.289104 245.683168 
L 338.680223 245.683168 
L 338.680223 239.39604 
L 341.178937 239.39604 
L 341.178937 233.108911 
L 343.648051 233.108911 
L 343.648051 226.821782 
L 344.924295 226.821782 
L 344.924295 220.534653 
L 345.658863 220.534653 
L 345.658863 214.247525 
L 345.897892 214.247525 
L 345.897892 207.960396 
L 349.37529 207.960396 
L 349.37529 201.673267 
L 349.727859 201.673267 
L 349.727859 195.386139 
L 355.485455 195.386139 
L 355.485455 189.09901 
L 372.125653 189.09901 
L 372.125653 182.811881 
L 381.690101 182.811881 
L 381.690101 176.524752 
L 387.720286 176.524752 
L 387.720286 170.237624 
L 388.733672 170.237624 
L 388.733672 163.950495 
L 391.445516 163.950495 
L 391.445516 157.663366 
L 391.667693 157.663366 
L 391.667693 151.376238 
L 394.219929 151.376238 
L 394.219929 145.089109 
L 397.235031 145.089109 
L 397.235031 138.80198 
L 403.222055 138.80198 
L 403.222055 132.514851 
L 404.728806 132.514851 
L 404.728806 126.227723 
L 406.588107 126.227723 
L 406.588107 119.940594 
L 407.723203 119.940594 
L 407.723203 113.653465 
L 409.792821 113.653465 
L 409.792821 107.366337 
L 409.924039 107.366337 
L 409.924039 101.079208 
L 413.999867 101.079208 
L 413.999867 94.792079 
L 422.589538 94.792079 
L 422.589538 88.50495 
L 424.366355 88.50495 
L 424.366355 82.217822 
L 425.841476 82.217822 
L 425.841476 75.930693 
L 427.908037 75.930693 
L 427.908037 69.643564 
L 431.098939 69.643564 
L 431.098939 63.356436 
L 436.191934 63.356436 
L 436.191934 57.069307 
L 436.781234 57.069307 
L 436.781234 50.782178 
L 436.795238 50.782178 
L 436.795238 44.49505 
L 438.33643 44.49505 
L 438.33643 38.207921 
L 439.67264 38.207921 
L 439.67264 31.920792 
L 441.352124 31.920792 
L 441.352124 25.633663 
L 442.656455 25.633663 
L 442.656455 19.346535 
L 455.648993 19.346535 
L 455.648993 13.059406 
L 459.755728 13.059406 
L 459.755728 6.772277 
L 459.755728 6.772277 
L 459.755728 6.772277 
L 567.24 6.772277 
" style="fill:none;stroke:#00bfbf;stroke-linecap:square;"/>
   </g>
   <g id="line2d_3">
    <path clip-path="url(#p1f818869d2)" d="M 305.557728 384 
L 305.557728 377.712871 
L 309.991739 377.712871 
L 309.991739 371.425743 
L 311.387519 371.425743 
L 311.387519 365.138614 
L 315.424493 365.138614 
L 315.424493 358.851485 
L 315.424493 358.851485 
L 315.424493 352.564356 
L 315.424493 352.564356 
L 315.424493 346.277228 
L 315.424493 346.277228 
L 315.424493 339.990099 
L 315.424493 339.990099 
L 315.424493 333.70297 
L 315.424493 333.70297 
L 315.424493 327.415842 
L 315.424493 327.415842 
L 315.424493 321.128713 
L 315.424493 321.128713 
L 315.424493 314.841584 
L 315.424493 314.841584 
L 315.424493 308.554455 
L 315.424493 308.554455 
L 315.424493 302.267327 
L 315.424493 302.267327 
L 315.424493 295.980198 
L 315.424493 295.980198 
L 315.424493 289.693069 
L 315.424493 289.693069 
L 315.424493 283.405941 
L 315.424493 283.405941 
L 315.424493 277.118812 
L 315.424493 277.118812 
L 315.424493 270.831683 
L 318.330695 270.831683 
L 318.330695 264.544554 
L 318.724258 264.544554 
L 318.724258 258.257426 
L 321.712264 258.257426 
L 321.712264 251.970297 
L 321.912293 251.970297 
L 321.912293 245.683168 
L 323.520268 245.683168 
L 323.520268 239.39604 
L 332.289104 239.39604 
L 332.289104 233.108911 
L 338.70103 233.108911 
L 338.70103 226.821782 
L 341.178937 226.821782 
L 341.178937 220.534653 
L 342.364489 220.534653 
L 342.364489 214.247525 
L 343.19091 214.247525 
L 343.19091 207.960396 
L 343.648051 207.960396 
L 343.648051 201.673267 
L 344.924295 201.673267 
L 344.924295 195.386139 
L 345.658863 195.386139 
L 345.658863 189.09901 
L 345.897892 189.09901 
L 345.897892 182.811881 
L 349.37529 182.811881 
L 349.37529 176.524752 
L 372.125653 176.524752 
L 372.125653 170.237624 
L 381.690101 170.237624 
L 381.690101 163.950495 
L 387.720286 163.950495 
L 387.720286 157.663366 
L 387.856436 157.663366 
L 387.856436 151.376238 
L 388.733672 151.376238 
L 388.733672 145.089109 
L 391.445516 145.089109 
L 391.445516 138.80198 
L 391.667693 138.80198 
L 391.667693 132.514851 
L 394.219929 132.514851 
L 394.219929 126.227723 
L 396.707916 126.227723 
L 396.707916 119.940594 
L 397.235031 119.940594 
L 397.235031 113.653465 
L 403.222055 113.653465 
L 403.222055 107.366337 
L 404.728806 107.366337 
L 404.728806 101.079208 
L 406.588107 101.079208 
L 406.588107 94.792079 
L 407.723203 94.792079 
L 407.723203 88.50495 
L 409.792821 88.50495 
L 409.792821 82.217822 
L 418.493888 82.217822 
L 418.493888 75.930693 
L 420.663707 75.930693 
L 420.663707 69.643564 
L 422.589538 69.643564 
L 422.589538 63.356436 
L 424.366355 63.356436 
L 424.366355 57.069307 
L 425.841476 57.069307 
L 425.841476 50.782178 
L 436.547538 50.782178 
L 436.547538 44.49505 
L 436.795238 44.49505 
L 436.795238 38.207921 
L 437.762747 38.207921 
L 437.762747 31.920792 
L 438.33643 31.920792 
L 438.33643 25.633663 
L 439.360254 25.633663 
L 439.360254 19.346535 
L 453.061021 19.346535 
L 453.061021 13.059406 
L 455.648993 13.059406 
L 455.648993 6.772277 
L 455.648993 6.772277 
L 455.648993 6.772277 
L 567.24 6.772277 
" style="fill:none;stroke:#bf00bf;stroke-linecap:square;"/>
   </g>
   <g id="line2d_4">
    <path clip-path="url(#p1f818869d2)" d="M 305.557728 384 
L 305.557728 377.712871 
L 309.991739 377.712871 
L 309.991739 371.425743 
L 311.387519 371.425743 
L 311.387519 365.138614 
L 312.74882 365.138614 
L 312.74882 358.851485 
L 315.424493 358.851485 
L 315.424493 352.564356 
L 315.424493 352.564356 
L 315.424493 346.277228 
L 315.424493 346.277228 
L 315.424493 339.990099 
L 315.424493 339.990099 
L 315.424493 333.70297 
L 315.424493 333.70297 
L 315.424493 327.415842 
L 315.424493 327.415842 
L 315.424493 321.128713 
L 315.424493 321.128713 
L 315.424493 314.841584 
L 315.424493 314.841584 
L 315.424493 308.554455 
L 315.424493 308.554455 
L 315.424493 302.267327 
L 315.424493 302.267327 
L 315.424493 295.980198 
L 315.424493 295.980198 
L 315.424493 289.693069 
L 315.424493 289.693069 
L 315.424493 283.405941 
L 315.424493 283.405941 
L 315.424493 277.118812 
L 315.424493 277.118812 
L 315.424493 270.831683 
L 315.424493 270.831683 
L 315.424493 264.544554 
L 318.330695 264.544554 
L 318.330695 258.257426 
L 318.724258 258.257426 
L 318.724258 251.970297 
L 321.712264 251.970297 
L 321.712264 245.683168 
L 321.912293 245.683168 
L 321.912293 239.39604 
L 322.865315 239.39604 
L 322.865315 233.108911 
L 323.520268 233.108911 
L 323.520268 226.821782 
L 325.260973 226.821782 
L 325.260973 220.534653 
L 326.656331 220.534653 
L 326.656331 214.247525 
L 328.388468 214.247525 
L 328.388468 207.960396 
L 331.686437 207.960396 
L 331.686437 201.673267 
L 332.289104 201.673267 
L 332.289104 195.386139 
L 337.25665 195.386139 
L 337.25665 189.09901 
L 337.343305 189.09901 
L 337.343305 182.811881 
L 338.582855 182.811881 
L 338.582855 176.524752 
L 338.70103 176.524752 
L 338.70103 170.237624 
L 339.518035 170.237624 
L 339.518035 163.950495 
L 345.897892 163.950495 
L 345.897892 157.663366 
L 365.594445 157.663366 
L 365.594445 151.376238 
L 372.125653 151.376238 
L 372.125653 145.089109 
L 376.460715 145.089109 
L 376.460715 138.80198 
L 381.690101 138.80198 
L 381.690101 132.514851 
L 386.484392 132.514851 
L 386.484392 126.227723 
L 387.720286 126.227723 
L 387.720286 119.940594 
L 387.856436 119.940594 
L 387.856436 113.653465 
L 388.715248 113.653465 
L 388.715248 107.366337 
L 388.733672 107.366337 
L 388.733672 101.079208 
L 389.082919 101.079208 
L 389.082919 94.792079 
L 391.445516 94.792079 
L 391.445516 88.50495 
L 391.667693 88.50495 
L 391.667693 82.217822 
L 396.707916 82.217822 
L 396.707916 75.930693 
L 397.235031 75.930693 
L 397.235031 69.643564 
L 400.834748 69.643564 
L 400.834748 63.356436 
L 406.213731 63.356436 
L 406.213731 57.069307 
L 407.925086 57.069307 
L 407.925086 50.782178 
L 409.116867 50.782178 
L 409.116867 44.49505 
L 409.425646 44.49505 
L 409.425646 38.207921 
L 418.493888 38.207921 
L 418.493888 31.920792 
L 430.214994 31.920792 
L 430.214994 25.633663 
L 436.795238 25.633663 
L 436.795238 19.346535 
L 437.762747 19.346535 
L 437.762747 13.059406 
L 450.305925 13.059406 
L 450.305925 6.772277 
L 450.305925 6.772277 
L 450.305925 6.772277 
L 567.24 6.772277 
" style="fill:none;stroke:#000000;stroke-linecap:square;"/>
   </g>
   <g id="line2d_5">
    <path clip-path="url(#p1f818869d2)" d="M 305.557728 384 
L 305.557728 377.712871 
L 309.991739 377.712871 
L 309.991739 371.425743 
L 311.387519 371.425743 
L 311.387519 365.138614 
L 312.205235 365.138614 
L 312.205235 358.851485 
L 312.74882 358.851485 
L 312.74882 352.564356 
L 315.273878 352.564356 
L 315.273878 346.277228 
L 315.424493 346.277228 
L 315.424493 339.990099 
L 315.424493 339.990099 
L 315.424493 333.70297 
L 315.424493 333.70297 
L 315.424493 327.415842 
L 315.424493 327.415842 
L 315.424493 321.128713 
L 315.424493 321.128713 
L 315.424493 314.841584 
L 315.424493 314.841584 
L 315.424493 308.554455 
L 315.424493 308.554455 
L 315.424493 302.267327 
L 315.424493 302.267327 
L 315.424493 295.980198 
L 315.424493 295.980198 
L 315.424493 289.693069 
L 315.424493 289.693069 
L 315.424493 283.405941 
L 315.424493 283.405941 
L 315.424493 277.118812 
L 315.424493 277.118812 
L 315.424493 270.831683 
L 315.424493 270.831683 
L 315.424493 264.544554 
L 315.424493 264.544554 
L 315.424493 258.257426 
L 315.424493 258.257426 
L 315.424493 251.970297 
L 318.330695 251.970297 
L 318.330695 245.683168 
L 318.724258 245.683168 
L 318.724258 239.39604 
L 319.488958 239.39604 
L 319.488958 233.108911 
L 321.912293 233.108911 
L 321.912293 226.821782 
L 322.745438 226.821782 
L 322.745438 220.534653 
L 322.865315 220.534653 
L 322.865315 214.247525 
L 325.651195 214.247525 
L 325.651195 207.960396 
L 326.268012 207.960396 
L 326.268012 201.673267 
L 326.656331 201.673267 
L 326.656331 195.386139 
L 327.718077 195.386139 
L 327.718077 189.09901 
L 328.262441 189.09901 
L 328.262441 182.811881 
L 328.388468 182.811881 
L 328.388468 176.524752 
L 330.794605 176.524752 
L 330.794605 170.237624 
L 337.25665 170.237624 
L 337.25665 163.950495 
L 345.897892 163.950495 
L 345.897892 157.663366 
L 365.594445 157.663366 
L 365.594445 151.376238 
L 372.125653 151.376238 
L 372.125653 145.089109 
L 376.460715 145.089109 
L 376.460715 138.80198 
L 381.690101 138.80198 
L 381.690101 132.514851 
L 386.484392 132.514851 
L 386.484392 126.227723 
L 387.720286 126.227723 
L 387.720286 119.940594 
L 387.856436 119.940594 
L 387.856436 113.653465 
L 388.715248 113.653465 
L 388.715248 107.366337 
L 388.733672 107.366337 
L 388.733672 101.079208 
L 389.082919 101.079208 
L 389.082919 94.792079 
L 391.445516 94.792079 
L 391.445516 88.50495 
L 391.667693 88.50495 
L 391.667693 82.217822 
L 396.707916 82.217822 
L 396.707916 75.930693 
L 397.235031 75.930693 
L 397.235031 69.643564 
L 400.834748 69.643564 
L 400.834748 63.356436 
L 405.022507 63.356436 
L 405.022507 57.069307 
L 406.213731 57.069307 
L 406.213731 50.782178 
L 407.925086 50.782178 
L 407.925086 44.49505 
L 409.116867 44.49505 
L 409.116867 38.207921 
L 409.425646 38.207921 
L 409.425646 31.920792 
L 430.214994 31.920792 
L 430.214994 25.633663 
L 436.795238 25.633663 
L 436.795238 19.346535 
L 437.762747 19.346535 
L 437.762747 13.059406 
L 450.305925 13.059406 
L 450.305925 6.772277 
L 450.305925 6.772277 
L 450.305925 6.772277 
L 567.24 6.772277 
" style="fill:none;stroke:#00bfbf;stroke-linecap:square;"/>
   </g>
   <g id="line2d_6">
    <path clip-path="url(#p1f818869d2)" d="M 278.423377 384 
L 278.423377 377.712871 
L 289.916717 377.712871 
L 289.916717 371.425743 
L 303.385487 371.425743 
L 303.385487 365.138614 
L 304.914198 365.138614 
L 304.914198 358.851485 
L 305.42477 358.851485 
L 305.42477 352.564356 
L 305.493828 352.564356 
L 305.493828 346.277228 
L 308.899743 346.277228 
L 308.899743 339.990099 
L 309.991739 339.990099 
L 309.991739 333.70297 
L 310.463378 333.70297 
L 310.463378 327.415842 
L 311.387519 327.415842 
L 311.387519 321.128713 
L 312.38561 321.128713 
L 312.38561 314.841584 
L 312.74882 314.841584 
L 312.74882 308.554455 
L 313.063293 308.554455 
L 313.063293 302.267327 
L 315.424493 302.267327 
L 315.424493 295.980198 
L 315.424493 295.980198 
L 315.424493 289.693069 
L 315.424493 289.693069 
L 315.424493 283.405941 
L 315.424493 283.405941 
L 315.424493 277.118812 
L 315.424493 277.118812 
L 315.424493 270.831683 
L 315.424493 270.831683 
L 315.424493 264.544554 
L 315.424493 264.544554 
L 315.424493 258.257426 
L 315.424493 258.257426 
L 315.424493 251.970297 
L 315.424493 251.970297 
L 315.424493 245.683168 
L 315.424493 245.683168 
L 315.424493 239.39604 
L 315.424493 239.39604 
L 315.424493 233.108911 
L 315.424493 233.108911 
L 315.424493 226.821782 
L 315.424493 226.821782 
L 315.424493 220.534653 
L 315.424493 220.534653 
L 315.424493 214.247525 
L 315.424493 214.247525 
L 315.424493 207.960396 
L 316.851378 207.960396 
L 316.851378 201.673267 
L 319.154796 201.673267 
L 319.154796 195.386139 
L 319.788048 195.386139 
L 319.788048 189.09901 
L 320.821077 189.09901 
L 320.821077 182.811881 
L 321.32683 182.811881 
L 321.32683 176.524752 
L 322.745438 176.524752 
L 322.745438 170.237624 
L 323.323989 170.237624 
L 323.323989 163.950495 
L 324.861694 163.950495 
L 324.861694 157.663366 
L 328.388468 157.663366 
L 328.388468 151.376238 
L 332.214151 151.376238 
L 332.214151 145.089109 
L 334.45524 145.089109 
L 334.45524 138.80198 
L 337.25665 138.80198 
L 337.25665 132.514851 
L 337.791381 132.514851 
L 337.791381 126.227723 
L 337.792525 126.227723 
L 337.792525 119.940594 
L 341.123491 119.940594 
L 341.123491 113.653465 
L 344.29785 113.653465 
L 344.29785 107.366337 
L 346.087159 107.366337 
L 346.087159 101.079208 
L 351.975673 101.079208 
L 351.975673 94.792079 
L 363.170113 94.792079 
L 363.170113 88.50495 
L 365.594445 88.50495 
L 365.594445 82.217822 
L 366.283368 82.217822 
L 366.283368 75.930693 
L 367.916434 75.930693 
L 367.916434 69.643564 
L 368.215943 69.643564 
L 368.215943 63.356436 
L 368.74385 63.356436 
L 368.74385 57.069307 
L 369.499122 57.069307 
L 369.499122 50.782178 
L 371.885699 50.782178 
L 371.885699 44.49505 
L 372.445825 44.49505 
L 372.445825 38.207921 
L 372.631947 38.207921 
L 372.631947 31.920792 
L 378.880053 31.920792 
L 378.880053 25.633663 
L 380.272387 25.633663 
L 380.272387 19.346535 
L 393.641275 19.346535 
L 393.641275 13.059406 
L 425.413986 13.059406 
L 425.413986 6.772277 
L 425.413986 6.772277 
L 425.413986 6.772277 
L 567.24 6.772277 
" style="fill:none;stroke:#bf00bf;stroke-linecap:square;"/>
   </g>
   <g id="line2d_7">
    <path clip-path="url(#p1f818869d2)" d="M 278.423377 384 
L 278.423377 377.712871 
L 283.813435 377.712871 
L 283.813435 371.425743 
L 289.916717 371.425743 
L 289.916717 365.138614 
L 292.047012 365.138614 
L 292.047012 358.851485 
L 294.2541 358.851485 
L 294.2541 352.564356 
L 294.264418 352.564356 
L 294.264418 346.277228 
L 296.304475 346.277228 
L 296.304475 339.990099 
L 296.329826 339.990099 
L 296.329826 333.70297 
L 301.066693 333.70297 
L 301.066693 327.415842 
L 303.385487 327.415842 
L 303.385487 321.128713 
L 304.914198 321.128713 
L 304.914198 314.841584 
L 305.079737 314.841584 
L 305.079737 308.554455 
L 306.077554 308.554455 
L 306.077554 302.267327 
L 306.298902 302.267327 
L 306.298902 295.980198 
L 306.313301 295.980198 
L 306.313301 289.693069 
L 310.094167 289.693069 
L 310.094167 283.405941 
L 310.75965 283.405941 
L 310.75965 277.118812 
L 311.387519 277.118812 
L 311.387519 270.831683 
L 311.60226 270.831683 
L 311.60226 264.544554 
L 311.909705 264.544554 
L 311.909705 258.257426 
L 312.74882 258.257426 
L 312.74882 251.970297 
L 314.165406 251.970297 
L 314.165406 245.683168 
L 314.3127 245.683168 
L 314.3127 239.39604 
L 315.424493 239.39604 
L 315.424493 233.108911 
L 315.424493 233.108911 
L 315.424493 226.821782 
L 315.424493 226.821782 
L 315.424493 220.534653 
L 315.424493 220.534653 
L 315.424493 214.247525 
L 315.424493 214.247525 
L 315.424493 207.960396 
L 315.424493 207.960396 
L 315.424493 201.673267 
L 315.424493 201.673267 
L 315.424493 195.386139 
L 315.424493 195.386139 
L 315.424493 189.09901 
L 315.424493 189.09901 
L 315.424493 182.811881 
L 315.424493 182.811881 
L 315.424493 176.524752 
L 315.424493 176.524752 
L 315.424493 170.237624 
L 315.424493 170.237624 
L 315.424493 163.950495 
L 315.424493 163.950495 
L 315.424493 157.663366 
L 315.424493 157.663366 
L 315.424493 151.376238 
L 315.424493 151.376238 
L 315.424493 145.089109 
L 317.280687 145.089109 
L 317.280687 138.80198 
L 317.924535 138.80198 
L 317.924535 132.514851 
L 320.833153 132.514851 
L 320.833153 126.227723 
L 322.927762 126.227723 
L 322.927762 119.940594 
L 325.552525 119.940594 
L 325.552525 113.653465 
L 327.125885 113.653465 
L 327.125885 107.366337 
L 328.391659 107.366337 
L 328.391659 101.079208 
L 328.710234 101.079208 
L 328.710234 94.792079 
L 330.274867 94.792079 
L 330.274867 88.50495 
L 331.704281 88.50495 
L 331.704281 82.217822 
L 334.199818 82.217822 
L 334.199818 75.930693 
L 335.417618 75.930693 
L 335.417618 69.643564 
L 337.792525 69.643564 
L 337.792525 63.356436 
L 340.396887 63.356436 
L 340.396887 57.069307 
L 340.50126 57.069307 
L 340.50126 50.782178 
L 340.739001 50.782178 
L 340.739001 44.49505 
L 341.123491 44.49505 
L 341.123491 38.207921 
L 341.731337 38.207921 
L 341.731337 31.920792 
L 348.800841 31.920792 
L 348.800841 25.633663 
L 348.835037 25.633663 
L 348.835037 19.346535 
L 351.206534 19.346535 
L 351.206534 13.059406 
L 351.795853 13.059406 
L 351.795853 6.772277 
L 351.795853 6.772277 
L 351.795853 6.772277 
L 567.24 6.772277 
" style="fill:none;stroke:#000000;stroke-linecap:square;"/>
   </g>
   <g id="line2d_8">
    <path clip-path="url(#p1f818869d2)" d="M 262.785124 384 
L 262.785124 377.712871 
L 278.423377 377.712871 
L 278.423377 371.425743 
L 281.30067 371.425743 
L 281.30067 365.138614 
L 281.739079 365.138614 
L 281.739079 358.851485 
L 283.813435 358.851485 
L 283.813435 352.564356 
L 285.639404 352.564356 
L 285.639404 346.277228 
L 286.453467 346.277228 
L 286.453467 339.990099 
L 286.925614 339.990099 
L 286.925614 333.70297 
L 288.742759 333.70297 
L 288.742759 327.415842 
L 289.916717 327.415842 
L 289.916717 321.128713 
L 292.047012 321.128713 
L 292.047012 314.841584 
L 293.195562 314.841584 
L 293.195562 308.554455 
L 293.658003 308.554455 
L 293.658003 302.267327 
L 293.71464 302.267327 
L 293.71464 295.980198 
L 294.117806 295.980198 
L 294.117806 289.693069 
L 294.696402 289.693069 
L 294.696402 283.405941 
L 294.984926 283.405941 
L 294.984926 277.118812 
L 295.406077 277.118812 
L 295.406077 270.831683 
L 295.452183 270.831683 
L 295.452183 264.544554 
L 295.848768 264.544554 
L 295.848768 258.257426 
L 296.050509 258.257426 
L 296.050509 251.970297 
L 296.165625 251.970297 
L 296.165625 245.683168 
L 296.631635 245.683168 
L 296.631635 239.39604 
L 296.681674 239.39604 
L 296.681674 233.108911 
L 296.859292 233.108911 
L 296.859292 226.821782 
L 297.462774 226.821782 
L 297.462774 220.534653 
L 297.633437 220.534653 
L 297.633437 214.247525 
L 298.505512 214.247525 
L 298.505512 207.960396 
L 298.937516 207.960396 
L 298.937516 201.673267 
L 299.828506 201.673267 
L 299.828506 195.386139 
L 300.291616 195.386139 
L 300.291616 189.09901 
L 300.426907 189.09901 
L 300.426907 182.811881 
L 301.360468 182.811881 
L 301.360468 176.524752 
L 302.289511 176.524752 
L 302.289511 170.237624 
L 302.38903 170.237624 
L 302.38903 163.950495 
L 303.502539 163.950495 
L 303.502539 157.663366 
L 304.050268 157.663366 
L 304.050268 151.376238 
L 304.23559 151.376238 
L 304.23559 145.089109 
L 304.776448 145.089109 
L 304.776448 138.80198 
L 305.24249 138.80198 
L 305.24249 132.514851 
L 305.312296 132.514851 
L 305.312296 126.227723 
L 305.687297 126.227723 
L 305.687297 119.940594 
L 305.930853 119.940594 
L 305.930853 113.653465 
L 306.171936 113.653465 
L 306.171936 107.366337 
L 307.081694 107.366337 
L 307.081694 101.079208 
L 307.376687 101.079208 
L 307.376687 94.792079 
L 308.208227 94.792079 
L 308.208227 88.50495 
L 308.761413 88.50495 
L 308.761413 82.217822 
L 308.970958 82.217822 
L 308.970958 75.930693 
L 309.352779 75.930693 
L 309.352779 69.643564 
L 309.949989 69.643564 
L 309.949989 63.356436 
L 312.419505 63.356436 
L 312.419505 57.069307 
L 313.412715 57.069307 
L 313.412715 50.782178 
L 313.507041 50.782178 
L 313.507041 44.49505 
L 313.570807 44.49505 
L 313.570807 38.207921 
L 313.853881 38.207921 
L 313.853881 31.920792 
L 314.627291 31.920792 
L 314.627291 25.633663 
L 315.424493 25.633663 
L 315.424493 19.346535 
L 315.902283 19.346535 
L 315.902283 13.059406 
L 321.03465 13.059406 
L 321.03465 6.772277 
L 321.03465 6.772277 
L 321.03465 6.772277 
L 567.24 6.772277 
" style="fill:none;stroke:#00bfbf;stroke-linecap:square;"/>
   </g>
   <g id="patch_3">
    <path d="M 3 3 
L 567.24 3 
" style="fill:none;stroke:#000000;stroke-linecap:square;stroke-linejoin:miter;"/>
   </g>
   <g id="patch_4">
    <path d="M 567.24 384 
L 567.24 3 
" style="fill:none;stroke:#000000;stroke-linecap:square;stroke-linejoin:miter;"/>
   </g>
   <g id="patch_5">
    <path d="M 3 384 
L 567.24 384 
" style="fill:none;stroke:#000000;stroke-linecap:square;stroke-linejoin:miter;"/>
   </g>
   <g id="patch_6">
    <path d="M 3 384 
L 3 3 
" style="fill:none;stroke:#000000;stroke-linecap:square;stroke-linejoin:miter;"/>
   </g>
   <g id="matplotlib.axis_1">
    <g id="xtick_1"/>
    <g id="xtick_2">
     <g id="line2d_9">
      <path clip-path="url(#p1f818869d2)" d="M 69.254589 384 
L 69.254589 3 
" style="fill:none;stroke:#000000;stroke-dasharray:1.000000,3.000000;stroke-dashoffset:0.0;stroke-width:0.5;"/>
     </g>
     <g id="line2d_10">
      <defs>
       <path d="M 0 0 
L 0 -4 
" id="m0d85167050" style="stroke:#000000;stroke-width:0.5;"/>
      </defs>
      <g>
       <use style="stroke:#000000;stroke-width:0.5;" x="69.2545893472" xlink:href="#m0d85167050" y="384.0"/>
      </g>
     </g>
     <g id="line2d_11">
      <defs>
       <path d="M 0 0 
L 0 4 
" id="m1d390e123e" style="stroke:#000000;stroke-width:0.5;"/>
      </defs>
      <g>
       <use style="stroke:#000000;stroke-width:0.5;" x="69.2545893472" xlink:href="#m1d390e123e" y="3.0"/>
      </g>
     </g>
     <g id="text_1">
      <!-- -6 -->
      <defs>
       <path d="M 33.015625 40.375 
Q 26.375 40.375 22.484375 35.828125 
Q 18.609375 31.296875 18.609375 23.390625 
Q 18.609375 15.53125 22.484375 10.953125 
Q 26.375 6.390625 33.015625 6.390625 
Q 39.65625 6.390625 43.53125 10.953125 
Q 47.40625 15.53125 47.40625 23.390625 
Q 47.40625 31.296875 43.53125 35.828125 
Q 39.65625 40.375 33.015625 40.375 
M 52.59375 71.296875 
L 52.59375 62.3125 
Q 48.875 64.0625 45.09375 64.984375 
Q 41.3125 65.921875 37.59375 65.921875 
Q 27.828125 65.921875 22.671875 59.328125 
Q 17.53125 52.734375 16.796875 39.40625 
Q 19.671875 43.65625 24.015625 45.921875 
Q 28.375 48.1875 33.59375 48.1875 
Q 44.578125 48.1875 50.953125 41.515625 
Q 57.328125 34.859375 57.328125 23.390625 
Q 57.328125 12.15625 50.6875 5.359375 
Q 44.046875 -1.421875 33.015625 -1.421875 
Q 20.359375 -1.421875 13.671875 8.265625 
Q 6.984375 17.96875 6.984375 36.375 
Q 6.984375 53.65625 15.1875 63.9375 
Q 23.390625 74.21875 37.203125 74.21875 
Q 40.921875 74.21875 44.703125 73.484375 
Q 48.484375 72.75 52.59375 71.296875 
" id="BitstreamVeraSans-Roman-36"/>
       <path d="M 4.890625 31.390625 
L 31.203125 31.390625 
L 31.203125 23.390625 
L 4.890625 23.390625 
z
" id="BitstreamVeraSans-Roman-2d"/>
      </defs>
      <g transform="translate(59.2842768472 403.196875)scale(0.2 -0.2)">
       <use xlink:href="#BitstreamVeraSans-Roman-2d"/>
       <use x="36.083984375" xlink:href="#BitstreamVeraSans-Roman-36"/>
      </g>
     </g>
    </g>
    <g id="xtick_3">
     <g id="line2d_12">
      <path clip-path="url(#p1f818869d2)" d="M 135.652644 384 
L 135.652644 3 
" style="fill:none;stroke:#000000;stroke-dasharray:1.000000,3.000000;stroke-dashoffset:0.0;stroke-width:0.5;"/>
     </g>
     <g id="line2d_13">
      <g>
       <use style="stroke:#000000;stroke-width:0.5;" x="135.652644101" xlink:href="#m0d85167050" y="384.0"/>
      </g>
     </g>
     <g id="line2d_14">
      <g>
       <use style="stroke:#000000;stroke-width:0.5;" x="135.652644101" xlink:href="#m1d390e123e" y="3.0"/>
      </g>
     </g>
     <g id="text_2">
      <!-- -4 -->
      <defs>
       <path d="M 37.796875 64.3125 
L 12.890625 25.390625 
L 37.796875 25.390625 
z
M 35.203125 72.90625 
L 47.609375 72.90625 
L 47.609375 25.390625 
L 58.015625 25.390625 
L 58.015625 17.1875 
L 47.609375 17.1875 
L 47.609375 0 
L 37.796875 0 
L 37.796875 17.1875 
L 4.890625 17.1875 
L 4.890625 26.703125 
z
" id="BitstreamVeraSans-Roman-34"/>
      </defs>
      <g transform="translate(125.682331601 403.196875)scale(0.2 -0.2)">
       <use xlink:href="#BitstreamVeraSans-Roman-2d"/>
       <use x="36.083984375" xlink:href="#BitstreamVeraSans-Roman-34"/>
      </g>
     </g>
    </g>
    <g id="xtick_4">
     <g id="line2d_15">
      <path clip-path="url(#p1f818869d2)" d="M 202.050699 384 
L 202.050699 3 
" style="fill:none;stroke:#000000;stroke-dasharray:1.000000,3.000000;stroke-dashoffset:0.0;stroke-width:0.5;"/>
     </g>
     <g id="line2d_16">
      <g>
       <use style="stroke:#000000;stroke-width:0.5;" x="202.050698855" xlink:href="#m0d85167050" y="384.0"/>
      </g>
     </g>
     <g id="line2d_17">
      <g>
       <use style="stroke:#000000;stroke-width:0.5;" x="202.050698855" xlink:href="#m1d390e123e" y="3.0"/>
      </g>
     </g>
     <g id="text_3">
      <!-- -2 -->
      <defs>
       <path d="M 19.1875 8.296875 
L 53.609375 8.296875 
L 53.609375 0 
L 7.328125 0 
L 7.328125 8.296875 
Q 12.9375 14.109375 22.625 23.890625 
Q 32.328125 33.6875 34.8125 36.53125 
Q 39.546875 41.84375 41.421875 45.53125 
Q 43.3125 49.21875 43.3125 52.78125 
Q 43.3125 58.59375 39.234375 62.25 
Q 35.15625 65.921875 28.609375 65.921875 
Q 23.96875 65.921875 18.8125 64.3125 
Q 13.671875 62.703125 7.8125 59.421875 
L 7.8125 69.390625 
Q 13.765625 71.78125 18.9375 73 
Q 24.125 74.21875 28.421875 74.21875 
Q 39.75 74.21875 46.484375 68.546875 
Q 53.21875 62.890625 53.21875 53.421875 
Q 53.21875 48.921875 51.53125 44.890625 
Q 49.859375 40.875 45.40625 35.40625 
Q 44.1875 33.984375 37.640625 27.21875 
Q 31.109375 20.453125 19.1875 8.296875 
" id="BitstreamVeraSans-Roman-32"/>
      </defs>
      <g transform="translate(192.080386355 403.196875)scale(0.2 -0.2)">
       <use xlink:href="#BitstreamVeraSans-Roman-2d"/>
       <use x="36.083984375" xlink:href="#BitstreamVeraSans-Roman-32"/>
      </g>
     </g>
    </g>
    <g id="xtick_5">
     <g id="line2d_18">
      <path clip-path="url(#p1f818869d2)" d="M 268.448754 384 
L 268.448754 3 
" style="fill:none;stroke:#000000;stroke-dasharray:1.000000,3.000000;stroke-dashoffset:0.0;stroke-width:0.5;"/>
     </g>
     <g id="line2d_19">
      <g>
       <use style="stroke:#000000;stroke-width:0.5;" x="268.448753608" xlink:href="#m0d85167050" y="384.0"/>
      </g>
     </g>
     <g id="line2d_20">
      <g>
       <use style="stroke:#000000;stroke-width:0.5;" x="268.448753608" xlink:href="#m1d390e123e" y="3.0"/>
      </g>
     </g>
     <g id="text_4">
      <!-- 0 -->
      <defs>
       <path d="M 31.78125 66.40625 
Q 24.171875 66.40625 20.328125 58.90625 
Q 16.5 51.421875 16.5 36.375 
Q 16.5 21.390625 20.328125 13.890625 
Q 24.171875 6.390625 31.78125 6.390625 
Q 39.453125 6.390625 43.28125 13.890625 
Q 47.125 21.390625 47.125 36.375 
Q 47.125 51.421875 43.28125 58.90625 
Q 39.453125 66.40625 31.78125 66.40625 
M 31.78125 74.21875 
Q 44.046875 74.21875 50.515625 64.515625 
Q 56.984375 54.828125 56.984375 36.375 
Q 56.984375 17.96875 50.515625 8.265625 
Q 44.046875 -1.421875 31.78125 -1.421875 
Q 19.53125 -1.421875 13.0625 8.265625 
Q 6.59375 17.96875 6.59375 36.375 
Q 6.59375 54.828125 13.0625 64.515625 
Q 19.53125 74.21875 31.78125 74.21875 
" id="BitstreamVeraSans-Roman-30"/>
      </defs>
      <g transform="translate(262.086253608 403.196875)scale(0.2 -0.2)">
       <use xlink:href="#BitstreamVeraSans-Roman-30"/>
      </g>
     </g>
    </g>
    <g id="xtick_6">
     <g id="line2d_21">
      <path clip-path="url(#p1f818869d2)" d="M 334.846808 384 
L 334.846808 3 
" style="fill:none;stroke:#000000;stroke-dasharray:1.000000,3.000000;stroke-dashoffset:0.0;stroke-width:0.5;"/>
     </g>
     <g id="line2d_22">
      <g>
       <use style="stroke:#000000;stroke-width:0.5;" x="334.846808362" xlink:href="#m0d85167050" y="384.0"/>
      </g>
     </g>
     <g id="line2d_23">
      <g>
       <use style="stroke:#000000;stroke-width:0.5;" x="334.846808362" xlink:href="#m1d390e123e" y="3.0"/>
      </g>
     </g>
     <g id="text_5">
      <!-- 2 -->
      <g transform="translate(328.484308362 403.196875)scale(0.2 -0.2)">
       <use xlink:href="#BitstreamVeraSans-Roman-32"/>
      </g>
     </g>
    </g>
    <g id="xtick_7">
     <g id="line2d_24">
      <path clip-path="url(#p1f818869d2)" d="M 401.244863 384 
L 401.244863 3 
" style="fill:none;stroke:#000000;stroke-dasharray:1.000000,3.000000;stroke-dashoffset:0.0;stroke-width:0.5;"/>
     </g>
     <g id="line2d_25">
      <g>
       <use style="stroke:#000000;stroke-width:0.5;" x="401.244863116" xlink:href="#m0d85167050" y="384.0"/>
      </g>
     </g>
     <g id="line2d_26">
      <g>
       <use style="stroke:#000000;stroke-width:0.5;" x="401.244863116" xlink:href="#m1d390e123e" y="3.0"/>
      </g>
     </g>
     <g id="text_6">
      <!-- 4 -->
      <g transform="translate(394.882363116 403.196875)scale(0.2 -0.2)">
       <use xlink:href="#BitstreamVeraSans-Roman-34"/>
      </g>
     </g>
    </g>
    <g id="xtick_8">
     <g id="line2d_27">
      <path clip-path="url(#p1f818869d2)" d="M 467.642918 384 
L 467.642918 3 
" style="fill:none;stroke:#000000;stroke-dasharray:1.000000,3.000000;stroke-dashoffset:0.0;stroke-width:0.5;"/>
     </g>
     <g id="line2d_28">
      <g>
       <use style="stroke:#000000;stroke-width:0.5;" x="467.642917869" xlink:href="#m0d85167050" y="384.0"/>
      </g>
     </g>
     <g id="line2d_29">
      <g>
       <use style="stroke:#000000;stroke-width:0.5;" x="467.642917869" xlink:href="#m1d390e123e" y="3.0"/>
      </g>
     </g>
     <g id="text_7">
      <!-- 6 -->
      <g transform="translate(461.280417869 403.196875)scale(0.2 -0.2)">
       <use xlink:href="#BitstreamVeraSans-Roman-36"/>
      </g>
     </g>
    </g>
    <g id="xtick_9">
     <g id="line2d_30">
      <path clip-path="url(#p1f818869d2)" d="M 534.040973 384 
L 534.040973 3 
" style="fill:none;stroke:#000000;stroke-dasharray:1.000000,3.000000;stroke-dashoffset:0.0;stroke-width:0.5;"/>
     </g>
     <g id="line2d_31">
      <g>
       <use style="stroke:#000000;stroke-width:0.5;" x="534.040972623" xlink:href="#m0d85167050" y="384.0"/>
      </g>
     </g>
     <g id="line2d_32">
      <g>
       <use style="stroke:#000000;stroke-width:0.5;" x="534.040972623" xlink:href="#m1d390e123e" y="3.0"/>
      </g>
     </g>
     <g id="text_8">
      <!-- 8 -->
      <defs>
       <path d="M 31.78125 34.625 
Q 24.75 34.625 20.71875 30.859375 
Q 16.703125 27.09375 16.703125 20.515625 
Q 16.703125 13.921875 20.71875 10.15625 
Q 24.75 6.390625 31.78125 6.390625 
Q 38.8125 6.390625 42.859375 10.171875 
Q 46.921875 13.96875 46.921875 20.515625 
Q 46.921875 27.09375 42.890625 30.859375 
Q 38.875 34.625 31.78125 34.625 
M 21.921875 38.8125 
Q 15.578125 40.375 12.03125 44.71875 
Q 8.5 49.078125 8.5 55.328125 
Q 8.5 64.0625 14.71875 69.140625 
Q 20.953125 74.21875 31.78125 74.21875 
Q 42.671875 74.21875 48.875 69.140625 
Q 55.078125 64.0625 55.078125 55.328125 
Q 55.078125 49.078125 51.53125 44.71875 
Q 48 40.375 41.703125 38.8125 
Q 48.828125 37.15625 52.796875 32.3125 
Q 56.78125 27.484375 56.78125 20.515625 
Q 56.78125 9.90625 50.3125 4.234375 
Q 43.84375 -1.421875 31.78125 -1.421875 
Q 19.734375 -1.421875 13.25 4.234375 
Q 6.78125 9.90625 6.78125 20.515625 
Q 6.78125 27.484375 10.78125 32.3125 
Q 14.796875 37.15625 21.921875 38.8125 
M 18.3125 54.390625 
Q 18.3125 48.734375 21.84375 45.5625 
Q 25.390625 42.390625 31.78125 42.390625 
Q 38.140625 42.390625 41.71875 45.5625 
Q 45.3125 48.734375 45.3125 54.390625 
Q 45.3125 60.0625 41.71875 63.234375 
Q 38.140625 66.40625 31.78125 66.40625 
Q 25.390625 66.40625 21.84375 63.234375 
Q 18.3125 60.0625 18.3125 54.390625 
" id="BitstreamVeraSans-Roman-38"/>
      </defs>
      <g transform="translate(527.678472623 403.196875)scale(0.2 -0.2)">
       <use xlink:href="#BitstreamVeraSans-Roman-38"/>
      </g>
     </g>
    </g>
    <g id="xtick_10"/>
    <g id="xtick_11">
     <g id="line2d_33">
      <defs>
       <path d="M 0 0 
L 0 -2 
" id="mdb380c5e9c" style="stroke:#000000;stroke-width:0.5;"/>
      </defs>
      <g>
       <use style="stroke:#000000;stroke-width:0.5;" x="69.2545893472" xlink:href="#mdb380c5e9c" y="384.0"/>
      </g>
     </g>
     <g id="line2d_34">
      <defs>
       <path d="M 0 0 
L 0 2 
" id="me3f1ad10f6" style="stroke:#000000;stroke-width:0.5;"/>
      </defs>
      <g>
       <use style="stroke:#000000;stroke-width:0.5;" x="69.2545893472" xlink:href="#me3f1ad10f6" y="3.0"/>
      </g>
     </g>
    </g>
    <g id="xtick_12">
     <g id="line2d_35">
      <g>
       <use style="stroke:#000000;stroke-width:0.5;" x="135.652644101" xlink:href="#mdb380c5e9c" y="384.0"/>
      </g>
     </g>
     <g id="line2d_36">
      <g>
       <use style="stroke:#000000;stroke-width:0.5;" x="135.652644101" xlink:href="#me3f1ad10f6" y="3.0"/>
      </g>
     </g>
    </g>
    <g id="xtick_13">
     <g id="line2d_37">
      <g>
       <use style="stroke:#000000;stroke-width:0.5;" x="202.050698855" xlink:href="#mdb380c5e9c" y="384.0"/>
      </g>
     </g>
     <g id="line2d_38">
      <g>
       <use style="stroke:#000000;stroke-width:0.5;" x="202.050698855" xlink:href="#me3f1ad10f6" y="3.0"/>
      </g>
     </g>
    </g>
    <g id="xtick_14">
     <g id="line2d_39">
      <g>
       <use style="stroke:#000000;stroke-width:0.5;" x="268.448753608" xlink:href="#mdb380c5e9c" y="384.0"/>
      </g>
     </g>
     <g id="line2d_40">
      <g>
       <use style="stroke:#000000;stroke-width:0.5;" x="268.448753608" xlink:href="#me3f1ad10f6" y="3.0"/>
      </g>
     </g>
    </g>
    <g id="xtick_15">
     <g id="line2d_41">
      <g>
       <use style="stroke:#000000;stroke-width:0.5;" x="334.846808362" xlink:href="#mdb380c5e9c" y="384.0"/>
      </g>
     </g>
     <g id="line2d_42">
      <g>
       <use style="stroke:#000000;stroke-width:0.5;" x="334.846808362" xlink:href="#me3f1ad10f6" y="3.0"/>
      </g>
     </g>
    </g>
    <g id="xtick_16">
     <g id="line2d_43">
      <g>
       <use style="stroke:#000000;stroke-width:0.5;" x="401.244863116" xlink:href="#mdb380c5e9c" y="384.0"/>
      </g>
     </g>
     <g id="line2d_44">
      <g>
       <use style="stroke:#000000;stroke-width:0.5;" x="401.244863116" xlink:href="#me3f1ad10f6" y="3.0"/>
      </g>
     </g>
    </g>
    <g id="xtick_17">
     <g id="line2d_45">
      <g>
       <use style="stroke:#000000;stroke-width:0.5;" x="467.642917869" xlink:href="#mdb380c5e9c" y="384.0"/>
      </g>
     </g>
     <g id="line2d_46">
      <g>
       <use style="stroke:#000000;stroke-width:0.5;" x="467.642917869" xlink:href="#me3f1ad10f6" y="3.0"/>
      </g>
     </g>
    </g>
    <g id="xtick_18">
     <g id="line2d_47">
      <g>
       <use style="stroke:#000000;stroke-width:0.5;" x="534.040972623" xlink:href="#mdb380c5e9c" y="384.0"/>
      </g>
     </g>
     <g id="line2d_48">
      <g>
       <use style="stroke:#000000;stroke-width:0.5;" x="534.040972623" xlink:href="#me3f1ad10f6" y="3.0"/>
      </g>
     </g>
    </g>
    <g id="text_9">
     <!-- log10 of Df -->
     <defs>
      <path id="BitstreamVeraSans-Roman-20"/>
      <path d="M 12.40625 8.296875 
L 28.515625 8.296875 
L 28.515625 63.921875 
L 10.984375 60.40625 
L 10.984375 69.390625 
L 28.421875 72.90625 
L 38.28125 72.90625 
L 38.28125 8.296875 
L 54.390625 8.296875 
L 54.390625 0 
L 12.40625 0 
z
" id="BitstreamVeraSans-Roman-31"/>
      <path d="M 30.609375 48.390625 
Q 23.390625 48.390625 19.1875 42.75 
Q 14.984375 37.109375 14.984375 27.296875 
Q 14.984375 17.484375 19.15625 11.84375 
Q 23.34375 6.203125 30.609375 6.203125 
Q 37.796875 6.203125 41.984375 11.859375 
Q 46.1875 17.53125 46.1875 27.296875 
Q 46.1875 37.015625 41.984375 42.703125 
Q 37.796875 48.390625 30.609375 48.390625 
M 30.609375 56 
Q 42.328125 56 49.015625 48.375 
Q 55.71875 40.765625 55.71875 27.296875 
Q 55.71875 13.875 49.015625 6.21875 
Q 42.328125 -1.421875 30.609375 -1.421875 
Q 18.84375 -1.421875 12.171875 6.21875 
Q 5.515625 13.875 5.515625 27.296875 
Q 5.515625 40.765625 12.171875 48.375 
Q 18.84375 56 30.609375 56 
" id="BitstreamVeraSans-Roman-6f"/>
      <path d="M 9.421875 75.984375 
L 18.40625 75.984375 
L 18.40625 0 
L 9.421875 0 
z
" id="BitstreamVeraSans-Roman-6c"/>
      <path d="M 19.671875 64.796875 
L 19.671875 8.109375 
L 31.59375 8.109375 
Q 46.6875 8.109375 53.6875 14.9375 
Q 60.6875 21.78125 60.6875 36.53125 
Q 60.6875 51.171875 53.6875 57.984375 
Q 46.6875 64.796875 31.59375 64.796875 
z
M 9.8125 72.90625 
L 30.078125 72.90625 
Q 51.265625 72.90625 61.171875 64.09375 
Q 71.09375 55.28125 71.09375 36.53125 
Q 71.09375 17.671875 61.125 8.828125 
Q 51.171875 0 30.078125 0 
L 9.8125 0 
z
" id="BitstreamVeraSans-Roman-44"/>
      <path d="M 45.40625 27.984375 
Q 45.40625 37.75 41.375 43.109375 
Q 37.359375 48.484375 30.078125 48.484375 
Q 22.859375 48.484375 18.828125 43.109375 
Q 14.796875 37.75 14.796875 27.984375 
Q 14.796875 18.265625 18.828125 12.890625 
Q 22.859375 7.515625 30.078125 7.515625 
Q 37.359375 7.515625 41.375 12.890625 
Q 45.40625 18.265625 45.40625 27.984375 
M 54.390625 6.78125 
Q 54.390625 -7.171875 48.1875 -13.984375 
Q 42 -20.796875 29.203125 -20.796875 
Q 24.46875 -20.796875 20.265625 -20.09375 
Q 16.0625 -19.390625 12.109375 -17.921875 
L 12.109375 -9.1875 
Q 16.0625 -11.328125 19.921875 -12.34375 
Q 23.78125 -13.375 27.78125 -13.375 
Q 36.625 -13.375 41.015625 -8.765625 
Q 45.40625 -4.15625 45.40625 5.171875 
L 45.40625 9.625 
Q 42.625 4.78125 38.28125 2.390625 
Q 33.9375 0 27.875 0 
Q 17.828125 0 11.671875 7.65625 
Q 5.515625 15.328125 5.515625 27.984375 
Q 5.515625 40.671875 11.671875 48.328125 
Q 17.828125 56 27.875 56 
Q 33.9375 56 38.28125 53.609375 
Q 42.625 51.21875 45.40625 46.390625 
L 45.40625 54.6875 
L 54.390625 54.6875 
z
" id="BitstreamVeraSans-Roman-67"/>
      <path d="M 37.109375 75.984375 
L 37.109375 68.5 
L 28.515625 68.5 
Q 23.6875 68.5 21.796875 66.546875 
Q 19.921875 64.59375 19.921875 59.515625 
L 19.921875 54.6875 
L 34.71875 54.6875 
L 34.71875 47.703125 
L 19.921875 47.703125 
L 19.921875 0 
L 10.890625 0 
L 10.890625 47.703125 
L 2.296875 47.703125 
L 2.296875 54.6875 
L 10.890625 54.6875 
L 10.890625 58.5 
Q 10.890625 67.625 15.140625 71.796875 
Q 19.390625 75.984375 28.609375 75.984375 
z
" id="BitstreamVeraSans-Roman-66"/>
     </defs>
     <g transform="translate(229.9340625 427.553125)scale(0.2 -0.2)">
      <use xlink:href="#BitstreamVeraSans-Roman-6c"/>
      <use x="27.783203125" xlink:href="#BitstreamVeraSans-Roman-6f"/>
      <use x="88.96484375" xlink:href="#BitstreamVeraSans-Roman-67"/>
      <use x="152.44140625" xlink:href="#BitstreamVeraSans-Roman-31"/>
      <use x="216.064453125" xlink:href="#BitstreamVeraSans-Roman-30"/>
      <use x="279.6875" xlink:href="#BitstreamVeraSans-Roman-20"/>
      <use x="311.474609375" xlink:href="#BitstreamVeraSans-Roman-6f"/>
      <use x="372.65625" xlink:href="#BitstreamVeraSans-Roman-66"/>
      <use x="407.861328125" xlink:href="#BitstreamVeraSans-Roman-20"/>
      <use x="439.6484375" xlink:href="#BitstreamVeraSans-Roman-44"/>
      <use x="516.650390625" xlink:href="#BitstreamVeraSans-Roman-66"/>
     </g>
    </g>
   </g>
   <g id="matplotlib.axis_2">
    <g id="ytick_1">
     <g id="line2d_49">
      <path clip-path="url(#p1f818869d2)" d="M 3 384 
L 567.24 384 
" style="fill:none;stroke:#000000;stroke-dasharray:1.000000,3.000000;stroke-dashoffset:0.0;stroke-width:0.5;"/>
     </g>
     <g id="line2d_50">
      <defs>
       <path d="M 0 0 
L 4 0 
" id="m2bca61f266" style="stroke:#000000;stroke-width:0.5;"/>
      </defs>
      <g>
       <use style="stroke:#000000;stroke-width:0.5;" x="3.0" xlink:href="#m2bca61f266" y="384.0"/>
      </g>
     </g>
     <g id="line2d_51">
      <defs>
       <path d="M 0 0 
L -4 0 
" id="m75f4f089c6" style="stroke:#000000;stroke-width:0.5;"/>
      </defs>
      <g>
       <use style="stroke:#000000;stroke-width:0.5;" x="567.24" xlink:href="#m75f4f089c6" y="384.0"/>
      </g>
     </g>
    </g>
    <g id="ytick_2">
     <g id="line2d_52">
      <path clip-path="url(#p1f818869d2)" d="M 3 308.554455 
L 567.24 308.554455 
" style="fill:none;stroke:#000000;stroke-dasharray:1.000000,3.000000;stroke-dashoffset:0.0;stroke-width:0.5;"/>
     </g>
     <g id="line2d_53">
      <g>
       <use style="stroke:#000000;stroke-width:0.5;" x="3.0" xlink:href="#m2bca61f266" y="308.554455446"/>
      </g>
     </g>
     <g id="line2d_54">
      <g>
       <use style="stroke:#000000;stroke-width:0.5;" x="567.24" xlink:href="#m75f4f089c6" y="308.554455446"/>
      </g>
     </g>
    </g>
    <g id="ytick_3">
     <g id="line2d_55">
      <path clip-path="url(#p1f818869d2)" d="M 3 233.108911 
L 567.24 233.108911 
" style="fill:none;stroke:#000000;stroke-dasharray:1.000000,3.000000;stroke-dashoffset:0.0;stroke-width:0.5;"/>
     </g>
     <g id="line2d_56">
      <g>
       <use style="stroke:#000000;stroke-width:0.5;" x="3.0" xlink:href="#m2bca61f266" y="233.108910891"/>
      </g>
     </g>
     <g id="line2d_57">
      <g>
       <use style="stroke:#000000;stroke-width:0.5;" x="567.24" xlink:href="#m75f4f089c6" y="233.108910891"/>
      </g>
     </g>
    </g>
    <g id="ytick_4">
     <g id="line2d_58">
      <path clip-path="url(#p1f818869d2)" d="M 3 157.663366 
L 567.24 157.663366 
" style="fill:none;stroke:#000000;stroke-dasharray:1.000000,3.000000;stroke-dashoffset:0.0;stroke-width:0.5;"/>
     </g>
     <g id="line2d_59">
      <g>
       <use style="stroke:#000000;stroke-width:0.5;" x="3.0" xlink:href="#m2bca61f266" y="157.663366337"/>
      </g>
     </g>
     <g id="line2d_60">
      <g>
       <use style="stroke:#000000;stroke-width:0.5;" x="567.24" xlink:href="#m75f4f089c6" y="157.663366337"/>
      </g>
     </g>
    </g>
    <g id="ytick_5">
     <g id="line2d_61">
      <path clip-path="url(#p1f818869d2)" d="M 3 82.217822 
L 567.24 82.217822 
" style="fill:none;stroke:#000000;stroke-dasharray:1.000000,3.000000;stroke-dashoffset:0.0;stroke-width:0.5;"/>
     </g>
     <g id="line2d_62">
      <g>
       <use style="stroke:#000000;stroke-width:0.5;" x="3.0" xlink:href="#m2bca61f266" y="82.2178217822"/>
      </g>
     </g>
     <g id="line2d_63">
      <g>
       <use style="stroke:#000000;stroke-width:0.5;" x="567.24" xlink:href="#m75f4f089c6" y="82.2178217822"/>
      </g>
     </g>
    </g>
    <g id="ytick_6">
     <g id="line2d_64">
      <path clip-path="url(#p1f818869d2)" d="M 3 6.772277 
L 567.24 6.772277 
" style="fill:none;stroke:#000000;stroke-dasharray:1.000000,3.000000;stroke-dashoffset:0.0;stroke-width:0.5;"/>
     </g>
     <g id="line2d_65">
      <g>
       <use style="stroke:#000000;stroke-width:0.5;" x="3.0" xlink:href="#m2bca61f266" y="6.77227722772"/>
      </g>
     </g>
     <g id="line2d_66">
      <g>
       <use style="stroke:#000000;stroke-width:0.5;" x="567.24" xlink:href="#m75f4f089c6" y="6.77227722772"/>
      </g>
     </g>
    </g>
   </g>
   <g id="text_10">
    <!-- {f6-f9}, 5-D -->
    <defs>
     <path d="M 12.5 -9.28125 
L 15.921875 -9.28125 
Q 22.75 -9.28125 24.828125 -7.171875 
Q 26.90625 -5.078125 26.90625 1.90625 
L 26.90625 14.015625 
Q 26.90625 21.625 29.09375 25.09375 
Q 31.296875 28.5625 36.71875 29.890625 
Q 31.296875 31.109375 29.09375 34.5625 
Q 26.90625 38.03125 26.90625 45.703125 
L 26.90625 57.8125 
Q 26.90625 64.75 24.828125 66.875 
Q 22.75 69 15.921875 69 
L 12.5 69 
L 12.5 75.984375 
L 15.578125 75.984375 
Q 27.734375 75.984375 31.8125 72.390625 
Q 35.890625 68.796875 35.890625 58.015625 
L 35.890625 46.296875 
Q 35.890625 39.015625 38.515625 36.203125 
Q 41.15625 33.40625 48.09375 33.40625 
L 51.125 33.40625 
L 51.125 26.421875 
L 48.09375 26.421875 
Q 41.15625 26.421875 38.515625 23.578125 
Q 35.890625 20.75 35.890625 13.375 
L 35.890625 1.703125 
Q 35.890625 -9.078125 31.8125 -12.6875 
Q 27.734375 -16.3125 15.578125 -16.3125 
L 12.5 -16.3125 
z
" id="BitstreamVeraSans-Roman-7d"/>
     <path d="M 10.984375 1.515625 
L 10.984375 10.5 
Q 14.703125 8.734375 18.5 7.8125 
Q 22.3125 6.890625 25.984375 6.890625 
Q 35.75 6.890625 40.890625 13.453125 
Q 46.046875 20.015625 46.78125 33.40625 
Q 43.953125 29.203125 39.59375 26.953125 
Q 35.25 24.703125 29.984375 24.703125 
Q 19.046875 24.703125 12.671875 31.3125 
Q 6.296875 37.9375 6.296875 49.421875 
Q 6.296875 60.640625 12.9375 67.421875 
Q 19.578125 74.21875 30.609375 74.21875 
Q 43.265625 74.21875 49.921875 64.515625 
Q 56.59375 54.828125 56.59375 36.375 
Q 56.59375 19.140625 48.40625 8.859375 
Q 40.234375 -1.421875 26.421875 -1.421875 
Q 22.703125 -1.421875 18.890625 -0.6875 
Q 15.09375 0.046875 10.984375 1.515625 
M 30.609375 32.421875 
Q 37.25 32.421875 41.125 36.953125 
Q 45.015625 41.5 45.015625 49.421875 
Q 45.015625 57.28125 41.125 61.84375 
Q 37.25 66.40625 30.609375 66.40625 
Q 23.96875 66.40625 20.09375 61.84375 
Q 16.21875 57.28125 16.21875 49.421875 
Q 16.21875 41.5 20.09375 36.953125 
Q 23.96875 32.421875 30.609375 32.421875 
" id="BitstreamVeraSans-Roman-39"/>
     <path d="M 51.125 -9.28125 
L 51.125 -16.3125 
L 48.09375 -16.3125 
Q 35.9375 -16.3125 31.8125 -12.6875 
Q 27.6875 -9.078125 27.6875 1.703125 
L 27.6875 13.375 
Q 27.6875 20.75 25.046875 23.578125 
Q 22.40625 26.421875 15.484375 26.421875 
L 12.5 26.421875 
L 12.5 33.40625 
L 15.484375 33.40625 
Q 22.46875 33.40625 25.078125 36.203125 
Q 27.6875 39.015625 27.6875 46.296875 
L 27.6875 58.015625 
Q 27.6875 68.796875 31.8125 72.390625 
Q 35.9375 75.984375 48.09375 75.984375 
L 51.125 75.984375 
L 51.125 69 
L 47.796875 69 
Q 40.921875 69 38.8125 66.84375 
Q 36.71875 64.703125 36.71875 57.8125 
L 36.71875 45.703125 
Q 36.71875 38.03125 34.5 34.5625 
Q 32.28125 31.109375 26.90625 29.890625 
Q 32.328125 28.5625 34.515625 25.09375 
Q 36.71875 21.625 36.71875 14.015625 
L 36.71875 1.90625 
Q 36.71875 -4.984375 38.8125 -7.125 
Q 40.921875 -9.28125 47.796875 -9.28125 
z
" id="BitstreamVeraSans-Roman-7b"/>
     <path d="M 11.71875 12.40625 
L 22.015625 12.40625 
L 22.015625 4 
L 14.015625 -11.625 
L 7.71875 -11.625 
L 11.71875 4 
z
" id="BitstreamVeraSans-Roman-2c"/>
     <path d="M 10.796875 72.90625 
L 49.515625 72.90625 
L 49.515625 64.59375 
L 19.828125 64.59375 
L 19.828125 46.734375 
Q 21.96875 47.46875 24.109375 47.828125 
Q 26.265625 48.1875 28.421875 48.1875 
Q 40.625 48.1875 47.75 41.5 
Q 54.890625 34.8125 54.890625 23.390625 
Q 54.890625 11.625 47.5625 5.09375 
Q 40.234375 -1.421875 26.90625 -1.421875 
Q 22.3125 -1.421875 17.546875 -0.640625 
Q 12.796875 0.140625 7.71875 1.703125 
L 7.71875 11.625 
Q 12.109375 9.234375 16.796875 8.0625 
Q 21.484375 6.890625 26.703125 6.890625 
Q 35.15625 6.890625 40.078125 11.328125 
Q 45.015625 15.765625 45.015625 23.390625 
Q 45.015625 31 40.078125 35.4375 
Q 35.15625 39.890625 26.703125 39.890625 
Q 22.75 39.890625 18.8125 39.015625 
Q 14.890625 38.140625 10.796875 36.28125 
z
" id="BitstreamVeraSans-Roman-35"/>
    </defs>
    <g transform="translate(435.7052 376.38)scale(0.2 -0.2)">
     <use xlink:href="#BitstreamVeraSans-Roman-7b"/>
     <use x="63.623046875" xlink:href="#BitstreamVeraSans-Roman-66"/>
     <use x="98.828125" xlink:href="#BitstreamVeraSans-Roman-36"/>
     <use x="162.451171875" xlink:href="#BitstreamVeraSans-Roman-2d"/>
     <use x="198.53515625" xlink:href="#BitstreamVeraSans-Roman-66"/>
     <use x="233.740234375" xlink:href="#BitstreamVeraSans-Roman-39"/>
     <use x="297.36328125" xlink:href="#BitstreamVeraSans-Roman-7d"/>
     <use x="360.986328125" xlink:href="#BitstreamVeraSans-Roman-2c"/>
     <use x="392.7734375" xlink:href="#BitstreamVeraSans-Roman-20"/>
     <use x="424.560546875" xlink:href="#BitstreamVeraSans-Roman-35"/>
     <use x="488.18359375" xlink:href="#BitstreamVeraSans-Roman-2d"/>
     <use x="524.267578125" xlink:href="#BitstreamVeraSans-Roman-44"/>
    </g>
   </g>
   <g id="text_11">
    <!-- v2.2.1.10 -->
    <defs>
     <path d="M 2.984375 54.6875 
L 12.5 54.6875 
L 29.59375 8.796875 
L 46.6875 54.6875 
L 56.203125 54.6875 
L 35.6875 0 
L 23.484375 0 
z
" id="BitstreamVeraSans-Roman-76"/>
     <path d="M 10.6875 12.40625 
L 21 12.40625 
L 21 0 
L 10.6875 0 
z
" id="BitstreamVeraSans-Roman-2e"/>
    </defs>
    <g style="fill:#808080;" transform="translate(261.4871875 378.1103125)scale(0.1 -0.1)">
     <use xlink:href="#BitstreamVeraSans-Roman-76"/>
     <use x="59.1796875" xlink:href="#BitstreamVeraSans-Roman-32"/>
     <use x="122.802734375" xlink:href="#BitstreamVeraSans-Roman-2e"/>
     <use x="154.58984375" xlink:href="#BitstreamVeraSans-Roman-32"/>
     <use x="218.212890625" xlink:href="#BitstreamVeraSans-Roman-2e"/>
     <use x="250.0" xlink:href="#BitstreamVeraSans-Roman-31"/>
     <use x="313.623046875" xlink:href="#BitstreamVeraSans-Roman-2e"/>
     <use x="345.41015625" xlink:href="#BitstreamVeraSans-Roman-31"/>
     <use x="409.033203125" xlink:href="#BitstreamVeraSans-Roman-30"/>
    </g>
   </g>
  </g>
 </g>
 <defs>
  <clipPath id="p1f818869d2">
   <rect height="381.0" width="564.24" x="3.0" y="3.0"/>
  </clipPath>
 </defs>
</svg>
