<?xml version="1.0" encoding="utf-8" standalone="no"?>
<!DOCTYPE svg PUBLIC "-//W3C//DTD SVG 1.1//EN"
  "http://www.w3.org/Graphics/SVG/1.1/DTD/svg11.dtd">
<!-- Created with matplotlib (http://matplotlib.org/) -->
<svg height="432pt" version="1.1" viewBox="0 0 576 432" width="576pt" xmlns="http://www.w3.org/2000/svg" xmlns:xlink="http://www.w3.org/1999/xlink">
 <defs>
  <style type="text/css">
*{stroke-linecap:butt;stroke-linejoin:round;stroke-miterlimit:100000;}
  </style>
 </defs>
 <g id="figure_1">
  <g id="patch_1">
   <path d="M 0 432 
L 576 432 
L 576 0 
L 0 0 
z
" style="fill:#ffffff;"/>
  </g>
  <g id="axes_1">
   <g id="patch_2">
    <path d="M 3 384 
L 567.24 384 
L 567.24 3 
L 3 3 
z
" style="fill:#ffffff;"/>
   </g>
   <g id="line2d_1">
    <path clip-path="url(#pd5ff92a9fd)" d="M 210.455893 384 
L 210.455893 378.970297 
L 212.705727 378.970297 
L 212.705727 373.940594 
L 214.601395 373.940594 
L 214.601395 368.910891 
L 215.010068 368.910891 
L 215.010068 363.881188 
L 216.501189 363.881188 
L 216.501189 358.851485 
L 220.351255 358.851485 
L 220.351255 353.821782 
L 221.045708 353.821782 
L 221.045708 348.792079 
L 228.498232 348.792079 
L 228.498232 343.762376 
L 229.044842 343.762376 
L 229.044842 338.732673 
L 229.27814 338.732673 
L 229.27814 333.70297 
L 229.753663 333.70297 
L 229.753663 328.673267 
L 230.078413 328.673267 
L 230.078413 323.643564 
L 230.47687 323.643564 
L 230.47687 318.613861 
L 230.822742 318.613861 
L 230.822742 313.584158 
L 231.540106 313.584158 
L 231.540106 308.554455 
L 232.566925 308.554455 
L 232.566925 303.524752 
L 235.087171 303.524752 
L 235.087171 298.49505 
L 246.781047 298.49505 
L 246.781047 293.465347 
L 275.545733 293.465347 
L 275.545733 288.435644 
L 280.603561 288.435644 
L 280.603561 283.405941 
L 284.517699 283.405941 
L 284.517699 278.376238 
L 285.863592 278.376238 
L 285.863592 273.346535 
L 287.152253 273.346535 
L 287.152253 268.316832 
L 287.784345 268.316832 
L 287.784345 263.287129 
L 289.392741 263.287129 
L 289.392741 258.257426 
L 293.418328 258.257426 
L 293.418328 253.227723 
L 297.960917 253.227723 
L 297.960917 248.19802 
L 298.079122 248.19802 
L 298.079122 243.168317 
L 299.014618 243.168317 
L 299.014618 238.138614 
L 301.794213 238.138614 
L 301.794213 233.108911 
L 302.87188 233.108911 
L 302.87188 228.079208 
L 303.432145 228.079208 
L 303.432145 223.049505 
L 304.569179 223.049505 
L 304.569179 218.019802 
L 305.331033 218.019802 
L 305.331033 212.990099 
L 306.636948 212.990099 
L 306.636948 207.960396 
L 307.624085 207.960396 
L 307.624085 202.930693 
L 307.956422 202.930693 
L 307.956422 197.90099 
L 308.077664 197.90099 
L 308.077664 192.871287 
L 308.270709 192.871287 
L 308.270709 187.841584 
L 309.131985 187.841584 
L 309.131985 182.811881 
L 311.41079 182.811881 
L 311.41079 177.782178 
L 312.208766 177.782178 
L 312.208766 172.752475 
L 312.503801 172.752475 
L 312.503801 167.722772 
L 312.888737 167.722772 
L 312.888737 162.693069 
L 313.398783 162.693069 
L 313.398783 157.663366 
L 313.910247 157.663366 
L 314.010295 147.60396 
L 316.101481 147.60396 
L 316.101481 142.574257 
L 317.495394 142.574257 
L 317.495394 137.544554 
L 319.286054 137.544554 
L 319.286054 132.514851 
L 321.02132 132.514851 
L 321.02132 127.485149 
L 321.311131 127.485149 
L 321.410896 117.425743 
L 324.552659 117.425743 
L 324.552659 112.39604 
L 325.38696 112.39604 
L 325.460112 102.336634 
L 325.981196 102.336634 
L 325.981196 97.306931 
L 327.497817 97.306931 
L 327.497817 92.277228 
L 328.387207 92.277228 
L 328.387207 87.247525 
L 335.796936 87.247525 
L 335.796936 82.217822 
L 344.443565 82.217822 
L 344.443565 77.188119 
L 364.973707 77.188119 
L 364.973707 72.158416 
L 366.107094 72.158416 
L 366.107094 67.128713 
L 366.409245 67.128713 
L 366.409245 62.09901 
L 369.195663 62.09901 
L 369.195663 57.069307 
L 372.727143 57.069307 
L 372.727143 52.039604 
L 374.252853 52.039604 
L 374.252853 47.009901 
L 375.177883 47.009901 
L 375.177883 41.980198 
L 375.727775 41.980198 
L 375.727775 36.950495 
L 376.125867 36.950495 
L 376.125867 31.920792 
L 377.365171 31.920792 
L 377.365171 26.891089 
L 377.725841 26.891089 
L 377.725841 21.861386 
L 383.05489 21.861386 
L 383.05489 16.831683 
L 384.146328 16.831683 
L 384.146328 11.80198 
L 384.533858 11.80198 
L 384.533858 6.772277 
L 384.533858 6.772277 
L 567.24 6.772277 
L 567.24 6.772277 
" style="fill:none;stroke:#ff0000;stroke-linecap:square;stroke-width:3.0;"/>
   </g>
   <g id="line2d_2">
    <path clip-path="url(#pd5ff92a9fd)" d="M 278.191856 384 
L 278.191856 378.970297 
L 289.859618 378.970297 
L 289.859618 373.940594 
L 293.368366 373.940594 
L 293.368366 368.910891 
L 293.582377 368.910891 
L 293.582377 363.881188 
L 293.76967 363.881188 
L 293.76967 358.851485 
L 302.696136 358.851485 
L 302.696136 353.821782 
L 309.980053 353.821782 
L 309.980053 348.792079 
L 313.184919 348.792079 
L 313.184919 343.762376 
L 314.365126 343.762376 
L 314.365126 338.732673 
L 315.475617 338.732673 
L 315.475617 333.70297 
L 318.014274 333.70297 
L 318.014274 328.673267 
L 323.837489 328.673267 
L 323.837489 323.643564 
L 324.486883 323.643564 
L 324.486883 318.613861 
L 327.872372 318.613861 
L 327.872372 313.584158 
L 328.334644 313.584158 
L 328.334644 308.554455 
L 353.771107 308.554455 
L 353.771107 303.524752 
L 354.14005 303.524752 
L 354.14005 298.49505 
L 358.303521 298.49505 
L 358.303521 293.465347 
L 359.412991 293.465347 
L 359.412991 288.435644 
L 362.920738 288.435644 
L 362.920738 283.405941 
L 364.548202 283.405941 
L 364.548202 278.376238 
L 365.273522 278.376238 
L 365.273522 273.346535 
L 366.346581 273.346535 
L 366.346581 268.316832 
L 367.835437 268.316832 
L 367.835437 263.287129 
L 368.188533 263.287129 
L 368.188533 258.257426 
L 368.432923 258.257426 
L 368.432923 253.227723 
L 368.734428 253.227723 
L 368.734428 248.19802 
L 371.462954 248.19802 
L 371.462954 243.168317 
L 371.894257 243.168317 
L 371.894257 238.138614 
L 373.0507 238.138614 
L 373.0507 233.108911 
L 377.409445 233.108911 
L 377.409445 228.079208 
L 416.684263 228.079208 
L 416.684263 223.049505 
L 421.778589 223.049505 
L 421.778589 218.019802 
L 423.825654 218.019802 
L 423.825654 212.990099 
L 434.096208 212.990099 
L 434.096208 207.960396 
L 438.509049 207.960396 
L 438.509049 202.930693 
L 440.77302 202.930693 
L 440.77302 197.90099 
L 444.423739 197.90099 
L 444.423739 192.871287 
L 445.569866 192.871287 
L 445.569866 187.841584 
L 447.49431 187.841584 
L 447.49431 182.811881 
L 449.984704 182.811881 
L 449.984704 177.782178 
L 456.238044 177.782178 
L 456.238044 172.752475 
L 457.63565 172.752475 
L 457.63565 167.722772 
L 460.608261 167.722772 
L 460.608261 162.693069 
L 462.584329 162.693069 
L 462.584329 157.663366 
L 470.899578 157.663366 
L 470.899578 152.633663 
L 471.902955 152.633663 
L 471.902955 147.60396 
L 472.707947 147.60396 
L 472.707947 142.574257 
L 475.881308 142.574257 
L 475.881308 137.544554 
L 477.16917 137.544554 
L 477.16917 132.514851 
L 480.852778 132.514851 
L 480.852778 127.485149 
L 486.19867 127.485149 
L 486.19867 122.455446 
L 490.10023 122.455446 
L 490.10023 117.425743 
L 490.315935 117.425743 
L 490.315935 112.39604 
L 492.079158 112.39604 
L 492.079158 107.366337 
L 493.274898 107.366337 
L 493.274898 102.336634 
L 493.565232 102.336634 
L 493.565232 97.306931 
L 496.62994 97.306931 
L 496.62994 92.277228 
L 497.552999 92.277228 
L 497.552999 87.247525 
L 499.393667 87.247525 
L 499.393667 82.217822 
L 499.55525 82.217822 
L 499.55525 77.188119 
L 501.067293 77.188119 
L 501.067293 72.158416 
L 504.801008 72.158416 
L 504.801008 67.128713 
L 507.781852 67.128713 
L 507.800907 57.069307 
L 511.20306 57.069307 
L 511.20306 52.039604 
L 511.698126 52.039604 
L 511.698126 47.009901 
L 513.982558 47.009901 
L 513.982558 41.980198 
L 517.950091 41.980198 
L 517.950091 36.950495 
L 524.658504 36.950495 
L 524.658504 31.920792 
L 526.043889 31.920792 
L 526.043889 26.891089 
L 527.775471 26.891089 
L 527.775471 21.861386 
L 540.104176 21.861386 
L 540.104176 16.831683 
L 541.188641 16.831683 
L 541.188641 11.80198 
L 549.364494 11.80198 
L 549.364494 6.772277 
L 549.364494 6.772277 
L 567.24 6.772277 
L 567.24 6.772277 
" style="fill:none;stroke:#00bfbf;stroke-linecap:square;"/>
   </g>
   <g id="line2d_3">
    <path clip-path="url(#pd5ff92a9fd)" d="M 278.191856 384 
L 278.191856 378.970297 
L 289.859618 378.970297 
L 289.859618 373.940594 
L 293.368366 373.940594 
L 293.368366 368.910891 
L 293.582377 368.910891 
L 293.582377 363.881188 
L 293.76967 363.881188 
L 293.76967 358.851485 
L 294.006758 358.851485 
L 294.006758 353.821782 
L 297.42939 353.821782 
L 297.42939 348.792079 
L 302.329396 348.792079 
L 302.329396 343.762376 
L 303.553676 343.762376 
L 303.553676 338.732673 
L 314.365126 338.732673 
L 314.365126 333.70297 
L 315.403957 333.70297 
L 315.475617 323.643564 
L 318.014274 323.643564 
L 318.014274 318.613861 
L 324.486883 318.613861 
L 324.486883 313.584158 
L 328.334644 313.584158 
L 328.334644 308.554455 
L 339.873065 308.554455 
L 339.873065 303.524752 
L 353.771107 303.524752 
L 353.771107 298.49505 
L 353.97852 298.49505 
L 354.032156 288.435644 
L 359.412991 288.435644 
L 359.412991 283.405941 
L 362.920738 283.405941 
L 362.920738 278.376238 
L 363.759552 278.376238 
L 363.759552 273.346535 
L 364.246146 273.346535 
L 364.246146 268.316832 
L 364.548202 268.316832 
L 364.548202 263.287129 
L 365.273522 263.287129 
L 365.273522 258.257426 
L 366.346581 258.257426 
L 366.346581 253.227723 
L 367.082101 253.227723 
L 367.082101 248.19802 
L 371.462954 248.19802 
L 371.462954 243.168317 
L 371.894257 243.168317 
L 371.894257 238.138614 
L 373.0507 238.138614 
L 373.0507 233.108911 
L 374.533943 233.108911 
L 374.533943 228.079208 
L 386.035735 228.079208 
L 386.035735 223.049505 
L 388.743531 223.049505 
L 388.743531 218.019802 
L 411.380908 218.019802 
L 411.380908 212.990099 
L 414.580689 212.990099 
L 414.580689 207.960396 
L 416.684263 207.960396 
L 416.684263 202.930693 
L 419.535642 202.930693 
L 419.535642 197.90099 
L 423.825654 197.90099 
L 423.825654 192.871287 
L 439.45687 192.871287 
L 439.45687 187.841584 
L 440.77302 187.841584 
L 440.77302 182.811881 
L 444.423739 182.811881 
L 444.423739 177.782178 
L 445.569866 177.782178 
L 445.569866 172.752475 
L 447.49431 172.752475 
L 447.49431 167.722772 
L 448.576165 167.722772 
L 448.576165 162.693069 
L 449.984704 162.693069 
L 449.984704 157.663366 
L 451.058992 157.663366 
L 451.058992 152.633663 
L 455.851163 152.633663 
L 455.851163 147.60396 
L 456.238044 147.60396 
L 456.238044 142.574257 
L 457.63565 142.574257 
L 457.63565 137.544554 
L 460.791321 137.544554 
L 460.791321 132.514851 
L 464.69502 132.514851 
L 464.69502 127.485149 
L 467.402626 127.485149 
L 467.402626 122.455446 
L 467.863646 122.455446 
L 467.863646 117.425743 
L 468.689907 117.425743 
L 468.689907 112.39604 
L 470.610765 112.39604 
L 470.610765 107.366337 
L 471.902955 107.366337 
L 471.902955 102.336634 
L 477.264429 102.336634 
L 477.264429 97.306931 
L 480.852778 97.306931 
L 480.852778 92.277228 
L 485.249601 92.277228 
L 485.249601 87.247525 
L 490.10023 87.247525 
L 490.10023 82.217822 
L 493.274898 82.217822 
L 493.274898 77.188119 
L 499.55525 77.188119 
L 499.55525 72.158416 
L 501.067293 72.158416 
L 501.067293 67.128713 
L 503.5653 67.128713 
L 503.5653 62.09901 
L 504.801008 62.09901 
L 504.801008 57.069307 
L 507.108553 57.069307 
L 507.108553 52.039604 
L 507.781852 52.039604 
L 507.800907 41.980198 
L 508.779213 41.980198 
L 508.779213 36.950495 
L 511.20306 36.950495 
L 511.20306 31.920792 
L 513.982558 31.920792 
L 513.982558 26.891089 
L 524.658504 26.891089 
L 524.658504 21.861386 
L 526.043889 21.861386 
L 526.043889 16.831683 
L 529.62504 16.831683 
L 529.62504 11.80198 
L 531.434389 11.80198 
L 531.434389 6.772277 
L 531.434389 6.772277 
L 567.24 6.772277 
L 567.24 6.772277 
" style="fill:none;stroke:#bf00bf;stroke-linecap:square;"/>
   </g>
   <g id="line2d_4">
    <path clip-path="url(#pd5ff92a9fd)" d="M 278.191856 384 
L 278.191856 378.970297 
L 289.859618 378.970297 
L 289.859618 373.940594 
L 293.342572 373.940594 
L 293.368366 363.881188 
L 293.582377 363.881188 
L 293.582377 358.851485 
L 293.76967 358.851485 
L 293.76967 353.821782 
L 294.006758 353.821782 
L 294.006758 348.792079 
L 301.71716 348.792079 
L 301.71716 343.762376 
L 301.858447 343.762376 
L 301.858447 338.732673 
L 302.329396 338.732673 
L 302.329396 333.70297 
L 303.553676 333.70297 
L 303.553676 328.673267 
L 306.280564 328.673267 
L 306.280564 323.643564 
L 314.356625 323.643564 
L 314.356625 318.613861 
L 318.014274 318.613861 
L 318.1018 308.554455 
L 339.873065 308.554455 
L 339.873065 303.524752 
L 348.408662 303.524752 
L 348.408662 298.49505 
L 353.771107 298.49505 
L 353.771107 293.465347 
L 353.97852 293.465347 
L 354.032156 283.405941 
L 354.554673 283.405941 
L 354.554673 278.376238 
L 357.124765 278.376238 
L 357.124765 273.346535 
L 359.048913 273.346535 
L 359.048913 268.316832 
L 362.53077 268.316832 
L 362.53077 263.287129 
L 362.920738 263.287129 
L 362.920738 258.257426 
L 363.759552 258.257426 
L 363.759552 253.227723 
L 365.273522 253.227723 
L 365.273522 248.19802 
L 365.488261 248.19802 
L 365.488261 243.168317 
L 366.068161 243.168317 
L 366.068161 238.138614 
L 371.167469 238.138614 
L 371.167469 233.108911 
L 373.0507 233.108911 
L 373.0507 228.079208 
L 379.397247 228.079208 
L 379.397247 223.049505 
L 380.711296 223.049505 
L 380.711296 218.019802 
L 386.035735 218.019802 
L 386.035735 212.990099 
L 388.743531 212.990099 
L 388.743531 207.960396 
L 393.799332 207.960396 
L 393.799332 202.930693 
L 405.416303 202.930693 
L 405.416303 197.90099 
L 406.13112 197.90099 
L 406.13112 192.871287 
L 411.380908 192.871287 
L 411.380908 187.841584 
L 416.684263 187.841584 
L 416.684263 182.811881 
L 418.984923 182.811881 
L 418.984923 177.782178 
L 423.22966 177.782178 
L 423.22966 172.752475 
L 423.825654 172.752475 
L 423.825654 167.722772 
L 426.472684 167.722772 
L 426.472684 162.693069 
L 429.902818 162.693069 
L 429.902818 157.663366 
L 431.630832 157.663366 
L 431.630832 152.633663 
L 439.45687 152.633663 
L 439.45687 147.60396 
L 444.423739 147.60396 
L 444.423739 142.574257 
L 445.569866 142.574257 
L 445.569866 137.544554 
L 445.848975 137.544554 
L 445.848975 132.514851 
L 450.928302 132.514851 
L 450.928302 127.485149 
L 451.972037 127.485149 
L 451.972037 122.455446 
L 455.851163 122.455446 
L 455.851163 117.425743 
L 457.563669 117.425743 
L 457.563669 112.39604 
L 460.791321 112.39604 
L 460.791321 107.366337 
L 465.756706 107.366337 
L 465.806236 97.306931 
L 467.402626 97.306931 
L 467.402626 92.277228 
L 467.682346 92.277228 
L 467.682346 87.247525 
L 483.235675 87.247525 
L 483.235675 82.217822 
L 485.249601 82.217822 
L 485.249601 77.188119 
L 488.508744 77.188119 
L 488.508744 72.158416 
L 493.274898 72.158416 
L 493.274898 67.128713 
L 496.498629 67.128713 
L 496.498629 62.09901 
L 497.30281 62.09901 
L 497.30281 57.069307 
L 498.293814 57.069307 
L 498.293814 52.039604 
L 499.55525 52.039604 
L 499.55525 47.009901 
L 501.067293 47.009901 
L 501.067293 41.980198 
L 503.5653 41.980198 
L 503.5653 36.950495 
L 505.024104 36.950495 
L 505.024104 31.920792 
L 507.108553 31.920792 
L 507.108553 26.891089 
L 507.800907 26.891089 
L 507.800907 21.861386 
L 513.982558 21.861386 
L 513.982558 16.831683 
L 514.491549 16.831683 
L 514.491549 11.80198 
L 516.610717 11.80198 
L 516.610717 6.772277 
L 516.610717 6.772277 
L 567.24 6.772277 
L 567.24 6.772277 
" style="fill:none;stroke:#000000;stroke-linecap:square;"/>
   </g>
   <g id="line2d_5">
    <path clip-path="url(#pd5ff92a9fd)" d="M 278.191856 384 
L 278.191856 378.970297 
L 281.640308 378.970297 
L 281.640308 373.940594 
L 289.859618 373.940594 
L 289.859618 368.910891 
L 292.270655 368.910891 
L 292.270655 363.881188 
L 293.342572 363.881188 
L 293.368366 353.821782 
L 293.76967 353.821782 
L 293.76967 348.792079 
L 294.006758 348.792079 
L 294.006758 343.762376 
L 294.957238 343.762376 
L 294.957238 338.732673 
L 300.991159 338.732673 
L 300.991159 333.70297 
L 301.71716 333.70297 
L 301.71716 328.673267 
L 301.858447 328.673267 
L 301.858447 323.643564 
L 302.329396 323.643564 
L 302.329396 318.613861 
L 310.383413 318.613861 
L 310.383413 313.584158 
L 314.356625 313.584158 
L 314.356625 308.554455 
L 339.873065 308.554455 
L 339.873065 303.524752 
L 345.602614 303.524752 
L 345.602614 298.49505 
L 348.408662 298.49505 
L 348.408662 293.465347 
L 349.402053 293.465347 
L 349.402053 288.435644 
L 353.771107 288.435644 
L 353.771107 283.405941 
L 353.97852 283.405941 
L 353.97852 278.376238 
L 354.554673 278.376238 
L 354.554673 273.346535 
L 357.124765 273.346535 
L 357.124765 268.316832 
L 357.625337 268.316832 
L 357.625337 263.287129 
L 359.048913 263.287129 
L 359.159095 253.227723 
L 361.048893 253.227723 
L 361.048893 248.19802 
L 362.099019 248.19802 
L 362.099019 243.168317 
L 365.273522 243.168317 
L 365.273522 238.138614 
L 365.488261 238.138614 
L 365.488261 233.108911 
L 366.068161 233.108911 
L 366.068161 228.079208 
L 366.633204 228.079208 
L 366.633204 223.049505 
L 379.397247 223.049505 
L 379.397247 218.019802 
L 380.711296 218.019802 
L 380.711296 212.990099 
L 386.362281 212.990099 
L 386.362281 207.960396 
L 388.743531 207.960396 
L 388.743531 202.930693 
L 393.799332 202.930693 
L 393.799332 197.90099 
L 405.416303 197.90099 
L 405.416303 192.871287 
L 406.13112 192.871287 
L 406.13112 187.841584 
L 411.380908 187.841584 
L 411.380908 182.811881 
L 416.684263 182.811881 
L 416.684263 177.782178 
L 418.984923 177.782178 
L 418.984923 172.752475 
L 423.22966 172.752475 
L 423.22966 167.722772 
L 423.825654 167.722772 
L 423.825654 162.693069 
L 426.472684 162.693069 
L 426.472684 157.663366 
L 429.902818 157.663366 
L 429.902818 152.633663 
L 431.630832 152.633663 
L 431.630832 147.60396 
L 439.45687 147.60396 
L 439.45687 142.574257 
L 444.423739 142.574257 
L 444.423739 137.544554 
L 445.569866 137.544554 
L 445.569866 132.514851 
L 445.848975 132.514851 
L 445.848975 127.485149 
L 450.928302 127.485149 
L 450.928302 122.455446 
L 451.972037 122.455446 
L 451.972037 117.425743 
L 455.851163 117.425743 
L 455.851163 112.39604 
L 457.563669 112.39604 
L 457.563669 107.366337 
L 458.559165 107.366337 
L 458.559165 102.336634 
L 460.791321 102.336634 
L 460.791321 97.306931 
L 465.806236 97.306931 
L 465.806236 92.277228 
L 467.402626 92.277228 
L 467.402626 87.247525 
L 467.682346 87.247525 
L 467.682346 82.217822 
L 483.235675 82.217822 
L 483.235675 77.188119 
L 485.249601 77.188119 
L 485.249601 72.158416 
L 488.508744 72.158416 
L 488.508744 67.128713 
L 493.274898 67.128713 
L 493.274898 62.09901 
L 496.498629 62.09901 
L 496.498629 57.069307 
L 497.30281 57.069307 
L 497.30281 52.039604 
L 498.293814 52.039604 
L 498.293814 47.009901 
L 499.55525 47.009901 
L 499.55525 41.980198 
L 501.067293 41.980198 
L 501.067293 36.950495 
L 503.5653 36.950495 
L 503.5653 31.920792 
L 505.024104 31.920792 
L 505.024104 26.891089 
L 507.800907 26.891089 
L 507.800907 21.861386 
L 513.982558 21.861386 
L 513.982558 16.831683 
L 514.491549 16.831683 
L 514.491549 11.80198 
L 516.610717 11.80198 
L 516.610717 6.772277 
L 516.610717 6.772277 
L 567.24 6.772277 
L 567.24 6.772277 
" style="fill:none;stroke:#00bfbf;stroke-linecap:square;"/>
   </g>
   <g id="line2d_6">
    <path clip-path="url(#pd5ff92a9fd)" d="M 268.290122 384 
L 268.290122 378.970297 
L 276.986405 378.970297 
L 276.986405 373.940594 
L 278.191856 373.940594 
L 278.256955 363.881188 
L 279.19869 363.881188 
L 279.19869 358.851485 
L 279.800039 358.851485 
L 279.800039 353.821782 
L 281.264691 353.821782 
L 281.264691 348.792079 
L 281.438722 348.792079 
L 281.438722 343.762376 
L 281.640308 343.762376 
L 281.640308 338.732673 
L 284.310845 338.732673 
L 284.310845 333.70297 
L 286.860229 333.70297 
L 286.860229 328.673267 
L 288.933201 328.673267 
L 288.942144 318.613861 
L 290.708689 318.613861 
L 290.708689 313.584158 
L 294.581834 313.584158 
L 294.581834 308.554455 
L 322.113196 308.554455 
L 322.113196 303.524752 
L 328.085408 303.524752 
L 328.085408 298.49505 
L 330.277658 298.49505 
L 330.277658 293.465347 
L 336.186559 293.465347 
L 336.186559 288.435644 
L 339.873065 288.435644 
L 339.873065 283.405941 
L 341.904785 283.405941 
L 341.904785 278.376238 
L 342.140557 278.376238 
L 342.140557 273.346535 
L 343.234009 273.346535 
L 343.234009 268.316832 
L 345.533856 268.316832 
L 345.533856 263.287129 
L 347.092544 263.287129 
L 347.092544 258.257426 
L 347.256132 258.257426 
L 347.256132 253.227723 
L 348.029052 253.227723 
L 348.029052 248.19802 
L 349.372027 248.19802 
L 349.372027 243.168317 
L 349.948489 243.168317 
L 350.044329 233.108911 
L 351.928768 233.108911 
L 352.033339 223.049505 
L 352.553713 223.049505 
L 352.553713 218.019802 
L 353.084304 218.019802 
L 353.084304 212.990099 
L 353.233106 212.990099 
L 353.233106 207.960396 
L 354.55287 207.960396 
L 354.554673 197.90099 
L 356.165944 197.90099 
L 356.165944 192.871287 
L 363.052074 192.871287 
L 363.052074 187.841584 
L 368.005656 187.841584 
L 368.005656 182.811881 
L 379.397247 182.811881 
L 379.397247 177.782178 
L 379.960243 177.782178 
L 379.960243 172.752475 
L 383.891427 172.752475 
L 383.891427 167.722772 
L 384.946904 167.722772 
L 384.946904 162.693069 
L 386.362281 162.693069 
L 386.362281 157.663366 
L 393.799332 157.663366 
L 393.799332 152.633663 
L 403.394726 152.633663 
L 403.394726 147.60396 
L 406.558004 147.60396 
L 406.558004 142.574257 
L 407.891151 142.574257 
L 407.891151 137.544554 
L 408.65094 137.544554 
L 408.65094 132.514851 
L 411.422848 132.514851 
L 411.422848 127.485149 
L 417.601412 127.485149 
L 417.601412 122.455446 
L 423.825654 122.455446 
L 423.825654 117.425743 
L 424.225273 117.425743 
L 424.225273 112.39604 
L 425.363454 112.39604 
L 425.363454 107.366337 
L 426.782123 107.366337 
L 426.782123 102.336634 
L 429.167447 102.336634 
L 429.167447 97.306931 
L 429.731251 97.306931 
L 429.731251 92.277228 
L 433.793147 92.277228 
L 433.793147 87.247525 
L 436.634523 87.247525 
L 436.634523 82.217822 
L 440.107281 82.217822 
L 440.107281 77.188119 
L 445.848975 77.188119 
L 445.848975 72.158416 
L 449.489202 72.158416 
L 449.542219 62.09901 
L 471.677211 62.09901 
L 471.677211 57.069307 
L 474.270236 57.069307 
L 474.270236 52.039604 
L 478.038662 52.039604 
L 478.038662 47.009901 
L 479.645019 47.009901 
L 479.645019 41.980198 
L 480.351858 41.980198 
L 480.351858 36.950495 
L 483.383909 36.950495 
L 483.383909 31.920792 
L 485.249601 31.920792 
L 485.249601 26.891089 
L 487.378377 26.891089 
L 487.378377 21.861386 
L 496.915505 21.861386 
L 496.915505 16.831683 
L 499.152999 16.831683 
L 499.152999 11.80198 
L 502.531657 11.80198 
L 502.531657 6.772277 
L 502.531657 6.772277 
L 567.24 6.772277 
L 567.24 6.772277 
" style="fill:none;stroke:#bf00bf;stroke-linecap:square;"/>
   </g>
   <g id="line2d_7">
    <path clip-path="url(#pd5ff92a9fd)" d="M 213.280483 384 
L 213.280483 378.970297 
L 239.260639 378.970297 
L 239.260639 373.940594 
L 247.62846 373.940594 
L 247.62846 368.910891 
L 249.003978 368.910891 
L 249.003978 363.881188 
L 254.042288 363.881188 
L 254.042288 358.851485 
L 260.338634 358.851485 
L 260.338634 353.821782 
L 261.671157 353.821782 
L 261.671157 348.792079 
L 262.622691 348.792079 
L 262.622691 343.762376 
L 262.756116 343.762376 
L 262.756116 338.732673 
L 263.076317 338.732673 
L 263.076317 333.70297 
L 265.830549 333.70297 
L 265.830549 328.673267 
L 266.274999 328.673267 
L 266.274999 323.643564 
L 268.662913 323.643564 
L 268.662913 318.613861 
L 270.318799 318.613861 
L 270.318799 313.584158 
L 274.191316 313.584158 
L 274.191316 308.554455 
L 300.607891 308.554455 
L 300.607891 303.524752 
L 303.432145 303.524752 
L 303.432145 298.49505 
L 309.349592 298.49505 
L 309.349592 293.465347 
L 313.730966 293.465347 
L 313.730966 288.435644 
L 316.499465 288.435644 
L 316.499465 283.405941 
L 317.145264 283.405941 
L 317.145264 278.376238 
L 318.420736 278.376238 
L 318.511685 268.316832 
L 318.617057 268.316832 
L 318.617057 263.287129 
L 319.528349 263.287129 
L 319.528349 258.257426 
L 322.113196 258.257426 
L 322.113196 253.227723 
L 323.68033 253.227723 
L 323.68033 248.19802 
L 323.831557 248.19802 
L 323.831557 243.168317 
L 324.327982 243.168317 
L 324.327982 238.138614 
L 325.335584 238.138614 
L 325.335584 233.108911 
L 325.58839 233.108911 
L 325.58839 228.079208 
L 325.91617 228.079208 
L 325.91617 223.049505 
L 327.99349 223.049505 
L 328.085408 212.990099 
L 330.277658 212.990099 
L 330.277658 207.960396 
L 332.225683 207.960396 
L 332.225683 202.930693 
L 332.36736 202.930693 
L 332.36736 197.90099 
L 334.257427 197.90099 
L 334.280978 187.841584 
L 336.014186 187.841584 
L 336.065173 177.782178 
L 336.30483 177.782178 
L 336.30483 172.752475 
L 338.014578 172.752475 
L 338.014578 167.722772 
L 339.873065 167.722772 
L 339.873065 162.693069 
L 340.088785 162.693069 
L 340.098713 152.633663 
L 340.573693 152.633663 
L 340.667278 142.574257 
L 341.442279 142.574257 
L 341.442279 137.544554 
L 343.908128 137.544554 
L 343.908128 132.514851 
L 345.180911 132.514851 
L 345.180911 127.485149 
L 347.063441 127.485149 
L 347.063441 122.455446 
L 347.260789 122.455446 
L 347.260789 117.425743 
L 357.910657 117.425743 
L 357.910657 112.39604 
L 360.236411 112.39604 
L 360.236411 107.366337 
L 364.973707 107.366337 
L 364.973707 102.336634 
L 378.92258 102.336634 
L 378.92258 97.306931 
L 379.540132 97.306931 
L 379.540132 92.277228 
L 384.533858 92.277228 
L 384.533858 87.247525 
L 387.04284 87.247525 
L 387.04284 82.217822 
L 390.919046 82.217822 
L 390.919046 77.188119 
L 394.49543 77.188119 
L 394.49543 72.158416 
L 395.439985 72.158416 
L 395.439985 67.128713 
L 396.951909 67.128713 
L 397.030643 57.069307 
L 399.94531 57.069307 
L 399.94531 52.039604 
L 400.318406 52.039604 
L 400.318406 47.009901 
L 401.221303 47.009901 
L 401.221303 41.980198 
L 405.335517 41.980198 
L 405.335517 36.950495 
L 405.548216 36.950495 
L 405.548216 31.920792 
L 416.849316 31.920792 
L 416.849316 26.891089 
L 426.880546 26.891089 
L 426.880546 21.861386 
L 434.12268 21.861386 
L 434.12268 16.831683 
L 452.945547 16.831683 
L 452.945547 11.80198 
L 479.133031 11.80198 
L 479.133031 6.772277 
L 479.133031 6.772277 
L 567.24 6.772277 
L 567.24 6.772277 
" style="fill:none;stroke:#000000;stroke-linecap:square;"/>
   </g>
   <g id="line2d_8">
    <path clip-path="url(#pd5ff92a9fd)" d="M 210.455893 384 
L 210.455893 378.970297 
L 212.705727 378.970297 
L 212.705727 373.940594 
L 214.601395 373.940594 
L 214.601395 368.910891 
L 215.010068 368.910891 
L 215.010068 363.881188 
L 216.501189 363.881188 
L 216.501189 358.851485 
L 220.351255 358.851485 
L 220.351255 353.821782 
L 223.624789 353.821782 
L 223.624789 348.792079 
L 228.498232 348.792079 
L 228.498232 343.762376 
L 229.044842 343.762376 
L 229.044842 338.732673 
L 229.27814 338.732673 
L 229.27814 333.70297 
L 229.753663 333.70297 
L 229.753663 328.673267 
L 230.078413 328.673267 
L 230.078413 323.643564 
L 230.47687 323.643564 
L 230.47687 318.613861 
L 230.822742 318.613861 
L 230.822742 313.584158 
L 231.540106 313.584158 
L 231.540106 308.554455 
L 232.566925 308.554455 
L 232.566925 303.524752 
L 235.087171 303.524752 
L 235.087171 298.49505 
L 246.781047 298.49505 
L 246.781047 293.465347 
L 275.545733 293.465347 
L 275.545733 288.435644 
L 280.603561 288.435644 
L 280.603561 283.405941 
L 284.517699 283.405941 
L 284.517699 278.376238 
L 285.863592 278.376238 
L 285.863592 273.346535 
L 287.152253 273.346535 
L 287.152253 268.316832 
L 287.784345 268.316832 
L 287.784345 263.287129 
L 289.392741 263.287129 
L 289.392741 258.257426 
L 293.418328 258.257426 
L 293.418328 253.227723 
L 297.960917 253.227723 
L 297.960917 248.19802 
L 298.079122 248.19802 
L 298.079122 243.168317 
L 299.014618 243.168317 
L 299.014618 238.138614 
L 301.794213 238.138614 
L 301.794213 233.108911 
L 302.87188 233.108911 
L 302.87188 228.079208 
L 303.432145 228.079208 
L 303.432145 223.049505 
L 304.569179 223.049505 
L 304.569179 218.019802 
L 305.331033 218.019802 
L 305.331033 212.990099 
L 306.636948 212.990099 
L 306.636948 207.960396 
L 307.624085 207.960396 
L 307.624085 202.930693 
L 307.956422 202.930693 
L 307.956422 197.90099 
L 308.077664 197.90099 
L 308.077664 192.871287 
L 308.270709 192.871287 
L 308.270709 187.841584 
L 309.131985 187.841584 
L 309.131985 182.811881 
L 311.41079 182.811881 
L 311.41079 177.782178 
L 312.208766 177.782178 
L 312.208766 172.752475 
L 312.503801 172.752475 
L 312.503801 167.722772 
L 312.888737 167.722772 
L 312.888737 162.693069 
L 313.398783 162.693069 
L 313.398783 157.663366 
L 313.910247 157.663366 
L 314.010295 147.60396 
L 316.101481 147.60396 
L 316.101481 142.574257 
L 317.495394 142.574257 
L 317.495394 137.544554 
L 319.286054 137.544554 
L 319.286054 132.514851 
L 321.02132 132.514851 
L 321.02132 127.485149 
L 321.311131 127.485149 
L 321.410896 117.425743 
L 324.552659 117.425743 
L 324.552659 112.39604 
L 325.38696 112.39604 
L 325.460112 102.336634 
L 325.981196 102.336634 
L 325.981196 97.306931 
L 327.497817 97.306931 
L 327.497817 92.277228 
L 328.387207 92.277228 
L 328.387207 87.247525 
L 335.796936 87.247525 
L 335.796936 82.217822 
L 344.443565 82.217822 
L 344.443565 77.188119 
L 364.973707 77.188119 
L 364.973707 72.158416 
L 366.107094 72.158416 
L 366.107094 67.128713 
L 366.409245 67.128713 
L 366.409245 62.09901 
L 369.195663 62.09901 
L 369.195663 57.069307 
L 372.727143 57.069307 
L 372.727143 52.039604 
L 374.252853 52.039604 
L 374.252853 47.009901 
L 375.177883 47.009901 
L 375.177883 41.980198 
L 375.727775 41.980198 
L 375.727775 36.950495 
L 376.125867 36.950495 
L 376.125867 31.920792 
L 377.365171 31.920792 
L 377.365171 26.891089 
L 377.725841 26.891089 
L 377.725841 21.861386 
L 383.05489 21.861386 
L 383.05489 16.831683 
L 384.146328 16.831683 
L 384.146328 11.80198 
L 384.533858 11.80198 
L 384.533858 6.772277 
L 384.533858 6.772277 
L 567.24 6.772277 
L 567.24 6.772277 
" style="fill:none;stroke:#00bfbf;stroke-linecap:square;"/>
   </g>
   <g id="patch_3">
    <path d="M 3 3 
L 567.24 3 
" style="fill:none;stroke:#000000;stroke-linecap:square;stroke-linejoin:miter;"/>
   </g>
   <g id="patch_4">
    <path d="M 567.24 384 
L 567.24 3 
" style="fill:none;stroke:#000000;stroke-linecap:square;stroke-linejoin:miter;"/>
   </g>
   <g id="patch_5">
    <path d="M 3 384 
L 567.24 384 
" style="fill:none;stroke:#000000;stroke-linecap:square;stroke-linejoin:miter;"/>
   </g>
   <g id="patch_6">
    <path d="M 3 384 
L 3 3 
" style="fill:none;stroke:#000000;stroke-linecap:square;stroke-linejoin:miter;"/>
   </g>
   <g id="matplotlib.axis_1">
    <g id="xtick_1"/>
    <g id="xtick_2">
     <g id="line2d_9">
      <path clip-path="url(#pd5ff92a9fd)" d="M 69.254589 384 
L 69.254589 3 
" style="fill:none;stroke:#000000;stroke-dasharray:1.000000,3.000000;stroke-dashoffset:0.0;stroke-width:0.5;"/>
     </g>
     <g id="line2d_10">
      <defs>
       <path d="M 0 0 
L 0 -4 
" id="mf2d04b920c" style="stroke:#000000;stroke-width:0.5;"/>
      </defs>
      <g>
       <use style="stroke:#000000;stroke-width:0.5;" x="69.2545893472" xlink:href="#mf2d04b920c" y="384.0"/>
      </g>
     </g>
     <g id="line2d_11">
      <defs>
       <path d="M 0 0 
L 0 4 
" id="mb34a9572fc" style="stroke:#000000;stroke-width:0.5;"/>
      </defs>
      <g>
       <use style="stroke:#000000;stroke-width:0.5;" x="69.2545893472" xlink:href="#mb34a9572fc" y="3.0"/>
      </g>
     </g>
     <g id="text_1">
      <!-- -6 -->
      <defs>
       <path d="M 33.015625 40.375 
Q 26.375 40.375 22.484375 35.828125 
Q 18.609375 31.296875 18.609375 23.390625 
Q 18.609375 15.53125 22.484375 10.953125 
Q 26.375 6.390625 33.015625 6.390625 
Q 39.65625 6.390625 43.53125 10.953125 
Q 47.40625 15.53125 47.40625 23.390625 
Q 47.40625 31.296875 43.53125 35.828125 
Q 39.65625 40.375 33.015625 40.375 
M 52.59375 71.296875 
L 52.59375 62.3125 
Q 48.875 64.0625 45.09375 64.984375 
Q 41.3125 65.921875 37.59375 65.921875 
Q 27.828125 65.921875 22.671875 59.328125 
Q 17.53125 52.734375 16.796875 39.40625 
Q 19.671875 43.65625 24.015625 45.921875 
Q 28.375 48.1875 33.59375 48.1875 
Q 44.578125 48.1875 50.953125 41.515625 
Q 57.328125 34.859375 57.328125 23.390625 
Q 57.328125 12.15625 50.6875 5.359375 
Q 44.046875 -1.421875 33.015625 -1.421875 
Q 20.359375 -1.421875 13.671875 8.265625 
Q 6.984375 17.96875 6.984375 36.375 
Q 6.984375 53.65625 15.1875 63.9375 
Q 23.390625 74.21875 37.203125 74.21875 
Q 40.921875 74.21875 44.703125 73.484375 
Q 48.484375 72.75 52.59375 71.296875 
" id="BitstreamVeraSans-Roman-36"/>
       <path d="M 4.890625 31.390625 
L 31.203125 31.390625 
L 31.203125 23.390625 
L 4.890625 23.390625 
z
" id="BitstreamVeraSans-Roman-2d"/>
      </defs>
      <g transform="translate(59.2842768472 403.196875)scale(0.2 -0.2)">
       <use xlink:href="#BitstreamVeraSans-Roman-2d"/>
       <use x="36.083984375" xlink:href="#BitstreamVeraSans-Roman-36"/>
      </g>
     </g>
    </g>
    <g id="xtick_3">
     <g id="line2d_12">
      <path clip-path="url(#pd5ff92a9fd)" d="M 135.652644 384 
L 135.652644 3 
" style="fill:none;stroke:#000000;stroke-dasharray:1.000000,3.000000;stroke-dashoffset:0.0;stroke-width:0.5;"/>
     </g>
     <g id="line2d_13">
      <g>
       <use style="stroke:#000000;stroke-width:0.5;" x="135.652644101" xlink:href="#mf2d04b920c" y="384.0"/>
      </g>
     </g>
     <g id="line2d_14">
      <g>
       <use style="stroke:#000000;stroke-width:0.5;" x="135.652644101" xlink:href="#mb34a9572fc" y="3.0"/>
      </g>
     </g>
     <g id="text_2">
      <!-- -4 -->
      <defs>
       <path d="M 37.796875 64.3125 
L 12.890625 25.390625 
L 37.796875 25.390625 
z
M 35.203125 72.90625 
L 47.609375 72.90625 
L 47.609375 25.390625 
L 58.015625 25.390625 
L 58.015625 17.1875 
L 47.609375 17.1875 
L 47.609375 0 
L 37.796875 0 
L 37.796875 17.1875 
L 4.890625 17.1875 
L 4.890625 26.703125 
z
" id="BitstreamVeraSans-Roman-34"/>
      </defs>
      <g transform="translate(125.682331601 403.196875)scale(0.2 -0.2)">
       <use xlink:href="#BitstreamVeraSans-Roman-2d"/>
       <use x="36.083984375" xlink:href="#BitstreamVeraSans-Roman-34"/>
      </g>
     </g>
    </g>
    <g id="xtick_4">
     <g id="line2d_15">
      <path clip-path="url(#pd5ff92a9fd)" d="M 202.050699 384 
L 202.050699 3 
" style="fill:none;stroke:#000000;stroke-dasharray:1.000000,3.000000;stroke-dashoffset:0.0;stroke-width:0.5;"/>
     </g>
     <g id="line2d_16">
      <g>
       <use style="stroke:#000000;stroke-width:0.5;" x="202.050698855" xlink:href="#mf2d04b920c" y="384.0"/>
      </g>
     </g>
     <g id="line2d_17">
      <g>
       <use style="stroke:#000000;stroke-width:0.5;" x="202.050698855" xlink:href="#mb34a9572fc" y="3.0"/>
      </g>
     </g>
     <g id="text_3">
      <!-- -2 -->
      <defs>
       <path d="M 19.1875 8.296875 
L 53.609375 8.296875 
L 53.609375 0 
L 7.328125 0 
L 7.328125 8.296875 
Q 12.9375 14.109375 22.625 23.890625 
Q 32.328125 33.6875 34.8125 36.53125 
Q 39.546875 41.84375 41.421875 45.53125 
Q 43.3125 49.21875 43.3125 52.78125 
Q 43.3125 58.59375 39.234375 62.25 
Q 35.15625 65.921875 28.609375 65.921875 
Q 23.96875 65.921875 18.8125 64.3125 
Q 13.671875 62.703125 7.8125 59.421875 
L 7.8125 69.390625 
Q 13.765625 71.78125 18.9375 73 
Q 24.125 74.21875 28.421875 74.21875 
Q 39.75 74.21875 46.484375 68.546875 
Q 53.21875 62.890625 53.21875 53.421875 
Q 53.21875 48.921875 51.53125 44.890625 
Q 49.859375 40.875 45.40625 35.40625 
Q 44.1875 33.984375 37.640625 27.21875 
Q 31.109375 20.453125 19.1875 8.296875 
" id="BitstreamVeraSans-Roman-32"/>
      </defs>
      <g transform="translate(192.080386355 403.196875)scale(0.2 -0.2)">
       <use xlink:href="#BitstreamVeraSans-Roman-2d"/>
       <use x="36.083984375" xlink:href="#BitstreamVeraSans-Roman-32"/>
      </g>
     </g>
    </g>
    <g id="xtick_5">
     <g id="line2d_18">
      <path clip-path="url(#pd5ff92a9fd)" d="M 268.448754 384 
L 268.448754 3 
" style="fill:none;stroke:#000000;stroke-dasharray:1.000000,3.000000;stroke-dashoffset:0.0;stroke-width:0.5;"/>
     </g>
     <g id="line2d_19">
      <g>
       <use style="stroke:#000000;stroke-width:0.5;" x="268.448753608" xlink:href="#mf2d04b920c" y="384.0"/>
      </g>
     </g>
     <g id="line2d_20">
      <g>
       <use style="stroke:#000000;stroke-width:0.5;" x="268.448753608" xlink:href="#mb34a9572fc" y="3.0"/>
      </g>
     </g>
     <g id="text_4">
      <!-- 0 -->
      <defs>
       <path d="M 31.78125 66.40625 
Q 24.171875 66.40625 20.328125 58.90625 
Q 16.5 51.421875 16.5 36.375 
Q 16.5 21.390625 20.328125 13.890625 
Q 24.171875 6.390625 31.78125 6.390625 
Q 39.453125 6.390625 43.28125 13.890625 
Q 47.125 21.390625 47.125 36.375 
Q 47.125 51.421875 43.28125 58.90625 
Q 39.453125 66.40625 31.78125 66.40625 
M 31.78125 74.21875 
Q 44.046875 74.21875 50.515625 64.515625 
Q 56.984375 54.828125 56.984375 36.375 
Q 56.984375 17.96875 50.515625 8.265625 
Q 44.046875 -1.421875 31.78125 -1.421875 
Q 19.53125 -1.421875 13.0625 8.265625 
Q 6.59375 17.96875 6.59375 36.375 
Q 6.59375 54.828125 13.0625 64.515625 
Q 19.53125 74.21875 31.78125 74.21875 
" id="BitstreamVeraSans-Roman-30"/>
      </defs>
      <g transform="translate(262.086253608 403.196875)scale(0.2 -0.2)">
       <use xlink:href="#BitstreamVeraSans-Roman-30"/>
      </g>
     </g>
    </g>
    <g id="xtick_6">
     <g id="line2d_21">
      <path clip-path="url(#pd5ff92a9fd)" d="M 334.846808 384 
L 334.846808 3 
" style="fill:none;stroke:#000000;stroke-dasharray:1.000000,3.000000;stroke-dashoffset:0.0;stroke-width:0.5;"/>
     </g>
     <g id="line2d_22">
      <g>
       <use style="stroke:#000000;stroke-width:0.5;" x="334.846808362" xlink:href="#mf2d04b920c" y="384.0"/>
      </g>
     </g>
     <g id="line2d_23">
      <g>
       <use style="stroke:#000000;stroke-width:0.5;" x="334.846808362" xlink:href="#mb34a9572fc" y="3.0"/>
      </g>
     </g>
     <g id="text_5">
      <!-- 2 -->
      <g transform="translate(328.484308362 403.196875)scale(0.2 -0.2)">
       <use xlink:href="#BitstreamVeraSans-Roman-32"/>
      </g>
     </g>
    </g>
    <g id="xtick_7">
     <g id="line2d_24">
      <path clip-path="url(#pd5ff92a9fd)" d="M 401.244863 384 
L 401.244863 3 
" style="fill:none;stroke:#000000;stroke-dasharray:1.000000,3.000000;stroke-dashoffset:0.0;stroke-width:0.5;"/>
     </g>
     <g id="line2d_25">
      <g>
       <use style="stroke:#000000;stroke-width:0.5;" x="401.244863116" xlink:href="#mf2d04b920c" y="384.0"/>
      </g>
     </g>
     <g id="line2d_26">
      <g>
       <use style="stroke:#000000;stroke-width:0.5;" x="401.244863116" xlink:href="#mb34a9572fc" y="3.0"/>
      </g>
     </g>
     <g id="text_6">
      <!-- 4 -->
      <g transform="translate(394.882363116 403.196875)scale(0.2 -0.2)">
       <use xlink:href="#BitstreamVeraSans-Roman-34"/>
      </g>
     </g>
    </g>
    <g id="xtick_8">
     <g id="line2d_27">
      <path clip-path="url(#pd5ff92a9fd)" d="M 467.642918 384 
L 467.642918 3 
" style="fill:none;stroke:#000000;stroke-dasharray:1.000000,3.000000;stroke-dashoffset:0.0;stroke-width:0.5;"/>
     </g>
     <g id="line2d_28">
      <g>
       <use style="stroke:#000000;stroke-width:0.5;" x="467.642917869" xlink:href="#mf2d04b920c" y="384.0"/>
      </g>
     </g>
     <g id="line2d_29">
      <g>
       <use style="stroke:#000000;stroke-width:0.5;" x="467.642917869" xlink:href="#mb34a9572fc" y="3.0"/>
      </g>
     </g>
     <g id="text_7">
      <!-- 6 -->
      <g transform="translate(461.280417869 403.196875)scale(0.2 -0.2)">
       <use xlink:href="#BitstreamVeraSans-Roman-36"/>
      </g>
     </g>
    </g>
    <g id="xtick_9">
     <g id="line2d_30">
      <path clip-path="url(#pd5ff92a9fd)" d="M 534.040973 384 
L 534.040973 3 
" style="fill:none;stroke:#000000;stroke-dasharray:1.000000,3.000000;stroke-dashoffset:0.0;stroke-width:0.5;"/>
     </g>
     <g id="line2d_31">
      <g>
       <use style="stroke:#000000;stroke-width:0.5;" x="534.040972623" xlink:href="#mf2d04b920c" y="384.0"/>
      </g>
     </g>
     <g id="line2d_32">
      <g>
       <use style="stroke:#000000;stroke-width:0.5;" x="534.040972623" xlink:href="#mb34a9572fc" y="3.0"/>
      </g>
     </g>
     <g id="text_8">
      <!-- 8 -->
      <defs>
       <path d="M 31.78125 34.625 
Q 24.75 34.625 20.71875 30.859375 
Q 16.703125 27.09375 16.703125 20.515625 
Q 16.703125 13.921875 20.71875 10.15625 
Q 24.75 6.390625 31.78125 6.390625 
Q 38.8125 6.390625 42.859375 10.171875 
Q 46.921875 13.96875 46.921875 20.515625 
Q 46.921875 27.09375 42.890625 30.859375 
Q 38.875 34.625 31.78125 34.625 
M 21.921875 38.8125 
Q 15.578125 40.375 12.03125 44.71875 
Q 8.5 49.078125 8.5 55.328125 
Q 8.5 64.0625 14.71875 69.140625 
Q 20.953125 74.21875 31.78125 74.21875 
Q 42.671875 74.21875 48.875 69.140625 
Q 55.078125 64.0625 55.078125 55.328125 
Q 55.078125 49.078125 51.53125 44.71875 
Q 48 40.375 41.703125 38.8125 
Q 48.828125 37.15625 52.796875 32.3125 
Q 56.78125 27.484375 56.78125 20.515625 
Q 56.78125 9.90625 50.3125 4.234375 
Q 43.84375 -1.421875 31.78125 -1.421875 
Q 19.734375 -1.421875 13.25 4.234375 
Q 6.78125 9.90625 6.78125 20.515625 
Q 6.78125 27.484375 10.78125 32.3125 
Q 14.796875 37.15625 21.921875 38.8125 
M 18.3125 54.390625 
Q 18.3125 48.734375 21.84375 45.5625 
Q 25.390625 42.390625 31.78125 42.390625 
Q 38.140625 42.390625 41.71875 45.5625 
Q 45.3125 48.734375 45.3125 54.390625 
Q 45.3125 60.0625 41.71875 63.234375 
Q 38.140625 66.40625 31.78125 66.40625 
Q 25.390625 66.40625 21.84375 63.234375 
Q 18.3125 60.0625 18.3125 54.390625 
" id="BitstreamVeraSans-Roman-38"/>
      </defs>
      <g transform="translate(527.678472623 403.196875)scale(0.2 -0.2)">
       <use xlink:href="#BitstreamVeraSans-Roman-38"/>
      </g>
     </g>
    </g>
    <g id="xtick_10"/>
    <g id="xtick_11">
     <g id="line2d_33">
      <defs>
       <path d="M 0 0 
L 0 -2 
" id="mf8061f04c1" style="stroke:#000000;stroke-width:0.5;"/>
      </defs>
      <g>
       <use style="stroke:#000000;stroke-width:0.5;" x="69.2545893472" xlink:href="#mf8061f04c1" y="384.0"/>
      </g>
     </g>
     <g id="line2d_34">
      <defs>
       <path d="M 0 0 
L 0 2 
" id="m0f974d5673" style="stroke:#000000;stroke-width:0.5;"/>
      </defs>
      <g>
       <use style="stroke:#000000;stroke-width:0.5;" x="69.2545893472" xlink:href="#m0f974d5673" y="3.0"/>
      </g>
     </g>
    </g>
    <g id="xtick_12">
     <g id="line2d_35">
      <g>
       <use style="stroke:#000000;stroke-width:0.5;" x="135.652644101" xlink:href="#mf8061f04c1" y="384.0"/>
      </g>
     </g>
     <g id="line2d_36">
      <g>
       <use style="stroke:#000000;stroke-width:0.5;" x="135.652644101" xlink:href="#m0f974d5673" y="3.0"/>
      </g>
     </g>
    </g>
    <g id="xtick_13">
     <g id="line2d_37">
      <g>
       <use style="stroke:#000000;stroke-width:0.5;" x="202.050698855" xlink:href="#mf8061f04c1" y="384.0"/>
      </g>
     </g>
     <g id="line2d_38">
      <g>
       <use style="stroke:#000000;stroke-width:0.5;" x="202.050698855" xlink:href="#m0f974d5673" y="3.0"/>
      </g>
     </g>
    </g>
    <g id="xtick_14">
     <g id="line2d_39">
      <g>
       <use style="stroke:#000000;stroke-width:0.5;" x="268.448753608" xlink:href="#mf8061f04c1" y="384.0"/>
      </g>
     </g>
     <g id="line2d_40">
      <g>
       <use style="stroke:#000000;stroke-width:0.5;" x="268.448753608" xlink:href="#m0f974d5673" y="3.0"/>
      </g>
     </g>
    </g>
    <g id="xtick_15">
     <g id="line2d_41">
      <g>
       <use style="stroke:#000000;stroke-width:0.5;" x="334.846808362" xlink:href="#mf8061f04c1" y="384.0"/>
      </g>
     </g>
     <g id="line2d_42">
      <g>
       <use style="stroke:#000000;stroke-width:0.5;" x="334.846808362" xlink:href="#m0f974d5673" y="3.0"/>
      </g>
     </g>
    </g>
    <g id="xtick_16">
     <g id="line2d_43">
      <g>
       <use style="stroke:#000000;stroke-width:0.5;" x="401.244863116" xlink:href="#mf8061f04c1" y="384.0"/>
      </g>
     </g>
     <g id="line2d_44">
      <g>
       <use style="stroke:#000000;stroke-width:0.5;" x="401.244863116" xlink:href="#m0f974d5673" y="3.0"/>
      </g>
     </g>
    </g>
    <g id="xtick_17">
     <g id="line2d_45">
      <g>
       <use style="stroke:#000000;stroke-width:0.5;" x="467.642917869" xlink:href="#mf8061f04c1" y="384.0"/>
      </g>
     </g>
     <g id="line2d_46">
      <g>
       <use style="stroke:#000000;stroke-width:0.5;" x="467.642917869" xlink:href="#m0f974d5673" y="3.0"/>
      </g>
     </g>
    </g>
    <g id="xtick_18">
     <g id="line2d_47">
      <g>
       <use style="stroke:#000000;stroke-width:0.5;" x="534.040972623" xlink:href="#mf8061f04c1" y="384.0"/>
      </g>
     </g>
     <g id="line2d_48">
      <g>
       <use style="stroke:#000000;stroke-width:0.5;" x="534.040972623" xlink:href="#m0f974d5673" y="3.0"/>
      </g>
     </g>
    </g>
    <g id="text_9">
     <!-- log10 of Df -->
     <defs>
      <path id="BitstreamVeraSans-Roman-20"/>
      <path d="M 12.40625 8.296875 
L 28.515625 8.296875 
L 28.515625 63.921875 
L 10.984375 60.40625 
L 10.984375 69.390625 
L 28.421875 72.90625 
L 38.28125 72.90625 
L 38.28125 8.296875 
L 54.390625 8.296875 
L 54.390625 0 
L 12.40625 0 
z
" id="BitstreamVeraSans-Roman-31"/>
      <path d="M 30.609375 48.390625 
Q 23.390625 48.390625 19.1875 42.75 
Q 14.984375 37.109375 14.984375 27.296875 
Q 14.984375 17.484375 19.15625 11.84375 
Q 23.34375 6.203125 30.609375 6.203125 
Q 37.796875 6.203125 41.984375 11.859375 
Q 46.1875 17.53125 46.1875 27.296875 
Q 46.1875 37.015625 41.984375 42.703125 
Q 37.796875 48.390625 30.609375 48.390625 
M 30.609375 56 
Q 42.328125 56 49.015625 48.375 
Q 55.71875 40.765625 55.71875 27.296875 
Q 55.71875 13.875 49.015625 6.21875 
Q 42.328125 -1.421875 30.609375 -1.421875 
Q 18.84375 -1.421875 12.171875 6.21875 
Q 5.515625 13.875 5.515625 27.296875 
Q 5.515625 40.765625 12.171875 48.375 
Q 18.84375 56 30.609375 56 
" id="BitstreamVeraSans-Roman-6f"/>
      <path d="M 9.421875 75.984375 
L 18.40625 75.984375 
L 18.40625 0 
L 9.421875 0 
z
" id="BitstreamVeraSans-Roman-6c"/>
      <path d="M 19.671875 64.796875 
L 19.671875 8.109375 
L 31.59375 8.109375 
Q 46.6875 8.109375 53.6875 14.9375 
Q 60.6875 21.78125 60.6875 36.53125 
Q 60.6875 51.171875 53.6875 57.984375 
Q 46.6875 64.796875 31.59375 64.796875 
z
M 9.8125 72.90625 
L 30.078125 72.90625 
Q 51.265625 72.90625 61.171875 64.09375 
Q 71.09375 55.28125 71.09375 36.53125 
Q 71.09375 17.671875 61.125 8.828125 
Q 51.171875 0 30.078125 0 
L 9.8125 0 
z
" id="BitstreamVeraSans-Roman-44"/>
      <path d="M 45.40625 27.984375 
Q 45.40625 37.75 41.375 43.109375 
Q 37.359375 48.484375 30.078125 48.484375 
Q 22.859375 48.484375 18.828125 43.109375 
Q 14.796875 37.75 14.796875 27.984375 
Q 14.796875 18.265625 18.828125 12.890625 
Q 22.859375 7.515625 30.078125 7.515625 
Q 37.359375 7.515625 41.375 12.890625 
Q 45.40625 18.265625 45.40625 27.984375 
M 54.390625 6.78125 
Q 54.390625 -7.171875 48.1875 -13.984375 
Q 42 -20.796875 29.203125 -20.796875 
Q 24.46875 -20.796875 20.265625 -20.09375 
Q 16.0625 -19.390625 12.109375 -17.921875 
L 12.109375 -9.1875 
Q 16.0625 -11.328125 19.921875 -12.34375 
Q 23.78125 -13.375 27.78125 -13.375 
Q 36.625 -13.375 41.015625 -8.765625 
Q 45.40625 -4.15625 45.40625 5.171875 
L 45.40625 9.625 
Q 42.625 4.78125 38.28125 2.390625 
Q 33.9375 0 27.875 0 
Q 17.828125 0 11.671875 7.65625 
Q 5.515625 15.328125 5.515625 27.984375 
Q 5.515625 40.671875 11.671875 48.328125 
Q 17.828125 56 27.875 56 
Q 33.9375 56 38.28125 53.609375 
Q 42.625 51.21875 45.40625 46.390625 
L 45.40625 54.6875 
L 54.390625 54.6875 
z
" id="BitstreamVeraSans-Roman-67"/>
      <path d="M 37.109375 75.984375 
L 37.109375 68.5 
L 28.515625 68.5 
Q 23.6875 68.5 21.796875 66.546875 
Q 19.921875 64.59375 19.921875 59.515625 
L 19.921875 54.6875 
L 34.71875 54.6875 
L 34.71875 47.703125 
L 19.921875 47.703125 
L 19.921875 0 
L 10.890625 0 
L 10.890625 47.703125 
L 2.296875 47.703125 
L 2.296875 54.6875 
L 10.890625 54.6875 
L 10.890625 58.5 
Q 10.890625 67.625 15.140625 71.796875 
Q 19.390625 75.984375 28.609375 75.984375 
z
" id="BitstreamVeraSans-Roman-66"/>
     </defs>
     <g transform="translate(229.9340625 427.553125)scale(0.2 -0.2)">
      <use xlink:href="#BitstreamVeraSans-Roman-6c"/>
      <use x="27.783203125" xlink:href="#BitstreamVeraSans-Roman-6f"/>
      <use x="88.96484375" xlink:href="#BitstreamVeraSans-Roman-67"/>
      <use x="152.44140625" xlink:href="#BitstreamVeraSans-Roman-31"/>
      <use x="216.064453125" xlink:href="#BitstreamVeraSans-Roman-30"/>
      <use x="279.6875" xlink:href="#BitstreamVeraSans-Roman-20"/>
      <use x="311.474609375" xlink:href="#BitstreamVeraSans-Roman-6f"/>
      <use x="372.65625" xlink:href="#BitstreamVeraSans-Roman-66"/>
      <use x="407.861328125" xlink:href="#BitstreamVeraSans-Roman-20"/>
      <use x="439.6484375" xlink:href="#BitstreamVeraSans-Roman-44"/>
      <use x="516.650390625" xlink:href="#BitstreamVeraSans-Roman-66"/>
     </g>
    </g>
   </g>
   <g id="matplotlib.axis_2">
    <g id="ytick_1">
     <g id="line2d_49">
      <path clip-path="url(#pd5ff92a9fd)" d="M 3 384 
L 567.24 384 
" style="fill:none;stroke:#000000;stroke-dasharray:1.000000,3.000000;stroke-dashoffset:0.0;stroke-width:0.5;"/>
     </g>
     <g id="line2d_50">
      <defs>
       <path d="M 0 0 
L 4 0 
" id="m2502814353" style="stroke:#000000;stroke-width:0.5;"/>
      </defs>
      <g>
       <use style="stroke:#000000;stroke-width:0.5;" x="3.0" xlink:href="#m2502814353" y="384.0"/>
      </g>
     </g>
     <g id="line2d_51">
      <defs>
       <path d="M 0 0 
L -4 0 
" id="mcfe083c2b0" style="stroke:#000000;stroke-width:0.5;"/>
      </defs>
      <g>
       <use style="stroke:#000000;stroke-width:0.5;" x="567.24" xlink:href="#mcfe083c2b0" y="384.0"/>
      </g>
     </g>
    </g>
    <g id="ytick_2">
     <g id="line2d_52">
      <path clip-path="url(#pd5ff92a9fd)" d="M 3 308.554455 
L 567.24 308.554455 
" style="fill:none;stroke:#000000;stroke-dasharray:1.000000,3.000000;stroke-dashoffset:0.0;stroke-width:0.5;"/>
     </g>
     <g id="line2d_53">
      <g>
       <use style="stroke:#000000;stroke-width:0.5;" x="3.0" xlink:href="#m2502814353" y="308.554455446"/>
      </g>
     </g>
     <g id="line2d_54">
      <g>
       <use style="stroke:#000000;stroke-width:0.5;" x="567.24" xlink:href="#mcfe083c2b0" y="308.554455446"/>
      </g>
     </g>
    </g>
    <g id="ytick_3">
     <g id="line2d_55">
      <path clip-path="url(#pd5ff92a9fd)" d="M 3 233.108911 
L 567.24 233.108911 
" style="fill:none;stroke:#000000;stroke-dasharray:1.000000,3.000000;stroke-dashoffset:0.0;stroke-width:0.5;"/>
     </g>
     <g id="line2d_56">
      <g>
       <use style="stroke:#000000;stroke-width:0.5;" x="3.0" xlink:href="#m2502814353" y="233.108910891"/>
      </g>
     </g>
     <g id="line2d_57">
      <g>
       <use style="stroke:#000000;stroke-width:0.5;" x="567.24" xlink:href="#mcfe083c2b0" y="233.108910891"/>
      </g>
     </g>
    </g>
    <g id="ytick_4">
     <g id="line2d_58">
      <path clip-path="url(#pd5ff92a9fd)" d="M 3 157.663366 
L 567.24 157.663366 
" style="fill:none;stroke:#000000;stroke-dasharray:1.000000,3.000000;stroke-dashoffset:0.0;stroke-width:0.5;"/>
     </g>
     <g id="line2d_59">
      <g>
       <use style="stroke:#000000;stroke-width:0.5;" x="3.0" xlink:href="#m2502814353" y="157.663366337"/>
      </g>
     </g>
     <g id="line2d_60">
      <g>
       <use style="stroke:#000000;stroke-width:0.5;" x="567.24" xlink:href="#mcfe083c2b0" y="157.663366337"/>
      </g>
     </g>
    </g>
    <g id="ytick_5">
     <g id="line2d_61">
      <path clip-path="url(#pd5ff92a9fd)" d="M 3 82.217822 
L 567.24 82.217822 
" style="fill:none;stroke:#000000;stroke-dasharray:1.000000,3.000000;stroke-dashoffset:0.0;stroke-width:0.5;"/>
     </g>
     <g id="line2d_62">
      <g>
       <use style="stroke:#000000;stroke-width:0.5;" x="3.0" xlink:href="#m2502814353" y="82.2178217822"/>
      </g>
     </g>
     <g id="line2d_63">
      <g>
       <use style="stroke:#000000;stroke-width:0.5;" x="567.24" xlink:href="#mcfe083c2b0" y="82.2178217822"/>
      </g>
     </g>
    </g>
    <g id="ytick_6">
     <g id="line2d_64">
      <path clip-path="url(#pd5ff92a9fd)" d="M 3 6.772277 
L 567.24 6.772277 
" style="fill:none;stroke:#000000;stroke-dasharray:1.000000,3.000000;stroke-dashoffset:0.0;stroke-width:0.5;"/>
     </g>
     <g id="line2d_65">
      <g>
       <use style="stroke:#000000;stroke-width:0.5;" x="3.0" xlink:href="#m2502814353" y="6.77227722772"/>
      </g>
     </g>
     <g id="line2d_66">
      <g>
       <use style="stroke:#000000;stroke-width:0.5;" x="567.24" xlink:href="#mcfe083c2b0" y="6.77227722772"/>
      </g>
     </g>
    </g>
   </g>
   <g id="text_10">
    <!-- {f10-f14}, 5-D -->
    <defs>
     <path d="M 12.5 -9.28125 
L 15.921875 -9.28125 
Q 22.75 -9.28125 24.828125 -7.171875 
Q 26.90625 -5.078125 26.90625 1.90625 
L 26.90625 14.015625 
Q 26.90625 21.625 29.09375 25.09375 
Q 31.296875 28.5625 36.71875 29.890625 
Q 31.296875 31.109375 29.09375 34.5625 
Q 26.90625 38.03125 26.90625 45.703125 
L 26.90625 57.8125 
Q 26.90625 64.75 24.828125 66.875 
Q 22.75 69 15.921875 69 
L 12.5 69 
L 12.5 75.984375 
L 15.578125 75.984375 
Q 27.734375 75.984375 31.8125 72.390625 
Q 35.890625 68.796875 35.890625 58.015625 
L 35.890625 46.296875 
Q 35.890625 39.015625 38.515625 36.203125 
Q 41.15625 33.40625 48.09375 33.40625 
L 51.125 33.40625 
L 51.125 26.421875 
L 48.09375 26.421875 
Q 41.15625 26.421875 38.515625 23.578125 
Q 35.890625 20.75 35.890625 13.375 
L 35.890625 1.703125 
Q 35.890625 -9.078125 31.8125 -12.6875 
Q 27.734375 -16.3125 15.578125 -16.3125 
L 12.5 -16.3125 
z
" id="BitstreamVeraSans-Roman-7d"/>
     <path d="M 51.125 -9.28125 
L 51.125 -16.3125 
L 48.09375 -16.3125 
Q 35.9375 -16.3125 31.8125 -12.6875 
Q 27.6875 -9.078125 27.6875 1.703125 
L 27.6875 13.375 
Q 27.6875 20.75 25.046875 23.578125 
Q 22.40625 26.421875 15.484375 26.421875 
L 12.5 26.421875 
L 12.5 33.40625 
L 15.484375 33.40625 
Q 22.46875 33.40625 25.078125 36.203125 
Q 27.6875 39.015625 27.6875 46.296875 
L 27.6875 58.015625 
Q 27.6875 68.796875 31.8125 72.390625 
Q 35.9375 75.984375 48.09375 75.984375 
L 51.125 75.984375 
L 51.125 69 
L 47.796875 69 
Q 40.921875 69 38.8125 66.84375 
Q 36.71875 64.703125 36.71875 57.8125 
L 36.71875 45.703125 
Q 36.71875 38.03125 34.5 34.5625 
Q 32.28125 31.109375 26.90625 29.890625 
Q 32.328125 28.5625 34.515625 25.09375 
Q 36.71875 21.625 36.71875 14.015625 
L 36.71875 1.90625 
Q 36.71875 -4.984375 38.8125 -7.125 
Q 40.921875 -9.28125 47.796875 -9.28125 
z
" id="BitstreamVeraSans-Roman-7b"/>
     <path d="M 11.71875 12.40625 
L 22.015625 12.40625 
L 22.015625 4 
L 14.015625 -11.625 
L 7.71875 -11.625 
L 11.71875 4 
z
" id="BitstreamVeraSans-Roman-2c"/>
     <path d="M 10.796875 72.90625 
L 49.515625 72.90625 
L 49.515625 64.59375 
L 19.828125 64.59375 
L 19.828125 46.734375 
Q 21.96875 47.46875 24.109375 47.828125 
Q 26.265625 48.1875 28.421875 48.1875 
Q 40.625 48.1875 47.75 41.5 
Q 54.890625 34.8125 54.890625 23.390625 
Q 54.890625 11.625 47.5625 5.09375 
Q 40.234375 -1.421875 26.90625 -1.421875 
Q 22.3125 -1.421875 17.546875 -0.640625 
Q 12.796875 0.140625 7.71875 1.703125 
L 7.71875 11.625 
Q 12.109375 9.234375 16.796875 8.0625 
Q 21.484375 6.890625 26.703125 6.890625 
Q 35.15625 6.890625 40.078125 11.328125 
Q 45.015625 15.765625 45.015625 23.390625 
Q 45.015625 31 40.078125 35.4375 
Q 35.15625 39.890625 26.703125 39.890625 
Q 22.75 39.890625 18.8125 39.015625 
Q 14.890625 38.140625 10.796875 36.28125 
z
" id="BitstreamVeraSans-Roman-35"/>
    </defs>
    <g transform="translate(410.2552 376.38)scale(0.2 -0.2)">
     <use xlink:href="#BitstreamVeraSans-Roman-7b"/>
     <use x="63.623046875" xlink:href="#BitstreamVeraSans-Roman-66"/>
     <use x="98.828125" xlink:href="#BitstreamVeraSans-Roman-31"/>
     <use x="162.451171875" xlink:href="#BitstreamVeraSans-Roman-30"/>
     <use x="226.07421875" xlink:href="#BitstreamVeraSans-Roman-2d"/>
     <use x="262.158203125" xlink:href="#BitstreamVeraSans-Roman-66"/>
     <use x="297.36328125" xlink:href="#BitstreamVeraSans-Roman-31"/>
     <use x="360.986328125" xlink:href="#BitstreamVeraSans-Roman-34"/>
     <use x="424.609375" xlink:href="#BitstreamVeraSans-Roman-7d"/>
     <use x="488.232421875" xlink:href="#BitstreamVeraSans-Roman-2c"/>
     <use x="520.01953125" xlink:href="#BitstreamVeraSans-Roman-20"/>
     <use x="551.806640625" xlink:href="#BitstreamVeraSans-Roman-35"/>
     <use x="615.4296875" xlink:href="#BitstreamVeraSans-Roman-2d"/>
     <use x="651.513671875" xlink:href="#BitstreamVeraSans-Roman-44"/>
    </g>
   </g>
   <g id="text_11">
    <!-- v2.2.1.10 -->
    <defs>
     <path d="M 2.984375 54.6875 
L 12.5 54.6875 
L 29.59375 8.796875 
L 46.6875 54.6875 
L 56.203125 54.6875 
L 35.6875 0 
L 23.484375 0 
z
" id="BitstreamVeraSans-Roman-76"/>
     <path d="M 10.6875 12.40625 
L 21 12.40625 
L 21 0 
L 10.6875 0 
z
" id="BitstreamVeraSans-Roman-2e"/>
    </defs>
    <g style="fill:#808080;" transform="translate(261.4871875 378.1103125)scale(0.1 -0.1)">
     <use xlink:href="#BitstreamVeraSans-Roman-76"/>
     <use x="59.1796875" xlink:href="#BitstreamVeraSans-Roman-32"/>
     <use x="122.802734375" xlink:href="#BitstreamVeraSans-Roman-2e"/>
     <use x="154.58984375" xlink:href="#BitstreamVeraSans-Roman-32"/>
     <use x="218.212890625" xlink:href="#BitstreamVeraSans-Roman-2e"/>
     <use x="250.0" xlink:href="#BitstreamVeraSans-Roman-31"/>
     <use x="313.623046875" xlink:href="#BitstreamVeraSans-Roman-2e"/>
     <use x="345.41015625" xlink:href="#BitstreamVeraSans-Roman-31"/>
     <use x="409.033203125" xlink:href="#BitstreamVeraSans-Roman-30"/>
    </g>
   </g>
  </g>
 </g>
 <defs>
  <clipPath id="pd5ff92a9fd">
   <rect height="381.0" width="564.24" x="3.0" y="3.0"/>
  </clipPath>
 </defs>
</svg>
