<?xml version="1.0" encoding="utf-8" standalone="no"?>
<!DOCTYPE svg PUBLIC "-//W3C//DTD SVG 1.1//EN"
  "http://www.w3.org/Graphics/SVG/1.1/DTD/svg11.dtd">
<!-- Created with matplotlib (http://matplotlib.org/) -->
<svg height="432pt" version="1.1" viewBox="0 0 576 432" width="576pt" xmlns="http://www.w3.org/2000/svg" xmlns:xlink="http://www.w3.org/1999/xlink">
 <defs>
  <style type="text/css">
*{stroke-linecap:butt;stroke-linejoin:round;stroke-miterlimit:100000;}
  </style>
 </defs>
 <g id="figure_1">
  <g id="patch_1">
   <path d="M 0 432 
L 576 432 
L 576 0 
L 0 0 
z
" style="fill:#ffffff;"/>
  </g>
  <g id="axes_1">
   <g id="patch_2">
    <path d="M 55.425 384 
L 561.019952 384 
L 561.019952 7.678218 
L 55.425 7.678218 
z
" style="fill:#ffffff;"/>
   </g>
   <g id="line2d_1">
    <path clip-path="url(#p17ac37bd38)" d="M 343.78591 384 
L 343.78591 377.79007 
L 348.124408 377.79007 
L 348.124408 371.580139 
L 349.768117 371.580139 
L 349.768117 365.370209 
L 349.768117 365.370209 
L 349.768117 359.160278 
L 350.571871 359.160278 
L 350.571871 352.950348 
L 350.837194 352.950348 
L 350.837194 346.740418 
L 351.10124 346.740418 
L 351.10124 340.530487 
L 352.402744 340.530487 
L 352.402744 334.320557 
L 353.169084 334.320557 
L 353.169084 328.110626 
L 353.42217 328.110626 
L 353.42217 321.900696 
L 353.42217 321.900696 
L 353.42217 315.690766 
L 353.674095 315.690766 
L 353.674095 309.480835 
L 353.674095 309.480835 
L 353.674095 303.270905 
L 354.423004 303.270905 
L 354.423004 297.060974 
L 354.423004 297.060974 
L 354.423004 290.851044 
L 356.131709 290.851044 
L 356.131709 284.641114 
L 356.610295 284.641114 
L 356.610295 278.431183 
L 356.848032 278.431183 
L 356.848032 272.221253 
L 357.084743 272.221253 
L 357.084743 266.011322 
L 357.320438 266.011322 
L 357.320438 259.801392 
L 358.021509 259.801392 
L 358.021509 253.591462 
L 358.021509 253.591462 
L 358.021509 247.381531 
L 358.253223 247.381531 
L 358.253223 241.171601 
L 362.265004 241.171601 
L 362.265004 234.96167 
L 364.373234 234.96167 
L 364.373234 228.75174 
L 364.785333 228.75174 
L 364.785333 222.54181 
L 389.880747 222.54181 
L 389.880747 216.331879 
L 394.404028 216.331879 
L 394.404028 210.121949 
L 399.290943 210.121949 
L 399.290943 203.912018 
L 410.112904 203.912018 
L 410.112904 197.702088 
L 410.112904 197.702088 
L 410.112904 197.702088 
L 561.019952 197.702088 
" style="fill:none;stroke:#f5deb3;stroke-linecap:square;"/>
   </g>
   <g id="line2d_2"/>
   <g id="line2d_3">
    <path clip-path="url(#p17ac37bd38)" d="M 344.667381 384 
L 344.667381 377.79007 
L 353.889114 377.79007 
L 353.889114 371.580139 
L 358.36322 371.580139 
L 358.36322 365.370209 
L 365.513613 365.370209 
L 365.513613 359.160278 
L 366.37498 359.160278 
L 366.37498 352.950348 
L 366.819488 352.950348 
L 366.819488 346.740418 
L 366.857153 346.740418 
L 366.857153 340.530487 
L 367.007554 340.530487 
L 367.007554 334.320557 
L 368.251238 334.320557 
L 368.251238 328.110626 
L 369.143279 328.110626 
L 369.143279 321.900696 
L 369.395507 321.900696 
L 369.395507 315.690766 
L 369.851965 315.690766 
L 369.851965 309.480835 
L 370.136443 309.480835 
L 370.136443 303.270905 
L 370.207333 303.270905 
L 370.207333 297.060974 
L 370.251592 297.060974 
L 370.251592 290.851044 
L 370.295816 290.851044 
L 370.295816 284.641114 
L 370.437094 284.641114 
L 370.437094 278.431183 
L 372.835456 278.431183 
L 372.835456 272.221253 
L 373.681482 272.221253 
L 373.681482 266.011322 
L 374.490097 266.011322 
L 374.490097 259.801392 
L 375.173836 259.801392 
L 375.173836 253.591462 
L 376.539953 253.591462 
L 376.539953 247.381531 
L 377.159779 247.381531 
L 377.159779 241.171601 
L 387.107892 241.171601 
L 387.107892 234.96167 
L 388.126679 234.96167 
L 388.126679 228.75174 
L 388.742895 228.75174 
L 388.742895 222.54181 
L 389.694805 222.54181 
L 389.694805 216.331879 
L 389.787855 216.331879 
L 389.787855 210.121949 
L 389.825031 210.121949 
L 389.825031 203.912018 
L 391.706313 203.912018 
L 391.706313 197.702088 
L 391.891538 197.702088 
L 391.891538 191.492158 
L 393.310584 191.492158 
L 393.310584 185.282227 
L 394.164188 185.282227 
L 394.164188 179.072297 
L 394.318491 179.072297 
L 394.318491 172.862366 
L 395.341838 172.862366 
L 395.341838 166.652436 
L 396.092873 166.652436 
L 396.092873 160.442506 
L 397.774178 160.442506 
L 397.774178 154.232575 
L 401.075569 154.232575 
L 401.075569 148.022645 
L 403.744402 148.022645 
L 403.744402 141.812714 
L 413.502482 141.812714 
L 413.502482 135.602784 
L 417.422585 135.602784 
L 417.422585 129.392854 
L 417.687902 129.392854 
L 417.687902 123.182923 
L 419.170026 123.182923 
L 419.170026 116.972993 
L 419.610928 116.972993 
L 419.610928 110.763062 
L 420.262152 110.763062 
L 420.262152 104.553132 
L 420.262152 104.553132 
L 420.262152 104.553132 
L 561.019952 104.553132 
" style="fill:none;stroke:#f5deb3;stroke-linecap:square;"/>
   </g>
   <g id="line2d_4">
    <path clip-path="url(#p17ac37bd38)" d="M 414.676697 384 
L 414.676697 377.79007 
L 421.133774 377.79007 
L 421.133774 371.580139 
L 425.028821 371.580139 
L 425.028821 365.370209 
L 425.70941 365.370209 
L 425.70941 359.160278 
L 430.194541 359.160278 
L 430.194541 352.950348 
L 430.221247 352.950348 
L 430.221247 346.740418 
L 432.516254 346.740418 
L 432.516254 340.530487 
L 433.503134 340.530487 
L 433.503134 334.320557 
L 433.525485 334.320557 
L 433.525485 328.110626 
L 434.11726 328.110626 
L 434.11726 321.900696 
L 434.891046 321.900696 
L 434.891046 315.690766 
L 435.427895 315.690766 
L 435.427895 309.480835 
L 437.033844 309.480835 
L 437.033844 303.270905 
L 437.602123 303.270905 
L 437.602123 297.060974 
L 437.85052 297.060974 
L 437.85052 290.851044 
L 440.98379 290.851044 
L 440.98379 284.641114 
L 442.75914 284.641114 
L 442.75914 278.431183 
L 443.507093 278.431183 
L 443.507093 272.221253 
L 444.000893 272.221253 
L 444.000893 266.011322 
L 448.232359 266.011322 
L 448.232359 259.801392 
L 459.83143 259.801392 
L 459.83143 253.591462 
L 463.810384 253.591462 
L 463.810384 247.381531 
L 468.655551 247.381531 
L 468.655551 241.171601 
L 471.890925 241.171601 
L 471.890925 234.96167 
L 473.867995 234.96167 
L 473.867995 228.75174 
L 478.127177 228.75174 
L 478.127177 222.54181 
L 482.589075 222.54181 
L 482.589075 216.331879 
L 488.796847 216.331879 
L 488.796847 210.121949 
L 489.66331 210.121949 
L 489.66331 203.912018 
L 492.099045 203.912018 
L 492.099045 197.702088 
L 492.099045 197.702088 
L 492.099045 197.702088 
L 561.019952 197.702088 
" style="fill:none;stroke:#f5deb3;stroke-linecap:square;"/>
   </g>
   <g id="line2d_5">
    <path clip-path="url(#p17ac37bd38)" d="M 398.872348 384 
L 398.872348 377.79007 
L 401.99622 377.79007 
L 401.99622 371.580139 
L 405.097361 371.580139 
L 405.097361 365.370209 
L 405.340659 365.370209 
L 405.340659 359.160278 
L 407.599726 359.160278 
L 407.599726 352.950348 
L 408.196808 352.950348 
L 408.196808 346.740418 
L 410.62831 346.740418 
L 410.62831 340.530487 
L 411.222863 340.530487 
L 411.222863 334.320557 
L 411.310865 334.320557 
L 411.310865 328.110626 
L 411.377819 328.110626 
L 411.377819 321.900696 
L 412.216167 321.900696 
L 412.216167 315.690766 
L 414.483389 315.690766 
L 414.483389 309.480835 
L 414.888943 309.480835 
L 414.888943 303.270905 
L 415.590562 303.270905 
L 415.590562 297.060974 
L 415.598308 297.060974 
L 415.598308 290.851044 
L 415.972663 290.851044 
L 415.972663 284.641114 
L 416.12246 284.641114 
L 416.12246 278.431183 
L 416.717592 278.431183 
L 416.717592 272.221253 
L 416.888072 272.221253 
L 416.888072 266.011322 
L 417.204892 266.011322 
L 417.204892 259.801392 
L 417.257518 259.801392 
L 417.257518 253.591462 
L 417.366368 253.591462 
L 417.366368 247.381531 
L 417.929679 247.381531 
L 417.929679 241.171601 
L 418.085339 241.171601 
L 418.085339 234.96167 
L 418.677978 234.96167 
L 418.677978 228.75174 
L 420.4007 228.75174 
L 420.4007 222.54181 
L 420.986537 222.54181 
L 420.986537 216.331879 
L 421.12327 216.331879 
L 421.12327 210.121949 
L 421.406172 210.121949 
L 421.406172 203.912018 
L 421.984875 203.912018 
L 421.984875 197.702088 
L 424.207433 197.702088 
L 424.207433 191.492158 
L 425.328023 191.492158 
L 425.328023 185.282227 
L 425.496419 185.282227 
L 425.496419 179.072297 
L 426.584913 179.072297 
L 426.584913 172.862366 
L 426.948248 172.862366 
L 426.948248 166.652436 
L 431.019383 166.652436 
L 431.019383 160.442506 
L 431.115785 160.442506 
L 431.115785 154.232575 
L 431.814724 154.232575 
L 431.814724 148.022645 
L 459.715426 148.022645 
L 459.715426 141.812714 
L 461.015427 141.812714 
L 461.015427 135.602784 
L 475.957093 135.602784 
L 475.957093 129.392854 
L 477.143142 129.392854 
L 477.143142 123.182923 
L 483.568501 123.182923 
L 483.568501 116.972993 
L 486.725908 116.972993 
L 486.725908 110.763062 
L 494.528756 110.763062 
L 494.528756 104.553132 
L 494.528756 104.553132 
L 494.528756 104.553132 
L 561.019952 104.553132 
" style="fill:none;stroke:#f5deb3;stroke-linecap:square;"/>
   </g>
   <g id="line2d_6"/>
   <g id="line2d_7">
    <path clip-path="url(#p17ac37bd38)" d="M 393.635133 384 
L 393.635133 377.79007 
L 394.244251 377.79007 
L 394.244251 371.580139 
L 396.801051 371.580139 
L 396.801051 365.370209 
L 397.586305 365.370209 
L 397.586305 359.160278 
L 398.025456 359.160278 
L 398.025456 352.950348 
L 398.402879 352.950348 
L 398.402879 346.740418 
L 399.36387 346.740418 
L 399.36387 340.530487 
L 399.825225 340.530487 
L 399.825225 334.320557 
L 400.231517 334.320557 
L 400.231517 328.110626 
L 401.662768 328.110626 
L 401.662768 321.900696 
L 401.742583 321.900696 
L 401.742583 315.690766 
L 402.926078 315.690766 
L 402.926078 309.480835 
L 404.890648 309.480835 
L 404.890648 303.270905 
L 405.106739 303.270905 
L 405.106739 297.060974 
L 407.68031 297.060974 
L 407.68031 290.851044 
L 436.055657 290.851044 
L 436.055657 284.641114 
L 438.652676 284.641114 
L 438.652676 278.431183 
L 439.355434 278.431183 
L 439.355434 272.221253 
L 440.751657 272.221253 
L 440.751657 266.011322 
L 440.915474 266.011322 
L 440.915474 259.801392 
L 441.80663 259.801392 
L 441.80663 253.591462 
L 442.089344 253.591462 
L 442.089344 247.381531 
L 444.391842 247.381531 
L 444.391842 241.171601 
L 444.918649 241.171601 
L 444.918649 234.96167 
L 446.170713 234.96167 
L 446.170713 228.75174 
L 446.288164 228.75174 
L 446.288164 222.54181 
L 446.425242 222.54181 
L 446.425242 216.331879 
L 446.502474 216.331879 
L 446.502474 210.121949 
L 448.573161 210.121949 
L 448.573161 203.912018 
L 449.618479 203.912018 
L 449.618479 197.702088 
L 449.944594 197.702088 
L 449.944594 191.492158 
L 451.647197 191.492158 
L 451.647197 185.282227 
L 451.879602 185.282227 
L 451.879602 179.072297 
L 452.606494 179.072297 
L 452.606494 172.862366 
L 452.793604 172.862366 
L 452.793604 166.652436 
L 453.421163 166.652436 
L 453.421163 160.442506 
L 454.267957 160.442506 
L 454.267957 154.232575 
L 455.423316 154.232575 
L 455.423316 148.022645 
L 455.709327 148.022645 
L 455.709327 141.812714 
L 457.137426 141.812714 
L 457.137426 135.602784 
L 457.614924 135.602784 
L 457.614924 129.392854 
L 457.968551 129.392854 
L 457.968551 123.182923 
L 458.810188 123.182923 
L 458.810188 116.972993 
L 496.951373 116.972993 
L 496.951373 110.763062 
L 532.741304 110.763062 
L 532.741304 104.553132 
L 577 104.553132 
" style="fill:none;stroke:#f5deb3;stroke-linecap:square;"/>
   </g>
   <g id="line2d_8">
    <path clip-path="url(#p17ac37bd38)" d="M 571.69643 384 
L 571.69643 377.79007 
L 571.793648 377.79007 
L 571.793648 371.580139 
L 571.86892 371.580139 
L 571.86892 365.370209 
L 572.511137 365.370209 
L 572.511137 359.160278 
L 572.531773 359.160278 
L 572.531773 352.950348 
L 572.575458 352.950348 
L 572.575458 346.740418 
L 572.667592 346.740418 
L 572.667592 340.530487 
L 572.670469 340.530487 
L 572.670469 334.320557 
L 572.696353 334.320557 
L 572.696353 328.110626 
L 572.828457 328.110626 
L 572.828457 321.900696 
L 572.90056 321.900696 
L 572.90056 315.690766 
L 573.551359 315.690766 
L 573.551359 309.480835 
L 573.553537 309.480835 
L 573.553537 303.270905 
L 573.814648 303.270905 
L 573.814648 297.060974 
L 575.408192 297.060974 
L 575.408192 290.851044 
L 575.408192 290.851044 
" style="fill:none;stroke:#f5deb3;stroke-linecap:square;"/>
   </g>
   <g id="line2d_9">
    <path clip-path="url(#p17ac37bd38)" d="M 392.271973 384 
L 392.271973 377.79007 
L 395.498455 377.79007 
L 395.498455 371.580139 
L 395.6936 371.580139 
L 395.6936 365.370209 
L 398.270279 365.370209 
L 398.270279 359.160278 
L 398.651301 359.160278 
L 398.651301 352.950348 
L 398.761936 352.950348 
L 398.761936 346.740418 
L 399.150024 346.740418 
L 399.150024 340.530487 
L 399.701196 340.530487 
L 399.701196 334.320557 
L 400.685665 334.320557 
L 400.685665 328.110626 
L 400.888558 328.110626 
L 400.888558 321.900696 
L 401.357406 321.900696 
L 401.357406 315.690766 
L 403.595206 315.690766 
L 403.595206 309.480835 
L 404.151418 309.480835 
L 404.151418 303.270905 
L 405.536384 303.270905 
L 405.536384 297.060974 
L 408.642592 297.060974 
L 408.642592 290.851044 
L 409.907097 290.851044 
L 409.907097 284.641114 
L 431.069066 284.641114 
L 431.069066 278.431183 
L 431.377842 278.431183 
L 431.377842 272.221253 
L 432.110746 272.221253 
L 432.110746 266.011322 
L 432.116478 266.011322 
L 432.116478 259.801392 
L 432.961137 259.801392 
L 432.961137 253.591462 
L 433.087988 253.591462 
L 433.087988 247.381531 
L 434.590511 247.381531 
L 434.590511 241.171601 
L 435.138432 241.171601 
L 435.138432 234.96167 
L 435.249528 234.96167 
L 435.249528 228.75174 
L 435.357699 228.75174 
L 435.357699 222.54181 
L 435.4198 222.54181 
L 435.4198 216.331879 
L 435.624507 216.331879 
L 435.624507 210.121949 
L 435.972903 210.121949 
L 435.972903 203.912018 
L 436.742214 203.912018 
L 436.742214 197.702088 
L 436.915803 197.702088 
L 436.915803 191.492158 
L 437.708347 191.492158 
L 437.708347 185.282227 
L 438.354199 185.282227 
L 438.354199 179.072297 
L 439.010236 179.072297 
L 439.010236 172.862366 
L 439.055714 172.862366 
L 439.055714 166.652436 
L 439.60854 166.652436 
L 439.60854 160.442506 
L 440.351062 160.442506 
L 440.351062 154.232575 
L 441.969727 154.232575 
L 441.969727 148.022645 
L 442.697727 148.022645 
L 442.697727 141.812714 
L 444.017046 141.812714 
L 444.017046 135.602784 
L 444.768648 135.602784 
L 444.768648 129.392854 
L 447.407862 129.392854 
L 447.407862 123.182923 
L 448.513674 123.182923 
L 448.513674 116.972993 
L 448.564667 116.972993 
L 448.564667 110.763062 
L 458.138271 110.763062 
L 458.138271 104.553132 
L 460.90699 104.553132 
L 460.90699 98.343202 
L 462.856279 98.343202 
L 462.856279 92.133271 
L 463.174533 92.133271 
L 463.174533 85.923341 
L 463.591177 85.923341 
L 463.591177 79.71341 
L 463.916449 79.71341 
L 463.916449 73.50348 
L 465.971071 73.50348 
L 465.971071 67.29355 
L 466.792273 67.29355 
L 466.792273 61.083619 
L 468.292073 61.083619 
L 468.292073 54.873689 
L 469.446536 54.873689 
L 469.446536 48.663758 
L 471.213407 48.663758 
L 471.213407 42.453828 
L 472.816058 42.453828 
L 472.816058 36.243898 
L 473.180703 36.243898 
L 473.180703 30.033967 
L 474.22973 30.033967 
L 474.22973 23.824037 
L 474.383844 23.824037 
L 474.383844 17.614106 
L 484.073423 17.614106 
L 484.073423 11.404176 
L 484.073423 11.404176 
L 484.073423 11.404176 
L 561.019952 11.404176 
" style="fill:none;stroke:#f5deb3;stroke-linecap:square;"/>
   </g>
   <g id="line2d_10">
    <path clip-path="url(#p17ac37bd38)" d="M 669.216279 384 
" style="fill:none;stroke:#f5deb3;stroke-linecap:square;"/>
   </g>
   <g id="line2d_11">
    <path clip-path="url(#p17ac37bd38)" d="M 407.276202 384 
L 407.276202 377.79007 
L 411.653146 377.79007 
L 411.653146 371.580139 
L 417.844249 371.580139 
L 417.844249 365.370209 
L 427.108612 365.370209 
L 427.108612 359.160278 
L 428.442388 359.160278 
L 428.442388 352.950348 
L 429.136664 352.950348 
L 429.136664 346.740418 
L 433.820781 346.740418 
L 433.820781 340.530487 
L 433.89297 340.530487 
L 433.89297 334.320557 
L 434.667167 334.320557 
L 434.667167 328.110626 
L 449.942523 328.110626 
L 449.942523 321.900696 
L 450.719862 321.900696 
L 450.719862 315.690766 
L 454.784244 315.690766 
L 454.784244 309.480835 
L 457.293432 309.480835 
L 457.293432 303.270905 
L 476.008637 303.270905 
L 476.008637 297.060974 
L 577 297.060974 
" style="fill:none;stroke:#f5deb3;stroke-linecap:square;"/>
   </g>
   <g id="line2d_12">
    <path clip-path="url(#p17ac37bd38)" d="M 348.044894 384 
L 348.044894 377.79007 
L 354.846408 377.79007 
L 354.846408 371.580139 
L 355.091893 371.580139 
L 355.091893 365.370209 
L 357.2532 365.370209 
L 357.2532 359.160278 
L 357.722146 359.160278 
L 357.722146 352.950348 
L 358.648185 352.950348 
L 358.648185 346.740418 
L 359.332601 346.740418 
L 359.332601 340.530487 
L 359.332601 340.530487 
L 359.332601 334.320557 
L 359.784182 334.320557 
L 359.784182 328.110626 
L 359.784182 328.110626 
L 359.784182 321.900696 
L 360.008587 321.900696 
L 360.008587 315.690766 
L 360.232077 315.690766 
L 360.232077 309.480835 
L 360.454661 309.480835 
L 360.454661 303.270905 
L 360.676346 303.270905 
L 360.676346 297.060974 
L 360.676346 297.060974 
L 360.676346 290.851044 
L 361.336078 290.851044 
L 361.336078 284.641114 
L 361.336078 284.641114 
L 361.336078 278.431183 
L 361.336078 278.431183 
L 361.336078 272.221253 
L 361.987973 272.221253 
L 361.987973 266.011322 
L 361.987973 266.011322 
L 361.987973 259.801392 
L 361.987973 259.801392 
L 361.987973 253.591462 
L 362.632215 253.591462 
L 362.632215 247.381531 
L 362.845293 247.381531 
L 362.845293 241.171601 
L 366.545643 241.171601 
L 366.545643 234.96167 
L 372.919805 234.96167 
L 372.919805 228.75174 
L 396.33545 228.75174 
L 396.33545 222.54181 
L 400.236641 222.54181 
L 400.236641 216.331879 
L 400.771986 216.331879 
L 400.771986 210.121949 
L 401.407582 210.121949 
L 401.407582 203.912018 
L 414.963428 203.912018 
L 414.963428 197.702088 
L 414.963428 197.702088 
L 414.963428 197.702088 
L 561.019952 197.702088 
" style="fill:none;stroke:#f5deb3;stroke-linecap:square;"/>
   </g>
   <g id="line2d_13"/>
   <g id="line2d_14"/>
   <g id="line2d_15"/>
   <g id="line2d_16">
    <path clip-path="url(#p17ac37bd38)" d="M 548.278823 384 
L 548.278823 377.79007 
L 549.494251 377.79007 
L 549.494251 371.580139 
L 557.755731 371.580139 
L 557.755731 365.370209 
L 577 365.370209 
" style="fill:none;stroke:#f5deb3;stroke-linecap:square;"/>
   </g>
   <g id="line2d_17">
    <path clip-path="url(#p17ac37bd38)" d="M 551.402688 384 
L 551.402688 377.79007 
L 554.98795 377.79007 
L 554.98795 371.580139 
L 557.750213 371.580139 
L 557.750213 365.370209 
L 558.061814 365.370209 
L 558.061814 359.160278 
L 563.622818 359.160278 
L 563.622818 352.950348 
L 564.880393 352.950348 
L 564.880393 346.740418 
L 564.962451 346.740418 
L 564.962451 340.530487 
L 571.830735 340.530487 
L 571.830735 334.320557 
L 572.818086 334.320557 
L 572.818086 328.110626 
L 572.928098 328.110626 
L 572.928098 321.900696 
L 575.476356 321.900696 
L 575.476356 315.690766 
L 577 315.690766 
" style="fill:none;stroke:#f5deb3;stroke-linecap:square;"/>
   </g>
   <g id="line2d_18">
    <path clip-path="url(#p17ac37bd38)" d="M 314.46245 384 
L 314.46245 377.79007 
L 326.922802 377.79007 
L 326.922802 371.580139 
L 327.136749 371.580139 
L 327.136749 365.370209 
L 327.965178 365.370209 
L 327.965178 359.160278 
L 328.270265 359.160278 
L 328.270265 352.950348 
L 331.92951 352.950348 
L 331.92951 346.740418 
L 332.053888 346.740418 
L 332.053888 340.530487 
L 332.177985 340.530487 
L 332.177985 334.320557 
L 332.248772 334.320557 
L 332.248772 328.110626 
L 332.829306 328.110626 
L 332.829306 321.900696 
L 333.265052 321.900696 
L 333.265052 315.690766 
L 333.438386 315.690766 
L 333.438386 309.480835 
L 333.490279 309.480835 
L 333.490279 303.270905 
L 333.749014 303.270905 
L 333.749014 297.060974 
L 334.177546 297.060974 
L 334.177546 290.851044 
L 334.382059 290.851044 
L 334.382059 284.641114 
L 335.892083 284.641114 
L 335.892083 278.431183 
L 336.353518 278.431183 
L 336.353518 272.221253 
L 336.38633 272.221253 
L 336.38633 266.011322 
L 336.468273 266.011322 
L 336.468273 259.801392 
L 337.65092 259.801392 
L 337.65092 253.591462 
L 340.644982 253.591462 
L 340.644982 247.381531 
L 341.023084 247.381531 
L 341.023084 241.171601 
L 347.80566 241.171601 
L 347.80566 234.96167 
L 367.157544 234.96167 
L 367.157544 228.75174 
L 373.272663 228.75174 
L 373.272663 222.54181 
L 375.641019 222.54181 
L 375.641019 216.331879 
L 377.003522 216.331879 
L 377.003522 210.121949 
L 379.271891 210.121949 
L 379.271891 203.912018 
L 379.772581 203.912018 
L 379.772581 197.702088 
L 380.738539 197.702088 
L 380.738539 191.492158 
L 381.320182 191.492158 
L 381.320182 185.282227 
L 382.663256 185.282227 
L 382.663256 179.072297 
L 385.11309 179.072297 
L 385.11309 172.862366 
L 391.158946 172.862366 
L 391.158946 166.652436 
L 393.623575 166.652436 
L 393.623575 160.442506 
L 397.27355 160.442506 
L 397.27355 154.232575 
L 397.875897 154.232575 
L 397.875897 148.022645 
L 402.431131 148.022645 
L 402.431131 141.812714 
L 402.882154 141.812714 
L 402.882154 135.602784 
L 405.326652 135.602784 
L 405.326652 129.392854 
L 414.054904 129.392854 
L 414.054904 123.182923 
L 429.983399 123.182923 
L 429.983399 116.972993 
L 432.732062 116.972993 
L 432.732062 110.763062 
L 442.141892 110.763062 
L 442.141892 104.553132 
L 442.141892 104.553132 
L 442.141892 104.553132 
L 561.019952 104.553132 
" style="fill:none;stroke:#f5deb3;stroke-linecap:square;"/>
   </g>
   <g id="line2d_19"/>
   <g id="line2d_20">
    <path clip-path="url(#p17ac37bd38)" d="M 425.657852 384 
L 425.657852 377.79007 
L 431.036924 377.79007 
L 431.036924 371.580139 
L 436.900045 371.580139 
L 436.900045 365.370209 
L 442.553372 365.370209 
L 442.553372 359.160278 
L 445.230968 359.160278 
L 445.230968 352.950348 
L 447.277568 352.950348 
L 447.277568 346.740418 
L 449.886575 346.740418 
L 449.886575 340.530487 
L 451.051695 340.530487 
L 451.051695 334.320557 
L 452.901641 334.320557 
L 452.901641 328.110626 
L 453.411442 328.110626 
L 453.411442 321.900696 
L 453.710038 321.900696 
L 453.710038 315.690766 
L 458.057943 315.690766 
L 458.057943 309.480835 
L 458.131135 309.480835 
L 458.131135 303.270905 
L 460.313585 303.270905 
L 460.313585 297.060974 
L 461.074638 297.060974 
L 461.074638 290.851044 
L 462.453786 290.851044 
L 462.453786 284.641114 
L 465.192322 284.641114 
L 465.192322 278.431183 
L 465.391174 278.431183 
L 465.391174 272.221253 
L 468.386868 272.221253 
L 468.386868 266.011322 
L 472.524508 266.011322 
L 472.524508 259.801392 
L 479.883251 259.801392 
L 479.883251 253.591462 
L 483.122285 253.591462 
L 483.122285 247.381531 
L 498.595553 247.381531 
L 498.595553 241.171601 
L 511.957733 241.171601 
L 511.957733 234.96167 
L 516.588793 234.96167 
L 516.588793 228.75174 
L 516.661911 228.75174 
L 516.661911 222.54181 
L 518.882149 222.54181 
L 518.882149 216.331879 
L 523.826978 216.331879 
L 523.826978 210.121949 
L 565.006488 210.121949 
L 565.006488 203.912018 
L 566.096076 203.912018 
L 566.096076 197.702088 
L 566.096076 197.702088 
" style="fill:none;stroke:#f5deb3;stroke-linecap:square;"/>
   </g>
   <g id="line2d_21"/>
   <g id="line2d_22">
    <path clip-path="url(#p17ac37bd38)" d="M 431.765712 384 
L 431.765712 377.79007 
L 432.096413 377.79007 
L 432.096413 371.580139 
L 433.895745 371.580139 
L 433.895745 365.370209 
L 435.114015 365.370209 
L 435.114015 359.160278 
L 435.651386 359.160278 
L 435.651386 352.950348 
L 435.769494 352.950348 
L 435.769494 346.740418 
L 436.380125 346.740418 
L 436.380125 340.530487 
L 436.910551 340.530487 
L 436.910551 334.320557 
L 437.664328 334.320557 
L 437.664328 328.110626 
L 438.210762 328.110626 
L 438.210762 321.900696 
L 439.418193 321.900696 
L 439.418193 315.690766 
L 440.648715 315.690766 
L 440.648715 309.480835 
L 440.778586 309.480835 
L 440.778586 303.270905 
L 442.472746 303.270905 
L 442.472746 297.060974 
L 442.874694 297.060974 
L 442.874694 290.851044 
L 443.646642 290.851044 
L 443.646642 284.641114 
L 443.686116 284.641114 
L 443.686116 278.431183 
L 444.030888 278.431183 
L 444.030888 272.221253 
L 445.163224 272.221253 
L 445.163224 266.011322 
L 446.339056 266.011322 
L 446.339056 259.801392 
L 446.878251 259.801392 
L 446.878251 253.591462 
L 447.459893 253.591462 
L 447.459893 247.381531 
L 448.392374 247.381531 
L 448.392374 241.171601 
L 450.605393 241.171601 
L 450.605393 234.96167 
L 452.136902 234.96167 
L 452.136902 228.75174 
L 453.391997 228.75174 
L 453.391997 222.54181 
L 453.397831 222.54181 
L 453.397831 216.331879 
L 457.722869 216.331879 
L 457.722869 210.121949 
L 459.061585 210.121949 
L 459.061585 203.912018 
L 460.701389 203.912018 
L 460.701389 197.702088 
L 480.688641 197.702088 
L 480.688641 191.492158 
L 484.73438 191.492158 
L 484.73438 185.282227 
L 485.916878 185.282227 
L 485.916878 179.072297 
L 486.681391 179.072297 
L 486.681391 172.862366 
L 488.918123 172.862366 
L 488.918123 166.652436 
L 490.010691 166.652436 
L 490.010691 160.442506 
L 490.839671 160.442506 
L 490.839671 154.232575 
L 508.80634 154.232575 
L 508.80634 148.022645 
L 511.997189 148.022645 
L 511.997189 141.812714 
L 519.304501 141.812714 
L 519.304501 135.602784 
L 525.299186 135.602784 
L 525.299186 129.392854 
L 536.681525 129.392854 
L 536.681525 123.182923 
L 545.123024 123.182923 
L 545.123024 116.972993 
L 555.711858 116.972993 
L 555.711858 110.763062 
L 555.711858 110.763062 
L 555.711858 110.763062 
L 561.019952 110.763062 
" style="fill:none;stroke:#f5deb3;stroke-linecap:square;"/>
   </g>
   <g id="line2d_23">
    <path clip-path="url(#p17ac37bd38)" d="M 621.239624 384 
" style="fill:none;stroke:#f5deb3;stroke-linecap:square;"/>
   </g>
   <g id="line2d_24">
    <path clip-path="url(#p17ac37bd38)" d="M 406.600569 384 
L 406.600569 377.79007 
L 418.878975 377.79007 
L 418.878975 371.580139 
L 421.042674 371.580139 
L 421.042674 365.370209 
L 423.648472 365.370209 
L 423.648472 359.160278 
L 423.698611 359.160278 
L 423.698611 352.950348 
L 424.731257 352.950348 
L 424.731257 346.740418 
L 425.770573 346.740418 
L 425.770573 340.530487 
L 430.573151 340.530487 
L 430.573151 334.320557 
L 431.745518 334.320557 
L 431.745518 328.110626 
L 432.162315 328.110626 
L 432.162315 321.900696 
L 433.584114 321.900696 
L 433.584114 315.690766 
L 434.18078 315.690766 
L 434.18078 309.480835 
L 434.202857 309.480835 
L 434.202857 303.270905 
L 436.742214 303.270905 
L 436.742214 297.060974 
L 436.976167 297.060974 
L 436.976167 290.851044 
L 515.318062 290.851044 
L 515.318062 284.641114 
L 515.62866 284.641114 
L 515.62866 278.431183 
L 516.221115 278.431183 
L 516.221115 272.221253 
L 518.158578 272.221253 
L 518.158578 266.011322 
L 518.19382 266.011322 
L 518.19382 259.801392 
L 518.699635 259.801392 
L 518.699635 253.591462 
L 519.381688 253.591462 
L 519.381688 247.381531 
L 519.652153 247.381531 
L 519.652153 241.171601 
L 519.837328 241.171601 
L 519.837328 234.96167 
L 519.925921 234.96167 
L 519.925921 228.75174 
L 520.772177 228.75174 
L 520.772177 222.54181 
L 521.187634 222.54181 
L 521.187634 216.331879 
L 521.194984 216.331879 
L 521.194984 210.121949 
L 521.325987 210.121949 
L 521.325987 203.912018 
L 521.477493 203.912018 
L 521.477493 197.702088 
L 521.486492 197.702088 
L 521.486492 191.492158 
L 521.751281 191.492158 
L 521.751281 185.282227 
L 521.832928 185.282227 
L 521.832928 179.072297 
L 522.148308 179.072297 
L 522.148308 172.862366 
L 522.357374 172.862366 
L 522.357374 166.652436 
L 522.405507 166.652436 
L 522.405507 160.442506 
L 522.544137 160.442506 
L 522.544137 154.232575 
L 523.147039 154.232575 
L 523.147039 148.022645 
L 523.447381 148.022645 
L 523.447381 141.812714 
L 524.567222 141.812714 
L 524.567222 135.602784 
L 525.31702 135.602784 
L 525.31702 129.392854 
L 525.856625 129.392854 
L 525.856625 123.182923 
L 526.581953 123.182923 
L 526.581953 116.972993 
L 529.146549 116.972993 
L 529.146549 110.763062 
L 531.006461 110.763062 
L 531.006461 104.553132 
L 538.340656 104.553132 
L 538.340656 98.343202 
L 541.634168 98.343202 
L 541.634168 92.133271 
L 542.62437 92.133271 
L 542.62437 85.923341 
L 542.956211 85.923341 
L 542.956211 79.71341 
L 543.577473 79.71341 
L 543.577473 73.50348 
L 543.803731 73.50348 
L 543.803731 67.29355 
L 545.276342 67.29355 
L 545.276342 61.083619 
L 546.80166 61.083619 
L 546.80166 54.873689 
L 546.885621 54.873689 
L 546.885621 48.663758 
L 547.503748 48.663758 
L 547.503748 42.453828 
L 547.904817 42.453828 
L 547.904817 36.243898 
L 548.778695 36.243898 
L 548.778695 30.033967 
L 549.553293 30.033967 
L 549.553293 23.824037 
L 550.220255 23.824037 
L 550.220255 17.614106 
L 551.436258 17.614106 
L 551.436258 11.404176 
L 551.436258 11.404176 
L 551.436258 11.404176 
L 561.019952 11.404176 
" style="fill:none;stroke:#f5deb3;stroke-linecap:square;"/>
   </g>
   <g id="line2d_25">
    <path clip-path="url(#p17ac37bd38)" d="M 580.187073 384 
" style="fill:none;stroke:#f5deb3;stroke-linecap:square;"/>
   </g>
   <g id="line2d_26">
    <path clip-path="url(#p17ac37bd38)" d="M 452.276018 384 
L 452.276018 377.79007 
L 457.661726 377.79007 
L 457.661726 371.580139 
L 459.494863 371.580139 
L 459.494863 365.370209 
L 460.995112 365.370209 
L 460.995112 359.160278 
L 461.537657 359.160278 
L 461.537657 352.950348 
L 462.743222 352.950348 
L 462.743222 346.740418 
L 463.016453 346.740418 
L 463.016453 340.530487 
L 464.797184 340.530487 
L 464.797184 334.320557 
L 467.366674 334.320557 
L 467.366674 328.110626 
L 467.870926 328.110626 
L 467.870926 321.900696 
L 470.209107 321.900696 
L 470.209107 315.690766 
L 471.93256 315.690766 
L 471.93256 309.480835 
L 474.264311 309.480835 
L 474.264311 303.270905 
L 474.553399 303.270905 
L 474.553399 297.060974 
L 476.911775 297.060974 
L 476.911775 290.851044 
L 476.934576 290.851044 
L 476.934576 284.641114 
L 478.448431 284.641114 
L 478.448431 278.431183 
L 479.501466 278.431183 
L 479.501466 272.221253 
L 480.816225 272.221253 
L 480.816225 266.011322 
L 485.465582 266.011322 
L 485.465582 259.801392 
L 486.511472 259.801392 
L 486.511472 253.591462 
L 487.288781 253.591462 
L 487.288781 247.381531 
L 487.353761 247.381531 
L 487.353761 241.171601 
L 488.432429 241.171601 
L 488.432429 234.96167 
L 488.540163 234.96167 
L 488.540163 228.75174 
L 489.541658 228.75174 
L 489.541658 222.54181 
L 489.601009 222.54181 
L 489.601009 216.331879 
L 490.31422 216.331879 
L 490.31422 210.121949 
L 490.622989 210.121949 
L 490.622989 203.912018 
L 491.437978 203.912018 
L 491.437978 197.702088 
L 493.10614 197.702088 
L 493.10614 191.492158 
L 493.150452 191.492158 
L 493.150452 185.282227 
L 493.238971 185.282227 
L 493.238971 179.072297 
L 493.286937 179.072297 
L 493.286937 172.862366 
L 493.471825 172.862366 
L 493.471825 166.652436 
L 494.387037 166.652436 
L 494.387037 160.442506 
L 494.955379 160.442506 
L 494.955379 154.232575 
L 496.099718 154.232575 
L 496.099718 148.022645 
L 501.04731 148.022645 
L 501.04731 141.812714 
L 550.177598 141.812714 
L 550.177598 135.602784 
L 565.159958 135.602784 
L 565.159958 129.392854 
L 566.114033 129.392854 
L 566.114033 123.182923 
L 566.845255 123.182923 
L 566.845255 116.972993 
L 571.77071 116.972993 
L 571.77071 110.763062 
L 577 110.763062 
" style="fill:none;stroke:#f5deb3;stroke-linecap:square;"/>
   </g>
   <g id="line2d_27"/>
   <g id="line2d_28">
    <path clip-path="url(#p17ac37bd38)" d="M 374.161488 384 
L 374.161488 377.79007 
L 377.073893 377.79007 
L 377.073893 371.580139 
L 378.424578 371.580139 
L 378.424578 365.370209 
L 379.114013 365.370209 
L 379.114013 359.160278 
L 382.060083 359.160278 
L 382.060083 352.950348 
L 382.344755 352.950348 
L 382.344755 346.740418 
L 382.874567 346.740418 
L 382.874567 340.530487 
L 383.37842 340.530487 
L 383.37842 334.320557 
L 453.862586 334.320557 
L 453.862586 328.110626 
L 453.94544 328.110626 
L 453.94544 321.900696 
L 454.206671 321.900696 
L 454.206671 315.690766 
L 454.375042 315.690766 
L 454.375042 309.480835 
L 454.897898 309.480835 
L 454.897898 303.270905 
L 469.356464 303.270905 
L 469.356464 297.060974 
L 471.690636 297.060974 
L 471.690636 290.851044 
L 472.07665 290.851044 
L 472.07665 284.641114 
L 472.192755 284.641114 
L 472.192755 278.431183 
L 472.367829 278.431183 
L 472.367829 272.221253 
L 472.959211 272.221253 
L 472.959211 266.011322 
L 473.809037 266.011322 
L 473.809037 259.801392 
L 474.512383 259.801392 
L 474.512383 253.591462 
L 474.812019 253.591462 
L 474.812019 247.381531 
L 475.579348 247.381531 
L 475.579348 241.171601 
L 476.207913 241.171601 
L 476.207913 234.96167 
L 476.32201 234.96167 
L 476.32201 228.75174 
L 476.370654 228.75174 
L 476.370654 222.54181 
L 477.203668 222.54181 
L 477.203668 216.331879 
L 477.606724 216.331879 
L 477.606724 210.121949 
L 477.661741 210.121949 
L 477.661741 203.912018 
L 477.897441 203.912018 
L 477.897441 197.702088 
L 478.984185 197.702088 
L 478.984185 191.492158 
L 479.378053 191.492158 
L 479.378053 185.282227 
L 479.541334 185.282227 
L 479.541334 179.072297 
L 479.635453 179.072297 
L 479.635453 172.862366 
L 479.672815 172.862366 
L 479.672815 166.652436 
L 480.813865 166.652436 
L 480.813865 160.442506 
L 481.31543 160.442506 
L 481.31543 154.232575 
L 481.396051 154.232575 
L 481.396051 148.022645 
L 481.480051 148.022645 
L 481.480051 141.812714 
L 481.616277 141.812714 
L 481.616277 135.602784 
L 481.767243 135.602784 
L 481.767243 129.392854 
L 482.392221 129.392854 
L 482.392221 123.182923 
L 484.558314 123.182923 
L 484.558314 116.972993 
L 486.547624 116.972993 
L 486.547624 110.763062 
L 486.761919 110.763062 
L 486.761919 104.553132 
L 489.417718 104.553132 
L 489.417718 98.343202 
L 489.529579 98.343202 
L 489.529579 92.133271 
L 489.894808 92.133271 
L 489.894808 85.923341 
L 490.746209 85.923341 
L 490.746209 79.71341 
L 492.251579 79.71341 
L 492.251579 73.50348 
L 493.064623 73.50348 
L 493.064623 67.29355 
L 494.471744 67.29355 
L 494.471744 61.083619 
L 494.947171 61.083619 
L 494.947171 54.873689 
L 496.299415 54.873689 
L 496.299415 48.663758 
L 497.958632 48.663758 
L 497.958632 42.453828 
L 501.882356 42.453828 
L 501.882356 36.243898 
L 503.793112 36.243898 
L 503.793112 30.033967 
L 504.364589 30.033967 
L 504.364589 23.824037 
L 531.340178 23.824037 
L 531.340178 17.614106 
L 533.349453 17.614106 
L 533.349453 11.404176 
L 533.349453 11.404176 
L 533.349453 11.404176 
L 561.019952 11.404176 
" style="fill:none;stroke:#f5deb3;stroke-linecap:square;"/>
   </g>
   <g id="line2d_29">
    <path clip-path="url(#p17ac37bd38)" d="M 323.214539 384 
L 323.214539 377.79007 
L 323.214539 377.79007 
L 323.214539 371.580139 
L 323.214539 371.580139 
L 323.214539 365.370209 
L 339.090361 365.370209 
L 339.090361 359.160278 
L 339.090361 359.160278 
L 339.090361 352.950348 
L 339.090361 352.950348 
L 339.090361 346.740418 
L 364.843952 346.740418 
L 364.843952 340.530487 
L 364.843952 340.530487 
L 364.843952 334.320557 
L 364.843952 334.320557 
L 364.843952 328.110626 
L 365.773446 328.110626 
L 365.773446 321.900696 
L 365.773446 321.900696 
L 365.773446 315.690766 
L 365.773446 315.690766 
L 365.773446 309.480835 
L 382.401513 309.480835 
L 382.401513 303.270905 
L 382.401513 303.270905 
L 382.401513 297.060974 
L 382.401513 297.060974 
L 382.401513 290.851044 
L 384.577298 290.851044 
L 384.577298 284.641114 
L 384.577298 284.641114 
L 384.577298 278.431183 
L 384.577298 278.431183 
L 384.577298 272.221253 
L 385.038799 272.221253 
L 385.038799 266.011322 
L 385.038799 266.011322 
L 385.038799 259.801392 
L 385.038799 259.801392 
L 385.038799 253.591462 
L 386.578176 253.591462 
L 386.578176 247.381531 
L 386.578176 247.381531 
L 386.578176 241.171601 
L 386.578176 241.171601 
L 386.578176 234.96167 
L 386.656976 234.96167 
L 386.656976 228.75174 
L 386.656976 228.75174 
L 386.656976 222.54181 
L 386.656976 222.54181 
L 386.656976 216.331879 
L 414.990844 216.331879 
L 414.990844 210.121949 
L 414.990844 210.121949 
L 414.990844 203.912018 
L 414.990844 203.912018 
L 414.990844 197.702088 
L 414.990844 197.702088 
L 414.990844 197.702088 
L 561.019952 197.702088 
" style="fill:none;stroke:#f5deb3;stroke-linecap:square;"/>
   </g>
   <g id="line2d_30"/>
   <g id="line2d_31"/>
   <g id="line2d_32"/>
   <g id="line2d_33"/>
   <g id="line2d_34"/>
   <g id="line2d_35">
    <path clip-path="url(#p17ac37bd38)" d="M 560.949039 384 
L 560.949039 7.678218 
" style="fill:none;stroke:#000000;stroke-linecap:square;"/>
   </g>
   <g id="patch_3">
    <path d="M 55.425 7.678218 
L 561.019952 7.678218 
" style="fill:none;stroke:#000000;stroke-linecap:square;stroke-linejoin:miter;"/>
   </g>
   <g id="patch_4">
    <path d="M 561.019952 384 
L 561.019952 7.678218 
" style="fill:none;stroke:#000000;stroke-linecap:square;stroke-linejoin:miter;"/>
   </g>
   <g id="patch_5">
    <path d="M 55.425 384 
L 561.019952 384 
" style="fill:none;stroke:#000000;stroke-linecap:square;stroke-linejoin:miter;"/>
   </g>
   <g id="patch_6">
    <path d="M 55.425 384 
L 55.425 7.678218 
" style="fill:none;stroke:#000000;stroke-linecap:square;stroke-linejoin:miter;"/>
   </g>
   <g id="matplotlib.axis_1">
    <g id="xtick_1">
     <g id="line2d_36">
      <path clip-path="url(#p17ac37bd38)" d="M 181.785172 384 
L 181.785172 7.678218 
" style="fill:none;stroke:#000000;stroke-dasharray:1.000000,3.000000;stroke-dashoffset:0.0;stroke-width:0.5;"/>
     </g>
     <g id="line2d_37">
      <defs>
       <path d="M 0 0 
L 0 -4 
" id="m7ce4391915" style="stroke:#000000;stroke-width:0.5;"/>
      </defs>
      <g>
       <use style="stroke:#000000;stroke-width:0.5;" x="181.785172224" xlink:href="#m7ce4391915" y="384.0"/>
      </g>
     </g>
     <g id="line2d_38">
      <defs>
       <path d="M 0 0 
L 0 4 
" id="md9ee016ce3" style="stroke:#000000;stroke-width:0.5;"/>
      </defs>
      <g>
       <use style="stroke:#000000;stroke-width:0.5;" x="181.785172224" xlink:href="#md9ee016ce3" y="7.67821782178"/>
      </g>
     </g>
     <g id="text_1">
      <!-- 1 -->
      <defs>
       <path d="M 12.40625 8.296875 
L 28.515625 8.296875 
L 28.515625 63.921875 
L 10.984375 60.40625 
L 10.984375 69.390625 
L 28.421875 72.90625 
L 38.28125 72.90625 
L 38.28125 8.296875 
L 54.390625 8.296875 
L 54.390625 0 
L 12.40625 0 
z
" id="BitstreamVeraSans-Roman-31"/>
      </defs>
      <g transform="translate(175.422672224 403.196875)scale(0.2 -0.2)">
       <use xlink:href="#BitstreamVeraSans-Roman-31"/>
      </g>
     </g>
    </g>
    <g id="xtick_2">
     <g id="line2d_39">
      <path clip-path="url(#p17ac37bd38)" d="M 308.145344 384 
L 308.145344 7.678218 
" style="fill:none;stroke:#000000;stroke-dasharray:1.000000,3.000000;stroke-dashoffset:0.0;stroke-width:0.5;"/>
     </g>
     <g id="line2d_40">
      <g>
       <use style="stroke:#000000;stroke-width:0.5;" x="308.145344448" xlink:href="#m7ce4391915" y="384.0"/>
      </g>
     </g>
     <g id="line2d_41">
      <g>
       <use style="stroke:#000000;stroke-width:0.5;" x="308.145344448" xlink:href="#md9ee016ce3" y="7.67821782178"/>
      </g>
     </g>
     <g id="text_2">
      <!-- 2 -->
      <defs>
       <path d="M 19.1875 8.296875 
L 53.609375 8.296875 
L 53.609375 0 
L 7.328125 0 
L 7.328125 8.296875 
Q 12.9375 14.109375 22.625 23.890625 
Q 32.328125 33.6875 34.8125 36.53125 
Q 39.546875 41.84375 41.421875 45.53125 
Q 43.3125 49.21875 43.3125 52.78125 
Q 43.3125 58.59375 39.234375 62.25 
Q 35.15625 65.921875 28.609375 65.921875 
Q 23.96875 65.921875 18.8125 64.3125 
Q 13.671875 62.703125 7.8125 59.421875 
L 7.8125 69.390625 
Q 13.765625 71.78125 18.9375 73 
Q 24.125 74.21875 28.421875 74.21875 
Q 39.75 74.21875 46.484375 68.546875 
Q 53.21875 62.890625 53.21875 53.421875 
Q 53.21875 48.921875 51.53125 44.890625 
Q 49.859375 40.875 45.40625 35.40625 
Q 44.1875 33.984375 37.640625 27.21875 
Q 31.109375 20.453125 19.1875 8.296875 
" id="BitstreamVeraSans-Roman-32"/>
      </defs>
      <g transform="translate(301.782844448 403.196875)scale(0.2 -0.2)">
       <use xlink:href="#BitstreamVeraSans-Roman-32"/>
      </g>
     </g>
    </g>
    <g id="xtick_3">
     <g id="line2d_42">
      <path clip-path="url(#p17ac37bd38)" d="M 434.505517 384 
L 434.505517 7.678218 
" style="fill:none;stroke:#000000;stroke-dasharray:1.000000,3.000000;stroke-dashoffset:0.0;stroke-width:0.5;"/>
     </g>
     <g id="line2d_43">
      <g>
       <use style="stroke:#000000;stroke-width:0.5;" x="434.505516671" xlink:href="#m7ce4391915" y="384.0"/>
      </g>
     </g>
     <g id="line2d_44">
      <g>
       <use style="stroke:#000000;stroke-width:0.5;" x="434.505516671" xlink:href="#md9ee016ce3" y="7.67821782178"/>
      </g>
     </g>
     <g id="text_3">
      <!-- 3 -->
      <defs>
       <path d="M 40.578125 39.3125 
Q 47.65625 37.796875 51.625 33 
Q 55.609375 28.21875 55.609375 21.1875 
Q 55.609375 10.40625 48.1875 4.484375 
Q 40.765625 -1.421875 27.09375 -1.421875 
Q 22.515625 -1.421875 17.65625 -0.515625 
Q 12.796875 0.390625 7.625 2.203125 
L 7.625 11.71875 
Q 11.71875 9.328125 16.59375 8.109375 
Q 21.484375 6.890625 26.8125 6.890625 
Q 36.078125 6.890625 40.9375 10.546875 
Q 45.796875 14.203125 45.796875 21.1875 
Q 45.796875 27.640625 41.28125 31.265625 
Q 36.765625 34.90625 28.71875 34.90625 
L 20.21875 34.90625 
L 20.21875 43.015625 
L 29.109375 43.015625 
Q 36.375 43.015625 40.234375 45.921875 
Q 44.09375 48.828125 44.09375 54.296875 
Q 44.09375 59.90625 40.109375 62.90625 
Q 36.140625 65.921875 28.71875 65.921875 
Q 24.65625 65.921875 20.015625 65.03125 
Q 15.375 64.15625 9.8125 62.3125 
L 9.8125 71.09375 
Q 15.4375 72.65625 20.34375 73.4375 
Q 25.25 74.21875 29.59375 74.21875 
Q 40.828125 74.21875 47.359375 69.109375 
Q 53.90625 64.015625 53.90625 55.328125 
Q 53.90625 49.265625 50.4375 45.09375 
Q 46.96875 40.921875 40.578125 39.3125 
" id="BitstreamVeraSans-Roman-33"/>
      </defs>
      <g transform="translate(428.143016671 403.196875)scale(0.2 -0.2)">
       <use xlink:href="#BitstreamVeraSans-Roman-33"/>
      </g>
     </g>
    </g>
    <g id="xtick_4">
     <g id="line2d_45">
      <path clip-path="url(#p17ac37bd38)" d="M 560.865689 384 
L 560.865689 7.678218 
" style="fill:none;stroke:#000000;stroke-dasharray:1.000000,3.000000;stroke-dashoffset:0.0;stroke-width:0.5;"/>
     </g>
     <g id="line2d_46">
      <g>
       <use style="stroke:#000000;stroke-width:0.5;" x="560.865688895" xlink:href="#m7ce4391915" y="384.0"/>
      </g>
     </g>
     <g id="line2d_47">
      <g>
       <use style="stroke:#000000;stroke-width:0.5;" x="560.865688895" xlink:href="#md9ee016ce3" y="7.67821782178"/>
      </g>
     </g>
     <g id="text_4">
      <!-- 4 -->
      <defs>
       <path d="M 37.796875 64.3125 
L 12.890625 25.390625 
L 37.796875 25.390625 
z
M 35.203125 72.90625 
L 47.609375 72.90625 
L 47.609375 25.390625 
L 58.015625 25.390625 
L 58.015625 17.1875 
L 47.609375 17.1875 
L 47.609375 0 
L 37.796875 0 
L 37.796875 17.1875 
L 4.890625 17.1875 
L 4.890625 26.703125 
z
" id="BitstreamVeraSans-Roman-34"/>
      </defs>
      <g transform="translate(554.503188895 403.196875)scale(0.2 -0.2)">
       <use xlink:href="#BitstreamVeraSans-Roman-34"/>
      </g>
     </g>
    </g>
    <g id="xtick_5">
     <g id="line2d_48">
      <defs>
       <path d="M 0 0 
L 0 -2 
" id="me330b4ff64" style="stroke:#000000;stroke-width:0.5;"/>
      </defs>
      <g>
       <use style="stroke:#000000;stroke-width:0.5;" x="93.4632020966" xlink:href="#me330b4ff64" y="384.0"/>
      </g>
     </g>
     <g id="line2d_49">
      <defs>
       <path d="M 0 0 
L 0 2 
" id="m8bda11b481" style="stroke:#000000;stroke-width:0.5;"/>
      </defs>
      <g>
       <use style="stroke:#000000;stroke-width:0.5;" x="93.4632020966" xlink:href="#m8bda11b481" y="7.67821782178"/>
      </g>
     </g>
    </g>
    <g id="xtick_6">
     <g id="line2d_50">
      <g>
       <use style="stroke:#000000;stroke-width:0.5;" x="115.714123918" xlink:href="#me330b4ff64" y="384.0"/>
      </g>
     </g>
     <g id="line2d_51">
      <g>
       <use style="stroke:#000000;stroke-width:0.5;" x="115.714123918" xlink:href="#m8bda11b481" y="7.67821782178"/>
      </g>
     </g>
    </g>
    <g id="xtick_7">
     <g id="line2d_52">
      <g>
       <use style="stroke:#000000;stroke-width:0.5;" x="131.501404193" xlink:href="#me330b4ff64" y="384.0"/>
      </g>
     </g>
     <g id="line2d_53">
      <g>
       <use style="stroke:#000000;stroke-width:0.5;" x="131.501404193" xlink:href="#m8bda11b481" y="7.67821782178"/>
      </g>
     </g>
    </g>
    <g id="xtick_8">
     <g id="line2d_54">
      <g>
       <use style="stroke:#000000;stroke-width:0.5;" x="143.746970127" xlink:href="#me330b4ff64" y="384.0"/>
      </g>
     </g>
     <g id="line2d_55">
      <g>
       <use style="stroke:#000000;stroke-width:0.5;" x="143.746970127" xlink:href="#m8bda11b481" y="7.67821782178"/>
      </g>
     </g>
    </g>
    <g id="xtick_9">
     <g id="line2d_56">
      <g>
       <use style="stroke:#000000;stroke-width:0.5;" x="153.752326015" xlink:href="#me330b4ff64" y="384.0"/>
      </g>
     </g>
     <g id="line2d_57">
      <g>
       <use style="stroke:#000000;stroke-width:0.5;" x="153.752326015" xlink:href="#m8bda11b481" y="7.67821782178"/>
      </g>
     </g>
    </g>
    <g id="xtick_10">
     <g id="line2d_58">
      <g>
       <use style="stroke:#000000;stroke-width:0.5;" x="162.211733882" xlink:href="#me330b4ff64" y="384.0"/>
      </g>
     </g>
     <g id="line2d_59">
      <g>
       <use style="stroke:#000000;stroke-width:0.5;" x="162.211733882" xlink:href="#m8bda11b481" y="7.67821782178"/>
      </g>
     </g>
    </g>
    <g id="xtick_11">
     <g id="line2d_60">
      <g>
       <use style="stroke:#000000;stroke-width:0.5;" x="169.53960629" xlink:href="#me330b4ff64" y="384.0"/>
      </g>
     </g>
     <g id="line2d_61">
      <g>
       <use style="stroke:#000000;stroke-width:0.5;" x="169.53960629" xlink:href="#m8bda11b481" y="7.67821782178"/>
      </g>
     </g>
    </g>
    <g id="xtick_12">
     <g id="line2d_62">
      <g>
       <use style="stroke:#000000;stroke-width:0.5;" x="176.003247836" xlink:href="#me330b4ff64" y="384.0"/>
      </g>
     </g>
     <g id="line2d_63">
      <g>
       <use style="stroke:#000000;stroke-width:0.5;" x="176.003247836" xlink:href="#m8bda11b481" y="7.67821782178"/>
      </g>
     </g>
    </g>
    <g id="xtick_13">
     <g id="line2d_64">
      <g>
       <use style="stroke:#000000;stroke-width:0.5;" x="219.82337432" xlink:href="#me330b4ff64" y="384.0"/>
      </g>
     </g>
     <g id="line2d_65">
      <g>
       <use style="stroke:#000000;stroke-width:0.5;" x="219.82337432" xlink:href="#m8bda11b481" y="7.67821782178"/>
      </g>
     </g>
    </g>
    <g id="xtick_14">
     <g id="line2d_66">
      <g>
       <use style="stroke:#000000;stroke-width:0.5;" x="242.074296142" xlink:href="#me330b4ff64" y="384.0"/>
      </g>
     </g>
     <g id="line2d_67">
      <g>
       <use style="stroke:#000000;stroke-width:0.5;" x="242.074296142" xlink:href="#m8bda11b481" y="7.67821782178"/>
      </g>
     </g>
    </g>
    <g id="xtick_15">
     <g id="line2d_68">
      <g>
       <use style="stroke:#000000;stroke-width:0.5;" x="257.861576417" xlink:href="#me330b4ff64" y="384.0"/>
      </g>
     </g>
     <g id="line2d_69">
      <g>
       <use style="stroke:#000000;stroke-width:0.5;" x="257.861576417" xlink:href="#m8bda11b481" y="7.67821782178"/>
      </g>
     </g>
    </g>
    <g id="xtick_16">
     <g id="line2d_70">
      <g>
       <use style="stroke:#000000;stroke-width:0.5;" x="270.107142351" xlink:href="#me330b4ff64" y="384.0"/>
      </g>
     </g>
     <g id="line2d_71">
      <g>
       <use style="stroke:#000000;stroke-width:0.5;" x="270.107142351" xlink:href="#m8bda11b481" y="7.67821782178"/>
      </g>
     </g>
    </g>
    <g id="xtick_17">
     <g id="line2d_72">
      <g>
       <use style="stroke:#000000;stroke-width:0.5;" x="280.112498238" xlink:href="#me330b4ff64" y="384.0"/>
      </g>
     </g>
     <g id="line2d_73">
      <g>
       <use style="stroke:#000000;stroke-width:0.5;" x="280.112498238" xlink:href="#m8bda11b481" y="7.67821782178"/>
      </g>
     </g>
    </g>
    <g id="xtick_18">
     <g id="line2d_74">
      <g>
       <use style="stroke:#000000;stroke-width:0.5;" x="288.571906106" xlink:href="#me330b4ff64" y="384.0"/>
      </g>
     </g>
     <g id="line2d_75">
      <g>
       <use style="stroke:#000000;stroke-width:0.5;" x="288.571906106" xlink:href="#m8bda11b481" y="7.67821782178"/>
      </g>
     </g>
    </g>
    <g id="xtick_19">
     <g id="line2d_76">
      <g>
       <use style="stroke:#000000;stroke-width:0.5;" x="295.899778514" xlink:href="#me330b4ff64" y="384.0"/>
      </g>
     </g>
     <g id="line2d_77">
      <g>
       <use style="stroke:#000000;stroke-width:0.5;" x="295.899778514" xlink:href="#m8bda11b481" y="7.67821782178"/>
      </g>
     </g>
    </g>
    <g id="xtick_20">
     <g id="line2d_78">
      <g>
       <use style="stroke:#000000;stroke-width:0.5;" x="302.36342006" xlink:href="#me330b4ff64" y="384.0"/>
      </g>
     </g>
     <g id="line2d_79">
      <g>
       <use style="stroke:#000000;stroke-width:0.5;" x="302.36342006" xlink:href="#m8bda11b481" y="7.67821782178"/>
      </g>
     </g>
    </g>
    <g id="xtick_21">
     <g id="line2d_80">
      <g>
       <use style="stroke:#000000;stroke-width:0.5;" x="346.183546544" xlink:href="#me330b4ff64" y="384.0"/>
      </g>
     </g>
     <g id="line2d_81">
      <g>
       <use style="stroke:#000000;stroke-width:0.5;" x="346.183546544" xlink:href="#m8bda11b481" y="7.67821782178"/>
      </g>
     </g>
    </g>
    <g id="xtick_22">
     <g id="line2d_82">
      <g>
       <use style="stroke:#000000;stroke-width:0.5;" x="368.434468366" xlink:href="#me330b4ff64" y="384.0"/>
      </g>
     </g>
     <g id="line2d_83">
      <g>
       <use style="stroke:#000000;stroke-width:0.5;" x="368.434468366" xlink:href="#m8bda11b481" y="7.67821782178"/>
      </g>
     </g>
    </g>
    <g id="xtick_23">
     <g id="line2d_84">
      <g>
       <use style="stroke:#000000;stroke-width:0.5;" x="384.221748641" xlink:href="#me330b4ff64" y="384.0"/>
      </g>
     </g>
     <g id="line2d_85">
      <g>
       <use style="stroke:#000000;stroke-width:0.5;" x="384.221748641" xlink:href="#m8bda11b481" y="7.67821782178"/>
      </g>
     </g>
    </g>
    <g id="xtick_24">
     <g id="line2d_86">
      <g>
       <use style="stroke:#000000;stroke-width:0.5;" x="396.467314575" xlink:href="#me330b4ff64" y="384.0"/>
      </g>
     </g>
     <g id="line2d_87">
      <g>
       <use style="stroke:#000000;stroke-width:0.5;" x="396.467314575" xlink:href="#m8bda11b481" y="7.67821782178"/>
      </g>
     </g>
    </g>
    <g id="xtick_25">
     <g id="line2d_88">
      <g>
       <use style="stroke:#000000;stroke-width:0.5;" x="406.472670462" xlink:href="#me330b4ff64" y="384.0"/>
      </g>
     </g>
     <g id="line2d_89">
      <g>
       <use style="stroke:#000000;stroke-width:0.5;" x="406.472670462" xlink:href="#m8bda11b481" y="7.67821782178"/>
      </g>
     </g>
    </g>
    <g id="xtick_26">
     <g id="line2d_90">
      <g>
       <use style="stroke:#000000;stroke-width:0.5;" x="414.93207833" xlink:href="#me330b4ff64" y="384.0"/>
      </g>
     </g>
     <g id="line2d_91">
      <g>
       <use style="stroke:#000000;stroke-width:0.5;" x="414.93207833" xlink:href="#m8bda11b481" y="7.67821782178"/>
      </g>
     </g>
    </g>
    <g id="xtick_27">
     <g id="line2d_92">
      <g>
       <use style="stroke:#000000;stroke-width:0.5;" x="422.259950738" xlink:href="#me330b4ff64" y="384.0"/>
      </g>
     </g>
     <g id="line2d_93">
      <g>
       <use style="stroke:#000000;stroke-width:0.5;" x="422.259950738" xlink:href="#m8bda11b481" y="7.67821782178"/>
      </g>
     </g>
    </g>
    <g id="xtick_28">
     <g id="line2d_94">
      <g>
       <use style="stroke:#000000;stroke-width:0.5;" x="428.723592284" xlink:href="#me330b4ff64" y="384.0"/>
      </g>
     </g>
     <g id="line2d_95">
      <g>
       <use style="stroke:#000000;stroke-width:0.5;" x="428.723592284" xlink:href="#m8bda11b481" y="7.67821782178"/>
      </g>
     </g>
    </g>
    <g id="xtick_29">
     <g id="line2d_96">
      <g>
       <use style="stroke:#000000;stroke-width:0.5;" x="472.543718768" xlink:href="#me330b4ff64" y="384.0"/>
      </g>
     </g>
     <g id="line2d_97">
      <g>
       <use style="stroke:#000000;stroke-width:0.5;" x="472.543718768" xlink:href="#m8bda11b481" y="7.67821782178"/>
      </g>
     </g>
    </g>
    <g id="xtick_30">
     <g id="line2d_98">
      <g>
       <use style="stroke:#000000;stroke-width:0.5;" x="494.79464059" xlink:href="#me330b4ff64" y="384.0"/>
      </g>
     </g>
     <g id="line2d_99">
      <g>
       <use style="stroke:#000000;stroke-width:0.5;" x="494.79464059" xlink:href="#m8bda11b481" y="7.67821782178"/>
      </g>
     </g>
    </g>
    <g id="xtick_31">
     <g id="line2d_100">
      <g>
       <use style="stroke:#000000;stroke-width:0.5;" x="510.581920865" xlink:href="#me330b4ff64" y="384.0"/>
      </g>
     </g>
     <g id="line2d_101">
      <g>
       <use style="stroke:#000000;stroke-width:0.5;" x="510.581920865" xlink:href="#m8bda11b481" y="7.67821782178"/>
      </g>
     </g>
    </g>
    <g id="xtick_32">
     <g id="line2d_102">
      <g>
       <use style="stroke:#000000;stroke-width:0.5;" x="522.827486799" xlink:href="#me330b4ff64" y="384.0"/>
      </g>
     </g>
     <g id="line2d_103">
      <g>
       <use style="stroke:#000000;stroke-width:0.5;" x="522.827486799" xlink:href="#m8bda11b481" y="7.67821782178"/>
      </g>
     </g>
    </g>
    <g id="xtick_33">
     <g id="line2d_104">
      <g>
       <use style="stroke:#000000;stroke-width:0.5;" x="532.832842686" xlink:href="#me330b4ff64" y="384.0"/>
      </g>
     </g>
     <g id="line2d_105">
      <g>
       <use style="stroke:#000000;stroke-width:0.5;" x="532.832842686" xlink:href="#m8bda11b481" y="7.67821782178"/>
      </g>
     </g>
    </g>
    <g id="xtick_34">
     <g id="line2d_106">
      <g>
       <use style="stroke:#000000;stroke-width:0.5;" x="541.292250554" xlink:href="#me330b4ff64" y="384.0"/>
      </g>
     </g>
     <g id="line2d_107">
      <g>
       <use style="stroke:#000000;stroke-width:0.5;" x="541.292250554" xlink:href="#m8bda11b481" y="7.67821782178"/>
      </g>
     </g>
    </g>
    <g id="xtick_35">
     <g id="line2d_108">
      <g>
       <use style="stroke:#000000;stroke-width:0.5;" x="548.620122961" xlink:href="#me330b4ff64" y="384.0"/>
      </g>
     </g>
     <g id="line2d_109">
      <g>
       <use style="stroke:#000000;stroke-width:0.5;" x="548.620122961" xlink:href="#m8bda11b481" y="7.67821782178"/>
      </g>
     </g>
    </g>
    <g id="xtick_36">
     <g id="line2d_110">
      <g>
       <use style="stroke:#000000;stroke-width:0.5;" x="555.083764508" xlink:href="#me330b4ff64" y="384.0"/>
      </g>
     </g>
     <g id="line2d_111">
      <g>
       <use style="stroke:#000000;stroke-width:0.5;" x="555.083764508" xlink:href="#m8bda11b481" y="7.67821782178"/>
      </g>
     </g>
    </g>
    <g id="text_5">
     <!-- log10 of FEvals / DIM -->
     <defs>
      <path id="BitstreamVeraSans-Roman-20"/>
      <path d="M 31.78125 66.40625 
Q 24.171875 66.40625 20.328125 58.90625 
Q 16.5 51.421875 16.5 36.375 
Q 16.5 21.390625 20.328125 13.890625 
Q 24.171875 6.390625 31.78125 6.390625 
Q 39.453125 6.390625 43.28125 13.890625 
Q 47.125 21.390625 47.125 36.375 
Q 47.125 51.421875 43.28125 58.90625 
Q 39.453125 66.40625 31.78125 66.40625 
M 31.78125 74.21875 
Q 44.046875 74.21875 50.515625 64.515625 
Q 56.984375 54.828125 56.984375 36.375 
Q 56.984375 17.96875 50.515625 8.265625 
Q 44.046875 -1.421875 31.78125 -1.421875 
Q 19.53125 -1.421875 13.0625 8.265625 
Q 6.59375 17.96875 6.59375 36.375 
Q 6.59375 54.828125 13.0625 64.515625 
Q 19.53125 74.21875 31.78125 74.21875 
" id="BitstreamVeraSans-Roman-30"/>
      <path d="M 9.8125 72.90625 
L 24.515625 72.90625 
L 43.109375 23.296875 
L 61.8125 72.90625 
L 76.515625 72.90625 
L 76.515625 0 
L 66.890625 0 
L 66.890625 64.015625 
L 48.09375 14.015625 
L 38.1875 14.015625 
L 19.390625 64.015625 
L 19.390625 0 
L 9.8125 0 
z
" id="BitstreamVeraSans-Roman-4d"/>
      <path d="M 30.609375 48.390625 
Q 23.390625 48.390625 19.1875 42.75 
Q 14.984375 37.109375 14.984375 27.296875 
Q 14.984375 17.484375 19.15625 11.84375 
Q 23.34375 6.203125 30.609375 6.203125 
Q 37.796875 6.203125 41.984375 11.859375 
Q 46.1875 17.53125 46.1875 27.296875 
Q 46.1875 37.015625 41.984375 42.703125 
Q 37.796875 48.390625 30.609375 48.390625 
M 30.609375 56 
Q 42.328125 56 49.015625 48.375 
Q 55.71875 40.765625 55.71875 27.296875 
Q 55.71875 13.875 49.015625 6.21875 
Q 42.328125 -1.421875 30.609375 -1.421875 
Q 18.84375 -1.421875 12.171875 6.21875 
Q 5.515625 13.875 5.515625 27.296875 
Q 5.515625 40.765625 12.171875 48.375 
Q 18.84375 56 30.609375 56 
" id="BitstreamVeraSans-Roman-6f"/>
      <path d="M 9.421875 75.984375 
L 18.40625 75.984375 
L 18.40625 0 
L 9.421875 0 
z
" id="BitstreamVeraSans-Roman-6c"/>
      <path d="M 9.8125 72.90625 
L 51.703125 72.90625 
L 51.703125 64.59375 
L 19.671875 64.59375 
L 19.671875 43.109375 
L 48.578125 43.109375 
L 48.578125 34.8125 
L 19.671875 34.8125 
L 19.671875 0 
L 9.8125 0 
z
" id="BitstreamVeraSans-Roman-46"/>
      <path d="M 9.8125 72.90625 
L 55.90625 72.90625 
L 55.90625 64.59375 
L 19.671875 64.59375 
L 19.671875 43.015625 
L 54.390625 43.015625 
L 54.390625 34.71875 
L 19.671875 34.71875 
L 19.671875 8.296875 
L 56.78125 8.296875 
L 56.78125 0 
L 9.8125 0 
z
" id="BitstreamVeraSans-Roman-45"/>
      <path d="M 19.671875 64.796875 
L 19.671875 8.109375 
L 31.59375 8.109375 
Q 46.6875 8.109375 53.6875 14.9375 
Q 60.6875 21.78125 60.6875 36.53125 
Q 60.6875 51.171875 53.6875 57.984375 
Q 46.6875 64.796875 31.59375 64.796875 
z
M 9.8125 72.90625 
L 30.078125 72.90625 
Q 51.265625 72.90625 61.171875 64.09375 
Q 71.09375 55.28125 71.09375 36.53125 
Q 71.09375 17.671875 61.125 8.828125 
Q 51.171875 0 30.078125 0 
L 9.8125 0 
z
" id="BitstreamVeraSans-Roman-44"/>
      <path d="M 25.390625 72.90625 
L 33.6875 72.90625 
L 8.296875 -9.28125 
L 0 -9.28125 
z
" id="BitstreamVeraSans-Roman-2f"/>
      <path d="M 2.984375 54.6875 
L 12.5 54.6875 
L 29.59375 8.796875 
L 46.6875 54.6875 
L 56.203125 54.6875 
L 35.6875 0 
L 23.484375 0 
z
" id="BitstreamVeraSans-Roman-76"/>
      <path d="M 45.40625 27.984375 
Q 45.40625 37.75 41.375 43.109375 
Q 37.359375 48.484375 30.078125 48.484375 
Q 22.859375 48.484375 18.828125 43.109375 
Q 14.796875 37.75 14.796875 27.984375 
Q 14.796875 18.265625 18.828125 12.890625 
Q 22.859375 7.515625 30.078125 7.515625 
Q 37.359375 7.515625 41.375 12.890625 
Q 45.40625 18.265625 45.40625 27.984375 
M 54.390625 6.78125 
Q 54.390625 -7.171875 48.1875 -13.984375 
Q 42 -20.796875 29.203125 -20.796875 
Q 24.46875 -20.796875 20.265625 -20.09375 
Q 16.0625 -19.390625 12.109375 -17.921875 
L 12.109375 -9.1875 
Q 16.0625 -11.328125 19.921875 -12.34375 
Q 23.78125 -13.375 27.78125 -13.375 
Q 36.625 -13.375 41.015625 -8.765625 
Q 45.40625 -4.15625 45.40625 5.171875 
L 45.40625 9.625 
Q 42.625 4.78125 38.28125 2.390625 
Q 33.9375 0 27.875 0 
Q 17.828125 0 11.671875 7.65625 
Q 5.515625 15.328125 5.515625 27.984375 
Q 5.515625 40.671875 11.671875 48.328125 
Q 17.828125 56 27.875 56 
Q 33.9375 56 38.28125 53.609375 
Q 42.625 51.21875 45.40625 46.390625 
L 45.40625 54.6875 
L 54.390625 54.6875 
z
" id="BitstreamVeraSans-Roman-67"/>
      <path d="M 37.109375 75.984375 
L 37.109375 68.5 
L 28.515625 68.5 
Q 23.6875 68.5 21.796875 66.546875 
Q 19.921875 64.59375 19.921875 59.515625 
L 19.921875 54.6875 
L 34.71875 54.6875 
L 34.71875 47.703125 
L 19.921875 47.703125 
L 19.921875 0 
L 10.890625 0 
L 10.890625 47.703125 
L 2.296875 47.703125 
L 2.296875 54.6875 
L 10.890625 54.6875 
L 10.890625 58.5 
Q 10.890625 67.625 15.140625 71.796875 
Q 19.390625 75.984375 28.609375 75.984375 
z
" id="BitstreamVeraSans-Roman-66"/>
      <path d="M 34.28125 27.484375 
Q 23.390625 27.484375 19.1875 25 
Q 14.984375 22.515625 14.984375 16.5 
Q 14.984375 11.71875 18.140625 8.90625 
Q 21.296875 6.109375 26.703125 6.109375 
Q 34.1875 6.109375 38.703125 11.40625 
Q 43.21875 16.703125 43.21875 25.484375 
L 43.21875 27.484375 
z
M 52.203125 31.203125 
L 52.203125 0 
L 43.21875 0 
L 43.21875 8.296875 
Q 40.140625 3.328125 35.546875 0.953125 
Q 30.953125 -1.421875 24.3125 -1.421875 
Q 15.921875 -1.421875 10.953125 3.296875 
Q 6 8.015625 6 15.921875 
Q 6 25.140625 12.171875 29.828125 
Q 18.359375 34.515625 30.609375 34.515625 
L 43.21875 34.515625 
L 43.21875 35.40625 
Q 43.21875 41.609375 39.140625 45 
Q 35.0625 48.390625 27.6875 48.390625 
Q 23 48.390625 18.546875 47.265625 
Q 14.109375 46.140625 10.015625 43.890625 
L 10.015625 52.203125 
Q 14.9375 54.109375 19.578125 55.046875 
Q 24.21875 56 28.609375 56 
Q 40.484375 56 46.34375 49.84375 
Q 52.203125 43.703125 52.203125 31.203125 
" id="BitstreamVeraSans-Roman-61"/>
      <path d="M 44.28125 53.078125 
L 44.28125 44.578125 
Q 40.484375 46.53125 36.375 47.5 
Q 32.28125 48.484375 27.875 48.484375 
Q 21.1875 48.484375 17.84375 46.4375 
Q 14.5 44.390625 14.5 40.28125 
Q 14.5 37.15625 16.890625 35.375 
Q 19.28125 33.59375 26.515625 31.984375 
L 29.59375 31.296875 
Q 39.15625 29.25 43.1875 25.515625 
Q 47.21875 21.78125 47.21875 15.09375 
Q 47.21875 7.46875 41.1875 3.015625 
Q 35.15625 -1.421875 24.609375 -1.421875 
Q 20.21875 -1.421875 15.453125 -0.5625 
Q 10.6875 0.296875 5.421875 2 
L 5.421875 11.28125 
Q 10.40625 8.6875 15.234375 7.390625 
Q 20.0625 6.109375 24.8125 6.109375 
Q 31.15625 6.109375 34.5625 8.28125 
Q 37.984375 10.453125 37.984375 14.40625 
Q 37.984375 18.0625 35.515625 20.015625 
Q 33.0625 21.96875 24.703125 23.78125 
L 21.578125 24.515625 
Q 13.234375 26.265625 9.515625 29.90625 
Q 5.8125 33.546875 5.8125 39.890625 
Q 5.8125 47.609375 11.28125 51.796875 
Q 16.75 56 26.8125 56 
Q 31.78125 56 36.171875 55.265625 
Q 40.578125 54.546875 44.28125 53.078125 
" id="BitstreamVeraSans-Roman-73"/>
      <path d="M 9.8125 72.90625 
L 19.671875 72.90625 
L 19.671875 0 
L 9.8125 0 
z
" id="BitstreamVeraSans-Roman-49"/>
     </defs>
     <g transform="translate(203.149038553 427.553125)scale(0.2 -0.2)">
      <use xlink:href="#BitstreamVeraSans-Roman-6c"/>
      <use x="27.783203125" xlink:href="#BitstreamVeraSans-Roman-6f"/>
      <use x="88.96484375" xlink:href="#BitstreamVeraSans-Roman-67"/>
      <use x="152.44140625" xlink:href="#BitstreamVeraSans-Roman-31"/>
      <use x="216.064453125" xlink:href="#BitstreamVeraSans-Roman-30"/>
      <use x="279.6875" xlink:href="#BitstreamVeraSans-Roman-20"/>
      <use x="311.474609375" xlink:href="#BitstreamVeraSans-Roman-6f"/>
      <use x="372.65625" xlink:href="#BitstreamVeraSans-Roman-66"/>
      <use x="407.861328125" xlink:href="#BitstreamVeraSans-Roman-20"/>
      <use x="439.6484375" xlink:href="#BitstreamVeraSans-Roman-46"/>
      <use x="497.16796875" xlink:href="#BitstreamVeraSans-Roman-45"/>
      <use x="560.3515625" xlink:href="#BitstreamVeraSans-Roman-76"/>
      <use x="619.53125" xlink:href="#BitstreamVeraSans-Roman-61"/>
      <use x="680.810546875" xlink:href="#BitstreamVeraSans-Roman-6c"/>
      <use x="708.59375" xlink:href="#BitstreamVeraSans-Roman-73"/>
      <use x="760.693359375" xlink:href="#BitstreamVeraSans-Roman-20"/>
      <use x="792.48046875" xlink:href="#BitstreamVeraSans-Roman-2f"/>
      <use x="826.171875" xlink:href="#BitstreamVeraSans-Roman-20"/>
      <use x="857.958984375" xlink:href="#BitstreamVeraSans-Roman-44"/>
      <use x="934.9609375" xlink:href="#BitstreamVeraSans-Roman-49"/>
      <use x="964.453125" xlink:href="#BitstreamVeraSans-Roman-4d"/>
     </g>
    </g>
   </g>
   <g id="matplotlib.axis_2">
    <g id="ytick_1">
     <g id="line2d_112">
      <path clip-path="url(#p17ac37bd38)" d="M 55.425 384 
L 561.019952 384 
" style="fill:none;stroke:#000000;stroke-dasharray:1.000000,3.000000;stroke-dashoffset:0.0;stroke-width:0.5;"/>
     </g>
     <g id="line2d_113">
      <defs>
       <path d="M 0 0 
L 4 0 
" id="m14cd04e65d" style="stroke:#000000;stroke-width:0.5;"/>
      </defs>
      <g>
       <use style="stroke:#000000;stroke-width:0.5;" x="55.425" xlink:href="#m14cd04e65d" y="384.0"/>
      </g>
     </g>
     <g id="line2d_114">
      <defs>
       <path d="M 0 0 
L -4 0 
" id="m9a120ff640" style="stroke:#000000;stroke-width:0.5;"/>
      </defs>
      <g>
       <use style="stroke:#000000;stroke-width:0.5;" x="561.019952106" xlink:href="#m9a120ff640" y="384.0"/>
      </g>
     </g>
     <g id="text_6">
      <!-- 0.0 -->
      <defs>
       <path d="M 10.6875 12.40625 
L 21 12.40625 
L 21 0 
L 10.6875 0 
z
" id="BitstreamVeraSans-Roman-2e"/>
      </defs>
      <g transform="translate(25.98 388.415)scale(0.16 -0.16)">
       <use xlink:href="#BitstreamVeraSans-Roman-30"/>
       <use x="63.623046875" xlink:href="#BitstreamVeraSans-Roman-2e"/>
       <use x="95.41015625" xlink:href="#BitstreamVeraSans-Roman-30"/>
      </g>
     </g>
    </g>
    <g id="ytick_2">
     <g id="line2d_115">
      <path clip-path="url(#p17ac37bd38)" d="M 55.425 309.480835 
L 561.019952 309.480835 
" style="fill:none;stroke:#000000;stroke-dasharray:1.000000,3.000000;stroke-dashoffset:0.0;stroke-width:0.5;"/>
     </g>
     <g id="line2d_116">
      <g>
       <use style="stroke:#000000;stroke-width:0.5;" x="55.425" xlink:href="#m14cd04e65d" y="309.480835212"/>
      </g>
     </g>
     <g id="line2d_117">
      <g>
       <use style="stroke:#000000;stroke-width:0.5;" x="561.019952106" xlink:href="#m9a120ff640" y="309.480835212"/>
      </g>
     </g>
     <g id="text_7">
      <!-- 0.2 -->
      <g transform="translate(25.98 313.895835212)scale(0.16 -0.16)">
       <use xlink:href="#BitstreamVeraSans-Roman-30"/>
       <use x="63.623046875" xlink:href="#BitstreamVeraSans-Roman-2e"/>
       <use x="95.41015625" xlink:href="#BitstreamVeraSans-Roman-32"/>
      </g>
     </g>
    </g>
    <g id="ytick_3">
     <g id="line2d_118">
      <path clip-path="url(#p17ac37bd38)" d="M 55.425 234.96167 
L 561.019952 234.96167 
" style="fill:none;stroke:#000000;stroke-dasharray:1.000000,3.000000;stroke-dashoffset:0.0;stroke-width:0.5;"/>
     </g>
     <g id="line2d_119">
      <g>
       <use style="stroke:#000000;stroke-width:0.5;" x="55.425" xlink:href="#m14cd04e65d" y="234.961670424"/>
      </g>
     </g>
     <g id="line2d_120">
      <g>
       <use style="stroke:#000000;stroke-width:0.5;" x="561.019952106" xlink:href="#m9a120ff640" y="234.961670424"/>
      </g>
     </g>
     <g id="text_8">
      <!-- 0.4 -->
      <g transform="translate(25.98 239.376670424)scale(0.16 -0.16)">
       <use xlink:href="#BitstreamVeraSans-Roman-30"/>
       <use x="63.623046875" xlink:href="#BitstreamVeraSans-Roman-2e"/>
       <use x="95.41015625" xlink:href="#BitstreamVeraSans-Roman-34"/>
      </g>
     </g>
    </g>
    <g id="ytick_4">
     <g id="line2d_121">
      <path clip-path="url(#p17ac37bd38)" d="M 55.425 160.442506 
L 561.019952 160.442506 
" style="fill:none;stroke:#000000;stroke-dasharray:1.000000,3.000000;stroke-dashoffset:0.0;stroke-width:0.5;"/>
     </g>
     <g id="line2d_122">
      <g>
       <use style="stroke:#000000;stroke-width:0.5;" x="55.425" xlink:href="#m14cd04e65d" y="160.442505637"/>
      </g>
     </g>
     <g id="line2d_123">
      <g>
       <use style="stroke:#000000;stroke-width:0.5;" x="561.019952106" xlink:href="#m9a120ff640" y="160.442505637"/>
      </g>
     </g>
     <g id="text_9">
      <!-- 0.6 -->
      <defs>
       <path d="M 33.015625 40.375 
Q 26.375 40.375 22.484375 35.828125 
Q 18.609375 31.296875 18.609375 23.390625 
Q 18.609375 15.53125 22.484375 10.953125 
Q 26.375 6.390625 33.015625 6.390625 
Q 39.65625 6.390625 43.53125 10.953125 
Q 47.40625 15.53125 47.40625 23.390625 
Q 47.40625 31.296875 43.53125 35.828125 
Q 39.65625 40.375 33.015625 40.375 
M 52.59375 71.296875 
L 52.59375 62.3125 
Q 48.875 64.0625 45.09375 64.984375 
Q 41.3125 65.921875 37.59375 65.921875 
Q 27.828125 65.921875 22.671875 59.328125 
Q 17.53125 52.734375 16.796875 39.40625 
Q 19.671875 43.65625 24.015625 45.921875 
Q 28.375 48.1875 33.59375 48.1875 
Q 44.578125 48.1875 50.953125 41.515625 
Q 57.328125 34.859375 57.328125 23.390625 
Q 57.328125 12.15625 50.6875 5.359375 
Q 44.046875 -1.421875 33.015625 -1.421875 
Q 20.359375 -1.421875 13.671875 8.265625 
Q 6.984375 17.96875 6.984375 36.375 
Q 6.984375 53.65625 15.1875 63.9375 
Q 23.390625 74.21875 37.203125 74.21875 
Q 40.921875 74.21875 44.703125 73.484375 
Q 48.484375 72.75 52.59375 71.296875 
" id="BitstreamVeraSans-Roman-36"/>
      </defs>
      <g transform="translate(25.98 164.857505637)scale(0.16 -0.16)">
       <use xlink:href="#BitstreamVeraSans-Roman-30"/>
       <use x="63.623046875" xlink:href="#BitstreamVeraSans-Roman-2e"/>
       <use x="95.41015625" xlink:href="#BitstreamVeraSans-Roman-36"/>
      </g>
     </g>
    </g>
    <g id="ytick_5">
     <g id="line2d_124">
      <path clip-path="url(#p17ac37bd38)" d="M 55.425 85.923341 
L 561.019952 85.923341 
" style="fill:none;stroke:#000000;stroke-dasharray:1.000000,3.000000;stroke-dashoffset:0.0;stroke-width:0.5;"/>
     </g>
     <g id="line2d_125">
      <g>
       <use style="stroke:#000000;stroke-width:0.5;" x="55.425" xlink:href="#m14cd04e65d" y="85.9233408489"/>
      </g>
     </g>
     <g id="line2d_126">
      <g>
       <use style="stroke:#000000;stroke-width:0.5;" x="561.019952106" xlink:href="#m9a120ff640" y="85.9233408489"/>
      </g>
     </g>
     <g id="text_10">
      <!-- 0.8 -->
      <defs>
       <path d="M 31.78125 34.625 
Q 24.75 34.625 20.71875 30.859375 
Q 16.703125 27.09375 16.703125 20.515625 
Q 16.703125 13.921875 20.71875 10.15625 
Q 24.75 6.390625 31.78125 6.390625 
Q 38.8125 6.390625 42.859375 10.171875 
Q 46.921875 13.96875 46.921875 20.515625 
Q 46.921875 27.09375 42.890625 30.859375 
Q 38.875 34.625 31.78125 34.625 
M 21.921875 38.8125 
Q 15.578125 40.375 12.03125 44.71875 
Q 8.5 49.078125 8.5 55.328125 
Q 8.5 64.0625 14.71875 69.140625 
Q 20.953125 74.21875 31.78125 74.21875 
Q 42.671875 74.21875 48.875 69.140625 
Q 55.078125 64.0625 55.078125 55.328125 
Q 55.078125 49.078125 51.53125 44.71875 
Q 48 40.375 41.703125 38.8125 
Q 48.828125 37.15625 52.796875 32.3125 
Q 56.78125 27.484375 56.78125 20.515625 
Q 56.78125 9.90625 50.3125 4.234375 
Q 43.84375 -1.421875 31.78125 -1.421875 
Q 19.734375 -1.421875 13.25 4.234375 
Q 6.78125 9.90625 6.78125 20.515625 
Q 6.78125 27.484375 10.78125 32.3125 
Q 14.796875 37.15625 21.921875 38.8125 
M 18.3125 54.390625 
Q 18.3125 48.734375 21.84375 45.5625 
Q 25.390625 42.390625 31.78125 42.390625 
Q 38.140625 42.390625 41.71875 45.5625 
Q 45.3125 48.734375 45.3125 54.390625 
Q 45.3125 60.0625 41.71875 63.234375 
Q 38.140625 66.40625 31.78125 66.40625 
Q 25.390625 66.40625 21.84375 63.234375 
Q 18.3125 60.0625 18.3125 54.390625 
" id="BitstreamVeraSans-Roman-38"/>
      </defs>
      <g transform="translate(25.98 90.3383408489)scale(0.16 -0.16)">
       <use xlink:href="#BitstreamVeraSans-Roman-30"/>
       <use x="63.623046875" xlink:href="#BitstreamVeraSans-Roman-2e"/>
       <use x="95.41015625" xlink:href="#BitstreamVeraSans-Roman-38"/>
      </g>
     </g>
    </g>
    <g id="ytick_6">
     <g id="line2d_127">
      <path clip-path="url(#p17ac37bd38)" d="M 55.425 11.404176 
L 561.019952 11.404176 
" style="fill:none;stroke:#000000;stroke-dasharray:1.000000,3.000000;stroke-dashoffset:0.0;stroke-width:0.5;"/>
     </g>
     <g id="line2d_128">
      <g>
       <use style="stroke:#000000;stroke-width:0.5;" x="55.425" xlink:href="#m14cd04e65d" y="11.4041760612"/>
      </g>
     </g>
     <g id="line2d_129">
      <g>
       <use style="stroke:#000000;stroke-width:0.5;" x="561.019952106" xlink:href="#m9a120ff640" y="11.4041760612"/>
      </g>
     </g>
     <g id="text_11">
      <!-- 1.0 -->
      <g transform="translate(25.98 15.8191760612)scale(0.16 -0.16)">
       <use xlink:href="#BitstreamVeraSans-Roman-31"/>
       <use x="63.623046875" xlink:href="#BitstreamVeraSans-Roman-2e"/>
       <use x="95.41015625" xlink:href="#BitstreamVeraSans-Roman-30"/>
      </g>
     </g>
    </g>
    <g id="text_12">
     <!-- proportion of trials -->
     <defs>
      <path d="M 54.890625 33.015625 
L 54.890625 0 
L 45.90625 0 
L 45.90625 32.71875 
Q 45.90625 40.484375 42.875 44.328125 
Q 39.84375 48.1875 33.796875 48.1875 
Q 26.515625 48.1875 22.3125 43.546875 
Q 18.109375 38.921875 18.109375 30.90625 
L 18.109375 0 
L 9.078125 0 
L 9.078125 54.6875 
L 18.109375 54.6875 
L 18.109375 46.1875 
Q 21.34375 51.125 25.703125 53.5625 
Q 30.078125 56 35.796875 56 
Q 45.21875 56 50.046875 50.171875 
Q 54.890625 44.34375 54.890625 33.015625 
" id="BitstreamVeraSans-Roman-6e"/>
      <path d="M 9.421875 54.6875 
L 18.40625 54.6875 
L 18.40625 0 
L 9.421875 0 
z
M 9.421875 75.984375 
L 18.40625 75.984375 
L 18.40625 64.59375 
L 9.421875 64.59375 
z
" id="BitstreamVeraSans-Roman-69"/>
      <path d="M 18.3125 70.21875 
L 18.3125 54.6875 
L 36.8125 54.6875 
L 36.8125 47.703125 
L 18.3125 47.703125 
L 18.3125 18.015625 
Q 18.3125 11.328125 20.140625 9.421875 
Q 21.96875 7.515625 27.59375 7.515625 
L 36.8125 7.515625 
L 36.8125 0 
L 27.59375 0 
Q 17.1875 0 13.234375 3.875 
Q 9.28125 7.765625 9.28125 18.015625 
L 9.28125 47.703125 
L 2.6875 47.703125 
L 2.6875 54.6875 
L 9.28125 54.6875 
L 9.28125 70.21875 
z
" id="BitstreamVeraSans-Roman-74"/>
      <path d="M 41.109375 46.296875 
Q 39.59375 47.171875 37.8125 47.578125 
Q 36.03125 48 33.890625 48 
Q 26.265625 48 22.1875 43.046875 
Q 18.109375 38.09375 18.109375 28.8125 
L 18.109375 0 
L 9.078125 0 
L 9.078125 54.6875 
L 18.109375 54.6875 
L 18.109375 46.1875 
Q 20.953125 51.171875 25.484375 53.578125 
Q 30.03125 56 36.53125 56 
Q 37.453125 56 38.578125 55.875 
Q 39.703125 55.765625 41.0625 55.515625 
z
" id="BitstreamVeraSans-Roman-72"/>
      <path d="M 18.109375 8.203125 
L 18.109375 -20.796875 
L 9.078125 -20.796875 
L 9.078125 54.6875 
L 18.109375 54.6875 
L 18.109375 46.390625 
Q 20.953125 51.265625 25.265625 53.625 
Q 29.59375 56 35.59375 56 
Q 45.5625 56 51.78125 48.09375 
Q 58.015625 40.1875 58.015625 27.296875 
Q 58.015625 14.40625 51.78125 6.484375 
Q 45.5625 -1.421875 35.59375 -1.421875 
Q 29.59375 -1.421875 25.265625 0.953125 
Q 20.953125 3.328125 18.109375 8.203125 
M 48.6875 27.296875 
Q 48.6875 37.203125 44.609375 42.84375 
Q 40.53125 48.484375 33.40625 48.484375 
Q 26.265625 48.484375 22.1875 42.84375 
Q 18.109375 37.203125 18.109375 27.296875 
Q 18.109375 17.390625 22.1875 11.75 
Q 26.265625 6.109375 33.40625 6.109375 
Q 40.53125 6.109375 44.609375 11.75 
Q 48.6875 17.390625 48.6875 27.296875 
" id="BitstreamVeraSans-Roman-70"/>
     </defs>
     <g transform="translate(16.820625 289.067233911)rotate(-90.0)scale(0.2 -0.2)">
      <use xlink:href="#BitstreamVeraSans-Roman-70"/>
      <use x="63.4765625" xlink:href="#BitstreamVeraSans-Roman-72"/>
      <use x="104.55859375" xlink:href="#BitstreamVeraSans-Roman-6f"/>
      <use x="165.740234375" xlink:href="#BitstreamVeraSans-Roman-70"/>
      <use x="229.216796875" xlink:href="#BitstreamVeraSans-Roman-6f"/>
      <use x="290.3984375" xlink:href="#BitstreamVeraSans-Roman-72"/>
      <use x="331.51171875" xlink:href="#BitstreamVeraSans-Roman-74"/>
      <use x="370.720703125" xlink:href="#BitstreamVeraSans-Roman-69"/>
      <use x="398.50390625" xlink:href="#BitstreamVeraSans-Roman-6f"/>
      <use x="459.685546875" xlink:href="#BitstreamVeraSans-Roman-6e"/>
      <use x="523.064453125" xlink:href="#BitstreamVeraSans-Roman-20"/>
      <use x="554.8515625" xlink:href="#BitstreamVeraSans-Roman-6f"/>
      <use x="616.033203125" xlink:href="#BitstreamVeraSans-Roman-66"/>
      <use x="651.23828125" xlink:href="#BitstreamVeraSans-Roman-20"/>
      <use x="683.025390625" xlink:href="#BitstreamVeraSans-Roman-74"/>
      <use x="722.234375" xlink:href="#BitstreamVeraSans-Roman-72"/>
      <use x="763.34765625" xlink:href="#BitstreamVeraSans-Roman-69"/>
      <use x="791.130859375" xlink:href="#BitstreamVeraSans-Roman-61"/>
      <use x="852.41015625" xlink:href="#BitstreamVeraSans-Roman-6c"/>
      <use x="880.193359375" xlink:href="#BitstreamVeraSans-Roman-73"/>
     </g>
    </g>
   </g>
   <g id="text_13">
    <!-- {f6-f9}, 20-D -->
    <defs>
     <path d="M 11.71875 12.40625 
L 22.015625 12.40625 
L 22.015625 4 
L 14.015625 -11.625 
L 7.71875 -11.625 
L 11.71875 4 
z
" id="BitstreamVeraSans-Roman-2c"/>
     <path d="M 12.5 -9.28125 
L 15.921875 -9.28125 
Q 22.75 -9.28125 24.828125 -7.171875 
Q 26.90625 -5.078125 26.90625 1.90625 
L 26.90625 14.015625 
Q 26.90625 21.625 29.09375 25.09375 
Q 31.296875 28.5625 36.71875 29.890625 
Q 31.296875 31.109375 29.09375 34.5625 
Q 26.90625 38.03125 26.90625 45.703125 
L 26.90625 57.8125 
Q 26.90625 64.75 24.828125 66.875 
Q 22.75 69 15.921875 69 
L 12.5 69 
L 12.5 75.984375 
L 15.578125 75.984375 
Q 27.734375 75.984375 31.8125 72.390625 
Q 35.890625 68.796875 35.890625 58.015625 
L 35.890625 46.296875 
Q 35.890625 39.015625 38.515625 36.203125 
Q 41.15625 33.40625 48.09375 33.40625 
L 51.125 33.40625 
L 51.125 26.421875 
L 48.09375 26.421875 
Q 41.15625 26.421875 38.515625 23.578125 
Q 35.890625 20.75 35.890625 13.375 
L 35.890625 1.703125 
Q 35.890625 -9.078125 31.8125 -12.6875 
Q 27.734375 -16.3125 15.578125 -16.3125 
L 12.5 -16.3125 
z
" id="BitstreamVeraSans-Roman-7d"/>
     <path d="M 10.984375 1.515625 
L 10.984375 10.5 
Q 14.703125 8.734375 18.5 7.8125 
Q 22.3125 6.890625 25.984375 6.890625 
Q 35.75 6.890625 40.890625 13.453125 
Q 46.046875 20.015625 46.78125 33.40625 
Q 43.953125 29.203125 39.59375 26.953125 
Q 35.25 24.703125 29.984375 24.703125 
Q 19.046875 24.703125 12.671875 31.3125 
Q 6.296875 37.9375 6.296875 49.421875 
Q 6.296875 60.640625 12.9375 67.421875 
Q 19.578125 74.21875 30.609375 74.21875 
Q 43.265625 74.21875 49.921875 64.515625 
Q 56.59375 54.828125 56.59375 36.375 
Q 56.59375 19.140625 48.40625 8.859375 
Q 40.234375 -1.421875 26.421875 -1.421875 
Q 22.703125 -1.421875 18.890625 -0.6875 
Q 15.09375 0.046875 10.984375 1.515625 
M 30.609375 32.421875 
Q 37.25 32.421875 41.125 36.953125 
Q 45.015625 41.5 45.015625 49.421875 
Q 45.015625 57.28125 41.125 61.84375 
Q 37.25 66.40625 30.609375 66.40625 
Q 23.96875 66.40625 20.09375 61.84375 
Q 16.21875 57.28125 16.21875 49.421875 
Q 16.21875 41.5 20.09375 36.953125 
Q 23.96875 32.421875 30.609375 32.421875 
" id="BitstreamVeraSans-Roman-39"/>
     <path d="M 51.125 -9.28125 
L 51.125 -16.3125 
L 48.09375 -16.3125 
Q 35.9375 -16.3125 31.8125 -12.6875 
Q 27.6875 -9.078125 27.6875 1.703125 
L 27.6875 13.375 
Q 27.6875 20.75 25.046875 23.578125 
Q 22.40625 26.421875 15.484375 26.421875 
L 12.5 26.421875 
L 12.5 33.40625 
L 15.484375 33.40625 
Q 22.46875 33.40625 25.078125 36.203125 
Q 27.6875 39.015625 27.6875 46.296875 
L 27.6875 58.015625 
Q 27.6875 68.796875 31.8125 72.390625 
Q 35.9375 75.984375 48.09375 75.984375 
L 51.125 75.984375 
L 51.125 69 
L 47.796875 69 
Q 40.921875 69 38.8125 66.84375 
Q 36.71875 64.703125 36.71875 57.8125 
L 36.71875 45.703125 
Q 36.71875 38.03125 34.5 34.5625 
Q 32.28125 31.109375 26.90625 29.890625 
Q 32.328125 28.5625 34.515625 25.09375 
Q 36.71875 21.625 36.71875 14.015625 
L 36.71875 1.90625 
Q 36.71875 -4.984375 38.8125 -7.125 
Q 40.921875 -9.28125 47.796875 -9.28125 
z
" id="BitstreamVeraSans-Roman-7b"/>
     <path d="M 4.890625 31.390625 
L 31.203125 31.390625 
L 31.203125 23.390625 
L 4.890625 23.390625 
z
" id="BitstreamVeraSans-Roman-2d"/>
    </defs>
    <g transform="translate(241.734976053 30.4015284653)scale(0.2 -0.2)">
     <use xlink:href="#BitstreamVeraSans-Roman-7b"/>
     <use x="63.623046875" xlink:href="#BitstreamVeraSans-Roman-66"/>
     <use x="98.828125" xlink:href="#BitstreamVeraSans-Roman-36"/>
     <use x="162.451171875" xlink:href="#BitstreamVeraSans-Roman-2d"/>
     <use x="198.53515625" xlink:href="#BitstreamVeraSans-Roman-66"/>
     <use x="233.740234375" xlink:href="#BitstreamVeraSans-Roman-39"/>
     <use x="297.36328125" xlink:href="#BitstreamVeraSans-Roman-7d"/>
     <use x="360.986328125" xlink:href="#BitstreamVeraSans-Roman-2c"/>
     <use x="392.7734375" xlink:href="#BitstreamVeraSans-Roman-20"/>
     <use x="424.560546875" xlink:href="#BitstreamVeraSans-Roman-32"/>
     <use x="488.18359375" xlink:href="#BitstreamVeraSans-Roman-30"/>
     <use x="551.806640625" xlink:href="#BitstreamVeraSans-Roman-2d"/>
     <use x="587.890625" xlink:href="#BitstreamVeraSans-Roman-44"/>
    </g>
   </g>
   <g id="text_14">
    <!-- absolute targets -->
    <defs>
     <path d="M 56.203125 29.59375 
L 56.203125 25.203125 
L 14.890625 25.203125 
Q 15.484375 15.921875 20.484375 11.0625 
Q 25.484375 6.203125 34.421875 6.203125 
Q 39.59375 6.203125 44.453125 7.46875 
Q 49.3125 8.734375 54.109375 11.28125 
L 54.109375 2.78125 
Q 49.265625 0.734375 44.1875 -0.34375 
Q 39.109375 -1.421875 33.890625 -1.421875 
Q 20.796875 -1.421875 13.15625 6.1875 
Q 5.515625 13.8125 5.515625 26.8125 
Q 5.515625 40.234375 12.765625 48.109375 
Q 20.015625 56 32.328125 56 
Q 43.359375 56 49.78125 48.890625 
Q 56.203125 41.796875 56.203125 29.59375 
M 47.21875 32.234375 
Q 47.125 39.59375 43.09375 43.984375 
Q 39.0625 48.390625 32.421875 48.390625 
Q 24.90625 48.390625 20.390625 44.140625 
Q 15.875 39.890625 15.1875 32.171875 
z
" id="BitstreamVeraSans-Roman-65"/>
     <path d="M 8.5 21.578125 
L 8.5 54.6875 
L 17.484375 54.6875 
L 17.484375 21.921875 
Q 17.484375 14.15625 20.5 10.265625 
Q 23.53125 6.390625 29.59375 6.390625 
Q 36.859375 6.390625 41.078125 11.03125 
Q 45.3125 15.671875 45.3125 23.6875 
L 45.3125 54.6875 
L 54.296875 54.6875 
L 54.296875 0 
L 45.3125 0 
L 45.3125 8.40625 
Q 42.046875 3.421875 37.71875 1 
Q 33.40625 -1.421875 27.6875 -1.421875 
Q 18.265625 -1.421875 13.375 4.4375 
Q 8.5 10.296875 8.5 21.578125 
" id="BitstreamVeraSans-Roman-75"/>
     <path d="M 48.6875 27.296875 
Q 48.6875 37.203125 44.609375 42.84375 
Q 40.53125 48.484375 33.40625 48.484375 
Q 26.265625 48.484375 22.1875 42.84375 
Q 18.109375 37.203125 18.109375 27.296875 
Q 18.109375 17.390625 22.1875 11.75 
Q 26.265625 6.109375 33.40625 6.109375 
Q 40.53125 6.109375 44.609375 11.75 
Q 48.6875 17.390625 48.6875 27.296875 
M 18.109375 46.390625 
Q 20.953125 51.265625 25.265625 53.625 
Q 29.59375 56 35.59375 56 
Q 45.5625 56 51.78125 48.09375 
Q 58.015625 40.1875 58.015625 27.296875 
Q 58.015625 14.40625 51.78125 6.484375 
Q 45.5625 -1.421875 35.59375 -1.421875 
Q 29.59375 -1.421875 25.265625 0.953125 
Q 20.953125 3.328125 18.109375 8.203125 
L 18.109375 0 
L 9.078125 0 
L 9.078125 75.984375 
L 18.109375 75.984375 
z
" id="BitstreamVeraSans-Roman-62"/>
    </defs>
    <g transform="translate(55.425 384.0)scale(0.14 -0.14)">
     <use xlink:href="#BitstreamVeraSans-Roman-61"/>
     <use x="61.279296875" xlink:href="#BitstreamVeraSans-Roman-62"/>
     <use x="124.755859375" xlink:href="#BitstreamVeraSans-Roman-73"/>
     <use x="176.85546875" xlink:href="#BitstreamVeraSans-Roman-6f"/>
     <use x="238.037109375" xlink:href="#BitstreamVeraSans-Roman-6c"/>
     <use x="265.8203125" xlink:href="#BitstreamVeraSans-Roman-75"/>
     <use x="329.19921875" xlink:href="#BitstreamVeraSans-Roman-74"/>
     <use x="368.408203125" xlink:href="#BitstreamVeraSans-Roman-65"/>
     <use x="429.931640625" xlink:href="#BitstreamVeraSans-Roman-20"/>
     <use x="461.71875" xlink:href="#BitstreamVeraSans-Roman-74"/>
     <use x="500.927734375" xlink:href="#BitstreamVeraSans-Roman-61"/>
     <use x="562.20703125" xlink:href="#BitstreamVeraSans-Roman-72"/>
     <use x="603.3046875" xlink:href="#BitstreamVeraSans-Roman-67"/>
     <use x="666.78125" xlink:href="#BitstreamVeraSans-Roman-65"/>
     <use x="728.3046875" xlink:href="#BitstreamVeraSans-Roman-74"/>
     <use x="767.513671875" xlink:href="#BitstreamVeraSans-Roman-73"/>
    </g>
   </g>
   <g id="text_15">
    <!-- v2.2.1.10 -->
    <g style="fill:#808080;" transform="translate(284.589663553 378.157094678)scale(0.1 -0.1)">
     <use xlink:href="#BitstreamVeraSans-Roman-76"/>
     <use x="59.1796875" xlink:href="#BitstreamVeraSans-Roman-32"/>
     <use x="122.802734375" xlink:href="#BitstreamVeraSans-Roman-2e"/>
     <use x="154.58984375" xlink:href="#BitstreamVeraSans-Roman-32"/>
     <use x="218.212890625" xlink:href="#BitstreamVeraSans-Roman-2e"/>
     <use x="250.0" xlink:href="#BitstreamVeraSans-Roman-31"/>
     <use x="313.623046875" xlink:href="#BitstreamVeraSans-Roman-2e"/>
     <use x="345.41015625" xlink:href="#BitstreamVeraSans-Roman-31"/>
     <use x="409.033203125" xlink:href="#BitstreamVeraSans-Roman-30"/>
    </g>
   </g>
   <g id="legend_1">
    <g id="patch_7">
     <path d="M 65.425 141.103218 
L 202.646875 141.103218 
L 202.646875 17.678218 
L 65.425 17.678218 
z
" style="fill:#ffffff;opacity:0.2;stroke:#000000;stroke-linejoin:miter;"/>
    </g>
    <g id="line2d_130">
     <path d="M 79.425 33.875093 
L 107.425 33.875093 
" style="fill:none;stroke:#000000;stroke-linecap:square;"/>
    </g>
    <g id="line2d_131"/>
    <g id="text_16">
     <!-- 1: 0/4 -->
     <defs>
      <path d="M 11.71875 12.40625 
L 22.015625 12.40625 
L 22.015625 0 
L 11.71875 0 
z
M 11.71875 51.703125 
L 22.015625 51.703125 
L 22.015625 39.3125 
L 11.71875 39.3125 
z
" id="BitstreamVeraSans-Roman-3a"/>
     </defs>
     <g transform="translate(129.425 40.8750928218)scale(0.2 -0.2)">
      <use xlink:href="#BitstreamVeraSans-Roman-31"/>
      <use x="63.623046875" xlink:href="#BitstreamVeraSans-Roman-3a"/>
      <use x="97.314453125" xlink:href="#BitstreamVeraSans-Roman-20"/>
      <use x="129.1015625" xlink:href="#BitstreamVeraSans-Roman-30"/>
      <use x="192.724609375" xlink:href="#BitstreamVeraSans-Roman-2f"/>
      <use x="226.416015625" xlink:href="#BitstreamVeraSans-Roman-34"/>
     </g>
    </g>
    <g id="line2d_132">
     <path d="M 79.425 63.231343 
L 107.425 63.231343 
" style="fill:none;stroke:#00bfbf;stroke-linecap:square;"/>
    </g>
    <g id="line2d_133"/>
    <g id="text_17">
     <!-- -1: 0/4 -->
     <g transform="translate(129.425 70.2313428218)scale(0.2 -0.2)">
      <use xlink:href="#BitstreamVeraSans-Roman-2d"/>
      <use x="36.083984375" xlink:href="#BitstreamVeraSans-Roman-31"/>
      <use x="99.70703125" xlink:href="#BitstreamVeraSans-Roman-3a"/>
      <use x="133.3984375" xlink:href="#BitstreamVeraSans-Roman-20"/>
      <use x="165.185546875" xlink:href="#BitstreamVeraSans-Roman-30"/>
      <use x="228.80859375" xlink:href="#BitstreamVeraSans-Roman-2f"/>
      <use x="262.5" xlink:href="#BitstreamVeraSans-Roman-34"/>
     </g>
    </g>
    <g id="line2d_134">
     <path d="M 79.425 92.587593 
L 107.425 92.587593 
" style="fill:none;stroke:#bf00bf;stroke-linecap:square;"/>
    </g>
    <g id="line2d_135"/>
    <g id="text_18">
     <!-- -4: 0/4 -->
     <g transform="translate(129.425 99.5875928218)scale(0.2 -0.2)">
      <use xlink:href="#BitstreamVeraSans-Roman-2d"/>
      <use x="36.083984375" xlink:href="#BitstreamVeraSans-Roman-34"/>
      <use x="99.70703125" xlink:href="#BitstreamVeraSans-Roman-3a"/>
      <use x="133.3984375" xlink:href="#BitstreamVeraSans-Roman-20"/>
      <use x="165.185546875" xlink:href="#BitstreamVeraSans-Roman-30"/>
      <use x="228.80859375" xlink:href="#BitstreamVeraSans-Roman-2f"/>
      <use x="262.5" xlink:href="#BitstreamVeraSans-Roman-34"/>
     </g>
    </g>
    <g id="line2d_136">
     <path d="M 79.425 121.943843 
L 107.425 121.943843 
" style="fill:none;stroke:#ff0000;stroke-linecap:square;stroke-width:3.0;"/>
    </g>
    <g id="line2d_137"/>
    <g id="text_19">
     <!-- -8: 0/4 -->
     <g transform="translate(129.425 128.943842822)scale(0.2 -0.2)">
      <use xlink:href="#BitstreamVeraSans-Roman-2d"/>
      <use x="36.083984375" xlink:href="#BitstreamVeraSans-Roman-38"/>
      <use x="99.70703125" xlink:href="#BitstreamVeraSans-Roman-3a"/>
      <use x="133.3984375" xlink:href="#BitstreamVeraSans-Roman-20"/>
      <use x="165.185546875" xlink:href="#BitstreamVeraSans-Roman-30"/>
      <use x="228.80859375" xlink:href="#BitstreamVeraSans-Roman-2f"/>
      <use x="262.5" xlink:href="#BitstreamVeraSans-Roman-34"/>
     </g>
    </g>
   </g>
  </g>
 </g>
 <defs>
  <clipPath id="p17ac37bd38">
   <rect height="376.321782178" width="505.594952106" x="55.425" y="7.67821782178"/>
  </clipPath>
 </defs>
</svg>
