<?xml version="1.0" encoding="utf-8" standalone="no"?>
<!DOCTYPE svg PUBLIC "-//W3C//DTD SVG 1.1//EN"
  "http://www.w3.org/Graphics/SVG/1.1/DTD/svg11.dtd">
<!-- Created with matplotlib (http://matplotlib.org/) -->
<svg height="432pt" version="1.1" viewBox="0 0 576 432" width="576pt" xmlns="http://www.w3.org/2000/svg" xmlns:xlink="http://www.w3.org/1999/xlink">
 <defs>
  <style type="text/css">
*{stroke-linecap:butt;stroke-linejoin:round;stroke-miterlimit:100000;}
  </style>
 </defs>
 <g id="figure_1">
  <g id="patch_1">
   <path d="M 0 432 
L 576 432 
L 576 0 
L 0 0 
z
" style="fill:#ffffff;"/>
  </g>
  <g id="axes_1">
   <g id="patch_2">
    <path d="M 55.425 384 
L 561.019952 384 
L 561.019952 7.678218 
L 55.425 7.678218 
z
" style="fill:#ffffff;"/>
   </g>
   <g id="line2d_1"/>
   <g id="line2d_2"/>
   <g id="line2d_3"/>
   <g id="line2d_4">
    <path clip-path="url(#p47f56e33ef)" d="M 422.758437 384 
L 422.758437 379.032056 
L 422.758437 379.032056 
L 422.758437 379.032056 
L 422.785621 379.032056 
L 422.785621 374.064111 
L 424.005135 374.064111 
L 424.005135 369.096167 
L 424.878605 369.096167 
L 424.878605 364.128223 
L 425.454368 364.128223 
L 425.454368 359.160278 
L 425.992119 359.160278 
L 426.040163 349.22439 
L 426.19043 349.22439 
L 426.19043 344.256445 
L 427.127448 344.256445 
L 427.193321 329.352612 
L 429.326965 329.352612 
L 429.326965 324.384668 
L 430.045934 324.384668 
L 430.045934 319.416724 
L 431.206191 319.416724 
L 431.206191 314.44878 
L 431.406883 314.44878 
L 431.406883 309.480835 
L 432.618584 309.480835 
L 432.618584 304.512891 
L 433.424834 304.512891 
L 433.424834 299.544947 
L 434.59599 299.544947 
L 434.59599 294.577002 
L 434.863792 294.577002 
L 434.863792 289.609058 
L 435.565329 289.609058 
L 435.565329 284.641114 
L 436.19685 284.641114 
L 436.19685 279.673169 
L 438.805114 279.673169 
L 438.855833 269.737281 
L 440.844628 269.737281 
L 440.844628 264.769336 
L 442.468 264.769336 
L 442.468 259.801392 
L 444.318464 259.801392 
L 444.407881 249.865503 
L 445.348194 249.865503 
L 445.348194 244.897559 
L 445.807911 244.897559 
L 445.807911 239.929615 
L 449.992207 239.929615 
L 449.992207 234.96167 
L 453.162016 234.96167 
L 453.162016 229.993726 
L 454.172168 229.993726 
L 454.172168 225.025782 
L 454.430415 225.025782 
L 454.430415 220.057837 
L 455.882451 220.057837 
L 455.882451 215.089893 
L 456.475847 215.089893 
L 456.475847 210.121949 
L 458.072232 210.121949 
L 458.072232 205.154005 
L 458.390983 205.154005 
L 458.401635 195.218116 
L 458.741424 195.218116 
L 458.741424 190.250172 
L 459.294373 190.250172 
L 459.294373 185.282227 
L 459.414755 185.282227 
L 459.414755 180.314283 
L 459.912659 180.314283 
L 459.912659 175.346339 
L 460.477925 175.346339 
L 460.539426 165.41045 
L 461.143918 165.41045 
L 461.143918 160.442506 
L 462.156185 160.442506 
L 462.156185 155.474561 
L 464.454852 155.474561 
L 464.454852 150.506617 
L 467.890343 150.506617 
L 467.890343 145.538673 
L 478.544442 145.538673 
L 478.544442 140.570728 
L 479.313817 140.570728 
L 479.313817 135.602784 
L 479.467616 135.602784 
L 479.467616 130.63484 
L 480.00793 130.63484 
L 480.00793 125.666895 
L 484.033378 125.666895 
L 484.033378 120.698951 
L 493.407138 120.698951 
L 493.407138 115.731007 
L 500.001741 115.731007 
L 500.001741 110.763062 
L 505.891946 110.763062 
L 505.891946 105.795118 
L 506.55367 105.795118 
L 506.55367 100.827174 
L 506.922276 100.827174 
L 506.922276 95.859229 
L 507.141088 95.859229 
L 507.141088 90.891285 
L 508.276648 90.891285 
L 508.276648 85.923341 
L 509.92635 85.923341 
L 509.92635 80.955397 
L 534.976383 80.955397 
L 534.976383 75.987452 
L 551.954799 75.987452 
L 551.954799 71.019508 
L 555.361109 71.019508 
L 555.361109 66.051564 
L 555.361109 66.051564 
L 561.019952 66.051564 
L 561.019952 66.051564 
" style="fill:none;stroke:#f5deb3;stroke-linecap:square;"/>
   </g>
   <g id="line2d_5">
    <path clip-path="url(#p47f56e33ef)" d="M 412.282027 384 
L 412.282027 379.032056 
L 412.614234 379.032056 
L 412.614234 374.064111 
L 413.175625 374.064111 
L 413.175625 369.096167 
L 414.273532 369.096167 
L 414.273532 364.128223 
L 415.454837 364.128223 
L 415.454837 359.160278 
L 421.067216 359.160278 
L 421.067216 354.192334 
L 424.015101 354.192334 
L 424.015101 349.22439 
L 425.915161 349.22439 
L 425.915161 344.256445 
L 430.687991 344.256445 
L 430.687991 339.288501 
L 431.08075 339.288501 
L 431.08075 334.320557 
L 439.204519 334.320557 
L 439.204519 329.352612 
L 440.355995 329.352612 
L 440.355995 324.384668 
L 443.339165 324.384668 
L 443.339165 319.416724 
L 445.776638 319.416724 
L 445.776638 314.44878 
L 447.801205 314.44878 
L 447.801205 309.480835 
L 528.276449 309.480835 
L 528.276449 304.512891 
L 533.50914 304.512891 
L 533.50914 299.544947 
L 534.527723 299.544947 
L 534.527723 294.577002 
L 534.551219 294.577002 
L 534.551219 289.609058 
L 534.91874 289.609058 
L 534.91874 284.641114 
L 535.175249 284.641114 
L 535.175249 279.673169 
L 536.344967 279.673169 
L 536.344967 274.705225 
L 537.230876 274.705225 
L 537.230876 269.737281 
L 537.601904 269.737281 
L 537.601904 264.769336 
L 537.862059 264.769336 
L 537.862059 259.801392 
L 539.174398 259.801392 
L 539.174398 254.833448 
L 540.178376 254.833448 
L 540.178376 249.865503 
L 541.501561 249.865503 
L 541.501561 244.897559 
L 541.691012 244.897559 
L 541.691012 239.929615 
L 544.759192 239.929615 
L 544.759192 234.96167 
L 558.795279 234.96167 
L 558.795279 229.993726 
L 577 229.993726 
" style="fill:none;stroke:#f5deb3;stroke-linecap:square;"/>
   </g>
   <g id="line2d_6"/>
   <g id="line2d_7">
    <path clip-path="url(#p47f56e33ef)" d="M 421.434034 384 
L 421.434034 379.032056 
L 421.434034 379.032056 
L 421.434034 379.032056 
L 421.496671 379.032056 
L 421.496671 374.064111 
L 421.607851 374.064111 
L 421.607851 369.096167 
L 421.912438 369.096167 
L 421.912438 364.128223 
L 422.396973 364.128223 
L 422.396973 359.160278 
L 422.704029 359.160278 
L 422.704029 354.192334 
L 423.10065 354.192334 
L 423.10065 349.22439 
L 423.366842 349.22439 
L 423.427313 339.288501 
L 424.068226 339.288501 
L 424.121299 329.352612 
L 424.19419 329.352612 
L 424.300042 319.416724 
L 426.537344 319.416724 
L 426.537344 314.44878 
L 436.915803 314.44878 
L 436.915803 309.480835 
L 437.159476 309.480835 
L 437.159476 304.512891 
L 437.422891 304.512891 
L 437.422891 299.544947 
L 438.072092 299.544947 
L 438.072092 294.577002 
L 438.254345 294.577002 
L 438.303015 284.641114 
L 438.898907 284.641114 
L 438.898907 279.673169 
L 440.101366 279.673169 
L 440.101366 274.705225 
L 440.827514 274.705225 
L 440.827514 269.737281 
L 442.330176 269.737281 
L 442.437138 259.801392 
L 443.346172 259.801392 
L 443.346172 254.833448 
L 444.109258 254.833448 
L 444.109258 249.865503 
L 444.442233 249.865503 
L 444.442233 244.897559 
L 446.462768 244.897559 
L 446.462768 239.929615 
L 447.166575 239.929615 
L 447.221012 229.993726 
L 449.040441 229.993726 
L 449.040441 225.025782 
L 449.380462 225.025782 
L 449.380462 220.057837 
L 450.219349 220.057837 
L 450.219349 215.089893 
L 450.929781 215.089893 
L 450.929781 210.121949 
L 452.791638 210.121949 
L 452.791638 205.154005 
L 453.00163 205.154005 
L 453.00163 200.18606 
L 453.584206 200.18606 
L 453.584206 195.218116 
L 455.925182 195.218116 
L 455.925182 190.250172 
L 457.006475 190.250172 
L 457.006475 185.282227 
L 457.486914 185.282227 
L 457.486914 180.314283 
L 459.859096 180.314283 
L 459.859096 175.346339 
L 460.503559 175.346339 
L 460.582094 165.41045 
L 462.705485 165.41045 
L 462.705485 160.442506 
L 463.850584 160.442506 
L 463.850584 155.474561 
L 476.940908 155.474561 
L 476.940908 150.506617 
L 488.006608 150.506617 
L 488.006608 145.538673 
L 495.854452 145.538673 
L 495.854452 140.570728 
L 501.23714 140.570728 
L 501.23714 135.602784 
L 514.330109 135.602784 
L 514.330109 130.63484 
L 515.268958 130.63484 
L 515.268958 125.666895 
L 516.16352 125.666895 
L 516.16352 120.698951 
L 517.86021 120.698951 
L 517.86021 115.731007 
L 518.720338 115.731007 
L 518.720338 110.763062 
L 519.014667 110.763062 
L 519.014667 105.795118 
L 536.265551 105.795118 
L 536.265551 100.827174 
L 541.218508 100.827174 
L 541.218508 95.859229 
L 541.705798 95.859229 
L 541.705798 90.891285 
L 542.282426 90.891285 
L 542.282426 85.923341 
L 577 85.923341 
L 577 85.923341 
" style="fill:none;stroke:#f5deb3;stroke-linecap:square;"/>
   </g>
   <g id="line2d_8"/>
   <g id="line2d_9">
    <path clip-path="url(#p47f56e33ef)" d="M 419.031969 384 
L 419.031969 379.032056 
L 419.502837 379.032056 
L 419.502837 374.064111 
L 419.751128 374.064111 
L 419.751128 369.096167 
L 420.001874 369.096167 
L 420.001874 364.128223 
L 420.496414 364.128223 
L 420.496414 359.160278 
L 420.78608 359.160278 
L 420.78608 354.192334 
L 421.301563 354.192334 
L 421.301563 349.22439 
L 421.493193 349.22439 
L 421.493193 344.256445 
L 421.715342 344.256445 
L 421.760356 334.320557 
L 421.895177 334.320557 
L 422.005553 319.416724 
L 422.01589 319.416724 
L 422.01589 314.44878 
L 422.612093 314.44878 
L 422.612093 309.480835 
L 426.40075 309.480835 
L 426.40075 304.512891 
L 431.713769 304.512891 
L 431.713769 299.544947 
L 432.373811 299.544947 
L 432.476407 284.641114 
L 432.794374 284.641114 
L 432.794374 279.673169 
L 432.924436 279.673169 
L 432.924436 274.705225 
L 433.175205 274.705225 
L 433.242633 259.801392 
L 433.385641 259.801392 
L 433.385641 254.833448 
L 433.575742 254.833448 
L 433.575742 249.865503 
L 434.395652 249.865503 
L 434.395652 244.897559 
L 434.694518 244.897559 
L 434.694518 239.929615 
L 435.254942 239.929615 
L 435.254942 234.96167 
L 435.444082 234.96167 
L 435.444082 229.993726 
L 435.903401 229.993726 
L 435.903401 225.025782 
L 437.284821 225.025782 
L 437.284821 220.057837 
L 437.550232 220.057837 
L 437.550232 215.089893 
L 438.868505 215.089893 
L 438.868505 210.121949 
L 440.155852 210.121949 
L 440.155852 205.154005 
L 441.032536 205.154005 
L 441.032536 200.18606 
L 441.253782 200.18606 
L 441.253782 195.218116 
L 441.679173 195.218116 
L 441.758567 185.282227 
L 441.876245 185.282227 
L 441.876245 180.314283 
L 442.380118 180.314283 
L 442.380118 175.346339 
L 442.799258 175.346339 
L 442.886472 165.41045 
L 442.931204 165.41045 
L 442.931204 160.442506 
L 443.29944 160.442506 
L 443.362519 150.506617 
L 443.61876 150.506617 
L 443.61876 145.538673 
L 443.899251 145.538673 
L 443.899251 140.570728 
L 444.201315 140.570728 
L 444.201315 135.602784 
L 449.718389 135.602784 
L 449.772431 125.666895 
L 454.793724 125.666895 
L 454.793724 120.698951 
L 455.398945 120.698951 
L 455.398945 115.731007 
L 461.191181 115.731007 
L 461.191181 110.763062 
L 464.566027 110.763062 
L 464.672227 100.827174 
L 470.042794 100.827174 
L 470.042794 95.859229 
L 472.123674 95.859229 
L 472.123674 90.891285 
L 477.378563 90.891285 
L 477.378563 85.923341 
L 481.670905 85.923341 
L 481.670905 80.955397 
L 487.892634 80.955397 
L 487.892634 75.987452 
L 490.240731 75.987452 
L 490.240731 71.019508 
L 490.51927 71.019508 
L 490.51927 66.051564 
L 491.375714 66.051564 
L 491.375714 61.083619 
L 491.7869 61.083619 
L 491.7869 56.115675 
L 508.87927 56.115675 
L 508.87927 51.147731 
L 522.732466 51.147731 
L 522.732466 46.179786 
L 540.330173 46.179786 
L 540.330173 41.211842 
L 543.858747 41.211842 
L 543.858747 36.243898 
L 544.807009 36.243898 
L 544.807009 31.275953 
L 545.338642 31.275953 
L 545.338642 26.308009 
L 546.443828 26.308009 
L 546.443828 21.340065 
L 549.459809 21.340065 
L 549.459809 16.37212 
L 550.430389 16.37212 
L 550.430389 11.404176 
L 550.430389 11.404176 
L 561.019952 11.404176 
L 561.019952 11.404176 
" style="fill:none;stroke:#f5deb3;stroke-linecap:square;"/>
   </g>
   <g id="line2d_10"/>
   <g id="line2d_11">
    <path clip-path="url(#p47f56e33ef)" d="M 696.929937 384 
" style="fill:none;stroke:#f5deb3;stroke-linecap:square;"/>
   </g>
   <g id="line2d_12">
    <path clip-path="url(#p47f56e33ef)" d="M 533.888169 384 
L 533.888169 379.032056 
L 533.888169 379.032056 
L 533.888169 379.032056 
L 561.019952 379.032056 
" style="fill:none;stroke:#f5deb3;stroke-linecap:square;"/>
   </g>
   <g id="line2d_13"/>
   <g id="line2d_14"/>
   <g id="line2d_15"/>
   <g id="line2d_16">
    <path clip-path="url(#p47f56e33ef)" d="M 786.073648 384 
" style="fill:none;stroke:#f5deb3;stroke-linecap:square;"/>
   </g>
   <g id="line2d_17">
    <path clip-path="url(#p47f56e33ef)" d="M 581.884603 384 
" style="fill:none;stroke:#f5deb3;stroke-linecap:square;"/>
   </g>
   <g id="line2d_18">
    <path clip-path="url(#p47f56e33ef)" d="M 388.438828 384 
L 388.438828 379.032056 
L 396.719172 379.032056 
L 396.719172 374.064111 
L 398.772461 374.064111 
L 398.772461 369.096167 
L 400.036461 369.096167 
L 400.036461 364.128223 
L 400.471816 364.128223 
L 400.471816 359.160278 
L 402.965092 359.160278 
L 402.965092 354.192334 
L 409.992944 354.192334 
L 409.992944 349.22439 
L 416.187628 349.22439 
L 416.187628 344.256445 
L 416.508505 344.256445 
L 416.508505 339.288501 
L 416.580825 339.288501 
L 416.580825 334.320557 
L 423.296208 334.320557 
L 423.296208 329.352612 
L 429.591682 329.352612 
L 429.591682 324.384668 
L 433.455608 324.384668 
L 433.455608 319.416724 
L 437.692815 319.416724 
L 437.692815 314.44878 
L 448.10401 314.44878 
L 448.10401 309.480835 
L 517.760994 309.480835 
L 517.760994 304.512891 
L 518.817246 304.512891 
L 518.817246 299.544947 
L 520.857568 299.544947 
L 520.857568 294.577002 
L 521.240757 294.577002 
L 521.240757 289.609058 
L 523.379513 289.609058 
L 523.379513 284.641114 
L 523.689934 284.641114 
L 523.689934 279.673169 
L 523.999147 279.673169 
L 523.999147 274.705225 
L 524.633107 274.705225 
L 524.633107 269.737281 
L 524.71164 269.737281 
L 524.71164 264.769336 
L 525.406102 264.769336 
L 525.406102 259.801392 
L 526.06292 259.801392 
L 526.06292 254.833448 
L 526.231836 254.833448 
L 526.231836 249.865503 
L 526.426964 249.865503 
L 526.426964 244.897559 
L 526.497328 244.897559 
L 526.497328 239.929615 
L 526.969558 239.929615 
L 526.969558 234.96167 
L 527.060064 234.96167 
L 527.060064 229.993726 
L 527.550664 229.993726 
L 527.550664 225.025782 
L 527.88899 225.025782 
L 527.88899 220.057837 
L 527.925009 220.057837 
L 527.925009 215.089893 
L 529.163176 215.089893 
L 529.163176 210.121949 
L 529.204231 210.121949 
L 529.204231 205.154005 
L 535.008479 205.154005 
L 535.008479 200.18606 
L 541.873218 200.18606 
L 541.873218 195.218116 
L 556.97811 195.218116 
L 556.97811 190.250172 
L 566.220407 190.250172 
L 566.220407 185.282227 
L 566.981158 185.282227 
L 566.981158 180.314283 
L 570.074367 180.314283 
L 570.074367 175.346339 
L 577 175.346339 
" style="fill:none;stroke:#f5deb3;stroke-linecap:square;"/>
   </g>
   <g id="line2d_19"/>
   <g id="line2d_20"/>
   <g id="line2d_21"/>
   <g id="line2d_22"/>
   <g id="line2d_23"/>
   <g id="line2d_24">
    <path clip-path="url(#p47f56e33ef)" d="M 446.928598 384 
L 446.928598 379.032056 
L 448.740655 379.032056 
L 448.740655 374.064111 
L 449.973581 374.064111 
L 449.973581 369.096167 
L 450.901295 369.096167 
L 450.901295 364.128223 
L 451.717423 364.128223 
L 451.717423 359.160278 
L 454.516228 359.160278 
L 454.516228 354.192334 
L 455.391444 354.192334 
L 455.391444 349.22439 
L 455.930754 349.22439 
L 456.016108 339.288501 
L 457.028322 339.288501 
L 457.028322 334.320557 
L 458.136487 334.320557 
L 458.136487 329.352612 
L 459.718892 329.352612 
L 459.789904 319.416724 
L 460.537718 319.416724 
L 460.558204 309.480835 
L 461.549392 309.480835 
L 461.549392 304.512891 
L 462.918442 304.512891 
L 463.001762 294.577002 
L 463.302943 294.577002 
L 463.325668 284.641114 
L 464.724459 284.641114 
L 464.724459 279.673169 
L 465.131113 279.673169 
L 465.131113 274.705225 
L 465.966432 274.705225 
L 466.00972 264.769336 
L 466.13013 264.769336 
L 466.13013 259.801392 
L 466.596914 259.801392 
L 466.596914 254.833448 
L 467.788702 254.833448 
L 467.788702 249.865503 
L 467.917217 249.865503 
L 468.008191 239.929615 
L 468.574494 239.929615 
L 468.574494 234.96167 
L 468.83639 234.96167 
L 468.83639 229.993726 
L 470.75184 229.993726 
L 470.75184 225.025782 
L 471.510589 225.025782 
L 471.510589 220.057837 
L 472.040663 220.057837 
L 472.040663 215.089893 
L 472.293456 215.089893 
L 472.293456 210.121949 
L 472.464089 210.121949 
L 472.464089 205.154005 
L 472.97827 205.154005 
L 472.97827 200.18606 
L 475.546886 200.18606 
L 475.567664 190.250172 
L 476.337376 190.250172 
L 476.337376 185.282227 
L 477.56918 185.282227 
L 477.56918 180.314283 
L 478.876718 180.314283 
L 478.958559 170.378394 
L 479.590827 170.378394 
L 479.590827 165.41045 
L 480.268358 165.41045 
L 480.268358 160.442506 
L 488.540163 160.442506 
L 488.540163 155.474561 
L 488.884519 155.474561 
L 488.884519 150.506617 
L 489.733564 150.506617 
L 489.733564 145.538673 
L 490.12633 145.538673 
L 490.143256 135.602784 
L 491.046687 135.602784 
L 491.046687 130.63484 
L 491.325073 130.63484 
L 491.325073 125.666895 
L 492.095202 125.666895 
L 492.095202 120.698951 
L 493.110855 120.698951 
L 493.15328 110.763062 
L 494.548053 110.763062 
L 494.548053 105.795118 
L 494.758043 105.795118 
L 494.79647 95.859229 
L 497.163771 95.859229 
L 497.163771 90.891285 
L 503.257184 90.891285 
L 503.257184 85.923341 
L 515.578581 85.923341 
L 515.578581 80.955397 
L 527.819888 80.955397 
L 527.819888 75.987452 
L 528.722343 75.987452 
L 528.722343 71.019508 
L 532.645941 71.019508 
L 532.728476 61.083619 
L 533.473895 61.083619 
L 533.473895 56.115675 
L 533.834759 56.115675 
L 533.834759 51.147731 
L 534.328273 51.147731 
L 534.328273 46.179786 
L 534.789152 46.179786 
L 534.805477 36.243898 
L 535.325348 36.243898 
L 535.325348 31.275953 
L 540.432201 31.275953 
L 540.432201 26.308009 
L 540.743089 26.308009 
L 540.743089 21.340065 
L 541.915866 21.340065 
L 541.915866 16.37212 
L 543.018161 16.37212 
L 543.018161 11.404176 
L 543.018161 11.404176 
L 561.019952 11.404176 
L 561.019952 11.404176 
" style="fill:none;stroke:#f5deb3;stroke-linecap:square;"/>
   </g>
   <g id="line2d_25"/>
   <g id="line2d_26">
    <path clip-path="url(#p47f56e33ef)" d="M 453.887648 384 
L 453.887648 379.032056 
L 477.05602 379.032056 
L 477.05602 374.064111 
L 477.173413 374.064111 
L 477.173413 369.096167 
L 483.904144 369.096167 
L 483.904144 364.128223 
L 487.533626 364.128223 
L 487.533626 359.160278 
L 488.415993 359.160278 
L 488.415993 354.192334 
L 490.29139 354.192334 
L 490.29139 349.22439 
L 490.550901 349.22439 
L 490.550901 344.256445 
L 490.622989 344.256445 
L 490.622989 339.288501 
L 491.244145 339.288501 
L 491.244145 334.320557 
L 491.396152 334.320557 
L 491.396152 329.352612 
L 492.21708 329.352612 
L 492.21708 324.384668 
L 492.364508 324.384668 
L 492.364508 319.416724 
L 492.452393 319.416724 
L 492.452393 314.44878 
L 492.548714 314.44878 
L 492.548714 309.480835 
L 493.1316 309.480835 
L 493.1316 304.512891 
L 493.294457 304.512891 
L 493.294457 299.544947 
L 493.43996 299.544947 
L 493.43996 294.577002 
L 494.360309 294.577002 
L 494.360309 289.609058 
L 495.316234 289.609058 
L 495.316234 284.641114 
L 496.090785 284.641114 
L 496.090785 279.673169 
L 496.10329 279.673169 
L 496.10329 274.705225 
L 496.203223 274.705225 
L 496.203223 269.737281 
L 497.56438 269.737281 
L 497.56438 264.769336 
L 497.698137 264.769336 
L 497.698137 259.801392 
L 497.773557 259.801392 
L 497.773557 254.833448 
L 497.947407 254.833448 
L 497.947407 249.865503 
L 499.5398 249.865503 
L 499.5398 244.897559 
L 500.098979 244.897559 
L 500.098979 239.929615 
L 502.75475 239.929615 
L 502.75475 234.96167 
L 503.427032 234.96167 
L 503.427032 229.993726 
L 504.863983 229.993726 
L 504.863983 225.025782 
L 507.937217 225.025782 
L 507.937217 220.057837 
L 508.067353 220.057837 
L 508.067353 215.089893 
L 516.032622 215.089893 
L 516.032622 210.121949 
L 521.133326 210.121949 
L 521.133326 205.154005 
L 532.695477 205.154005 
L 532.695477 200.18606 
L 539.945873 200.18606 
L 539.945873 195.218116 
L 543.146399 195.218116 
L 543.146399 190.250172 
L 545.282903 190.250172 
L 545.282903 185.282227 
L 545.400507 185.282227 
L 545.400507 180.314283 
L 547.411261 180.314283 
L 547.411261 175.346339 
L 547.524396 175.346339 
L 547.524396 170.378394 
L 547.890569 170.378394 
L 547.890569 165.41045 
L 550.142581 165.41045 
L 550.142581 160.442506 
L 560.689799 160.442506 
L 560.689799 155.474561 
L 561.245223 155.474561 
L 561.245223 150.506617 
L 562.053193 150.506617 
L 562.053193 145.538673 
L 572.688832 145.538673 
L 572.688832 140.570728 
L 573.786684 140.570728 
L 573.786684 135.602784 
L 574.84429 135.602784 
L 574.84429 130.63484 
L 575.715938 130.63484 
L 575.715938 125.666895 
L 577 125.666895 
" style="fill:none;stroke:#f5deb3;stroke-linecap:square;"/>
   </g>
   <g id="line2d_27"/>
   <g id="line2d_28">
    <path clip-path="url(#p47f56e33ef)" d="M 419.369232 384 
L 419.369232 379.032056 
L 419.369232 379.032056 
L 419.369232 379.032056 
L 419.46676 379.032056 
L 419.46676 374.064111 
L 419.657701 374.064111 
L 419.657701 369.096167 
L 420.112554 369.096167 
L 420.190966 359.160278 
L 420.577816 359.160278 
L 420.577816 354.192334 
L 420.793126 354.192334 
L 420.793126 349.22439 
L 421.694553 349.22439 
L 421.694553 344.256445 
L 421.860639 344.256445 
L 421.933144 334.320557 
L 422.921339 334.320557 
L 422.921339 329.352612 
L 423.447455 329.352612 
L 423.447455 324.384668 
L 424.200812 324.384668 
L 424.306651 309.480835 
L 424.527593 309.480835 
L 424.527593 304.512891 
L 424.947233 304.512891 
L 424.947233 299.544947 
L 425.712631 299.544947 
L 425.712631 294.577002 
L 426.388026 294.577002 
L 426.388026 289.609058 
L 426.613435 289.609058 
L 426.613435 284.641114 
L 427.729903 284.641114 
L 427.729903 279.673169 
L 428.162815 279.673169 
L 428.162815 274.705225 
L 428.869738 274.705225 
L 428.869738 269.737281 
L 429.35711 269.737281 
L 429.35711 264.769336 
L 430.158912 264.769336 
L 430.158912 259.801392 
L 431.915493 259.801392 
L 431.972993 249.865503 
L 432.504872 249.865503 
L 432.504872 244.897559 
L 432.700879 244.897559 
L 432.700879 239.929615 
L 433.690044 239.929615 
L 433.690044 234.96167 
L 435.040698 234.96167 
L 435.100445 225.025782 
L 435.962216 225.025782 
L 436.020969 210.121949 
L 436.074326 210.121949 
L 436.074326 205.154005 
L 437.4385 205.154005 
L 437.4385 200.18606 
L 437.785942 200.18606 
L 437.785942 195.218116 
L 438.333731 195.218116 
L 438.333731 190.250172 
L 438.787351 190.250172 
L 438.787351 185.282227 
L 439.398118 185.282227 
L 439.415684 175.346339 
L 440.969158 175.346339 
L 440.969158 170.378394 
L 441.727304 170.378394 
L 441.727304 165.41045 
L 443.713963 165.41045 
L 443.713963 160.442506 
L 454.854358 160.442506 
L 454.854358 155.474561 
L 455.496362 155.474561 
L 455.496362 150.506617 
L 456.95182 150.506617 
L 456.95182 145.538673 
L 457.613123 145.538673 
L 457.613123 140.570728 
L 457.889766 140.570728 
L 457.889766 135.602784 
L 458.99138 135.602784 
L 458.99138 130.63484 
L 459.379889 130.63484 
L 459.379889 125.666895 
L 460.050647 125.666895 
L 460.050647 120.698951 
L 461.015427 120.698951 
L 461.015427 115.731007 
L 461.383191 115.731007 
L 461.383191 110.763062 
L 463.075175 110.763062 
L 463.075175 105.795118 
L 465.902983 105.795118 
L 465.902983 100.827174 
L 466.113165 100.827174 
L 466.113165 95.859229 
L 471.207784 95.859229 
L 471.207784 90.891285 
L 472.538231 90.891285 
L 472.538231 85.923341 
L 478.144523 85.923341 
L 478.144523 80.955397 
L 480.023494 80.955397 
L 480.023494 75.987452 
L 487.745152 75.987452 
L 487.745152 71.019508 
L 488.999503 71.019508 
L 488.999503 66.051564 
L 490.460904 66.051564 
L 490.460904 61.083619 
L 490.575599 61.083619 
L 490.681183 51.147731 
L 491.287062 51.147731 
L 491.287062 46.179786 
L 491.491429 46.179786 
L 491.491429 41.211842 
L 493.599101 41.211842 
L 493.682233 31.275953 
L 496.581672 31.275953 
L 496.581672 26.308009 
L 498.252259 26.308009 
L 498.252259 21.340065 
L 500.158732 21.340065 
L 500.158732 16.37212 
L 501.54695 16.37212 
L 501.54695 11.404176 
L 501.54695 11.404176 
L 561.019952 11.404176 
L 561.019952 11.404176 
" style="fill:none;stroke:#f5deb3;stroke-linecap:square;"/>
   </g>
   <g id="line2d_29"/>
   <g id="line2d_30"/>
   <g id="line2d_31">
    <path clip-path="url(#p47f56e33ef)" d="M 399.447097 384 
L 399.447097 379.032056 
L 419.14099 379.032056 
L 419.14099 374.064111 
L 422.253091 374.064111 
L 422.253091 369.096167 
L 425.198136 369.096167 
L 425.198136 364.128223 
L 430.875928 364.128223 
L 430.875928 359.160278 
L 444.09774 359.160278 
L 444.09774 354.192334 
L 454.57717 354.192334 
L 454.57717 349.22439 
L 457.598714 349.22439 
L 457.598714 344.256445 
L 458.831328 344.256445 
L 458.831328 339.288501 
L 459.087889 339.288501 
L 459.087889 334.320557 
L 463.469915 334.320557 
L 463.469915 329.352612 
L 465.043103 329.352612 
L 465.043103 324.384668 
L 465.112265 324.384668 
L 465.112265 319.416724 
L 466.749598 319.416724 
L 466.749598 314.44878 
L 490.037629 314.44878 
L 490.037629 309.480835 
L 490.037629 309.480835 
L 490.037629 309.480835 
L 561.019952 309.480835 
" style="fill:none;stroke:#000000;stroke-linecap:square;"/>
   </g>
   <g id="line2d_32">
    <path clip-path="url(#p47f56e33ef)" d="M -37978.986839 756.595824 
" style="fill:none;stroke:#000000;stroke-linecap:square;"/>
   </g>
   <g id="line2d_33"/>
   <g id="line2d_34"/>
   <g id="line2d_35"/>
   <g id="line2d_36">
    <path clip-path="url(#p47f56e33ef)" d="M 560.913686 384 
L 560.913686 7.678218 
" style="fill:none;stroke:#000000;stroke-linecap:square;"/>
   </g>
   <g id="patch_3">
    <path d="M 55.425 7.678218 
L 561.019952 7.678218 
" style="fill:none;stroke:#000000;stroke-linecap:square;stroke-linejoin:miter;"/>
   </g>
   <g id="patch_4">
    <path d="M 561.019952 384 
L 561.019952 7.678218 
" style="fill:none;stroke:#000000;stroke-linecap:square;stroke-linejoin:miter;"/>
   </g>
   <g id="patch_5">
    <path d="M 55.425 384 
L 561.019952 384 
" style="fill:none;stroke:#000000;stroke-linecap:square;stroke-linejoin:miter;"/>
   </g>
   <g id="patch_6">
    <path d="M 55.425 384 
L 55.425 7.678218 
" style="fill:none;stroke:#000000;stroke-linecap:square;stroke-linejoin:miter;"/>
   </g>
   <g id="matplotlib.axis_1">
    <g id="xtick_1">
     <g id="line2d_37">
      <path clip-path="url(#p47f56e33ef)" d="M 181.785172 384 
L 181.785172 7.678218 
" style="fill:none;stroke:#000000;stroke-dasharray:1.000000,3.000000;stroke-dashoffset:0.0;stroke-width:0.5;"/>
     </g>
     <g id="line2d_38">
      <defs>
       <path d="M 0 0 
L 0 -4 
" id="me9bc70a211" style="stroke:#000000;stroke-width:0.5;"/>
      </defs>
      <g>
       <use style="stroke:#000000;stroke-width:0.5;" x="181.785172224" xlink:href="#me9bc70a211" y="384.0"/>
      </g>
     </g>
     <g id="line2d_39">
      <defs>
       <path d="M 0 0 
L 0 4 
" id="mc59932d360" style="stroke:#000000;stroke-width:0.5;"/>
      </defs>
      <g>
       <use style="stroke:#000000;stroke-width:0.5;" x="181.785172224" xlink:href="#mc59932d360" y="7.67821782178"/>
      </g>
     </g>
     <g id="text_1">
      <!-- 1 -->
      <defs>
       <path d="M 12.40625 8.296875 
L 28.515625 8.296875 
L 28.515625 63.921875 
L 10.984375 60.40625 
L 10.984375 69.390625 
L 28.421875 72.90625 
L 38.28125 72.90625 
L 38.28125 8.296875 
L 54.390625 8.296875 
L 54.390625 0 
L 12.40625 0 
z
" id="BitstreamVeraSans-Roman-31"/>
      </defs>
      <g transform="translate(175.422672224 403.196875)scale(0.2 -0.2)">
       <use xlink:href="#BitstreamVeraSans-Roman-31"/>
      </g>
     </g>
    </g>
    <g id="xtick_2">
     <g id="line2d_40">
      <path clip-path="url(#p47f56e33ef)" d="M 308.145344 384 
L 308.145344 7.678218 
" style="fill:none;stroke:#000000;stroke-dasharray:1.000000,3.000000;stroke-dashoffset:0.0;stroke-width:0.5;"/>
     </g>
     <g id="line2d_41">
      <g>
       <use style="stroke:#000000;stroke-width:0.5;" x="308.145344448" xlink:href="#me9bc70a211" y="384.0"/>
      </g>
     </g>
     <g id="line2d_42">
      <g>
       <use style="stroke:#000000;stroke-width:0.5;" x="308.145344448" xlink:href="#mc59932d360" y="7.67821782178"/>
      </g>
     </g>
     <g id="text_2">
      <!-- 2 -->
      <defs>
       <path d="M 19.1875 8.296875 
L 53.609375 8.296875 
L 53.609375 0 
L 7.328125 0 
L 7.328125 8.296875 
Q 12.9375 14.109375 22.625 23.890625 
Q 32.328125 33.6875 34.8125 36.53125 
Q 39.546875 41.84375 41.421875 45.53125 
Q 43.3125 49.21875 43.3125 52.78125 
Q 43.3125 58.59375 39.234375 62.25 
Q 35.15625 65.921875 28.609375 65.921875 
Q 23.96875 65.921875 18.8125 64.3125 
Q 13.671875 62.703125 7.8125 59.421875 
L 7.8125 69.390625 
Q 13.765625 71.78125 18.9375 73 
Q 24.125 74.21875 28.421875 74.21875 
Q 39.75 74.21875 46.484375 68.546875 
Q 53.21875 62.890625 53.21875 53.421875 
Q 53.21875 48.921875 51.53125 44.890625 
Q 49.859375 40.875 45.40625 35.40625 
Q 44.1875 33.984375 37.640625 27.21875 
Q 31.109375 20.453125 19.1875 8.296875 
" id="BitstreamVeraSans-Roman-32"/>
      </defs>
      <g transform="translate(301.782844448 403.196875)scale(0.2 -0.2)">
       <use xlink:href="#BitstreamVeraSans-Roman-32"/>
      </g>
     </g>
    </g>
    <g id="xtick_3">
     <g id="line2d_43">
      <path clip-path="url(#p47f56e33ef)" d="M 434.505517 384 
L 434.505517 7.678218 
" style="fill:none;stroke:#000000;stroke-dasharray:1.000000,3.000000;stroke-dashoffset:0.0;stroke-width:0.5;"/>
     </g>
     <g id="line2d_44">
      <g>
       <use style="stroke:#000000;stroke-width:0.5;" x="434.505516671" xlink:href="#me9bc70a211" y="384.0"/>
      </g>
     </g>
     <g id="line2d_45">
      <g>
       <use style="stroke:#000000;stroke-width:0.5;" x="434.505516671" xlink:href="#mc59932d360" y="7.67821782178"/>
      </g>
     </g>
     <g id="text_3">
      <!-- 3 -->
      <defs>
       <path d="M 40.578125 39.3125 
Q 47.65625 37.796875 51.625 33 
Q 55.609375 28.21875 55.609375 21.1875 
Q 55.609375 10.40625 48.1875 4.484375 
Q 40.765625 -1.421875 27.09375 -1.421875 
Q 22.515625 -1.421875 17.65625 -0.515625 
Q 12.796875 0.390625 7.625 2.203125 
L 7.625 11.71875 
Q 11.71875 9.328125 16.59375 8.109375 
Q 21.484375 6.890625 26.8125 6.890625 
Q 36.078125 6.890625 40.9375 10.546875 
Q 45.796875 14.203125 45.796875 21.1875 
Q 45.796875 27.640625 41.28125 31.265625 
Q 36.765625 34.90625 28.71875 34.90625 
L 20.21875 34.90625 
L 20.21875 43.015625 
L 29.109375 43.015625 
Q 36.375 43.015625 40.234375 45.921875 
Q 44.09375 48.828125 44.09375 54.296875 
Q 44.09375 59.90625 40.109375 62.90625 
Q 36.140625 65.921875 28.71875 65.921875 
Q 24.65625 65.921875 20.015625 65.03125 
Q 15.375 64.15625 9.8125 62.3125 
L 9.8125 71.09375 
Q 15.4375 72.65625 20.34375 73.4375 
Q 25.25 74.21875 29.59375 74.21875 
Q 40.828125 74.21875 47.359375 69.109375 
Q 53.90625 64.015625 53.90625 55.328125 
Q 53.90625 49.265625 50.4375 45.09375 
Q 46.96875 40.921875 40.578125 39.3125 
" id="BitstreamVeraSans-Roman-33"/>
      </defs>
      <g transform="translate(428.143016671 403.196875)scale(0.2 -0.2)">
       <use xlink:href="#BitstreamVeraSans-Roman-33"/>
      </g>
     </g>
    </g>
    <g id="xtick_4">
     <g id="line2d_46">
      <path clip-path="url(#p47f56e33ef)" d="M 560.865689 384 
L 560.865689 7.678218 
" style="fill:none;stroke:#000000;stroke-dasharray:1.000000,3.000000;stroke-dashoffset:0.0;stroke-width:0.5;"/>
     </g>
     <g id="line2d_47">
      <g>
       <use style="stroke:#000000;stroke-width:0.5;" x="560.865688895" xlink:href="#me9bc70a211" y="384.0"/>
      </g>
     </g>
     <g id="line2d_48">
      <g>
       <use style="stroke:#000000;stroke-width:0.5;" x="560.865688895" xlink:href="#mc59932d360" y="7.67821782178"/>
      </g>
     </g>
     <g id="text_4">
      <!-- 4 -->
      <defs>
       <path d="M 37.796875 64.3125 
L 12.890625 25.390625 
L 37.796875 25.390625 
z
M 35.203125 72.90625 
L 47.609375 72.90625 
L 47.609375 25.390625 
L 58.015625 25.390625 
L 58.015625 17.1875 
L 47.609375 17.1875 
L 47.609375 0 
L 37.796875 0 
L 37.796875 17.1875 
L 4.890625 17.1875 
L 4.890625 26.703125 
z
" id="BitstreamVeraSans-Roman-34"/>
      </defs>
      <g transform="translate(554.503188895 403.196875)scale(0.2 -0.2)">
       <use xlink:href="#BitstreamVeraSans-Roman-34"/>
      </g>
     </g>
    </g>
    <g id="xtick_5">
     <g id="line2d_49">
      <defs>
       <path d="M 0 0 
L 0 -2 
" id="m4c7c5dec4d" style="stroke:#000000;stroke-width:0.5;"/>
      </defs>
      <g>
       <use style="stroke:#000000;stroke-width:0.5;" x="93.4632020966" xlink:href="#m4c7c5dec4d" y="384.0"/>
      </g>
     </g>
     <g id="line2d_50">
      <defs>
       <path d="M 0 0 
L 0 2 
" id="ma721fd764f" style="stroke:#000000;stroke-width:0.5;"/>
      </defs>
      <g>
       <use style="stroke:#000000;stroke-width:0.5;" x="93.4632020966" xlink:href="#ma721fd764f" y="7.67821782178"/>
      </g>
     </g>
    </g>
    <g id="xtick_6">
     <g id="line2d_51">
      <g>
       <use style="stroke:#000000;stroke-width:0.5;" x="115.714123918" xlink:href="#m4c7c5dec4d" y="384.0"/>
      </g>
     </g>
     <g id="line2d_52">
      <g>
       <use style="stroke:#000000;stroke-width:0.5;" x="115.714123918" xlink:href="#ma721fd764f" y="7.67821782178"/>
      </g>
     </g>
    </g>
    <g id="xtick_7">
     <g id="line2d_53">
      <g>
       <use style="stroke:#000000;stroke-width:0.5;" x="131.501404193" xlink:href="#m4c7c5dec4d" y="384.0"/>
      </g>
     </g>
     <g id="line2d_54">
      <g>
       <use style="stroke:#000000;stroke-width:0.5;" x="131.501404193" xlink:href="#ma721fd764f" y="7.67821782178"/>
      </g>
     </g>
    </g>
    <g id="xtick_8">
     <g id="line2d_55">
      <g>
       <use style="stroke:#000000;stroke-width:0.5;" x="143.746970127" xlink:href="#m4c7c5dec4d" y="384.0"/>
      </g>
     </g>
     <g id="line2d_56">
      <g>
       <use style="stroke:#000000;stroke-width:0.5;" x="143.746970127" xlink:href="#ma721fd764f" y="7.67821782178"/>
      </g>
     </g>
    </g>
    <g id="xtick_9">
     <g id="line2d_57">
      <g>
       <use style="stroke:#000000;stroke-width:0.5;" x="153.752326015" xlink:href="#m4c7c5dec4d" y="384.0"/>
      </g>
     </g>
     <g id="line2d_58">
      <g>
       <use style="stroke:#000000;stroke-width:0.5;" x="153.752326015" xlink:href="#ma721fd764f" y="7.67821782178"/>
      </g>
     </g>
    </g>
    <g id="xtick_10">
     <g id="line2d_59">
      <g>
       <use style="stroke:#000000;stroke-width:0.5;" x="162.211733882" xlink:href="#m4c7c5dec4d" y="384.0"/>
      </g>
     </g>
     <g id="line2d_60">
      <g>
       <use style="stroke:#000000;stroke-width:0.5;" x="162.211733882" xlink:href="#ma721fd764f" y="7.67821782178"/>
      </g>
     </g>
    </g>
    <g id="xtick_11">
     <g id="line2d_61">
      <g>
       <use style="stroke:#000000;stroke-width:0.5;" x="169.53960629" xlink:href="#m4c7c5dec4d" y="384.0"/>
      </g>
     </g>
     <g id="line2d_62">
      <g>
       <use style="stroke:#000000;stroke-width:0.5;" x="169.53960629" xlink:href="#ma721fd764f" y="7.67821782178"/>
      </g>
     </g>
    </g>
    <g id="xtick_12">
     <g id="line2d_63">
      <g>
       <use style="stroke:#000000;stroke-width:0.5;" x="176.003247836" xlink:href="#m4c7c5dec4d" y="384.0"/>
      </g>
     </g>
     <g id="line2d_64">
      <g>
       <use style="stroke:#000000;stroke-width:0.5;" x="176.003247836" xlink:href="#ma721fd764f" y="7.67821782178"/>
      </g>
     </g>
    </g>
    <g id="xtick_13">
     <g id="line2d_65">
      <g>
       <use style="stroke:#000000;stroke-width:0.5;" x="219.82337432" xlink:href="#m4c7c5dec4d" y="384.0"/>
      </g>
     </g>
     <g id="line2d_66">
      <g>
       <use style="stroke:#000000;stroke-width:0.5;" x="219.82337432" xlink:href="#ma721fd764f" y="7.67821782178"/>
      </g>
     </g>
    </g>
    <g id="xtick_14">
     <g id="line2d_67">
      <g>
       <use style="stroke:#000000;stroke-width:0.5;" x="242.074296142" xlink:href="#m4c7c5dec4d" y="384.0"/>
      </g>
     </g>
     <g id="line2d_68">
      <g>
       <use style="stroke:#000000;stroke-width:0.5;" x="242.074296142" xlink:href="#ma721fd764f" y="7.67821782178"/>
      </g>
     </g>
    </g>
    <g id="xtick_15">
     <g id="line2d_69">
      <g>
       <use style="stroke:#000000;stroke-width:0.5;" x="257.861576417" xlink:href="#m4c7c5dec4d" y="384.0"/>
      </g>
     </g>
     <g id="line2d_70">
      <g>
       <use style="stroke:#000000;stroke-width:0.5;" x="257.861576417" xlink:href="#ma721fd764f" y="7.67821782178"/>
      </g>
     </g>
    </g>
    <g id="xtick_16">
     <g id="line2d_71">
      <g>
       <use style="stroke:#000000;stroke-width:0.5;" x="270.107142351" xlink:href="#m4c7c5dec4d" y="384.0"/>
      </g>
     </g>
     <g id="line2d_72">
      <g>
       <use style="stroke:#000000;stroke-width:0.5;" x="270.107142351" xlink:href="#ma721fd764f" y="7.67821782178"/>
      </g>
     </g>
    </g>
    <g id="xtick_17">
     <g id="line2d_73">
      <g>
       <use style="stroke:#000000;stroke-width:0.5;" x="280.112498238" xlink:href="#m4c7c5dec4d" y="384.0"/>
      </g>
     </g>
     <g id="line2d_74">
      <g>
       <use style="stroke:#000000;stroke-width:0.5;" x="280.112498238" xlink:href="#ma721fd764f" y="7.67821782178"/>
      </g>
     </g>
    </g>
    <g id="xtick_18">
     <g id="line2d_75">
      <g>
       <use style="stroke:#000000;stroke-width:0.5;" x="288.571906106" xlink:href="#m4c7c5dec4d" y="384.0"/>
      </g>
     </g>
     <g id="line2d_76">
      <g>
       <use style="stroke:#000000;stroke-width:0.5;" x="288.571906106" xlink:href="#ma721fd764f" y="7.67821782178"/>
      </g>
     </g>
    </g>
    <g id="xtick_19">
     <g id="line2d_77">
      <g>
       <use style="stroke:#000000;stroke-width:0.5;" x="295.899778514" xlink:href="#m4c7c5dec4d" y="384.0"/>
      </g>
     </g>
     <g id="line2d_78">
      <g>
       <use style="stroke:#000000;stroke-width:0.5;" x="295.899778514" xlink:href="#ma721fd764f" y="7.67821782178"/>
      </g>
     </g>
    </g>
    <g id="xtick_20">
     <g id="line2d_79">
      <g>
       <use style="stroke:#000000;stroke-width:0.5;" x="302.36342006" xlink:href="#m4c7c5dec4d" y="384.0"/>
      </g>
     </g>
     <g id="line2d_80">
      <g>
       <use style="stroke:#000000;stroke-width:0.5;" x="302.36342006" xlink:href="#ma721fd764f" y="7.67821782178"/>
      </g>
     </g>
    </g>
    <g id="xtick_21">
     <g id="line2d_81">
      <g>
       <use style="stroke:#000000;stroke-width:0.5;" x="346.183546544" xlink:href="#m4c7c5dec4d" y="384.0"/>
      </g>
     </g>
     <g id="line2d_82">
      <g>
       <use style="stroke:#000000;stroke-width:0.5;" x="346.183546544" xlink:href="#ma721fd764f" y="7.67821782178"/>
      </g>
     </g>
    </g>
    <g id="xtick_22">
     <g id="line2d_83">
      <g>
       <use style="stroke:#000000;stroke-width:0.5;" x="368.434468366" xlink:href="#m4c7c5dec4d" y="384.0"/>
      </g>
     </g>
     <g id="line2d_84">
      <g>
       <use style="stroke:#000000;stroke-width:0.5;" x="368.434468366" xlink:href="#ma721fd764f" y="7.67821782178"/>
      </g>
     </g>
    </g>
    <g id="xtick_23">
     <g id="line2d_85">
      <g>
       <use style="stroke:#000000;stroke-width:0.5;" x="384.221748641" xlink:href="#m4c7c5dec4d" y="384.0"/>
      </g>
     </g>
     <g id="line2d_86">
      <g>
       <use style="stroke:#000000;stroke-width:0.5;" x="384.221748641" xlink:href="#ma721fd764f" y="7.67821782178"/>
      </g>
     </g>
    </g>
    <g id="xtick_24">
     <g id="line2d_87">
      <g>
       <use style="stroke:#000000;stroke-width:0.5;" x="396.467314575" xlink:href="#m4c7c5dec4d" y="384.0"/>
      </g>
     </g>
     <g id="line2d_88">
      <g>
       <use style="stroke:#000000;stroke-width:0.5;" x="396.467314575" xlink:href="#ma721fd764f" y="7.67821782178"/>
      </g>
     </g>
    </g>
    <g id="xtick_25">
     <g id="line2d_89">
      <g>
       <use style="stroke:#000000;stroke-width:0.5;" x="406.472670462" xlink:href="#m4c7c5dec4d" y="384.0"/>
      </g>
     </g>
     <g id="line2d_90">
      <g>
       <use style="stroke:#000000;stroke-width:0.5;" x="406.472670462" xlink:href="#ma721fd764f" y="7.67821782178"/>
      </g>
     </g>
    </g>
    <g id="xtick_26">
     <g id="line2d_91">
      <g>
       <use style="stroke:#000000;stroke-width:0.5;" x="414.93207833" xlink:href="#m4c7c5dec4d" y="384.0"/>
      </g>
     </g>
     <g id="line2d_92">
      <g>
       <use style="stroke:#000000;stroke-width:0.5;" x="414.93207833" xlink:href="#ma721fd764f" y="7.67821782178"/>
      </g>
     </g>
    </g>
    <g id="xtick_27">
     <g id="line2d_93">
      <g>
       <use style="stroke:#000000;stroke-width:0.5;" x="422.259950738" xlink:href="#m4c7c5dec4d" y="384.0"/>
      </g>
     </g>
     <g id="line2d_94">
      <g>
       <use style="stroke:#000000;stroke-width:0.5;" x="422.259950738" xlink:href="#ma721fd764f" y="7.67821782178"/>
      </g>
     </g>
    </g>
    <g id="xtick_28">
     <g id="line2d_95">
      <g>
       <use style="stroke:#000000;stroke-width:0.5;" x="428.723592284" xlink:href="#m4c7c5dec4d" y="384.0"/>
      </g>
     </g>
     <g id="line2d_96">
      <g>
       <use style="stroke:#000000;stroke-width:0.5;" x="428.723592284" xlink:href="#ma721fd764f" y="7.67821782178"/>
      </g>
     </g>
    </g>
    <g id="xtick_29">
     <g id="line2d_97">
      <g>
       <use style="stroke:#000000;stroke-width:0.5;" x="472.543718768" xlink:href="#m4c7c5dec4d" y="384.0"/>
      </g>
     </g>
     <g id="line2d_98">
      <g>
       <use style="stroke:#000000;stroke-width:0.5;" x="472.543718768" xlink:href="#ma721fd764f" y="7.67821782178"/>
      </g>
     </g>
    </g>
    <g id="xtick_30">
     <g id="line2d_99">
      <g>
       <use style="stroke:#000000;stroke-width:0.5;" x="494.79464059" xlink:href="#m4c7c5dec4d" y="384.0"/>
      </g>
     </g>
     <g id="line2d_100">
      <g>
       <use style="stroke:#000000;stroke-width:0.5;" x="494.79464059" xlink:href="#ma721fd764f" y="7.67821782178"/>
      </g>
     </g>
    </g>
    <g id="xtick_31">
     <g id="line2d_101">
      <g>
       <use style="stroke:#000000;stroke-width:0.5;" x="510.581920865" xlink:href="#m4c7c5dec4d" y="384.0"/>
      </g>
     </g>
     <g id="line2d_102">
      <g>
       <use style="stroke:#000000;stroke-width:0.5;" x="510.581920865" xlink:href="#ma721fd764f" y="7.67821782178"/>
      </g>
     </g>
    </g>
    <g id="xtick_32">
     <g id="line2d_103">
      <g>
       <use style="stroke:#000000;stroke-width:0.5;" x="522.827486799" xlink:href="#m4c7c5dec4d" y="384.0"/>
      </g>
     </g>
     <g id="line2d_104">
      <g>
       <use style="stroke:#000000;stroke-width:0.5;" x="522.827486799" xlink:href="#ma721fd764f" y="7.67821782178"/>
      </g>
     </g>
    </g>
    <g id="xtick_33">
     <g id="line2d_105">
      <g>
       <use style="stroke:#000000;stroke-width:0.5;" x="532.832842686" xlink:href="#m4c7c5dec4d" y="384.0"/>
      </g>
     </g>
     <g id="line2d_106">
      <g>
       <use style="stroke:#000000;stroke-width:0.5;" x="532.832842686" xlink:href="#ma721fd764f" y="7.67821782178"/>
      </g>
     </g>
    </g>
    <g id="xtick_34">
     <g id="line2d_107">
      <g>
       <use style="stroke:#000000;stroke-width:0.5;" x="541.292250554" xlink:href="#m4c7c5dec4d" y="384.0"/>
      </g>
     </g>
     <g id="line2d_108">
      <g>
       <use style="stroke:#000000;stroke-width:0.5;" x="541.292250554" xlink:href="#ma721fd764f" y="7.67821782178"/>
      </g>
     </g>
    </g>
    <g id="xtick_35">
     <g id="line2d_109">
      <g>
       <use style="stroke:#000000;stroke-width:0.5;" x="548.620122961" xlink:href="#m4c7c5dec4d" y="384.0"/>
      </g>
     </g>
     <g id="line2d_110">
      <g>
       <use style="stroke:#000000;stroke-width:0.5;" x="548.620122961" xlink:href="#ma721fd764f" y="7.67821782178"/>
      </g>
     </g>
    </g>
    <g id="xtick_36">
     <g id="line2d_111">
      <g>
       <use style="stroke:#000000;stroke-width:0.5;" x="555.083764508" xlink:href="#m4c7c5dec4d" y="384.0"/>
      </g>
     </g>
     <g id="line2d_112">
      <g>
       <use style="stroke:#000000;stroke-width:0.5;" x="555.083764508" xlink:href="#ma721fd764f" y="7.67821782178"/>
      </g>
     </g>
    </g>
    <g id="text_5">
     <!-- log10 of FEvals / DIM -->
     <defs>
      <path id="BitstreamVeraSans-Roman-20"/>
      <path d="M 31.78125 66.40625 
Q 24.171875 66.40625 20.328125 58.90625 
Q 16.5 51.421875 16.5 36.375 
Q 16.5 21.390625 20.328125 13.890625 
Q 24.171875 6.390625 31.78125 6.390625 
Q 39.453125 6.390625 43.28125 13.890625 
Q 47.125 21.390625 47.125 36.375 
Q 47.125 51.421875 43.28125 58.90625 
Q 39.453125 66.40625 31.78125 66.40625 
M 31.78125 74.21875 
Q 44.046875 74.21875 50.515625 64.515625 
Q 56.984375 54.828125 56.984375 36.375 
Q 56.984375 17.96875 50.515625 8.265625 
Q 44.046875 -1.421875 31.78125 -1.421875 
Q 19.53125 -1.421875 13.0625 8.265625 
Q 6.59375 17.96875 6.59375 36.375 
Q 6.59375 54.828125 13.0625 64.515625 
Q 19.53125 74.21875 31.78125 74.21875 
" id="BitstreamVeraSans-Roman-30"/>
      <path d="M 9.8125 72.90625 
L 24.515625 72.90625 
L 43.109375 23.296875 
L 61.8125 72.90625 
L 76.515625 72.90625 
L 76.515625 0 
L 66.890625 0 
L 66.890625 64.015625 
L 48.09375 14.015625 
L 38.1875 14.015625 
L 19.390625 64.015625 
L 19.390625 0 
L 9.8125 0 
z
" id="BitstreamVeraSans-Roman-4d"/>
      <path d="M 30.609375 48.390625 
Q 23.390625 48.390625 19.1875 42.75 
Q 14.984375 37.109375 14.984375 27.296875 
Q 14.984375 17.484375 19.15625 11.84375 
Q 23.34375 6.203125 30.609375 6.203125 
Q 37.796875 6.203125 41.984375 11.859375 
Q 46.1875 17.53125 46.1875 27.296875 
Q 46.1875 37.015625 41.984375 42.703125 
Q 37.796875 48.390625 30.609375 48.390625 
M 30.609375 56 
Q 42.328125 56 49.015625 48.375 
Q 55.71875 40.765625 55.71875 27.296875 
Q 55.71875 13.875 49.015625 6.21875 
Q 42.328125 -1.421875 30.609375 -1.421875 
Q 18.84375 -1.421875 12.171875 6.21875 
Q 5.515625 13.875 5.515625 27.296875 
Q 5.515625 40.765625 12.171875 48.375 
Q 18.84375 56 30.609375 56 
" id="BitstreamVeraSans-Roman-6f"/>
      <path d="M 9.421875 75.984375 
L 18.40625 75.984375 
L 18.40625 0 
L 9.421875 0 
z
" id="BitstreamVeraSans-Roman-6c"/>
      <path d="M 9.8125 72.90625 
L 51.703125 72.90625 
L 51.703125 64.59375 
L 19.671875 64.59375 
L 19.671875 43.109375 
L 48.578125 43.109375 
L 48.578125 34.8125 
L 19.671875 34.8125 
L 19.671875 0 
L 9.8125 0 
z
" id="BitstreamVeraSans-Roman-46"/>
      <path d="M 9.8125 72.90625 
L 55.90625 72.90625 
L 55.90625 64.59375 
L 19.671875 64.59375 
L 19.671875 43.015625 
L 54.390625 43.015625 
L 54.390625 34.71875 
L 19.671875 34.71875 
L 19.671875 8.296875 
L 56.78125 8.296875 
L 56.78125 0 
L 9.8125 0 
z
" id="BitstreamVeraSans-Roman-45"/>
      <path d="M 19.671875 64.796875 
L 19.671875 8.109375 
L 31.59375 8.109375 
Q 46.6875 8.109375 53.6875 14.9375 
Q 60.6875 21.78125 60.6875 36.53125 
Q 60.6875 51.171875 53.6875 57.984375 
Q 46.6875 64.796875 31.59375 64.796875 
z
M 9.8125 72.90625 
L 30.078125 72.90625 
Q 51.265625 72.90625 61.171875 64.09375 
Q 71.09375 55.28125 71.09375 36.53125 
Q 71.09375 17.671875 61.125 8.828125 
Q 51.171875 0 30.078125 0 
L 9.8125 0 
z
" id="BitstreamVeraSans-Roman-44"/>
      <path d="M 25.390625 72.90625 
L 33.6875 72.90625 
L 8.296875 -9.28125 
L 0 -9.28125 
z
" id="BitstreamVeraSans-Roman-2f"/>
      <path d="M 2.984375 54.6875 
L 12.5 54.6875 
L 29.59375 8.796875 
L 46.6875 54.6875 
L 56.203125 54.6875 
L 35.6875 0 
L 23.484375 0 
z
" id="BitstreamVeraSans-Roman-76"/>
      <path d="M 45.40625 27.984375 
Q 45.40625 37.75 41.375 43.109375 
Q 37.359375 48.484375 30.078125 48.484375 
Q 22.859375 48.484375 18.828125 43.109375 
Q 14.796875 37.75 14.796875 27.984375 
Q 14.796875 18.265625 18.828125 12.890625 
Q 22.859375 7.515625 30.078125 7.515625 
Q 37.359375 7.515625 41.375 12.890625 
Q 45.40625 18.265625 45.40625 27.984375 
M 54.390625 6.78125 
Q 54.390625 -7.171875 48.1875 -13.984375 
Q 42 -20.796875 29.203125 -20.796875 
Q 24.46875 -20.796875 20.265625 -20.09375 
Q 16.0625 -19.390625 12.109375 -17.921875 
L 12.109375 -9.1875 
Q 16.0625 -11.328125 19.921875 -12.34375 
Q 23.78125 -13.375 27.78125 -13.375 
Q 36.625 -13.375 41.015625 -8.765625 
Q 45.40625 -4.15625 45.40625 5.171875 
L 45.40625 9.625 
Q 42.625 4.78125 38.28125 2.390625 
Q 33.9375 0 27.875 0 
Q 17.828125 0 11.671875 7.65625 
Q 5.515625 15.328125 5.515625 27.984375 
Q 5.515625 40.671875 11.671875 48.328125 
Q 17.828125 56 27.875 56 
Q 33.9375 56 38.28125 53.609375 
Q 42.625 51.21875 45.40625 46.390625 
L 45.40625 54.6875 
L 54.390625 54.6875 
z
" id="BitstreamVeraSans-Roman-67"/>
      <path d="M 37.109375 75.984375 
L 37.109375 68.5 
L 28.515625 68.5 
Q 23.6875 68.5 21.796875 66.546875 
Q 19.921875 64.59375 19.921875 59.515625 
L 19.921875 54.6875 
L 34.71875 54.6875 
L 34.71875 47.703125 
L 19.921875 47.703125 
L 19.921875 0 
L 10.890625 0 
L 10.890625 47.703125 
L 2.296875 47.703125 
L 2.296875 54.6875 
L 10.890625 54.6875 
L 10.890625 58.5 
Q 10.890625 67.625 15.140625 71.796875 
Q 19.390625 75.984375 28.609375 75.984375 
z
" id="BitstreamVeraSans-Roman-66"/>
      <path d="M 34.28125 27.484375 
Q 23.390625 27.484375 19.1875 25 
Q 14.984375 22.515625 14.984375 16.5 
Q 14.984375 11.71875 18.140625 8.90625 
Q 21.296875 6.109375 26.703125 6.109375 
Q 34.1875 6.109375 38.703125 11.40625 
Q 43.21875 16.703125 43.21875 25.484375 
L 43.21875 27.484375 
z
M 52.203125 31.203125 
L 52.203125 0 
L 43.21875 0 
L 43.21875 8.296875 
Q 40.140625 3.328125 35.546875 0.953125 
Q 30.953125 -1.421875 24.3125 -1.421875 
Q 15.921875 -1.421875 10.953125 3.296875 
Q 6 8.015625 6 15.921875 
Q 6 25.140625 12.171875 29.828125 
Q 18.359375 34.515625 30.609375 34.515625 
L 43.21875 34.515625 
L 43.21875 35.40625 
Q 43.21875 41.609375 39.140625 45 
Q 35.0625 48.390625 27.6875 48.390625 
Q 23 48.390625 18.546875 47.265625 
Q 14.109375 46.140625 10.015625 43.890625 
L 10.015625 52.203125 
Q 14.9375 54.109375 19.578125 55.046875 
Q 24.21875 56 28.609375 56 
Q 40.484375 56 46.34375 49.84375 
Q 52.203125 43.703125 52.203125 31.203125 
" id="BitstreamVeraSans-Roman-61"/>
      <path d="M 44.28125 53.078125 
L 44.28125 44.578125 
Q 40.484375 46.53125 36.375 47.5 
Q 32.28125 48.484375 27.875 48.484375 
Q 21.1875 48.484375 17.84375 46.4375 
Q 14.5 44.390625 14.5 40.28125 
Q 14.5 37.15625 16.890625 35.375 
Q 19.28125 33.59375 26.515625 31.984375 
L 29.59375 31.296875 
Q 39.15625 29.25 43.1875 25.515625 
Q 47.21875 21.78125 47.21875 15.09375 
Q 47.21875 7.46875 41.1875 3.015625 
Q 35.15625 -1.421875 24.609375 -1.421875 
Q 20.21875 -1.421875 15.453125 -0.5625 
Q 10.6875 0.296875 5.421875 2 
L 5.421875 11.28125 
Q 10.40625 8.6875 15.234375 7.390625 
Q 20.0625 6.109375 24.8125 6.109375 
Q 31.15625 6.109375 34.5625 8.28125 
Q 37.984375 10.453125 37.984375 14.40625 
Q 37.984375 18.0625 35.515625 20.015625 
Q 33.0625 21.96875 24.703125 23.78125 
L 21.578125 24.515625 
Q 13.234375 26.265625 9.515625 29.90625 
Q 5.8125 33.546875 5.8125 39.890625 
Q 5.8125 47.609375 11.28125 51.796875 
Q 16.75 56 26.8125 56 
Q 31.78125 56 36.171875 55.265625 
Q 40.578125 54.546875 44.28125 53.078125 
" id="BitstreamVeraSans-Roman-73"/>
      <path d="M 9.8125 72.90625 
L 19.671875 72.90625 
L 19.671875 0 
L 9.8125 0 
z
" id="BitstreamVeraSans-Roman-49"/>
     </defs>
     <g transform="translate(203.149038553 427.553125)scale(0.2 -0.2)">
      <use xlink:href="#BitstreamVeraSans-Roman-6c"/>
      <use x="27.783203125" xlink:href="#BitstreamVeraSans-Roman-6f"/>
      <use x="88.96484375" xlink:href="#BitstreamVeraSans-Roman-67"/>
      <use x="152.44140625" xlink:href="#BitstreamVeraSans-Roman-31"/>
      <use x="216.064453125" xlink:href="#BitstreamVeraSans-Roman-30"/>
      <use x="279.6875" xlink:href="#BitstreamVeraSans-Roman-20"/>
      <use x="311.474609375" xlink:href="#BitstreamVeraSans-Roman-6f"/>
      <use x="372.65625" xlink:href="#BitstreamVeraSans-Roman-66"/>
      <use x="407.861328125" xlink:href="#BitstreamVeraSans-Roman-20"/>
      <use x="439.6484375" xlink:href="#BitstreamVeraSans-Roman-46"/>
      <use x="497.16796875" xlink:href="#BitstreamVeraSans-Roman-45"/>
      <use x="560.3515625" xlink:href="#BitstreamVeraSans-Roman-76"/>
      <use x="619.53125" xlink:href="#BitstreamVeraSans-Roman-61"/>
      <use x="680.810546875" xlink:href="#BitstreamVeraSans-Roman-6c"/>
      <use x="708.59375" xlink:href="#BitstreamVeraSans-Roman-73"/>
      <use x="760.693359375" xlink:href="#BitstreamVeraSans-Roman-20"/>
      <use x="792.48046875" xlink:href="#BitstreamVeraSans-Roman-2f"/>
      <use x="826.171875" xlink:href="#BitstreamVeraSans-Roman-20"/>
      <use x="857.958984375" xlink:href="#BitstreamVeraSans-Roman-44"/>
      <use x="934.9609375" xlink:href="#BitstreamVeraSans-Roman-49"/>
      <use x="964.453125" xlink:href="#BitstreamVeraSans-Roman-4d"/>
     </g>
    </g>
   </g>
   <g id="matplotlib.axis_2">
    <g id="ytick_1">
     <g id="line2d_113">
      <path clip-path="url(#p47f56e33ef)" d="M 55.425 384 
L 561.019952 384 
" style="fill:none;stroke:#000000;stroke-dasharray:1.000000,3.000000;stroke-dashoffset:0.0;stroke-width:0.5;"/>
     </g>
     <g id="line2d_114">
      <defs>
       <path d="M 0 0 
L 4 0 
" id="m6d5c4e8916" style="stroke:#000000;stroke-width:0.5;"/>
      </defs>
      <g>
       <use style="stroke:#000000;stroke-width:0.5;" x="55.425" xlink:href="#m6d5c4e8916" y="384.0"/>
      </g>
     </g>
     <g id="line2d_115">
      <defs>
       <path d="M 0 0 
L -4 0 
" id="mbb491fd4d6" style="stroke:#000000;stroke-width:0.5;"/>
      </defs>
      <g>
       <use style="stroke:#000000;stroke-width:0.5;" x="561.019952106" xlink:href="#mbb491fd4d6" y="384.0"/>
      </g>
     </g>
     <g id="text_6">
      <!-- 0.0 -->
      <defs>
       <path d="M 10.6875 12.40625 
L 21 12.40625 
L 21 0 
L 10.6875 0 
z
" id="BitstreamVeraSans-Roman-2e"/>
      </defs>
      <g transform="translate(25.98 388.415)scale(0.16 -0.16)">
       <use xlink:href="#BitstreamVeraSans-Roman-30"/>
       <use x="63.623046875" xlink:href="#BitstreamVeraSans-Roman-2e"/>
       <use x="95.41015625" xlink:href="#BitstreamVeraSans-Roman-30"/>
      </g>
     </g>
    </g>
    <g id="ytick_2">
     <g id="line2d_116">
      <path clip-path="url(#p47f56e33ef)" d="M 55.425 309.480835 
L 561.019952 309.480835 
" style="fill:none;stroke:#000000;stroke-dasharray:1.000000,3.000000;stroke-dashoffset:0.0;stroke-width:0.5;"/>
     </g>
     <g id="line2d_117">
      <g>
       <use style="stroke:#000000;stroke-width:0.5;" x="55.425" xlink:href="#m6d5c4e8916" y="309.480835212"/>
      </g>
     </g>
     <g id="line2d_118">
      <g>
       <use style="stroke:#000000;stroke-width:0.5;" x="561.019952106" xlink:href="#mbb491fd4d6" y="309.480835212"/>
      </g>
     </g>
     <g id="text_7">
      <!-- 0.2 -->
      <g transform="translate(25.98 313.895835212)scale(0.16 -0.16)">
       <use xlink:href="#BitstreamVeraSans-Roman-30"/>
       <use x="63.623046875" xlink:href="#BitstreamVeraSans-Roman-2e"/>
       <use x="95.41015625" xlink:href="#BitstreamVeraSans-Roman-32"/>
      </g>
     </g>
    </g>
    <g id="ytick_3">
     <g id="line2d_119">
      <path clip-path="url(#p47f56e33ef)" d="M 55.425 234.96167 
L 561.019952 234.96167 
" style="fill:none;stroke:#000000;stroke-dasharray:1.000000,3.000000;stroke-dashoffset:0.0;stroke-width:0.5;"/>
     </g>
     <g id="line2d_120">
      <g>
       <use style="stroke:#000000;stroke-width:0.5;" x="55.425" xlink:href="#m6d5c4e8916" y="234.961670424"/>
      </g>
     </g>
     <g id="line2d_121">
      <g>
       <use style="stroke:#000000;stroke-width:0.5;" x="561.019952106" xlink:href="#mbb491fd4d6" y="234.961670424"/>
      </g>
     </g>
     <g id="text_8">
      <!-- 0.4 -->
      <g transform="translate(25.98 239.376670424)scale(0.16 -0.16)">
       <use xlink:href="#BitstreamVeraSans-Roman-30"/>
       <use x="63.623046875" xlink:href="#BitstreamVeraSans-Roman-2e"/>
       <use x="95.41015625" xlink:href="#BitstreamVeraSans-Roman-34"/>
      </g>
     </g>
    </g>
    <g id="ytick_4">
     <g id="line2d_122">
      <path clip-path="url(#p47f56e33ef)" d="M 55.425 160.442506 
L 561.019952 160.442506 
" style="fill:none;stroke:#000000;stroke-dasharray:1.000000,3.000000;stroke-dashoffset:0.0;stroke-width:0.5;"/>
     </g>
     <g id="line2d_123">
      <g>
       <use style="stroke:#000000;stroke-width:0.5;" x="55.425" xlink:href="#m6d5c4e8916" y="160.442505637"/>
      </g>
     </g>
     <g id="line2d_124">
      <g>
       <use style="stroke:#000000;stroke-width:0.5;" x="561.019952106" xlink:href="#mbb491fd4d6" y="160.442505637"/>
      </g>
     </g>
     <g id="text_9">
      <!-- 0.6 -->
      <defs>
       <path d="M 33.015625 40.375 
Q 26.375 40.375 22.484375 35.828125 
Q 18.609375 31.296875 18.609375 23.390625 
Q 18.609375 15.53125 22.484375 10.953125 
Q 26.375 6.390625 33.015625 6.390625 
Q 39.65625 6.390625 43.53125 10.953125 
Q 47.40625 15.53125 47.40625 23.390625 
Q 47.40625 31.296875 43.53125 35.828125 
Q 39.65625 40.375 33.015625 40.375 
M 52.59375 71.296875 
L 52.59375 62.3125 
Q 48.875 64.0625 45.09375 64.984375 
Q 41.3125 65.921875 37.59375 65.921875 
Q 27.828125 65.921875 22.671875 59.328125 
Q 17.53125 52.734375 16.796875 39.40625 
Q 19.671875 43.65625 24.015625 45.921875 
Q 28.375 48.1875 33.59375 48.1875 
Q 44.578125 48.1875 50.953125 41.515625 
Q 57.328125 34.859375 57.328125 23.390625 
Q 57.328125 12.15625 50.6875 5.359375 
Q 44.046875 -1.421875 33.015625 -1.421875 
Q 20.359375 -1.421875 13.671875 8.265625 
Q 6.984375 17.96875 6.984375 36.375 
Q 6.984375 53.65625 15.1875 63.9375 
Q 23.390625 74.21875 37.203125 74.21875 
Q 40.921875 74.21875 44.703125 73.484375 
Q 48.484375 72.75 52.59375 71.296875 
" id="BitstreamVeraSans-Roman-36"/>
      </defs>
      <g transform="translate(25.98 164.857505637)scale(0.16 -0.16)">
       <use xlink:href="#BitstreamVeraSans-Roman-30"/>
       <use x="63.623046875" xlink:href="#BitstreamVeraSans-Roman-2e"/>
       <use x="95.41015625" xlink:href="#BitstreamVeraSans-Roman-36"/>
      </g>
     </g>
    </g>
    <g id="ytick_5">
     <g id="line2d_125">
      <path clip-path="url(#p47f56e33ef)" d="M 55.425 85.923341 
L 561.019952 85.923341 
" style="fill:none;stroke:#000000;stroke-dasharray:1.000000,3.000000;stroke-dashoffset:0.0;stroke-width:0.5;"/>
     </g>
     <g id="line2d_126">
      <g>
       <use style="stroke:#000000;stroke-width:0.5;" x="55.425" xlink:href="#m6d5c4e8916" y="85.9233408489"/>
      </g>
     </g>
     <g id="line2d_127">
      <g>
       <use style="stroke:#000000;stroke-width:0.5;" x="561.019952106" xlink:href="#mbb491fd4d6" y="85.9233408489"/>
      </g>
     </g>
     <g id="text_10">
      <!-- 0.8 -->
      <defs>
       <path d="M 31.78125 34.625 
Q 24.75 34.625 20.71875 30.859375 
Q 16.703125 27.09375 16.703125 20.515625 
Q 16.703125 13.921875 20.71875 10.15625 
Q 24.75 6.390625 31.78125 6.390625 
Q 38.8125 6.390625 42.859375 10.171875 
Q 46.921875 13.96875 46.921875 20.515625 
Q 46.921875 27.09375 42.890625 30.859375 
Q 38.875 34.625 31.78125 34.625 
M 21.921875 38.8125 
Q 15.578125 40.375 12.03125 44.71875 
Q 8.5 49.078125 8.5 55.328125 
Q 8.5 64.0625 14.71875 69.140625 
Q 20.953125 74.21875 31.78125 74.21875 
Q 42.671875 74.21875 48.875 69.140625 
Q 55.078125 64.0625 55.078125 55.328125 
Q 55.078125 49.078125 51.53125 44.71875 
Q 48 40.375 41.703125 38.8125 
Q 48.828125 37.15625 52.796875 32.3125 
Q 56.78125 27.484375 56.78125 20.515625 
Q 56.78125 9.90625 50.3125 4.234375 
Q 43.84375 -1.421875 31.78125 -1.421875 
Q 19.734375 -1.421875 13.25 4.234375 
Q 6.78125 9.90625 6.78125 20.515625 
Q 6.78125 27.484375 10.78125 32.3125 
Q 14.796875 37.15625 21.921875 38.8125 
M 18.3125 54.390625 
Q 18.3125 48.734375 21.84375 45.5625 
Q 25.390625 42.390625 31.78125 42.390625 
Q 38.140625 42.390625 41.71875 45.5625 
Q 45.3125 48.734375 45.3125 54.390625 
Q 45.3125 60.0625 41.71875 63.234375 
Q 38.140625 66.40625 31.78125 66.40625 
Q 25.390625 66.40625 21.84375 63.234375 
Q 18.3125 60.0625 18.3125 54.390625 
" id="BitstreamVeraSans-Roman-38"/>
      </defs>
      <g transform="translate(25.98 90.3383408489)scale(0.16 -0.16)">
       <use xlink:href="#BitstreamVeraSans-Roman-30"/>
       <use x="63.623046875" xlink:href="#BitstreamVeraSans-Roman-2e"/>
       <use x="95.41015625" xlink:href="#BitstreamVeraSans-Roman-38"/>
      </g>
     </g>
    </g>
    <g id="ytick_6">
     <g id="line2d_128">
      <path clip-path="url(#p47f56e33ef)" d="M 55.425 11.404176 
L 561.019952 11.404176 
" style="fill:none;stroke:#000000;stroke-dasharray:1.000000,3.000000;stroke-dashoffset:0.0;stroke-width:0.5;"/>
     </g>
     <g id="line2d_129">
      <g>
       <use style="stroke:#000000;stroke-width:0.5;" x="55.425" xlink:href="#m6d5c4e8916" y="11.4041760612"/>
      </g>
     </g>
     <g id="line2d_130">
      <g>
       <use style="stroke:#000000;stroke-width:0.5;" x="561.019952106" xlink:href="#mbb491fd4d6" y="11.4041760612"/>
      </g>
     </g>
     <g id="text_11">
      <!-- 1.0 -->
      <g transform="translate(25.98 15.8191760612)scale(0.16 -0.16)">
       <use xlink:href="#BitstreamVeraSans-Roman-31"/>
       <use x="63.623046875" xlink:href="#BitstreamVeraSans-Roman-2e"/>
       <use x="95.41015625" xlink:href="#BitstreamVeraSans-Roman-30"/>
      </g>
     </g>
    </g>
    <g id="text_12">
     <!-- proportion of trials -->
     <defs>
      <path d="M 54.890625 33.015625 
L 54.890625 0 
L 45.90625 0 
L 45.90625 32.71875 
Q 45.90625 40.484375 42.875 44.328125 
Q 39.84375 48.1875 33.796875 48.1875 
Q 26.515625 48.1875 22.3125 43.546875 
Q 18.109375 38.921875 18.109375 30.90625 
L 18.109375 0 
L 9.078125 0 
L 9.078125 54.6875 
L 18.109375 54.6875 
L 18.109375 46.1875 
Q 21.34375 51.125 25.703125 53.5625 
Q 30.078125 56 35.796875 56 
Q 45.21875 56 50.046875 50.171875 
Q 54.890625 44.34375 54.890625 33.015625 
" id="BitstreamVeraSans-Roman-6e"/>
      <path d="M 9.421875 54.6875 
L 18.40625 54.6875 
L 18.40625 0 
L 9.421875 0 
z
M 9.421875 75.984375 
L 18.40625 75.984375 
L 18.40625 64.59375 
L 9.421875 64.59375 
z
" id="BitstreamVeraSans-Roman-69"/>
      <path d="M 18.3125 70.21875 
L 18.3125 54.6875 
L 36.8125 54.6875 
L 36.8125 47.703125 
L 18.3125 47.703125 
L 18.3125 18.015625 
Q 18.3125 11.328125 20.140625 9.421875 
Q 21.96875 7.515625 27.59375 7.515625 
L 36.8125 7.515625 
L 36.8125 0 
L 27.59375 0 
Q 17.1875 0 13.234375 3.875 
Q 9.28125 7.765625 9.28125 18.015625 
L 9.28125 47.703125 
L 2.6875 47.703125 
L 2.6875 54.6875 
L 9.28125 54.6875 
L 9.28125 70.21875 
z
" id="BitstreamVeraSans-Roman-74"/>
      <path d="M 41.109375 46.296875 
Q 39.59375 47.171875 37.8125 47.578125 
Q 36.03125 48 33.890625 48 
Q 26.265625 48 22.1875 43.046875 
Q 18.109375 38.09375 18.109375 28.8125 
L 18.109375 0 
L 9.078125 0 
L 9.078125 54.6875 
L 18.109375 54.6875 
L 18.109375 46.1875 
Q 20.953125 51.171875 25.484375 53.578125 
Q 30.03125 56 36.53125 56 
Q 37.453125 56 38.578125 55.875 
Q 39.703125 55.765625 41.0625 55.515625 
z
" id="BitstreamVeraSans-Roman-72"/>
      <path d="M 18.109375 8.203125 
L 18.109375 -20.796875 
L 9.078125 -20.796875 
L 9.078125 54.6875 
L 18.109375 54.6875 
L 18.109375 46.390625 
Q 20.953125 51.265625 25.265625 53.625 
Q 29.59375 56 35.59375 56 
Q 45.5625 56 51.78125 48.09375 
Q 58.015625 40.1875 58.015625 27.296875 
Q 58.015625 14.40625 51.78125 6.484375 
Q 45.5625 -1.421875 35.59375 -1.421875 
Q 29.59375 -1.421875 25.265625 0.953125 
Q 20.953125 3.328125 18.109375 8.203125 
M 48.6875 27.296875 
Q 48.6875 37.203125 44.609375 42.84375 
Q 40.53125 48.484375 33.40625 48.484375 
Q 26.265625 48.484375 22.1875 42.84375 
Q 18.109375 37.203125 18.109375 27.296875 
Q 18.109375 17.390625 22.1875 11.75 
Q 26.265625 6.109375 33.40625 6.109375 
Q 40.53125 6.109375 44.609375 11.75 
Q 48.6875 17.390625 48.6875 27.296875 
" id="BitstreamVeraSans-Roman-70"/>
     </defs>
     <g transform="translate(16.820625 289.067233911)rotate(-90.0)scale(0.2 -0.2)">
      <use xlink:href="#BitstreamVeraSans-Roman-70"/>
      <use x="63.4765625" xlink:href="#BitstreamVeraSans-Roman-72"/>
      <use x="104.55859375" xlink:href="#BitstreamVeraSans-Roman-6f"/>
      <use x="165.740234375" xlink:href="#BitstreamVeraSans-Roman-70"/>
      <use x="229.216796875" xlink:href="#BitstreamVeraSans-Roman-6f"/>
      <use x="290.3984375" xlink:href="#BitstreamVeraSans-Roman-72"/>
      <use x="331.51171875" xlink:href="#BitstreamVeraSans-Roman-74"/>
      <use x="370.720703125" xlink:href="#BitstreamVeraSans-Roman-69"/>
      <use x="398.50390625" xlink:href="#BitstreamVeraSans-Roman-6f"/>
      <use x="459.685546875" xlink:href="#BitstreamVeraSans-Roman-6e"/>
      <use x="523.064453125" xlink:href="#BitstreamVeraSans-Roman-20"/>
      <use x="554.8515625" xlink:href="#BitstreamVeraSans-Roman-6f"/>
      <use x="616.033203125" xlink:href="#BitstreamVeraSans-Roman-66"/>
      <use x="651.23828125" xlink:href="#BitstreamVeraSans-Roman-20"/>
      <use x="683.025390625" xlink:href="#BitstreamVeraSans-Roman-74"/>
      <use x="722.234375" xlink:href="#BitstreamVeraSans-Roman-72"/>
      <use x="763.34765625" xlink:href="#BitstreamVeraSans-Roman-69"/>
      <use x="791.130859375" xlink:href="#BitstreamVeraSans-Roman-61"/>
      <use x="852.41015625" xlink:href="#BitstreamVeraSans-Roman-6c"/>
      <use x="880.193359375" xlink:href="#BitstreamVeraSans-Roman-73"/>
     </g>
    </g>
   </g>
   <g id="text_13">
    <!-- {f10-f14}, 20-D -->
    <defs>
     <path d="M 11.71875 12.40625 
L 22.015625 12.40625 
L 22.015625 4 
L 14.015625 -11.625 
L 7.71875 -11.625 
L 11.71875 4 
z
" id="BitstreamVeraSans-Roman-2c"/>
     <path d="M 12.5 -9.28125 
L 15.921875 -9.28125 
Q 22.75 -9.28125 24.828125 -7.171875 
Q 26.90625 -5.078125 26.90625 1.90625 
L 26.90625 14.015625 
Q 26.90625 21.625 29.09375 25.09375 
Q 31.296875 28.5625 36.71875 29.890625 
Q 31.296875 31.109375 29.09375 34.5625 
Q 26.90625 38.03125 26.90625 45.703125 
L 26.90625 57.8125 
Q 26.90625 64.75 24.828125 66.875 
Q 22.75 69 15.921875 69 
L 12.5 69 
L 12.5 75.984375 
L 15.578125 75.984375 
Q 27.734375 75.984375 31.8125 72.390625 
Q 35.890625 68.796875 35.890625 58.015625 
L 35.890625 46.296875 
Q 35.890625 39.015625 38.515625 36.203125 
Q 41.15625 33.40625 48.09375 33.40625 
L 51.125 33.40625 
L 51.125 26.421875 
L 48.09375 26.421875 
Q 41.15625 26.421875 38.515625 23.578125 
Q 35.890625 20.75 35.890625 13.375 
L 35.890625 1.703125 
Q 35.890625 -9.078125 31.8125 -12.6875 
Q 27.734375 -16.3125 15.578125 -16.3125 
L 12.5 -16.3125 
z
" id="BitstreamVeraSans-Roman-7d"/>
     <path d="M 51.125 -9.28125 
L 51.125 -16.3125 
L 48.09375 -16.3125 
Q 35.9375 -16.3125 31.8125 -12.6875 
Q 27.6875 -9.078125 27.6875 1.703125 
L 27.6875 13.375 
Q 27.6875 20.75 25.046875 23.578125 
Q 22.40625 26.421875 15.484375 26.421875 
L 12.5 26.421875 
L 12.5 33.40625 
L 15.484375 33.40625 
Q 22.46875 33.40625 25.078125 36.203125 
Q 27.6875 39.015625 27.6875 46.296875 
L 27.6875 58.015625 
Q 27.6875 68.796875 31.8125 72.390625 
Q 35.9375 75.984375 48.09375 75.984375 
L 51.125 75.984375 
L 51.125 69 
L 47.796875 69 
Q 40.921875 69 38.8125 66.84375 
Q 36.71875 64.703125 36.71875 57.8125 
L 36.71875 45.703125 
Q 36.71875 38.03125 34.5 34.5625 
Q 32.28125 31.109375 26.90625 29.890625 
Q 32.328125 28.5625 34.515625 25.09375 
Q 36.71875 21.625 36.71875 14.015625 
L 36.71875 1.90625 
Q 36.71875 -4.984375 38.8125 -7.125 
Q 40.921875 -9.28125 47.796875 -9.28125 
z
" id="BitstreamVeraSans-Roman-7b"/>
     <path d="M 4.890625 31.390625 
L 31.203125 31.390625 
L 31.203125 23.390625 
L 4.890625 23.390625 
z
" id="BitstreamVeraSans-Roman-2d"/>
    </defs>
    <g transform="translate(229.009976053 30.4015284653)scale(0.2 -0.2)">
     <use xlink:href="#BitstreamVeraSans-Roman-7b"/>
     <use x="63.623046875" xlink:href="#BitstreamVeraSans-Roman-66"/>
     <use x="98.828125" xlink:href="#BitstreamVeraSans-Roman-31"/>
     <use x="162.451171875" xlink:href="#BitstreamVeraSans-Roman-30"/>
     <use x="226.07421875" xlink:href="#BitstreamVeraSans-Roman-2d"/>
     <use x="262.158203125" xlink:href="#BitstreamVeraSans-Roman-66"/>
     <use x="297.36328125" xlink:href="#BitstreamVeraSans-Roman-31"/>
     <use x="360.986328125" xlink:href="#BitstreamVeraSans-Roman-34"/>
     <use x="424.609375" xlink:href="#BitstreamVeraSans-Roman-7d"/>
     <use x="488.232421875" xlink:href="#BitstreamVeraSans-Roman-2c"/>
     <use x="520.01953125" xlink:href="#BitstreamVeraSans-Roman-20"/>
     <use x="551.806640625" xlink:href="#BitstreamVeraSans-Roman-32"/>
     <use x="615.4296875" xlink:href="#BitstreamVeraSans-Roman-30"/>
     <use x="679.052734375" xlink:href="#BitstreamVeraSans-Roman-2d"/>
     <use x="715.13671875" xlink:href="#BitstreamVeraSans-Roman-44"/>
    </g>
   </g>
   <g id="text_14">
    <!-- absolute targets -->
    <defs>
     <path d="M 56.203125 29.59375 
L 56.203125 25.203125 
L 14.890625 25.203125 
Q 15.484375 15.921875 20.484375 11.0625 
Q 25.484375 6.203125 34.421875 6.203125 
Q 39.59375 6.203125 44.453125 7.46875 
Q 49.3125 8.734375 54.109375 11.28125 
L 54.109375 2.78125 
Q 49.265625 0.734375 44.1875 -0.34375 
Q 39.109375 -1.421875 33.890625 -1.421875 
Q 20.796875 -1.421875 13.15625 6.1875 
Q 5.515625 13.8125 5.515625 26.8125 
Q 5.515625 40.234375 12.765625 48.109375 
Q 20.015625 56 32.328125 56 
Q 43.359375 56 49.78125 48.890625 
Q 56.203125 41.796875 56.203125 29.59375 
M 47.21875 32.234375 
Q 47.125 39.59375 43.09375 43.984375 
Q 39.0625 48.390625 32.421875 48.390625 
Q 24.90625 48.390625 20.390625 44.140625 
Q 15.875 39.890625 15.1875 32.171875 
z
" id="BitstreamVeraSans-Roman-65"/>
     <path d="M 8.5 21.578125 
L 8.5 54.6875 
L 17.484375 54.6875 
L 17.484375 21.921875 
Q 17.484375 14.15625 20.5 10.265625 
Q 23.53125 6.390625 29.59375 6.390625 
Q 36.859375 6.390625 41.078125 11.03125 
Q 45.3125 15.671875 45.3125 23.6875 
L 45.3125 54.6875 
L 54.296875 54.6875 
L 54.296875 0 
L 45.3125 0 
L 45.3125 8.40625 
Q 42.046875 3.421875 37.71875 1 
Q 33.40625 -1.421875 27.6875 -1.421875 
Q 18.265625 -1.421875 13.375 4.4375 
Q 8.5 10.296875 8.5 21.578125 
" id="BitstreamVeraSans-Roman-75"/>
     <path d="M 48.6875 27.296875 
Q 48.6875 37.203125 44.609375 42.84375 
Q 40.53125 48.484375 33.40625 48.484375 
Q 26.265625 48.484375 22.1875 42.84375 
Q 18.109375 37.203125 18.109375 27.296875 
Q 18.109375 17.390625 22.1875 11.75 
Q 26.265625 6.109375 33.40625 6.109375 
Q 40.53125 6.109375 44.609375 11.75 
Q 48.6875 17.390625 48.6875 27.296875 
M 18.109375 46.390625 
Q 20.953125 51.265625 25.265625 53.625 
Q 29.59375 56 35.59375 56 
Q 45.5625 56 51.78125 48.09375 
Q 58.015625 40.1875 58.015625 27.296875 
Q 58.015625 14.40625 51.78125 6.484375 
Q 45.5625 -1.421875 35.59375 -1.421875 
Q 29.59375 -1.421875 25.265625 0.953125 
Q 20.953125 3.328125 18.109375 8.203125 
L 18.109375 0 
L 9.078125 0 
L 9.078125 75.984375 
L 18.109375 75.984375 
z
" id="BitstreamVeraSans-Roman-62"/>
    </defs>
    <g transform="translate(55.425 756.595823939)scale(0.14 -0.14)">
     <use xlink:href="#BitstreamVeraSans-Roman-61"/>
     <use x="61.279296875" xlink:href="#BitstreamVeraSans-Roman-62"/>
     <use x="124.755859375" xlink:href="#BitstreamVeraSans-Roman-73"/>
     <use x="176.85546875" xlink:href="#BitstreamVeraSans-Roman-6f"/>
     <use x="238.037109375" xlink:href="#BitstreamVeraSans-Roman-6c"/>
     <use x="265.8203125" xlink:href="#BitstreamVeraSans-Roman-75"/>
     <use x="329.19921875" xlink:href="#BitstreamVeraSans-Roman-74"/>
     <use x="368.408203125" xlink:href="#BitstreamVeraSans-Roman-65"/>
     <use x="429.931640625" xlink:href="#BitstreamVeraSans-Roman-20"/>
     <use x="461.71875" xlink:href="#BitstreamVeraSans-Roman-74"/>
     <use x="500.927734375" xlink:href="#BitstreamVeraSans-Roman-61"/>
     <use x="562.20703125" xlink:href="#BitstreamVeraSans-Roman-72"/>
     <use x="603.3046875" xlink:href="#BitstreamVeraSans-Roman-67"/>
     <use x="666.78125" xlink:href="#BitstreamVeraSans-Roman-65"/>
     <use x="728.3046875" xlink:href="#BitstreamVeraSans-Roman-74"/>
     <use x="767.513671875" xlink:href="#BitstreamVeraSans-Roman-73"/>
    </g>
   </g>
   <g id="text_15">
    <!-- v2.2.1.10 -->
    <g style="fill:#808080;" transform="translate(284.589663553 378.157094678)scale(0.1 -0.1)">
     <use xlink:href="#BitstreamVeraSans-Roman-76"/>
     <use x="59.1796875" xlink:href="#BitstreamVeraSans-Roman-32"/>
     <use x="122.802734375" xlink:href="#BitstreamVeraSans-Roman-2e"/>
     <use x="154.58984375" xlink:href="#BitstreamVeraSans-Roman-32"/>
     <use x="218.212890625" xlink:href="#BitstreamVeraSans-Roman-2e"/>
     <use x="250.0" xlink:href="#BitstreamVeraSans-Roman-31"/>
     <use x="313.623046875" xlink:href="#BitstreamVeraSans-Roman-2e"/>
     <use x="345.41015625" xlink:href="#BitstreamVeraSans-Roman-31"/>
     <use x="409.033203125" xlink:href="#BitstreamVeraSans-Roman-30"/>
    </g>
   </g>
   <g id="legend_1">
    <g id="patch_7">
     <path d="M 65.425 141.103218 
L 202.646875 141.103218 
L 202.646875 17.678218 
L 65.425 17.678218 
z
" style="fill:#ffffff;opacity:0.2;stroke:#000000;stroke-linejoin:miter;"/>
    </g>
    <g id="line2d_131">
     <path d="M 79.425 33.875093 
L 107.425 33.875093 
" style="fill:none;stroke:#000000;stroke-linecap:square;"/>
    </g>
    <g id="line2d_132"/>
    <g id="text_16">
     <!-- 1: 1/5 -->
     <defs>
      <path d="M 11.71875 12.40625 
L 22.015625 12.40625 
L 22.015625 0 
L 11.71875 0 
z
M 11.71875 51.703125 
L 22.015625 51.703125 
L 22.015625 39.3125 
L 11.71875 39.3125 
z
" id="BitstreamVeraSans-Roman-3a"/>
      <path d="M 10.796875 72.90625 
L 49.515625 72.90625 
L 49.515625 64.59375 
L 19.828125 64.59375 
L 19.828125 46.734375 
Q 21.96875 47.46875 24.109375 47.828125 
Q 26.265625 48.1875 28.421875 48.1875 
Q 40.625 48.1875 47.75 41.5 
Q 54.890625 34.8125 54.890625 23.390625 
Q 54.890625 11.625 47.5625 5.09375 
Q 40.234375 -1.421875 26.90625 -1.421875 
Q 22.3125 -1.421875 17.546875 -0.640625 
Q 12.796875 0.140625 7.71875 1.703125 
L 7.71875 11.625 
Q 12.109375 9.234375 16.796875 8.0625 
Q 21.484375 6.890625 26.703125 6.890625 
Q 35.15625 6.890625 40.078125 11.328125 
Q 45.015625 15.765625 45.015625 23.390625 
Q 45.015625 31 40.078125 35.4375 
Q 35.15625 39.890625 26.703125 39.890625 
Q 22.75 39.890625 18.8125 39.015625 
Q 14.890625 38.140625 10.796875 36.28125 
z
" id="BitstreamVeraSans-Roman-35"/>
     </defs>
     <g transform="translate(129.425 40.8750928218)scale(0.2 -0.2)">
      <use xlink:href="#BitstreamVeraSans-Roman-31"/>
      <use x="63.623046875" xlink:href="#BitstreamVeraSans-Roman-3a"/>
      <use x="97.314453125" xlink:href="#BitstreamVeraSans-Roman-20"/>
      <use x="129.1015625" xlink:href="#BitstreamVeraSans-Roman-31"/>
      <use x="192.724609375" xlink:href="#BitstreamVeraSans-Roman-2f"/>
      <use x="226.416015625" xlink:href="#BitstreamVeraSans-Roman-35"/>
     </g>
    </g>
    <g id="line2d_133">
     <path d="M 79.425 63.231343 
L 107.425 63.231343 
" style="fill:none;stroke:#00bfbf;stroke-linecap:square;"/>
    </g>
    <g id="line2d_134"/>
    <g id="text_17">
     <!-- -1: 0/5 -->
     <g transform="translate(129.425 70.2313428218)scale(0.2 -0.2)">
      <use xlink:href="#BitstreamVeraSans-Roman-2d"/>
      <use x="36.083984375" xlink:href="#BitstreamVeraSans-Roman-31"/>
      <use x="99.70703125" xlink:href="#BitstreamVeraSans-Roman-3a"/>
      <use x="133.3984375" xlink:href="#BitstreamVeraSans-Roman-20"/>
      <use x="165.185546875" xlink:href="#BitstreamVeraSans-Roman-30"/>
      <use x="228.80859375" xlink:href="#BitstreamVeraSans-Roman-2f"/>
      <use x="262.5" xlink:href="#BitstreamVeraSans-Roman-35"/>
     </g>
    </g>
    <g id="line2d_135">
     <path d="M 79.425 92.587593 
L 107.425 92.587593 
" style="fill:none;stroke:#bf00bf;stroke-linecap:square;"/>
    </g>
    <g id="line2d_136"/>
    <g id="text_18">
     <!-- -4: 0/5 -->
     <g transform="translate(129.425 99.5875928218)scale(0.2 -0.2)">
      <use xlink:href="#BitstreamVeraSans-Roman-2d"/>
      <use x="36.083984375" xlink:href="#BitstreamVeraSans-Roman-34"/>
      <use x="99.70703125" xlink:href="#BitstreamVeraSans-Roman-3a"/>
      <use x="133.3984375" xlink:href="#BitstreamVeraSans-Roman-20"/>
      <use x="165.185546875" xlink:href="#BitstreamVeraSans-Roman-30"/>
      <use x="228.80859375" xlink:href="#BitstreamVeraSans-Roman-2f"/>
      <use x="262.5" xlink:href="#BitstreamVeraSans-Roman-35"/>
     </g>
    </g>
    <g id="line2d_137">
     <path d="M 79.425 121.943843 
L 107.425 121.943843 
" style="fill:none;stroke:#ff0000;stroke-linecap:square;stroke-width:3.0;"/>
    </g>
    <g id="line2d_138"/>
    <g id="text_19">
     <!-- -8: 0/5 -->
     <g transform="translate(129.425 128.943842822)scale(0.2 -0.2)">
      <use xlink:href="#BitstreamVeraSans-Roman-2d"/>
      <use x="36.083984375" xlink:href="#BitstreamVeraSans-Roman-38"/>
      <use x="99.70703125" xlink:href="#BitstreamVeraSans-Roman-3a"/>
      <use x="133.3984375" xlink:href="#BitstreamVeraSans-Roman-20"/>
      <use x="165.185546875" xlink:href="#BitstreamVeraSans-Roman-30"/>
      <use x="228.80859375" xlink:href="#BitstreamVeraSans-Roman-2f"/>
      <use x="262.5" xlink:href="#BitstreamVeraSans-Roman-35"/>
     </g>
    </g>
   </g>
  </g>
 </g>
 <defs>
  <clipPath id="p47f56e33ef">
   <rect height="376.321782178" width="505.594952106" x="55.425" y="7.67821782178"/>
  </clipPath>
 </defs>
</svg>
