<?xml version="1.0" encoding="utf-8" standalone="no"?>
<!DOCTYPE svg PUBLIC "-//W3C//DTD SVG 1.1//EN"
  "http://www.w3.org/Graphics/SVG/1.1/DTD/svg11.dtd">
<!-- Created with matplotlib (http://matplotlib.org/) -->
<svg height="432pt" version="1.1" viewBox="0 0 576 432" width="576pt" xmlns="http://www.w3.org/2000/svg" xmlns:xlink="http://www.w3.org/1999/xlink">
 <defs>
  <style type="text/css">
*{stroke-linecap:butt;stroke-linejoin:round;stroke-miterlimit:100000;}
  </style>
 </defs>
 <g id="figure_1">
  <g id="patch_1">
   <path d="M 0 432 
L 576 432 
L 576 0 
L 0 0 
z
" style="fill:#ffffff;"/>
  </g>
  <g id="axes_1">
   <g id="patch_2">
    <path d="M 55.425 384 
L 561.068466 384 
L 561.068466 7.678218 
L 55.425 7.678218 
z
" style="fill:#ffffff;"/>
   </g>
   <g id="line2d_1">
    <path clip-path="url(#p24155e75bc)" d="M 334.886463 384 
L 334.886463 379.032056 
L 339.039883 379.032056 
L 339.039883 374.064111 
L 340.519797 374.064111 
L 340.519797 369.096167 
L 341.064635 369.096167 
L 341.064635 364.128223 
L 341.544435 364.128223 
L 341.544435 359.160278 
L 342.491631 359.160278 
L 342.491631 354.192334 
L 342.550292 354.192334 
L 342.550292 349.22439 
L 342.900944 349.22439 
L 342.900944 344.256445 
L 345.238908 344.256445 
L 345.238908 339.288501 
L 346.671516 339.288501 
L 346.671516 334.320557 
L 347.26654 334.320557 
L 347.26654 329.352612 
L 347.641859 329.352612 
L 347.641859 324.384668 
L 366.075845 324.384668 
L 366.075845 319.416724 
L 373.427486 319.416724 
L 373.427486 314.44878 
L 373.826834 314.44878 
L 373.826834 309.480835 
L 379.820488 309.480835 
L 379.820488 304.512891 
L 380.264597 304.512891 
L 380.264597 299.544947 
L 387.673408 299.544947 
L 387.673408 294.577002 
L 401.131671 294.577002 
L 401.131671 289.609058 
L 401.773043 289.609058 
L 401.773043 284.641114 
L 406.0827 284.641114 
L 406.0827 279.673169 
L 419.454893 279.673169 
L 419.454893 274.705225 
L 430.482812 274.705225 
L 430.482812 269.737281 
L 458.25251 269.737281 
L 458.25251 264.769336 
L 462.813418 264.769336 
L 462.813418 259.801392 
L 469.758228 259.801392 
L 469.758228 254.833448 
L 497.869171 254.833448 
L 497.869171 249.865503 
L 511.135734 249.865503 
L 511.135734 244.897559 
L 517.879531 244.897559 
L 517.879531 239.929615 
L 517.879531 239.929615 
L 517.879531 239.929615 
L 561.068466 239.929615 
" style="fill:none;stroke:#f5deb3;stroke-linecap:square;"/>
   </g>
   <g id="line2d_2"/>
   <g id="line2d_3">
    <path clip-path="url(#p24155e75bc)" d="M 200.248087 384 
L 200.248087 379.032056 
L 201.794015 379.032056 
L 201.794015 374.064111 
L 215.838826 374.064111 
L 215.838826 369.096167 
L 306.809012 369.096167 
L 306.809012 364.128223 
L 329.804259 364.128223 
L 329.804259 359.160278 
L 379.222695 359.160278 
L 379.222695 354.192334 
L 392.66901 354.192334 
L 392.66901 349.22439 
L 399.494657 349.22439 
L 399.494657 344.256445 
L 413.930707 344.256445 
L 413.930707 339.288501 
L 416.473417 339.288501 
L 416.473417 334.320557 
L 423.382308 334.320557 
L 423.382308 329.352612 
L 431.847368 329.352612 
L 431.847368 324.384668 
L 438.540826 324.384668 
L 438.540826 319.416724 
L 441.594732 319.416724 
L 441.594732 314.44878 
L 447.720772 314.44878 
L 447.720772 309.480835 
L 475.75671 309.480835 
L 475.75671 304.512891 
L 478.816277 304.512891 
L 478.816277 299.544947 
L 480.607467 299.544947 
L 480.607467 294.577002 
L 481.093252 294.577002 
L 481.093252 289.609058 
L 481.96899 289.609058 
L 481.96899 284.641114 
L 482.300712 284.641114 
L 482.300712 279.673169 
L 484.263305 279.673169 
L 484.263305 274.705225 
L 484.409366 274.705225 
L 484.409366 269.737281 
L 486.52511 269.737281 
L 486.52511 264.769336 
L 486.720402 264.769336 
L 486.720402 259.801392 
L 490.085915 259.801392 
L 490.085915 254.833448 
L 490.779038 254.833448 
L 490.779038 249.865503 
L 491.401289 249.865503 
L 491.401289 244.897559 
L 491.455741 244.897559 
L 491.455741 239.929615 
L 492.769437 239.929615 
L 492.769437 234.96167 
L 493.072248 234.96167 
L 493.072248 229.993726 
L 494.847535 229.993726 
L 494.847535 225.025782 
L 505.285941 225.025782 
L 505.285941 220.057837 
L 507.581932 220.057837 
L 507.581932 215.089893 
L 513.610402 215.089893 
L 513.610402 210.121949 
L 518.916904 210.121949 
L 518.916904 205.154005 
L 532.930914 205.154005 
L 532.930914 200.18606 
L 544.719817 200.18606 
L 544.719817 195.218116 
L 550.718624 195.218116 
L 550.718624 190.250172 
L 554.821919 190.250172 
L 554.821919 185.282227 
L 554.821919 185.282227 
L 554.821919 185.282227 
L 561.068466 185.282227 
" style="fill:none;stroke:#f5deb3;stroke-linecap:square;"/>
   </g>
   <g id="line2d_4">
    <path clip-path="url(#p24155e75bc)" d="M 350.504742 384 
L 350.504742 379.032056 
L 358.205296 379.032056 
L 358.205296 374.064111 
L 359.683842 374.064111 
L 359.683842 369.096167 
L 359.81241 369.096167 
L 359.81241 364.128223 
L 359.983366 364.128223 
L 359.983366 359.160278 
L 362.199645 359.160278 
L 362.199645 354.192334 
L 363.13426 354.192334 
L 363.13426 349.22439 
L 365.073852 349.22439 
L 365.073852 344.256445 
L 365.384111 344.256445 
L 365.384111 339.288501 
L 367.35913 339.288501 
L 367.35913 334.320557 
L 368.685968 334.320557 
L 368.685968 329.352612 
L 369.481298 329.352612 
L 369.481298 324.384668 
L 370.335984 324.384668 
L 370.335984 319.416724 
L 370.58278 319.416724 
L 370.58278 314.44878 
L 371.073068 314.44878 
L 371.073068 309.480835 
L 371.420611 309.480835 
L 371.524446 299.544947 
L 371.559014 299.544947 
L 371.559014 294.577002 
L 371.937832 294.577002 
L 371.937832 289.609058 
L 372.074939 289.609058 
L 372.074939 284.641114 
L 372.348128 284.641114 
L 372.348128 279.673169 
L 373.660792 279.673169 
L 373.660792 274.705225 
L 374.714881 274.705225 
L 374.714881 269.737281 
L 375.137388 269.737281 
L 375.137388 264.769336 
L 375.331299 264.769336 
L 375.331299 259.801392 
L 376.227267 259.801392 
L 376.227267 254.833448 
L 376.354077 254.833448 
L 376.354077 249.865503 
L 378.496641 249.865503 
L 378.496641 244.897559 
L 379.04208 244.897559 
L 379.04208 239.929615 
L 379.462594 239.929615 
L 379.462594 234.96167 
L 379.998563 234.96167 
L 379.998563 229.993726 
L 380.822025 229.993726 
L 380.822025 225.025782 
L 380.93866 225.025782 
L 380.93866 220.057837 
L 381.258135 220.057837 
L 381.258135 215.089893 
L 382.234003 215.089893 
L 382.234003 210.121949 
L 383.080885 210.121949 
L 383.080885 205.154005 
L 383.527267 205.154005 
L 383.527267 200.18606 
L 383.66602 200.18606 
L 383.721423 190.250172 
L 384.162646 190.250172 
L 384.190105 180.314283 
L 384.980498 180.314283 
L 385.061617 170.378394 
L 385.519038 170.378394 
L 385.572603 160.442506 
L 386.343469 160.442506 
L 386.369859 150.506617 
L 386.685546 150.506617 
L 386.737985 140.570728 
L 387.647638 140.570728 
L 387.647638 135.602784 
L 388.007319 135.602784 
L 388.007319 130.63484 
L 390.900179 130.63484 
L 390.900179 125.666895 
L 394.291332 125.666895 
L 394.291332 120.698951 
L 396.243013 120.698951 
L 396.243013 115.731007 
L 398.085054 115.731007 
L 398.085054 110.763062 
L 403.421827 110.763062 
L 403.421827 105.795118 
L 414.249112 105.795118 
L 414.249112 100.827174 
L 414.707541 100.827174 
L 414.707541 95.859229 
L 416.458171 95.859229 
L 416.458171 90.891285 
L 417.079797 90.891285 
L 417.079797 85.923341 
L 417.425455 85.923341 
L 417.425455 80.955397 
L 421.537191 80.955397 
L 421.537191 75.987452 
L 425.980979 75.987452 
L 425.980979 71.019508 
L 437.09444 71.019508 
L 437.09444 66.051564 
L 443.154054 66.051564 
L 443.154054 61.083619 
L 450.733189 61.083619 
L 450.733189 56.115675 
L 450.985721 56.115675 
L 450.985721 51.147731 
L 456.722039 51.147731 
L 456.722039 46.179786 
L 464.807754 46.179786 
L 464.807754 41.211842 
L 468.902988 41.211842 
L 468.902988 36.243898 
L 486.371787 36.243898 
L 486.371787 31.275953 
L 494.385118 31.275953 
L 494.385118 26.308009 
L 498.689653 26.308009 
L 498.689653 21.340065 
L 501.229821 21.340065 
L 501.229821 16.37212 
L 512.622784 16.37212 
L 512.622784 11.404176 
L 512.622784 11.404176 
L 561.068466 11.404176 
L 561.068466 11.404176 
" style="fill:none;stroke:#f5deb3;stroke-linecap:square;"/>
   </g>
   <g id="line2d_5">
    <path clip-path="url(#p24155e75bc)" d="M 413.866804 384 
L 413.866804 379.032056 
L 415.458005 379.032056 
L 415.458005 374.064111 
L 430.210528 374.064111 
L 430.210528 369.096167 
L 431.128498 369.096167 
L 431.128498 364.128223 
L 431.512294 364.128223 
L 431.512294 359.160278 
L 442.074847 359.160278 
L 442.074847 354.192334 
L 451.438984 354.192334 
L 451.438984 349.22439 
L 463.257133 349.22439 
L 463.257133 344.256445 
L 463.761721 344.256445 
L 463.761721 339.288501 
L 465.976654 339.288501 
L 465.976654 334.320557 
L 473.689622 334.320557 
L 473.689622 329.352612 
L 474.854033 329.352612 
L 474.854033 324.384668 
L 480.09344 324.384668 
L 480.09344 319.416724 
L 482.27774 319.416724 
L 482.27774 314.44878 
L 493.736339 314.44878 
L 493.736339 309.480835 
L 554.444495 309.480835 
L 554.444495 304.512891 
L 560.304379 304.512891 
L 560.304379 299.544947 
L 560.304379 299.544947 
L 560.304379 294.577002 
L 561.34983 294.577002 
L 561.34983 289.609058 
L 566.051628 289.609058 
L 566.051628 284.641114 
L 571.831781 284.641114 
L 571.831781 279.673169 
L 573.577615 279.673169 
L 573.577615 274.705225 
L 574.363244 274.705225 
L 574.363244 269.737281 
L 577 269.737281 
" style="fill:none;stroke:#f5deb3;stroke-linecap:square;"/>
   </g>
   <g id="line2d_6"/>
   <g id="line2d_7">
    <path clip-path="url(#p24155e75bc)" d="M 388.313751 384 
L 388.313751 379.032056 
L 389.197862 379.032056 
L 389.197862 374.064111 
L 389.969211 374.064111 
L 389.969211 369.096167 
L 390.778582 369.096167 
L 390.778582 364.128223 
L 390.948743 364.128223 
L 390.948743 359.160278 
L 393.578785 359.160278 
L 393.578785 354.192334 
L 393.786609 354.192334 
L 393.786609 349.22439 
L 394.610119 349.22439 
L 394.610119 344.256445 
L 395.107359 344.256445 
L 395.15234 334.320557 
L 395.443822 334.320557 
L 395.533198 319.416724 
L 395.644713 319.416724 
L 395.644713 314.44878 
L 395.778234 314.44878 
L 395.778234 309.480835 
L 396.243013 309.480835 
L 396.331098 299.544947 
L 396.419041 299.544947 
L 396.484907 289.609058 
L 396.703889 289.609058 
L 396.769413 269.737281 
L 397.485067 269.737281 
L 397.485067 264.769336 
L 397.700101 264.769336 
L 397.700101 259.801392 
L 398.106361 259.801392 
L 398.106361 254.833448 
L 399.056724 254.833448 
L 399.056724 249.865503 
L 399.390703 249.865503 
L 399.390703 244.897559 
L 399.743343 244.897559 
L 399.784682 234.96167 
L 399.949725 234.96167 
L 399.949725 229.993726 
L 400.134807 229.993726 
L 400.134807 225.025782 
L 400.604979 225.025782 
L 400.706659 215.089893 
L 401.393133 215.089893 
L 401.413194 205.154005 
L 401.733176 205.154005 
L 401.733176 200.18606 
L 402.975277 200.18606 
L 402.975277 195.218116 
L 403.8072 195.218116 
L 403.8072 190.250172 
L 404.475158 190.250172 
L 404.475158 185.282227 
L 404.607779 185.282227 
L 404.645612 175.346339 
L 404.909715 175.346339 
L 404.909715 170.378394 
L 405.172554 170.378394 
L 405.172554 165.41045 
L 406.468188 165.41045 
L 406.559574 155.474561 
L 407.716059 155.474561 
L 407.716059 150.506617 
L 411.963935 150.506617 
L 411.963935 145.538673 
L 412.326813 145.538673 
L 412.326813 140.570728 
L 417.783835 140.570728 
L 417.783835 135.602784 
L 417.991815 135.602784 
L 417.991815 130.63484 
L 420.413777 130.63484 
L 420.413777 125.666895 
L 422.021544 125.666895 
L 422.021544 120.698951 
L 422.227822 120.698951 
L 422.227822 115.731007 
L 423.837387 115.731007 
L 423.943918 105.795118 
L 424.828089 105.795118 
L 424.828089 100.827174 
L 425.050184 100.827174 
L 425.102311 90.891285 
L 426.14737 90.891285 
L 426.14737 85.923341 
L 427.771696 85.923341 
L 427.771696 80.955397 
L 428.290338 80.955397 
L 428.290338 75.987452 
L 430.115504 75.987452 
L 430.115504 71.019508 
L 433.380816 71.019508 
L 433.380816 66.051564 
L 434.170424 66.051564 
L 434.170424 61.083619 
L 437.115374 61.083619 
L 437.115374 56.115675 
L 440.217734 56.115675 
L 440.217734 51.147731 
L 448.466124 51.147731 
L 448.466124 46.179786 
L 458.854352 46.179786 
L 458.854352 41.211842 
L 471.764689 41.211842 
L 471.764689 36.243898 
L 475.064068 36.243898 
L 475.064068 31.275953 
L 479.61798 31.275953 
L 479.61798 26.308009 
L 480.503148 26.308009 
L 480.503148 21.340065 
L 492.992922 21.340065 
L 492.992922 16.37212 
L 550.972852 16.37212 
L 550.972852 11.404176 
L 550.972852 11.404176 
L 561.068466 11.404176 
L 561.068466 11.404176 
" style="fill:none;stroke:#f5deb3;stroke-linecap:square;"/>
   </g>
   <g id="line2d_8">
    <path clip-path="url(#p24155e75bc)" d="M 676.763244 384 
" style="fill:none;stroke:#f5deb3;stroke-linecap:square;"/>
   </g>
   <g id="line2d_9">
    <path clip-path="url(#p24155e75bc)" d="M 381.258135 384 
L 381.258135 379.032056 
L 382.630842 379.032056 
L 382.630842 374.064111 
L 383.693729 374.064111 
L 383.693729 369.096167 
L 385.438593 369.096167 
L 385.438593 364.128223 
L 385.892897 364.128223 
L 385.892897 359.160278 
L 386.052345 359.160278 
L 386.052345 354.192334 
L 386.921126 354.192334 
L 386.921126 349.22439 
L 387.853458 349.22439 
L 387.853458 344.256445 
L 388.466328 344.256445 
L 388.466328 339.288501 
L 388.770216 339.288501 
L 388.871138 329.352612 
L 388.92153 329.352612 
L 388.946709 319.416724 
L 389.746386 319.416724 
L 389.746386 314.44878 
L 390.067954 314.44878 
L 390.067954 309.480835 
L 390.314039 309.480835 
L 390.338587 299.544947 
L 390.534576 299.544947 
L 390.534576 294.577002 
L 390.705494 294.577002 
L 390.705494 289.609058 
L 391.045741 289.609058 
L 391.045741 284.641114 
L 391.166749 284.641114 
L 391.166749 279.673169 
L 391.887242 279.673169 
L 391.887242 274.705225 
L 392.480511 274.705225 
L 392.480511 269.737281 
L 392.763018 269.737281 
L 392.763018 264.769336 
L 392.997334 264.769336 
L 392.997334 259.801392 
L 393.370172 259.801392 
L 393.416599 249.865503 
L 393.486166 249.865503 
L 393.486166 244.897559 
L 393.809652 244.897559 
L 393.901727 229.993726 
L 393.924721 229.993726 
L 393.993648 215.089893 
L 394.3598 215.089893 
L 394.3598 210.121949 
L 394.700862 210.121949 
L 394.723525 200.18606 
L 395.555519 200.18606 
L 395.622428 190.250172 
L 396.265047 190.250172 
L 396.265047 185.282227 
L 396.74758 185.282227 
L 396.856658 175.346339 
L 397.463517 175.346339 
L 397.463517 170.378394 
L 397.592689 170.378394 
L 397.592689 165.41045 
L 397.957036 165.41045 
L 397.957036 160.442506 
L 399.328237 160.442506 
L 399.432308 150.506617 
L 399.453099 150.506617 
L 399.453099 145.538673 
L 400.828427 145.538673 
L 400.828427 140.570728 
L 401.773043 140.570728 
L 401.773043 135.602784 
L 408.901197 135.602784 
L 408.901197 130.63484 
L 409.803683 130.63484 
L 409.803683 125.666895 
L 410.793096 125.666895 
L 410.793096 120.698951 
L 412.441773 120.698951 
L 412.441773 115.731007 
L 412.768908 115.731007 
L 412.768908 110.763062 
L 414.707541 110.763062 
L 414.707541 105.795118 
L 416.777444 105.795118 
L 416.777444 100.827174 
L 417.064718 100.827174 
L 417.064718 95.859229 
L 417.560122 95.859229 
L 417.560122 90.891285 
L 420.129294 90.891285 
L 420.129294 85.923341 
L 421.481563 85.923341 
L 421.481563 80.955397 
L 422.378601 80.955397 
L 422.378601 75.987452 
L 425.620877 75.987452 
L 425.620877 71.019508 
L 435.952013 71.019508 
L 435.952013 66.051564 
L 436.186667 66.051564 
L 436.186667 61.083619 
L 437.511598 61.083619 
L 437.511598 56.115675 
L 444.752297 56.115675 
L 444.752297 51.147731 
L 452.358215 51.147731 
L 452.358215 46.179786 
L 454.151735 46.179786 
L 454.151735 41.211842 
L 455.350696 41.211842 
L 455.350696 36.243898 
L 455.836434 36.243898 
L 455.836434 31.275953 
L 457.701555 31.275953 
L 457.701555 26.308009 
L 460.079923 26.308009 
L 460.079923 21.340065 
L 464.826705 21.340065 
L 464.826705 16.37212 
L 468.396392 16.37212 
L 468.396392 11.404176 
L 468.396392 11.404176 
L 561.068466 11.404176 
L 561.068466 11.404176 
" style="fill:none;stroke:#f5deb3;stroke-linecap:square;"/>
   </g>
   <g id="line2d_10">
    <path clip-path="url(#p24155e75bc)" d="M 661.354497 384 
" style="fill:none;stroke:#f5deb3;stroke-linecap:square;"/>
   </g>
   <g id="line2d_11">
    <path clip-path="url(#p24155e75bc)" d="M 772.467698 384 
" style="fill:none;stroke:#f5deb3;stroke-linecap:square;"/>
   </g>
   <g id="line2d_12">
    <path clip-path="url(#p24155e75bc)" d="M 336.28425 384 
L 336.28425 379.032056 
L 402.268951 379.032056 
L 402.268951 374.064111 
L 405.601646 374.064111 
L 405.601646 369.096167 
L 483.094191 369.096167 
L 483.094191 364.128223 
L 494.989878 364.128223 
L 494.989878 359.160278 
L 527.653287 359.160278 
L 527.653287 354.192334 
L 545.953317 354.192334 
L 545.953317 349.22439 
L 551.35004 349.22439 
L 551.35004 344.256445 
L 555.180944 344.256445 
L 555.180944 339.288501 
L 577 339.288501 
" style="fill:none;stroke:#f5deb3;stroke-linecap:square;"/>
   </g>
   <g id="line2d_13"/>
   <g id="line2d_14">
    <path clip-path="url(#p24155e75bc)" d="M 372.924179 384 
L 372.924179 379.032056 
L 380.323541 379.032056 
L 380.323541 374.064111 
L 395.733763 374.064111 
L 395.733763 369.096167 
L 397.592689 369.096167 
L 397.592689 364.128223 
L 404.094463 364.128223 
L 404.094463 359.160278 
L 404.55098 359.160278 
L 404.55098 354.192334 
L 408.161274 354.192334 
L 408.161274 349.22439 
L 412.540118 349.22439 
L 412.540118 344.256445 
L 413.70672 344.256445 
L 413.70672 339.288501 
L 419.929274 339.288501 
L 419.929274 334.320557 
L 421.300382 334.320557 
L 421.300382 329.352612 
L 423.234265 329.352612 
L 423.234265 324.384668 
L 424.565646 324.384668 
L 424.565646 319.416724 
L 430.506425 319.416724 
L 430.506425 314.44878 
L 435.231143 314.44878 
L 435.231143 309.480835 
L 435.87714 309.480835 
L 435.87714 304.512891 
L 437.59465 304.512891 
L 437.59465 299.544947 
L 438.326284 299.544947 
L 438.326284 294.577002 
L 449.511268 294.577002 
L 449.511268 289.609058 
L 450.904386 289.609058 
L 450.904386 284.641114 
L 456.46521 284.641114 
L 456.46521 279.673169 
L 460.600801 279.673169 
L 460.600801 274.705225 
L 461.399861 274.705225 
L 461.399861 269.737281 
L 464.229797 269.737281 
L 464.229797 264.769336 
L 467.320693 264.769336 
L 467.320693 259.801392 
L 469.602139 259.801392 
L 469.602139 254.833448 
L 470.934735 254.833448 
L 470.934735 249.865503 
L 474.81193 249.865503 
L 474.81193 244.897559 
L 475.849783 244.897559 
L 475.849783 239.929615 
L 486.478307 239.929615 
L 486.478307 234.96167 
L 488.509002 234.96167 
L 488.509002 229.993726 
L 491.362361 229.993726 
L 491.362361 225.025782 
L 509.735578 225.025782 
L 509.735578 220.057837 
L 529.060233 220.057837 
L 529.060233 215.089893 
L 532.28076 215.089893 
L 532.28076 210.121949 
L 538.667285 210.121949 
L 538.667285 205.154005 
L 545.216841 205.154005 
L 545.216841 200.18606 
L 555.979663 200.18606 
L 555.979663 195.218116 
L 556.706582 195.218116 
L 556.706582 190.250172 
L 556.706582 190.250172 
L 556.706582 190.250172 
L 561.068466 190.250172 
" style="fill:none;stroke:#f5deb3;stroke-linecap:square;"/>
   </g>
   <g id="line2d_15"/>
   <g id="line2d_16"/>
   <g id="line2d_17">
    <path clip-path="url(#p24155e75bc)" d="M 463.009617 384 
L 463.009617 379.032056 
L 464.788798 379.032056 
L 464.788798 374.064111 
L 466.39561 374.064111 
L 466.39561 369.096167 
L 467.018108 369.096167 
L 467.018108 364.128223 
L 469.677349 364.128223 
L 469.677349 359.160278 
L 470.298212 359.160278 
L 470.298212 354.192334 
L 470.50931 354.192334 
L 470.50931 349.22439 
L 470.866889 349.22439 
L 470.866889 344.256445 
L 471.825876 344.256445 
L 471.892549 334.320557 
L 473.030075 334.320557 
L 473.111596 314.44878 
L 474.859294 314.44878 
L 474.917128 304.512891 
L 475.215842 304.512891 
L 475.241968 294.577002 
L 475.704935 294.577002 
L 475.704935 289.609058 
L 476.025158 289.609058 
L 476.025158 284.641114 
L 476.593835 284.641114 
L 476.593835 279.673169 
L 476.969705 279.673169 
L 476.969705 274.705225 
L 477.608839 274.705225 
L 477.608839 269.737281 
L 478.022554 269.737281 
L 478.022554 264.769336 
L 479.274439 264.769336 
L 479.274439 259.801392 
L 479.564896 259.801392 
L 479.564896 254.833448 
L 479.834609 254.833448 
L 479.834609 249.865503 
L 480.026452 249.865503 
L 480.098221 239.929615 
L 480.37009 239.929615 
L 480.446163 229.993726 
L 480.664286 229.993726 
L 480.664286 225.025782 
L 481.285433 225.025782 
L 481.285433 220.057837 
L 481.584083 220.057837 
L 481.584083 215.089893 
L 482.410842 215.089893 
L 482.410842 210.121949 
L 483.085136 210.121949 
L 483.085136 205.154005 
L 483.284014 205.154005 
L 483.37868 195.218116 
L 484.709119 195.218116 
L 484.709119 190.250172 
L 485.749862 190.250172 
L 485.749862 185.282227 
L 485.995184 185.282227 
L 485.995184 180.314283 
L 486.48682 180.314283 
L 486.48682 175.346339 
L 487.973132 175.346339 
L 487.973132 170.378394 
L 491.276622 170.378394 
L 491.276622 165.41045 
L 491.920277 165.41045 
L 491.920277 160.442506 
L 496.83923 160.442506 
L 496.860371 150.506617 
L 499.652281 150.506617 
L 499.652281 145.538673 
L 501.786557 145.538673 
L 501.786557 140.570728 
L 502.267514 140.570728 
L 502.315379 130.63484 
L 503.747782 130.63484 
L 503.747782 125.666895 
L 504.528378 125.666895 
L 504.528378 120.698951 
L 505.385561 120.698951 
L 505.403654 110.763062 
L 505.92578 110.763062 
L 505.92578 105.795118 
L 506.104678 105.795118 
L 506.104678 100.827174 
L 506.887907 100.827174 
L 506.887907 95.859229 
L 510.234814 95.859229 
L 510.234814 90.891285 
L 510.446997 90.891285 
L 510.446997 85.923341 
L 510.833426 85.923341 
L 510.833426 80.955397 
L 511.081387 80.955397 
L 511.081387 75.987452 
L 512.939078 75.987452 
L 512.939078 71.019508 
L 514.692678 71.019508 
L 514.692678 66.051564 
L 517.534977 66.051564 
L 517.534977 61.083619 
L 517.691861 61.083619 
L 517.691861 56.115675 
L 520.70239 56.115675 
L 520.70239 51.147731 
L 524.550066 51.147731 
L 524.550066 46.179786 
L 527.457963 46.179786 
L 527.457963 41.211842 
L 529.63711 41.211842 
L 529.63711 36.243898 
L 533.076781 36.243898 
L 533.076781 31.275953 
L 539.265911 31.275953 
L 539.265911 26.308009 
L 539.438071 26.308009 
L 539.438071 21.340065 
L 543.08292 21.340065 
L 543.08292 16.37212 
L 546.729758 16.37212 
L 546.729758 11.404176 
L 546.729758 11.404176 
L 561.068466 11.404176 
L 561.068466 11.404176 
" style="fill:none;stroke:#f5deb3;stroke-linecap:square;"/>
   </g>
   <g id="line2d_18">
    <path clip-path="url(#p24155e75bc)" d="M 281.731723 384 
L 281.731723 379.032056 
L 320.035187 379.032056 
L 320.035187 374.064111 
L 321.774693 374.064111 
L 321.774693 369.096167 
L 330.975009 369.096167 
L 330.975009 364.128223 
L 332.050356 364.128223 
L 332.050356 359.160278 
L 348.909522 359.160278 
L 348.909522 354.192334 
L 353.562463 354.192334 
L 353.562463 349.22439 
L 372.109162 349.22439 
L 372.109162 344.256445 
L 376.638331 344.256445 
L 376.638331 339.288501 
L 394.768821 339.288501 
L 394.768821 334.320557 
L 395.466179 334.320557 
L 395.466179 329.352612 
L 403.59558 329.352612 
L 403.59558 324.384668 
L 408.620497 324.384668 
L 408.620497 319.416724 
L 410.776187 319.416724 
L 410.776187 314.44878 
L 410.995594 314.44878 
L 410.995594 309.480835 
L 411.130178 309.480835 
L 411.130178 304.512891 
L 417.170178 304.512891 
L 417.170178 299.544947 
L 418.169458 299.544947 
L 418.169458 294.577002 
L 418.91809 294.577002 
L 418.91809 289.609058 
L 419.063691 289.609058 
L 419.063691 284.641114 
L 419.800303 284.641114 
L 419.800303 279.673169 
L 420.626177 279.673169 
L 420.626177 274.705225 
L 426.504045 274.705225 
L 426.504045 269.737281 
L 432.226187 269.737281 
L 432.226187 264.769336 
L 432.454507 264.769336 
L 432.454507 259.801392 
L 437.063025 259.801392 
L 437.063025 254.833448 
L 438.957293 254.833448 
L 438.957293 249.865503 
L 440.51362 249.865503 
L 440.51362 244.897559 
L 457.21761 244.897559 
L 457.21761 239.929615 
L 462.655952 239.929615 
L 462.655952 234.96167 
L 480.843822 234.96167 
L 480.843822 229.993726 
L 486.136713 229.993726 
L 486.136713 225.025782 
L 489.75008 225.025782 
L 489.75008 220.057837 
L 497.130969 220.057837 
L 497.130969 215.089893 
L 503.00634 215.089893 
L 503.00634 210.121949 
L 504.818643 210.121949 
L 504.818643 205.154005 
L 507.50654 205.154005 
L 507.50654 200.18606 
L 513.812537 200.18606 
L 513.812537 195.218116 
L 526.967608 195.218116 
L 526.967608 190.250172 
L 545.006265 190.250172 
L 545.006265 185.282227 
L 549.641319 185.282227 
L 549.641319 180.314283 
L 557.678127 180.314283 
L 557.678127 175.346339 
L 558.83243 175.346339 
L 558.83243 170.378394 
L 559.39553 170.378394 
L 559.39553 165.41045 
L 577 165.41045 
" style="fill:none;stroke:#f5deb3;stroke-linecap:square;"/>
   </g>
   <g id="line2d_19">
    <path clip-path="url(#p24155e75bc)" d="M 800.926814 384 
" style="fill:none;stroke:#f5deb3;stroke-linecap:square;"/>
   </g>
   <g id="line2d_20">
    <path clip-path="url(#p24155e75bc)" d="M 301.870292 384 
L 301.870292 379.032056 
L 307.92217 379.032056 
L 307.92217 374.064111 
L 312.669523 374.064111 
L 312.669523 369.096167 
L 313.770098 369.096167 
L 313.770098 364.128223 
L 316.002354 364.128223 
L 316.002354 354.192334 
L 316.38147 354.192334 
L 316.38147 349.22439 
L 317.317958 349.22439 
L 317.317958 344.256445 
L 317.780276 344.256445 
L 317.780276 339.288501 
L 319.68057 339.288501 
L 319.769439 329.352612 
L 321.172118 329.352612 
L 321.172118 324.384668 
L 322.285972 324.384668 
L 322.285972 319.416724 
L 325.817038 319.416724 
L 325.817038 314.44878 
L 326.99723 314.44878 
L 326.99723 304.512891 
L 329.730251 304.512891 
L 329.730251 299.544947 
L 332.26292 299.544947 
L 332.26292 294.577002 
L 336.21849 294.577002 
L 336.21849 284.641114 
L 336.677165 284.641114 
L 336.677165 279.673169 
L 337.454653 279.673169 
L 337.454653 274.705225 
L 338.030625 274.705225 
L 338.030625 269.737281 
L 338.977345 269.737281 
L 338.977345 264.769336 
L 341.782771 264.769336 
L 341.782771 259.801392 
L 342.667425 259.801392 
L 342.667425 254.833448 
L 343.710522 254.833448 
L 343.710522 249.865503 
L 344.790473 249.865503 
L 344.790473 244.897559 
L 348.279351 244.897559 
L 348.279351 239.929615 
L 348.437573 239.929615 
L 348.490213 229.993726 
L 349.013851 229.993726 
L 349.013851 225.025782 
L 350.199587 225.025782 
L 350.250564 215.089893 
L 352.594592 215.089893 
L 352.594592 210.121949 
L 356.458763 210.121949 
L 356.458763 205.154005 
L 357.047139 205.154005 
L 357.047139 200.18606 
L 359.468892 200.18606 
L 359.468892 195.218116 
L 359.597963 195.218116 
L 359.597963 190.250172 
L 365.884569 190.250172 
L 365.884569 185.282227 
L 366.721238 185.282227 
L 366.721238 180.314283 
L 366.909625 180.314283 
L 366.909625 175.346339 
L 367.841975 175.346339 
L 367.841975 170.378394 
L 368.320608 170.378394 
L 368.430472 160.442506 
L 376.669824 160.442506 
L 376.669824 155.474561 
L 383.443847 155.474561 
L 383.443847 150.506617 
L 384.299804 150.506617 
L 384.299804 145.538673 
L 387.285584 145.538673 
L 387.285584 140.570728 
L 392.739531 140.570728 
L 392.739531 135.602784 
L 393.486166 135.602784 
L 393.486166 130.63484 
L 396.30909 130.63484 
L 396.30909 125.666895 
L 401.952087 125.666895 
L 401.952087 120.698951 
L 405.003731 120.698951 
L 405.003731 115.731007 
L 407.965824 115.731007 
L 407.965824 110.763062 
L 408.461969 110.763062 
L 408.461969 105.795118 
L 413.401267 105.795118 
L 413.401267 100.827174 
L 413.642555 100.827174 
L 413.642555 95.859229 
L 415.659502 95.859229 
L 415.659502 90.891285 
L 417.590003 90.891285 
L 417.590003 85.923341 
L 419.699783 85.923341 
L 419.699783 80.955397 
L 422.076627 80.955397 
L 422.076627 75.987452 
L 435.716352 75.987452 
L 435.716352 71.019508 
L 440.474261 71.019508 
L 440.474261 66.051564 
L 441.100648 66.051564 
L 441.100648 61.083619 
L 448.720813 61.083619 
L 448.720813 56.115675 
L 455.545507 56.115675 
L 455.545507 51.147731 
L 463.716626 51.147731 
L 463.716626 46.179786 
L 478.201032 46.179786 
L 478.201032 41.211842 
L 485.181859 41.211842 
L 485.181859 36.243898 
L 486.766999 36.243898 
L 486.766999 31.275953 
L 489.400071 31.275953 
L 489.400071 26.308009 
L 492.453494 26.308009 
L 492.453494 21.340065 
L 519.719441 21.340065 
L 519.719441 16.37212 
L 557.979687 16.37212 
L 557.979687 11.404176 
L 557.979687 11.404176 
L 561.068466 11.404176 
L 561.068466 11.404176 
" style="fill:none;stroke:#f5deb3;stroke-linecap:square;"/>
   </g>
   <g id="line2d_21"/>
   <g id="line2d_22">
    <path clip-path="url(#p24155e75bc)" d="M 299.992909 384 
L 299.992909 379.032056 
L 302.724899 379.032056 
L 302.724899 374.064111 
L 308.470395 374.064111 
L 308.470395 369.096167 
L 309.121116 369.096167 
L 309.121116 364.128223 
L 309.976912 364.128223 
L 309.976912 359.160278 
L 310.188792 359.160278 
L 310.188792 354.192334 
L 310.71494 354.192334 
L 310.71494 349.22439 
L 311.33973 349.22439 
L 311.443174 339.288501 
L 312.669523 339.288501 
L 312.669523 334.320557 
L 313.869064 334.320557 
L 313.869064 329.352612 
L 316.002354 329.352612 
L 316.002354 324.384668 
L 317.503352 324.384668 
L 317.503352 319.416724 
L 319.234051 319.416724 
L 319.234051 314.44878 
L 320.035187 314.44878 
L 320.035187 309.480835 
L 320.21164 309.480835 
L 320.21164 304.512891 
L 320.562853 304.512891 
L 320.562853 299.544947 
L 323.543708 299.544947 
L 323.543708 294.577002 
L 324.935141 294.577002 
L 324.935141 289.609058 
L 325.975871 289.609058 
L 325.975871 284.641114 
L 327.230253 284.641114 
L 327.230253 279.673169 
L 335.954659 279.673169 
L 335.954659 274.705225 
L 336.677165 274.705225 
L 336.677165 269.737281 
L 337.390282 269.737281 
L 337.390282 264.769336 
L 340.153543 264.769336 
L 340.153543 259.801392 
L 342.432908 259.801392 
L 342.432908 254.833448 
L 345.294705 254.833448 
L 345.294705 249.865503 
L 346.617102 249.865503 
L 346.617102 244.897559 
L 348.909522 244.897559 
L 348.909522 239.929615 
L 353.610411 239.929615 
L 353.610411 234.96167 
L 355.58732 234.96167 
L 355.58732 229.993726 
L 356.230774 229.993726 
L 356.230774 225.025782 
L 357.271768 225.025782 
L 357.271768 220.057837 
L 357.629273 220.057837 
L 357.629273 215.089893 
L 359.554973 215.089893 
L 359.554973 210.121949 
L 360.746145 210.121949 
L 360.746145 205.154005 
L 364.76183 205.154005 
L 364.76183 200.18606 
L 369.803367 200.18606 
L 369.803367 195.218116 
L 370.72331 195.218116 
L 370.72331 190.250172 
L 371.524446 190.250172 
L 371.524446 185.282227 
L 374.223297 185.282227 
L 374.223297 180.314283 
L 376.921121 180.314283 
L 376.921121 175.346339 
L 379.850207 175.346339 
L 379.850207 170.378394 
L 381.171189 170.378394 
L 381.171189 165.41045 
L 382.602591 165.41045 
L 382.602591 160.442506 
L 384.190105 160.442506 
L 384.299804 150.506617 
L 384.381935 150.506617 
L 384.381935 145.538673 
L 385.626115 145.538673 
L 385.626115 140.570728 
L 386.501616 140.570728 
L 386.501616 135.602784 
L 387.544437 135.602784 
L 387.544437 130.63484 
L 392.172812 130.63484 
L 392.196542 120.698951 
L 395.533198 120.698951 
L 395.533198 115.731007 
L 397.160926 115.731007 
L 397.160926 110.763062 
L 397.78588 110.763062 
L 397.78588 105.795118 
L 401.050969 105.795118 
L 401.050969 100.827174 
L 401.85269 100.827174 
L 401.85269 95.859229 
L 402.446387 95.859229 
L 402.446387 90.891285 
L 402.877718 90.891285 
L 402.877718 85.923341 
L 403.208713 85.923341 
L 403.208713 80.955397 
L 403.749566 80.955397 
L 403.826397 71.019508 
L 407.465152 71.019508 
L 407.465152 66.051564 
L 416.075646 66.051564 
L 416.075646 61.083619 
L 417.590003 61.083619 
L 417.590003 56.115675 
L 423.784044 56.115675 
L 423.784044 51.147731 
L 424.315157 51.147731 
L 424.315157 46.179786 
L 427.982213 46.179786 
L 427.982213 41.211842 
L 428.925748 41.211842 
L 428.925748 36.243898 
L 430.553621 36.243898 
L 430.553621 31.275953 
L 440.326411 31.275953 
L 440.326411 26.308009 
L 441.168728 26.308009 
L 441.168728 21.340065 
L 458.12421 21.340065 
L 458.12421 16.37212 
L 470.332499 16.37212 
L 470.332499 11.404176 
L 470.332499 11.404176 
L 561.068466 11.404176 
L 561.068466 11.404176 
" style="fill:none;stroke:#f5deb3;stroke-linecap:square;"/>
   </g>
   <g id="line2d_23">
    <path clip-path="url(#p24155e75bc)" d="M 671.232656 384 
" style="fill:none;stroke:#f5deb3;stroke-linecap:square;"/>
   </g>
   <g id="line2d_24">
    <path clip-path="url(#p24155e75bc)" d="M 363.375477 384 
L 363.375477 379.032056 
L 365.922878 379.032056 
L 365.922878 374.064111 
L 372.382182 374.064111 
L 372.382182 369.096167 
L 373.15963 369.096167 
L 373.15963 364.128223 
L 373.293722 364.128223 
L 373.293722 359.160278 
L 373.460876 359.160278 
L 373.460876 354.192334 
L 374.124449 354.192334 
L 374.124449 349.22439 
L 374.64959 349.22439 
L 374.64959 344.256445 
L 378.374692 344.256445 
L 378.405205 334.320557 
L 378.860869 334.320557 
L 378.860869 329.352612 
L 379.31278 329.352612 
L 379.31278 324.384668 
L 379.939269 324.384668 
L 379.939269 319.416724 
L 380.909525 319.416724 
L 380.909525 314.44878 
L 381.460472 314.44878 
L 381.460472 309.480835 
L 382.715506 309.480835 
L 382.715506 304.512891 
L 383.22077 304.512891 
L 383.22077 299.544947 
L 384.790753 299.544947 
L 384.790753 294.577002 
L 385.812998 294.577002 
L 385.892897 284.641114 
L 387.570256 284.641114 
L 387.570256 279.673169 
L 389.172798 279.673169 
L 389.172798 274.705225 
L 390.11726 274.705225 
L 390.11726 269.737281 
L 391.982597 269.737281 
L 391.982597 264.769336 
L 392.220263 264.769336 
L 392.220263 259.801392 
L 392.33871 259.801392 
L 392.33871 254.833448 
L 392.692527 254.833448 
L 392.692527 249.865503 
L 393.39339 249.865503 
L 393.39339 244.897559 
L 393.532495 244.897559 
L 393.532495 239.929615 
L 393.901727 239.929615 
L 393.993648 229.993726 
L 394.700862 229.993726 
L 394.700862 225.025782 
L 395.577831 225.025782 
L 395.577831 220.057837 
L 395.889253 220.057837 
L 395.889253 215.089893 
L 397.204256 215.089893 
L 397.204256 210.121949 
L 398.276522 210.121949 
L 398.276522 205.154005 
L 398.678551 205.154005 
L 398.762815 195.218116 
L 400.421478 195.218116 
L 400.421478 190.250172 
L 401.971945 190.250172 
L 401.971945 185.282227 
L 402.662476 185.282227 
L 402.662476 180.314283 
L 403.883951 180.314283 
L 403.883951 175.346339 
L 404.55098 175.346339 
L 404.55098 170.378394 
L 404.7212 170.378394 
L 404.7212 165.41045 
L 407.590749 165.41045 
L 407.590749 160.442506 
L 408.550097 160.442506 
L 408.550097 155.474561 
L 410.809999 155.474561 
L 410.809999 150.506617 
L 411.54864 150.506617 
L 411.54864 145.538673 
L 412.31037 145.538673 
L 412.31037 140.570728 
L 413.19129 140.570728 
L 413.19129 135.602784 
L 413.642555 135.602784 
L 413.642555 130.63484 
L 414.106058 130.63484 
L 414.106058 125.666895 
L 416.075646 125.666895 
L 416.075646 120.698951 
L 417.694459 120.698951 
L 417.739166 110.763062 
L 417.873066 110.763062 
L 417.873066 105.795118 
L 418.596402 105.795118 
L 418.596402 100.827174 
L 419.324802 100.827174 
L 419.324802 95.859229 
L 420.484669 95.859229 
L 420.484669 90.891285 
L 420.851833 90.891285 
L 420.851833 85.923341 
L 421.966405 85.923341 
L 421.966405 80.955397 
L 422.104148 80.955397 
L 422.104148 75.987452 
L 427.709625 75.987452 
L 427.709625 71.019508 
L 429.517841 71.019508 
L 429.517841 66.051564 
L 431.011664 66.051564 
L 431.011664 61.083619 
L 431.558633 61.083619 
L 431.558633 56.115675 
L 442.617103 56.115675 
L 442.617103 51.147731 
L 447.573938 51.147731 
L 447.573938 46.179786 
L 454.503511 46.179786 
L 454.503511 41.211842 
L 471.15466 41.211842 
L 471.15466 36.243898 
L 471.340065 36.243898 
L 471.340065 31.275953 
L 475.973635 31.275953 
L 475.973635 26.308009 
L 480.251015 26.308009 
L 480.251015 21.340065 
L 505.53014 21.340065 
L 505.53014 16.37212 
L 508.22721 16.37212 
L 508.22721 11.404176 
L 508.22721 11.404176 
L 561.068466 11.404176 
L 561.068466 11.404176 
" style="fill:none;stroke:#f5deb3;stroke-linecap:square;"/>
   </g>
   <g id="line2d_25"/>
   <g id="line2d_26">
    <path clip-path="url(#p24155e75bc)" d="M 430.588991 384 
L 430.588991 379.032056 
L 432.54557 379.032056 
L 432.54557 374.064111 
L 433.760356 374.064111 
L 433.860385 364.128223 
L 433.915877 364.128223 
L 433.915877 359.160278 
L 434.093078 359.160278 
L 434.093078 354.192334 
L 434.247661 354.192334 
L 434.247661 349.22439 
L 439.860553 349.22439 
L 439.900354 339.288501 
L 440.168265 339.288501 
L 440.168265 334.320557 
L 440.719795 334.320557 
L 440.719795 329.352612 
L 440.856816 329.352612 
L 440.856816 324.384668 
L 441.159007 324.384668 
L 441.265838 314.44878 
L 441.391824 314.44878 
L 441.391824 309.480835 
L 441.585087 309.480835 
L 441.662202 299.544947 
L 441.950421 299.544947 
L 441.950421 294.577002 
L 442.074847 294.577002 
L 442.074847 289.609058 
L 442.474923 289.609058 
L 442.474923 284.641114 
L 442.673873 284.641114 
L 442.673873 279.673169 
L 442.86268 279.673169 
L 442.86268 274.705225 
L 443.285137 274.705225 
L 443.341219 259.801392 
L 443.685801 259.801392 
L 443.685801 254.833448 
L 444.074344 254.833448 
L 444.138834 239.929615 
L 444.194052 239.929615 
L 444.194052 234.96167 
L 448.763147 234.96167 
L 448.822359 220.057837 
L 449.201489 220.057837 
L 449.285386 210.121949 
L 449.819309 210.121949 
L 449.819309 205.154005 
L 450.100856 205.154005 
L 450.18339 195.218116 
L 450.912525 195.218116 
L 450.912525 190.250172 
L 451.390599 190.250172 
L 451.390599 185.282227 
L 452.111934 185.282227 
L 452.111934 180.314283 
L 456.875561 180.314283 
L 456.875561 175.346339 
L 457.593579 175.346339 
L 457.607988 165.41045 
L 458.088518 165.41045 
L 458.088518 160.442506 
L 458.486951 160.442506 
L 458.486951 155.474561 
L 464.012286 155.474561 
L 464.012286 150.506617 
L 465.598085 150.506617 
L 465.604312 140.570728 
L 465.809413 140.570728 
L 465.85282 125.666895 
L 466.272719 125.666895 
L 466.272719 120.698951 
L 469.856279 120.698951 
L 469.856279 115.731007 
L 470.5776 115.731007 
L 470.5776 110.763062 
L 470.991211 110.763062 
L 471.041988 100.827174 
L 471.109619 100.827174 
L 471.109619 95.859229 
L 472.036728 95.859229 
L 472.036728 90.891285 
L 475.481742 90.891285 
L 475.481742 85.923341 
L 475.611616 85.923341 
L 475.611616 80.955397 
L 476.179437 80.955397 
L 476.179437 75.987452 
L 477.040527 75.987452 
L 477.060745 66.051564 
L 481.913507 66.051564 
L 481.913507 61.083619 
L 485.403689 61.083619 
L 485.403689 56.115675 
L 495.96175 56.115675 
L 495.96175 51.147731 
L 496.937821 51.147731 
L 496.948374 41.211842 
L 497.088886 41.211842 
L 497.088886 36.243898 
L 498.611226 36.243898 
L 498.611226 31.275953 
L 499.98941 31.275953 
L 499.98941 26.308009 
L 506.360085 26.308009 
L 506.360085 21.340065 
L 510.306552 21.340065 
L 510.306552 16.37212 
L 532.663704 16.37212 
L 532.663704 11.404176 
L 532.663704 11.404176 
L 561.068466 11.404176 
L 561.068466 11.404176 
" style="fill:none;stroke:#f5deb3;stroke-linecap:square;"/>
   </g>
   <g id="line2d_27"/>
   <g id="line2d_28">
    <path clip-path="url(#p24155e75bc)" d="M 354.607767 384 
L 354.607767 379.032056 
L 355.169651 379.032056 
L 355.169651 374.064111 
L 356.595103 374.064111 
L 356.595103 369.096167 
L 358.949549 369.096167 
L 358.949549 364.128223 
L 359.339516 364.128223 
L 359.339516 359.160278 
L 359.897954 359.160278 
L 359.897954 354.192334 
L 361.788273 354.192334 
L 361.788273 349.22439 
L 363.973922 349.22439 
L 363.973922 344.256445 
L 364.171962 344.256445 
L 364.171962 339.288501 
L 365.884569 339.288501 
L 365.884569 334.320557 
L 366.570062 334.320557 
L 366.570062 329.352612 
L 366.871999 329.352612 
L 366.871999 324.384668 
L 368.247244 324.384668 
L 368.247244 319.416724 
L 369.481298 319.416724 
L 369.481298 314.44878 
L 369.696221 314.44878 
L 369.696221 309.480835 
L 370.123557 309.480835 
L 370.123557 304.512891 
L 370.335984 304.512891 
L 370.335984 299.544947 
L 370.863481 299.544947 
L 370.863481 294.577002 
L 371.281857 294.577002 
L 371.281857 289.609058 
L 371.662588 289.609058 
L 371.662588 284.641114 
L 371.903502 284.641114 
L 371.903502 279.673169 
L 372.789181 279.673169 
L 372.789181 274.705225 
L 373.058846 274.705225 
L 373.058846 269.737281 
L 373.26023 269.737281 
L 373.26023 264.769336 
L 374.616916 264.769336 
L 374.616916 259.801392 
L 375.363551 259.801392 
L 375.363551 254.833448 
L 375.620887 254.833448 
L 375.620887 249.865503 
L 376.983766 249.865503 
L 376.983766 244.897559 
L 377.945725 244.897559 
L 377.945725 239.929615 
L 379.132462 239.929615 
L 379.132462 234.96167 
L 379.701449 234.96167 
L 379.701449 229.993726 
L 380.880374 229.993726 
L 380.880374 225.025782 
L 382.461119 225.025782 
L 382.461119 220.057837 
L 383.164858 220.057837 
L 383.164858 215.089893 
L 383.499474 215.089893 
L 383.499474 210.121949 
L 383.749104 210.121949 
L 383.749104 205.154005 
L 385.438593 205.154005 
L 385.438593 200.18606 
L 385.652852 200.18606 
L 385.652852 195.218116 
L 386.290653 195.218116 
L 386.290653 190.250172 
L 386.501616 190.250172 
L 386.501616 185.282227 
L 387.025504 185.282227 
L 387.025504 180.314283 
L 387.285584 180.314283 
L 387.285584 175.346339 
L 387.492764 175.346339 
L 387.492764 170.378394 
L 388.135207 170.378394 
L 388.135207 165.41045 
L 389.097539 165.41045 
L 389.097539 160.442506 
L 389.696746 160.442506 
L 389.696746 155.474561 
L 390.191135 155.474561 
L 390.191135 150.506617 
L 390.338587 150.506617 
L 390.436669 135.602784 
L 391.407966 135.602784 
L 391.407966 130.63484 
L 392.739531 130.63484 
L 392.739531 125.666895 
L 394.131241 125.666895 
L 394.131241 120.698951 
L 394.541964 120.698951 
L 394.541964 115.731007 
L 395.510867 115.731007 
L 395.510867 110.763062 
L 395.822668 110.763062 
L 395.822668 105.795118 
L 397.528141 105.795118 
L 397.528141 100.827174 
L 398.424981 100.827174 
L 398.424981 95.859229 
L 398.951937 95.859229 
L 398.951937 90.891285 
L 399.369889 90.891285 
L 399.369889 85.923341 
L 400.929694 85.923341 
L 400.929694 80.955397 
L 401.393133 80.955397 
L 401.393133 75.987452 
L 401.91235 75.987452 
L 401.91235 71.019508 
L 402.564359 71.019508 
L 402.564359 66.051564 
L 402.994768 66.051564 
L 402.994768 61.083619 
L 404.208949 61.083619 
L 404.208949 56.115675 
L 406.559574 56.115675 
L 406.559574 51.147731 
L 407.014231 51.147731 
L 407.014231 46.179786 
L 407.608668 46.179786 
L 407.608668 41.211842 
L 426.795304 41.211842 
L 426.795304 36.243898 
L 427.759288 36.243898 
L 427.759288 31.275953 
L 431.431107 31.275953 
L 431.431107 26.308009 
L 434.676002 26.308009 
L 434.676002 21.340065 
L 437.863706 21.340065 
L 437.863706 16.37212 
L 455.702351 16.37212 
L 455.702351 11.404176 
L 455.702351 11.404176 
L 561.068466 11.404176 
L 561.068466 11.404176 
" style="fill:none;stroke:#f5deb3;stroke-linecap:square;"/>
   </g>
   <g id="line2d_29">
    <path clip-path="url(#p24155e75bc)" d="M 444.879621 384 
L 444.879621 379.032056 
L 444.879621 379.032056 
L 444.879621 374.064111 
L 444.879621 374.064111 
L 444.879621 369.096167 
L 481.196457 369.096167 
L 481.196457 364.128223 
L 481.196457 364.128223 
L 481.196457 359.160278 
L 481.196457 359.160278 
L 481.196457 354.192334 
L 481.196457 354.192334 
L 481.196457 354.192334 
L 561.068466 354.192334 
" style="fill:none;stroke:#f5deb3;stroke-linecap:square;"/>
   </g>
   <g id="line2d_30"/>
   <g id="line2d_31">
    <path clip-path="url(#p24155e75bc)" d="M 5.141874 384 
L 5.141874 379.032056 
L 5.141874 379.032056 
L 5.141874 374.064111 
L 5.141874 374.064111 
L 5.141874 369.096167 
L 5.141874 369.096167 
L 5.141874 364.128223 
L 5.141874 364.128223 
L 5.141874 359.160278 
L 65.430228 359.160278 
L 65.430228 354.192334 
L 65.430228 354.192334 
L 65.430228 349.22439 
L 157.29274 349.22439 
L 157.29274 344.256445 
L 157.29274 344.256445 
L 157.29274 339.288501 
L 193.588188 339.288501 
L 193.588188 334.320557 
L 234.218993 334.320557 
L 234.218993 329.352612 
L 262.58815 329.352612 
L 262.58815 324.384668 
L 266.00381 324.384668 
L 266.00381 319.416724 
L 266.474859 319.416724 
L 266.474859 314.44878 
L 296.442751 314.44878 
L 296.442751 309.480835 
L 400.032061 309.480835 
L 400.032061 304.512891 
L 479.322956 304.512891 
L 479.322956 299.544947 
L 494.059833 299.544947 
L 494.059833 294.577002 
L 494.074661 294.577002 
L 494.074661 289.609058 
L 505.874986 289.609058 
L 505.874986 284.641114 
L 510.107663 284.641114 
L 510.107663 279.673169 
L 533.827304 279.673169 
L 533.827304 274.705225 
L 534.253138 274.705225 
L 534.253138 269.737281 
L 540.753518 269.737281 
L 540.753518 264.769336 
L 548.272531 264.769336 
L 548.272531 259.801392 
L 574.814471 259.801392 
L 574.814471 254.833448 
L 577 254.833448 
" style="fill:none;stroke:#000000;stroke-linecap:square;"/>
   </g>
   <g id="line2d_32">
    <path clip-path="url(#p24155e75bc)" d="M -37978.501233 756.595824 
" style="fill:none;stroke:#000000;stroke-linecap:square;"/>
   </g>
   <g id="line2d_33">
    <path clip-path="url(#p24155e75bc)" d="M 466.878356 384 
L 466.878356 379.032056 
L 510.33963 379.032056 
L 510.33963 374.064111 
L 519.677616 374.064111 
L 519.677616 369.096167 
L 534.303019 369.096167 
L 534.303019 364.128223 
L 540.633063 364.128223 
L 540.633063 359.160278 
L 543.120842 359.160278 
L 543.120842 354.192334 
L 552.771108 354.192334 
L 552.771108 349.22439 
L 557.887076 349.22439 
L 557.887076 344.256445 
L 560.709767 344.256445 
L 560.709767 339.288501 
L 561.71735 339.288501 
L 561.71735 334.320557 
L 563.19276 334.320557 
L 563.19276 329.352612 
L 571.589515 329.352612 
L 571.589515 324.384668 
L 571.814704 324.384668 
L 571.814704 319.416724 
L 571.86502 319.416724 
L 571.86502 314.44878 
L 576.182849 314.44878 
L 576.182849 309.480835 
L 577 309.480835 
" style="fill:none;stroke:#00bfbf;stroke-linecap:square;"/>
   </g>
   <g id="line2d_34">
    <path clip-path="url(#p24155e75bc)" d="M -37978.501233 756.595824 
" style="fill:none;stroke:#00bfbf;stroke-linecap:square;"/>
   </g>
   <g id="line2d_35"/>
   <g id="line2d_36"/>
   <g id="line2d_37">
    <path clip-path="url(#p24155e75bc)" d="M 560.936009 384 
L 560.936009 7.678218 
" style="fill:none;stroke:#000000;stroke-linecap:square;"/>
   </g>
   <g id="patch_3">
    <path d="M 55.425 7.678218 
L 561.068466 7.678218 
" style="fill:none;stroke:#000000;stroke-linecap:square;stroke-linejoin:miter;"/>
   </g>
   <g id="patch_4">
    <path d="M 561.068466 384 
L 561.068466 7.678218 
" style="fill:none;stroke:#000000;stroke-linecap:square;stroke-linejoin:miter;"/>
   </g>
   <g id="patch_5">
    <path d="M 55.425 384 
L 561.068466 384 
" style="fill:none;stroke:#000000;stroke-linecap:square;stroke-linejoin:miter;"/>
   </g>
   <g id="patch_6">
    <path d="M 55.425 384 
L 55.425 7.678218 
" style="fill:none;stroke:#000000;stroke-linecap:square;stroke-linejoin:miter;"/>
   </g>
   <g id="matplotlib.axis_1">
    <g id="xtick_1">
     <g id="line2d_38">
      <path clip-path="url(#p24155e75bc)" d="M 55.425 384 
L 55.425 7.678218 
" style="fill:none;stroke:#000000;stroke-dasharray:1.000000,3.000000;stroke-dashoffset:0.0;stroke-width:0.5;"/>
     </g>
     <g id="line2d_39">
      <defs>
       <path d="M 0 0 
L 0 -4 
" id="m3212a570f8" style="stroke:#000000;stroke-width:0.5;"/>
      </defs>
      <g>
       <use style="stroke:#000000;stroke-width:0.5;" x="55.425" xlink:href="#m3212a570f8" y="384.0"/>
      </g>
     </g>
     <g id="line2d_40">
      <defs>
       <path d="M 0 0 
L 0 4 
" id="m0f29ab6e3c" style="stroke:#000000;stroke-width:0.5;"/>
      </defs>
      <g>
       <use style="stroke:#000000;stroke-width:0.5;" x="55.425" xlink:href="#m0f29ab6e3c" y="7.67821782178"/>
      </g>
     </g>
     <g id="text_1">
      <!-- 0 -->
      <defs>
       <path d="M 31.78125 66.40625 
Q 24.171875 66.40625 20.328125 58.90625 
Q 16.5 51.421875 16.5 36.375 
Q 16.5 21.390625 20.328125 13.890625 
Q 24.171875 6.390625 31.78125 6.390625 
Q 39.453125 6.390625 43.28125 13.890625 
Q 47.125 21.390625 47.125 36.375 
Q 47.125 51.421875 43.28125 58.90625 
Q 39.453125 66.40625 31.78125 66.40625 
M 31.78125 74.21875 
Q 44.046875 74.21875 50.515625 64.515625 
Q 56.984375 54.828125 56.984375 36.375 
Q 56.984375 17.96875 50.515625 8.265625 
Q 44.046875 -1.421875 31.78125 -1.421875 
Q 19.53125 -1.421875 13.0625 8.265625 
Q 6.59375 17.96875 6.59375 36.375 
Q 6.59375 54.828125 13.0625 64.515625 
Q 19.53125 74.21875 31.78125 74.21875 
" id="BitstreamVeraSans-Roman-30"/>
      </defs>
      <g transform="translate(49.0625 403.196875)scale(0.2 -0.2)">
       <use xlink:href="#BitstreamVeraSans-Roman-30"/>
      </g>
     </g>
    </g>
    <g id="xtick_2">
     <g id="line2d_41">
      <path clip-path="url(#p24155e75bc)" d="M 181.783559 384 
L 181.783559 7.678218 
" style="fill:none;stroke:#000000;stroke-dasharray:1.000000,3.000000;stroke-dashoffset:0.0;stroke-width:0.5;"/>
     </g>
     <g id="line2d_42">
      <g>
       <use style="stroke:#000000;stroke-width:0.5;" x="181.783558915" xlink:href="#m3212a570f8" y="384.0"/>
      </g>
     </g>
     <g id="line2d_43">
      <g>
       <use style="stroke:#000000;stroke-width:0.5;" x="181.783558915" xlink:href="#m0f29ab6e3c" y="7.67821782178"/>
      </g>
     </g>
     <g id="text_2">
      <!-- 1 -->
      <defs>
       <path d="M 12.40625 8.296875 
L 28.515625 8.296875 
L 28.515625 63.921875 
L 10.984375 60.40625 
L 10.984375 69.390625 
L 28.421875 72.90625 
L 38.28125 72.90625 
L 38.28125 8.296875 
L 54.390625 8.296875 
L 54.390625 0 
L 12.40625 0 
z
" id="BitstreamVeraSans-Roman-31"/>
      </defs>
      <g transform="translate(175.421058915 403.196875)scale(0.2 -0.2)">
       <use xlink:href="#BitstreamVeraSans-Roman-31"/>
      </g>
     </g>
    </g>
    <g id="xtick_3">
     <g id="line2d_44">
      <path clip-path="url(#p24155e75bc)" d="M 308.142118 384 
L 308.142118 7.678218 
" style="fill:none;stroke:#000000;stroke-dasharray:1.000000,3.000000;stroke-dashoffset:0.0;stroke-width:0.5;"/>
     </g>
     <g id="line2d_45">
      <g>
       <use style="stroke:#000000;stroke-width:0.5;" x="308.14211783" xlink:href="#m3212a570f8" y="384.0"/>
      </g>
     </g>
     <g id="line2d_46">
      <g>
       <use style="stroke:#000000;stroke-width:0.5;" x="308.14211783" xlink:href="#m0f29ab6e3c" y="7.67821782178"/>
      </g>
     </g>
     <g id="text_3">
      <!-- 2 -->
      <defs>
       <path d="M 19.1875 8.296875 
L 53.609375 8.296875 
L 53.609375 0 
L 7.328125 0 
L 7.328125 8.296875 
Q 12.9375 14.109375 22.625 23.890625 
Q 32.328125 33.6875 34.8125 36.53125 
Q 39.546875 41.84375 41.421875 45.53125 
Q 43.3125 49.21875 43.3125 52.78125 
Q 43.3125 58.59375 39.234375 62.25 
Q 35.15625 65.921875 28.609375 65.921875 
Q 23.96875 65.921875 18.8125 64.3125 
Q 13.671875 62.703125 7.8125 59.421875 
L 7.8125 69.390625 
Q 13.765625 71.78125 18.9375 73 
Q 24.125 74.21875 28.421875 74.21875 
Q 39.75 74.21875 46.484375 68.546875 
Q 53.21875 62.890625 53.21875 53.421875 
Q 53.21875 48.921875 51.53125 44.890625 
Q 49.859375 40.875 45.40625 35.40625 
Q 44.1875 33.984375 37.640625 27.21875 
Q 31.109375 20.453125 19.1875 8.296875 
" id="BitstreamVeraSans-Roman-32"/>
      </defs>
      <g transform="translate(301.77961783 403.196875)scale(0.2 -0.2)">
       <use xlink:href="#BitstreamVeraSans-Roman-32"/>
      </g>
     </g>
    </g>
    <g id="xtick_4">
     <g id="line2d_47">
      <path clip-path="url(#p24155e75bc)" d="M 434.500677 384 
L 434.500677 7.678218 
" style="fill:none;stroke:#000000;stroke-dasharray:1.000000,3.000000;stroke-dashoffset:0.0;stroke-width:0.5;"/>
     </g>
     <g id="line2d_48">
      <g>
       <use style="stroke:#000000;stroke-width:0.5;" x="434.500676745" xlink:href="#m3212a570f8" y="384.0"/>
      </g>
     </g>
     <g id="line2d_49">
      <g>
       <use style="stroke:#000000;stroke-width:0.5;" x="434.500676745" xlink:href="#m0f29ab6e3c" y="7.67821782178"/>
      </g>
     </g>
     <g id="text_4">
      <!-- 3 -->
      <defs>
       <path d="M 40.578125 39.3125 
Q 47.65625 37.796875 51.625 33 
Q 55.609375 28.21875 55.609375 21.1875 
Q 55.609375 10.40625 48.1875 4.484375 
Q 40.765625 -1.421875 27.09375 -1.421875 
Q 22.515625 -1.421875 17.65625 -0.515625 
Q 12.796875 0.390625 7.625 2.203125 
L 7.625 11.71875 
Q 11.71875 9.328125 16.59375 8.109375 
Q 21.484375 6.890625 26.8125 6.890625 
Q 36.078125 6.890625 40.9375 10.546875 
Q 45.796875 14.203125 45.796875 21.1875 
Q 45.796875 27.640625 41.28125 31.265625 
Q 36.765625 34.90625 28.71875 34.90625 
L 20.21875 34.90625 
L 20.21875 43.015625 
L 29.109375 43.015625 
Q 36.375 43.015625 40.234375 45.921875 
Q 44.09375 48.828125 44.09375 54.296875 
Q 44.09375 59.90625 40.109375 62.90625 
Q 36.140625 65.921875 28.71875 65.921875 
Q 24.65625 65.921875 20.015625 65.03125 
Q 15.375 64.15625 9.8125 62.3125 
L 9.8125 71.09375 
Q 15.4375 72.65625 20.34375 73.4375 
Q 25.25 74.21875 29.59375 74.21875 
Q 40.828125 74.21875 47.359375 69.109375 
Q 53.90625 64.015625 53.90625 55.328125 
Q 53.90625 49.265625 50.4375 45.09375 
Q 46.96875 40.921875 40.578125 39.3125 
" id="BitstreamVeraSans-Roman-33"/>
      </defs>
      <g transform="translate(428.138176745 403.196875)scale(0.2 -0.2)">
       <use xlink:href="#BitstreamVeraSans-Roman-33"/>
      </g>
     </g>
    </g>
    <g id="xtick_5">
     <g id="line2d_50">
      <path clip-path="url(#p24155e75bc)" d="M 560.859236 384 
L 560.859236 7.678218 
" style="fill:none;stroke:#000000;stroke-dasharray:1.000000,3.000000;stroke-dashoffset:0.0;stroke-width:0.5;"/>
     </g>
     <g id="line2d_51">
      <g>
       <use style="stroke:#000000;stroke-width:0.5;" x="560.85923566" xlink:href="#m3212a570f8" y="384.0"/>
      </g>
     </g>
     <g id="line2d_52">
      <g>
       <use style="stroke:#000000;stroke-width:0.5;" x="560.85923566" xlink:href="#m0f29ab6e3c" y="7.67821782178"/>
      </g>
     </g>
     <g id="text_5">
      <!-- 4 -->
      <defs>
       <path d="M 37.796875 64.3125 
L 12.890625 25.390625 
L 37.796875 25.390625 
z
M 35.203125 72.90625 
L 47.609375 72.90625 
L 47.609375 25.390625 
L 58.015625 25.390625 
L 58.015625 17.1875 
L 47.609375 17.1875 
L 47.609375 0 
L 37.796875 0 
L 37.796875 17.1875 
L 4.890625 17.1875 
L 4.890625 26.703125 
z
" id="BitstreamVeraSans-Roman-34"/>
      </defs>
      <g transform="translate(554.49673566 403.196875)scale(0.2 -0.2)">
       <use xlink:href="#BitstreamVeraSans-Roman-34"/>
      </g>
     </g>
    </g>
    <g id="xtick_6">
     <g id="line2d_53">
      <defs>
       <path d="M 0 0 
L 0 -2 
" id="m59d2a86685" style="stroke:#000000;stroke-width:0.5;"/>
      </defs>
      <g>
       <use style="stroke:#000000;stroke-width:0.5;" x="93.4627164423" xlink:href="#m59d2a86685" y="384.0"/>
      </g>
     </g>
     <g id="line2d_54">
      <defs>
       <path d="M 0 0 
L 0 2 
" id="med4906a2ce" style="stroke:#000000;stroke-width:0.5;"/>
      </defs>
      <g>
       <use style="stroke:#000000;stroke-width:0.5;" x="93.4627164423" xlink:href="#med4906a2ce" y="7.67821782178"/>
      </g>
     </g>
    </g>
    <g id="xtick_7">
     <g id="line2d_55">
      <g>
       <use style="stroke:#000000;stroke-width:0.5;" x="115.713354174" xlink:href="#m59d2a86685" y="384.0"/>
      </g>
     </g>
     <g id="line2d_56">
      <g>
       <use style="stroke:#000000;stroke-width:0.5;" x="115.713354174" xlink:href="#med4906a2ce" y="7.67821782178"/>
      </g>
     </g>
    </g>
    <g id="xtick_8">
     <g id="line2d_57">
      <g>
       <use style="stroke:#000000;stroke-width:0.5;" x="131.500432885" xlink:href="#m59d2a86685" y="384.0"/>
      </g>
     </g>
     <g id="line2d_58">
      <g>
       <use style="stroke:#000000;stroke-width:0.5;" x="131.500432885" xlink:href="#med4906a2ce" y="7.67821782178"/>
      </g>
     </g>
    </g>
    <g id="xtick_9">
     <g id="line2d_59">
      <g>
       <use style="stroke:#000000;stroke-width:0.5;" x="143.745842473" xlink:href="#m59d2a86685" y="384.0"/>
      </g>
     </g>
     <g id="line2d_60">
      <g>
       <use style="stroke:#000000;stroke-width:0.5;" x="143.745842473" xlink:href="#med4906a2ce" y="7.67821782178"/>
      </g>
     </g>
    </g>
    <g id="xtick_10">
     <g id="line2d_61">
      <g>
       <use style="stroke:#000000;stroke-width:0.5;" x="153.751070616" xlink:href="#m59d2a86685" y="384.0"/>
      </g>
     </g>
     <g id="line2d_62">
      <g>
       <use style="stroke:#000000;stroke-width:0.5;" x="153.751070616" xlink:href="#med4906a2ce" y="7.67821782178"/>
      </g>
     </g>
    </g>
    <g id="xtick_11">
     <g id="line2d_63">
      <g>
       <use style="stroke:#000000;stroke-width:0.5;" x="162.210370478" xlink:href="#m59d2a86685" y="384.0"/>
      </g>
     </g>
     <g id="line2d_64">
      <g>
       <use style="stroke:#000000;stroke-width:0.5;" x="162.210370478" xlink:href="#med4906a2ce" y="7.67821782178"/>
      </g>
     </g>
    </g>
    <g id="xtick_12">
     <g id="line2d_65">
      <g>
       <use style="stroke:#000000;stroke-width:0.5;" x="169.538149327" xlink:href="#m59d2a86685" y="384.0"/>
      </g>
     </g>
     <g id="line2d_66">
      <g>
       <use style="stroke:#000000;stroke-width:0.5;" x="169.538149327" xlink:href="#med4906a2ce" y="7.67821782178"/>
      </g>
     </g>
    </g>
    <g id="xtick_13">
     <g id="line2d_67">
      <g>
       <use style="stroke:#000000;stroke-width:0.5;" x="176.001708348" xlink:href="#m59d2a86685" y="384.0"/>
      </g>
     </g>
     <g id="line2d_68">
      <g>
       <use style="stroke:#000000;stroke-width:0.5;" x="176.001708348" xlink:href="#med4906a2ce" y="7.67821782178"/>
      </g>
     </g>
    </g>
    <g id="xtick_14">
     <g id="line2d_69">
      <g>
       <use style="stroke:#000000;stroke-width:0.5;" x="219.821275357" xlink:href="#m59d2a86685" y="384.0"/>
      </g>
     </g>
     <g id="line2d_70">
      <g>
       <use style="stroke:#000000;stroke-width:0.5;" x="219.821275357" xlink:href="#med4906a2ce" y="7.67821782178"/>
      </g>
     </g>
    </g>
    <g id="xtick_15">
     <g id="line2d_71">
      <g>
       <use style="stroke:#000000;stroke-width:0.5;" x="242.071913089" xlink:href="#m59d2a86685" y="384.0"/>
      </g>
     </g>
     <g id="line2d_72">
      <g>
       <use style="stroke:#000000;stroke-width:0.5;" x="242.071913089" xlink:href="#med4906a2ce" y="7.67821782178"/>
      </g>
     </g>
    </g>
    <g id="xtick_16">
     <g id="line2d_73">
      <g>
       <use style="stroke:#000000;stroke-width:0.5;" x="257.858991799" xlink:href="#m59d2a86685" y="384.0"/>
      </g>
     </g>
     <g id="line2d_74">
      <g>
       <use style="stroke:#000000;stroke-width:0.5;" x="257.858991799" xlink:href="#med4906a2ce" y="7.67821782178"/>
      </g>
     </g>
    </g>
    <g id="xtick_17">
     <g id="line2d_75">
      <g>
       <use style="stroke:#000000;stroke-width:0.5;" x="270.104401388" xlink:href="#m59d2a86685" y="384.0"/>
      </g>
     </g>
     <g id="line2d_76">
      <g>
       <use style="stroke:#000000;stroke-width:0.5;" x="270.104401388" xlink:href="#med4906a2ce" y="7.67821782178"/>
      </g>
     </g>
    </g>
    <g id="xtick_18">
     <g id="line2d_77">
      <g>
       <use style="stroke:#000000;stroke-width:0.5;" x="280.109629531" xlink:href="#m59d2a86685" y="384.0"/>
      </g>
     </g>
     <g id="line2d_78">
      <g>
       <use style="stroke:#000000;stroke-width:0.5;" x="280.109629531" xlink:href="#med4906a2ce" y="7.67821782178"/>
      </g>
     </g>
    </g>
    <g id="xtick_19">
     <g id="line2d_79">
      <g>
       <use style="stroke:#000000;stroke-width:0.5;" x="288.568929393" xlink:href="#m59d2a86685" y="384.0"/>
      </g>
     </g>
     <g id="line2d_80">
      <g>
       <use style="stroke:#000000;stroke-width:0.5;" x="288.568929393" xlink:href="#med4906a2ce" y="7.67821782178"/>
      </g>
     </g>
    </g>
    <g id="xtick_20">
     <g id="line2d_81">
      <g>
       <use style="stroke:#000000;stroke-width:0.5;" x="295.896708242" xlink:href="#m59d2a86685" y="384.0"/>
      </g>
     </g>
     <g id="line2d_82">
      <g>
       <use style="stroke:#000000;stroke-width:0.5;" x="295.896708242" xlink:href="#med4906a2ce" y="7.67821782178"/>
      </g>
     </g>
    </g>
    <g id="xtick_21">
     <g id="line2d_83">
      <g>
       <use style="stroke:#000000;stroke-width:0.5;" x="302.360267263" xlink:href="#m59d2a86685" y="384.0"/>
      </g>
     </g>
     <g id="line2d_84">
      <g>
       <use style="stroke:#000000;stroke-width:0.5;" x="302.360267263" xlink:href="#med4906a2ce" y="7.67821782178"/>
      </g>
     </g>
    </g>
    <g id="xtick_22">
     <g id="line2d_85">
      <g>
       <use style="stroke:#000000;stroke-width:0.5;" x="346.179834272" xlink:href="#m59d2a86685" y="384.0"/>
      </g>
     </g>
     <g id="line2d_86">
      <g>
       <use style="stroke:#000000;stroke-width:0.5;" x="346.179834272" xlink:href="#med4906a2ce" y="7.67821782178"/>
      </g>
     </g>
    </g>
    <g id="xtick_23">
     <g id="line2d_87">
      <g>
       <use style="stroke:#000000;stroke-width:0.5;" x="368.430472004" xlink:href="#m59d2a86685" y="384.0"/>
      </g>
     </g>
     <g id="line2d_88">
      <g>
       <use style="stroke:#000000;stroke-width:0.5;" x="368.430472004" xlink:href="#med4906a2ce" y="7.67821782178"/>
      </g>
     </g>
    </g>
    <g id="xtick_24">
     <g id="line2d_89">
      <g>
       <use style="stroke:#000000;stroke-width:0.5;" x="384.217550714" xlink:href="#m59d2a86685" y="384.0"/>
      </g>
     </g>
     <g id="line2d_90">
      <g>
       <use style="stroke:#000000;stroke-width:0.5;" x="384.217550714" xlink:href="#med4906a2ce" y="7.67821782178"/>
      </g>
     </g>
    </g>
    <g id="xtick_25">
     <g id="line2d_91">
      <g>
       <use style="stroke:#000000;stroke-width:0.5;" x="396.462960302" xlink:href="#m59d2a86685" y="384.0"/>
      </g>
     </g>
     <g id="line2d_92">
      <g>
       <use style="stroke:#000000;stroke-width:0.5;" x="396.462960302" xlink:href="#med4906a2ce" y="7.67821782178"/>
      </g>
     </g>
    </g>
    <g id="xtick_26">
     <g id="line2d_93">
      <g>
       <use style="stroke:#000000;stroke-width:0.5;" x="406.468188446" xlink:href="#m59d2a86685" y="384.0"/>
      </g>
     </g>
     <g id="line2d_94">
      <g>
       <use style="stroke:#000000;stroke-width:0.5;" x="406.468188446" xlink:href="#med4906a2ce" y="7.67821782178"/>
      </g>
     </g>
    </g>
    <g id="xtick_27">
     <g id="line2d_95">
      <g>
       <use style="stroke:#000000;stroke-width:0.5;" x="414.927488308" xlink:href="#m59d2a86685" y="384.0"/>
      </g>
     </g>
     <g id="line2d_96">
      <g>
       <use style="stroke:#000000;stroke-width:0.5;" x="414.927488308" xlink:href="#med4906a2ce" y="7.67821782178"/>
      </g>
     </g>
    </g>
    <g id="xtick_28">
     <g id="line2d_97">
      <g>
       <use style="stroke:#000000;stroke-width:0.5;" x="422.255267157" xlink:href="#m59d2a86685" y="384.0"/>
      </g>
     </g>
     <g id="line2d_98">
      <g>
       <use style="stroke:#000000;stroke-width:0.5;" x="422.255267157" xlink:href="#med4906a2ce" y="7.67821782178"/>
      </g>
     </g>
    </g>
    <g id="xtick_29">
     <g id="line2d_99">
      <g>
       <use style="stroke:#000000;stroke-width:0.5;" x="428.718826178" xlink:href="#m59d2a86685" y="384.0"/>
      </g>
     </g>
     <g id="line2d_100">
      <g>
       <use style="stroke:#000000;stroke-width:0.5;" x="428.718826178" xlink:href="#med4906a2ce" y="7.67821782178"/>
      </g>
     </g>
    </g>
    <g id="xtick_30">
     <g id="line2d_101">
      <g>
       <use style="stroke:#000000;stroke-width:0.5;" x="472.538393187" xlink:href="#m59d2a86685" y="384.0"/>
      </g>
     </g>
     <g id="line2d_102">
      <g>
       <use style="stroke:#000000;stroke-width:0.5;" x="472.538393187" xlink:href="#med4906a2ce" y="7.67821782178"/>
      </g>
     </g>
    </g>
    <g id="xtick_31">
     <g id="line2d_103">
      <g>
       <use style="stroke:#000000;stroke-width:0.5;" x="494.789030919" xlink:href="#m59d2a86685" y="384.0"/>
      </g>
     </g>
     <g id="line2d_104">
      <g>
       <use style="stroke:#000000;stroke-width:0.5;" x="494.789030919" xlink:href="#med4906a2ce" y="7.67821782178"/>
      </g>
     </g>
    </g>
    <g id="xtick_32">
     <g id="line2d_105">
      <g>
       <use style="stroke:#000000;stroke-width:0.5;" x="510.576109629" xlink:href="#m59d2a86685" y="384.0"/>
      </g>
     </g>
     <g id="line2d_106">
      <g>
       <use style="stroke:#000000;stroke-width:0.5;" x="510.576109629" xlink:href="#med4906a2ce" y="7.67821782178"/>
      </g>
     </g>
    </g>
    <g id="xtick_33">
     <g id="line2d_107">
      <g>
       <use style="stroke:#000000;stroke-width:0.5;" x="522.821519217" xlink:href="#m59d2a86685" y="384.0"/>
      </g>
     </g>
     <g id="line2d_108">
      <g>
       <use style="stroke:#000000;stroke-width:0.5;" x="522.821519217" xlink:href="#med4906a2ce" y="7.67821782178"/>
      </g>
     </g>
    </g>
    <g id="xtick_34">
     <g id="line2d_109">
      <g>
       <use style="stroke:#000000;stroke-width:0.5;" x="532.826747361" xlink:href="#m59d2a86685" y="384.0"/>
      </g>
     </g>
     <g id="line2d_110">
      <g>
       <use style="stroke:#000000;stroke-width:0.5;" x="532.826747361" xlink:href="#med4906a2ce" y="7.67821782178"/>
      </g>
     </g>
    </g>
    <g id="xtick_35">
     <g id="line2d_111">
      <g>
       <use style="stroke:#000000;stroke-width:0.5;" x="541.286047223" xlink:href="#m59d2a86685" y="384.0"/>
      </g>
     </g>
     <g id="line2d_112">
      <g>
       <use style="stroke:#000000;stroke-width:0.5;" x="541.286047223" xlink:href="#med4906a2ce" y="7.67821782178"/>
      </g>
     </g>
    </g>
    <g id="xtick_36">
     <g id="line2d_113">
      <g>
       <use style="stroke:#000000;stroke-width:0.5;" x="548.613826072" xlink:href="#m59d2a86685" y="384.0"/>
      </g>
     </g>
     <g id="line2d_114">
      <g>
       <use style="stroke:#000000;stroke-width:0.5;" x="548.613826072" xlink:href="#med4906a2ce" y="7.67821782178"/>
      </g>
     </g>
    </g>
    <g id="xtick_37">
     <g id="line2d_115">
      <g>
       <use style="stroke:#000000;stroke-width:0.5;" x="555.077385093" xlink:href="#m59d2a86685" y="384.0"/>
      </g>
     </g>
     <g id="line2d_116">
      <g>
       <use style="stroke:#000000;stroke-width:0.5;" x="555.077385093" xlink:href="#med4906a2ce" y="7.67821782178"/>
      </g>
     </g>
    </g>
    <g id="text_6">
     <!-- log10 of FEvals / DIM -->
     <defs>
      <path id="BitstreamVeraSans-Roman-20"/>
      <path d="M 9.8125 72.90625 
L 24.515625 72.90625 
L 43.109375 23.296875 
L 61.8125 72.90625 
L 76.515625 72.90625 
L 76.515625 0 
L 66.890625 0 
L 66.890625 64.015625 
L 48.09375 14.015625 
L 38.1875 14.015625 
L 19.390625 64.015625 
L 19.390625 0 
L 9.8125 0 
z
" id="BitstreamVeraSans-Roman-4d"/>
      <path d="M 30.609375 48.390625 
Q 23.390625 48.390625 19.1875 42.75 
Q 14.984375 37.109375 14.984375 27.296875 
Q 14.984375 17.484375 19.15625 11.84375 
Q 23.34375 6.203125 30.609375 6.203125 
Q 37.796875 6.203125 41.984375 11.859375 
Q 46.1875 17.53125 46.1875 27.296875 
Q 46.1875 37.015625 41.984375 42.703125 
Q 37.796875 48.390625 30.609375 48.390625 
M 30.609375 56 
Q 42.328125 56 49.015625 48.375 
Q 55.71875 40.765625 55.71875 27.296875 
Q 55.71875 13.875 49.015625 6.21875 
Q 42.328125 -1.421875 30.609375 -1.421875 
Q 18.84375 -1.421875 12.171875 6.21875 
Q 5.515625 13.875 5.515625 27.296875 
Q 5.515625 40.765625 12.171875 48.375 
Q 18.84375 56 30.609375 56 
" id="BitstreamVeraSans-Roman-6f"/>
      <path d="M 9.421875 75.984375 
L 18.40625 75.984375 
L 18.40625 0 
L 9.421875 0 
z
" id="BitstreamVeraSans-Roman-6c"/>
      <path d="M 9.8125 72.90625 
L 51.703125 72.90625 
L 51.703125 64.59375 
L 19.671875 64.59375 
L 19.671875 43.109375 
L 48.578125 43.109375 
L 48.578125 34.8125 
L 19.671875 34.8125 
L 19.671875 0 
L 9.8125 0 
z
" id="BitstreamVeraSans-Roman-46"/>
      <path d="M 9.8125 72.90625 
L 55.90625 72.90625 
L 55.90625 64.59375 
L 19.671875 64.59375 
L 19.671875 43.015625 
L 54.390625 43.015625 
L 54.390625 34.71875 
L 19.671875 34.71875 
L 19.671875 8.296875 
L 56.78125 8.296875 
L 56.78125 0 
L 9.8125 0 
z
" id="BitstreamVeraSans-Roman-45"/>
      <path d="M 19.671875 64.796875 
L 19.671875 8.109375 
L 31.59375 8.109375 
Q 46.6875 8.109375 53.6875 14.9375 
Q 60.6875 21.78125 60.6875 36.53125 
Q 60.6875 51.171875 53.6875 57.984375 
Q 46.6875 64.796875 31.59375 64.796875 
z
M 9.8125 72.90625 
L 30.078125 72.90625 
Q 51.265625 72.90625 61.171875 64.09375 
Q 71.09375 55.28125 71.09375 36.53125 
Q 71.09375 17.671875 61.125 8.828125 
Q 51.171875 0 30.078125 0 
L 9.8125 0 
z
" id="BitstreamVeraSans-Roman-44"/>
      <path d="M 25.390625 72.90625 
L 33.6875 72.90625 
L 8.296875 -9.28125 
L 0 -9.28125 
z
" id="BitstreamVeraSans-Roman-2f"/>
      <path d="M 2.984375 54.6875 
L 12.5 54.6875 
L 29.59375 8.796875 
L 46.6875 54.6875 
L 56.203125 54.6875 
L 35.6875 0 
L 23.484375 0 
z
" id="BitstreamVeraSans-Roman-76"/>
      <path d="M 45.40625 27.984375 
Q 45.40625 37.75 41.375 43.109375 
Q 37.359375 48.484375 30.078125 48.484375 
Q 22.859375 48.484375 18.828125 43.109375 
Q 14.796875 37.75 14.796875 27.984375 
Q 14.796875 18.265625 18.828125 12.890625 
Q 22.859375 7.515625 30.078125 7.515625 
Q 37.359375 7.515625 41.375 12.890625 
Q 45.40625 18.265625 45.40625 27.984375 
M 54.390625 6.78125 
Q 54.390625 -7.171875 48.1875 -13.984375 
Q 42 -20.796875 29.203125 -20.796875 
Q 24.46875 -20.796875 20.265625 -20.09375 
Q 16.0625 -19.390625 12.109375 -17.921875 
L 12.109375 -9.1875 
Q 16.0625 -11.328125 19.921875 -12.34375 
Q 23.78125 -13.375 27.78125 -13.375 
Q 36.625 -13.375 41.015625 -8.765625 
Q 45.40625 -4.15625 45.40625 5.171875 
L 45.40625 9.625 
Q 42.625 4.78125 38.28125 2.390625 
Q 33.9375 0 27.875 0 
Q 17.828125 0 11.671875 7.65625 
Q 5.515625 15.328125 5.515625 27.984375 
Q 5.515625 40.671875 11.671875 48.328125 
Q 17.828125 56 27.875 56 
Q 33.9375 56 38.28125 53.609375 
Q 42.625 51.21875 45.40625 46.390625 
L 45.40625 54.6875 
L 54.390625 54.6875 
z
" id="BitstreamVeraSans-Roman-67"/>
      <path d="M 37.109375 75.984375 
L 37.109375 68.5 
L 28.515625 68.5 
Q 23.6875 68.5 21.796875 66.546875 
Q 19.921875 64.59375 19.921875 59.515625 
L 19.921875 54.6875 
L 34.71875 54.6875 
L 34.71875 47.703125 
L 19.921875 47.703125 
L 19.921875 0 
L 10.890625 0 
L 10.890625 47.703125 
L 2.296875 47.703125 
L 2.296875 54.6875 
L 10.890625 54.6875 
L 10.890625 58.5 
Q 10.890625 67.625 15.140625 71.796875 
Q 19.390625 75.984375 28.609375 75.984375 
z
" id="BitstreamVeraSans-Roman-66"/>
      <path d="M 34.28125 27.484375 
Q 23.390625 27.484375 19.1875 25 
Q 14.984375 22.515625 14.984375 16.5 
Q 14.984375 11.71875 18.140625 8.90625 
Q 21.296875 6.109375 26.703125 6.109375 
Q 34.1875 6.109375 38.703125 11.40625 
Q 43.21875 16.703125 43.21875 25.484375 
L 43.21875 27.484375 
z
M 52.203125 31.203125 
L 52.203125 0 
L 43.21875 0 
L 43.21875 8.296875 
Q 40.140625 3.328125 35.546875 0.953125 
Q 30.953125 -1.421875 24.3125 -1.421875 
Q 15.921875 -1.421875 10.953125 3.296875 
Q 6 8.015625 6 15.921875 
Q 6 25.140625 12.171875 29.828125 
Q 18.359375 34.515625 30.609375 34.515625 
L 43.21875 34.515625 
L 43.21875 35.40625 
Q 43.21875 41.609375 39.140625 45 
Q 35.0625 48.390625 27.6875 48.390625 
Q 23 48.390625 18.546875 47.265625 
Q 14.109375 46.140625 10.015625 43.890625 
L 10.015625 52.203125 
Q 14.9375 54.109375 19.578125 55.046875 
Q 24.21875 56 28.609375 56 
Q 40.484375 56 46.34375 49.84375 
Q 52.203125 43.703125 52.203125 31.203125 
" id="BitstreamVeraSans-Roman-61"/>
      <path d="M 44.28125 53.078125 
L 44.28125 44.578125 
Q 40.484375 46.53125 36.375 47.5 
Q 32.28125 48.484375 27.875 48.484375 
Q 21.1875 48.484375 17.84375 46.4375 
Q 14.5 44.390625 14.5 40.28125 
Q 14.5 37.15625 16.890625 35.375 
Q 19.28125 33.59375 26.515625 31.984375 
L 29.59375 31.296875 
Q 39.15625 29.25 43.1875 25.515625 
Q 47.21875 21.78125 47.21875 15.09375 
Q 47.21875 7.46875 41.1875 3.015625 
Q 35.15625 -1.421875 24.609375 -1.421875 
Q 20.21875 -1.421875 15.453125 -0.5625 
Q 10.6875 0.296875 5.421875 2 
L 5.421875 11.28125 
Q 10.40625 8.6875 15.234375 7.390625 
Q 20.0625 6.109375 24.8125 6.109375 
Q 31.15625 6.109375 34.5625 8.28125 
Q 37.984375 10.453125 37.984375 14.40625 
Q 37.984375 18.0625 35.515625 20.015625 
Q 33.0625 21.96875 24.703125 23.78125 
L 21.578125 24.515625 
Q 13.234375 26.265625 9.515625 29.90625 
Q 5.8125 33.546875 5.8125 39.890625 
Q 5.8125 47.609375 11.28125 51.796875 
Q 16.75 56 26.8125 56 
Q 31.78125 56 36.171875 55.265625 
Q 40.578125 54.546875 44.28125 53.078125 
" id="BitstreamVeraSans-Roman-73"/>
      <path d="M 9.8125 72.90625 
L 19.671875 72.90625 
L 19.671875 0 
L 9.8125 0 
z
" id="BitstreamVeraSans-Roman-49"/>
     </defs>
     <g transform="translate(203.173295378 427.553125)scale(0.2 -0.2)">
      <use xlink:href="#BitstreamVeraSans-Roman-6c"/>
      <use x="27.783203125" xlink:href="#BitstreamVeraSans-Roman-6f"/>
      <use x="88.96484375" xlink:href="#BitstreamVeraSans-Roman-67"/>
      <use x="152.44140625" xlink:href="#BitstreamVeraSans-Roman-31"/>
      <use x="216.064453125" xlink:href="#BitstreamVeraSans-Roman-30"/>
      <use x="279.6875" xlink:href="#BitstreamVeraSans-Roman-20"/>
      <use x="311.474609375" xlink:href="#BitstreamVeraSans-Roman-6f"/>
      <use x="372.65625" xlink:href="#BitstreamVeraSans-Roman-66"/>
      <use x="407.861328125" xlink:href="#BitstreamVeraSans-Roman-20"/>
      <use x="439.6484375" xlink:href="#BitstreamVeraSans-Roman-46"/>
      <use x="497.16796875" xlink:href="#BitstreamVeraSans-Roman-45"/>
      <use x="560.3515625" xlink:href="#BitstreamVeraSans-Roman-76"/>
      <use x="619.53125" xlink:href="#BitstreamVeraSans-Roman-61"/>
      <use x="680.810546875" xlink:href="#BitstreamVeraSans-Roman-6c"/>
      <use x="708.59375" xlink:href="#BitstreamVeraSans-Roman-73"/>
      <use x="760.693359375" xlink:href="#BitstreamVeraSans-Roman-20"/>
      <use x="792.48046875" xlink:href="#BitstreamVeraSans-Roman-2f"/>
      <use x="826.171875" xlink:href="#BitstreamVeraSans-Roman-20"/>
      <use x="857.958984375" xlink:href="#BitstreamVeraSans-Roman-44"/>
      <use x="934.9609375" xlink:href="#BitstreamVeraSans-Roman-49"/>
      <use x="964.453125" xlink:href="#BitstreamVeraSans-Roman-4d"/>
     </g>
    </g>
   </g>
   <g id="matplotlib.axis_2">
    <g id="ytick_1">
     <g id="line2d_117">
      <path clip-path="url(#p24155e75bc)" d="M 55.425 384 
L 561.068466 384 
" style="fill:none;stroke:#000000;stroke-dasharray:1.000000,3.000000;stroke-dashoffset:0.0;stroke-width:0.5;"/>
     </g>
     <g id="line2d_118">
      <defs>
       <path d="M 0 0 
L 4 0 
" id="m0c6b913480" style="stroke:#000000;stroke-width:0.5;"/>
      </defs>
      <g>
       <use style="stroke:#000000;stroke-width:0.5;" x="55.425" xlink:href="#m0c6b913480" y="384.0"/>
      </g>
     </g>
     <g id="line2d_119">
      <defs>
       <path d="M 0 0 
L -4 0 
" id="mcfdf41edcd" style="stroke:#000000;stroke-width:0.5;"/>
      </defs>
      <g>
       <use style="stroke:#000000;stroke-width:0.5;" x="561.068465755" xlink:href="#mcfdf41edcd" y="384.0"/>
      </g>
     </g>
     <g id="text_7">
      <!-- 0.0 -->
      <defs>
       <path d="M 10.6875 12.40625 
L 21 12.40625 
L 21 0 
L 10.6875 0 
z
" id="BitstreamVeraSans-Roman-2e"/>
      </defs>
      <g transform="translate(25.98 388.415)scale(0.16 -0.16)">
       <use xlink:href="#BitstreamVeraSans-Roman-30"/>
       <use x="63.623046875" xlink:href="#BitstreamVeraSans-Roman-2e"/>
       <use x="95.41015625" xlink:href="#BitstreamVeraSans-Roman-30"/>
      </g>
     </g>
    </g>
    <g id="ytick_2">
     <g id="line2d_120">
      <path clip-path="url(#p24155e75bc)" d="M 55.425 309.480835 
L 561.068466 309.480835 
" style="fill:none;stroke:#000000;stroke-dasharray:1.000000,3.000000;stroke-dashoffset:0.0;stroke-width:0.5;"/>
     </g>
     <g id="line2d_121">
      <g>
       <use style="stroke:#000000;stroke-width:0.5;" x="55.425" xlink:href="#m0c6b913480" y="309.480835212"/>
      </g>
     </g>
     <g id="line2d_122">
      <g>
       <use style="stroke:#000000;stroke-width:0.5;" x="561.068465755" xlink:href="#mcfdf41edcd" y="309.480835212"/>
      </g>
     </g>
     <g id="text_8">
      <!-- 0.2 -->
      <g transform="translate(25.98 313.895835212)scale(0.16 -0.16)">
       <use xlink:href="#BitstreamVeraSans-Roman-30"/>
       <use x="63.623046875" xlink:href="#BitstreamVeraSans-Roman-2e"/>
       <use x="95.41015625" xlink:href="#BitstreamVeraSans-Roman-32"/>
      </g>
     </g>
    </g>
    <g id="ytick_3">
     <g id="line2d_123">
      <path clip-path="url(#p24155e75bc)" d="M 55.425 234.96167 
L 561.068466 234.96167 
" style="fill:none;stroke:#000000;stroke-dasharray:1.000000,3.000000;stroke-dashoffset:0.0;stroke-width:0.5;"/>
     </g>
     <g id="line2d_124">
      <g>
       <use style="stroke:#000000;stroke-width:0.5;" x="55.425" xlink:href="#m0c6b913480" y="234.961670424"/>
      </g>
     </g>
     <g id="line2d_125">
      <g>
       <use style="stroke:#000000;stroke-width:0.5;" x="561.068465755" xlink:href="#mcfdf41edcd" y="234.961670424"/>
      </g>
     </g>
     <g id="text_9">
      <!-- 0.4 -->
      <g transform="translate(25.98 239.376670424)scale(0.16 -0.16)">
       <use xlink:href="#BitstreamVeraSans-Roman-30"/>
       <use x="63.623046875" xlink:href="#BitstreamVeraSans-Roman-2e"/>
       <use x="95.41015625" xlink:href="#BitstreamVeraSans-Roman-34"/>
      </g>
     </g>
    </g>
    <g id="ytick_4">
     <g id="line2d_126">
      <path clip-path="url(#p24155e75bc)" d="M 55.425 160.442506 
L 561.068466 160.442506 
" style="fill:none;stroke:#000000;stroke-dasharray:1.000000,3.000000;stroke-dashoffset:0.0;stroke-width:0.5;"/>
     </g>
     <g id="line2d_127">
      <g>
       <use style="stroke:#000000;stroke-width:0.5;" x="55.425" xlink:href="#m0c6b913480" y="160.442505637"/>
      </g>
     </g>
     <g id="line2d_128">
      <g>
       <use style="stroke:#000000;stroke-width:0.5;" x="561.068465755" xlink:href="#mcfdf41edcd" y="160.442505637"/>
      </g>
     </g>
     <g id="text_10">
      <!-- 0.6 -->
      <defs>
       <path d="M 33.015625 40.375 
Q 26.375 40.375 22.484375 35.828125 
Q 18.609375 31.296875 18.609375 23.390625 
Q 18.609375 15.53125 22.484375 10.953125 
Q 26.375 6.390625 33.015625 6.390625 
Q 39.65625 6.390625 43.53125 10.953125 
Q 47.40625 15.53125 47.40625 23.390625 
Q 47.40625 31.296875 43.53125 35.828125 
Q 39.65625 40.375 33.015625 40.375 
M 52.59375 71.296875 
L 52.59375 62.3125 
Q 48.875 64.0625 45.09375 64.984375 
Q 41.3125 65.921875 37.59375 65.921875 
Q 27.828125 65.921875 22.671875 59.328125 
Q 17.53125 52.734375 16.796875 39.40625 
Q 19.671875 43.65625 24.015625 45.921875 
Q 28.375 48.1875 33.59375 48.1875 
Q 44.578125 48.1875 50.953125 41.515625 
Q 57.328125 34.859375 57.328125 23.390625 
Q 57.328125 12.15625 50.6875 5.359375 
Q 44.046875 -1.421875 33.015625 -1.421875 
Q 20.359375 -1.421875 13.671875 8.265625 
Q 6.984375 17.96875 6.984375 36.375 
Q 6.984375 53.65625 15.1875 63.9375 
Q 23.390625 74.21875 37.203125 74.21875 
Q 40.921875 74.21875 44.703125 73.484375 
Q 48.484375 72.75 52.59375 71.296875 
" id="BitstreamVeraSans-Roman-36"/>
      </defs>
      <g transform="translate(25.98 164.857505637)scale(0.16 -0.16)">
       <use xlink:href="#BitstreamVeraSans-Roman-30"/>
       <use x="63.623046875" xlink:href="#BitstreamVeraSans-Roman-2e"/>
       <use x="95.41015625" xlink:href="#BitstreamVeraSans-Roman-36"/>
      </g>
     </g>
    </g>
    <g id="ytick_5">
     <g id="line2d_129">
      <path clip-path="url(#p24155e75bc)" d="M 55.425 85.923341 
L 561.068466 85.923341 
" style="fill:none;stroke:#000000;stroke-dasharray:1.000000,3.000000;stroke-dashoffset:0.0;stroke-width:0.5;"/>
     </g>
     <g id="line2d_130">
      <g>
       <use style="stroke:#000000;stroke-width:0.5;" x="55.425" xlink:href="#m0c6b913480" y="85.9233408489"/>
      </g>
     </g>
     <g id="line2d_131">
      <g>
       <use style="stroke:#000000;stroke-width:0.5;" x="561.068465755" xlink:href="#mcfdf41edcd" y="85.9233408489"/>
      </g>
     </g>
     <g id="text_11">
      <!-- 0.8 -->
      <defs>
       <path d="M 31.78125 34.625 
Q 24.75 34.625 20.71875 30.859375 
Q 16.703125 27.09375 16.703125 20.515625 
Q 16.703125 13.921875 20.71875 10.15625 
Q 24.75 6.390625 31.78125 6.390625 
Q 38.8125 6.390625 42.859375 10.171875 
Q 46.921875 13.96875 46.921875 20.515625 
Q 46.921875 27.09375 42.890625 30.859375 
Q 38.875 34.625 31.78125 34.625 
M 21.921875 38.8125 
Q 15.578125 40.375 12.03125 44.71875 
Q 8.5 49.078125 8.5 55.328125 
Q 8.5 64.0625 14.71875 69.140625 
Q 20.953125 74.21875 31.78125 74.21875 
Q 42.671875 74.21875 48.875 69.140625 
Q 55.078125 64.0625 55.078125 55.328125 
Q 55.078125 49.078125 51.53125 44.71875 
Q 48 40.375 41.703125 38.8125 
Q 48.828125 37.15625 52.796875 32.3125 
Q 56.78125 27.484375 56.78125 20.515625 
Q 56.78125 9.90625 50.3125 4.234375 
Q 43.84375 -1.421875 31.78125 -1.421875 
Q 19.734375 -1.421875 13.25 4.234375 
Q 6.78125 9.90625 6.78125 20.515625 
Q 6.78125 27.484375 10.78125 32.3125 
Q 14.796875 37.15625 21.921875 38.8125 
M 18.3125 54.390625 
Q 18.3125 48.734375 21.84375 45.5625 
Q 25.390625 42.390625 31.78125 42.390625 
Q 38.140625 42.390625 41.71875 45.5625 
Q 45.3125 48.734375 45.3125 54.390625 
Q 45.3125 60.0625 41.71875 63.234375 
Q 38.140625 66.40625 31.78125 66.40625 
Q 25.390625 66.40625 21.84375 63.234375 
Q 18.3125 60.0625 18.3125 54.390625 
" id="BitstreamVeraSans-Roman-38"/>
      </defs>
      <g transform="translate(25.98 90.3383408489)scale(0.16 -0.16)">
       <use xlink:href="#BitstreamVeraSans-Roman-30"/>
       <use x="63.623046875" xlink:href="#BitstreamVeraSans-Roman-2e"/>
       <use x="95.41015625" xlink:href="#BitstreamVeraSans-Roman-38"/>
      </g>
     </g>
    </g>
    <g id="ytick_6">
     <g id="line2d_132">
      <path clip-path="url(#p24155e75bc)" d="M 55.425 11.404176 
L 561.068466 11.404176 
" style="fill:none;stroke:#000000;stroke-dasharray:1.000000,3.000000;stroke-dashoffset:0.0;stroke-width:0.5;"/>
     </g>
     <g id="line2d_133">
      <g>
       <use style="stroke:#000000;stroke-width:0.5;" x="55.425" xlink:href="#m0c6b913480" y="11.4041760612"/>
      </g>
     </g>
     <g id="line2d_134">
      <g>
       <use style="stroke:#000000;stroke-width:0.5;" x="561.068465755" xlink:href="#mcfdf41edcd" y="11.4041760612"/>
      </g>
     </g>
     <g id="text_12">
      <!-- 1.0 -->
      <g transform="translate(25.98 15.8191760612)scale(0.16 -0.16)">
       <use xlink:href="#BitstreamVeraSans-Roman-31"/>
       <use x="63.623046875" xlink:href="#BitstreamVeraSans-Roman-2e"/>
       <use x="95.41015625" xlink:href="#BitstreamVeraSans-Roman-30"/>
      </g>
     </g>
    </g>
    <g id="text_13">
     <!-- proportion of trials -->
     <defs>
      <path d="M 54.890625 33.015625 
L 54.890625 0 
L 45.90625 0 
L 45.90625 32.71875 
Q 45.90625 40.484375 42.875 44.328125 
Q 39.84375 48.1875 33.796875 48.1875 
Q 26.515625 48.1875 22.3125 43.546875 
Q 18.109375 38.921875 18.109375 30.90625 
L 18.109375 0 
L 9.078125 0 
L 9.078125 54.6875 
L 18.109375 54.6875 
L 18.109375 46.1875 
Q 21.34375 51.125 25.703125 53.5625 
Q 30.078125 56 35.796875 56 
Q 45.21875 56 50.046875 50.171875 
Q 54.890625 44.34375 54.890625 33.015625 
" id="BitstreamVeraSans-Roman-6e"/>
      <path d="M 9.421875 54.6875 
L 18.40625 54.6875 
L 18.40625 0 
L 9.421875 0 
z
M 9.421875 75.984375 
L 18.40625 75.984375 
L 18.40625 64.59375 
L 9.421875 64.59375 
z
" id="BitstreamVeraSans-Roman-69"/>
      <path d="M 18.3125 70.21875 
L 18.3125 54.6875 
L 36.8125 54.6875 
L 36.8125 47.703125 
L 18.3125 47.703125 
L 18.3125 18.015625 
Q 18.3125 11.328125 20.140625 9.421875 
Q 21.96875 7.515625 27.59375 7.515625 
L 36.8125 7.515625 
L 36.8125 0 
L 27.59375 0 
Q 17.1875 0 13.234375 3.875 
Q 9.28125 7.765625 9.28125 18.015625 
L 9.28125 47.703125 
L 2.6875 47.703125 
L 2.6875 54.6875 
L 9.28125 54.6875 
L 9.28125 70.21875 
z
" id="BitstreamVeraSans-Roman-74"/>
      <path d="M 41.109375 46.296875 
Q 39.59375 47.171875 37.8125 47.578125 
Q 36.03125 48 33.890625 48 
Q 26.265625 48 22.1875 43.046875 
Q 18.109375 38.09375 18.109375 28.8125 
L 18.109375 0 
L 9.078125 0 
L 9.078125 54.6875 
L 18.109375 54.6875 
L 18.109375 46.1875 
Q 20.953125 51.171875 25.484375 53.578125 
Q 30.03125 56 36.53125 56 
Q 37.453125 56 38.578125 55.875 
Q 39.703125 55.765625 41.0625 55.515625 
z
" id="BitstreamVeraSans-Roman-72"/>
      <path d="M 18.109375 8.203125 
L 18.109375 -20.796875 
L 9.078125 -20.796875 
L 9.078125 54.6875 
L 18.109375 54.6875 
L 18.109375 46.390625 
Q 20.953125 51.265625 25.265625 53.625 
Q 29.59375 56 35.59375 56 
Q 45.5625 56 51.78125 48.09375 
Q 58.015625 40.1875 58.015625 27.296875 
Q 58.015625 14.40625 51.78125 6.484375 
Q 45.5625 -1.421875 35.59375 -1.421875 
Q 29.59375 -1.421875 25.265625 0.953125 
Q 20.953125 3.328125 18.109375 8.203125 
M 48.6875 27.296875 
Q 48.6875 37.203125 44.609375 42.84375 
Q 40.53125 48.484375 33.40625 48.484375 
Q 26.265625 48.484375 22.1875 42.84375 
Q 18.109375 37.203125 18.109375 27.296875 
Q 18.109375 17.390625 22.1875 11.75 
Q 26.265625 6.109375 33.40625 6.109375 
Q 40.53125 6.109375 44.609375 11.75 
Q 48.6875 17.390625 48.6875 27.296875 
" id="BitstreamVeraSans-Roman-70"/>
     </defs>
     <g transform="translate(16.820625 289.067233911)rotate(-90.0)scale(0.2 -0.2)">
      <use xlink:href="#BitstreamVeraSans-Roman-70"/>
      <use x="63.4765625" xlink:href="#BitstreamVeraSans-Roman-72"/>
      <use x="104.55859375" xlink:href="#BitstreamVeraSans-Roman-6f"/>
      <use x="165.740234375" xlink:href="#BitstreamVeraSans-Roman-70"/>
      <use x="229.216796875" xlink:href="#BitstreamVeraSans-Roman-6f"/>
      <use x="290.3984375" xlink:href="#BitstreamVeraSans-Roman-72"/>
      <use x="331.51171875" xlink:href="#BitstreamVeraSans-Roman-74"/>
      <use x="370.720703125" xlink:href="#BitstreamVeraSans-Roman-69"/>
      <use x="398.50390625" xlink:href="#BitstreamVeraSans-Roman-6f"/>
      <use x="459.685546875" xlink:href="#BitstreamVeraSans-Roman-6e"/>
      <use x="523.064453125" xlink:href="#BitstreamVeraSans-Roman-20"/>
      <use x="554.8515625" xlink:href="#BitstreamVeraSans-Roman-6f"/>
      <use x="616.033203125" xlink:href="#BitstreamVeraSans-Roman-66"/>
      <use x="651.23828125" xlink:href="#BitstreamVeraSans-Roman-20"/>
      <use x="683.025390625" xlink:href="#BitstreamVeraSans-Roman-74"/>
      <use x="722.234375" xlink:href="#BitstreamVeraSans-Roman-72"/>
      <use x="763.34765625" xlink:href="#BitstreamVeraSans-Roman-69"/>
      <use x="791.130859375" xlink:href="#BitstreamVeraSans-Roman-61"/>
      <use x="852.41015625" xlink:href="#BitstreamVeraSans-Roman-6c"/>
      <use x="880.193359375" xlink:href="#BitstreamVeraSans-Roman-73"/>
     </g>
    </g>
   </g>
   <g id="text_14">
    <!-- {f10-f14}, 5-D -->
    <defs>
     <path d="M 11.71875 12.40625 
L 22.015625 12.40625 
L 22.015625 4 
L 14.015625 -11.625 
L 7.71875 -11.625 
L 11.71875 4 
z
" id="BitstreamVeraSans-Roman-2c"/>
     <path d="M 12.5 -9.28125 
L 15.921875 -9.28125 
Q 22.75 -9.28125 24.828125 -7.171875 
Q 26.90625 -5.078125 26.90625 1.90625 
L 26.90625 14.015625 
Q 26.90625 21.625 29.09375 25.09375 
Q 31.296875 28.5625 36.71875 29.890625 
Q 31.296875 31.109375 29.09375 34.5625 
Q 26.90625 38.03125 26.90625 45.703125 
L 26.90625 57.8125 
Q 26.90625 64.75 24.828125 66.875 
Q 22.75 69 15.921875 69 
L 12.5 69 
L 12.5 75.984375 
L 15.578125 75.984375 
Q 27.734375 75.984375 31.8125 72.390625 
Q 35.890625 68.796875 35.890625 58.015625 
L 35.890625 46.296875 
Q 35.890625 39.015625 38.515625 36.203125 
Q 41.15625 33.40625 48.09375 33.40625 
L 51.125 33.40625 
L 51.125 26.421875 
L 48.09375 26.421875 
Q 41.15625 26.421875 38.515625 23.578125 
Q 35.890625 20.75 35.890625 13.375 
L 35.890625 1.703125 
Q 35.890625 -9.078125 31.8125 -12.6875 
Q 27.734375 -16.3125 15.578125 -16.3125 
L 12.5 -16.3125 
z
" id="BitstreamVeraSans-Roman-7d"/>
     <path d="M 51.125 -9.28125 
L 51.125 -16.3125 
L 48.09375 -16.3125 
Q 35.9375 -16.3125 31.8125 -12.6875 
Q 27.6875 -9.078125 27.6875 1.703125 
L 27.6875 13.375 
Q 27.6875 20.75 25.046875 23.578125 
Q 22.40625 26.421875 15.484375 26.421875 
L 12.5 26.421875 
L 12.5 33.40625 
L 15.484375 33.40625 
Q 22.46875 33.40625 25.078125 36.203125 
Q 27.6875 39.015625 27.6875 46.296875 
L 27.6875 58.015625 
Q 27.6875 68.796875 31.8125 72.390625 
Q 35.9375 75.984375 48.09375 75.984375 
L 51.125 75.984375 
L 51.125 69 
L 47.796875 69 
Q 40.921875 69 38.8125 66.84375 
Q 36.71875 64.703125 36.71875 57.8125 
L 36.71875 45.703125 
Q 36.71875 38.03125 34.5 34.5625 
Q 32.28125 31.109375 26.90625 29.890625 
Q 32.328125 28.5625 34.515625 25.09375 
Q 36.71875 21.625 36.71875 14.015625 
L 36.71875 1.90625 
Q 36.71875 -4.984375 38.8125 -7.125 
Q 40.921875 -9.28125 47.796875 -9.28125 
z
" id="BitstreamVeraSans-Roman-7b"/>
     <path d="M 4.890625 31.390625 
L 31.203125 31.390625 
L 31.203125 23.390625 
L 4.890625 23.390625 
z
" id="BitstreamVeraSans-Roman-2d"/>
     <path d="M 10.796875 72.90625 
L 49.515625 72.90625 
L 49.515625 64.59375 
L 19.828125 64.59375 
L 19.828125 46.734375 
Q 21.96875 47.46875 24.109375 47.828125 
Q 26.265625 48.1875 28.421875 48.1875 
Q 40.625 48.1875 47.75 41.5 
Q 54.890625 34.8125 54.890625 23.390625 
Q 54.890625 11.625 47.5625 5.09375 
Q 40.234375 -1.421875 26.90625 -1.421875 
Q 22.3125 -1.421875 17.546875 -0.640625 
Q 12.796875 0.140625 7.71875 1.703125 
L 7.71875 11.625 
Q 12.109375 9.234375 16.796875 8.0625 
Q 21.484375 6.890625 26.703125 6.890625 
Q 35.15625 6.890625 40.078125 11.328125 
Q 45.015625 15.765625 45.015625 23.390625 
Q 45.015625 31 40.078125 35.4375 
Q 35.15625 39.890625 26.703125 39.890625 
Q 22.75 39.890625 18.8125 39.015625 
Q 14.890625 38.140625 10.796875 36.28125 
z
" id="BitstreamVeraSans-Roman-35"/>
    </defs>
    <g transform="translate(235.396732878 30.4015284653)scale(0.2 -0.2)">
     <use xlink:href="#BitstreamVeraSans-Roman-7b"/>
     <use x="63.623046875" xlink:href="#BitstreamVeraSans-Roman-66"/>
     <use x="98.828125" xlink:href="#BitstreamVeraSans-Roman-31"/>
     <use x="162.451171875" xlink:href="#BitstreamVeraSans-Roman-30"/>
     <use x="226.07421875" xlink:href="#BitstreamVeraSans-Roman-2d"/>
     <use x="262.158203125" xlink:href="#BitstreamVeraSans-Roman-66"/>
     <use x="297.36328125" xlink:href="#BitstreamVeraSans-Roman-31"/>
     <use x="360.986328125" xlink:href="#BitstreamVeraSans-Roman-34"/>
     <use x="424.609375" xlink:href="#BitstreamVeraSans-Roman-7d"/>
     <use x="488.232421875" xlink:href="#BitstreamVeraSans-Roman-2c"/>
     <use x="520.01953125" xlink:href="#BitstreamVeraSans-Roman-20"/>
     <use x="551.806640625" xlink:href="#BitstreamVeraSans-Roman-35"/>
     <use x="615.4296875" xlink:href="#BitstreamVeraSans-Roman-2d"/>
     <use x="651.513671875" xlink:href="#BitstreamVeraSans-Roman-44"/>
    </g>
   </g>
   <g id="text_15">
    <!-- absolute targets -->
    <defs>
     <path d="M 56.203125 29.59375 
L 56.203125 25.203125 
L 14.890625 25.203125 
Q 15.484375 15.921875 20.484375 11.0625 
Q 25.484375 6.203125 34.421875 6.203125 
Q 39.59375 6.203125 44.453125 7.46875 
Q 49.3125 8.734375 54.109375 11.28125 
L 54.109375 2.78125 
Q 49.265625 0.734375 44.1875 -0.34375 
Q 39.109375 -1.421875 33.890625 -1.421875 
Q 20.796875 -1.421875 13.15625 6.1875 
Q 5.515625 13.8125 5.515625 26.8125 
Q 5.515625 40.234375 12.765625 48.109375 
Q 20.015625 56 32.328125 56 
Q 43.359375 56 49.78125 48.890625 
Q 56.203125 41.796875 56.203125 29.59375 
M 47.21875 32.234375 
Q 47.125 39.59375 43.09375 43.984375 
Q 39.0625 48.390625 32.421875 48.390625 
Q 24.90625 48.390625 20.390625 44.140625 
Q 15.875 39.890625 15.1875 32.171875 
z
" id="BitstreamVeraSans-Roman-65"/>
     <path d="M 8.5 21.578125 
L 8.5 54.6875 
L 17.484375 54.6875 
L 17.484375 21.921875 
Q 17.484375 14.15625 20.5 10.265625 
Q 23.53125 6.390625 29.59375 6.390625 
Q 36.859375 6.390625 41.078125 11.03125 
Q 45.3125 15.671875 45.3125 23.6875 
L 45.3125 54.6875 
L 54.296875 54.6875 
L 54.296875 0 
L 45.3125 0 
L 45.3125 8.40625 
Q 42.046875 3.421875 37.71875 1 
Q 33.40625 -1.421875 27.6875 -1.421875 
Q 18.265625 -1.421875 13.375 4.4375 
Q 8.5 10.296875 8.5 21.578125 
" id="BitstreamVeraSans-Roman-75"/>
     <path d="M 48.6875 27.296875 
Q 48.6875 37.203125 44.609375 42.84375 
Q 40.53125 48.484375 33.40625 48.484375 
Q 26.265625 48.484375 22.1875 42.84375 
Q 18.109375 37.203125 18.109375 27.296875 
Q 18.109375 17.390625 22.1875 11.75 
Q 26.265625 6.109375 33.40625 6.109375 
Q 40.53125 6.109375 44.609375 11.75 
Q 48.6875 17.390625 48.6875 27.296875 
M 18.109375 46.390625 
Q 20.953125 51.265625 25.265625 53.625 
Q 29.59375 56 35.59375 56 
Q 45.5625 56 51.78125 48.09375 
Q 58.015625 40.1875 58.015625 27.296875 
Q 58.015625 14.40625 51.78125 6.484375 
Q 45.5625 -1.421875 35.59375 -1.421875 
Q 29.59375 -1.421875 25.265625 0.953125 
Q 20.953125 3.328125 18.109375 8.203125 
L 18.109375 0 
L 9.078125 0 
L 9.078125 75.984375 
L 18.109375 75.984375 
z
" id="BitstreamVeraSans-Roman-62"/>
    </defs>
    <g transform="translate(55.425 756.595823939)scale(0.14 -0.14)">
     <use xlink:href="#BitstreamVeraSans-Roman-61"/>
     <use x="61.279296875" xlink:href="#BitstreamVeraSans-Roman-62"/>
     <use x="124.755859375" xlink:href="#BitstreamVeraSans-Roman-73"/>
     <use x="176.85546875" xlink:href="#BitstreamVeraSans-Roman-6f"/>
     <use x="238.037109375" xlink:href="#BitstreamVeraSans-Roman-6c"/>
     <use x="265.8203125" xlink:href="#BitstreamVeraSans-Roman-75"/>
     <use x="329.19921875" xlink:href="#BitstreamVeraSans-Roman-74"/>
     <use x="368.408203125" xlink:href="#BitstreamVeraSans-Roman-65"/>
     <use x="429.931640625" xlink:href="#BitstreamVeraSans-Roman-20"/>
     <use x="461.71875" xlink:href="#BitstreamVeraSans-Roman-74"/>
     <use x="500.927734375" xlink:href="#BitstreamVeraSans-Roman-61"/>
     <use x="562.20703125" xlink:href="#BitstreamVeraSans-Roman-72"/>
     <use x="603.3046875" xlink:href="#BitstreamVeraSans-Roman-67"/>
     <use x="666.78125" xlink:href="#BitstreamVeraSans-Roman-65"/>
     <use x="728.3046875" xlink:href="#BitstreamVeraSans-Roman-74"/>
     <use x="767.513671875" xlink:href="#BitstreamVeraSans-Roman-73"/>
    </g>
   </g>
   <g id="text_16">
    <!-- v2.2.1.10 -->
    <g style="fill:#808080;" transform="translate(284.613920378 378.157094678)scale(0.1 -0.1)">
     <use xlink:href="#BitstreamVeraSans-Roman-76"/>
     <use x="59.1796875" xlink:href="#BitstreamVeraSans-Roman-32"/>
     <use x="122.802734375" xlink:href="#BitstreamVeraSans-Roman-2e"/>
     <use x="154.58984375" xlink:href="#BitstreamVeraSans-Roman-32"/>
     <use x="218.212890625" xlink:href="#BitstreamVeraSans-Roman-2e"/>
     <use x="250.0" xlink:href="#BitstreamVeraSans-Roman-31"/>
     <use x="313.623046875" xlink:href="#BitstreamVeraSans-Roman-2e"/>
     <use x="345.41015625" xlink:href="#BitstreamVeraSans-Roman-31"/>
     <use x="409.033203125" xlink:href="#BitstreamVeraSans-Roman-30"/>
    </g>
   </g>
   <g id="legend_1">
    <g id="patch_7">
     <path d="M 65.425 141.103218 
L 202.646875 141.103218 
L 202.646875 17.678218 
L 65.425 17.678218 
z
" style="fill:#ffffff;opacity:0.2;stroke:#000000;stroke-linejoin:miter;"/>
    </g>
    <g id="line2d_135">
     <path d="M 79.425 33.875093 
L 107.425 33.875093 
" style="fill:none;stroke:#000000;stroke-linecap:square;"/>
    </g>
    <g id="line2d_136"/>
    <g id="text_17">
     <!-- 1: 3/5 -->
     <defs>
      <path d="M 11.71875 12.40625 
L 22.015625 12.40625 
L 22.015625 0 
L 11.71875 0 
z
M 11.71875 51.703125 
L 22.015625 51.703125 
L 22.015625 39.3125 
L 11.71875 39.3125 
z
" id="BitstreamVeraSans-Roman-3a"/>
     </defs>
     <g transform="translate(129.425 40.8750928218)scale(0.2 -0.2)">
      <use xlink:href="#BitstreamVeraSans-Roman-31"/>
      <use x="63.623046875" xlink:href="#BitstreamVeraSans-Roman-3a"/>
      <use x="97.314453125" xlink:href="#BitstreamVeraSans-Roman-20"/>
      <use x="129.1015625" xlink:href="#BitstreamVeraSans-Roman-33"/>
      <use x="192.724609375" xlink:href="#BitstreamVeraSans-Roman-2f"/>
      <use x="226.416015625" xlink:href="#BitstreamVeraSans-Roman-35"/>
     </g>
    </g>
    <g id="line2d_137">
     <path d="M 79.425 63.231343 
L 107.425 63.231343 
" style="fill:none;stroke:#00bfbf;stroke-linecap:square;"/>
    </g>
    <g id="line2d_138"/>
    <g id="text_18">
     <!-- -1: 1/5 -->
     <g transform="translate(129.425 70.2313428218)scale(0.2 -0.2)">
      <use xlink:href="#BitstreamVeraSans-Roman-2d"/>
      <use x="36.083984375" xlink:href="#BitstreamVeraSans-Roman-31"/>
      <use x="99.70703125" xlink:href="#BitstreamVeraSans-Roman-3a"/>
      <use x="133.3984375" xlink:href="#BitstreamVeraSans-Roman-20"/>
      <use x="165.185546875" xlink:href="#BitstreamVeraSans-Roman-31"/>
      <use x="228.80859375" xlink:href="#BitstreamVeraSans-Roman-2f"/>
      <use x="262.5" xlink:href="#BitstreamVeraSans-Roman-35"/>
     </g>
    </g>
    <g id="line2d_139">
     <path d="M 79.425 92.587593 
L 107.425 92.587593 
" style="fill:none;stroke:#bf00bf;stroke-linecap:square;"/>
    </g>
    <g id="line2d_140"/>
    <g id="text_19">
     <!-- -4: 0/5 -->
     <g transform="translate(129.425 99.5875928218)scale(0.2 -0.2)">
      <use xlink:href="#BitstreamVeraSans-Roman-2d"/>
      <use x="36.083984375" xlink:href="#BitstreamVeraSans-Roman-34"/>
      <use x="99.70703125" xlink:href="#BitstreamVeraSans-Roman-3a"/>
      <use x="133.3984375" xlink:href="#BitstreamVeraSans-Roman-20"/>
      <use x="165.185546875" xlink:href="#BitstreamVeraSans-Roman-30"/>
      <use x="228.80859375" xlink:href="#BitstreamVeraSans-Roman-2f"/>
      <use x="262.5" xlink:href="#BitstreamVeraSans-Roman-35"/>
     </g>
    </g>
    <g id="line2d_141">
     <path d="M 79.425 121.943843 
L 107.425 121.943843 
" style="fill:none;stroke:#ff0000;stroke-linecap:square;stroke-width:3.0;"/>
    </g>
    <g id="line2d_142"/>
    <g id="text_20">
     <!-- -8: 0/5 -->
     <g transform="translate(129.425 128.943842822)scale(0.2 -0.2)">
      <use xlink:href="#BitstreamVeraSans-Roman-2d"/>
      <use x="36.083984375" xlink:href="#BitstreamVeraSans-Roman-38"/>
      <use x="99.70703125" xlink:href="#BitstreamVeraSans-Roman-3a"/>
      <use x="133.3984375" xlink:href="#BitstreamVeraSans-Roman-20"/>
      <use x="165.185546875" xlink:href="#BitstreamVeraSans-Roman-30"/>
      <use x="228.80859375" xlink:href="#BitstreamVeraSans-Roman-2f"/>
      <use x="262.5" xlink:href="#BitstreamVeraSans-Roman-35"/>
     </g>
    </g>
   </g>
  </g>
 </g>
 <defs>
  <clipPath id="p24155e75bc">
   <rect height="376.321782178" width="505.643465755" x="55.425" y="7.67821782178"/>
  </clipPath>
 </defs>
</svg>
