<?xml version="1.0" encoding="utf-8" standalone="no"?>
<!DOCTYPE svg PUBLIC "-//W3C//DTD SVG 1.1//EN"
  "http://www.w3.org/Graphics/SVG/1.1/DTD/svg11.dtd">
<!-- Created with matplotlib (http://matplotlib.org/) -->
<svg height="432pt" version="1.1" viewBox="0 0 576 432" width="576pt" xmlns="http://www.w3.org/2000/svg" xmlns:xlink="http://www.w3.org/1999/xlink">
 <defs>
  <style type="text/css">
*{stroke-linecap:butt;stroke-linejoin:round;stroke-miterlimit:100000;}
  </style>
 </defs>
 <g id="figure_1">
  <g id="patch_1">
   <path d="M 0 432 
L 576 432 
L 576 0 
L 0 0 
z
" style="fill:#ffffff;"/>
  </g>
  <g id="axes_1">
   <g id="patch_2">
    <path d="M 55.425 384 
L 561.068466 384 
L 561.068466 7.678218 
L 55.425 7.678218 
z
" style="fill:#ffffff;"/>
   </g>
   <g id="line2d_1">
    <path clip-path="url(#p83e96481e5)" d="M 295.896708 384 
L 295.896708 379.032056 
L 301.002166 379.032056 
L 301.002166 374.064111 
L 302.603624 374.064111 
L 302.603624 369.096167 
L 304.512575 369.096167 
L 304.512575 364.128223 
L 304.746592 364.128223 
L 304.746592 359.160278 
L 305.211653 359.160278 
L 305.211653 354.192334 
L 311.546423 354.192334 
L 311.546423 349.22439 
L 314.361236 349.22439 
L 314.361236 344.256445 
L 318.147346 344.256445 
L 318.147346 339.288501 
L 323.709249 339.288501 
L 323.709249 334.320557 
L 325.257473 334.320557 
L 325.257473 329.352612 
L 334.616133 329.352612 
L 334.616133 324.384668 
L 345.350446 324.384668 
L 345.350446 319.416724 
L 352.88675 319.416724 
L 352.88675 314.44878 
L 353.992496 314.44878 
L 353.992496 309.480835 
L 355.029718 309.480835 
L 355.029718 304.512891 
L 356.093525 304.512891 
L 356.093525 299.544947 
L 356.504247 299.544947 
L 356.504247 294.577002 
L 360.493061 294.577002 
L 360.493061 289.609058 
L 361.788273 289.609058 
L 361.788273 284.641114 
L 380.588008 284.641114 
L 380.588008 279.673169 
L 382.005944 279.673169 
L 382.005944 274.705225 
L 383.749104 274.705225 
L 383.749104 269.737281 
L 387.441043 269.737281 
L 387.441043 264.769336 
L 400.666009 264.769336 
L 400.666009 259.801392 
L 406.541309 259.801392 
L 406.541309 254.833448 
L 411.029271 254.833448 
L 411.029271 249.865503 
L 427.498058 249.865503 
L 427.498058 244.897559 
L 427.498058 244.897559 
L 427.498058 244.897559 
L 561.068466 244.897559 
" style="fill:none;stroke:#f5deb3;stroke-linecap:square;"/>
   </g>
   <g id="line2d_2">
    <path clip-path="url(#p83e96481e5)" d="M 403.092119 384 
L 403.092119 369.096167 
L 428.840639 369.096167 
L 428.840639 354.192334 
L 448.06472 354.192334 
L 448.06472 339.288501 
L 509.663089 339.288501 
L 509.663089 324.384668 
L 554.386484 324.384668 
L 554.386484 309.480835 
L 554.386484 309.480835 
L 554.386484 309.480835 
L 561.068466 309.480835 
" style="fill:none;stroke:#f5deb3;stroke-linecap:square;"/>
   </g>
   <g id="line2d_3">
    <path clip-path="url(#p83e96481e5)" d="M 241.704843 384 
L 241.704843 379.032056 
L 248.291032 379.032056 
L 248.291032 374.064111 
L 300.120086 374.064111 
L 300.120086 369.096167 
L 302.238183 369.096167 
L 302.238183 364.128223 
L 305.442713 364.128223 
L 305.442713 359.160278 
L 314.75182 359.160278 
L 314.75182 354.192334 
L 320.387527 354.192334 
L 320.387527 349.22439 
L 325.257473 349.22439 
L 325.257473 344.256445 
L 329.358707 344.256445 
L 329.358707 339.288501 
L 330.025685 339.288501 
L 330.025685 334.320557 
L 336.21849 334.320557 
L 336.21849 329.352612 
L 339.289323 329.352612 
L 339.289323 324.384668 
L 348.332142 324.384668 
L 348.332142 319.416724 
L 350.959315 319.416724 
L 350.959315 314.44878 
L 360.577552 314.44878 
L 360.577552 309.480835 
L 372.074939 309.480835 
L 372.074939 304.512891 
L 384.463942 304.512891 
L 384.463942 299.544947 
L 399.784682 299.544947 
L 399.784682 294.577002 
L 400.706659 294.577002 
L 400.706659 289.609058 
L 403.614852 289.609058 
L 403.614852 284.641114 
L 409.075909 284.641114 
L 409.075909 279.673169 
L 415.068419 279.673169 
L 415.068419 274.705225 
L 416.336053 274.705225 
L 416.336053 269.737281 
L 434.9706 269.737281 
L 434.9706 264.769336 
L 439.770893 264.769336 
L 439.770893 259.801392 
L 481.932008 259.801392 
L 481.932008 254.833448 
L 485.282011 254.833448 
L 485.282011 249.865503 
L 486.089578 249.865503 
L 486.089578 244.897559 
L 500.972206 244.897559 
L 500.972206 239.929615 
L 524.232223 239.929615 
L 524.232223 234.96167 
L 524.232223 234.96167 
L 524.232223 234.96167 
L 561.068466 234.96167 
" style="fill:none;stroke:#f5deb3;stroke-linecap:square;"/>
   </g>
   <g id="line2d_4">
    <path clip-path="url(#p83e96481e5)" d="M 284.163372 384 
L 284.163372 379.032056 
L 312.669523 379.032056 
L 312.669523 374.064111 
L 312.770492 374.064111 
L 312.770492 369.096167 
L 316.664098 369.096167 
L 316.664098 364.128223 
L 360.068644 364.128223 
L 360.068644 359.160278 
L 361.664257 359.160278 
L 361.664257 354.192334 
L 367.58251 354.192334 
L 367.58251 349.22439 
L 367.9528 349.22439 
L 367.9528 344.256445 
L 373.460876 344.256445 
L 373.460876 339.288501 
L 389.022176 339.288501 
L 389.022176 334.320557 
L 391.069964 334.320557 
L 391.069964 329.352612 
L 395.399079 329.352612 
L 395.399079 324.384668 
L 395.555519 324.384668 
L 395.555519 319.416724 
L 401.071156 319.416724 
L 401.071156 314.44878 
L 402.110748 314.44878 
L 402.110748 309.480835 
L 404.151736 309.480835 
L 404.151736 304.512891 
L 410.894438 304.512891 
L 410.894438 299.544947 
L 431.927942 299.544947 
L 431.927942 294.577002 
L 446.640622 294.577002 
L 446.640622 289.609058 
L 447.279087 289.609058 
L 447.279087 284.641114 
L 454.739311 284.641114 
L 454.739311 279.673169 
L 457.232118 279.673169 
L 457.232118 274.705225 
L 471.261485 274.705225 
L 471.261485 269.737281 
L 475.891098 269.737281 
L 475.891098 264.769336 
L 481.247987 264.769336 
L 481.247987 259.801392 
L 486.54212 259.801392 
L 486.54212 254.833448 
L 504.036013 254.833448 
L 504.036013 249.865503 
L 510.808842 249.865503 
L 510.808842 244.897559 
L 532.848694 244.897559 
L 532.848694 239.929615 
L 534.110369 239.929615 
L 534.110369 234.96167 
L 536.53622 234.96167 
L 536.53622 229.993726 
L 540.982603 229.993726 
L 540.982603 225.025782 
L 549.573954 225.025782 
L 549.573954 220.057837 
L 549.573954 220.057837 
L 549.573954 220.057837 
L 561.068466 220.057837 
" style="fill:none;stroke:#f5deb3;stroke-linecap:square;"/>
   </g>
   <g id="line2d_5">
    <path clip-path="url(#p83e96481e5)" d="M 297.784549 384 
L 297.784549 379.032056 
L 310.71494 379.032056 
L 310.71494 374.064111 
L 360.111234 374.064111 
L 360.111234 369.096167 
L 378.313616 369.096167 
L 378.313616 364.128223 
L 412.507356 364.128223 
L 412.507356 359.160278 
L 434.236634 359.160278 
L 434.236634 354.192334 
L 441.546489 354.192334 
L 441.546489 349.22439 
L 442.919196 349.22439 
L 442.919196 344.256445 
L 443.490493 344.256445 
L 443.490493 339.288501 
L 455.395714 339.288501 
L 455.395714 334.320557 
L 459.135304 334.320557 
L 459.135304 329.352612 
L 459.149314 329.352612 
L 459.149314 324.384668 
L 463.302606 324.384668 
L 463.302606 319.416724 
L 467.711577 319.416724 
L 467.711577 314.44878 
L 471.239013 314.44878 
L 471.239013 309.480835 
L 475.100742 309.480835 
L 475.100742 304.512891 
L 475.26286 304.512891 
L 475.26286 299.544947 
L 477.443479 299.544947 
L 477.443479 294.577002 
L 482.360393 294.577002 
L 482.360393 289.609058 
L 488.525408 289.609058 
L 488.525408 284.641114 
L 495.757247 284.641114 
L 495.757247 279.673169 
L 500.598313 279.673169 
L 500.598313 274.705225 
L 501.158202 274.705225 
L 501.158202 269.737281 
L 518.207613 269.737281 
L 518.207613 264.769336 
L 518.829628 264.769336 
L 518.829628 259.801392 
L 520.457726 259.801392 
L 520.457726 254.833448 
L 524.347627 254.833448 
L 524.347627 249.865503 
L 527.775764 249.865503 
L 527.775764 244.897559 
L 529.287029 244.897559 
L 529.287029 239.929615 
L 536.186335 239.929615 
L 536.186335 234.96167 
L 577 234.96167 
" style="fill:none;stroke:#f5deb3;stroke-linecap:square;"/>
   </g>
   <g id="line2d_6"/>
   <g id="line2d_7">
    <path clip-path="url(#p83e96481e5)" d="M 317.410733 384 
L 317.410733 379.032056 
L 326.99723 379.032056 
L 326.99723 374.064111 
L 329.804259 374.064111 
L 329.804259 369.096167 
L 335.623076 369.096167 
L 335.623076 364.128223 
L 347.748623 364.128223 
L 347.748623 359.160278 
L 426.871031 359.160278 
L 426.871031 354.192334 
L 447.174643 354.192334 
L 447.174643 349.22439 
L 452.183549 349.22439 
L 452.183549 344.256445 
L 453.386916 344.256445 
L 453.386916 339.288501 
L 459.428764 339.288501 
L 459.428764 334.320557 
L 474.616779 334.320557 
L 474.616779 329.352612 
L 478.042414 329.352612 
L 478.042414 324.384668 
L 479.815387 324.384668 
L 479.815387 319.416724 
L 480.131681 319.416724 
L 480.131681 314.44878 
L 482.231768 314.44878 
L 482.231768 309.480835 
L 484.805749 309.480835 
L 484.805749 304.512891 
L 491.572245 304.512891 
L 491.572245 299.544947 
L 493.305783 299.544947 
L 493.305783 294.577002 
L 495.106397 294.577002 
L 495.106397 289.609058 
L 504.017463 289.609058 
L 504.017463 284.641114 
L 506.26222 284.641114 
L 506.26222 279.673169 
L 508.478651 279.673169 
L 508.478651 274.705225 
L 514.631551 274.705225 
L 514.631551 269.737281 
L 519.717118 269.737281 
L 519.717118 264.769336 
L 524.99282 264.769336 
L 524.99282 259.801392 
L 541.572227 259.801392 
L 541.572227 254.833448 
L 541.768405 254.833448 
L 541.768405 249.865503 
L 549.16666 249.865503 
L 549.16666 244.897559 
L 571.991505 244.897559 
L 571.991505 239.929615 
L 575.187681 239.929615 
L 575.187681 234.96167 
L 577 234.96167 
" style="fill:none;stroke:#f5deb3;stroke-linecap:square;"/>
   </g>
   <g id="line2d_8">
    <path clip-path="url(#p83e96481e5)" d="M 500.860961 384 
L 500.860961 379.032056 
L 510.441496 379.032056 
L 510.441496 374.064111 
L 514.399157 374.064111 
L 514.399157 369.096167 
L 517.833876 369.096167 
L 517.833876 364.128223 
L 518.711466 364.128223 
L 518.711466 359.160278 
L 520.041354 359.160278 
L 520.041354 354.192334 
L 525.886439 354.192334 
L 525.886439 349.22439 
L 560.076626 349.22439 
L 560.076626 344.256445 
L 560.33763 344.256445 
L 560.33763 339.288501 
L 560.365323 339.288501 
L 560.365323 334.320557 
L 561.700059 334.320557 
L 561.700059 329.352612 
L 562.894278 329.352612 
L 562.894278 324.384668 
L 563.877429 324.384668 
L 563.877429 319.416724 
L 577 319.416724 
" style="fill:none;stroke:#f5deb3;stroke-linecap:square;"/>
   </g>
   <g id="line2d_9">
    <path clip-path="url(#p83e96481e5)" d="M 304.395192 384 
L 304.395192 379.032056 
L 311.028225 379.032056 
L 311.028225 374.064111 
L 328.758954 374.064111 
L 328.758954 369.096167 
L 330.172808 369.096167 
L 330.172808 364.128223 
L 383.66602 364.128223 
L 383.66602 359.160278 
L 390.141896 359.160278 
L 390.141896 354.192334 
L 396.68203 354.192334 
L 396.68203 349.22439 
L 401.69328 349.22439 
L 401.69328 344.256445 
L 410.095536 344.256445 
L 410.095536 339.288501 
L 430.906301 339.288501 
L 430.906301 334.320557 
L 432.761241 334.320557 
L 432.761241 329.352612 
L 432.806538 329.352612 
L 432.806538 324.384668 
L 448.881507 324.384668 
L 448.881507 319.416724 
L 453.098315 319.416724 
L 453.098315 314.44878 
L 468.23044 314.44878 
L 468.23044 309.480835 
L 474.277574 309.480835 
L 474.277574 304.512891 
L 477.903246 304.512891 
L 477.903246 299.544947 
L 480.112564 299.544947 
L 480.112564 294.577002 
L 485.857594 294.577002 
L 485.857594 289.609058 
L 489.420247 289.609058 
L 489.420247 284.641114 
L 494.244891 284.641114 
L 494.244891 279.673169 
L 494.248586 279.673169 
L 494.248586 274.705225 
L 498.340988 274.705225 
L 498.340988 269.737281 
L 505.937725 269.737281 
L 505.937725 264.769336 
L 509.635183 264.769336 
L 509.635183 259.801392 
L 513.402309 259.801392 
L 513.402309 254.833448 
L 518.36735 254.833448 
L 518.36735 249.865503 
L 530.345953 249.865503 
L 530.345953 244.897559 
L 532.432047 244.897559 
L 532.432047 239.929615 
L 534.471923 239.929615 
L 534.471923 234.96167 
L 545.832218 234.96167 
L 545.832218 229.993726 
L 548.645371 229.993726 
L 548.645371 225.025782 
L 555.837927 225.025782 
L 555.837927 220.057837 
L 571.625607 220.057837 
L 571.625607 215.089893 
L 571.86053 215.089893 
L 571.86053 210.121949 
L 574.123304 210.121949 
L 574.123304 205.154005 
L 577 205.154005 
" style="fill:none;stroke:#f5deb3;stroke-linecap:square;"/>
   </g>
   <g id="line2d_10">
    <path clip-path="url(#p83e96481e5)" d="M 477.186939 384 
L 477.186939 379.032056 
L 500.995082 379.032056 
L 500.995082 374.064111 
L 507.515244 374.064111 
L 507.515244 369.096167 
L 512.588409 369.096167 
L 512.588409 364.128223 
L 528.643306 364.128223 
L 528.643306 359.160278 
L 532.062318 359.160278 
L 532.062318 354.192334 
L 533.882957 354.192334 
L 533.882957 349.22439 
L 535.254506 349.22439 
L 535.254506 344.256445 
L 540.300442 344.256445 
L 540.300442 339.288501 
L 577 339.288501 
" style="fill:none;stroke:#f5deb3;stroke-linecap:square;"/>
   </g>
   <g id="line2d_11">
    <path clip-path="url(#p83e96481e5)" d="M 398.615269 384 
L 398.615269 379.032056 
L 444.815996 379.032056 
L 444.815996 374.064111 
L 465.660325 374.064111 
L 465.660325 369.096167 
L 475.54412 369.096167 
L 475.54412 364.128223 
L 480.289147 364.128223 
L 480.289147 359.160278 
L 485.264606 359.160278 
L 485.264606 354.192334 
L 487.13836 354.192334 
L 487.13836 349.22439 
L 488.929892 349.22439 
L 488.929892 344.256445 
L 502.84863 344.256445 
L 502.84863 339.288501 
L 505.273854 339.288501 
L 505.273854 334.320557 
L 505.35841 334.320557 
L 505.35841 329.352612 
L 508.728945 329.352612 
L 508.728945 324.384668 
L 517.850701 324.384668 
L 517.850701 319.416724 
L 518.483879 319.416724 
L 518.483879 314.44878 
L 522.810543 314.44878 
L 522.810543 309.480835 
L 523.813453 309.480835 
L 523.813453 304.512891 
L 524.615964 304.512891 
L 524.615964 299.544947 
L 525.258028 299.544947 
L 525.258028 294.577002 
L 526.439962 294.577002 
L 526.439962 289.609058 
L 532.98566 289.609058 
L 532.98566 284.641114 
L 549.833527 284.641114 
L 549.833527 279.673169 
L 550.771411 279.673169 
L 550.771411 274.705225 
L 553.786745 274.705225 
L 553.786745 269.737281 
L 559.807662 269.737281 
L 559.807662 264.769336 
L 561.738956 264.769336 
L 561.738956 259.801392 
L 564.534162 259.801392 
L 564.534162 254.833448 
L 577 254.833448 
" style="fill:none;stroke:#f5deb3;stroke-linecap:square;"/>
   </g>
   <g id="line2d_12">
    <path clip-path="url(#p83e96481e5)" d="M 309.336319 384 
L 309.336319 379.032056 
L 314.263154 379.032056 
L 314.263154 374.064111 
L 316.570051 374.064111 
L 316.570051 369.096167 
L 336.677165 369.096167 
L 336.677165 364.128223 
L 337.067286 364.128223 
L 337.067286 359.160278 
L 358.11707 359.160278 
L 358.11707 354.192334 
L 360.956159 354.192334 
L 360.956159 349.22439 
L 362.932433 349.22439 
L 362.932433 344.256445 
L 364.132411 344.256445 
L 364.132411 339.288501 
L 371.038192 339.288501 
L 371.038192 334.320557 
L 380.617315 334.320557 
L 380.617315 329.352612 
L 383.527267 329.352612 
L 383.527267 324.384668 
L 385.652852 324.384668 
L 385.652852 319.416724 
L 388.313751 319.416724 
L 388.313751 314.44878 
L 388.466328 314.44878 
L 388.466328 309.480835 
L 388.770216 309.480835 
L 388.770216 304.512891 
L 391.432029 304.512891 
L 391.432029 299.544947 
L 397.571182 299.544947 
L 397.571182 294.577002 
L 409.267451 294.577002 
L 409.267451 289.609058 
L 421.300382 289.609058 
L 421.300382 284.641114 
L 433.760356 284.641114 
L 433.760356 279.673169 
L 440.11875 279.673169 
L 440.11875 274.705225 
L 445.493887 274.705225 
L 445.493887 269.737281 
L 449.142685 269.737281 
L 449.142685 264.769336 
L 466.505977 264.769336 
L 466.505977 259.801392 
L 474.048487 259.801392 
L 474.048487 254.833448 
L 482.575623 254.833448 
L 482.575623 249.865503 
L 483.554056 249.865503 
L 483.554056 244.897559 
L 500.834752 244.897559 
L 500.834752 239.929615 
L 501.538019 239.929615 
L 501.538019 234.96167 
L 501.538019 234.96167 
L 501.538019 234.96167 
L 561.068466 234.96167 
" style="fill:none;stroke:#f5deb3;stroke-linecap:square;"/>
   </g>
   <g id="line2d_13">
    <path clip-path="url(#p83e96481e5)" d="M 398.84695 384 
L 398.84695 379.032056 
L 417.828469 379.032056 
L 417.828469 374.064111 
L 425.024102 374.064111 
L 425.024102 369.096167 
L 426.656199 369.096167 
L 426.656199 364.128223 
L 434.08202 364.128223 
L 434.08202 359.160278 
L 440.059274 359.160278 
L 440.059274 354.192334 
L 444.979455 354.192334 
L 444.979455 349.22439 
L 445.367981 349.22439 
L 445.367981 344.256445 
L 445.367981 344.256445 
L 445.367981 339.288501 
L 448.856165 339.288501 
L 448.856165 334.320557 
L 468.785591 334.320557 
L 468.785591 329.352612 
L 468.785591 329.352612 
L 468.785591 329.352612 
L 561.068466 329.352612 
" style="fill:none;stroke:#f5deb3;stroke-linecap:square;"/>
   </g>
   <g id="line2d_14">
    <path clip-path="url(#p83e96481e5)" d="M 259.481085 384 
L 259.481085 379.032056 
L 274.934159 379.032056 
L 274.934159 374.064111 
L 357.047139 374.064111 
L 357.047139 369.096167 
L 409.441002 369.096167 
L 409.441002 364.128223 
L 422.255267 364.128223 
L 422.255267 359.160278 
L 428.718826 359.160278 
L 428.718826 354.192334 
L 430.447373 354.192334 
L 430.447373 349.22439 
L 440.895902 349.22439 
L 440.895902 344.256445 
L 442.151277 344.256445 
L 442.151277 339.288501 
L 448.949027 339.288501 
L 448.949027 334.320557 
L 452.745257 334.320557 
L 452.745257 329.352612 
L 453.503485 329.352612 
L 453.503485 324.384668 
L 453.928799 324.384668 
L 453.928799 319.416724 
L 456.743997 319.416724 
L 456.743997 314.44878 
L 460.940807 314.44878 
L 460.940807 309.480835 
L 466.371054 309.480835 
L 466.371054 304.512891 
L 471.614212 304.512891 
L 471.614212 299.544947 
L 497.993546 299.544947 
L 497.993546 294.577002 
L 498.77137 294.577002 
L 498.77137 289.609058 
L 500.71666 289.609058 
L 500.71666 284.641114 
L 501.966608 284.641114 
L 501.966608 279.673169 
L 516.981102 279.673169 
L 516.981102 274.705225 
L 522.065622 274.705225 
L 522.065622 269.737281 
L 528.34043 269.737281 
L 528.34043 264.769336 
L 531.915586 264.769336 
L 531.915586 259.801392 
L 536.676234 259.801392 
L 536.676234 254.833448 
L 551.292582 254.833448 
L 551.292582 249.865503 
L 551.292582 249.865503 
L 551.292582 249.865503 
L 561.068466 249.865503 
" style="fill:none;stroke:#f5deb3;stroke-linecap:square;"/>
   </g>
   <g id="line2d_15">
    <path clip-path="url(#p83e96481e5)" d="M 577.405203 384 
" style="fill:none;stroke:#f5deb3;stroke-linecap:square;"/>
   </g>
   <g id="line2d_16">
    <path clip-path="url(#p83e96481e5)" d="M 407.032339 384 
L 407.032339 379.032056 
L 518.883897 379.032056 
L 518.883897 374.064111 
L 555.046889 374.064111 
L 555.046889 369.096167 
L 556.287097 369.096167 
L 556.287097 364.128223 
L 567.449475 364.128223 
L 567.449475 359.160278 
L 577 359.160278 
" style="fill:none;stroke:#f5deb3;stroke-linecap:square;"/>
   </g>
   <g id="line2d_17">
    <path clip-path="url(#p83e96481e5)" d="M 420.129294 384 
L 420.129294 379.032056 
L 423.409182 379.032056 
L 423.409182 374.064111 
L 449.461153 374.064111 
L 449.461153 369.096167 
L 548.91755 369.096167 
L 548.91755 364.128223 
L 577 364.128223 
" style="fill:none;stroke:#f5deb3;stroke-linecap:square;"/>
   </g>
   <g id="line2d_18">
    <path clip-path="url(#p83e96481e5)" d="M 273.508707 384 
L 273.508707 379.032056 
L 299.481233 379.032056 
L 299.481233 374.064111 
L 310.294426 374.064111 
L 310.294426 369.096167 
L 312.568367 369.096167 
L 312.568367 364.128223 
L 313.07229 364.128223 
L 313.07229 359.160278 
L 329.804259 359.160278 
L 329.804259 354.192334 
L 340.092262 354.192334 
L 340.092262 349.22439 
L 342.079243 349.22439 
L 342.079243 344.256445 
L 346.069971 344.256445 
L 346.069971 339.288501 
L 351.659029 339.288501 
L 351.659029 334.320557 
L 363.535702 334.320557 
L 363.535702 329.352612 
L 364.76183 329.352612 
L 364.76183 324.384668 
L 367.097366 324.384668 
L 367.097366 319.416724 
L 367.915883 319.416724 
L 367.915883 314.44878 
L 383.970048 314.44878 
L 383.970048 309.480835 
L 386.396236 309.480835 
L 386.396236 304.512891 
L 386.97334 304.512891 
L 386.97334 299.544947 
L 387.647638 299.544947 
L 387.647638 294.577002 
L 389.022176 294.577002 
L 389.022176 289.609058 
L 405.060063 289.609058 
L 405.060063 284.641114 
L 406.064276 284.641114 
L 406.064276 279.673169 
L 413.994536 279.673169 
L 413.994536 274.705225 
L 418.125101 274.705225 
L 418.125101 269.737281 
L 427.285671 269.737281 
L 427.285671 264.769336 
L 441.411181 264.769336 
L 441.411181 259.801392 
L 446.649418 259.801392 
L 446.649418 254.833448 
L 451.156134 254.833448 
L 451.156134 249.865503 
L 457.47817 249.865503 
L 457.47817 244.897559 
L 479.86823 244.897559 
L 479.86823 239.929615 
L 488.64011 239.929615 
L 488.64011 234.96167 
L 488.64011 234.96167 
L 488.64011 234.96167 
L 561.068466 234.96167 
" style="fill:none;stroke:#f5deb3;stroke-linecap:square;"/>
   </g>
   <g id="line2d_19">
    <path clip-path="url(#p83e96481e5)" d="M 474.563916 384 
L 474.563916 382.182459 
L 474.563916 382.182459 
L 474.563916 382.182459 
L 474.563916 380.364919 
L 474.563916 380.364919 
L 474.563916 380.364919 
L 474.563916 378.547378 
L 479.569724 378.547378 
L 479.569724 373.094756 
L 484.360722 373.094756 
L 484.360722 367.642135 
L 490.300728 367.642135 
L 490.300728 362.189513 
L 491.75427 362.189513 
L 491.75427 356.736891 
L 492.208628 356.736891 
L 492.208628 351.284269 
L 496.680407 351.284269 
L 496.680407 345.831647 
L 496.888548 345.831647 
L 496.888548 340.379025 
L 497.903748 340.379025 
L 497.903748 334.926404 
L 500.15886 334.926404 
L 500.15886 329.473782 
L 502.99689 329.473782 
L 502.99689 324.02116 
L 503.964871 324.02116 
L 503.964871 318.568538 
L 504.20268 318.568538 
L 504.20268 313.115916 
L 504.79121 313.115916 
L 504.79121 307.663295 
L 507.703501 307.663295 
L 507.703501 302.210673 
L 517.258738 302.210673 
L 517.258738 296.758051 
L 519.353555 296.758051 
L 519.353555 291.305429 
L 527.14034 291.305429 
L 527.14034 285.852807 
L 532.729713 285.852807 
L 532.729713 280.400186 
L 534.477248 280.400186 
L 534.477248 274.947564 
L 535.525098 274.947564 
L 535.525098 269.494942 
L 536.041614 269.494942 
L 536.045064 258.589698 
L 539.785614 258.589698 
L 539.890253 247.684455 
L 541.872437 247.684455 
L 541.872437 242.231833 
L 546.084208 242.231833 
L 546.084208 236.779211 
L 550.394194 236.779211 
L 550.394194 231.326589 
L 552.186783 231.326589 
L 552.186783 225.873967 
L 552.418956 225.873967 
L 552.418956 220.421346 
L 565.656821 220.421346 
L 565.656821 214.968724 
L 567.983181 214.968724 
L 568.027503 204.06348 
L 569.836939 204.06348 
L 569.836939 198.610858 
L 571.919776 198.610858 
L 571.919776 193.158237 
L 573.995597 193.158237 
L 573.995597 187.705615 
L 574.484962 187.705615 
L 574.484962 182.252993 
L 577 182.252993 
L 577 182.252993 
" style="fill:none;stroke:#f5deb3;stroke-linecap:square;"/>
   </g>
   <g id="line2d_20">
    <path clip-path="url(#p83e96481e5)" d="M 266.941899 384 
L 266.941899 379.032056 
L 266.941899 379.032056 
L 266.941899 374.064111 
L 272.677224 374.064111 
L 272.677224 369.096167 
L 275.732381 369.096167 
L 275.732381 364.128223 
L 293.799249 364.128223 
L 293.799249 359.160278 
L 318.874202 359.160278 
L 318.874202 354.192334 
L 325.177067 354.192334 
L 325.177067 349.22439 
L 334.819005 349.22439 
L 334.819005 344.256445 
L 346.671516 344.256445 
L 346.671516 339.288501 
L 360.196314 339.288501 
L 360.196314 334.320557 
L 362.035466 334.320557 
L 362.035466 329.352612 
L 364.879046 329.352612 
L 364.879046 324.384668 
L 367.097366 324.384668 
L 367.097366 319.416724 
L 371.800383 319.416724 
L 371.800383 314.44878 
L 371.937832 314.44878 
L 371.937832 309.480835 
L 381.200186 309.480835 
L 381.200186 304.512891 
L 385.572603 304.512891 
L 385.572603 299.544947 
L 386.55423 299.544947 
L 386.55423 294.577002 
L 387.544437 294.577002 
L 387.544437 289.609058 
L 388.946709 289.609058 
L 388.946709 284.641114 
L 393.346944 284.641114 
L 393.346944 279.673169 
L 398.488483 279.673169 
L 398.488483 274.705225 
L 407.140863 274.705225 
L 407.140863 269.737281 
L 407.158929 269.737281 
L 407.158929 264.769336 
L 409.388994 264.769336 
L 409.388994 259.801392 
L 424.565646 259.801392 
L 424.565646 254.833448 
L 426.14737 254.833448 
L 426.14737 249.865503 
L 428.253454 249.865503 
L 428.253454 244.897559 
L 455.313152 244.897559 
L 455.313152 239.929615 
L 457.672782 239.929615 
L 457.672782 234.96167 
L 577 234.96167 
" style="fill:none;stroke:#f5deb3;stroke-linecap:square;"/>
   </g>
   <g id="line2d_21">
    <path clip-path="url(#p83e96481e5)" d="M 506.253315 384 
L 506.253315 379.032056 
L 535.00719 379.032056 
L 535.00719 374.064111 
L 544.6535 374.064111 
L 544.6535 369.096167 
L 544.6535 369.096167 
L 544.6535 369.096167 
L 561.068466 369.096167 
" style="fill:none;stroke:#f5deb3;stroke-linecap:square;"/>
   </g>
   <g id="line2d_22">
    <path clip-path="url(#p83e96481e5)" d="M 246.632995 384 
L 246.632995 379.032056 
L 255.044179 379.032056 
L 255.044179 374.064111 
L 266.00381 374.064111 
L 266.00381 369.096167 
L 267.404997 369.096167 
L 267.404997 364.128223 
L 275.732381 364.128223 
L 275.732381 359.160278 
L 280.292248 359.160278 
L 280.292248 354.192334 
L 349.273808 354.192334 
L 349.273808 349.22439 
L 383.749104 349.22439 
L 383.749104 344.256445 
L 386.55423 344.256445 
L 386.55423 339.288501 
L 391.743898 339.288501 
L 391.743898 334.320557 
L 395.017287 334.320557 
L 395.017287 329.352612 
L 405.340859 329.352612 
L 405.340859 324.384668 
L 410.044145 324.384668 
L 410.044145 319.416724 
L 420.654435 319.416724 
L 420.654435 314.44878 
L 426.681517 314.44878 
L 426.681517 309.480835 
L 433.133825 309.480835 
L 433.133825 304.512891 
L 460.292984 304.512891 
L 460.292984 299.544947 
L 461.089745 299.544947 
L 461.089745 294.577002 
L 465.654104 294.577002 
L 465.654104 289.609058 
L 467.447284 289.609058 
L 467.447284 284.641114 
L 471.814757 284.641114 
L 471.814757 279.673169 
L 484.594701 279.673169 
L 484.594701 274.705225 
L 498.467721 274.705225 
L 498.467721 269.737281 
L 507.378716 269.737281 
L 507.378716 264.769336 
L 508.538484 264.769336 
L 508.538484 259.801392 
L 509.559766 259.801392 
L 509.559766 254.833448 
L 528.560329 254.833448 
L 528.560329 249.865503 
L 542.95531 249.865503 
L 542.95531 244.897559 
L 552.029735 244.897559 
L 552.029735 239.929615 
L 565.926679 239.929615 
L 565.926679 234.96167 
L 570.289832 234.96167 
L 570.289832 229.993726 
L 576.399087 229.993726 
L 576.399087 225.025782 
L 577 225.025782 
" style="fill:none;stroke:#f5deb3;stroke-linecap:square;"/>
   </g>
   <g id="line2d_23">
    <path clip-path="url(#p83e96481e5)" d="M 410.266492 384 
L 410.266492 379.032056 
L 418.874334 379.032056 
L 418.874334 374.064111 
L 422.814891 374.064111 
L 422.814891 369.096167 
L 423.87736 369.096167 
L 423.87736 364.128223 
L 425.891175 364.128223 
L 425.891175 359.160278 
L 429.913028 359.160278 
L 429.913028 354.192334 
L 450.577835 354.192334 
L 450.577835 349.22439 
L 455.881055 349.22439 
L 455.881055 344.256445 
L 456.185 344.256445 
L 456.185 339.288501 
L 458.430209 339.288501 
L 458.430209 334.320557 
L 468.58544 334.320557 
L 468.58544 329.352612 
L 472.445023 329.352612 
L 472.445023 324.384668 
L 481.093252 324.384668 
L 481.093252 319.416724 
L 489.770128 319.416724 
L 489.770128 314.44878 
L 493.343357 314.44878 
L 493.343357 309.480835 
L 500.115716 309.480835 
L 500.115716 304.512891 
L 518.350683 304.512891 
L 518.350683 299.544947 
L 518.400669 299.544947 
L 518.400669 294.577002 
L 522.163458 294.577002 
L 522.163458 289.609058 
L 528.814787 289.609058 
L 528.814787 284.641114 
L 551.683157 284.641114 
L 551.683157 279.673169 
L 551.683157 279.673169 
L 551.683157 279.673169 
L 561.068466 279.673169 
" style="fill:none;stroke:#f5deb3;stroke-linecap:square;"/>
   </g>
   <g id="line2d_24">
    <path clip-path="url(#p83e96481e5)" d="M 351.85732 384 
L 351.85732 379.032056 
L 353.706182 379.032056 
L 353.706182 374.064111 
L 362.444997 374.064111 
L 362.444997 369.096167 
L 363.934228 369.096167 
L 363.934228 364.128223 
L 372.279958 364.128223 
L 372.279958 359.160278 
L 373.527596 359.160278 
L 373.527596 354.192334 
L 386.052345 354.192334 
L 386.052345 349.22439 
L 418.859741 349.22439 
L 418.859741 344.256445 
L 455.057176 344.256445 
L 455.057176 339.288501 
L 456.31791 339.288501 
L 456.31791 334.320557 
L 458.188397 334.320557 
L 458.188397 329.352612 
L 460.045481 329.352612 
L 460.045481 324.384668 
L 462.524384 324.384668 
L 462.524384 319.416724 
L 463.690842 319.416724 
L 463.690842 314.44878 
L 464.005875 314.44878 
L 464.005875 309.480835 
L 467.627622 309.480835 
L 467.627622 304.512891 
L 479.714365 304.512891 
L 479.714365 299.544947 
L 480.706861 299.544947 
L 480.706861 294.577002 
L 482.222569 294.577002 
L 482.222569 289.609058 
L 495.356803 289.609058 
L 495.356803 284.641114 
L 502.892834 284.641114 
L 502.892834 279.673169 
L 504.424119 279.673169 
L 504.424119 274.705225 
L 506.184992 274.705225 
L 506.184992 269.737281 
L 506.428191 269.737281 
L 506.428191 264.769336 
L 509.941369 264.769336 
L 509.941369 259.801392 
L 518.85323 259.801392 
L 518.85323 254.833448 
L 521.202038 254.833448 
L 521.202038 249.865503 
L 522.081198 249.865503 
L 522.081198 244.897559 
L 530.173439 244.897559 
L 530.173439 239.929615 
L 535.263256 239.929615 
L 535.263256 234.96167 
L 537.678277 234.96167 
L 537.678277 229.993726 
L 543.679044 229.993726 
L 543.679044 225.025782 
L 545.868287 225.025782 
L 545.868287 220.057837 
L 552.024578 220.057837 
L 552.024578 215.089893 
L 560.469326 215.089893 
L 560.469326 210.121949 
L 562.460013 210.121949 
L 562.460013 205.154005 
L 569.747403 205.154005 
L 569.747403 200.18606 
L 577 200.18606 
" style="fill:none;stroke:#f5deb3;stroke-linecap:square;"/>
   </g>
   <g id="line2d_25">
    <path clip-path="url(#p83e96481e5)" d="M 533.365545 384 
L 533.365545 379.032056 
L 537.104298 379.032056 
L 537.104298 374.064111 
L 542.610498 374.064111 
L 542.610498 369.096167 
L 544.047055 369.096167 
L 544.047055 364.128223 
L 544.091766 364.128223 
L 544.091766 359.160278 
L 545.260609 359.160278 
L 545.260609 354.192334 
L 545.481834 354.192334 
L 545.481834 349.22439 
L 546.326465 349.22439 
L 546.326465 344.256445 
L 547.880458 344.256445 
L 547.880458 339.288501 
L 549.515954 339.288501 
L 549.515954 334.320557 
L 550.143937 334.320557 
L 550.143937 329.352612 
L 550.229259 329.352612 
L 550.229259 324.384668 
L 550.307798 324.384668 
L 550.307798 319.416724 
L 550.399507 319.416724 
L 550.399507 314.44878 
L 550.934727 314.44878 
L 550.934727 309.480835 
L 551.670182 309.480835 
L 551.670182 304.512891 
L 552.027156 304.512891 
L 552.027156 299.544947 
L 552.885454 299.544947 
L 552.885454 294.577002 
L 554.392658 294.577002 
L 554.392658 289.609058 
L 554.946745 289.609058 
L 554.946745 284.641114 
L 556.642618 284.641114 
L 556.642618 279.673169 
L 556.781111 279.673169 
L 556.781111 274.705225 
L 559.371853 274.705225 
L 559.371853 269.737281 
L 559.648566 269.737281 
L 559.648566 264.769336 
L 575.163161 264.769336 
L 575.163161 259.801392 
L 576.705001 259.801392 
L 576.705001 254.833448 
L 577 254.833448 
" style="fill:none;stroke:#f5deb3;stroke-linecap:square;"/>
   </g>
   <g id="line2d_26">
    <path clip-path="url(#p83e96481e5)" d="M 373.460876 384 
L 373.460876 379.032056 
L 375.460193 379.032056 
L 375.460193 374.064111 
L 375.940869 374.064111 
L 375.940869 369.096167 
L 376.575291 369.096167 
L 376.575291 364.128223 
L 376.82702 364.128223 
L 376.82702 359.160278 
L 378.252472 359.160278 
L 378.252472 354.192334 
L 379.282768 354.192334 
L 379.282768 349.22439 
L 379.641833 349.22439 
L 379.641833 344.256445 
L 384.052673 344.256445 
L 384.052673 339.288501 
L 397.074164 339.288501 
L 397.074164 334.320557 
L 398.340196 334.320557 
L 398.340196 329.352612 
L 399.887892 329.352612 
L 399.887892 324.384668 
L 400.462309 324.384668 
L 400.462309 319.416724 
L 404.55098 319.416724 
L 404.55098 314.44878 
L 415.395857 314.44878 
L 415.395857 309.480835 
L 416.412408 309.480835 
L 416.412408 304.512891 
L 416.442921 304.512891 
L 416.442921 299.544947 
L 417.215314 299.544947 
L 417.215314 294.577002 
L 419.599079 294.577002 
L 419.599079 289.609058 
L 419.957893 289.609058 
L 419.957893 284.641114 
L 421.230538 284.641114 
L 421.230538 279.673169 
L 436.621316 279.673169 
L 436.621316 274.705225 
L 440.346148 274.705225 
L 440.346148 269.737281 
L 440.484103 269.737281 
L 440.484103 264.769336 
L 441.787283 264.769336 
L 441.787283 259.801392 
L 443.963612 259.801392 
L 443.963612 254.833448 
L 451.38253 254.833448 
L 451.38253 249.865503 
L 451.664219 249.865503 
L 451.664219 244.897559 
L 456.221952 244.897559 
L 456.221952 239.929615 
L 457.629595 239.929615 
L 457.629595 234.96167 
L 471.373707 234.96167 
L 471.373707 229.993726 
L 473.030075 229.993726 
L 473.030075 225.025782 
L 478.502133 225.025782 
L 478.502133 220.057837 
L 482.291524 220.057837 
L 482.291524 215.089893 
L 508.450136 215.089893 
L 508.450136 210.121949 
L 511.514663 210.121949 
L 511.514663 205.154005 
L 548.022093 205.154005 
L 548.022093 200.18606 
L 548.517707 200.18606 
L 548.517707 195.218116 
L 570.327713 195.218116 
L 570.327713 190.250172 
L 576.59553 190.250172 
L 576.59553 185.282227 
L 577 185.282227 
" style="fill:none;stroke:#f5deb3;stroke-linecap:square;"/>
   </g>
   <g id="line2d_27">
    <path clip-path="url(#p83e96481e5)" d="M 438.038916 384 
L 438.038916 379.032056 
L 438.038916 379.032056 
L 438.038916 379.032056 
L 561.068466 379.032056 
" style="fill:none;stroke:#f5deb3;stroke-linecap:square;"/>
   </g>
   <g id="line2d_28">
    <path clip-path="url(#p83e96481e5)" d="M 320.21164 384 
L 320.21164 379.032056 
L 321.085493 379.032056 
L 321.085493 374.064111 
L 332.545064 374.064111 
L 332.545064 369.096167 
L 345.628304 369.096167 
L 345.628304 364.128223 
L 372.143364 364.128223 
L 372.143364 359.160278 
L 405.228713 359.160278 
L 405.228713 354.192334 
L 424.932716 354.192334 
L 424.932716 349.22439 
L 456.912051 349.22439 
L 456.912051 344.256445 
L 460.128106 344.256445 
L 460.128106 339.288501 
L 462.944295 339.288501 
L 462.944295 334.320557 
L 462.990028 334.320557 
L 462.990028 329.352612 
L 465.517067 329.352612 
L 465.517067 324.384668 
L 466.038466 324.384668 
L 466.038466 319.416724 
L 469.526826 319.416724 
L 469.526826 314.44878 
L 476.558146 314.44878 
L 476.558146 309.480835 
L 478.47259 309.480835 
L 478.47259 304.512891 
L 502.366388 304.512891 
L 502.366388 299.544947 
L 504.017463 299.544947 
L 504.017463 294.577002 
L 504.843017 294.577002 
L 504.843017 289.609058 
L 505.310108 289.609058 
L 505.310108 284.641114 
L 506.244408 284.641114 
L 506.244408 279.673169 
L 507.712174 279.673169 
L 507.712174 274.705225 
L 509.192377 274.705225 
L 509.192377 269.737281 
L 509.888605 269.737281 
L 509.888605 264.769336 
L 510.789713 264.769336 
L 510.789713 259.801392 
L 517.261167 259.801392 
L 517.261167 254.833448 
L 517.38249 254.833448 
L 517.38249 249.865503 
L 523.430552 249.865503 
L 523.430552 244.897559 
L 524.942159 244.897559 
L 524.942159 239.929615 
L 525.136107 239.929615 
L 525.136107 234.96167 
L 530.052355 234.96167 
L 530.052355 229.993726 
L 530.445382 229.993726 
L 530.445382 225.025782 
L 547.738456 225.025782 
L 547.738456 220.057837 
L 553.383246 220.057837 
L 553.383246 215.089893 
L 558.165595 215.089893 
L 558.165595 210.121949 
L 560.799937 210.121949 
L 560.799937 205.154005 
L 561.847936 205.154005 
L 561.847936 200.18606 
L 565.475504 200.18606 
L 565.475504 195.218116 
L 577 195.218116 
" style="fill:none;stroke:#f5deb3;stroke-linecap:square;"/>
   </g>
   <g id="line2d_29">
    <path clip-path="url(#p83e96481e5)" d="M 314.654435 384 
L 314.654435 379.032056 
L 314.654435 379.032056 
L 314.654435 374.064111 
L 314.654435 374.064111 
L 314.654435 369.096167 
L 353.129032 369.096167 
L 353.129032 364.128223 
L 353.129032 364.128223 
L 353.129032 359.160278 
L 353.129032 359.160278 
L 353.129032 354.192334 
L 361.207121 354.192334 
L 361.207121 349.22439 
L 361.207121 349.22439 
L 361.207121 344.256445 
L 361.207121 344.256445 
L 361.207121 339.288501 
L 409.336937 339.288501 
L 409.336937 334.320557 
L 409.336937 334.320557 
L 409.336937 329.352612 
L 409.336937 329.352612 
L 409.336937 324.384668 
L 461.554264 324.384668 
L 461.554264 319.416724 
L 461.554264 319.416724 
L 461.554264 314.44878 
L 461.554264 314.44878 
L 461.554264 309.480835 
L 482.429175 309.480835 
L 482.429175 304.512891 
L 482.429175 304.512891 
L 482.429175 299.544947 
L 482.429175 299.544947 
L 482.429175 294.577002 
L 493.350869 294.577002 
L 493.350869 289.609058 
L 493.350869 289.609058 
L 493.350869 284.641114 
L 493.350869 284.641114 
L 493.350869 279.673169 
L 496.83923 279.673169 
L 496.83923 274.705225 
L 497.993546 274.705225 
L 497.993546 269.737281 
L 512.949589 269.737281 
L 512.949589 264.769336 
L 514.44776 264.769336 
L 514.44776 259.801392 
L 514.804568 259.801392 
L 514.804568 254.833448 
L 526.203126 254.833448 
L 526.203126 249.865503 
L 530.286593 249.865503 
L 530.286593 244.897559 
L 535.511165 244.897559 
L 535.511165 239.929615 
L 556.019235 239.929615 
L 556.019235 234.96167 
L 556.019235 234.96167 
L 556.019235 234.96167 
L 561.068466 234.96167 
" style="fill:none;stroke:#f5deb3;stroke-linecap:square;"/>
   </g>
   <g id="line2d_30">
    <path clip-path="url(#p83e96481e5)" d="M 449.444437 384 
L 449.444437 379.032056 
L 452.871049 379.032056 
L 452.871049 374.064111 
L 510.699444 374.064111 
L 510.699444 369.096167 
L 526.731 369.096167 
L 526.731 364.128223 
L 549.253514 364.128223 
L 549.253514 359.160278 
L 557.107609 359.160278 
L 557.107609 354.192334 
L 558.813066 354.192334 
L 558.813066 349.22439 
L 559.256708 349.22439 
L 559.256708 344.256445 
L 559.709122 344.256445 
L 559.709122 339.288501 
L 560.182288 339.288501 
L 560.182288 334.320557 
L 560.182288 334.320557 
L 560.182288 334.320557 
L 561.068466 334.320557 
" style="fill:none;stroke:#f5deb3;stroke-linecap:square;"/>
   </g>
   <g id="line2d_31">
    <path clip-path="url(#p83e96481e5)" d="M 5.141874 384 
L 5.141874 379.032056 
L 5.141874 379.032056 
L 5.141874 374.064111 
L 5.141874 374.064111 
L 5.141874 369.096167 
L 43.17959 369.096167 
L 43.17959 364.128223 
L 43.17959 364.128223 
L 43.17959 359.160278 
L 43.17959 359.160278 
L 43.17959 354.192334 
L 65.430228 354.192334 
L 65.430228 349.22439 
L 65.430228 349.22439 
L 65.430228 344.256445 
L 81.217307 344.256445 
L 81.217307 339.288501 
L 93.462716 339.288501 
L 93.462716 334.320557 
L 103.467945 334.320557 
L 103.467945 329.352612 
L 103.467945 329.352612 
L 103.467945 324.384668 
L 119.255023 324.384668 
L 119.255023 319.416724 
L 131.500433 319.416724 
L 131.500433 314.44878 
L 141.505661 314.44878 
L 141.505661 309.480835 
L 141.505661 309.480835 
L 141.505661 304.512891 
L 145.898151 304.512891 
L 145.898151 299.544947 
L 193.588188 299.544947 
L 193.588188 294.577002 
L 204.761053 294.577002 
L 204.761053 289.609058 
L 214.039425 289.609058 
L 214.039425 284.641114 
L 214.039425 284.641114 
L 214.039425 279.673169 
L 228.904182 279.673169 
L 228.904182 274.705225 
L 240.588665 274.705225 
L 240.588665 269.737281 
L 272.25671 269.737281 
L 272.25671 264.769336 
L 290.114858 264.769336 
L 290.114858 259.801392 
L 291.914259 259.801392 
L 291.914259 254.833448 
L 292.208505 254.833448 
L 292.208505 249.865503 
L 305.211653 249.865503 
L 305.211653 244.897559 
L 306.583645 244.897559 
L 306.583645 239.929615 
L 306.809012 239.929615 
L 306.809012 234.96167 
L 316.851712 234.96167 
L 316.851712 229.993726 
L 318.147346 229.993726 
L 318.147346 225.025782 
L 325.497985 225.025782 
L 325.497985 220.057837 
L 332.965578 220.057837 
L 332.965578 215.089893 
L 334.886463 215.089893 
L 334.886463 210.121949 
L 341.484689 210.121949 
L 341.484689 205.154005 
L 341.960847 205.154005 
L 341.960847 200.18606 
L 341.960847 200.18606 
L 341.960847 195.218116 
L 354.607767 195.218116 
L 354.607767 190.250172 
L 356.001834 190.250172 
L 356.001834 185.282227 
L 358.775336 185.282227 
L 358.775336 180.314283 
L 361.581424 180.314283 
L 361.581424 175.346339 
L 362.076557 175.346339 
L 362.076557 170.378394 
L 362.158647 170.378394 
L 362.158647 165.41045 
L 362.404181 165.41045 
L 362.404181 160.442506 
L 366.190291 160.442506 
L 366.190291 155.474561 
L 377.389223 155.474561 
L 377.389223 150.506617 
L 379.820488 150.506617 
L 379.820488 145.538673 
L 383.22077 145.538673 
L 383.22077 140.570728 
L 383.276624 140.570728 
L 383.276624 135.602784 
L 391.696034 135.602784 
L 391.696034 130.63484 
L 391.791721 130.63484 
L 391.791721 125.666895 
L 393.855708 125.666895 
L 393.855708 120.698951 
L 394.450957 120.698951 
L 394.450957 115.731007 
L 408.26759 115.731007 
L 408.26759 110.763062 
L 415.177782 110.763062 
L 415.177782 105.795118 
L 422.17289 105.795118 
L 422.17289 100.827174 
L 442.985057 100.827174 
L 442.985057 95.859229 
L 448.030422 95.859229 
L 448.030422 90.891285 
L 483.107772 90.891285 
L 483.107772 85.923341 
L 483.107772 85.923341 
L 483.107772 85.923341 
L 561.068466 85.923341 
" style="fill:none;stroke:#000000;stroke-linecap:square;"/>
   </g>
   <g id="line2d_32">
    <path clip-path="url(#p83e96481e5)" d="M -37978.501233 756.595824 
" style="fill:none;stroke:#000000;stroke-linecap:square;"/>
   </g>
   <g id="line2d_33">
    <path clip-path="url(#p83e96481e5)" d="M 571.289027 384 
L 571.289027 379.032056 
L 571.289027 379.032056 
" style="fill:none;stroke:#00bfbf;stroke-linecap:square;"/>
   </g>
   <g id="line2d_34">
    <path clip-path="url(#p83e96481e5)" d="M -37978.501233 756.595824 
" style="fill:none;stroke:#00bfbf;stroke-linecap:square;"/>
   </g>
   <g id="line2d_35"/>
   <g id="line2d_36"/>
   <g id="line2d_37">
    <path clip-path="url(#p83e96481e5)" d="M 561.053157 384 
L 561.053157 7.678218 
" style="fill:none;stroke:#000000;stroke-linecap:square;"/>
   </g>
   <g id="patch_3">
    <path d="M 55.425 7.678218 
L 561.068466 7.678218 
" style="fill:none;stroke:#000000;stroke-linecap:square;stroke-linejoin:miter;"/>
   </g>
   <g id="patch_4">
    <path d="M 561.068466 384 
L 561.068466 7.678218 
" style="fill:none;stroke:#000000;stroke-linecap:square;stroke-linejoin:miter;"/>
   </g>
   <g id="patch_5">
    <path d="M 55.425 384 
L 561.068466 384 
" style="fill:none;stroke:#000000;stroke-linecap:square;stroke-linejoin:miter;"/>
   </g>
   <g id="patch_6">
    <path d="M 55.425 384 
L 55.425 7.678218 
" style="fill:none;stroke:#000000;stroke-linecap:square;stroke-linejoin:miter;"/>
   </g>
   <g id="matplotlib.axis_1">
    <g id="xtick_1">
     <g id="line2d_38">
      <path clip-path="url(#p83e96481e5)" d="M 55.425 384 
L 55.425 7.678218 
" style="fill:none;stroke:#000000;stroke-dasharray:1.000000,3.000000;stroke-dashoffset:0.0;stroke-width:0.5;"/>
     </g>
     <g id="line2d_39">
      <defs>
       <path d="M 0 0 
L 0 -4 
" id="m9d5131ab52" style="stroke:#000000;stroke-width:0.5;"/>
      </defs>
      <g>
       <use style="stroke:#000000;stroke-width:0.5;" x="55.425" xlink:href="#m9d5131ab52" y="384.0"/>
      </g>
     </g>
     <g id="line2d_40">
      <defs>
       <path d="M 0 0 
L 0 4 
" id="m5f4fc5828d" style="stroke:#000000;stroke-width:0.5;"/>
      </defs>
      <g>
       <use style="stroke:#000000;stroke-width:0.5;" x="55.425" xlink:href="#m5f4fc5828d" y="7.67821782178"/>
      </g>
     </g>
     <g id="text_1">
      <!-- 0 -->
      <defs>
       <path d="M 31.78125 66.40625 
Q 24.171875 66.40625 20.328125 58.90625 
Q 16.5 51.421875 16.5 36.375 
Q 16.5 21.390625 20.328125 13.890625 
Q 24.171875 6.390625 31.78125 6.390625 
Q 39.453125 6.390625 43.28125 13.890625 
Q 47.125 21.390625 47.125 36.375 
Q 47.125 51.421875 43.28125 58.90625 
Q 39.453125 66.40625 31.78125 66.40625 
M 31.78125 74.21875 
Q 44.046875 74.21875 50.515625 64.515625 
Q 56.984375 54.828125 56.984375 36.375 
Q 56.984375 17.96875 50.515625 8.265625 
Q 44.046875 -1.421875 31.78125 -1.421875 
Q 19.53125 -1.421875 13.0625 8.265625 
Q 6.59375 17.96875 6.59375 36.375 
Q 6.59375 54.828125 13.0625 64.515625 
Q 19.53125 74.21875 31.78125 74.21875 
" id="BitstreamVeraSans-Roman-30"/>
      </defs>
      <g transform="translate(49.0625 403.196875)scale(0.2 -0.2)">
       <use xlink:href="#BitstreamVeraSans-Roman-30"/>
      </g>
     </g>
    </g>
    <g id="xtick_2">
     <g id="line2d_41">
      <path clip-path="url(#p83e96481e5)" d="M 181.783559 384 
L 181.783559 7.678218 
" style="fill:none;stroke:#000000;stroke-dasharray:1.000000,3.000000;stroke-dashoffset:0.0;stroke-width:0.5;"/>
     </g>
     <g id="line2d_42">
      <g>
       <use style="stroke:#000000;stroke-width:0.5;" x="181.783558915" xlink:href="#m9d5131ab52" y="384.0"/>
      </g>
     </g>
     <g id="line2d_43">
      <g>
       <use style="stroke:#000000;stroke-width:0.5;" x="181.783558915" xlink:href="#m5f4fc5828d" y="7.67821782178"/>
      </g>
     </g>
     <g id="text_2">
      <!-- 1 -->
      <defs>
       <path d="M 12.40625 8.296875 
L 28.515625 8.296875 
L 28.515625 63.921875 
L 10.984375 60.40625 
L 10.984375 69.390625 
L 28.421875 72.90625 
L 38.28125 72.90625 
L 38.28125 8.296875 
L 54.390625 8.296875 
L 54.390625 0 
L 12.40625 0 
z
" id="BitstreamVeraSans-Roman-31"/>
      </defs>
      <g transform="translate(175.421058915 403.196875)scale(0.2 -0.2)">
       <use xlink:href="#BitstreamVeraSans-Roman-31"/>
      </g>
     </g>
    </g>
    <g id="xtick_3">
     <g id="line2d_44">
      <path clip-path="url(#p83e96481e5)" d="M 308.142118 384 
L 308.142118 7.678218 
" style="fill:none;stroke:#000000;stroke-dasharray:1.000000,3.000000;stroke-dashoffset:0.0;stroke-width:0.5;"/>
     </g>
     <g id="line2d_45">
      <g>
       <use style="stroke:#000000;stroke-width:0.5;" x="308.14211783" xlink:href="#m9d5131ab52" y="384.0"/>
      </g>
     </g>
     <g id="line2d_46">
      <g>
       <use style="stroke:#000000;stroke-width:0.5;" x="308.14211783" xlink:href="#m5f4fc5828d" y="7.67821782178"/>
      </g>
     </g>
     <g id="text_3">
      <!-- 2 -->
      <defs>
       <path d="M 19.1875 8.296875 
L 53.609375 8.296875 
L 53.609375 0 
L 7.328125 0 
L 7.328125 8.296875 
Q 12.9375 14.109375 22.625 23.890625 
Q 32.328125 33.6875 34.8125 36.53125 
Q 39.546875 41.84375 41.421875 45.53125 
Q 43.3125 49.21875 43.3125 52.78125 
Q 43.3125 58.59375 39.234375 62.25 
Q 35.15625 65.921875 28.609375 65.921875 
Q 23.96875 65.921875 18.8125 64.3125 
Q 13.671875 62.703125 7.8125 59.421875 
L 7.8125 69.390625 
Q 13.765625 71.78125 18.9375 73 
Q 24.125 74.21875 28.421875 74.21875 
Q 39.75 74.21875 46.484375 68.546875 
Q 53.21875 62.890625 53.21875 53.421875 
Q 53.21875 48.921875 51.53125 44.890625 
Q 49.859375 40.875 45.40625 35.40625 
Q 44.1875 33.984375 37.640625 27.21875 
Q 31.109375 20.453125 19.1875 8.296875 
" id="BitstreamVeraSans-Roman-32"/>
      </defs>
      <g transform="translate(301.77961783 403.196875)scale(0.2 -0.2)">
       <use xlink:href="#BitstreamVeraSans-Roman-32"/>
      </g>
     </g>
    </g>
    <g id="xtick_4">
     <g id="line2d_47">
      <path clip-path="url(#p83e96481e5)" d="M 434.500677 384 
L 434.500677 7.678218 
" style="fill:none;stroke:#000000;stroke-dasharray:1.000000,3.000000;stroke-dashoffset:0.0;stroke-width:0.5;"/>
     </g>
     <g id="line2d_48">
      <g>
       <use style="stroke:#000000;stroke-width:0.5;" x="434.500676745" xlink:href="#m9d5131ab52" y="384.0"/>
      </g>
     </g>
     <g id="line2d_49">
      <g>
       <use style="stroke:#000000;stroke-width:0.5;" x="434.500676745" xlink:href="#m5f4fc5828d" y="7.67821782178"/>
      </g>
     </g>
     <g id="text_4">
      <!-- 3 -->
      <defs>
       <path d="M 40.578125 39.3125 
Q 47.65625 37.796875 51.625 33 
Q 55.609375 28.21875 55.609375 21.1875 
Q 55.609375 10.40625 48.1875 4.484375 
Q 40.765625 -1.421875 27.09375 -1.421875 
Q 22.515625 -1.421875 17.65625 -0.515625 
Q 12.796875 0.390625 7.625 2.203125 
L 7.625 11.71875 
Q 11.71875 9.328125 16.59375 8.109375 
Q 21.484375 6.890625 26.8125 6.890625 
Q 36.078125 6.890625 40.9375 10.546875 
Q 45.796875 14.203125 45.796875 21.1875 
Q 45.796875 27.640625 41.28125 31.265625 
Q 36.765625 34.90625 28.71875 34.90625 
L 20.21875 34.90625 
L 20.21875 43.015625 
L 29.109375 43.015625 
Q 36.375 43.015625 40.234375 45.921875 
Q 44.09375 48.828125 44.09375 54.296875 
Q 44.09375 59.90625 40.109375 62.90625 
Q 36.140625 65.921875 28.71875 65.921875 
Q 24.65625 65.921875 20.015625 65.03125 
Q 15.375 64.15625 9.8125 62.3125 
L 9.8125 71.09375 
Q 15.4375 72.65625 20.34375 73.4375 
Q 25.25 74.21875 29.59375 74.21875 
Q 40.828125 74.21875 47.359375 69.109375 
Q 53.90625 64.015625 53.90625 55.328125 
Q 53.90625 49.265625 50.4375 45.09375 
Q 46.96875 40.921875 40.578125 39.3125 
" id="BitstreamVeraSans-Roman-33"/>
      </defs>
      <g transform="translate(428.138176745 403.196875)scale(0.2 -0.2)">
       <use xlink:href="#BitstreamVeraSans-Roman-33"/>
      </g>
     </g>
    </g>
    <g id="xtick_5">
     <g id="line2d_50">
      <path clip-path="url(#p83e96481e5)" d="M 560.859236 384 
L 560.859236 7.678218 
" style="fill:none;stroke:#000000;stroke-dasharray:1.000000,3.000000;stroke-dashoffset:0.0;stroke-width:0.5;"/>
     </g>
     <g id="line2d_51">
      <g>
       <use style="stroke:#000000;stroke-width:0.5;" x="560.85923566" xlink:href="#m9d5131ab52" y="384.0"/>
      </g>
     </g>
     <g id="line2d_52">
      <g>
       <use style="stroke:#000000;stroke-width:0.5;" x="560.85923566" xlink:href="#m5f4fc5828d" y="7.67821782178"/>
      </g>
     </g>
     <g id="text_5">
      <!-- 4 -->
      <defs>
       <path d="M 37.796875 64.3125 
L 12.890625 25.390625 
L 37.796875 25.390625 
z
M 35.203125 72.90625 
L 47.609375 72.90625 
L 47.609375 25.390625 
L 58.015625 25.390625 
L 58.015625 17.1875 
L 47.609375 17.1875 
L 47.609375 0 
L 37.796875 0 
L 37.796875 17.1875 
L 4.890625 17.1875 
L 4.890625 26.703125 
z
" id="BitstreamVeraSans-Roman-34"/>
      </defs>
      <g transform="translate(554.49673566 403.196875)scale(0.2 -0.2)">
       <use xlink:href="#BitstreamVeraSans-Roman-34"/>
      </g>
     </g>
    </g>
    <g id="xtick_6">
     <g id="line2d_53">
      <defs>
       <path d="M 0 0 
L 0 -2 
" id="m71f58205f0" style="stroke:#000000;stroke-width:0.5;"/>
      </defs>
      <g>
       <use style="stroke:#000000;stroke-width:0.5;" x="93.4627164423" xlink:href="#m71f58205f0" y="384.0"/>
      </g>
     </g>
     <g id="line2d_54">
      <defs>
       <path d="M 0 0 
L 0 2 
" id="m3967302adf" style="stroke:#000000;stroke-width:0.5;"/>
      </defs>
      <g>
       <use style="stroke:#000000;stroke-width:0.5;" x="93.4627164423" xlink:href="#m3967302adf" y="7.67821782178"/>
      </g>
     </g>
    </g>
    <g id="xtick_7">
     <g id="line2d_55">
      <g>
       <use style="stroke:#000000;stroke-width:0.5;" x="115.713354174" xlink:href="#m71f58205f0" y="384.0"/>
      </g>
     </g>
     <g id="line2d_56">
      <g>
       <use style="stroke:#000000;stroke-width:0.5;" x="115.713354174" xlink:href="#m3967302adf" y="7.67821782178"/>
      </g>
     </g>
    </g>
    <g id="xtick_8">
     <g id="line2d_57">
      <g>
       <use style="stroke:#000000;stroke-width:0.5;" x="131.500432885" xlink:href="#m71f58205f0" y="384.0"/>
      </g>
     </g>
     <g id="line2d_58">
      <g>
       <use style="stroke:#000000;stroke-width:0.5;" x="131.500432885" xlink:href="#m3967302adf" y="7.67821782178"/>
      </g>
     </g>
    </g>
    <g id="xtick_9">
     <g id="line2d_59">
      <g>
       <use style="stroke:#000000;stroke-width:0.5;" x="143.745842473" xlink:href="#m71f58205f0" y="384.0"/>
      </g>
     </g>
     <g id="line2d_60">
      <g>
       <use style="stroke:#000000;stroke-width:0.5;" x="143.745842473" xlink:href="#m3967302adf" y="7.67821782178"/>
      </g>
     </g>
    </g>
    <g id="xtick_10">
     <g id="line2d_61">
      <g>
       <use style="stroke:#000000;stroke-width:0.5;" x="153.751070616" xlink:href="#m71f58205f0" y="384.0"/>
      </g>
     </g>
     <g id="line2d_62">
      <g>
       <use style="stroke:#000000;stroke-width:0.5;" x="153.751070616" xlink:href="#m3967302adf" y="7.67821782178"/>
      </g>
     </g>
    </g>
    <g id="xtick_11">
     <g id="line2d_63">
      <g>
       <use style="stroke:#000000;stroke-width:0.5;" x="162.210370478" xlink:href="#m71f58205f0" y="384.0"/>
      </g>
     </g>
     <g id="line2d_64">
      <g>
       <use style="stroke:#000000;stroke-width:0.5;" x="162.210370478" xlink:href="#m3967302adf" y="7.67821782178"/>
      </g>
     </g>
    </g>
    <g id="xtick_12">
     <g id="line2d_65">
      <g>
       <use style="stroke:#000000;stroke-width:0.5;" x="169.538149327" xlink:href="#m71f58205f0" y="384.0"/>
      </g>
     </g>
     <g id="line2d_66">
      <g>
       <use style="stroke:#000000;stroke-width:0.5;" x="169.538149327" xlink:href="#m3967302adf" y="7.67821782178"/>
      </g>
     </g>
    </g>
    <g id="xtick_13">
     <g id="line2d_67">
      <g>
       <use style="stroke:#000000;stroke-width:0.5;" x="176.001708348" xlink:href="#m71f58205f0" y="384.0"/>
      </g>
     </g>
     <g id="line2d_68">
      <g>
       <use style="stroke:#000000;stroke-width:0.5;" x="176.001708348" xlink:href="#m3967302adf" y="7.67821782178"/>
      </g>
     </g>
    </g>
    <g id="xtick_14">
     <g id="line2d_69">
      <g>
       <use style="stroke:#000000;stroke-width:0.5;" x="219.821275357" xlink:href="#m71f58205f0" y="384.0"/>
      </g>
     </g>
     <g id="line2d_70">
      <g>
       <use style="stroke:#000000;stroke-width:0.5;" x="219.821275357" xlink:href="#m3967302adf" y="7.67821782178"/>
      </g>
     </g>
    </g>
    <g id="xtick_15">
     <g id="line2d_71">
      <g>
       <use style="stroke:#000000;stroke-width:0.5;" x="242.071913089" xlink:href="#m71f58205f0" y="384.0"/>
      </g>
     </g>
     <g id="line2d_72">
      <g>
       <use style="stroke:#000000;stroke-width:0.5;" x="242.071913089" xlink:href="#m3967302adf" y="7.67821782178"/>
      </g>
     </g>
    </g>
    <g id="xtick_16">
     <g id="line2d_73">
      <g>
       <use style="stroke:#000000;stroke-width:0.5;" x="257.858991799" xlink:href="#m71f58205f0" y="384.0"/>
      </g>
     </g>
     <g id="line2d_74">
      <g>
       <use style="stroke:#000000;stroke-width:0.5;" x="257.858991799" xlink:href="#m3967302adf" y="7.67821782178"/>
      </g>
     </g>
    </g>
    <g id="xtick_17">
     <g id="line2d_75">
      <g>
       <use style="stroke:#000000;stroke-width:0.5;" x="270.104401388" xlink:href="#m71f58205f0" y="384.0"/>
      </g>
     </g>
     <g id="line2d_76">
      <g>
       <use style="stroke:#000000;stroke-width:0.5;" x="270.104401388" xlink:href="#m3967302adf" y="7.67821782178"/>
      </g>
     </g>
    </g>
    <g id="xtick_18">
     <g id="line2d_77">
      <g>
       <use style="stroke:#000000;stroke-width:0.5;" x="280.109629531" xlink:href="#m71f58205f0" y="384.0"/>
      </g>
     </g>
     <g id="line2d_78">
      <g>
       <use style="stroke:#000000;stroke-width:0.5;" x="280.109629531" xlink:href="#m3967302adf" y="7.67821782178"/>
      </g>
     </g>
    </g>
    <g id="xtick_19">
     <g id="line2d_79">
      <g>
       <use style="stroke:#000000;stroke-width:0.5;" x="288.568929393" xlink:href="#m71f58205f0" y="384.0"/>
      </g>
     </g>
     <g id="line2d_80">
      <g>
       <use style="stroke:#000000;stroke-width:0.5;" x="288.568929393" xlink:href="#m3967302adf" y="7.67821782178"/>
      </g>
     </g>
    </g>
    <g id="xtick_20">
     <g id="line2d_81">
      <g>
       <use style="stroke:#000000;stroke-width:0.5;" x="295.896708242" xlink:href="#m71f58205f0" y="384.0"/>
      </g>
     </g>
     <g id="line2d_82">
      <g>
       <use style="stroke:#000000;stroke-width:0.5;" x="295.896708242" xlink:href="#m3967302adf" y="7.67821782178"/>
      </g>
     </g>
    </g>
    <g id="xtick_21">
     <g id="line2d_83">
      <g>
       <use style="stroke:#000000;stroke-width:0.5;" x="302.360267263" xlink:href="#m71f58205f0" y="384.0"/>
      </g>
     </g>
     <g id="line2d_84">
      <g>
       <use style="stroke:#000000;stroke-width:0.5;" x="302.360267263" xlink:href="#m3967302adf" y="7.67821782178"/>
      </g>
     </g>
    </g>
    <g id="xtick_22">
     <g id="line2d_85">
      <g>
       <use style="stroke:#000000;stroke-width:0.5;" x="346.179834272" xlink:href="#m71f58205f0" y="384.0"/>
      </g>
     </g>
     <g id="line2d_86">
      <g>
       <use style="stroke:#000000;stroke-width:0.5;" x="346.179834272" xlink:href="#m3967302adf" y="7.67821782178"/>
      </g>
     </g>
    </g>
    <g id="xtick_23">
     <g id="line2d_87">
      <g>
       <use style="stroke:#000000;stroke-width:0.5;" x="368.430472004" xlink:href="#m71f58205f0" y="384.0"/>
      </g>
     </g>
     <g id="line2d_88">
      <g>
       <use style="stroke:#000000;stroke-width:0.5;" x="368.430472004" xlink:href="#m3967302adf" y="7.67821782178"/>
      </g>
     </g>
    </g>
    <g id="xtick_24">
     <g id="line2d_89">
      <g>
       <use style="stroke:#000000;stroke-width:0.5;" x="384.217550714" xlink:href="#m71f58205f0" y="384.0"/>
      </g>
     </g>
     <g id="line2d_90">
      <g>
       <use style="stroke:#000000;stroke-width:0.5;" x="384.217550714" xlink:href="#m3967302adf" y="7.67821782178"/>
      </g>
     </g>
    </g>
    <g id="xtick_25">
     <g id="line2d_91">
      <g>
       <use style="stroke:#000000;stroke-width:0.5;" x="396.462960302" xlink:href="#m71f58205f0" y="384.0"/>
      </g>
     </g>
     <g id="line2d_92">
      <g>
       <use style="stroke:#000000;stroke-width:0.5;" x="396.462960302" xlink:href="#m3967302adf" y="7.67821782178"/>
      </g>
     </g>
    </g>
    <g id="xtick_26">
     <g id="line2d_93">
      <g>
       <use style="stroke:#000000;stroke-width:0.5;" x="406.468188446" xlink:href="#m71f58205f0" y="384.0"/>
      </g>
     </g>
     <g id="line2d_94">
      <g>
       <use style="stroke:#000000;stroke-width:0.5;" x="406.468188446" xlink:href="#m3967302adf" y="7.67821782178"/>
      </g>
     </g>
    </g>
    <g id="xtick_27">
     <g id="line2d_95">
      <g>
       <use style="stroke:#000000;stroke-width:0.5;" x="414.927488308" xlink:href="#m71f58205f0" y="384.0"/>
      </g>
     </g>
     <g id="line2d_96">
      <g>
       <use style="stroke:#000000;stroke-width:0.5;" x="414.927488308" xlink:href="#m3967302adf" y="7.67821782178"/>
      </g>
     </g>
    </g>
    <g id="xtick_28">
     <g id="line2d_97">
      <g>
       <use style="stroke:#000000;stroke-width:0.5;" x="422.255267157" xlink:href="#m71f58205f0" y="384.0"/>
      </g>
     </g>
     <g id="line2d_98">
      <g>
       <use style="stroke:#000000;stroke-width:0.5;" x="422.255267157" xlink:href="#m3967302adf" y="7.67821782178"/>
      </g>
     </g>
    </g>
    <g id="xtick_29">
     <g id="line2d_99">
      <g>
       <use style="stroke:#000000;stroke-width:0.5;" x="428.718826178" xlink:href="#m71f58205f0" y="384.0"/>
      </g>
     </g>
     <g id="line2d_100">
      <g>
       <use style="stroke:#000000;stroke-width:0.5;" x="428.718826178" xlink:href="#m3967302adf" y="7.67821782178"/>
      </g>
     </g>
    </g>
    <g id="xtick_30">
     <g id="line2d_101">
      <g>
       <use style="stroke:#000000;stroke-width:0.5;" x="472.538393187" xlink:href="#m71f58205f0" y="384.0"/>
      </g>
     </g>
     <g id="line2d_102">
      <g>
       <use style="stroke:#000000;stroke-width:0.5;" x="472.538393187" xlink:href="#m3967302adf" y="7.67821782178"/>
      </g>
     </g>
    </g>
    <g id="xtick_31">
     <g id="line2d_103">
      <g>
       <use style="stroke:#000000;stroke-width:0.5;" x="494.789030919" xlink:href="#m71f58205f0" y="384.0"/>
      </g>
     </g>
     <g id="line2d_104">
      <g>
       <use style="stroke:#000000;stroke-width:0.5;" x="494.789030919" xlink:href="#m3967302adf" y="7.67821782178"/>
      </g>
     </g>
    </g>
    <g id="xtick_32">
     <g id="line2d_105">
      <g>
       <use style="stroke:#000000;stroke-width:0.5;" x="510.576109629" xlink:href="#m71f58205f0" y="384.0"/>
      </g>
     </g>
     <g id="line2d_106">
      <g>
       <use style="stroke:#000000;stroke-width:0.5;" x="510.576109629" xlink:href="#m3967302adf" y="7.67821782178"/>
      </g>
     </g>
    </g>
    <g id="xtick_33">
     <g id="line2d_107">
      <g>
       <use style="stroke:#000000;stroke-width:0.5;" x="522.821519217" xlink:href="#m71f58205f0" y="384.0"/>
      </g>
     </g>
     <g id="line2d_108">
      <g>
       <use style="stroke:#000000;stroke-width:0.5;" x="522.821519217" xlink:href="#m3967302adf" y="7.67821782178"/>
      </g>
     </g>
    </g>
    <g id="xtick_34">
     <g id="line2d_109">
      <g>
       <use style="stroke:#000000;stroke-width:0.5;" x="532.826747361" xlink:href="#m71f58205f0" y="384.0"/>
      </g>
     </g>
     <g id="line2d_110">
      <g>
       <use style="stroke:#000000;stroke-width:0.5;" x="532.826747361" xlink:href="#m3967302adf" y="7.67821782178"/>
      </g>
     </g>
    </g>
    <g id="xtick_35">
     <g id="line2d_111">
      <g>
       <use style="stroke:#000000;stroke-width:0.5;" x="541.286047223" xlink:href="#m71f58205f0" y="384.0"/>
      </g>
     </g>
     <g id="line2d_112">
      <g>
       <use style="stroke:#000000;stroke-width:0.5;" x="541.286047223" xlink:href="#m3967302adf" y="7.67821782178"/>
      </g>
     </g>
    </g>
    <g id="xtick_36">
     <g id="line2d_113">
      <g>
       <use style="stroke:#000000;stroke-width:0.5;" x="548.613826072" xlink:href="#m71f58205f0" y="384.0"/>
      </g>
     </g>
     <g id="line2d_114">
      <g>
       <use style="stroke:#000000;stroke-width:0.5;" x="548.613826072" xlink:href="#m3967302adf" y="7.67821782178"/>
      </g>
     </g>
    </g>
    <g id="xtick_37">
     <g id="line2d_115">
      <g>
       <use style="stroke:#000000;stroke-width:0.5;" x="555.077385093" xlink:href="#m71f58205f0" y="384.0"/>
      </g>
     </g>
     <g id="line2d_116">
      <g>
       <use style="stroke:#000000;stroke-width:0.5;" x="555.077385093" xlink:href="#m3967302adf" y="7.67821782178"/>
      </g>
     </g>
    </g>
    <g id="text_6">
     <!-- log10 of FEvals / DIM -->
     <defs>
      <path id="BitstreamVeraSans-Roman-20"/>
      <path d="M 9.8125 72.90625 
L 24.515625 72.90625 
L 43.109375 23.296875 
L 61.8125 72.90625 
L 76.515625 72.90625 
L 76.515625 0 
L 66.890625 0 
L 66.890625 64.015625 
L 48.09375 14.015625 
L 38.1875 14.015625 
L 19.390625 64.015625 
L 19.390625 0 
L 9.8125 0 
z
" id="BitstreamVeraSans-Roman-4d"/>
      <path d="M 30.609375 48.390625 
Q 23.390625 48.390625 19.1875 42.75 
Q 14.984375 37.109375 14.984375 27.296875 
Q 14.984375 17.484375 19.15625 11.84375 
Q 23.34375 6.203125 30.609375 6.203125 
Q 37.796875 6.203125 41.984375 11.859375 
Q 46.1875 17.53125 46.1875 27.296875 
Q 46.1875 37.015625 41.984375 42.703125 
Q 37.796875 48.390625 30.609375 48.390625 
M 30.609375 56 
Q 42.328125 56 49.015625 48.375 
Q 55.71875 40.765625 55.71875 27.296875 
Q 55.71875 13.875 49.015625 6.21875 
Q 42.328125 -1.421875 30.609375 -1.421875 
Q 18.84375 -1.421875 12.171875 6.21875 
Q 5.515625 13.875 5.515625 27.296875 
Q 5.515625 40.765625 12.171875 48.375 
Q 18.84375 56 30.609375 56 
" id="BitstreamVeraSans-Roman-6f"/>
      <path d="M 9.421875 75.984375 
L 18.40625 75.984375 
L 18.40625 0 
L 9.421875 0 
z
" id="BitstreamVeraSans-Roman-6c"/>
      <path d="M 9.8125 72.90625 
L 51.703125 72.90625 
L 51.703125 64.59375 
L 19.671875 64.59375 
L 19.671875 43.109375 
L 48.578125 43.109375 
L 48.578125 34.8125 
L 19.671875 34.8125 
L 19.671875 0 
L 9.8125 0 
z
" id="BitstreamVeraSans-Roman-46"/>
      <path d="M 9.8125 72.90625 
L 55.90625 72.90625 
L 55.90625 64.59375 
L 19.671875 64.59375 
L 19.671875 43.015625 
L 54.390625 43.015625 
L 54.390625 34.71875 
L 19.671875 34.71875 
L 19.671875 8.296875 
L 56.78125 8.296875 
L 56.78125 0 
L 9.8125 0 
z
" id="BitstreamVeraSans-Roman-45"/>
      <path d="M 19.671875 64.796875 
L 19.671875 8.109375 
L 31.59375 8.109375 
Q 46.6875 8.109375 53.6875 14.9375 
Q 60.6875 21.78125 60.6875 36.53125 
Q 60.6875 51.171875 53.6875 57.984375 
Q 46.6875 64.796875 31.59375 64.796875 
z
M 9.8125 72.90625 
L 30.078125 72.90625 
Q 51.265625 72.90625 61.171875 64.09375 
Q 71.09375 55.28125 71.09375 36.53125 
Q 71.09375 17.671875 61.125 8.828125 
Q 51.171875 0 30.078125 0 
L 9.8125 0 
z
" id="BitstreamVeraSans-Roman-44"/>
      <path d="M 25.390625 72.90625 
L 33.6875 72.90625 
L 8.296875 -9.28125 
L 0 -9.28125 
z
" id="BitstreamVeraSans-Roman-2f"/>
      <path d="M 2.984375 54.6875 
L 12.5 54.6875 
L 29.59375 8.796875 
L 46.6875 54.6875 
L 56.203125 54.6875 
L 35.6875 0 
L 23.484375 0 
z
" id="BitstreamVeraSans-Roman-76"/>
      <path d="M 45.40625 27.984375 
Q 45.40625 37.75 41.375 43.109375 
Q 37.359375 48.484375 30.078125 48.484375 
Q 22.859375 48.484375 18.828125 43.109375 
Q 14.796875 37.75 14.796875 27.984375 
Q 14.796875 18.265625 18.828125 12.890625 
Q 22.859375 7.515625 30.078125 7.515625 
Q 37.359375 7.515625 41.375 12.890625 
Q 45.40625 18.265625 45.40625 27.984375 
M 54.390625 6.78125 
Q 54.390625 -7.171875 48.1875 -13.984375 
Q 42 -20.796875 29.203125 -20.796875 
Q 24.46875 -20.796875 20.265625 -20.09375 
Q 16.0625 -19.390625 12.109375 -17.921875 
L 12.109375 -9.1875 
Q 16.0625 -11.328125 19.921875 -12.34375 
Q 23.78125 -13.375 27.78125 -13.375 
Q 36.625 -13.375 41.015625 -8.765625 
Q 45.40625 -4.15625 45.40625 5.171875 
L 45.40625 9.625 
Q 42.625 4.78125 38.28125 2.390625 
Q 33.9375 0 27.875 0 
Q 17.828125 0 11.671875 7.65625 
Q 5.515625 15.328125 5.515625 27.984375 
Q 5.515625 40.671875 11.671875 48.328125 
Q 17.828125 56 27.875 56 
Q 33.9375 56 38.28125 53.609375 
Q 42.625 51.21875 45.40625 46.390625 
L 45.40625 54.6875 
L 54.390625 54.6875 
z
" id="BitstreamVeraSans-Roman-67"/>
      <path d="M 37.109375 75.984375 
L 37.109375 68.5 
L 28.515625 68.5 
Q 23.6875 68.5 21.796875 66.546875 
Q 19.921875 64.59375 19.921875 59.515625 
L 19.921875 54.6875 
L 34.71875 54.6875 
L 34.71875 47.703125 
L 19.921875 47.703125 
L 19.921875 0 
L 10.890625 0 
L 10.890625 47.703125 
L 2.296875 47.703125 
L 2.296875 54.6875 
L 10.890625 54.6875 
L 10.890625 58.5 
Q 10.890625 67.625 15.140625 71.796875 
Q 19.390625 75.984375 28.609375 75.984375 
z
" id="BitstreamVeraSans-Roman-66"/>
      <path d="M 34.28125 27.484375 
Q 23.390625 27.484375 19.1875 25 
Q 14.984375 22.515625 14.984375 16.5 
Q 14.984375 11.71875 18.140625 8.90625 
Q 21.296875 6.109375 26.703125 6.109375 
Q 34.1875 6.109375 38.703125 11.40625 
Q 43.21875 16.703125 43.21875 25.484375 
L 43.21875 27.484375 
z
M 52.203125 31.203125 
L 52.203125 0 
L 43.21875 0 
L 43.21875 8.296875 
Q 40.140625 3.328125 35.546875 0.953125 
Q 30.953125 -1.421875 24.3125 -1.421875 
Q 15.921875 -1.421875 10.953125 3.296875 
Q 6 8.015625 6 15.921875 
Q 6 25.140625 12.171875 29.828125 
Q 18.359375 34.515625 30.609375 34.515625 
L 43.21875 34.515625 
L 43.21875 35.40625 
Q 43.21875 41.609375 39.140625 45 
Q 35.0625 48.390625 27.6875 48.390625 
Q 23 48.390625 18.546875 47.265625 
Q 14.109375 46.140625 10.015625 43.890625 
L 10.015625 52.203125 
Q 14.9375 54.109375 19.578125 55.046875 
Q 24.21875 56 28.609375 56 
Q 40.484375 56 46.34375 49.84375 
Q 52.203125 43.703125 52.203125 31.203125 
" id="BitstreamVeraSans-Roman-61"/>
      <path d="M 44.28125 53.078125 
L 44.28125 44.578125 
Q 40.484375 46.53125 36.375 47.5 
Q 32.28125 48.484375 27.875 48.484375 
Q 21.1875 48.484375 17.84375 46.4375 
Q 14.5 44.390625 14.5 40.28125 
Q 14.5 37.15625 16.890625 35.375 
Q 19.28125 33.59375 26.515625 31.984375 
L 29.59375 31.296875 
Q 39.15625 29.25 43.1875 25.515625 
Q 47.21875 21.78125 47.21875 15.09375 
Q 47.21875 7.46875 41.1875 3.015625 
Q 35.15625 -1.421875 24.609375 -1.421875 
Q 20.21875 -1.421875 15.453125 -0.5625 
Q 10.6875 0.296875 5.421875 2 
L 5.421875 11.28125 
Q 10.40625 8.6875 15.234375 7.390625 
Q 20.0625 6.109375 24.8125 6.109375 
Q 31.15625 6.109375 34.5625 8.28125 
Q 37.984375 10.453125 37.984375 14.40625 
Q 37.984375 18.0625 35.515625 20.015625 
Q 33.0625 21.96875 24.703125 23.78125 
L 21.578125 24.515625 
Q 13.234375 26.265625 9.515625 29.90625 
Q 5.8125 33.546875 5.8125 39.890625 
Q 5.8125 47.609375 11.28125 51.796875 
Q 16.75 56 26.8125 56 
Q 31.78125 56 36.171875 55.265625 
Q 40.578125 54.546875 44.28125 53.078125 
" id="BitstreamVeraSans-Roman-73"/>
      <path d="M 9.8125 72.90625 
L 19.671875 72.90625 
L 19.671875 0 
L 9.8125 0 
z
" id="BitstreamVeraSans-Roman-49"/>
     </defs>
     <g transform="translate(203.173295378 427.553125)scale(0.2 -0.2)">
      <use xlink:href="#BitstreamVeraSans-Roman-6c"/>
      <use x="27.783203125" xlink:href="#BitstreamVeraSans-Roman-6f"/>
      <use x="88.96484375" xlink:href="#BitstreamVeraSans-Roman-67"/>
      <use x="152.44140625" xlink:href="#BitstreamVeraSans-Roman-31"/>
      <use x="216.064453125" xlink:href="#BitstreamVeraSans-Roman-30"/>
      <use x="279.6875" xlink:href="#BitstreamVeraSans-Roman-20"/>
      <use x="311.474609375" xlink:href="#BitstreamVeraSans-Roman-6f"/>
      <use x="372.65625" xlink:href="#BitstreamVeraSans-Roman-66"/>
      <use x="407.861328125" xlink:href="#BitstreamVeraSans-Roman-20"/>
      <use x="439.6484375" xlink:href="#BitstreamVeraSans-Roman-46"/>
      <use x="497.16796875" xlink:href="#BitstreamVeraSans-Roman-45"/>
      <use x="560.3515625" xlink:href="#BitstreamVeraSans-Roman-76"/>
      <use x="619.53125" xlink:href="#BitstreamVeraSans-Roman-61"/>
      <use x="680.810546875" xlink:href="#BitstreamVeraSans-Roman-6c"/>
      <use x="708.59375" xlink:href="#BitstreamVeraSans-Roman-73"/>
      <use x="760.693359375" xlink:href="#BitstreamVeraSans-Roman-20"/>
      <use x="792.48046875" xlink:href="#BitstreamVeraSans-Roman-2f"/>
      <use x="826.171875" xlink:href="#BitstreamVeraSans-Roman-20"/>
      <use x="857.958984375" xlink:href="#BitstreamVeraSans-Roman-44"/>
      <use x="934.9609375" xlink:href="#BitstreamVeraSans-Roman-49"/>
      <use x="964.453125" xlink:href="#BitstreamVeraSans-Roman-4d"/>
     </g>
    </g>
   </g>
   <g id="matplotlib.axis_2">
    <g id="ytick_1">
     <g id="line2d_117">
      <path clip-path="url(#p83e96481e5)" d="M 55.425 384 
L 561.068466 384 
" style="fill:none;stroke:#000000;stroke-dasharray:1.000000,3.000000;stroke-dashoffset:0.0;stroke-width:0.5;"/>
     </g>
     <g id="line2d_118">
      <defs>
       <path d="M 0 0 
L 4 0 
" id="m32bc01aea0" style="stroke:#000000;stroke-width:0.5;"/>
      </defs>
      <g>
       <use style="stroke:#000000;stroke-width:0.5;" x="55.425" xlink:href="#m32bc01aea0" y="384.0"/>
      </g>
     </g>
     <g id="line2d_119">
      <defs>
       <path d="M 0 0 
L -4 0 
" id="m97d161e2ca" style="stroke:#000000;stroke-width:0.5;"/>
      </defs>
      <g>
       <use style="stroke:#000000;stroke-width:0.5;" x="561.068465755" xlink:href="#m97d161e2ca" y="384.0"/>
      </g>
     </g>
     <g id="text_7">
      <!-- 0.0 -->
      <defs>
       <path d="M 10.6875 12.40625 
L 21 12.40625 
L 21 0 
L 10.6875 0 
z
" id="BitstreamVeraSans-Roman-2e"/>
      </defs>
      <g transform="translate(25.98 388.415)scale(0.16 -0.16)">
       <use xlink:href="#BitstreamVeraSans-Roman-30"/>
       <use x="63.623046875" xlink:href="#BitstreamVeraSans-Roman-2e"/>
       <use x="95.41015625" xlink:href="#BitstreamVeraSans-Roman-30"/>
      </g>
     </g>
    </g>
    <g id="ytick_2">
     <g id="line2d_120">
      <path clip-path="url(#p83e96481e5)" d="M 55.425 309.480835 
L 561.068466 309.480835 
" style="fill:none;stroke:#000000;stroke-dasharray:1.000000,3.000000;stroke-dashoffset:0.0;stroke-width:0.5;"/>
     </g>
     <g id="line2d_121">
      <g>
       <use style="stroke:#000000;stroke-width:0.5;" x="55.425" xlink:href="#m32bc01aea0" y="309.480835212"/>
      </g>
     </g>
     <g id="line2d_122">
      <g>
       <use style="stroke:#000000;stroke-width:0.5;" x="561.068465755" xlink:href="#m97d161e2ca" y="309.480835212"/>
      </g>
     </g>
     <g id="text_8">
      <!-- 0.2 -->
      <g transform="translate(25.98 313.895835212)scale(0.16 -0.16)">
       <use xlink:href="#BitstreamVeraSans-Roman-30"/>
       <use x="63.623046875" xlink:href="#BitstreamVeraSans-Roman-2e"/>
       <use x="95.41015625" xlink:href="#BitstreamVeraSans-Roman-32"/>
      </g>
     </g>
    </g>
    <g id="ytick_3">
     <g id="line2d_123">
      <path clip-path="url(#p83e96481e5)" d="M 55.425 234.96167 
L 561.068466 234.96167 
" style="fill:none;stroke:#000000;stroke-dasharray:1.000000,3.000000;stroke-dashoffset:0.0;stroke-width:0.5;"/>
     </g>
     <g id="line2d_124">
      <g>
       <use style="stroke:#000000;stroke-width:0.5;" x="55.425" xlink:href="#m32bc01aea0" y="234.961670424"/>
      </g>
     </g>
     <g id="line2d_125">
      <g>
       <use style="stroke:#000000;stroke-width:0.5;" x="561.068465755" xlink:href="#m97d161e2ca" y="234.961670424"/>
      </g>
     </g>
     <g id="text_9">
      <!-- 0.4 -->
      <g transform="translate(25.98 239.376670424)scale(0.16 -0.16)">
       <use xlink:href="#BitstreamVeraSans-Roman-30"/>
       <use x="63.623046875" xlink:href="#BitstreamVeraSans-Roman-2e"/>
       <use x="95.41015625" xlink:href="#BitstreamVeraSans-Roman-34"/>
      </g>
     </g>
    </g>
    <g id="ytick_4">
     <g id="line2d_126">
      <path clip-path="url(#p83e96481e5)" d="M 55.425 160.442506 
L 561.068466 160.442506 
" style="fill:none;stroke:#000000;stroke-dasharray:1.000000,3.000000;stroke-dashoffset:0.0;stroke-width:0.5;"/>
     </g>
     <g id="line2d_127">
      <g>
       <use style="stroke:#000000;stroke-width:0.5;" x="55.425" xlink:href="#m32bc01aea0" y="160.442505637"/>
      </g>
     </g>
     <g id="line2d_128">
      <g>
       <use style="stroke:#000000;stroke-width:0.5;" x="561.068465755" xlink:href="#m97d161e2ca" y="160.442505637"/>
      </g>
     </g>
     <g id="text_10">
      <!-- 0.6 -->
      <defs>
       <path d="M 33.015625 40.375 
Q 26.375 40.375 22.484375 35.828125 
Q 18.609375 31.296875 18.609375 23.390625 
Q 18.609375 15.53125 22.484375 10.953125 
Q 26.375 6.390625 33.015625 6.390625 
Q 39.65625 6.390625 43.53125 10.953125 
Q 47.40625 15.53125 47.40625 23.390625 
Q 47.40625 31.296875 43.53125 35.828125 
Q 39.65625 40.375 33.015625 40.375 
M 52.59375 71.296875 
L 52.59375 62.3125 
Q 48.875 64.0625 45.09375 64.984375 
Q 41.3125 65.921875 37.59375 65.921875 
Q 27.828125 65.921875 22.671875 59.328125 
Q 17.53125 52.734375 16.796875 39.40625 
Q 19.671875 43.65625 24.015625 45.921875 
Q 28.375 48.1875 33.59375 48.1875 
Q 44.578125 48.1875 50.953125 41.515625 
Q 57.328125 34.859375 57.328125 23.390625 
Q 57.328125 12.15625 50.6875 5.359375 
Q 44.046875 -1.421875 33.015625 -1.421875 
Q 20.359375 -1.421875 13.671875 8.265625 
Q 6.984375 17.96875 6.984375 36.375 
Q 6.984375 53.65625 15.1875 63.9375 
Q 23.390625 74.21875 37.203125 74.21875 
Q 40.921875 74.21875 44.703125 73.484375 
Q 48.484375 72.75 52.59375 71.296875 
" id="BitstreamVeraSans-Roman-36"/>
      </defs>
      <g transform="translate(25.98 164.857505637)scale(0.16 -0.16)">
       <use xlink:href="#BitstreamVeraSans-Roman-30"/>
       <use x="63.623046875" xlink:href="#BitstreamVeraSans-Roman-2e"/>
       <use x="95.41015625" xlink:href="#BitstreamVeraSans-Roman-36"/>
      </g>
     </g>
    </g>
    <g id="ytick_5">
     <g id="line2d_129">
      <path clip-path="url(#p83e96481e5)" d="M 55.425 85.923341 
L 561.068466 85.923341 
" style="fill:none;stroke:#000000;stroke-dasharray:1.000000,3.000000;stroke-dashoffset:0.0;stroke-width:0.5;"/>
     </g>
     <g id="line2d_130">
      <g>
       <use style="stroke:#000000;stroke-width:0.5;" x="55.425" xlink:href="#m32bc01aea0" y="85.9233408489"/>
      </g>
     </g>
     <g id="line2d_131">
      <g>
       <use style="stroke:#000000;stroke-width:0.5;" x="561.068465755" xlink:href="#m97d161e2ca" y="85.9233408489"/>
      </g>
     </g>
     <g id="text_11">
      <!-- 0.8 -->
      <defs>
       <path d="M 31.78125 34.625 
Q 24.75 34.625 20.71875 30.859375 
Q 16.703125 27.09375 16.703125 20.515625 
Q 16.703125 13.921875 20.71875 10.15625 
Q 24.75 6.390625 31.78125 6.390625 
Q 38.8125 6.390625 42.859375 10.171875 
Q 46.921875 13.96875 46.921875 20.515625 
Q 46.921875 27.09375 42.890625 30.859375 
Q 38.875 34.625 31.78125 34.625 
M 21.921875 38.8125 
Q 15.578125 40.375 12.03125 44.71875 
Q 8.5 49.078125 8.5 55.328125 
Q 8.5 64.0625 14.71875 69.140625 
Q 20.953125 74.21875 31.78125 74.21875 
Q 42.671875 74.21875 48.875 69.140625 
Q 55.078125 64.0625 55.078125 55.328125 
Q 55.078125 49.078125 51.53125 44.71875 
Q 48 40.375 41.703125 38.8125 
Q 48.828125 37.15625 52.796875 32.3125 
Q 56.78125 27.484375 56.78125 20.515625 
Q 56.78125 9.90625 50.3125 4.234375 
Q 43.84375 -1.421875 31.78125 -1.421875 
Q 19.734375 -1.421875 13.25 4.234375 
Q 6.78125 9.90625 6.78125 20.515625 
Q 6.78125 27.484375 10.78125 32.3125 
Q 14.796875 37.15625 21.921875 38.8125 
M 18.3125 54.390625 
Q 18.3125 48.734375 21.84375 45.5625 
Q 25.390625 42.390625 31.78125 42.390625 
Q 38.140625 42.390625 41.71875 45.5625 
Q 45.3125 48.734375 45.3125 54.390625 
Q 45.3125 60.0625 41.71875 63.234375 
Q 38.140625 66.40625 31.78125 66.40625 
Q 25.390625 66.40625 21.84375 63.234375 
Q 18.3125 60.0625 18.3125 54.390625 
" id="BitstreamVeraSans-Roman-38"/>
      </defs>
      <g transform="translate(25.98 90.3383408489)scale(0.16 -0.16)">
       <use xlink:href="#BitstreamVeraSans-Roman-30"/>
       <use x="63.623046875" xlink:href="#BitstreamVeraSans-Roman-2e"/>
       <use x="95.41015625" xlink:href="#BitstreamVeraSans-Roman-38"/>
      </g>
     </g>
    </g>
    <g id="ytick_6">
     <g id="line2d_132">
      <path clip-path="url(#p83e96481e5)" d="M 55.425 11.404176 
L 561.068466 11.404176 
" style="fill:none;stroke:#000000;stroke-dasharray:1.000000,3.000000;stroke-dashoffset:0.0;stroke-width:0.5;"/>
     </g>
     <g id="line2d_133">
      <g>
       <use style="stroke:#000000;stroke-width:0.5;" x="55.425" xlink:href="#m32bc01aea0" y="11.4041760612"/>
      </g>
     </g>
     <g id="line2d_134">
      <g>
       <use style="stroke:#000000;stroke-width:0.5;" x="561.068465755" xlink:href="#m97d161e2ca" y="11.4041760612"/>
      </g>
     </g>
     <g id="text_12">
      <!-- 1.0 -->
      <g transform="translate(25.98 15.8191760612)scale(0.16 -0.16)">
       <use xlink:href="#BitstreamVeraSans-Roman-31"/>
       <use x="63.623046875" xlink:href="#BitstreamVeraSans-Roman-2e"/>
       <use x="95.41015625" xlink:href="#BitstreamVeraSans-Roman-30"/>
      </g>
     </g>
    </g>
    <g id="text_13">
     <!-- proportion of trials -->
     <defs>
      <path d="M 54.890625 33.015625 
L 54.890625 0 
L 45.90625 0 
L 45.90625 32.71875 
Q 45.90625 40.484375 42.875 44.328125 
Q 39.84375 48.1875 33.796875 48.1875 
Q 26.515625 48.1875 22.3125 43.546875 
Q 18.109375 38.921875 18.109375 30.90625 
L 18.109375 0 
L 9.078125 0 
L 9.078125 54.6875 
L 18.109375 54.6875 
L 18.109375 46.1875 
Q 21.34375 51.125 25.703125 53.5625 
Q 30.078125 56 35.796875 56 
Q 45.21875 56 50.046875 50.171875 
Q 54.890625 44.34375 54.890625 33.015625 
" id="BitstreamVeraSans-Roman-6e"/>
      <path d="M 9.421875 54.6875 
L 18.40625 54.6875 
L 18.40625 0 
L 9.421875 0 
z
M 9.421875 75.984375 
L 18.40625 75.984375 
L 18.40625 64.59375 
L 9.421875 64.59375 
z
" id="BitstreamVeraSans-Roman-69"/>
      <path d="M 18.3125 70.21875 
L 18.3125 54.6875 
L 36.8125 54.6875 
L 36.8125 47.703125 
L 18.3125 47.703125 
L 18.3125 18.015625 
Q 18.3125 11.328125 20.140625 9.421875 
Q 21.96875 7.515625 27.59375 7.515625 
L 36.8125 7.515625 
L 36.8125 0 
L 27.59375 0 
Q 17.1875 0 13.234375 3.875 
Q 9.28125 7.765625 9.28125 18.015625 
L 9.28125 47.703125 
L 2.6875 47.703125 
L 2.6875 54.6875 
L 9.28125 54.6875 
L 9.28125 70.21875 
z
" id="BitstreamVeraSans-Roman-74"/>
      <path d="M 41.109375 46.296875 
Q 39.59375 47.171875 37.8125 47.578125 
Q 36.03125 48 33.890625 48 
Q 26.265625 48 22.1875 43.046875 
Q 18.109375 38.09375 18.109375 28.8125 
L 18.109375 0 
L 9.078125 0 
L 9.078125 54.6875 
L 18.109375 54.6875 
L 18.109375 46.1875 
Q 20.953125 51.171875 25.484375 53.578125 
Q 30.03125 56 36.53125 56 
Q 37.453125 56 38.578125 55.875 
Q 39.703125 55.765625 41.0625 55.515625 
z
" id="BitstreamVeraSans-Roman-72"/>
      <path d="M 18.109375 8.203125 
L 18.109375 -20.796875 
L 9.078125 -20.796875 
L 9.078125 54.6875 
L 18.109375 54.6875 
L 18.109375 46.390625 
Q 20.953125 51.265625 25.265625 53.625 
Q 29.59375 56 35.59375 56 
Q 45.5625 56 51.78125 48.09375 
Q 58.015625 40.1875 58.015625 27.296875 
Q 58.015625 14.40625 51.78125 6.484375 
Q 45.5625 -1.421875 35.59375 -1.421875 
Q 29.59375 -1.421875 25.265625 0.953125 
Q 20.953125 3.328125 18.109375 8.203125 
M 48.6875 27.296875 
Q 48.6875 37.203125 44.609375 42.84375 
Q 40.53125 48.484375 33.40625 48.484375 
Q 26.265625 48.484375 22.1875 42.84375 
Q 18.109375 37.203125 18.109375 27.296875 
Q 18.109375 17.390625 22.1875 11.75 
Q 26.265625 6.109375 33.40625 6.109375 
Q 40.53125 6.109375 44.609375 11.75 
Q 48.6875 17.390625 48.6875 27.296875 
" id="BitstreamVeraSans-Roman-70"/>
     </defs>
     <g transform="translate(16.820625 289.067233911)rotate(-90.0)scale(0.2 -0.2)">
      <use xlink:href="#BitstreamVeraSans-Roman-70"/>
      <use x="63.4765625" xlink:href="#BitstreamVeraSans-Roman-72"/>
      <use x="104.55859375" xlink:href="#BitstreamVeraSans-Roman-6f"/>
      <use x="165.740234375" xlink:href="#BitstreamVeraSans-Roman-70"/>
      <use x="229.216796875" xlink:href="#BitstreamVeraSans-Roman-6f"/>
      <use x="290.3984375" xlink:href="#BitstreamVeraSans-Roman-72"/>
      <use x="331.51171875" xlink:href="#BitstreamVeraSans-Roman-74"/>
      <use x="370.720703125" xlink:href="#BitstreamVeraSans-Roman-69"/>
      <use x="398.50390625" xlink:href="#BitstreamVeraSans-Roman-6f"/>
      <use x="459.685546875" xlink:href="#BitstreamVeraSans-Roman-6e"/>
      <use x="523.064453125" xlink:href="#BitstreamVeraSans-Roman-20"/>
      <use x="554.8515625" xlink:href="#BitstreamVeraSans-Roman-6f"/>
      <use x="616.033203125" xlink:href="#BitstreamVeraSans-Roman-66"/>
      <use x="651.23828125" xlink:href="#BitstreamVeraSans-Roman-20"/>
      <use x="683.025390625" xlink:href="#BitstreamVeraSans-Roman-74"/>
      <use x="722.234375" xlink:href="#BitstreamVeraSans-Roman-72"/>
      <use x="763.34765625" xlink:href="#BitstreamVeraSans-Roman-69"/>
      <use x="791.130859375" xlink:href="#BitstreamVeraSans-Roman-61"/>
      <use x="852.41015625" xlink:href="#BitstreamVeraSans-Roman-6c"/>
      <use x="880.193359375" xlink:href="#BitstreamVeraSans-Roman-73"/>
     </g>
    </g>
   </g>
   <g id="text_14">
    <!-- {f20-f24}, 5-D -->
    <defs>
     <path d="M 11.71875 12.40625 
L 22.015625 12.40625 
L 22.015625 4 
L 14.015625 -11.625 
L 7.71875 -11.625 
L 11.71875 4 
z
" id="BitstreamVeraSans-Roman-2c"/>
     <path d="M 12.5 -9.28125 
L 15.921875 -9.28125 
Q 22.75 -9.28125 24.828125 -7.171875 
Q 26.90625 -5.078125 26.90625 1.90625 
L 26.90625 14.015625 
Q 26.90625 21.625 29.09375 25.09375 
Q 31.296875 28.5625 36.71875 29.890625 
Q 31.296875 31.109375 29.09375 34.5625 
Q 26.90625 38.03125 26.90625 45.703125 
L 26.90625 57.8125 
Q 26.90625 64.75 24.828125 66.875 
Q 22.75 69 15.921875 69 
L 12.5 69 
L 12.5 75.984375 
L 15.578125 75.984375 
Q 27.734375 75.984375 31.8125 72.390625 
Q 35.890625 68.796875 35.890625 58.015625 
L 35.890625 46.296875 
Q 35.890625 39.015625 38.515625 36.203125 
Q 41.15625 33.40625 48.09375 33.40625 
L 51.125 33.40625 
L 51.125 26.421875 
L 48.09375 26.421875 
Q 41.15625 26.421875 38.515625 23.578125 
Q 35.890625 20.75 35.890625 13.375 
L 35.890625 1.703125 
Q 35.890625 -9.078125 31.8125 -12.6875 
Q 27.734375 -16.3125 15.578125 -16.3125 
L 12.5 -16.3125 
z
" id="BitstreamVeraSans-Roman-7d"/>
     <path d="M 51.125 -9.28125 
L 51.125 -16.3125 
L 48.09375 -16.3125 
Q 35.9375 -16.3125 31.8125 -12.6875 
Q 27.6875 -9.078125 27.6875 1.703125 
L 27.6875 13.375 
Q 27.6875 20.75 25.046875 23.578125 
Q 22.40625 26.421875 15.484375 26.421875 
L 12.5 26.421875 
L 12.5 33.40625 
L 15.484375 33.40625 
Q 22.46875 33.40625 25.078125 36.203125 
Q 27.6875 39.015625 27.6875 46.296875 
L 27.6875 58.015625 
Q 27.6875 68.796875 31.8125 72.390625 
Q 35.9375 75.984375 48.09375 75.984375 
L 51.125 75.984375 
L 51.125 69 
L 47.796875 69 
Q 40.921875 69 38.8125 66.84375 
Q 36.71875 64.703125 36.71875 57.8125 
L 36.71875 45.703125 
Q 36.71875 38.03125 34.5 34.5625 
Q 32.28125 31.109375 26.90625 29.890625 
Q 32.328125 28.5625 34.515625 25.09375 
Q 36.71875 21.625 36.71875 14.015625 
L 36.71875 1.90625 
Q 36.71875 -4.984375 38.8125 -7.125 
Q 40.921875 -9.28125 47.796875 -9.28125 
z
" id="BitstreamVeraSans-Roman-7b"/>
     <path d="M 4.890625 31.390625 
L 31.203125 31.390625 
L 31.203125 23.390625 
L 4.890625 23.390625 
z
" id="BitstreamVeraSans-Roman-2d"/>
     <path d="M 10.796875 72.90625 
L 49.515625 72.90625 
L 49.515625 64.59375 
L 19.828125 64.59375 
L 19.828125 46.734375 
Q 21.96875 47.46875 24.109375 47.828125 
Q 26.265625 48.1875 28.421875 48.1875 
Q 40.625 48.1875 47.75 41.5 
Q 54.890625 34.8125 54.890625 23.390625 
Q 54.890625 11.625 47.5625 5.09375 
Q 40.234375 -1.421875 26.90625 -1.421875 
Q 22.3125 -1.421875 17.546875 -0.640625 
Q 12.796875 0.140625 7.71875 1.703125 
L 7.71875 11.625 
Q 12.109375 9.234375 16.796875 8.0625 
Q 21.484375 6.890625 26.703125 6.890625 
Q 35.15625 6.890625 40.078125 11.328125 
Q 45.015625 15.765625 45.015625 23.390625 
Q 45.015625 31 40.078125 35.4375 
Q 35.15625 39.890625 26.703125 39.890625 
Q 22.75 39.890625 18.8125 39.015625 
Q 14.890625 38.140625 10.796875 36.28125 
z
" id="BitstreamVeraSans-Roman-35"/>
    </defs>
    <g transform="translate(235.396732878 30.4015284653)scale(0.2 -0.2)">
     <use xlink:href="#BitstreamVeraSans-Roman-7b"/>
     <use x="63.623046875" xlink:href="#BitstreamVeraSans-Roman-66"/>
     <use x="98.828125" xlink:href="#BitstreamVeraSans-Roman-32"/>
     <use x="162.451171875" xlink:href="#BitstreamVeraSans-Roman-30"/>
     <use x="226.07421875" xlink:href="#BitstreamVeraSans-Roman-2d"/>
     <use x="262.158203125" xlink:href="#BitstreamVeraSans-Roman-66"/>
     <use x="297.36328125" xlink:href="#BitstreamVeraSans-Roman-32"/>
     <use x="360.986328125" xlink:href="#BitstreamVeraSans-Roman-34"/>
     <use x="424.609375" xlink:href="#BitstreamVeraSans-Roman-7d"/>
     <use x="488.232421875" xlink:href="#BitstreamVeraSans-Roman-2c"/>
     <use x="520.01953125" xlink:href="#BitstreamVeraSans-Roman-20"/>
     <use x="551.806640625" xlink:href="#BitstreamVeraSans-Roman-35"/>
     <use x="615.4296875" xlink:href="#BitstreamVeraSans-Roman-2d"/>
     <use x="651.513671875" xlink:href="#BitstreamVeraSans-Roman-44"/>
    </g>
   </g>
   <g id="text_15">
    <!-- absolute targets -->
    <defs>
     <path d="M 56.203125 29.59375 
L 56.203125 25.203125 
L 14.890625 25.203125 
Q 15.484375 15.921875 20.484375 11.0625 
Q 25.484375 6.203125 34.421875 6.203125 
Q 39.59375 6.203125 44.453125 7.46875 
Q 49.3125 8.734375 54.109375 11.28125 
L 54.109375 2.78125 
Q 49.265625 0.734375 44.1875 -0.34375 
Q 39.109375 -1.421875 33.890625 -1.421875 
Q 20.796875 -1.421875 13.15625 6.1875 
Q 5.515625 13.8125 5.515625 26.8125 
Q 5.515625 40.234375 12.765625 48.109375 
Q 20.015625 56 32.328125 56 
Q 43.359375 56 49.78125 48.890625 
Q 56.203125 41.796875 56.203125 29.59375 
M 47.21875 32.234375 
Q 47.125 39.59375 43.09375 43.984375 
Q 39.0625 48.390625 32.421875 48.390625 
Q 24.90625 48.390625 20.390625 44.140625 
Q 15.875 39.890625 15.1875 32.171875 
z
" id="BitstreamVeraSans-Roman-65"/>
     <path d="M 8.5 21.578125 
L 8.5 54.6875 
L 17.484375 54.6875 
L 17.484375 21.921875 
Q 17.484375 14.15625 20.5 10.265625 
Q 23.53125 6.390625 29.59375 6.390625 
Q 36.859375 6.390625 41.078125 11.03125 
Q 45.3125 15.671875 45.3125 23.6875 
L 45.3125 54.6875 
L 54.296875 54.6875 
L 54.296875 0 
L 45.3125 0 
L 45.3125 8.40625 
Q 42.046875 3.421875 37.71875 1 
Q 33.40625 -1.421875 27.6875 -1.421875 
Q 18.265625 -1.421875 13.375 4.4375 
Q 8.5 10.296875 8.5 21.578125 
" id="BitstreamVeraSans-Roman-75"/>
     <path d="M 48.6875 27.296875 
Q 48.6875 37.203125 44.609375 42.84375 
Q 40.53125 48.484375 33.40625 48.484375 
Q 26.265625 48.484375 22.1875 42.84375 
Q 18.109375 37.203125 18.109375 27.296875 
Q 18.109375 17.390625 22.1875 11.75 
Q 26.265625 6.109375 33.40625 6.109375 
Q 40.53125 6.109375 44.609375 11.75 
Q 48.6875 17.390625 48.6875 27.296875 
M 18.109375 46.390625 
Q 20.953125 51.265625 25.265625 53.625 
Q 29.59375 56 35.59375 56 
Q 45.5625 56 51.78125 48.09375 
Q 58.015625 40.1875 58.015625 27.296875 
Q 58.015625 14.40625 51.78125 6.484375 
Q 45.5625 -1.421875 35.59375 -1.421875 
Q 29.59375 -1.421875 25.265625 0.953125 
Q 20.953125 3.328125 18.109375 8.203125 
L 18.109375 0 
L 9.078125 0 
L 9.078125 75.984375 
L 18.109375 75.984375 
z
" id="BitstreamVeraSans-Roman-62"/>
    </defs>
    <g transform="translate(55.425 756.595823939)scale(0.14 -0.14)">
     <use xlink:href="#BitstreamVeraSans-Roman-61"/>
     <use x="61.279296875" xlink:href="#BitstreamVeraSans-Roman-62"/>
     <use x="124.755859375" xlink:href="#BitstreamVeraSans-Roman-73"/>
     <use x="176.85546875" xlink:href="#BitstreamVeraSans-Roman-6f"/>
     <use x="238.037109375" xlink:href="#BitstreamVeraSans-Roman-6c"/>
     <use x="265.8203125" xlink:href="#BitstreamVeraSans-Roman-75"/>
     <use x="329.19921875" xlink:href="#BitstreamVeraSans-Roman-74"/>
     <use x="368.408203125" xlink:href="#BitstreamVeraSans-Roman-65"/>
     <use x="429.931640625" xlink:href="#BitstreamVeraSans-Roman-20"/>
     <use x="461.71875" xlink:href="#BitstreamVeraSans-Roman-74"/>
     <use x="500.927734375" xlink:href="#BitstreamVeraSans-Roman-61"/>
     <use x="562.20703125" xlink:href="#BitstreamVeraSans-Roman-72"/>
     <use x="603.3046875" xlink:href="#BitstreamVeraSans-Roman-67"/>
     <use x="666.78125" xlink:href="#BitstreamVeraSans-Roman-65"/>
     <use x="728.3046875" xlink:href="#BitstreamVeraSans-Roman-74"/>
     <use x="767.513671875" xlink:href="#BitstreamVeraSans-Roman-73"/>
    </g>
   </g>
   <g id="text_16">
    <!-- v2.2.1.10 -->
    <g style="fill:#808080;" transform="translate(284.613920378 378.157094678)scale(0.1 -0.1)">
     <use xlink:href="#BitstreamVeraSans-Roman-76"/>
     <use x="59.1796875" xlink:href="#BitstreamVeraSans-Roman-32"/>
     <use x="122.802734375" xlink:href="#BitstreamVeraSans-Roman-2e"/>
     <use x="154.58984375" xlink:href="#BitstreamVeraSans-Roman-32"/>
     <use x="218.212890625" xlink:href="#BitstreamVeraSans-Roman-2e"/>
     <use x="250.0" xlink:href="#BitstreamVeraSans-Roman-31"/>
     <use x="313.623046875" xlink:href="#BitstreamVeraSans-Roman-2e"/>
     <use x="345.41015625" xlink:href="#BitstreamVeraSans-Roman-31"/>
     <use x="409.033203125" xlink:href="#BitstreamVeraSans-Roman-30"/>
    </g>
   </g>
   <g id="legend_1">
    <g id="patch_7">
     <path d="M 65.425 141.103218 
L 202.646875 141.103218 
L 202.646875 17.678218 
L 65.425 17.678218 
z
" style="fill:#ffffff;opacity:0.2;stroke:#000000;stroke-linejoin:miter;"/>
    </g>
    <g id="line2d_135">
     <path d="M 79.425 33.875093 
L 107.425 33.875093 
" style="fill:none;stroke:#000000;stroke-linecap:square;"/>
    </g>
    <g id="line2d_136"/>
    <g id="text_17">
     <!-- 1: 4/5 -->
     <defs>
      <path d="M 11.71875 12.40625 
L 22.015625 12.40625 
L 22.015625 0 
L 11.71875 0 
z
M 11.71875 51.703125 
L 22.015625 51.703125 
L 22.015625 39.3125 
L 11.71875 39.3125 
z
" id="BitstreamVeraSans-Roman-3a"/>
     </defs>
     <g transform="translate(129.425 40.8750928218)scale(0.2 -0.2)">
      <use xlink:href="#BitstreamVeraSans-Roman-31"/>
      <use x="63.623046875" xlink:href="#BitstreamVeraSans-Roman-3a"/>
      <use x="97.314453125" xlink:href="#BitstreamVeraSans-Roman-20"/>
      <use x="129.1015625" xlink:href="#BitstreamVeraSans-Roman-34"/>
      <use x="192.724609375" xlink:href="#BitstreamVeraSans-Roman-2f"/>
      <use x="226.416015625" xlink:href="#BitstreamVeraSans-Roman-35"/>
     </g>
    </g>
    <g id="line2d_137">
     <path d="M 79.425 63.231343 
L 107.425 63.231343 
" style="fill:none;stroke:#00bfbf;stroke-linecap:square;"/>
    </g>
    <g id="line2d_138"/>
    <g id="text_18">
     <!-- -1: 0/5 -->
     <g transform="translate(129.425 70.2313428218)scale(0.2 -0.2)">
      <use xlink:href="#BitstreamVeraSans-Roman-2d"/>
      <use x="36.083984375" xlink:href="#BitstreamVeraSans-Roman-31"/>
      <use x="99.70703125" xlink:href="#BitstreamVeraSans-Roman-3a"/>
      <use x="133.3984375" xlink:href="#BitstreamVeraSans-Roman-20"/>
      <use x="165.185546875" xlink:href="#BitstreamVeraSans-Roman-30"/>
      <use x="228.80859375" xlink:href="#BitstreamVeraSans-Roman-2f"/>
      <use x="262.5" xlink:href="#BitstreamVeraSans-Roman-35"/>
     </g>
    </g>
    <g id="line2d_139">
     <path d="M 79.425 92.587593 
L 107.425 92.587593 
" style="fill:none;stroke:#bf00bf;stroke-linecap:square;"/>
    </g>
    <g id="line2d_140"/>
    <g id="text_19">
     <!-- -4: 0/5 -->
     <g transform="translate(129.425 99.5875928218)scale(0.2 -0.2)">
      <use xlink:href="#BitstreamVeraSans-Roman-2d"/>
      <use x="36.083984375" xlink:href="#BitstreamVeraSans-Roman-34"/>
      <use x="99.70703125" xlink:href="#BitstreamVeraSans-Roman-3a"/>
      <use x="133.3984375" xlink:href="#BitstreamVeraSans-Roman-20"/>
      <use x="165.185546875" xlink:href="#BitstreamVeraSans-Roman-30"/>
      <use x="228.80859375" xlink:href="#BitstreamVeraSans-Roman-2f"/>
      <use x="262.5" xlink:href="#BitstreamVeraSans-Roman-35"/>
     </g>
    </g>
    <g id="line2d_141">
     <path d="M 79.425 121.943843 
L 107.425 121.943843 
" style="fill:none;stroke:#ff0000;stroke-linecap:square;stroke-width:3.0;"/>
    </g>
    <g id="line2d_142"/>
    <g id="text_20">
     <!-- -8: 0/5 -->
     <g transform="translate(129.425 128.943842822)scale(0.2 -0.2)">
      <use xlink:href="#BitstreamVeraSans-Roman-2d"/>
      <use x="36.083984375" xlink:href="#BitstreamVeraSans-Roman-38"/>
      <use x="99.70703125" xlink:href="#BitstreamVeraSans-Roman-3a"/>
      <use x="133.3984375" xlink:href="#BitstreamVeraSans-Roman-20"/>
      <use x="165.185546875" xlink:href="#BitstreamVeraSans-Roman-30"/>
      <use x="228.80859375" xlink:href="#BitstreamVeraSans-Roman-2f"/>
      <use x="262.5" xlink:href="#BitstreamVeraSans-Roman-35"/>
     </g>
    </g>
   </g>
  </g>
 </g>
 <defs>
  <clipPath id="p83e96481e5">
   <rect height="376.321782178" width="505.643465755" x="55.425" y="7.67821782178"/>
  </clipPath>
 </defs>
</svg>
