<?xml version="1.0" encoding="utf-8" standalone="no"?>
<!DOCTYPE svg PUBLIC "-//W3C//DTD SVG 1.1//EN"
  "http://www.w3.org/Graphics/SVG/1.1/DTD/svg11.dtd">
<!-- Created with matplotlib (http://matplotlib.org/) -->
<svg height="432pt" version="1.1" viewBox="0 0 576 432" width="576pt" xmlns="http://www.w3.org/2000/svg" xmlns:xlink="http://www.w3.org/1999/xlink">
 <defs>
  <style type="text/css">
*{stroke-linecap:butt;stroke-linejoin:round;stroke-miterlimit:100000;}
  </style>
 </defs>
 <g id="figure_1">
  <g id="patch_1">
   <path d="M 0 432 
L 576 432 
L 576 0 
L 0 0 
z
" style="fill:#ffffff;"/>
  </g>
  <g id="axes_1">
   <g id="patch_2">
    <path d="M 54.525 384.9 
L 503.88 384.9 
L 503.88 7.678218 
L 54.525 7.678218 
z
" style="fill:#ffffff;"/>
   </g>
   <g id="line2d_1">
    <defs>
     <path d="M 0 1.5 
C 0.397805 1.5 0.77937 1.341951 1.06066 1.06066 
C 1.341951 0.77937 1.5 0.397805 1.5 0 
C 1.5 -0.397805 1.341951 -0.77937 1.06066 -1.06066 
C 0.77937 -1.341951 0.397805 -1.5 0 -1.5 
C -0.397805 -1.5 -0.77937 -1.341951 -1.06066 -1.06066 
C -1.341951 -0.77937 -1.5 -0.397805 -1.5 0 
C -1.5 0.397805 -1.341951 0.77937 -1.06066 1.06066 
C -0.77937 1.341951 -0.397805 1.5 0 1.5 
z
" id="m45df8b0829" style="stroke:#000080;stroke-width:0.5;"/>
    </defs>
    <g>
     <use style="fill:#000080;stroke:#000080;stroke-width:0.5;" x="345.322346876" xlink:href="#m45df8b0829" y="201.818179879"/>
     <use style="fill:#000080;stroke:#000080;stroke-width:0.5;" x="345.322346876" xlink:href="#m45df8b0829" y="201.818179879"/>
    </g>
   </g>
   <g id="line2d_2">
    <path d="M 54.525 384.9 
L 54.525 372.450436 
L 85.693049 372.450436 
L 85.693049 371.718109 
L 90.709985 371.718109 
L 90.709985 368.7888 
L 98.274888 368.7888 
L 98.274888 359.268545 
L 108.436868 359.268545 
L 108.436868 357.071563 
L 112.192744 357.071563 
L 112.192744 356.339236 
L 115.410079 356.339236 
L 115.410079 355.606909 
L 140.110174 355.606909 
L 140.110174 352.6776 
L 149.720396 352.6776 
L 149.720396 351.212945 
L 151.293274 351.212945 
L 151.293274 350.480618 
L 152.476863 350.480618 
L 152.476863 349.015963 
L 153.046083 349.015963 
L 153.046083 346.818981 
L 153.601247 346.818981 
L 153.601247 346.086654 
L 154.143032 346.086654 
L 154.143032 343.157345 
L 154.672068 343.157345 
L 154.672068 342.425018 
L 156.671874 342.425018 
L 156.671874 337.298727 
L 162.899367 337.298727 
L 162.899367 335.101745 
L 176.494124 335.101745 
L 176.494124 332.904763 
L 177.93276 332.904763 
L 177.93276 328.510799 
L 178.392551 328.510799 
L 178.392551 327.046145 
L 179.020859 327.046145 
L 179.020859 324.849163 
L 180.724931 324.849163 
L 180.724931 324.116836 
L 182.385239 324.116836 
L 182.385239 318.258217 
L 182.537151 318.258217 
L 182.537151 316.793563 
L 182.912502 316.793563 
L 182.912502 316.061236 
L 184.631785 316.061236 
L 184.631785 315.328908 
L 187.478259 315.328908 
L 187.478259 314.596581 
L 188.948259 314.596581 
L 188.948259 313.131927 
L 197.154432 313.131927 
L 197.154432 312.399599 
L 198.53372 312.399599 
L 198.53372 310.934945 
L 201.194219 310.934945 
L 201.260152 309.47029 
L 203.926547 309.47029 
L 203.926547 308.737963 
L 207.00899 308.737963 
L 207.00899 308.005636 
L 208.27283 308.005636 
L 208.27283 307.273308 
L 210.166768 307.273308 
L 210.166768 305.808654 
L 216.52926 305.808654 
L 216.52926 305.076326 
L 220.88563 305.076326 
L 220.88563 304.343999 
L 221.801781 304.343999 
L 221.801781 299.950035 
L 222.207362 299.950035 
L 222.207362 299.217708 
L 223.047232 299.217708 
L 223.047232 297.753054 
L 225.449751 297.753054 
L 225.449751 296.288399 
L 231.709085 296.288399 
L 231.709085 294.091417 
L 231.827729 294.091417 
L 231.827729 292.626763 
L 232.079877 292.626763 
L 232.146642 290.429781 
L 234.606941 290.429781 
L 234.606941 284.571163 
L 235.442727 284.571163 
L 235.442727 283.838835 
L 236.21381 283.838835 
L 236.21381 281.641853 
L 237.332935 281.641853 
L 237.332935 278.712544 
L 239.876413 278.712544 
L 239.876413 276.515562 
L 241.702814 276.515562 
L 241.702814 274.318581 
L 248.732974 274.318581 
L 248.732974 273.586253 
L 250.347279 273.586253 
L 250.347279 272.121599 
L 250.663998 272.121599 
L 250.663998 270.656944 
L 255.210889 270.656944 
L 255.210889 268.459962 
L 256.522188 268.459962 
L 256.522188 264.065999 
L 257.957702 264.065999 
L 257.957702 263.333671 
L 260.376699 263.333671 
L 260.376699 262.601344 
L 262.657266 262.601344 
L 262.657266 258.20738 
L 264.209147 258.20738 
L 264.209147 256.010399 
L 264.388613 256.010399 
L 264.388613 253.08109 
L 266.237049 253.08109 
L 266.237049 252.348762 
L 266.919906 252.348762 
L 267.000508 250.884108 
L 267.258082 250.884108 
L 267.258082 248.687126 
L 267.905113 248.687126 
L 267.905113 247.954799 
L 268.685489 247.954799 
L 268.685489 247.222471 
L 268.874999 247.222471 
L 268.874999 246.490144 
L 269.374543 246.490144 
L 269.374543 245.757817 
L 271.751158 245.757817 
L 271.751158 245.025489 
L 275.121428 245.025489 
L 275.121428 243.560835 
L 277.733644 243.560835 
L 277.738032 241.363853 
L 278.542265 241.363853 
L 278.542265 240.631526 
L 280.205297 240.631526 
L 280.205297 239.899198 
L 281.008501 239.899198 
L 281.11541 238.434544 
L 288.233507 238.434544 
L 288.233507 237.702217 
L 288.362768 237.702217 
L 288.374731 236.237562 
L 288.925252 236.237562 
L 288.938586 233.308253 
L 293.06281 233.308253 
L 293.06281 232.575926 
L 294.243718 232.575926 
L 294.344558 231.111271 
L 294.627842 231.111271 
L 294.627842 230.378944 
L 294.778182 230.378944 
L 294.783322 226.717307 
L 298.025979 226.717307 
L 298.02976 225.252653 
L 299.298364 225.252653 
L 299.298364 224.520326 
L 299.414516 224.520326 
L 299.46131 220.858689 
L 302.087341 220.858689 
L 302.091797 219.394035 
L 302.885005 219.394035 
L 302.885005 218.661707 
L 303.257876 218.661707 
L 303.257876 217.92938 
L 306.530618 217.92938 
L 306.54113 215.000071 
L 309.103466 215.000071 
L 309.103466 214.267744 
L 309.39083 214.267744 
L 309.399684 211.338435 
L 311.939762 211.338435 
L 311.939762 210.606107 
L 316.284969 210.606107 
L 316.284969 209.87378 
L 321.553556 209.87378 
L 321.553556 209.141453 
L 323.067221 209.141453 
L 323.067221 208.409125 
L 324.483387 208.409125 
L 324.483387 207.676798 
L 325.806885 207.676798 
L 325.806885 206.944471 
L 328.265606 206.944471 
L 328.265606 206.212144 
L 329.391963 206.212144 
L 329.391963 205.479816 
L 330.473454 205.479816 
L 330.475397 204.015162 
L 340.492564 204.015162 
L 340.492564 203.282834 
L 345.322265 203.282834 
L 345.322347 201.81818 
L 416.908065 201.81818 
L 416.908065 201.81818 
" style="fill:none;stroke:#000080;stroke-linecap:square;stroke-width:1.5;"/>
   </g>
   <g id="line2d_3">
    <defs>
     <path d="M 0 6 
C 1.591219 6 3.117479 5.367802 4.242641 4.242641 
C 5.367802 3.117479 6 1.591219 6 0 
C 6 -1.591219 5.367802 -3.117479 4.242641 -4.242641 
C 3.117479 -5.367802 1.591219 -6 0 -6 
C -1.591219 -6 -3.117479 -5.367802 -4.242641 -4.242641 
C -5.367802 -3.117479 -6 -1.591219 -6 0 
C -6 1.591219 -5.367802 3.117479 -4.242641 4.242641 
C -3.117479 5.367802 -1.591219 6 0 6 
z
" id="m429538186f" style="stroke:#000080;stroke-width:1.5;"/>
    </defs>
    <g>
     <use style="fill:none;stroke:#000080;stroke-width:1.5;" x="176.494124316" xlink:href="#m429538186f" y="332.904763086"/>
     <use style="fill:none;stroke:#000080;stroke-width:1.5;" x="277.738031803" xlink:href="#m429538186f" y="242.096180305"/>
     <use style="fill:none;stroke:#000080;stroke-width:1.5;" x="345.322346876" xlink:href="#m429538186f" y="202.550507159"/>
     <use style="fill:none;stroke:#000080;stroke-width:1.5;" x="345.322346876" xlink:href="#m429538186f" y="201.818179879"/>
     <use style="fill:none;stroke:#000080;stroke-width:1.5;" x="416.908064516" xlink:href="#m429538186f" y="201.818179879"/>
    </g>
   </g>
   <g id="line2d_4">
    <path d="M -15527.946774 758.386913 
" style="fill:none;stroke:#000080;stroke-linecap:square;stroke-width:1.5;"/>
    <g>
     <use style="fill:none;stroke:#000080;stroke-width:1.5;" x="-15527.9467742" xlink:href="#m429538186f" y="758.386913048"/>
    </g>
   </g>
   <g id="line2d_5">
    <path clip-path="url(#pe4d644ba05)" d="M 261.634736 262.601344 
" style="fill:none;stroke:#000080;stroke-linecap:square;"/>
    <defs>
     <path d="M -12 12 
L 12 -12 
M -12 -12 
L 12 12 
" id="m7269f3e7f3" style="stroke:#000080;stroke-width:3.0;"/>
    </defs>
    <g clip-path="url(#pe4d644ba05)">
     <use style="fill:#000080;stroke:#000080;stroke-width:3.0;" x="261.634736091" xlink:href="#m7269f3e7f3" y="262.601344159"/>
    </g>
   </g>
   <g id="line2d_6">
    <defs>
     <path d="M 0 1.5 
C 0.397805 1.5 0.77937 1.341951 1.06066 1.06066 
C 1.341951 0.77937 1.5 0.397805 1.5 0 
C 1.5 -0.397805 1.341951 -0.77937 1.06066 -1.06066 
C 0.77937 -1.341951 0.397805 -1.5 0 -1.5 
C -0.397805 -1.5 -0.77937 -1.341951 -1.06066 -1.06066 
C -1.341951 -0.77937 -1.5 -0.397805 -1.5 0 
C -1.5 0.397805 -1.341951 0.77937 -1.06066 1.06066 
C -0.77937 1.341951 -0.397805 1.5 0 1.5 
z
" id="m2984b28343" style="stroke:#ff00ff;stroke-width:0.5;"/>
    </defs>
    <g>
     <use style="fill:#ff00ff;stroke:#ff00ff;stroke-width:0.5;" x="341.500133273" xlink:href="#m2984b28343" y="223.787998293"/>
     <use style="fill:#ff00ff;stroke:#ff00ff;stroke-width:0.5;" x="341.500133273" xlink:href="#m2984b28343" y="223.787998293"/>
    </g>
   </g>
   <g id="line2d_7">
    <path d="M 54.525 384.9 
L 54.525 340.960363 
L 85.693049 340.960363 
L 85.693049 338.763381 
L 90.709985 338.763381 
L 90.709985 338.031054 
L 110.393144 338.031054 
L 110.393144 335.101745 
L 116.861098 335.101745 
L 116.861098 327.778472 
L 152.186756 327.778472 
L 152.186756 325.58149 
L 154.93199 325.58149 
L 154.93199 323.384508 
L 167.624311 323.384508 
L 167.624311 319.722872 
L 168.909403 319.722872 
L 168.909403 318.990545 
L 175.891865 318.990545 
L 175.891865 318.258217 
L 179.020859 318.258217 
L 179.020859 315.328908 
L 185.90538 315.328908 
L 185.90538 313.131927 
L 191.1686 313.131927 
L 191.1686 312.399599 
L 191.373926 312.399599 
L 191.373926 311.667272 
L 202.352397 311.667272 
L 202.352397 310.202617 
L 202.508639 310.202617 
L 202.508639 308.737963 
L 204.217029 308.737963 
L 204.217029 308.005636 
L 207.287656 308.005636 
L 207.287656 304.343999 
L 209.100809 304.343999 
L 209.100809 300.682363 
L 215.609373 300.682363 
L 215.609373 298.485381 
L 216.612561 298.485381 
L 216.678981 295.556072 
L 217.073429 295.556072 
L 217.073429 294.091417 
L 219.171811 294.091417 
L 219.171811 293.35909 
L 219.959234 293.35909 
L 219.959234 290.429781 
L 220.81677 290.429781 
L 220.81677 289.697454 
L 226.651753 289.697454 
L 226.651753 288.965126 
L 228.094125 288.965126 
L 228.094125 286.768144 
L 231.236826 286.768144 
L 231.236826 286.035817 
L 232.221516 286.035817 
L 232.221516 285.30349 
L 236.025258 285.30349 
L 236.025258 280.177199 
L 238.062037 280.177199 
L 238.062037 278.712544 
L 239.027443 278.712544 
L 239.027443 277.980217 
L 239.92953 277.980217 
L 239.92953 276.515562 
L 240.123224 276.515562 
L 240.123224 275.783235 
L 241.41773 275.783235 
L 241.41773 275.050908 
L 241.773524 275.050908 
L 241.773524 273.586253 
L 244.288496 273.586253 
L 244.366057 267.727635 
L 246.075392 267.727635 
L 246.102286 266.262981 
L 251.112949 266.262981 
L 251.112949 265.530653 
L 252.519789 265.530653 
L 252.519789 262.601344 
L 255.097081 262.601344 
L 255.097081 260.404362 
L 256.069581 260.404362 
L 256.069581 258.20738 
L 257.043096 258.20738 
L 257.043096 257.475053 
L 259.44356 257.475053 
L 259.44356 253.813417 
L 265.50447 253.813417 
L 265.50447 250.884108 
L 267.888971 250.884108 
L 267.888971 249.419453 
L 269.392834 249.419453 
L 269.413492 247.954799 
L 270.158645 247.954799 
L 270.158645 247.222471 
L 273.120075 247.222471 
L 273.120075 246.490144 
L 274.615499 246.490144 
L 274.615499 245.757817 
L 276.149856 245.757817 
L 276.156917 243.560835 
L 276.414323 243.560835 
L 276.414323 242.09618 
L 280.545234 242.09618 
L 280.545234 241.363853 
L 281.454049 241.363853 
L 281.454049 240.631526 
L 283.665097 240.631526 
L 283.665097 239.899198 
L 285.610908 239.899198 
L 285.610908 239.166871 
L 287.683543 239.166871 
L 287.683543 238.434544 
L 288.611307 238.434544 
L 288.611307 237.702217 
L 289.231585 237.702217 
L 289.231585 236.969889 
L 289.556506 236.969889 
L 289.556506 236.237562 
L 292.2698 236.237562 
L 292.2698 235.505235 
L 293.820488 235.505235 
L 293.820488 234.772908 
L 297.382677 234.772908 
L 297.391374 233.308253 
L 298.637751 233.308253 
L 298.637751 232.575926 
L 303.082696 232.575926 
L 303.082696 231.843598 
L 303.409652 231.843598 
L 303.409652 231.111271 
L 305.083398 231.111271 
L 305.083398 230.378944 
L 313.190365 230.378944 
L 313.190365 229.646617 
L 319.13278 229.646617 
L 319.13278 228.914289 
L 320.816684 228.914289 
L 320.816684 228.181962 
L 321.259641 228.181962 
L 321.259641 227.449635 
L 323.830087 227.449635 
L 323.830087 226.717307 
L 332.031974 226.717307 
L 332.031974 225.98498 
L 332.985608 225.98498 
L 332.985608 225.252653 
L 333.909363 225.252653 
L 333.909363 224.520326 
L 341.500133 224.520326 
L 341.500133 223.787998 
L 416.908065 223.787998 
L 416.908065 223.787998 
" style="fill:none;stroke:#ff00ff;stroke-linecap:square;stroke-width:1.5;"/>
   </g>
   <g id="line2d_8">
    <defs>
     <path d="M -0 8.485281 
L 5.091169 0 
L 0 -8.485281 
L -5.091169 -0 
z
" id="m8ed16614bd" style="stroke:#ff00ff;stroke-linejoin:miter;stroke-width:1.5;"/>
    </defs>
    <g>
     <use style="fill:none;stroke:#ff00ff;stroke-linejoin:miter;stroke-width:1.5;" x="154.931990065" xlink:href="#m8ed16614bd" y="325.581490281"/>
     <use style="fill:none;stroke:#ff00ff;stroke-linejoin:miter;stroke-width:1.5;" x="274.615499175" xlink:href="#m8ed16614bd" y="246.490143988"/>
     <use style="fill:none;stroke:#ff00ff;stroke-linejoin:miter;stroke-width:1.5;" x="341.500133273" xlink:href="#m8ed16614bd" y="224.520325574"/>
     <use style="fill:none;stroke:#ff00ff;stroke-linejoin:miter;stroke-width:1.5;" x="341.500133273" xlink:href="#m8ed16614bd" y="223.787998293"/>
     <use style="fill:none;stroke:#ff00ff;stroke-linejoin:miter;stroke-width:1.5;" x="416.908064516" xlink:href="#m8ed16614bd" y="223.787998293"/>
    </g>
   </g>
   <g id="line2d_9">
    <path d="M -15527.946774 758.386913 
" style="fill:none;stroke:#ff00ff;stroke-linecap:square;stroke-width:1.5;"/>
    <g>
     <use style="fill:none;stroke:#ff00ff;stroke-linejoin:miter;stroke-width:1.5;" x="-15527.9467742" xlink:href="#m8ed16614bd" y="758.386913048"/>
    </g>
   </g>
   <g id="line2d_10">
    <path clip-path="url(#pe4d644ba05)" d="M 261.630246 253.813417 
" style="fill:none;stroke:#ff00ff;stroke-linecap:square;"/>
    <defs>
     <path d="M -12 12 
L 12 -12 
M -12 -12 
L 12 12 
" id="m52f72ab2d2" style="stroke:#ff00ff;stroke-width:3.0;"/>
    </defs>
    <g clip-path="url(#pe4d644ba05)">
     <use style="fill:#ff00ff;stroke:#ff00ff;stroke-width:3.0;" x="261.630245778" xlink:href="#m52f72ab2d2" y="253.813416793"/>
    </g>
   </g>
   <g id="line2d_11">
    <defs>
     <path d="M 0 1.5 
C 0.397805 1.5 0.77937 1.341951 1.06066 1.06066 
C 1.341951 0.77937 1.5 0.397805 1.5 0 
C 1.5 -0.397805 1.341951 -0.77937 1.06066 -1.06066 
C 0.77937 -1.341951 0.397805 -1.5 0 -1.5 
C -0.397805 -1.5 -0.77937 -1.341951 -1.06066 -1.06066 
C -1.341951 -0.77937 -1.5 -0.397805 -1.5 0 
C -1.5 0.397805 -1.341951 0.77937 -1.06066 1.06066 
C -0.77937 1.341951 -0.397805 1.5 0 1.5 
z
" id="m47c06b1003" style="stroke:#ffa500;stroke-width:0.5;"/>
    </defs>
    <g>
     <use style="fill:#ffa500;stroke:#ffa500;stroke-width:0.5;" x="342.042953941" xlink:href="#m47c06b1003" y="187.171634269"/>
     <use style="fill:#ffa500;stroke:#ffa500;stroke-width:0.5;" x="342.042953941" xlink:href="#m47c06b1003" y="187.171634269"/>
    </g>
   </g>
   <g id="line2d_12">
    <path d="M 54.525 384.9 
L 54.525 380.506036 
L 79.225095 380.506036 
L 79.225095 376.8444 
L 90.709985 376.8444 
L 90.709985 371.718109 
L 94.809119 371.718109 
L 94.809119 370.253454 
L 98.274888 370.253454 
L 98.274888 363.662509 
L 103.925189 363.662509 
L 103.925189 360.7332 
L 106.294009 360.7332 
L 106.294009 357.803891 
L 108.436868 357.803891 
L 108.436868 352.6776 
L 110.393144 352.6776 
L 110.393144 346.818981 
L 112.192744 346.818981 
L 112.192744 346.086654 
L 130.231895 346.086654 
L 130.231895 345.354327 
L 151.293274 345.354327 
L 151.293274 343.889672 
L 152.476863 343.889672 
L 152.476863 342.425018 
L 152.763274 342.425018 
L 152.763274 335.101745 
L 153.325379 335.101745 
L 153.325379 333.63709 
L 153.601247 333.63709 
L 153.601247 332.904763 
L 167.0287 332.904763 
L 167.0287 332.172436 
L 168.489148 332.172436 
L 168.489148 331.440109 
L 176.195011 331.440109 
L 176.195011 330.707781 
L 177.558034 330.707781 
L 177.652303 324.116836 
L 180.143084 324.116836 
L 180.143084 318.990545 
L 181.923243 318.990545 
L 181.923243 316.793563 
L 183.500326 316.793563 
L 183.500326 313.131927 
L 185.377896 313.131927 
L 185.377896 312.399599 
L 186.611038 312.399599 
L 186.611038 311.667272 
L 187.780048 311.667272 
L 187.780048 310.934945 
L 194.112699 310.934945 
L 194.112699 308.737963 
L 195.387736 308.737963 
L 195.387736 308.005636 
L 197.23332 308.005636 
L 197.23332 305.076326 
L 199.228937 305.076326 
L 199.228937 304.343999 
L 201.972929 304.343999 
L 201.972929 303.611672 
L 209.031022 303.611672 
L 209.031022 302.147017 
L 219.171811 302.147017 
L 219.171811 301.41469 
L 219.987874 301.41469 
L 219.987874 299.950035 
L 225.795051 299.950035 
L 225.795051 298.485381 
L 227.923836 298.485381 
L 227.923836 296.288399 
L 229.701769 296.288399 
L 229.701769 295.556072 
L 236.681793 295.556072 
L 236.681793 294.091417 
L 236.912181 294.091417 
L 236.912181 292.626763 
L 237.140232 292.626763 
L 237.140232 291.894435 
L 238.036401 291.894435 
L 238.036401 291.162108 
L 246.017012 291.162108 
L 246.017012 290.429781 
L 251.609282 290.429781 
L 251.609282 287.500472 
L 253.745127 287.500472 
L 253.818346 282.374181 
L 255.730613 282.374181 
L 255.730613 281.641853 
L 261.379617 281.641853 
L 261.379617 280.909526 
L 261.794678 280.909526 
L 261.83699 275.783235 
L 264.797979 275.783235 
L 264.797979 275.050908 
L 265.802983 275.050908 
L 265.802983 274.318581 
L 267.983958 274.318581 
L 268.052404 271.389272 
L 270.310253 271.389272 
L 270.310253 270.656944 
L 271.25618 270.656944 
L 271.25618 268.459962 
L 272.531921 268.459962 
L 272.531921 267.727635 
L 272.768485 267.727635 
L 272.768485 266.995308 
L 273.634729 266.995308 
L 273.634729 266.262981 
L 273.912748 266.262981 
L 273.912748 264.798326 
L 275.321998 264.798326 
L 275.321998 264.065999 
L 276.166329 264.065999 
L 276.166329 260.404362 
L 277.08987 260.404362 
L 277.08987 259.672035 
L 277.326819 259.672035 
L 277.331286 258.20738 
L 277.846903 258.20738 
L 277.846903 257.475053 
L 278.232172 257.475053 
L 278.232172 256.742726 
L 280.615311 256.742726 
L 280.615311 256.010399 
L 281.985117 256.010399 
L 281.990111 254.545744 
L 282.538509 254.545744 
L 282.546924 252.348762 
L 283.313074 252.348762 
L 283.343867 250.15178 
L 284.126325 250.15178 
L 284.184451 247.954799 
L 285.631378 247.954799 
L 285.647586 246.490144 
L 286.395362 246.490144 
L 286.395362 245.757817 
L 287.479301 245.757817 
L 287.479301 245.025489 
L 288.694669 245.025489 
L 288.737748 243.560835 
L 290.007779 243.560835 
L 290.00905 242.09618 
L 290.580344 242.09618 
L 290.580344 241.363853 
L 291.076657 241.363853 
L 291.103609 238.434544 
L 292.013757 238.434544 
L 292.013757 237.702217 
L 292.292776 237.702217 
L 292.359561 235.505235 
L 292.860238 235.505235 
L 292.866675 234.04058 
L 295.621862 234.04058 
L 295.63572 232.575926 
L 296.071826 232.575926 
L 296.079832 231.111271 
L 296.451253 231.111271 
L 296.53888 227.449635 
L 297.4083 227.449635 
L 297.4083 226.717307 
L 299.2807 226.717307 
L 299.310972 225.252653 
L 300.101539 225.252653 
L 300.158056 220.858689 
L 300.792394 220.858689 
L 300.840139 219.394035 
L 301.992257 219.394035 
L 301.992257 218.661707 
L 303.136103 218.661707 
L 303.136103 217.92938 
L 303.851548 217.92938 
L 303.877626 216.464725 
L 304.179265 216.464725 
L 304.193472 215.000071 
L 305.609115 215.000071 
L 305.609115 214.267744 
L 307.076778 214.267744 
L 307.076778 213.535416 
L 307.376244 213.535416 
L 307.376244 212.803089 
L 307.548027 212.803089 
L 307.548027 212.070762 
L 309.311928 212.070762 
L 309.330099 210.606107 
L 309.893576 210.606107 
L 309.893576 209.87378 
L 310.291417 209.87378 
L 310.294897 208.409125 
L 312.355548 208.409125 
L 312.419668 206.944471 
L 312.595469 206.944471 
L 312.595469 206.212144 
L 312.728534 206.212144 
L 312.798981 204.747489 
L 314.1728 204.747489 
L 314.1728 204.015162 
L 314.608938 204.015162 
L 314.608938 203.282834 
L 314.973118 203.282834 
L 314.973118 202.550507 
L 316.619195 202.550507 
L 316.619195 201.81818 
L 316.791222 201.81818 
L 316.813514 200.353525 
L 316.977556 200.353525 
L 316.977556 199.621198 
L 318.113915 199.621198 
L 318.113915 198.888871 
L 318.795849 198.888871 
L 318.855556 195.959562 
L 320.392726 195.959562 
L 320.392726 195.227234 
L 326.275104 195.227234 
L 326.305351 193.030253 
L 327.29761 193.030253 
L 327.322827 191.565598 
L 331.672323 191.565598 
L 331.672323 190.833271 
L 333.768424 190.833271 
L 333.768424 190.100943 
L 334.656609 190.100943 
L 334.656609 189.368616 
L 337.90847 189.368616 
L 337.90847 188.636289 
L 339.381119 188.636289 
L 339.381119 187.903962 
L 342.042954 187.903962 
L 342.042954 187.171634 
L 416.908065 187.171634 
L 416.908065 187.171634 
" style="fill:none;stroke:#ffa500;stroke-linecap:square;stroke-width:1.5;"/>
   </g>
   <g id="line2d_13">
    <defs>
     <path d="M 0 -6 
L -1.347084 -1.854102 
L -5.706339 -1.854102 
L -2.179628 0.708204 
L -3.526712 4.854102 
L -0 2.291796 
L 3.526712 4.854102 
L 2.179628 0.708204 
L 5.706339 -1.854102 
L 1.347084 -1.854102 
z
" id="mf4f5fa2944" style="stroke:#ffa500;stroke-linejoin:bevel;stroke-width:1.5;"/>
    </defs>
    <g>
     <use style="fill:none;stroke:#ffa500;stroke-linejoin:bevel;stroke-width:1.5;" x="110.393143873" xlink:href="#mf4f5fa2944" y="352.677599659"/>
     <use style="fill:none;stroke:#ffa500;stroke-linejoin:bevel;stroke-width:1.5;" x="219.987874381" xlink:href="#mf4f5fa2944" y="299.950035464"/>
     <use style="fill:none;stroke:#ffa500;stroke-linejoin:bevel;stroke-width:1.5;" x="326.275104333" xlink:href="#mf4f5fa2944" y="195.227234354"/>
     <use style="fill:none;stroke:#ffa500;stroke-linejoin:bevel;stroke-width:1.5;" x="342.042953941" xlink:href="#mf4f5fa2944" y="187.171634269"/>
     <use style="fill:none;stroke:#ffa500;stroke-linejoin:bevel;stroke-width:1.5;" x="416.908064516" xlink:href="#mf4f5fa2944" y="187.171634269"/>
    </g>
   </g>
   <g id="line2d_14">
    <path d="M -15527.946774 758.386913 
" style="fill:none;stroke:#ffa500;stroke-linecap:square;stroke-width:1.5;"/>
    <g>
     <use style="fill:none;stroke:#ffa500;stroke-linejoin:bevel;stroke-width:1.5;" x="-15527.9467742" xlink:href="#mf4f5fa2944" y="758.386913048"/>
    </g>
   </g>
   <g id="line2d_15">
    <path clip-path="url(#pe4d644ba05)" d="M 261.631368 280.909526 
" style="fill:none;stroke:#ffa500;stroke-linecap:square;"/>
    <defs>
     <path d="M -12 12 
L 12 -12 
M -12 -12 
L 12 12 
" id="m6f3cc610d4" style="stroke:#ffa500;stroke-width:3.0;"/>
    </defs>
    <g clip-path="url(#pe4d644ba05)">
     <use style="fill:#ffa500;stroke:#ffa500;stroke-width:3.0;" x="261.63136844" xlink:href="#m6f3cc610d4" y="280.909526171"/>
    </g>
   </g>
   <g id="line2d_16">
    <defs>
     <path d="M 0 1.5 
C 0.397805 1.5 0.77937 1.341951 1.06066 1.06066 
C 1.341951 0.77937 1.5 0.397805 1.5 0 
C 1.5 -0.397805 1.341951 -0.77937 1.06066 -1.06066 
C 0.77937 -1.341951 0.397805 -1.5 0 -1.5 
C -0.397805 -1.5 -0.77937 -1.341951 -1.06066 -1.06066 
C -1.341951 -0.77937 -1.5 -0.397805 -1.5 0 
C -1.5 0.397805 -1.341951 0.77937 -1.06066 1.06066 
C -0.77937 1.341951 -0.397805 1.5 0 1.5 
z
" id="mb966448998" style="stroke:#6495ed;stroke-width:0.5;"/>
    </defs>
    <g>
     <use style="fill:#6495ed;stroke:#6495ed;stroke-width:0.5;" x="359.503570484" xlink:href="#mb966448998" y="69.9992693911"/>
     <use style="fill:#6495ed;stroke:#6495ed;stroke-width:0.5;" x="359.503570484" xlink:href="#mb966448998" y="69.9992693911"/>
    </g>
   </g>
   <g id="line2d_17">
    <path d="M 54.525 384.9 
L 54.525 367.324145 
L 70.109025 367.324145 
L 70.109025 360.000872 
L 79.225095 360.000872 
L 79.225095 357.803891 
L 90.709985 357.803891 
L 90.709985 355.606909 
L 94.809119 355.606909 
L 94.809119 352.6776 
L 98.274888 352.6776 
L 98.274888 350.480618 
L 103.925189 350.480618 
L 103.925189 349.015963 
L 108.436868 349.015963 
L 108.436868 340.960363 
L 110.393144 340.960363 
L 110.393144 336.566399 
L 115.410079 336.566399 
L 115.410079 332.904763 
L 126.894969 332.904763 
L 126.894969 331.440109 
L 130.231895 331.440109 
L 130.231895 329.975454 
L 131.731317 329.975454 
L 131.731317 328.510799 
L 132.445123 328.510799 
L 132.445123 325.58149 
L 133.136962 325.58149 
L 133.136962 324.849163 
L 134.459873 324.849163 
L 134.459873 324.116836 
L 141.561193 324.116836 
L 141.561193 321.919854 
L 142.024776 321.919854 
L 142.024776 321.187527 
L 142.924216 321.187527 
L 142.924216 318.258217 
L 150.987378 318.258217 
L 150.987378 316.793563 
L 151.595064 316.793563 
L 151.595064 315.328908 
L 151.892856 315.328908 
L 151.892856 314.596581 
L 152.186756 314.596581 
L 152.186756 311.667272 
L 153.601247 311.667272 
L 153.601247 310.934945 
L 161.592933 310.934945 
L 161.592933 310.202617 
L 169.457796 310.202617 
L 169.457796 307.273308 
L 169.592829 307.273308 
L 169.592829 304.343999 
L 174.8508 304.343999 
L 174.8508 301.41469 
L 177.368303 301.41469 
L 177.368303 300.682363 
L 179.803711 300.682363 
L 179.803711 298.485381 
L 180.310868 298.485381 
L 180.310868 295.556072 
L 183.644912 295.556072 
L 183.644912 294.823745 
L 184.493428 294.823745 
L 184.493428 294.091417 
L 186.611038 294.091417 
L 186.611038 290.429781 
L 191.424966 290.429781 
L 191.424966 288.965126 
L 193.747855 288.965126 
L 193.747855 288.232799 
L 204.589131 288.232799 
L 204.589131 287.500472 
L 211.226769 287.500472 
L 211.226769 286.768144 
L 211.66619 286.768144 
L 211.66619 283.838835 
L 224.509958 283.838835 
L 224.509958 280.909526 
L 224.938881 280.909526 
L 224.938881 276.515562 
L 225.212789 276.515562 
L 225.212789 275.783235 
L 230.207026 275.783235 
L 230.207026 274.318581 
L 232.763104 274.318581 
L 232.763104 272.853926 
L 233.133004 272.853926 
L 233.133004 272.121599 
L 234.184713 272.121599 
L 234.184713 270.656944 
L 237.120203 270.656944 
L 237.120203 269.19229 
L 242.53175 269.19229 
L 242.53175 267.727635 
L 243.866958 267.727635 
L 243.866958 266.262981 
L 246.342891 266.262981 
L 246.342891 264.798326 
L 247.538181 264.798326 
L 247.538181 261.13669 
L 257.070615 261.13669 
L 257.070615 246.490144 
L 261.054864 246.490144 
L 261.054864 243.560835 
L 261.80025 243.560835 
L 261.80025 242.09618 
L 262.201122 242.09618 
L 262.201122 241.363853 
L 265.554498 241.363853 
L 265.554498 239.899198 
L 266.562145 239.899198 
L 266.575664 237.702217 
L 269.083889 237.702217 
L 269.083889 236.969889 
L 269.616673 236.969889 
L 269.616673 236.237562 
L 270.828496 236.237562 
L 270.828496 235.505235 
L 271.24447 235.505235 
L 271.24447 234.772908 
L 273.991925 234.772908 
L 273.991925 234.04058 
L 274.118547 234.04058 
L 274.118547 233.308253 
L 275.035626 233.308253 
L 275.035626 220.858689 
L 277.286568 220.858689 
L 277.286568 220.126362 
L 277.48877 220.126362 
L 277.48877 219.394035 
L 279.80368 219.394035 
L 279.80368 217.197053 
L 280.285256 217.197053 
L 280.285256 216.464725 
L 281.237777 216.464725 
L 281.237777 215.732398 
L 282.307419 215.732398 
L 282.307419 212.803089 
L 282.517236 212.803089 
L 282.517236 212.070762 
L 284.89244 212.070762 
L 284.89244 198.888871 
L 286.369974 198.888871 
L 286.369974 198.156543 
L 289.303832 198.156543 
L 289.303832 196.691889 
L 291.721812 196.691889 
L 291.721812 184.242325 
L 292.821579 184.242325 
L 292.821579 183.509998 
L 295.594367 183.509998 
L 295.594367 180.580689 
L 296.952841 180.580689 
L 296.952841 173.257416 
L 300.076374 173.257416 
L 300.076374 171.060434 
L 301.193581 171.060434 
L 301.193581 163.004834 
L 303.438171 163.004834 
L 303.438171 161.540179 
L 304.759953 161.540179 
L 304.759953 155.681561 
L 307.837296 155.681561 
L 307.837296 152.752252 
L 309.528613 152.752252 
L 309.528613 152.019925 
L 310.543695 152.019925 
L 310.543695 144.696652 
L 312.049469 144.696652 
L 312.049469 143.964325 
L 312.959033 143.964325 
L 312.959033 133.711743 
L 315.139879 133.711743 
L 315.139879 130.782434 
L 317.127764 130.782434 
L 317.127764 124.923815 
L 318.954075 124.923815 
L 318.954075 119.797524 
L 320.643113 119.797524 
L 320.643113 118.33287 
L 322.214081 118.33287 
L 322.214081 116.135888 
L 323.682413 116.135888 
L 323.682413 111.009597 
L 325.0607 111.009597 
L 325.0607 108.080288 
L 326.359352 108.080288 
L 326.359352 102.22167 
L 327.247578 102.22167 
L 327.247578 101.489342 
L 327.587071 101.489342 
L 327.587071 98.560033 
L 328.751205 98.560033 
L 328.751205 97.095379 
L 329.858018 97.095379 
L 329.858018 96.363051 
L 330.91289 96.363051 
L 330.91289 95.630724 
L 331.92048 95.630724 
L 331.92048 94.16607 
L 333.809539 94.16607 
L 333.809539 92.701415 
L 334.697701 92.701415 
L 334.697701 91.969088 
L 335.552106 91.969088 
L 335.552106 89.772106 
L 336.375227 89.772106 
L 336.375227 87.575124 
L 337.169274 87.575124 
L 337.169274 86.842797 
L 337.936231 86.842797 
L 337.936231 86.11047 
L 338.677886 86.11047 
L 338.677886 83.913488 
L 339.395855 83.913488 
L 339.395855 83.18116 
L 340.766468 83.18116 
L 340.766468 81.716506 
L 342.058304 81.716506 
L 342.058304 78.787197 
L 342.677413 78.787197 
L 342.677413 77.322542 
L 343.27993 77.322542 
L 343.27993 75.857888 
L 343.866721 75.857888 
L 343.866721 75.12556 
L 349.020235 75.12556 
L 349.020235 73.660906 
L 349.476134 73.660906 
L 349.476134 72.928579 
L 350.361103 72.928579 
L 350.361103 72.196251 
L 358.010472 72.196251 
L 358.010472 71.463924 
L 358.619661 71.463924 
L 358.619661 70.731597 
L 359.50357 70.731597 
L 359.50357 69.999269 
L 416.908065 69.999269 
L 416.908065 69.999269 
" style="fill:none;stroke:#6495ed;stroke-linecap:square;stroke-width:1.5;"/>
   </g>
   <g id="line2d_18">
    <defs>
     <path d="M -0 6 
L 6 -6 
L -6 -6 
z
" id="m6f021e20fb" style="stroke:#6495ed;stroke-linejoin:miter;stroke-width:1.5;"/>
    </defs>
    <g>
     <use style="fill:none;stroke:#6495ed;stroke-linejoin:miter;stroke-width:1.5;" x="211.226769036" xlink:href="#m6f021e20fb" y="287.500471695"/>
     <use style="fill:none;stroke:#6495ed;stroke-linejoin:miter;stroke-width:1.5;" x="309.52861284" xlink:href="#m6f021e20fb" y="152.019924806"/>
     <use style="fill:none;stroke:#6495ed;stroke-linejoin:miter;stroke-width:1.5;" x="359.503570484" xlink:href="#m6f021e20fb" y="69.9992693911"/>
     <use style="fill:none;stroke:#6495ed;stroke-linejoin:miter;stroke-width:1.5;" x="359.503570484" xlink:href="#m6f021e20fb" y="69.9992693911"/>
     <use style="fill:none;stroke:#6495ed;stroke-linejoin:miter;stroke-width:1.5;" x="416.908064516" xlink:href="#m6f021e20fb" y="69.9992693911"/>
    </g>
   </g>
   <g id="line2d_19">
    <path d="M -15527.946774 758.386913 
" style="fill:none;stroke:#6495ed;stroke-linecap:square;stroke-width:1.5;"/>
    <g>
     <use style="fill:none;stroke:#6495ed;stroke-linejoin:miter;stroke-width:1.5;" x="-15527.9467742" xlink:href="#m6f021e20fb" y="758.386913048"/>
    </g>
   </g>
   <g id="line2d_20">
    <path clip-path="url(#pe4d644ba05)" d="M 261.604409 243.560835 
" style="fill:none;stroke:#6495ed;stroke-linecap:square;"/>
    <defs>
     <path d="M -12 12 
L 12 -12 
M -12 -12 
L 12 12 
" id="mf68f55d406" style="stroke:#6495ed;stroke-width:3.0;"/>
    </defs>
    <g clip-path="url(#pe4d644ba05)">
     <use style="fill:#6495ed;stroke:#6495ed;stroke-width:3.0;" x="261.604409063" xlink:href="#mf68f55d406" y="243.560834866"/>
    </g>
   </g>
   <g id="line2d_21">
    <path d="M 416.908065 223.787998 
L 456.770202 377.430262 
" style="fill:none;stroke:#ff00ff;stroke-linecap:square;stroke-width:1.5;"/>
    <g>
     <use style="fill:none;stroke:#ff00ff;stroke-linejoin:miter;stroke-width:1.5;" x="416.908064516" xlink:href="#m8ed16614bd" y="223.787998293"/>
     <use style="fill:none;stroke:#ff00ff;stroke-linejoin:miter;stroke-width:1.5;" x="456.770201613" xlink:href="#m8ed16614bd" y="377.430261739"/>
    </g>
   </g>
   <g id="line2d_22">
    <path d="M 416.908065 201.81818 
L 456.770202 257.91445 
" style="fill:none;stroke:#000080;stroke-linecap:square;stroke-width:1.5;"/>
    <g>
     <use style="fill:none;stroke:#000080;stroke-width:1.5;" x="416.908064516" xlink:href="#m429538186f" y="201.818179879"/>
     <use style="fill:none;stroke:#000080;stroke-width:1.5;" x="456.770201613" xlink:href="#m429538186f" y="257.914449564"/>
    </g>
   </g>
   <g id="line2d_23">
    <path d="M 416.908065 187.171634 
L 456.770202 138.398637 
" style="fill:none;stroke:#ffa500;stroke-linecap:square;stroke-width:1.5;"/>
    <g>
     <use style="fill:none;stroke:#ffa500;stroke-linejoin:bevel;stroke-width:1.5;" x="416.908064516" xlink:href="#mf4f5fa2944" y="187.171634269"/>
     <use style="fill:none;stroke:#ffa500;stroke-linejoin:bevel;stroke-width:1.5;" x="456.770201613" xlink:href="#mf4f5fa2944" y="138.398637388"/>
    </g>
   </g>
   <g id="line2d_24">
    <path d="M 416.908065 69.999269 
L 456.770202 18.882825 
" style="fill:none;stroke:#6495ed;stroke-linecap:square;stroke-width:1.5;"/>
    <g>
     <use style="fill:none;stroke:#6495ed;stroke-linejoin:miter;stroke-width:1.5;" x="416.908064516" xlink:href="#m6f021e20fb" y="69.9992693911"/>
     <use style="fill:none;stroke:#6495ed;stroke-linejoin:miter;stroke-width:1.5;" x="456.770201613" xlink:href="#m6f021e20fb" y="18.8828252132"/>
    </g>
   </g>
   <g id="line2d_25">
    <path d="M 416.908065 384.9 
L 416.908065 11.413087 
" style="fill:none;stroke:#000000;stroke-linecap:square;"/>
   </g>
   <g id="patch_3">
    <path d="M 54.525 7.678218 
L 503.88 7.678218 
" style="fill:none;stroke:#000000;stroke-linecap:square;stroke-linejoin:miter;"/>
   </g>
   <g id="patch_4">
    <path d="M 503.88 384.9 
L 503.88 7.678218 
" style="fill:none;stroke:#000000;stroke-linecap:square;stroke-linejoin:miter;"/>
   </g>
   <g id="patch_5">
    <path d="M 54.525 384.9 
L 503.88 384.9 
" style="fill:none;stroke:#000000;stroke-linecap:square;stroke-linejoin:miter;"/>
   </g>
   <g id="patch_6">
    <path d="M 54.525 384.9 
L 54.525 7.678218 
" style="fill:none;stroke:#000000;stroke-linecap:square;stroke-linejoin:miter;"/>
   </g>
   <g id="matplotlib.axis_1">
    <g id="xtick_1">
     <g id="line2d_26">
      <path clip-path="url(#pe4d644ba05)" d="M 54.525 384.9 
L 54.525 7.678218 
" style="fill:none;stroke:#000000;stroke-dasharray:1.000000,3.000000;stroke-dashoffset:0.0;stroke-width:0.5;"/>
     </g>
     <g id="line2d_27">
      <defs>
       <path d="M 0 0 
L 0 -4 
" id="m17cec36e0d" style="stroke:#000000;stroke-width:0.5;"/>
      </defs>
      <g>
       <use style="stroke:#000000;stroke-width:0.5;" x="54.525" xlink:href="#m17cec36e0d" y="384.9"/>
      </g>
     </g>
     <g id="line2d_28">
      <defs>
       <path d="M 0 0 
L 0 4 
" id="ma0399ef77d" style="stroke:#000000;stroke-width:0.5;"/>
      </defs>
      <g>
       <use style="stroke:#000000;stroke-width:0.5;" x="54.525" xlink:href="#ma0399ef77d" y="7.67821782178"/>
      </g>
     </g>
     <g id="text_1">
      <!-- 0 -->
      <defs>
       <path d="M 31.78125 66.40625 
Q 24.171875 66.40625 20.328125 58.90625 
Q 16.5 51.421875 16.5 36.375 
Q 16.5 21.390625 20.328125 13.890625 
Q 24.171875 6.390625 31.78125 6.390625 
Q 39.453125 6.390625 43.28125 13.890625 
Q 47.125 21.390625 47.125 36.375 
Q 47.125 51.421875 43.28125 58.90625 
Q 39.453125 66.40625 31.78125 66.40625 
M 31.78125 74.21875 
Q 44.046875 74.21875 50.515625 64.515625 
Q 56.984375 54.828125 56.984375 36.375 
Q 56.984375 17.96875 50.515625 8.265625 
Q 44.046875 -1.421875 31.78125 -1.421875 
Q 19.53125 -1.421875 13.0625 8.265625 
Q 6.59375 17.96875 6.59375 36.375 
Q 6.59375 54.828125 13.0625 64.515625 
Q 19.53125 74.21875 31.78125 74.21875 
" id="BitstreamVeraSans-Roman-30"/>
      </defs>
      <g transform="translate(48.1625 404.096875)scale(0.2 -0.2)">
       <use xlink:href="#BitstreamVeraSans-Roman-30"/>
      </g>
     </g>
    </g>
    <g id="xtick_2">
     <g id="line2d_29">
      <path clip-path="url(#pe4d644ba05)" d="M 106.294009 384.9 
L 106.294009 7.678218 
" style="fill:none;stroke:#000000;stroke-dasharray:1.000000,3.000000;stroke-dashoffset:0.0;stroke-width:0.5;"/>
     </g>
     <g id="line2d_30">
      <g>
       <use style="stroke:#000000;stroke-width:0.5;" x="106.294009217" xlink:href="#m17cec36e0d" y="384.9"/>
      </g>
     </g>
     <g id="line2d_31">
      <g>
       <use style="stroke:#000000;stroke-width:0.5;" x="106.294009217" xlink:href="#ma0399ef77d" y="7.67821782178"/>
      </g>
     </g>
     <g id="text_2">
      <!-- 1 -->
      <defs>
       <path d="M 12.40625 8.296875 
L 28.515625 8.296875 
L 28.515625 63.921875 
L 10.984375 60.40625 
L 10.984375 69.390625 
L 28.421875 72.90625 
L 38.28125 72.90625 
L 38.28125 8.296875 
L 54.390625 8.296875 
L 54.390625 0 
L 12.40625 0 
z
" id="BitstreamVeraSans-Roman-31"/>
      </defs>
      <g transform="translate(99.9315092166 404.096875)scale(0.2 -0.2)">
       <use xlink:href="#BitstreamVeraSans-Roman-31"/>
      </g>
     </g>
    </g>
    <g id="xtick_3">
     <g id="line2d_32">
      <path clip-path="url(#pe4d644ba05)" d="M 158.063018 384.9 
L 158.063018 7.678218 
" style="fill:none;stroke:#000000;stroke-dasharray:1.000000,3.000000;stroke-dashoffset:0.0;stroke-width:0.5;"/>
     </g>
     <g id="line2d_33">
      <g>
       <use style="stroke:#000000;stroke-width:0.5;" x="158.063018433" xlink:href="#m17cec36e0d" y="384.9"/>
      </g>
     </g>
     <g id="line2d_34">
      <g>
       <use style="stroke:#000000;stroke-width:0.5;" x="158.063018433" xlink:href="#ma0399ef77d" y="7.67821782178"/>
      </g>
     </g>
     <g id="text_3">
      <!-- 2 -->
      <defs>
       <path d="M 19.1875 8.296875 
L 53.609375 8.296875 
L 53.609375 0 
L 7.328125 0 
L 7.328125 8.296875 
Q 12.9375 14.109375 22.625 23.890625 
Q 32.328125 33.6875 34.8125 36.53125 
Q 39.546875 41.84375 41.421875 45.53125 
Q 43.3125 49.21875 43.3125 52.78125 
Q 43.3125 58.59375 39.234375 62.25 
Q 35.15625 65.921875 28.609375 65.921875 
Q 23.96875 65.921875 18.8125 64.3125 
Q 13.671875 62.703125 7.8125 59.421875 
L 7.8125 69.390625 
Q 13.765625 71.78125 18.9375 73 
Q 24.125 74.21875 28.421875 74.21875 
Q 39.75 74.21875 46.484375 68.546875 
Q 53.21875 62.890625 53.21875 53.421875 
Q 53.21875 48.921875 51.53125 44.890625 
Q 49.859375 40.875 45.40625 35.40625 
Q 44.1875 33.984375 37.640625 27.21875 
Q 31.109375 20.453125 19.1875 8.296875 
" id="BitstreamVeraSans-Roman-32"/>
      </defs>
      <g transform="translate(151.700518433 404.096875)scale(0.2 -0.2)">
       <use xlink:href="#BitstreamVeraSans-Roman-32"/>
      </g>
     </g>
    </g>
    <g id="xtick_4">
     <g id="line2d_35">
      <path clip-path="url(#pe4d644ba05)" d="M 209.832028 384.9 
L 209.832028 7.678218 
" style="fill:none;stroke:#000000;stroke-dasharray:1.000000,3.000000;stroke-dashoffset:0.0;stroke-width:0.5;"/>
     </g>
     <g id="line2d_36">
      <g>
       <use style="stroke:#000000;stroke-width:0.5;" x="209.83202765" xlink:href="#m17cec36e0d" y="384.9"/>
      </g>
     </g>
     <g id="line2d_37">
      <g>
       <use style="stroke:#000000;stroke-width:0.5;" x="209.83202765" xlink:href="#ma0399ef77d" y="7.67821782178"/>
      </g>
     </g>
     <g id="text_4">
      <!-- 3 -->
      <defs>
       <path d="M 40.578125 39.3125 
Q 47.65625 37.796875 51.625 33 
Q 55.609375 28.21875 55.609375 21.1875 
Q 55.609375 10.40625 48.1875 4.484375 
Q 40.765625 -1.421875 27.09375 -1.421875 
Q 22.515625 -1.421875 17.65625 -0.515625 
Q 12.796875 0.390625 7.625 2.203125 
L 7.625 11.71875 
Q 11.71875 9.328125 16.59375 8.109375 
Q 21.484375 6.890625 26.8125 6.890625 
Q 36.078125 6.890625 40.9375 10.546875 
Q 45.796875 14.203125 45.796875 21.1875 
Q 45.796875 27.640625 41.28125 31.265625 
Q 36.765625 34.90625 28.71875 34.90625 
L 20.21875 34.90625 
L 20.21875 43.015625 
L 29.109375 43.015625 
Q 36.375 43.015625 40.234375 45.921875 
Q 44.09375 48.828125 44.09375 54.296875 
Q 44.09375 59.90625 40.109375 62.90625 
Q 36.140625 65.921875 28.71875 65.921875 
Q 24.65625 65.921875 20.015625 65.03125 
Q 15.375 64.15625 9.8125 62.3125 
L 9.8125 71.09375 
Q 15.4375 72.65625 20.34375 73.4375 
Q 25.25 74.21875 29.59375 74.21875 
Q 40.828125 74.21875 47.359375 69.109375 
Q 53.90625 64.015625 53.90625 55.328125 
Q 53.90625 49.265625 50.4375 45.09375 
Q 46.96875 40.921875 40.578125 39.3125 
" id="BitstreamVeraSans-Roman-33"/>
      </defs>
      <g transform="translate(203.46952765 404.096875)scale(0.2 -0.2)">
       <use xlink:href="#BitstreamVeraSans-Roman-33"/>
      </g>
     </g>
    </g>
    <g id="xtick_5">
     <g id="line2d_38">
      <path clip-path="url(#pe4d644ba05)" d="M 261.601037 384.9 
L 261.601037 7.678218 
" style="fill:none;stroke:#000000;stroke-dasharray:1.000000,3.000000;stroke-dashoffset:0.0;stroke-width:0.5;"/>
     </g>
     <g id="line2d_39">
      <g>
       <use style="stroke:#000000;stroke-width:0.5;" x="261.601036866" xlink:href="#m17cec36e0d" y="384.9"/>
      </g>
     </g>
     <g id="line2d_40">
      <g>
       <use style="stroke:#000000;stroke-width:0.5;" x="261.601036866" xlink:href="#ma0399ef77d" y="7.67821782178"/>
      </g>
     </g>
     <g id="text_5">
      <!-- 4 -->
      <defs>
       <path d="M 37.796875 64.3125 
L 12.890625 25.390625 
L 37.796875 25.390625 
z
M 35.203125 72.90625 
L 47.609375 72.90625 
L 47.609375 25.390625 
L 58.015625 25.390625 
L 58.015625 17.1875 
L 47.609375 17.1875 
L 47.609375 0 
L 37.796875 0 
L 37.796875 17.1875 
L 4.890625 17.1875 
L 4.890625 26.703125 
z
" id="BitstreamVeraSans-Roman-34"/>
      </defs>
      <g transform="translate(255.238536866 404.096875)scale(0.2 -0.2)">
       <use xlink:href="#BitstreamVeraSans-Roman-34"/>
      </g>
     </g>
    </g>
    <g id="xtick_6">
     <g id="line2d_41">
      <path clip-path="url(#pe4d644ba05)" d="M 313.370046 384.9 
L 313.370046 7.678218 
" style="fill:none;stroke:#000000;stroke-dasharray:1.000000,3.000000;stroke-dashoffset:0.0;stroke-width:0.5;"/>
     </g>
     <g id="line2d_42">
      <g>
       <use style="stroke:#000000;stroke-width:0.5;" x="313.370046083" xlink:href="#m17cec36e0d" y="384.9"/>
      </g>
     </g>
     <g id="line2d_43">
      <g>
       <use style="stroke:#000000;stroke-width:0.5;" x="313.370046083" xlink:href="#ma0399ef77d" y="7.67821782178"/>
      </g>
     </g>
     <g id="text_6">
      <!-- 5 -->
      <defs>
       <path d="M 10.796875 72.90625 
L 49.515625 72.90625 
L 49.515625 64.59375 
L 19.828125 64.59375 
L 19.828125 46.734375 
Q 21.96875 47.46875 24.109375 47.828125 
Q 26.265625 48.1875 28.421875 48.1875 
Q 40.625 48.1875 47.75 41.5 
Q 54.890625 34.8125 54.890625 23.390625 
Q 54.890625 11.625 47.5625 5.09375 
Q 40.234375 -1.421875 26.90625 -1.421875 
Q 22.3125 -1.421875 17.546875 -0.640625 
Q 12.796875 0.140625 7.71875 1.703125 
L 7.71875 11.625 
Q 12.109375 9.234375 16.796875 8.0625 
Q 21.484375 6.890625 26.703125 6.890625 
Q 35.15625 6.890625 40.078125 11.328125 
Q 45.015625 15.765625 45.015625 23.390625 
Q 45.015625 31 40.078125 35.4375 
Q 35.15625 39.890625 26.703125 39.890625 
Q 22.75 39.890625 18.8125 39.015625 
Q 14.890625 38.140625 10.796875 36.28125 
z
" id="BitstreamVeraSans-Roman-35"/>
      </defs>
      <g transform="translate(307.007546083 404.096875)scale(0.2 -0.2)">
       <use xlink:href="#BitstreamVeraSans-Roman-35"/>
      </g>
     </g>
    </g>
    <g id="xtick_7">
     <g id="line2d_44">
      <path clip-path="url(#pe4d644ba05)" d="M 365.139055 384.9 
L 365.139055 7.678218 
" style="fill:none;stroke:#000000;stroke-dasharray:1.000000,3.000000;stroke-dashoffset:0.0;stroke-width:0.5;"/>
     </g>
     <g id="line2d_45">
      <g>
       <use style="stroke:#000000;stroke-width:0.5;" x="365.1390553" xlink:href="#m17cec36e0d" y="384.9"/>
      </g>
     </g>
     <g id="line2d_46">
      <g>
       <use style="stroke:#000000;stroke-width:0.5;" x="365.1390553" xlink:href="#ma0399ef77d" y="7.67821782178"/>
      </g>
     </g>
     <g id="text_7">
      <!-- 6 -->
      <defs>
       <path d="M 33.015625 40.375 
Q 26.375 40.375 22.484375 35.828125 
Q 18.609375 31.296875 18.609375 23.390625 
Q 18.609375 15.53125 22.484375 10.953125 
Q 26.375 6.390625 33.015625 6.390625 
Q 39.65625 6.390625 43.53125 10.953125 
Q 47.40625 15.53125 47.40625 23.390625 
Q 47.40625 31.296875 43.53125 35.828125 
Q 39.65625 40.375 33.015625 40.375 
M 52.59375 71.296875 
L 52.59375 62.3125 
Q 48.875 64.0625 45.09375 64.984375 
Q 41.3125 65.921875 37.59375 65.921875 
Q 27.828125 65.921875 22.671875 59.328125 
Q 17.53125 52.734375 16.796875 39.40625 
Q 19.671875 43.65625 24.015625 45.921875 
Q 28.375 48.1875 33.59375 48.1875 
Q 44.578125 48.1875 50.953125 41.515625 
Q 57.328125 34.859375 57.328125 23.390625 
Q 57.328125 12.15625 50.6875 5.359375 
Q 44.046875 -1.421875 33.015625 -1.421875 
Q 20.359375 -1.421875 13.671875 8.265625 
Q 6.984375 17.96875 6.984375 36.375 
Q 6.984375 53.65625 15.1875 63.9375 
Q 23.390625 74.21875 37.203125 74.21875 
Q 40.921875 74.21875 44.703125 73.484375 
Q 48.484375 72.75 52.59375 71.296875 
" id="BitstreamVeraSans-Roman-36"/>
      </defs>
      <g transform="translate(358.7765553 404.096875)scale(0.2 -0.2)">
       <use xlink:href="#BitstreamVeraSans-Roman-36"/>
      </g>
     </g>
    </g>
    <g id="xtick_8">
     <g id="line2d_47">
      <path clip-path="url(#pe4d644ba05)" d="M 416.908065 384.9 
L 416.908065 7.678218 
" style="fill:none;stroke:#000000;stroke-dasharray:1.000000,3.000000;stroke-dashoffset:0.0;stroke-width:0.5;"/>
     </g>
     <g id="line2d_48">
      <g>
       <use style="stroke:#000000;stroke-width:0.5;" x="416.908064516" xlink:href="#m17cec36e0d" y="384.9"/>
      </g>
     </g>
     <g id="line2d_49">
      <g>
       <use style="stroke:#000000;stroke-width:0.5;" x="416.908064516" xlink:href="#ma0399ef77d" y="7.67821782178"/>
      </g>
     </g>
     <g id="text_8">
      <!-- 7 -->
      <defs>
       <path d="M 8.203125 72.90625 
L 55.078125 72.90625 
L 55.078125 68.703125 
L 28.609375 0 
L 18.3125 0 
L 43.21875 64.59375 
L 8.203125 64.59375 
z
" id="BitstreamVeraSans-Roman-37"/>
      </defs>
      <g transform="translate(410.545564516 404.096875)scale(0.2 -0.2)">
       <use xlink:href="#BitstreamVeraSans-Roman-37"/>
      </g>
     </g>
    </g>
    <g id="xtick_9">
     <g id="line2d_50">
      <path clip-path="url(#pe4d644ba05)" d="M 468.677074 384.9 
L 468.677074 7.678218 
" style="fill:none;stroke:#000000;stroke-dasharray:1.000000,3.000000;stroke-dashoffset:0.0;stroke-width:0.5;"/>
     </g>
     <g id="line2d_51">
      <g>
       <use style="stroke:#000000;stroke-width:0.5;" x="468.677073733" xlink:href="#m17cec36e0d" y="384.9"/>
      </g>
     </g>
     <g id="line2d_52">
      <g>
       <use style="stroke:#000000;stroke-width:0.5;" x="468.677073733" xlink:href="#ma0399ef77d" y="7.67821782178"/>
      </g>
     </g>
     <g id="text_9">
      <!-- 8 -->
      <defs>
       <path d="M 31.78125 34.625 
Q 24.75 34.625 20.71875 30.859375 
Q 16.703125 27.09375 16.703125 20.515625 
Q 16.703125 13.921875 20.71875 10.15625 
Q 24.75 6.390625 31.78125 6.390625 
Q 38.8125 6.390625 42.859375 10.171875 
Q 46.921875 13.96875 46.921875 20.515625 
Q 46.921875 27.09375 42.890625 30.859375 
Q 38.875 34.625 31.78125 34.625 
M 21.921875 38.8125 
Q 15.578125 40.375 12.03125 44.71875 
Q 8.5 49.078125 8.5 55.328125 
Q 8.5 64.0625 14.71875 69.140625 
Q 20.953125 74.21875 31.78125 74.21875 
Q 42.671875 74.21875 48.875 69.140625 
Q 55.078125 64.0625 55.078125 55.328125 
Q 55.078125 49.078125 51.53125 44.71875 
Q 48 40.375 41.703125 38.8125 
Q 48.828125 37.15625 52.796875 32.3125 
Q 56.78125 27.484375 56.78125 20.515625 
Q 56.78125 9.90625 50.3125 4.234375 
Q 43.84375 -1.421875 31.78125 -1.421875 
Q 19.734375 -1.421875 13.25 4.234375 
Q 6.78125 9.90625 6.78125 20.515625 
Q 6.78125 27.484375 10.78125 32.3125 
Q 14.796875 37.15625 21.921875 38.8125 
M 18.3125 54.390625 
Q 18.3125 48.734375 21.84375 45.5625 
Q 25.390625 42.390625 31.78125 42.390625 
Q 38.140625 42.390625 41.71875 45.5625 
Q 45.3125 48.734375 45.3125 54.390625 
Q 45.3125 60.0625 41.71875 63.234375 
Q 38.140625 66.40625 31.78125 66.40625 
Q 25.390625 66.40625 21.84375 63.234375 
Q 18.3125 60.0625 18.3125 54.390625 
" id="BitstreamVeraSans-Roman-38"/>
      </defs>
      <g transform="translate(462.314573733 404.096875)scale(0.2 -0.2)">
       <use xlink:href="#BitstreamVeraSans-Roman-38"/>
      </g>
     </g>
    </g>
    <g id="xtick_10">
     <g id="line2d_53">
      <defs>
       <path d="M 0 0 
L 0 -2 
" id="mff3d655398" style="stroke:#000000;stroke-width:0.5;"/>
      </defs>
      <g>
       <use style="stroke:#000000;stroke-width:0.5;" x="70.10902462" xlink:href="#mff3d655398" y="384.9"/>
      </g>
     </g>
     <g id="line2d_54">
      <defs>
       <path d="M 0 0 
L 0 2 
" id="mbea1cdfa03" style="stroke:#000000;stroke-width:0.5;"/>
      </defs>
      <g>
       <use style="stroke:#000000;stroke-width:0.5;" x="70.10902462" xlink:href="#mbea1cdfa03" y="7.67821782178"/>
      </g>
     </g>
    </g>
    <g id="xtick_11">
     <g id="line2d_55">
      <g>
       <use style="stroke:#000000;stroke-width:0.5;" x="85.69304924" xlink:href="#mff3d655398" y="384.9"/>
      </g>
     </g>
     <g id="line2d_56">
      <g>
       <use style="stroke:#000000;stroke-width:0.5;" x="85.69304924" xlink:href="#mbea1cdfa03" y="7.67821782178"/>
      </g>
     </g>
    </g>
    <g id="xtick_12">
     <g id="line2d_57">
      <g>
       <use style="stroke:#000000;stroke-width:0.5;" x="94.809119253" xlink:href="#mff3d655398" y="384.9"/>
      </g>
     </g>
     <g id="line2d_58">
      <g>
       <use style="stroke:#000000;stroke-width:0.5;" x="94.809119253" xlink:href="#mbea1cdfa03" y="7.67821782178"/>
      </g>
     </g>
    </g>
    <g id="xtick_13">
     <g id="line2d_59">
      <g>
       <use style="stroke:#000000;stroke-width:0.5;" x="101.27707386" xlink:href="#mff3d655398" y="384.9"/>
      </g>
     </g>
     <g id="line2d_60">
      <g>
       <use style="stroke:#000000;stroke-width:0.5;" x="101.27707386" xlink:href="#mbea1cdfa03" y="7.67821782178"/>
      </g>
     </g>
    </g>
    <g id="xtick_14">
     <g id="line2d_61">
      <g>
       <use style="stroke:#000000;stroke-width:0.5;" x="121.878033837" xlink:href="#mff3d655398" y="384.9"/>
      </g>
     </g>
     <g id="line2d_62">
      <g>
       <use style="stroke:#000000;stroke-width:0.5;" x="121.878033837" xlink:href="#mbea1cdfa03" y="7.67821782178"/>
      </g>
     </g>
    </g>
    <g id="xtick_15">
     <g id="line2d_63">
      <g>
       <use style="stroke:#000000;stroke-width:0.5;" x="137.462058457" xlink:href="#mff3d655398" y="384.9"/>
      </g>
     </g>
     <g id="line2d_64">
      <g>
       <use style="stroke:#000000;stroke-width:0.5;" x="137.462058457" xlink:href="#mbea1cdfa03" y="7.67821782178"/>
      </g>
     </g>
    </g>
    <g id="xtick_16">
     <g id="line2d_65">
      <g>
       <use style="stroke:#000000;stroke-width:0.5;" x="146.57812847" xlink:href="#mff3d655398" y="384.9"/>
      </g>
     </g>
     <g id="line2d_66">
      <g>
       <use style="stroke:#000000;stroke-width:0.5;" x="146.57812847" xlink:href="#mbea1cdfa03" y="7.67821782178"/>
      </g>
     </g>
    </g>
    <g id="xtick_17">
     <g id="line2d_67">
      <g>
       <use style="stroke:#000000;stroke-width:0.5;" x="153.046083077" xlink:href="#mff3d655398" y="384.9"/>
      </g>
     </g>
     <g id="line2d_68">
      <g>
       <use style="stroke:#000000;stroke-width:0.5;" x="153.046083077" xlink:href="#mbea1cdfa03" y="7.67821782178"/>
      </g>
     </g>
    </g>
    <g id="xtick_18">
     <g id="line2d_69">
      <g>
       <use style="stroke:#000000;stroke-width:0.5;" x="173.647043053" xlink:href="#mff3d655398" y="384.9"/>
      </g>
     </g>
     <g id="line2d_70">
      <g>
       <use style="stroke:#000000;stroke-width:0.5;" x="173.647043053" xlink:href="#mbea1cdfa03" y="7.67821782178"/>
      </g>
     </g>
    </g>
    <g id="xtick_19">
     <g id="line2d_71">
      <g>
       <use style="stroke:#000000;stroke-width:0.5;" x="189.231067673" xlink:href="#mff3d655398" y="384.9"/>
      </g>
     </g>
     <g id="line2d_72">
      <g>
       <use style="stroke:#000000;stroke-width:0.5;" x="189.231067673" xlink:href="#mbea1cdfa03" y="7.67821782178"/>
      </g>
     </g>
    </g>
    <g id="xtick_20">
     <g id="line2d_73">
      <g>
       <use style="stroke:#000000;stroke-width:0.5;" x="198.347137686" xlink:href="#mff3d655398" y="384.9"/>
      </g>
     </g>
     <g id="line2d_74">
      <g>
       <use style="stroke:#000000;stroke-width:0.5;" x="198.347137686" xlink:href="#mbea1cdfa03" y="7.67821782178"/>
      </g>
     </g>
    </g>
    <g id="xtick_21">
     <g id="line2d_75">
      <g>
       <use style="stroke:#000000;stroke-width:0.5;" x="204.815092293" xlink:href="#mff3d655398" y="384.9"/>
      </g>
     </g>
     <g id="line2d_76">
      <g>
       <use style="stroke:#000000;stroke-width:0.5;" x="204.815092293" xlink:href="#mbea1cdfa03" y="7.67821782178"/>
      </g>
     </g>
    </g>
    <g id="xtick_22">
     <g id="line2d_77">
      <g>
       <use style="stroke:#000000;stroke-width:0.5;" x="225.41605227" xlink:href="#mff3d655398" y="384.9"/>
      </g>
     </g>
     <g id="line2d_78">
      <g>
       <use style="stroke:#000000;stroke-width:0.5;" x="225.41605227" xlink:href="#mbea1cdfa03" y="7.67821782178"/>
      </g>
     </g>
    </g>
    <g id="xtick_23">
     <g id="line2d_79">
      <g>
       <use style="stroke:#000000;stroke-width:0.5;" x="241.00007689" xlink:href="#mff3d655398" y="384.9"/>
      </g>
     </g>
     <g id="line2d_80">
      <g>
       <use style="stroke:#000000;stroke-width:0.5;" x="241.00007689" xlink:href="#mbea1cdfa03" y="7.67821782178"/>
      </g>
     </g>
    </g>
    <g id="xtick_24">
     <g id="line2d_81">
      <g>
       <use style="stroke:#000000;stroke-width:0.5;" x="250.116146903" xlink:href="#mff3d655398" y="384.9"/>
      </g>
     </g>
     <g id="line2d_82">
      <g>
       <use style="stroke:#000000;stroke-width:0.5;" x="250.116146903" xlink:href="#mbea1cdfa03" y="7.67821782178"/>
      </g>
     </g>
    </g>
    <g id="xtick_25">
     <g id="line2d_83">
      <g>
       <use style="stroke:#000000;stroke-width:0.5;" x="256.58410151" xlink:href="#mff3d655398" y="384.9"/>
      </g>
     </g>
     <g id="line2d_84">
      <g>
       <use style="stroke:#000000;stroke-width:0.5;" x="256.58410151" xlink:href="#mbea1cdfa03" y="7.67821782178"/>
      </g>
     </g>
    </g>
    <g id="xtick_26">
     <g id="line2d_85">
      <g>
       <use style="stroke:#000000;stroke-width:0.5;" x="277.185061486" xlink:href="#mff3d655398" y="384.9"/>
      </g>
     </g>
     <g id="line2d_86">
      <g>
       <use style="stroke:#000000;stroke-width:0.5;" x="277.185061486" xlink:href="#mbea1cdfa03" y="7.67821782178"/>
      </g>
     </g>
    </g>
    <g id="xtick_27">
     <g id="line2d_87">
      <g>
       <use style="stroke:#000000;stroke-width:0.5;" x="292.769086106" xlink:href="#mff3d655398" y="384.9"/>
      </g>
     </g>
     <g id="line2d_88">
      <g>
       <use style="stroke:#000000;stroke-width:0.5;" x="292.769086106" xlink:href="#mbea1cdfa03" y="7.67821782178"/>
      </g>
     </g>
    </g>
    <g id="xtick_28">
     <g id="line2d_89">
      <g>
       <use style="stroke:#000000;stroke-width:0.5;" x="301.885156119" xlink:href="#mff3d655398" y="384.9"/>
      </g>
     </g>
     <g id="line2d_90">
      <g>
       <use style="stroke:#000000;stroke-width:0.5;" x="301.885156119" xlink:href="#mbea1cdfa03" y="7.67821782178"/>
      </g>
     </g>
    </g>
    <g id="xtick_29">
     <g id="line2d_91">
      <g>
       <use style="stroke:#000000;stroke-width:0.5;" x="308.353110726" xlink:href="#mff3d655398" y="384.9"/>
      </g>
     </g>
     <g id="line2d_92">
      <g>
       <use style="stroke:#000000;stroke-width:0.5;" x="308.353110726" xlink:href="#mbea1cdfa03" y="7.67821782178"/>
      </g>
     </g>
    </g>
    <g id="xtick_30">
     <g id="line2d_93">
      <g>
       <use style="stroke:#000000;stroke-width:0.5;" x="328.954070703" xlink:href="#mff3d655398" y="384.9"/>
      </g>
     </g>
     <g id="line2d_94">
      <g>
       <use style="stroke:#000000;stroke-width:0.5;" x="328.954070703" xlink:href="#mbea1cdfa03" y="7.67821782178"/>
      </g>
     </g>
    </g>
    <g id="xtick_31">
     <g id="line2d_95">
      <g>
       <use style="stroke:#000000;stroke-width:0.5;" x="344.538095323" xlink:href="#mff3d655398" y="384.9"/>
      </g>
     </g>
     <g id="line2d_96">
      <g>
       <use style="stroke:#000000;stroke-width:0.5;" x="344.538095323" xlink:href="#mbea1cdfa03" y="7.67821782178"/>
      </g>
     </g>
    </g>
    <g id="xtick_32">
     <g id="line2d_97">
      <g>
       <use style="stroke:#000000;stroke-width:0.5;" x="353.654165336" xlink:href="#mff3d655398" y="384.9"/>
      </g>
     </g>
     <g id="line2d_98">
      <g>
       <use style="stroke:#000000;stroke-width:0.5;" x="353.654165336" xlink:href="#mbea1cdfa03" y="7.67821782178"/>
      </g>
     </g>
    </g>
    <g id="xtick_33">
     <g id="line2d_99">
      <g>
       <use style="stroke:#000000;stroke-width:0.5;" x="360.122119943" xlink:href="#mff3d655398" y="384.9"/>
      </g>
     </g>
     <g id="line2d_100">
      <g>
       <use style="stroke:#000000;stroke-width:0.5;" x="360.122119943" xlink:href="#mbea1cdfa03" y="7.67821782178"/>
      </g>
     </g>
    </g>
    <g id="xtick_34">
     <g id="line2d_101">
      <g>
       <use style="stroke:#000000;stroke-width:0.5;" x="380.72307992" xlink:href="#mff3d655398" y="384.9"/>
      </g>
     </g>
     <g id="line2d_102">
      <g>
       <use style="stroke:#000000;stroke-width:0.5;" x="380.72307992" xlink:href="#mbea1cdfa03" y="7.67821782178"/>
      </g>
     </g>
    </g>
    <g id="xtick_35">
     <g id="line2d_103">
      <g>
       <use style="stroke:#000000;stroke-width:0.5;" x="396.30710454" xlink:href="#mff3d655398" y="384.9"/>
      </g>
     </g>
     <g id="line2d_104">
      <g>
       <use style="stroke:#000000;stroke-width:0.5;" x="396.30710454" xlink:href="#mbea1cdfa03" y="7.67821782178"/>
      </g>
     </g>
    </g>
    <g id="xtick_36">
     <g id="line2d_105">
      <g>
       <use style="stroke:#000000;stroke-width:0.5;" x="405.423174553" xlink:href="#mff3d655398" y="384.9"/>
      </g>
     </g>
     <g id="line2d_106">
      <g>
       <use style="stroke:#000000;stroke-width:0.5;" x="405.423174553" xlink:href="#mbea1cdfa03" y="7.67821782178"/>
      </g>
     </g>
    </g>
    <g id="xtick_37">
     <g id="line2d_107">
      <g>
       <use style="stroke:#000000;stroke-width:0.5;" x="411.89112916" xlink:href="#mff3d655398" y="384.9"/>
      </g>
     </g>
     <g id="line2d_108">
      <g>
       <use style="stroke:#000000;stroke-width:0.5;" x="411.89112916" xlink:href="#mbea1cdfa03" y="7.67821782178"/>
      </g>
     </g>
    </g>
    <g id="xtick_38">
     <g id="line2d_109">
      <g>
       <use style="stroke:#000000;stroke-width:0.5;" x="432.492089136" xlink:href="#mff3d655398" y="384.9"/>
      </g>
     </g>
     <g id="line2d_110">
      <g>
       <use style="stroke:#000000;stroke-width:0.5;" x="432.492089136" xlink:href="#mbea1cdfa03" y="7.67821782178"/>
      </g>
     </g>
    </g>
    <g id="xtick_39">
     <g id="line2d_111">
      <g>
       <use style="stroke:#000000;stroke-width:0.5;" x="448.076113756" xlink:href="#mff3d655398" y="384.9"/>
      </g>
     </g>
     <g id="line2d_112">
      <g>
       <use style="stroke:#000000;stroke-width:0.5;" x="448.076113756" xlink:href="#mbea1cdfa03" y="7.67821782178"/>
      </g>
     </g>
    </g>
    <g id="xtick_40">
     <g id="line2d_113">
      <g>
       <use style="stroke:#000000;stroke-width:0.5;" x="457.192183769" xlink:href="#mff3d655398" y="384.9"/>
      </g>
     </g>
     <g id="line2d_114">
      <g>
       <use style="stroke:#000000;stroke-width:0.5;" x="457.192183769" xlink:href="#mbea1cdfa03" y="7.67821782178"/>
      </g>
     </g>
    </g>
    <g id="xtick_41">
     <g id="line2d_115">
      <g>
       <use style="stroke:#000000;stroke-width:0.5;" x="463.660138376" xlink:href="#mff3d655398" y="384.9"/>
      </g>
     </g>
     <g id="line2d_116">
      <g>
       <use style="stroke:#000000;stroke-width:0.5;" x="463.660138376" xlink:href="#mbea1cdfa03" y="7.67821782178"/>
      </g>
     </g>
    </g>
    <g id="xtick_42">
     <g id="line2d_117">
      <g>
       <use style="stroke:#000000;stroke-width:0.5;" x="484.261098353" xlink:href="#mff3d655398" y="384.9"/>
      </g>
     </g>
     <g id="line2d_118">
      <g>
       <use style="stroke:#000000;stroke-width:0.5;" x="484.261098353" xlink:href="#mbea1cdfa03" y="7.67821782178"/>
      </g>
     </g>
    </g>
    <g id="xtick_43">
     <g id="line2d_119">
      <g>
       <use style="stroke:#000000;stroke-width:0.5;" x="499.845122973" xlink:href="#mff3d655398" y="384.9"/>
      </g>
     </g>
     <g id="line2d_120">
      <g>
       <use style="stroke:#000000;stroke-width:0.5;" x="499.845122973" xlink:href="#mbea1cdfa03" y="7.67821782178"/>
      </g>
     </g>
    </g>
    <g id="text_10">
     <!-- log10(# f-evals / dimension) -->
     <defs>
      <path id="BitstreamVeraSans-Roman-20"/>
      <path d="M 51.125 44 
L 36.921875 44 
L 32.8125 27.6875 
L 47.125 27.6875 
z
M 43.796875 71.78125 
L 38.71875 51.515625 
L 52.984375 51.515625 
L 58.109375 71.78125 
L 65.921875 71.78125 
L 60.890625 51.515625 
L 76.125 51.515625 
L 76.125 44 
L 58.984375 44 
L 54.984375 27.6875 
L 70.515625 27.6875 
L 70.515625 20.21875 
L 53.078125 20.21875 
L 48 0 
L 40.1875 0 
L 45.21875 20.21875 
L 30.90625 20.21875 
L 25.875 0 
L 18.015625 0 
L 23.09375 20.21875 
L 7.71875 20.21875 
L 7.71875 27.6875 
L 24.90625 27.6875 
L 29 44 
L 13.28125 44 
L 13.28125 51.515625 
L 30.90625 51.515625 
L 35.890625 71.78125 
z
" id="BitstreamVeraSans-Roman-23"/>
      <path d="M 52 44.1875 
Q 55.375 50.25 60.0625 53.125 
Q 64.75 56 71.09375 56 
Q 79.640625 56 84.28125 50.015625 
Q 88.921875 44.046875 88.921875 33.015625 
L 88.921875 0 
L 79.890625 0 
L 79.890625 32.71875 
Q 79.890625 40.578125 77.09375 44.375 
Q 74.3125 48.1875 68.609375 48.1875 
Q 61.625 48.1875 57.5625 43.546875 
Q 53.515625 38.921875 53.515625 30.90625 
L 53.515625 0 
L 44.484375 0 
L 44.484375 32.71875 
Q 44.484375 40.625 41.703125 44.40625 
Q 38.921875 48.1875 33.109375 48.1875 
Q 26.21875 48.1875 22.15625 43.53125 
Q 18.109375 38.875 18.109375 30.90625 
L 18.109375 0 
L 9.078125 0 
L 9.078125 54.6875 
L 18.109375 54.6875 
L 18.109375 46.1875 
Q 21.1875 51.21875 25.484375 53.609375 
Q 29.78125 56 35.6875 56 
Q 41.65625 56 45.828125 52.96875 
Q 50 49.953125 52 44.1875 
" id="BitstreamVeraSans-Roman-6d"/>
      <path d="M 54.890625 33.015625 
L 54.890625 0 
L 45.90625 0 
L 45.90625 32.71875 
Q 45.90625 40.484375 42.875 44.328125 
Q 39.84375 48.1875 33.796875 48.1875 
Q 26.515625 48.1875 22.3125 43.546875 
Q 18.109375 38.921875 18.109375 30.90625 
L 18.109375 0 
L 9.078125 0 
L 9.078125 54.6875 
L 18.109375 54.6875 
L 18.109375 46.1875 
Q 21.34375 51.125 25.703125 53.5625 
Q 30.078125 56 35.796875 56 
Q 45.21875 56 50.046875 50.171875 
Q 54.890625 44.34375 54.890625 33.015625 
" id="BitstreamVeraSans-Roman-6e"/>
      <path d="M 31 75.875 
Q 24.46875 64.65625 21.28125 53.65625 
Q 18.109375 42.671875 18.109375 31.390625 
Q 18.109375 20.125 21.3125 9.0625 
Q 24.515625 -2 31 -13.1875 
L 23.1875 -13.1875 
Q 15.875 -1.703125 12.234375 9.375 
Q 8.59375 20.453125 8.59375 31.390625 
Q 8.59375 42.28125 12.203125 53.3125 
Q 15.828125 64.359375 23.1875 75.875 
z
" id="BitstreamVeraSans-Roman-28"/>
      <path d="M 30.609375 48.390625 
Q 23.390625 48.390625 19.1875 42.75 
Q 14.984375 37.109375 14.984375 27.296875 
Q 14.984375 17.484375 19.15625 11.84375 
Q 23.34375 6.203125 30.609375 6.203125 
Q 37.796875 6.203125 41.984375 11.859375 
Q 46.1875 17.53125 46.1875 27.296875 
Q 46.1875 37.015625 41.984375 42.703125 
Q 37.796875 48.390625 30.609375 48.390625 
M 30.609375 56 
Q 42.328125 56 49.015625 48.375 
Q 55.71875 40.765625 55.71875 27.296875 
Q 55.71875 13.875 49.015625 6.21875 
Q 42.328125 -1.421875 30.609375 -1.421875 
Q 18.84375 -1.421875 12.171875 6.21875 
Q 5.515625 13.875 5.515625 27.296875 
Q 5.515625 40.765625 12.171875 48.375 
Q 18.84375 56 30.609375 56 
" id="BitstreamVeraSans-Roman-6f"/>
      <path d="M 9.421875 75.984375 
L 18.40625 75.984375 
L 18.40625 0 
L 9.421875 0 
z
" id="BitstreamVeraSans-Roman-6c"/>
      <path d="M 2.984375 54.6875 
L 12.5 54.6875 
L 29.59375 8.796875 
L 46.6875 54.6875 
L 56.203125 54.6875 
L 35.6875 0 
L 23.484375 0 
z
" id="BitstreamVeraSans-Roman-76"/>
      <path d="M 9.421875 54.6875 
L 18.40625 54.6875 
L 18.40625 0 
L 9.421875 0 
z
M 9.421875 75.984375 
L 18.40625 75.984375 
L 18.40625 64.59375 
L 9.421875 64.59375 
z
" id="BitstreamVeraSans-Roman-69"/>
      <path d="M 4.890625 31.390625 
L 31.203125 31.390625 
L 31.203125 23.390625 
L 4.890625 23.390625 
z
" id="BitstreamVeraSans-Roman-2d"/>
      <path d="M 25.390625 72.90625 
L 33.6875 72.90625 
L 8.296875 -9.28125 
L 0 -9.28125 
z
" id="BitstreamVeraSans-Roman-2f"/>
      <path d="M 56.203125 29.59375 
L 56.203125 25.203125 
L 14.890625 25.203125 
Q 15.484375 15.921875 20.484375 11.0625 
Q 25.484375 6.203125 34.421875 6.203125 
Q 39.59375 6.203125 44.453125 7.46875 
Q 49.3125 8.734375 54.109375 11.28125 
L 54.109375 2.78125 
Q 49.265625 0.734375 44.1875 -0.34375 
Q 39.109375 -1.421875 33.890625 -1.421875 
Q 20.796875 -1.421875 13.15625 6.1875 
Q 5.515625 13.8125 5.515625 26.8125 
Q 5.515625 40.234375 12.765625 48.109375 
Q 20.015625 56 32.328125 56 
Q 43.359375 56 49.78125 48.890625 
Q 56.203125 41.796875 56.203125 29.59375 
M 47.21875 32.234375 
Q 47.125 39.59375 43.09375 43.984375 
Q 39.0625 48.390625 32.421875 48.390625 
Q 24.90625 48.390625 20.390625 44.140625 
Q 15.875 39.890625 15.1875 32.171875 
z
" id="BitstreamVeraSans-Roman-65"/>
      <path d="M 45.40625 46.390625 
L 45.40625 75.984375 
L 54.390625 75.984375 
L 54.390625 0 
L 45.40625 0 
L 45.40625 8.203125 
Q 42.578125 3.328125 38.25 0.953125 
Q 33.9375 -1.421875 27.875 -1.421875 
Q 17.96875 -1.421875 11.734375 6.484375 
Q 5.515625 14.40625 5.515625 27.296875 
Q 5.515625 40.1875 11.734375 48.09375 
Q 17.96875 56 27.875 56 
Q 33.9375 56 38.25 53.625 
Q 42.578125 51.265625 45.40625 46.390625 
M 14.796875 27.296875 
Q 14.796875 17.390625 18.875 11.75 
Q 22.953125 6.109375 30.078125 6.109375 
Q 37.203125 6.109375 41.296875 11.75 
Q 45.40625 17.390625 45.40625 27.296875 
Q 45.40625 37.203125 41.296875 42.84375 
Q 37.203125 48.484375 30.078125 48.484375 
Q 22.953125 48.484375 18.875 42.84375 
Q 14.796875 37.203125 14.796875 27.296875 
" id="BitstreamVeraSans-Roman-64"/>
      <path d="M 45.40625 27.984375 
Q 45.40625 37.75 41.375 43.109375 
Q 37.359375 48.484375 30.078125 48.484375 
Q 22.859375 48.484375 18.828125 43.109375 
Q 14.796875 37.75 14.796875 27.984375 
Q 14.796875 18.265625 18.828125 12.890625 
Q 22.859375 7.515625 30.078125 7.515625 
Q 37.359375 7.515625 41.375 12.890625 
Q 45.40625 18.265625 45.40625 27.984375 
M 54.390625 6.78125 
Q 54.390625 -7.171875 48.1875 -13.984375 
Q 42 -20.796875 29.203125 -20.796875 
Q 24.46875 -20.796875 20.265625 -20.09375 
Q 16.0625 -19.390625 12.109375 -17.921875 
L 12.109375 -9.1875 
Q 16.0625 -11.328125 19.921875 -12.34375 
Q 23.78125 -13.375 27.78125 -13.375 
Q 36.625 -13.375 41.015625 -8.765625 
Q 45.40625 -4.15625 45.40625 5.171875 
L 45.40625 9.625 
Q 42.625 4.78125 38.28125 2.390625 
Q 33.9375 0 27.875 0 
Q 17.828125 0 11.671875 7.65625 
Q 5.515625 15.328125 5.515625 27.984375 
Q 5.515625 40.671875 11.671875 48.328125 
Q 17.828125 56 27.875 56 
Q 33.9375 56 38.28125 53.609375 
Q 42.625 51.21875 45.40625 46.390625 
L 45.40625 54.6875 
L 54.390625 54.6875 
z
" id="BitstreamVeraSans-Roman-67"/>
      <path d="M 37.109375 75.984375 
L 37.109375 68.5 
L 28.515625 68.5 
Q 23.6875 68.5 21.796875 66.546875 
Q 19.921875 64.59375 19.921875 59.515625 
L 19.921875 54.6875 
L 34.71875 54.6875 
L 34.71875 47.703125 
L 19.921875 47.703125 
L 19.921875 0 
L 10.890625 0 
L 10.890625 47.703125 
L 2.296875 47.703125 
L 2.296875 54.6875 
L 10.890625 54.6875 
L 10.890625 58.5 
Q 10.890625 67.625 15.140625 71.796875 
Q 19.390625 75.984375 28.609375 75.984375 
z
" id="BitstreamVeraSans-Roman-66"/>
      <path d="M 34.28125 27.484375 
Q 23.390625 27.484375 19.1875 25 
Q 14.984375 22.515625 14.984375 16.5 
Q 14.984375 11.71875 18.140625 8.90625 
Q 21.296875 6.109375 26.703125 6.109375 
Q 34.1875 6.109375 38.703125 11.40625 
Q 43.21875 16.703125 43.21875 25.484375 
L 43.21875 27.484375 
z
M 52.203125 31.203125 
L 52.203125 0 
L 43.21875 0 
L 43.21875 8.296875 
Q 40.140625 3.328125 35.546875 0.953125 
Q 30.953125 -1.421875 24.3125 -1.421875 
Q 15.921875 -1.421875 10.953125 3.296875 
Q 6 8.015625 6 15.921875 
Q 6 25.140625 12.171875 29.828125 
Q 18.359375 34.515625 30.609375 34.515625 
L 43.21875 34.515625 
L 43.21875 35.40625 
Q 43.21875 41.609375 39.140625 45 
Q 35.0625 48.390625 27.6875 48.390625 
Q 23 48.390625 18.546875 47.265625 
Q 14.109375 46.140625 10.015625 43.890625 
L 10.015625 52.203125 
Q 14.9375 54.109375 19.578125 55.046875 
Q 24.21875 56 28.609375 56 
Q 40.484375 56 46.34375 49.84375 
Q 52.203125 43.703125 52.203125 31.203125 
" id="BitstreamVeraSans-Roman-61"/>
      <path d="M 44.28125 53.078125 
L 44.28125 44.578125 
Q 40.484375 46.53125 36.375 47.5 
Q 32.28125 48.484375 27.875 48.484375 
Q 21.1875 48.484375 17.84375 46.4375 
Q 14.5 44.390625 14.5 40.28125 
Q 14.5 37.15625 16.890625 35.375 
Q 19.28125 33.59375 26.515625 31.984375 
L 29.59375 31.296875 
Q 39.15625 29.25 43.1875 25.515625 
Q 47.21875 21.78125 47.21875 15.09375 
Q 47.21875 7.46875 41.1875 3.015625 
Q 35.15625 -1.421875 24.609375 -1.421875 
Q 20.21875 -1.421875 15.453125 -0.5625 
Q 10.6875 0.296875 5.421875 2 
L 5.421875 11.28125 
Q 10.40625 8.6875 15.234375 7.390625 
Q 20.0625 6.109375 24.8125 6.109375 
Q 31.15625 6.109375 34.5625 8.28125 
Q 37.984375 10.453125 37.984375 14.40625 
Q 37.984375 18.0625 35.515625 20.015625 
Q 33.0625 21.96875 24.703125 23.78125 
L 21.578125 24.515625 
Q 13.234375 26.265625 9.515625 29.90625 
Q 5.8125 33.546875 5.8125 39.890625 
Q 5.8125 47.609375 11.28125 51.796875 
Q 16.75 56 26.8125 56 
Q 31.78125 56 36.171875 55.265625 
Q 40.578125 54.546875 44.28125 53.078125 
" id="BitstreamVeraSans-Roman-73"/>
      <path d="M 8.015625 75.875 
L 15.828125 75.875 
Q 23.140625 64.359375 26.78125 53.3125 
Q 30.421875 42.28125 30.421875 31.390625 
Q 30.421875 20.453125 26.78125 9.375 
Q 23.140625 -1.703125 15.828125 -13.1875 
L 8.015625 -13.1875 
Q 14.5 -2 17.703125 9.0625 
Q 20.90625 20.125 20.90625 31.390625 
Q 20.90625 42.671875 17.703125 53.65625 
Q 14.5 64.65625 8.015625 75.875 
" id="BitstreamVeraSans-Roman-29"/>
     </defs>
     <g transform="translate(158.36171875 426.17359375)scale(0.17 -0.17)">
      <use xlink:href="#BitstreamVeraSans-Roman-6c"/>
      <use x="27.783203125" xlink:href="#BitstreamVeraSans-Roman-6f"/>
      <use x="88.96484375" xlink:href="#BitstreamVeraSans-Roman-67"/>
      <use x="152.44140625" xlink:href="#BitstreamVeraSans-Roman-31"/>
      <use x="216.064453125" xlink:href="#BitstreamVeraSans-Roman-30"/>
      <use x="279.6875" xlink:href="#BitstreamVeraSans-Roman-28"/>
      <use x="318.701171875" xlink:href="#BitstreamVeraSans-Roman-23"/>
      <use x="402.490234375" xlink:href="#BitstreamVeraSans-Roman-20"/>
      <use x="434.27734375" xlink:href="#BitstreamVeraSans-Roman-66"/>
      <use x="469.404296875" xlink:href="#BitstreamVeraSans-Roman-2d"/>
      <use x="505.48828125" xlink:href="#BitstreamVeraSans-Roman-65"/>
      <use x="567.01171875" xlink:href="#BitstreamVeraSans-Roman-76"/>
      <use x="626.19140625" xlink:href="#BitstreamVeraSans-Roman-61"/>
      <use x="687.470703125" xlink:href="#BitstreamVeraSans-Roman-6c"/>
      <use x="715.25390625" xlink:href="#BitstreamVeraSans-Roman-73"/>
      <use x="767.353515625" xlink:href="#BitstreamVeraSans-Roman-20"/>
      <use x="799.140625" xlink:href="#BitstreamVeraSans-Roman-2f"/>
      <use x="832.83203125" xlink:href="#BitstreamVeraSans-Roman-20"/>
      <use x="864.619140625" xlink:href="#BitstreamVeraSans-Roman-64"/>
      <use x="928.095703125" xlink:href="#BitstreamVeraSans-Roman-69"/>
      <use x="955.87890625" xlink:href="#BitstreamVeraSans-Roman-6d"/>
      <use x="1053.29101562" xlink:href="#BitstreamVeraSans-Roman-65"/>
      <use x="1114.81445312" xlink:href="#BitstreamVeraSans-Roman-6e"/>
      <use x="1178.19335938" xlink:href="#BitstreamVeraSans-Roman-73"/>
      <use x="1230.29296875" xlink:href="#BitstreamVeraSans-Roman-69"/>
      <use x="1258.07617188" xlink:href="#BitstreamVeraSans-Roman-6f"/>
      <use x="1319.2578125" xlink:href="#BitstreamVeraSans-Roman-6e"/>
      <use x="1382.63671875" xlink:href="#BitstreamVeraSans-Roman-29"/>
     </g>
    </g>
   </g>
   <g id="matplotlib.axis_2">
    <g id="ytick_1">
     <g id="line2d_121">
      <path clip-path="url(#pe4d644ba05)" d="M 54.525 384.9 
L 503.88 384.9 
" style="fill:none;stroke:#000000;stroke-dasharray:1.000000,3.000000;stroke-dashoffset:0.0;stroke-width:0.5;"/>
     </g>
     <g id="line2d_122">
      <defs>
       <path d="M 0 0 
L 4 0 
" id="mdccb3737aa" style="stroke:#000000;stroke-width:0.5;"/>
      </defs>
      <g>
       <use style="stroke:#000000;stroke-width:0.5;" x="54.525" xlink:href="#mdccb3737aa" y="384.9"/>
      </g>
     </g>
     <g id="line2d_123">
      <defs>
       <path d="M 0 0 
L -4 0 
" id="m2eb5a04dc6" style="stroke:#000000;stroke-width:0.5;"/>
      </defs>
      <g>
       <use style="stroke:#000000;stroke-width:0.5;" x="503.88" xlink:href="#m2eb5a04dc6" y="384.9"/>
      </g>
     </g>
     <g id="text_11">
      <!-- 0.0 -->
      <defs>
       <path d="M 10.6875 12.40625 
L 21 12.40625 
L 21 0 
L 10.6875 0 
z
" id="BitstreamVeraSans-Roman-2e"/>
      </defs>
      <g transform="translate(25.08 389.315)scale(0.16 -0.16)">
       <use xlink:href="#BitstreamVeraSans-Roman-30"/>
       <use x="63.623046875" xlink:href="#BitstreamVeraSans-Roman-2e"/>
       <use x="95.41015625" xlink:href="#BitstreamVeraSans-Roman-30"/>
      </g>
     </g>
    </g>
    <g id="ytick_2">
     <g id="line2d_124">
      <path clip-path="url(#pe4d644ba05)" d="M 54.525 310.202617 
L 503.88 310.202617 
" style="fill:none;stroke:#000000;stroke-dasharray:1.000000,3.000000;stroke-dashoffset:0.0;stroke-width:0.5;"/>
     </g>
     <g id="line2d_125">
      <g>
       <use style="stroke:#000000;stroke-width:0.5;" x="54.525" xlink:href="#mdccb3737aa" y="310.20261739"/>
      </g>
     </g>
     <g id="line2d_126">
      <g>
       <use style="stroke:#000000;stroke-width:0.5;" x="503.88" xlink:href="#m2eb5a04dc6" y="310.20261739"/>
      </g>
     </g>
     <g id="text_12">
      <!-- 0.2 -->
      <g transform="translate(25.08 314.61761739)scale(0.16 -0.16)">
       <use xlink:href="#BitstreamVeraSans-Roman-30"/>
       <use x="63.623046875" xlink:href="#BitstreamVeraSans-Roman-2e"/>
       <use x="95.41015625" xlink:href="#BitstreamVeraSans-Roman-32"/>
      </g>
     </g>
    </g>
    <g id="ytick_3">
     <g id="line2d_127">
      <path clip-path="url(#pe4d644ba05)" d="M 54.525 235.505235 
L 503.88 235.505235 
" style="fill:none;stroke:#000000;stroke-dasharray:1.000000,3.000000;stroke-dashoffset:0.0;stroke-width:0.5;"/>
     </g>
     <g id="line2d_128">
      <g>
       <use style="stroke:#000000;stroke-width:0.5;" x="54.525" xlink:href="#mdccb3737aa" y="235.505234781"/>
      </g>
     </g>
     <g id="line2d_129">
      <g>
       <use style="stroke:#000000;stroke-width:0.5;" x="503.88" xlink:href="#m2eb5a04dc6" y="235.505234781"/>
      </g>
     </g>
     <g id="text_13">
      <!-- 0.4 -->
      <g transform="translate(25.08 239.920234781)scale(0.16 -0.16)">
       <use xlink:href="#BitstreamVeraSans-Roman-30"/>
       <use x="63.623046875" xlink:href="#BitstreamVeraSans-Roman-2e"/>
       <use x="95.41015625" xlink:href="#BitstreamVeraSans-Roman-34"/>
      </g>
     </g>
    </g>
    <g id="ytick_4">
     <g id="line2d_130">
      <path clip-path="url(#pe4d644ba05)" d="M 54.525 160.807852 
L 503.88 160.807852 
" style="fill:none;stroke:#000000;stroke-dasharray:1.000000,3.000000;stroke-dashoffset:0.0;stroke-width:0.5;"/>
     </g>
     <g id="line2d_131">
      <g>
       <use style="stroke:#000000;stroke-width:0.5;" x="54.525" xlink:href="#mdccb3737aa" y="160.807852171"/>
      </g>
     </g>
     <g id="line2d_132">
      <g>
       <use style="stroke:#000000;stroke-width:0.5;" x="503.88" xlink:href="#m2eb5a04dc6" y="160.807852171"/>
      </g>
     </g>
     <g id="text_14">
      <!-- 0.6 -->
      <g transform="translate(25.08 165.222852171)scale(0.16 -0.16)">
       <use xlink:href="#BitstreamVeraSans-Roman-30"/>
       <use x="63.623046875" xlink:href="#BitstreamVeraSans-Roman-2e"/>
       <use x="95.41015625" xlink:href="#BitstreamVeraSans-Roman-36"/>
      </g>
     </g>
    </g>
    <g id="ytick_5">
     <g id="line2d_133">
      <path clip-path="url(#pe4d644ba05)" d="M 54.525 86.11047 
L 503.88 86.11047 
" style="fill:none;stroke:#000000;stroke-dasharray:1.000000,3.000000;stroke-dashoffset:0.0;stroke-width:0.5;"/>
     </g>
     <g id="line2d_134">
      <g>
       <use style="stroke:#000000;stroke-width:0.5;" x="54.525" xlink:href="#mdccb3737aa" y="86.1104695618"/>
      </g>
     </g>
     <g id="line2d_135">
      <g>
       <use style="stroke:#000000;stroke-width:0.5;" x="503.88" xlink:href="#m2eb5a04dc6" y="86.1104695618"/>
      </g>
     </g>
     <g id="text_15">
      <!-- 0.8 -->
      <g transform="translate(25.08 90.5254695618)scale(0.16 -0.16)">
       <use xlink:href="#BitstreamVeraSans-Roman-30"/>
       <use x="63.623046875" xlink:href="#BitstreamVeraSans-Roman-2e"/>
       <use x="95.41015625" xlink:href="#BitstreamVeraSans-Roman-38"/>
      </g>
     </g>
    </g>
    <g id="ytick_6">
     <g id="line2d_136">
      <path clip-path="url(#pe4d644ba05)" d="M 54.525 11.413087 
L 503.88 11.413087 
" style="fill:none;stroke:#000000;stroke-dasharray:1.000000,3.000000;stroke-dashoffset:0.0;stroke-width:0.5;"/>
     </g>
     <g id="line2d_137">
      <g>
       <use style="stroke:#000000;stroke-width:0.5;" x="54.525" xlink:href="#mdccb3737aa" y="11.4130869523"/>
      </g>
     </g>
     <g id="line2d_138">
      <g>
       <use style="stroke:#000000;stroke-width:0.5;" x="503.88" xlink:href="#m2eb5a04dc6" y="11.4130869523"/>
      </g>
     </g>
     <g id="text_16">
      <!-- 1.0 -->
      <g transform="translate(25.08 15.8280869523)scale(0.16 -0.16)">
       <use xlink:href="#BitstreamVeraSans-Roman-31"/>
       <use x="63.623046875" xlink:href="#BitstreamVeraSans-Roman-2e"/>
       <use x="95.41015625" xlink:href="#BitstreamVeraSans-Roman-30"/>
      </g>
     </g>
    </g>
    <g id="text_17">
     <!-- Fraction of function,target pairs -->
     <defs>
      <path d="M 9.8125 72.90625 
L 51.703125 72.90625 
L 51.703125 64.59375 
L 19.671875 64.59375 
L 19.671875 43.109375 
L 48.578125 43.109375 
L 48.578125 34.8125 
L 19.671875 34.8125 
L 19.671875 0 
L 9.8125 0 
z
" id="BitstreamVeraSans-Roman-46"/>
      <path d="M 11.71875 12.40625 
L 22.015625 12.40625 
L 22.015625 4 
L 14.015625 -11.625 
L 7.71875 -11.625 
L 11.71875 4 
z
" id="BitstreamVeraSans-Roman-2c"/>
      <path d="M 18.109375 8.203125 
L 18.109375 -20.796875 
L 9.078125 -20.796875 
L 9.078125 54.6875 
L 18.109375 54.6875 
L 18.109375 46.390625 
Q 20.953125 51.265625 25.265625 53.625 
Q 29.59375 56 35.59375 56 
Q 45.5625 56 51.78125 48.09375 
Q 58.015625 40.1875 58.015625 27.296875 
Q 58.015625 14.40625 51.78125 6.484375 
Q 45.5625 -1.421875 35.59375 -1.421875 
Q 29.59375 -1.421875 25.265625 0.953125 
Q 20.953125 3.328125 18.109375 8.203125 
M 48.6875 27.296875 
Q 48.6875 37.203125 44.609375 42.84375 
Q 40.53125 48.484375 33.40625 48.484375 
Q 26.265625 48.484375 22.1875 42.84375 
Q 18.109375 37.203125 18.109375 27.296875 
Q 18.109375 17.390625 22.1875 11.75 
Q 26.265625 6.109375 33.40625 6.109375 
Q 40.53125 6.109375 44.609375 11.75 
Q 48.6875 17.390625 48.6875 27.296875 
" id="BitstreamVeraSans-Roman-70"/>
      <path d="M 18.3125 70.21875 
L 18.3125 54.6875 
L 36.8125 54.6875 
L 36.8125 47.703125 
L 18.3125 47.703125 
L 18.3125 18.015625 
Q 18.3125 11.328125 20.140625 9.421875 
Q 21.96875 7.515625 27.59375 7.515625 
L 36.8125 7.515625 
L 36.8125 0 
L 27.59375 0 
Q 17.1875 0 13.234375 3.875 
Q 9.28125 7.765625 9.28125 18.015625 
L 9.28125 47.703125 
L 2.6875 47.703125 
L 2.6875 54.6875 
L 9.28125 54.6875 
L 9.28125 70.21875 
z
" id="BitstreamVeraSans-Roman-74"/>
      <path d="M 8.5 21.578125 
L 8.5 54.6875 
L 17.484375 54.6875 
L 17.484375 21.921875 
Q 17.484375 14.15625 20.5 10.265625 
Q 23.53125 6.390625 29.59375 6.390625 
Q 36.859375 6.390625 41.078125 11.03125 
Q 45.3125 15.671875 45.3125 23.6875 
L 45.3125 54.6875 
L 54.296875 54.6875 
L 54.296875 0 
L 45.3125 0 
L 45.3125 8.40625 
Q 42.046875 3.421875 37.71875 1 
Q 33.40625 -1.421875 27.6875 -1.421875 
Q 18.265625 -1.421875 13.375 4.4375 
Q 8.5 10.296875 8.5 21.578125 
" id="BitstreamVeraSans-Roman-75"/>
      <path d="M 41.109375 46.296875 
Q 39.59375 47.171875 37.8125 47.578125 
Q 36.03125 48 33.890625 48 
Q 26.265625 48 22.1875 43.046875 
Q 18.109375 38.09375 18.109375 28.8125 
L 18.109375 0 
L 9.078125 0 
L 9.078125 54.6875 
L 18.109375 54.6875 
L 18.109375 46.1875 
Q 20.953125 51.171875 25.484375 53.578125 
Q 30.03125 56 36.53125 56 
Q 37.453125 56 38.578125 55.875 
Q 39.703125 55.765625 41.0625 55.515625 
z
" id="BitstreamVeraSans-Roman-72"/>
      <path d="M 48.78125 52.59375 
L 48.78125 44.1875 
Q 44.96875 46.296875 41.140625 47.34375 
Q 37.3125 48.390625 33.40625 48.390625 
Q 24.65625 48.390625 19.8125 42.84375 
Q 14.984375 37.3125 14.984375 27.296875 
Q 14.984375 17.28125 19.8125 11.734375 
Q 24.65625 6.203125 33.40625 6.203125 
Q 37.3125 6.203125 41.140625 7.25 
Q 44.96875 8.296875 48.78125 10.40625 
L 48.78125 2.09375 
Q 45.015625 0.34375 40.984375 -0.53125 
Q 36.96875 -1.421875 32.421875 -1.421875 
Q 20.0625 -1.421875 12.78125 6.34375 
Q 5.515625 14.109375 5.515625 27.296875 
Q 5.515625 40.671875 12.859375 48.328125 
Q 20.21875 56 33.015625 56 
Q 37.15625 56 41.109375 55.140625 
Q 45.0625 54.296875 48.78125 52.59375 
" id="BitstreamVeraSans-Roman-63"/>
     </defs>
     <g transform="translate(16.54453125 331.428483911)rotate(-90.0)scale(0.17 -0.17)">
      <use xlink:href="#BitstreamVeraSans-Roman-46"/>
      <use x="57.41015625" xlink:href="#BitstreamVeraSans-Roman-72"/>
      <use x="98.5234375" xlink:href="#BitstreamVeraSans-Roman-61"/>
      <use x="159.802734375" xlink:href="#BitstreamVeraSans-Roman-63"/>
      <use x="214.783203125" xlink:href="#BitstreamVeraSans-Roman-74"/>
      <use x="253.9921875" xlink:href="#BitstreamVeraSans-Roman-69"/>
      <use x="281.775390625" xlink:href="#BitstreamVeraSans-Roman-6f"/>
      <use x="342.95703125" xlink:href="#BitstreamVeraSans-Roman-6e"/>
      <use x="406.3359375" xlink:href="#BitstreamVeraSans-Roman-20"/>
      <use x="438.123046875" xlink:href="#BitstreamVeraSans-Roman-6f"/>
      <use x="499.3046875" xlink:href="#BitstreamVeraSans-Roman-66"/>
      <use x="534.509765625" xlink:href="#BitstreamVeraSans-Roman-20"/>
      <use x="566.296875" xlink:href="#BitstreamVeraSans-Roman-66"/>
      <use x="601.501953125" xlink:href="#BitstreamVeraSans-Roman-75"/>
      <use x="664.880859375" xlink:href="#BitstreamVeraSans-Roman-6e"/>
      <use x="728.259765625" xlink:href="#BitstreamVeraSans-Roman-63"/>
      <use x="783.240234375" xlink:href="#BitstreamVeraSans-Roman-74"/>
      <use x="822.44921875" xlink:href="#BitstreamVeraSans-Roman-69"/>
      <use x="850.232421875" xlink:href="#BitstreamVeraSans-Roman-6f"/>
      <use x="911.4140625" xlink:href="#BitstreamVeraSans-Roman-6e"/>
      <use x="974.79296875" xlink:href="#BitstreamVeraSans-Roman-2c"/>
      <use x="1006.58007812" xlink:href="#BitstreamVeraSans-Roman-74"/>
      <use x="1045.7890625" xlink:href="#BitstreamVeraSans-Roman-61"/>
      <use x="1107.06835938" xlink:href="#BitstreamVeraSans-Roman-72"/>
      <use x="1148.16601562" xlink:href="#BitstreamVeraSans-Roman-67"/>
      <use x="1211.64257812" xlink:href="#BitstreamVeraSans-Roman-65"/>
      <use x="1273.16601562" xlink:href="#BitstreamVeraSans-Roman-74"/>
      <use x="1312.375" xlink:href="#BitstreamVeraSans-Roman-20"/>
      <use x="1344.16210938" xlink:href="#BitstreamVeraSans-Roman-70"/>
      <use x="1407.63867188" xlink:href="#BitstreamVeraSans-Roman-61"/>
      <use x="1468.91796875" xlink:href="#BitstreamVeraSans-Roman-69"/>
      <use x="1496.70117188" xlink:href="#BitstreamVeraSans-Roman-72"/>
      <use x="1537.81445312" xlink:href="#BitstreamVeraSans-Roman-73"/>
     </g>
    </g>
   </g>
   <g id="text_18">
    <!-- f9 -->
    <defs>
     <path d="M 10.984375 1.515625 
L 10.984375 10.5 
Q 14.703125 8.734375 18.5 7.8125 
Q 22.3125 6.890625 25.984375 6.890625 
Q 35.75 6.890625 40.890625 13.453125 
Q 46.046875 20.015625 46.78125 33.40625 
Q 43.953125 29.203125 39.59375 26.953125 
Q 35.25 24.703125 29.984375 24.703125 
Q 19.046875 24.703125 12.671875 31.3125 
Q 6.296875 37.9375 6.296875 49.421875 
Q 6.296875 60.640625 12.9375 67.421875 
Q 19.578125 74.21875 30.609375 74.21875 
Q 43.265625 74.21875 49.921875 64.515625 
Q 56.59375 54.828125 56.59375 36.375 
Q 56.59375 19.140625 48.40625 8.859375 
Q 40.234375 -1.421875 26.421875 -1.421875 
Q 22.703125 -1.421875 18.890625 -0.6875 
Q 15.09375 0.046875 10.984375 1.515625 
M 30.609375 32.421875 
Q 37.25 32.421875 41.125 36.953125 
Q 45.015625 41.5 45.015625 49.421875 
Q 45.015625 57.28125 41.125 61.84375 
Q 37.25 66.40625 30.609375 66.40625 
Q 23.96875 66.40625 20.09375 61.84375 
Q 16.21875 57.28125 16.21875 49.421875 
Q 16.21875 41.5 20.09375 36.953125 
Q 23.96875 32.421875 30.609375 32.421875 
" id="BitstreamVeraSans-Roman-39"/>
    </defs>
    <g transform="translate(464.017862903 382.121199239)scale(0.17 -0.17)">
     <use xlink:href="#BitstreamVeraSans-Roman-66"/>
     <use x="35.205078125" xlink:href="#BitstreamVeraSans-Roman-39"/>
    </g>
   </g>
   <g id="text_19">
    <!-- f8 -->
    <g transform="translate(464.017862903 262.605387064)scale(0.17 -0.17)">
     <use xlink:href="#BitstreamVeraSans-Roman-66"/>
     <use x="35.205078125" xlink:href="#BitstreamVeraSans-Roman-38"/>
    </g>
   </g>
   <g id="text_20">
    <!-- f6 -->
    <g transform="translate(464.017862903 143.089574888)scale(0.17 -0.17)">
     <use xlink:href="#BitstreamVeraSans-Roman-66"/>
     <use x="35.205078125" xlink:href="#BitstreamVeraSans-Roman-36"/>
    </g>
   </g>
   <g id="text_21">
    <!-- f7 -->
    <g transform="translate(464.017862903 23.5737627132)scale(0.17 -0.17)">
     <use xlink:href="#BitstreamVeraSans-Roman-66"/>
     <use x="35.205078125" xlink:href="#BitstreamVeraSans-Roman-37"/>
    </g>
   </g>
   <g id="text_22">
    <!-- bbob -->
    <defs>
     <path d="M 48.6875 27.296875 
Q 48.6875 37.203125 44.609375 42.84375 
Q 40.53125 48.484375 33.40625 48.484375 
Q 26.265625 48.484375 22.1875 42.84375 
Q 18.109375 37.203125 18.109375 27.296875 
Q 18.109375 17.390625 22.1875 11.75 
Q 26.265625 6.109375 33.40625 6.109375 
Q 40.53125 6.109375 44.609375 11.75 
Q 48.6875 17.390625 48.6875 27.296875 
M 18.109375 46.390625 
Q 20.953125 51.265625 25.265625 53.625 
Q 29.59375 56 35.59375 56 
Q 45.5625 56 51.78125 48.09375 
Q 58.015625 40.1875 58.015625 27.296875 
Q 58.015625 14.40625 51.78125 6.484375 
Q 45.5625 -1.421875 35.59375 -1.421875 
Q 29.59375 -1.421875 25.265625 0.953125 
Q 20.953125 3.328125 18.109375 8.203125 
L 18.109375 0 
L 9.078125 0 
L 9.078125 75.984375 
L 18.109375 75.984375 
z
" id="BitstreamVeraSans-Roman-62"/>
    </defs>
    <g transform="translate(59.01855 19.2008418936)scale(0.102 -0.102)">
     <use xlink:href="#BitstreamVeraSans-Roman-62"/>
     <use x="63.4765625" xlink:href="#BitstreamVeraSans-Roman-62"/>
     <use x="126.953125" xlink:href="#BitstreamVeraSans-Roman-6f"/>
     <use x="188.134765625" xlink:href="#BitstreamVeraSans-Roman-62"/>
    </g>
    <!-- Misc. moderate functions, 2-D -->
    <defs>
     <path d="M 19.671875 64.796875 
L 19.671875 8.109375 
L 31.59375 8.109375 
Q 46.6875 8.109375 53.6875 14.9375 
Q 60.6875 21.78125 60.6875 36.53125 
Q 60.6875 51.171875 53.6875 57.984375 
Q 46.6875 64.796875 31.59375 64.796875 
z
M 9.8125 72.90625 
L 30.078125 72.90625 
Q 51.265625 72.90625 61.171875 64.09375 
Q 71.09375 55.28125 71.09375 36.53125 
Q 71.09375 17.671875 61.125 8.828125 
Q 51.171875 0 30.078125 0 
L 9.8125 0 
z
" id="BitstreamVeraSans-Roman-44"/>
     <path d="M 9.8125 72.90625 
L 24.515625 72.90625 
L 43.109375 23.296875 
L 61.8125 72.90625 
L 76.515625 72.90625 
L 76.515625 0 
L 66.890625 0 
L 66.890625 64.015625 
L 48.09375 14.015625 
L 38.1875 14.015625 
L 19.390625 64.015625 
L 19.390625 0 
L 9.8125 0 
z
" id="BitstreamVeraSans-Roman-4d"/>
    </defs>
    <g transform="translate(59.01855 30.6226106436)scale(0.102 -0.102)">
     <use xlink:href="#BitstreamVeraSans-Roman-4d"/>
     <use x="86.279296875" xlink:href="#BitstreamVeraSans-Roman-69"/>
     <use x="114.0625" xlink:href="#BitstreamVeraSans-Roman-73"/>
     <use x="166.162109375" xlink:href="#BitstreamVeraSans-Roman-63"/>
     <use x="221.142578125" xlink:href="#BitstreamVeraSans-Roman-2e"/>
     <use x="252.9296875" xlink:href="#BitstreamVeraSans-Roman-20"/>
     <use x="284.716796875" xlink:href="#BitstreamVeraSans-Roman-6d"/>
     <use x="382.12890625" xlink:href="#BitstreamVeraSans-Roman-6f"/>
     <use x="443.310546875" xlink:href="#BitstreamVeraSans-Roman-64"/>
     <use x="506.787109375" xlink:href="#BitstreamVeraSans-Roman-65"/>
     <use x="568.310546875" xlink:href="#BitstreamVeraSans-Roman-72"/>
     <use x="609.423828125" xlink:href="#BitstreamVeraSans-Roman-61"/>
     <use x="670.703125" xlink:href="#BitstreamVeraSans-Roman-74"/>
     <use x="709.912109375" xlink:href="#BitstreamVeraSans-Roman-65"/>
     <use x="771.435546875" xlink:href="#BitstreamVeraSans-Roman-20"/>
     <use x="803.22265625" xlink:href="#BitstreamVeraSans-Roman-66"/>
     <use x="838.427734375" xlink:href="#BitstreamVeraSans-Roman-75"/>
     <use x="901.806640625" xlink:href="#BitstreamVeraSans-Roman-6e"/>
     <use x="965.185546875" xlink:href="#BitstreamVeraSans-Roman-63"/>
     <use x="1020.16601562" xlink:href="#BitstreamVeraSans-Roman-74"/>
     <use x="1059.375" xlink:href="#BitstreamVeraSans-Roman-69"/>
     <use x="1087.15820312" xlink:href="#BitstreamVeraSans-Roman-6f"/>
     <use x="1148.33984375" xlink:href="#BitstreamVeraSans-Roman-6e"/>
     <use x="1211.71875" xlink:href="#BitstreamVeraSans-Roman-73"/>
     <use x="1263.81835938" xlink:href="#BitstreamVeraSans-Roman-2c"/>
     <use x="1295.60546875" xlink:href="#BitstreamVeraSans-Roman-20"/>
     <use x="1327.39257812" xlink:href="#BitstreamVeraSans-Roman-32"/>
     <use x="1391.015625" xlink:href="#BitstreamVeraSans-Roman-2d"/>
     <use x="1427.09960938" xlink:href="#BitstreamVeraSans-Roman-44"/>
    </g>
    <!-- 51 targets: 100..1e-08 -->
    <defs>
     <path d="M 11.71875 12.40625 
L 22.015625 12.40625 
L 22.015625 0 
L 11.71875 0 
z
M 11.71875 51.703125 
L 22.015625 51.703125 
L 22.015625 39.3125 
L 11.71875 39.3125 
z
" id="BitstreamVeraSans-Roman-3a"/>
    </defs>
    <g transform="translate(59.01855 42.0443793936)scale(0.102 -0.102)">
     <use xlink:href="#BitstreamVeraSans-Roman-35"/>
     <use x="63.623046875" xlink:href="#BitstreamVeraSans-Roman-31"/>
     <use x="127.24609375" xlink:href="#BitstreamVeraSans-Roman-20"/>
     <use x="159.033203125" xlink:href="#BitstreamVeraSans-Roman-74"/>
     <use x="198.2421875" xlink:href="#BitstreamVeraSans-Roman-61"/>
     <use x="259.521484375" xlink:href="#BitstreamVeraSans-Roman-72"/>
     <use x="300.619140625" xlink:href="#BitstreamVeraSans-Roman-67"/>
     <use x="364.095703125" xlink:href="#BitstreamVeraSans-Roman-65"/>
     <use x="425.619140625" xlink:href="#BitstreamVeraSans-Roman-74"/>
     <use x="464.828125" xlink:href="#BitstreamVeraSans-Roman-73"/>
     <use x="516.927734375" xlink:href="#BitstreamVeraSans-Roman-3a"/>
     <use x="550.619140625" xlink:href="#BitstreamVeraSans-Roman-20"/>
     <use x="582.40625" xlink:href="#BitstreamVeraSans-Roman-31"/>
     <use x="646.029296875" xlink:href="#BitstreamVeraSans-Roman-30"/>
     <use x="709.65234375" xlink:href="#BitstreamVeraSans-Roman-30"/>
     <use x="773.275390625" xlink:href="#BitstreamVeraSans-Roman-2e"/>
     <use x="805.0625" xlink:href="#BitstreamVeraSans-Roman-2e"/>
     <use x="836.849609375" xlink:href="#BitstreamVeraSans-Roman-31"/>
     <use x="900.47265625" xlink:href="#BitstreamVeraSans-Roman-65"/>
     <use x="961.99609375" xlink:href="#BitstreamVeraSans-Roman-2d"/>
     <use x="998.080078125" xlink:href="#BitstreamVeraSans-Roman-30"/>
     <use x="1061.703125" xlink:href="#BitstreamVeraSans-Roman-38"/>
    </g>
    <!-- 15 instances -->
    <g transform="translate(59.01855 53.4661481436)scale(0.102 -0.102)">
     <use xlink:href="#BitstreamVeraSans-Roman-31"/>
     <use x="63.623046875" xlink:href="#BitstreamVeraSans-Roman-35"/>
     <use x="127.24609375" xlink:href="#BitstreamVeraSans-Roman-20"/>
     <use x="159.033203125" xlink:href="#BitstreamVeraSans-Roman-69"/>
     <use x="186.81640625" xlink:href="#BitstreamVeraSans-Roman-6e"/>
     <use x="250.1953125" xlink:href="#BitstreamVeraSans-Roman-73"/>
     <use x="302.294921875" xlink:href="#BitstreamVeraSans-Roman-74"/>
     <use x="341.50390625" xlink:href="#BitstreamVeraSans-Roman-61"/>
     <use x="402.783203125" xlink:href="#BitstreamVeraSans-Roman-6e"/>
     <use x="466.162109375" xlink:href="#BitstreamVeraSans-Roman-63"/>
     <use x="521.142578125" xlink:href="#BitstreamVeraSans-Roman-65"/>
     <use x="582.666015625" xlink:href="#BitstreamVeraSans-Roman-73"/>
    </g>
   </g>
   <g id="text_23">
    <!-- v2.2.1.10 -->
    <g style="fill:#808080;" transform="translate(255.5696875 379.048094678)scale(0.1 -0.1)">
     <use xlink:href="#BitstreamVeraSans-Roman-76"/>
     <use x="59.1796875" xlink:href="#BitstreamVeraSans-Roman-32"/>
     <use x="122.802734375" xlink:href="#BitstreamVeraSans-Roman-2e"/>
     <use x="154.58984375" xlink:href="#BitstreamVeraSans-Roman-32"/>
     <use x="218.212890625" xlink:href="#BitstreamVeraSans-Roman-2e"/>
     <use x="250.0" xlink:href="#BitstreamVeraSans-Roman-31"/>
     <use x="313.623046875" xlink:href="#BitstreamVeraSans-Roman-2e"/>
     <use x="345.41015625" xlink:href="#BitstreamVeraSans-Roman-31"/>
     <use x="409.033203125" xlink:href="#BitstreamVeraSans-Roman-30"/>
    </g>
   </g>
  </g>
 </g>
 <defs>
  <clipPath id="pe4d644ba05">
   <rect height="377.221782178" width="449.355" x="54.525" y="7.67821782178"/>
  </clipPath>
 </defs>
</svg>
